<svg version="1.1" xmlns="http://www.w3.org/2000/svg" xmlns:xlink="http://www.w3.org/1999/xlink" x="0px" y="0px"
   viewBox="0 0 120 120" style="enable-background:new 0 0 107.3 91.9;" xml:space="preserve">
<style type="text/css">
.st0{fill:#CCEDF0;}
.st1{fill:url(#LaptopOutline_2_);}
.st2{fill:url(#Keyboard_2_);}
.st3{fill:url(#SVGID_1_);}
.st4{fill:#FFFFFF;}
.st5{fill:url(#DeviceOutline_2_);}
.st6{opacity:0.2;fill:url(#LargeCircle_2_);}
.st7{opacity:0.2;fill:url(#LargeSolid_1_);}
.st8{opacity:0.2;fill:url(#SmallDotted_1_);}
.st9{opacity:0.2;fill:url(#SmallSolid_1_);}
.st10{fill:url(#SmallHeart_2_);}
.st11{fill:#F9F9FA;}
.st12{fill:url(#LargeHeart_3_);}

@keyframes beat {
  0% {
    transform: scale(1);
  }
  25% {
    transform: scale(.8);
  }
  60% {
    transform: scale(1);
  }
  80% {
    transform: scale(.9);
  }
  90% {
    transform: scale(1);
  }
  100% {
    transform: scale(1);
  }

}

.LargeHeart_2_ {
  animation: beat 1.5s infinite;
  transform-origin: 40% 20%;
}

.SmallHeart {
  animation: beat 1.5s infinite;
  transform-origin: 70% 50%;
}

@keyframes spin {
  0% {
    transform: rotate(0deg);
  }
  100% {
    transform: rotate(360deg);
  }
}

#LargeCircle_1_ {
  animation: spin 10s infinite linear;
  transform-origin: 39% 22%;
}

@keyframes spinback {
  0% {
    transform: rotate(360deg);
  }
  100% {
    transform: rotate(0deg);
  }

}

#SmallDotted {
  animation: spinback 10s infinite linear;
  transform-origin: 72% 46.5%;
}
</style>

<g id="Devices">
  <g id="LaptopScreen_2_">
  <g id="LaptopScreen">
    <path id="LaptopScreen_1_" class="st0" d="M74.3,13c0.6,0,1.1,0.5,1.1,1.1v34.4c0,0.6-0.5,1.1-1.1,1.1H16.6
    c-0.6,0-1.1-0.5-1.1-1.1V14.1c0-0.6,0.5-1.1,1.1-1.1H74.3"/>
  </g>
  </g>
  <g id="LaptopOutline">

    <linearGradient id="LaptopOutline_2_" gradientUnits="userSpaceOnUse" x1="642.6261" y1="1843.455" x2="829.626" y2="2012.955" gradientTransform="matrix(1 0 0 1 -683.19 -1876.1681)">
    <stop  offset="0" style="stop-color:#00C8D7"/>
    <stop  offset="1" style="stop-color:#0A84FF"/>
  </linearGradient>
  <path id="LaptopOutline_1_" class="st1" d="M88.8,72.5l-7.3-16.1c-0.3-0.8-0.9-1.4-1.6-1.8c1.2-1.1,1.9-2.6,1.9-4.2V9.6
    c0-3.1-2.5-5.6-5.6-5.6H14.7c-3.1,0-5.5,2.5-5.6,5.6v40.7c0,1.5,0.6,3,1.7,4c-0.9,0.4-1.6,1.1-2,2L2.1,72.5
    c-0.2,0.5-0.3,1-0.3,1.5v1.1c0.1,2.3,2,4,4.2,4h78.9c2.3,0.1,4.1-1.7,4.2-4v-1C89.1,73.5,89,73,88.8,72.5z M87.1,75.1
    c-0.1,1.2-1.1,2-2.2,2H6c-1.2,0.1-2.1-0.8-2.2-2V74c0-0.2,0-0.5,0.1-0.7l6.9-16.1c0.4-0.8,1.2-1.3,2.1-1.3h64.7
    c0.9,0,1.7,0.5,2.1,1.2L87,73.2c0.1,0.2,0.2,0.5,0.2,0.7L87.1,75.1L87.1,75.1z M11.2,50.3V9.6c0-2,1.6-3.6,3.6-3.6h61.4
    c2,0,3.6,1.6,3.6,3.6v40.7c0,2-1.6,3.6-3.6,3.6H14.7C12.7,53.9,11.2,52.3,11.2,50.3z"/>
  </g>
  <g id="Keyboard">

    <linearGradient id="Keyboard_2_" gradientUnits="userSpaceOnUse" x1="595.6896" y1="1806.7828" x2="848.6896" y2="2056.7827" gradientTransform="matrix(1 0 0 1 -683.19 -1876.1681)">
    <stop  offset="0" style="stop-color:#00C8D7"/>
    <stop  offset="1" style="stop-color:#0A84FF"/>
  </linearGradient>
  <path id="Keyboard_1_" class="st2" d="M58.6,71.4H32.3c-0.4,0.1-0.7-0.2-0.8-0.5c0.3-1.7,0.5-2.6,0.8-4.4c0.1-0.3,0.4-0.5,0.7-0.4
    C43.1,66,48.3,66,58.3,65.9c0.3-0.1,0.6,0.1,0.7,0.4c0.2,1.5,0.4,3,0.4,4.5C59.3,71.1,59,71.4,58.6,71.4z M27.9,61.9H24
    c-0.3,0-0.5,0.1-0.7,0.4c-0.1,0.5-0.2,0.7-0.3,1.2c0.1,0.4,0.5,0.7,0.9,0.7h3.8c0.3,0,0.5-0.1,0.7-0.4c0.1-0.5,0.2-0.7,0.3-1.2
    C28.9,62.2,28.4,61.9,27.9,61.9z M37.7,61.9h-4.1c-0.3,0-0.6,0.1-0.7,0.4c-0.1,0.5-0.1,0.7-0.2,1.2c0.1,0.4,0.5,0.7,0.9,0.6h3.9
    c0.3,0,0.6-0.1,0.7-0.4c0.1-0.5,0.2-0.7,0.3-1.2C38.6,62.1,38.2,61.8,37.7,61.9z M58.3,63.3c-0.1-0.5-0.1-0.7-0.2-1.2
    c-0.1-0.3-0.4-0.4-0.7-0.4h-4.1c-0.4-0.1-0.8,0.2-0.9,0.6c0.1,0.5,0.2,0.7,0.3,1.2c0.1,0.3,0.4,0.4,0.7,0.4h3.9
    C57.8,64,58.2,63.7,58.3,63.3z M48.3,63.4c-0.1-0.5-0.1-0.7-0.2-1.2c-0.1-0.3-0.5-0.5-0.8-0.4h-3.7c-0.3,0-0.7,0.1-0.8,0.4
    c-0.1,0.5-0.2,0.7-0.2,1.2c0,0.4,0.4,0.6,0.7,0.6h4.2C47.9,64,48.3,63.8,48.3,63.4z M68,63.2c-0.1-0.5-0.1-0.7-0.2-1.1
    c-0.1-0.2-0.4-0.4-0.6-0.3h-3.9c-0.4-0.1-0.8,0.2-0.9,0.6c0.1,0.5,0.2,0.7,0.3,1.1c0.1,0.2,0.4,0.4,0.7,0.3h3.8
    C67.5,63.9,67.9,63.6,68,63.2z M28.9,58.2h-3.7c-0.3,0-0.5,0.1-0.6,0.3c-0.1,0.4-0.2,0.7-0.3,1.1c0,0.4,0.4,0.7,0.8,0.6h3.7
    c0.3,0,0.5-0.1,0.7-0.3c0.1-0.4,0.2-0.7,0.4-1.1C29.8,58.5,29.4,58.2,28.9,58.2z M38.2,58.2h-3.9c-0.3,0-0.6,0.1-0.7,0.4
    c-0.1,0.4-0.2,0.7-0.3,1.1c0.1,0.4,0.4,0.6,0.8,0.6H38c0.3,0,0.6-0.1,0.7-0.4c0.1-0.4,0.2-0.7,0.3-1.1
    C39.1,58.5,38.7,58.2,38.2,58.2z M57.8,59.6c-0.1-0.4-0.1-0.7-0.2-1.1c-0.1-0.3-0.4-0.4-0.7-0.4H53c-0.4-0.1-0.8,0.2-0.8,0.5
    c0.1,0.4,0.1,0.7,0.2,1.1c0.1,0.3,0.4,0.4,0.7,0.4h3.8C57.4,60.2,57.7,60,57.8,59.6z M48.3,59.7c-0.1-0.4-0.1-0.7-0.2-1.1
    c-0.1-0.3-0.4-0.5-0.7-0.4h-3.5c-0.3,0-0.6,0.1-0.8,0.4C43,59,43,59.2,42.9,59.7c-0.1,0.3,0.3,0.5,0.8,0.5h3.9
    C47.9,60.3,48.3,60,48.3,59.7z M67,59.5c-0.1-0.4-0.1-0.7-0.2-1.1c-0.1-0.2-0.4-0.4-0.6-0.3h-3.7c-0.4-0.1-0.8,0.2-0.9,0.6
    c0.1,0.4,0.2,0.7,0.3,1.1c0.1,0.2,0.4,0.4,0.6,0.3h3.6C66.5,60.2,66.9,59.9,67,59.5z M18.9,61.9h-3.7c-0.3,0-0.5,0.1-0.7,0.4
    c-0.2,0.4-0.3,0.8-0.4,1.2c0,0.4,0.4,0.7,0.8,0.7h3.8c0.3,0,0.5-0.1,0.6-0.4c0.1-0.4,0.2-0.8,0.4-1.2
    C19.9,62.3,19.5,61.9,18.9,61.9z M20.3,58.2h-3.5c-0.2,0-0.5,0.1-0.6,0.3c-0.1,0.4-0.2,0.7-0.4,1.1c-0.1,0.3,0.2,0.6,0.7,0.6h3.4
    c0.3,0,0.5-0.1,0.7-0.3c0.2-0.4,0.3-0.7,0.4-1.1C21.2,58.5,20.8,58.2,20.3,58.2z M71.2,62.4c0.1,0.4,0.3,0.8,0.3,1.1
    c0.1,0.2,0.4,0.4,0.6,0.3h3.7c0.4,0.1,0.8-0.2,0.9-0.6c-0.1-0.4-0.2-0.8-0.3-1.1c-0.1-0.2-0.4-0.4-0.7-0.3H72
    C71.4,61.7,71,62,71.2,62.4z M70.1,58.7c0.1,0.4,0.2,0.7,0.4,1.1c0.1,0.2,0.4,0.3,0.6,0.3h3.4c0.3,0.1,0.7-0.1,0.7-0.5v-0.1
    c-0.1-0.4-0.2-0.7-0.3-1.1c-0.1-0.2-0.3-0.4-0.6-0.3h-3.5C70.5,58,70.1,58.3,70.1,58.7z"/>
  </g>
  <g id="Webcam">
  <g id="Webcam_1_">

    <linearGradient id="SVGID_1_" gradientUnits="userSpaceOnUse" x1="-58.6293" y1="1714.9221" x2="189.3707" y2="1964.9221" gradientTransform="matrix(1 0 0 1 0 -1812)">
    <stop  offset="0" style="stop-color:#00C8D7"/>
    <stop  offset="1" style="stop-color:#0A84FF"/>
    </linearGradient>
    <circle class="st3" cx="46.6" cy="9" r="1.2"/>
  </g>
  </g>
  <g id="DeviceBackground">
  <path id="DeviceBackground_1_" class="st4" d="M73.4,29.5H99c2.5,0,4.4,2,4.4,4.4v50.3c0,2.5-2,4.4-4.4,4.4H73.4
    c-2.5,0-4.4-2-4.4-4.4V33.9C69,31.5,71,29.5,73.4,29.5z"/>
  </g>
  <g id="DeviceOutline">

    <linearGradient id="DeviceOutline_2_" gradientUnits="userSpaceOnUse" x1="627.8312" y1="1806.6085" x2="868.3312" y2="2025.1084" gradientTransform="matrix(1 0 0 1 -683.19 -1876.1681)">
    <stop  offset="0" style="stop-color:#00C8D7"/>
    <stop  offset="1" style="stop-color:#0A84FF"/>
  </linearGradient>
  <path id="DeviceOutline_1_" class="st5" d="M99,30.5c1.9,0,3.4,1.5,3.4,3.4v50.3c0,1.9-1.5,3.4-3.4,3.4H73.4
    c-1.9,0-3.4-1.5-3.4-3.4V33.9c0-1.9,1.5-3.4,3.4-3.4L99,30.5 M99,28.5H73.4c-3,0-5.4,2.4-5.4,5.4v50.3c0,3,2.4,5.4,5.4,5.4H99
    c3,0,5.4-2.4,5.4-5.4V33.9C104.4,30.9,102,28.5,99,28.5z"/>
  </g>
  <g id="DeviceScreen">
  <path id="DeviceScreen_1_" class="st0" d="M97.4,35.3c0.4,0,0.7,0.3,0.7,0.7v41.9c0,0.4-0.3,0.7-0.7,0.7H75
    c-0.4,0-0.7-0.3-0.7-0.7V36c0-0.4,0.3-0.7,0.7-0.7H97.4"/>
  </g>
</g>
<g class="LargeCircle">
  <linearGradient id="LargeCircle_2_" gradientUnits="userSpaceOnUse" x1="2.5755" y1="-12.6669" x2="86.8279" y2="62.5225">
  <stop  offset="0" style="stop-color:#00C8D7"/>
  <stop  offset="1" style="stop-color:#0A84FF"/>
  </linearGradient>
  <path id="LargeCircle_1_" class="st6" d="M46.5,4.3 M46.5,53L46.5,53c-4.5,0-9-1.2-12.9-3.3c-0.2-0.1-0.3-0.4-0.2-0.7
  c0.1-0.2,0.4-0.3,0.7-0.2c3.8,2.1,8.1,3.2,12.4,3.2c0.3,0,0.5,0.2,0.5,0.5S46.8,53,46.5,53z M56.2,51.2c-0.2,0-0.4-0.1-0.5-0.3
  c-0.1-0.3,0-0.5,0.3-0.7c0.3-0.1,0.7-0.3,1-0.4c0.2-0.1,0.5,0,0.7,0.2c0.1,0.3,0,0.5-0.2,0.7c-0.3,0.2-0.7,0.3-1,0.4
  C56.3,51.2,56.3,51.2,56.2,51.2z M61.1,48.6c-0.2,0-0.3-0.1-0.4-0.2c-0.2-0.2-0.1-0.5,0.1-0.7c0.9-0.6,1.8-1.3,2.6-2
  c0.2-0.2,0.5-0.2,0.7,0c0.2,0.2,0.2,0.5,0,0.7c-0.8,0.7-1.7,1.4-2.7,2.1C61.3,48.5,61.2,48.6,61.1,48.6z M27,44.2
  c-0.1,0-0.3-0.1-0.4-0.2c-0.7-0.8-1.4-1.7-2.1-2.7c-0.2-0.2-0.1-0.5,0.1-0.7c0.2-0.2,0.5-0.1,0.7,0.1c0.6,0.9,1.3,1.8,2,2.6
  c0.2,0.2,0.2,0.5,0,0.7C27.2,44.2,27.1,44.2,27,44.2z M69.2,39.7c-0.1,0-0.2,0-0.2-0.1c-0.2-0.1-0.3-0.4-0.2-0.7
  c2.1-3.8,3.2-8.1,3.2-12.4v-0.1c0-0.3,0.2-0.5,0.5-0.5s0.5,0.2,0.5,0.5v0.1c0,4.5-1.2,9-3.4,12.9C69.6,39.6,69.4,39.7,69.2,39.7z
   M22.8,37.8c-0.2,0-0.4-0.1-0.5-0.3c-0.2-0.3-0.3-0.7-0.4-1c-0.1-0.3,0-0.5,0.3-0.7c0.3-0.1,0.5,0,0.7,0.3c0.1,0.3,0.3,0.7,0.4,1
  c0.1,0.3,0,0.5-0.2,0.7C22.9,37.8,22.9,37.8,22.8,37.8z M20.5,27.1c-0.3,0-0.5-0.2-0.5-0.5c0,0,0-0.1,0-0.1c0-4.5,1.1-8.9,3.3-12.8
  c0.1-0.2,0.4-0.3,0.7-0.2c0.2,0.1,0.3,0.4,0.2,0.7c-2.1,3.8-3.2,8-3.2,12.4C21,26.8,20.7,27.1,20.5,27.1z M70.6,17.2
  c-0.2,0-0.4-0.1-0.5-0.3c-0.1-0.3-0.3-0.7-0.4-1c-0.1-0.3,0-0.5,0.2-0.7c0.2-0.1,0.5,0,0.7,0.2c0.2,0.3,0.3,0.7,0.4,1
  c0.1,0.3,0,0.5-0.3,0.7C70.7,17.2,70.7,17.2,70.6,17.2z M68,12.4c-0.2,0-0.3-0.1-0.4-0.2c-0.6-0.9-1.3-1.8-2-2.6
  c-0.2-0.2-0.2-0.5,0-0.7c0.2-0.2,0.5-0.2,0.7,0c0.7,0.8,1.4,1.7,2.1,2.7c0.2,0.2,0.1,0.5-0.1,0.7C68.2,12.3,68.1,12.4,68,12.4z
   M29.2,7.5c-0.1,0-0.3-0.1-0.4-0.2c-0.2-0.2-0.2-0.5,0-0.7c0.8-0.7,1.7-1.4,2.7-2.1c0.2-0.2,0.5-0.1,0.7,0.1
  c0.2,0.2,0.1,0.5-0.1,0.7c-0.9,0.6-1.8,1.3-2.6,2C29.5,7.5,29.4,7.5,29.2,7.5z M59.1,4.2c-0.1,0-0.2,0-0.2-0.1
  C55.1,2.1,50.8,1,46.5,1c-0.3,0-0.5-0.2-0.5-0.5S46.1,0,46.4,0h0.1c4.5,0,8.9,1.1,12.8,3.3c0.2,0.1,0.3,0.4,0.2,0.7
  C59.4,4.2,59.3,4.2,59.1,4.2z M35.7,3.3c-0.2,0-0.4-0.1-0.5-0.3c-0.1-0.3,0-0.5,0.2-0.7c0.3-0.2,0.7-0.3,1-0.4
  c0.3-0.1,0.5,0,0.7,0.3c0.1,0.3,0,0.5-0.3,0.7c-0.3,0.1-0.7,0.3-1,0.4C35.8,3.3,35.8,3.3,35.7,3.3z"/>
  <linearGradient id="LargeSolid_1_" gradientUnits="userSpaceOnUse" x1="9.4347" y1="-6.5412" x2="80.5265" y2="56.9032">
  <stop  offset="0" style="stop-color:#00C8D7"/>
  <stop  offset="1" style="stop-color:#0A84FF"/>
  </linearGradient>
  <path id="LargeSolid" class="st7" d="M46.5,48.8c-12.3,0-22.2-10-22.2-22.2s10-22.2,22.2-22.2c12.3,0,22.2,10,22.2,22.2
  S58.7,48.8,46.5,48.8z M46.5,6.3c-11.2,0-20.2,9.1-20.2,20.2s9.1,20.2,20.2,20.2c11.2,0,20.2-9.1,20.2-20.2S57.6,6.3,46.5,6.3z"/>
</g>
<g class="SmallCircle">
  <linearGradient id="SmallDotted_1_" gradientUnits="userSpaceOnUse" x1="51.3995" y1="24.4989" x2="118.2724" y2="84.1783">
  <stop  offset="0" style="stop-color:#00C8D7"/>
  <stop  offset="1" style="stop-color:#0A84FF"/>
  </linearGradient>
  <path id="SmallDotted" class="st8" d="M86.3,76.7L86.3,76.7c-3.6,0-7.2-0.9-10.3-2.7c-0.2-0.1-0.3-0.4-0.2-0.7
  c0.1-0.2,0.4-0.3,0.7-0.2c3,1.7,6.3,2.5,9.8,2.5c0.3,0,0.5,0.2,0.5,0.5S86.6,76.7,86.3,76.7z M93.9,75.2c-0.2,0-0.4-0.1-0.5-0.3
  c-0.1-0.3,0-0.5,0.3-0.7c0.3-0.1,0.5-0.2,0.8-0.3c0.3-0.1,0.5,0,0.7,0.2c0.1,0.3,0,0.5-0.2,0.7c-0.3,0.1-0.5,0.2-0.8,0.4
  C94.1,75.2,94,75.2,93.9,75.2z M97.8,73.1c-0.2,0-0.3-0.1-0.4-0.2c-0.2-0.2-0.1-0.5,0.1-0.7c0.7-0.5,1.4-1,2-1.6
  c0.2-0.2,0.5-0.2,0.7,0c0.2,0.2,0.2,0.5,0,0.7c-0.7,0.6-1.4,1.1-2.1,1.6C98,73.1,97.9,73.1,97.8,73.1z M70.8,69.7
  c-0.1,0-0.3-0.1-0.4-0.2c-0.6-0.7-1.1-1.4-1.6-2.1c-0.2-0.2-0.1-0.5,0.1-0.7c0.2-0.2,0.5-0.1,0.7,0.1c0.5,0.7,1,1.4,1.6,2
  c0.2,0.2,0.2,0.5,0,0.7C71.1,69.7,71,69.7,70.8,69.7z M104.2,66.1c-0.1,0-0.2,0-0.2-0.1c-0.2-0.1-0.3-0.4-0.2-0.7
  c1.7-3,2.5-6.4,2.5-9.8v-0.1c0-0.3,0.2-0.5,0.5-0.5s0.5,0.2,0.5,0.5v0.1c0,3.6-0.9,7.1-2.7,10.3C104.5,66,104.4,66.1,104.2,66.1z
   M67.5,64.6c-0.2,0-0.4-0.1-0.5-0.3c-0.1-0.3-0.2-0.5-0.4-0.8c-0.1-0.3,0-0.5,0.3-0.7c0.3-0.1,0.5,0,0.7,0.3
  c0.1,0.3,0.2,0.5,0.3,0.8c0.1,0.3,0,0.5-0.2,0.7C67.7,64.6,67.6,64.6,67.5,64.6z M65.7,56.1c-0.3,0-0.5-0.2-0.5-0.5v-0.1
  c0-3.6,0.9-7.1,2.6-10.2c0.1-0.2,0.4-0.3,0.7-0.2c0.2,0.1,0.3,0.4,0.2,0.7c-1.6,3-2.5,6.3-2.5,9.7C66.2,55.9,66,56.1,65.7,56.1z
   M105.3,48.4c-0.2,0-0.4-0.1-0.5-0.3c-0.1-0.3-0.2-0.5-0.3-0.8c-0.1-0.3,0-0.5,0.2-0.7c0.3-0.1,0.5,0,0.7,0.2
  c0.1,0.3,0.2,0.5,0.4,0.8c0.1,0.3,0,0.5-0.3,0.7C105.4,48.3,105.3,48.4,105.3,48.4z M103.2,44.5c-0.2,0-0.3-0.1-0.4-0.2
  c-0.5-0.7-1-1.4-1.6-2c-0.2-0.2-0.2-0.5,0-0.7s0.5-0.2,0.7,0c0.6,0.7,1.1,1.4,1.6,2.1c0.2,0.2,0.1,0.5-0.1,0.7
  C103.4,44.5,103.3,44.5,103.2,44.5z M72.6,40.7c-0.1,0-0.3-0.1-0.4-0.2c-0.2-0.2-0.2-0.5,0-0.7c0.7-0.6,1.4-1.1,2.1-1.6
  c0.2-0.2,0.5-0.1,0.7,0.1c0.2,0.2,0.1,0.5-0.1,0.7c-0.7,0.5-1.4,1-2,1.6C72.9,40.7,72.7,40.7,72.6,40.7z M96.2,38.1
  c-0.1,0-0.2,0-0.2-0.1c-3-1.6-6.3-2.5-9.7-2.5c-0.3,0-0.5-0.2-0.5-0.5s0.2-0.5,0.5-0.5h0.1c3.6,0,7.1,0.9,10.2,2.6
  c0.2,0.1,0.3,0.4,0.2,0.7C96.5,38,96.4,38.1,96.2,38.1z M77.7,37.4c-0.2,0-0.4-0.1-0.5-0.3c-0.1-0.3,0-0.5,0.2-0.7
  c0.3-0.1,0.5-0.2,0.8-0.4c0.3-0.1,0.5,0,0.7,0.3c0.1,0.3,0,0.5-0.3,0.7c-0.3,0.1-0.5,0.2-0.8,0.3C77.9,37.4,77.8,37.4,77.7,37.4z"
  />
  <linearGradient id="SmallSolid_1_" gradientUnits="userSpaceOnUse" x1="58.3788" y1="30.7813" x2="111.86" y2="78.5095">
  <stop  offset="0" style="stop-color:#00C8D7"/>
  <stop  offset="1" style="stop-color:#0A84FF"/>
  </linearGradient>
  <path id="SmallSolid" class="st9" d="M86.3,72.4c-9.2,0-16.7-7.5-16.7-16.7S77,38.9,86.3,38.9c9.2,0,16.7,7.5,16.7,16.7
  S95.5,72.4,86.3,72.4z M86.3,40.9c-8.1,0-14.7,6.6-14.7,14.7c0,8.1,6.6,14.7,14.7,14.7c8.1,0,14.7-6.6,14.7-14.7
  C101,47.5,94.4,40.9,86.3,40.9z"/>
</g>
<g class="SmallHeart">
  <g id="SmallHeartFill">

    <linearGradient id="SmallHeart_2_" gradientUnits="userSpaceOnUse" x1="695.7855" y1="1934.1177" x2="838.8972" y2="1934.1177" gradientTransform="matrix(1 0 0 1 -683.19 -1876.1681)">
    <stop  offset="0" style="stop-color:#00C8D7"/>
    <stop  offset="1" style="stop-color:#0A84FF"/>
  </linearGradient>
  <path id="SmallHeart_1_" class="st10" d="M87.7,71.1l11-9c4.5-3,5.7-9,2.7-13.4c-3-4.5-9-5.7-13.4-2.7l-1.5,1.2
    c0,0-0.1,0.1-0.2,0.1s-0.1,0-0.2-0.1c-3.8-3.8-9.9-3.8-13.7,0c-3.2,3.2-3.8,8.3-1.3,12.1c0.7,1.1,1.7,2.1,2.8,2.8l11.1,9
    C85.8,71.7,86.9,71.7,87.7,71.1z"/>
  </g>
  <g id="SmallHeartOutline">
  <path id="SmallHeartOutline_1_" class="st4" d="M79.3,45.3c2.3,0,4.5,0.9,6.1,2.5c0.2,0.2,0.5,0.4,0.9,0.4c0.3,0,0.6-0.1,0.9-0.4
    c3.4-3.4,8.9-3.4,12.3,0s3.4,8.9,0,12.3c-0.4,0.4-0.9,0.8-1.3,1.1l-11.1,9c-0.2,0.2-0.4,0.2-0.7,0.2c-0.2,0-0.5-0.1-0.7-0.2
    l-11.1-9c-1-0.6-1.9-1.5-2.5-2.5c-2.2-3.4-1.7-8,1.1-10.9C74.8,46.2,77,45.3,79.3,45.3 M79.3,43.3c-2.8,0-5.5,1.1-7.5,3.1
    c-3.6,3.6-4.2,9.2-1.4,13.4c0.8,1.2,1.8,2.2,3,3l11,8.9c1.1,0.9,2.7,0.9,3.9,0l11-9c4.9-3.3,6.2-9.9,2.9-14.8
    c-3.3-4.9-9.9-6.2-14.8-2.9c-0.4,0.2-0.7,0.5-1,0.8C84.4,44.3,81.9,43.3,79.3,43.3z"/>
  </g>
  <g id="SmallHeartShine">
  <path id="SmallHeartShine_1_" class="st11" d="M74.1,55.2L74.1,55.2c-0.9-0.1-1.5-0.8-1.4-1.6c0.2-2.8,2.3-5.2,5-5.8
    c0.8-0.2,1.6,0.3,1.7,1.1c0.2,0.8-0.3,1.6-1.1,1.7c-1.5,0.3-2.7,1.6-2.8,3.2C75.5,54.7,74.9,55.2,74.1,55.2z"/>
  </g>
</g>
<g class="LargeHeart_2_">
  <g id="LargeHeartFill">

    <linearGradient id="LargeHeart_3_" gradientUnits="userSpaceOnUse" x1="631.9871" y1="1905.5431" x2="821.7679" y2="1905.5431" gradientTransform="matrix(1 0 0 1 -683.19 -1876.1681)">
    <stop  offset="0" style="stop-color:#00C8D7"/>
    <stop  offset="1" style="stop-color:#0A84FF"/>
  </linearGradient>
  <path id="LargeHeart_1_" class="st12" d="M46.7,47.4c-0.6,0-1.1-0.2-1.6-0.5l-15-12.1c-1.5-1-2.7-2.2-3.7-3.7
    c-3.3-5-2.6-11.7,1.7-16c5-4.9,13-4.9,17.9,0c0.1,0.1,0.3,0.2,0.5,0.2s0.4-0.1,0.5-0.2c5-5,13-5,18,0s5,13,0,18
    c-0.6,0.6-1.3,1.1-2,1.6L48.3,46.8C47.8,47.2,47.3,47.4,46.7,47.4z"/>
  </g>
  <g id="LargeHeartOutline">
  <path id="LargeHeartOutline_1_" class="st4" d="M37.2,12.4c3.1,0,6.1,1.2,8.3,3.4c0.3,0.3,0.7,0.5,1.2,0.5c0.4,0,0.9-0.2,1.2-0.5
    c4.6-4.6,12-4.6,16.6,0s4.6,12,0,16.6l-1.8,1.5L47.7,46c-0.3,0.2-0.6,0.3-0.9,0.3c-0.3,0-0.7-0.1-0.9-0.3l-15-12.2
    c-1.4-0.9-2.5-2-3.4-3.4c-3-4.7-2.4-10.8,1.5-14.7C31.1,13.6,34.1,12.3,37.2,12.4 M37.2,10.4c-3.6,0-7.1,1.4-9.7,4
    c-4.6,4.6-5.3,11.8-1.8,17.2c1,1.6,2.3,2.9,3.9,3.9l14.9,12.1c1.3,1,3.1,1,4.4,0l14.9-12.1c6.3-4.2,7.9-12.8,3.7-19
    c-4.2-6.3-12.8-7.9-19-3.7c-0.6,0.4-1.2,0.9-1.8,1.5C44.1,11.7,40.7,10.3,37.2,10.4z"/>
  </g>
  <g id="LargeHeartShine">
  <path id="LargeHeartShine_1_" class="st11" d="M30.2,24.7H30c-1.1-0.1-1.9-1-1.8-2.1c0.3-3.8,3.1-7,6.8-7.8
    c1.1-0.2,2.1,0.4,2.3,1.5s-0.4,2.1-1.5,2.3c-2.1,0.5-3.6,2.2-3.8,4.3C32,23.9,31.2,24.7,30.2,24.7z"/>
  </g>
</g>
</svg>
