<?xml version="1.0" encoding="utf-8"?>
<!-- Generator: Adobe Illustrator 21.1.0, SVG Export Plug-In . SVG Version: 6.00 Build 0)  -->
<svg version="1.1" xmlns="http://www.w3.org/2000/svg" xmlns:xlink="http://www.w3.org/1999/xlink" x="0px" y="0px"
   viewBox="0 0 107.3 91.9" style="enable-background:new 0 0 107.3 91.9;" xml:space="preserve">
<style type="text/css">
  .st0{fill:#FFFFFF;}
  .st1{fill:#CCEDF0;}
  .st2{fill:#F9F9FA;}
  .st3{fill:url(#SVGID_1_);}
  .st4{fill:url(#SVGID_2_);}
  .st5{fill:url(#SVGID_3_);}
  .st6{fill:url(#SVGID_4_);}
  .st7{opacity:0.2;fill:url(#SVGID_5_);enable-background:new    ;}
  .st8{opacity:0.2;fill:url(#SVGID_6_);enable-background:new    ;}
  .st9{opacity:0.2;fill:url(#SVGID_7_);enable-background:new    ;}
  .st10{opacity:0.2;fill:url(#SVGID_8_);enable-background:new    ;}
  .st11{opacity:0.2;fill:url(#SVGID_9_);enable-background:new    ;}
  .st12{opacity:0.2;fill:url(#SVGID_10_);enable-background:new    ;}
  .st13{opacity:0.2;fill:url(#SVGID_11_);enable-background:new    ;}
  .st14{opacity:0.2;fill:url(#SVGID_12_);enable-background:new    ;}
  .st15{opacity:0.2;fill:url(#SVGID_13_);enable-background:new    ;}
  .st16{opacity:0.2;fill:url(#SVGID_14_);enable-background:new    ;}
  .st17{opacity:0.2;fill:url(#SVGID_15_);enable-background:new    ;}
  .st18{opacity:0.2;fill:url(#SVGID_16_);enable-background:new    ;}
  .st19{opacity:0.2;fill:url(#SVGID_17_);enable-background:new    ;}
  .st20{opacity:0.2;fill:url(#SVGID_18_);enable-background:new    ;}
  .st21{opacity:0.2;fill:url(#SVGID_19_);enable-background:new    ;}
  .st22{opacity:0.2;fill:url(#SVGID_20_);enable-background:new    ;}
  .st23{opacity:0.2;fill:url(#SVGID_21_);enable-background:new    ;}
  .st24{opacity:0.2;fill:url(#SVGID_22_);enable-background:new    ;}
  .st25{opacity:0.2;fill:url(#SVGID_23_);enable-background:new    ;}
  .st26{opacity:0.2;fill:url(#SVGID_24_);enable-background:new    ;}
  .st27{opacity:0.2;fill:url(#SVGID_25_);enable-background:new    ;}
  .st28{opacity:0.2;fill:url(#SVGID_26_);enable-background:new    ;}
  .st29{opacity:0.2;fill:url(#SVGID_27_);enable-background:new    ;}
  .st30{opacity:0.2;fill:url(#SVGID_28_);enable-background:new    ;}
  .st31{opacity:0.2;fill:url(#SVGID_29_);enable-background:new    ;}
  .st32{opacity:0.2;fill:url(#SVGID_30_);enable-background:new    ;}
  .st33{opacity:0.2;fill:url(#SVGID_31_);enable-background:new    ;}
  .st34{opacity:0.2;fill:url(#SVGID_32_);enable-background:new    ;}
  .st35{opacity:0.2;fill:url(#SVGID_33_);enable-background:new    ;}
  .st36{opacity:0.2;fill:url(#SVGID_34_);enable-background:new    ;}
  .st37{opacity:0.2;fill:url(#SVGID_35_);enable-background:new    ;}
  .st38{opacity:0.2;fill:url(#SVGID_36_);enable-background:new    ;}
  .st39{opacity:0.2;fill:url(#SVGID_37_);enable-background:new    ;}
  .st40{opacity:0.2;fill:url(#SVGID_38_);enable-background:new    ;}
  .st41{fill:url(#SVGID_39_);}
</style>
<g id="Layer_1">
  <title>comp</title>
  <path class="st0" d="M99.2,26.7H83.9V9.9c0-4.2-3.4-7.5-7.6-7.6H15c-4.2,0-7.5,3.4-7.6,7.6v40.7c0,1.3,0.3,2.6,1,3.7
    c-0.4,0.5-0.8,1-1,1.6L0.5,72C0.2,72.7,0,73.5,0,74.3v1.1c0.1,3.4,2.9,6,6.2,6h60v3.2c0,4.1,3.3,7.4,7.4,7.4h25.6
    c4.1,0,7.4-3.3,7.4-7.4V34.2C106.7,30.1,103.3,26.7,99.2,26.7z"/>
  <path class="st0" d="M14.7,6.1h61.4c2,0,3.6,1.6,3.6,3.6c0,0,0,0,0,0v40.7c0,2-1.6,3.6-3.6,3.6H14.7c-2,0-3.6-1.6-3.6-3.6
    c0,0,0,0,0,0V9.6C11.2,7.7,12.7,6.1,14.7,6.1C14.7,6.1,14.7,6.1,14.7,6.1z"/>
  <path class="st0" d="M16.6,12h57.7c1.2,0,2.1,0.9,2.1,2.1v34.4c0,1.2-0.9,2.1-2.1,2.1H16.6c-1.2,0-2.1-0.9-2.1-2.1V14.1
    C14.5,13,15.4,12,16.6,12z"/>
  <path class="st1" d="M74.3,13c0.6,0,1.1,0.5,1.1,1.1v34.4c0,0.6-0.5,1.1-1.1,1.1H16.6c-0.6,0-1.1-0.5-1.1-1.1V14.1
    c0-0.6,0.5-1.1,1.1-1.1L74.3,13"/>
  <path class="st2" d="M79.6,57.2c-0.4-0.8-1.2-1.3-2.1-1.2H12.9c-0.9,0-1.7,0.5-2.1,1.3L3.9,73.3c-0.1,0.2-0.1,0.5-0.1,0.7v1.1
    c0.1,1.2,1.1,2,2.2,2h78.9c1.2,0.1,2.1-0.8,2.2-2v-1c0-0.3-0.1-0.5-0.2-0.7L79.6,57.2z"/>

    <linearGradient id="SVGID_1_" gradientUnits="userSpaceOnUse" x1="642.5881" y1="62.5034" x2="829.5881" y2="-106.9966" gradientTransform="matrix(1 0 0 -1 -683.1906 29.8318)">
    <stop  offset="0" style="stop-color:#00C8D7"/>
    <stop  offset="1" style="stop-color:#0A84FF"/>
  </linearGradient>
  <path class="st3" d="M88.8,72.5l-7.3-16.1c-0.3-0.8-0.9-1.4-1.6-1.8c1.2-1.1,1.9-2.6,1.9-4.2V9.6c0-3.1-2.5-5.6-5.6-5.6H14.7
    c-3.1,0-5.5,2.5-5.6,5.6v40.7c0,1.5,0.6,3,1.7,4c-0.9,0.4-1.6,1.1-2,2L2.1,72.5c-0.2,0.5-0.3,1-0.3,1.5v1.1c0.1,2.3,2,4,4.2,4h78.9
    c2.3,0.1,4.1-1.7,4.2-4v-1C89.1,73.5,89,73,88.8,72.5z M87.1,75.1c-0.1,1.2-1.1,2-2.2,2H6c-1.2,0.1-2.1-0.8-2.2-2V74
    c0-0.2,0-0.5,0.1-0.7l6.9-16.1c0.4-0.8,1.2-1.3,2.1-1.3h64.7c0.9,0,1.7,0.5,2.1,1.2l7.3,16.1c0.1,0.2,0.2,0.5,0.2,0.7V75.1z
     M11.2,50.3V9.6c0-2,1.6-3.6,3.6-3.6c0,0,0,0,0,0h61.4c2,0,3.6,1.6,3.6,3.6v40.7c0,2-1.6,3.6-3.6,3.6H14.7
    C12.7,53.9,11.2,52.3,11.2,50.3L11.2,50.3z"/>

    <linearGradient id="SVGID_2_" gradientUnits="userSpaceOnUse" x1="595.7247" y1="99.2527" x2="848.7247" y2="-150.7473" gradientTransform="matrix(1 0 0 -1 -683.1906 29.8318)">
    <stop  offset="0" style="stop-color:#00C8D7"/>
    <stop  offset="1" style="stop-color:#0A84FF"/>
  </linearGradient>
  <path class="st4" d="M58.6,71.4H32.3c-0.4,0.1-0.7-0.2-0.8-0.5c0.3-1.7,0.5-2.6,0.8-4.4c0.1-0.3,0.4-0.5,0.7-0.4
    c10.1-0.1,15.3-0.1,25.3-0.2c0.3-0.1,0.6,0.1,0.7,0.4c0.2,1.5,0.4,3,0.4,4.5C59.3,71.1,59,71.4,58.6,71.4z M27.9,61.9
    c-1.6,0-2.4,0-3.9,0c-0.3,0-0.5,0.1-0.7,0.4c-0.1,0.5-0.2,0.7-0.3,1.2c0.1,0.4,0.5,0.7,0.9,0.7c0,0,0,0,0,0c1.5,0,2.3,0,3.8,0
    c0.3,0,0.5-0.1,0.7-0.4c0.1-0.5,0.2-0.7,0.3-1.2C28.9,62.2,28.4,61.9,27.9,61.9L27.9,61.9z M37.7,61.9c-1.6,0-2.4,0-4.1,0
    c-0.3,0-0.6,0.1-0.7,0.4c-0.1,0.5-0.1,0.7-0.2,1.2c0.1,0.4,0.5,0.7,0.9,0.6c0,0,0,0,0,0c1.6,0,2.4,0,3.9,0c0.3,0,0.6-0.1,0.7-0.4
    c0.1-0.5,0.2-0.7,0.3-1.2C38.6,62.1,38.2,61.8,37.7,61.9L37.7,61.9z M58.3,63.3c-0.1-0.5-0.1-0.7-0.2-1.2c-0.1-0.3-0.4-0.4-0.7-0.4
    c-1.6,0-2.4,0-4.1,0c-0.4-0.1-0.8,0.2-0.9,0.6c0,0,0,0,0,0c0.1,0.5,0.2,0.7,0.3,1.2c0.1,0.3,0.4,0.4,0.7,0.4c1.6,0,2.4,0,3.9,0
    C57.8,64,58.2,63.7,58.3,63.3L58.3,63.3z M48.3,63.4c-0.1-0.5-0.1-0.7-0.2-1.2c-0.1-0.3-0.5-0.5-0.8-0.4l-3.7,0
    c-0.3,0-0.7,0.1-0.8,0.4c-0.1,0.5-0.2,0.7-0.2,1.2c0,0.4,0.4,0.6,0.7,0.6c0,0,0,0,0.1,0c1.6,0,2.5,0,4.1,0
    C47.9,64,48.3,63.8,48.3,63.4C48.3,63.4,48.3,63.4,48.3,63.4L48.3,63.4z M68,63.2c-0.1-0.5-0.1-0.7-0.2-1.1
    c-0.1-0.2-0.4-0.4-0.6-0.3c-1.6,0-2.3,0-3.9,0c-0.4-0.1-0.8,0.2-0.9,0.6c0,0,0,0,0,0c0.1,0.5,0.2,0.7,0.3,1.1
    c0.1,0.2,0.4,0.4,0.7,0.3c1.5,0,2.3,0,3.8,0C67.5,63.9,67.9,63.6,68,63.2L68,63.2z M28.9,58.2c-1.5,0-2.2,0-3.7,0
    c-0.3,0-0.5,0.1-0.6,0.3c-0.1,0.4-0.2,0.7-0.3,1.1c0,0.4,0.4,0.7,0.8,0.6c0,0,0,0,0.1,0c1.4,0,2.2,0,3.6,0c0.3,0,0.5-0.1,0.7-0.3
    c0.1-0.4,0.2-0.7,0.4-1.1C29.8,58.5,29.4,58.2,28.9,58.2L28.9,58.2z M38.2,58.2c-1.6,0-2.3,0-3.9,0c-0.3,0-0.6,0.1-0.7,0.4
    c-0.1,0.4-0.2,0.7-0.3,1.1c0.1,0.4,0.4,0.6,0.8,0.6c0,0,0,0,0.1,0c1.5,0,2.3,0,3.8,0c0.3,0,0.6-0.1,0.7-0.4
    c0.1-0.4,0.2-0.7,0.3-1.1C39.1,58.5,38.7,58.2,38.2,58.2L38.2,58.2z M57.8,59.6c-0.1-0.4-0.1-0.7-0.2-1.1c-0.1-0.3-0.4-0.4-0.7-0.4
    c-1.5,0-2.3,0-3.9,0c-0.4-0.1-0.8,0.2-0.8,0.5c0,0,0,0,0,0c0.1,0.4,0.1,0.7,0.2,1.1c0.1,0.3,0.4,0.4,0.7,0.4c1.5,0,2.3,0,3.8,0
    C57.4,60.2,57.7,60,57.8,59.6L57.8,59.6z M48.3,59.7c-0.1-0.4-0.1-0.7-0.2-1.1c-0.1-0.3-0.4-0.5-0.7-0.4c-1.4,0-2.1,0-3.5,0
    c-0.3,0-0.6,0.1-0.8,0.4C43,59,43,59.2,42.9,59.7c-0.1,0.3,0.3,0.5,0.8,0.5l3.9,0C47.9,60.3,48.3,60,48.3,59.7
    C48.3,59.7,48.3,59.7,48.3,59.7L48.3,59.7z M67,59.5c-0.1-0.4-0.1-0.7-0.2-1.1c-0.1-0.2-0.4-0.4-0.6-0.3c-1.5,0-2.2,0-3.7,0
    c-0.4-0.1-0.8,0.2-0.9,0.6c0,0,0,0,0,0c0.1,0.4,0.2,0.7,0.3,1.1c0.1,0.2,0.4,0.4,0.6,0.3c1.5,0,2.2,0,3.6,0
    C66.5,60.2,66.9,59.9,67,59.5L67,59.5z M18.9,61.9c-1.5,0-2.3,0-3.7,0c-0.3,0-0.5,0.1-0.7,0.4c-0.2,0.4-0.3,0.8-0.4,1.2
    c0,0.4,0.4,0.7,0.8,0.7c0,0,0,0,0.1,0c1.5,0,2.2,0,3.7,0c0.3,0,0.5-0.1,0.6-0.4c0.1-0.4,0.2-0.8,0.4-1.2
    C19.9,62.3,19.5,61.9,18.9,61.9L18.9,61.9z M20.3,58.2c-1.4,0-2.1,0-3.5,0c-0.2,0-0.5,0.1-0.6,0.3c-0.1,0.4-0.2,0.7-0.4,1.1
    c-0.1,0.3,0.2,0.6,0.7,0.6c1.4,0,2.1,0,3.4,0c0.3,0,0.5-0.1,0.7-0.3c0.2-0.4,0.3-0.7,0.4-1.1C21.2,58.5,20.8,58.2,20.3,58.2
    L20.3,58.2z M71.2,62.4c0.1,0.4,0.3,0.8,0.3,1.1c0.1,0.2,0.4,0.4,0.6,0.3c1.5,0,2.2,0,3.7,0c0.4,0.1,0.8-0.2,0.9-0.6
    c-0.1-0.4-0.2-0.8-0.3-1.1c-0.1-0.2-0.4-0.4-0.7-0.3c-1.5,0-2.2,0-3.7,0C71.4,61.7,71,62,71.2,62.4L71.2,62.4z M70.1,58.7
    c0.1,0.4,0.2,0.7,0.4,1.1c0.1,0.2,0.4,0.3,0.6,0.3c1.4,0,2.1,0,3.4,0c0.3,0.1,0.7-0.1,0.7-0.5c0,0,0-0.1,0-0.1
    c-0.1-0.4-0.2-0.7-0.3-1.1c-0.1-0.2-0.3-0.4-0.6-0.3c-1.4,0-2.1,0-3.5,0C70.5,58,70.1,58.3,70.1,58.7
    C70.1,58.7,70.1,58.7,70.1,58.7L70.1,58.7z"/>
  <g id="Layer_4">

      <linearGradient id="SVGID_3_" gradientUnits="userSpaceOnUse" x1="-58.6083" y1="191.0991" x2="189.3917" y2="-58.9009" gradientTransform="matrix(1 0 0 -1 0 94)">
      <stop  offset="0" style="stop-color:#00C8D7"/>
      <stop  offset="1" style="stop-color:#0A84FF"/>
    </linearGradient>
    <circle class="st5" cx="46.6" cy="9" r="1.2"/>
  </g>
  <path class="st0" d="M73.4,29.5H99c2.5,0,4.4,2,4.4,4.4v50.3c0,2.5-2,4.4-4.4,4.4h0H73.4c-2.5,0-4.4-2-4.4-4.4V33.9
    C69,31.5,71,29.5,73.4,29.5z"/>

    <linearGradient id="SVGID_4_" gradientUnits="userSpaceOnUse" x1="627.8185" y1="99.3766" x2="868.3185" y2="-119.1234" gradientTransform="matrix(1 0 0 -1 -683.1906 29.8318)">
    <stop  offset="0" style="stop-color:#00C8D7"/>
    <stop  offset="1" style="stop-color:#0A84FF"/>
  </linearGradient>
  <path class="st6" d="M99,30.5c1.9,0,3.4,1.5,3.4,3.4c0,0,0,0,0,0v50.3c0,1.9-1.5,3.4-3.4,3.4h0H73.4c-1.9,0-3.4-1.5-3.4-3.4
    c0,0,0,0,0,0V33.9c0-1.9,1.5-3.4,3.4-3.4l0,0H99 M99,28.5H73.4c-3,0-5.4,2.4-5.4,5.4v50.3c0,3,2.4,5.4,5.4,5.4H99
    c3,0,5.4-2.4,5.4-5.4V33.9C104.4,30.9,102,28.5,99,28.5L99,28.5z"/>
  <g id="Layer_4-2">
    <path class="st0" d="M75,34.3h22.4c1,0,1.7,0.8,1.7,1.7v41.9c0,1-0.8,1.7-1.7,1.7H75c-1,0-1.7-0.8-1.7-1.7V36
      C73.3,35.1,74.1,34.3,75,34.3z"/>
    <path class="st1" d="M97.4,35.3c0.4,0,0.7,0.3,0.7,0.7v41.9c0,0.4-0.3,0.7-0.7,0.7H75c-0.4,0-0.7-0.3-0.7-0.7V36
      c0-0.4,0.3-0.7,0.7-0.7L97.4,35.3"/>
  </g>
</g>
<g id="Rings">
    <linearGradient id="SVGID_5_" gradientUnits="userSpaceOnUse" x1="672.5773" y1="54.2845" x2="813.3572" y2="-71.3517" gradientTransform="matrix(1 0 0 -1 -683.1906 29.8318)">
    <stop  offset="0" style="stop-color:#00C8D7"/>
    <stop  offset="1" style="stop-color:#0A84FF"/>
  </linearGradient>
  <path class="st7" d="M46.5,48.8c-12.3,0-22.2-10-22.2-22.2c0-12.3,10-22.2,22.2-22.2s22.2,10,22.2,22.2c0,0,0,0,0,0
    C68.7,38.8,58.8,48.7,46.5,48.8z M46.5,6.3c-11.2,0-20.2,9.1-20.2,20.2c0,11.2,9.1,20.2,20.2,20.2s20.2-9.1,20.2-20.2c0,0,0,0,0,0
    C66.7,15.4,57.7,6.3,46.5,6.3L46.5,6.3z M86.3,72.4c-9.2,0-16.7-7.5-16.7-16.7S77,38.9,86.3,38.9S103,46.4,103,55.7c0,0,0,0,0,0
    C103,64.9,95.5,72.4,86.3,72.4L86.3,72.4z M86.3,40.9c-8.1,0-14.7,6.6-14.7,14.7s6.6,14.7,14.7,14.7c8.1,0,14.7-6.6,14.7-14.7v0
    C101,47.5,94.4,40.9,86.3,40.9L86.3,40.9z"/>
  <g id="RingsLeftOuter">
    <linearGradient id="SVGID_6_" gradientUnits="userSpaceOnUse" x1="33.289" y1="57.0466" x2="46.511" y2="45.2469">
      <stop  offset="0" style="stop-color:#00C8D7"/>
      <stop  offset="1" style="stop-color:#0A84FF"/>
    </linearGradient>
    <path class="st8" d="M46.5,53L46.5,53c-4.5,0-9-1.1-12.9-3.3c-0.2-0.1-0.3-0.4-0.2-0.7s0.4-0.3,0.7-0.2c0,0,0,0,0,0
      c3.8,2.1,8.1,3.2,12.4,3.2c0.3,0,0.5,0.2,0.5,0.5C47,52.8,46.8,53,46.5,53C46.5,53,46.5,53,46.5,53L46.5,53z"/>
    <linearGradient id="SVGID_7_" gradientUnits="userSpaceOnUse" x1="55.0311" y1="51.959" x2="58.3001" y2="49.0417">
      <stop  offset="0" style="stop-color:#00C8D7"/>
      <stop  offset="1" style="stop-color:#0A84FF"/>
    </linearGradient>
    <path class="st9" d="M56.2,51.2c-0.3,0-0.5-0.2-0.5-0.5c0-0.2,0.1-0.4,0.3-0.5c0.3-0.1,0.7-0.3,1-0.4c0.3-0.1,0.5,0,0.7,0.3
      c0.1,0.3,0,0.5-0.2,0.7c-0.3,0.2-0.7,0.3-1,0.4C56.4,51.1,56.3,51.2,56.2,51.2L56.2,51.2z"/>
    <linearGradient id="SVGID_8_" gradientUnits="userSpaceOnUse" x1="58.812" y1="50.2499" x2="65.6911" y2="44.1109">
      <stop  offset="0" style="stop-color:#00C8D7"/>
      <stop  offset="1" style="stop-color:#0A84FF"/>
    </linearGradient>
    <path class="st10" d="M61.1,48.6c-0.3,0-0.5-0.2-0.5-0.5c0-0.2,0.1-0.3,0.2-0.4c0.9-0.6,1.8-1.3,2.6-2c0.2-0.2,0.5-0.2,0.7,0
      c0.2,0.2,0.2,0.5,0,0.7l0,0c-0.8,0.7-1.7,1.4-2.7,2.1C61.3,48.5,61.2,48.6,61.1,48.6L61.1,48.6z"/>
    <linearGradient id="SVGID_9_" gradientUnits="userSpaceOnUse" x1="24.9601" y1="43.3442" x2="26.9211" y2="41.5941">
      <stop  offset="0" style="stop-color:#00C8D7"/>
      <stop  offset="1" style="stop-color:#0A84FF"/>
    </linearGradient>
    <path class="st11" d="M27,44.2c-0.1,0-0.3-0.1-0.4-0.2c-0.7-0.8-1.4-1.7-2.1-2.7c-0.2-0.2-0.1-0.5,0.1-0.7s0.5-0.1,0.7,0.1l0,0
      c0.6,0.9,1.3,1.8,2,2.6c0.2,0.2,0.2,0.5,0,0.7C27.2,44.2,27.1,44.2,27,44.2L27,44.2z"/>
    <linearGradient id="SVGID_10_" gradientUnits="userSpaceOnUse" x1="60.8815" y1="41.7105" x2="80.0591" y2="24.5957">
      <stop  offset="0" style="stop-color:#00C8D7"/>
      <stop  offset="1" style="stop-color:#0A84FF"/>
    </linearGradient>
    <path class="st12" d="M69.2,39.7c-0.3,0-0.5-0.2-0.5-0.5c0-0.1,0-0.2,0.1-0.2c2.1-3.8,3.2-8.1,3.2-12.4v-0.1
      c0-0.3,0.2-0.5,0.5-0.5s0.5,0.2,0.5,0.5v0.1c0,4.5-1.2,9-3.4,12.9C69.6,39.6,69.4,39.7,69.2,39.7L69.2,39.7z"/>
    <linearGradient id="SVGID_11_" gradientUnits="userSpaceOnUse" x1="21.464" y1="37.7796" x2="23.6221" y2="35.8537">
      <stop  offset="0" style="stop-color:#00C8D7"/>
      <stop  offset="1" style="stop-color:#0A84FF"/>
    </linearGradient>
    <path class="st13" d="M22.8,37.8c-0.2,0-0.4-0.1-0.5-0.3c-0.2-0.3-0.3-0.7-0.4-1c-0.1-0.3,0-0.5,0.3-0.7c0.3-0.1,0.5,0,0.7,0.3
      c0.1,0.3,0.3,0.7,0.4,1c0.1,0.3,0,0.5-0.2,0.7C22.9,37.8,22.9,37.8,22.8,37.8L22.8,37.8z"/>
    <linearGradient id="SVGID_12_" gradientUnits="userSpaceOnUse" x1="12.201" y1="29.0503" x2="31.2058" y2="12.0899">
      <stop  offset="0" style="stop-color:#00C8D7"/>
      <stop  offset="1" style="stop-color:#0A84FF"/>
    </linearGradient>
    <path class="st14" d="M20.5,27c-0.3,0-0.5-0.2-0.5-0.4c0,0,0,0,0,0c0,0,0-0.1,0-0.1c0-4.5,1.1-8.9,3.3-12.8
      c0.1-0.2,0.4-0.3,0.7-0.2c0.2,0.1,0.3,0.4,0.2,0.7c0,0,0,0,0,0c-2.1,3.8-3.2,8.1-3.2,12.4C21,26.8,20.8,27,20.5,27z"/>
    <linearGradient id="SVGID_13_" gradientUnits="userSpaceOnUse" x1="69.2672" y1="17.1922" x2="71.4217" y2="15.2695">
      <stop  offset="0" style="stop-color:#00C8D7"/>
      <stop  offset="1" style="stop-color:#0A84FF"/>
    </linearGradient>
    <path class="st15" d="M70.6,17.2c-0.2,0-0.4-0.1-0.5-0.3c-0.1-0.3-0.3-0.7-0.4-1c-0.1-0.3,0-0.5,0.2-0.7s0.5,0,0.7,0.2l0,0
      c0.2,0.3,0.3,0.7,0.4,1c0.1,0.3,0,0.5-0.3,0.7C70.7,17.2,70.7,17.2,70.6,17.2L70.6,17.2z"/>
    <linearGradient id="SVGID_14_" gradientUnits="userSpaceOnUse" x1="65.9675" y1="11.4505" x2="67.915" y2="9.7125">
      <stop  offset="0" style="stop-color:#00C8D7"/>
      <stop  offset="1" style="stop-color:#0A84FF"/>
    </linearGradient>
    <path class="st16" d="M68,12.3c-0.2,0-0.3-0.1-0.4-0.2c-0.6-0.9-1.3-1.7-2-2.6c-0.2-0.2-0.2-0.5,0-0.7c0.2-0.2,0.5-0.2,0.7,0
      c0.7,0.8,1.4,1.7,2.1,2.7c0.2,0.2,0.1,0.5-0.1,0.7C68.2,12.3,68.1,12.3,68,12.3z"/>
    <linearGradient id="SVGID_15_" gradientUnits="userSpaceOnUse" x1="26.9709" y1="9.2133" x2="33.852" y2="3.0724">
      <stop  offset="0" style="stop-color:#00C8D7"/>
      <stop  offset="1" style="stop-color:#0A84FF"/>
    </linearGradient>
    <path class="st17" d="M29.3,7.5c-0.3,0-0.5-0.2-0.5-0.5c0-0.1,0.1-0.3,0.2-0.4c0.8-0.7,1.7-1.4,2.7-2.1c0.2-0.2,0.5-0.1,0.7,0.1
      s0.1,0.5-0.1,0.7c-0.9,0.6-1.7,1.3-2.6,2C29.5,7.5,29.4,7.5,29.3,7.5L29.3,7.5z"/>
    <linearGradient id="SVGID_16_" gradientUnits="userSpaceOnUse" x1="45.8964" y1="8.2456" x2="59.1034" y2="-3.5408">
      <stop  offset="0" style="stop-color:#00C8D7"/>
      <stop  offset="1" style="stop-color:#0A84FF"/>
    </linearGradient>
    <path class="st18" d="M59.1,4.2c-0.1,0-0.2,0-0.2-0.1C55.1,2.1,50.8,1,46.5,1C46.2,1,46,0.8,46,0.5c0-0.3,0.2-0.5,0.4-0.5
      c0,0,0,0,0,0h0.1c4.5,0,8.9,1.1,12.8,3.3c0.2,0.1,0.3,0.4,0.2,0.7C59.5,4.1,59.3,4.2,59.1,4.2L59.1,4.2z"/>
    <linearGradient id="SVGID_17_" gradientUnits="userSpaceOnUse" x1="34.5036" y1="4.1347" x2="37.778" y2="1.2124">
      <stop  offset="0" style="stop-color:#00C8D7"/>
      <stop  offset="1" style="stop-color:#0A84FF"/>
    </linearGradient>
    <path class="st19" d="M35.7,3.3c-0.3,0-0.5-0.2-0.5-0.5c0-0.2,0.1-0.4,0.3-0.5c0.3-0.2,0.7-0.3,1-0.4c0.3-0.1,0.5,0,0.7,0.3
      c0.1,0.3,0,0.5-0.3,0.7c0,0,0,0,0,0c-0.3,0.1-0.7,0.3-1,0.4C35.8,3.3,35.8,3.3,35.7,3.3L35.7,3.3z"/>
    <animateTransform attributeName="transform"
      attributeType="XML"
      type="rotate"
      from="0 46.5 26.5"
      to="360 46.5 26.5"
      dur="10s"
      repeatCount="indefinite"/>
    </g>
  <g id="RingsLeftInner">
    <linearGradient id="SVGID_18_" gradientUnits="userSpaceOnUse" x1="43.5076" y1="47.6466" x2="56.9265" y2="35.6712">
      <stop  offset="0" style="stop-color:#00C8D7"/>
      <stop  offset="1" style="stop-color:#0A84FF"/>
    </linearGradient>
    <path class="st20" d="M46.5,43c-0.3,0-0.5-0.2-0.5-0.5s0.2-0.5,0.5-0.5c2.7,0,5.4-0.7,7.7-2.1c0.2-0.1,0.5-0.1,0.7,0.2
      c0.1,0.2,0.1,0.5-0.2,0.7C52.2,42.2,49.4,43,46.5,43L46.5,43L46.5,43z"/>
    <linearGradient id="SVGID_19_" gradientUnits="userSpaceOnUse" x1="35.2965" y1="40.9545" x2="39.1616" y2="37.5051">
      <stop  offset="0" style="stop-color:#00C8D7"/>
      <stop  offset="1" style="stop-color:#0A84FF"/>
    </linearGradient>
    <path class="st21" d="M40,41.6c-0.1,0-0.1,0-0.2,0c-2.1-0.9-4-2.3-5.5-4c-0.2-0.2-0.2-0.5,0-0.7c0.2-0.2,0.5-0.2,0.7,0
      c1.5,1.6,3.2,2.9,5.2,3.8c0.3,0.1,0.4,0.4,0.3,0.7C40.4,41.5,40.2,41.6,40,41.6z"/>
    <linearGradient id="SVGID_20_" gradientUnits="userSpaceOnUse" x1="56.6961" y1="38.5034" x2="60.9356" y2="34.72">
      <stop  offset="0" style="stop-color:#00C8D7"/>
      <stop  offset="1" style="stop-color:#0A84FF"/>
    </linearGradient>
    <path class="st22" d="M58.4,37.7c-0.3,0-0.5-0.2-0.5-0.5c0-0.1,0-0.2,0.1-0.3c0.4-0.4,0.7-0.8,1-1.3c0.2-0.2,0.5-0.3,0.7-0.1
      c0.2,0.2,0.3,0.5,0.1,0.7c-0.3,0.5-0.7,0.9-1.1,1.3C58.7,37.6,58.5,37.7,58.4,37.7L58.4,37.7z"/>
    <linearGradient id="SVGID_21_" gradientUnits="userSpaceOnUse" x1="31.0832" y1="34.8198" x2="33.3577" y2="32.79">
      <stop  offset="0" style="stop-color:#00C8D7"/>
      <stop  offset="1" style="stop-color:#0A84FF"/>
    </linearGradient>
    <path class="st23" d="M32.6,35c-0.2,0-0.3-0.1-0.4-0.2c-0.3-0.5-0.6-1-0.8-1.5c-0.1-0.3,0-0.5,0.3-0.7s0.5,0,0.7,0.3
      c0.2,0.5,0.5,1,0.7,1.4c0.1,0.2,0.1,0.5-0.2,0.7C32.8,35,32.7,35,32.6,35L32.6,35z"/>
    <linearGradient id="SVGID_22_" gradientUnits="userSpaceOnUse" x1="53.8146" y1="33.9999" x2="68.3583" y2="21.0206">
      <stop  offset="0" style="stop-color:#00C8D7"/>
      <stop  offset="1" style="stop-color:#0A84FF"/>
    </linearGradient>
    <path class="st24" d="M61.1,33.5c-0.1,0-0.1,0-0.2,0c-0.3-0.1-0.4-0.4-0.3-0.7c0,0,0,0,0,0c1.6-3.5,1.8-7.5,0.6-11.1
      c-0.1-0.3,0.1-0.5,0.3-0.6c0.3-0.1,0.5,0.1,0.6,0.3c0,0,0,0,0,0c1.3,3.9,1.1,8.1-0.6,11.9C61.5,33.4,61.3,33.5,61.1,33.5z"/>
    <linearGradient id="SVGID_23_" gradientUnits="userSpaceOnUse" x1="25.0608" y1="29.6009" x2="36.8851" y2="19.0485">
      <stop  offset="0" style="stop-color:#00C8D7"/>
      <stop  offset="1" style="stop-color:#0A84FF"/>
    </linearGradient>
    <path class="st25" d="M30.6,28.7c-0.3,0-0.5-0.2-0.5-0.4C30,27.7,30,27.1,30,26.5c0-2.3,0.5-4.6,1.4-6.7c0.1-0.3,0.4-0.4,0.7-0.3
      c0.3,0.1,0.4,0.4,0.3,0.7c-0.9,2-1.3,4.1-1.3,6.3c0,0.6,0,1.1,0.1,1.7C31.1,28.4,30.9,28.7,30.6,28.7
      C30.6,28.7,30.6,28.7,30.6,28.7L30.6,28.7z"/>
    <linearGradient id="SVGID_24_" gradientUnits="userSpaceOnUse" x1="52.1894" y1="15.8798" x2="57.3097" y2="11.3103">
      <stop  offset="0" style="stop-color:#00C8D7"/>
      <stop  offset="1" style="stop-color:#0A84FF"/>
    </linearGradient>
    <path class="st26" d="M58.3,16.2c-0.1,0-0.3-0.1-0.4-0.2c-1.8-2-4.1-3.5-6.7-4.3c-0.3-0.1-0.4-0.4-0.3-0.6
      c0.1-0.3,0.4-0.4,0.6-0.3c0,0,0,0,0,0c2.8,0.9,5.2,2.5,7.2,4.6c0.2,0.2,0.2,0.5,0,0.7C58.6,16.2,58.5,16.2,58.3,16.2L58.3,16.2z"
      />
    <linearGradient id="SVGID_25_" gradientUnits="userSpaceOnUse" x1="32.3682" y1="18.5445" x2="44.3828" y2="7.8223">
      <stop  offset="0" style="stop-color:#00C8D7"/>
      <stop  offset="1" style="stop-color:#0A84FF"/>
    </linearGradient>
    <path class="st27" d="M35.8,15.1c-0.3,0-0.5-0.2-0.5-0.5c0-0.1,0.1-0.3,0.2-0.4c1.7-1.6,3.7-2.7,5.9-3.4c0.3-0.1,0.5,0.1,0.6,0.3
      c0.1,0.3-0.1,0.5-0.3,0.6l0,0c-2.1,0.7-4,1.8-5.6,3.2C36,15.1,35.9,15.1,35.8,15.1L35.8,15.1z"/>
    <linearGradient id="SVGID_26_" gradientUnits="userSpaceOnUse" x1="43.6812" y1="12.2561" x2="47.3729" y2="8.9614">
      <stop  offset="0" style="stop-color:#00C8D7"/>
      <stop  offset="1" style="stop-color:#0A84FF"/>
    </linearGradient>
    <path class="st28" d="M44.8,11.1c-0.3,0-0.5-0.2-0.5-0.5c0-0.3,0.2-0.5,0.4-0.5c0.6-0.1,1.1-0.1,1.7-0.1h0c0.3,0,0.5,0.2,0.5,0.5
      c0,0.3-0.2,0.5-0.5,0.5C45.9,11,45.4,11,44.8,11.1C44.8,11.1,44.8,11.1,44.8,11.1L44.8,11.1z"/>
    <animateTransform attributeName="transform"
      attributeType="XML"
      type="rotate"
      from="0 46.5 26"
      to="-360 46.5 26"
      dur="10s"
      repeatCount="indefinite"/>
    </g>
  <g id="RingsRightOuter">
    <linearGradient id="SVGID_27_" gradientUnits="userSpaceOnUse" x1="75.6216" y1="79.875" x2="86.4009" y2="70.2552">
      <stop  offset="0" style="stop-color:#00C8D7"/>
      <stop  offset="1" style="stop-color:#0A84FF"/>
    </linearGradient>
    <path class="st29" d="M86.3,76.7L86.3,76.7c-3.6,0-7.1-0.9-10.3-2.7c-0.2-0.1-0.3-0.4-0.2-0.7s0.4-0.3,0.7-0.2c0,0,0,0,0,0
      c3,1.7,6.3,2.5,9.8,2.5c0.3,0,0.5,0.2,0.5,0.5C86.8,76.4,86.5,76.6,86.3,76.7C86.3,76.7,86.3,76.7,86.3,76.7L86.3,76.7z"/>
    <linearGradient id="SVGID_28_" gradientUnits="userSpaceOnUse" x1="92.7936" y1="75.8582" x2="95.7138" y2="73.2521">
      <stop  offset="0" style="stop-color:#00C8D7"/>
      <stop  offset="1" style="stop-color:#0A84FF"/>
    </linearGradient>
    <path class="st30" d="M93.9,75.2c-0.3,0-0.5-0.2-0.5-0.5c0-0.2,0.1-0.4,0.3-0.5c0.3-0.1,0.5-0.2,0.8-0.3c0.3-0.1,0.5,0,0.7,0.2
      s0,0.5-0.2,0.7c-0.3,0.1-0.5,0.2-0.8,0.4C94,75.2,94,75.2,93.9,75.2L93.9,75.2z"/>
    <linearGradient id="SVGID_29_" gradientUnits="userSpaceOnUse" x1="95.7773" y1="74.5081" x2="101.5491" y2="69.3572">
      <stop  offset="0" style="stop-color:#00C8D7"/>
      <stop  offset="1" style="stop-color:#0A84FF"/>
    </linearGradient>
    <path class="st31" d="M97.8,73.1c-0.3,0-0.5-0.2-0.5-0.5c0-0.2,0.1-0.3,0.2-0.4c0.7-0.5,1.4-1,2-1.6c0.2-0.2,0.5-0.2,0.7,0
      c0.2,0.2,0.2,0.5,0,0.7c0,0,0,0,0,0C99.5,72,98.8,72.5,98,73C98,73.1,97.9,73.1,97.8,73.1L97.8,73.1z"/>
    <linearGradient id="SVGID_30_" gradientUnits="userSpaceOnUse" x1="69.0463" y1="69.0523" x2="70.9284" y2="67.3727">
      <stop  offset="0" style="stop-color:#00C8D7"/>
      <stop  offset="1" style="stop-color:#0A84FF"/>
    </linearGradient>
    <path class="st32" d="M70.8,69.7c-0.1,0-0.3-0.1-0.4-0.2c-0.6-0.7-1.1-1.4-1.6-2.1c-0.2-0.2-0.1-0.5,0.1-0.7s0.5-0.1,0.7,0.1l0,0
      c0.5,0.7,1,1.4,1.6,2c0.2,0.2,0.2,0.5,0,0.7C71.1,69.7,71,69.7,70.8,69.7L70.8,69.7z"/>
    <linearGradient id="SVGID_31_" gradientUnits="userSpaceOnUse" x1="97.4134" y1="67.7627" x2="112.8944" y2="53.947">
      <stop  offset="0" style="stop-color:#00C8D7"/>
      <stop  offset="1" style="stop-color:#0A84FF"/>
    </linearGradient>
    <path class="st33" d="M104.2,66.1c-0.3,0-0.5-0.2-0.5-0.5c0-0.1,0-0.2,0.1-0.2c1.7-3,2.5-6.4,2.5-9.8v-0.1c0-0.3,0.2-0.5,0.5-0.5
      s0.5,0.2,0.5,0.5v0.1c0,3.6-0.9,7.1-2.7,10.3C104.5,66,104.4,66.1,104.2,66.1L104.2,66.1z"/>
    <linearGradient id="SVGID_32_" gradientUnits="userSpaceOnUse" x1="66.2848" y1="64.6601" x2="68.325" y2="62.8394">
      <stop  offset="0" style="stop-color:#00C8D7"/>
      <stop  offset="1" style="stop-color:#0A84FF"/>
    </linearGradient>
    <path class="st34" d="M67.5,64.6c-0.2,0-0.4-0.1-0.5-0.3c-0.1-0.3-0.2-0.5-0.4-0.8c-0.1-0.3,0-0.5,0.3-0.6c0.3-0.1,0.5,0,0.6,0.3
      c0.1,0.3,0.2,0.5,0.3,0.8c0.1,0.3,0,0.5-0.2,0.7C67.7,64.6,67.6,64.6,67.5,64.6L67.5,64.6z"/>
    <linearGradient id="SVGID_33_" gradientUnits="userSpaceOnUse" x1="58.9688" y1="57.7652" x2="74.3142" y2="44.0704">
      <stop  offset="0" style="stop-color:#00C8D7"/>
      <stop  offset="1" style="stop-color:#0A84FF"/>
    </linearGradient>
    <path class="st35" d="M65.7,56.1c-0.3,0-0.5-0.2-0.5-0.5c0,0,0,0,0,0v-0.1c0-3.6,0.9-7.1,2.6-10.2c0.1-0.2,0.4-0.3,0.7-0.2
      c0.2,0.1,0.3,0.4,0.2,0.7c0,0,0,0,0,0c-1.6,3-2.5,6.3-2.5,9.7C66.2,55.9,66,56.1,65.7,56.1L65.7,56.1z"/>
    <linearGradient id="SVGID_34_" gradientUnits="userSpaceOnUse" x1="104.0331" y1="48.4002" x2="106.0728" y2="46.5799">
      <stop  offset="0" style="stop-color:#00C8D7"/>
      <stop  offset="1" style="stop-color:#0A84FF"/>
    </linearGradient>
    <path class="st36" d="M105.3,48.4c-0.2,0-0.4-0.1-0.5-0.3c-0.1-0.3-0.2-0.5-0.3-0.8c-0.1-0.3,0-0.5,0.2-0.7s0.5,0,0.7,0.2
      c0,0,0,0,0,0c0.1,0.3,0.2,0.5,0.4,0.8c0.1,0.3,0,0.5-0.3,0.7C105.4,48.3,105.3,48.4,105.3,48.4L105.3,48.4z"/>
    <linearGradient id="SVGID_35_" gradientUnits="userSpaceOnUse" x1="101.4274" y1="43.8623" x2="103.3018" y2="42.1895">
      <stop  offset="0" style="stop-color:#00C8D7"/>
      <stop  offset="1" style="stop-color:#0A84FF"/>
    </linearGradient>
    <path class="st37" d="M103.2,44.5c-0.2,0-0.3-0.1-0.4-0.2c-0.5-0.7-1-1.4-1.6-2c-0.2-0.2-0.2-0.5,0-0.7c0.2-0.2,0.5-0.2,0.7,0
      c0,0,0,0,0,0c0.6,0.7,1.1,1.4,1.6,2.1c0.2,0.2,0.1,0.5-0.1,0.7C103.4,44.5,103.3,44.5,103.2,44.5L103.2,44.5z"/>
    <linearGradient id="SVGID_36_" gradientUnits="userSpaceOnUse" x1="70.6326" y1="42.0992" x2="76.4032" y2="36.9493">
      <stop  offset="0" style="stop-color:#00C8D7"/>
      <stop  offset="1" style="stop-color:#0A84FF"/>
    </linearGradient>
    <path class="st38" d="M72.6,40.7c-0.3,0-0.5-0.2-0.5-0.5c0-0.1,0.1-0.3,0.2-0.4c0.7-0.6,1.4-1.1,2.1-1.6c0.2-0.2,0.5-0.1,0.7,0.1
      s0.1,0.5-0.1,0.7c-0.7,0.5-1.4,1-2,1.6C72.8,40.7,72.7,40.7,72.6,40.7L72.6,40.7z"/>
    <linearGradient id="SVGID_37_" gradientUnits="userSpaceOnUse" x1="85.5786" y1="41.3355" x2="96.3457" y2="31.7266">
      <stop  offset="0" style="stop-color:#00C8D7"/>
      <stop  offset="1" style="stop-color:#0A84FF"/>
    </linearGradient>
    <path class="st39" d="M96.2,38.1c-0.1,0-0.2,0-0.2-0.1c-3-1.6-6.3-2.5-9.7-2.5c-0.3,0-0.5-0.2-0.5-0.5c0-0.3,0.2-0.5,0.4-0.5
      c0,0,0,0,0,0h0.1c3.6,0,7.1,0.9,10.2,2.6c0.2,0.1,0.3,0.4,0.2,0.7C96.5,38,96.4,38.1,96.2,38.1L96.2,38.1z"/>

      <linearGradient id="SVGID_38_" gradientUnits="userSpaceOnUse" x1="760.1553" y1="-5.8815" x2="762.3413" y2="-7.8324" gradientTransform="matrix(1 0 0 -1 -683.1906 29.8318)">
      <stop  offset="0" style="stop-color:#00C8D7"/>
      <stop  offset="1" style="stop-color:#0A84FF"/>
    </linearGradient>
    <path class="st40" d="M77.7,37.4c-0.3,0-0.5-0.2-0.5-0.5c0-0.2,0.1-0.4,0.3-0.5c0.3-0.1,0.5-0.2,0.8-0.4c0.3-0.1,0.5,0,0.7,0.3
      s0,0.5-0.3,0.7c-0.3,0.1-0.5,0.2-0.8,0.3C77.8,37.4,77.8,37.4,77.7,37.4L77.7,37.4z"/>
    <animateTransform attributeName="transform"
      attributeType="XML"
      type="rotate"
      from="0 86 55.5"
      to="-360 86 55.5"
      dur="10s"
      repeatCount="indefinite"/>
  </g>
</g>
<g id="Hearts">
      <linearGradient id="SVGID_39_" gradientUnits="userSpaceOnUse" x1="573.6627" y1="-11.6067" x2="909.9877" y2="-11.6067" gradientTransform="matrix(1 0 0 -1 -683.1906 29.8318)">
      <stop  offset="0" style="stop-color:#00C8D7"/>
      <stop  offset="1" style="stop-color:#0A84FF"/>
    </linearGradient>
    <path class="st41" d="M46.7,47.4c-0.6,0-1.1-0.2-1.6-0.5l-15-12.1c-1.5-1-2.7-2.2-3.7-3.7c-3.3-5-2.6-11.7,1.7-16
      c5-4.9,13-4.9,17.9,0c0.1,0.1,0.3,0.2,0.5,0.2c0.2,0,0.4-0.1,0.5-0.2c5-5,13-5,18,0s5,13,0,18c-0.6,0.6-1.3,1.1-2,1.6L48.3,46.8
      C47.8,47.2,47.3,47.4,46.7,47.4z M87.7,71.1l11-9c4.5-3,5.7-9,2.7-13.4c-3-4.5-9-5.7-13.4-2.7c-0.5,0.4-1,0.8-1.5,1.2
      c0,0-0.1,0.1-0.2,0.1c-0.1,0-0.1,0-0.2-0.1c-3.8-3.8-9.9-3.8-13.7,0c-3.2,3.2-3.8,8.3-1.3,12.1c0.7,1.1,1.7,2.1,2.8,2.8l11.1,9
      C85.8,71.7,86.9,71.7,87.7,71.1z"/>
    <path class="st0" d="M37.2,12.4c3.1,0,6.1,1.2,8.3,3.4l0,0c0.3,0.3,0.7,0.5,1.2,0.5c0.4,0,0.9-0.2,1.2-0.5l0,0
      c4.6-4.6,12-4.6,16.6,0s4.6,12,0,16.6c-0.6,0.5-1.2,1-1.8,1.5L47.7,46c-0.3,0.2-0.6,0.3-0.9,0.3c-0.3,0-0.7-0.1-0.9-0.3l-15-12.2
      c-1.4-0.9-2.5-2-3.4-3.4c-3-4.7-2.4-10.8,1.5-14.7C31.1,13.6,34.1,12.3,37.2,12.4 M37.2,10.4L37.2,10.4c-3.6,0-7.1,1.4-9.7,4
      c-4.6,4.6-5.3,11.8-1.8,17.2c1,1.6,2.3,2.9,3.9,3.9l14.9,12.1c1.3,1,3.1,1,4.4,0l14.9-12.1c6.3-4.2,7.9-12.8,3.7-19
      c-4.2-6.3-12.8-7.9-19-3.7c-0.6,0.4-1.2,0.9-1.8,1.5C44.1,11.7,40.7,10.3,37.2,10.4L37.2,10.4L37.2,10.4z"/>
    <path class="st2" d="M30.2,24.7c-0.1,0-0.1,0-0.2,0c-1.1-0.1-1.9-1-1.8-2.1c0.3-3.8,3.1-7,6.8-7.8c1.1-0.2,2.1,0.4,2.3,1.5
      c0.2,1.1-0.4,2.1-1.5,2.3c0,0,0,0,0,0c-2.1,0.5-3.6,2.2-3.8,4.3C32,23.9,31.2,24.7,30.2,24.7z"/>
    <path class="st0" d="M79.3,45.3c2.3,0,4.5,0.9,6.1,2.5l0,0c0.2,0.2,0.5,0.4,0.9,0.4c0.3,0,0.6-0.1,0.9-0.4l0,0
      c3.4-3.4,8.9-3.4,12.3,0c3.4,3.4,3.4,8.9,0,12.3c-0.4,0.4-0.9,0.8-1.3,1.1l-11.1,9c-0.2,0.2-0.4,0.2-0.7,0.2
      c-0.2,0-0.5-0.1-0.7-0.2l-11.1-9c-1-0.6-1.9-1.5-2.5-2.5c-2.2-3.4-1.7-8,1.1-10.9C74.8,46.2,77,45.3,79.3,45.3 M79.3,43.3
      L79.3,43.3c-2.8,0-5.5,1.1-7.5,3.1c-3.6,3.6-4.2,9.2-1.4,13.4c0.8,1.2,1.8,2.2,3,3l11,8.9c1.1,0.9,2.7,0.9,3.9,0l11-9
      c4.9-3.3,6.2-9.9,2.9-14.8c-3.3-4.9-9.9-6.2-14.8-2.9c-0.4,0.2-0.7,0.5-1,0.8C84.4,44.3,81.9,43.3,79.3,43.3
      C79.3,43.3,79.3,43.3,79.3,43.3z"/>
    <path class="st2" d="M74.1,55.2c0,0-0.1,0-0.1,0c-0.8-0.1-1.4-0.8-1.3-1.6c0.2-2.8,2.3-5.2,5-5.8c0.8-0.2,1.6,0.3,1.7,1.1
      c0.2,0.8-0.3,1.6-1.1,1.7c-1.5,0.3-2.7,1.6-2.8,3.2C75.5,54.7,74.9,55.2,74.1,55.2z"/>
  </g>
</svg>
