<?xml version="1.0" encoding="utf-8"?>
<!-- Generator: Adobe Illustrator 21.1.0, SVG Export Plug-In . SVG Version: 6.00 Build 0)  -->
<svg version="1.1" xmlns="http://www.w3.org/2000/svg" xmlns:xlink="http://www.w3.org/1999/xlink" x="0px" y="0px"
   viewBox="0 0 201.1 102.5" style="enable-background:new 0 0 201.1 102.5;" xml:space="preserve">
<style type="text/css">
  .st0{fill:#EAEAEE;}
  .st1{display:none;fill:#F3F3F7;}
  .st2{fill:#FFFFFF;}
  .st3{fill:#90E8F0;}
  .st4{fill:#CCEDF0;}
  .st5{fill:url(#SVGID_1_);}
  .st6{fill:url(#SVGID_2_);}
</style>
<g id="RingRightInner">
  <path class="st0" d="M142.1,93.3L142.1,93.3c-3,0-5.9-0.3-8.8-0.9c-0.3-0.1-0.4-0.3-0.4-0.6c0.1-0.3,0.3-0.4,0.6-0.4
    c2.8,0.6,5.6,0.9,8.5,0.9c0.7,0,1.5,0,2.2-0.1c0.3,0,0.5,0.2,0.5,0.4c0,0,0,0,0,0c0,0.3-0.2,0.5-0.5,0.5c0,0,0,0,0,0
    C143.5,93.3,142.8,93.3,142.1,93.3z M150.7,92.4c-0.3,0-0.5-0.2-0.5-0.5c0-0.2,0.2-0.4,0.4-0.5c0.7-0.1,1.4-0.3,2.1-0.5
    c0.3-0.1,0.5,0.1,0.6,0.4c0.1,0.3-0.1,0.5-0.4,0.6c0,0,0,0,0,0c-0.7,0.2-1.4,0.4-2.1,0.5C150.7,92.4,150.7,92.4,150.7,92.4z
     M156.9,90.6c-0.3,0-0.5-0.2-0.5-0.5c0-0.2,0.1-0.4,0.3-0.5c2.7-1,5.2-2.3,7.6-3.9c0.2-0.2,0.5-0.1,0.7,0.1s0.1,0.5-0.1,0.7l0,0
    c-2.5,1.6-5.1,2.9-7.8,4C157,90.6,157,90.6,156.9,90.6z M125.1,89.8c-0.1,0-0.1,0-0.2,0c-2.7-1.2-5.2-2.7-7.6-4.4
    c-0.2-0.2-0.3-0.5-0.1-0.7c0.2-0.2,0.5-0.3,0.7-0.1c0,0,0,0,0,0c2.3,1.7,4.8,3.1,7.4,4.3c0.3,0.1,0.4,0.4,0.3,0.7
    C125.5,89.6,125.3,89.8,125.1,89.8z M114.2,82.7c-0.1,0-0.2,0-0.3-0.1c-0.5-0.5-1.1-1-1.6-1.5c-0.2-0.2-0.2-0.5,0-0.7
    c0.2-0.2,0.5-0.2,0.7,0c0.5,0.5,1,1,1.6,1.5c0.2,0.2,0.2,0.5,0,0.7C114.5,82.6,114.4,82.7,114.2,82.7z M171.4,81.1
    c-0.3,0-0.5-0.2-0.5-0.5c0-0.1,0.1-0.3,0.1-0.4c2.5-2.5,4.7-5.4,6.5-8.5c0.1-0.2,0.4-0.3,0.7-0.2c0.2,0.1,0.3,0.4,0.2,0.7
    c0,0,0,0,0,0c-1.8,3.2-4.1,6.1-6.7,8.7C171.7,81.1,171.5,81.1,171.4,81.1z M108.4,76.2c-0.2,0-0.3-0.1-0.4-0.2
    c-2.2-3-3.9-6.2-5.3-9.6c-0.1-0.3,0-0.5,0.3-0.6s0.5,0,0.6,0.3c1.3,3.3,3,6.5,5.1,9.4c0.2,0.2,0.1,0.5-0.1,0.7
    C108.6,76.2,108.5,76.2,108.4,76.2z M180.8,66.7c-0.3,0-0.5-0.2-0.5-0.5c0-0.1,0-0.1,0-0.2c0.3-0.7,0.5-1.3,0.7-2
    c0.1-0.3,0.4-0.4,0.6-0.3c0.3,0.1,0.4,0.4,0.3,0.6c0,0,0,0,0,0c-0.2,0.7-0.5,1.4-0.7,2.1C181.2,66.5,181,66.7,180.8,66.7z
     M182.7,60.4c0,0-0.1,0-0.1,0c-0.3-0.1-0.4-0.3-0.4-0.6c0.6-2.8,0.9-5.7,0.9-8.5l0-0.2c0-0.3,0.2-0.5,0.5-0.5s0.5,0.2,0.5,0.5
    l0,0.2c0,2.9-0.3,5.9-0.9,8.7C183.1,60.2,182.9,60.4,182.7,60.4z M101,58.3c-0.2,0-0.5-0.2-0.5-0.4c-0.3-2.2-0.5-4.4-0.5-6.7
    c0-0.7,0-1.4,0.1-2.1c0-0.3,0.2-0.5,0.5-0.5c0,0,0,0,0,0c0.3,0,0.5,0.2,0.5,0.5c0,0.7-0.1,1.4-0.1,2.1c0,2.2,0.2,4.4,0.5,6.5
    C101.5,58,101.3,58.3,101,58.3C101,58.3,101,58.3,101,58.3L101,58.3z M183.3,47.3c-0.3,0-0.5-0.2-0.5-0.4c-0.3-2.9-0.9-5.7-1.8-8.4
    c-0.1-0.3,0.1-0.5,0.3-0.6s0.5,0.1,0.6,0.3c0.9,2.8,1.5,5.7,1.9,8.6C183.8,47,183.6,47.2,183.3,47.3
    C183.4,47.3,183.4,47.3,183.3,47.3C183.4,47.3,183.3,47.3,183.3,47.3L183.3,47.3z M100.9,45.3C100.9,45.3,100.9,45.3,100.9,45.3
    c-0.3,0-0.5-0.3-0.5-0.6c0.1-0.7,0.2-1.5,0.4-2.2c0.1-0.3,0.3-0.4,0.6-0.4c0.3,0.1,0.4,0.3,0.4,0.6c-0.1,0.7-0.3,1.4-0.4,2.1
    C101.4,45.2,101.2,45.3,100.9,45.3L100.9,45.3z M103.2,36.9c-0.3,0-0.5-0.2-0.5-0.5c0-0.1,0-0.1,0-0.2c1.3-3.4,3.1-6.7,5.2-9.7
    c0.2-0.2,0.5-0.3,0.7-0.1s0.3,0.5,0.1,0.7c-2.1,2.9-3.8,6.1-5.1,9.4C103.6,36.8,103.4,36.9,103.2,36.9L103.2,36.9z M177.9,30.8
    c-0.2,0-0.3-0.1-0.4-0.2c-1.8-3.1-4-5.9-6.6-8.5c-0.2-0.2-0.2-0.5,0-0.7c0.2-0.2,0.5-0.2,0.7,0c2.6,2.6,4.9,5.5,6.7,8.7
    c0.1,0.2,0.1,0.5-0.2,0.7l0,0C178.1,30.8,178,30.8,177.9,30.8L177.9,30.8z M114.1,20.9c-0.3,0-0.5-0.2-0.5-0.5
    c0-0.1,0.1-0.3,0.2-0.4c2.2-2,4.6-3.7,7.1-5.2c0.2-0.1,0.5-0.1,0.7,0.2s0.1,0.5-0.2,0.7c-2.5,1.4-4.8,3.1-6.9,5.1
    C114.4,20.9,114.2,20.9,114.1,20.9L114.1,20.9z M166.3,18.1c-0.1,0-0.2,0-0.3-0.1c-0.6-0.4-1.2-0.8-1.8-1.2
    c-0.2-0.1-0.3-0.5-0.1-0.7c0.1-0.2,0.5-0.3,0.7-0.1c0.6,0.4,1.2,0.8,1.8,1.2c0.2,0.2,0.3,0.5,0.1,0.7
    C166.6,18,166.5,18.1,166.3,18.1L166.3,18.1z M160.7,14.7c-0.1,0-0.2,0-0.2-0.1c-2.6-1.3-5.2-2.3-8-3.1c-0.3-0.1-0.4-0.3-0.4-0.6
    c0.1-0.3,0.3-0.4,0.6-0.4c0,0,0,0,0,0c2.8,0.8,5.6,1.8,8.2,3.1c0.2,0.1,0.3,0.4,0.2,0.7C161.1,14.6,160.9,14.7,160.7,14.7
    L160.7,14.7z M125,13.8c-0.3,0-0.5-0.2-0.5-0.5c0-0.2,0.1-0.4,0.3-0.5c0.7-0.3,1.3-0.6,2-0.8c0.3-0.1,0.5,0,0.6,0.3
    c0.1,0.3,0,0.5-0.3,0.6c-0.7,0.3-1.3,0.5-2,0.8C125.1,13.8,125.1,13.8,125,13.8L125,13.8z M133.2,11.1c-0.3,0-0.5-0.2-0.5-0.5
    c0-0.2,0.2-0.4,0.4-0.5c3.6-0.8,7.3-1.1,10.9-0.9c0.3,0,0.5,0.2,0.5,0.5c0,0,0,0,0,0c0,0.3-0.2,0.5-0.5,0.5c0,0,0,0,0,0
    c-3.6-0.2-7.2,0.1-10.7,0.9C133.3,11.1,133.3,11.1,133.2,11.1L133.2,11.1z"/>
<animateTransform attributeName="transform"
  attributeType="XML"
  type="rotate"
  from="0 142 51"
  to="-360 142 51"
  dur="10s"
  repeatCount="indefinite"/>
</g>
<g id="RingLeftInner">
  <path class="st0" d="M62.8,93.3L62.8,93.3c-3,0-5.9-0.3-8.8-0.9c-0.3-0.1-0.4-0.3-0.4-0.6c0.1-0.3,0.3-0.4,0.6-0.4
    c2.8,0.6,5.6,0.9,8.5,0.9c0.7,0,1.5,0,2.2-0.1c0.3,0,0.5,0.2,0.5,0.4c0,0,0,0,0,0c0,0.3-0.2,0.5-0.5,0.5c0,0,0,0,0,0
    C64.3,93.3,63.6,93.3,62.8,93.3z M71.4,92.4c-0.3,0-0.5-0.2-0.5-0.5c0-0.2,0.2-0.4,0.4-0.5c0.7-0.1,1.4-0.3,2.1-0.5
    c0.3-0.1,0.5,0.1,0.6,0.4c0.1,0.3-0.1,0.5-0.4,0.6c0,0,0,0,0,0c-0.7,0.2-1.4,0.4-2.1,0.5C71.5,92.4,71.5,92.4,71.4,92.4z
     M77.7,90.6c-0.3,0-0.5-0.2-0.5-0.5c0-0.2,0.1-0.4,0.3-0.5c2.7-1,5.2-2.3,7.6-3.9c0.2-0.2,0.5-0.1,0.7,0.1s0.1,0.5-0.1,0.7l0,0
    c-2.5,1.6-5.1,2.9-7.8,4C77.8,90.6,77.7,90.6,77.7,90.6z M45.9,89.8c-0.1,0-0.1,0-0.2,0c-2.7-1.2-5.2-2.7-7.6-4.4
    c-0.2-0.2-0.3-0.5-0.1-0.7c0.2-0.2,0.5-0.3,0.7-0.1c0,0,0,0,0,0c2.3,1.7,4.8,3.1,7.4,4.3c0.3,0.1,0.4,0.4,0.3,0.7
    C46.3,89.6,46.1,89.8,45.9,89.8z M35,82.7c-0.1,0-0.2,0-0.3-0.1c-0.5-0.5-1.1-1-1.6-1.5c-0.2-0.2-0.2-0.5,0-0.7
    c0.2-0.2,0.5-0.2,0.7,0c0.5,0.5,1,1,1.6,1.5c0.2,0.2,0.2,0.5,0,0.7C35.3,82.6,35.1,82.7,35,82.7z M92.2,81.1
    c-0.3,0-0.5-0.2-0.5-0.5c0-0.1,0.1-0.3,0.1-0.4c2.5-2.5,4.7-5.4,6.5-8.5c0.1-0.2,0.4-0.3,0.7-0.2c0.2,0.1,0.3,0.4,0.2,0.7
    c0,0,0,0,0,0c-1.8,3.2-4.1,6.1-6.7,8.7C92.4,81.1,92.3,81.1,92.2,81.1z M29.2,76.2c-0.2,0-0.3-0.1-0.4-0.2c-2.2-3-3.9-6.2-5.3-9.6
    c-0.1-0.3,0-0.5,0.3-0.6s0.5,0,0.6,0.3c1.3,3.3,3,6.5,5.1,9.4c0.2,0.2,0.1,0.5-0.1,0.7C29.4,76.2,29.3,76.2,29.2,76.2z M101.6,66.7
    c-0.3,0-0.5-0.2-0.5-0.5c0-0.1,0-0.1,0-0.2c0.3-0.7,0.5-1.3,0.7-2c0.1-0.3,0.4-0.4,0.6-0.3c0.3,0.1,0.4,0.4,0.3,0.6c0,0,0,0,0,0
    c-0.2,0.7-0.5,1.4-0.7,2.1C102,66.5,101.8,66.7,101.6,66.7z M103.4,60.4c0,0-0.1,0-0.1,0c-0.3-0.1-0.4-0.3-0.4-0.6
    c0.6-2.8,0.9-5.7,0.9-8.5l0-0.2c0-0.3,0.2-0.5,0.5-0.5s0.5,0.2,0.5,0.5l0,0.2c0,2.9-0.3,5.9-0.9,8.7
    C103.9,60.2,103.7,60.4,103.4,60.4z M21.7,58.3c-0.2,0-0.5-0.2-0.5-0.4c-0.3-2.2-0.5-4.4-0.5-6.7c0-0.7,0-1.4,0.1-2.1
    c0-0.3,0.2-0.5,0.5-0.5c0,0,0,0,0,0c0.3,0,0.5,0.2,0.5,0.5c0,0.7-0.1,1.4-0.1,2.1c0,2.2,0.2,4.4,0.5,6.5
    C22.3,58,22.1,58.3,21.7,58.3C21.8,58.3,21.7,58.3,21.7,58.3L21.7,58.3z M104.1,47.3c-0.3,0-0.5-0.2-0.5-0.4
    c-0.3-2.9-0.9-5.7-1.8-8.4c-0.1-0.3,0.1-0.5,0.3-0.6s0.5,0.1,0.6,0.3c0.9,2.8,1.5,5.7,1.9,8.6C104.6,47,104.4,47.2,104.1,47.3
    C104.1,47.3,104.1,47.3,104.1,47.3C104.1,47.3,104.1,47.3,104.1,47.3L104.1,47.3z M21.7,45.3C21.7,45.3,21.6,45.3,21.7,45.3
    c-0.3,0-0.5-0.3-0.5-0.6c0.1-0.7,0.2-1.5,0.4-2.2c0.1-0.3,0.3-0.4,0.6-0.4c0.3,0.1,0.4,0.3,0.4,0.6c-0.1,0.7-0.3,1.4-0.4,2.1
    C22.2,45.2,21.9,45.3,21.7,45.3L21.7,45.3z M23.9,36.9c-0.3,0-0.5-0.2-0.5-0.5c0-0.1,0-0.1,0-0.2c1.3-3.4,3.1-6.7,5.2-9.7
    c0.2-0.2,0.5-0.3,0.7-0.1s0.3,0.5,0.1,0.7c-2.1,2.9-3.8,6.1-5.1,9.4C24.3,36.8,24.1,36.9,23.9,36.9L23.9,36.9z M98.7,30.8
    c-0.2,0-0.3-0.1-0.4-0.2c-1.8-3.1-4-5.9-6.6-8.5c-0.2-0.2-0.2-0.5,0-0.7c0.2-0.2,0.5-0.2,0.7,0c2.6,2.6,4.9,5.5,6.7,8.7
    c0.1,0.2,0.1,0.5-0.2,0.7l0,0C98.9,30.8,98.8,30.8,98.7,30.8L98.7,30.8z M34.9,20.9c-0.3,0-0.5-0.2-0.5-0.5c0-0.1,0.1-0.3,0.2-0.4
    c2.2-2,4.6-3.7,7.1-5.2c0.2-0.1,0.5-0.1,0.7,0.2s0.1,0.5-0.2,0.7c-2.5,1.4-4.8,3.1-6.9,5.1C35.1,20.9,35,20.9,34.9,20.9L34.9,20.9z
     M87.1,18.1c-0.1,0-0.2,0-0.3-0.1c-0.6-0.4-1.2-0.8-1.8-1.2c-0.2-0.1-0.3-0.5-0.1-0.7c0.1-0.2,0.5-0.3,0.7-0.1
    c0.6,0.4,1.2,0.8,1.8,1.2c0.2,0.2,0.3,0.5,0.1,0.7C87.4,18,87.2,18.1,87.1,18.1L87.1,18.1z M81.5,14.7c-0.1,0-0.2,0-0.2-0.1
    c-2.6-1.3-5.2-2.3-8-3.1c-0.3-0.1-0.4-0.3-0.4-0.6c0.1-0.3,0.3-0.4,0.6-0.4c0,0,0,0,0,0c2.8,0.8,5.6,1.8,8.2,3.1
    c0.2,0.1,0.3,0.4,0.2,0.7C81.9,14.6,81.7,14.7,81.5,14.7L81.5,14.7z M45.8,13.8c-0.3,0-0.5-0.2-0.5-0.5c0-0.2,0.1-0.4,0.3-0.5
    c0.7-0.3,1.3-0.6,2-0.8c0.3-0.1,0.5,0,0.6,0.3c0.1,0.3,0,0.5-0.3,0.6c-0.7,0.3-1.3,0.5-2,0.8C45.9,13.8,45.8,13.8,45.8,13.8
    L45.8,13.8z M54,11.1c-0.3,0-0.5-0.2-0.5-0.5c0-0.2,0.2-0.4,0.4-0.5c3.6-0.8,7.3-1.1,10.9-0.9c0.3,0,0.5,0.2,0.5,0.5c0,0,0,0,0,0
    c0,0.3-0.2,0.5-0.5,0.5c0,0,0,0,0,0c-3.6-0.2-7.2,0.1-10.7,0.9C54.1,11.1,54,11.1,54,11.1L54,11.1z"/>
<animateTransform attributeName="transform"
  attributeType="XML"
  type="rotate"
  from="0 62 51"
  to="360 62 51"
  dur="10s"
  repeatCount="indefinite"/>
</g>
<g id="RingLeftOuter">
  <path class="st0" d="M62.6,102.5c-0.9,0-1.7,0-2.6-0.1c-0.3,0-0.5-0.2-0.5-0.5c0,0,0,0,0,0c0-0.3,0.3-0.5,0.5-0.5
    c3.8,0.2,7.6,0,11.3-0.7c0.3,0,0.5,0.1,0.6,0.4c0,0.3-0.1,0.5-0.4,0.6c0,0,0,0,0,0C68.6,102.2,65.6,102.5,62.6,102.5z M52.5,101.5
    c0,0-0.1,0-0.1,0c-0.9-0.2-1.9-0.4-2.8-0.7c-0.3-0.1-0.4-0.3-0.4-0.6s0.3-0.4,0.6-0.4c0.9,0.2,1.8,0.5,2.8,0.6
    c0.3,0.1,0.4,0.3,0.4,0.6C52.9,101.3,52.7,101.5,52.5,101.5z M46,99.7c-0.1,0-0.1,0-0.2,0c-0.3-0.1-0.6-0.2-0.9-0.3
    c-0.3-0.1-0.4-0.4-0.3-0.6s0.4-0.4,0.6-0.3c0.3,0.1,0.6,0.2,0.9,0.3c0.3,0.1,0.4,0.4,0.3,0.6C46.4,99.6,46.2,99.7,46,99.7z
     M79.8,99.5c-0.3,0-0.5-0.2-0.5-0.5c0-0.2,0.1-0.4,0.3-0.5c0.3-0.1,0.6-0.2,0.9-0.3c0.3-0.1,0.5,0,0.6,0.3s0,0.5-0.3,0.6l0,0
    c-0.3,0.1-0.6,0.2-0.9,0.3C79.9,99.5,79.9,99.5,79.8,99.5z M84.2,97.7c-0.3,0-0.5-0.2-0.5-0.5c0-0.2,0.1-0.4,0.3-0.5
    c0.9-0.4,1.7-0.8,2.5-1.3c0.2-0.1,0.5,0,0.7,0.2s0,0.5-0.2,0.7c-0.8,0.5-1.7,0.9-2.6,1.3C84.4,97.7,84.3,97.7,84.2,97.7L84.2,97.7z
     M37.3,95.7c-0.1,0-0.2,0-0.2-0.1c-3.4-1.9-6.5-4.2-9.3-6.9c-0.2-0.2-0.2-0.5,0-0.7c0.2-0.2,0.5-0.2,0.7,0c0,0,0,0,0,0
    c2.8,2.6,5.8,4.8,9.1,6.7c0.2,0.1,0.3,0.4,0.2,0.7C37.7,95.7,37.5,95.8,37.3,95.7z M93.2,92.3c-0.3,0-0.5-0.2-0.5-0.5
    c0-0.2,0.1-0.3,0.2-0.4c3-2.3,5.8-4.9,8.2-7.8c0.2-0.2,0.5-0.2,0.7-0.1s0.2,0.5,0.1,0.7c-2.5,3-5.3,5.6-8.4,8
    C93.4,92.2,93.3,92.3,93.2,92.3z M22.9,83.3c-0.2,0-0.3-0.1-0.4-0.2c-0.6-0.7-1.2-1.5-1.7-2.3c-0.2-0.2-0.1-0.5,0.1-0.7
    c0.2-0.2,0.5-0.1,0.7,0.1c0.5,0.8,1.1,1.5,1.7,2.3c0.2,0.2,0.1,0.5-0.1,0.7C23.1,83.3,23,83.3,22.9,83.3z M19.1,77.8
    c-0.2,0-0.3-0.1-0.4-0.2c-0.2-0.3-0.3-0.6-0.5-0.8c-0.1-0.2-0.1-0.5,0.2-0.7s0.5-0.1,0.7,0.2c0.2,0.3,0.3,0.5,0.5,0.8
    c0.1,0.2,0.1,0.5-0.2,0.7C19.3,77.8,19.2,77.8,19.1,77.8z M106.5,77.3c-0.3,0-0.5-0.2-0.5-0.5c0-0.1,0-0.2,0.1-0.3
    c0.2-0.3,0.3-0.5,0.5-0.8c0.1-0.2,0.4-0.3,0.7-0.2c0.2,0.1,0.3,0.4,0.2,0.7c0,0,0,0,0,0c-0.2,0.3-0.3,0.6-0.5,0.8
    C106.8,77.2,106.7,77.3,106.5,77.3L106.5,77.3z M108.7,73.1c-0.1,0-0.1,0-0.2,0c-0.3-0.1-0.4-0.4-0.2-0.7c0,0,0,0,0,0
    c0.4-0.9,0.8-1.7,1.1-2.6c0.1-0.3,0.4-0.4,0.7-0.3c0.3,0.1,0.4,0.4,0.3,0.6c-0.4,0.9-0.7,1.8-1.1,2.7
    C109.1,73,108.9,73.1,108.7,73.1L108.7,73.1z M15,69.2c-0.2,0-0.4-0.1-0.5-0.3c-1.3-3.6-2.2-7.4-2.7-11.2c0-0.3,0.2-0.5,0.4-0.6
    c0.3,0,0.5,0.2,0.6,0.4c0.5,3.8,1.4,7.5,2.7,11c0.1,0.3,0,0.5-0.3,0.6C15.1,69.2,15,69.2,15,69.2L15,69.2z M112.1,63.1
    c0,0-0.1,0-0.1,0c-0.3-0.1-0.4-0.3-0.4-0.6c0,0,0,0,0,0c0.8-3.7,1.3-7.5,1.3-11.3l0-0.2c0-0.3,0.2-0.5,0.5-0.5c0,0,0,0,0,0h0
    c0.3,0,0.5,0.2,0.5,0.5l0,0.2c0,3.9-0.4,7.7-1.3,11.5C112.5,63,112.3,63.1,112.1,63.1L112.1,63.1z M11.9,50.4L11.9,50.4
    c-0.3,0-0.5-0.2-0.5-0.5c0-1,0.1-1.9,0.2-2.9c0-0.3,0.3-0.5,0.5-0.5c0.3,0,0.5,0.3,0.5,0.5c-0.1,0.9-0.1,1.9-0.2,2.8
    C12.4,50.2,12.2,50.4,11.9,50.4L11.9,50.4z M12.5,43.8C12.5,43.8,12.5,43.8,12.5,43.8c-0.4,0-0.5-0.3-0.5-0.6
    c0.1-0.3,0.1-0.6,0.2-1c0-0.3,0.3-0.5,0.6-0.4s0.5,0.3,0.4,0.6c0,0,0,0,0,0c-0.1,0.3-0.1,0.6-0.2,0.9C13,43.6,12.8,43.8,12.5,43.8
    L12.5,43.8z M112.6,43c-0.2,0-0.5-0.2-0.5-0.4c-0.1-0.3-0.1-0.6-0.2-0.9c-0.1-0.3,0.1-0.5,0.4-0.6s0.5,0.1,0.6,0.4
    c0.1,0.3,0.1,0.6,0.2,1C113.2,42.7,113,42.9,112.6,43C112.7,43,112.7,43,112.6,43C112.7,43,112.7,43,112.6,43L112.6,43z
     M111.6,38.3c-0.2,0-0.4-0.2-0.5-0.4c-0.2-0.9-0.5-1.8-0.8-2.7c-0.1-0.3,0.1-0.5,0.3-0.6c0.3-0.1,0.5,0.1,0.6,0.3
    c0.3,0.9,0.6,1.8,0.8,2.8c0.1,0.3-0.1,0.5-0.4,0.6C111.7,38.3,111.6,38.3,111.6,38.3L111.6,38.3z M14.9,34.5c-0.1,0-0.1,0-0.2,0
    c-0.3-0.1-0.4-0.4-0.3-0.6c1.3-3.6,3-7.1,5.1-10.4c0.1-0.2,0.5-0.3,0.7-0.1c0.2,0.1,0.3,0.5,0.1,0.7c-2.1,3.2-3.8,6.6-5,10.2
    C15.3,34.4,15.1,34.5,14.9,34.5z M107.8,28.5c-0.2,0-0.4-0.1-0.4-0.3c-1.7-3.4-3.9-6.5-6.3-9.4c-0.2-0.2-0.2-0.5,0.1-0.7
    s0.5-0.2,0.7,0.1l0,0c2.5,3,4.7,6.2,6.4,9.6c0.1,0.2,0,0.5-0.2,0.7C107.9,28.5,107.8,28.5,107.8,28.5L107.8,28.5z M24.6,18.1
    c-0.3,0-0.5-0.2-0.5-0.5c0-0.1,0-0.2,0.1-0.3c0.6-0.7,1.3-1.4,2-2.1c0.2-0.2,0.5-0.2,0.7,0c0.2,0.2,0.2,0.5,0,0.7l0,0
    c-0.7,0.7-1.3,1.4-1.9,2.1C24.9,18.1,24.8,18.1,24.6,18.1L24.6,18.1z M29.4,13.4c-0.3,0-0.5-0.2-0.5-0.5c0-0.1,0.1-0.3,0.2-0.4
    c0.2-0.2,0.5-0.4,0.7-0.6c0.2-0.2,0.5-0.1,0.7,0.1c0.2,0.2,0.1,0.5-0.1,0.7c-0.2,0.2-0.5,0.4-0.7,0.6
    C29.6,13.4,29.5,13.4,29.4,13.4L29.4,13.4z M95.3,12.9c-0.1,0-0.2,0-0.3-0.1c-0.2-0.2-0.5-0.4-0.7-0.6C94,12,94,11.7,94.2,11.5
    s0.5-0.2,0.7-0.1l0,0c0.3,0.2,0.5,0.4,0.7,0.6c0.2,0.2,0.2,0.5,0.1,0.7C95.6,12.9,95.5,12.9,95.3,12.9L95.3,12.9z M91.5,10
    c-0.1,0-0.2,0-0.3-0.1c-0.8-0.5-1.6-1.1-2.4-1.6c-0.2-0.1-0.3-0.5-0.2-0.7s0.5-0.3,0.7-0.2l0,0c0.8,0.5,1.6,1,2.4,1.6
    c0.2,0.2,0.3,0.5,0.1,0.7C91.8,9.9,91.7,10,91.5,10L91.5,10z M37.1,7.9c-0.3,0-0.5-0.2-0.5-0.5c0-0.2,0.1-0.3,0.2-0.4
    c3.3-1.9,6.9-3.5,10.6-4.7c0.3-0.1,0.5,0.1,0.6,0.3c0.1,0.3-0.1,0.5-0.3,0.6c0,0,0,0,0,0c-3.6,1.1-7.1,2.7-10.4,4.6
    C37.3,7.8,37.2,7.9,37.1,7.9L37.1,7.9z M82.3,5c-0.1,0-0.1,0-0.2,0c-3.5-1.5-7.2-2.5-10.9-3.2c-0.3,0-0.5-0.3-0.4-0.6
    c0-0.3,0.3-0.5,0.6-0.4c3.8,0.7,7.5,1.7,11.1,3.2c0.3,0.1,0.4,0.4,0.3,0.7C82.7,4.8,82.5,5,82.3,5L82.3,5z M55.1,1.6
    c-0.3,0-0.5-0.2-0.5-0.5c0-0.2,0.2-0.5,0.4-0.5c0.9-0.1,1.9-0.3,2.9-0.3c0.3,0,0.5,0.2,0.5,0.5c0,0.3-0.2,0.5-0.5,0.5
    C57,1.3,56.1,1.4,55.1,1.6C55.1,1.6,55.1,1.6,55.1,1.6L55.1,1.6z M61.8,1c-0.3,0-0.5-0.2-0.5-0.5S61.5,0,61.8,0c0.3,0,0.6,0,0.9,0
    c0.3,0,0.5,0.2,0.5,0.5C63.2,0.8,63,1,62.7,1c0,0,0,0,0,0C62.3,1,62.1,1,61.8,1L61.8,1L61.8,1z"/>
<animateTransform attributeName="transform"
  attributeType="XML"
  type="rotate"
  from="0 62 51"
  to="-360 62 51"
  dur="10s"
  repeatCount="indefinite"/>
</g>
<g id="RingRightOuter">
  <path class="st0" d="M142.1,102.5c-0.9,0-1.7,0-2.6-0.1c-0.3,0-0.5-0.2-0.5-0.5c0,0,0,0,0,0c0-0.3,0.3-0.5,0.5-0.5
    c3.8,0.2,7.6,0,11.3-0.7c0.3,0,0.5,0.1,0.6,0.4c0,0.3-0.1,0.5-0.4,0.6c0,0,0,0,0,0C148.1,102.2,145.1,102.5,142.1,102.5z
     M131.9,101.5c0,0-0.1,0-0.1,0c-0.9-0.2-1.9-0.4-2.8-0.7c-0.3-0.1-0.4-0.3-0.4-0.6s0.3-0.4,0.6-0.4c0.9,0.2,1.8,0.5,2.8,0.6
    c0.3,0.1,0.4,0.3,0.4,0.6C132.4,101.3,132.2,101.5,131.9,101.5z M125.5,99.7c-0.1,0-0.1,0-0.2,0c-0.3-0.1-0.6-0.2-0.9-0.3
    c-0.3-0.1-0.4-0.4-0.3-0.6s0.4-0.4,0.6-0.3c0.3,0.1,0.6,0.2,0.9,0.3c0.3,0.1,0.4,0.4,0.3,0.6C125.9,99.6,125.7,99.7,125.5,99.7z
     M159.3,99.5c-0.3,0-0.5-0.2-0.5-0.5c0-0.2,0.1-0.4,0.3-0.5c0.3-0.1,0.6-0.2,0.9-0.3c0.3-0.1,0.5,0,0.6,0.3s0,0.5-0.3,0.6l0,0
    c-0.3,0.1-0.6,0.2-0.9,0.3C159.4,99.5,159.3,99.5,159.3,99.5z M163.7,97.7c-0.3,0-0.5-0.2-0.5-0.5c0-0.2,0.1-0.4,0.3-0.5
    c0.9-0.4,1.7-0.8,2.5-1.3c0.2-0.1,0.5,0,0.7,0.2s0,0.5-0.2,0.7c-0.8,0.5-1.7,0.9-2.6,1.3C163.8,97.7,163.8,97.7,163.7,97.7
    L163.7,97.7z M116.8,95.7c-0.1,0-0.2,0-0.2-0.1c-3.4-1.9-6.5-4.2-9.3-6.9c-0.2-0.2-0.2-0.5,0-0.7c0.2-0.2,0.5-0.2,0.7,0
    c0,0,0,0,0,0c2.8,2.6,5.8,4.8,9.1,6.7c0.2,0.1,0.3,0.4,0.2,0.7C117.1,95.6,117,95.7,116.8,95.7z M172.7,92.3
    c-0.3,0-0.5-0.2-0.5-0.5c0-0.2,0.1-0.3,0.2-0.4c3-2.3,5.8-4.9,8.2-7.8c0.2-0.2,0.5-0.2,0.7-0.1s0.2,0.5,0.1,0.7
    c-2.5,3-5.3,5.6-8.4,8C172.9,92.2,172.8,92.3,172.7,92.3z M102.4,83.3c-0.2,0-0.3-0.1-0.4-0.2c-0.6-0.7-1.2-1.5-1.7-2.3
    c-0.2-0.2-0.1-0.5,0.1-0.7c0.2-0.2,0.5-0.1,0.7,0.1c0.5,0.8,1.1,1.5,1.7,2.3c0.2,0.2,0.1,0.5-0.1,0.7
    C102.6,83.3,102.5,83.3,102.4,83.3z M98.5,77.8c-0.2,0-0.3-0.1-0.4-0.2c-0.2-0.3-0.3-0.6-0.5-0.8c-0.1-0.2-0.1-0.5,0.2-0.7
    s0.5-0.1,0.7,0.2c0.2,0.3,0.3,0.5,0.5,0.8c0.1,0.2,0.1,0.5-0.2,0.7C98.7,77.8,98.6,77.8,98.5,77.8z M185.9,77.3
    c-0.3,0-0.5-0.2-0.5-0.5c0-0.1,0-0.2,0.1-0.3c0.2-0.3,0.3-0.5,0.5-0.8c0.1-0.2,0.4-0.3,0.7-0.2c0.2,0.1,0.3,0.4,0.2,0.7
    c0,0,0,0,0,0c-0.2,0.3-0.3,0.6-0.5,0.8C186.3,77.2,186.1,77.3,185.9,77.3L185.9,77.3z M188.2,73.1c-0.1,0-0.1,0-0.2,0
    c-0.3-0.1-0.4-0.4-0.2-0.7c0,0,0,0,0,0c0.4-0.9,0.8-1.7,1.1-2.6c0.1-0.3,0.4-0.4,0.7-0.3c0.3,0.1,0.4,0.4,0.3,0.6
    c-0.4,0.9-0.7,1.8-1.1,2.7C188.5,73,188.4,73.1,188.2,73.1L188.2,73.1z M94.4,69.2c-0.2,0-0.4-0.1-0.5-0.3
    c-1.3-3.6-2.2-7.4-2.7-11.2c0-0.3,0.2-0.5,0.4-0.6c0.3,0,0.5,0.2,0.6,0.4c0.5,3.8,1.4,7.5,2.7,11c0.1,0.3,0,0.5-0.3,0.6
    C94.5,69.2,94.5,69.2,94.4,69.2L94.4,69.2z M191.6,63.1c0,0-0.1,0-0.1,0c-0.3-0.1-0.4-0.3-0.4-0.6c0,0,0,0,0,0
    c0.8-3.7,1.3-7.5,1.3-11.3l0-0.2c0-0.3,0.2-0.5,0.5-0.5c0,0,0,0,0,0h0c0.3,0,0.5,0.2,0.5,0.5l0,0.2c0,3.9-0.4,7.7-1.3,11.5
    C192,63,191.8,63.1,191.6,63.1L191.6,63.1z M91.4,50.4L91.4,50.4c-0.3,0-0.5-0.2-0.5-0.5c0-1,0.1-1.9,0.2-2.9
    c0-0.3,0.3-0.5,0.5-0.5c0.3,0,0.5,0.3,0.5,0.5c-0.1,0.9-0.1,1.9-0.2,2.8C91.9,50.2,91.6,50.4,91.4,50.4L91.4,50.4z M92,43.8
    C91.9,43.8,91.9,43.8,92,43.8c-0.4,0-0.5-0.3-0.5-0.6c0.1-0.3,0.1-0.6,0.2-1c0-0.3,0.3-0.5,0.6-0.4s0.5,0.3,0.4,0.6c0,0,0,0,0,0
    c-0.1,0.3-0.1,0.6-0.2,0.9C92.4,43.6,92.2,43.8,92,43.8L92,43.8z M192.1,43c-0.2,0-0.5-0.2-0.5-0.4c-0.1-0.3-0.1-0.6-0.2-0.9
    c-0.1-0.3,0.1-0.5,0.4-0.6s0.5,0.1,0.6,0.4c0.1,0.3,0.1,0.6,0.2,1C192.6,42.7,192.5,42.9,192.1,43C192.2,43,192.2,43,192.1,43
    C192.1,43,192.1,43,192.1,43L192.1,43z M191,38.3c-0.2,0-0.4-0.2-0.5-0.4c-0.2-0.9-0.5-1.8-0.8-2.7c-0.1-0.3,0.1-0.5,0.3-0.6
    c0.3-0.1,0.5,0.1,0.6,0.3c0.3,0.9,0.6,1.8,0.8,2.8c0.1,0.3-0.1,0.5-0.4,0.6C191.1,38.3,191.1,38.3,191,38.3L191,38.3z M94.4,34.5
    c-0.1,0-0.1,0-0.2,0c-0.3-0.1-0.4-0.4-0.3-0.6c1.3-3.6,3-7.1,5.1-10.4c0.1-0.2,0.5-0.3,0.7-0.1c0.2,0.1,0.3,0.5,0.1,0.7
    c-2.1,3.2-3.8,6.6-5,10.2C94.8,34.4,94.6,34.5,94.4,34.5z M187.2,28.5c-0.2,0-0.4-0.1-0.4-0.3c-1.7-3.4-3.9-6.5-6.3-9.4
    c-0.2-0.2-0.2-0.5,0.1-0.7s0.5-0.2,0.7,0.1l0,0c2.5,3,4.7,6.2,6.4,9.6c0.1,0.2,0,0.5-0.2,0.7C187.4,28.5,187.3,28.5,187.2,28.5
    L187.2,28.5z M104.1,18.1c-0.3,0-0.5-0.2-0.5-0.5c0-0.1,0-0.2,0.1-0.3c0.6-0.7,1.3-1.4,2-2.1c0.2-0.2,0.5-0.2,0.7,0
    c0.2,0.2,0.2,0.5,0,0.7l0,0c-0.7,0.7-1.3,1.4-1.9,2.1C104.4,18.1,104.2,18.1,104.1,18.1L104.1,18.1z M108.8,13.4
    c-0.3,0-0.5-0.2-0.5-0.5c0-0.1,0.1-0.3,0.2-0.4c0.2-0.2,0.5-0.4,0.7-0.6c0.2-0.2,0.5-0.1,0.7,0.1c0.2,0.2,0.1,0.5-0.1,0.7
    c-0.2,0.2-0.5,0.4-0.7,0.6C109.1,13.4,108.9,13.4,108.8,13.4L108.8,13.4z M174.8,12.9c-0.1,0-0.2,0-0.3-0.1
    c-0.2-0.2-0.5-0.4-0.7-0.6c-0.2-0.2-0.2-0.5-0.1-0.7s0.5-0.2,0.7-0.1l0,0c0.3,0.2,0.5,0.4,0.7,0.6c0.2,0.2,0.2,0.5,0.1,0.7
    C175.1,12.8,174.9,12.9,174.8,12.9L174.8,12.9z M171,10c-0.1,0-0.2,0-0.3-0.1c-0.8-0.5-1.6-1.1-2.4-1.6c-0.2-0.1-0.3-0.5-0.2-0.7
    s0.5-0.3,0.7-0.2l0,0c0.8,0.5,1.6,1,2.4,1.6c0.2,0.2,0.3,0.5,0.1,0.7C171.3,9.9,171.1,10,171,10L171,10z M116.6,7.9
    c-0.3,0-0.5-0.2-0.5-0.5c0-0.2,0.1-0.3,0.2-0.4c3.3-1.9,6.9-3.5,10.6-4.7c0.3-0.1,0.5,0.1,0.6,0.3c0.1,0.3-0.1,0.5-0.3,0.6
    c0,0,0,0,0,0c-3.6,1.1-7.1,2.7-10.4,4.6C116.8,7.8,116.7,7.9,116.6,7.9L116.6,7.9z M161.8,4.9c-0.1,0-0.1,0-0.2,0
    c-3.5-1.5-7.2-2.5-10.9-3.2c-0.3,0-0.5-0.3-0.4-0.6c0-0.3,0.3-0.5,0.6-0.4c3.8,0.7,7.5,1.7,11.1,3.2c0.3,0.1,0.4,0.4,0.3,0.7
    C162.1,4.8,162,4.9,161.8,4.9L161.8,4.9z M134.5,1.6c-0.3,0-0.5-0.2-0.5-0.5c0-0.2,0.2-0.5,0.4-0.5c0.9-0.1,1.9-0.3,2.9-0.3
    c0.3,0,0.5,0.2,0.5,0.5c0,0.3-0.2,0.5-0.5,0.5C136.5,1.3,135.6,1.4,134.5,1.6C134.6,1.6,134.6,1.6,134.5,1.6L134.5,1.6z M141.2,1
    c-0.3,0-0.5-0.2-0.5-0.5s0.2-0.5,0.5-0.5c0.3,0,0.6,0,0.9,0c0.3,0,0.5,0.2,0.5,0.5c0,0.3-0.2,0.5-0.4,0.5c0,0,0,0,0,0
    C141.8,1,141.5,1,141.2,1L141.2,1L141.2,1z"/>
<animateTransform attributeName="transform"
  attributeType="XML"
  type="rotate"
  from="0 142 51"
  to="360 142 51"
  dur="10s"
  repeatCount="indefinite"/>
</g>
<g id="Layer_1">
  <title>Artboard 7</title>
  <path class="st1" d="M127.5,12.3c-0.1-0.3-0.4-0.4-0.6-0.3c0,0,0,0,0,0c-0.7,0.3-1.3,0.6-2,0.9c-0.1,0.1-0.3,0.2-0.3,0.4h2l0.7-0.3
    C127.5,12.8,127.6,12.6,127.5,12.3z M171.1,81c0.2,0.2,0.5,0.2,0.7,0c0,0,0,0,0,0c0.2-0.2,0.3-0.3,0.5-0.5H171
    C170.9,80.7,171,80.9,171.1,81z M109.8,12.7c0.2-0.2,0.2-0.5,0.1-0.7c-0.2-0.2-0.5-0.2-0.7-0.1l0,0l-0.7,0.6
    c-0.2,0.2-0.2,0.5-0.1,0.7h0.8L109.8,12.7z M47.4,12l-0.3,0.1c0.3,0,0.7,0.1,1,0.2C48,12,47.7,11.9,47.4,12
    C47.4,12,47.4,12,47.4,12z M95,12.8c0.2,0.2,0.5,0.1,0.7-0.1c0.2-0.2,0.1-0.5-0.1-0.7c0,0,0,0,0,0l-0.8-0.6
    c-0.2-0.2-0.5-0.1-0.7,0.1C94,11.7,94,12,94.2,12.2L95,12.8z M30.5,12c-0.2-0.2-0.5-0.2-0.7-0.1l-0.3,0.2h1
    C30.5,12.1,30.5,12.1,30.5,12z"/>
  <path class="st0" d="M142.1,6c12,0,23.5,4.8,32,13.3h2.8c-16.3-17.8-43.3-20.4-62.7-6.1h3.5C124.9,8.5,133.4,6,142.1,6z"/>
  <path class="st0" d="M142.1,96.5c-9.3,0-18.4-2.9-26.1-8.3h-3.3c20.3,16.2,50,12.9,66.2-7.4c0.1-0.1,0.2-0.2,0.2-0.3h-2.6
    C168,90.6,155.4,96.5,142.1,96.5L142.1,96.5z"/>
  <path class="st0" d="M62.6,6c8.7,0,17.2,2.5,24.5,7.2h3.5C74.5,1.3,52.7,0.9,36.1,12.1h3.8C46.8,8.1,54.6,6,62.6,6z"/>
  <path class="st0" d="M62.6,96.5c-10.1,0-20-3.4-27.9-9.7h-3.1c17.2,15.1,42.6,15.6,60.5,1.4h-3.3C81.1,93.6,71.9,96.5,62.6,96.5
    L62.6,96.5z"/>
  <path class="st2" d="M194,25.1h-22.3c-0.9,0-1.7,0.8-1.7,1.7l0,0v41.9c0,0.9,0.8,1.7,1.7,1.7l0,0H194c0.9,0,1.7-0.8,1.7-1.7l0,0
    V26.8C195.7,25.9,194.9,25.1,194,25.1L194,25.1z M182.5,28.8c3.2,0,5.7,2.6,5.7,5.7s-2.6,5.7-5.7,5.7s-5.7-2.6-5.7-5.7
    C176.8,31.3,179.4,28.7,182.5,28.8C182.5,28.7,182.6,28.7,182.5,28.8L182.5,28.8z M177,45.9c0.1-0.3,0.4-0.6,0.7-0.6l2.7-0.5
    l1.5-3.1h0.6c0.4,0,0.7,0.2,0.9,0.5l1.3,2.6l3.2,0.6l0.2,0.5c0.1,0.3,0,0.7-0.2,0.9l-2,2.1l0.5,3.5l-0.5,0.4
    c-0.3,0.2-0.7,0.2-1,0.1l-2.5-1.3l-2.9,1.5l-0.5-0.3c-0.3-0.2-0.4-0.6-0.4-0.9l0.4-2.9l-2.3-2.5L177,45.9z M183.1,58.8
    c0-0.5,0.4-0.9,0.9-0.9c0,0,0,0,0,0h1c-0.6-0.6-1.5-1-2.4-1c-1.5,0-2.8,1-3.2,2.5c-0.1,0.4-0.4,0.7-0.9,0.7h-0.2
    c-0.5-0.1-0.8-0.6-0.6-1c0,0,0,0,0,0c0.7-2.7,3.4-4.3,6.1-3.6c0.8,0.2,1.5,0.6,2.1,1.1V56c0.1-0.5,0.5-0.8,1-0.8
    c0.4,0,0.7,0.4,0.8,0.8v2.8c0,0.5-0.4,0.9-0.9,0.9c0,0,0,0,0,0H184c-0.5,0.1-0.9-0.3-1-0.8C183.1,58.8,183.1,58.8,183.1,58.8
    L183.1,58.8z M182.6,65.2c-1.2,0-2.4-0.5-3.3-1.2v0.4c-0.1,0.5-0.5,0.8-1,0.8c-0.4,0-0.7-0.4-0.8-0.8v-2.8c0-0.5,0.4-0.9,0.9-0.9
    c0,0,0,0,0,0h2.8c0.5,0.1,0.8,0.5,0.8,1c0,0.4-0.4,0.7-0.8,0.8h-1c0.6,0.6,1.5,1,2.4,1c1.5,0,2.8-1,3.2-2.5
    c0.2-0.5,0.7-0.7,1.1-0.5c0.4,0.1,0.6,0.5,0.6,1C186.9,63.6,184.9,65.2,182.6,65.2L182.6,65.2z"/>
  <path class="st2" d="M182.6,38.4c2.2,0,4-1.8,4-4s-1.8-4-4-4s-4,1.8-4,4S180.4,38.4,182.6,38.4z M181.7,32c0-0.3,0.2-0.5,0.5-0.5
    s0.5,0.2,0.5,0.5v2.3h2.3c0.3,0,0.5,0.2,0.5,0.5s-0.2,0.5-0.5,0.5h-2.8c-0.3,0-0.5-0.2-0.5-0.5L181.7,32z M180.7,50.6l1.9-1l1.9,1
    l-0.3-2.2l1.5-1.6l-2.1-0.4l-1-1.9l-1,1.9l-2.1,0.4l1.5,1.6L180.7,50.6z"/>
  <path class="st3" d="M178.7,51.9c0,0.3,0.1,0.7,0.4,0.9l0.5,0.3l2.9-1.5l2.4,1.3c0.3,0.2,0.7,0.2,1-0.1l0.5-0.4L186,49l2-2.1
    c0.2-0.3,0.3-0.6,0.2-0.9l-0.2-0.5l-3.2-0.6l-1.3-2.6c-0.2-0.3-0.5-0.5-0.9-0.5H182l-1.5,3.1l-2.7,0.5c-0.3,0.1-0.6,0.3-0.7,0.6
    l-0.1,0.6l2.3,2.5L178.7,51.9z M181.6,46.3l1-1.9l1,1.9l2.1,0.4l-1.5,1.6l0.3,2.2l-1.9-1l-1.9,1l0.3-2.2l-1.5-1.6L181.6,46.3z"/>
  <path class="st2" d="M25.8,44.4l-1,2.1l-2.3,0.4l1.6,1.8L23.7,51l2-1.1l2,1.1l-0.3-2.4l1.6-1.8l-2.3-0.4
    C26.8,46.5,25.8,44.4,25.8,44.4z"/>
  <path class="st2" d="M7.3,76.3H45c1,0,1.8-0.8,1.8-1.8l0,0V20c0-1-0.8-1.8-1.8-1.8H7.3c-1,0-1.8,0.8-1.8,1.8v54.4
    C5.5,75.4,6.3,76.2,7.3,76.3C7.3,76.3,7.3,76.3,7.3,76.3z M31.1,65.5c-0.7,3-3.7,4.8-6.6,4.1c-0.9-0.2-1.7-0.6-2.4-1.2v0.3
    c0,0.6-0.4,1-1,1s-1-0.4-1-1v-3c0-0.6,0.4-1,1-1h3c0.6,0,1,0.4,1,1s-0.4,1-1,1h-1c0.7,0.7,1.6,1,2.5,1c1.7,0,3.2-1.1,3.5-2.7
    c0.2-0.5,0.7-0.8,1.2-0.7C31,64.5,31.3,65,31.1,65.5L31.1,65.5z M31.3,62.6c0,0.6-0.4,1-1,1h-3c-0.6,0-1-0.4-1-1s0.4-1,1-1h1
    c-0.7-0.7-1.6-1-2.5-1c-1.6,0-3.1,1.1-3.5,2.7c-0.1,0.5-0.5,0.8-1,0.8h-0.2c-0.5-0.1-0.9-0.7-0.7-1.2c0.7-3,3.7-4.8,6.6-4.1
    c0.9,0.2,1.7,0.6,2.4,1.2v-0.3c0-0.6,0.4-1,1-1s1,0.4,1,1L31.3,62.6z M31.7,47l-2.1,2.3l0.5,3.8l-0.5,0.4c-0.3,0.2-0.8,0.3-1.1,0.1
    l-2.7-1.4l-3.2,1.7l-0.6-0.4c-0.3-0.2-0.5-0.6-0.4-1l0.5-3.2l-2.6-2.8l0.2-0.6c0.1-0.4,0.4-0.6,0.8-0.7l3-0.5l1.7-3.4h0.7
    c0.4,0,0.8,0.2,1,0.6l1.4,2.8l3.6,0.6L32,46C32.1,46.3,32,46.7,31.7,47z M25.7,24.5c3.5,0,6.3,2.8,6.3,6.3s-2.8,6.3-6.3,6.3
    s-6.3-2.8-6.3-6.3C19.4,27.4,22.3,24.5,25.7,24.5L25.7,24.5z"/>
  <path class="st2" d="M21.4,30.9c0,2.4,1.9,4.3,4.3,4.3s4.3-1.9,4.3-4.3s-1.9-4.3-4.3-4.3l0,0C23.4,26.6,21.4,28.5,21.4,30.9z
     M24.9,28.2c0-0.3,0.2-0.5,0.5-0.5s0.5,0.2,0.5,0.5v2.5h2.5c0.3,0,0.5,0.2,0.5,0.5s-0.2,0.5-0.5,0.5h-3c-0.3,0-0.5-0.2-0.5-0.5
    L24.9,28.2z"/>
  <path class="st3" d="M31.7,45.3l-3.6-0.6l-1.4-2.8c-0.2-0.4-0.6-0.6-1-0.6H25l-1.7,3.4l-3,0.5c-0.4,0.1-0.7,0.3-0.8,0.7l-0.2,0.6
    l2.6,2.8l-0.5,3.2c0,0.4,0.1,0.8,0.4,1l0.6,0.4l3.2-1.7l2.7,1.4c0.4,0.2,0.8,0.2,1.1-0.1l0.5-0.4l-0.5-3.8l2.2-2.3
    c0.3-0.3,0.4-0.7,0.3-1L31.7,45.3z M27.5,48.7l0.3,2.3l-2-1.1l-2,1.1l0.3-2.4l-1.6-1.8l2.3-0.4l1-2.1l1,2.1l2.3,0.4L27.5,48.7z"/>
  <path class="st2" d="M88.4,43.8c2.4,0,4.3-1.9,4.3-4.3c0-2.4-1.9-4.3-4.3-4.3c-2.4,0-4.3,1.9-4.3,4.3l0,0
    C84.1,41.8,86,43.8,88.4,43.8z M87.5,36.8c0-0.3,0.2-0.5,0.5-0.5s0.5,0.2,0.5,0.5v2.5h2.6c0.3,0,0.5,0.2,0.5,0.5s-0.2,0.5-0.5,0.5
    H88c-0.3,0-0.5-0.2-0.5-0.5L87.5,36.8z M106.3,38.4l-1-2.1l-1,2.1l-2.3,0.4l1.7,1.8l-0.3,2.4l2-1.1l2,1.1l-0.3-2.4l1.7-1.8
    C108.6,38.8,106.3,38.4,106.3,38.4z"/>
  <path class="st2" d="M76.1,59.8h57.7c1.2,0,2.1-0.9,2.1-2.1V23.3c0-1.2-0.9-2.1-2.1-2.1H76.1c-1.2,0-2.1,0.9-2.1,2.1v34.4
    C74,58.8,74.9,59.8,76.1,59.8z M109.1,41.3l0.5,3.8l-0.5,0.4c-0.3,0.2-0.8,0.3-1.1,0.1l-2.7-1.4l-3.2,1.7l-0.6-0.4
    c-0.3-0.2-0.5-0.6-0.4-1l0.4-3.2l-2.6-2.8l0.2-0.6c0.1-0.4,0.4-0.6,0.8-0.7l3-0.5l1.7-3.4h0.7c0.4,0,0.8,0.2,1,0.6l1.4,2.8l3.6,0.6
    l0.2,0.6c0.1,0.4,0,0.8-0.2,1.1L109.1,41.3z M116.7,38.1c0.7-3,3.7-4.8,6.6-4.1c0.9,0.2,1.7,0.6,2.4,1.2v-0.3c0-0.6,0.4-1,1-1
    s1,0.4,1,1v3c0,0.6-0.4,1-1,1h-3c-0.6,0-1-0.4-1-1s0.4-1,1-1h1c-0.7-0.7-1.6-1-2.5-1c-1.6,0-3.1,1.1-3.4,2.7
    c-0.1,0.5-0.5,0.8-1,0.8h-0.2C117,39.2,116.6,38.7,116.7,38.1C116.7,38.2,116.7,38.1,116.7,38.1z M116.5,41c0-0.6,0.4-1,1-1h3
    c0.6,0,1,0.4,1,1s-0.4,1-1,1h-1c0.7,0.7,1.6,1,2.5,1c1.6,0,3.1-1.1,3.4-2.7c0.2-0.5,0.7-0.8,1.2-0.7c0.5,0.1,0.8,0.7,0.7,1.2
    c-0.7,3-3.7,4.8-6.6,4.1c-0.9-0.2-1.7-0.6-2.4-1.2V44c0,0.6-0.4,1-1,1s-1-0.4-1-1L116.5,41z M88.4,33.1c3.5,0,6.3,2.8,6.3,6.3
    c0,3.5-2.8,6.3-6.3,6.3c-3.5,0-6.3-2.8-6.3-6.3C82.1,35.9,84.9,33.1,88.4,33.1z"/>
  <path class="st4" d="M195.6,21.3h-25.6c-1.9,0-3.4,1.5-3.4,3.5V75c0,1.9,1.5,3.4,3.4,3.4h25.6c1.9,0,3.4-1.5,3.4-3.4V24.7
    C199.1,22.8,197.5,21.3,195.6,21.3z M186.9,74.1c0,0.9-0.7,1.6-1.6,1.6l0,0h-5c-0.9,0-1.6-0.7-1.6-1.5v0v-0.1
    c0-0.9,0.7-1.6,1.6-1.6l0,0h5C186.2,72.5,186.9,73.2,186.9,74.1L186.9,74.1L186.9,74.1z M195.8,68.7c0,0.9-0.8,1.7-1.7,1.7
    c0,0,0,0,0,0h-22.3c-0.9,0-1.7-0.8-1.7-1.7l0,0V26.8c0-0.9,0.8-1.7,1.7-1.7l0,0H194c0.9,0,1.7,0.8,1.7,1.7l0,0L195.8,68.7z
     M5.7,84.8h41c2,0,3.7-1.6,3.7-3.7l0,0V17.8c0-2-1.6-3.7-3.7-3.7h-41c-2,0-3.7,1.6-3.7,3.7v63.3C2,83.2,3.6,84.8,5.7,84.8
    C5.7,84.8,5.7,84.8,5.7,84.8z M20.1,80.8v-1.2c0-0.7,0.6-1.3,1.3-1.3h9.5c0.7,0,1.3,0.6,1.3,1.3v1.3c0,0.7-0.6,1.3-1.3,1.3h-9.5
    C20.7,82.2,20.1,81.6,20.1,80.8L20.1,80.8z M5.5,20c0-1,0.8-1.8,1.8-1.8H45c1,0,1.8,0.8,1.8,1.8v54.4c0,1-0.8,1.8-1.8,1.9
    c0,0,0,0,0,0H7.3c-1,0-1.8-0.8-1.8-1.8l0,0V20z M74.2,63h61.4c2,0,3.6-1.6,3.6-3.5c0,0,0,0,0,0V18.8c0-2-1.6-3.6-3.6-3.6l0,0H74.2
    c-2,0-3.6,1.6-3.6,3.5c0,0,0,0,0,0v40.7C70.6,61.5,72.2,63.1,74.2,63L74.2,63L74.2,63z M103.7,18c0-0.6,0.5-1.1,1.2-1.1
    c0.6,0,1.2,0.5,1.2,1.1c0,0.6-0.5,1.1-1.2,1.1c-0.6,0-1.1-0.5-1.1-1L103.7,18z M74,23.3c0-1.2,0.9-2.1,2.1-2.1h57.7
    c1.2,0,2.1,0.9,2.1,2.1v34.4c0,1.2-0.9,2.1-2.1,2.1H76.1c-1.2,0-2.1-0.9-2.1-2.1V23.3z M144.4,86.2c1.2,0.1,2.2-0.8,2.2-2
    c0,0,0,0,0,0v-1c0-0.3-0.1-0.5-0.2-0.7l-7.3-16.1c-0.4-0.8-1.2-1.3-2.1-1.2H72.3c-0.9,0-1.7,0.5-2.1,1.3l-6.9,16.1
    c-0.1,0.2-0.1,0.5-0.1,0.7v1.1c0.1,1.2,1,2.1,2.2,2c0,0,0,0,0,0L144.4,86.2z M135.9,71.2c0.1,0.4,0.3,0.8,0.3,1.1
    c0.1,0.3-0.4,0.6-0.9,0.6h-3.7c-0.3,0-0.6-0.1-0.6-0.3c-0.1-0.4-0.2-0.8-0.3-1.1c-0.1-0.3,0.3-0.6,0.8-0.6h3.7
    C135.5,70.8,135.7,71,135.9,71.2L135.9,71.2z M130.4,67.2h3.5c0.3,0,0.5,0.1,0.6,0.3c0.1,0.4,0.2,0.7,0.3,1.1
    c0.1,0.3-0.3,0.6-0.8,0.6h-3.4c-0.3,0-0.5-0.1-0.6-0.3c-0.1-0.4-0.3-0.7-0.4-1.1C129.5,67.6,129.9,67.3,130.4,67.2L130.4,67.2z
     M127.2,71.2l0.2,1.2c0.1,0.3-0.4,0.6-0.9,0.6h-3.8c-0.3,0-0.6-0.1-0.7-0.3l-0.3-1.2c-0.1-0.3,0.4-0.7,0.9-0.7h3.9
    C126.9,70.9,127.2,71,127.2,71.2L127.2,71.2z M122,67.2h3.7c0.3,0,0.6,0.1,0.6,0.3l0.2,1.1c0.1,0.3-0.4,0.6-0.9,0.6H122
    c-0.3,0-0.6-0.1-0.6-0.3l-0.3-1.1C121,67.6,121.4,67.3,122,67.2L122,67.2z M117.6,71.2c0.1,0.5,0.1,0.7,0.2,1.2
    c0,0.3-0.4,0.6-0.9,0.6h-3.9c-0.4,0-0.7-0.2-0.7-0.4l-0.3-1.2c-0.1-0.3,0.4-0.6,0.9-0.6h4.1C117.3,70.9,117.6,71.1,117.6,71.2
    L117.6,71.2z M112.6,67.2h3.9c0.4,0,0.7,0.2,0.7,0.4l0.2,1.1c0,0.3-0.4,0.6-0.8,0.6h-3.8c-0.4,0-0.7-0.2-0.7-0.4l-0.2-1.1
    C111.7,67.6,112.1,67.3,112.6,67.2L112.6,67.2z M102.6,67.7c0.1-0.2,0.4-0.4,0.8-0.4h3.5c0.4,0,0.7,0.2,0.7,0.4l0.2,1.1
    c0,0.3-0.3,0.5-0.8,0.5h-3.9c-0.5,0-0.8-0.2-0.8-0.5C102.4,68.4,102.5,68.2,102.6,67.7L102.6,67.7z M102.4,71.4
    c0.1-0.2,0.4-0.4,0.8-0.4h3.7c0.4,0,0.8,0.2,0.8,0.4l0.2,1.2c0.1,0.3-0.3,0.6-0.8,0.6h-4.1c-0.5,0-0.9-0.3-0.8-0.6
    C102.2,72.1,102.3,71.9,102.4,71.4L102.4,71.4z M93.8,67.3h3.9c0.5,0,0.9,0.3,0.8,0.6s-0.2,0.7-0.3,1.1c-0.1,0.3-0.4,0.4-0.7,0.4
    h-3.8c-0.5,0-0.9-0.3-0.8-0.6s0.2-0.7,0.3-1.1C93.2,67.5,93.5,67.4,93.8,67.3L93.8,67.3z M92.4,71.4c0-0.2,0.3-0.4,0.7-0.4h4.1
    c0.5,0,0.9,0.3,0.8,0.6c-0.1,0.5-0.2,0.7-0.3,1.2c-0.1,0.3-0.4,0.4-0.7,0.4h-3.9c-0.5,0-0.9-0.3-0.9-0.6
    C92.3,72.2,92.3,71.9,92.4,71.4L92.4,71.4z M79.2,71.7c-0.2,0.4-0.3,0.8-0.4,1.2c-0.1,0.2-0.3,0.3-0.6,0.4h-3.7
    c-0.5,0-1-0.3-0.9-0.7c0.1-0.4,0.2-0.8,0.4-1.1c0.1-0.2,0.4-0.4,0.7-0.4h3.7C79,71.1,79.3,71.4,79.2,71.7L79.2,71.7z M80.1,69.1
    c-0.1,0.2-0.4,0.4-0.7,0.3H76c-0.5,0-0.8-0.3-0.7-0.6c0.1-0.4,0.3-0.7,0.4-1.1c0.1-0.2,0.3-0.4,0.6-0.3h3.5c0.5,0,0.9,0.3,0.8,0.6
    S80.3,68.7,80.1,69.1L80.1,69.1z M87.9,72.9c-0.1,0.2-0.3,0.3-0.7,0.3h-3.8c-0.5,0-1-0.3-0.9-0.7s0.2-0.7,0.3-1.2
    c0.1-0.2,0.3-0.4,0.7-0.4h3.9c0.5,0,1,0.3,0.9,0.7S88,72.4,87.9,72.9L87.9,72.9z M88.8,69c-0.1,0.2-0.4,0.4-0.7,0.3h-3.6
    c-0.5,0-0.9-0.3-0.8-0.6s0.2-0.7,0.3-1.1c0.1-0.2,0.4-0.4,0.6-0.3h3.7c0.5,0,0.9,0.3,0.8,0.6S88.9,68.7,88.8,69L88.8,69z M91,80
    c0.3-1.7,0.5-2.6,0.8-4.4c0-0.2,0.3-0.4,0.7-0.4l25.3-0.2c0.4,0,0.7,0.2,0.7,0.4c0.2,1.5,0.4,3,0.4,4.5c0,0.3-0.4,0.6-0.9,0.6H91.8
    C91.4,80.5,91,80.3,91,80z"/>

    <linearGradient id="SVGID_1_" gradientUnits="userSpaceOnUse" x1="-5.8976" y1="157.4624" x2="221.7724" y2="-70.1976" gradientTransform="matrix(1 0 0 -1 0 104)">
    <stop  offset="0" style="stop-color:#00C8D7"/>
    <stop  offset="1" style="stop-color:#0A84FF"/>
  </linearGradient>
  <path class="st5" d="M195.6,19.3h-0.2c0,0,0-0.1,0-0.1v-0.8c0-0.5-0.4-0.9-0.9-0.9l0,0h-4.8c-0.5,0-0.9,0.4-0.9,0.9c0,0,0,0,0,0
    v0.8c0,0,0,0.1,0,0.1H170c-3,0-5.4,2.4-5.4,5.4V75c0,3,2.4,5.4,5.4,5.4h25.6c3,0,5.5-2.4,5.5-5.4c0,0,0,0,0-0.1V24.7
    C201.1,21.7,198.6,19.3,195.6,19.3L195.6,19.3z M199.1,75c0,1.9-1.5,3.4-3.4,3.4h-25.6c-1.9,0-3.4-1.5-3.4-3.4V24.7
    c0-1.9,1.5-3.4,3.4-3.5h25.6c1.9,0,3.4,1.5,3.4,3.5V75z M186.9,74.1L186.9,74.1c0,0.9-0.7,1.6-1.6,1.6l0,0h-5
    c-0.9,0-1.6-0.7-1.6-1.5v0v-0.1c0-0.9,0.7-1.6,1.6-1.6l0,0h5C186.2,72.5,186.9,73.2,186.9,74.1L186.9,74.1z M40.1,86.8h6.5
    c3.1,0,5.7-2.5,5.7-5.7V17.8c0-3-2.3-5.4-5.3-5.6H5.7c-3.1,0-5.7,2.5-5.7,5.6v63.3c0,3.1,2.5,5.7,5.7,5.7
    C5.7,86.8,40.1,86.8,40.1,86.8z M2,17.8c0-2,1.6-3.7,3.7-3.7h41c2,0,3.7,1.6,3.7,3.7v63.3c0,2-1.6,3.7-3.7,3.7h0h-41
    c-2,0-3.7-1.6-3.7-3.7v0V17.8z M21.4,82.2c-0.7,0-1.3-0.6-1.3-1.3v-1.3c0-0.7,0.6-1.3,1.3-1.3h9.5c0.7,0,1.3,0.6,1.3,1.3v1.3
    c0,0.7-0.6,1.3-1.3,1.3L21.4,82.2z M121.9,88.2h22.4c2.3,0.1,4.2-1.7,4.2-4c0,0,0,0,0,0v-1c0-0.5-0.1-1.1-0.3-1.6l-7.3-16.1
    c-0.3-0.8-0.9-1.4-1.6-1.8c1.2-1.1,1.9-2.6,1.9-4.2V18.8c0-3.1-2.5-5.5-5.6-5.6H74.2c-3.1,0-5.5,2.5-5.6,5.6v40.7
    c0,1.5,0.6,3,1.7,4c-0.9,0.4-1.6,1.1-2,2l-6.8,16.2c-0.2,0.5-0.3,1-0.3,1.5v1.1c0.1,2.3,1.9,4.1,4.2,4c0,0,0,0,0,0L121.9,88.2
    L121.9,88.2z M65.4,86.2c-1.2,0.1-2.2-0.8-2.2-2c0,0,0,0,0,0v-1c0-0.2,0-0.5,0.1-0.7l6.9-16.1c0.4-0.8,1.2-1.3,2.1-1.3H137
    c0.9,0,1.7,0.5,2.1,1.2l7.3,16.1c0.1,0.2,0.2,0.5,0.2,0.7v1c-0.1,1.2-1,2.1-2.2,2c0,0,0,0,0,0L65.4,86.2z M70.6,59.5V18.8
    c0-2,1.6-3.6,3.6-3.6l0,0h61.4c2,0,3.6,1.6,3.6,3.5c0,0,0,0,0,0v40.7c0,2-1.6,3.5-3.6,3.5l0,0H74.2C72.2,63.1,70.6,61.5,70.6,59.5
    C70.6,59.5,70.6,59.5,70.6,59.5L70.6,59.5z M91,80c0.3-1.7,0.5-2.6,0.8-4.4c0-0.2,0.3-0.4,0.7-0.4l25.3-0.2c0.4,0,0.7,0.2,0.7,0.4
    c0.2,1.5,0.4,3,0.4,4.5c0,0.3-0.4,0.6-0.9,0.6H91.8C91.4,80.5,91,80.3,91,80z M88.2,71.7c-0.1,0.5-0.2,0.7-0.3,1.2
    c-0.1,0.2-0.3,0.3-0.7,0.3h-3.8c-0.5,0-1-0.3-0.9-0.7s0.2-0.7,0.3-1.2c0.1-0.2,0.3-0.4,0.7-0.4h3.9C87.9,71.1,88.4,71.4,88.2,71.7
    L88.2,71.7z M92.2,72.6c0.1-0.5,0.1-0.7,0.2-1.2c0-0.2,0.3-0.4,0.7-0.4h4.1c0.5,0,0.9,0.3,0.8,0.6c-0.1,0.5-0.2,0.7-0.3,1.2
    c-0.1,0.3-0.4,0.4-0.7,0.4H93C92.6,73.2,92.1,72.9,92.2,72.6L92.2,72.6z M116.9,70.9c0.4,0,0.7,0.2,0.7,0.4
    c0.1,0.5,0.1,0.7,0.2,1.2c0,0.3-0.4,0.6-0.9,0.6h-3.9c-0.4,0-0.7-0.2-0.7-0.4l-0.3-1.2c-0.1-0.3,0.4-0.6,0.9-0.6L116.9,70.9z
     M102.1,72.6l0.2-1.2c0.1-0.2,0.4-0.4,0.8-0.4h3.7c0.4,0,0.8,0.2,0.8,0.4l0.2,1.2c0.1,0.3-0.3,0.6-0.8,0.6h-4.1
    C102.4,73.2,102,72.9,102.1,72.6z M122.7,70.9h3.9c0.3,0,0.6,0.1,0.6,0.3l0.2,1.2c0.1,0.3-0.4,0.6-0.9,0.6h-3.8
    c-0.3,0-0.6-0.1-0.7-0.3l-0.3-1.2C121.7,71.2,122.1,70.9,122.7,70.9L122.7,70.9z M89.2,68c-0.2,0.4-0.2,0.7-0.4,1.1
    c-0.1,0.2-0.4,0.4-0.7,0.3h-3.6c-0.5,0-0.9-0.3-0.8-0.6s0.2-0.7,0.3-1.1c0.1-0.2,0.4-0.4,0.6-0.3h3.7C88.8,67.4,89.3,67.7,89.2,68z
     M93.8,67.4h3.9c0.5,0,0.9,0.3,0.8,0.6s-0.2,0.7-0.3,1.1c-0.1,0.3-0.4,0.4-0.7,0.4h-3.8c-0.5,0-0.9-0.3-0.8-0.6s0.2-0.7,0.3-1.1
    C93.2,67.5,93.5,67.4,93.8,67.4z M112,69l-0.2-1.1c-0.1-0.3,0.3-0.6,0.8-0.6h3.9c0.4,0,0.7,0.2,0.7,0.4l0.2,1.1
    c0,0.3-0.4,0.6-0.8,0.6h-3.8C112.3,69.3,112,69.2,112,69z M102.3,68.9c0.1-0.4,0.2-0.7,0.3-1.1c0.1-0.2,0.4-0.4,0.8-0.4h3.5
    c0.4,0,0.7,0.2,0.7,0.4l0.2,1.1c0,0.3-0.3,0.5-0.8,0.5h-3.9C102.6,69.4,102.3,69.1,102.3,68.9L102.3,68.9z M121.3,69l-0.3-1.1
    c-0.1-0.3,0.4-0.6,0.9-0.6h3.7c0.3,0,0.6,0.1,0.6,0.3l0.2,1.1c0.1,0.3-0.4,0.6-0.9,0.6H122C121.7,69.3,121.4,69.2,121.3,69
    L121.3,69z M79.2,71.8c-0.2,0.4-0.3,0.8-0.4,1.2c-0.1,0.2-0.3,0.3-0.6,0.4h-3.7c-0.5,0-1-0.3-0.9-0.7c0.1-0.4,0.2-0.8,0.4-1.2
    c0.1-0.2,0.4-0.4,0.7-0.4h3.7C79,71.1,79.3,71.4,79.2,71.8z M80.6,68c-0.2,0.4-0.2,0.7-0.4,1.1c-0.1,0.2-0.4,0.4-0.7,0.3H76
    c-0.5,0-0.8-0.3-0.7-0.6c0.1-0.4,0.3-0.7,0.4-1.1c0.1-0.2,0.3-0.4,0.6-0.3h3.5C80.2,67.4,80.7,67.7,80.6,68z M131.5,70.9h3.7
    c0.3,0,0.5,0.1,0.7,0.3c0.1,0.4,0.3,0.8,0.3,1.1c0.1,0.3-0.4,0.6-0.9,0.6h-3.7c-0.3,0-0.6-0.1-0.6-0.3c-0.1-0.4-0.2-0.8-0.3-1.1
    C130.5,71.2,130.9,70.9,131.5,70.9L131.5,70.9z M129.9,69c-0.1-0.4-0.3-0.7-0.4-1.1c-0.1-0.3,0.4-0.6,0.9-0.6h3.5
    c0.3,0,0.5,0.1,0.6,0.3c0.1,0.4,0.2,0.7,0.3,1.1c0.1,0.3-0.3,0.6-0.8,0.6h-3.4C130.3,69.3,130,69.2,129.9,69z M104.9,19.3
    c-0.6,0-1.2-0.5-1.2-1.2c0-0.6,0.5-1.1,1.2-1.1c0.6,0,1.2,0.5,1.2,1.1C106,18.8,105.5,19.3,104.9,19.3L104.9,19.3z"/>
  <path class="st3" d="M111.5,37.9l-0.2-0.6l-3.6-0.6l-1.4-2.8c-0.2-0.4-0.6-0.6-1-0.6h-0.7l-1.7,3.4l-3,0.5
    c-0.4,0.1-0.7,0.3-0.8,0.7l-0.2,0.6l2.6,2.8l-0.4,3.2c0,0.4,0.1,0.8,0.4,1l0.6,0.4l3.2-1.7l2.7,1.4c0.4,0.2,0.8,0.2,1.1-0.1
    l0.5-0.4l-0.5-3.8l2.2-2.3C111.5,38.7,111.6,38.2,111.5,37.9z M107,40.6l0.3,2.4l-2-1.1l-2,1.1l0.3-2.4l-1.7-1.8l2.3-0.4l1-2.1
    l1,2.1l2.3,0.4L107,40.6z"/>

    <linearGradient id="SVGID_2_" gradientUnits="userSpaceOnUse" x1="3.8013" y1="153.8413" x2="219.4013" y2="-61.7587" gradientTransform="matrix(1 0 0 -1 0 104)">
    <stop  offset="0" style="stop-color:#00C8D7"/>
    <stop  offset="1" style="stop-color:#0A84FF"/>
  </linearGradient>
  <path class="st6" d="M176.8,34.5c0,3.2,2.6,5.7,5.7,5.7s5.7-2.6,5.7-5.7s-2.6-5.7-5.7-5.7C179.4,28.8,176.8,31.3,176.8,34.5z
     M182.6,30.5c2.2,0,4,1.8,4,4s-1.8,4-4,4s-4-1.8-4-4C178.6,32.3,180.4,30.5,182.6,30.5L182.6,30.5z M181.7,34.8V32
    c0-0.3,0.2-0.5,0.5-0.5s0.5,0.2,0.5,0.5v2.3h2.3c0.3,0,0.5,0.2,0.5,0.5s-0.2,0.5-0.5,0.5h-2.8C182,35.3,181.7,35.1,181.7,34.8
    L181.7,34.8z M183.9,59.6c-0.5-0.1-0.8-0.5-0.8-1c0-0.4,0.4-0.7,0.8-0.8h1c-0.6-0.6-1.5-1-2.4-1c-1.5,0-2.8,1-3.2,2.5
    c-0.1,0.4-0.4,0.7-0.9,0.7h-0.2c-0.5-0.1-0.8-0.6-0.6-1c0,0,0,0,0,0c0.7-2.7,3.4-4.3,6.1-3.6c0.8,0.2,1.5,0.6,2.1,1.1V56
    c0.1-0.5,0.5-0.8,1-0.8c0.4,0,0.7,0.4,0.8,0.8v2.8c0,0.5-0.4,0.9-0.9,0.9c0,0,0,0,0,0L183.9,59.6z M182.6,65.1
    c-1.2,0-2.4-0.5-3.3-1.2v0.4c-0.1,0.5-0.5,0.8-1,0.8c-0.4,0-0.7-0.4-0.8-0.8v-2.7c0-0.5,0.4-0.9,0.9-0.9c0,0,0,0,0,0h2.8
    c0.5,0.1,0.8,0.5,0.8,1c0,0.4-0.4,0.7-0.8,0.8h-1c0.6,0.6,1.5,1,2.4,1c1.5,0,2.8-1,3.2-2.5c0.2-0.5,0.7-0.7,1.1-0.5
    c0.4,0.1,0.6,0.5,0.6,1C186.9,63.6,184.9,65.2,182.6,65.1L182.6,65.1z M25.8,37.1c3.5,0,6.3-2.8,6.3-6.3s-2.8-6.3-6.3-6.3
    s-6.3,2.8-6.3,6.3C19.4,34.3,22.2,37.2,25.8,37.1C25.7,37.2,25.7,37.2,25.8,37.1L25.8,37.1z M25.8,26.5c2.4,0,4.3,1.9,4.3,4.3
    s-1.9,4.3-4.3,4.3s-4.3-1.9-4.3-4.3l0,0C21.5,28.4,23.4,26.6,25.8,26.5L25.8,26.5z M24.9,31.2v-3c0-0.3,0.2-0.5,0.5-0.5
    s0.5,0.2,0.5,0.5v2.5h2.5c0.3,0,0.5,0.2,0.5,0.5s-0.2,0.5-0.5,0.5h-3c-0.3,0-0.5-0.2-0.5-0.4C24.9,31.3,24.9,31.3,24.9,31.2
    L24.9,31.2z M31.3,59.5v3c0,0.6-0.4,1-1,1h-3c-0.6,0-1-0.4-1-1s0.4-1,1-1h1c-0.7-0.7-1.6-1-2.5-1c-1.6,0-3.1,1.1-3.5,2.7
    c-0.1,0.5-0.5,0.8-1,0.8h-0.2c-0.5-0.1-0.9-0.7-0.7-1.2c0.7-3,3.7-4.8,6.6-4.1c0.9,0.2,1.7,0.6,2.4,1.2v-0.3c0-0.6,0.4-1,1-1
    S31.4,59,31.3,59.5L31.3,59.5z M31.1,65.4c-0.7,3-3.7,4.8-6.6,4.1c-0.9-0.2-1.7-0.6-2.4-1.2v0.3c0,0.6-0.4,1-1,1s-1-0.4-1-1v-3
    c0-0.6,0.4-1,1-1h3c0.6,0,1,0.4,1,1s-0.4,1-1,1h-1c0.7,0.7,1.6,1,2.5,1c1.6,0.1,3.1-1,3.6-2.6c0.2-0.5,0.7-0.8,1.2-0.7
    C31,64.5,31.3,65,31.1,65.4L31.1,65.4z M88.4,45.8c3.5,0,6.3-2.8,6.3-6.3c0-3.5-2.8-6.3-6.3-6.3c-3.5,0-6.3,2.8-6.3,6.3
    C82.1,42.9,84.9,45.8,88.4,45.8z M88.4,35.1c2.4,0,4.3,1.9,4.3,4.3c0,2.4-1.9,4.3-4.3,4.3c-2.4,0-4.3-1.9-4.3-4.3
    C84.1,37,86,35.1,88.4,35.1z M87.5,39.8v-3c0-0.3,0.2-0.5,0.5-0.5s0.5,0.2,0.5,0.5v2.5h2.6c0.3,0,0.5,0.2,0.5,0.5s-0.2,0.5-0.5,0.5
    H88C87.7,40.3,87.5,40.1,87.5,39.8C87.5,39.8,87.5,39.8,87.5,39.8L87.5,39.8z M116.5,44v-3c0-0.6,0.4-1,1-1h3c0.6,0,1,0.4,1,1
    s-0.4,1-1,1h-1c0.7,0.7,1.6,1,2.5,1c1.6,0,3.1-1.1,3.4-2.7c0.2-0.5,0.7-0.8,1.2-0.7c0.5,0.1,0.8,0.7,0.7,1.2
    c-0.7,3-3.7,4.8-6.6,4.1c-0.9-0.2-1.7-0.6-2.4-1.2V44c0,0.6-0.4,1-1,1S116.4,44.6,116.5,44L116.5,44z M116.7,38.1
    c0.7-3,3.7-4.8,6.6-4.1c0.9,0.2,1.7,0.6,2.4,1.2v-0.3c0-0.6,0.4-1,1-1s1,0.4,1,1v3c0,0.6-0.4,1-1,1h-3c-0.6,0-1-0.4-1-1s0.4-1,1-1
    h1c-0.7-0.7-1.6-1-2.5-1c-1.6,0-3.1,1.1-3.4,2.7c-0.1,0.5-0.5,0.8-1,0.8h-0.2C117,39.2,116.6,38.7,116.7,38.1
    C116.7,38.1,116.7,38.1,116.7,38.1L116.7,38.1z"/>
</g>
</svg>
