<svg id="Layer_1" data-name="Layer 1" xmlns="http://www.w3.org/2000/svg" xmlns:xlink="http://www.w3.org/1999/xlink" viewBox="0 0 201.08 102.5"><defs><style>.cls-1{fill:#f3f3f7;}.cls-2{fill:#eaeaee;}.cls-3{fill:#fff;}.cls-4{fill:#90e8f0;}.cls-5{fill:#ccedf0;}.cls-6{fill:url(#New_Gradient_Swatch_1);}.cls-7{fill:url(#New_Gradient_Swatch_1-2);}</style><linearGradient id="New_Gradient_Swatch_1" x1="-5.9" y1="-53.46" x2="221.77" y2="174.2" gradientUnits="userSpaceOnUse"><stop offset="0" stop-color="#00c8d7"/><stop offset="1" stop-color="#0a84ff"/></linearGradient><linearGradient id="New_Gradient_Swatch_1-2" x1="3.79" y1="-49.83" x2="219.39" y2="165.77" xlink:href="#New_Gradient_Swatch_1"/></defs><title>Artboard 7</title><path class="cls-1" d="M127.53 12.3a.5.5 0 0 0-.65-.29q-1 .4-2 .85a.49.49 0 0 0-.28.37h2l.67-.28a.5.5 0 0 0 .26-.65zM171.11 81a.5.5 0 0 0 .71 0c.17-.17.33-.35.49-.53H171a.5.5 0 0 0 .11.53zM109.84 12.69a.5.5 0 0 0-.64-.77l-.73.63a.5.5 0 0 0-.06.68h.8zM47.42 12l-.35.14a5.63 5.63 0 0 1 1 .16.5.5 0 0 0-.65-.3zM95 12.8a.5.5 0 1 0 .6-.8l-.75-.62a.5.5 0 0 0-.63.78zM30.45 12a.5.5 0 0 0-.7-.06l-.26.22h1a.49.49 0 0 0-.04-.16z"/><path class="cls-2" d="M144.77 92.73a.5.5 0 0 1-.47.53q-1.08.06-2.18.06h-.05a42.36 42.36 0 0 1-8.7-.9.5.5 0 0 1 .21-1 41.32 41.32 0 0 0 8.5.88c.74 0 1.46 0 2.18-.06a.49.49 0 0 1 .51.49zm7.79-81.18a40.81 40.81 0 0 1 8 3.05.51.51 0 0 0 .23.05.5.5 0 0 0 .23-.95 41.83 41.83 0 0 0-8.22-3.12.5.5 0 1 0-.25 1zm-8.43-2.3a42.45 42.45 0 0 0-10.94.88.5.5 0 0 0 .1 1h.11a41.66 41.66 0 0 1 10.68-.87.49.49 0 0 0 .52-.47.5.5 0 0 0-.46-.55zm-18.93 80.5a.5.5 0 0 0 .2-1c-.43-.19-.85-.4-1.27-.6H122c1 .54 2 1.06 3 1.52a.5.5 0 0 0 .2.08zm39.66-73.85a.5.5 0 1 0-.54.84q.9.58 1.78 1.21a.5.5 0 0 0 .29.09.5.5 0 0 0 .29-.91q-.9-.64-1.82-1.24zm-.41 69.79a41 41 0 0 1-7.64 3.9.5.5 0 0 0 .18 1 .51.51 0 0 0 .18 0 42 42 0 0 0 7.83-4 .5.5 0 0 0-.55-.84zm-11.72 5.23q-1 .28-2.09.5a.5.5 0 0 0 .1 1h.1q1.08-.23 2.14-.51a.5.5 0 0 0 .35-.61.51.51 0 0 0-.61-.38zM142.06 6a45.1 45.1 0 0 1 32 13.27h2.76a47.14 47.14 0 0 0-62.73-6.05h3.53A45 45 0 0 1 142.06 6zm0 90.48A45 45 0 0 1 116 88.19h-3.33a47.13 47.13 0 0 0 66.48-7.73h-2.58a45.15 45.15 0 0 1-34.51 16.03zm8.77 4.25a51.19 51.19 0 0 1-11.33.7.51.51 0 0 0-.52.47.5.5 0 0 0 .47.52q1.29.07 2.61.07a51.84 51.84 0 0 0 8.94-.78.5.5 0 1 0-.17-1zm-18.83-.24c-.92-.19-1.85-.4-2.77-.64a.5.5 0 1 0-.25 1c.94.25 1.89.47 2.82.66h.1a.5.5 0 0 0 .1-1zm28-2.27l-.89.33a.5.5 0 1 0 .34.94l.9-.33a.5.5 0 0 0-.36-.94zm14.41-85.42a.5.5 0 1 0 .64-.76l-.75-.62a.5.5 0 0 0-.63.78zM125.6 98.74l-.89-.32a.5.5 0 0 0-.35.94l.92.33h.16a.5.5 0 0 0 .16-1zm40.4-3.28c-.83.45-1.68.88-2.53 1.28a.5.5 0 1 0 .43.9c.87-.41 1.74-.85 2.58-1.31a.5.5 0 1 0-.48-.88zm14.59-11.92a50.64 50.64 0 0 1-8.23 7.82.5.5 0 1 0 .6.8 51.54 51.54 0 0 0 8.39-8 .5.5 0 0 0-.77-.64zm.64-65.37a.5.5 0 0 0-.76.65l.37.47h1.28c-.32-.38-.6-.76-.91-1.12zM116.56 7.86a.49.49 0 0 0 .25-.07 50.06 50.06 0 0 1 10.39-4.56.5.5 0 1 0-.29-1 51 51 0 0 0-10.6 4.65.5.5 0 0 0 .25.93zm34.07-6.13a50 50 0 0 1 10.9 3.18.5.5 0 0 0 .39-.92A51 51 0 0 0 150.8.74a.5.5 0 0 0-.17 1zm17.64 6.64c.8.49 1.6 1 2.38 1.55a.5.5 0 0 0 .57-.82c-.79-.55-1.61-1.08-2.43-1.58a.5.5 0 0 0-.52.85zM141.19 1h1a.47.47 0 0 0 .46-.5.54.54 0 0 0-.54-.5h-.89a.5.5 0 0 0 0 1zm-34 87.79a51.5 51.5 0 0 0 9.31 6.88.5.5 0 0 0 .5-.87 50.4 50.4 0 0 1-9-6.62h-.91a.49.49 0 0 0 .09.62zm27.32-87.23h.07c.93-.14 1.88-.25 2.82-.34a.5.5 0 0 0-.09-1c-1 .09-1.93.21-2.88.35a.5.5 0 0 0 .07 1zM71.27 92.41h.1q1.08-.23 2.14-.51a.5.5 0 0 0 .35-.61.51.51 0 0 0-.61-.35q-1 .28-2.09.5a.5.5 0 0 0 .1 1zm1.48-81.47a.5.5 0 0 0 .36.61 40.78 40.78 0 0 1 5 1.68h2.48a41.81 41.81 0 0 0-7.22-2.65.5.5 0 0 0-.62.35zm-19-.81a.5.5 0 0 0 .1 1h.11a41.66 41.66 0 0 1 10.68-.87.49.49 0 0 0 .52-.47.5.5 0 0 0-.48-.52 42.45 42.45 0 0 0-10.94.86zm-.23 81.69a.5.5 0 0 0 .39.59 42.36 42.36 0 0 0 8.7.9h.05q1.1 0 2.18-.06a.5.5 0 0 0 .47-.53.49.49 0 0 0-.53-.47c-.72 0-1.45.06-2.18.06a41.32 41.32 0 0 1-8.5-.88.5.5 0 0 0-.59.39zm23.54-1.58a.5.5 0 0 0 .65.29 42 42 0 0 0 5-2.33h-2.18c-1 .51-2.1 1-3.18 1.4a.5.5 0 0 0-.29.63zm-31.32-.49a.5.5 0 0 0 .2-1 40.87 40.87 0 0 1-3.91-2h-1.91a42 42 0 0 0 5.41 2.91.5.5 0 0 0 .21.09zM62.6 6a45 45 0 0 1 24.47 7.22h3.53a47.13 47.13 0 0 0-54.45-1.09h3.77A45 45 0 0 1 62.6 6zm0 90.48a45 45 0 0 1-27.94-9.7h-3.12A47.1 47.1 0 0 0 92 88.19h-3.33a45 45 0 0 1-26.07 8.3zm23.91-1c-.83.45-1.68.88-2.53 1.28a.5.5 0 1 0 .43.9c.87-.41 1.74-.85 2.58-1.31a.5.5 0 1 0-.48-.88zm2.3-87.12c.8.49 1.6 1 2.38 1.55a.5.5 0 0 0 .57-.82C91 8.54 90.15 8 89.33 7.51a.5.5 0 0 0-.52.85zm-17.44 92.38a51.19 51.19 0 0 1-11.33.7.5.5 0 1 0 0 1q1.29.07 2.61.07a51.84 51.84 0 0 0 8.94-.78.5.5 0 1 0-.17-1zm-25.23-2l-.89-.32a.5.5 0 1 0-.35.94l.92.33h.16a.5.5 0 0 0 .16-1zm6.39 1.75c-.92-.19-1.85-.4-2.77-.64a.5.5 0 1 0-.25 1c.94.25 1.89.47 2.82.66h.1a.5.5 0 0 0 .1-1zm40.34-9.13a.5.5 0 1 0 .6.8 51.41 51.41 0 0 0 4.64-4h-1.46c-1.21 1.14-2.46 2.21-3.77 3.2zm-12.38 6.86l-.89.33a.5.5 0 1 0 .34.94l.9-.33a.5.5 0 0 0-.36-.94zM71.17 1.73a50 50 0 0 1 10.9 3.18.5.5 0 0 0 .38-.91A51 51 0 0 0 71.34.74a.5.5 0 0 0-.17 1zM61.73 1h1a.47.47 0 0 0 .46-.5.54.54 0 0 0-.59-.5h-.89a.5.5 0 0 0 0 1zM37.1 7.86a.49.49 0 0 0 .25-.07 50.06 50.06 0 0 1 10.39-4.56.5.5 0 1 0-.29-1 51 51 0 0 0-10.6 4.65.5.5 0 0 0 .25.93zm.43 86.94a50.4 50.4 0 0 1-9.13-6.74.5.5 0 1 0-.68.73A51.5 51.5 0 0 0 37 95.67a.5.5 0 0 0 .5-.87zM55.05 1.56h.07c.93-.14 1.88-.25 2.82-.34a.5.5 0 0 0-.09-1c-1 .09-1.93.21-2.88.35a.5.5 0 0 0 .07 1z"/><path class="cls-3" d="M194 25.11h-22.33a1.72 1.72 0 0 0-1.72 1.72v41.88a1.72 1.72 0 0 0 1.72 1.72H194a1.72 1.72 0 0 0 1.72-1.72V26.83a1.72 1.72 0 0 0-1.72-1.72zm-11.48 3.64a5.72 5.72 0 1 1-5.72 5.72 5.73 5.73 0 0 1 5.76-5.72zM177 45.89a.94.94 0 0 1 .73-.63l2.74-.49 1.53-3.08h.6a.94.94 0 0 1 .85.53l1.29 2.59 3.25.58.22.54a.94.94 0 0 1-.2.94l-2 2.12.48 3.46-.47.37a.94.94 0 0 1-1 .06l-2.47-1.29-2.94 1.53-.51-.31a.94.94 0 0 1-.39-.9l.41-2.93-2.32-2.49zm6.11 12.86a.87.87 0 0 1 .88-.87h1a3.21 3.21 0 0 0-2.35-1 3.27 3.27 0 0 0-3.17 2.49.88.88 0 0 1-.85.66h-.21a.87.87 0 0 1-.64-1.06 5 5 0 0 1 8.14-2.56V56a.88.88 0 0 1 1.75 0v2.77a.87.87 0 0 1-.87.88h-2.77a.87.87 0 0 1-.96-.9zm-.51 6.41a5 5 0 0 1-3.28-1.25v.37a.88.88 0 0 1-1.75 0v-2.76a.87.87 0 0 1 .88-.87h2.77a.88.88 0 0 1 0 1.75h-1a3.21 3.21 0 0 0 2.35 1 3.27 3.27 0 0 0 3.17-2.49.88.88 0 0 1 1.7.42 5 5 0 0 1-4.88 3.83z"/><path class="cls-3" d="M182.56 38.44a4 4 0 1 0-4-4 4 4 0 0 0 4 4zm-.85-6.44a.5.5 0 0 1 1 0v2.27H185a.5.5 0 0 1 0 1h-2.77a.5.5 0 0 1-.5-.5zM180.66 50.57l1.9-.99 1.89.99-.31-2.21 1.53-1.64-2.15-.38-.96-1.94-.97 1.94-2.15.38 1.53 1.64-.31 2.21z"/><path class="cls-4" d="M178.71 51.88a.94.94 0 0 0 .39.9l.51.31 2.94-1.53 2.45 1.28a.94.94 0 0 0 1-.06l.47-.37-.47-3.46 2-2.12a.94.94 0 0 0 .2-.94l-.22-.54-3.25-.58-1.29-2.59a.94.94 0 0 0-.85-.53h-.6l-1.53 3.08-2.74.49a.94.94 0 0 0-.73.63l-.15.56 2.32 2.49zm2.88-5.54l1-1.93 1 1.93 2.15.38-1.53 1.64.31 2.21-1.89-1-1.89 1 .31-2.21-1.53-1.64z"/><path class="cls-3" d="M25.76 44.4l-1.04 2.08-2.31.42 1.64 1.76-.33 2.38 2.04-1.06 2.04 1.06-.34-2.38 1.65-1.76-2.31-.42-1.04-2.08z"/><path class="cls-3" d="M7.35 76.27H45a1.83 1.83 0 0 0 1.83-1.83V20A1.83 1.83 0 0 0 45 18.2H7.35A1.83 1.83 0 0 0 5.52 20v54.4a1.83 1.83 0 0 0 1.83 1.87zm23.8-10.78a5.52 5.52 0 0 1-9 2.89v.33a1 1 0 0 1-2 0v-3a1 1 0 0 1 1-1h3a1 1 0 1 1 0 2h-1a3.5 3.5 0 0 0 2.51 1A3.56 3.56 0 0 0 29.21 65a1 1 0 0 1 1.94.48zm.18-2.87a1 1 0 0 1-1 1h-3a1 1 0 1 1 0-2h1a3.5 3.5 0 0 0-2.51-1 3.56 3.56 0 0 0-3.45 2.71 1 1 0 0 1-1 .76h-.24a1 1 0 0 1-.73-1.21 5.52 5.52 0 0 1 9-2.89v-.33a1 1 0 0 1 2 0zM31.72 47l-2.15 2.31.53 3.81-.53.42a1.07 1.07 0 0 1-1.12.08l-2.71-1.41-3.25 1.69-.58-.36a1.07 1.07 0 0 1-.44-1l.45-3.21-2.56-2.75.17-.64a1.08 1.08 0 0 1 .83-.72l3-.54 1.69-3.39h.69a1.07 1.07 0 0 1 1 .6l1.41 2.84 3.58.64.25.62a1.07 1.07 0 0 1-.26 1.01zm-6-22.48a6.33 6.33 0 1 1-6.33 6.33 6.34 6.34 0 0 1 6.37-6.3z"/><path class="cls-3" d="M21.43 30.88a4.33 4.33 0 1 0 4.33-4.33 4.34 4.34 0 0 0-4.33 4.33zm3.45-2.67a.5.5 0 0 1 1 0v2.55h2.55a.5.5 0 0 1 0 1h-3a.5.5 0 0 1-.5-.5z"/><path class="cls-4" d="M31.72 45.33l-3.58-.64-1.41-2.84a1.07 1.07 0 0 0-1-.6h-.69l-1.69 3.39-3 .54a1.08 1.08 0 0 0-.83.72l-.17.64 2.56 2.75-.45 3.21a1.07 1.07 0 0 0 .44 1l.58.36 3.25-1.69 2.71 1.41a1.07 1.07 0 0 0 1.12-.08l.53-.42-.53-3.81L31.72 47a1.07 1.07 0 0 0 .28-1.05zm-4.25 3.34L27.8 51l-2-1.06-2 1.06.33-2.38-1.65-1.77 2.32-.41 1-2.08 1 2.08 2.32.41z"/><path class="cls-3" d="M88.42 43.77a4.33 4.33 0 1 0-4.33-4.33 4.34 4.34 0 0 0 4.33 4.33zm-.88-7a.5.5 0 0 1 1 0v2.55h2.55a.5.5 0 1 1 0 1H88a.5.5 0 0 1-.5-.5zM106.3 38.41l-1.03-2.08-1.04 2.08-2.32.41 1.65 1.77-.33 2.38 2.04-1.06 2.03 1.06-.33-2.38 1.65-1.77-2.32-.41z"/><path class="cls-3" d="M76.08 59.78h57.67a2.09 2.09 0 0 0 2.09-2.09V23.3a2.09 2.09 0 0 0-2.09-2.09H76.08A2.09 2.09 0 0 0 74 23.3v34.39a2.09 2.09 0 0 0 2.08 2.09zm33-18.52l.53 3.81-.53.42a1.07 1.07 0 0 1-1.12.08l-2.71-1.41-3.25 1.69-.58-.36a1.08 1.08 0 0 1-.45-1l.45-3.21-2.56-2.75.17-.64a1.08 1.08 0 0 1 .83-.72l3-.54 1.69-3.4h.69a1.07 1.07 0 0 1 1 .59l1.42 2.84 3.58.64.25.62a1.08 1.08 0 0 1-.23 1.07zm7.64-3.17a5.52 5.52 0 0 1 9-2.89v-.33a1 1 0 0 1 2 0v3a1 1 0 0 1-1 1h-3a1 1 0 0 1 0-2h1a3.5 3.5 0 0 0-2.51-1 3.56 3.56 0 0 0-3.45 2.71 1 1 0 0 1-1 .76h-.24a1 1 0 0 1-.8-1.25zm-.18 2.91a1 1 0 0 1 1-1h3a1 1 0 0 1 0 2h-1a3.5 3.5 0 0 0 2.51 1 3.56 3.56 0 0 0 3.45-2.71 1 1 0 0 1 1.94.48 5.52 5.52 0 0 1-9 2.89V44a1 1 0 0 1-2 0zm-28.12-7.9a6.33 6.33 0 1 1-6.33 6.33 6.34 6.34 0 0 1 6.33-6.33z"/><path class="cls-5" d="M195.63 21.28h-25.55a3.45 3.45 0 0 0-3.45 3.45V75a3.45 3.45 0 0 0 3.45 3.45h25.55a3.45 3.45 0 0 0 3.45-3.45V24.73a3.45 3.45 0 0 0-3.45-3.45zm-8.75 52.85a1.55 1.55 0 0 1-1.55 1.55h-5a1.55 1.55 0 0 1-1.55-1.55v-.06a1.55 1.55 0 0 1 1.55-1.55h5a1.55 1.55 0 0 1 1.55 1.55zm8.88-5.42a1.72 1.72 0 0 1-1.76 1.72h-22.33a1.72 1.72 0 0 1-1.72-1.72V26.83a1.72 1.72 0 0 1 1.72-1.72H194a1.72 1.72 0 0 1 1.72 1.72zM5.66 84.79h41a3.66 3.66 0 0 0 3.66-3.66V17.8a3.66 3.66 0 0 0-3.66-3.66h-41A3.66 3.66 0 0 0 2 17.8v63.33a3.66 3.66 0 0 0 3.66 3.66zm14.41-4v-1.24a1.34 1.34 0 0 1 1.34-1.34h9.51a1.34 1.34 0 0 1 1.34 1.34v1.27a1.34 1.34 0 0 1-1.34 1.34h-9.51a1.34 1.34 0 0 1-1.34-1.33zM5.52 20a1.83 1.83 0 0 1 1.83-1.8H45a1.83 1.83 0 0 1 1.81 1.8v54.4A1.83 1.83 0 0 1 45 76.27H7.35a1.83 1.83 0 0 1-1.83-1.83zm68.67 43h61.43a3.55 3.55 0 0 0 3.55-3.55V18.78a3.55 3.55 0 0 0-3.55-3.55H74.2a3.55 3.55 0 0 0-3.55 3.55v40.74a3.55 3.55 0 0 0 3.55 3.55zm29.56-45a1.15 1.15 0 1 1 1.15 1.15 1.15 1.15 0 0 1-1.14-1.05zM74 23.3a2.09 2.09 0 0 1 2.09-2.09h57.67a2.09 2.09 0 0 1 2.09 2.09v34.39a2.09 2.09 0 0 1-2.09 2.09H76.08A2.09 2.09 0 0 1 74 57.69zm70.39 62.89a2.1 2.1 0 0 0 2.22-2v-1a1.77 1.77 0 0 0-.16-.73l-7.34-16.14a2.23 2.23 0 0 0-2.11-1.23H72.34a2.22 2.22 0 0 0-2.07 1.27l-6.89 16.12a1.76 1.76 0 0 0-.14.69v1.05a2.1 2.1 0 0 0 2.22 2zm-8.5-15a9.32 9.32 0 0 1 .34 1.14c.07.31-.4.63-.9.63h-3.7c-.33 0-.57-.13-.62-.33a7.26 7.26 0 0 0-.34-1.14c-.12-.32.28-.64.81-.64h3.74a.68.68 0 0 1 .65.36zm-5.46-4h3.5c.3 0 .52.13.56.33a7.37 7.37 0 0 0 .27 1.1c.09.3-.28.6-.75.6h-3.45a.66.66 0 0 1-.64-.32 8.89 8.89 0 0 1-.36-1.09c-.09-.25.36-.56.85-.57zm-3.19 4l.23 1.15c.06.31-.41.64-.94.64h-3.82c-.34 0-.6-.13-.65-.34l-.3-1.15c-.08-.32.39-.65.93-.65h3.91c.32.06.58.16.62.4zm-5.26-4h3.7c.32 0 .57.13.61.33l.22 1.1c.06.3-.38.61-.88.61H122c-.32 0-.58-.13-.63-.32l-.29-1.09c-.08-.24.36-.55.92-.55zm-4.35 4.06c.07.46.1.7.16 1.16 0 .31-.39.6-.9.6h-3.95c-.37 0-.68-.16-.73-.39l-.26-1.16c-.07-.31.36-.61.88-.61h4.07c.38.08.68.24.71.47zm-5-4h3.88c.37 0 .65.16.68.37l.16 1.1c0 .29-.37.56-.85.56h-3.77c-.36 0-.65-.15-.7-.36l-.24-1.09c-.1-.25.31-.53.81-.53zm-10 .44c.06-.23.4-.41.79-.41h3.51c.39 0 .71.17.74.4l.17 1.1c0 .28-.33.53-.8.53h-3.94c-.47 0-.83-.25-.76-.53.11-.38.16-.6.27-1.04zm-.25 3.69c.05-.25.4-.43.81-.44h3.68c.41 0 .75.18.79.43l.2 1.17c.05.3-.34.57-.83.57h-4.09c-.49 0-.87-.26-.8-.56.07-.42.12-.65.22-1.12zm-8.54-4.06h3.86c.5 0 .88.27.79.57s-.21.66-.33 1.1a.72.72 0 0 1-.72.37h-3.78c-.48 0-.87-.27-.81-.56s.15-.66.26-1.1c.05-.17.35-.33.72-.33zm-1.43 4.07c0-.23.35-.4.73-.4h4.07c.52 0 .94.29.85.61-.13.47-.19.71-.31 1.18a.73.73 0 0 1-.74.4h-3.95c-.5 0-.93-.29-.87-.6.07-.43.11-.66.2-1.14zm-13.18.32a7.83 7.83 0 0 0-.39 1.2c-.05.21-.3.35-.63.36h-3.7c-.51 0-1-.33-.88-.67a9.78 9.78 0 0 1 .37-1.14.71.71 0 0 1 .69-.36h3.74c.57-.01.91.32.78.66zm.89-2.65a.72.72 0 0 1-.67.33H76c-.47 0-.82-.31-.7-.61a10 10 0 0 0 .37-1.09.57.57 0 0 1 .59-.32h3.5c.49 0 .91.31.8.61s-.26.69-.46 1.13zm7.8 3.8c-.06.21-.33.35-.67.35h-3.82c-.52 0-1-.33-.91-.66s.16-.72.28-1.2c.05-.21.32-.36.66-.36h3.91c.54 0 1 .33.9.66s-.27.79-.36 1.26zm.86-3.82a.66.66 0 0 1-.65.33H84.5c-.5 0-.92-.31-.83-.61s.19-.66.32-1.09a.64.64 0 0 1 .64-.33h3.71c.52 0 .93.31.82.61s-.24.7-.39 1.14zM91 80c.33-1.7.48-2.59.82-4.38 0-.24.3-.43.68-.43l25.35-.19c.38 0 .66.17.66.41a43.55 43.55 0 0 1 .43 4.53c0 .31-.44.59-.87.59H91.8c-.43 0-.8-.25-.8-.53z"/><path class="cls-6" d="M195.63 19.28h-.18a.81.81 0 0 0 0-.13v-.83a.86.86 0 0 0-.86-.86h-4.8a.86.86 0 0 0-.86.86v.83a.81.81 0 0 0 0 .13h-18.9a5.45 5.45 0 0 0-5.45 5.45V75a5.45 5.45 0 0 0 5.45 5.45h25.55a5.45 5.45 0 0 0 5.5-5.45V24.73a5.45 5.45 0 0 0-5.45-5.45zM199.08 75a3.45 3.45 0 0 1-3.45 3.45h-25.55a3.45 3.45 0 0 1-3.45-3.45V24.73a3.45 3.45 0 0 1 3.45-3.45h25.55a3.45 3.45 0 0 1 3.45 3.45zm-12.19-.93v.06a1.55 1.55 0 0 1-1.55 1.55h-5a1.55 1.55 0 0 1-1.55-1.55v-.06a1.55 1.55 0 0 1 1.55-1.55h5a1.55 1.55 0 0 1 1.54 1.55zM40.12 86.79h6.55a5.67 5.67 0 0 0 5.66-5.66V17.8a5.67 5.67 0 0 0-5.26-5.64H5.67A5.67 5.67 0 0 0 0 17.8v63.33a5.67 5.67 0 0 0 5.66 5.66h34.46zM2 17.8a3.66 3.66 0 0 1 3.66-3.66h41a3.66 3.66 0 0 1 3.66 3.66v63.33a3.66 3.66 0 0 1-3.66 3.66h-41A3.66 3.66 0 0 1 2 81.13zm19.41 64.37a1.34 1.34 0 0 1-1.34-1.34v-1.28a1.34 1.34 0 0 1 1.34-1.34h9.51a1.34 1.34 0 0 1 1.34 1.34v1.27a1.34 1.34 0 0 1-1.34 1.34zm100.54 6h22.41a4.1 4.1 0 0 0 4.22-4v-1a3.74 3.74 0 0 0-.34-1.56l-7.34-16.14a4 4 0 0 0-1.64-1.79 5.54 5.54 0 0 0 1.91-4.18V18.78a5.56 5.56 0 0 0-5.55-5.55H74.2a5.56 5.56 0 0 0-5.55 5.55v40.74a5.53 5.53 0 0 0 1.74 4 4 4 0 0 0-2 2L61.54 81.7a3.74 3.74 0 0 0-.3 1.48v1.05a4.1 4.1 0 0 0 4.22 4H122zm-56.5-2a2.1 2.1 0 0 1-2.22-2v-1a1.76 1.76 0 0 1 .14-.69l6.89-16.12a2.22 2.22 0 0 1 2.07-1.27H137a2.23 2.23 0 0 1 2.06 1.23l7.34 16.14a1.77 1.77 0 0 1 .16.73v1a2.1 2.1 0 0 1-2.22 2zm5.19-26.67V18.78a3.55 3.55 0 0 1 3.55-3.55h61.43a3.55 3.55 0 0 1 3.55 3.55v40.74a3.55 3.55 0 0 1-3.55 3.55H74.2a3.55 3.55 0 0 1-3.56-3.55zM91 80c.33-1.7.48-2.59.82-4.38 0-.24.3-.43.68-.43l25.35-.19c.38 0 .66.17.66.41a43.55 43.55 0 0 1 .43 4.53c0 .31-.44.59-.87.59H91.8c-.43 0-.8-.25-.8-.53zm-2.76-8.28c-.14.48-.21.71-.34 1.19-.06.21-.33.35-.67.35h-3.82c-.52 0-1-.33-.91-.66s.16-.72.28-1.2c.05-.21.32-.36.66-.36h3.91c.54.02 1 .35.9.68zm3.93.9c.08-.47.12-.71.21-1.18 0-.23.35-.4.73-.4h4.07c.52 0 .94.29.85.61-.13.47-.19.71-.31 1.18a.73.73 0 0 1-.74.4h-3.95c-.48 0-.9-.29-.85-.61zm24.71-1.69c.38 0 .68.16.71.39.07.46.1.7.16 1.16 0 .31-.39.6-.9.6h-3.95c-.37 0-.68-.16-.73-.39l-.26-1.16c-.07-.31.36-.61.88-.61zm-14.77 1.67l.25-1.17c.05-.25.4-.43.81-.44h3.68c.41 0 .75.18.79.43l.2 1.17c.05.3-.34.57-.83.57h-4.09c-.49.01-.87-.26-.81-.56zm20.55-1.69h3.91c.34 0 .6.14.64.34l.23 1.15c.06.31-.41.64-.94.64h-3.82c-.34 0-.6-.13-.65-.34l-.3-1.15c-.08-.31.4-.64.94-.64zM89.16 68c-.16.44-.24.66-.39 1.09a.66.66 0 0 1-.65.33H84.5c-.5 0-.92-.31-.83-.61s.19-.66.32-1.09a.64.64 0 0 1 .64-.33h3.71c.51-.01.93.3.82.61zm4.67-.63h3.87c.5 0 .88.27.79.57s-.21.66-.33 1.1a.72.72 0 0 1-.72.37h-3.78c-.48 0-.87-.27-.81-.56s.15-.66.26-1.1c.05-.22.35-.38.72-.38zM112 69l-.24-1.09c-.06-.29.35-.57.85-.58h3.88c.37 0 .65.16.68.37l.16 1.1c0 .29-.37.56-.85.56h-3.77c-.38-.03-.71-.18-.71-.36zm-9.65-.13c.1-.44.16-.66.27-1.1.06-.23.4-.41.79-.41h3.51c.39 0 .71.17.74.4l.17 1.1c0 .28-.33.53-.8.53h-3.93c-.47-.02-.83-.27-.76-.55zm19 .15l-.29-1.09c-.08-.3.37-.62.88-.62h3.7c.32 0 .57.13.61.33l.22 1.1c.06.3-.38.61-.88.61H122c-.32-.05-.58-.17-.63-.35zm-42.14 2.74a7.83 7.83 0 0 0-.39 1.2c-.05.21-.3.35-.63.36h-3.7c-.51 0-1-.33-.88-.67a9.78 9.78 0 0 1 .39-1.19.71.71 0 0 1 .69-.36h3.74c.57-.01.91.32.78.66zM80.55 68c-.16.44-.25.66-.45 1.09a.72.72 0 0 1-.67.33H76c-.47 0-.82-.31-.7-.61a10 10 0 0 0 .37-1.09.57.57 0 0 1 .59-.32h3.5c.48.01.9.31.79.6zm50.9 2.87h3.74a.68.68 0 0 1 .67.34 9.32 9.32 0 0 1 .34 1.14c.07.31-.4.63-.9.63h-3.7c-.33 0-.57-.13-.62-.33a7.26 7.26 0 0 0-.34-1.14c-.11-.3.3-.63.82-.63zM129.91 69a8.89 8.89 0 0 1-.36-1.09c-.08-.31.37-.62.86-.63h3.5c.3 0 .52.13.56.33a7.37 7.37 0 0 0 .27 1.1c.09.3-.28.6-.75.6h-3.45a.66.66 0 0 1-.63-.31zm-25-49.71a1.15 1.15 0 1 1 1.15-1.15 1.15 1.15 0 0 1-1.15 1.12z"/><path class="cls-4" d="M111.47 37.87l-.25-.62-3.58-.64-1.42-2.84a1.07 1.07 0 0 0-1-.59h-.69l-1.69 3.4-3 .54a1.08 1.08 0 0 0-.83.72l-.17.64 2.56 2.75-.4 3.24a1.08 1.08 0 0 0 .45 1l.58.36 3.24-1.69 2.73 1.43a1.07 1.07 0 0 0 1.12-.08l.53-.42-.53-3.81 2.15-2.31a1.08 1.08 0 0 0 .2-1.08zM107 40.59l.3 2.41-2-1.06-2 1.06.33-2.38-1.65-1.77 2.32-.41 1-2.08 1 2.08 2.32.41z"/><path class="cls-7" d="M176.84 34.47a5.72 5.72 0 1 0 5.72-5.72 5.73 5.73 0 0 0-5.72 5.72zm5.72-4a4 4 0 1 1-4 4 4 4 0 0 1 4-3.97zm-.85 4.32V32a.5.5 0 0 1 1 0v2.27H185a.5.5 0 0 1 0 1h-2.77a.5.5 0 0 1-.52-.46zm2.23 24.81a.88.88 0 0 1 0-1.75h1a3.21 3.21 0 0 0-2.35-1 3.27 3.27 0 0 0-3.17 2.49.88.88 0 0 1-.85.66h-.21a.87.87 0 0 1-.64-1.06 5 5 0 0 1 8.14-2.56V56a.88.88 0 0 1 1.75 0v2.77a.87.87 0 0 1-.87.88zm-1.38 5.54a5 5 0 0 1-3.28-1.25v.37a.88.88 0 0 1-1.75 0v-2.74a.87.87 0 0 1 .88-.87h2.77a.88.88 0 0 1 0 1.75h-1a3.21 3.21 0 0 0 2.35 1 3.27 3.27 0 0 0 3.17-2.49.88.88 0 0 1 1.7.42 5 5 0 0 1-4.84 3.83zm-156.8-28a6.33 6.33 0 1 0-6.33-6.33 6.34 6.34 0 0 0 6.33 6.4zm0-10.67a4.33 4.33 0 1 1-4.33 4.33 4.34 4.34 0 0 1 4.33-4.25zm-.88 4.71v-3a.5.5 0 0 1 1 0v2.55h2.55a.5.5 0 0 1 0 1h-3a.5.5 0 0 1-.55-.47zm6.45 28.31v3a1 1 0 0 1-1 1h-3a1 1 0 1 1 0-2h1a3.5 3.5 0 0 0-2.51-1 3.56 3.56 0 0 0-3.45 2.71 1 1 0 0 1-1 .76h-.24a1 1 0 0 1-.73-1.21 5.52 5.52 0 0 1 9-2.89v-.33a1 1 0 0 1 2 0zm-.18 5.92a5.52 5.52 0 0 1-9 2.89v.33a1 1 0 0 1-2 0v-3a1 1 0 0 1 1-1h3a1 1 0 1 1 0 2h-1a3.5 3.5 0 0 0 2.51 1A3.56 3.56 0 0 0 29.21 65a1 1 0 0 1 1.94.48zm57.27-19.64a6.33 6.33 0 1 0-6.33-6.33 6.34 6.34 0 0 0 6.33 6.33zm0-10.67a4.33 4.33 0 1 1-4.33 4.33 4.34 4.34 0 0 1 4.33-4.33zm-.88 4.71v-3a.5.5 0 0 1 1 0v2.55h2.55a.5.5 0 1 1 0 1H88a.5.5 0 0 1-.46-.54zm29 4.19v-3a1 1 0 0 1 1-1h3a1 1 0 0 1 0 2h-1a3.5 3.5 0 0 0 2.51 1 3.56 3.56 0 0 0 3.45-2.71 1 1 0 0 1 1.94.48 5.52 5.52 0 0 1-9 2.89V44a1 1 0 0 1-2 0zm.18-5.92a5.52 5.52 0 0 1 9-2.89v-.33a1 1 0 0 1 2 0v3a1 1 0 0 1-1 1h-3a1 1 0 0 1 0-2h1a3.5 3.5 0 0 0-2.51-1 3.56 3.56 0 0 0-3.45 2.71 1 1 0 0 1-1 .76h-.24a1 1 0 0 1-.8-1.24z"/></svg>