<svg height="2in" width="4.39in" viewBox="0 0 315.96 144" xmlns="http://www.w3.org/2000/svg" xmlns:xlink="http://www.w3.org/1999/xlink"><style type="text/css">.rotate { animation: spin 12s linear infinite} .rotate-first { transform-origin: 32% 49% } .rotate-second { transform-origin: 71% 49% } @keyframes spin { from { transform: rotate(0deg) } to { transform: rotate(360deg) }}</style><radialGradient id="a" cx="101.36" cy="70.18" gradientUnits="userSpaceOnUse" r="58.29"><stop offset=".27" stop-color="#cdcdd4" stop-opacity="0"/><stop offset=".46" stop-color="#cdcdd4" stop-opacity=".02"/><stop offset=".66" stop-color="#cdcdd4" stop-opacity=".08"/><stop offset=".86" stop-color="#cdcdd4" stop-opacity=".18"/><stop offset=".9" stop-color="#cdcdd4" stop-opacity=".2"/></radialGradient><radialGradient id="b" cx="225.08" cy="70.18" r="58.29" xlink:href="#a"/><linearGradient id="c" gradientUnits="userSpaceOnUse" x1="28.04" x2="93.78" y1="99.19" y2="33.44"><stop offset="0" stop-color="#c689ff"/><stop offset="1" stop-color="#d74cf0"/></linearGradient><linearGradient id="d" gradientUnits="userSpaceOnUse" x1="-5.18" x2="106.41" y1="139.25" y2="27.66"><stop offset=".16" stop-color="#b833e1"/><stop offset=".96" stop-color="#ff4f5e"/></linearGradient><linearGradient id="e" gradientUnits="userSpaceOnUse" x1="96.11" x2="225.52" y1="139" y2="9.59"><stop offset=".28" stop-color="#7542e5"/><stop offset=".42" stop-color="#824deb"/><stop offset=".79" stop-color="#a067fa"/><stop offset="1" stop-color="#ab71ff"/></linearGradient><linearGradient id="f" gradientUnits="userSpaceOnUse" x1="221.49" x2="303.29" y1="111.6" y2="29.8"><stop offset=".43" stop-color="#00b3f4"/><stop offset=".61" stop-color="#00bbf6"/><stop offset=".89" stop-color="#00d2fc"/><stop offset="1" stop-color="#0df"/></linearGradient><path class="rotate rotate-first" d="m101.41 128.46a58.3 58.3 0 0 1 -29.09-7.76 3.75 3.75 0 0 1 3.68-6.49 50.75 50.75 0 0 0 25.36 6.79 3.76 3.76 0 0 1 3.77 3.74 3.72 3.72 0 0 1 -3.72 3.72zm14.11-1.85a3.75 3.75 0 0 1 -1-7.36 50.81 50.81 0 0 0 22.75-13.17 3.74 3.74 0 0 1 5.29 5.29 58.22 58.22 0 0 1 -26.1 15.11 3.6 3.6 0 0 1 -.94.13zm-52.67-14.07a3.73 3.73 0 0 1 -2.65-1.09 58.32 58.32 0 0 1 -15.13-26.09 3.74 3.74 0 0 1 7.23-1.94 50.83 50.83 0 0 0 13.19 22.73 3.74 3.74 0 0 1 -2.64 6.39zm85.76-11.36a3.74 3.74 0 0 1 -3.24-5.62 50.78 50.78 0 0 0 6.79-25.38v-.18a3.74 3.74 0 1 1 7.48 0v.14a58.31 58.31 0 0 1 -7.79 29.2 3.73 3.73 0 0 1 -3.24 1.84zm-101.79-27.18a3.7 3.7 0 0 1 -3.75-3.69v-.1a58.33 58.33 0 0 1 7.74-29 3.75 3.75 0 0 1 6.49 3.74 50.77 50.77 0 0 0 -6.74 25.3 3.78 3.78 0 0 1 -3.74 3.75zm107.18-14.39a3.74 3.74 0 0 1 -3.61-2.77 50.73 50.73 0 0 0 -13.24-22.7 3.75 3.75 0 0 1 5.28-5.32 58.23 58.23 0 0 1 15.18 26.06 3.77 3.77 0 0 1 -3.61 4.73zm-91.3-24.16a3.75 3.75 0 0 1 -2.7-6.39 58.26 58.26 0 0 1 26.11-15.15 3.74 3.74 0 1 1 2 7.22 50.92 50.92 0 0 0 -22.76 13.21 3.71 3.71 0 0 1 -2.65 1.11zm65.78-8.86a3.72 3.72 0 0 1 -1.87-.5 50.77 50.77 0 0 0 -25.25-6.71h-.16a3.75 3.75 0 1 1 0-7.49h.08a58.37 58.37 0 0 1 29.06 7.71 3.74 3.74 0 0 1 -1.86 7z" fill="url(#a)"/><path class="rotate rotate-second" d="m225.13 128.46a58.24 58.24 0 0 1 -29.13-7.76 3.75 3.75 0 0 1 3.74-6.49 50.71 50.71 0 0 0 25.34 6.79 3.76 3.76 0 0 1 3.77 3.74 3.72 3.72 0 0 1 -3.72 3.72zm14.11-1.85a3.74 3.74 0 0 1 -1-7.36 50.78 50.78 0 0 0 22.76-13.17 3.74 3.74 0 0 1 5.3 5.29 58.33 58.33 0 0 1 -26.1 15.11 3.72 3.72 0 0 1 -.96.13zm-52.67-14.07a3.71 3.71 0 0 1 -2.64-1.09 58.14 58.14 0 0 1 -15.13-26.09 3.74 3.74 0 1 1 7.2-1.94 50.83 50.83 0 0 0 13.19 22.73 3.74 3.74 0 0 1 -2.64 6.39zm85.76-11.36a3.74 3.74 0 0 1 -3.24-5.62 50.78 50.78 0 0 0 6.79-25.38v-.18a3.75 3.75 0 1 1 7.49 0v.14a58.32 58.32 0 0 1 -7.8 29.2 3.73 3.73 0 0 1 -3.24 1.84zm-101.79-27.18a3.69 3.69 0 0 1 -3.74-3.69v-.1a58.32 58.32 0 0 1 7.73-29 3.75 3.75 0 0 1 6.47 3.67 50.77 50.77 0 0 0 -6.74 25.3 3.78 3.78 0 0 1 -3.72 3.82zm107.18-14.39a3.74 3.74 0 0 1 -3.61-2.77 50.81 50.81 0 0 0 -13.23-22.7 3.74 3.74 0 0 1 5.27-5.32 58.34 58.34 0 0 1 15.19 26.06 3.74 3.74 0 0 1 -2.64 4.59 3.63 3.63 0 0 1 -.98.14zm-91.3-24.16a3.74 3.74 0 0 1 -2.65-6.39 58.2 58.2 0 0 1 26.07-15.15 3.74 3.74 0 1 1 1.95 7.22 51 51 0 0 0 -22.72 13.21 3.71 3.71 0 0 1 -2.65 1.11zm65.78-8.86a3.71 3.71 0 0 1 -1.86-.5 50.8 50.8 0 0 0 -25.26-6.71h-.16a3.75 3.75 0 0 1 0-7.49h.08a58.37 58.37 0 0 1 29.07 7.71 3.74 3.74 0 0 1 -1.87 7z" fill="url(#b)"/><path d="m44.62 94.89h33v9.57h-33z" fill="#ff848b"/><path d="m21.32 40.17h79.19v52.3h-79.19z" fill="url(#c)"/><path d="m109.28 97.75h-2.15v-59.43a4.28 4.28 0 0 0 -4.28-4.32h-83.46a4.28 4.28 0 0 0 -4.28 4.28v59.47h-2.11a2.12 2.12 0 0 0 -2.13 2.12v4.31a2.13 2.13 0 0 0 2.13 2.13h96.32a2.13 2.13 0 0 0 2.13-2.13v-4.31a2.12 2.12 0 0 0 -2.17-2.12zm-39.6 4.25h-17.13v-4.25h17.13z" fill="url(#d)"/><rect fill="url(#e)" height="69.38" rx="7.65" width="46" x="141.93" y="35.49"/><path d="m160.58 93.56h8.57v4.28h-8.57z" fill="#ab71ff"/><path d="m164.94 43.5a6.33 6.33 0 1 0 6.32 6.32 6.32 6.32 0 0 0 -6.32-6.32zm0 11.07a4.75 4.75 0 1 1 4.74-4.75 4.75 4.75 0 0 1 -4.74 4.75zm2.76-4.75h-2.76v-2.77a.4.4 0 0 0 -.4-.39.39.39 0 0 0 -.39.39v3.17a.38.38 0 0 0 .39.39h3.16a.39.39 0 0 0 .4-.39.4.4 0 0 0 -.4-.4zm-6 21.08a.85.85 0 0 1 -.85-.85s0-.07 0-.11l.47-3.37-2.26-2.43a.85.85 0 0 1 0-1.2 1 1 0 0 1 .44-.22l3.15-.56 1.49-3a.85.85 0 0 1 1.14-.38 1 1 0 0 1 .38.38l1.49 3 3.15.56a.86.86 0 0 1 .69 1 .89.89 0 0 1 -.22.43l-2.26 2.43.47 3.37a.85.85 0 0 1 -.72 1 .88.88 0 0 1 -.51-.09l-2.85-1.49-2.85 1.49a.93.93 0 0 1 -.36.04zm-.64-6.9 1.89 2-.38 2.75 2.37-1.23 2.37 1.24-.39-2.76 1.89-2-2.66-.47-1.21-2.44-1.21 2.44z" fill="#f9f9fa"/><rect fill="url(#f)" height="65.56" rx="5.76" width="80.89" x="222.47" y="37.4"/><path d="m292.6 64.85h5.33v10.66h-5.33z" fill="#0df"/><g fill="#f9f9fa"><path d="m242.41 63.85a6.33 6.33 0 1 0 6.33 6.33 6.32 6.32 0 0 0 -6.33-6.33zm0 11.07a4.75 4.75 0 1 1 4.75-4.74 4.74 4.74 0 0 1 -4.75 4.74zm2.77-4.74h-2.77v-2.77a.38.38 0 0 0 -.41-.41.39.39 0 0 0 -.4.39v3.16a.4.4 0 0 0 .4.4h3.16a.4.4 0 1 0 0-.79z"/><path d="m254.8 76.28a.85.85 0 0 1 -.85-.85s0-.08 0-.12l.47-3.37-2.26-2.43a.85.85 0 0 1 0-1.2.9.9 0 0 1 .44-.21l3.15-.56 1.49-3a.85.85 0 0 1 1.14-.38.87.87 0 0 1 .38.38l1.48 3 3.16.56a.85.85 0 0 1 .69 1 .89.89 0 0 1 -.22.43l-2.26 2.43.47 3.37a.85.85 0 0 1 -.72 1 .88.88 0 0 1 -.51-.09l-2.85-1.48-2.86 1.48a.76.76 0 0 1 -.34.04zm-.63-6.88 1.89 2-.38 2.76 2.37-1.16 2.37 1.24-.42-2.81 1.89-2-2.66-.48-1.21-2.43-1.22 2.43z"/><path d="m42.6 61.45a6.33 6.33 0 1 0 6.33 6.33 6.33 6.33 0 0 0 -6.33-6.33zm0 11.07a4.75 4.75 0 1 1 4.75-4.74 4.74 4.74 0 0 1 -4.75 4.74z"/><path d="m45.37 67.78h-2.77v-2.78a.38.38 0 0 0 -.39-.39.39.39 0 0 0 -.4.39v3.17a.4.4 0 0 0 .4.39h3.16a.4.4 0 1 0 0-.79z"/><path d="m64.32 66.68a.83.83 0 0 0 -.68-1l-3.16-.56-1.49-3a.82.82 0 0 0 -.38-.38.85.85 0 0 0 -1.14.38l-1.48 3-3.16.56a.85.85 0 0 0 -.47 1.42l2.26 2.42-.47 3.37a.49.49 0 0 0 0 .12.85.85 0 0 0 .85.85.86.86 0 0 0 .39-.09l2.85-1.49 2.85 1.48a.85.85 0 0 0 1.24-.87l-.47-3.36 2.26-2.44a.83.83 0 0 0 .2-.41zm-4.1 2.32.38 2.76-2.37-1.23-2.37 1.23.39-2.76-1.89-2 2.64-.48 1.21-2.43 1.22 2.43 2.66.48z"/><path d="m81.18 70.05a2.19 2.19 0 1 1 2.19-2.18 2.19 2.19 0 0 1 -2.19 2.18m0-6.55a4.35 4.35 0 0 0 -4.18 3.28h-7.81a1.09 1.09 0 0 0 0 2.18h1.09v1.09a1.09 1.09 0 1 0 2.18 0v-1.05h1.09v1.09a1.09 1.09 0 0 0 2.18 0v-1.09h1.27a4.36 4.36 0 1 0 4.2-5.46"/><path d="m279.59 72a2.14 2.14 0 1 1 2.13-2.13 2.14 2.14 0 0 1 -2.13 2.13m0-6.4a4.27 4.27 0 0 0 -4.12 3.2h-7.61a1.07 1.07 0 1 0 0 2.13h1.06v1.07a1.07 1.07 0 0 0 2.14 0v-1.07h1.06v1.07a1.07 1.07 0 0 0 2.13 0v-1.07h1.22a4.26 4.26 0 1 0 4.12-5.33"/><path d="m170.14 81.41a2 2 0 1 1 2-2 2 2 0 0 1 -2 2m0-6a4 4 0 0 0 -3.87 3h-7.18a1 1 0 0 0 0 2h1v1a1 1 0 1 0 2 0v-1h1v1a1 1 0 1 0 2 0v-1h1.15a4 4 0 1 0 3.87-5"/></g></svg>
