<svg width="171" height="116" fill="none" xmlns="http://www.w3.org/2000/svg"><g clip-path="url(#clip0_5905_95019)"><path d="M0 51.76h59.34s0-7.87-6.45-8.77c-6.32-.39-8.51 2.58-8.51 2.58s-2.64-12.13-14.71-12.13c-4.77-.02-11.61.77-16.77 9.16C2.06 40.41 0 51.76 0 51.76z" fill="#D5BEFB"/><path d="M85.49 115.15c27.829 0 50.39-22.56 50.39-50.39 0-27.83-22.561-50.39-50.39-50.39-27.83 0-50.39 22.56-50.39 50.39 0 27.83 22.56 50.39 50.39 50.39z" fill="#F5F4F6"/><path d="M85.54 81.03c-.7-.04-2.4.24-4.01-1.95 0 0-21.44-34.76-21.44-53.57C60.09 11.42 71.51 0 85.59 0l-.05 81.02v.01z" fill="#A081F2"/><path d="M85.45 81.02c1.99.09 3.48-1.16 4.16-2.19 0 0 21.29-34.52 21.29-53.33C110.9 11.42 99.48 0 85.4 0l.05 81.02z" fill="#6F45DC"/><path d="M85.39 40.54c6.257 0 11.33-5.073 11.33-11.33s-5.073-11.33-11.33-11.33c-6.258 0-11.33 5.073-11.33 11.33s5.072 11.33 11.33 11.33z" fill="#fff"/><path d="M110.9 70.07h59.34s0-7.87-6.45-8.77c-6.32-.39-8.51 2.58-8.51 2.58s-2.64-12.13-14.71-12.13c-4.77-.02-11.61.77-16.77 9.16-10.84-2.19-12.9 9.16-12.9 9.16z" fill="#D5BFFB"/></g><defs><clipPath id="clip0_5905_95019"><path fill="#fff" d="M0 0h170.24v115.14H0z"/></clipPath></defs></svg>