<svg width="28" height="28" viewBox="0 0 28 28" xmlns="http://www.w3.org/2000/svg"><title>glyph-camera-32</title><path d="M25.988 25H1.998A2 2 0 0 1 0 23V7.01a2 2 0 0 1 2-2h3.278c1.34 0 1.76-.658 2-1.848a2.2 2.2 0 0 1 2.418-2.15h8.885a2.2 2.2 0 0 1 2.41 2.13c.27 1.19.68 1.87 2 1.87h3a2 2 0 0 1 2 1.998V23a2 2 0 0 1-2 2zM15.993 2.01h-4a1 1 0 0 0 0 2h4a1 1 0 0 0 0-2zm-2 4a7.996 7.996 0 1 0 0 15.99 7.996 7.996 0 0 0 0-15.99zm0 12.993a4.998 4.998 0 1 1 0-9.996 4.998 4.998 0 0 1 0 9.996z" fill="#0060df" fill-rule="evenodd"/></svg>
