<svg width="434" height="80" viewBox="0 0 195 43" fill="none" xmlns="http://www.w3.org/2000/svg">
<g clip-path="url(#clip0)">
<path d="M61.1291 12.887V16.0369H53.5814V20.0045H61.1291V23.1064H53.5814V30.0555H50.2793V12.887H61.1291ZM63.6858 12.2618C64.0819 11.875 64.6092 11.659 65.1576 11.659C65.7061 11.659 66.2334 11.875 66.6294 12.2618C66.8186 12.4627 66.9661 12.7004 67.0634 12.9606C67.1606 13.2208 67.2056 13.4984 67.1955 13.7766C67.2056 14.0392 67.1648 14.3012 67.0753 14.5475C66.9859 14.7939 66.8496 15.0199 66.6743 15.2125C66.499 15.4051 66.2881 15.5605 66.0537 15.6697C65.8194 15.779 65.5661 15.8401 65.3086 15.8494H65.1388C64.8686 15.8593 64.5992 15.8123 64.3476 15.7114C64.096 15.6104 63.8675 15.4577 63.6764 15.2627C63.4899 15.0658 63.3437 14.833 63.2465 14.5778C63.1493 14.3226 63.103 14.0503 63.1103 13.7766C63.101 13.4976 63.1472 13.2195 63.2461 12.9592C63.345 12.6988 63.4946 12.4616 63.6858 12.2618ZM66.7898 17.3546V30.0555H63.5255V17.3546H66.7898ZM72.4506 17.3546V19.3071C72.7045 18.6151 73.1798 18.0306 73.7997 17.648C74.4367 17.2825 75.1588 17.0997 75.8895 17.119C76.2821 17.1149 76.6736 17.1618 77.0547 17.2585C77.3817 17.3389 77.6984 17.4584 77.9981 17.6143L76.8424 20.8124C76.6282 20.6631 76.3905 20.5524 76.1395 20.4854C75.8322 20.3988 75.5148 20.3552 75.196 20.3555C74.4786 20.3181 73.7749 20.5664 73.2336 21.048C72.7273 21.5193 72.4742 22.2936 72.4742 23.3709V30.0555H69.3136V17.3546H72.4506ZM82.0739 29.8103C81.2959 29.4923 80.5897 29.0162 79.9982 28.4108C79.4166 27.8138 78.9607 27.1019 78.6585 26.3188C78.3426 25.4945 78.1826 24.6166 78.1868 23.7315C78.1728 22.8409 78.3332 21.9565 78.6585 21.1298C78.9888 20.3447 79.47 19.635 80.0737 19.0426C80.6677 18.4274 81.3746 17.9372 82.154 17.5999C82.975 17.2632 83.8544 17.0996 84.7391 17.119C85.6234 17.1046 86.5019 17.268 87.3242 17.5999C88.0814 17.9091 88.7708 18.3685 89.3526 18.9513C89.932 19.5373 90.3878 20.2377 90.6923 21.0096C91.0181 21.8395 91.1784 22.7272 91.1641 23.6209V24.8136H81.2578C81.444 25.5971 81.8886 26.2915 82.5173 26.7805C83.1912 27.2722 84.0052 27.524 84.8335 27.4971C85.4935 27.5134 86.1455 27.3472 86.7204 27.0162C87.2203 26.7118 87.6397 26.2875 87.9422 25.7802L90.5414 27.3817C89.9301 28.2556 89.1419 28.9854 88.2299 29.5217C87.1714 30.0998 85.9817 30.3818 84.7816 30.3393C83.8542 30.3402 82.9352 30.1606 82.0739 29.8103ZM82.6305 20.4854C82.0396 20.937 81.5971 21.5608 81.3615 22.2744H88.0176C87.8394 21.5569 87.4226 20.9246 86.8383 20.4854C86.2152 20.0494 85.4707 19.8302 84.7155 19.8602C83.9724 19.8326 83.2406 20.052 82.6305 20.4854ZM94.1501 17.3546V16.9074C94.1316 16.0371 94.2204 15.1678 94.4143 14.3201C94.5527 13.6957 94.8561 13.122 95.2917 12.6609C95.7478 12.22 96.3141 11.9155 96.9286 11.7809C97.7639 11.5861 98.6193 11.4957 99.4759 11.5115H100.306V14.474H99.7731C99.333 14.4651 98.8928 14.4924 98.457 14.5557C98.1815 14.5929 97.9218 14.7078 97.707 14.8876C97.5232 15.0703 97.4052 15.3109 97.372 15.5705C97.324 15.9564 97.302 16.3452 97.306 16.7343V17.345H100.306V20.2593H97.306V30.0555H94.1501V20.269H92.0887V17.3546H94.1501ZM105 29.7862C104.218 29.4491 103.508 28.959 102.91 28.3435C102.308 27.7315 101.831 27.0035 101.507 26.2018C101.183 25.4002 101.018 24.5408 101.023 23.6738C101.009 22.791 101.169 21.9143 101.495 21.0961C101.826 20.3169 102.307 19.6136 102.91 19.0282C103.521 18.3892 104.256 17.8879 105.069 17.5565C105.881 17.2252 106.753 17.0712 107.627 17.1046C108.517 17.0848 109.401 17.2483 110.227 17.5855C111.414 18.0774 112.43 18.9208 113.143 20.0069C113.856 21.0929 114.234 22.3718 114.227 23.6786C114.232 24.5593 114.061 25.4317 113.722 26.2419C113.388 27.0241 112.914 27.7366 112.326 28.3435C111.729 28.9599 111.019 29.4502 110.236 29.7862C108.557 30.4793 106.679 30.4793 105 29.7862ZM108.967 26.9392C109.371 26.758 109.739 26.502 110.052 26.1842C110.362 25.8629 110.608 25.4842 110.779 25.0685C111.132 24.1737 111.132 23.174 110.779 22.2792C110.611 21.8578 110.364 21.4739 110.052 21.149C109.74 20.8311 109.372 20.5765 108.967 20.3988C108.545 20.2108 108.088 20.1138 107.627 20.1138C107.166 20.1138 106.71 20.2108 106.288 20.3988C105.885 20.5778 105.518 20.8323 105.207 21.149C104.892 21.4725 104.644 21.8567 104.476 22.2792C104.123 23.174 104.123 24.1737 104.476 25.0685C104.647 25.4851 104.895 25.864 105.207 26.1842C105.519 26.5009 105.886 26.7567 106.288 26.9392C106.712 27.1268 107.17 27.2248 107.633 27.2273C108.096 27.2298 108.555 27.1367 108.981 26.9537L108.967 26.9392ZM114.585 17.3546H118.359L120.963 21.1298L123.595 17.3643H127.332L122.926 23.5632L127.681 30.0555H123.827L120.963 26.0832L118.175 30.0555H114.345L118.996 23.5344L114.585 17.3546ZM141.568 12.887C142.374 12.8729 143.175 13.0166 143.927 13.3102C144.611 13.5694 145.239 13.9651 145.771 14.474C146.29 14.9713 146.703 15.572 146.984 16.2389C147.473 17.4487 147.541 18.7929 147.177 20.0477C147.022 20.5604 146.793 21.0467 146.498 21.4905C146.194 21.9424 145.824 22.3432 145.399 22.6783C144.951 23.0351 144.447 23.3115 143.908 23.4959L147.578 30.0555H145.408L142.106 24.0105H136.809V30.0555H134.893V12.887H141.568ZM136.809 22.2215H141.422C142.009 22.2318 142.593 22.1239 143.139 21.9041C143.613 21.7107 144.045 21.423 144.408 21.0577C144.752 20.7115 145.02 20.2952 145.196 19.8361C145.37 19.3758 145.46 18.8868 145.46 18.3934C145.465 17.8857 145.37 17.3821 145.182 16.9122C144.994 16.4617 144.712 16.0581 144.356 15.7292C143.989 15.3889 143.557 15.1287 143.087 14.9645C142.553 14.7879 141.993 14.7033 141.432 14.7144H136.809V22.2215ZM153.163 29.8103C152.386 29.4951 151.68 29.0222 151.088 28.4204C150.508 27.8288 150.056 27.1193 149.762 26.3381C149.446 25.5137 149.286 24.6358 149.291 23.7508C149.276 22.8539 149.436 21.963 149.762 21.1298C150.094 20.3457 150.575 19.6363 151.177 19.0426C151.759 18.426 152.457 17.9354 153.229 17.5999C154.051 17.2482 154.933 17.0714 155.824 17.0805C156.69 17.0715 157.548 17.2348 158.352 17.5614C159.103 17.8647 159.786 18.3213 160.357 18.9032C160.931 19.4939 161.383 20.1953 161.688 20.9663C162.013 21.7911 162.174 22.6741 162.159 23.5632V24.4337H151.144C151.224 25.2889 151.539 26.1038 152.053 26.7845C152.567 27.4652 153.26 27.984 154.05 28.281C154.633 28.4873 155.245 28.5898 155.862 28.5839C156.715 28.6318 157.564 28.4259 158.305 27.9914C159.046 27.5569 159.648 26.9124 160.037 26.1361L161.655 27.0979C161.058 28.0644 160.251 28.8774 159.296 29.4736C158.246 30.0693 157.058 30.362 155.857 30.32C154.935 30.3295 154.02 30.1564 153.163 29.8103ZM154.135 19.1052C153.631 19.2912 153.165 19.5717 152.762 19.9323C152.358 20.2834 152.017 20.7052 151.758 21.1779C151.486 21.6634 151.294 22.1916 151.192 22.7409H160.216C160.13 21.6283 159.62 20.5941 158.796 19.8598C157.972 19.1255 156.898 18.7493 155.805 18.8118C155.236 18.8075 154.67 18.9068 154.135 19.1052ZM166.905 11.5115V30.0555H165.018V11.5115H166.905ZM172.122 30.0219C171.61 29.851 171.138 29.5744 170.735 29.2091C170.378 28.879 170.094 28.4737 169.905 28.0213C169.717 27.5648 169.622 27.0738 169.627 26.5785C169.601 25.9812 169.727 25.3872 169.992 24.854C170.258 24.3207 170.653 23.8662 171.141 23.5344C172.146 22.8226 173.528 22.4619 175.283 22.4619H179.226V21.981C179.248 21.5453 179.178 21.1099 179.022 20.7037C178.866 20.2974 178.627 19.9296 178.321 19.6245C177.712 19.0378 176.797 18.7445 175.585 18.7445C174.795 18.7019 174.01 18.8784 173.311 19.2553C172.612 19.6322 172.027 20.1953 171.618 20.8845L169.981 19.8265C170.599 19.0001 171.386 18.3207 172.287 17.8356C173.312 17.3157 174.446 17.0613 175.589 17.0949C176.389 17.0816 177.186 17.2002 177.948 17.446C178.58 17.6532 179.162 17.9941 179.656 18.4463C180.119 18.8785 180.482 19.4109 180.717 20.0045C180.959 20.6339 181.079 21.3051 181.071 21.981V30.0555H179.226V27.8241C178.661 28.6165 177.906 29.2474 177.033 29.6564C176.107 30.0968 175.097 30.3218 174.075 30.3152C173.413 30.3292 172.753 30.23 172.122 30.0219ZM175.802 28.4349C176.267 28.3095 176.715 28.1271 177.137 27.8914C177.567 27.6486 177.964 27.3478 178.316 26.9969C178.679 26.6399 178.986 26.2279 179.226 25.7754V24.0153H175.372C174.066 24.0153 173.103 24.2221 172.49 24.626C172.026 24.9528 171.709 25.4539 171.607 26.0192C171.505 26.5846 171.628 27.1681 171.948 27.6414C172.035 27.768 172.135 27.8856 172.245 27.9924C172.866 28.4634 173.634 28.6859 174.405 28.6176C174.883 28.6202 175.358 28.5604 175.821 28.4397L175.802 28.4349ZM183.151 34.2443C182.657 34.0615 182.202 33.7821 181.812 33.4219L183.038 31.8445C183.265 32.0963 183.529 32.3105 183.821 32.4793C184.136 32.6436 184.486 32.7246 184.84 32.715C185.132 32.7199 185.423 32.681 185.703 32.5996C185.966 32.5128 186.21 32.3739 186.42 32.1908C186.671 31.9492 186.884 31.6703 187.052 31.3636C187.291 30.9449 187.507 30.5131 187.699 30.07L187.977 29.4592L182.755 17.3546H184.812L188.968 27.1893L192.926 17.3546H194.982L189.322 30.623C189.056 31.2448 188.752 31.8488 188.411 32.4312C188.147 32.8885 187.816 33.302 187.43 33.6576C187.089 33.9606 186.693 34.1926 186.265 34.3405C185.238 34.6524 184.139 34.6187 183.132 34.2443H183.151Z" fill="black"/>
</g>
<g clip-path="url(#clip1)">
<path d="M35.5917 9.07045L20.4599 0.441331C19.9284 0.149146 19.3332 -0.00390625 18.7283 -0.00390625C18.1235 -0.00390625 17.5282 0.149146 16.9967 0.441331L1.81165 9.07045C1.26347 9.38321 0.807002 9.83748 0.488771 10.387C0.17054 10.9365 0.00192381 11.5616 0.000106289 12.1985V29.4028C-0.00481105 30.0411 0.160978 30.6689 0.479901 31.2196C0.798825 31.7703 1.259 32.2234 1.81165 32.5309L16.9434 41.1061C17.474 41.4292 18.0826 41.5972 18.7017 41.5915C19.3199 41.5899 19.9266 41.4224 20.4599 41.1061L35.5917 32.5309C36.1399 32.2181 36.5964 31.7639 36.9146 31.2144C37.2328 30.6649 37.4014 30.0398 37.4033 29.4028V12.1985C37.4189 11.5581 37.2576 10.926 36.9376 10.3734C36.6175 9.82071 36.1514 9.36947 35.5917 9.07045Z" fill="url(#paint0_linear)"/>
<path d="M8.15213 25.3055L7.24636 25.8448C7.08428 25.9357 6.94171 26.0584 6.82696 26.2056C6.7122 26.3529 6.62756 26.5218 6.57796 26.7025C6.52837 26.8832 6.51482 27.0722 6.53809 27.2582C6.56137 27.4443 6.62102 27.6238 6.71355 27.7863C6.83254 28.0115 7.00897 28.2004 7.22448 28.3331C7.44 28.4659 7.68673 28.5378 7.93901 28.5414C8.1788 28.5393 8.41523 28.4841 8.63166 28.3796L9.53744 27.8403C9.69951 27.7494 9.84208 27.6267 9.95684 27.4794C10.0716 27.3322 10.1562 27.1632 10.2058 26.9825C10.2554 26.8018 10.269 26.6129 10.2457 26.4268C10.2224 26.2407 10.1628 26.0612 10.0702 25.8987C9.98796 25.7274 9.87167 25.5751 9.72862 25.4512C9.58558 25.3274 9.41886 25.2348 9.23887 25.1791C9.05887 25.1235 8.86947 25.106 8.6825 25.1277C8.49552 25.1494 8.31497 25.2099 8.15213 25.3055ZM13.6933 22.1235L11.8285 23.2021C11.6664 23.293 11.5239 23.4157 11.4091 23.563C11.2944 23.7102 11.2097 23.8791 11.1601 24.0599C11.1105 24.2406 11.097 24.4295 11.1202 24.6156C11.1435 24.8016 11.2032 24.9812 11.2957 25.1437C11.4147 25.3689 11.5911 25.5577 11.8066 25.6905C12.0222 25.8233 12.2689 25.8952 12.5212 25.8987C12.761 25.8967 12.9974 25.8414 13.2138 25.7369L15.0786 24.6583C15.2407 24.5674 15.3833 24.4447 15.498 24.2974C15.6128 24.1502 15.6974 23.9813 15.747 23.8005C15.7966 23.6198 15.8102 23.4309 15.7869 23.2448C15.7636 23.0588 15.704 22.8792 15.6115 22.7167C15.5292 22.5454 15.4129 22.3931 15.2698 22.2693C15.1268 22.1454 14.9601 22.0528 14.7801 21.9971C14.6001 21.9415 14.4107 21.924 14.2237 21.9457C14.0367 21.9674 13.8562 22.0279 13.6933 22.1235ZM21.2059 19.4862C21.1309 19.3332 21.0262 19.197 20.898 19.0858C20.7698 18.9746 20.6209 18.8907 20.46 18.839V7.99328C20.4607 7.80186 20.424 7.61218 20.3519 7.43519C20.2799 7.2582 20.174 7.09739 20.0402 6.96203C19.9065 6.82667 19.7476 6.71944 19.5728 6.64651C19.3979 6.57358 19.2105 6.53641 19.0214 6.53712C18.8352 6.53773 18.6509 6.57622 18.4796 6.65029C18.3083 6.72437 18.1534 6.83253 18.0242 6.96835C17.895 7.10417 17.7941 7.26488 17.7274 7.44095C17.6607 7.61701 17.6297 7.80484 17.6361 7.99328V18.8876C17.4752 18.9392 17.3263 19.0232 17.1981 19.1343C17.07 19.2455 16.9653 19.3817 16.8902 19.5347C16.7901 19.7243 16.7333 19.9341 16.7241 20.1488C16.7149 20.3635 16.7534 20.5776 16.8369 20.7752C16.7534 20.9728 16.7149 21.1868 16.7241 21.4015C16.7333 21.6162 16.7901 21.8261 16.8902 22.0156C16.9653 22.1686 17.07 22.3048 17.1981 22.416C17.3263 22.5272 17.4752 22.6111 17.6361 22.6628V33.5571C17.6361 33.9433 17.7877 34.3136 18.0575 34.5867C18.3273 34.8598 18.6932 35.0132 19.0747 35.0132C19.4562 35.0132 19.8222 34.8598 20.0919 34.5867C20.3617 34.3136 20.5133 33.9433 20.5133 33.5571V22.6089C20.6742 22.5572 20.8231 22.4732 20.9513 22.3621C21.0794 22.2509 21.1842 22.1147 21.2592 21.9617C21.3593 21.7722 21.4161 21.5623 21.4253 21.3476C21.4345 21.1329 21.396 20.9188 21.3125 20.7212C21.4358 20.3111 21.3976 19.8685 21.2059 19.4862ZM24.8344 15.7595L22.9695 16.8381C22.8075 16.929 22.6649 17.0517 22.5501 17.199C22.4354 17.3462 22.3507 17.5152 22.3011 17.6959C22.2515 17.8766 22.238 18.0655 22.2613 18.2516C22.2846 18.4377 22.3442 18.6172 22.4367 18.7797C22.5557 19.0049 22.7321 19.1937 22.9477 19.3265C23.1632 19.4593 23.4099 19.5312 23.6622 19.5347C23.902 19.5327 24.1384 19.4774 24.3548 19.3729L26.2197 18.2943C26.3817 18.2034 26.5243 18.0807 26.6391 17.9335C26.7538 17.7862 26.8385 17.6173 26.8881 17.4366C26.9377 17.2558 26.9512 17.0669 26.9279 16.8808C26.9047 16.6948 26.845 16.5152 26.7525 16.3527C26.6702 16.1814 26.5539 16.0291 26.4109 15.9053C26.2678 15.7815 26.1011 15.6888 25.9211 15.6332C25.7411 15.5775 25.5517 15.56 25.3647 15.5817C25.1777 15.6035 24.9972 15.664 24.8344 15.7595ZM29.2514 16.2988C29.4911 16.2968 29.7276 16.2415 29.944 16.137L30.8498 15.5977C31.0116 15.5061 31.1541 15.3831 31.2688 15.2357C31.3836 15.0882 31.4684 14.9193 31.5185 14.7386C31.5685 14.5578 31.5828 14.3689 31.5605 14.1825C31.5382 13.9962 31.4798 13.8161 31.3885 13.6527C31.2973 13.4893 31.1751 13.3458 31.0288 13.2303C30.8826 13.1149 30.7153 13.0298 30.5365 12.98C30.3577 12.9302 30.171 12.9167 29.987 12.9402C29.803 12.9636 29.6255 13.0237 29.4645 13.1168L28.5587 13.6561C28.3966 13.7471 28.2541 13.8697 28.1393 14.017C28.0245 14.1643 27.9399 14.3332 27.8903 14.5139C27.8407 14.6946 27.8272 14.8835 27.8504 15.0696C27.8737 15.2557 27.9334 15.4352 28.0259 15.5977C28.1479 15.8163 28.3264 15.9971 28.5424 16.1206C28.7583 16.2442 29.0034 16.3058 29.2514 16.2988ZM30.8498 25.8448L29.944 25.3055C29.6191 25.1217 29.2356 25.0756 28.8772 25.1773C28.5189 25.279 28.2149 25.5202 28.0318 25.8482C27.8487 26.1761 27.8013 26.5641 27.9001 26.9273C27.9988 27.2905 28.2356 27.5994 28.5587 27.7863L29.4645 28.3257C29.6809 28.4302 29.9173 28.4854 30.1571 28.4875C30.4094 28.4839 30.6561 28.412 30.8717 28.2792C31.0872 28.1464 31.2636 27.9576 31.3826 27.7324C31.4779 27.5751 31.5399 27.3994 31.5646 27.2165C31.5893 27.0336 31.5762 26.8475 31.5261 26.67C31.476 26.4926 31.39 26.3276 31.2736 26.1855C31.1572 26.0434 31.0128 25.9274 30.8498 25.8448ZM26.2143 23.2021L24.3495 22.1235C24.1885 22.0303 24.0109 21.9703 23.827 21.9468C23.643 21.9233 23.4562 21.9369 23.2775 21.9867C23.0987 22.0365 22.9314 22.1216 22.7851 22.237C22.6389 22.3524 22.5167 22.496 22.4254 22.6594C22.3342 22.8228 22.2758 23.0028 22.2535 23.1892C22.2312 23.3755 22.2455 23.5645 22.2955 23.7452C22.3456 23.9259 22.4304 24.0949 22.5452 24.2423C22.6599 24.3897 22.8023 24.5128 22.9642 24.6043L24.829 25.683C25.0455 25.7875 25.2819 25.8427 25.5217 25.8448C25.774 25.8412 26.0207 25.7693 26.2362 25.6365C26.4517 25.5038 26.6282 25.3149 26.7472 25.0897C26.8441 24.9328 26.9075 24.7571 26.933 24.5738C26.9586 24.3905 26.9459 24.2039 26.8957 24.0259C26.8454 23.848 26.7588 23.6827 26.6414 23.5408C26.5241 23.3988 26.3786 23.2835 26.2143 23.2021ZM11.8285 18.2404L13.6933 19.319C13.9098 19.4235 14.1462 19.4787 14.386 19.4808C14.6383 19.4773 14.885 19.4053 15.1005 19.2726C15.316 19.1398 15.4925 18.951 15.6115 18.7258C15.704 18.5633 15.7636 18.3837 15.7869 18.1977C15.8102 18.0116 15.7966 17.8227 15.747 17.6419C15.6974 17.4612 15.6128 17.2923 15.498 17.145C15.3833 16.9978 15.2407 16.8751 15.0786 16.7842L13.2138 15.7056C13.0533 15.6119 12.8759 15.5515 12.6921 15.528C12.5083 15.5044 12.3216 15.5181 12.1431 15.5683C11.9646 15.6185 11.7977 15.7042 11.6522 15.8204C11.5067 15.9365 11.3855 16.0808 11.2957 16.2449C11.1172 16.5837 11.073 16.9787 11.1719 17.3494C11.2709 17.7201 11.5057 18.0387 11.8285 18.2404ZM9.53744 13.6561L8.63166 13.1168C8.47067 13.0237 8.29309 12.9636 8.10911 12.9402C7.92514 12.9167 7.73839 12.9302 7.5596 12.98C7.38081 13.0298 7.21351 13.1149 7.06729 13.2303C6.92108 13.3458 6.79884 13.4893 6.7076 13.6527C6.61635 13.8161 6.5579 13.9962 6.53561 14.1825C6.51331 14.3689 6.5276 14.5578 6.57766 14.7386C6.62773 14.9193 6.71257 15.0882 6.82733 15.2357C6.94208 15.3831 7.08449 15.5061 7.24636 15.5977L8.15213 16.137C8.36857 16.2415 8.605 16.2968 8.84479 16.2988C9.09706 16.2953 9.3438 16.2234 9.55931 16.0906C9.77483 15.9578 9.95126 15.769 10.0702 15.5438C10.1609 15.3852 10.2191 15.2098 10.2413 15.028C10.2635 14.8461 10.2494 14.6616 10.1997 14.4855C10.1499 14.3093 10.0657 14.1451 9.9519 14.0026C9.83813 13.8601 9.69717 13.7423 9.53744 13.6561Z" fill="#20133A"/>
</g>
<defs>
<linearGradient id="paint0_linear" x1="0.000106289" y1="20.7953" x2="37.4086" y2="20.7953" gradientUnits="userSpaceOnUse">
<stop stop-color="#9059FF"/>
<stop offset="1" stop-color="#F770FF"/>
</linearGradient>
<clipPath id="clip0">
<rect width="144.727" height="23.0357" fill="white" transform="translate(50.2734 11.5176)"/>
</clipPath>
<clipPath id="clip1">
<rect width="41.1328" height="43" fill="white"/>
</clipPath>
</defs>
</svg>
