<svg width="122" height="138" xmlns="http://www.w3.org/2000/svg" xmlns:xlink="http://www.w3.org/1999/xlink">
    <defs>
        <linearGradient x1="-170.039%" y1="49.981%" x2="257.195%" y2="49.981%" id="b">
            <stop stop-color="#00C8D7" offset="0%"/>
            <stop stop-color="#0A84FF" offset="100%"/>
        </linearGradient>
        <rect id="a" x="18" width="76" height="130" rx="4"/>
        <path d="M45-8h22a1 1 0 0 1 1 1v110a1 1 0 0 1-1 1H45a1 1 0 0 1-1-1V-7a1 1 0 0 1 1-1z" id="c"/>
    </defs>
    <g transform="translate(5 4)" fill="none" fill-rule="evenodd">
        <use fill="#FFF" xlink:href="#a"/>
        <rect stroke="url(#b)" stroke-width="4" x="16" y="-2" width="80" height="134" rx="4"/>
        <rect fill="#CCEDF0" x="26" y="10" width="60" height="100" rx="1"/>
        <g transform="rotate(-90 56 48)">
            <use fill="#FFF" xlink:href="#c"/>
            <path stroke="#FFF" stroke-width="5"
                  d="M45-10.5h22A3.5 3.5 0 0 1 70.5-7v110a3.5 3.5 0 0 1-3.5 3.5H45a3.5 3.5 0 0 1-3.5-3.5V-7a3.5 3.5 0 0 1 3.5-3.5z"/>
            <path stroke="url(#b)" stroke-width="3"
                  d="M45-9.5h22A2.5 2.5 0 0 1 69.5-7v110a2.5 2.5 0 0 1-2.5 2.5H45a2.5 2.5 0 0 1-2.5-2.5V-7A2.5 2.5 0 0 1 45-9.5z"/>
        </g>
        <path d="M32.986 48.216l-3.446.781 2.342 2.748L30.261 53l-1.78-3.174L26.726 53l-1.621-1.232 2.32-2.77L24 48.215l.608-1.942 3.198 1.444L27.468 44h2.027l-.338 3.742 3.198-1.492.631 1.966zm10.638 0l-3.446.781 2.342 2.748L40.899 53l-1.78-3.174L37.363 53l-1.622-1.232 2.32-2.77-3.423-.782.608-1.942 3.198 1.444L38.106 44h2.027l-.338 3.742 3.198-1.492.63 1.966zm10.637 0l-3.446.781 2.343 2.748L51.536 53l-1.78-3.174L48 53l-1.621-1.232 2.32-2.77-3.424-.782.608-1.942 3.198 1.444L48.743 44h2.027l-.337 3.742 3.198-1.492.63 1.966zm10.638 0l-3.446.781 2.342 2.748L62.174 53l-1.78-3.174L58.638 53l-1.622-1.232 2.32-2.77-3.423-.782.608-1.942 3.198 1.444L59.38 44h2.027l-.338 3.742 3.198-1.492.63 1.966zm10.637 0l-3.445.781 2.342 2.748L72.81 53l-1.779-3.174L69.275 53l-1.621-1.232 2.32-2.77-3.424-.782.608-1.942 3.198 1.444L70.02 44h2.027l-.338 3.742 3.198-1.492.63 1.966zm10.638 0l-3.446.781 2.342 2.748L83.45 53l-1.78-3.174L79.914 53l-1.622-1.232 2.32-2.77-3.423-.782.608-1.942 3.198 1.444L80.656 44h2.027l-.338 3.742 3.198-1.492.63 1.966z"
              fill="url(#b)"/>
        <rect fill="#CCEDF0" x="50" y="4" width="12" height="1" rx=".5"/>
        <circle fill="#CCEDF0" cx="56" cy="120" r="6"/>
    </g>
</svg>
