<svg xmlns="http://www.w3.org/2000/svg" width="252" height="188" fill="none"><g filter="url(#a)"><path fill="#fff" d="M147.886 64.891c-.194 0-.386.01-.579.015l.001-.015c0-17.06-13.865-30.891-30.967-30.891-13.889 0-25.641 9.12-29.568 21.684a21.272 21.272 0 0 0-9.922-2.443c-11.78 0-21.329 9.526-21.329 21.276 0 1.915.258 3.768.733 5.533a17.216 17.216 0 0 0-6.995-1.486c-9.532 0-17.26 7.709-17.26 17.218S39.728 113 49.26 113h98.626C161.204 113 172 102.23 172 88.945s-10.796-24.054-24.114-24.054Z"/></g><g filter="url(#b)"><path fill="#fff" d="M143.018 112.724c.129 0 .257.007.385.01v-.01c0-11.445 9.21-20.724 20.571-20.724 9.225 0 17.032 6.119 19.641 14.548a14.016 14.016 0 0 1 6.591-1.639c7.825 0 14.169 6.39 14.169 14.274 0 1.284-.171 2.527-.487 3.711a11.341 11.341 0 0 1 4.646-.997c6.333 0 11.466 5.172 11.466 11.552 0 6.379-5.133 11.551-11.466 11.551h-65.516c-8.846 0-16.018-7.225-16.018-16.138 0-8.913 7.172-16.138 16.018-16.138Z"/></g><g filter="url(#c)"><path fill="#fff" d="M121.982 125.724c-.129 0-.257.007-.385.01v-.01c0-11.445-9.21-20.724-20.571-20.724-9.225 0-17.032 6.119-19.641 14.548a14.017 14.017 0 0 0-6.592-1.639c-7.824 0-14.168 6.39-14.168 14.274 0 1.284.171 2.527.487 3.711a11.342 11.342 0 0 0-4.646-.997c-6.333 0-11.466 5.172-11.466 11.552C45 152.828 50.133 158 56.466 158h65.516c8.846 0 16.018-7.225 16.018-16.138 0-8.913-7.172-16.138-16.018-16.138Z"/></g><path fill="#FE6BB3" d="M102.926 45H46.074A3.068 3.068 0 0 0 43 48.063v75.289a3.068 3.068 0 0 0 3.074 3.063h56.852a3.068 3.068 0 0 0 3.074-3.063V48.063A3.068 3.068 0 0 0 102.926 45Z"/><rect width="53.308" height="69.785" x="47.846" y="49.846" fill="#E01687" rx="6"/><path stroke="#E01687" stroke-linecap="round" stroke-linejoin="round" stroke-width="3" d="M72.077 123.508h4.846"/><path fill="#FD6BB4" d="M81.003 109.486h-2.838c-.784 0-1.42.635-1.42 1.419v2.838c0 .784.636 1.42 1.42 1.42h2.838a1.42 1.42 0 0 0 1.42-1.42v-2.838c0-.784-.636-1.419-1.42-1.419ZM91.096 109.486h-2.839c-.784 0-1.42.635-1.42 1.419v2.838c0 .784.636 1.42 1.42 1.42h2.838a1.42 1.42 0 0 0 1.42-1.42v-2.838c0-.784-.636-1.419-1.42-1.419ZM60.819 109.486h-2.838c-.784 0-1.42.635-1.42 1.419v2.838c0 .784.636 1.42 1.42 1.42h2.838a1.42 1.42 0 0 0 1.42-1.42v-2.838c0-.784-.636-1.419-1.42-1.419ZM70.911 109.486h-2.838c-.784 0-1.42.635-1.42 1.419v2.838c0 .784.636 1.42 1.42 1.42h2.838a1.42 1.42 0 0 0 1.42-1.42v-2.838c0-.784-.636-1.419-1.42-1.419Z"/><path fill="#DABDFF" d="M70 156.638V162h109v-5.362L164.997 153H85.896L70 156.638Z"/><path fill="#DABDFF" d="M174 150.89V87.11c0-2.839-2.28-5.11-5.131-5.11H80.13A5.099 5.099 0 0 0 75 87.11v63.78c0 2.839 2.28 5.11 5.13 5.11h88.739a5.099 5.099 0 0 0 5.131-5.11Z"/><path fill="#0090ED" d="M82.703 88h84.405c.378 0 .946.19 1.324.569.379.379.568.758.568 1.327v58.208c0 .379-.189.948-.568 1.327-.378.379-.757.569-1.324.569H82.703A1.697 1.697 0 0 1 81 148.294V89.896c0-.38.19-.948.568-1.327.189-.38.757-.569 1.135-.569ZM118.759 159h12.339c.38 0 .76-.222.76-.444.189-.445.189-.667 0-1.112-.19-.444-.57-.444-.76-.444h-12.339c-.379 0-.759.444-.759 1.111s.38.889.759.889Z"/><g filter="url(#d)"><circle cx="178.5" cy="87.5" r="27.5" fill="#fff"/></g><path fill="#FF6BB3" d="M164.849 35h27.204c2.115 0 3.947 1.691 3.947 3.947V88.42c0 2.115-1.691 3.947-3.947 3.947h-27.345c-2.114 0-3.946-1.691-3.946-3.947V38.947c.141-2.115 1.832-3.947 4.087-3.947Z"/><path fill="#E31587" d="M166.118 38.947h24.667c.282 0 .705.14.986.422.282.282.423.564.423.987v45.528c0 .282-.141.705-.423.987-.281.282-.563.422-.986.422h-24.667a1.264 1.264 0 0 1-1.269-1.268v-45.81c0-.282.141-.705.423-.987.141-.14.423-.282.846-.282ZM176.549 90.394h3.664c.423 0 .705-.282.705-.704 0-.423-.282-.705-.705-.705h-3.664c-.423 0-.705.282-.705.705 0 .422.282.704.705.704Z"/><path fill="#FF6BB3" d="M185.006 83.206a1.974 1.974 0 1 1 0-3.948 1.974 1.974 0 0 1 0 3.948ZM178.381 83.206a1.974 1.974 0 1 1 0-3.948 1.974 1.974 0 0 1 0 3.948ZM171.897 83.206a1.973 1.973 0 1 1 0-3.946 1.973 1.973 0 0 1 0 3.946Z"/><g fill="#fff" filter="url(#e)"><path d="M181.048 53.706c-2.292 0-3.046 2.27-3.046 2.27s-.754-2.27-3.045-2.27c-2.292 0-2.957 1.462-2.957 3.266s2.02 4.13 6 6.263c3.98-2.133 6-4.46 6-6.263s-.662-3.266-2.952-3.266Z"/><path d="M178.715 61.118a16.358 16.358 0 0 0 5.103-3.325l.029-.007c.098-.282.15-.578.153-.877 0-1.77-.665-3.203-2.959-3.203-2.293 0-3.049 2.226-3.049 2.226s-.755-2.226-3.05-2.226c-1.064 0-1.776.308-2.236.814-.008.495.136 4.373 6.009 6.598Z"/></g><g fill="#fff" filter="url(#f)"><path d="M134.556 102c-7.185 0-9.549 7.119-9.549 7.119s-2.364-7.119-9.55-7.119c-7.186 0-9.272 4.584-9.272 10.242 0 5.658 6.335 12.95 18.815 19.64 12.48-6.69 18.815-13.986 18.815-19.64 0-5.655-2.076-10.242-9.259-10.242Z"/><path d="M127.244 125.242a51.314 51.314 0 0 0 16.001-10.427l.09-.02a8.65 8.65 0 0 0 .48-2.751c0-5.549-2.086-10.044-9.278-10.044s-9.563 6.982-9.563 6.982-2.367-6.982-9.563-6.982c-3.336 0-5.569.965-7.011 2.554-.027 1.552.426 13.713 18.844 20.688Z"/></g><g fill="#fff" filter="url(#g)"><path d="M80.08 60c-3.82 0-5.076 3.784-5.076 3.784S73.747 60 69.928 60C66.108 60 65 62.436 65 65.443c0 3.008 3.367 6.883 10 10.44 6.633-3.557 10-7.434 10-10.44C85 62.438 83.897 60 80.08 60Z"/><path d="M76.193 72.353a27.276 27.276 0 0 0 8.504-5.542l.048-.01c.163-.47.25-.965.255-1.463C85 62.39 83.891 60 80.069 60c-3.823 0-5.083 3.71-5.083 3.71S73.728 60 69.903 60c-1.773 0-2.96.513-3.726 1.358-.014.824.226 7.288 10.016 10.995Z"/></g><defs><filter id="a" width="204" height="143" x="0" y="0" color-interpolation-filters="sRGB" filterUnits="userSpaceOnUse"><feFlood flood-opacity="0" result="BackgroundImageFix"/><feColorMatrix in="SourceAlpha" result="hardAlpha" values="0 0 0 0 0 0 0 0 0 0 0 0 0 0 0 0 0 0 127 0"/><feOffset dy="-2"/><feGaussianBlur stdDeviation="16"/><feComposite in2="hardAlpha" operator="out"/><feColorMatrix values="0 0 0 0 0 0 0 0 0 0.564706 0 0 0 0 0.929412 0 0 0 0.12 0"/><feBlend in2="BackgroundImageFix" result="effect1_dropShadow_5392_7502"/><feBlend in="SourceGraphic" in2="effect1_dropShadow_5392_7502" result="shape"/></filter><filter id="b" width="157" height="117" x="95" y="58" color-interpolation-filters="sRGB" filterUnits="userSpaceOnUse"><feFlood flood-opacity="0" result="BackgroundImageFix"/><feColorMatrix in="SourceAlpha" result="hardAlpha" values="0 0 0 0 0 0 0 0 0 0 0 0 0 0 0 0 0 0 127 0"/><feOffset dy="-2"/><feGaussianBlur stdDeviation="16"/><feComposite in2="hardAlpha" operator="out"/><feColorMatrix values="0 0 0 0 0 0 0 0 0 0.564706 0 0 0 0 0.929412 0 0 0 0.12 0"/><feBlend in2="BackgroundImageFix" result="effect1_dropShadow_5392_7502"/><feBlend in="SourceGraphic" in2="effect1_dropShadow_5392_7502" result="shape"/></filter><filter id="c" width="157" height="117" x="13" y="71" color-interpolation-filters="sRGB" filterUnits="userSpaceOnUse"><feFlood flood-opacity="0" result="BackgroundImageFix"/><feColorMatrix in="SourceAlpha" result="hardAlpha" values="0 0 0 0 0 0 0 0 0 0 0 0 0 0 0 0 0 0 127 0"/><feOffset dy="-2"/><feGaussianBlur stdDeviation="16"/><feComposite in2="hardAlpha" operator="out"/><feColorMatrix values="0 0 0 0 0 0 0 0 0 0.564706 0 0 0 0 0.929412 0 0 0 0.12 0"/><feBlend in2="BackgroundImageFix" result="effect1_dropShadow_5392_7502"/><feBlend in="SourceGraphic" in2="effect1_dropShadow_5392_7502" result="shape"/></filter><filter id="d" width="119" height="119" x="119" y="30" color-interpolation-filters="sRGB" filterUnits="userSpaceOnUse"><feFlood flood-opacity="0" result="BackgroundImageFix"/><feColorMatrix in="SourceAlpha" result="hardAlpha" values="0 0 0 0 0 0 0 0 0 0 0 0 0 0 0 0 0 0 127 0"/><feOffset dy="2"/><feGaussianBlur stdDeviation="16"/><feComposite in2="hardAlpha" operator="out"/><feColorMatrix values="0 0 0 0 0 0 0 0 0 0.564706 0 0 0 0 0.929412 0 0 0 0.12 0"/><feBlend in2="BackgroundImageFix" result="effect1_dropShadow_5392_7502"/><feBlend in="SourceGraphic" in2="effect1_dropShadow_5392_7502" result="shape"/></filter><filter id="e" width="76" height="73.529" x="140" y="23.706" color-interpolation-filters="sRGB" filterUnits="userSpaceOnUse"><feFlood flood-opacity="0" result="BackgroundImageFix"/><feColorMatrix in="SourceAlpha" result="hardAlpha" values="0 0 0 0 0 0 0 0 0 0 0 0 0 0 0 0 0 0 127 0"/><feOffset dy="2"/><feGaussianBlur stdDeviation="16"/><feComposite in2="hardAlpha" operator="out"/><feColorMatrix values="0 0 0 0 0 0 0 0 0 0.564706 0 0 0 0 0.929412 0 0 0 0.12 0"/><feBlend in2="BackgroundImageFix" result="effect1_dropShadow_5392_7502"/><feBlend in="SourceGraphic" in2="effect1_dropShadow_5392_7502" result="shape"/></filter><filter id="f" width="101.63" height="93.882" x="74.185" y="72" color-interpolation-filters="sRGB" filterUnits="userSpaceOnUse"><feFlood flood-opacity="0" result="BackgroundImageFix"/><feColorMatrix in="SourceAlpha" result="hardAlpha" values="0 0 0 0 0 0 0 0 0 0 0 0 0 0 0 0 0 0 127 0"/><feOffset dy="2"/><feGaussianBlur stdDeviation="16"/><feComposite in2="hardAlpha" operator="out"/><feColorMatrix values="0 0 0 0 0 0 0 0 0 0.564706 0 0 0 0 0.929412 0 0 0 0.12 0"/><feBlend in2="BackgroundImageFix" result="effect1_dropShadow_5392_7502"/><feBlend in="SourceGraphic" in2="effect1_dropShadow_5392_7502" result="shape"/></filter><filter id="g" width="84" height="79.882" x="33" y="30" color-interpolation-filters="sRGB" filterUnits="userSpaceOnUse"><feFlood flood-opacity="0" result="BackgroundImageFix"/><feColorMatrix in="SourceAlpha" result="hardAlpha" values="0 0 0 0 0 0 0 0 0 0 0 0 0 0 0 0 0 0 127 0"/><feOffset dy="2"/><feGaussianBlur stdDeviation="16"/><feComposite in2="hardAlpha" operator="out"/><feColorMatrix values="0 0 0 0 0 0 0 0 0 0.564706 0 0 0 0 0.929412 0 0 0 0.12 0"/><feBlend in2="BackgroundImageFix" result="effect1_dropShadow_5392_7502"/><feBlend in="SourceGraphic" in2="effect1_dropShadow_5392_7502" result="shape"/></filter></defs></svg>
