<?xml version="1.0" encoding="utf-8"?><svg id="Layer_1" xmlns="http://www.w3.org/2000/svg" viewBox="0 0 143 71"><style>.st0{fill:#EAEAEE;} .st1{fill:#CCEDF0;} .st2{fill:#1DA4E9;} .st3{fill:url(#SVGID_1_);} .st4{fill:#99CCFF;} .st5{fill:#59ACFF;} .st6{fill:#FFFFFF;} .st7{fill:#90E8F0;} .st8{fill:url(#SVGID_2_);} .st9{fill:url(#SVGID_3_);} .st10{fill:url(#SVGID_4_);}</style><title>comp</title><path class="st0" d="M50 45.1H38c-.3 0-.5-.2-.5-.5s.2-.5.5-.5h12c.3 0 .5.2.5.5s-.2.5-.5.5zm-21 0h-1c-.3 0-.5-.2-.5-.5s.2-.5.5-.5h1c.3 0 .5.2.5.5s-.2.5-.5.5zm-5 0h-3c-.3 0-.5-.2-.5-.5s.2-.5.5-.5h3c.3 0 .5.2.5.5s-.2.5-.5.5zm-11 0H1c-.3 0-.5-.2-.5-.5s.2-.5.5-.5h12c.3 0 .5.2.5.5s-.2.5-.5.5zm41.1 3.8c0-.6-.4-1-1-1H1c-.6 0-1 .4-1 1s.4 1 1 1h52.1c.6 0 1-.5 1-1zm-3.1 7h-6c-.3 0-.5-.2-.5-.5s.2-.5.5-.5h6c.3 0 .5.2.5.5s-.2.5-.5.5zm-8 0h-4c-.3 0-.5-.2-.5-.5s.2-.5.5-.5h4c.3 0 .5.2.5.5s-.2.5-.5.5zm-12 0H21c-.3 0-.5-.2-.5-.5s.2-.5.5-.5h10c.3 0 .5.2.5.5s-.2.5-.5.5zm-16 0h-2c-.3 0-.5-.2-.5-.5s.2-.5.5-.5h2c.3 0 .5.2.5.5s-.2.5-.5.5zm-6 0H1c-.3 0-.5-.2-.5-.5s.2-.5.5-.5h8c.3 0 .5.2.5.5s-.2.5-.5.5z"/><g id="Layer_2"><path class="st1" d="M96.8 66.6c-.2 0-.4-.1-.6-.2L70.6 48.6 44.9 66.5c-.3.2-.7.2-1 .1-.3-.2-.5-.5-.5-.9V38.1c0-3.2 2.7-5.9 5.9-5.9h42.6c3.2 0 5.9 2.6 5.9 5.9v27.5c0 .4-.2.7-.5.9-.2.1-.3.1-.5.1z"/><path class="st2" d="M91.9 33.3c2.7 0 4.9 2.2 4.9 4.9v27.5L70.6 47.4 44.3 65.6V38.1c0-2.7 2.2-4.9 4.9-4.9l42.7.1m0-2H49.3c-3.8 0-6.9 3-6.9 6.8v27.5c0 .7.4 1.4 1.1 1.8.7.3 1.5.3 2.1-.1l25.1-17.4 25.1 17.4c.6.4 1.4.5 2.1.1.7-.3 1.1-1 1.1-1.8V38.1c-.2-3.8-3.3-6.8-7.1-6.8z"/></g><g id="Layer_3"><path class="st1" d="M48.9 70h-.5c-.1 0-.2 0-.3-.1h.2c-1.2-.1-2.3-.6-3.2-1.4 0 0-.1 0-.1-.1l-.1-.1-.5-.5c-.4-.5-.7-1-1-1.6v-.1-.2-.2c0-.3.1-.6.4-.8 1.3-1.5 6-5.2 22.7-17.7 1.2-1 2.6-1.7 4.2-1.8 1.3 0 2.5.5 4.2 1.8C91.3 59.7 96.1 63.5 97.5 65c.4.3.5.8.3 1.3-.9 2.3-3.1 3.7-5.5 3.7H48.9z"/><path class="st2" d="M70.5 46.6c1.3.1 2.6.7 3.6 1.6 0 0 22.9 17.1 22.7 17.6-.7 1.9-2.6 3.2-4.7 3.2H48.9c-.2 0-.3 0-.5-.1h-.1c-1-.1-2-.5-2.7-1.2-.2-.2-.4-.3-.5-.5-.4-.4-.6-.9-.8-1.4-.3-.5 22.6-17.6 22.6-17.6 1-.9 2.3-1.5 3.6-1.6m0-2c-1.8.1-3.5.8-4.8 2-.1 0-5.8 4.3-11.4 8.6-3.3 2.5-6 4.6-7.8 6.1-1.1.9-2 1.6-2.6 2.1-.9.8-1.8 1.6-1.6 2.8 0 .2.1.3.1.5.3.7.6 1.3 1.1 1.9l.6.6c0 .1.1.1.1.1l.1.1c1 .9 2.3 1.4 3.6 1.6h.4c.2 0 .4.1.6.1h43.3c2.8 0 5.4-1.7 6.5-4.3.2-.3.2-.6.2-.9 0-1-.8-1.7-1.6-2.4-.6-.5-1.5-1.2-2.6-2.1-1.9-1.5-4.5-3.5-7.9-6.1-5.6-4.3-11.4-8.6-11.5-8.6-1.3-1.3-3-2-4.8-2.1z"/></g><linearGradient id="SVGID_1_" gradientUnits="userSpaceOnUse" x1="379.593" y1="-261.225" x2="509.483" y2="-391.115" gradientTransform="matrix(1 0 0 -1 -364.41 -302.055)"><stop offset="0" stop-color="#00C8D7"/><stop offset="1" stop-color="#0A84FF"/></linearGradient><path class="st3" d="M70.4 16.4c1.3.1 2.5.6 3.4 1.5l.9.7c.4.2.7.4.9.7l.2.1c-.3-.3-.5-.6-.6-1-.4-1.5-1.4-2.8-2.8-3.6-.6-.3-1.3-.4-2-.4-.5 0-1.1.1-1.6.3.5.6 1 1.1 1.6 1.7z"/><path class="st4" d="M71.1 39.1s.1-.1 0 0c.1-.1 0 0 0 0z"/><path class="st5" d="M73.2 48.1s-.1.1 0 0z"/><path class="st6" d="M70.5 56.5c-1.3 0-2.5-.5-4.2-1.8L44 37.2c-.3-.3-.5-.7-.3-1.1.3-.9.8-1.7 1.4-2.3.3-.2.5-.4.8-.6l20.7-15.9c1.1-1 2.5-1.6 4-1.7 1.5.1 2.9.7 4 1.7l19.8 15.5c.7.3 1.3.7 1.8 1.3.7.7 1.1 1.5 1.3 2.5 0 .3-.1.7-.4.9L74.7 54.8c-1.2 1-2.7 1.6-4.2 1.7z" id="_Group_"/><path class="st7" d="M62 43.2l1.9-1.9c.4-.4.8-.6 1.2-.8.5-1.4 1.2-2.7 2.3-3.8-2.2-.2-4.4.6-5.9 2.2L58 42.2l-2.7 2.7-.1.1 2.7 2.1.1-.1 4-3.8zM73.1 48.4s0-.1.1-.1c1.7-2.7 1.6-6.1-.3-8.6-1.3.2-2.3 1.2-2.5 2.5.9 1.6.7 3.7-.6 5l-1.3 1.3-3.8 3.8-.1.1 2.5 2c.1.1.2.1.2.2l.1-.1 3.4-3.4 2.3-2.7z"/><linearGradient id="SVGID_2_" gradientUnits="userSpaceOnUse" x1="430.261" y1="-343.442" x2="450.584" y2="-343.442" gradientTransform="matrix(1 0 0 -1 -364.41 -302.055)"><stop offset="0" stop-color="#02BDDE"/><stop offset="1" stop-color="#04AEE7"/></linearGradient><path class="st8" d="M78.8 37.3c-2.8-2.8-7.2-3-10.2-.5-.1.1-.3.2-.4.4-.6.6-1.2 1.4-1.6 2.2-.1.2-.2.5-.3.7-.9 2.6-.4 5.5 1.4 7.5.5-.5 1.1-1.1 1.5-1.6.3-.4.6-.9.7-1.3-.6-1.1-.7-2.4-.3-3.5 0-.1.1-.2.2-.3.1-.1.1-.3.2-.4l.1-.1c.3-.4.6-.8 1.1-1.1 0 0 .1 0 .1-.1.1-.1.2-.1.3-.2 1.6-.9 3.6-.6 4.9.7l6.7 6.7.3.3c0 .1.1.1.1.2l2.7-2.1c0-.1-.1-.1-.1-.2-.2-.2-.4-.4-.5-.6l-6.9-6.7z"/><linearGradient id="SVGID_3_" gradientUnits="userSpaceOnUse" x1="71.57" y1="22.39" x2="76.947" y2="22.39" gradientTransform="matrix(1 0 0 -1 0 74)"><stop offset="0" stop-color="#02BDDE"/><stop offset="1" stop-color="#04AEE7"/></linearGradient><path class="st9" d="M71.6 51.6l2.5 2.5.1.1 2.7-2.1-.1-.2-2.9-2.9z"/><path class="st2" d="M70.5 16.4c1.3.1 2.4.6 3.4 1.5 0 0 21 15.9 21.5 16.5.5.5.9 1.2 1.1 1.9L74.2 53.7c-1 .9-2.2 1.4-3.5 1.6-1.3-.1-2.6-.7-3.6-1.6L44.7 36.3c.2-.7.6-1.3 1.1-1.9.2-.2 21.4-16.5 21.4-16.5.9-.8 2.1-1.4 3.3-1.5m0-2c-1.7.1-3.3.8-4.6 1.9 0 0-21.3 16.4-21.5 16.6-.8.8-1.3 1.7-1.7 2.7-.3.8 0 1.7.7 2.2l22.4 17.4c1.3 1.1 3 1.8 4.8 1.9 1.8-.1 3.4-.8 4.7-2l22.4-17.4c.5-.4.8-1.1.8-1.8-.2-1.1-.8-2.2-1.6-3-.6-.7-21.8-16.8-21.8-16.8-1.3-.9-2.9-1.5-4.6-1.7z" id="_Group_2"/><linearGradient id="SVGID_4_" gradientUnits="userSpaceOnUse" x1="402.378" y1="-286.69" x2="490.514" y2="-374.826" gradientTransform="matrix(1 0 0 -1 -364.41 -302.055)"><stop offset="0" stop-color="#00C8D7"/><stop offset="1" stop-color="#0A84FF"/></linearGradient><path class="st10" d="M68.9 9.9c-.5 0-1-.4-1.1-.9-.3-1.2-1.3-2.2-2.5-2.5-.6-.1-1-.8-.8-1.4.1-.4.4-.7.8-.8 1.2-.3 2.2-1.3 2.5-2.5.1-.6.8-1 1.4-.8.4.1.7.4.8.8.3 1.2 1.3 2.2 2.5 2.5.6.1 1 .8.8 1.4-.1.4-.4.7-.8.8-1.3.4-2.2 1.3-2.5 2.5-.1.5-.6.9-1.1.9zm9.7 8.2c.6-2.4 2.5-4.3 4.9-4.9.7-.2 1.1-.8.9-1.5-.1-.5-.5-.8-.9-.9-2.4-.6-4.3-2.5-4.9-4.9-.2-.7-.8-1.1-1.5-.9-.5.1-.8.5-.9.9-.6 2.4-2.5 4.3-4.9 4.9-.7.2-1.1.8-.9 1.5.1.5.5.8.9.9 2.4.6 4.3 2.5 4.9 4.9.2.7.8 1.1 1.5.9.5-.1.8-.4.9-.9zM66.4 29.8c1-3.8 3.9-6.8 7.7-7.7.6-.2 1-.7 1-1.3 0-.6-.4-1.2-1.1-1.3-3.8-1-6.7-3.9-7.7-7.7-.2-.7-.9-1.2-1.6-1-.5.1-.9.5-1 1-1 3.8-3.9 6.7-7.7 7.7-.6.1-1.1.7-1.1 1.3 0 .6.4 1.2 1.1 1.3 3.8 1 6.7 3.9 7.7 7.7.2.7.9 1.2 1.6 1 .6-.1 1-.5 1.1-1z"/><path class="st6" d="M68.9 2c.1 0 .1 0 .1.1.4 1.6 1.6 2.8 3.2 3.2.1 0 .1.1.1.2s-.1.1-.1.1c-1.6.4-2.8 1.6-3.2 3.2 0 .1-.1.1-.2.1s-.1-.1-.1-.1c-.4-1.6-1.6-2.8-3.2-3.2-.1 0-.1-.1-.1-.2s.1-.1.1-.1c1.6-.4 2.8-1.6 3.2-3.2.1-.1.1-.1.2-.1m0-2c-1 0-1.8.7-2.1 1.6-.2.9-.9 1.5-1.7 1.7-1.1.3-1.8 1.4-1.6 2.6.2.8.8 1.4 1.6 1.6.9.2 1.5.9 1.7 1.7.3 1.1 1.4 1.8 2.6 1.6.8-.2 1.4-.8 1.6-1.6.2-.9.9-1.5 1.7-1.7 1.1-.3 1.8-1.4 1.6-2.6-.2-.8-.8-1.4-1.6-1.6-.9-.2-1.5-.9-1.7-1.7C70.7.7 69.9 0 68.9 0z"/><path class="st6" d="M77.4 5.9c.1 0 .2.1.2.2.7 2.8 2.9 4.9 5.6 5.6.1 0 .2.1.2.3 0 .1-.1.2-.2.2-2.8.7-4.9 2.9-5.6 5.6 0 .1-.1.2-.2.2s-.2-.1-.2-.2c-.7-2.8-2.9-4.9-5.6-5.6-.1 0-.2-.2-.2-.3 0-.1.1-.2.2-.2 2.8-.7 4.9-2.9 5.6-5.6 0-.1.1-.2.2-.2m0-2c-1 0-1.9.7-2.2 1.7-.5 2.1-2.1 3.7-4.2 4.2-1.2.3-1.9 1.5-1.6 2.7.2.8.8 1.5 1.7 1.7 2.1.5 3.7 2.1 4.2 4.2.3 1.2 1.5 1.9 2.7 1.6.8-.2 1.5-.8 1.6-1.7.5-2.1 2.1-3.7 4.2-4.2 1.2-.3 1.9-1.5 1.6-2.7-.2-.8-.8-1.5-1.7-1.6-2.1-.5-3.7-2.1-4.2-4.2-.2-.9-1.1-1.6-2.1-1.7z"/><path class="st6" d="M65.1 11.6c.2 0 .3.1.4.3 1.1 4.1 4.3 7.4 8.4 8.4.2 0 .3.2.3.4 0 .1-.1.3-.3.3-4.1 1.1-7.4 4.3-8.4 8.4 0 .2-.2.3-.4.3s-.3-.1-.4-.3c-1.1-4.1-4.3-7.4-8.4-8.4-.2 0-.3-.2-.3-.4 0-.1.1-.3.3-.3 4.1-1.1 7.4-4.3 8.4-8.4 0-.1.2-.3.4-.3m0-2c-1.1 0-2 .7-2.3 1.8-.9 3.4-3.6 6.1-7 7-1.3.3-2 1.6-1.7 2.8.2.9.9 1.5 1.7 1.7 3.4.9 6.1 3.6 7 7 .3 1.3 1.6 2 2.8 1.7.9-.2 1.5-.9 1.7-1.7.9-3.4 3.6-6.1 7-7 1.3-.3 2-1.6 1.7-2.9-.2-.9-.9-1.5-1.8-1.7-3.4-.9-6.1-3.6-7-7-.1-.9-1-1.7-2.1-1.7z"/></svg>