<svg xmlns="http://www.w3.org/2000/svg" width="180" height="40"><defs><radialGradient id="h" gradientUnits="userSpaceOnUse" cx="85.185" cy="12.51" fx="85.185" fy="12.51" r="74.202" gradientTransform="rotate(.421 115.477 -5.657) scale(.37038)"><stop offset=".279" stop-color="#ffea00"/><stop offset=".402" stop-color="#fd0"/><stop offset=".63" stop-color="#ffba00"/><stop offset=".856" stop-color="#ff9100"/><stop offset=".932" stop-color="#ff6711"/><stop offset=".994" stop-color="#ff4a1d"/></radialGradient><radialGradient id="a" gradientUnits="userSpaceOnUse" cx="-15463.896" cy="-8578.98" fx="-15466.29" fy="-8578.749" r="37.53" gradientTransform="matrix(.28215 .0148 -.02178 .41474 4214.748 3797.537)"><stop offset=".102" stop-color="#ffea00"/><stop offset=".166" stop-color="#ffde00"/><stop offset=".28" stop-color="#ffbf00"/><stop offset=".429" stop-color="#ff8e00"/><stop offset=".769" stop-color="#ff272d"/><stop offset=".872" stop-color="#e0255a"/><stop offset=".953" stop-color="#cc2477"/><stop offset="1" stop-color="#c42482"/></radialGradient><radialGradient id="b" gradientUnits="userSpaceOnUse" cx="-8077.245" cy="-8194.404" fx="-8077.245" fy="-8194.404" r="65.86" gradientTransform="matrix(.45385 .00358 -.00358 .45385 3667.658 3757.064)"><stop offset="0" stop-color="#00ccda"/><stop offset=".22" stop-color="#0083ff"/><stop offset=".261" stop-color="#007af9"/><stop offset=".33" stop-color="#0060e8"/><stop offset=".333" stop-color="#005fe7"/><stop offset=".438" stop-color="#2639ad"/><stop offset=".522" stop-color="#401e84"/><stop offset=".566" stop-color="#4a1475"/></radialGradient><radialGradient id="d" gradientUnits="userSpaceOnUse" cx="-9039.517" cy="-7071.563" fx="-9039.517" fy="-7071.563" r="22.215" gradientTransform="matrix(.45122 .04896 -.049 .45096 3773.465 3654.604)"><stop offset=".003" stop-color="#ffea00"/><stop offset=".497" stop-color="#ff272d"/><stop offset="1" stop-color="#c42482"/></radialGradient><radialGradient id="e" gradientUnits="userSpaceOnUse" cx="-9041.526" cy="-7092.864" fx="-9041.526" fy="-7092.864" r="37.097" gradientTransform="matrix(.45122 .04896 -.049 .45096 3773.465 3654.604)"><stop offset=".003" stop-color="#ffe900"/><stop offset=".157" stop-color="#ffaf0e"/><stop offset=".316" stop-color="#ff7a1b"/><stop offset=".472" stop-color="#ff4e26"/><stop offset=".621" stop-color="#ff2c2e"/><stop offset=".762" stop-color="#ff1434"/><stop offset=".892" stop-color="#ff0538"/><stop offset="1" stop-color="#ff0039"/></radialGradient><radialGradient id="f" gradientUnits="userSpaceOnUse" cx="-9036.279" cy="-7058.476" fx="-9036.279" fy="-7058.476" r="34.041" gradientTransform="matrix(.45122 .04896 -.049 .45096 3773.465 3654.604)"><stop offset=".003" stop-color="#ff272d"/><stop offset=".497" stop-color="#c42482"/><stop offset=".987" stop-color="#620700"/></radialGradient><radialGradient id="g" gradientUnits="userSpaceOnUse" cx="88.919" cy="42.704" r="65.107" gradientTransform="rotate(.421 115.477 -5.657) scale(.37038)"><stop offset=".156" stop-color="#ffea00"/><stop offset=".231" stop-color="#ffde00"/><stop offset=".365" stop-color="#ffbf00"/><stop offset=".541" stop-color="#ff8e00"/><stop offset=".763" stop-color="#ff272d"/><stop offset=".796" stop-color="#f92433"/><stop offset=".841" stop-color="#e91b45"/><stop offset=".893" stop-color="#cf0e62"/><stop offset=".935" stop-color="#b5007f"/></radialGradient><linearGradient id="c" gradientUnits="userSpaceOnUse" x1="74.392" y1="70.601" x2="58.457" y2="18.475" gradientTransform="rotate(.421 115.477 -5.657) scale(.37038)"><stop offset="0" stop-color="#000f43" stop-opacity=".4"/><stop offset=".174" stop-color="#00134f" stop-opacity=".331"/><stop offset=".703" stop-color="#001c6d" stop-opacity=".119"/><stop offset="1" stop-color="#002079" stop-opacity="0"/></linearGradient><linearGradient id="i" gradientUnits="userSpaceOnUse" x1="-9096.427" y1="-7084.979" x2="-9070.87" y2="-7091.494" gradientTransform="matrix(.45122 .04896 -.049 .45096 3773.465 3654.604)"><stop offset="0" stop-color="#c42482" stop-opacity=".5"/><stop offset=".474" stop-color="#ff272d" stop-opacity=".5"/><stop offset=".647" stop-color="#ff6f1d" stop-opacity=".665"/><stop offset=".815" stop-color="#ffad0e" stop-opacity=".824"/><stop offset=".937" stop-color="#ffd405" stop-opacity=".94"/><stop offset="1" stop-color="#ffe302"/></linearGradient><linearGradient id="j" gradientUnits="userSpaceOnUse" x1="157.007" y1="-1328.062" x2="152.464" y2="-1339.703" gradientTransform="rotate(6.202 -4605.25 -636.819) scale(.37039)"><stop offset="0" stop-color="#891551" stop-opacity=".6"/><stop offset="1" stop-color="#c42482" stop-opacity="0"/></linearGradient><linearGradient id="k" gradientUnits="userSpaceOnUse" x1="-155.435" y1="289.145" x2="-147.602" y2="298.043" gradientTransform="rotate(6.202 808.542 755.174) scale(.37039)"><stop offset=".005" stop-color="#891551" stop-opacity=".5"/><stop offset=".484" stop-color="#ff272d" stop-opacity=".5"/><stop offset="1" stop-color="#ff272d" stop-opacity="0"/></linearGradient><linearGradient id="l" gradientUnits="userSpaceOnUse" x1="-140.613" y1="304.61" x2="-140.608" y2="298.385" gradientTransform="rotate(6.202 808.542 755.174) scale(.37039)"><stop offset="0" stop-color="#c42482"/><stop offset=".773" stop-color="#c42482" stop-opacity="0"/></linearGradient><linearGradient id="m" gradientUnits="userSpaceOnUse" x1="81.039" y1="12.912" x2="106.481" y2="69.804" gradientTransform="rotate(.421 115.477 -5.657) scale(.37038)"><stop offset="0" stop-color="#fff14f"/><stop offset=".268" stop-color="#ffee4c"/><stop offset=".452" stop-color="#ffe643"/><stop offset=".612" stop-color="#ffd834"/><stop offset=".757" stop-color="#ffc41e"/><stop offset=".892" stop-color="#ffab02"/><stop offset=".902" stop-color="#ffa900"/><stop offset=".949" stop-color="#ffa000"/><stop offset="1" stop-color="#ff9100"/></linearGradient><linearGradient id="n" gradientUnits="userSpaceOnUse" x1="86.063" y1="45.632" x2="74.011" y2="77.99" gradientTransform="rotate(.421 115.477 -5.657) scale(.37038)"><stop offset="0" stop-color="#ff8e00"/><stop offset=".015" stop-color="#ff8e00" stop-opacity=".973"/><stop offset=".282" stop-color="#ff8e00" stop-opacity=".5"/><stop offset="1" stop-color="#ff8e00" stop-opacity="0"/></linearGradient></defs><path d="M45.965 25.46h2.293v-4.769h5.332v-2.148h-5.332v-2.738h5.332v-2.18h-7.625zm9.289 0h2.297v-8.73h-2.297zm1.148-12.687a1.42 1.42 0 00-1.441 1.442c0 .816.59 1.445 1.441 1.445.852 0 1.446-.594 1.446-1.445 0-.813-.594-1.442-1.446-1.442zm5.149 5.29V16.73h-2.223v8.73h2.223v-4.62c0-1.48.738-2.074 1.886-2.074.52 0 .926.148 1.184.297l.817-2.22a3.342 3.342 0 00-1.481-.335c-1.113.039-2 .52-2.406 1.555zm8.625-1.516c-2.63 0-4.59 2.035-4.59 4.586 0 2.555 1.812 4.55 4.625 4.55 1.926 0 3.148-.777 4.039-2.035l-1.852-1.07c-.445.703-1.148 1.184-2.187 1.184-1.293 0-2.219-.703-2.516-1.852h7.035v-.887c0-2.59-1.925-4.476-4.554-4.476zm-2.371 3.59c.37-1.04 1.222-1.703 2.37-1.703 1.184 0 2 .59 2.298 1.703zm8.996-3.739v.332h-1.442v2h1.442v6.73h2.222v-6.73h2.11v-2h-2.11v-.406c0-1.332.188-1.554 1.743-1.554h.367v-2.036h-.59c-2.852-.035-3.742.852-3.742 3.664zm9.48.149c-2.629 0-4.629 2.035-4.629 4.55 0 2.516 2 4.551 4.63 4.551 2.663 0 4.663-2.035 4.663-4.55 0-2.516-2.035-4.551-4.664-4.551zm.035 6.992c-1.332 0-2.406-1.074-2.406-2.441 0-1.371 1.04-2.442 2.406-2.442 1.332 0 2.407 1.07 2.407 2.442 0 1.332-1.075 2.441-2.407 2.441zm13.848-6.809h-2.629l-1.851 2.59-1.852-2.59h-2.664l3.11 4.254-3.258 4.477h2.703l1.96-2.734 2 2.734h2.704l-3.332-4.477zm0 0M104.926 13.668H110c2.223 0 3.668 1.223 3.668 3.148 0 1.149-.559 2.075-1.594 2.555 1.149.48 1.817 1.48 1.817 2.813 0 2.074-1.52 3.37-3.782 3.37h-5.257V13.669zm1.37 1.223v3.925h3.813c1.446 0 2.223-.851 2.223-2 0-1.148-.887-1.925-2.332-1.925zm0 5.183v4.223h3.888c1.484 0 2.41-.89 2.41-2.113 0-1.258-.852-2.11-2.485-2.11zm0 0M115.555 16.742h1.297v1.664c.37-1.183 1.257-1.777 2.52-1.777.593 0 1.108.113 1.48.336l-.555 1.258c-.262-.149-.594-.258-1.074-.258-1.48 0-2.297.851-2.297 2.777v4.813h-1.371zm0 0M120.89 21.148c0-2.554 2-4.593 4.555-4.593 2.555 0 4.59 2 4.59 4.593 0 2.555-2 4.594-4.59 4.594-2.593 0-4.554-2-4.554-4.594zm7.778 0c0-1.89-1.41-3.332-3.223-3.332-1.816 0-3.222 1.442-3.222 3.332 0 1.887 1.37 3.297 3.222 3.297 1.852 0 3.223-1.41 3.223-3.297zm0 0M130.555 16.742h1.41l2.219 6.961 2.707-6.96h1.218l2.633 6.925 2.293-6.926h1.371l-3.035 8.813h-1.223l-2.703-6.961-2.703 6.96h-1.297zm0 0M144.89 23.89l1.145-.78c.594.855 1.485 1.445 2.856 1.445 1.367 0 2.074-.664 2.074-1.52 0-.96-1.223-1.183-2.485-1.441-1.515-.297-3.109-.703-3.109-2.446 0-1.37 1.184-2.554 3.258-2.554 1.629 0 2.742.59 3.52 1.554l-1.114.743c-.515-.707-1.293-1.188-2.406-1.188-1.371 0-1.887.594-1.887 1.406 0 .926 1.074 1.075 2.442 1.371 1.52.297 3.187.704 3.187 2.52 0 1.371-1.187 2.742-3.48 2.742-1.965 0-3.223-.742-4-1.851zm0 0M153.406 21.184c0-2.59 1.965-4.59 4.594-4.59 2.555 0 4.48 1.886 4.48 4.48v.594h-7.777c.188 1.664 1.48 2.852 3.332 2.852 1.41 0 2.336-.63 2.965-1.704l1.148.664c-.89 1.41-2.148 2.223-4.074 2.223-2.851.04-4.668-1.96-4.668-4.52zm1.336-.704h6.367c-.218-1.664-1.406-2.703-3.109-2.703s-2.965 1.149-3.258 2.703zm0 0M164.074 16.742h1.297v1.664c.371-1.183 1.258-1.777 2.52-1.777.59 0 1.109.113 1.48.336l-.555 1.258c-.261-.149-.593-.258-1.074-.258-1.484 0-2.297.851-2.297 2.777v4.813h-1.37zm0 0" fill="#20123a"/><path d="M34.555 5.852c-.739.851-1.11 2.777-.371 4.742.742 1.96 1.89 1.554 2.593 3.554.926 2.63.446 6.184.446 6.184s1.109 3.297 1.925-.184c1.778-6.52-4.628-12.668-4.593-14.296zm0 0" fill="url(#a)"/><path d="M25.297 33c7.555.074 13.738-6.035 13.777-13.629.035-7.594-6-13.816-13.52-13.851C18 5.445 11.817 11.555 11.778 19.148c-.109 7.594 6 13.817 13.52 13.852zm0 0" fill="url(#b)"/><path d="M35.594 27.816c-.297.22-.594.368-.926.555.367-.555.777-1.187 1.184-1.926.296-.336.554-.629.777-.965.113-.148.223-.37.371-.59.777-1.37 1.629-3.632 1.703-5.925v-.188c0-.593-.035-1.148-.148-1.703v.149c0-.04 0-.075-.035-.114 0 .075.035.114.035.188.148 1.332.039 2.629-.555 3.594 0 0 0 .035-.035.035.293-1.446.406-3.074.11-4.668 0 0-.11-.778-1.075-3.149-.555-1.367-1.52-2.515-2.371-3.332-.738-.96-1.445-1.593-1.813-2-.78-.851-1.113-1.48-1.261-1.886-.11-.075-1.63-1.559-1.739-1.594-.668.96-2.78 4.183-1.78 7.183.444 1.372 1.558 2.778 2.741 3.594.04.074.703.778 1 2.371.297 1.664.114 2.961-.554 4.852-.778 1.668-2.817 3.332-4.668 3.48-4 .371-5.446-2.035-5.446-2.035 1.41.59 3 .48 3.965-.113.961-.594 1.555-1.035 2.035-.852.485.188.856-.332.52-.851-.332-.52-1.184-1.297-2.445-1.074-.961.148-1.852.925-3.11.148-.074-.035-.148-.11-.222-.148-.075-.075.257.074.183.039a5.421 5.421 0 01-.777-.559c-.035 0 .187.074.187.04-1.187-1-1.039-1.63-1-2.075.035-.332.258-.742.63-.926.183.11.296.184.296.184s-.074-.149-.113-.223h.039c.148.074.445.262.629.371a.889.889 0 01.297.297s.074-.035 0-.148c0-.036-.075-.223-.297-.407.11.075.222.149.37.258.075-.223.184-.445.15-.851 0-.297 0-.372-.04-.48-.035-.114.04-.15.114-.04 0-.074-.04-.148-.075-.223.11-.332 2.11-1.218 2.258-1.332.223-.148.445-.37.594-.629.11-.183.183-.406.223-.816 0-.258-.114-.441-2.149-.664-.555-.074-.89-.484-1.074-.852-.04-.074-.074-.148-.113-.222-.036-.114-.075-.188-.075-.262.336-.96.891-1.738 1.743-2.332.039-.035-.184 0-.149-.035.04-.04.406-.188.445-.223.075-.039-.332-.222-.703-.187-.37.039-.445.074-.668.148.075-.074.332-.183.297-.183-.406.074-.89.296-1.332.554 0-.039 0-.074.035-.148-.183.074-.703.406-.851.703V9.48a2.126 2.126 0 00-.406.41c-1.149-.484-2.149-.519-3.04-.296-.183-.188-.296-.04-.703-1-.035-.074.04.074 0 0-.074-.188.04.258 0 0-.742.554-1.668 1.183-2.109 1.629 0 0 .516-.149 0 0-.188.035-.188.148-.223 1.148v.223c-.37.441-.629.851-.703 1.035-.484.816-1 2.074-1.52 4.039 0 0 .298-.742.813-1.559-.406 1.04-.851 2.707-.926 5.262 0-.074.149-.703.41-1.555-.074 1.704.075 3.813 1.036 6.22.297.706.742 1.78 1.554 2.964 2.52 2.703 6.114 4.406 10.075 4.406a13.796 13.796 0 0010.41-4.59zm0 0" fill="url(#c)"/><path d="M32.52 29.742c5.035-.558 7.296-5.707 4.445-5.816-2.594-.11-6.817 6.074-4.445 5.816zm0 0" fill="url(#d)"/><path d="M37.332 22.852c3.484-2 2.594-6.332 2.594-6.332s-1.332 1.554-2.258 4c-.926 2.445-2.41 3.515-.336 2.332zm0 0" fill="url(#e)"/><path d="M26.297 32.258c4.812 1.594 8.96-2.184 6.445-3.48-2.336-1.15-8.742 2.742-6.445 3.48zm0 0" fill="url(#f)"/><path d="M37.668 24.703c.11-.148.297-.703.406-.926.852-1.37.89-2.445.89-2.48.516-2.555.481-3.594.184-5.555-.257-1.558-1.332-3.816-2.296-4.89-1-1.11-.297-.743-1.258-1.555-.778-.965-1.594-1.89-2.04-2.262-3.183-2.703-3.109-3.293-3.034-3.367l-.04.035a2.031 2.031 0 01-.109-.258s-1.777 1.739-2.148 4.664c-.258 1.926.445 3.926 1.48 5.188a13.993 13.993 0 001.817 1.812c.777 1.149 1.183 2.52 1.183 4-.035 3.743-3.074 6.743-6.812 6.707-.52 0-1.04-.074-1.52-.187-1.777-.332-2.777-1.258-3.262-1.852-.293-.332-.406-.593-.406-.593 1.594.593 3.332.484 4.406-.11 1.075-.594 1.743-1.039 2.262-.851.52.183.926-.332.555-.852s-1.297-1.262-2.703-1.074c-1.075.148-2.075.887-3.446.148-.074-.039-.183-.113-.257-.148-.075-.04.296.074.222.035-.262-.148-.742-.441-.89-.516-.036 0 .222.075.183.036-1.293-.961-1.144-1.63-1.07-2.036.035-.336.258-.742.664-.925.187.109.297.183.297.183l-.11-.222h.036c.148.074.52.257.703.37.222.15.336.298.336.298s.074-.04 0-.149c0-.039-.075-.223-.336-.406.113.07.261.144.41.258.07-.223.183-.446.183-.852 0-.297 0-.371-.074-.48-.039-.114.035-.149.11-.04a.502.502 0 00-.075-.222c.114-.332 2.336-1.223 2.52-1.332a2.72 2.72 0 00.668-.629c.11-.188.223-.41.258-.816 0-.184-.035-.297-.63-.446-.37-.074-.89-.148-1.741-.258-.63-.074-.961-.445-1.184-.816-.035-.074-.074-.148-.11-.223-.038-.109-.074-.183-.074-.257.368-.926 1-1.743 1.926-2.332.035-.04-.187 0-.148-.04.074-.035.441-.183.515-.222.075-.035-.367-.223-.777-.184-.406.035-.48.074-.703.149.074-.075.371-.188.297-.188-.446.074-1 .297-1.48.559 0-.04 0-.074.034-.149-.222.075-.777.407-.925.703V9c-.149.11-.297.258-.446.406-1.257-.48-2.406-.515-3.332-.297-.222-.183-.554-.48-1-1.406-.035-.074-.035.113-.074.074-.183-.445-.297-1.109-.258-1.593 0 0-.37.187-.703.89-.074.11-.113.184-.148.258 0 .04.035-.223.035-.223-.035.075-.184.223-.258.371-.039.114-.113.188-.148.336v-.148c-.149.258-.258.555-.371.926a8.007 8.007 0 00-.407 2.297v.218c-.41.446-.668.856-.777 1.04-.52.777-1.113 2.035-1.668 4 0 0 .332-.743.89-1.52-.484 1.039-.925 2.703-1.038 5.223 0-.075.148-.704.445-1.555-.113 1.703.074 3.777 1.148 6.148.63 1.407 2.075 4.223 5.59 6.446 0 0 1.223.925 3.297 1.59.148.074.297.113.484.187-.039-.04-.113-.04-.148-.074a14.24 14.24 0 004.258.664c5.406.039 7-2.11 7-2.11l.222-.222c-.851.816-2.816.851-3.52.777 1.263-.371 2.075-.668 3.669-1.258l.555-.222c.039 0 .039-.04.074-.04.039 0 .074-.035.11-.035a13.36 13.36 0 002.187-1.332c1.593-1.261 1.96-2.484 2.148-3.336-.039.075-.113.262-.148.372-.407.89-1.332 1.406-2.332 1.851.406-.52.886-1.183 1.332-1.926.109-.222.222-.742.445-1.074zm0 0" fill="url(#g)"/><path d="M35.703 27.742a9.577 9.577 0 001.703-2.445c1.149-2.371 2.965-6.332 1.594-10.52-1.074-3.297-2.555-5.109-4.445-6.851C31.48 5.036 30.629 3.742 30.629 3c0 0-3.594 3.965-2.074 8.148 1.48 4.149 4.668 4.036 6.742 8.407 2.445 5.113-2.074 10.668-5.817 12.187.223-.039 8.262-1.816 8.704-6.37 0 .073-.184 1.331-2.48 2.37zm0 0" fill="url(#h)"/><path d="M25.445 12.816c0-.261-.113-.445-2.37-.668-.927-.074-1.259-.964-1.372-1.296-.332.851-.48 1.742-.406 2.816.035.703.52 1.48.738 1.926 0 0 .04-.074.074-.074.446-.446 2.223-1.114 2.41-1.188.184-.184.887-.703.926-1.516zm0 0" fill="url(#i)"/><path d="M15.668 7.703c-.04-.074-.04.113-.074.074a3.889 3.889 0 01-.262-1.593s-.367.187-.703.89c-.074.11-.11.184-.149.258 0 .04.04-.223.04-.223-.04.075-.188.223-.262.371-.035.149-.11.188-.149.372v-.149c-.738 1.406-.886 3.555-.812 3.445 1.555-1.668 3.371-2.039 3.371-2.039-.188-.144-.633-.554-1-1.406zm0 0" fill="url(#j)"/><path d="M21.406 25.11c-2.148-.926-4.59-2.258-4.441-5.184.144-3.89 3.629-3.074 3.629-3.074-.149.039-.485.296-.63.554-.148.336-.37 1.074.333 1.89 1.148 1.259-2.371 2.927 3 6.184.148.04-1.223-.074-1.89-.37zm0 0" fill="url(#k)"/><path d="M20.668 23.184c1.516.558 3.297.484 4.367-.11.707-.406 1.633-1 2.188-.851-.48-.188-.852-.297-1.297-.297h-.258c-.148 0-.297 0-.484.039-.258.035-.59.183-.852.144l.262-.109c-.149.035-.297.035-.485.035-.109 0-.183.04-.293.04-3.187.257-5.851-1.778-5.851-1.778-.223.738 1 2.297 2.703 2.887zm0 0" fill="url(#l)"/><path d="M35.703 27.742c3.223-3.113 4.89-6.965 4.223-11.262 0 0 .258 2.223-.817 4.446.52-2.184.594-4.926-.703-7.778-1.738-3.777-4.629-5.816-5.738-6.628C31 5.258 30.297 3.965 30.297 3.703c-.52 1.04-2.074 4.555-.223 7.629 1.742 2.852 4.48 3.742 6.371 6.371 3.52 4.852-.742 10.04-.742 10.04zm0 0" fill="url(#m)"/><path d="M35.297 19.555c-1.113-2.332-2.48-3.332-3.817-4.446.149.223.188.297.262.446 1.149 1.261 2.852 4.297 1.555 8.113-2.406 7.148-11.777 3.703-12.742 2.738.37 4.149 7.297 6.188 11.816 3.52C35 27.48 37.11 23.37 35.297 19.555zm0 0" fill="url(#n)"/></svg>
