<svg width="240" height="161" viewBox="0 0 240 161" fill="none" xmlns="http://www.w3.org/2000/svg">
<g clip-path="url(#clip0_231_7838)">
<path d="M114.137 150.5C152.797 150.5 184.137 119.16 184.137 80.5C184.137 41.84 152.797 10.5 114.137 10.5C75.477 10.5 44.137 41.84 44.137 80.5C44.137 119.16 75.477 150.5 114.137 150.5Z" fill="url(#paint0_radial_231_7838)"/>
<path d="M81.1968 43.6052C81.1968 46.2024 80.168 48.694 78.3352 50.5344C76.5026 52.3748 74.0154 53.4142 71.4182 53.4252H32.107C30.116 53.4252 28.2066 52.6342 26.7988 51.2264C25.391 49.8186 24.6 47.9092 24.6 45.9182C24.6 43.9272 25.391 42.0178 26.7988 40.61C28.2066 39.2022 30.116 38.4112 32.107 38.4112C32.713 38.413 33.3164 38.4892 33.9038 38.6384C33.7716 38.066 33.7024 37.4808 33.6972 36.8932C33.6986 35.8762 33.9002 34.8694 34.2906 33.9304C34.6812 32.9912 35.2528 32.1382 35.9728 31.4202C36.693 30.702 37.5474 30.1326 38.4876 29.7446C39.4276 29.3568 40.435 29.1578 41.452 29.159C43.0128 29.158 44.5368 29.6334 45.82 30.5222C46.6196 27.4642 48.5052 24.802 51.1244 23.0326C53.7436 21.2634 56.9172 20.508 60.0526 20.9076C63.188 21.3074 66.0706 22.8348 68.1622 25.2044C70.2538 27.5742 71.4112 30.6244 71.4182 33.7852C74.0154 33.796 76.5026 34.8354 78.3352 36.676C80.168 38.5164 81.1968 41.0078 81.1968 43.6052Z" fill="url(#paint1_radial_231_7838)"/>
<path d="M203.984 115.454C203.072 115.453 202.162 115.564 201.278 115.784C201.478 114.928 201.578 114.051 201.578 113.171C201.574 111.048 200.992 108.966 199.893 107.149C198.794 105.331 197.221 103.848 195.342 102.858C193.464 101.869 191.351 101.41 189.231 101.531C187.111 101.653 185.064 102.35 183.311 103.548C182.088 98.9548 179.239 94.962 175.294 92.3112C171.35 89.6604 166.576 88.5318 161.862 89.135C157.148 89.738 152.812 92.0322 149.662 95.5908C146.512 99.1494 144.76 103.731 144.733 108.483C140.825 108.483 137.077 110.036 134.313 112.799C131.55 115.563 129.998 119.311 129.998 123.219C129.998 127.127 131.55 130.875 134.313 133.638C137.077 136.401 140.825 137.954 144.733 137.954H203.984C205.49 138 206.99 137.742 208.394 137.197C209.8 136.653 211.08 135.831 212.162 134.782C213.244 133.733 214.102 132.477 214.69 131.09C215.278 129.702 215.58 128.211 215.58 126.704C215.58 125.197 215.278 123.706 214.69 122.318C214.102 120.93 213.244 119.675 212.162 118.625C211.08 117.576 209.8 116.755 208.394 116.21C206.99 115.665 205.49 115.408 203.984 115.454Z" fill="url(#paint2_radial_231_7838)"/>
<path d="M167.664 45.5H100.576C97.4964 45.5 95 47.9965 95 51.076V103.336C95 106.416 97.4964 108.912 100.576 108.912H167.664C170.744 108.912 173.24 106.416 173.24 103.336V51.076C173.24 47.9965 170.744 45.5 167.664 45.5Z" fill="url(#paint3_linear_231_7838)"/>
<path d="M162.842 71.821H167.994V82.1366H162.842V71.821Z" fill="#00DDFF"/>
<path d="M97.3904 77.5H65.576C62.4964 77.5 60 79.9966 60 83.076V136.73C60 139.81 62.4964 142.306 65.576 142.306H97.3904C100.47 142.306 102.967 139.81 102.967 136.73V83.076C102.967 79.9966 100.47 77.5 97.3904 77.5Z" fill="url(#paint4_linear_231_7838)"/>
<path d="M77.4199 131.732H85.4225V135.728H77.4199V131.732Z" fill="#AB71FF"/>
<path d="M143 67C142.602 67 142.221 67.158 141.939 67.4393C141.658 67.7206 141.5 68.1022 141.5 68.5V70.219C140.208 68.8676 138.576 67.8887 136.775 67.3851C134.974 66.8814 133.071 66.8715 131.265 67.3564C129.459 67.8413 127.817 68.8031 126.511 70.141C125.204 71.4788 124.282 73.1435 123.84 74.9605C123.788 75.1533 123.774 75.3547 123.8 75.5529C123.826 75.7511 123.891 75.9421 123.992 76.1146C124.093 76.2872 124.228 76.4378 124.388 76.5577C124.548 76.6775 124.73 76.7642 124.924 76.8126C125.118 76.861 125.32 76.8701 125.517 76.8394C125.715 76.8088 125.904 76.7389 126.074 76.634C126.244 76.5291 126.392 76.3912 126.508 76.2285C126.624 76.0658 126.707 75.8815 126.751 75.6865C127.15 74.065 128.081 72.6241 129.395 71.5934C130.709 70.5627 132.33 70.0018 134 70C135.158 69.9982 136.3 70.2688 137.333 70.7899C138.367 71.3111 139.264 72.0682 139.951 73H137C136.602 73 136.221 73.158 135.939 73.4393C135.658 73.7206 135.5 74.1022 135.5 74.5C135.5 74.8978 135.658 75.2793 135.939 75.5607C136.221 75.842 136.602 76 137 76H143C143.398 76 143.779 75.842 144.061 75.5607C144.342 75.2793 144.5 74.8978 144.5 74.5V68.5C144.5 68.1022 144.342 67.7206 144.061 67.4393C143.779 67.158 143.398 67 143 67ZM143.069 78.2215C142.878 78.1737 142.679 78.164 142.484 78.193C142.289 78.2219 142.102 78.2891 141.933 78.3905C141.764 78.4919 141.617 78.6256 141.499 78.784C141.382 78.9424 141.297 79.1223 141.25 79.3135C140.85 80.9349 139.919 82.3759 138.605 83.4066C137.291 84.4372 135.67 84.9982 134 85C132.842 85.0018 131.7 84.7312 130.667 84.21C129.633 83.6889 128.736 82.9318 128.049 82H131C131.398 82 131.779 81.842 132.061 81.5607C132.342 81.2793 132.5 80.8978 132.5 80.5C132.5 80.1022 132.342 79.7206 132.061 79.4393C131.779 79.158 131.398 79 131 79H125C124.602 79 124.221 79.158 123.939 79.4393C123.658 79.7206 123.5 80.1022 123.5 80.5V86.5C123.5 86.8978 123.658 87.2793 123.939 87.5607C124.221 87.842 124.602 88 125 88C125.398 88 125.779 87.842 126.061 87.5607C126.342 87.2793 126.5 86.8978 126.5 86.5V84.781C127.792 86.1324 129.424 87.1112 131.225 87.6149C133.026 88.1185 134.929 88.1285 136.735 87.6436C138.541 87.1587 140.183 86.1969 141.489 84.859C142.796 83.5211 143.718 81.8565 144.16 80.0395C144.256 79.6538 144.195 79.2457 143.99 78.9048C143.786 78.564 143.455 78.3182 143.069 78.2215Z" fill="white"/>
<path d="M90 99C89.6022 99 89.2206 99.158 88.9393 99.4393C88.658 99.7206 88.5 100.102 88.5 100.5V102.219C87.2077 100.868 85.5756 99.8887 83.7749 99.3851C81.9741 98.8814 80.071 98.8715 78.2651 99.3564C76.4592 99.8413 74.817 100.803 73.5107 102.141C72.2044 103.479 71.2821 105.144 70.8405 106.96C70.7876 107.153 70.7738 107.355 70.7999 107.553C70.826 107.751 70.8914 107.942 70.9924 108.115C71.0933 108.287 71.2277 108.438 71.3877 108.558C71.5477 108.678 71.73 108.764 71.924 108.813C72.118 108.861 72.3196 108.87 72.5172 108.839C72.7147 108.809 72.9041 108.739 73.0743 108.634C73.2445 108.529 73.3919 108.391 73.5081 108.229C73.6242 108.066 73.7066 107.882 73.7505 107.686C74.15 106.065 75.0809 104.624 76.3949 103.593C77.7088 102.563 79.3301 102.002 81 102C82.1577 101.998 83.2995 102.269 84.3332 102.79C85.3669 103.311 86.2635 104.068 86.9505 105H84C83.6022 105 83.2206 105.158 82.9393 105.439C82.658 105.721 82.5 106.102 82.5 106.5C82.5 106.898 82.658 107.279 82.9393 107.561C83.2206 107.842 83.6022 108 84 108H90C90.3978 108 90.7794 107.842 91.0607 107.561C91.342 107.279 91.5 106.898 91.5 106.5V100.5C91.5 100.102 91.342 99.7206 91.0607 99.4393C90.7794 99.158 90.3978 99 90 99ZM90.069 110.221C89.8778 110.174 89.6791 110.164 89.4842 110.193C89.2893 110.222 89.102 110.289 88.933 110.39C88.764 110.492 88.6167 110.626 88.4994 110.784C88.3821 110.942 88.2972 111.122 88.2495 111.313C87.85 112.935 86.9191 114.376 85.6051 115.407C84.2912 116.437 82.6699 116.998 81 117C79.8423 117.002 78.7005 116.731 77.6668 116.21C76.6331 115.689 75.7365 114.932 75.0495 114H78C78.3978 114 78.7794 113.842 79.0607 113.561C79.342 113.279 79.5 112.898 79.5 112.5C79.5 112.102 79.342 111.721 79.0607 111.439C78.7794 111.158 78.3978 111 78 111H72C71.6022 111 71.2206 111.158 70.9393 111.439C70.658 111.721 70.5 112.102 70.5 112.5V118.5C70.5 118.898 70.658 119.279 70.9393 119.561C71.2206 119.842 71.6022 120 72 120C72.3978 120 72.7794 119.842 73.0607 119.561C73.342 119.279 73.5 118.898 73.5 118.5V116.781C74.7923 118.132 76.4244 119.111 78.2251 119.615C80.0259 120.119 81.929 120.128 83.7349 119.644C85.5408 119.159 87.183 118.197 88.4893 116.859C89.7956 115.521 90.7179 113.856 91.1595 112.039C91.2557 111.654 91.1949 111.246 90.9904 110.905C90.786 110.564 90.4546 110.318 90.069 110.221Z" fill="white"/>
</g>
<defs>
<radialGradient id="paint0_radial_231_7838" cx="0" cy="0" r="1" gradientUnits="userSpaceOnUse" gradientTransform="translate(142.317 124.83) scale(133.175)">
<stop offset="0.4" stop-color="#CDCDD4" stop-opacity="0"/>
<stop offset="0.58" stop-color="#CDCDD4" stop-opacity="0.02"/>
<stop offset="0.77" stop-color="#CDCDD4" stop-opacity="0.08"/>
<stop offset="0.96" stop-color="#CDCDD4" stop-opacity="0.18"/>
<stop offset="1" stop-color="#CDCDD4" stop-opacity="0.2"/>
</radialGradient>
<radialGradient id="paint1_radial_231_7838" cx="0" cy="0" r="1" gradientUnits="userSpaceOnUse" gradientTransform="translate(96.3554 104.157) scale(105.955 105.955)">
<stop offset="0.26" stop-color="#CDCDD4" stop-opacity="0"/>
<stop offset="0.4" stop-color="#CDCDD4" stop-opacity="0.02"/>
<stop offset="0.55" stop-color="#CDCDD4" stop-opacity="0.08"/>
<stop offset="0.69" stop-color="#CDCDD4" stop-opacity="0.18"/>
<stop offset="0.72" stop-color="#CDCDD4" stop-opacity="0.2"/>
</radialGradient>
<radialGradient id="paint2_radial_231_7838" cx="0" cy="0" r="1" gradientUnits="userSpaceOnUse" gradientTransform="translate(82.3224 216.7) scale(155.665 155.665)">
<stop offset="0.27" stop-color="#CDCDD4" stop-opacity="0"/>
<stop offset="0.46" stop-color="#CDCDD4" stop-opacity="0.02"/>
<stop offset="0.66" stop-color="#CDCDD4" stop-opacity="0.08"/>
<stop offset="0.86" stop-color="#CDCDD4" stop-opacity="0.18"/>
<stop offset="0.9" stop-color="#CDCDD4" stop-opacity="0.2"/>
</radialGradient>
<linearGradient id="paint3_linear_231_7838" x1="94.0604" y1="117.276" x2="173.189" y2="38.1479" gradientUnits="userSpaceOnUse">
<stop offset="0.43" stop-color="#00B3F4"/>
<stop offset="0.61" stop-color="#00BBF6"/>
<stop offset="0.89" stop-color="#00D2FC"/>
<stop offset="1" stop-color="#00DDFF"/>
</linearGradient>
<linearGradient id="paint4_linear_231_7838" x1="16.0112" y1="175.37" x2="139.128" y2="52.2528" gradientUnits="userSpaceOnUse">
<stop offset="0.28" stop-color="#7542E5"/>
<stop offset="0.42" stop-color="#824DEB"/>
<stop offset="0.79" stop-color="#A067FA"/>
<stop offset="1" stop-color="#AB71FF"/>
</linearGradient>
<clipPath id="clip0_231_7838">
<rect width="240" height="160" fill="white" transform="translate(0 0.5)"/>
</clipPath>
</defs>
</svg>
