<svg height="2in" viewBox="0 0 216 144" width="3in" xmlns="http://www.w3.org/2000/svg" xmlns:xlink="http://www.w3.org/1999/xlink"><radialGradient id="a" cx="175.51" cy="110.52" gradientUnits="userSpaceOnUse" r="102.61"><stop offset=".26" stop-color="#cdcdd4" stop-opacity="0"/><stop offset=".4" stop-color="#cdcdd4" stop-opacity=".02"/><stop offset=".55" stop-color="#cdcdd4" stop-opacity=".08"/><stop offset=".69" stop-color="#cdcdd4" stop-opacity=".18"/><stop offset=".72" stop-color="#cdcdd4" stop-opacity=".2"/></radialGradient><radialGradient id="b" cx="-36.84" cy="188.49" gradientUnits="userSpaceOnUse" r="150.75"><stop offset=".27" stop-color="#cdcdd4" stop-opacity="0"/><stop offset=".46" stop-color="#cdcdd4" stop-opacity=".02"/><stop offset=".66" stop-color="#cdcdd4" stop-opacity=".08"/><stop offset=".86" stop-color="#cdcdd4" stop-opacity=".18"/><stop offset=".9" stop-color="#cdcdd4" stop-opacity=".2"/></radialGradient><radialGradient id="c" cx="129.21" cy="117.26" gradientTransform="matrix(1 0 0 .7 0 35.37)" gradientUnits="userSpaceOnUse" r="112.67"><stop offset=".4" stop-color="#cdcdd4" stop-opacity="0"/><stop offset=".58" stop-color="#cdcdd4" stop-opacity=".02"/><stop offset=".77" stop-color="#cdcdd4" stop-opacity=".08"/><stop offset=".96" stop-color="#cdcdd4" stop-opacity=".18"/><stop offset="1" stop-color="#cdcdd4" stop-opacity=".2"/></radialGradient><linearGradient id="d" gradientUnits="userSpaceOnUse" x1="81.77" x2="139.48" y1="98.19" y2="40.49"><stop offset=".43" stop-color="#00b3f4"/><stop offset=".61" stop-color="#00bbf6"/><stop offset=".89" stop-color="#00d2fc"/><stop offset="1" stop-color="#0df"/></linearGradient><linearGradient id="e" gradientUnits="userSpaceOnUse" x1="69.97" x2="127.67" y1="101.49" y2="43.79"><stop offset=".77" stop-color="#0df"/><stop offset=".8" stop-color="#0df" stop-opacity=".99"/><stop offset=".83" stop-color="#0df" stop-opacity=".94"/><stop offset=".86" stop-color="#0df" stop-opacity=".87"/><stop offset=".89" stop-color="#0df" stop-opacity=".77"/><stop offset=".91" stop-color="#0df" stop-opacity=".64"/><stop offset=".94" stop-color="#0df" stop-opacity=".48"/><stop offset=".97" stop-color="#0df" stop-opacity=".28"/><stop offset=".99" stop-color="#0df" stop-opacity=".07"/><stop offset="1" stop-color="#0df" stop-opacity="0"/></linearGradient><path d="m160.83 51.89a9.51 9.51 0 0 1 -9.47 9.51h-38.07a7.27 7.27 0 0 1 0-14.54 7.15 7.15 0 0 1 1.74.22 7.81 7.81 0 0 1 -.19-1.69 7.5 7.5 0 0 1 11.73-6.18 12.6 12.6 0 0 1 24.79 3.17 9.51 9.51 0 0 1 9.47 9.51z" fill="url(#a)"/><path d="m81 90.45a10.74 10.74 0 0 0 -2.62.32 11.31 11.31 0 0 0 -17.38-11.85 19 19 0 0 0 -37.37 4.77 14.27 14.27 0 0 0 0 28.54h57.37a10.89 10.89 0 1 0 0-21.78z" fill="url(#b)"/><path d="m24.87 72.66a22.54 22.54 0 0 1 22.45-22.66l120.77-.48a22.53 22.53 0 1 1 .18 45.06l-120.77.53a22.54 22.54 0 0 1 -22.63-22.45z" fill="url(#c)"/><path d="m132 111.74-47.73.2a7.07 7.07 0 0 1 -7.1-7l-.27-65.58a7.08 7.08 0 0 1 7.1-7.17l29.72-.13a7.14 7.14 0 0 1 5 2l18.06 17.94a7.1 7.1 0 0 1 2.11 5l.19 47.63a7.09 7.09 0 0 1 -7.08 7.11z" fill="url(#d)"/><path d="m136.52 52.63-18.07-17.86a7.06 7.06 0 0 0 -5-2.05h-1.15l.08 19.59a7.07 7.07 0 0 0 7.1 7l19.16-.08v-1.59a7.11 7.11 0 0 0 -2.12-5.01z" fill="url(#e)"/><g fill="#f9f9fa"><path d="m95.35 55.58a.35.35 0 0 0 0-.28l-.74-1.3a.36.36 0 0 0 -.22-.16.35.35 0 0 0 -.28.06l-1.64 1.23.25-2a.3.3 0 0 0 -.08-.27.34.34 0 0 0 -.25-.11h-1.46a.33.33 0 0 0 -.25.11.33.33 0 0 0 -.09.27l.26 2-1.64-1.24a.38.38 0 0 0 -.27-.07.33.33 0 0 0 -.23.17l-.71 1.27a.32.32 0 0 0 0 .27.33.33 0 0 0 .19.21l1.9.82-1.9.8a.34.34 0 0 0 -.19.2.35.35 0 0 0 0 .28l.71 1.26a.33.33 0 0 0 .22.16.35.35 0 0 0 .28-.06l1.64-1.2-.26 2a.34.34 0 0 0 .09.27.33.33 0 0 0 .25.11h1.46a.34.34 0 0 0 .25-.11.3.3 0 0 0 .08-.27l-.25-2 1.6 1.24a.32.32 0 0 0 .27.06.3.3 0 0 0 .23-.16l.75-1.26a.34.34 0 0 0 0-.28.33.33 0 0 0 -.2-.2l-1.9-.79 1.9-.79a.39.39 0 0 0 .23-.24zm10.9 0a.35.35 0 0 0 0-.28l-.74-1.3a.36.36 0 0 0 -.22-.16.35.35 0 0 0 -.28.06l-1.64 1.23.25-2a.3.3 0 0 0 -.08-.27.34.34 0 0 0 -.25-.11h-1.46a.33.33 0 0 0 -.25.11.33.33 0 0 0 -.09.27l.26 2-1.64-1.24a.38.38 0 0 0 -.27-.07.33.33 0 0 0 -.23.17l-.73 1.24a.32.32 0 0 0 0 .27.33.33 0 0 0 .19.21l1.9.82-1.9.8a.37.37 0 0 0 -.19.2.35.35 0 0 0 0 .28l.71 1.26a.36.36 0 0 0 .22.16.35.35 0 0 0 .28-.06l1.66-1.17-.26 2a.34.34 0 0 0 .09.27.33.33 0 0 0 .25.11h1.46a.34.34 0 0 0 .25-.11.3.3 0 0 0 .08-.27l-.25-2 1.63 1.2a.33.33 0 0 0 .27.06.3.3 0 0 0 .23-.16l.75-1.26a.34.34 0 0 0 0-.28.33.33 0 0 0 -.2-.2l-1.9-.79 1.9-.79a.39.39 0 0 0 .2-.2zm-10.9 11.31a.32.32 0 0 0 0-.27l-.71-1.26a.34.34 0 0 0 -.22-.17.35.35 0 0 0 -.28.06l-1.64 1.24.25-2a.29.29 0 0 0 -.08-.26.35.35 0 0 0 -.25-.12h-1.49a.33.33 0 0 0 -.25.12.32.32 0 0 0 -.09.26l.26 2-1.64-1.25a.37.37 0 0 0 -.27-.06.35.35 0 0 0 -.23.16l-.71 1.23a.35.35 0 0 0 0 .28.36.36 0 0 0 .19.21l1.9.82-1.9.8a.31.31 0 0 0 -.19.2.32.32 0 0 0 0 .27l.71 1.26a.32.32 0 0 0 .22.17.35.35 0 0 0 .28-.06l1.66-1.25-.26 2.06a.32.32 0 0 0 .09.26.3.3 0 0 0 .25.12h1.46a.32.32 0 0 0 .25-.12.29.29 0 0 0 .08-.26l-.25-2 1.6 1.24a.32.32 0 0 0 .27.06.35.35 0 0 0 .23-.16l.75-1.26a.34.34 0 0 0 0-.28.31.31 0 0 0 -.2-.2l-1.9-.79 1.9-.79a.38.38 0 0 0 .21-.26zm10.9 0a.32.32 0 0 0 0-.27l-.71-1.26a.34.34 0 0 0 -.22-.17.35.35 0 0 0 -.28.06l-1.64 1.24.25-2a.29.29 0 0 0 -.08-.26.35.35 0 0 0 -.25-.12h-1.46a.33.33 0 0 0 -.25.12.32.32 0 0 0 -.09.26l.26 2-1.64-1.25a.37.37 0 0 0 -.27-.06.35.35 0 0 0 -.23.16l-.73 1.24a.35.35 0 0 0 0 .28.36.36 0 0 0 .19.21l1.9.82-1.9.8a.34.34 0 0 0 -.19.2.32.32 0 0 0 0 .27l.71 1.26a.34.34 0 0 0 .22.17.35.35 0 0 0 .28-.06l1.66-1.25-.26 2.06a.32.32 0 0 0 .09.26.3.3 0 0 0 .25.12h1.46a.32.32 0 0 0 .25-.12.29.29 0 0 0 .08-.26l-.25-2 1.6 1.24a.33.33 0 0 0 .27.06.35.35 0 0 0 .23-.16l.75-1.26a.34.34 0 0 0 0-.28.31.31 0 0 0 -.2-.2l-1.9-.79 1.9-.79a.38.38 0 0 0 .2-.27zm10.9 0a.32.32 0 0 0 0-.27l-.71-1.26a.34.34 0 0 0 -.22-.17.35.35 0 0 0 -.28.06l-1.64 1.24.25-2a.29.29 0 0 0 -.08-.26.33.33 0 0 0 -.25-.12h-1.46a.33.33 0 0 0 -.25.12.29.29 0 0 0 -.08.26l.25 2-1.68-1.26a.37.37 0 0 0 -.27-.06.35.35 0 0 0 -.23.16l-.73 1.24a.35.35 0 0 0 0 .28.36.36 0 0 0 .19.21l1.91.82-1.91.8a.34.34 0 0 0 -.19.2.32.32 0 0 0 0 .27l.71 1.26a.34.34 0 0 0 .22.17.35.35 0 0 0 .28-.06l1.66-1.25-.25 2.06a.29.29 0 0 0 .08.26.3.3 0 0 0 .25.12h1.46a.3.3 0 0 0 .25-.12.29.29 0 0 0 .08-.26l-.25-2 1.6 1.24a.33.33 0 0 0 .27.06.35.35 0 0 0 .23-.16l.75-1.26a.34.34 0 0 0 0-.28.31.31 0 0 0 -.19-.2l-1.91-.79 1.99-.84a.36.36 0 0 0 .15-.21zm10.9 0a.32.32 0 0 0 0-.27l-.71-1.26a.32.32 0 0 0 -.22-.17.35.35 0 0 0 -.28.06l-1.64 1.24.26-2a.32.32 0 0 0 -.09-.26.33.33 0 0 0 -.25-.12h-1.46a.35.35 0 0 0 -.25.12.29.29 0 0 0 -.08.26l.25 2-1.64-1.25a.37.37 0 0 0 -.27-.06.35.35 0 0 0 -.23.16l-.73 1.24a.35.35 0 0 0 0 .28.36.36 0 0 0 .19.21l1.91.82-1.91.8a.37.37 0 0 0 -.19.2.32.32 0 0 0 0 .27l.71 1.26a.34.34 0 0 0 .22.17.35.35 0 0 0 .28-.06l1.66-1.25-.25 2.06a.29.29 0 0 0 .08.26.32.32 0 0 0 .25.12h1.46a.3.3 0 0 0 .25-.12.32.32 0 0 0 .09-.26l-.26-2 1.6 1.24a.33.33 0 0 0 .27.06.35.35 0 0 0 .23-.16l.75-1.26a.34.34 0 0 0 0-.28.31.31 0 0 0 -.19-.2l-1.86-.85 1.91-.79a.33.33 0 0 0 .14-.21z"/><path d="m95.35 78.21a.35.35 0 0 0 0-.28l-.71-1.25a.34.34 0 0 0 -.22-.17.35.35 0 0 0 -.28.06l-1.67 1.23.25-2a.29.29 0 0 0 -.08-.26.32.32 0 0 0 -.25-.12h-1.46a.3.3 0 0 0 -.25.12.32.32 0 0 0 -.09.26l.26 2-1.64-1.25a.33.33 0 0 0 -.27-.06.35.35 0 0 0 -.23.16l-.71 1.24a.33.33 0 0 0 .16.48l1.9.83-1.9.79a.33.33 0 0 0 -.19.21.32.32 0 0 0 0 .27l.71 1.26a.32.32 0 0 0 .22.17.35.35 0 0 0 .28-.06l1.66-1.26-.26 2.07a.32.32 0 0 0 .09.26.33.33 0 0 0 .25.12h1.46a.35.35 0 0 0 .25-.12.29.29 0 0 0 .08-.26l-.25-2.05 1.6 1.23a.33.33 0 0 0 .27.07.35.35 0 0 0 .23-.16l.75-1.26a.34.34 0 0 0 -.17-.49l-1.9-.79 1.9-.79a.36.36 0 0 0 .21-.2zm10.9 0a.35.35 0 0 0 0-.28l-.71-1.25a.34.34 0 0 0 -.22-.17.35.35 0 0 0 -.28.06l-1.64 1.23.25-2a.29.29 0 0 0 -.08-.26.32.32 0 0 0 -.25-.12h-1.46a.3.3 0 0 0 -.25.12.32.32 0 0 0 -.09.26l.26 2-1.64-1.25a.33.33 0 0 0 -.27-.06.35.35 0 0 0 -.23.16l-.73 1.24a.33.33 0 0 0 .16.48l1.9.83-1.97.8a.36.36 0 0 0 -.19.21.32.32 0 0 0 0 .27l.71 1.26a.34.34 0 0 0 .22.17.35.35 0 0 0 .28-.06l1.66-1.26-.26 2.07a.32.32 0 0 0 .09.26.33.33 0 0 0 .25.12h1.46a.35.35 0 0 0 .25-.12.29.29 0 0 0 .08-.26l-.25-2.05 1.6 1.23a.34.34 0 0 0 .27.07.35.35 0 0 0 .23-.16l.75-1.26a.34.34 0 0 0 -.17-.49l-1.9-.79 1.9-.79a.36.36 0 0 0 .27-.21zm10.9 0a.35.35 0 0 0 0-.28l-.71-1.25a.34.34 0 0 0 -.22-.17.35.35 0 0 0 -.28.06l-1.64 1.23.25-2a.29.29 0 0 0 -.08-.26.3.3 0 0 0 -.25-.12h-1.46a.3.3 0 0 0 -.25.12.29.29 0 0 0 -.08.26l.25 2-1.68-1.25a.33.33 0 0 0 -.27-.06.35.35 0 0 0 -.23.16l-.73 1.24a.33.33 0 0 0 .16.48l1.91.83-1.91.79a.36.36 0 0 0 -.19.21.32.32 0 0 0 0 .27l.71 1.26a.34.34 0 0 0 .22.17.35.35 0 0 0 .28-.06l1.66-1.26-.25 2.07a.29.29 0 0 0 .08.26.33.33 0 0 0 .25.12h1.46a.33.33 0 0 0 .25-.12.29.29 0 0 0 .08-.26l-.25-2.05 1.6 1.23a.34.34 0 0 0 .27.07.35.35 0 0 0 .23-.16l.75-1.26a.35.35 0 0 0 0-.28.36.36 0 0 0 -.08-.2l-1.91-.79 1.91-.79a.34.34 0 0 0 .15-.21zm10.9 0a.35.35 0 0 0 0-.28l-.71-1.25a.32.32 0 0 0 -.22-.17.35.35 0 0 0 -.28.06l-1.64 1.23.26-2a.32.32 0 0 0 -.09-.26.3.3 0 0 0 -.25-.12h-1.46a.32.32 0 0 0 -.25.12.29.29 0 0 0 -.08.26l.25 2-1.64-1.25a.33.33 0 0 0 -.27-.06.35.35 0 0 0 -.23.16l-.73 1.24a.33.33 0 0 0 .16.48l1.91.83-1.91.79a.39.39 0 0 0 -.19.21.32.32 0 0 0 0 .27l.71 1.26a.34.34 0 0 0 .22.17.35.35 0 0 0 .28-.06l1.66-1.26-.25 2.07a.29.29 0 0 0 .08.26.35.35 0 0 0 .25.12h1.46a.33.33 0 0 0 .25-.12.32.32 0 0 0 .09-.26l-.26-2.05 1.6 1.23a.34.34 0 0 0 .27.07.35.35 0 0 0 .23-.16l.75-1.26a.35.35 0 0 0 0-.28.36.36 0 0 0 -.19-.21l-1.83-.79 1.91-.79a.31.31 0 0 0 .14-.2z"/><path d="m95.35 89.53a.35.35 0 0 0 0-.28l-.74-1.25a.36.36 0 0 0 -.22-.16.35.35 0 0 0 -.28.06l-1.64 1.23.25-2a.3.3 0 0 0 -.08-.27.34.34 0 0 0 -.25-.11h-1.46a.33.33 0 0 0 -.25.11.34.34 0 0 0 -.09.27l.26 2-1.64-1.24a.33.33 0 0 0 -.27-.06.32.32 0 0 0 -.23.16l-.71 1.22a.32.32 0 0 0 0 .27.33.33 0 0 0 .19.21l1.9.82-1.9.8a.34.34 0 0 0 -.19.2.35.35 0 0 0 0 .28l.71 1.26a.33.33 0 0 0 .22.16.35.35 0 0 0 .28-.06l1.66-1.25-.28 2.1a.33.33 0 0 0 .09.27.33.33 0 0 0 .25.11h1.46a.34.34 0 0 0 .25-.11.3.3 0 0 0 .08-.27l-.25-2 1.6 1.23a.37.37 0 0 0 .27.07.35.35 0 0 0 .23-.16l.75-1.26a.35.35 0 0 0 0-.28.32.32 0 0 0 -.2-.21l-1.9-.79 1.9-.79a.39.39 0 0 0 .23-.28zm10.9 0a.35.35 0 0 0 0-.28l-.74-1.25a.36.36 0 0 0 -.22-.16.35.35 0 0 0 -.28.06l-1.64 1.23.25-2a.3.3 0 0 0 -.08-.27.34.34 0 0 0 -.25-.11h-1.46a.33.33 0 0 0 -.25.11.34.34 0 0 0 -.09.27l.26 2-1.64-1.24a.33.33 0 0 0 -.27-.06.32.32 0 0 0 -.23.16l-.73 1.24a.32.32 0 0 0 0 .27.33.33 0 0 0 .19.21l1.9.82-1.9.8a.37.37 0 0 0 -.19.2.35.35 0 0 0 0 .28l.71 1.26a.36.36 0 0 0 .22.16.35.35 0 0 0 .28-.06l1.66-1.25-.26 2.08a.33.33 0 0 0 .09.27.33.33 0 0 0 .25.11h1.46a.34.34 0 0 0 .25-.11.3.3 0 0 0 .08-.27l-.25-2 1.6 1.23a.38.38 0 0 0 .27.07.35.35 0 0 0 .23-.16l.75-1.26a.35.35 0 0 0 0-.28.32.32 0 0 0 -.2-.21l-1.9-.79 1.9-.79a.39.39 0 0 0 .23-.28zm10.9 0a.35.35 0 0 0 0-.28l-.74-1.25a.36.36 0 0 0 -.22-.16.35.35 0 0 0 -.28.06l-1.64 1.23.25-2a.3.3 0 0 0 -.08-.27.33.33 0 0 0 -.25-.11h-1.46a.33.33 0 0 0 -.25.11.3.3 0 0 0 -.08.27l.25 2-1.65-1.26a.33.33 0 0 0 -.27-.06.32.32 0 0 0 -.23.16l-.73 1.24a.32.32 0 0 0 0 .27.33.33 0 0 0 .19.21l1.91.82-1.91.8a.37.37 0 0 0 -.19.2.35.35 0 0 0 0 .28l.71 1.26a.36.36 0 0 0 .22.16.35.35 0 0 0 .28-.06l1.66-1.25-.24 2.1a.3.3 0 0 0 .08.27.33.33 0 0 0 .25.11h1.46a.33.33 0 0 0 .25-.11.3.3 0 0 0 .08-.27l-.25-2 1.6 1.23a.38.38 0 0 0 .27.07.35.35 0 0 0 .23-.16l.75-1.26a.35.35 0 0 0 0-.28.33.33 0 0 0 -.19-.21l-1.91-.79 1.91-.79a.37.37 0 0 0 .22-.28zm10.9 0a.35.35 0 0 0 0-.28l-.74-1.25a.33.33 0 0 0 -.22-.16.35.35 0 0 0 -.28.06l-1.64 1.23.26-2a.34.34 0 0 0 -.09-.27.33.33 0 0 0 -.25-.11h-1.46a.34.34 0 0 0 -.25.11.3.3 0 0 0 -.08.27l.25 2-1.64-1.24a.33.33 0 0 0 -.27-.06.32.32 0 0 0 -.23.16l-.73 1.24a.32.32 0 0 0 0 .27.33.33 0 0 0 .19.21l1.91.82-1.91.8a.41.41 0 0 0 -.19.2.35.35 0 0 0 0 .28l.71 1.26a.36.36 0 0 0 .22.16.35.35 0 0 0 .28-.06l1.66-1.25-.25 2.08a.3.3 0 0 0 .08.27.34.34 0 0 0 .25.11h1.46a.33.33 0 0 0 .25-.11.33.33 0 0 0 .09-.27l-.26-2 1.6 1.23a.38.38 0 0 0 .27.07.35.35 0 0 0 .23-.16l.73-1.34a.35.35 0 0 0 0-.28.33.33 0 0 0 -.19-.21l-1.81-.79 1.91-.79a.34.34 0 0 0 .14-.2z"/></g></svg>