<svg id="Layer_1" data-name="Layer 1" xmlns="http://www.w3.org/2000/svg" xmlns:xlink="http://www.w3.org/1999/xlink" viewBox="0 0 101.1 71.3"><defs><style>.cls-1{fill:#eaeaee;}.cls-2{fill:#ccedf0;}.cls-3{fill:url(#New_Gradient_Swatch_1);}.cls-4{fill:#fff;}.cls-5{fill:#9cf;}.cls-6{fill:url(#linear-gradient);}.cls-7{fill:url(#linear-gradient-2);}.cls-8{fill:#59acff;}.cls-9{fill:#90e8f0;}</style><linearGradient id="New_Gradient_Swatch_1" x1="-12.54" y1="-47.45" x2="128.88" y2="93.98" gradientUnits="userSpaceOnUse"><stop offset="0" stop-color="#00c8d7"/><stop offset="1" stop-color="#0a84ff"/></linearGradient><linearGradient id="linear-gradient" x1="60.48" y1="24.43" x2="80.51" y2="24.43" gradientUnits="userSpaceOnUse"><stop offset="0" stop-color="#02bdde"/><stop offset="1" stop-color="#04aee7"/></linearGradient><linearGradient id="linear-gradient-2" x1="70.12" y1="32.59" x2="75.2" y2="32.59" xlink:href="#linear-gradient"/></defs><title>Artboard 9</title><path class="cls-1" d="M32.59 71.3a1 1 0 0 1-1-1c0-21.91-28.94-34.79-29.23-34.92a1 1 0 0 1 .8-1.83 72 72 0 0 1 15.15 9.5c10 8.18 15.28 17.61 15.28 27.25a1 1 0 0 1-1 1zm5.17-1a26.89 26.89 0 0 1 8.78-20.21 1 1 0 0 0-1.23-1.58 28.4 28.4 0 0 0-9.56 21.79 1 1 0 0 0 2 0zM35 58.64a49.43 49.43 0 0 1 3.58-6.54.5.5 0 0 0-.84-.55 52 52 0 0 0-3.16 5.62c-.3-.72-.77-1.77-1.44-3a.5.5 0 0 0-.89.46 33.48 33.48 0 0 1 1.81 4 .5.5 0 0 0 .45.34.5.5 0 0 0 .49-.33zm-6.93-11.43a.5.5 0 0 0 .08-.7l-.64-.78a.5.5 0 1 0-.77.64l.62.77a.5.5 0 0 0 .7.08zm15.53-1.08c.23-.19.46-.37.69-.54a.5.5 0 0 0-.59-.81c-.25.18-.5.38-.74.58a.5.5 0 0 0 .64.77zm-18.81-2.69a.5.5 0 0 0 0-.71c-.69-.69-1.43-1.39-2.21-2.08a.5.5 0 1 0-.66.75c.76.67 1.49 1.36 2.16 2a.5.5 0 0 0 .71 0zm-8.45-7a.5.5 0 0 0-.13-.69 75.39 75.39 0 0 0-10.51-6 .5.5 0 0 0-.41.91 74.35 74.35 0 0 1 10.35 5.91.5.5 0 0 0 .69-.13zm11 34.77a.5.5 0 0 0 .45-.54 30 30 0 0 0-1.31-6.37.5.5 0 0 0-1 .31 29 29 0 0 1 1.26 6.16.5.5 0 0 0 .5.45zm-5-14.41a.5.5 0 0 0 .14-.69l-.57-.83a.5.5 0 0 0-.82.58l.56.81a.5.5 0 0 0 .69.14zm-3-4a.5.5 0 0 0 0-.71c-.65-.75-1.35-1.5-2.07-2.22a.5.5 0 0 0-.71.71c.71.71 1.39 1.44 2 2.17a.5.5 0 0 0 .71 0zm-8.07-7.5a.5.5 0 0 0-.11-.7A56.6 56.6 0 0 0 .69 38.48a.5.5 0 1 0-.38.92 55.44 55.44 0 0 1 10.26 6 .5.5 0 0 0 .7-.11zM41.8 70.93a.5.5 0 0 0 .45-.55v-1a21.66 21.66 0 0 1 2.6-10.22.5.5 0 1 0-.88-.48 22.67 22.67 0 0 0-2.72 10.7v1.15a.5.5 0 0 0 .5.45z"/><path class="cls-2" d="M51.67 53.37c1.07-2.15 2.58-5.12 4.5-8.82 1.16-2.24 2.33-4.48 3.36-6.44l-19.38-4.53L50.5 55.79c.3-.65.69-1.45 1.17-2.42zM78.46 29.34l7 1.56c4.07.91 7.32 1.66 9.66 2.23 1.07.26 2 .49 2.65.67L87.46 11.58zM96.24 41.24a5 5 0 0 0 2.84-4.86c0-.39-13.3-3.35-21.55-5.15l-2.33 4.53c-1.18 2.24-2.73 4.31-6 4.31a12.83 12.83 0 0 1-2.55-.3h-.06l-5-1.18C57.62 46 51.33 58.15 51.6 58.43a4.32 4.32 0 0 0 2 1.2h.05a4.86 4.86 0 0 0 1.4.21 5 5 0 0 0 1.57-.25h.06c.15-.05.3-.08.45-.15z"/><path class="cls-3" d="M100.91 35.5a1.77 1.77 0 0 0-.34-.51L89 10.24a6.84 6.84 0 0 0-1.12-1.68 6 6 0 0 0-2.69-2.05A5.22 5.22 0 0 0 83 6h-.27L58.44.3h-.06a12.26 12.26 0 0 0-2.43-.3c-3.17 0-4.66 2-5.8 4.14L38.37 27.4a5.73 5.73 0 0 0-.55 1 7 7 0 0 0-.35 3.21 1.92 1.92 0 0 0 .06.22 6.89 6.89 0 0 0 .6 2.17l11.48 24.61a1.8 1.8 0 0 0 .36 1 2 2 0 0 0 .34.37 6.94 6.94 0 0 0 1.82 1.25 5.31 5.31 0 0 0 .75.28l.2.07h.18a6.86 6.86 0 0 0 1.85.25 7 7 0 0 0 2.07-.32h.16l.16-.06a3.77 3.77 0 0 0 .56-.2l39-18.18a6.91 6.91 0 0 0 4-6.6 2 2 0 0 0-.15-.97zM56.77 59.57h-.06a5 5 0 0 1-1.57.25 4.86 4.86 0 0 1-1.4-.21h-.05a4.32 4.32 0 0 1-2-1.2c-.27-.28 6-12.38 9.94-19.85l5 1.18h.06a12.83 12.83 0 0 0 2.55.3c3.29 0 4.84-2.07 6-4.31l2.32-4.58C85.78 33 99 35.94 99.08 36.33a5 5 0 0 1-2.84 4.86l-39 18.18c-.17.12-.32.15-.47.2zM58 2.25L82.61 8A2.58 2.58 0 0 1 83 8a3.24 3.24 0 0 1 1.38.35 4.28 4.28 0 0 1 1.84 1.25l-5.89 11.61.17.09-1.56 3.08-.18-.08L75 31.71l.19.07-1.57 3.1-.19-.07c-1.24 2.34-2.31 3.25-4.25 3.25a10.15 10.15 0 0 1-1.69-.18l-.07.2-.29-.08-3.13-.69.07-.19L56 35.23l-.07.19-3.38-.79.07-.19-13.17-3.08a5.43 5.43 0 0 1 .2-2.19 4.13 4.13 0 0 1 .44-.73L51.92 5.07C53.09 2.86 54.11 2 55.95 2a10.47 10.47 0 0 1 2.05.25zM97.81 33.8c-.7-.19-1.58-.41-2.65-.67-2.34-.57-5.58-1.32-9.66-2.23l-7-1.56 9-17.76zm-38.28 4.31c-1 2-2.2 4.2-3.36 6.44-1.92 3.7-3.43 6.67-4.5 8.82-.48 1-.87 1.77-1.17 2.42L40.15 33.58z"/><path class="cls-4" d="M51.92 5.07L40.09 28.43a4.13 4.13 0 0 0-.44.73 5.43 5.43 0 0 0-.2 2.19l13.15 3.09 1.31-3.59 1.64-4.49a7.57 7.57 0 0 1 4.45-4.5 8.36 8.36 0 0 1 1.22-2.37.5.5 0 1 1 .8.6 7.27 7.27 0 0 0-.83 1.43 7.59 7.59 0 0 1 9.45-3.88l8.93 3.25a7.7 7.7 0 0 1 .75.32l5.9-11.61a4.28 4.28 0 0 0-1.83-1.28A3.24 3.24 0 0 0 83 8a2.58 2.58 0 0 0-.4 0L58 2.25A10.47 10.47 0 0 0 56 2c-1.89 0-2.91.86-4.08 3.07z"/><path class="cls-4" d="M65.56 26.79a.5.5 0 0 1 .69.14 3.62 3.62 0 0 1 .5 1.77A4.05 4.05 0 0 0 65 25.58a2.5 2.5 0 0 0 .08.25.5.5 0 0 1-.25.64.5.5 0 0 1-.65-.27A4.36 4.36 0 0 1 64 25a4 4 0 0 0 1.74 3.11 2.45 2.45 0 0 0-.25-.65.5.5 0 0 1 .07-.67zM69.48 20.88a4.13 4.13 0 0 0-4.28.92 5.38 5.38 0 0 1 1.35-.88.5.5 0 0 1 .42.91 4.65 4.65 0 0 0-.74.43 7.56 7.56 0 0 1 3.94 7.68l.2-.64a.5.5 0 1 1 1 .3l-.22.68L75 31.71l3.75-7.4c-.12-.06-.24-.13-.36-.17zM69.84 34.47a.5.5 0 0 1-.27.3.49.49 0 0 1-.36 0 .5.5 0 0 1-.33-.63l.25-.79-1.64 4.51a10.15 10.15 0 0 0 1.69.18c1.94 0 3-.91 4.25-3.25l-3.33-1.21zM65.94 32.07l-.76 2a.5.5 0 1 1-.93-.37l.76-2a7.54 7.54 0 0 1-4.46-6.24 5.62 5.62 0 0 0 .16 1.23.5.5 0 0 1-.09.6.49.49 0 0 1-.13.09.5.5 0 0 1-.57-.11 2.59 2.59 0 0 1-.28-1 4.1 4.1 0 0 0-.78 1.29L57.87 30 56 35.23l8.12 1.9z"/><path class="cls-5" d="M60.48 25.46a7.52 7.52 0 0 1 0-.79c-.01.27-.01.55 0 .79zM64.51 22.65l.06-.09zM61.21 21.52c-.07.17-.14.33-.2.5.06-.17.12-.34.2-.5zM65.23 21.81a4.1 4.1 0 0 0-.42.48 4.11 4.11 0 0 1 .42-.48zM64 24.22v-.16zM63.94 24.65v0z"/><path class="cls-6" d="M70.66 17.64a7.59 7.59 0 0 0-9.45 3.88c-.08.16-.15.33-.21.5a9.05 9.05 0 0 0-.51 2.63 7.52 7.52 0 0 0 0 .79A7.54 7.54 0 0 0 65 31.69c.26-.71.52-1.48.68-2.06a3 3 0 0 0 0-1.5A4 4 0 0 1 63.93 25v-.37a4.18 4.18 0 0 1 0-.43v-.16a3.67 3.67 0 0 1 .52-1.4l.06-.09c.06-.09.14-.18.21-.27a4.11 4.11 0 0 1 4.71-1.41l8.93 3.25c.13 0 .24.12.36.17l.18.08 1.56-3.08-.17-.09a7.7 7.7 0 0 0-.75-.32z"/><path class="cls-7" d="M70.12 33.59l3.33 1.21.19.07 1.56-3.1-.18-.06-3.86-1.41-1.04 3.29z"/><path class="cls-8" d="M70.21 30v.13zM66.61 29.89c-.17.63-.44 1.43-.71 2.17l.62-1.7a4.12 4.12 0 0 0 .24-1.65 4 4 0 0 1-.15 1.18z"/><path class="cls-9" d="M57.87 30l.91-2.5a4.1 4.1 0 0 1 .78-1.29 10.22 10.22 0 0 1 .44-4.35 7.57 7.57 0 0 0-4.45 4.49l-1.64 4.49-1.31 3.6-.07.19 3.38.79.07-.19L57.87 30zM70.18 30.08v-.13a7.56 7.56 0 0 0-3.94-7.68A3 3 0 0 0 65 25.58a4.12 4.12 0 0 1 1.52 4.79l-.62 1.7-1.8 5.06-.07.19 3.1.73.28.05.07-.2 1.64-4.51z"/><path class="cls-4" d="M69.13 33.38l-.25.79a.5.5 0 0 0 .33.63.49.49 0 0 0 .36 0 .5.5 0 0 0 .27-.3l.28-.88 1-3.29.22-.68a.5.5 0 1 0-1-.3l-.2.64v.12zM64.21 33.7a.5.5 0 0 0 .93.37c0-.06.39-1 .76-2 .27-.74.54-1.54.71-2.17a4 4 0 0 0 .14-1.19 3.62 3.62 0 0 0-.5-1.77.5.5 0 0 0-.83.55 2.45 2.45 0 0 1 .25.65 3 3 0 0 1 0 1.5c-.16.58-.42 1.35-.68 2.06-.4 1.05-.77 1.98-.78 2zM64.21 26.22a.5.5 0 0 0 .65.27.5.5 0 0 0 .25-.64 2.5 2.5 0 0 1-.08-.25 3 3 0 0 1 1.2-3.31 4.65 4.65 0 0 1 .74-.43.5.5 0 0 0-.42-.91 5.38 5.38 0 0 0-1.35.88 4.11 4.11 0 0 0-.45.47c-.07.09-.15.18-.21.27l-.06.09a3.67 3.67 0 0 0-.52 1.4v.16a4.18 4.18 0 0 0 0 .43v.37a4.36 4.36 0 0 0 .25 1.2zM59.56 26.24a2.59 2.59 0 0 0 .28 1 .5.5 0 0 0 .57.11.49.49 0 0 0 .13-.09.5.5 0 0 0 .09-.6 5.62 5.62 0 0 1-.16-1.23v-.81A9.05 9.05 0 0 1 61 22c.06-.17.13-.33.2-.5a7.27 7.27 0 0 1 .8-1.41.5.5 0 1 0-.8-.6 8.36 8.36 0 0 0-1.2 2.37 10.22 10.22 0 0 0-.44 4.38z"/></svg>