<svg xmlns="http://www.w3.org/2000/svg" width="434" height="80"><defs><radialGradient id="g" cx="210%" cy="-100%" r="290%"><stop offset=".1" stop-color="#ffe226"/><stop offset=".79" stop-color="#ff7139"/></radialGradient><radialGradient id="c" cx="49%" cy="40%" r="128%" gradientTransform="matrix(.82 0 0 1 .088 0)"><stop offset=".3" stop-color="#960e18"/><stop offset=".35" stop-color="#b11927" stop-opacity=".74"/><stop offset=".43" stop-color="#db293d" stop-opacity=".34"/><stop offset=".5" stop-color="#f5334b" stop-opacity=".09"/><stop offset=".53" stop-color="#ff3750" stop-opacity="0"/></radialGradient><radialGradient id="d" cx="48%" cy="-12%" r="140%"><stop offset=".13" stop-color="#fff44f"/><stop offset=".53" stop-color="#ff980e"/></radialGradient><radialGradient id="e" cx="22.76%" cy="110.11%" r="100%"><stop offset=".35" stop-color="#3a8ee6"/><stop offset=".67" stop-color="#9059ff"/><stop offset="1" stop-color="#c139e6"/></radialGradient><radialGradient id="f" cx="52%" cy="33%" r="59%" gradientTransform="scale(.9 1)"><stop offset=".21" stop-color="#9059ff" stop-opacity="0"/><stop offset=".97" stop-color="#6e008b" stop-opacity=".6"/></radialGradient><radialGradient id="b" cx="87.4%" cy="-12.9%" r="128%" gradientTransform="matrix(.8 0 0 1 .178 .129)"><stop offset=".13" stop-color="#ffbd4f"/><stop offset=".28" stop-color="#ff980e"/><stop offset=".47" stop-color="#ff3750"/><stop offset=".78" stop-color="#eb0878"/><stop offset=".86" stop-color="#e50080"/></radialGradient><radialGradient id="h" cx="84%" cy="-41%" r="180%"><stop offset=".11" stop-color="#fff44f"/><stop offset=".46" stop-color="#ff980e"/><stop offset=".72" stop-color="#ff3647"/><stop offset=".9" stop-color="#e31587"/></radialGradient><radialGradient id="i" cx="16.1%" cy="-18.6%" r="348.8%" gradientTransform="scale(1 .47) rotate(84 .279 -.297)"><stop offset="0" stop-color="#fff44f"/><stop offset=".3" stop-color="#ff980e"/><stop offset=".57" stop-color="#ff3647"/><stop offset=".74" stop-color="#e31587"/></radialGradient><radialGradient id="j" cx="18.9%" cy="-42.5%" r="238.4%"><stop offset=".14" stop-color="#fff44f"/><stop offset=".48" stop-color="#ff980e"/><stop offset=".66" stop-color="#ff3647"/><stop offset=".9" stop-color="#e31587"/></radialGradient><radialGradient id="k" cx="159.3%" cy="-44.72%" r="313.1%"><stop offset=".09" stop-color="#fff44f"/><stop offset=".63" stop-color="#ff980e"/></radialGradient><linearGradient id="a" x1="87.25%" y1="15.5%" x2="9.4%" y2="93.1%"><stop offset=".05" stop-color="#fff44f"/><stop offset=".37" stop-color="#ff980e"/><stop offset=".53" stop-color="#ff3647"/><stop offset=".7" stop-color="#e31587"/></linearGradient><linearGradient id="l" x1="80%" y1="14%" x2="18%" y2="84%"><stop offset=".17" stop-color="#fff44f" stop-opacity=".8"/><stop offset=".6" stop-color="#fff44f" stop-opacity="0"/></linearGradient></defs><path d="M75.916 26.831c-1.684-4.052-5.1-8.427-7.775-9.81a40.266 40.266 0 013.925 11.764l.007.065C67.691 17.925 60.26 13.52 54.191 3.928a47.099 47.099 0 01-.913-1.484 12.24 12.24 0 01-.427-.8 7.053 7.053 0 01-.578-1.535.1.1 0 00-.088-.1.138.138 0 00-.073 0c-.005 0-.013.009-.019.011s-.019.011-.028.015l.015-.026c-9.735 5.7-13.038 16.252-13.342 21.53a19.387 19.387 0 00-10.666 4.111 11.587 11.587 0 00-1-.758 17.968 17.968 0 01-.109-9.473 28.705 28.705 0 00-9.329 7.21h-.018c-1.536-1.947-1.428-8.367-1.34-9.708a6.928 6.928 0 00-1.294.687 28.225 28.225 0 00-3.788 3.245A33.845 33.845 0 007.571 21.2v.006-.007a32.733 32.733 0 00-5.2 11.743l-.052.256a61.89 61.89 0 00-.381 2.42c0 .029-.006.056-.009.085a36.937 36.937 0 00-.629 5.343v.2A38.759 38.759 0 0078.254 47.8c.065-.5.118-.995.176-1.5a39.857 39.857 0 00-2.514-19.469zm-44.67 30.338c.181.087.351.181.537.264l.027.017q-.282-.135-.564-.281zm8.878-23.376zm31.952-4.934v-.037l.007.041z" fill="url(#a)"/><path d="M75.916 26.831c-1.684-4.052-5.1-8.427-7.775-9.81a40.266 40.266 0 013.925 11.764v.037l.007.041a35.1 35.1 0 01-1.206 26.158c-4.442 9.531-15.194 19.3-32.024 18.825-18.185-.515-34.2-14.009-37.194-31.683-.545-2.787 0-4.2.274-6.465a28.876 28.876 0 00-.623 5.348v.2A38.759 38.759 0 0078.254 47.8c.065-.5.118-.995.176-1.5a39.857 39.857 0 00-2.514-19.469z" fill="url(#b)"/><path d="M75.916 26.831c-1.684-4.052-5.1-8.427-7.775-9.81a40.266 40.266 0 013.925 11.764v.037l.007.041a35.1 35.1 0 01-1.206 26.158c-4.442 9.531-15.194 19.3-32.024 18.825-18.185-.515-34.2-14.009-37.194-31.683-.545-2.787 0-4.2.274-6.465a28.876 28.876 0 00-.623 5.348v.2A38.759 38.759 0 0078.254 47.8c.065-.5.118-.995.176-1.5a39.857 39.857 0 00-2.514-19.469z" fill="url(#c)"/><path d="M57.082 31.387c.084.059.162.118.241.177a21.1 21.1 0 00-3.6-4.695C41.677 14.821 50.566.746 52.065.031l.015-.022c-9.735 5.7-13.038 16.252-13.342 21.53.452-.031.9-.069 1.362-.069a19.56 19.56 0 0116.982 9.917z" fill="url(#d)"/><path d="M40.125 33.793c-.064.964-3.47 4.289-4.661 4.289-11.021 0-12.81 6.667-12.81 6.667.488 5.614 4.4 10.238 9.129 12.684a13.44 13.44 0 00.654.312q.569.252 1.138.466a17.235 17.235 0 005.043.973c19.317.906 23.059-23.1 9.119-30.066a13.38 13.38 0 019.345 2.269A19.56 19.56 0 0040.1 21.47c-.46 0-.91.038-1.362.069a19.387 19.387 0 00-10.666 4.111c.591.5 1.258 1.168 2.663 2.553 2.63 2.591 9.375 5.275 9.39 5.59z" fill="url(#e)"/><path d="M40.125 33.793c-.064.964-3.47 4.289-4.661 4.289-11.021 0-12.81 6.667-12.81 6.667.488 5.614 4.4 10.238 9.129 12.684a13.44 13.44 0 00.654.312q.569.252 1.138.466a17.235 17.235 0 005.043.973c19.317.906 23.059-23.1 9.119-30.066a13.38 13.38 0 019.345 2.269A19.56 19.56 0 0040.1 21.47c-.46 0-.91.038-1.362.069a19.387 19.387 0 00-10.666 4.111c.591.5 1.258 1.168 2.663 2.553 2.63 2.591 9.375 5.275 9.39 5.59z" fill="url(#f)"/><path d="M26.265 24.361a24.874 24.874 0 01.8.531 17.968 17.968 0 01-.109-9.473 28.705 28.705 0 00-9.329 7.21c.189-.005 5.811-.106 8.638 1.732z" fill="url(#g)"/><path d="M1.654 42.163c2.991 17.674 19.009 31.168 37.194 31.683 16.83.476 27.582-9.294 32.024-18.825a35.1 35.1 0 001.206-26.158v-.037c0-.029-.006-.046 0-.037l.007.065c1.375 8.977-3.191 17.674-10.329 23.555l-.022.05c-13.908 11.327-27.218 6.834-29.912 5q-.282-.135-.564-.281c-8.109-3.876-11.459-11.264-10.741-17.6a9.953 9.953 0 01-9.181-5.775 14.618 14.618 0 0114.249-.572 19.3 19.3 0 0014.552.572c-.015-.315-6.76-3-9.39-5.59-1.405-1.385-2.072-2.052-2.663-2.553a11.587 11.587 0 00-1-.758 54.245 54.245 0 00-.8-.531c-2.827-1.838-8.449-1.737-8.635-1.732h-.018c-1.536-1.947-1.428-8.367-1.34-9.708a6.928 6.928 0 00-1.294.687 28.225 28.225 0 00-3.788 3.245A33.845 33.845 0 007.571 21.2v.006-.007a32.733 32.733 0 00-5.2 11.743c-.019.079-1.396 6.099-.717 9.221z" fill="url(#h)"/><path d="M53.725 26.869a21.1 21.1 0 013.6 4.7 8.083 8.083 0 01.581.476c8.787 8.1 4.183 19.55 3.84 20.365 7.138-5.881 11.7-14.578 10.329-23.555C67.691 17.925 60.26 13.52 54.191 3.928a47.099 47.099 0 01-.913-1.484 12.24 12.24 0 01-.427-.8 7.053 7.053 0 01-.578-1.535.1.1 0 00-.088-.1.138.138 0 00-.073 0c-.005 0-.013.009-.019.011s-.019.011-.028.015c-1.499.711-10.388 14.786 1.66 26.834z" fill="url(#i)"/><path d="M57.9 32.04a8.083 8.083 0 00-.581-.476c-.079-.059-.157-.118-.241-.177a13.38 13.38 0 00-9.345-2.269c13.94 6.97 10.2 30.972-9.119 30.066a17.235 17.235 0 01-5.043-.973q-.569-.213-1.138-.466a14.44 14.44 0 01-.654-.312l.027.017c2.694 1.839 16 6.332 29.912-5l.022-.05c.347-.81 4.951-12.263-3.84-20.36z" fill="url(#j)"/><path d="M22.654 44.749s1.789-6.667 12.81-6.667c1.191 0 4.6-3.325 4.661-4.289a19.3 19.3 0 01-14.552-.572 14.618 14.618 0 00-14.249.572 9.953 9.953 0 009.181 5.775c-.718 6.337 2.632 13.725 10.741 17.6.181.087.351.181.537.264-4.733-2.445-8.641-7.069-9.129-12.683z" fill="url(#k)"/><path d="M75.916 26.831c-1.684-4.052-5.1-8.427-7.775-9.81a40.266 40.266 0 013.925 11.764l.007.065C67.691 17.925 60.26 13.52 54.191 3.928a47.099 47.099 0 01-.913-1.484 12.24 12.24 0 01-.427-.8 7.053 7.053 0 01-.578-1.535.1.1 0 00-.088-.1.138.138 0 00-.073 0c-.005 0-.013.009-.019.011s-.019.011-.028.015l.015-.026c-9.735 5.7-13.038 16.252-13.342 21.53.452-.031.9-.069 1.362-.069a19.56 19.56 0 0116.982 9.917 13.38 13.38 0 00-9.345-2.269c13.94 6.97 10.2 30.972-9.119 30.066a17.235 17.235 0 01-5.043-.973q-.569-.213-1.138-.466a14.44 14.44 0 01-.654-.312l.027.017q-.282-.135-.564-.281c.181.087.351.181.537.264-4.733-2.446-8.641-7.07-9.129-12.684 0 0 1.789-6.667 12.81-6.667 1.191 0 4.6-3.325 4.661-4.289-.015-.315-6.76-3-9.39-5.59-1.405-1.385-2.072-2.052-2.663-2.553a11.587 11.587 0 00-1-.758 17.968 17.968 0 01-.109-9.473 28.705 28.705 0 00-9.329 7.21h-.018c-1.536-1.947-1.428-8.367-1.34-9.708a6.928 6.928 0 00-1.294.687 28.225 28.225 0 00-3.788 3.245A33.845 33.845 0 007.571 21.2v.006-.007a32.733 32.733 0 00-5.2 11.743l-.052.256c-.073.341-.4 2.073-.447 2.445 0 .028 0-.029 0 0a45.094 45.094 0 00-.572 5.403v.2A38.759 38.759 0 0078.254 47.8c.065-.5.118-.995.176-1.5a39.857 39.857 0 00-2.514-19.469zm-3.845 1.991l.007.041z" fill="url(#l)"/><path d="M97 24h21.419v5.79h-15.274v7.851h15.274v5.746h-15.274v12.634H97zm28.705-2.237a3.444 3.444 0 013.555 3.6 3.577 3.577 0 01-7.154.088 3.553 3.553 0 013.599-3.686zm-3.028 10.571h6.057v23.687h-6.057zm23.613 6.579a4.9 4.9 0 00-2.94-1.053c-2.458 0-3.863 1.579-3.863 5.044v13.117h-6.013V32.336h5.75v3.421a5.647 5.647 0 015.662-3.641 7.194 7.194 0 014.038 1.228zm2.5 5.4a12.121 12.121 0 0112.2-12.457c7.11 0 12.158 5.044 12.158 12.062v2.5h-18.431c.659 2.983 2.985 4.957 6.54 4.957a6.354 6.354 0 005.882-3.509l5.047 3.026c-2.5 3.685-6.057 5.614-11.1 5.614-7.686-.006-12.294-5.134-12.294-12.196zm6.013-2.676h12.467c-.658-3.026-3.116-4.693-6.32-4.693a6.088 6.088 0 00-6.145 4.69zm19.839-9.3h4.258v-1.186c0-6.448 2.721-9.123 8.69-9.123h2.11v5.22h-1.712c-2.809 0-3.423.964-3.423 3.9v1.185h5.135v5.438h-5v18.25h-5.8V37.774h-4.258zm16.2 11.842a12.131 12.131 0 0112.378-12.325 12.325 12.325 0 110 24.65 11.951 11.951 0 01-12.38-12.326zm18.874 0a6.5 6.5 0 10-12.992 0 6.5 6.5 0 1012.992 0zm14.045-.263l-8.561-11.58h7.11l5.048 7.281 5.179-7.281h6.979l-8.691 11.535 9.13 12.15h-7.067l-5.662-7.72-5.486 7.72h-7.067zm51.382-4.435a7.363 7.363 0 004.294-6.911c0-5.161-3.984-8.486-10-8.486h-13.816v31.932h14.254c6.109 0 10.226-3.412 10.226-9.011a7.669 7.669 0 00-4.958-7.524zM259.3 27.409h10.094c3.939 0 6.374 2.1 6.374 5.161s-2.125 5.337-6.064 5.337H259.3zm10.536 25.239H259.3V41.274h10.359c4.427 0 6.729 2.319 6.729 5.688-.005 3.324-2.573 5.686-6.557 5.686zm18.152-15.791V32.4h-3.5v23.616h3.586V43.069c0-5.206 2.3-7.481 6.286-7.481a5.283 5.283 0 012.921.744l1.5-3.411a7.88 7.88 0 00-3.983-.875 6.612 6.612 0 00-6.815 4.811zm23.373-4.943A12.292 12.292 0 10323.8 44.206a12.2 12.2 0 00-12.444-12.292zm0 21.171a8.609 8.609 0 01-8.72-8.879 8.745 8.745 0 1117.486 0 8.645 8.645 0 01-8.771 8.879zm41.571-2.1L345.8 32.4h-3.364l-7.3 18.721-6.025-18.721H325.3l7.836 23.621h3.541l7.351-18.721 7.348 18.721h3.277l8.278-23.621h-3.763zm22.8-8.617c-3.719-.743-6.6-1.225-6.6-3.673 0-2.188 1.5-3.763 5.179-3.763a7.745 7.745 0 016.552 3.15l3.01-2.012c-2.125-2.581-5.135-4.2-9.562-4.2-5.666-.044-8.9 3.193-8.9 6.867 0 4.724 4.382 5.818 8.5 6.6 3.5.7 6.772 1.225 6.772 3.85 0 2.362-1.947 4.112-5.666 4.112a8.862 8.862 0 01-7.7-3.85l-3.143 2.1c2.125 3.018 5.534 4.943 10.757 4.943 6.242.043 9.429-3.63 9.429-7.349-.002-4.85-4.517-5.987-8.634-6.775zm24.083-10.454a12.186 12.186 0 00-12.482 12.379c0 6.912 4.957 12.2 12.615 12.2a12.314 12.314 0 0011.105-5.993l-3.1-1.793a8.562 8.562 0 01-8.012 4.549c-5.046 0-8.544-3.193-9.075-7.7h21.116v-1.613c.001-6.999-5.182-12.029-12.173-12.029zm-8.853 10.5a8.85 8.85 0 018.853-7.3c4.649 0 7.88 2.843 8.455 7.305zm35.682-10.366a6.612 6.612 0 00-6.817 4.811V32.4h-3.5v23.616h3.586V43.069c0-5.206 2.3-7.481 6.285-7.481a5.289 5.289 0 012.922.744l1.5-3.411a7.88 7.88 0 00-3.982-.875z" fill="#20123a"/></svg>