<svg width="238" height="175" xmlns="http://www.w3.org/2000/svg" xmlns:xlink="http://www.w3.org/1999/xlink">
    <defs>
        <linearGradient x1="-1.214%" y1="91.063%" x2="99.921%" y2="9.974%" id="f">
            <stop stop-color="#00B3F4" offset="43%"/>
            <stop stop-color="#00BBF6" offset="61%"/>
            <stop stop-color="#00D2FC" offset="89%"/>
            <stop stop-color="#0DF" offset="100%"/>
        </linearGradient>
        <linearGradient x1="8.488%" y1="77.049%" x2="91.512%" y2="22.96%" id="g">
            <stop stop-color="#C689FF" offset="0%"/>
            <stop stop-color="#D74CF0" offset="100%"/>
        </linearGradient>
        <linearGradient x1="-15.861%" y1="98.397%" x2="95.087%" y2="20.184%" id="h">
            <stop stop-color="#B833E1" offset="22%"/>
            <stop stop-color="#FF4F5E" offset="91%"/>
        </linearGradient>
        <linearGradient x1="-17.724%" y1="151.036%" x2="109.628%" y2="-38.942%" id="i">
            <stop stop-color="#7542E5" offset="28%"/>
            <stop stop-color="#824DEB" offset="42%"/>
            <stop stop-color="#A067FA" offset="79%"/>
            <stop stop-color="#AB71FF" offset="100%"/>
        </linearGradient>
        <radialGradient cx="70.121%" cy="81.664%" fx="70.121%" fy="81.664%" r="95.125%" id="c">
            <stop stop-color="#CDCDD4" stop-opacity="0" offset="40%"/>
            <stop stop-color="#CDCDD4" stop-opacity=".02" offset="58%"/>
            <stop stop-color="#CDCDD4" stop-opacity=".08" offset="77%"/>
            <stop stop-color="#CDCDD4" stop-opacity=".18" offset="96%"/>
            <stop stop-color="#CDCDD4" stop-opacity=".2" offset="100%"/>
        </radialGradient>
        <radialGradient cx="126.783%" cy="255.509%" fx="126.783%" fy="255.509%" r="324.194%"
                        gradientTransform="matrix(.57747 0 0 1 .536 0)" id="d">
            <stop stop-color="#CDCDD4" stop-opacity="0" offset="26%"/>
            <stop stop-color="#CDCDD4" stop-opacity=".02" offset="40%"/>
            <stop stop-color="#CDCDD4" stop-opacity=".08" offset="55%"/>
            <stop stop-color="#CDCDD4" stop-opacity=".18" offset="69%"/>
            <stop stop-color="#CDCDD4" stop-opacity=".2" offset="72%"/>
        </radialGradient>
        <radialGradient cx="-56.184%" cy="260.607%" fx="-56.184%" fy="260.607%" r="318.569%"
                        gradientTransform="matrix(.57547 0 0 1 -.239 0)" id="e">
            <stop stop-color="#CDCDD4" stop-opacity="0" offset="27%"/>
            <stop stop-color="#CDCDD4" stop-opacity=".02" offset="46%"/>
            <stop stop-color="#CDCDD4" stop-opacity=".08" offset="66%"/>
            <stop stop-color="#CDCDD4" stop-opacity=".18" offset="86%"/>
            <stop stop-color="#CDCDD4" stop-opacity=".2" offset="90%"/>
        </radialGradient>
        <filter x="-18.5%" y="-13.5%" width="137.1%" height="131.2%" filterUnits="objectBoundingBox" id="a">
            <feMorphology radius="3" in="SourceAlpha" result="shadowSpreadOuter1"/>
            <feOffset dy="12" in="shadowSpreadOuter1" result="shadowOffsetOuter1"/>
            <feGaussianBlur stdDeviation="8" in="shadowOffsetOuter1" result="shadowBlurOuter1"/>
            <feColorMatrix values="0 0 0 0 0.0549019608 0 0 0 0 0.0509803922 0 0 0 0 0.101960784 0 0 0 0.12 0"
                           in="shadowBlurOuter1" result="shadowMatrixOuter1"/>
            <feMorphology radius="4" operator="dilate" in="SourceAlpha" result="shadowSpreadOuter2"/>
            <feOffset dy="10" in="shadowSpreadOuter2" result="shadowOffsetOuter2"/>
            <feGaussianBlur stdDeviation="24" in="shadowOffsetOuter2" result="shadowBlurOuter2"/>
            <feColorMatrix values="0 0 0 0 0.0274509804 0 0 0 0 0.188235294 0 0 0 0 0.447058824 0 0 0 0.12 0"
                           in="shadowBlurOuter2" result="shadowMatrixOuter2"/>
            <feMorphology radius="1.5" operator="dilate" in="SourceAlpha" result="shadowSpreadOuter3"/>
            <feOffset dy="24" in="shadowSpreadOuter3" result="shadowOffsetOuter3"/>
            <feGaussianBlur stdDeviation="19" in="shadowOffsetOuter3" result="shadowBlurOuter3"/>
            <feColorMatrix values="0 0 0 0 0.133333333 0 0 0 0 0 0 0 0 0 0.2 0 0 0 0.04 0" in="shadowBlurOuter3"
                           result="shadowMatrixOuter3"/>
            <feMerge>
                <feMergeNode in="shadowMatrixOuter1"/>
                <feMergeNode in="shadowMatrixOuter2"/>
                <feMergeNode in="shadowMatrixOuter3"/>
            </feMerge>
        </filter>
        <rect id="b" x="144" y="436" width="480" height="584" rx="12"/>
    </defs>
    <g fill="none" fill-rule="evenodd">
        <g transform="translate(-266 -564)">
            <use fill="#000" filter="url(#a)" xlink:href="#b"/>
            <use fill="#FFF" xlink:href="#b"/>
        </g>
        <g fill-rule="nonzero">
            <circle fill="url(#c)" cx="111.5" cy="87.5" r="87.5"/>
            <path d="M71 41.658c.007 6.8-5.48 12.32-12.267 12.342H9.417C4.217 54 0 49.776 0 44.565c0-5.21 4.216-9.434 9.417-9.434.76.008 1.516.104 2.254.285a9.334 9.334 0 01-.259-2.193 9.735 9.735 0 015.196-8.595 9.7 9.7 0 0110.012.588c2.075-7.95 9.718-13.123 17.855-12.084 8.136 1.04 14.24 7.967 14.258 16.185C65.516 29.345 71 34.862 71 41.658z"
                  fill="url(#d)"/>
            <path d="M224.323 130.974a13.886 13.886 0 00-3.377.41c.265-1.055.407-2.137.425-3.225a14.528 14.528 0 00-7.783-12.834 14.618 14.618 0 00-15.02.858c-3.139-11.846-14.597-19.538-26.788-17.984-12.191 1.555-21.339 11.875-21.385 24.126-10.16 0-18.395 8.21-18.395 18.338C132 150.79 140.236 159 150.395 159h73.98c7.59-.23 13.625-6.43 13.625-14 0-7.571-6.034-13.771-13.625-14l-.052-.026z"
                  fill="url(#e)"/>
            <rect fill="url(#f)" x="111" y="3" width="98" height="79" rx="5.4"/>
            <path fill="#0DF" d="M197 36h6v13h-6z"/>
            <path fill="#FF848B" d="M59 125h39v11H59z"/>
            <path fill="url(#g)" d="M30 61h93v61H30z"/>
            <path d="M133.574 128.007h-2.53v-69.05c0-1.316-.528-2.58-1.47-3.51A5.032 5.032 0 00126.026 54H28.104c-2.773 0-5.02 2.225-5.02 4.97v69.037H20.49c-1.375 0-2.49 1.104-2.49 2.466v5.048a2.454 2.454 0 00.725 1.752 2.503 2.503 0 001.765.727h113.02c.662 0 1.297-.262 1.765-.727a2.455 2.455 0 00.725-1.752v-5.01c.021-1.351-1.06-2.469-2.426-2.504zm-46.458 4.945H67.013v-4.97h20.103v4.97z"
                  fill="url(#h)"/>
            <rect fill="url(#i)" x="109" y="90.686" width="54" height="81" rx="5.4"/>
            <path fill="#AB71FF" d="M131 158h10v5h-10z"/>
            <g fill="#F9F9FA">
                <path d="M164.56 50.316c-.563 1.245-.831 1.8-1.556 2.9-1.01 1.536-2.431 3.45-4.194 3.467-1.567.014-1.97-1.02-4.095-1.008-2.126.011-2.57 1.025-4.137 1.011-1.764-.016-3.11-1.744-4.121-3.281-2.821-4.297-3.117-9.337-1.377-12.017 1.237-1.906 3.188-3.02 5.025-3.02 1.868 0 3.042 1.025 4.587 1.025 1.498 0 2.412-1.026 4.573-1.026 1.633 0 3.364.89 4.595 2.425-4.038 2.215-3.381 7.982.7 9.524zM158.51 35.072c.888-1.138 1.56-2.745 1.315-4.386-1.447.099-3.14 1.02-4.13 2.221-.897 1.09-1.638 2.707-1.35 4.279 1.58.049 3.215-.896 4.166-2.114z"/>
            </g>
            <g fill="#F9F9FA">
                <path d="M124.625 124.874c-.897 0-1.625.728-1.625 1.625v8.125a1.626 1.626 0 003.25 0v-8.125c0-.897-.728-1.625-1.625-1.625zM147.375 124.874c-.897 0-1.625.728-1.625 1.625v8.125a1.626 1.626 0 003.25 0v-8.125c0-.897-.728-1.625-1.625-1.625zM127.875 124.874h16.25v13h-16.25zM127.875 123.249h16.25c0-2.527-1.177-4.755-2.985-6.245l2.036-3.055a.812.812 0 10-1.352-.9l-2.036 3.053c-1.136-.605-2.412-.978-3.788-.978s-2.652.373-3.788.978l-2.036-3.053a.812.812 0 10-1.352.9l2.036 3.055c-1.809 1.49-2.985 3.718-2.985 6.245z"/>
            </g>
            <g fill="#F9F9FA">
                <path d="M64 78.686h11.818v11.818H64zM90 90.504H78.182V78.686H90zM64 92.868h11.818v11.818H64zM90 104.686H78.182V92.868H90z"/>
            </g>
        </g>
    </g>
</svg>
