<svg xmlns="http://www.w3.org/2000/svg" width="96" height="95" viewBox="0 0 534 526"><defs><style>  
      .cls-1 {
        fill: #02c515;
        stroke: #02c515;
        stroke-linecap: round;
        stroke-linejoin: round;
        stroke-width: 83.333px;
        filter: url(#filter);
      }

      .cls-1, .cls-2 {
        fill-rule: evenodd;
      }

      .cls-2 {
        fill: #fff;
      }
    </style><filter x="0.3" y="0.3" width="534.3" height="526.3" filterUnits="userSpaceOnUse"><feFlood result="flood" flood-color="#1a4e2a" flood-opacity="0"/><feComposite result="composite" operator="in" in2="SourceGraphic"/><feBlend result="blend" in2="SourceGraphic"/></filter></defs><g style="fill:#02c515;filter:url(#filter)"><path class="cls-1" d="M267.5 42C392 42 493 141.2 493 263.5S392 485 267.5 485 42 385.8 42 263.5 143 42 267.5 42Z" style="fill:inherit;filter:none;stroke:inherit"/></g><use xlink:href="#circle" style="fill:none;filter:none;stroke:#02c515"/><path class="cls-2" d="M224.2 343.2l-63.6-60.2s-4-2.9-7.4-3.8-6.8-2.1-11.1-1.3a22 22 0 0 0-9.6 3.5 22.2 22.2 0 0 0-5.1 4.3 18.6 18.6 0 0 0-4.3 7.3 23.7 23.7 0 0 0-1.1 9.7c0.2 3.6 2.1 7 2.3 7.6a21.5 21.5 0 0 0 4.3 5.4c2.3 2.1 20.5 19.3 20.4 19.2s27.5 26.5 27.5 26.5l23.3 22.1 12.2 11.6s3.8 3.9 8.5 4.9A50 50 0 0 0 228.5 401a43.5 43.5 0 0 0 5.4-0.8 28.3 28.3 0 0 0 7.1-3.2 28.9 28.9 0 0 0 7.1-7c1.4-2.2 13.9-19.4 13.9-19.4l15.6-22.1 12.2-17.3 11.6-16.5 8.5-11.9 8.8-12.7 6.5-9.2 10.2-14.6 10.2-14.3 11.4-16.2 11.9-17 10.5-14.6 13.3-19.2 11.4-15.7s6.9-9.9 7.4-10.8a23 23 0 0 0 2.3-13.5c-1.1-6.7-4.3-10.9-6.8-13s-7.6-5.6-12.5-5.9-11-0.5-15 2.2-6.3 4.6-10.8 10.8-12.2 17.2-14.2 20-9.9 14-9.9 14l-14.5 20.5-10.2 14.3-15 21.3-17 24L264.8 286l-17.9 25.1-11.4 15.9-9.1 13Z"/></svg>