<?xml version="1.0" encoding="UTF-8"?>
<svg xmlns="http://www.w3.org/2000/svg" xmlns:xlink="http://www.w3.org/1999/xlink" width="153px" height="40px" viewBox="0 0 153 40" version="1.1">
<defs>
<linearGradient id="linear0" gradientUnits="userSpaceOnUse" x1="17.0819" y1="34.5261" x2="-21.003" y2="-31.438801" gradientTransform="matrix(0.369565,0,0,-0.37037,23.83703,20)">
<stop offset="0.000000898751" style="stop-color:rgb(100%,58.823532%,25.098041%);stop-opacity:1;"/>
<stop offset="0.6" style="stop-color:rgb(98.823529%,25.098041%,33.333334%);stop-opacity:1;"/>
<stop offset="1" style="stop-color:rgb(89.019608%,8.235294%,52.941179%);stop-opacity:1;"/>
</linearGradient>
<linearGradient id="linear1" gradientUnits="userSpaceOnUse" x1="17.0819" y1="34.5261" x2="-21.003" y2="-31.438801" gradientTransform="matrix(0.369565,0,0,-0.37037,23.83703,20)">
<stop offset="0.000000634119" style="stop-color:rgb(100%,95.294118%,43.137255%);stop-opacity:0.8;"/>
<stop offset="0.752" style="stop-color:rgb(100%,95.294118%,43.137255%);stop-opacity:0;"/>
</linearGradient>
<linearGradient id="linear2" gradientUnits="userSpaceOnUse" x1="8.99" y1="-7.0485" x2="26.605499" y2="23.462601" gradientTransform="matrix(0.369565,0,0,-0.37037,23.83703,20)">
<stop offset="0" style="stop-color:rgb(0%,56.470591%,92.941177%);stop-opacity:1;"/>
<stop offset="0.3863" style="stop-color:rgb(35.686275%,42.745098%,97.254902%);stop-opacity:1;"/>
<stop offset="0.6293" style="stop-color:rgb(56.470591%,34.901962%,100%);stop-opacity:1;"/>
<stop offset="1" style="stop-color:rgb(72.156864%,20%,88.235295%);stop-opacity:1;"/>
</linearGradient>
<filter id="alpha" filterUnits="objectBoundingBox" x="0%" y="0%" width="100%" height="100%">
  <feColorMatrix type="matrix" in="SourceGraphic" values="0 0 0 0 1 0 0 0 0 1 0 0 0 0 1 0 0 0 1 0"/>
</filter>
<mask id="mask0">
  <g filter="url(#alpha)">
<rect x="0" y="0" width="153" height="40" style="fill:rgb(0%,0%,0%);fill-opacity:0.9;stroke:none;"/>
  </g>
</mask>
<linearGradient id="linear3" gradientUnits="userSpaceOnUse" x1="8.3048" y1="2.303" x2="35.2337" y2="-4.1762" gradientTransform="matrix(0.369565,0,0,-0.37037,23.83703,20)">
<stop offset="0" style="stop-color:rgb(1.960784%,25.098041%,58.823532%);stop-opacity:0.5;"/>
<stop offset="0.0999519" style="stop-color:rgb(9.019608%,23.137255%,63.137257%);stop-opacity:0.4422;"/>
<stop offset="0.2949" style="stop-color:rgb(20.392157%,20.392157%,70.19608%);stop-opacity:0.3294;"/>
<stop offset="0.4888" style="stop-color:rgb(28.235295%,18.039216%,75.686276%);stop-opacity:0.2171;"/>
<stop offset="0.6797" style="stop-color:rgb(33.333334%,16.862746%,78.431374%);stop-opacity:0.1066;"/>
<stop offset="0.864" style="stop-color:rgb(34.901962%,16.470589%,79.607844%);stop-opacity:0;"/>
</linearGradient>
<clipPath id="clip1">
  <rect x="0" y="0" width="153" height="40"/>
</clipPath>
<g id="surface5" clip-path="url(#clip1)">
<path style=" stroke:none;fill-rule:nonzero;fill:url(#linear3);" d="M 28.273438 18.519531 C 26.644531 18.519531 25.316406 19.851562 25.316406 21.480469 L 36.992188 21.480469 C 37.398438 21.480469 37.804688 21.332031 38.101562 21.035156 L 35.589844 18.519531 Z M 28.273438 18.519531 "/>
</g>
<linearGradient id="linear4" gradientUnits="userSpaceOnUse" x1="26.606501" y1="23.464399" x2="18.3424" y2="9.1504" gradientTransform="matrix(0.369565,0,0,-0.37037,23.83703,20)">
<stop offset="0" style="stop-color:rgb(44.705883%,13.333334%,56.862748%);stop-opacity:0.5;"/>
<stop offset="0.5" style="stop-color:rgb(44.705883%,13.333334%,56.862748%);stop-opacity:0;"/>
</linearGradient>
</defs>
<g id="surface1">
<path style=" stroke:none;fill-rule:nonzero;fill:url(#linear0);" d="M 23.835938 5.183594 C 15.78125 5.183594 9.128906 11.742188 9.054688 19.851562 C 9.054688 20.296875 9.238281 20.703125 9.535156 21 C 9.832031 21.296875 10.273438 21.480469 10.679688 21.480469 L 22.359375 21.480469 L 22.359375 29.371094 L 18.589844 25.59375 C 17.996094 25 17.074219 25 16.484375 25.59375 C 15.890625 26.183594 15.890625 27.109375 16.484375 27.703125 L 22.765625 34 C 23.097656 34.257812 23.46875 34.40625 23.835938 34.40625 C 24.207031 34.40625 24.574219 34.257812 24.871094 33.964844 L 31.15625 27.667969 C 31.746094 27.074219 31.746094 26.148438 31.15625 25.554688 C 30.5625 24.964844 29.640625 24.964844 29.046875 25.554688 L 25.316406 29.371094 L 25.316406 21.480469 L 36.992188 21.480469 C 37.4375 21.480469 37.84375 21.296875 38.140625 21 C 38.433594 20.703125 38.621094 20.257812 38.621094 19.851562 C 38.546875 11.742188 31.894531 5.183594 23.835938 5.183594 Z M 12.085938 18.519531 C 12.824219 12.703125 17.8125 8.148438 23.835938 8.148438 C 29.824219 8.148438 34.851562 12.703125 35.589844 18.519531 Z M 12.085938 18.519531 "/>
<path style=" stroke:none;fill-rule:nonzero;fill:url(#linear1);" d="M 23.835938 5.183594 C 15.78125 5.183594 9.128906 11.742188 9.054688 19.851562 C 9.054688 20.296875 9.238281 20.703125 9.535156 21 C 9.832031 21.296875 10.273438 21.480469 10.679688 21.480469 L 22.359375 21.480469 L 22.359375 29.371094 L 18.589844 25.59375 C 17.996094 25 17.074219 25 16.484375 25.59375 C 15.890625 26.183594 15.890625 27.109375 16.484375 27.703125 L 22.765625 34 C 23.097656 34.257812 23.46875 34.40625 23.835938 34.40625 C 24.207031 34.40625 24.574219 34.257812 24.871094 33.964844 L 31.15625 27.667969 C 31.746094 27.074219 31.746094 26.148438 31.15625 25.554688 C 30.5625 24.964844 29.640625 24.964844 29.046875 25.554688 L 25.316406 29.371094 L 25.316406 21.480469 L 36.992188 21.480469 C 37.4375 21.480469 37.84375 21.296875 38.140625 21 C 38.433594 20.703125 38.621094 20.257812 38.621094 19.851562 C 38.546875 11.742188 31.894531 5.183594 23.835938 5.183594 Z M 12.085938 18.519531 C 12.824219 12.703125 17.8125 8.148438 23.835938 8.148438 C 29.824219 8.148438 34.851562 12.703125 35.589844 18.519531 Z M 12.085938 18.519531 "/>
<path style=" stroke:none;fill-rule:nonzero;fill:url(#linear2);" d="M 25.316406 8.257812 C 30.636719 8.925781 34.886719 13.183594 35.589844 18.519531 L 28.273438 18.519531 C 26.644531 18.519531 25.316406 19.851562 25.316406 21.480469 L 36.992188 21.480469 C 37.4375 21.480469 37.84375 21.296875 38.140625 21 C 38.433594 20.703125 38.621094 20.257812 38.621094 19.851562 C 38.621094 11.628906 29.566406 8.667969 25.316406 8.257812 Z M 25.316406 8.257812 "/>
<use xlink:href="#surface5" mask="url(#mask0)"/>
<path style=" stroke:none;fill-rule:nonzero;fill:url(#linear4);" d="M 38.621094 19.851562 C 38.621094 11.628906 29.601562 8.703125 25.316406 8.257812 C 30.636719 8.925781 34.886719 13.183594 35.589844 18.519531 L 38.101562 21.035156 C 38.101562 21.035156 38.140625 21 38.175781 21 C 38.433594 20.703125 38.621094 20.257812 38.621094 19.851562 Z M 38.621094 19.851562 "/>
<path style=" stroke:none;fill-rule:nonzero;fill:rgb(12.54902%,7.058824%,22.745098%);fill-opacity:1;" d="M 44.914062 25.921875 L 47.203125 25.921875 L 47.203125 21.148438 L 52.523438 21.148438 L 52.523438 19.003906 L 47.203125 19.003906 L 47.203125 16.265625 L 52.523438 16.265625 L 52.523438 14.082031 L 44.914062 14.082031 Z M 54.183594 25.921875 L 56.476562 25.921875 L 56.476562 17.191406 L 54.183594 17.191406 Z M 55.332031 13.230469 C 54.519531 13.230469 53.890625 13.859375 53.890625 14.675781 C 53.890625 15.488281 54.480469 16.117188 55.332031 16.117188 C 56.179688 16.117188 56.769531 15.527344 56.769531 14.675781 C 56.769531 13.859375 56.179688 13.230469 55.332031 13.230469 Z M 60.464844 18.523438 L 60.464844 17.191406 L 58.25 17.191406 L 58.25 25.921875 L 60.464844 25.921875 L 60.464844 21.296875 C 60.464844 19.816406 61.203125 19.226562 62.347656 19.226562 C 62.867188 19.226562 63.273438 19.375 63.53125 19.519531 L 64.34375 17.300781 C 63.976562 17.117188 63.457031 16.96875 62.867188 16.96875 C 61.757812 17.003906 60.871094 17.488281 60.464844 18.523438 Z M 69.074219 17.003906 C 66.449219 17.003906 64.492188 19.039062 64.492188 21.59375 C 64.492188 24.144531 66.300781 26.144531 69.109375 26.144531 C 71.03125 26.144531 72.25 25.367188 73.136719 24.109375 L 71.289062 23.035156 C 70.847656 23.738281 70.144531 24.21875 69.109375 24.21875 C 67.816406 24.21875 66.894531 23.515625 66.597656 22.371094 L 73.617188 22.371094 L 73.617188 21.480469 C 73.617188 18.890625 71.695312 17.003906 69.074219 17.003906 Z M 66.707031 20.59375 C 67.078125 19.558594 67.929688 18.890625 69.074219 18.890625 C 70.253906 18.890625 71.066406 19.484375 71.363281 20.59375 Z M 75.683594 16.859375 L 75.683594 17.191406 L 74.246094 17.191406 L 74.246094 19.1875 L 75.683594 19.1875 L 75.683594 25.921875 L 77.902344 25.921875 L 77.902344 19.1875 L 80.007812 19.1875 L 80.007812 17.191406 L 77.902344 17.191406 L 77.902344 16.785156 C 77.902344 15.453125 78.085938 15.230469 79.636719 15.230469 L 80.007812 15.230469 L 80.007812 13.195312 L 79.417969 13.195312 C 76.570312 13.15625 75.683594 14.046875 75.683594 16.859375 Z M 85.144531 17.003906 C 82.519531 17.003906 80.523438 19.039062 80.523438 21.554688 C 80.523438 24.070312 82.519531 26.105469 85.144531 26.105469 C 87.800781 26.105469 89.796875 24.070312 89.796875 21.554688 C 89.796875 19.039062 87.765625 17.003906 85.144531 17.003906 Z M 85.179688 23.996094 C 83.851562 23.996094 82.777344 22.925781 82.777344 21.554688 C 82.777344 20.1875 83.8125 19.113281 85.179688 19.113281 C 86.507812 19.113281 87.582031 20.1875 87.582031 21.554688 C 87.582031 22.886719 86.507812 23.996094 85.179688 23.996094 Z M 98.996094 17.191406 L 96.371094 17.191406 L 94.527344 19.78125 L 92.679688 17.191406 L 90.019531 17.191406 L 93.121094 21.445312 L 89.871094 25.921875 L 92.566406 25.921875 L 94.527344 23.183594 L 96.519531 25.921875 L 99.21875 25.921875 L 95.894531 21.445312 Z M 98.996094 17.191406 "/>
<path style=" stroke:none;fill-rule:nonzero;fill:rgb(12.54902%,7.058824%,22.745098%);fill-opacity:1;" d="M 108.863281 19.222656 C 107.109375 18.855469 105.730469 18.636719 105.730469 17.199219 C 105.730469 16.019531 106.550781 15.171875 108.378906 15.171875 C 110.015625 15.171875 111.023438 15.835938 111.769531 16.902344 L 112.886719 16.054688 C 111.84375 14.765625 110.464844 13.957031 108.414062 13.957031 C 105.992188 13.957031 104.390625 15.429688 104.390625 17.234375 C 104.390625 19.519531 106.328125 19.996094 108.191406 20.367188 C 109.980469 20.773438 111.695312 21.03125 111.695312 22.613281 C 111.695312 23.941406 110.6875 24.859375 108.863281 24.859375 C 107.109375 24.859375 105.804688 24.160156 104.910156 22.722656 L 103.71875 23.644531 C 104.835938 25.117188 106.441406 26.113281 108.898438 26.113281 C 111.46875 26.113281 113.109375 24.457031 113.109375 22.613281 C 113.035156 20.144531 110.761719 19.59375 108.863281 19.222656 Z M 118.996094 17.015625 C 116.351562 17.015625 114.375 19.039062 114.375 21.582031 C 114.375 24.125 116.203125 26.113281 119.035156 26.113281 C 120.972656 26.113281 122.238281 25.304688 123.132812 23.902344 L 121.976562 23.238281 C 121.382812 24.308594 120.414062 24.933594 118.996094 24.933594 C 117.132812 24.933594 115.828125 23.753906 115.644531 22.097656 L 123.46875 22.097656 L 123.46875 21.472656 C 123.507812 18.855469 121.605469 17.015625 118.996094 17.015625 Z M 115.71875 20.882812 C 116.015625 19.335938 117.320312 18.191406 118.996094 18.191406 C 120.710938 18.191406 121.902344 19.261719 122.128906 20.882812 Z M 129.503906 17.015625 C 128.125 17.015625 127.046875 17.675781 126.414062 18.636719 L 126.414062 17.160156 L 125.109375 17.160156 L 125.109375 25.890625 L 126.449219 25.890625 L 126.449219 21.03125 C 126.449219 19.335938 127.679688 18.15625 129.246094 18.15625 C 130.957031 18.15625 131.929688 19.261719 131.929688 20.957031 L 131.929688 25.890625 L 133.304688 25.890625 L 133.304688 20.917969 C 133.269531 18.488281 131.816406 17.015625 129.503906 17.015625 Z M 142.621094 13.144531 L 142.621094 18.707031 C 141.914062 17.640625 140.574219 17.015625 139.304688 17.015625 C 136.847656 17.015625 134.796875 18.894531 134.796875 21.546875 C 134.796875 24.234375 136.808594 26.113281 139.304688 26.113281 C 140.574219 26.113281 141.914062 25.449219 142.621094 24.382812 L 142.621094 25.929688 L 143.925781 25.929688 L 143.925781 13.144531 Z M 139.417969 24.859375 C 137.554688 24.859375 136.136719 23.460938 136.136719 21.546875 C 136.136719 19.667969 137.554688 18.230469 139.417969 18.230469 C 141.316406 18.230469 142.695312 19.738281 142.695312 21.546875 C 142.734375 23.386719 141.316406 24.859375 139.417969 24.859375 Z M 139.417969 24.859375 "/>
</g>
</svg>
