<svg width="434" height="80" viewBox="0 0 195 43" fill="none" xmlns="http://www.w3.org/2000/svg"><g clip-path="url(#a)"><path d="M61.13 12.887v3.15H53.58v3.968h7.548v3.101h-7.548v6.95H50.28V12.886h10.85Zm2.556-.625a2.106 2.106 0 0 1 1.472-.603c.548 0 1.075.216 1.471.603a2.114 2.114 0 0 1 .566 1.515 2.03 2.03 0 0 1-.52 1.435 1.957 1.957 0 0 1-1.366.637h-.17a1.935 1.935 0 0 1-1.463-.586 2.094 2.094 0 0 1-.566-1.486 2.105 2.105 0 0 1 .576-1.515Zm3.104 5.093v12.7h-3.265v-12.7h3.265Zm5.66 0v1.952a3.27 3.27 0 0 1 1.35-1.659 3.986 3.986 0 0 1 2.09-.529 4.544 4.544 0 0 1 2.108.495l-1.156 3.198a2.24 2.24 0 0 0-.703-.327 3.466 3.466 0 0 0-.943-.13 2.737 2.737 0 0 0-1.962.693c-.507.471-.76 1.246-.76 2.323v6.684h-3.16v-12.7h3.137Zm9.624 12.455a6.163 6.163 0 0 1-3.415-3.491 7.137 7.137 0 0 1-.472-2.587 6.815 6.815 0 0 1 .472-2.602 6.401 6.401 0 0 1 1.415-2.087 6.459 6.459 0 0 1 2.08-1.443c.821-.337 1.7-.5 2.585-.481a6.617 6.617 0 0 1 2.585.48c.757.31 1.447.77 2.029 1.352a6.121 6.121 0 0 1 1.34 2.059c.325.83.485 1.717.471 2.61v1.194h-9.906c.186.783.63 1.477 1.26 1.966a3.723 3.723 0 0 0 2.316.717c.66.016 1.311-.15 1.886-.48.5-.305.92-.73 1.222-1.237l2.6 1.602a7.402 7.402 0 0 1-2.312 2.14 6.696 6.696 0 0 1-3.448.817 7.167 7.167 0 0 1-2.708-.529Zm.556-9.325a3.716 3.716 0 0 0-1.268 1.79h6.656a3.201 3.201 0 0 0-1.18-1.79 3.461 3.461 0 0 0-2.122-.625 3.382 3.382 0 0 0-2.085.625Zm11.52-3.13v-.448c-.018-.87.07-1.74.264-2.587a3.527 3.527 0 0 1 .878-1.66 3.404 3.404 0 0 1 1.637-.88c.835-.194 1.69-.284 2.547-.268h.83v2.962h-.533c-.44-.009-.88.018-1.316.082a1.476 1.476 0 0 0-.75.332 1.172 1.172 0 0 0-.335.682c-.048.386-.07.775-.066 1.164v.611h3v2.914h-3v9.796H94.15V20.27H92.09v-2.914h2.061ZM105 29.786a6.506 6.506 0 0 1-2.09-1.443 6.557 6.557 0 0 1-1.403-2.141 6.647 6.647 0 0 1-.484-2.528 6.68 6.68 0 0 1 .472-2.578 6.33 6.33 0 0 1 1.415-2.068 6.254 6.254 0 0 1 2.159-1.471 6.15 6.15 0 0 1 2.558-.452c.89-.02 1.774.143 2.6.48a6.444 6.444 0 0 1 2.916 2.422 6.629 6.629 0 0 1 1.084 3.672 6.545 6.545 0 0 1-.505 2.563 6.934 6.934 0 0 1-1.396 2.101 6.453 6.453 0 0 1-2.09 1.443 6.852 6.852 0 0 1-5.236 0Zm3.967-2.847a3.58 3.58 0 0 0 1.085-.755c.31-.321.556-.7.727-1.116a3.806 3.806 0 0 0 0-2.789 3.506 3.506 0 0 0-.727-1.13 3.48 3.48 0 0 0-1.085-.75 3.294 3.294 0 0 0-2.679 0 3.441 3.441 0 0 0-1.812 1.88 3.806 3.806 0 0 0 0 2.79 3.505 3.505 0 0 0 1.812 1.87 3.37 3.37 0 0 0 2.693.015l-.014-.015Zm5.618-9.584h3.774l2.604 3.775 2.632-3.766h3.737l-4.406 6.2 4.755 6.491h-3.854l-2.864-3.972-2.788 3.973h-3.83l4.651-6.522-4.411-6.18Zm26.983-4.468a6.187 6.187 0 0 1 2.359.423c.684.26 1.312.655 1.844 1.164a5.287 5.287 0 0 1 1.213 1.765 5.836 5.836 0 0 1 .193 3.809 5.462 5.462 0 0 1-.679 1.443 5.223 5.223 0 0 1-1.099 1.187 4.981 4.981 0 0 1-1.491.818l3.67 6.56h-2.17l-3.302-6.046h-5.297v6.045h-1.916V12.887h6.675Zm-4.759 9.334h4.613a4.392 4.392 0 0 0 1.717-.317 3.83 3.83 0 0 0 1.269-.846c.344-.346.612-.763.788-1.222.174-.46.264-.95.264-1.443a3.887 3.887 0 0 0-.278-1.48 3.385 3.385 0 0 0-.826-1.184c-.367-.34-.799-.6-1.269-.764a4.96 4.96 0 0 0-1.655-.25h-4.623v7.506Zm16.354 7.59a6.16 6.16 0 0 1-2.075-1.39 5.985 5.985 0 0 1-1.326-2.083 7.118 7.118 0 0 1-.471-2.587 6.88 6.88 0 0 1 .471-2.621 6.478 6.478 0 0 1 1.415-2.087 6.246 6.246 0 0 1 2.052-1.443 6.425 6.425 0 0 1 2.595-.52 6.532 6.532 0 0 1 2.528.481c.751.304 1.434.76 2.005 1.342a6.266 6.266 0 0 1 1.331 2.063c.325.825.486 1.708.471 2.597v.87h-11.015c.08.856.395 1.67.909 2.352.514.68 1.207 1.199 1.997 1.496a5.275 5.275 0 0 0 1.812.303 4.346 4.346 0 0 0 2.443-.593 4.47 4.47 0 0 0 1.732-1.855l1.618.962a7.352 7.352 0 0 1-2.359 2.376 6.503 6.503 0 0 1-3.439.846 7 7 0 0 1-2.694-.51Zm.972-10.706c-.504.186-.97.467-1.373.827a4.545 4.545 0 0 0-1.004 1.246 5.107 5.107 0 0 0-.566 1.563h9.024a4.303 4.303 0 0 0-1.42-2.881 4.14 4.14 0 0 0-2.991-1.048 4.701 4.701 0 0 0-1.67.293Zm12.77-7.594v18.544h-1.887V11.511h1.887Zm5.217 18.51a3.908 3.908 0 0 1-1.387-.812 3.408 3.408 0 0 1-.83-1.188 3.693 3.693 0 0 1-.278-1.443c-.026-.597.1-1.19.365-1.724a3.46 3.46 0 0 1 1.149-1.32c1.005-.711 2.387-1.072 4.142-1.072h3.943v-.481a3.125 3.125 0 0 0-.905-2.357c-.609-.586-1.524-.88-2.736-.88a4.299 4.299 0 0 0-2.274.511 4.398 4.398 0 0 0-1.693 1.63l-1.637-1.059a7.062 7.062 0 0 1 2.306-1.99 6.852 6.852 0 0 1 3.302-.741 7.29 7.29 0 0 1 2.359.351 4.698 4.698 0 0 1 1.708 1c.463.432.826.965 1.061 1.558.242.63.362 1.301.354 1.977v8.074h-1.845v-2.23a5.628 5.628 0 0 1-2.193 1.831 6.782 6.782 0 0 1-2.958.66 5.84 5.84 0 0 1-1.953-.294Zm3.68-1.586a5.873 5.873 0 0 0 1.335-.544c.43-.242.827-.543 1.179-.894.363-.357.67-.77.91-1.222v-1.76h-3.854c-1.306 0-2.269.207-2.882.611a2.174 2.174 0 0 0-.883 1.393 2.202 2.202 0 0 0 .638 1.973 3.116 3.116 0 0 0 2.16.626 5.49 5.49 0 0 0 1.416-.178l-.019-.005Zm7.349 5.81a4.042 4.042 0 0 1-1.339-.823l1.226-1.577c.227.251.491.465.783.634a2.08 2.08 0 0 0 1.019.236c.292.005.583-.034.863-.115.263-.087.507-.226.717-.41.251-.24.464-.52.632-.826.239-.42.455-.85.647-1.294l.278-.61-5.222-12.105h2.057l4.156 9.834 3.958-9.834h2.056l-5.66 13.268c-.266.622-.57 1.226-.911 1.808-.264.458-.595.871-.981 1.227a3.452 3.452 0 0 1-1.165.682 4.899 4.899 0 0 1-3.133-.096h.019Z" fill="#000"/></g><g clip-path="url(#b)"><path d="M35.592 9.07 20.46.441a3.594 3.594 0 0 0-3.463 0L1.812 9.071a3.58 3.58 0 0 0-1.323 1.316A3.636 3.636 0 0 0 0 12.198v17.205c-.005.638.161 1.266.48 1.817.319.55.779 1.003 1.332 1.31l15.131 8.576c.531.323 1.14.491 1.759.486a3.463 3.463 0 0 0 1.758-.486l15.132-8.575a3.58 3.58 0 0 0 1.323-1.317c.318-.55.486-1.174.488-1.811V12.199a3.474 3.474 0 0 0-.465-1.826 3.418 3.418 0 0 0-1.346-1.303Z" fill="url(#c)"/><path d="m8.152 25.305-.906.54a1.401 1.401 0 0 0-.668.858 1.43 1.43 0 0 0 .136 1.083 1.4 1.4 0 0 0 1.225.755c.24-.002.476-.057.693-.161l.905-.54a1.4 1.4 0 0 0 .669-.857 1.43 1.43 0 0 0-.136-1.084 1.385 1.385 0 0 0-.831-.72 1.355 1.355 0 0 0-1.087.127Zm5.541-3.181-1.864 1.078a1.4 1.4 0 0 0-.669.858 1.431 1.431 0 0 0 .136 1.084 1.4 1.4 0 0 0 1.226.755c.239-.002.475-.058.692-.162l1.865-1.079a1.4 1.4 0 0 0 .668-.858 1.43 1.43 0 0 0-.136-1.083 1.384 1.384 0 0 0-.83-.72 1.355 1.355 0 0 0-1.088.127Zm7.513-2.638a1.27 1.27 0 0 0-.746-.647V7.993a1.465 1.465 0 0 0-.42-1.031 1.432 1.432 0 0 0-1.019-.425 1.376 1.376 0 0 0-.997.431 1.41 1.41 0 0 0-.388 1.025v10.895a1.253 1.253 0 0 0-.746.647 1.448 1.448 0 0 0-.053 1.24 1.45 1.45 0 0 0 .053 1.24 1.273 1.273 0 0 0 .746.648v10.894c0 .386.152.757.422 1.03a1.43 1.43 0 0 0 2.034 0c.27-.273.421-.644.421-1.03V22.61a1.255 1.255 0 0 0 .746-.647 1.448 1.448 0 0 0 .053-1.24c.124-.41.086-.854-.106-1.236Zm3.628-3.727-1.864 1.08a1.401 1.401 0 0 0-.669.857 1.43 1.43 0 0 0 .136 1.084c.119.225.295.414.51.546.216.133.463.205.715.209.24-.002.476-.058.693-.162l1.865-1.079a1.403 1.403 0 0 0 .668-.857 1.43 1.43 0 0 0-.136-1.084 1.385 1.385 0 0 0-.83-.72 1.354 1.354 0 0 0-1.088.127Zm4.417.54c.24-.002.477-.058.693-.162l.906-.54a1.413 1.413 0 0 0 .668-.858 1.443 1.443 0 0 0-.13-1.086 1.42 1.42 0 0 0-.852-.673 1.39 1.39 0 0 0-1.072.137l-.905.54a1.402 1.402 0 0 0-.669.857 1.431 1.431 0 0 0 .136 1.084c.122.218.3.4.516.523.216.123.461.185.71.178Zm1.599 9.546-.906-.54a1.393 1.393 0 0 0-1.067-.128 1.41 1.41 0 0 0-.845.671 1.44 1.44 0 0 0-.132 1.08c.099.363.336.671.659.858l.905.54c.217.104.453.16.693.162a1.4 1.4 0 0 0 .715-.209c.215-.133.392-.321.51-.547a1.343 1.343 0 0 0-.532-1.887Zm-4.636-2.643-1.864-1.079a1.396 1.396 0 0 0-1.925.536 1.437 1.437 0 0 0 .54 1.945l1.864 1.079c.216.105.453.16.693.162a1.4 1.4 0 0 0 .714-.208c.216-.133.392-.322.511-.547a1.33 1.33 0 0 0-.533-1.888ZM11.83 18.24l1.864 1.079c.217.105.453.16.693.162a1.4 1.4 0 0 0 .715-.208c.215-.133.391-.322.51-.547a1.426 1.426 0 0 0-.532-1.942l-1.865-1.078a1.383 1.383 0 0 0-1.918.539 1.527 1.527 0 0 0-.124 1.104c.099.371.334.69.656.891Zm-2.292-4.584-.905-.54a1.396 1.396 0 0 0-1.924.537 1.437 1.437 0 0 0 .538 1.945l.906.539c.217.104.453.16.693.162.252-.004.499-.076.714-.208.216-.133.392-.322.511-.547a1.375 1.375 0 0 0-.533-1.888Z" fill="#20133A"/></g><defs><clipPath id="a"><path fill="#fff" transform="translate(50.273 11.518)" d="M0 0h144.727v23.036H0z"/></clipPath><clipPath id="b"><path fill="#fff" d="M0 0h41.133v43H0z"/></clipPath><linearGradient id="c" x1="0" y1="20.795" x2="37.409" y2="20.795" gradientUnits="userSpaceOnUse"><stop stop-color="#9059FF"/><stop offset="1" stop-color="#F770FF"/></linearGradient></defs></svg>