<svg height="2in" viewBox="0 0 216 144" width="3in" xmlns="http://www.w3.org/2000/svg"><radialGradient id="a" cx="82.58" cy="113.93" gradientUnits="userSpaceOnUse" r="102.61"><stop offset=".26" stop-color="#cdcdd4" stop-opacity="0"/><stop offset=".4" stop-color="#cdcdd4" stop-opacity=".02"/><stop offset=".55" stop-color="#cdcdd4" stop-opacity=".08"/><stop offset=".69" stop-color="#cdcdd4" stop-opacity=".18"/><stop offset=".72" stop-color="#cdcdd4" stop-opacity=".2"/></radialGradient><radialGradient id="b" cx="74.73" cy="149.39" gradientUnits="userSpaceOnUse" r="150.75"><stop offset=".27" stop-color="#cdcdd4" stop-opacity="0"/><stop offset=".46" stop-color="#cdcdd4" stop-opacity=".02"/><stop offset=".66" stop-color="#cdcdd4" stop-opacity=".08"/><stop offset=".86" stop-color="#cdcdd4" stop-opacity=".18"/><stop offset=".9" stop-color="#cdcdd4" stop-opacity=".2"/></radialGradient><radialGradient id="c" cx="129.21" cy="117.26" gradientTransform="matrix(1 0 0 .7 0 35.37)" gradientUnits="userSpaceOnUse" r="112.67"><stop offset=".4" stop-color="#cdcdd4" stop-opacity="0"/><stop offset=".58" stop-color="#cdcdd4" stop-opacity=".02"/><stop offset=".77" stop-color="#cdcdd4" stop-opacity=".08"/><stop offset=".96" stop-color="#cdcdd4" stop-opacity=".18"/><stop offset="1" stop-color="#cdcdd4" stop-opacity=".2"/></radialGradient><linearGradient id="d" gradientUnits="userSpaceOnUse" x1="179.95" x2="93.75" y1="32.17" y2="118.37"><stop offset="0" stop-color="#ff7139"/><stop offset=".22" stop-color="#ff624a"/><stop offset=".66" stop-color="#ff3c75"/><stop offset=".86" stop-color="#ff298a"/></linearGradient><path d="M67.9 55.29a9.51 9.51 0 01-9.47 9.51H20.36a7.27 7.27 0 010-14.54 7.15 7.15 0 011.74.22 7.24 7.24 0 01-.2-1.69 7.49 7.49 0 0111.74-6.17 12.6 12.6 0 0124.79 3.16 9.51 9.51 0 019.47 9.51z" fill="url(#a)"/><path d="M192.55 51.34a10.8 10.8 0 00-2.62.32 11.15 11.15 0 00.29-2.53 11.31 11.31 0 00-17.69-9.32 19 19 0 00-37.36 4.78 14.27 14.27 0 100 28.53h57.38a10.89 10.89 0 100-21.78z" fill="url(#b)"/><path d="M24.87 72.66A22.54 22.54 0 0147.32 50l120.77-.48a22.53 22.53 0 11.18 45.06l-120.77.53a22.54 22.54 0 01-22.63-22.45z" fill="url(#c)"/><path d="M184.76 79.26l-14-34a9.94 9.94 0 00-1.87-2.94 7.41 7.41 0 00-.63-.62 3.11 3.11 0 00-1-.62c-.92-.37-2.68-.93-5.57-1.78l-.34-.09c-10.52-3.07-30.78-8.36-31-8.42-3.15-.78-5.41-.78-7.35 0s-3.54 2.4-5.16 5.17c-.11.17-10.84 18.38-16 27.8l-.17.31c-1.41 2.56-2.25 4.17-2.66 5.08a3.46 3.46 0 00-.27 1.13v.46l-.16.39.18.44a10 10 0 00.73 3.08l14 33.94a3.55 3.55 0 00.08.47 3.33 3.33 0 00.94 1.62 10 10 0 002.52 1.91 7.42 7.42 0 001 .45l.3.12.29.09a10 10 0 005.57.16l.27-.06.22-.07a5.49 5.49 0 00.84-.27l53.83-22.19a10 10 0 006.18-9.19 3.32 3.32 0 00-.77-2.37z" fill="url(#d)"/><path d="M166.11 53.57a1.91 1.91 0 00-2.64.63L150.8 74.72h-.19a13.27 13.27 0 00-12.13 2.21 16.94 16.94 0 00-4.14 4.47l-.09.14-23.37-5.61a1.92 1.92 0 10-.9 3.74L132.21 85 123 100.61a1.89 1.89 0 00-.21 1.45 1.92 1.92 0 002.34 1.39 1.14 1.14 0 00.26-.09 2 2 0 00.92-.79l11.39-19.26c0-.07 4.37-7.17 12-4.93L171.26 84a2 2 0 002.34-1.38 1.92 1.92 0 00-1.38-2.34l-17.52-4.55 12-19.51a1.92 1.92 0 00.23-1.46 1.86 1.86 0 00-.82-1.19z" fill="#ffa266" opacity=".8"/><path d="M140.19 49.19l-.9.37-1.46-3.56a7.76 7.76 0 00-14.34 5.91l1.51 3.56-.9.37a2.9 2.9 0 00-1.58 3.79l3.71 9A2.89 2.89 0 00130 70.2l16.13-6.65a2.89 2.89 0 001.58-3.79l-3.7-9a2.9 2.9 0 00-3.82-1.57zm-13.12 1.24a3.88 3.88 0 017.17-3l1.47 3.57-7.17 3z" fill="#f9f9fa"/><path d="M49.78 84.9a2.42 2.42 0 00-2.36 4.21c10.2 6.91 15.17 14.56 20 22a2.42 2.42 0 004.06-2.63C66.63 101 61.15 92.56 50.14 85.1a1.82 1.82 0 00-.36-.2zM38 77.32a2.47 2.47 0 00-.47-.29c-1.24-.59-2.46-1.13-3.67-1.62a2.43 2.43 0 00-1.86 4.5c1.12.44 2.25.94 3.4 1.49a2.42 2.42 0 002.6-4.08zM82.91 101a2.42 2.42 0 01-2.57-4 67.1 67.1 0 0113.18-9 2.36 2.36 0 013.28 1 2.42 2.42 0 01-1 3.27 62.55 62.55 0 00-12.25 8.38 2 2 0 01-.64.35z" fill="#b1b1bc"/></svg>