<svg xmlns="http://www.w3.org/2000/svg" width="215" height="163" fill="none" viewBox="0 24 215 138"><g filter="url(#a)"><path fill="#fff" d="M156.992 69.628c-.21 0-.416.011-.625.016l.001-.016c0-18.572-14.954-33.628-33.4-33.628-14.98 0-27.656 9.929-31.892 23.606a22.773 22.773 0 0 0-10.701-2.66c-12.705 0-23.005 10.37-23.005 23.162 0 2.083.278 4.101.79 6.022a18.423 18.423 0 0 0-7.544-1.617C40.335 84.513 32 92.905 32 103.256 32 113.608 40.335 122 50.616 122h106.376C171.356 122 183 110.276 183 95.814s-11.644-26.186-26.008-26.186Z"/></g><path fill="#DABDFF" d="M15 157.638V163h109v-5.362L109.997 154H30.896L15 157.638Z"/><path fill="#DABDFF" d="M119 151.89V88.11c0-2.839-2.28-5.11-5.131-5.11H25.13A5.099 5.099 0 0 0 20 88.11v63.78c0 2.839 2.28 5.11 5.13 5.11h88.739a5.099 5.099 0 0 0 5.131-5.11Z"/><path fill="#0090ED" d="M27.703 89h84.404c.379 0 .947.19 1.325.569.379.379.568.758.568 1.327v58.208c0 .379-.189.948-.568 1.327-.378.379-.757.569-1.325.569H27.703A1.698 1.698 0 0 1 26 149.293V90.896c0-.38.189-.948.567-1.327.19-.38.758-.57 1.136-.57ZM63.76 160h12.338c.38 0 .76-.222.76-.445.19-.444.19-.666 0-1.111-.19-.444-.57-.444-.76-.444H63.76c-.38 0-.76.444-.76 1.111s.38.889.76.889Z"/><path fill="#fff" d="M78.472 107c-6.451 0-8.574 6.392-8.574 6.392S67.776 107 61.324 107c-6.451 0-8.324 4.115-8.324 9.195s5.688 11.627 16.892 17.634c11.204-6.007 16.892-12.557 16.892-17.634S84.92 107 78.472 107Z"/><path fill="#fff" d="M71.907 127.867a46.07 46.07 0 0 0 14.365-9.362l.082-.018a7.793 7.793 0 0 0 .43-2.469c0-4.982-1.872-9.018-8.33-9.018-6.457 0-8.585 6.268-8.585 6.268S67.743 107 61.283 107c-2.995 0-5 .867-6.295 2.293-.024 1.393.382 12.312 16.919 18.574Z"/><path fill="#FF7EBD" d="M159.603 84.372h37.287c2.898 0 5.41 2.318 5.41 5.41v67.812c0 2.898-2.319 5.41-5.41 5.41h-37.48c-2.898 0-5.41-2.318-5.41-5.41V89.781c.193-2.898 2.512-5.41 5.603-5.41Z"/><path fill="#FE208C" d="M161.342 89.781h33.81c.386 0 .966.193 1.352.58.386.386.579.773.579 1.352v62.403c0 .387-.193.966-.579 1.353-.386.386-.773.579-1.352.579h-33.81a1.731 1.731 0 0 1-1.739-1.738V91.52c0-.386.193-.966.579-1.352.194-.194.58-.387 1.16-.387ZM175.639 160.299h5.023c.579 0 .966-.387.966-.966 0-.58-.387-.966-.966-.966h-5.023c-.58 0-.966.386-.966.966 0 .579.386.966.966.966Z"/><path fill="#FF7EBD" d="M187.231 150.446a2.705 2.705 0 1 1 0-5.41 2.705 2.705 0 0 1 0 5.41ZM178.15 150.446a2.705 2.705 0 1 1 0-5.41 2.705 2.705 0 0 1 0 5.41ZM169.263 150.446a2.705 2.705 0 1 1 0-5.41 2.705 2.705 0 0 1 0 5.41Z"/><circle cx="134.5" cy="119.5" r="27.5" fill="#fff"/><path fill="#FE208C" fill-rule="evenodd" d="M142.445 108.703a2.307 2.307 0 0 1 3.316 0 2.441 2.441 0 0 1 0 3.394l-7.445 7.62 7.997 8.186a2.44 2.44 0 0 1 0 3.394c-.915.937-2.4.937-3.316 0L135 123.111l-7.997 8.186a2.307 2.307 0 0 1-3.316 0 2.44 2.44 0 0 1 0-3.394l7.997-8.186-7.445-7.62a2.441 2.441 0 0 1 0-3.394 2.307 2.307 0 0 1 3.316 0l7.445 7.62 7.445-7.62Z" clip-rule="evenodd"/><path fill="#fff" d="M183.242 97c-3.861 0-5.131 3.825-5.131 3.825S176.841 97 172.981 97 168 99.463 168 102.502c0 3.04 3.403 6.957 10.108 10.552 6.704-3.595 10.108-7.514 10.108-10.552 0-3.038-1.116-5.502-4.974-5.502Z"/><path fill="#fff" d="M179.313 109.486a27.56 27.56 0 0 0 8.596-5.601l.049-.011c.165-.475.252-.975.258-1.478 0-2.981-1.121-5.396-4.985-5.396-3.864 0-5.137 3.751-5.137 3.751S176.822 97 172.956 97c-1.792 0-2.992.519-3.766 1.372-.015.834.228 7.367 10.123 11.114Z"/><path fill="#0090ED" fill-rule="evenodd" d="M71.546 105.693a1.633 1.633 0 1 1 2.303 2.317l-.003.002-.014.014-.06.06c-.053.055-.133.137-.234.244a33.9 33.9 0 0 0-.834.912 29.232 29.232 0 0 0-2.297 2.94c-.77 1.145-1.345 2.251-1.566 3.158-.216.886-.032 1.228.183 1.423.16.145.386.245.802.256.451.012.993-.084 1.663-.244.126-.03.263-.064.409-.101.518-.13 1.134-.284 1.654-.349.602-.075 1.844-.147 2.694.852.637.749.532 1.677.464 2.083-.088.521-.282 1.072-.497 1.585-.437 1.042-1.105 2.25-1.77 3.36a71.468 71.468 0 0 1-1.906 2.993 76.855 76.855 0 0 1-.837 1.224l-.05.072-.018.026-1.334-.944 1.334.944a1.635 1.635 0 0 1-2.666-1.888l.014-.02.045-.064.175-.252c.151-.219.367-.534.623-.916a67.98 67.98 0 0 0 1.817-2.853c.603-1.006 1.144-1.993 1.495-2.793l-.277.069c-.182.045-.383.095-.61.149-.702.168-1.6.357-2.51.333-.946-.026-2.005-.285-2.906-1.1-1.466-1.327-1.527-3.136-1.164-4.62.357-1.464 1.184-2.949 2.027-4.205.86-1.28 1.822-2.443 2.559-3.279.37-.42.69-.763.917-1.002.114-.12.205-.214.27-.28l.074-.076.022-.021.006-.006.003-.003 1.151 1.158-1.151-1.158Zm2.65 13.862c-.001 0-.011 0-.028-.003.02.001.028.002.028.003Zm-.701-.878c-.001-.03.001-.047.002-.048a.157.157 0 0 1-.002.048Z" clip-rule="evenodd"/><path fill="#FE208C" fill-rule="evenodd" d="m180.308 97.692-.006.007-.028.03-.109.118c-.095.105-.231.258-.389.447-.319.38-.718.89-1.062 1.43-.354.557-.6 1.072-.684 1.471-.077.366.01.434.039.457l.003.003c.037.03.103.068.283.066.199-.001.445-.052.771-.14l.19-.053c.254-.072.57-.162.837-.204.297-.047.996-.122 1.505.42.4.426.352.969.324 1.178-.037.278-.13.566-.229.823-.203.523-.517 1.127-.825 1.675a35.376 35.376 0 0 1-1.284 2.088l-.024.036-.009.013-.83-.557.83.557a.999.999 0 1 1-1.66-1.114l.006-.01.021-.031.081-.123a31.92 31.92 0 0 0 1.126-1.842c.185-.326.354-.646.492-.933l-.027.007c-.346.094-.803.206-1.276.21-.493.005-1.066-.106-1.569-.519-.832-.681-.894-1.652-.732-2.42.158-.75.556-1.505.953-2.13.408-.642.867-1.225 1.218-1.644a18.484 18.484 0 0 1 .569-.645l.036-.039.011-.011.003-.003.001-.002.706.676-.705-.676a1 1 0 1 1 1.443 1.384Zm.251 5.599h-.023.023Zm-.559-.635c0-.034.005-.038 0 0Z" clip-rule="evenodd"/><defs><filter id="a" width="215" height="150" x="0" y="0" color-interpolation-filters="sRGB" filterUnits="userSpaceOnUse"><feFlood flood-opacity="0" result="BackgroundImageFix"/><feColorMatrix in="SourceAlpha" result="hardAlpha" values="0 0 0 0 0 0 0 0 0 0 0 0 0 0 0 0 0 0 127 0"/><feOffset dy="-4"/><feGaussianBlur stdDeviation="16"/><feComposite in2="hardAlpha" operator="out"/><feColorMatrix values="0 0 0 0 0 0 0 0 0 0.564706 0 0 0 0 0.929412 0 0 0 0.12 0"/><feBlend in2="BackgroundImageFix" result="effect1_dropShadow_1579_12939"/><feBlend in="SourceGraphic" in2="effect1_dropShadow_1579_12939" result="shape"/></filter></defs></svg>
