<svg width="92" height="124" xmlns="http://www.w3.org/2000/svg" xmlns:xlink="http://www.w3.org/1999/xlink">
    <defs>
        <linearGradient x1="43.578%" y1="-163.636%" x2="43.578%" y2="263.598%" id="b">
            <stop stop-color="#00C8D7" offset="0%"/>
            <stop stop-color="#0A84FF" offset="100%"/>
        </linearGradient>
        <path
            d="M80.738 116a3.217 3.217 0 0 0 3.222-3.214L84 19.412H68.923a4.639 4.639 0 0 1-4.646-4.634V0H3.221A3.228 3.228 0 0 0 0 3.214v109.562A3.228 3.228 0 0 0 3.221 116h77.517z"
            id="a"/>
        <linearGradient x1="43.578%" y1="-515.603%" x2="43.578%" y2="814.819%" id="d">
            <stop stop-color="#00C8D7" offset="0%"/>
            <stop stop-color="#0A84FF" offset="100%"/>
        </linearGradient>
        <path d="M83.59 17.56L66 0v14a3.6 3.6 0 0 0 3.59 3.56h14z" id="c"/>
        <linearGradient x1="-170.039%" y1="49.981%" x2="257.195%" y2="49.981%" id="e">
            <stop stop-color="#00C8D7" offset="0%"/>
            <stop stop-color="#0A84FF" offset="100%"/>
        </linearGradient>
    </defs>
    <g fill="none" fill-rule="evenodd">
        <g stroke-linejoin="round" transform="translate(4 4)">
            <use fill="#FFF" xlink:href="#a"/>
            <path stroke="url(#b)" stroke-width="4"
                  d="M80.738 118H3.215A5.228 5.228 0 0 1-2 112.776V3.206A5.23 5.23 0 0 1 3.221-2h63.056v16.778a2.639 2.639 0 0 0 2.646 2.634H86L86 19.413l-.04 93.373A5.217 5.217 0 0 1 80.738 118z"/>
        </g>
        <g stroke-linejoin="round" transform="translate(4 4)">
            <use fill="#FFF" xlink:href="#c"/>
            <path stroke="url(#d)" stroke-width="4"
                  d="M83.59 19.56H69.585c-3.063-.008-5.55-2.475-5.585-5.56V-4.823L88.424 19.56H83.59z"/>
        </g>
        <path
            d="M18.986 36.216l-3.446.781 2.342 2.748L16.261 41l-1.78-3.174L12.726 41l-1.621-1.232 2.32-2.77L10 36.215l.608-1.942 3.198 1.444L13.468 32h2.027l-.338 3.742 3.198-1.492.631 1.966zm10.638 0l-3.446.781 2.342 2.748L26.899 41l-1.78-3.174L23.363 41l-1.622-1.232 2.32-2.77-3.423-.782.608-1.942 3.198 1.444L24.106 32h2.027l-.338 3.742 3.198-1.492.63 1.966zm10.637 0l-3.446.781 2.343 2.748L37.536 41l-1.78-3.174L34 41l-1.621-1.232 2.32-2.77-3.424-.782.608-1.942 3.198 1.444L34.743 32h2.027l-.337 3.742 3.198-1.492.63 1.966zm10.638 0l-3.446.781 2.342 2.748L48.174 41l-1.78-3.174L44.638 41l-1.622-1.232 2.32-2.77-3.423-.782.608-1.942 3.198 1.444L45.38 32h2.027l-.338 3.742 3.198-1.492.63 1.966zm10.637 0l-3.445.781 2.342 2.748L58.81 41l-1.779-3.174L55.275 41l-1.621-1.232 2.32-2.77-3.424-.782.608-1.942 3.198 1.444L56.02 32h2.027l-.338 3.742 3.198-1.492.63 1.966zm10.638 0l-3.446.781 2.342 2.748L69.45 41l-1.78-3.174L65.914 41l-1.622-1.232 2.32-2.77-3.423-.782.608-1.942 3.198 1.444L66.656 32h2.027l-.338 3.742 3.198-1.492.63 1.966zM18.986 48.216l-3.446.781 2.342 2.748L16.261 53l-1.78-3.174L12.726 53l-1.621-1.232 2.32-2.77L10 48.215l.608-1.942 3.198 1.444L13.468 44h2.027l-.338 3.742 3.198-1.492.631 1.966zm10.638 0l-3.446.781 2.342 2.748L26.899 53l-1.78-3.174L23.363 53l-1.622-1.232 2.32-2.77-3.423-.782.608-1.942 3.198 1.444L24.106 44h2.027l-.338 3.742 3.198-1.492.63 1.966zm10.637 0l-3.446.781 2.343 2.748L37.536 53l-1.78-3.174L34 53l-1.621-1.232 2.32-2.77-3.424-.782.608-1.942 3.198 1.444L34.743 44h2.027l-.337 3.742 3.198-1.492.63 1.966zm10.638 0l-3.446.781 2.342 2.748L48.174 53l-1.78-3.174L44.638 53l-1.622-1.232 2.32-2.77-3.423-.782.608-1.942 3.198 1.444L45.38 44h2.027l-.338 3.742 3.198-1.492.63 1.966zm10.637 0l-3.445.781 2.342 2.748L58.81 53l-1.779-3.174L55.275 53l-1.621-1.232 2.32-2.77-3.424-.782.608-1.942 3.198 1.444L56.02 44h2.027l-.338 3.742 3.198-1.492.63 1.966zm10.638 0l-3.446.781 2.342 2.748L69.45 53l-1.78-3.174L65.914 53l-1.622-1.232 2.32-2.77-3.423-.782.608-1.942 3.198 1.444L66.656 44h2.027l-.338 3.742 3.198-1.492.63 1.966zM18.986 60.216l-3.446.781 2.342 2.748L16.261 65l-1.78-3.174L12.726 65l-1.621-1.232 2.32-2.77L10 60.215l.608-1.942 3.198 1.444L13.468 56h2.027l-.338 3.742 3.198-1.492.631 1.966zm10.638 0l-3.446.781 2.342 2.748L26.899 65l-1.78-3.174L23.363 65l-1.622-1.232 2.32-2.77-3.423-.782.608-1.942 3.198 1.444L24.106 56h2.027l-.338 3.742 3.198-1.492.63 1.966zm10.637 0l-3.446.781 2.343 2.748L37.536 65l-1.78-3.174L34 65l-1.621-1.232 2.32-2.77-3.424-.782.608-1.942 3.198 1.444L34.743 56h2.027l-.337 3.742 3.198-1.492.63 1.966zm10.638 0l-3.446.781 2.342 2.748L48.174 65l-1.78-3.174L44.638 65l-1.622-1.232 2.32-2.77-3.423-.782.608-1.942 3.198 1.444L45.38 56h2.027l-.338 3.742 3.198-1.492.63 1.966zm10.637 0l-3.445.781 2.342 2.748L58.81 65l-1.779-3.174L55.275 65l-1.621-1.232 2.32-2.77-3.424-.782.608-1.942 3.198 1.444L56.02 56h2.027l-.338 3.742 3.198-1.492.63 1.966zm10.638 0l-3.446.781 2.342 2.748L69.45 65l-1.78-3.174L65.914 65l-1.622-1.232 2.32-2.77-3.423-.782.608-1.942 3.198 1.444L66.656 56h2.027l-.338 3.742 3.198-1.492.63 1.966zM18.986 73.216l-3.446.781 2.342 2.748L16.261 78l-1.78-3.174L12.726 78l-1.621-1.232 2.32-2.77L10 73.215l.608-1.942 3.198 1.444L13.468 69h2.027l-.338 3.742 3.198-1.492.631 1.966zm10.638 0l-3.446.781 2.342 2.748L26.899 78l-1.78-3.174L23.363 78l-1.622-1.232 2.32-2.77-3.423-.782.608-1.942 3.198 1.444L24.106 69h2.027l-.338 3.742 3.198-1.492.63 1.966zm10.637 0l-3.446.781 2.343 2.748L37.536 78l-1.78-3.174L34 78l-1.621-1.232 2.32-2.77-3.424-.782.608-1.942 3.198 1.444L34.743 69h2.027l-.337 3.742 3.198-1.492.63 1.966zm10.638 0l-3.446.781 2.342 2.748L48.174 78l-1.78-3.174L44.638 78l-1.622-1.232 2.32-2.77-3.423-.782.608-1.942 3.198 1.444L45.38 69h2.027l-.338 3.742 3.198-1.492.63 1.966zm10.637 0l-3.445.781 2.342 2.748L58.81 78l-1.779-3.174L55.275 78l-1.621-1.232 2.32-2.77-3.424-.782.608-1.942 3.198 1.444L56.02 69h2.027l-.338 3.742 3.198-1.492.63 1.966zm10.638 0l-3.446.781 2.342 2.748L69.45 78l-1.78-3.174L65.914 78l-1.622-1.232 2.32-2.77-3.423-.782.608-1.942 3.198 1.444L66.656 69h2.027l-.338 3.742 3.198-1.492.63 1.966z"
            fill="url(#e)" transform="translate(4 4)"/>
    </g>
</svg>
