<?xml version="1.0" encoding="UTF-8" ?>
<!DOCTYPE svg PUBLIC "-//W3C//DTD SVG 1.1//EN" "http://www.w3.org/Graphics/SVG/1.1/DTD/svg11.dtd">
<svg width="500pt" height="500pt" viewBox="0 0 500 500" version="1.1" xmlns="http://www.w3.org/2000/svg">
<path fill="rgba(255,255,255,0)" d=" M 0.00 0.00 L 500.00 0.00 L 500.00 500.00 L 0.00 500.00 L 0.00 0.00 Z" />
<path fill="#0095DD" d=" M 239.39 67.48 C 290.59 64.49 341.92 87.04 376.78 124.23 C 417.78 167.55 434.72 232.18 420.07 290.01 C 406.39 346.45 363.85 395.19 309.20 415.24 C 256.47 436.05 194.23 429.28 147.04 397.98 C 99.70 367.59 67.91 313.72 65.64 257.31 C 61.54 206.14 82.76 154.81 118.71 118.72 C 136.78 101.01 171.04 109.41 177.93 134.03 C 183.45 148.18 177.35 164.65 166.26 174.26 C 131.83 209.89 128.33 270.35 158.05 309.96 C 185.46 349.36 240.74 365.79 285.01 347.01 C 322.22 332.73 349.45 296.08 352.35 256.31 C 357.72 208.92 325.89 161.18 281.08 145.87 C 280.89 172.58 281.03 199.29 281.03 226.01 C 283.69 246.55 265.01 267.36 243.99 265.07 C 225.29 265.59 208.95 248.47 209.06 230.00 C 208.89 188.33 209.10 146.66 208.96 104.99 C 207.76 87.15 221.83 70.15 239.39 67.48 Z" />
</svg>
