<svg xmlns="http://www.w3.org/2000/svg" width="32" height="32" viewBox="0 0 32 32"><style>path,rect{fill:#505050}#screen{fill-opacity:.1}#icon{fill-opacity:.6}</style><path id="body" d="M2 7c0-1.1.9-2 2-2h24c1.1 0 2 .9 2 2v16H2V7zm2 14h24V7H4v14zm26 5H2c-1.1 0-2-.9-2-2h32s-.9 2-2 2z"/><path id="screen" class="cls-2" d="M4 7h24v14H4z"/><path id="icon" d="M20 16.3c-.1.2-.1.3-.2.5-.1.3-.3.7-.5 1-.2.3-.4.6-.7.8-.2.2-.5.4-.8.4-.3 0-.5-.1-.8-.2-.3-.1-.5-.2-.8-.2-.3 0-.6.1-.9.2-.2.1-.5.2-.7.2-.3 0-.6-.2-.9-.4-.3-.3-.5-.6-.7-.9-.3-.5-.6-1-.7-1.5-.2-.6-.3-1.2-.3-1.8 0-.6.1-1.2.4-1.7.2-.4.5-.7.9-.9.4-.2.8-.3 1.2-.3.3 0 .6.1.9.2.2.1.5.2.7.2.3-.1.5-.1.8-.3.3-.1.7-.2 1.1-.2.7 0 1.4.4 1.8 1-.7.4-1.1 1.1-1.1 1.9 0 .9.5 1.7 1.3 2zM18 9v.2c0 .5-.2 1-.5 1.4-.3.5-.9.8-1.5.8v-.2c0-.5.2-1 .6-1.4.2-.2.4-.4.7-.5.2-.2.4-.3.7-.3z"/></svg>