<svg width="84" height="84" xmlns="http://www.w3.org/2000/svg"><path d="M77.977 19.48L44.658.55a4.239 4.239 0 00-4.177 0L7.113 19.48C5.786 20.215 5 21.634 5 23.1v37.812c0 1.516.786 2.886 2.113 3.62l33.319 18.93a4.476 4.476 0 002.064.538c.688 0 1.425-.196 2.064-.538l33.319-18.93c1.326-.734 2.113-2.153 2.113-3.62V23.1c.098-1.467-.688-2.837-2.015-3.62zm-6.29 34.144L46.77 39.584V11.41l24.916 14.136v28.078zM42.545 75.048L13.403 58.515V25.546L38.32 11.41v30.474c0 1.76 1.08 3.228 2.604 3.864.246.294.59.538.934.734l25.653 14.43-24.965 14.136z" fill="#505050" fill-rule="nonzero"/></svg>