<svg xmlns="http://www.w3.org/2000/svg" width="16" height="16" viewBox="0 0 16 16"><circle fill="#a6a6a6" cx="8" cy="8" r="7"/><path fill="#fff" d="M6.316 2.74c-.018 0-.037 0-.054.008-.004.002-.01.006-.013.01h.01c.02-.004.03-.016.05-.017zm.023.86c.02-.03-.04-.053-.07-.05.01-.036.05-.054.04-.098-.01-.046-.07-.037-.1-.012-.03.023-.04.063-.07.09-.02.015-.04.02-.05.038-.01.017 0 .046 0 .065.03.005.07-.006.1-.032h.01l-.01.02c.02.02.1.02.11 0zm.03-1.227c0 .054.05.06.09.08-.02.032-.06.03-.08.056-.03.03.02.05.04.07.04.02.01.05.01.09-.01.05.1.04.12.03.04 0 .11 0 .15-.02.04-.03.06-.08.11-.11.04-.03.09-.04.13-.02.04.01.04.07.07.09.04.02.08.03.12-.01.02-.03.07-.06.07-.09 0-.05.02-.09.07-.1.04-.01.03.03.07.04.07.02.1-.2.18-.14.01.01.02.07.05.07.03-.01.03-.05.06-.05.01.03-.06.07-.07.1.04-.04.06-.03.11-.04.01.03-.08.09-.11.09-.04.01-.06-.01-.09.01-.02.01-.05.01-.07.01-.04.01-.1.05-.1.09 0 .02.01.05 0 .06-.01.02-.04 0-.05-.01-.03.05-.07-.03-.09.03.04.01.08.05.12.06l.13.03c.07.02.18-.06.23-.11.05-.04.12-.13.13-.19.02-.07.09-.15.08-.22-.02-.06-.03-.09.04-.11.03-.01.11-.03.12-.06.01-.05-.15-.04-.17-.05-.09-.04-.12-.08-.22-.04-.05.02-.1.03-.15.05-.03 0-.06 0-.07.03-.01.01-.02.01-.03.02-.04.02.01-.07.02-.07.02-.02.04-.07 0-.05-.07.01-.12.11-.19.12-.05 0-.04-.04-.02-.07.03-.05-.05-.06-.08-.06-.05 0-.08.03-.13.03-.04.01-.09.01-.13.01-.09 0-.14.05-.23.02-.09-.03-.19.05-.27.06-.03 0-.07 0-.08.03-.01.03 0 .07.02.09h.01c-.02.02-.02.05-.05.06-.02.01-.05.04-.07.07-.01.02-.04.09.01.05.04-.03.06-.08.12-.07zM3.18 7.108c-.09-.066-.297-.082-.272-.236.016-.094.113-.167.19-.213.103-.06.22-.07.333-.06.03 0 .08 0 .1.02.01.01.02.02.04.02.03.01.07.01.1.01.05.01.08.05.13.01.06-.04.07-.05.13-.04.06 0 .1-.04.15-.04h.04c.01-.02.02-.03.03-.04.03-.01.08.05.11.06.07.01.06-.03.07-.08.03-.01.05.04.08.01 0 .01.01.02.01.03h.02c.01-.01.01-.01.01-.02.02 0 .03-.01.03-.03.02 0 .03-.01.05-.01.01-.04.03-.08.01-.11l.02-.01c0-.04.03-.05.03-.08-.04-.01-.08-.01-.11-.01.02-.02.07-.07.08-.09.01-.05-.06-.08-.05-.14 0 .03.04.1.07.11.07.02.05-.05.05-.09.02-.12.12-.02.13.04.03-.07.11.01.07.07-.02.03-.04.02-.02.06.01.02.04.02.07.02.01-.02.02-.04.02-.06.06-.02.09.04.06.08.04-.02.08-.04.13-.06-.02-.09-.05-.18-.03-.28 0-.02.01-.05.02-.06.02-.02 0-.01-.01-.03 0-.04.04-.08.06-.12-.05-.01 0-.1.03-.12.04-.02.14.01.14-.02.02.01.04.03.06.03.06 0 .1 0 .13.05.02.02.05.07.08.08 0 .04.05.06 0 .1-.04.02-.08.02-.1.06-.01.03-.04.05.01.07.02.01.04.02.06.02.01.03.02.06.06.06.08-.01.09-.1.15-.14.1-.05.08.17.17.11.02-.02.02-.07.03-.09.02-.05.04-.09.07-.13.04-.05.08-.1.07-.17-.01-.04-.08-.05-.11-.08-.04-.03-.07-.06-.1-.11-.01-.02-.02-.03 0-.04.01-.01.01-.02.01-.03-.02-.05-.09-.14 0-.17.02-.01.06-.07.07-.1 0-.04-.06-.08-.03-.12.02-.03.07-.05.1-.08.01-.02.03-.03.05-.03 0-.02.01-.04.02-.05.02-.02.06-.01.09-.02.05-.02.07-.06.1-.09.03-.02.06-.02.1-.03.02-.01.03-.03.04-.04.05-.02.09.01.11.05.05.09.1.22.23.18.05-.01.09-.05.11-.1.02-.05 0-.09 0-.13.01-.08.08-.13.09-.21-.06 0-.02-.04-.04-.07-.02-.04-.07-.01-.102-.02.03-.08.03-.11-.05-.15-.04-.01-.094-.09-.12-.09.02-.03.07.02.09.03.03.03.06.04.11.05-.015-.02-.02-.06-.01-.09.01-.02-.016-.05-.01-.07.05.07.04.15.074.23.01.03.04.05.06.09.02.04 0 .04.04.06.02.02.03.05.034.07.01.04.02.03.05.05.01.02.05.02.04.05-.004.02-.02.04-.02.06-.01.06.12-.03.136-.03.03-.02.08-.03.1-.05.03-.03.02-.07.05-.09.03-.03.06-.01.09-.02.04-.01.08-.04.11-.07.07-.05.11-.11.16-.18-.02.01-.1.07-.11.01-.03 0-.1 0-.11-.04-.01-.02 0-.05 0-.07 0-.03-.03-.02-.05-.04-.05-.03-.07-.08-.11-.11-.08-.04-.12-.1-.17-.17-.03-.04-.12-.12-.11-.16 0-.03.03-.07.03-.1 0-.02-.03-.04-.02-.07 0-.04-.09-.1-.01-.11.02-.01.03-.03.05-.05.03-.02.02-.03.054-.03.05.01.09-.04.124-.08.06-.06-.04-.06-.04-.1-.006-.04-.03-.07-.036-.12-.003-.04-.04-.02-.055-.01-.03.01-.05-.01-.08-.01-.02-.01-.04-.05-.07-.03-.02.01-.02.03-.05.03-.02 0-.037-.03-.058-.03-.03 0 0 .03-.04.03-.03 0-.11-.03-.11 0-.03-.046-.04.03-.07.04-.03.01-.07 0-.1.013-.07.02-.05.09.02.1.05.01-.02.05 0 .08s.02.06.05.07c.06.02.12.032.1.11-.03.09-.09.18-.18.22-.09.04-.11-.07-.176-.1-.04-.01-.09-.01-.13 0-.01.01.06.03.07.05.02.04-.03.03-.04.06 0 .02-.04.04-.02.062-.02-.02-.05.01-.07.02-.02.02-.01.03-.01.06.02.05-.06.1-.1.1-.04 0-.07 0-.11-.02-.04-.02-.03-.01-.04-.05-.01-.05-.07-.07-.03-.13.027-.048.01-.04.01-.08-.01-.04.01-.05.04-.058.04-.01.05-.07.07-.11.01-.01.03-.06-.01-.05-.02.01 0 .03-.03.04-.026 0-.05-.01-.07-.01-.02 0-.05.01-.07-.01.01-.01.095-.08.03-.09-.03-.01-.01.04-.04.03-.01.04-.05.03-.07.06.01-.04.085-.07.06-.1.055-.05.07-.06-.01-.09-.12-.04-.11-.16-.03-.24.075-.06.2-.15.27-.04.08.12.13.04.19-.04-.02 0 0-.01-.01-.04-.07.03-.13-.06-.08-.12.03-.03.08-.02.12-.03.034-.01.07-.04.08-.07-.03.01-.026-.01-.01-.022-.02-.008-.04-.01-.06-.02-.04-.02-.04-.05-.09-.06-.1-.017.12-.14.01-.14-.04 0-.07-.05-.09-.04-.02.01-.03.02-.05.014-.014-.01-.03-.02-.05-.01-.04.02-.05-.01-.08.01-.03.01-.05.04-.09.03.036-.047.08-.087.11-.137.02-.03.05-.06.08-.08.02-.01.07-.02.08-.05 0-.05-.02-.04-.05-.03l-.23.14c-.05.03-.08.06-.14.05-.04 0-.06.04-.1.04-.02-.06-.39.18-.434.2-.07.03-.15.09-.23.11-.03.003-.09.08-.09 0-.04-.01-.07.03-.09.05-.03.03-.08.05-.12.07-.08.06-.16.13-.24.19-.08.06-.16.13-.24.18-.03.02-.13.08-.13.11.07.02.32-.29.39-.21.02.02-.1.09-.12.1-.02.01-.04.01-.053.02-.02.01-.03.03-.053.05-.06.03-.1.08-.14.13-.03.03-.05.08-.08.11v-.1c-.04.02-.06.07-.12.053-.05-.01-.09.04-.12.07-.09.06-.14.13-.21.21-.04.04-.08.07-.11.12-.03.06-.07.11-.1.16-.07.1-.14.19-.21.29-.13.2-.22.43-.33.64-.05.11-.11.22-.13.34-.02.11-.02.21-.02.32.06-.05.06.05.04.08-.02.04-.03.1-.034.15-.01.064-.03.13-.03.195 0 .06-.02.11-.02.17-.02-.02.02-.087-.02-.077-.02.005-.02.034-.03.05-.02.05-.09.046-.1.105 0 .034-.01.06-.03.084-.02.02 0 .03 0 .05.01.05-.06.13-.04.17.01.04 0 .09.02.13.01.02.03.05.02.07-.04.01.01.11.02.14.01.05.05.2.1.225.06.09.14.22.24.27.08.04.1-.06.14-.1.05-.05.12-.08.19-.11.06-.02.3-.09.19-.17zm.1 3.285c.014-.02.005-.07-.02-.088-.05-.044-.07.06-.036.09.013.034.043.023.058-.002zM3.5 7.37c-.015-.014-.025-.006-.026-.033 0-.024.003-.07-.03-.04-.008.002.004.007-.01.012-.008 0-.015-.01-.02-.01-.017-.01-.027-.01-.04.01-.01.01-.01.02-.024.03l-.025.01c-.01 0-.035.02-.036.03-.01.01.01.02.03.03.01.01.03.01.04.02.01.01.03.02.05.03.03.02.09.04.12 0 .01-.02.01-.03 0-.05s-.03-.02-.03-.03c-.01-.02 0-.02-.01-.03zm4.745.754c-.02 0-.052.013-.067.026-.03.026.034.04.058.048.028.016.067.024.094.04.023.017.038.04.064.05.032.016.075.023.11.032.014.005.037.004.057.008.03.013.04.033.05.047.03.028.08.035.12.033.04.004.07.01.1.002.04-.01.07.01.11.01.02 0 .03-.012.05-.01.02 0 .02.007.03.023.02.023.06.058.09.06.02 0 .03-.004.05 0 .02.01.03.01.04.02.02.01.04.016.05.032.02.028.02.06.04.08l.05.04c.01.012 0 .01.02.01.01.002.03.002.04-.002.05-.003.02-.073.01-.096-.01-.02-.02-.036-.01-.055 0-.023.01-.04 0-.058-.01-.012-.02-.018-.03-.024-.01-.008-.01-.016-.02-.028-.01-.02-.04-.025-.06-.043-.03-.04-.05-.08-.09-.11-.02-.02-.04-.01-.07-.02-.01-.01-.01-.02-.03-.02-.01-.01-.02 0-.04 0-.03 0-.05-.03-.08-.03s-.03.03-.05.05c-.01.01-.03.01-.04-.01 0-.03.01-.05.02-.06.02-.03 0-.04-.03-.04s-.04.03-.05.06c-.02.03-.04.01-.07 0-.02 0-.03.01-.06 0-.01-.01-.01-.02-.02-.03-.02-.01-.03-.01-.04 0-.02 0-.02 0-.03-.01-.01-.01-.02-.02-.03-.02-.03-.01-.06.02-.08.01l-.03-.03c-.01-.01-.01 0-.02.01-.01.02-.04.02-.06.01-.02-.02-.02-.05-.06-.05zm1.127 1.182c.016-.002.024-.018.037-.016.01-.003 0 .013.01.023s.02.01.03.01c.01.002.05.004.06-.012 0-.02-.04-.03-.05-.05-.01-.02.01-.05.02-.08s-.03-.05-.03-.07c0-.03.02-.04.01-.06-.01-.02-.03-.04-.04-.06-.01-.01-.04-.03-.04-.05 0-.02.04-.02.02-.05-.01-.02-.05-.02-.07-.02-.01 0-.02 0-.03-.01-.01-.01-.01-.02-.01-.03-.01-.02-.03-.03-.05-.05-.01 0-.02-.01-.03-.02s.01-.01 0-.02c-.01-.02-.06.01-.08 0-.01 0-.01-.01-.02-.03L9.1 8.7c-.03-.01-.042.017-.04.04.018.06.06.1.058.16 0 .03.004.04.013.06.01.04.02.05.01.087-.02.018 0 .04.01.063 0 .03.01.053.01.086-.01.06-.02.12-.02.18 0 .022 0 .045.01.07 0 .03.03.04.06.06.03.02.14.09.11 0-.01-.02-.02-.047-.03-.07-.01-.024.02-.04.02-.064 0-.025-.02-.034.02-.04.01-.006.02 0 .03 0zM8.182 2.1c.03-.007.06.002.09-.01.015-.005.063-.022.06-.042-.005-.037-.162-.013-.188-.002-.007.023.016.04.037.047l.01.007zm.754 6.688c-.006-.013 0-.025 0-.038-.003-.02-.01-.027-.006-.05.007-.01.007-.03.004-.045-.006-.012-.016-.022-.025-.03 0-.007-.01-.017-.01-.023-.02-.012-.03.006-.04.012-.01.01-.03.015-.03.025-.01.01-.01.02-.01.04v.01c-.03.02 0 .08-.01.1 0 .02-.04.09.01.07.01-.01.02-.02.03-.02.01-.01.03-.01.05-.02.01 0 .04-.01.04-.01 0-.01-.03-.02-.03-.04zm-.89 1.264c.038.02.107-.02.145-.03.05-.016.13-.066.18-.038.02.01.03.034.05.043.03.01.06 0 .08-.005.03-.006.06-.01.08-.022.02-.01.04-.03.06-.043.05-.037.09-.002.15-.01.03-.004.06-.02.09-.027.02-.005.06-.005.08-.02.02-.02.01-.058.01-.08 0-.032 0-.064-.01-.093-.02-.057-.1-.124-.02-.17.02-.1-.1-.082-.13-.154-.02-.047-.03-.083-.09-.088-.05-.005-.08.023-.13.04-.05.02-.09.003-.13-.022-.02-.015-.08-.05-.09-.004-.01.04.03.07 0 .11-.03.03-.07.04-.11.05-.08.01-.15.08-.21.14h.01c-.02 0-.06.06-.06.08l.03.01c0 .03.04.01.04-.02l.03.01h.03c.02 0 .02.02.04.02-.01.05 0 .1-.02.15-.02.03-.1.1-.04.13zM8.45 2.36c.03.032.066.04.06.09.037.006.06.02.082-.012.014-.02.035-.036.058-.044.027-.01.14-.01.136.037-.003.03-.017.05-.02.07-.006.03.03.01.043.02l-.06.03c.01.01.01.02.01.03-.03.01-.04.08-.09.09-.03.01-.07-.01-.1-.01-.04 0-.06-.01-.09-.01s-.01-.04-.05-.03c-.01.03 0 .1.01.13 0 .04.03.06.07.06.05.01.07.03.11.05.03.02.07.01.1.01.02 0 .04.01.06.03-.01.01-.01.03-.01.04 0 .02.05 0 .07 0 .03 0 .07-.04.1-.04.01.01.07.02.07.04-.03-.01-.06.03-.08.01-.02-.02-.08 0-.05.03l.01.09c0 .03-.06.06-.05.08.01 0 .05 0 .06.01 0-.01-.01-.01.02-.02.02-.01.05-.01.07 0 .01.04-.02.07.03.06.04-.01.06.02.11-.01.03-.02.06-.01.09.01.03.04-.04.08 0 .12.01.02.03.06.04.06.01.01.07-.01.08-.02.02.04.04-.02.05-.02 0-.02.03-.05.06-.05.04 0 .04 0 .06.02.07.06.06-.08.1-.11.07-.06.11-.12.16-.19.04-.07.09-.08.16-.09.06-.01.14-.02.17-.08.02-.07-.04-.11-.1-.13-.06-.02-.13-.05-.1-.13.03-.09 0-.14-.1-.17-.21-.07-.4-.17-.61-.23-.19-.05-.38-.07-.57-.08-.09-.03-.27-.03-.32.04-.04.05.01.09 0 .14-.01.06.02.12.06.17zm3.275 9.27c.002.005 0 .014 0 .02.04 0 .056.036.098.023.042-.012.067-.053.033-.087-.03-.03-.055-.054-.098-.046-.052.01-.04.05-.033.09zm1.34-1.336c0-.01-.003-.017-.005-.026-.04-.012-.066.03-.104 0-.072.048.005.145-.113.14.02.024.02.052.01.08-.016.046-.028.042-.058.048-.065.01-.095-.03-.115-.084-.063.002-.15.1-.2.13-.012.008-.035.03-.05.038l-.05.027c-.033.017-.105.04-.11.078-.016-.003-.042.007-.06.005-.005.008-.005.017 0 .026.078.013.12-.013.184-.04.068-.032.14-.025.205-.05.03-.01.03-.044.08-.024.02.01.04.042.05.064.01.05-.04.124-.1.127-.02-.03 0-.063.01-.088-.07-.023-.18.075-.2.133.07.015.1.12.06.176-.01.014-.03.032-.05.04-.04.012-.06-.025-.1.004-.05.04 0 .146-.03.206-.03.046-.06.063-.1.095-.02.02-.04.04-.07.06-.04.02-.14.08-.13.13.08.03.26-.12.33-.17.04-.03.07-.08.12-.11.05-.04.12-.05.16-.11.02-.04 0-.07.01-.1s.03-.04.05-.07c.04-.05.07-.06.11-.1.05-.05.04-.12.06-.18.02-.06.06-.1.09-.15.04-.08.16-.27.11-.36-.02.01-.04.01-.05.01zm1.008-2.56c-.025-.047.013-.185.013-.242 0-.105-.033-.184-.047-.282-.01-.092-.02-.336.01-.42.04-.116-.19-.314-.2-.44-.01-.11-.08-.215-.17-.278-.04-.027-.12-.39-.16-.373-.03.01.02.09.02.11-.02.09-.06 0-.11.02-.09.03-.18.12-.19.2-.04.31-.26-.01-.25-.03.05-.04.06-.03.12-.04.06-.03-.04-.07.06-.08-.03-.07.03-.09 0-.14-.04-.08-.07-.07-.03-.15.01-.05-.09-.19-.09-.24-.01-.05-.01-.12-.02-.18-.01-.04.05-.07.04-.1-.01-.1.02-.22-.02-.32-.03-.07-.06-.16-.1-.22-.02-.02-.06-.13-.07-.15-.01-.07-.04-.04-.08-.07-.02-.03-.11-.11-.14-.12-.03-.01-.2-.17-.2-.18-.02-.05-.11-.08-.1-.13.01-.08-.24-.27-.32-.28-.05-.01.14.22.14.21 0 .01.12.16.12.16.02.01.09.19.09.21-.01.07-.19-.12-.2-.14-.09-.11-.25-.2-.36-.27-.08-.07-.04-.11-.16-.16-.05-.02-.17-.13-.21-.13-.05 0 0 .1.01.11.01.07.08.07.13.12.03.04.07.09.04.13 0 0-.06.1-.06.09.01.04.14.14.18.17-.01-.01.17.23.18.1 0-.04-.05-.1-.04-.14 0-.03.2.22.21.25.05.13.04-.02.09-.01.04.01.16.15.06.15-.14.01.03.13.07.15.08.04.14.13.22.17.13.05.1.15.17.24.02.03-.39 0-.42.02-.06.05.2.33.2.38 0 .09.05.16.07.25 0 .08-.01.19.05.26.04.04.08-.07.15 0 .02.01.06.04.07.06.02.06.16.44-.01.41-.07-.01-.03.3-.03.34.02.1.06.09.03.22 0 .1-.08.15-.14.23-.03.03-.04.07-.06.11-.03-.03-.05-.08-.09-.1-.05-.02-.16.04-.2.06-.11.06-.03.15-.07.23-.03.06-.12.09-.18.12-.07.03-.16.07-.23.01-.06-.05-.03-.15-.1-.19-.07-.05-.08.06-.09.1-.03.08-.12.1-.1.2.01.04.03.08.04.12.01.05-.02.1-.02.15-.01.09.08.11.11.18.02.06 0 .16-.07.19-.08.02-.16-.05-.24-.05-.08-.01-.17.01-.19.1-.01.07.06.13.03.21-.02.03-.05.06-.07.09-.04.05-.06.1-.09.16.04 0 .03-.02.07-.01.04.01.07-.03.1-.04.01.02 0 .05.01.07.02.01.05 0 .07-.01 0 .02-.01.04 0 .06.01.02.03.02.04.04.03.04-.01.1-.03.13-.06.09-.17.14-.24.23-.07.08-.07.17-.12.26-.02.03-.03.07.01.08.01-.01.03-.03.05-.03.03 0 .02.02.03.04.06.08.13-.05.16-.09.03-.04.14-.1.17-.03.02.05-.01.12-.03.17.04.02.03.05.04.08.01.05.05.08.05.14 0 .06-.15.2-.09.25.07.06.15-.11.18-.15.05-.07.17-.08.2-.17.03-.1.02-.16.15-.17.05 0 .09-.04.15-.05.05-.01.08-.02.12-.06.05-.07.1.01.1.06 0 .05-.02.11.01.16.04.06.08-.02.12-.05-.01.03.04.06.07.07.04-.03.07-.08.12-.11.02-.02.05-.02.07-.02.01.04.01.08.05.1.05.03-.01.06.06.09.08.03.11.12.15.19.02.03.2-.16.27-.17.22-.03.34-.33.43-.5.12-.26.18-.54.21-.8.08-.16.11-.46.08-.64-.02-.11.04-.27-.01-.38zM12 11.532c.007-.028.066-.132.01-.147-.02-.005-.035.025-.053.03-.025.008-.05-.007-.072.004-.02.01-.04.04-.05.06-.015.02-.01.03.014.04.02.01.05.02.06.04.01.02 0 .05 0 .08v-.01h.01l-.01.01c.06.01.06-.08.06-.12zm.74-1.25c0 .03.035.026.056.018.02-.006.033-.023.046-.038.018-.023.028-.046.013-.073-.016-.03-.026-.05-.034-.09-.01 0-.02.02-.04.02h-.03c-.03 0-.03.02-.04.05-.01.02-.04.03-.03.05.01.02.04.03.06.04l.01-.01h.01zm-3.56 2.145c.037-.065.102-.106.16-.15.07-.055.132-.118.188-.186-.033 0-.035-.04-.056-.06-.03-.03-.08-.01-.086-.05-.007-.04-.042-.05-.075-.07-.07-.04-.1-.11-.17-.17-.06-.06-.16-.04-.24-.05-.07-.01-.14-.13-.22-.08-.05.03-.07.11-.03.16.03.04.07.06.09.1-.02.03-.03.04 0 .07.04.03.11.06.1.12-.01.04-.03.07-.07.07-.02.01-.08-.01-.07.04-.03-.07-.1.04-.15-.02-.03-.05-.05-.09-.11-.12-.07-.04.03-.08.02-.15-.02-.09-.13-.07-.17-.14-.02-.04.01-.07.03-.11.02-.04.06-.01.08 0 .08.04.19.02.25-.03.03-.02.09-.13.01-.13-.05 0-.1.05-.15.05-.01-.06-.04-.17.03-.21.06-.04.19-.08.14-.18-.02-.03-.05.02-.08 0-.01-.01 0-.03.01-.04-.02-.02-.03-.04-.04-.06-.04-.11.08-.19.03-.3-.02-.05-.06-.08-.1-.1-.04-.03-.04-.06-.06-.11-.01-.02-.05-.08-.08-.07-.03.01-.04.07-.07.09-.05.06-.16.08-.23.06-.06-.01-.05-.03-.08-.07-.01-.01-.03-.01-.04-.02-.02-.01-.02-.03-.03-.06-.02-.08-.19.02-.22-.1-.01-.03 0-.07-.04-.08-.04-.01-.05-.05-.05-.09 0-.03.01-.07-.03-.09-.04-.02-.05-.01-.06-.05-.02-.06-.06.01-.09-.01-.07-.02-.06.01-.11.04-.1.05-.11-.19-.14-.23-.06-.09-.05.11-.09.14-.04.03-.08-.03-.1-.06l-.03-.06c-.02-.02-.05-.04-.06-.06-.01-.02-.03-.05-.04-.08-.01-.02-.01-.05-.03-.07-.02-.02 0-.06.02-.09.02-.01.06.01.08.03.04.04.11.21.19.18-.02-.02-.01-.05-.02-.07-.01-.03-.04-.04-.06-.06-.04-.05-.08-.1-.11-.16-.02-.05-.03-.1-.08-.13-.04-.03-.11-.06-.1-.12.04 0 .06.03.08.05.04.03.08.04.12.06.08.04.16.06.23.12.04.03.02.11.07.15.03.03.09.13.16.09.02-.01.03-.04.06-.06.02-.02.07-.04.1-.05.02-.01.05-.01.06-.02.02-.02-.04-.09-.05-.11-.05-.07-.1-.14-.17-.19-.03-.02-.07-.05-.11-.07-.02 0-.06 0-.06-.03.01.01.02.01.02-.01s-.03-.02-.04-.02c-.03-.01-.05-.01-.07-.03C7.06 9 7 9 6.97 8.99c-.05-.012-.086-.05-.13-.066-.055-.02-.095 0-.148.01-.01.006-.03.037-.046.06-.04-.01-.08-.002-.11.02-.05.04-.076.096-.113.14-.016.02-.04.04-.06.03-.005 0-.003-.004-.006-.01.027-.2.04-.41.024-.37l-.09.2c-.04-.02-.09-.02-.11.024-.01.046.01.107-.02.15 0 .01-.01.01-.02.013 0 0-.01-.01-.01-.02l-.02.04c-.02.01-.06-.01-.1-.02v.01c-.04-.02-.09-.03-.13-.02-.08.03-.08.14-.13.21-.07.11-.27.06-.3-.06l.08-.1c-.04-.1-.16-.18-.27-.18-.03 0-.07.01-.1 0s-.05-.04-.07-.06c-.08-.06-.19.02-.26.1-.12.02-.23.09-.3.18l-.14-.01c.03.08-.06.14-.11.21-.05.09-.02.19.03.28-.01.02-.01.03-.03.04-.06.03-.04.05-.03.12.02.06.01.16 0 .22-.01.05-.05.15-.1.13-.03-.01-.06-.02-.08 0-.01.01-.02.03-.02.04-.02 0-.03.01-.05.01-.03.01-.07.02-.1 0s-.08-.04-.11-.03c-.03.01-.09.04-.1.07 0 .02.02.05.02.07 0 .04.03.09.01.12-.02-.01-.06-.01-.07-.04s-.04-.02-.05-.04c0 .04-.02.09-.06.1-.04.01-.08-.02-.13-.01-.11.03.07.18.1.21.04.05.05.11.08.16.04.06.11.08.15.13.03.05.04.1.09.14.05.04.1.07.12.13.03-.02.07.08.12 0 .03-.04.07-.08.1-.01.03.06 0 .1.05.16.05.05.04.1-.03.09.01.03.03.07 0 .1-.01.02-.05.04-.02.06.03-.01.07-.02.1-.04.04-.01.07-.05.11-.05 0 .02-.05.06-.02.06.03.01.07-.02.1 0 .03.03-.01.07.01.1.02.04.07.01.1.02-.01.03-.05.03-.07.04.06.06-.01.16-.09.16-.03 0-.16-.15-.17-.05 0 .03.01.06.02.09s.1.02.13.03c.04.02.1.06.11.11.02.04.06.07.07.12.03.08.11.09.19.11.11.04.06.2.05.28 0 .08.11.1.16.15.06.05.07.14-.03.15-.04 0-.12-.02-.14.04-.02.09.11.08.16.1.03.01.14.02.15.04.02.04 0 .09.02.13.03.11.13.18.22.23.2.12.44.19.66.25.12.04.25.07.38.08.12.02.23.01.33.08.07.05.12.01.19.02.03.01.05.04.07.05.03.02.06 0 .09.01.01-.02.01-.04 0-.06.05.02.12.08.18.03.03-.02.05-.05.08-.08.03.01.07.01.11.01.15 0 .27-.07.39-.15.13-.09.29-.09.44-.1.16-.01.33-.03.48-.1.13-.06.16-.17.2-.3.04-.13.16-.19.23-.3.1-.13.03-.29.11-.43zm-5.885-1.804c-.005-.032-.017-.052-.04-.07-.002.002-.003.004-.003.008-.034-.01-.038-.08-.083-.07-.04-.06-.14-.03-.17.02-.02.04 0 .06.02.08.02.04.02.06.03.1.02.1.11.03.16.07.02.02.03.06.06.05.03-.01.03-.06.02-.09-.02-.03-.03-.05-.03-.09zm.788 1.19c.006-.016-.02-.035-.038-.034-.016 0-.03.02-.037.03-.02.03.002.08.048.08.01-.02.007-.06.035-.06 0-.01 0-.01-.01-.02l.01-.01zm-.838-1.268l.01.007.006-.015-.01.008zm9.245 1.403c-.017.015-.012.033-.02.052-.01.023-.043.032-.062.044-.03.02-.04.064-.072.075-.014-.02-.035-.08-.063-.03-.017.03-.006.06-.033.09-.027.03-.025.06-.043.09-.03.05-.058.08-.106.1-.03.02-.04.06-.07.1-.03.03-.07.05-.11.06-.03.01-.07.04-.11.02-.04-.03.02-.08.04-.1s.12-.08.09-.11c-.01-.02-.06-.02-.08-.02-.04 0-.08.05-.11.07l-.12.06c-.05.02-.05.07-.1.1-.03.02-.07.04-.12.04-.05 0-.05-.05-.07-.09-.02 0-.04.03-.06.04-.03.01-.05.03-.04.07.02.04-.14.07-.16.09 0-.02.03-.04.04-.05-.05 0-.1.04-.15.04-.04.01-.1.04-.11.09 0 .04-.05.04-.08.05-.06.02-.03.05-.04.1-.02.08-.19.02-.1-.09.03-.04.08-.06.1-.1.03-.04.04-.1.06-.15-.05.02-.09.05-.13.08-.05.03-.09.03-.15.01-.06-.01-.11.02-.17.03-.04.01-.12.01-.13.06 0 .04.06.05.08.07.03.04.07.08.09.12.02.03.1.07.1.1-.01.07-.1.06-.14.07-.05.01-.05.06-.09.08-.04.03-.09 0-.13.02-.04.01-.08.05-.11.08-.07.04-.11-.01-.17-.01-.05 0-.1.02-.15.04-.05.01-.1.02-.14.05-.08.07.17.05.2.05-.01.04-.02.09-.06.11-.05.03-.11.02-.17.04-.04.01-.1.05-.04.09.05.02.12.01.17-.01.06-.02.12-.06.18-.07.07-.02.14-.01.21-.02.07-.02.14-.05.2-.08.07-.03.13-.04.2-.04-.01.02-.08.02-.11.03-.05.01-.08.05-.14.05-.06-.01-.05.04-.09.05-.03 0-.09.07-.11.03-.02-.03-.05-.03-.06.01-.01.02.01.03-.03.04-.03 0-.04-.02-.07-.02-.05-.02-.07.04-.11.05-.06.02-.11.01-.17.05-.03.02-.07.03-.1.04-.07.02-.13.04-.2.07-.05.01-.1.04-.16.04-.02 0-.11-.02-.13.01-.02.05.06.03.08.02.05-.03.11-.01.17-.01.07 0 .13-.02.19-.05.02-.01.13-.04.14-.02.01 0 .08-.02.09-.03l.18-.04c.18-.05.36-.12.54-.18.35-.12.67-.32.98-.53.14-.09.25-.21.4-.29.15-.07.29-.18.43-.27.14-.09.24-.22.36-.34.12-.12.21-.23.26-.39-.03 0-.06.05-.08.07-.04.02-.11.01-.14.04zm-.85-.162c.034-.047.004-.11-.057-.074-.023.013-.02.04-.038.055-.018.016-.02-.004-.04-.01-.026-.005-.07.03-.078.055-.036 0-.07.04-.052.072.048-.018.078-.063.13-.05.04.012.108-.014.134-.05z"/></svg>