<svg xmlns="http://www.w3.org/2000/svg" width="16" height="16"><path fill="#505050" d="M13.5 3h-11A2.5 2.5 0 000 5.5v5A2.5 2.5 0 002.5 13h3.02a1.987 1.987 0 001.562-.751.965.965 0 00.1-.146l.384-.7a.5.5 0 01.878 0l.383.7a.965.965 0 00.1.146A1.987 1.987 0 0010.48 13h3.02a2.5 2.5 0 002.5-2.5v-5A2.5 2.5 0 0013.5 3zm.5 7.5a.5.5 0 01-.5.5h-3l-.3-.556a2.5 2.5 0 00-4.392 0L5.5 11h-3a.5.5 0 01-.5-.5v-5a.5.5 0 01.5-.5h11a.5.5 0 01.5.5z"/><path fill="#505050" d="M12.5 6h-9a.5.5 0 000 1h9a.5.5 0 000-1z"/></svg>