<svg xmlns="http://www.w3.org/2000/svg" viewBox="0 0 500 500"><path d="M250 36.7c-119.7 0-217.1 95.5-217.1 212.9 0 12.6 10.2 22.8 22.8 22.8h171.4v113L174 332.3c-8.9-8.9-23.4-8.9-32.3 0-8.9 8.9-8.9 23.4 0 32.3l92.1 92.1c.5.5 1.1 1 1.7 1.5.1.1.2.1.3.2.5.4 1 .8 1.5 1.1.1.1.2.1.3.2.5.3 1 .7 1.6 1 .1 0 .2.1.3.1.6.3 1.2.6 1.8.8.1 0 .1 0 .2.1.6.3 1.3.5 1.9.7.1 0 .1 0 .2.1.6.2 1.3.4 1.9.5.2 0 .4.1.6.1.5.1 1.1.2 1.7.2.8.1 1.5.1 2.3.1.8 0 1.5 0 2.3-.1.6-.1 1.1-.2 1.7-.2.2 0 .4 0 .6-.1.7-.1 1.3-.3 1.9-.5.1 0 .2 0 .2-.1.7-.2 1.3-.4 1.9-.7.1 0 .1 0 .2-.1.6-.3 1.2-.5 1.8-.8.1 0 .2-.1.2-.1.6-.3 1.1-.6 1.6-1 .1-.1.2-.1.3-.2.5-.4 1-.7 1.6-1.1.1-.1.2-.1.2-.2.6-.5 1.2-1 1.7-1.5l92.1-92.1c8.9-8.9 8.9-23.4 0-32.3-8.9-8.9-23.4-8.9-32.3 0L273 385.4v-113h171.4c12.6 0 22.8-10.2 22.8-22.8-.1-117.4-97.5-212.9-217.2-212.9zM80.2 226.8C91.7 145.3 163.4 82.4 250 82.4c86.6 0 158.3 63 169.8 144.4H80.2z" fill="#505050"/></svg>