<svg xmlns="http://www.w3.org/2000/svg" width="32" height="32" viewBox="0 0 32 32"><style>path{fill:#505050}</style><path d="M2 5.8c.7-1.5 1.9-1.9 3.5-1.9 7.1.1 14.2 0 21.4 0 .8-.1 1.6.1 2.3.7.4.4.7 1 .8 1.6 0 3.5.1 6.9-.1 10.4-.6 5.7-4.7 10.5-10.3 11.8-7.5 1.9-15.1-2.6-17-10.1-.1-.3-.1-.6-.2-.9-.1-.6-.2-1.2-.3-1.7L2 5.8zm14 10.8c-.4-.3-.7-.6-1-.9-1.4-1.3-2.8-2.7-4.2-4-.7-.8-1.9-.9-2.7-.2-.1 0-.1.1-.2.2-.7.8-.7 2 0 2.7l.1.1c2.2 2.1 4.3 4.2 6.5 6.3.6.8 1.7.9 2.5.3l.2-.2c2.3-2.1 4.5-4.2 6.7-6.4.7-.8.7-2 0-2.7-.3-.3-.6-.5-1-.5-.7-.1-1.5.2-1.9.7-1.6 1.4-3.3 2.9-5 4.6z"/></svg>