<svg xmlns="http://www.w3.org/2000/svg" viewBox="0 0 612 792"><path fill="#EEE" d="M306 664.4c-71.7 0-139.1-27.9-189.8-78.6S37.6 467.7 37.6 396s27.9-139.1 78.6-189.8 118.1-78.6 189.8-78.6 139.1 27.9 189.8 78.6 78.6 118.1 78.6 189.8-27.9 139.1-78.6 189.8-118.1 78.6-189.8 78.6z"/><path fill="#505050" d="M306 146.1c33.7 0 66.5 6.6 97.3 19.6 29.8 12.6 56.5 30.6 79.4 53.6 23 23 41 49.7 53.6 79.4 13 30.8 19.6 63.5 19.6 97.3s-6.6 66.5-19.6 97.3c-12.6 29.8-30.6 56.5-53.6 79.4-23 23-49.7 41-79.4 53.6-30.8 13-63.5 19.6-97.3 19.6s-66.5-6.6-97.3-19.6c-29.8-12.6-56.5-30.6-79.4-53.6-23-23-41-49.7-53.6-79.4-13-30.8-19.6-63.5-19.6-97.3s6.6-66.5 19.6-97.3c12.6-29.8 30.6-56.5 53.6-79.4 23-23 49.7-41 79.4-53.6 30.8-13 63.6-19.6 97.3-19.6m0-37C147.6 109.1 19.1 237.6 19.1 396S147.6 682.9 306 682.9 592.9 554.4 592.9 396 464.4 109.1 306 109.1z"/></svg>