<svg xmlns="http://www.w3.org/2000/svg" xmlns:xlink="http://www.w3.org/1999/xlink" width="32" height="32"><defs><symbol id="a" data-name="[Icon] Glyph" viewBox="0 0 80 80"><path d="M76.46 30.15A312.48 312.48 0 0049.84 3.53a15.47 15.47 0 00-19.69 0A312.48 312.48 0 003.53 30.16a15.47 15.47 0 000 19.69 312.48 312.48 0 0026.63 26.62A14.87 14.87 0 0040 80a14.93 14.93 0 009.88-3.56c4.9-4.42 9.37-8.69 13.68-13.07a4.45 4.45 0 00-.34-6.11L50 44.93a15.18 15.18 0 005.08-12 15.4 15.4 0 00-14.4-14.64 15.2 15.2 0 00-11.36 4.16 15.28 15.28 0 00.3 22.48l-4.78 4.33A3.86 3.86 0 0030 55l5.29-4.8.14-.13a7.24 7.24 0 002.11-5.43A7.34 7.34 0 0035 39.35a7.58 7.58 0 119.77 0 7.39 7.39 0 00-2.62 5.32 7.25 7.25 0 002.11 5.4l.09.09 11.1 10.4c-3.4 3.37-6.94 6.71-10.71 10.13a7.89 7.89 0 01-9.46 0 307.34 307.34 0 01-26-26 7.91 7.91 0 010-9.46 304.52 304.52 0 0126-26 7.89 7.89 0 019.45 0 304.52 304.52 0 0126 26 7.89 7.89 0 010 9.45c-1.33 1.5-2.66 3-4 4.37a3.85 3.85 0 105.67 5.22c1.32-1.43 2.68-2.93 4-4.47a15.47 15.47 0 00.06-19.65z" fill="#505050"/></symbol></defs><g data-name="Layer 2"><use width="80" height="80" transform="scale(.4)" xlink:href="#a" data-name="Layer 1"/></g></svg>