<svg data-name="icon" xmlns="http://www.w3.org/2000/svg" viewBox="0 0 16 16"><path fill="context-fill" fill-opacity="context-fill-opacity" d="M13.5 3h-11A2.5 2.5 0 000 5.5v5A2.5 2.5 0 002.5 13h3a2 2 0 001.56-.75l.1-.15.38-.7a.5.5 0 01.88 0l.38.7.1.15a2 2 0 001.56.75h3A2.5 2.5 0 0016 10.5v-5A2.5 2.5 0 0013.5 3zm.5 7.5a.5.5 0 01-.5.5h-3l-.3-.56a2.51 2.51 0 00-4.4 0l-.3.56h-3a.5.5 0 01-.5-.5v-5a.5.5 0 01.5-.5h11a.5.5 0 01.5.5z"/><path fill="context-fill" fill-opacity="context-fill-opacity" d="M12.5 6h-9a.5.5 0 000 1h9a.5.5 0 000-1z"/></svg>