<svg xmlns="http://www.w3.org/2000/svg" viewBox="0 0 24 28"><title>universal-notepad-large</title><path fill="#505050" d="M18.5 3.6h1.6c.9 0 1.6.7 1.6 1.6V23c0 .9-.7 1.6-1.6 1.6H3.9c-.9 0-1.6-.7-1.6-1.6V5.2c0-.9.7-1.6 1.6-1.6h1.6c0-.9.7-1.6 1.6-1.6.9 0 1.7.7 1.7 1.6h6.5c-.1-.9.7-1.6 1.6-1.6.8 0 1.6.7 1.6 1.6zm-13 5.7c0 .4.4.8.8.8h11.3c.4 0 .8-.4.8-.8s-.4-.8-.8-.8H6.3c-.4 0-.8.3-.8.8zm0 3.2c0 .4.4.8.8.8h11.3c.4 0 .8-.4.8-.8s-.4-.8-.8-.8H6.3c-.4 0-.8.4-.8.8zm0 3.2c0 .4.4.8.8.8h11.3c.4 0 .8-.4.8-.8s-.4-.8-.8-.8H6.3c-.4 0-.8.4-.8.8zm0 3.3c0 .4.4.8.8.8h11.3c.4 0 .8-.4.8-.8s-.4-.8-.8-.8H6.3c-.4 0-.8.3-.8.8z"/></svg>