<svg xmlns="http://www.w3.org/2000/svg" width="32" height="32" viewBox="0 0 32 32"><style>path{fill:#505050}</style><path d="M21 31c1.1 0 2-.9 2-2v-7.1s.2-1.8 1.4-1.8 1.1 1.9 3.4 1.9c1.1 0 3.1-.6 3.1-4.1s-2-3.9-3.1-3.9c-2.3 0-2.1 1.8-3.4 1.8S23 13.9 23 13.9V11c0-1.1-.9-2-2-2h-5.2s-1.7-.3-1.7-1.5S16 6.2 16 3.9c0-1.1-.6-2.9-4.1-2.9s-4 1.8-4 2.9c0 2.3 1.7 2.3 1.7 3.6S7.8 9 7.8 9H2.9c-1.1 0-2 .9-2 2v3.9s-.2 3 2.2 3c1.5 0 1.7-2.1 3.7-2.1 1 0 2 .9 2 3s-1 3.1-2 3.1c-2 0-2.2-2.1-3.7-2.1-2.4 0-2.2 2.9-2.2 2.9V29c0 1.1.9 2 2 2h6.6s3.2.2 3.2-2.2c0-1.5-2-1.8-2-3.9 0-1 1.1-2.2 3.2-2.2s3.3 1.2 3.3 2.2c0 2-1.9 2.3-1.9 3.9 0 2.4 3.2 2.2 3.2 2.2H21z"/></svg>