<svg xmlns="http://www.w3.org/2000/svg" width="32" height="32" viewBox="0 0 32 32"><style>path,rect{fill:#505050}#screen{fill-opacity:.1}#icon{fill-opacity:.6}</style><path id="body" d="M22 31H10c-1.1 0-2-.9-2-2V3c0-1.1.9-2 2-2h12c1.1 0 2 .9 2 2v26c0 1.1-.9 2-2 2zm-4-1c.3 0 .5-.2.5-.5s-.2-.5-.5-.5-.5.2-.5.5.2.5.5.5zm-2 0c.3 0 .5-.2.5-.5s-.2-.5-.5-.5-.5.2-.5.5.2.5.5.5zm-2 0c.3 0 .5-.2.5-.5s-.2-.5-.5-.5-.5.2-.5.5.2.5.5.5zm4.5-28h-5c-.3 0-.5.2-.5.5s.2.5.5.5h5c.3 0 .5-.2.5-.5s-.2-.5-.5-.5zM23 5H9v22h14V5z"/><path id="screen" d="M9 5h14v22H9z"/><path id="icon" d="M11 20c0 .6.4 1 1 1h8c.6 0 1-.4 1-1v-2H11v2zm0-3h10c0-1.7-.9-3.2-2.2-4.1l1.4-1.4c.2-.2.2-.5 0-.7s-.5-.2-.7 0l-1.6 1.6c-.6-.3-1.2-.4-1.9-.4s-1.4.1-2 .4l-1.7-1.7c-.2-.2-.5-.2-.7 0-.2.2-.2.5 0 .7l1.5 1.5c-1.3.9-2.1 2.4-2.1 4.1zm7.2-2.5c.4 0 .8.3.8.8s-.3.7-.8.7-.8-.3-.8-.8c.1-.4.4-.7.8-.7zm-4.5 0c.4 0 .7.3.7.7 0 .4-.3.7-.7.7s-.7-.2-.7-.6c0-.4.3-.8.7-.8z"/></svg>