<svg id="Layer_3" xmlns="http://www.w3.org/2000/svg" viewBox="0 0 32 32"><style>.st0{fill:#505050}</style><path class="st0" d="M25.2 3.3H6.8c-3 0-5.5 2.5-5.5 5.5v14.7c0 3 2.5 5.5 5.5 5.5h18.4c3 0 5.5-2.5 5.5-5.5V8.8c0-3.1-2.5-5.5-5.5-5.5zM27 23.5c0 1-.8 1.8-1.8 1.8H6.8c-1 0-1.8-.8-1.8-1.8V8.8C5 7.8 5.8 7 6.8 7h18.4c1 0 1.8.8 1.8 1.8v14.7z"/><path class="st0" d="M14.9 15.6c-1.6-.6-2.4-2.4-1.8-4s2.4-2.4 4-1.8c1.6.6 2.4 2.4 1.8 4-.3.9-1 1.5-1.8 1.8l1.4 5.8c.1.6-.2 1.1-.8 1.3h-3.2c-.6 0-1-.5-1-1v-.3l1.4-5.8z"/></svg>