<svg width="32" height="32" xmlns="http://www.w3.org/2000/svg"><path d="M27.271 7.062L24.42 5.39l-6.496-3.807-.204-.118a3.412 3.412 0 00-3.44 0l-.204.118-9.15 5.361-.203.118A3.516 3.516 0 003 10.092v11.203a3.52 3.52 0 001.723 3.03l9.348 5.48c.225.134.473.195.715.195.496 0 .98-.263 1.244-.727a1.471 1.471 0 00-.523-1.99l-9.143-5.361a1.005 1.005 0 01-.49-.867V10.332c0-.358.187-.687.49-.866l1.618-.95 7.53-4.417a.975.975 0 01.98 0l9.15 5.361c.303.179.49.509.49.867v10.722c0 .358-.187.688-.49.867l-3.094 1.817-1.563-2.41a7.608 7.608 0 002.477-5.63c0-4.176-3.347-7.575-7.46-7.575-4.111 0-7.458 3.4-7.458 7.576s3.341 7.575 7.453 7.575c.881 0 1.729-.157 2.516-.447l2.373 3.661c.038.056.077.112.12.163.006.01.017.016.028.028.05.055.105.106.16.15.016.012.027.023.044.034.066.05.132.09.204.129.016.005.033.016.05.022.06.028.126.056.192.073.016.005.027.01.044.01.077.023.154.034.231.04.022 0 .044.006.066.006.022 0 .044.005.066.005a.98.98 0 00.132-.011c.022 0 .039 0 .06-.006.084-.01.16-.028.243-.055.022-.006.044-.017.06-.023.061-.022.122-.05.182-.084.011-.005.028-.01.039-.016l4.47-2.622A3.516 3.516 0 0029 21.296V10.091a3.54 3.54 0 00-1.729-3.03zm-15.865 8.632c0-2.572 2.059-4.663 4.591-4.663 2.533 0 4.591 2.09 4.591 4.663 0 2.571-2.058 4.662-4.59 4.662-2.533 0-4.592-2.09-4.592-4.662z" fill="#505050"/></svg>