<svg width="32" height="32" xmlns="http://www.w3.org/2000/svg"><path d="M25.555 3.81A12.564 12.564 0 0 0 16.465 0C9.467 0 4 5.522 4 12.573c0 6.532 10.132 17.651 11.29 18.9a1.645 1.645 0 0 0 2.769-.612c.175-.554.04-1.16-.356-1.587a86.396 86.396 0 0 1-5.316-6.476c-4.45-6.029-5.114-9-5.114-10.225 0-5.23 4.02-9.323 9.18-9.323a9.308 9.308 0 0 1 6.746 2.815 8.9 8.9 0 0 1 2.513 6.592c-.096 2.591-2.722 6.691-5.263 9.837-3.048-3.593-6.116-7.805-6.357-9.582a2.198 2.198 0 0 1 .559-1.804 2.445 2.445 0 0 1 1.89-.775c.64.025 1.24.315 1.656.799.493.564.73 1.305.656 2.048a3.154 3.154 0 0 1-.447 1.465 1.612 1.612 0 0 0-.277 1.635 1.637 1.637 0 0 0 2.846.362 6.037 6.037 0 0 0 1.118-3.183 5.961 5.961 0 0 0-1.455-4.5 5.556 5.556 0 0 0-4.02-1.892 5.713 5.713 0 0 0-4.424 1.845 5.456 5.456 0 0 0-1.359 4.416c.157 1.161 1.259 4.69 8.09 12.4a2.04 2.04 0 0 0 1.56.687 2.044 2.044 0 0 0 1.536-.707c1.608-1.844 6.791-8.224 6.968-12.931.142-3.33-1.1-6.573-3.434-8.968z" fill="#505050" fill-rule="nonzero"/></svg>