<svg xmlns="http://www.w3.org/2000/svg" width="32" height="32" viewBox="0 0 32 32"><style>path,rect{fill:#505050}#screen{fill-opacity:.1}#icon{fill-opacity:.8}</style><path id="body" d="M2 7c0-1.1.9-2 2-2h24c1.1 0 2 .9 2 2v16H2V7zm2 14h24V7H4v14zm26 5H2c-1.1 0-2-.9-2-2h32s-.9 2-2 2z"/><path id="screen" d="M4 7h24v14H4z"/><path id="icon" d="M20.6 17.5c-.1-.1-.1-.3-.2-.5 0-.2-.1-.4-.2-.5 0 0-.1 0-.1-.1H20c.2-.6.2-1.3-.1-1.9-.3-.6-.6-1.2-1.1-1.7-.5-.4-.7-1-.8-1.7 0-1.1.1-3.1-1.8-3.1H16c-2.1.2-1.6 2.4-1.6 3.2 0 .5-.2 1.1-.5 1.5-.6.7-1.1 1.4-1.4 2.3-.1.4-.2.8-.1 1.3l-.1.1c-.1.1-.2.3-.3.4-.1.1-.3.2-.4.2-.2.1-.3.2-.4.3 0 .1-.1.2-.1.3v.8c-.1.1-.1.4 0 .6.1.2.3.3.5.3.5 0 .9.1 1.4.3.4.2.9.3 1.3.2.3-.1.5-.2.6-.5.3 0 .6-.1 1.1-.2.4 0 .8.1 1.3.1 0 .1 0 .1.1.2.2.4.6.6 1 .5.5-.1.9-.3 1.1-.7.4-.3.8-.6 1.2-.8.2-.1.3-.2.3-.4 0-.1-.2-.4-.4-.5zm-4.7-7.1c0-.1 0-.3.1-.4 0-.1.1-.2.2-.3.1-.1.2-.1.3-.1.1 0 .2 0 .3.1.1.1.2.2.2.3.1.1.1.2.1.4 0 .1 0 .3-.1.4 0 .1-.1.1-.1.2-.1 0-.1 0-.1-.1h-.1l.1-.1v-.2-.2c0-.1-.1-.1-.1-.2l-.1-.1s-.1 0-.1.1l-.1.1V10.6c-.1 0-.2-.1-.3-.1-.2 0-.2 0-.2-.1zm-.2.5c.2 0 .3.1.5.2.1.1.2.1.3.1.1 0 .1 0 .3.1s.1.1.1.1c-.1.1-.2.2-.4.3-.1 0-.2.1-.3.2 0 0-.1 0-.1.1h-.4c-.1 0-.2 0-.2-.1 0 0-.1 0-.1-.1-.1-.1-.2-.1-.3-.2-.1 0-.2-.1-.2-.2l.3-.2.1-.1c.1-.1.2-.2.3-.2h.1zm-1.1-.4v-.3c0-.1.1-.2.1-.3.1-.1.1-.1.2-.1s.1 0 .2.1l.2.2c0 .1.1.2.1.3v.1c-.1 0-.1.1-.2.1v-.1-.2s0-.1-.1-.1H15s-.1 0-.1.1l-.1.1v.4s0 .1.1.1l-.1.1h-.1c-.1-.1-.1-.1-.1-.2v-.3zm-.5 8.7h-.2c-.3 0-.5-.1-.7-.2-.4-.2-.8-.3-1.3-.3h-.3c0-.1 0-.1.1-.2.1-.2.1-.5 0-.7v-.1-.2h.2l.6-.3c.1-.1.2-.2.2-.3 0-.1.1-.1.1-.2.1 0 .1.1.2.2l.4.8c.1.2.3.5.5.7.1.1.1.2.2.2.1.1.2.3.3.5-.1 0-.2.1-.3.1zm3.6-2.6c-.1.3-.1.6-.1.9v.1c-.5.3-1 .5-1.6.6-.5 0-.9-.1-1.3-.4.1 0 .1-.1.2-.2 0-.2 0-.4-.2-.6-.3-.3-.6-.6-.9-.8-.3-.2-.5-.4-.6-.7-.1-.3-.1-.6 0-.8.1-.5.4-1 .6-1.4.1 0 0 .1-.2.5-.4.7-.4 1.6.2 2.2 0-.6.1-1.2.3-1.8.2-.7.6-1.5.7-2.2.1 0 .2.1.2.1.2.2.4.4.7.4.3-.1.7-.2 1-.4.2-.1.4-.1.6-.2.2.6.5 1.3.8 1.9.3.5.5 1 .6 1.5h.3c.2-.7 0-1.5-.6-2-.1-.1-.1-.2-.1-.2.4.4.7.9.8 1.4.1.3.1.6 0 .8h.1c.5.3.7.5.6.8h-.1c.1-.2-.1-.4-.5-.6-.5-.2-.8-.2-.9.2v.1h-.1c-.3.4-.4.6-.5.8zm2.4 1.6c-.4.2-.8.4-1.1.8-.2.2-.4.4-.7.4-.1 0-.2-.1-.3-.2 0-.2 0-.3.1-.5 0-.1.1-.2.1-.3.1-.3.1-.5.2-.8v-.4c.1 0 .2.1.2.1h.2c.4 0 .7-.2 1-.4V17.2c0 .3.1.5.3.7l.1.1c0 .1-.1.1-.1.2z"/></svg>