<?xml version="1.0" encoding="utf-8"?>
<!-- Generator: Adobe Illustrator 21.1.0, SVG Export Plug-In . SVG Version: 6.00 Build 0)  -->
<svg version="1.1" id="Layer_1" xmlns="http://www.w3.org/2000/svg" xmlns:xlink="http://www.w3.org/1999/xlink" x="0px" y="0px"
	 viewBox="0 0 16 16" style="enable-background:new 0 0 16 16;" xml:space="preserve">
<style type="text/css">
	.st0{fill:#464646;}
</style>
<title>universal-notepad-large</title>
<desc>Created with Sketch.</desc>
<g id="Page-1">
	<path id="Combined-Shape" class="st0" d="M12,2h1c0.6,0,1,0.4,1,1v11c0,0.6-0.4,1-1,1H3c-0.6,0-1-0.4-1-1V3c0-0.6,0.4-1,1-1h1
		c0-0.6,0.4-1,1-1c0.6,0,1,0.4,1,1h4c0-0.6,0.4-1,1-1C11.6,1,12,1.4,12,2z M4,5.5C4,5.8,4.2,6,4.5,6h7C11.8,6,12,5.8,12,5.5
		C12,5.2,11.8,5,11.5,5h-7C4.2,5,4,5.2,4,5.5z M4,7.5C4,7.8,4.2,8,4.5,8h7C11.8,8,12,7.8,12,7.5C12,7.2,11.8,7,11.5,7h-7
		C4.2,7,4,7.2,4,7.5z M4,9.5C4,9.8,4.2,10,4.5,10h7c0.3,0,0.5-0.2,0.5-0.5C12,9.2,11.8,9,11.5,9h-7C4.2,9,4,9.2,4,9.5z M4,11.5
		C4,11.8,4.2,12,4.5,12h7c0.3,0,0.5-0.2,0.5-0.5c0-0.3-0.2-0.5-0.5-0.5h-7C4.2,11,4,11.2,4,11.5z"/>
</g>
</svg>
