<svg width="39" height="41" fill="none" xmlns="http://www.w3.org/2000/svg"><path fill="#fff" d="M6.348 2.332h25.984v36.444H6.348z"/><path d="M29.793 0H9.16C7.79 0 6.479.54 5.51 1.501A5.108 5.108 0 0 0 4 5.125v30.75c0 1.36.543 2.663 1.51 3.624A5.176 5.176 0 0 0 9.16 41h20.634c1.369 0 2.68-.54 3.648-1.501a5.108 5.108 0 0 0 1.511-3.624V5.125c0-1.36-.544-2.663-1.51-3.624A5.176 5.176 0 0 0 29.792 0Zm-7.738 38.438h-5.158v-2.563h5.158v2.563Zm7.738-6.407c0 .34-.136.666-.377.906-.242.24-.57.376-.912.376H10.448c-.342 0-.67-.136-.912-.376a1.277 1.277 0 0 1-.377-.906V6.406c0-.34.136-.665.377-.906.242-.24.57-.375.912-.375h18.056c.342 0 .67.135.912.375.241.24.377.566.377.906v25.625Z" fill="#7542E5"/><path d="M18.713 13.813v9.413l-3.38-3.488a.77.77 0 0 0-1.103.01.831.831 0 0 0-.01 1.139l4.723 4.875a.77.77 0 0 0 1.113 0l4.723-4.875a.831.831 0 0 0-.01-1.139.77.77 0 0 0-1.103-.01l-3.379 3.488v-9.413A.8.8 0 0 0 19.5 13a.8.8 0 0 0-.787.813Z" fill="#FF4AA2" stroke="#FF4AA2"/></svg>