<svg width="39" height="41" fill="none" xmlns="http://www.w3.org/2000/svg"><path fill="#fff" d="M6.348 2.332h25.984v36.444H6.348z"/><path d="M29.793 0H9.16C7.79 0 6.479.54 5.51 1.501A5.108 5.108 0 0 0 4 5.125v30.75c0 1.36.543 2.663 1.51 3.624A5.176 5.176 0 0 0 9.16 41h20.634c1.369 0 2.68-.54 3.648-1.501a5.108 5.108 0 0 0 1.511-3.624V5.125c0-1.36-.544-2.663-1.51-3.624A5.176 5.176 0 0 0 29.792 0Zm-7.738 38.438h-5.158v-2.563h5.158v2.563Zm7.738-6.407c0 .34-.136.666-.377.906-.242.24-.57.376-.912.376H10.448c-.342 0-.67-.136-.912-.376a1.277 1.277 0 0 1-.377-.906V6.406c0-.34.136-.665.377-.906.242-.24.57-.375.912-.375h18.056c.342 0 .67.135.912.375.241.24.377.566.377.906v25.625Z" fill="#7542E5"/><path d="M25.493 16.91c-.304-.741-.922-1.542-1.406-1.795.345.676.585 1.402.71 2.153l.001.012c-.792-2-2.136-2.806-3.233-4.562a8.428 8.428 0 0 1-.166-.271 2.245 2.245 0 0 1-.077-.147 1.301 1.301 0 0 1-.109-.293.018.018 0 0 0-.011-.006.025.025 0 0 0-.013 0l-.004.002-.005.003.003-.005c-1.76 1.043-2.358 2.975-2.413 3.94a3.481 3.481 0 0 0-1.929.753 2.093 2.093 0 0 0-.18-.139 3.327 3.327 0 0 1-.02-1.733 5.199 5.199 0 0 0-1.687 1.32h-.004c-.277-.357-.258-1.532-.242-1.778a1.25 1.25 0 0 0-.234.126 5.125 5.125 0 0 0-.685.594c-.24.246-.459.512-.655.796a6.027 6.027 0 0 0-.94 2.149l-.01.047c-.026.147-.049.295-.069.443l-.001.015c-.062.323-.1.65-.114.978v.037a7.142 7.142 0 0 0 1.849 4.795 6.977 6.977 0 0 0 4.565 2.267 6.95 6.95 0 0 0 4.879-1.453 7.11 7.11 0 0 0 2.623-4.41c.012-.091.021-.182.032-.274a7.377 7.377 0 0 0-.455-3.564Zm-8.078 5.553c.033.016.064.034.097.049l.005.003a3.746 3.746 0 0 1-.102-.052Zm7.384-5.181v-.007l.001.007H24.8Z" fill="url(#a)"/><path d="M25.493 16.91c-.304-.741-.922-1.542-1.406-1.795.345.676.585 1.402.71 2.153v.007l.001.007a6.497 6.497 0 0 1-.218 4.788c-.803 1.745-2.747 3.533-5.79 3.446-3.29-.094-6.185-2.564-6.727-5.8-.098-.51 0-.768.05-1.183a5.35 5.35 0 0 0-.113.98v.036a7.142 7.142 0 0 0 1.849 4.795 6.977 6.977 0 0 0 4.565 2.267 6.95 6.95 0 0 0 4.879-1.453 7.11 7.11 0 0 0 2.623-4.41c.012-.091.021-.182.032-.274a7.376 7.376 0 0 0-.455-3.564Z" fill="url(#b)"/><path d="M25.493 16.91c-.304-.741-.922-1.542-1.406-1.795.345.676.585 1.402.71 2.153v.007l.001.007a6.497 6.497 0 0 1-.218 4.788c-.803 1.745-2.747 3.533-5.79 3.446-3.29-.094-6.185-2.564-6.727-5.8-.098-.51 0-.768.05-1.183a5.35 5.35 0 0 0-.113.98v.036a7.142 7.142 0 0 0 1.849 4.795 6.977 6.977 0 0 0 4.565 2.267 6.95 6.95 0 0 0 4.879-1.453 7.11 7.11 0 0 0 2.623-4.41c.012-.091.021-.182.032-.274a7.376 7.376 0 0 0-.455-3.564Z" fill="url(#c)"/><path d="m22.087 17.744.044.033a3.86 3.86 0 0 0-.651-.86c-2.178-2.205-.571-4.781-.3-4.912l.003-.004c-1.76 1.043-2.358 2.975-2.413 3.94.082-.005.163-.012.246-.012.625.001 1.238.17 1.778.489.539.319.985.776 1.293 1.326Z" fill="url(#d)"/><path d="M19.02 18.184c-.01.177-.627.786-.842.786-1.993 0-2.317 1.22-2.317 1.22.089 1.027.796 1.874 1.651 2.322a3.94 3.94 0 0 0 .324.142c.294.105.601.165.912.178 3.494.166 4.17-4.228 1.65-5.503a2.397 2.397 0 0 1 1.69.415 3.56 3.56 0 0 0-1.294-1.326 3.504 3.504 0 0 0-1.778-.489c-.083 0-.164.007-.246.013a3.481 3.481 0 0 0-1.929.752c.107.092.228.214.482.467.476.475 1.695.966 1.698 1.023Z" fill="url(#e)"/><path d="M19.02 18.184c-.01.177-.627.786-.842.786-1.993 0-2.317 1.22-2.317 1.22.089 1.027.796 1.874 1.651 2.322a3.94 3.94 0 0 0 .324.142c.294.105.601.165.912.178 3.494.166 4.17-4.228 1.65-5.503a2.397 2.397 0 0 1 1.69.415 3.56 3.56 0 0 0-1.294-1.326 3.504 3.504 0 0 0-1.778-.489c-.083 0-.164.007-.246.013a3.481 3.481 0 0 0-1.929.752c.107.092.228.214.482.467.476.475 1.695.966 1.698 1.023Z" fill="url(#f)"/><path d="M16.515 16.458c.048.032.097.064.144.098a3.328 3.328 0 0 1-.02-1.735 5.2 5.2 0 0 0-1.686 1.32c.034 0 1.05-.02 1.562.317Z" fill="url(#g)"/><path d="M12.064 19.717c.54 3.235 3.438 5.705 6.726 5.799 3.043.087 4.988-1.701 5.791-3.446a6.497 6.497 0 0 0 .218-4.788V17.27l.001.012c.25 1.643-.577 3.235-1.867 4.311l-.004.01c-2.515 2.073-4.922 1.25-5.41.915a3.478 3.478 0 0 1-.102-.052c-1.466-.71-2.072-2.062-1.942-3.221a1.784 1.784 0 0 1-.985-.28 1.815 1.815 0 0 1-.675-.777 2.622 2.622 0 0 1 2.577-.105c.83.381 1.774.419 2.631.105-.003-.058-1.222-.55-1.698-1.024-.254-.253-.375-.375-.482-.467a2.109 2.109 0 0 0-.18-.139 8.689 8.689 0 0 0-.145-.097c-.511-.336-1.528-.318-1.562-.317h-.003c-.278-.356-.258-1.531-.242-1.777-.082.034-.16.076-.234.126a5.118 5.118 0 0 0-.685.594 6.027 6.027 0 0 0-1.598 2.943c-.004.014-.253 1.116-.13 1.688Z" fill="url(#h)"/><path d="M21.48 16.917c.256.255.475.544.651.86.037.028.072.057.105.088 1.59 1.482.757 3.578.695 3.727 1.29-1.076 2.116-2.668 1.868-4.311-.793-2-2.137-2.807-3.234-4.563a8.428 8.428 0 0 1-.166-.271 2.245 2.245 0 0 1-.077-.147 1.301 1.301 0 0 1-.109-.293.018.018 0 0 0-.011-.006.025.025 0 0 0-.013 0l-.004.002-.005.003c-.271.13-1.878 2.706.3 4.911Z" fill="url(#i)"/><path d="M22.235 17.864a1.459 1.459 0 0 0-.105-.088l-.043-.032a2.397 2.397 0 0 0-1.69-.415c2.52 1.276 1.844 5.669-1.65 5.503a3.087 3.087 0 0 1-.911-.178 3.729 3.729 0 0 1-.324-.142l.005.003c.487.336 2.893 1.159 5.409-.916l.004-.009c.062-.148.895-2.244-.695-3.726Z" fill="url(#j)"/><path d="M15.861 20.19s.324-1.22 2.317-1.22c.215 0 .832-.609.843-.785a3.451 3.451 0 0 1-2.632-.105 2.617 2.617 0 0 0-2.576.105c.146.32.38.59.675.777.295.188.637.285.985.28-.13 1.16.476 2.512 1.942 3.221l.097.049c-.855-.448-1.562-1.294-1.65-2.322Z" fill="url(#k)"/><path d="M25.493 16.91c-.304-.741-.922-1.542-1.406-1.795.345.676.585 1.402.71 2.153l.001.012c-.792-2-2.136-2.806-3.233-4.562a8.428 8.428 0 0 1-.166-.271 2.245 2.245 0 0 1-.077-.147 1.301 1.301 0 0 1-.109-.293.018.018 0 0 0-.011-.006.025.025 0 0 0-.013 0l-.004.002-.005.003.003-.005c-1.76 1.043-2.358 2.975-2.413 3.94.082-.005.163-.012.246-.012.625.001 1.238.17 1.778.489.539.319.985.776 1.293 1.326a2.396 2.396 0 0 0-1.69-.415c2.521 1.276 1.845 5.669-1.649 5.503a3.086 3.086 0 0 1-.912-.178 3.655 3.655 0 0 1-.324-.142l.005.003a3.746 3.746 0 0 1-.102-.052c.033.016.064.034.097.049-.855-.448-1.562-1.294-1.65-2.322 0 0 .323-1.22 2.316-1.22.215 0 .832-.609.843-.785-.003-.058-1.223-.55-1.698-1.023-.254-.254-.375-.376-.482-.468a2.093 2.093 0 0 0-.18-.139 3.327 3.327 0 0 1-.02-1.733 5.199 5.199 0 0 0-1.687 1.32h-.004c-.277-.357-.258-1.532-.242-1.778a1.25 1.25 0 0 0-.234.126 5.125 5.125 0 0 0-.685.594c-.24.246-.459.512-.655.796a6.027 6.027 0 0 0-.94 2.149l-.01.047c-.013.062-.072.38-.08.447 0-.005 0 .005 0 0a8.366 8.366 0 0 0-.104.99v.036a7.142 7.142 0 0 0 1.849 4.795 6.977 6.977 0 0 0 4.565 2.267 6.95 6.95 0 0 0 4.879-1.453 7.11 7.11 0 0 0 2.623-4.41c.012-.091.021-.182.032-.274a7.377 7.377 0 0 0-.455-3.564Zm-.695.365.001.007-.001-.007Z" fill="url(#l)"/><defs><radialGradient id="b" cx="0" cy="0" r="1" gradientUnits="userSpaceOnUse" gradientTransform="matrix(14.336 0 0 14.7485 21.774 13.652)"><stop offset=".13" stop-color="#FFBD4F"/><stop offset=".28" stop-color="#FF980E"/><stop offset=".47" stop-color="#FF3750"/><stop offset=".78" stop-color="#EB0878"/><stop offset=".86" stop-color="#E50080"/></radialGradient><radialGradient id="c" cx="0" cy="0" r="1" gradientUnits="userSpaceOnUse" gradientTransform="matrix(14.6944 0 0 14.7485 17.599 19.724)"><stop offset=".3" stop-color="#960E18"/><stop offset=".35" stop-color="#B11927" stop-opacity=".74"/><stop offset=".43" stop-color="#DB293D" stop-opacity=".34"/><stop offset=".5" stop-color="#F5334B" stop-opacity=".09"/><stop offset=".53" stop-color="#FF3750" stop-opacity="0"/></radialGradient><radialGradient id="d" cx="0" cy="0" r="1" gradientUnits="userSpaceOnUse" gradientTransform="matrix(4.70515 0 0 8.08607 20.383 11.308)"><stop offset=".13" stop-color="#FFF44F"/><stop offset=".53" stop-color="#FF980E"/></radialGradient><radialGradient id="e" cx="0" cy="0" r="1" gradientUnits="userSpaceOnUse" gradientTransform="matrix(6.22579 0 0 6.90767 17.279 23.535)"><stop offset=".35" stop-color="#3A8EE6"/><stop offset=".67" stop-color="#9059FF"/><stop offset="1" stop-color="#C139E6"/></radialGradient><radialGradient id="f" cx="0" cy="0" r="1" gradientUnits="userSpaceOnUse" gradientTransform="matrix(3.3059 0 0 4.07553 18.366 18.209)"><stop offset=".21" stop-color="#9059FF" stop-opacity="0"/><stop offset=".97" stop-color="#6E008B" stop-opacity=".6"/></radialGradient><radialGradient id="g" cx="0" cy="0" r="1" gradientUnits="userSpaceOnUse" gradientTransform="matrix(4.9495 0 0 5.02837 18.537 13.088)"><stop offset=".1" stop-color="#FFE226"/><stop offset=".79" stop-color="#FF7139"/></radialGradient><radialGradient id="h" cx="0" cy="0" r="1" gradientUnits="userSpaceOnUse" gradientTransform="matrix(23.624 0 0 20.0751 23.055 9.794)"><stop offset=".11" stop-color="#FFF44F"/><stop offset=".46" stop-color="#FF980E"/><stop offset=".72" stop-color="#FF3647"/><stop offset=".9" stop-color="#E31587"/></radialGradient><radialGradient id="i" cx="0" cy="0" r="1" gradientUnits="userSpaceOnUse" gradientTransform="matrix(1.63616 7.40564 -31.69038 7.0015 14.482 16.27)"><stop stop-color="#FFF44F"/><stop offset=".3" stop-color="#FF980E"/><stop offset=".57" stop-color="#FF3647"/><stop offset=".74" stop-color="#E31587"/></radialGradient><radialGradient id="j" cx="0" cy="0" r="1" gradientUnits="userSpaceOnUse" gradientTransform="matrix(13.5686 0 0 13.477 18.587 14.906)"><stop offset=".14" stop-color="#FFF44F"/><stop offset=".48" stop-color="#FF980E"/><stop offset=".66" stop-color="#FF3647"/><stop offset=".9" stop-color="#E31587"/></radialGradient><radialGradient id="k" cx="0" cy="0" r="1" gradientUnits="userSpaceOnUse" gradientTransform="matrix(16.307 0 0 14.7813 22.11 15.68)"><stop offset=".09" stop-color="#FFF44F"/><stop offset=".63" stop-color="#FF980E"/></radialGradient><linearGradient id="a" x1="24.215" y1="14.269" x2="12.833" y2="25.12" gradientUnits="userSpaceOnUse"><stop offset=".05" stop-color="#FFF44F"/><stop offset=".37" stop-color="#FF980E"/><stop offset=".53" stop-color="#FF3647"/><stop offset=".7" stop-color="#E31587"/></linearGradient><linearGradient id="l" x1="23.2" y1="14.049" x2="14.085" y2="23.892" gradientUnits="userSpaceOnUse"><stop offset=".17" stop-color="#FFF44F" stop-opacity=".8"/><stop offset=".6" stop-color="#FFF44F" stop-opacity="0"/></linearGradient></defs></svg>