<svg xmlns="http://www.w3.org/2000/svg" width="252" height="175" fill="none"><g filter="url(#a)"><path fill="#fff" d="M147.886 64.891c-.194 0-.386.01-.579.015l.001-.015c0-17.06-13.865-30.891-30.967-30.891-13.889 0-25.641 9.12-29.568 21.684a21.272 21.272 0 0 0-9.922-2.443c-11.78 0-21.329 9.526-21.329 21.276 0 1.915.258 3.768.733 5.533a17.216 17.216 0 0 0-6.995-1.486c-9.532 0-17.26 7.709-17.26 17.218S39.728 113 49.26 113h98.626C161.204 113 172 102.23 172 88.945s-10.796-24.054-24.114-24.054Z"/></g><g filter="url(#b)"><path fill="#fff" d="M143.018 112.724c.129 0 .257.007.385.01v-.01c0-11.445 9.21-20.724 20.571-20.724 9.225 0 17.032 6.119 19.641 14.548a14.016 14.016 0 0 1 6.591-1.639c7.825 0 14.169 6.39 14.169 14.274 0 1.284-.171 2.527-.487 3.711a11.341 11.341 0 0 1 4.646-.997c6.333 0 11.466 5.172 11.466 11.552 0 6.379-5.133 11.551-11.466 11.551h-65.516c-8.846 0-16.018-7.225-16.018-16.138 0-8.913 7.172-16.138 16.018-16.138Z"/></g><path fill="#0090ED" d="M70 156.638V162h109v-5.362L164.997 153H85.896L70 156.638Z"/><path fill="#0090ED" d="M174 150.89V87.11c0-2.839-2.28-5.11-5.131-5.11H80.13A5.099 5.099 0 0 0 75 87.11v63.78c0 2.839 2.28 5.11 5.13 5.11h88.739a5.099 5.099 0 0 0 5.131-5.11Z"/><path fill="#fff" d="M82.703 88h84.405c.378 0 .946.19 1.324.569.379.379.568.758.568 1.327v58.208c0 .379-.189.948-.568 1.327-.378.379-.757.569-1.324.569H82.703A1.697 1.697 0 0 1 81 148.294V89.896c0-.38.19-.948.568-1.327.189-.38.757-.569 1.135-.569Z"/><path fill="#DABDFF" d="M118.759 159h12.339c.38 0 .76-.222.76-.444.189-.445.189-.667 0-1.112-.19-.444-.57-.444-.76-.444h-12.339c-.379 0-.759.444-.759 1.111s.38.889.759.889Z"/><g filter="url(#c)"><circle cx="178.5" cy="87.5" r="27.5" fill="#fff"/></g><path fill="#FE208C" d="m175.936 95.448-1.848-24.92h9.24l-1.848 24.92h-5.544Zm2.744 14.224a5.198 5.198 0 0 1-5.208-5.208c0-2.632 2.296-4.984 5.208-4.984 2.744 0 4.984 2.352 4.984 4.984 0 2.856-2.24 5.208-4.984 5.208Z"/><path fill="url(#d)" d="M143.274 111.944c-.865-2.106-2.619-4.38-3.992-5.099a21.141 21.141 0 0 1 2.015 6.115l.004.034c-2.251-5.679-6.067-7.969-9.183-12.954a25.779 25.779 0 0 1-.469-.772 6.454 6.454 0 0 1-.219-.416 3.658 3.658 0 0 1-.297-.797.055.055 0 0 0-.013-.035.05.05 0 0 0-.032-.017.07.07 0 0 0-.038 0l-.01.005-.014.008.008-.013c-4.999 2.962-6.696 8.447-6.852 11.191a9.881 9.881 0 0 0-5.477 2.136 6.136 6.136 0 0 0-.514-.394 9.464 9.464 0 0 1-.056-4.924 14.771 14.771 0 0 0-4.79 3.748h-.01c-.788-1.012-.733-4.349-.688-5.046a3.569 3.569 0 0 0-.664.357 14.518 14.518 0 0 0-1.945 1.687 17.523 17.523 0 0 0-1.861 2.259v.003-.003a17.107 17.107 0 0 0-2.67 6.104l-.027.133a33.21 33.21 0 0 0-.196 1.258c0 .015-.003.029-.004.044a19.19 19.19 0 0 0-.323 2.777v.104a20.286 20.286 0 0 0 5.25 13.617 19.818 19.818 0 0 0 12.965 6.439 19.736 19.736 0 0 0 13.853-4.128 20.19 20.19 0 0 0 7.45-12.521c.033-.26.06-.518.09-.78a20.953 20.953 0 0 0-1.291-10.12Zm-22.939 15.77c.093.045.18.094.276.137l.013.009a13.051 13.051 0 0 1-.289-.146Zm20.967-14.716v-.019l.004.021-.004-.002Z"/><path fill="url(#e)" d="M143.274 111.944c-.865-2.106-2.619-4.38-3.992-5.099a21.141 21.141 0 0 1 2.015 6.115v.019l.004.021a18.448 18.448 0 0 1-.62 13.597c-2.281 4.954-7.802 10.032-16.445 9.785-9.338-.268-17.563-7.282-19.1-16.468-.28-1.449 0-2.184.141-3.361a15.194 15.194 0 0 0-.32 2.78v.104a20.286 20.286 0 0 0 5.25 13.617 19.818 19.818 0 0 0 12.965 6.439 19.736 19.736 0 0 0 13.853-4.128 20.19 20.19 0 0 0 7.45-12.521c.033-.26.06-.518.09-.78a20.953 20.953 0 0 0-1.291-10.12Z"/><path fill="url(#f)" d="M143.274 111.944c-.865-2.106-2.619-4.38-3.992-5.099a21.141 21.141 0 0 1 2.015 6.115v.019l.004.021a18.448 18.448 0 0 1-.62 13.597c-2.281 4.954-7.802 10.032-16.445 9.785-9.338-.268-17.563-7.282-19.1-16.468-.28-1.449 0-2.184.141-3.361a15.194 15.194 0 0 0-.32 2.78v.104a20.286 20.286 0 0 0 5.25 13.617 19.818 19.818 0 0 0 12.965 6.439 19.736 19.736 0 0 0 13.853-4.128 20.19 20.19 0 0 0 7.45-12.521c.033-.26.06-.518.09-.78a20.953 20.953 0 0 0-1.291-10.12Z"/><path fill="url(#g)" d="M133.602 114.313c.044.03.084.061.124.092a10.937 10.937 0 0 0-1.849-2.441c-6.186-6.262-1.621-13.578-.851-13.95l.008-.011c-5 2.962-6.696 8.447-6.852 11.191.232-.016.462-.036.7-.036a9.956 9.956 0 0 1 5.047 1.387 10.108 10.108 0 0 1 3.673 3.768Z"/><path fill="url(#h)" d="M124.893 115.563c-.032.501-1.781 2.229-2.393 2.229-5.66 0-6.578 3.466-6.578 3.466.25 2.918 2.259 5.321 4.688 6.592.11.058.222.112.335.163.195.087.39.168.585.242a8.779 8.779 0 0 0 2.59.506c9.919.471 11.841-12.007 4.682-15.628a6.806 6.806 0 0 1 4.799 1.179 10.106 10.106 0 0 0-3.673-3.767 9.957 9.957 0 0 0-5.047-1.388c-.237 0-.468.02-.7.036a9.89 9.89 0 0 0-5.477 2.137c.303.26.646.607 1.367 1.327 1.351 1.347 4.815 2.742 4.822 2.906Z"/><path fill="url(#i)" d="M124.893 115.563c-.032.501-1.781 2.229-2.393 2.229-5.66 0-6.578 3.466-6.578 3.466.25 2.918 2.259 5.321 4.688 6.592.11.058.222.112.335.163.195.087.39.168.585.242a8.779 8.779 0 0 0 2.59.506c9.919.471 11.841-12.007 4.682-15.628a6.806 6.806 0 0 1 4.799 1.179 10.106 10.106 0 0 0-3.673-3.767 9.957 9.957 0 0 0-5.047-1.388c-.237 0-.468.02-.7.036a9.89 9.89 0 0 0-5.477 2.137c.303.26.646.607 1.367 1.327 1.351 1.347 4.815 2.742 4.822 2.906Z"/><path fill="url(#j)" d="M117.777 110.661c.139.089.276.181.411.276a9.453 9.453 0 0 1-.056-4.924 14.77 14.77 0 0 0-4.791 3.747c.097-.002 2.984-.055 4.436.901Z"/><path fill="url(#k)" d="M105.138 119.914c1.536 9.186 9.762 16.2 19.1 16.468 8.643.248 14.164-4.831 16.445-9.785a18.446 18.446 0 0 0 .62-13.596v-.02c0-.015-.003-.024 0-.019l.003.034c.706 4.666-1.638 9.187-5.304 12.243l-.011.026c-7.142 5.888-13.977 3.553-15.361 2.599a8.75 8.75 0 0 1-.29-.146c-4.164-2.014-5.884-5.855-5.515-9.148a5.062 5.062 0 0 1-2.797-.794 5.145 5.145 0 0 1-1.918-2.208 7.431 7.431 0 0 1 7.317-.297 9.8 9.8 0 0 0 7.473.297c-.008-.163-3.471-1.559-4.822-2.905-.722-.72-1.064-1.067-1.368-1.327a5.915 5.915 0 0 0-.513-.394 18.42 18.42 0 0 0-.411-.276c-1.452-.956-4.339-.903-4.434-.901h-.009c-.789-1.012-.734-4.349-.689-5.046a3.569 3.569 0 0 0-.664.357 14.58 14.58 0 0 0-1.945 1.687 17.62 17.62 0 0 0-1.869 2.254v.004-.004a17.124 17.124 0 0 0-2.67 6.104c-.01.041-.717 3.17-.368 4.793Z"/><path fill="url(#l)" d="M131.878 111.964a10.948 10.948 0 0 1 1.849 2.443c.103.078.203.16.298.247 4.513 4.211 2.149 10.162 1.972 10.586 3.666-3.057 6.009-7.578 5.305-12.244-2.252-5.681-6.068-7.971-9.184-12.956a23.847 23.847 0 0 1-.469-.772 6.454 6.454 0 0 1-.219-.416 3.658 3.658 0 0 1-.297-.797.055.055 0 0 0-.013-.035.05.05 0 0 0-.032-.017.07.07 0 0 0-.038 0c-.003 0-.007.004-.01.005l-.014.008c-.77.37-5.335 7.686.852 13.948Z"/><path fill="url(#m)" d="M134.022 114.651a4.152 4.152 0 0 0-.422-.339 6.806 6.806 0 0 0-4.799-1.179c7.159 3.623 5.238 16.098-4.683 15.628a8.779 8.779 0 0 1-2.589-.506 7.966 7.966 0 0 1-.92-.405l.013.009c1.384.956 8.217 3.291 15.361-2.599l.011-.026c.179-.421 2.543-6.374-1.972-10.583Z"/><path fill="url(#n)" d="M115.922 121.258s.919-3.466 6.578-3.466c.612 0 2.363-1.728 2.394-2.229a9.804 9.804 0 0 1-7.473-.298 7.43 7.43 0 0 0-7.317.298 5.157 5.157 0 0 0 1.918 2.208 5.058 5.058 0 0 0 2.796.793c-.368 3.294 1.352 7.135 5.516 9.149.093.045.18.094.276.137-2.431-1.271-4.437-3.674-4.688-6.592Z"/><path fill="url(#o)" d="M143.274 111.944c-.865-2.106-2.619-4.38-3.992-5.099a21.141 21.141 0 0 1 2.015 6.115l.004.034c-2.251-5.679-6.067-7.969-9.183-12.954a25.779 25.779 0 0 1-.469-.772 6.454 6.454 0 0 1-.219-.416 3.658 3.658 0 0 1-.297-.797.055.055 0 0 0-.013-.035.05.05 0 0 0-.032-.017.07.07 0 0 0-.038 0l-.01.005-.014.008.008-.013c-4.999 2.962-6.696 8.447-6.852 11.191.232-.017.462-.036.7-.036a9.956 9.956 0 0 1 5.047 1.387 10.106 10.106 0 0 1 3.673 3.767 6.811 6.811 0 0 0-4.799-1.179c7.159 3.623 5.238 16.099-4.682 15.628a8.747 8.747 0 0 1-2.59-.506c-.195-.074-.39-.154-.585-.242a6.882 6.882 0 0 1-.335-.162l.013.009a13.051 13.051 0 0 1-.289-.146c.093.045.18.094.276.137-2.431-1.272-4.438-3.675-4.688-6.593 0 0 .918-3.466 6.578-3.466.612 0 2.362-1.728 2.393-2.229-.007-.164-3.471-1.559-4.822-2.906-.721-.72-1.064-1.066-1.367-1.327a6.136 6.136 0 0 0-.514-.394 9.464 9.464 0 0 1-.056-4.924 14.771 14.771 0 0 0-4.79 3.748h-.01c-.788-1.012-.733-4.349-.688-5.046a3.569 3.569 0 0 0-.664.357 14.518 14.518 0 0 0-1.945 1.687 17.523 17.523 0 0 0-1.861 2.259v.003-.003a17.107 17.107 0 0 0-2.67 6.104l-.027.133a35.154 35.154 0 0 0-.23 1.271c0 .014 0-.015 0 0a23.819 23.819 0 0 0-.293 2.808v.104a20.286 20.286 0 0 0 5.25 13.617 19.818 19.818 0 0 0 12.965 6.439 19.736 19.736 0 0 0 13.853-4.128 20.19 20.19 0 0 0 7.45-12.521c.033-.26.06-.518.09-.78a20.953 20.953 0 0 0-1.291-10.12Zm-1.974 1.035.003.021-.003-.021Z"/><defs><radialGradient id="e" cx="0" cy="0" r="1" gradientTransform="matrix(40.7109 0 0 41.8824 132.712 102.691)" gradientUnits="userSpaceOnUse"><stop offset=".13" stop-color="#FFBD4F"/><stop offset=".28" stop-color="#FF980E"/><stop offset=".47" stop-color="#FF3750"/><stop offset=".78" stop-color="#EB0878"/><stop offset=".86" stop-color="#E50080"/></radialGradient><radialGradient id="f" cx="0" cy="0" r="1" gradientTransform="matrix(41.7287 0 0 41.8824 120.856 119.933)" gradientUnits="userSpaceOnUse"><stop offset=".3" stop-color="#960E18"/><stop offset=".35" stop-color="#B11927" stop-opacity=".74"/><stop offset=".43" stop-color="#DB293D" stop-opacity=".34"/><stop offset=".5" stop-color="#F5334B" stop-opacity=".09"/><stop offset=".53" stop-color="#FF3750" stop-opacity="0"/></radialGradient><radialGradient id="g" cx="0" cy="0" r="1" gradientTransform="matrix(13.3615 0 0 22.9626 128.763 96.034)" gradientUnits="userSpaceOnUse"><stop offset=".13" stop-color="#FFF44F"/><stop offset=".53" stop-color="#FF980E"/></radialGradient><radialGradient id="h" cx="0" cy="0" r="1" gradientTransform="matrix(17.6798 0 0 19.6162 119.945 130.757)" gradientUnits="userSpaceOnUse"><stop offset=".35" stop-color="#3A8EE6"/><stop offset=".67" stop-color="#9059FF"/><stop offset="1" stop-color="#C139E6"/></radialGradient><radialGradient id="i" cx="0" cy="0" r="1" gradientTransform="matrix(9.38798 0 0 11.5736 123.032 115.631)" gradientUnits="userSpaceOnUse"><stop offset=".21" stop-color="#9059FF" stop-opacity="0"/><stop offset=".97" stop-color="#6E008B" stop-opacity=".6"/></radialGradient><radialGradient id="j" cx="0" cy="0" r="1" gradientTransform="matrix(14.0554 0 0 14.2794 123.519 101.089)" gradientUnits="userSpaceOnUse"><stop offset=".1" stop-color="#FFE226"/><stop offset=".79" stop-color="#FF7139"/></radialGradient><radialGradient id="k" cx="0" cy="0" r="1" gradientTransform="matrix(67.0868 0 0 57.0086 136.348 91.734)" gradientUnits="userSpaceOnUse"><stop offset=".11" stop-color="#FFF44F"/><stop offset=".46" stop-color="#FF980E"/><stop offset=".72" stop-color="#FF3647"/><stop offset=".9" stop-color="#E31587"/></radialGradient><radialGradient id="l" cx="0" cy="0" r="1" gradientTransform="matrix(4.64634 21.03035 -89.99338 19.88268 112.006 110.128)" gradientUnits="userSpaceOnUse"><stop stop-color="#FFF44F"/><stop offset=".3" stop-color="#FF980E"/><stop offset=".57" stop-color="#FF3647"/><stop offset=".74" stop-color="#E31587"/></radialGradient><radialGradient id="m" cx="0" cy="0" r="1" gradientTransform="matrix(38.5317 0 0 38.2716 123.663 106.252)" gradientUnits="userSpaceOnUse"><stop offset=".14" stop-color="#FFF44F"/><stop offset=".48" stop-color="#FF980E"/><stop offset=".66" stop-color="#FF3647"/><stop offset=".9" stop-color="#E31587"/></radialGradient><radialGradient id="n" cx="0" cy="0" r="1" gradientTransform="matrix(46.308 0 0 41.9755 133.664 108.448)" gradientUnits="userSpaceOnUse"><stop offset=".09" stop-color="#FFF44F"/><stop offset=".63" stop-color="#FF980E"/></radialGradient><filter id="a" width="204" height="143" x="0" y="0" color-interpolation-filters="sRGB" filterUnits="userSpaceOnUse"><feFlood flood-opacity="0" result="BackgroundImageFix"/><feColorMatrix in="SourceAlpha" result="hardAlpha" values="0 0 0 0 0 0 0 0 0 0 0 0 0 0 0 0 0 0 127 0"/><feOffset dy="-2"/><feGaussianBlur stdDeviation="16"/><feComposite in2="hardAlpha" operator="out"/><feColorMatrix values="0 0 0 0 0 0 0 0 0 0.564706 0 0 0 0 0.929412 0 0 0 0.12 0"/><feBlend in2="BackgroundImageFix" result="effect1_dropShadow_5649_42048"/><feBlend in="SourceGraphic" in2="effect1_dropShadow_5649_42048" result="shape"/></filter><filter id="b" width="157" height="117" x="95" y="58" color-interpolation-filters="sRGB" filterUnits="userSpaceOnUse"><feFlood flood-opacity="0" result="BackgroundImageFix"/><feColorMatrix in="SourceAlpha" result="hardAlpha" values="0 0 0 0 0 0 0 0 0 0 0 0 0 0 0 0 0 0 127 0"/><feOffset dy="-2"/><feGaussianBlur stdDeviation="16"/><feComposite in2="hardAlpha" operator="out"/><feColorMatrix values="0 0 0 0 0 0 0 0 0 0.564706 0 0 0 0 0.929412 0 0 0 0.12 0"/><feBlend in2="BackgroundImageFix" result="effect1_dropShadow_5649_42048"/><feBlend in="SourceGraphic" in2="effect1_dropShadow_5649_42048" result="shape"/></filter><filter id="c" width="119" height="119" x="119" y="30" color-interpolation-filters="sRGB" filterUnits="userSpaceOnUse"><feFlood flood-opacity="0" result="BackgroundImageFix"/><feColorMatrix in="SourceAlpha" result="hardAlpha" values="0 0 0 0 0 0 0 0 0 0 0 0 0 0 0 0 0 0 127 0"/><feOffset dy="2"/><feGaussianBlur stdDeviation="16"/><feComposite in2="hardAlpha" operator="out"/><feColorMatrix values="0 0 0 0 0 0 0 0 0 0.564706 0 0 0 0 0.929412 0 0 0 0.12 0"/><feBlend in2="BackgroundImageFix" result="effect1_dropShadow_5649_42048"/><feBlend in="SourceGraphic" in2="effect1_dropShadow_5649_42048" result="shape"/></filter><linearGradient id="d" x1="139.644" x2="107.322" y1="104.443" y2="135.259" gradientUnits="userSpaceOnUse"><stop offset=".05" stop-color="#FFF44F"/><stop offset=".37" stop-color="#FF980E"/><stop offset=".53" stop-color="#FF3647"/><stop offset=".7" stop-color="#E31587"/></linearGradient><linearGradient id="o" x1="136.762" x2="110.878" y1="103.819" y2="131.772" gradientUnits="userSpaceOnUse"><stop offset=".17" stop-color="#FFF44F" stop-opacity=".8"/><stop offset=".6" stop-color="#FFF44F" stop-opacity="0"/></linearGradient></defs></svg>