<svg width="113" height="113" fill="none" xmlns="http://www.w3.org/2000/svg">
  <path fill-rule="evenodd" clip-rule="evenodd" d="M4 2h105c1.105 0 2 .89543 2 2v105c0 1.105-.895 2-2 2H4c-1.10457 0-2-.895-2-2V4c0-1.10457.89543-2 2-2ZM0 4c0-2.20914 1.79086-4 4-4h105c2.209 0 4 1.79086 4 4v105c0 2.209-1.791 4-4 4H4c-2.20914 0-4-1.791-4-4V4Zm10 6H32.4483V32.4483H10V10Zm6.4138 3.2069h-3.2069v16.0345h16.0345V13.2069H16.4138ZM35.6552 10h3.2069v3.2069h-3.2069V10Zm16.0345 6.4138v3.2069H42.069v-3.2069h-3.2069v-3.2069h3.2069V10h3.2069v3.2069h3.2069v3.2069h3.2069Zm3.2069 0h-3.2069v-3.2069h3.2069v3.2069Zm6.4137 6.4138h-3.2069v-6.4138h-3.2068v9.6207h-3.2069v-3.2069H38.8621v-3.2069h-3.2069v3.2069h3.2069v3.2069h3.2069v6.4138h-3.2069v-3.2069h-3.2069v3.2069h3.2069v3.2069h-3.2069v9.6207h-3.2069V42.069h-9.6207v-3.2069h9.6207v-3.2069h-9.6207v3.2069h-3.2069v-3.2069h-3.2069v6.4138h-3.2069v3.2069H10v3.2069h6.4138v3.2069h-3.2069v3.2069H10v6.4137h3.2069v6.4138H10v3.2069h3.2069v3.2069H10v3.2069h3.2069v-3.2069h3.2069V70.931h16.0345v3.2069h-6.4138v3.2069h9.6207v3.2069h3.2069v3.2069h-3.2069v6.4138h3.2069v3.2069h-3.2069v3.2069h3.2069V103h3.2069v-3.2069h3.2069V103H58.1034v-3.2069h3.2069v-3.2069h3.2069v-3.2069h-6.4138v-3.2069h3.2069v-3.2069h3.2069v3.2069h3.2069v3.2069h3.2069v3.2069h-3.2069V103h16.0345v-3.2069h3.2069V103h3.2069v-3.2069h-3.2069v-3.2069h6.4138v-9.6207h-3.2069v-9.6207h3.2069v-9.6207h3.2069v12.8276h-3.2069v3.2069h3.2069v6.4138h3.2069v-3.2069H103V64.5172h-3.2069v-6.4138H103v-6.4137h-6.4138v3.2069h-3.2069v3.2068h3.2069v6.4138h-3.2069v-3.2069h-6.4138V48.4828h-3.2069v-3.2069h-6.4138v3.2069h3.2069v3.2069h-6.4138v3.2069h9.6207v6.4137h-3.2069v-3.2069H70.931v9.6207h-3.2069v3.2069h-3.2069v3.2069h-3.2069V70.931h-3.2069v3.2069h-3.2068v3.2069h-9.6207v-3.2069H42.069v-6.4138h-6.4138v-6.4138h3.2069v3.2069h3.2069v-6.4138h-6.4138v-6.4137h3.2069v3.2069h3.2069v-3.2069h-3.2069v-3.2069h-3.2069v-3.2069h3.2069V42.069h6.4138v-3.2069h3.2069v3.2069h9.6206v-3.2069h3.2069v3.2069h12.8276v-3.2069h6.4138v3.2069h3.2069v-3.2069h-3.2069v-3.2069H70.931v-6.4138h3.2069v3.2069h3.2069v-3.2069h-3.2069v-6.4138h-6.4138v3.2069h-3.2069v3.2069h-3.2069v3.2069h-3.2069v-6.4138h3.2069v-3.2069Zm0 0v-3.2069h3.2069v3.2069h-3.2069Zm6.4138 6.4138v3.2069h-3.2069v-3.2069h3.2069Zm0 0h3.2069v-3.2069h-3.2069v3.2069Zm-22.4482 6.4138v3.2069H42.069v-3.2069h3.2069Zm0 0h6.4138v3.2069h3.2069v-9.6207h-3.2069v3.2069h-3.2069v-6.4138h-3.2069v9.6207ZM32.4483 48.4828h3.2069v3.2069h-3.2069v-3.2069Zm-6.4138 3.2069v-3.2069h6.4138v-3.2069h-9.6207V42.069h-6.4138v3.2069h6.4138v3.2069h-3.2069v3.2069h-3.2069v3.2069h-3.2069v3.2068h3.2069v-3.2068h3.2069v3.2068h3.2069v3.2069h-3.2069v3.2069h-3.2069v3.2069h-3.2069v3.2069h3.2069v-3.2069h3.2069v-3.2069h3.2069v3.2069h3.2069v-3.2069h3.2069v3.2069h3.2069v-3.2069h-3.2069v-3.2069h6.4138v-3.2069h-6.4138v-3.2068h3.2069v-3.2069h-6.4138Zm0 6.4137h-3.2069v-6.4137h3.2069v6.4137Zm0 0h3.2069v3.2069h-3.2069v-3.2069Zm35.2758 22.4483v-3.2069h-6.4137v3.2069h-6.4138v3.2069h-3.2069v-3.2069H42.069v3.2069h-3.2069v3.2069h3.2069v6.4138h3.2069v3.2069H58.1034v-3.2069h-3.2068v-9.6207h3.2068v3.2069h3.2069v-3.2069h3.2069v-3.2069h-3.2069Zm0 0h-3.2069v3.2069h3.2069v-3.2069ZM45.2759 93.3793h6.4138v-3.2069h-6.4138v3.2069Zm-3.2069-6.4138h3.2069v-3.2069H42.069v3.2069ZM70.931 70.931v3.2069h-3.2069V70.931h3.2069Zm9.6207 0h-3.2069v-3.2069H70.931v3.2069h3.2069v3.2069h6.4138V70.931Zm0 0v-6.4138h3.2069v-3.2069h3.2069v3.2069h6.4138v3.2069h-3.2069v3.2069h-3.2069v3.2069h-3.2069V70.931h-3.2069Zm-6.4138 22.4483v6.4138h3.2069v-3.2069h3.2069v3.2069h3.2069v-6.4138h3.2069v-3.2069h-6.4138v3.2069h-6.4138Zm-3.2069-9.6207v9.6207h3.2069v-9.6207H70.931Zm0 0v-6.4138h-3.2069v6.4138h3.2069Zm-35.2758-6.4138h3.2069v-3.2069h-3.2069v3.2069ZM61.3103 10h9.6207v6.4138h3.2069v3.2069h-6.4138v-3.2069h-6.4138V10Zm19.2414 0H103V32.4483H80.5517V10Zm6.4138 3.2069h-3.2069v16.0345h16.0345V13.2069H86.9655Zm-70.5517 3.2069h9.6207v9.6207h-9.6207v-9.6207Zm70.5517 0h9.6207v9.6207h-9.6207v-9.6207ZM67.7241 35.6552h-3.2069v3.2069h3.2069v-3.2069Zm22.4483 0h3.2069v6.4138h6.4138v-6.4138H103v9.6207h-3.2069v3.2069h-3.2069v-3.2069h-3.2069v3.2069h-3.2069v-3.2069h-3.2069V42.069h3.2069v-6.4138ZM77.3448 61.3103h-3.2069v3.2069h3.2069v-3.2069Zm3.2069 16.0345h-3.2069v9.6207h9.6207v-9.6207h-6.4138ZM10 80.5517H32.4483V103H10V80.5517Zm6.4138 3.2069h-3.2069v16.0345h16.0345V83.7586H16.4138Zm64.1379-3.2069h3.2069v3.2069h-3.2069v-3.2069Zm-64.1379 6.4138h9.6207v9.6207h-9.6207v-9.6207Zm83.3793 6.4138H103v3.2069h-3.2069v-3.2069Zm0 3.2069v3.2069H103V103h-9.6207v-3.2069h3.2069v-3.2069h3.2069Z" fill="#15141A"/>
  <path d="M65.0677 53.0419c-.4023-.9682-1.2185-2.0135-1.8577-2.3439.4558.8825.7721 1.8304.9378 2.8098l.0017.0155c-1.047-2.6091-2.8218-3.6628-4.2721-5.9542-.0734-.1158-.1467-.232-.2181-.3545-.0409-.07-.0736-.1331-.1021-.1912-.0601-.1164-.1065-.2395-.1381-.3667a.023492.023492 0 0 0-.0059-.016.024055.024055 0 0 0-.0151-.0079.032137.032137 0 0 0-.0174 0c-.0012 0-.0031.0021-.0046.0026-.0014.0005-.0045.0026-.0067.0036l.0036-.0062c-2.326 1.3619-3.1157 3.8826-3.1873 5.1442-.9293.0637-1.8177.406-2.5494.9822-.0764-.0646-.1561-.1251-.239-.1811-.2109-.7386-.2199-1.5202-.026-2.2634a6.858204 6.858204 0 0 0-2.229 1.7227h-.0043c-.367-.4652-.3412-1.9991-.3202-2.3195-.1085.0436-.2122.0986-.3092.1641-.3239.2312-.6268.4907-.905.7753-.3171.3215-.6066.6689-.8657 1.0387v.0014-.0017c-.5953.8438-1.0175 1.7972-1.2424 2.8051l-.0124.0612c-.0175.0814-.0803.4895-.0911.5782 0 .0069-.0014.0134-.0021.0203-.0811.4213-.1313.848-.1503 1.2766v.0478c.0041 2.3173.8768 4.5488 2.4458 6.2541 1.569 1.7053 3.7203 2.7605 6.0292 2.9571 2.309.1967 4.6077-.4794 6.4425-1.8948 1.8348-1.4154 3.0724-3.4672 3.4683-5.7505.0155-.1194.0282-.2377.042-.3584.1908-1.5765-.0157-3.1756-.6006-4.652l.0009.0015Zm-10.6731 7.2492c.0433.0207.0839.0432.1283.063l.0065.0041c-.0449-.0215-.0898-.0439-.1348-.0671Zm9.7551-6.7652v-.0088l.0017.0098-.0017-.001Z" fill="url(#a)"/>
  <path d="M65.0677 53.0419c-.4023-.9681-1.2185-2.0135-1.8577-2.3439.4558.8826.7721 1.8304.9378 2.8098v.0089l.0017.0098c.7139 2.0426.6106 4.2821-.2881 6.2504-1.0614 2.2773-3.6294 4.6114-7.6506 4.4967-4.3438-.123-8.1715-3.3474-8.8859-7.5693-.1302-.6659 0-1.0035.0655-1.5447-.0893.4203-.1392.8481-.1489 1.2778v.0478c.0041 2.3173.8768 4.5488 2.4458 6.2541 1.569 1.7053 3.7203 2.7604 6.0292 2.9571 2.309.1966 4.6077-.4795 6.4426-1.8948 1.8348-1.4154 3.0723-3.4673 3.4682-5.7505.0155-.1194.0282-.2377.0421-.3584.1907-1.5765-.0158-3.1756-.6007-4.652l-.001.0012Z" fill="url(#b)"/>
  <path d="M65.0677 53.0419c-.4023-.9681-1.2185-2.0135-1.8577-2.3439.4558.8826.7721 1.8304.9378 2.8098v.0089l.0017.0098c.7139 2.0426.6106 4.2821-.2881 6.2504-1.0614 2.2773-3.6294 4.6114-7.6506 4.4967-4.3438-.123-8.1715-3.3474-8.8859-7.5693-.1302-.6659 0-1.0035.0655-1.5447-.0893.4203-.1392.8481-.1489 1.2778v.0478c.0041 2.3173.8768 4.5488 2.4458 6.2541 1.569 1.7053 3.7203 2.7604 6.0292 2.9571 2.309.1966 4.6077-.4795 6.4426-1.8948 1.8348-1.4154 3.0723-3.4673 3.4682-5.7505.0155-.1194.0282-.2377.0421-.3584.1907-1.5765-.0158-3.1756-.6007-4.652l-.001.0012Z" fill="url(#c)"/>
  <path d="M60.5662 54.129c.0201.0141.0387.0282.0576.0423-.2326-.4125-.5222-.7901-.8601-1.1218-2.8792-2.8791-.7544-6.2409-.3962-6.4129l.0036-.0053c-2.326 1.362-3.1157 3.8827-3.1874 5.1442.108-.0074.2151-.0164.3255-.0164.8252.0016 1.6353.2216 2.3479.6378.7126.4162 1.3023 1.0137 1.7091 1.7316v.0005Z" fill="url(#d)"/>
  <path d="M56.514 54.7051c-.0153.2303-.8291 1.0247-1.1137 1.0247-2.633 0-3.0607 1.593-3.0607 1.593.1166 1.3414 1.0513 2.4467 2.1812 3.0297.0516.0267.1039.0508.1563.0745.0906.0401.1812.0773.2719.1113.3877.1373.7939.2156 1.2049.2325 4.6162.2165 5.5098-5.5193 2.1788-7.1847.7857-.1022 1.5815.091 2.2328.5422-.4068-.718-.9965-1.3155-1.7091-1.7316-.7126-.4162-1.5227-.6363-2.3479-.6379-.1099 0-.2175.0091-.3255.0165-.9292.0637-1.8176.406-2.5494.9822.1412.1195.3006.2791.6363.61.6284.6191 2.24 1.2604 2.2436 1.3356l.0005.002Z" fill="url(#e)"/>
  <path d="M56.514 54.7051c-.0153.2303-.8291 1.0247-1.1137 1.0247-2.633 0-3.0607 1.593-3.0607 1.593.1166 1.3414 1.0513 2.4467 2.1812 3.0297.0516.0267.1039.0508.1563.0745.0906.0401.1812.0773.2719.1113.3877.1373.7939.2156 1.2049.2325 4.6162.2165 5.5098-5.5193 2.1788-7.1847.7857-.1022 1.5815.091 2.2328.5422-.4068-.718-.9965-1.3155-1.7091-1.7316-.7126-.4162-1.5227-.6363-2.3479-.6379-.1099 0-.2175.0091-.3255.0165-.9292.0637-1.8176.406-2.5494.9822.1412.1195.3006.2791.6363.61.6284.6191 2.24 1.2604 2.2436 1.3356l.0005.002Z" fill="url(#f)"/>
  <path d="M53.2024 52.452c.075.0477.1369.0893.1911.1268-.2109-.7385-.2199-1.5202-.026-2.2634a6.858204 6.858204 0 0 0-2.229 1.7227c.0452-.0012 1.3884-.0253 2.0639.4139Z" fill="url(#g)"/>
  <path d="M47.3232 56.7049c.7146 4.222 4.5421 7.4475 8.8859 7.5694 4.0212.1137 6.5897-2.2206 7.6506-4.4967.8988-1.9683 1.002-4.2078.2881-6.2505v-.0088c0-.0069-.0014-.011 0-.0088l.0017.0155c.3285 2.1449-.7624 4.2219-2.4682 5.6292l-.0052.012c-3.3236 2.7071-6.5038 1.6328-7.1465 1.1946-.0449-.0215-.0898-.0438-.1347-.0671-1.9375-.9261-2.7382-2.6904-2.5662-4.2052-.4599.0068-.9119-.12-1.3012-.3649-.3894-.2449-.6994-.5974-.8924-1.0149.5086-.3116 1.0886-.4878 1.6846-.5117.596-.0239 1.1882.1052 1.7202.375 1.0965.4977 2.3442.5468 3.4764.1367-.0035-.0753-1.6151-.7168-2.2435-1.3357-.3357-.3309-.4951-.4903-.6363-.61a2.78093 2.78093 0 0 0-.2389-.1811c-.055-.0375-.1169-.0781-.1912-.1268-.6754-.4392-2.0187-.4151-2.0632-.4139h-.0043c-.367-.4652-.3412-1.9991-.3201-2.3195-.1086.0436-.2122.0986-.3092.1641-.324.2312-.6269.4907-.9051.7754-.3182.3205-.6089.6671-.8692 1.0362v.0014-.0016c-.5953.8438-1.0176 1.7971-1.2425 2.805-.0045.0189-.3335 1.4573-.1713 2.2032l.0017-.0005Z" fill="url(#h)"/>
  <path d="M59.7634 53.0492c.3381.332.6277.7101.8602 1.123.0509.0384.0984.0767.1388.1137 2.0995 1.9353.9995 4.6711.9175 4.8646 1.7055-1.4051 2.7955-3.4836 2.4682-5.6292-1.0475-2.6115-2.8242-3.6652-4.2721-5.9566-.0734-.1158-.1467-.232-.2182-.3545-.0408-.07-.0736-.1331-.102-.1912-.0601-.1164-.1065-.2395-.1381-.3667 0-.0059-.0021-.0116-.006-.016-.0038-.0044-.0092-.0072-.015-.0079a.032501.032501 0 0 0-.0175 0c-.0012 0-.0031.0021-.0045.0026-.0014.0005-.0046.0026-.0067.0036-.3582.1699-2.4825 3.5338.3966 6.4105l-.0012.0041Z" fill="url(#i)"/>
  <path d="M60.7621 54.2869c-.0403-.037-.0879-.0753-.1388-.1137-.0189-.0141-.0375-.0282-.0576-.0423-.6513-.4512-1.447-.6444-2.2328-.5422 3.3307 1.6654 2.4371 7.3998-2.1788 7.1847-.411-.0169-.8172-.0952-1.2049-.2325-.0907-.0339-.1813-.071-.2719-.1113-.0524-.0239-.1047-.0478-.1563-.0746l.0065.0041c.6436.4394 3.8229 1.5129 7.1464-1.1946l.0053-.012c.0829-.1935 1.1829-2.9293-.9175-4.8646l.0004-.001Z" fill="url(#j)"/>
  <path d="M52.3398 57.3212s.4275-1.593 3.0607-1.593c.2846 0 1.0991-.7944 1.1137-1.0248-1.1322.4101-2.3799.3611-3.4765-.1366-.5319-.2699-1.1241-.3989-1.7202-.375-.596.0239-1.1759.2-1.6845.5116.193.4175.503.7701.8923 1.015.3894.2449.8414.3716 1.3013.3649-.1716 1.5141.6289 3.2781 2.5661 4.2052.0433.0207.0839.0432.1283.063-1.1308-.5842-2.0646-1.689-2.1812-3.0296v-.0007Z" fill="url(#k)"/>
  <path d="M65.0677 53.0419c-.4024-.9682-1.2186-2.0135-1.8577-2.3439.4558.8825.7721 1.8304.9378 2.8098l.0017.0155c-1.047-2.6091-2.8218-3.6628-4.2721-5.9542-.0734-.1158-.1467-.232-.2182-.3545-.0408-.07-.0736-.1331-.102-.1912-.0601-.1164-.1065-.2395-.1381-.3667.0001-.0059-.0021-.0116-.0059-.016a.024055.024055 0 0 0-.0151-.0079c-.0057-.0016-.0117-.0016-.0175 0-.0011 0-.0031.0021-.0045.0026-.0014.0005-.0045.0026-.0067.0036l.0036-.0062c-2.326 1.3619-3.1157 3.8826-3.1874 5.1442.108-.0074.2151-.0165.3255-.0165.8252.0016 1.6353.2217 2.3479.6378a4.673323 4.673323 0 0 1 1.7091 1.7317c-.6513-.4512-1.447-.6444-2.2328-.5422 3.3307 1.6654 2.4371 7.3997-2.1788 7.1847-.411-.0169-.8171-.0952-1.2049-.2325-.0907-.0339-.1813-.071-.2719-.1113-.0524-.0239-.1047-.0478-.1563-.0746l.0065.0041c-.045-.0215-.0899-.0439-.1348-.0671.0432.0207.0839.0432.1283.063-1.1309-.5844-2.0646-1.6892-2.1812-3.0296 0 0 .4274-1.593 3.0607-1.593.2846 0 1.0991-.7944 1.1137-1.0248-.0036-.0752-1.6152-.7167-2.2436-1.3356-.3357-.3309-.4951-.4903-.6363-.61-.0763-.0646-.156-.1251-.2389-.1811-.211-.7385-.22-1.5202-.026-2.2634-.8543.4138-1.6133 1.0004-2.229 1.7227h-.0043c-.367-.4652-.3412-1.9991-.3202-2.3195-.1086.0436-.2122.0986-.3092.1641-.324.2312-.6268.4907-.9051.7753-.317.3215-.6066.6689-.8656 1.0387v.0014-.0017c-.5953.8439-1.0176 1.7972-1.2425 2.8051l-.0124.0612c-.0174.0814-.0956.4953-.1068.5842-.0714.4271-.1171.8582-.1367 1.2909v.0478c.0041 2.3173.8768 4.5488 2.4458 6.2541 1.569 1.7053 3.7204 2.7605 6.0293 2.9571 2.3089.1967 4.6077-.4794 6.4425-1.8948 1.8348-1.4154 3.0723-3.4672 3.4682-5.7505.0156-.1194.0282-.2377.0421-.3583.1907-1.5765-.0158-3.1757-.6007-4.652l.0005-.0005Zm-.9187.4757.0017.0098-.0017-.0098Z" fill="url(#l)"/>
  <defs>
    <radialGradient id="b" cx="0" cy="0" r="1" gradientUnits="userSpaceOnUse" gradientTransform="translate(63.2471 48.7818) scale(19.3057)">
      <stop offset=".129" stop-color="#FFBD4F"/>
      <stop offset=".186" stop-color="#FFAC31"/>
      <stop offset=".247" stop-color="#FF9D17"/>
      <stop offset=".283" stop-color="#FF980E"/>
      <stop offset=".403" stop-color="#FF563B"/>
      <stop offset=".467" stop-color="#FF3750"/>
      <stop offset=".71" stop-color="#F5156C"/>
      <stop offset=".782" stop-color="#EB0878"/>
      <stop offset=".86" stop-color="#E50080"/>
    </radialGradient>
    <radialGradient id="c" cx="0" cy="0" r="1" gradientUnits="userSpaceOnUse" gradientTransform="translate(56.0791 56.6665) scale(19.3057)">
      <stop offset=".3" stop-color="#960E18"/>
      <stop offset=".351" stop-color="#B11927" stop-opacity=".74"/>
      <stop offset=".435" stop-color="#DB293D" stop-opacity=".343"/>
      <stop offset=".497" stop-color="#F5334B" stop-opacity=".094"/>
      <stop offset=".53" stop-color="#FF3750" stop-opacity="0"/>
    </radialGradient>
    <radialGradient id="d" cx="0" cy="0" r="1" gradientUnits="userSpaceOnUse" gradientTransform="translate(58.4684 44.481) scale(13.9847)">
      <stop offset=".132" stop-color="#FFF44F"/>
      <stop offset=".252" stop-color="#FFDC3E"/>
      <stop offset=".506" stop-color="#FF9D12"/>
      <stop offset=".526" stop-color="#FF980E"/>
    </radialGradient>
    <radialGradient id="e" cx="0" cy="0" r="1" gradientUnits="userSpaceOnUse" gradientTransform="translate(53.9287 61.6843) scale(9.19171)">
      <stop offset=".353" stop-color="#3A8EE6"/>
      <stop offset=".472" stop-color="#5C79F0"/>
      <stop offset=".669" stop-color="#9059FF"/>
      <stop offset="1" stop-color="#C139E6"/>
    </radialGradient>
    <radialGradient id="f" cx="0" cy="0" r="1" gradientUnits="userSpaceOnUse" gradientTransform="matrix(4.73773 -1.14544 1.34103 5.5467 57.0129 55.0095)">
      <stop offset=".206" stop-color="#9059FF" stop-opacity="0"/>
      <stop offset=".278" stop-color="#8C4FF3" stop-opacity=".064"/>
      <stop offset=".747" stop-color="#7716A8" stop-opacity=".45"/>
      <stop offset=".975" stop-color="#6E008B" stop-opacity=".6"/>
    </radialGradient>
    <radialGradient id="g" cx="0" cy="0" r="1" gradientUnits="userSpaceOnUse" gradientTransform="translate(55.8402 48.0652) scale(6.61363)">
      <stop stop-color="#FFE226"/>
      <stop offset=".121" stop-color="#FFDB27"/>
      <stop offset=".295" stop-color="#FFC82A"/>
      <stop offset=".502" stop-color="#FFA930"/>
      <stop offset=".732" stop-color="#FF7E37"/>
      <stop offset=".792" stop-color="#FF7139"/>
    </radialGradient>
    <radialGradient id="h" cx="0" cy="0" r="1" gradientUnits="userSpaceOnUse" gradientTransform="translate(61.0967 43.7644) scale(28.2178)">
      <stop offset=".113" stop-color="#FFF44F"/>
      <stop offset=".456" stop-color="#FF980E"/>
      <stop offset=".622" stop-color="#FF5634"/>
      <stop offset=".716" stop-color="#FF3647"/>
      <stop offset=".904" stop-color="#E31587"/>
    </radialGradient>
    <radialGradient id="i" cx="0" cy="0" r="1" gradientUnits="userSpaceOnUse" gradientTransform="matrix(2.1701 20.56421 -13.49616 1.42422 58.7513 45.3288)">
      <stop stop-color="#FFF44F"/>
      <stop offset=".06" stop-color="#FFE847"/>
      <stop offset=".168" stop-color="#FFC830"/>
      <stop offset=".304" stop-color="#FF980E"/>
      <stop offset=".356" stop-color="#FF8B16"/>
      <stop offset=".455" stop-color="#FF672A"/>
      <stop offset=".57" stop-color="#FF3647"/>
      <stop offset=".737" stop-color="#E31587"/>
    </radialGradient>
    <radialGradient id="j" cx="0" cy="0" r="1" gradientUnits="userSpaceOnUse" gradientTransform="translate(55.8401 50.4544) scale(17.614)">
      <stop offset=".137" stop-color="#FFF44F"/>
      <stop offset=".48" stop-color="#FF980E"/>
      <stop offset=".592" stop-color="#FF5634"/>
      <stop offset=".655" stop-color="#FF3647"/>
      <stop offset=".904" stop-color="#E31587"/>
    </radialGradient>
    <radialGradient id="k" cx="0" cy="0" r="1" gradientUnits="userSpaceOnUse" gradientTransform="translate(60.3799 51.41) scale(19.2794)">
      <stop offset=".094" stop-color="#FFF44F"/>
      <stop offset=".231" stop-color="#FFE141"/>
      <stop offset=".509" stop-color="#FFAF1E"/>
      <stop offset=".626" stop-color="#FF980E"/>
    </radialGradient>
    <linearGradient id="a" x1="63.842" y1="49.5907" x2="48.4684" y2="64.4236" gradientUnits="userSpaceOnUse">
      <stop offset=".048" stop-color="#FFF44F"/>
      <stop offset=".111" stop-color="#FFE847"/>
      <stop offset=".225" stop-color="#FFC830"/>
      <stop offset=".368" stop-color="#FF980E"/>
      <stop offset=".401" stop-color="#FF8B16"/>
      <stop offset=".462" stop-color="#FF672A"/>
      <stop offset=".534" stop-color="#FF3647"/>
      <stop offset=".705" stop-color="#E31587"/>
    </linearGradient>
    <linearGradient id="l" x1="63.6556" y1="49.5119" x2="50.5765" y2="62.5934" gradientUnits="userSpaceOnUse">
      <stop offset=".167" stop-color="#FFF44F" stop-opacity=".8"/>
      <stop offset=".266" stop-color="#FFF44F" stop-opacity=".634"/>
      <stop offset=".489" stop-color="#FFF44F" stop-opacity=".217"/>
      <stop offset=".6" stop-color="#FFF44F" stop-opacity="0"/>
    </linearGradient>
  </defs>
</svg>
