<svg width="113" height="113" fill="none" xmlns="http://www.w3.org/2000/svg"><path fill-rule="evenodd" clip-rule="evenodd" d="M4 2h105a2 2 0 012 2v105a2 2 0 01-2 2H4a2 2 0 01-2-2V4a2 2 0 012-2zM0 4a4 4 0 014-4h105a4 4 0 014 4v105a4 4 0 01-4 4H4a4 4 0 01-4-4V4zm10 6h22.448v22.448H10V10zm6.414 3.207h-3.207V29.24H29.24V13.207H16.414zM35.655 10h3.207v3.207h-3.207V10zm16.035 6.414v3.207h-9.621v-3.207h-3.207v-3.207h3.207V10h3.207v3.207h3.207v3.207h3.207zm3.207 0H51.69v-3.207h3.207v3.207zm6.413 6.414h-3.207v-6.414h-3.206v9.62H51.69v-3.206H38.862V19.62h-3.207v3.207h3.207v3.207h3.207v6.413h-3.207v-3.207h-3.207v3.207h3.207v3.207h-3.207v9.62h-3.207V42.07h-9.62v-3.207h9.62v-3.207h-9.62v3.207H19.62v-3.207h-3.207v6.414h-3.207v3.207H10v3.207h6.414v3.207h-3.207v3.207H10v6.413h3.207v6.414H10v3.207h3.207v3.207H10v3.207h3.207v-3.207h3.207V70.93h16.034v3.207h-6.413v3.207h9.62v3.207h3.207v3.207h-3.207v6.413h3.207v3.207h-3.207v3.207h3.207V103h3.207v-3.207h3.207V103h12.827v-3.207h3.207v-3.207h3.207V93.38h-6.414v-3.207h3.207v-3.207h3.207v3.207h3.207v3.207h3.207v3.207h-3.207V103H83.76v-3.207h3.207V103h3.206v-3.207h-3.206v-3.207h6.413v-9.62h-3.207v-9.621h3.207v-9.62h3.207v12.827H93.38v3.207h3.207v6.413h3.207v-3.207H103V64.517h-3.207v-6.414H103V51.69h-6.414v3.207H93.38v3.206h3.207v6.414H93.38V61.31h-6.414V48.483H83.76v-3.207h-6.414v3.207h3.207v3.207h-6.414v3.207h9.62v6.413h-3.206v-3.207H70.93v9.621h-3.207v3.207h-3.207v3.207H61.31V70.93h-3.207v3.207h-3.206v3.207h-9.621v-3.207h-3.207v-6.414h-6.414V61.31h3.207v3.207h3.207v-6.414h-6.414V51.69h3.207v3.207h3.207V51.69h-3.207v-3.207h-3.207v-3.207h3.207v-3.207h6.414v-3.207h3.207v3.207h9.62v-3.207h3.207v3.207h12.828v-3.207h6.414v3.207h3.207v-3.207h-3.207v-3.207H70.93v-6.414h3.207v3.207h3.207v-3.207h-3.207v-6.413h-6.414v3.207h-3.207v3.206H61.31v3.207h-3.207v-6.413h3.207v-3.207zm0 0V19.62h3.207v3.207H61.31zm6.414 6.413v3.207h-3.207v-3.207h3.207zm0 0h3.207v-3.206h-3.207v3.206zm-22.448 6.414v3.207h-3.207v-3.207h3.207zm0 0h6.414v3.207h3.207v-9.62H51.69v3.206h-3.207v-6.413h-3.207v9.62zM32.448 48.483h3.207v3.207h-3.207v-3.207zm-6.413 3.207v-3.207h6.413v-3.207h-9.62v-3.207h-6.414v3.207h6.414v3.207H19.62v3.207h-3.207v3.207h-3.207v3.206h3.207v-3.206h3.207v3.206h3.207v3.207H19.62v3.207h-3.207v3.207h-3.207v3.207h3.207v-3.207h3.207v-3.207h3.207v3.207h3.207v-3.207h3.206v3.207h3.207v-3.207h-3.207V61.31h6.414v-3.207h-6.414v-3.206h3.207V51.69h-6.414zm0 6.413h-3.207V51.69h3.207v6.413zm0 0h3.206v3.207h-3.206v-3.207zM61.31 80.552v-3.207h-6.413v3.207h-6.414v3.207h-3.207v-3.207h-3.207v3.207h-3.207v3.207h3.207v6.413h3.207v3.207h12.827V93.38h-3.206v-9.62h3.206v3.207h3.207v-3.207h3.207v-3.207H61.31zm0 0h-3.207v3.207h3.207v-3.207zM45.276 93.379h6.414v-3.207h-6.414v3.207zm-3.207-6.414h3.207V83.76h-3.207v3.207zm28.862-16.034v3.207h-3.207V70.93h3.207zm9.62 0h-3.206v-3.207H70.93v3.207h3.207v3.207h6.414V70.93zm0 0v-6.414h3.208V61.31h3.207v3.207h6.413v3.207h-3.207v3.207h-3.207v3.207H83.76V70.93h-3.207zm-6.413 22.448v6.414h3.207v-3.207h3.207v3.207h3.207V93.38h3.207v-3.207h-6.414v3.207h-6.414zm-3.207-9.62v9.62h3.207v-9.62H70.93zm0 0v-6.414h-3.207v6.414h3.207zm-35.276-6.414h3.207v-3.207h-3.207v3.207zM61.31 10h9.621v6.414h3.207v3.207h-6.414v-3.207H61.31V10zm19.242 0H103v22.448H80.552V10zm6.413 3.207H83.76V29.24h16.034V13.207H86.965zm-70.551 3.207h9.62v9.62h-9.62v-9.62zm70.551 0h9.621v9.62h-9.62v-9.62zm-19.24 19.241h-3.208v3.207h3.207v-3.207zm22.447 0h3.207v6.414h6.414v-6.414H103v9.62h-3.207v3.208h-3.207v-3.207H93.38v3.207h-3.207v-3.207h-3.207v-3.207h3.207v-6.414zM77.345 61.31h-3.207v3.207h3.207V61.31zm3.207 16.035h-3.207v9.62h9.62v-9.62h-6.413zM10 80.552h22.448V103H10V80.552zm6.414 3.207h-3.207v16.034H29.24V83.76H16.414zm64.138-3.207h3.207v3.207h-3.207v-3.207zm-64.138 6.413h9.62v9.621h-9.62v-9.62zm83.38 6.414H103v3.207h-3.207V93.38zm0 3.207v3.207H103V103h-9.62v-3.207h3.206v-3.207h3.207z" fill="#15141A"/><path d="M65.068 53.042c-.403-.968-1.219-2.014-1.858-2.344a9.62 9.62 0 01.938 2.81l.002.015c-1.048-2.609-2.822-3.662-4.273-5.954a11.075 11.075 0 01-.218-.354 2.928 2.928 0 01-.102-.192 1.685 1.685 0 01-.138-.366.023.023 0 00-.006-.016.024.024 0 00-.015-.008.032.032 0 00-.017 0l-.005.002-.007.004.004-.006c-2.326 1.362-3.116 3.882-3.187 5.144a4.633 4.633 0 00-2.55.982 2.782 2.782 0 00-.239-.18 4.295 4.295 0 01-.026-2.264 6.858 6.858 0 00-2.229 1.722h-.004c-.367-.465-.341-1.999-.32-2.32a1.656 1.656 0 00-.31.165c-.323.231-.626.49-.904.775a8.089 8.089 0 00-.866 1.039v.001-.001a7.82 7.82 0 00-1.242 2.805l-.013.061c-.017.081-.08.49-.091.578l-.002.02a8.82 8.82 0 00-.15 1.277v.048a9.26 9.26 0 0018.385 1.566c.016-.12.029-.238.042-.359a9.524 9.524 0 00-.6-4.652v.002zm-10.673 7.25c.043.02.084.042.128.062l.006.004a5.116 5.116 0 01-.134-.067zm9.755-6.766v-.009l.001.01-.001-.001z" fill="url(#a)"/><path d="M65.068 53.042c-.403-.968-1.219-2.014-1.858-2.344.456.883.772 1.83.938 2.81v.009l.002.01a8.387 8.387 0 01-.289 6.25c-1.061 2.277-3.629 4.611-7.65 4.497-4.344-.123-8.172-3.348-8.886-7.57-.13-.666 0-1.003.065-1.544-.089.42-.139.848-.148 1.277v.048a9.26 9.26 0 0018.385 1.566c.016-.12.029-.238.042-.358a9.525 9.525 0 00-.6-4.652h-.001z" fill="url(#b)"/><path d="M65.068 53.042c-.403-.968-1.219-2.014-1.858-2.344.456.883.772 1.83.938 2.81v.009l.002.01a8.387 8.387 0 01-.289 6.25c-1.061 2.277-3.629 4.611-7.65 4.497-4.344-.123-8.172-3.348-8.886-7.57-.13-.666 0-1.003.065-1.544-.089.42-.139.848-.148 1.277v.048a9.26 9.26 0 0018.385 1.566c.016-.12.029-.238.042-.358a9.525 9.525 0 00-.6-4.652h-.001z" fill="url(#c)"/><path d="M60.566 54.129l.058.042a5.043 5.043 0 00-.86-1.122c-2.88-2.879-.755-6.24-.397-6.412l.004-.006c-2.326 1.362-3.116 3.883-3.187 5.144.108-.007.215-.016.325-.016a4.673 4.673 0 014.057 2.37z" fill="url(#d)"/><path d="M56.514 54.705c-.015.23-.83 1.025-1.114 1.025-2.633 0-3.06 1.593-3.06 1.593.116 1.341 1.05 2.447 2.18 3.03.052.026.105.05.157.074.09.04.181.077.272.111.388.138.794.216 1.205.233 4.616.216 5.51-5.52 2.179-7.185a3.197 3.197 0 012.233.542 4.672 4.672 0 00-4.057-2.37c-.11 0-.218.01-.326.017a4.633 4.633 0 00-2.55.983c.142.119.301.279.637.61.628.619 2.24 1.26 2.244 1.335v.002z" fill="url(#e)"/><path d="M56.514 54.705c-.015.23-.83 1.025-1.114 1.025-2.633 0-3.06 1.593-3.06 1.593.116 1.341 1.05 2.447 2.18 3.03.052.026.105.05.157.074.09.04.181.077.272.111.388.138.794.216 1.205.233 4.616.216 5.51-5.52 2.179-7.185a3.197 3.197 0 012.233.542 4.672 4.672 0 00-4.057-2.37c-.11 0-.218.01-.326.017a4.633 4.633 0 00-2.55.983c.142.119.301.279.637.61.628.619 2.24 1.26 2.244 1.335v.002z" fill="url(#f)"/><path d="M53.202 52.452c.075.048.137.09.191.127a4.295 4.295 0 01-.026-2.264 6.858 6.858 0 00-2.229 1.723c.046-.001 1.389-.025 2.064.414z" fill="url(#g)"/><path d="M47.323 56.705c.715 4.222 4.542 7.447 8.886 7.57 4.021.113 6.59-2.221 7.65-4.497a8.386 8.386 0 00.289-6.25v-.01c0-.007-.002-.01 0-.009l.001.016c.329 2.145-.762 4.222-2.468 5.63l-.005.011c-3.324 2.707-6.504 1.633-7.146 1.195a4.686 4.686 0 01-.135-.067c-1.938-.926-2.738-2.69-2.566-4.206a2.378 2.378 0 01-2.194-1.38 3.493 3.493 0 013.405-.136 4.611 4.611 0 003.476.137c-.003-.076-1.615-.717-2.243-1.336-.336-.33-.495-.49-.637-.61a2.78 2.78 0 00-.238-.181 13.094 13.094 0 00-.192-.127c-.675-.44-2.018-.415-2.063-.414h-.004c-.367-.465-.341-1.999-.32-2.32a1.653 1.653 0 00-.31.165c-.323.231-.626.49-.905.775a8.08 8.08 0 00-.869 1.036v.002-.002a7.82 7.82 0 00-1.242 2.805c-.005.02-.334 1.457-.172 2.203h.002z" fill="url(#h)"/><path d="M59.763 53.05c.338.331.628.71.86 1.122.051.039.099.077.14.114 2.099 1.935.999 4.671.917 4.864 1.705-1.405 2.795-3.483 2.468-5.629-1.047-2.611-2.824-3.665-4.272-5.956a11.26 11.26 0 01-.218-.355 2.923 2.923 0 01-.102-.191 1.685 1.685 0 01-.144-.383.024.024 0 00-.015-.008.033.033 0 00-.018 0l-.004.003-.007.004c-.358.17-2.483 3.533.397 6.41l-.002.004z" fill="url(#i)"/><path d="M60.762 54.287a1.903 1.903 0 00-.139-.114l-.057-.042a3.197 3.197 0 00-2.233-.542c3.33 1.665 2.437 7.4-2.179 7.184a4.116 4.116 0 01-1.205-.232 4.828 4.828 0 01-.428-.186l.006.004c.644.44 3.823 1.513 7.147-1.194l.005-.012c.083-.194 1.183-2.93-.917-4.865v-.001z" fill="url(#j)"/><path d="M52.34 57.321s.427-1.593 3.06-1.593c.285 0 1.1-.794 1.114-1.025a4.612 4.612 0 01-3.476-.136 3.492 3.492 0 00-3.405.136 2.378 2.378 0 002.194 1.38c-.172 1.514.628 3.278 2.566 4.206.043.02.084.043.128.062-1.13-.584-2.065-1.688-2.181-3.03z" fill="url(#k)"/><path d="M65.068 53.042c-.403-.968-1.219-2.014-1.858-2.344a9.62 9.62 0 01.938 2.81l.002.015c-1.048-2.609-2.822-3.662-4.273-5.954a11.26 11.26 0 01-.218-.354 2.923 2.923 0 01-.102-.192 1.685 1.685 0 01-.144-.382.024.024 0 00-.015-.008.033.033 0 00-.017 0l-.005.002-.007.004.004-.006c-2.326 1.362-3.116 3.882-3.187 5.144.108-.007.215-.017.325-.017a4.674 4.674 0 012.348.638 4.673 4.673 0 011.71 1.732 3.197 3.197 0 00-2.234-.542c3.331 1.665 2.437 7.4-2.178 7.184a4.117 4.117 0 01-1.205-.232 4.828 4.828 0 01-.429-.186l.007.004a4.825 4.825 0 01-.135-.067c.043.02.084.043.128.063-1.13-.584-2.064-1.69-2.18-3.03 0 0 .427-1.593 3.06-1.593.285 0 1.099-.794 1.114-1.024-.004-.076-1.616-.717-2.244-1.336-.336-.33-.495-.49-.636-.61a2.765 2.765 0 00-.24-.181 4.293 4.293 0 01-.025-2.263c-.854.413-1.613 1-2.23 1.722h-.003c-.367-.465-.342-1.999-.32-2.32a1.653 1.653 0 00-.31.165c-.324.231-.627.49-.905.775a8.088 8.088 0 00-.866 1.039v.001-.001a7.821 7.821 0 00-1.242 2.805l-.012.06c-.018.082-.096.496-.107.585a10.79 10.79 0 00-.137 1.291v.048a9.26 9.26 0 0018.386 1.566l.042-.359a9.525 9.525 0 00-.6-4.652zm-.919.476l.002.01-.002-.01z" fill="url(#l)"/><defs><radialGradient id="b" cx="0" cy="0" r="1" gradientUnits="userSpaceOnUse" gradientTransform="translate(63.247 48.782) scale(19.3057)"><stop offset=".129" stop-color="#FFBD4F"/><stop offset=".186" stop-color="#FFAC31"/><stop offset=".247" stop-color="#FF9D17"/><stop offset=".283" stop-color="#FF980E"/><stop offset=".403" stop-color="#FF563B"/><stop offset=".467" stop-color="#FF3750"/><stop offset=".71" stop-color="#F5156C"/><stop offset=".782" stop-color="#EB0878"/><stop offset=".86" stop-color="#E50080"/></radialGradient><radialGradient id="c" cx="0" cy="0" r="1" gradientUnits="userSpaceOnUse" gradientTransform="translate(56.08 56.666) scale(19.3057)"><stop offset=".3" stop-color="#960E18"/><stop offset=".351" stop-color="#B11927" stop-opacity=".74"/><stop offset=".435" stop-color="#DB293D" stop-opacity=".343"/><stop offset=".497" stop-color="#F5334B" stop-opacity=".094"/><stop offset=".53" stop-color="#FF3750" stop-opacity="0"/></radialGradient><radialGradient id="d" cx="0" cy="0" r="1" gradientUnits="userSpaceOnUse" gradientTransform="translate(58.468 44.481) scale(13.9847)"><stop offset=".132" stop-color="#FFF44F"/><stop offset=".252" stop-color="#FFDC3E"/><stop offset=".506" stop-color="#FF9D12"/><stop offset=".526" stop-color="#FF980E"/></radialGradient><radialGradient id="e" cx="0" cy="0" r="1" gradientUnits="userSpaceOnUse" gradientTransform="translate(53.929 61.684) scale(9.19171)"><stop offset=".353" stop-color="#3A8EE6"/><stop offset=".472" stop-color="#5C79F0"/><stop offset=".669" stop-color="#9059FF"/><stop offset="1" stop-color="#C139E6"/></radialGradient><radialGradient id="f" cx="0" cy="0" r="1" gradientUnits="userSpaceOnUse" gradientTransform="matrix(4.73773 -1.14544 1.34103 5.5467 57.013 55.01)"><stop offset=".206" stop-color="#9059FF" stop-opacity="0"/><stop offset=".278" stop-color="#8C4FF3" stop-opacity=".064"/><stop offset=".747" stop-color="#7716A8" stop-opacity=".45"/><stop offset=".975" stop-color="#6E008B" stop-opacity=".6"/></radialGradient><radialGradient id="g" cx="0" cy="0" r="1" gradientUnits="userSpaceOnUse" gradientTransform="translate(55.84 48.065) scale(6.61363)"><stop stop-color="#FFE226"/><stop offset=".121" stop-color="#FFDB27"/><stop offset=".295" stop-color="#FFC82A"/><stop offset=".502" stop-color="#FFA930"/><stop offset=".732" stop-color="#FF7E37"/><stop offset=".792" stop-color="#FF7139"/></radialGradient><radialGradient id="h" cx="0" cy="0" r="1" gradientUnits="userSpaceOnUse" gradientTransform="translate(61.097 43.764) scale(28.2178)"><stop offset=".113" stop-color="#FFF44F"/><stop offset=".456" stop-color="#FF980E"/><stop offset=".622" stop-color="#FF5634"/><stop offset=".716" stop-color="#FF3647"/><stop offset=".904" stop-color="#E31587"/></radialGradient><radialGradient id="i" cx="0" cy="0" r="1" gradientUnits="userSpaceOnUse" gradientTransform="matrix(2.1701 20.56421 -13.49616 1.42422 58.751 45.329)"><stop stop-color="#FFF44F"/><stop offset=".06" stop-color="#FFE847"/><stop offset=".168" stop-color="#FFC830"/><stop offset=".304" stop-color="#FF980E"/><stop offset=".356" stop-color="#FF8B16"/><stop offset=".455" stop-color="#FF672A"/><stop offset=".57" stop-color="#FF3647"/><stop offset=".737" stop-color="#E31587"/></radialGradient><radialGradient id="j" cx="0" cy="0" r="1" gradientUnits="userSpaceOnUse" gradientTransform="translate(55.84 50.454) scale(17.614)"><stop offset=".137" stop-color="#FFF44F"/><stop offset=".48" stop-color="#FF980E"/><stop offset=".592" stop-color="#FF5634"/><stop offset=".655" stop-color="#FF3647"/><stop offset=".904" stop-color="#E31587"/></radialGradient><radialGradient id="k" cx="0" cy="0" r="1" gradientUnits="userSpaceOnUse" gradientTransform="translate(60.38 51.41) scale(19.2794)"><stop offset=".094" stop-color="#FFF44F"/><stop offset=".231" stop-color="#FFE141"/><stop offset=".509" stop-color="#FFAF1E"/><stop offset=".626" stop-color="#FF980E"/></radialGradient><linearGradient id="a" x1="63.842" y1="49.591" x2="48.468" y2="64.424" gradientUnits="userSpaceOnUse"><stop offset=".048" stop-color="#FFF44F"/><stop offset=".111" stop-color="#FFE847"/><stop offset=".225" stop-color="#FFC830"/><stop offset=".368" stop-color="#FF980E"/><stop offset=".401" stop-color="#FF8B16"/><stop offset=".462" stop-color="#FF672A"/><stop offset=".534" stop-color="#FF3647"/><stop offset=".705" stop-color="#E31587"/></linearGradient><linearGradient id="l" x1="63.656" y1="49.512" x2="50.577" y2="62.593" gradientUnits="userSpaceOnUse"><stop offset=".167" stop-color="#FFF44F" stop-opacity=".8"/><stop offset=".266" stop-color="#FFF44F" stop-opacity=".634"/><stop offset=".489" stop-color="#FFF44F" stop-opacity=".217"/><stop offset=".6" stop-color="#FFF44F" stop-opacity="0"/></linearGradient></defs></svg>