<svg xmlns="http://www.w3.org/2000/svg" width="16" height="16"><path fill="#0c0c0d" fill-opacity=".6" d="M10.992 1a4.009 4.009 0 00-4.009 4.008c0 .1.022.187.028.282-.059.05-.119.087-.178.143L5.667 6.6a.366.366 0 000 .467A1.878 1.878 0 006 7.5.353.353 0 016 8l-5 5v1.767a.229.229 0 00.233.233H3.77a.229.229 0 00.23-.233v-.778h.75a.227.227 0 00.233-.228v-.768H5.2s.28 0 .28-.235V12.5h.779s.233-.1.233-.244v-1.271h.855l1.12-1.118H8.7l.467.467c.233.233.233.233.365.233a.437.437 0 00.275-.127l.993-1.273c.034-.053.054-.107.084-.161.036 0 .07.011.107.011a4.008 4.008 0 100-8.017zM12.5 4.489a1 1 0 111-1 1 1 0 01-1 1z"/></svg>