<svg height="2.7in" viewBox="0 0 279.32 194.04" width="3.88in" xmlns="http://www.w3.org/2000/svg" xmlns:xlink="http://www.w3.org/1999/xlink"><style>@keyframes heart{0%{transform:scale(0);opacity:1}25%{transform:scale(1);opacity:1}30%{transform:scale(.95);opacity:1}to{transform:scale(2.2);opacity:0}}</style><radialGradient id="a" cx="144.26" cy="96.37" gradientUnits="userSpaceOnUse" r="89.85"><stop offset=".27" stop-color="#cdcdd4" stop-opacity="0"/><stop offset=".46" stop-color="#cdcdd4" stop-opacity=".02"/><stop offset=".66" stop-color="#cdcdd4" stop-opacity=".08"/><stop offset=".86" stop-color="#cdcdd4" stop-opacity=".18"/><stop offset=".9" stop-color="#cdcdd4" stop-opacity=".2"/></radialGradient><radialGradient id="b" cx="144.26" cy="95.54" r="70.54" xlink:href="#a"/><radialGradient id="c" cx="109.85" cy="142.75" gradientUnits="userSpaceOnUse" r="115.38"><stop offset=".26" stop-color="#cdcdd4" stop-opacity="0"/><stop offset=".4" stop-color="#cdcdd4" stop-opacity=".02"/><stop offset=".55" stop-color="#cdcdd4" stop-opacity=".08"/><stop offset=".69" stop-color="#cdcdd4" stop-opacity=".18"/><stop offset=".72" stop-color="#cdcdd4" stop-opacity=".2"/></radialGradient><radialGradient id="d" cx="102.24" cy="157.76" r="169.52" xlink:href="#a"/><linearGradient id="e" gradientUnits="userSpaceOnUse" x1="98.45" x2="163.35" y1="111.17" y2="46.26"><stop offset="0" stop-color="#c689ff"/><stop offset="1" stop-color="#d74cf0"/></linearGradient><linearGradient id="f"><stop offset=".22" stop-color="#b833e1"/><stop offset=".91" stop-color="#ff4f5e"/></linearGradient><linearGradient id="g" gradientUnits="userSpaceOnUse" x1="65.48" x2="175.65" xlink:href="#f" y1="150.71" y2="40.54"/><linearGradient id="h" gradientUnits="userSpaceOnUse" x1="108.53" x2="125.45" xlink:href="#f" y1="111.86" y2="111.86"/><linearGradient id="i" gradientUnits="userSpaceOnUse" x1="111.84" x2="242.68" y1="181.62" y2="50.79"><stop offset=".28" stop-color="#7542e5"/><stop offset=".42" stop-color="#824deb"/><stop offset=".79" stop-color="#a067fa"/><stop offset="1" stop-color="#ab71ff"/></linearGradient><path d="M226.49 29.27a51 51 0 00-72 0l-10.23 10.24L134 29.27a50.89 50.89 0 00-72 72l73.5 73.43a12.4 12.4 0 0017.51 0l73.48-73.46a51 51 0 000-71.97z" fill="url(#a)" opacity=".5"/><path d="M208.81 42.86a40.05 40.05 0 00-56.5 0l-8.05 8-8-8a40 40 0 00-56.5 56.5L137.38 157a9.72 9.72 0 0013.75 0l57.68-57.67a40 40 0 000-56.47z" fill="url(#b)" opacity=".6"/><path d="M93.35 76.81a10.7 10.7 0 01-10.65 10.7H39.88a8.18 8.18 0 010-16.35 7.85 7.85 0 012 .25 8.41 8.41 0 018.22-10.32 8.41 8.41 0 014.76 1.47 14.17 14.17 0 0127.84 3.56 10.69 10.69 0 0110.65 10.69z" fill="url(#c)"/><path d="M234.73 47.51a12 12 0 00-2.95.36 12.67 12.67 0 00-12.38-15.54 12.64 12.64 0 00-7.18 2.22 21.36 21.36 0 00-42 5.37 16 16 0 100 32.08h64.53a12.25 12.25 0 100-24.49z" fill="url(#d)"/><path d="M116.39 106.92h32.58v9.45h-32.58z" fill="#ffd5b2"/><path d="M91.81 52.89h78.18v51.64H91.81z" fill="url(#e)"/><path d="M178.49 109.74h-2.13V51.07a4.22 4.22 0 00-4.22-4.22h-82.4a4.22 4.22 0 00-4.22 4.22v58.67h-2.13a2.1 2.1 0 00-2.1 2.1v4.26a2.1 2.1 0 002.1 2.1h95.1a2.1 2.1 0 002.1-2.1v-4.26a2.1 2.1 0 00-2.1-2.1z" fill="url(#g)"/><path d="M122.48 109.74h16.91v4.23h-16.91z" fill="url(#h)"/><rect fill="url(#i)" height="68.49" rx="5.4" width="45.42" x="158.71" y="77.79"/><path d="M177.12 135.12h8.46v4.23h-8.46z" fill="#ab71ff"/><path d="M181.56 66.47a23.32 23.32 0 00-32.89 0L144 71.15l-4.68-4.68a23.25 23.25 0 00-32.88 32.88L140 132.92a5.66 5.66 0 008 0l33.57-33.57a23.29 23.29 0 00-.01-32.88z" fill="#ff848b" style="animation:heart 1.25s infinite;transform-origin:51% 50.5%;mix-blend-mode:hard-light"/></svg>