<svg height="92" width="357" xmlns="http://www.w3.org/2000/svg"><style>@keyframes bob{0%,to{transform:translate(0,-5px)}50%{transform:translate(0,0)}}</style><linearGradient id="a" x1="87.598%" x2="12.402%" y1="0%" y2="100%"><stop offset="0" stop-color="#ff7139"/><stop offset=".22" stop-color="#ff624a"/><stop offset=".66" stop-color="#ff3c75"/><stop offset="1" stop-color="#ff298a"/></linearGradient><g fill="none"><path d="M334.8 11.84l-2.54 5.1-5.6 1 3.98 4.26-.82 5.8 4.98-2.6 4.96 2.6-.8-5.8 3.98-4.26-5.6-1zM284.94 19.14c0 5.932 4.808 10.74 10.74 10.74s10.74-4.808 10.74-10.74V12h-21.48zm3.52-2.38a1.82 1.82 0 012.54 0l4.7 4.78 4.72-4.78a1.789 1.789 0 112.54 2.52l-6 6a1.82 1.82 0 01-1.28.54 1.74 1.74 0 01-1.26-.54l-6-6a1.8 1.8 0 01.04-2.52z" fill="#fff"/><path d="M10.18.66a10.18 10.18 0 00-10 8.12c-.14.66-.14 22.88 0 23.54.982 4.63 5.163 8.127 10 8.12h336.18c5.607-.011 10.149-4.553 10.16-10.16V10.82C356.509 5.213 351.967.671 346.36.66z" fill="#f0f0f4"/><path d="M268.26.78H224v39.5h44.22z" fill="#e0e0e6"/><g fill="#737373"><path d="M256.88 17.08a3.48 3.48 0 10-.04 6.96 3.48 3.48 0 00.04-6.96z"/><circle cx="246.5" cy="20.54" r="3.46"/><circle cx="236.1" cy="20.54" r="3.46"/></g><path d="M247.12 50a2.82 2.82 0 00-.44-.12l-.4-.14a6.54 6.54 0 00-.88 0 6.26 6.26 0 00-.88 0l-.42.14a3.6 3.6 0 00-.44.12 3.42 3.42 0 00-.46.26l-.32.16a3.74 3.74 0 00-.68.58l-13.58 13.56a4.525 4.525 0 106.4 6.4l5.86-5.86v21.84a4.52 4.52 0 009.04 0V65.06l5.84 5.86a4.525 4.525 0 106.4-6.4L248.6 50.96a3.86 3.86 0 00-.7-.58l-.3-.16z" fill="url(#a)" style="animation:bob .5s infinite"/><path d="M346.14 15.22L339.52 14l-3.12-6.28a1.8 1.8 0 00-3.2 0L330 14l-6.62 1.18a1.76 1.76 0 00-1.38 1.18 1.8 1.8 0 00.38 1.78l4.76 5.1-1 7.06a1.84 1.84 0 00.74 1.72c.306.21.669.322 1.04.32a1.72 1.72 0 00.82-.2l6-3.12 6 3.12a1.84 1.84 0 001.86-.12 1.8 1.8 0 00.72-1.72l-.98-7.06 4.74-5.1a1.76 1.76 0 00-.98-2.96zm-7.18 6.98l.8 5.8-4.96-2.6-4.98 2.6.82-5.8-4-4.26 5.6-1 2.54-5.1 2.54 5.1 5.6 1zM307.32 8.4H284a2.7 2.7 0 00-2.7 2.68v8c0 7.909 6.411 14.32 14.32 14.32s14.32-6.411 14.32-14.32v-8a2.68 2.68 0 00-2.62-2.68zm-.9 10.74c0 5.932-4.808 10.74-10.74 10.74s-10.74-4.808-10.74-10.74V12h21.48zm-18 .16a1.8 1.8 0 010-2.54 1.82 1.82 0 012.54 0l4.7 4.78 4.72-4.78a1.789 1.789 0 112.54 2.52l-6 6a1.82 1.82 0 01-1.28.54 1.74 1.74 0 01-1.26-.54z" fill="#737373"/></g></svg>