<svg height="110" width="375" xmlns="http://www.w3.org/2000/svg"><style>@keyframes bob{0%,to{transform:translate(0,-5px)}50%{transform:translate(0,0)}}</style><linearGradient id="a" x1="87.598%" x2="12.402%" y1="0%" y2="99.952%"><stop offset="0" stop-color="#ff7139"/><stop offset=".22" stop-color="#ff624a"/><stop offset=".66" stop-color="#ff3c75"/><stop offset="1" stop-color="#ff298a"/></linearGradient><mask id="b" fill="#fff"><path d="M12 6a3 3 0 110-6 3 3 0 010 6zM3 6a3 3 0 110-6 3 3 0 010 6zm18 0a3 3 0 110-6 3 3 0 010 6z" fill-rule="evenodd"/></mask><g fill="none"><path d="M0 0h375v56H0z" fill="#e0e0e6"/><path d="M14 8h347a4 4 0 014 4v32a4 4 0 01-4 4H14a4 4 0 01-4-4V12a4 4 0 014-4z" fill="#f0f0f4"/><path d="M0-9h24v24H0z" fill="#737373" mask="url(#b)" transform="translate(331 25)"/><path d="M344.826 68.275a2.82 2.82 0 00-.44-.12l-.4-.14a6.54 6.54 0 00-.88 0 6.26 6.26 0 00-.88 0l-.42.14a3.6 3.6 0 00-.44.12 3.42 3.42 0 00-.46.26l-.32.16a3.74 3.74 0 00-.68.58l-13.58 13.56a4.525 4.525 0 006.4 6.4l5.86-5.86v21.84a4.52 4.52 0 009.04 0v-21.88l5.84 5.86a4.525 4.525 0 106.4-6.4l-13.56-13.56a3.86 3.86 0 00-.7-.58l-.3-.16z" fill="url(#a)" style="animation:bob .5s infinite"/></g></svg>