<svg width="22" height="12" viewBox="0 0 22 12" fill="none" xmlns="http://www.w3.org/2000/svg">
<path d="M21.1406 4.51782H10.8047C10.1901 2.15145 8.05475 0.392822 5.5 0.392822C2.46675 0.392822 0 2.85957 0 5.89282C0 8.92607 2.46675 11.3928 5.5 11.3928C8.415 11.3928 10.7841 9.10757 10.9656 6.23657H17.7031V9.33032C17.7031 9.55824 17.7937 9.77683 17.9548 9.93799C18.116 10.0992 18.3346 10.1897 18.5625 10.1897C18.7904 10.1897 19.009 10.0992 19.1702 9.93799C19.3313 9.77683 19.4219 9.55824 19.4219 9.33032V6.23657H21.1406C21.3685 6.23657 21.5871 6.14603 21.7483 5.98487C21.9095 5.8237 22 5.60512 22 5.3772C22 5.14928 21.9095 4.93069 21.7483 4.76953C21.5871 4.60836 21.3685 4.51782 21.1406 4.51782ZM5.5 9.67407C3.41412 9.67407 1.71875 7.9787 1.71875 5.89282C1.71875 3.80695 3.41412 2.11157 5.5 2.11157C7.58588 2.11157 9.28125 3.80695 9.28125 5.89282C9.28125 7.9787 7.58588 9.67407 5.5 9.67407Z" fill="currentColor"/>
</svg>
