<svg data-name="Layer 1" xmlns="http://www.w3.org/2000/svg" viewBox="0 0 472.3 518.73" width="16" height="16"><defs><linearGradient id="a" x1="-440.87" y1="107.09" x2="-441.39" y2="107.9" gradientTransform="matrix(472.3 0 0 518.72 208577.5 -55475.87)" gradientUnits="userSpaceOnUse"><stop offset="0" stop-color="#ff980e"/><stop offset=".21" stop-color="#ff7139"/><stop offset=".36" stop-color="#ff5854"/><stop offset=".46" stop-color="#ff4f5e"/><stop offset=".69" stop-color="#ff3750"/><stop offset=".86" stop-color="#f92261"/><stop offset="1" stop-color="#f5156c"/></linearGradient><linearGradient id="b" x1="-440.8" y1="107.1" x2="-441.31" y2="107.91" gradientTransform="matrix(414.9 0 0 518.72 183205.83 -55475.87)" gradientUnits="userSpaceOnUse"><stop offset="0" stop-color="#fff44f" stop-opacity=".8"/><stop offset=".75" stop-color="#fff44f" stop-opacity="0"/></linearGradient><linearGradient id="c" x1="-440.75" y1="108.19" x2="-440.75" y2="106.96" gradientTransform="matrix(245.1 0 0 408.64 108382.31 -43667.05)" gradientUnits="userSpaceOnUse"><stop offset="0" stop-color="#3a8ee6"/><stop offset=".24" stop-color="#5c79f0"/><stop offset=".63" stop-color="#9059ff"/><stop offset="1" stop-color="#c139e6"/></linearGradient><linearGradient id="d" x1="-440.75" y1="107.96" x2="-440.75" y2="107.13" gradientTransform="matrix(245.1 0 0 408.64 108382.31 -43667.05)" gradientUnits="userSpaceOnUse"><stop offset="0" stop-color="#00458b" stop-opacity=".6"/><stop offset=".33" stop-color="#a050ff" stop-opacity="0"/></linearGradient><linearGradient id="e" x1="-441.32" y1="107.05" x2="-440.42" y2="107.59" gradientTransform="matrix(245.1 0 0 408.64 108382.31 -43667.05)" gradientUnits="userSpaceOnUse"><stop offset="0" stop-color="#6e008b" stop-opacity=".5"/><stop offset=".5" stop-color="#c846cb" stop-opacity="0"/></linearGradient><linearGradient id="f" x1="-439.19" y1="106.82" x2="-438.68" y2="107.35" gradientTransform="matrix(69.1 0 0 66.2 30645 -6692.09)" gradientUnits="userSpaceOnUse"><stop offset="0" stop-color="#960e18" stop-opacity=".6"/><stop offset=".17" stop-color="#a91522" stop-opacity=".47"/><stop offset=".51" stop-color="#d9283c" stop-opacity=".19"/><stop offset=".75" stop-color="#ff3750" stop-opacity="0"/></linearGradient></defs><g data-name="Artboard"><path data-name="Shape" d="M476.2 370.7V169.3a63.13 63.13 0 00-31.4-54.2L393 85.2l51.8 29.9a62.92 62.92 0 0131.4 54.2v201.4zm-8.4 30.3a61.38 61.38 0 01-22.9 22.9l-81.2 46.9c-.2.1-.5.2-.7.3a24.08 24.08 0 01-3.3 1.5c-.3.1-.7.3-1.1.4a23.25 23.25 0 01-4.4 1 4.1 4.1 0 01-1.1.1 19.42 19.42 0 01-2.4.2c-.4 0-.8-.1-1.2-.1s-.8-.1-1.2-.1a20.48 20.48 0 01-4.2-.7 2.35 2.35 0 01-.8-.2 20.94 20.94 0 01-3.5-1.3c-.3-.1-.6-.3-.9-.4a28.46 28.46 0 01-3.7-2.3c-.3-.2-.5-.4-.8-.6a24.43 24.43 0 01-2.9-2.7c-.2-.2-.4-.3-.5-.5a31.55 31.55 0 01-2.2-2.9L285.7 397a133.49 133.49 0 01-45.7 8c-74.7 0-135.4-60.8-135.4-135.5S165.4 134 240.1 134s135.5 60.8 135.5 135.5a135.16 135.16 0 01-45 100.7l28.4 43.1 56.2-32.5a19.35 19.35 0 003.6-2.8 17.57 17.57 0 01-3.7 2.9l-56.2 32.5 8.8 14.1a36.57 36.57 0 0049.4 12.4l27.8-16a62.86 62.86 0 0022.9-22.9zM232.9 61.2a14 14 0 00-1.7.9l-136.8 79-29.4 17a17.93 17.93 0 00-8.9 15.5v191.8a17.93 17.93 0 008.9 15.5l166.1 95.9a26.05 26.05 0 01-13.1 48.6 25.66 25.66 0 01-13-3.5l-169.8-98a62.82 62.82 0 01-31.3-54.2V169.3a62.7 62.7 0 0131.3-54.2l3.7-2.1 166.2-95.9 3.7-2.1a62.81 62.81 0 0162.5 0l3.7 2.1 52.8 30.4q-3.45-2.1-6.9-3.9a54.92 54.92 0 00-53.7-.8zm-76.3 208.3a83.4 83.4 0 1083.4-83.4 83.48 83.48 0 00-83.4 83.4z" transform="translate(-3.9 -6.68)" fill="url(#a)"/><path d="M412.9 442.4l-49.2 28.4c-.2.1-.5.2-.7.3a24.08 24.08 0 01-3.3 1.5c-.3.1-.7.3-1.1.4a23.25 23.25 0 01-4.4 1 4.1 4.1 0 01-1.1.1 19.42 19.42 0 01-2.4.2c-.4 0-.8-.1-1.2-.1s-.8-.1-1.2-.1a20.48 20.48 0 01-4.2-.7 2.35 2.35 0 01-.8-.2 20.94 20.94 0 01-3.5-1.3c-.3-.1-.6-.3-.9-.4a28.46 28.46 0 01-3.7-2.3c-.3-.2-.5-.4-.8-.6a24.43 24.43 0 01-2.9-2.7c-.2-.2-.4-.3-.5-.5a31.55 31.55 0 01-2.2-2.9L285.7 397a133.49 133.49 0 01-45.7 8c-74.7 0-135.4-60.8-135.4-135.5S165.4 134 240.1 134s135.5 60.8 135.5 135.5a135.16 135.16 0 01-45 100.7l28.4 43.1 56.2-32.5a19.35 19.35 0 003.6-2.8 17.57 17.57 0 01-3.7 2.9l-56.2 32.5 8.8 14.1c9.4 15.2 28.9 21.1 45.2 14.9zm-180-381.2a14 14 0 00-1.7.9l-136.8 79-29.4 17a17.93 17.93 0 00-8.9 15.5v191.8a17.93 17.93 0 008.9 15.5l166.1 95.9a26.05 26.05 0 01-13.1 48.6 25.66 25.66 0 01-13-3.5l-169.8-98a62.82 62.82 0 01-31.3-54.2V169.3a62.7 62.7 0 0131.3-54.2l3.7-2.1 166.2-95.9 3.7-2.1a62.81 62.81 0 0162.5 0l3.7 2.1 40.3 23.3a57 57 0 00-48.1 2.4zm-76.3 208.3a83.4 83.4 0 1083.4-83.4 83.48 83.48 0 00-83.4 83.4z" transform="translate(-3.9 -6.68)" fill="url(#b)"/><path data-name="Path" d="M444.8 115.1L393 85.2s-42.9-24.8-72.1-41.6a54.92 54.92 0 00-53.7-.8l-36.1 19.4a18 18 0 0117.8 0l166.2 95.9a17.93 17.93 0 018.9 15.5v191.8a17.93 17.93 0 01-8.9 15.5l-56.2 32.5 8.8 14.1a36.57 36.57 0 0049.4 12.4l27.8-16a62.7 62.7 0 0031.3-54.2V169.3a62.92 62.92 0 00-31.4-54.2z" transform="translate(-3.9 -6.68)" fill-rule="evenodd" fill="url(#c)"/><path d="M444.8 115.1L393 85.2s-42.9-24.8-72.1-41.6a54.92 54.92 0 00-53.7-.8l-36.1 19.4a18 18 0 0117.8 0l166.2 95.9a17.93 17.93 0 018.9 15.5v191.8a17.93 17.93 0 01-8.9 15.5l-56.2 32.5 8.8 14.1a36.57 36.57 0 0049.4 12.4l27.8-16a62.7 62.7 0 0031.3-54.2V169.3a62.92 62.92 0 00-31.4-54.2z" transform="translate(-3.9 -6.68)" fill-rule="evenodd" fill="url(#d)"/><path d="M444.8 115.1L393 85.2s-42.9-24.8-72.1-41.6a54.92 54.92 0 00-53.7-.8l-36.1 19.4a18 18 0 0117.8 0l166.2 95.9a17.93 17.93 0 018.9 15.5v191.8a17.93 17.93 0 01-8.9 15.5l-56.2 32.5 8.8 14.1a36.57 36.57 0 0049.4 12.4l27.8-16a62.7 62.7 0 0031.3-54.2V169.3a62.92 62.92 0 00-31.4-54.2z" transform="translate(-3.9 -6.68)" fill-rule="evenodd" fill="url(#e)"/><path d="M319.5 262.82a83.4 83.4 0 10-83.4 83.4 83.48 83.48 0 0083.4-83.4z" fill="none"/><path d="M354.9 407.3l-24.4-37a136.28 136.28 0 01-44.7 26.8l25.9 39.4q21.9-14.25 43.2-29.2z" transform="translate(-3.9 -6.68)" fill-rule="evenodd" opacity=".9" fill="url(#f)" style="isolation:isolate"/></g></svg>