<svg width="16" height="16" fill="none" xmlns="http://www.w3.org/2000/svg"><path fill-rule="evenodd" clip-rule="evenodd" d="M8 1.8a1.2 1.2 0 100 2.4 1.2 1.2 0 000-2.4zM5.2 3a2.8 2.8 0 111.468 2.463L5.463 6.668c.091.168.166.346.221.532h4.632a2.801 2.801 0 111.352 3.263l-1.205 1.205A2.788 2.788 0 0110.8 13a2.8 2.8 0 11-1.468-2.463l1.205-1.205a2.782 2.782 0 01-.221-.532H5.684a2.801 2.801 0 11-1.352-3.263l1.205-1.205A2.788 2.788 0 015.2 3zm1.6 10a1.2 1.2 0 112.4 0 1.2 1.2 0 01-2.4 0zM3 6.8a1.2 1.2 0 100 2.4 1.2 1.2 0 000-2.4zM11.8 8a1.2 1.2 0 112.4 0 1.2 1.2 0 01-2.4 0z" fill="#20123a"/></svg>