<svg width="20" height="20" viewBox="0 0 20 20" fill="none" xmlns="http://www.w3.org/2000/svg">
  <path d="M10.7292 13.0208H9.27088V14.4791H10.7292V13.0208Z" fill="#A7341F"/>
  <path fill-rule="evenodd" clip-rule="evenodd" d="M9.27088 11.6666V7.49994H10.7292V11.6666H9.27088Z" fill="#A7341F"/>
  <path d="M9.96338 4.09993C10.1009 4.09993 10.3542 4.1416 10.5092 4.42077L16.3759 14.9708C16.5267 15.2424 16.4359 15.4766 16.3684 15.5916C16.3009 15.7066 16.1409 15.8999 15.83 15.8999H4.17005C3.86005 15.8999 3.70005 15.7074 3.63255 15.5933C3.56505 15.4791 3.47338 15.2458 3.62255 14.9741L9.41588 4.4241C9.57088 4.14243 9.82505 4.09993 9.96338 4.09993ZM9.96338 2.6416C9.24755 2.6416 8.53255 3.00243 8.13755 3.72243L2.34421 14.2724C1.58171 15.6608 2.58588 17.3583 4.17005 17.3583H15.8309C17.42 17.3583 18.4242 15.6508 17.6517 14.2624L11.785 3.71243C11.3867 2.99827 10.675 2.6416 9.96338 2.6416Z" fill="#A7341F"/>
</svg>
