<svg width="24" height="24" viewBox="0 0 24 24" fill="none" xmlns="http://www.w3.org/2000/svg">
  <path d="M12.8753 15.6249H11.1253V17.3749H12.8753V15.6249Z" fill="black"/>
  <path fill-rule="evenodd" clip-rule="evenodd" d="M11.1253 13.9999V8.99992H12.8753V13.9999H11.1253Z" fill="black"/>
  <path d="M11.9563 4.91992C12.1213 4.91992 12.4253 4.96992 12.6113 5.30492L19.6513 17.9649C19.8323 18.2909 19.7233 18.5719 19.6423 18.7099C19.5613 18.8479 19.3693 19.0799 18.9963 19.0799H5.0043C4.6323 19.0799 4.4403 18.8489 4.3593 18.7119C4.2783 18.5749 4.1683 18.2949 4.3473 17.9689L11.2993 5.30892C11.4853 4.97092 11.7903 4.91992 11.9563 4.91992ZM11.9563 3.16992C11.0973 3.16992 10.2393 3.60292 9.7653 4.46692L2.8133 17.1269C1.8983 18.7929 3.1033 20.8299 5.0043 20.8299H18.9973C20.9043 20.8299 22.1093 18.7809 21.1823 17.1149L14.1423 4.45492C13.6643 3.59792 12.8103 3.16992 11.9563 3.16992Z" fill="black"/>
</svg>
