<svg width="16" height="16" viewBox="0 0 16 16" fill="none" xmlns="http://www.w3.org/2000/svg">
<path d="M8 0.5C7.01509 0.5 6.03982 0.693993 5.12987 1.0709C4.21993 1.44781 3.39314 2.00026 2.6967 2.6967C2.00026 3.39314 1.44781 4.21993 1.0709 5.12987C0.693993 6.03982 0.5 7.01509 0.5 8C0.5 8.98491 0.693993 9.96018 1.0709 10.8701C1.44781 11.7801 2.00026 12.6069 2.6967 13.3033C3.39314 13.9997 4.21993 14.5522 5.12987 14.9291C6.03982 15.306 7.01509 15.5 8 15.5C9.98912 15.5 11.8968 14.7098 13.3033 13.3033C14.7098 11.8968 15.5 9.98912 15.5 8C15.5 6.01088 14.7098 4.10322 13.3033 2.6967C11.8968 1.29018 9.98912 0.5 8 0.5ZM6.825 11L4.183 8.357C4.06591 8.23964 4.00023 8.08057 4.00042 7.91479C4.00061 7.74901 4.06664 7.59009 4.184 7.473C4.30136 7.35591 4.46042 7.29023 4.62621 7.29042C4.79199 7.29061 4.95091 7.35664 5.068 7.474L7.139 9.546L10.933 5.751C11.0514 5.63862 11.2089 5.57691 11.3721 5.57903C11.5353 5.58115 11.6913 5.64692 11.8067 5.76233C11.9221 5.87774 11.9879 6.03366 11.99 6.19686C11.9921 6.36006 11.9304 6.51764 11.818 6.636L7.453 11H6.825Z" fill="#00736C"/>
</svg>
