<svg width="249" height="162" viewBox="0 0 249 162" fill="none" xmlns="http://www.w3.org/2000/svg">
<g filter="url(#filter0_d_439_7223)">
<path d="M141.503 63.3269C141.319 63.3269 141.138 63.3364 140.956 63.3407C140.956 63.3361 140.956 63.3315 140.956 63.3269C140.956 47.1301 127.855 34 111.693 34C98.5692 34 87.4634 42.6587 83.7523 54.5866C80.9509 53.108 77.7621 52.267 74.3759 52.267C63.2447 52.267 54.2211 61.3104 54.2211 72.466C54.2211 74.2832 54.4645 76.0429 54.9136 77.7181C52.8917 76.818 50.6589 76.3077 48.3039 76.3077C39.2958 76.3077 31.9934 83.6261 31.9934 92.6538C31.9934 101.682 39.2958 109 48.3039 109H141.503C154.088 109 164.29 98.7758 164.29 86.1634C164.29 73.5511 154.088 63.3269 141.503 63.3269Z" fill="white"/>
</g>
<g filter="url(#filter1_d_439_7223)">
<path d="M123.967 86.0256C124.123 86.0256 124.277 86.0338 124.432 86.0374C124.432 86.0335 124.432 86.0296 124.432 86.0256C124.432 72.2044 135.563 61 149.294 61C160.445 61 169.881 68.3887 173.034 78.5672C175.414 77.3055 178.123 76.5879 181 76.5879C190.457 76.5879 198.124 84.3049 198.124 93.8243C198.124 95.375 197.917 96.8766 197.536 98.3061C199.254 97.5381 201.151 97.1025 203.151 97.1025C210.805 97.1025 217.009 103.348 217.009 111.051C217.009 118.755 210.805 125 203.151 125H123.967C113.275 125 104.607 116.275 104.607 105.513C104.607 94.7502 113.275 86.0256 123.967 86.0256Z" fill="white"/>
</g>
<ellipse cx="125.762" cy="117" rx="44.7619" ry="45" fill="#1CC5A0"/>
<circle cx="126" cy="117" r="39" fill="white"/>
<rect x="105.293" y="116.752" width="7.19142" height="22.4648" rx="2.5" transform="rotate(-45 105.293 116.752)" fill="#1CC5A0" stroke="#1CC5A0"/>
<rect x="142.347" y="101.362" width="7.19142" height="36.7333" rx="2.5" transform="rotate(45 142.347 101.362)" fill="#1CC5A0" stroke="#1CC5A0"/>
<path fill-rule="evenodd" clip-rule="evenodd" d="M174.55 80.9444C174.553 80.8348 174.517 80.7278 174.448 80.6425C174.379 80.5572 174.282 80.4991 174.174 80.4785C173.256 80.3123 170.719 79.7128 169.853 78.86C168.987 78.0071 168.401 75.4704 168.24 74.5385C168.22 74.4308 168.163 74.3337 168.078 74.2647C167.993 74.1957 167.886 74.1595 167.777 74.1625V80.9444H174.55Z" fill="#DABDFF"/>
<path fill-rule="evenodd" clip-rule="evenodd" d="M167.807 74.1624C167.697 74.1628 167.59 74.2022 167.507 74.2735C167.423 74.3448 167.367 74.4435 167.349 74.552C167.194 75.4648 166.624 77.9606 165.766 78.8843C164.908 79.808 162.357 80.3448 161.379 80.5192C161.271 80.5402 161.174 80.5984 161.105 80.6835C161.036 80.7687 160.999 80.8754 161 80.9851H167.812L167.807 74.1624Z" fill="#00B3F4"/>
<path fill-rule="evenodd" clip-rule="evenodd" d="M167.771 80.9445V87.7263C167.881 87.7231 167.987 87.6828 168.071 87.6121C168.155 87.5414 168.212 87.4443 168.234 87.3367C168.401 86.4076 169 83.8327 169.853 82.9771C170.706 82.1215 173.245 81.5575 174.163 81.4022C174.271 81.3848 174.369 81.3298 174.44 81.247C174.511 81.1642 174.55 81.0589 174.55 80.9499L167.771 80.9445Z" fill="#00B3F4"/>
<path fill-rule="evenodd" clip-rule="evenodd" d="M161 80.9445C160.996 81.0554 161.034 81.1639 161.106 81.2482C161.178 81.3325 161.28 81.3865 161.39 81.3995C162.316 81.5575 164.899 82.1243 165.766 82.9826C166.632 83.8409 167.194 86.3885 167.349 87.3585C167.365 87.469 167.419 87.5703 167.503 87.6438C167.587 87.7173 167.695 87.7582 167.807 87.759V80.9472L161 80.9445Z" fill="#007BED"/>
<path fill-rule="evenodd" clip-rule="evenodd" d="M196.918 70.8797C196.921 70.6909 196.858 70.507 196.74 70.3597C196.622 70.2124 196.456 70.1111 196.271 70.0732C194.685 69.7723 190.307 68.7552 188.811 67.2838C187.316 65.8124 186.305 61.4341 186.019 59.8243C185.984 59.6385 185.884 59.4713 185.736 59.3527C185.589 59.2341 185.404 59.1719 185.215 59.1773V70.8797H196.918Z" fill="#DABDFF"/>
<path fill-rule="evenodd" clip-rule="evenodd" d="M185.279 59.177C185.089 59.1769 184.906 59.2444 184.762 59.3674C184.618 59.4905 184.523 59.6609 184.493 59.848C184.222 61.4248 183.241 65.7308 181.758 67.3256C180.274 68.9204 175.887 69.8442 174.19 70.1301C174.003 70.1655 173.835 70.2659 173.715 70.4135C173.595 70.5611 173.531 70.7463 173.534 70.9365H185.269L185.279 59.177Z" fill="#00B3F4"/>
<path fill-rule="evenodd" clip-rule="evenodd" d="M185.215 70.8794V82.5817C185.404 82.5761 185.586 82.5067 185.731 82.3849C185.875 82.2631 185.975 82.096 186.013 81.9107C186.299 80.3069 187.334 75.8654 188.805 74.388C190.277 72.9105 194.658 71.9386 196.247 71.6798C196.432 71.6481 196.6 71.5523 196.721 71.4093C196.843 71.2663 196.91 71.0851 196.912 70.8975L185.215 70.8794Z" fill="#00B3F4"/>
<path fill-rule="evenodd" clip-rule="evenodd" d="M173.534 70.8794C173.529 71.071 173.595 71.2577 173.719 71.4033C173.844 71.549 174.018 71.6432 174.208 71.6678C175.803 71.9386 180.262 72.9135 181.758 74.397C183.253 75.8805 184.222 80.2738 184.493 81.9498C184.519 82.14 184.613 82.3143 184.757 82.4409C184.902 82.5675 185.087 82.6378 185.279 82.6389V70.8794H173.534Z" fill="#007BED"/>
<path fill-rule="evenodd" clip-rule="evenodd" d="M175.649 58.4659C175.65 58.3942 175.626 58.3243 175.581 58.2682C175.537 58.212 175.474 58.1731 175.404 58.158C174.796 58.049 173.126 57.6567 172.556 57.0926C171.987 56.5286 171.6 54.8611 171.488 54.2453C171.475 54.1753 171.437 54.1124 171.382 54.0675C171.326 54.0227 171.257 53.9988 171.186 54V58.4659H175.649Z" fill="#DABDFF"/>
<path fill-rule="evenodd" clip-rule="evenodd" d="M171.207 54.0026C171.135 54.0028 171.065 54.0286 171.01 54.0755C170.954 54.1223 170.917 54.1872 170.905 54.2587C170.804 54.8609 170.428 56.5039 169.864 57.1115C169.3 57.7191 167.619 58.0733 166.973 58.185C166.902 58.1985 166.838 58.2364 166.793 58.2921C166.747 58.3479 166.722 58.418 166.723 58.4902H171.207V54.0026Z" fill="#00B3F4"/>
<path fill-rule="evenodd" clip-rule="evenodd" d="M171.186 58.4659V62.9345C171.258 62.9317 171.326 62.905 171.381 62.8586C171.436 62.8122 171.474 62.7487 171.488 62.6784C171.6 62.0653 171.992 60.3705 172.556 59.8011C173.12 59.2316 174.791 58.8665 175.396 58.7657C175.467 58.754 175.531 58.7174 175.577 58.6625C175.624 58.6076 175.649 58.5379 175.649 58.4659H171.186Z" fill="#00B3F4"/>
<path fill-rule="evenodd" clip-rule="evenodd" d="M166.723 58.4659C166.721 58.5395 166.746 58.6111 166.794 58.667C166.842 58.7228 166.909 58.759 166.981 58.7684C167.589 58.8692 169.292 59.2425 169.864 59.8092C170.436 60.376 170.804 62.0544 170.905 62.692C170.914 62.7665 170.949 62.8352 171.005 62.8854C171.061 62.9355 171.133 62.9637 171.208 62.9645V58.4659H166.723Z" fill="#007BED"/>
<defs>
<filter id="filter0_d_439_7223" x="-0.0065918" y="0" width="196.296" height="139" filterUnits="userSpaceOnUse" color-interpolation-filters="sRGB">
<feFlood flood-opacity="0" result="BackgroundImageFix"/>
<feColorMatrix in="SourceAlpha" type="matrix" values="0 0 0 0 0 0 0 0 0 0 0 0 0 0 0 0 0 0 127 0" result="hardAlpha"/>
<feOffset dy="-2"/>
<feGaussianBlur stdDeviation="16"/>
<feComposite in2="hardAlpha" operator="out"/>
<feColorMatrix type="matrix" values="0 0 0 0 0 0 0 0 0 0.564706 0 0 0 0 0.929412 0 0 0 0.12 0"/>
<feBlend mode="normal" in2="BackgroundImageFix" result="effect1_dropShadow_439_7223"/>
<feBlend mode="normal" in="SourceGraphic" in2="effect1_dropShadow_439_7223" result="shape"/>
</filter>
<filter id="filter1_d_439_7223" x="72.6072" y="27" width="176.402" height="128" filterUnits="userSpaceOnUse" color-interpolation-filters="sRGB">
<feFlood flood-opacity="0" result="BackgroundImageFix"/>
<feColorMatrix in="SourceAlpha" type="matrix" values="0 0 0 0 0 0 0 0 0 0 0 0 0 0 0 0 0 0 127 0" result="hardAlpha"/>
<feOffset dy="-2"/>
<feGaussianBlur stdDeviation="16"/>
<feComposite in2="hardAlpha" operator="out"/>
<feColorMatrix type="matrix" values="0 0 0 0 0 0 0 0 0 0.564706 0 0 0 0 0.929412 0 0 0 0.12 0"/>
<feBlend mode="normal" in2="BackgroundImageFix" result="effect1_dropShadow_439_7223"/>
<feBlend mode="normal" in="SourceGraphic" in2="effect1_dropShadow_439_7223" result="shape"/>
</filter>
</defs>
</svg>
