<svg width="171" height="116" viewBox="0 0 171 116" fill="none" xmlns="http://www.w3.org/2000/svg">
<g clip-path="url(#clip0_5905_95019)">
<path d="M0 51.76H59.34C59.34 51.76 59.34 43.89 52.89 42.99C46.57 42.6 44.38 45.57 44.38 45.57C44.38 45.57 41.74 33.44 29.67 33.44C24.9 33.42 18.06 34.21 12.9 42.6C2.06 40.41 0 51.76 0 51.76Z" fill="#D5BEFB"/>
<path d="M85.4896 115.15C113.319 115.15 135.88 92.5896 135.88 64.76C135.88 36.9304 113.319 14.37 85.4896 14.37C57.66 14.37 35.0996 36.9304 35.0996 64.76C35.0996 92.5896 57.66 115.15 85.4896 115.15Z" fill="#F5F4F6"/>
<path d="M85.5398 81.03C84.8398 80.99 83.1398 81.27 81.5298 79.08C81.5298 79.08 60.0898 44.32 60.0898 25.51C60.0898 11.42 71.5098 0 85.5898 0L85.5398 81.02V81.03Z" fill="#A081F2"/>
<path d="M85.4504 81.02C87.4404 81.11 88.9304 79.86 89.6104 78.83C89.6104 78.83 110.9 44.31 110.9 25.5C110.9 11.42 99.4804 0 85.4004 0L85.4504 81.02Z" fill="#6F45DC"/>
<path d="M85.3896 40.54C91.647 40.54 96.7196 35.4674 96.7196 29.21C96.7196 22.9526 91.647 17.88 85.3896 17.88C79.1322 17.88 74.0596 22.9526 74.0596 29.21C74.0596 35.4674 79.1322 40.54 85.3896 40.54Z" fill="white"/>
<path d="M110.9 70.07H170.24C170.24 70.07 170.24 62.2 163.79 61.3C157.47 60.91 155.28 63.88 155.28 63.88C155.28 63.88 152.64 51.75 140.57 51.75C135.8 51.73 128.96 52.52 123.8 60.91C112.96 58.72 110.9 70.07 110.9 70.07Z" fill="#D5BFFB"/>
</g>
<defs>
<clipPath id="clip0_5905_95019">
<rect width="170.24" height="115.14" fill="white"/>
</clipPath>
</defs>
</svg>
