<svg width="22" height="22" viewBox="0 0 22 22" fill="none" xmlns="http://www.w3.org/2000/svg">
<path d="M12.3309 1.83301H5.49992V3.43717H11.9977L18.0738 9.53889L19.2105 8.40696L12.8993 2.06913C12.7488 1.91798 12.5442 1.83301 12.3309 1.83301Z" fill="#592ACB"/>
<path d="M8.18808 11.3467L9.48443 10.0503L8.18808 8.75398L6.89173 10.0503L8.18808 11.3467Z" fill="#592ACB"/>
<path fill-rule="evenodd" clip-rule="evenodd" d="M3.20825 5.84342C3.20825 5.40045 3.56736 5.04134 4.01034 5.04134H10.6699C10.8826 5.04134 11.0867 5.12585 11.2371 5.27627L17.4108 11.45C18.3061 12.3453 18.3061 13.7955 17.4108 14.6908L12.6304 19.4713C11.7351 20.3666 10.2849 20.3666 9.38959 19.4713L3.44318 13.5248C3.29276 13.3744 3.20825 13.1704 3.20825 12.9577V5.84342ZM4.81242 6.64551V12.6254L10.5239 18.3369C10.7928 18.6058 11.2272 18.6058 11.4961 18.3369L16.2765 13.5565C16.5454 13.2877 16.5454 12.8532 16.2765 12.5843L10.3377 6.64551H4.81242Z" fill="#592ACB"/>
</svg>
