<svg width="18" height="23" viewBox="0 0 18 23" fill="none" xmlns="http://www.w3.org/2000/svg">
<path d="M9.79 21L0 11.21V13.21C0 13.74 0.21 14.25 0.59 14.62L8.38 22.41C9.16 23.19 10.43 23.19 11.21 22.41L17.42 16.2C18.2 15.42 18.2 14.15 17.42 13.37L9.79 21Z" fill="#E22850"/>
<path d="M8.38 17.41C9.16 18.19 10.43 18.19 11.21 17.41L17.42 11.2C18.2 10.42 18.2 9.15 17.42 8.37L9.63 0.58C9.25 0.21 8.74 0 8.21 0H2C0.9 0 0 0.9 0 2V8.21C0 8.74 0.21 9.25 0.59 9.62L8.38 17.41ZM4.25 3C4.94 3 5.5 3.56 5.5 4.25C5.5 4.94 4.94 5.5 4.25 5.5C3.56 5.5 3 4.94 3 4.25C3 3.56 3.56 3 4.25 3Z" fill="#E22850"/>
</svg>
