<svg width="30" height="30" viewBox="0 0 30 30" fill="none" xmlns="http://www.w3.org/2000/svg">
<path fill-rule="evenodd" clip-rule="evenodd" d="M15 23.75C19.9846 23.75 24.0257 19.8325 24.0257 15C24.0257 10.1675 19.9846 6.25 15 6.25C10.0153 6.25 5.97424 10.1675 5.97424 15C5.97424 19.8325 10.0153 23.75 15 23.75ZM15 26.25C21.409 26.25 26.6045 21.2132 26.6045 15C26.6045 8.7868 21.409 3.75 15 3.75C8.59098 3.75 3.39546 8.7868 3.39546 15C3.39546 21.2132 8.59098 26.25 15 26.25ZM15 13.75C14.658 13.75 14.33 13.8817 14.0882 14.1161C13.8464 14.3505 13.7106 14.6685 13.7106 15V18.75C13.7106 19.0815 13.8464 19.3995 14.0882 19.6339C14.33 19.8683 14.658 20 15 20C15.3419 20 15.6699 19.8683 15.9117 19.6339C16.1535 19.3995 16.2894 19.0815 16.2894 18.75V15C16.2894 14.6685 16.1535 14.3505 15.9117 14.1161C15.6699 13.8817 15.3419 13.75 15 13.75ZM16.5311 11.25C16.5311 12.0702 15.8453 12.735 14.9994 12.735C14.1534 12.735 13.4676 12.0702 13.4676 11.25C13.4676 10.4299 14.1534 9.76501 14.9994 9.76501C15.8453 9.76501 16.5311 10.4299 16.5311 11.25Z" fill="#000000"/>
</svg>
