<svg width="16" height="16" viewBox="0 0 16 16" fill="none" xmlns="http://www.w3.org/2000/svg">
  <path d="M3.66667 2.66663C2.7465 2.66663 2 3.41313 2 4.33329V12.3333C2 13.2535 2.7465 14 3.66667 14H11.6667C12.5868 14 13.3333 13.2535 13.3333 12.3333V7.99996H12.1667V12.3333C12.1667 12.6091 11.9425 12.8333 11.6667 12.8333H3.66667C3.39083 12.8333 3.16667 12.6091 3.16667 12.3333V4.33329C3.16667 4.05746 3.39083 3.83329 3.66667 3.83329H8V2.66663H3.66667Z" fill="#0060DF"/>
  <path d="M9.85866 2.66663H12.8333C13.1093 2.66663 13.3333 2.89063 13.3333 3.16663V6.19396C13.3333 6.64129 12.7907 6.86396 12.4767 6.54463L11.3881 5.43679L8.15845 8.66643L7.3335 7.84147L10.5704 4.60459L9.50199 3.51729C9.19132 3.20063 9.41532 2.66663 9.85866 2.66663Z" fill="#0060DF"/>
</svg>
