<svg width="383" height="301" viewBox="0 0 383 301" fill="none" xmlns="http://www.w3.org/2000/svg">
<path d="M143.932 175.543C139.749 175.48 136.678 175.459 131.606 175.205L125.813 174.887C118.951 174.442 112.544 173.733 108.922 172.589C98.3637 169.253 84.9991 143.191 92.3274 134.719C92.6663 134.327 93.0369 133.957 93.4605 133.649C96.3834 131.531 98.4166 130.261 100.111 129.276C90.6542 127.423 83.1883 119.777 82.1822 118.718C78.6134 119.237 74.5256 119.332 70.1837 118.951C56.5544 117.765 53.1233 117.246 40.966 117.246C23.6619 117.246 16.4502 124.214 4.85415 132.643C5.41542 132.643 5.60602 132.749 4.99181 133.268C3.97517 134.126 0.088659 138.267 2.22784 141.052C3.79515 143.085 8.12645 139.04 8.82539 141.507C9.27017 143.075 4.18697 144.896 6.56972 147.66C9.78907 151.409 17.435 147.088 19.6907 157.403C21.6181 166.214 19.2777 166.796 23.6408 190.613C24.9963 198.005 26.9131 204.624 29.137 210.522C34.9932 226.089 42.9569 236.648 48.2625 243.235C49.9887 245.374 51.4395 247.1 52.435 248.434C52.4667 248.477 54.9765 251.124 54.8812 251.167L108.869 258.95C122.932 258.95 139.654 259.077 147.469 259.13L143.922 175.543H143.932Z" fill="url(#paint0_linear_24_1673)"/>
<path d="M45.4351 256.123C45.5198 250.118 51.4396 249.017 52.3186 248.562C52.4139 248.519 52.4669 248.477 52.4351 248.435C51.4291 247.1 49.9888 245.374 48.2627 243.235C43.7725 243.362 38.5093 243.574 35.7665 243.902C26.8179 244.961 20.4639 256.155 37.5244 256.134C39.4306 256.134 41.8239 256.134 45.4351 256.134V256.123Z" fill="url(#paint1_linear_24_1673)"/>
<path d="M45.4351 256.123C45.5198 250.118 51.4396 249.017 52.3186 248.562C52.4139 248.519 52.4669 248.477 52.4351 248.435C51.4291 247.1 49.9888 245.374 48.2627 243.235C43.7725 243.362 38.5093 243.574 35.7665 243.902C26.8179 244.961 20.4639 256.155 37.5244 256.134C39.4306 256.134 41.8239 256.134 45.4351 256.134V256.123Z" fill="url(#paint2_radial_24_1673)"/>
<path opacity="0.4" d="M35.4374 191.418C35.4374 191.418 41.2195 200.906 52.392 216.982C53.1227 217.395 53.8534 217.819 54.5629 218.274L52.4026 209.654L53.8428 204.994L82.3404 212.82C82.3404 212.82 83.0076 214.631 84.0242 217.501L84.416 215.563L89.764 225.623C90.0499 222.531 90.5582 219.428 91.3419 216.315C93.8729 206.233 98.7972 197.444 105.268 190.454C97.2511 193.388 89.351 196.024 88.2602 195.601C86.0045 194.722 77.7973 178.286 77.0243 167.029C76.1135 153.77 80.3283 142.852 92.3162 134.719C92.6551 134.327 93.0257 133.957 93.4493 133.649C96.3721 131.531 98.4054 130.261 100.1 129.276C90.643 127.423 83.177 119.777 82.171 118.718C78.6021 119.237 74.5144 119.332 70.1725 118.951C56.5432 117.765 53.1121 117.246 40.9548 117.246C23.6507 117.246 16.4389 124.214 4.84291 132.643C5.40418 132.643 5.59481 132.749 4.98059 133.268C3.96395 134.126 0.0774268 138.267 2.2166 141.052C3.78392 143.085 8.11522 139.04 8.81416 141.507C9.25894 143.075 4.17576 144.896 6.5585 147.66C9.77786 151.409 17.4238 147.088 19.6795 157.403C21.6069 166.214 19.2665 166.796 23.6296 190.613C24.9851 198.005 26.9019 204.624 29.1258 210.522C32.3239 210.628 35.4586 211.02 38.4873 211.687C35.0561 199.763 35.4268 191.418 35.4268 191.418H35.4374Z" fill="url(#paint3_linear_24_1673)"/>
<path d="M70.7344 82.373C67.2926 69.8768 60.7692 49.2157 55.5271 50.243C49.9674 51.3337 45.3078 62.7179 41.9508 73.4562C41.3154 71.5818 40.5847 69.4002 39.4304 66.7527C35.3744 57.4759 33.0552 52.6469 29.4334 53.5682C25.5363 54.5637 20.8767 63.2474 18.6634 70.5228C15.1052 82.2141 15.2746 84.9887 14.8828 90.0401C14.7875 91.2474 14.7133 92.5817 14.6286 93.9796C14.2897 100.026 13.9932 107.228 12.786 109.96C9.86313 116.536 -0.419741 125.824 0.543948 131.51C0.829877 133.194 3.668 132.644 4.85408 132.633C16.4501 124.203 23.6619 117.225 40.9659 117.235C53.1126 117.235 56.5438 117.754 70.1837 118.94C74.5256 119.321 78.6133 119.226 82.1821 118.707C82.108 118.622 82.0551 118.57 82.0551 118.57C82.0551 118.57 84.4166 118.4 87.6254 114.98C92.1155 110.172 92.4544 106.497 100.598 103.616C86.291 101.943 88.0913 89.8495 70.7449 82.373H70.7344Z" fill="url(#paint4_linear_24_1673)"/>
<path d="M87.614 114.98C84.4053 118.411 82.0437 118.57 82.0437 118.57C82.0437 118.57 82.0966 118.623 82.1708 118.707C83.1768 119.777 90.6428 127.412 100.1 129.266C102.832 127.667 104.632 126.798 107.714 124.214C113.644 119.237 116.652 112.639 116.673 108.319C116.122 108.732 115.413 109.06 114.523 109.219C111.177 109.833 108.752 107.429 108.91 105.798C108.995 104.972 109.567 103.956 110.795 103.267C109.535 103.426 107.989 103.67 106.009 103.754C103.954 103.85 102.165 103.786 100.566 103.606C92.4325 106.487 92.0936 110.161 87.5928 114.969L87.614 114.98Z" fill="#FFC635"/>
<path d="M108.921 105.809C108.762 107.44 111.177 109.844 114.534 109.229C115.423 109.07 116.133 108.742 116.684 108.329C116.684 107.207 116.504 106.222 116.101 105.48C114.756 103.013 113.39 102.971 110.817 103.288C109.588 103.977 109.006 104.993 108.932 105.819L108.921 105.809Z" fill="#00073A"/>
<path d="M63.0875 102.166C64.9302 105.788 63.1828 108.541 61.5837 108.965C58.5232 109.791 55.558 108.351 53.1223 103.617C50.0195 97.5911 52.9105 94.9331 56.384 95.1237C58.5973 95.2402 60.5777 97.2311 63.0875 102.177V102.166Z" fill="url(#paint5_linear_24_1673)"/>
<path d="M62.9206 106.628C63.5914 106.2 63.7225 105.206 63.2135 104.407C62.7044 103.608 61.7479 103.306 61.077 103.734C60.4062 104.161 60.275 105.155 60.7841 105.954C61.2932 106.754 62.2497 107.055 62.9206 106.628Z" fill="white"/>
<path d="M85.9192 95.4941C89.0326 99.4548 88.0689 101.414 86.9358 102.261C84.7649 103.892 81.6514 102.748 79.6923 99.5924C76.833 95.007 76.6741 92.9207 79.0992 91.4593C81.1113 90.2521 83.3987 92.2747 85.9297 95.4835L85.9192 95.4941Z" fill="url(#paint6_linear_24_1673)"/>
<path d="M86.2946 101.467C87.0748 101.393 87.6384 100.61 87.5534 99.7194C87.4684 98.8286 86.767 98.1668 85.9869 98.2412C85.2067 98.3156 84.6431 99.0981 84.7281 99.9889C84.8131 100.88 85.5145 101.542 86.2946 101.467Z" fill="white"/>
<path d="M52.5936 79.3867C57.5497 79.2913 64.0626 79.6832 69.5058 81.8541C69.9294 82.0236 70.3319 82.2036 70.7343 82.373C67.2925 69.8768 60.7691 49.2158 55.527 50.243C49.9673 51.3338 45.3077 62.718 41.9507 73.4563C42.8297 76.0614 43.518 78.0629 44.8629 79.8526C44.9265 79.9373 48.1353 79.4714 52.5936 79.3867Z" fill="url(#paint7_linear_24_1673)"/>
<path d="M18.5993 105.343C19.1923 104.951 26.7536 97.2945 34.0289 89.7756C35.4373 88.3248 46.0167 86.641 47.5311 85.5396C48.1347 83.1463 44.5553 85.1478 45.339 82.405C45.7837 80.8483 41.4313 75.0767 41.9396 73.4565C41.3042 71.582 40.5735 69.4005 39.4192 66.753C35.3632 57.4762 33.044 52.6472 29.4222 53.5685C25.5251 54.5639 20.8655 63.2477 18.6522 70.523C15.094 82.2144 15.2634 84.989 14.8716 90.0404C14.7763 91.2477 14.7022 92.582 14.6174 93.9799C16.6613 100.397 18.3663 105.491 18.5993 105.343Z" fill="url(#paint8_linear_24_1673)"/>
<path opacity="0.6" d="M58.0048 248.445C54.8278 244.771 50.5071 238.533 45.1698 228.324C34.6751 208.267 35.4376 191.429 35.4376 191.429C35.4376 191.429 43.8248 205.185 59.9216 227.657C63.734 232.973 67.97 241.996 70.4269 248.212L58.0048 248.456V248.445Z" fill="url(#paint9_linear_24_1673)"/>
<path d="M96.4996 222.309L92.4648 230.686L89.775 225.624L84.427 215.563L84.0352 217.501L82.4043 225.624L69.9823 209.548L74.0383 227.985L60.949 214.896L75.8385 242.938C76.4845 244.273 76.5375 245.268 76.1669 246.02C75.5103 247.301 73.5405 247.81 70.9777 247.873C70.7765 247.873 70.5436 247.873 70.3 247.894C67.6843 247.958 62.5164 248.074 57.8462 248.265C55.8235 248.35 53.9173 248.456 52.3288 248.572C51.4498 249.028 45.53 250.129 45.4453 256.133C45.4453 256.504 45.4453 256.885 45.4877 257.298C45.8795 261.079 49.819 261.577 64.4014 261.577H96.9656C97.4104 261.577 97.8339 261.577 98.247 261.577C101.064 261.587 103.351 261.651 107.323 261.651C108.773 261.651 108.731 260.232 108.752 259.459C106.952 249.038 96.489 222.32 96.489 222.32L96.4996 222.309Z" fill="url(#paint10_linear_24_1673)"/>
<path opacity="0.97" d="M147.49 259.131L143.942 175.544C139.759 175.48 136.688 175.459 131.616 175.205L125.823 174.887C120.39 174.538 115.244 174.019 111.537 173.246C98.8609 180.68 88.864 193.441 84.8504 209.411C80.5297 226.588 84.0667 243.754 93.0894 256.674L108.9 258.951C122.964 258.951 139.685 259.078 147.501 259.131H147.49Z" fill="url(#paint11_linear_24_1673)"/>
<path d="M380.12 125.57C378.818 120.19 375.683 114.366 375.683 114.366C375.683 114.366 375.599 116.071 375.323 118.485C374.995 121.418 374.72 122.7 374.72 122.7C374.72 122.7 373.025 117.119 372.167 115.012C363.41 93.5245 353.868 81.6001 342.177 67.2613C321.378 41.7712 344.189 24.9967 344.189 24.9967C344.189 24.9967 301.416 22.9846 291.789 68.7121C287.479 89.2038 291.747 105.046 292.287 119.036C292.562 126.142 291.874 132.782 288.602 139.294C279.812 156.821 261.523 162.169 248.932 160.167C234.392 157.859 231.977 155.37 228.091 142.09C224.628 130.282 225.263 130.716 221.43 124.235C219.502 118.316 210.067 113.868 209.325 122.943C204.666 180.172 201.033 224.681 203.914 227.996C221.334 248.117 251.78 256.727 282.078 253.814C298.885 252.205 315.649 247.058 330.115 238.321C369.001 214.843 382.323 184.037 382.323 141.688C382.323 138.627 381.698 132.04 380.131 125.549L380.12 125.57Z" fill="url(#paint12_linear_24_1673)"/>
<path d="M348.022 198.333C360.603 171.774 363.632 149.175 363.632 149.175C363.632 149.175 360.773 154.406 358.507 158.028C356.24 161.65 353.434 165.621 353.434 165.621C353.783 167.4 355.478 156.164 355.944 143.816C356.283 134.846 354.609 125.051 354.609 125.051C354.609 125.051 351.665 137.981 347.789 147.544C340.016 166.733 333.811 178.763 319.832 190.412C311.307 197.518 299.891 200.504 306.033 210.448C312.186 220.403 335.674 221.165 348.022 198.333Z" fill="url(#paint13_linear_24_1673)"/>
<path d="M263.049 283.498C263.049 286.198 262.339 288.285 261.079 289.714C259.363 290.223 257.288 290.17 254.937 289.524L138.945 254.344C135.704 253.444 133.47 250.531 133.47 247.217V54.7862C133.47 51.4927 135.683 48.591 138.902 47.6697L255.89 10.7318C258.326 10.0329 260.348 9.84228 261.937 10.2129C262.668 11.4308 263.049 13.1146 263.049 15.3491V283.498Z" fill="url(#paint14_linear_24_1673)"/>
<path d="M254.948 289.524L138.956 254.344C135.715 253.444 133.481 250.532 133.481 247.217V54.7864C133.481 51.4929 135.694 48.5912 138.913 47.6699L255.901 10.7321C258.336 10.0331 260.359 9.8425 261.948 10.2132C260.423 7.68215 257.352 7.26914 252.883 8.56112L135.895 46.0391C132.676 46.971 130.462 49.915 130.462 53.2614V248.498C130.462 251.866 132.697 254.821 135.937 255.731L251.929 291.42C255.933 292.553 259.162 291.907 261.09 289.704C259.374 290.212 257.299 290.159 254.948 289.513V289.524Z" fill="url(#paint15_linear_24_1673)"/>
<path d="M269.837 284.462L268.598 15.561C268.598 9.68355 267.793 6.26299 266.057 4.22971C265.93 4.08145 265.792 3.93319 265.654 3.79552H265.855C265.771 3.78493 265.697 3.77434 265.612 3.76375C264.182 2.38705 262.212 1.75165 259.618 1.41277C257.712 1.25392 255.371 1.43395 252.396 2.32351L136.647 40.5428C128.514 42.8937 125.411 47.7439 125.411 56.2159L125.083 245.184C125.083 253.677 127.455 258.972 135.62 261.302L257.542 300.665C258.686 300.739 259.629 300.686 260.412 300.58C258.622 300.58 257.108 300.506 257.108 300.506C260.232 300.368 262.996 298.917 265.146 296.661C268.048 293.622 269.837 289.132 269.827 284.462H269.837ZM251.93 291.43L135.937 255.742C132.697 254.831 130.462 251.876 130.462 248.509V53.2719C130.462 49.9255 132.676 46.9815 135.895 46.0495L252.883 8.5716C257.352 7.27962 260.423 7.69263 261.948 10.2236C262.678 11.4415 263.06 13.1253 263.06 15.3598V283.509C263.06 286.209 262.35 288.295 261.09 289.725C259.163 291.928 255.933 292.563 251.93 291.441V291.43Z" fill="url(#paint16_linear_24_1673)"/>
<path d="M277.366 18.8123C277.366 5.83954 276.858 3.37208 267.518 1.91067C264.775 1.47648 259.522 1.40234 259.522 1.40234C259.554 1.40234 259.586 1.40235 259.617 1.41294C262.201 1.75182 264.171 2.38722 265.611 3.76391C265.696 3.7745 265.77 3.78509 265.855 3.79568H265.654C265.791 3.93335 265.929 4.07103 266.056 4.22988C267.793 6.26315 268.598 9.68371 268.598 15.5612L269.837 284.462C269.837 289.143 268.058 293.622 265.156 296.662C263.006 298.917 260.242 300.368 257.118 300.506C257.118 300.506 258.633 300.58 260.422 300.58C262.265 300.58 264.404 300.516 265.495 300.231C274.549 297.848 278.626 293.824 278.616 284.462L277.377 18.8123H277.366Z" fill="url(#paint17_linear_24_1673)"/>
<path d="M205.069 248.434C206.075 247.1 207.515 245.374 209.241 243.235C214.557 236.648 222.51 226.09 228.367 210.522C230.59 204.624 232.507 198.005 233.863 190.613C238.226 166.796 235.896 166.214 237.813 157.403C240.069 147.088 247.714 151.409 250.934 147.66C253.317 144.896 248.233 143.075 248.678 141.507C249.377 139.04 253.719 143.085 255.276 141.052C257.425 138.267 253.528 134.126 252.512 133.268C251.898 132.749 252.099 132.644 252.649 132.644C241.053 124.214 233.842 117.235 216.538 117.246C204.391 117.246 200.96 117.765 187.32 118.951C182.978 119.332 178.89 119.237 175.321 118.718C174.315 119.787 166.849 127.423 157.392 129.276C159.087 130.261 161.12 131.521 164.043 133.65C164.477 133.967 164.837 134.327 165.176 134.719C172.504 143.191 159.14 169.253 148.582 172.589C145.278 173.637 139.644 174.315 133.47 174.771V247.227C133.47 250.542 135.704 253.454 138.945 254.354L152.352 258.421L202.612 251.177C202.516 251.135 205.037 248.487 205.058 248.445L205.069 248.434Z" fill="url(#paint18_linear_24_1673)"/>
<path d="M212.079 256.123C211.995 250.119 206.075 249.017 205.196 248.562C205.1 248.52 205.048 248.477 205.079 248.435C206.085 247.1 207.526 245.374 209.252 243.235C213.742 243.362 219.005 243.574 221.748 243.902C230.696 244.961 237.05 256.155 219.99 256.134C218.084 256.134 215.69 256.134 212.079 256.134V256.123Z" fill="url(#paint19_linear_24_1673)"/>
<path d="M212.079 256.123C211.995 250.119 206.075 249.017 205.196 248.562C205.1 248.52 205.048 248.477 205.079 248.435C206.085 247.1 207.526 245.374 209.252 243.235C213.742 243.362 219.005 243.574 221.748 243.902C230.696 244.961 237.05 256.155 219.99 256.134C218.084 256.134 215.69 256.134 212.079 256.134V256.123Z" fill="url(#paint20_radial_24_1673)"/>
<path opacity="0.4" d="M222.076 191.418C222.076 191.418 216.294 200.907 205.122 216.982C204.391 217.395 203.66 217.819 202.951 218.274L205.111 209.654L203.671 204.994L175.173 212.82C175.173 212.82 174.506 214.631 173.49 217.501L173.098 215.563L167.75 225.624C167.464 222.531 166.956 219.428 166.172 216.315C163.641 206.233 158.717 197.444 152.246 190.454C160.263 193.388 168.163 196.025 169.254 195.601C171.509 194.722 179.716 178.286 180.49 167.029C181.4 153.771 177.185 142.852 165.198 134.719C164.859 134.327 164.488 133.957 164.065 133.65C161.142 131.532 159.108 130.261 157.414 129.276C166.871 127.423 174.337 119.777 175.343 118.718C178.912 119.237 182.999 119.332 187.341 118.951C200.971 117.765 204.402 117.246 216.559 117.246C233.863 117.246 241.075 124.214 252.671 132.644C252.11 132.644 251.919 132.749 252.533 133.268C253.55 134.126 257.436 138.267 255.297 141.052C253.73 143.085 249.399 139.04 248.7 141.507C248.255 143.075 253.338 144.896 250.955 147.66C247.736 151.409 240.09 147.088 237.834 157.403C235.907 166.214 238.247 166.796 233.884 190.613C232.529 198.005 230.612 204.624 228.388 210.522C225.19 210.628 222.055 211.02 219.027 211.687C222.458 199.763 222.087 191.418 222.087 191.418H222.076Z" fill="url(#paint21_linear_24_1673)"/>
<path d="M186.78 82.3731C190.221 69.877 196.745 49.2159 201.987 50.2431C207.546 51.3339 212.206 62.7181 215.563 73.4564C216.198 71.5819 216.929 69.4004 218.083 66.7529C222.139 57.4761 224.459 52.6471 228.08 53.5684C231.978 54.5638 236.637 63.2476 238.85 70.5229C242.409 82.2143 242.239 84.9889 242.631 90.0403C242.726 91.2476 242.801 92.5819 242.885 93.9798C243.224 100.027 243.521 107.228 244.728 109.96C247.651 116.536 257.934 125.824 256.97 131.511C256.684 133.194 253.846 132.644 252.66 132.633C241.064 124.204 233.852 117.225 216.548 117.235C204.401 117.235 200.97 117.754 187.33 118.94C182.988 119.322 178.901 119.226 175.332 118.707C175.406 118.623 175.459 118.57 175.459 118.57C175.459 118.57 173.097 118.4 169.889 114.98C165.398 110.172 165.059 106.497 156.916 103.617C171.223 101.943 169.423 89.8497 186.769 82.3731H186.78Z" fill="url(#paint22_linear_24_1673)"/>
<path d="M169.899 114.98C173.108 118.411 175.47 118.57 175.47 118.57C175.47 118.57 175.417 118.623 175.343 118.708C174.336 119.777 166.871 127.413 157.414 129.266C154.681 127.667 152.881 126.798 149.799 124.214C143.869 119.237 140.862 112.639 140.84 108.319C141.391 108.732 142.101 109.06 142.99 109.219C146.337 109.833 148.762 107.429 148.603 105.798C148.518 104.972 147.946 103.956 146.718 103.267C147.978 103.426 149.524 103.67 151.504 103.754C153.559 103.85 155.349 103.786 156.948 103.606C165.081 106.487 165.42 110.161 169.92 114.969L169.899 114.98Z" fill="#FFC635"/>
<path d="M148.592 105.809C148.751 107.44 146.337 109.844 142.98 109.229C142.09 109.071 141.381 108.742 140.83 108.329C140.83 107.207 141.01 106.222 141.412 105.481C142.757 103.013 144.123 102.971 146.697 103.288C147.925 103.977 148.508 104.993 148.582 105.819L148.592 105.809Z" fill="#00073A"/>
<path d="M201.13 95.1128C204.614 94.9327 207.494 97.5802 204.391 103.606C201.956 108.34 198.99 109.78 195.93 108.954C194.331 108.52 192.584 105.777 194.426 102.155C196.936 97.2202 198.916 95.2187 201.13 95.1022V95.1128Z" fill="url(#paint23_linear_24_1673)"/>
<path d="M196.749 106.025C197.258 105.226 197.127 104.232 196.456 103.804C195.785 103.377 194.829 103.678 194.32 104.477C193.811 105.277 193.942 106.271 194.613 106.698C195.283 107.126 196.24 106.824 196.749 106.025Z" fill="white"/>
<path d="M178.414 91.4592C180.839 92.9206 180.68 95.0068 177.821 99.5923C175.851 102.748 172.748 103.892 170.577 102.261C169.444 101.403 168.481 99.4546 171.594 95.494C174.125 92.2746 176.412 90.2519 178.425 91.4698L178.414 91.4592Z" fill="url(#paint24_linear_24_1673)"/>
<path d="M172.755 99.9388C172.84 99.048 172.276 98.2656 171.496 98.1911C170.716 98.1167 170.014 98.7785 169.929 99.6693C169.844 100.56 170.408 101.343 171.188 101.417C171.968 101.491 172.67 100.83 172.755 99.9388Z" fill="white"/>
<path d="M204.92 79.3868C199.964 79.2915 193.451 79.6833 188.008 81.8542C187.584 82.0237 187.182 82.2037 186.779 82.3731C190.221 69.877 196.744 49.2159 201.987 50.2431C207.546 51.3339 212.206 62.7181 215.563 73.4564C214.684 76.0615 213.996 78.063 212.651 79.8527C212.587 79.9375 209.378 79.4715 204.92 79.3868Z" fill="url(#paint25_linear_24_1673)"/>
<path d="M238.914 105.343C238.321 104.951 230.76 97.2946 223.485 89.7757C222.076 88.3249 211.497 86.6411 209.982 85.5397C209.379 83.1464 212.958 85.1479 212.174 82.4051C211.73 80.8483 216.082 75.0768 215.574 73.4565C216.209 71.5821 216.94 69.4006 218.094 66.7531C222.15 57.4762 224.469 52.6472 228.091 53.5685C231.988 54.564 236.648 63.2478 238.861 70.5231C242.419 82.2144 242.25 84.989 242.642 90.0405C242.737 91.2477 242.811 92.5821 242.896 93.9799C240.852 100.397 239.147 105.491 238.914 105.343Z" fill="url(#paint26_linear_24_1673)"/>
<path opacity="0.6" d="M199.508 248.445C202.685 244.771 207.006 238.533 212.344 228.324C222.838 208.267 222.076 191.429 222.076 191.429C222.076 191.429 213.688 205.185 197.592 227.657C193.779 232.973 189.543 241.996 187.086 248.212L199.508 248.456V248.445Z" fill="url(#paint27_linear_24_1673)"/>
<path d="M193.113 261.567C207.706 261.567 211.635 261.079 212.026 257.288C212.069 256.875 212.079 256.494 212.069 256.123C211.984 250.119 206.064 249.017 205.185 248.562C203.597 248.446 201.691 248.34 199.668 248.255C194.987 248.054 189.83 247.937 187.214 247.884C186.971 247.884 186.738 247.874 186.536 247.863C183.974 247.8 182.004 247.291 181.347 246.01C180.966 245.269 181.03 244.263 181.676 242.928L196.565 214.886L183.476 227.975L187.532 209.538L175.11 225.614L173.479 217.491L173.087 215.553L167.739 225.614L165.049 230.676L161.015 222.299C161.015 222.299 151.748 245.957 149.164 257.426L162.762 261.556H193.113V261.567Z" fill="url(#paint28_linear_24_1673)"/>
<path opacity="0.97" d="M172.673 209.4C167.41 188.474 151.875 173.055 133.48 167.919V247.217C133.48 250.531 135.714 253.444 138.955 254.344L161.025 261.037C172.515 247.778 177.503 228.589 172.673 209.4Z" fill="url(#paint29_linear_24_1673)"/>
<defs>
<linearGradient id="paint0_linear_24_1673" x1="74.5362" y1="96.4469" x2="74.5362" y2="253.359" gradientUnits="userSpaceOnUse">
<stop stop-color="#FF6600"/>
<stop offset="0.25" stop-color="#FFC635"/>
<stop offset="0.41" stop-color="#FFA824"/>
<stop offset="0.71" stop-color="#FF6600"/>
<stop offset="1" stop-color="#FB2872"/>
</linearGradient>
<linearGradient id="paint1_linear_24_1673" x1="40.3308" y1="250.044" x2="4.22948" y2="257.394" gradientUnits="userSpaceOnUse">
<stop offset="0.01" stop-color="#BE0449"/>
<stop offset="0.27" stop-color="#CC1747"/>
<stop offset="0.73" stop-color="#E23444"/>
<stop offset="1" stop-color="#EB4043"/>
</linearGradient>
<radialGradient id="paint2_radial_24_1673" cx="0" cy="0" r="1" gradientUnits="userSpaceOnUse" gradientTransform="translate(50.0418 249.981) scale(37.8592 37.8592)">
<stop offset="0.16" stop-color="#A5004C"/>
<stop offset="0.25" stop-color="#A8034D" stop-opacity="0.96"/>
<stop offset="0.38" stop-color="#B30B52" stop-opacity="0.84"/>
<stop offset="0.53" stop-color="#C5195A" stop-opacity="0.64"/>
<stop offset="0.7" stop-color="#DD2C65" stop-opacity="0.37"/>
<stop offset="0.88" stop-color="#FC4572" stop-opacity="0.03"/>
<stop offset="0.89" stop-color="#FF4774" stop-opacity="0"/>
</radialGradient>
<linearGradient id="paint3_linear_24_1673" x1="64.4857" y1="102.07" x2="40.3194" y2="238.819" gradientUnits="userSpaceOnUse">
<stop stop-color="#FFEB49"/>
<stop offset="0.04" stop-color="#FFE344" stop-opacity="0.95"/>
<stop offset="0.25" stop-color="#FFBE30" stop-opacity="0.66"/>
<stop offset="0.45" stop-color="#FF9E1F" stop-opacity="0.43"/>
<stop offset="0.63" stop-color="#FF8611" stop-opacity="0.24"/>
<stop offset="0.78" stop-color="#FF7408" stop-opacity="0.11"/>
<stop offset="0.91" stop-color="#FF6902" stop-opacity="0.03"/>
<stop offset="1" stop-color="#FF6600" stop-opacity="0"/>
</linearGradient>
<linearGradient id="paint4_linear_24_1673" x1="56.9038" y1="143.392" x2="-24.3955" y2="-187.619" gradientUnits="userSpaceOnUse">
<stop offset="0.11" stop-color="#FF9E00"/>
<stop offset="0.18" stop-color="#FF6600"/>
<stop offset="0.63" stop-color="#FF6600"/>
<stop offset="1" stop-color="#FB2872"/>
</linearGradient>
<linearGradient id="paint5_linear_24_1673" x1="54.5202" y1="90.3264" x2="59.8046" y2="109.282" gradientUnits="userSpaceOnUse">
<stop offset="0.16" stop-color="#A030B9"/>
<stop offset="0.88" stop-color="#00073A"/>
</linearGradient>
<linearGradient id="paint6_linear_24_1673" x1="77.2248" y1="88.6106" x2="85.2838" y2="101.393" gradientUnits="userSpaceOnUse">
<stop offset="0.16" stop-color="#A030B9"/>
<stop offset="0.88" stop-color="#00073A"/>
</linearGradient>
<linearGradient id="paint7_linear_24_1673" x1="71.6155" y1="38.0115" x2="30.1014" y2="146.149" gradientUnits="userSpaceOnUse">
<stop offset="0.09" stop-color="#BE0449" stop-opacity="0"/>
<stop offset="0.14" stop-color="#BE0449" stop-opacity="0.15"/>
<stop offset="0.2" stop-color="#BE0449" stop-opacity="0.29"/>
<stop offset="0.27" stop-color="#BE0449" stop-opacity="0.4"/>
<stop offset="0.36" stop-color="#BE0449" stop-opacity="0.49"/>
<stop offset="0.46" stop-color="#BE0449" stop-opacity="0.55"/>
<stop offset="0.6" stop-color="#BE0449" stop-opacity="0.59"/>
<stop offset="1" stop-color="#BE0449" stop-opacity="0.6"/>
</linearGradient>
<linearGradient id="paint8_linear_24_1673" x1="31.0906" y1="88.9594" x2="8.50445" y2="48.2783" gradientUnits="userSpaceOnUse">
<stop stop-color="#FF6600" stop-opacity="0"/>
<stop offset="0.03" stop-color="#FF6600" stop-opacity="0.17"/>
<stop offset="0.07" stop-color="#FF6600" stop-opacity="0.36"/>
<stop offset="0.11" stop-color="#FF6600" stop-opacity="0.53"/>
<stop offset="0.16" stop-color="#FF6600" stop-opacity="0.68"/>
<stop offset="0.2" stop-color="#FF6600" stop-opacity="0.8"/>
<stop offset="0.25" stop-color="#FF6600" stop-opacity="0.89"/>
<stop offset="0.3" stop-color="#FF6600" stop-opacity="0.95"/>
<stop offset="0.36" stop-color="#FF6600" stop-opacity="0.99"/>
<stop offset="0.43" stop-color="#FF6600"/>
<stop offset="0.72" stop-color="#FD4737"/>
<stop offset="1" stop-color="#FB2872"/>
</linearGradient>
<linearGradient id="paint9_linear_24_1673" x1="56.2437" y1="207.764" x2="43.9069" y2="252.407" gradientUnits="userSpaceOnUse">
<stop stop-color="#FFC635"/>
<stop offset="0.09" stop-color="#FFC432" stop-opacity="0.96"/>
<stop offset="0.24" stop-color="#FFBF2C" stop-opacity="0.84"/>
<stop offset="0.44" stop-color="#FFB822" stop-opacity="0.66"/>
<stop offset="0.67" stop-color="#FFAD15" stop-opacity="0.4"/>
<stop offset="0.94" stop-color="#FFA003" stop-opacity="0.07"/>
<stop offset="1" stop-color="#FF9E00" stop-opacity="0"/>
</linearGradient>
<linearGradient id="paint10_linear_24_1673" x1="72.8628" y1="104.972" x2="78.9202" y2="324.163" gradientUnits="userSpaceOnUse">
<stop offset="0.13" stop-color="#D81F60" stop-opacity="0"/>
<stop offset="0.67" stop-color="#D81F60"/>
</linearGradient>
<linearGradient id="paint11_linear_24_1673" x1="100.439" y1="203.745" x2="205.756" y2="275.81" gradientUnits="userSpaceOnUse">
<stop stop-color="#FB2872" stop-opacity="0"/>
<stop offset="0.51" stop-color="#B10047"/>
</linearGradient>
<linearGradient id="paint12_linear_24_1673" x1="343.617" y1="54.1297" x2="236.711" y2="263.96" gradientUnits="userSpaceOnUse">
<stop stop-color="#FFEB49"/>
<stop offset="0.32" stop-color="#FF9B1D"/>
<stop offset="0.56" stop-color="#FF6600"/>
<stop offset="0.74" stop-color="#FD4835"/>
<stop offset="0.91" stop-color="#FB3161"/>
<stop offset="1" stop-color="#FB2872"/>
</linearGradient>
<linearGradient id="paint13_linear_24_1673" x1="241.27" y1="103.513" x2="218.736" y2="178.453" gradientUnits="userSpaceOnUse">
<stop stop-color="#FFEB49" stop-opacity="0.6"/>
<stop offset="0.13" stop-color="#FFE143" stop-opacity="0.56"/>
<stop offset="0.35" stop-color="#FFC835" stop-opacity="0.44"/>
<stop offset="0.65" stop-color="#FF9E1F" stop-opacity="0.26"/>
<stop offset="1" stop-color="#FF6600" stop-opacity="0"/>
</linearGradient>
<linearGradient id="paint14_linear_24_1673" x1="133.48" y1="150.043" x2="263.049" y2="150.043" gradientUnits="userSpaceOnUse">
<stop stop-color="#E7E4FF"/>
<stop offset="1" stop-color="white"/>
</linearGradient>
<linearGradient id="paint15_linear_24_1673" x1="217.449" y1="327.595" x2="172.685" y2="-89.6822" gradientUnits="userSpaceOnUse">
<stop stop-color="#8134FF"/>
<stop offset="0.12" stop-color="#6F2EFF"/>
<stop offset="0.35" stop-color="#4F25FF"/>
<stop offset="0.59" stop-color="#391FFF"/>
<stop offset="0.8" stop-color="#2B1BFF"/>
<stop offset="1" stop-color="#271AFF"/>
</linearGradient>
<linearGradient id="paint16_linear_24_1673" x1="-109092" y1="-11965.4" x2="100608" y2="11270" gradientUnits="userSpaceOnUse">
<stop stop-color="#D674E6"/>
<stop offset="0.3" stop-color="#E752FF"/>
<stop offset="0.37" stop-color="#C849FF"/>
<stop offset="0.48" stop-color="#973AFF"/>
<stop offset="0.59" stop-color="#6F2FFF"/>
<stop offset="0.7" stop-color="#4F25FF"/>
<stop offset="0.81" stop-color="#391FFF"/>
<stop offset="0.91" stop-color="#2B1BFF"/>
<stop offset="1" stop-color="#271AFF"/>
</linearGradient>
<linearGradient id="paint17_linear_24_1673" x1="42.7558" y1="126.872" x2="426.41" y2="169.381" gradientUnits="userSpaceOnUse">
<stop stop-color="#D674E6"/>
<stop offset="0.3" stop-color="#E752FF"/>
<stop offset="0.37" stop-color="#C849FF"/>
<stop offset="0.48" stop-color="#973AFF"/>
<stop offset="0.59" stop-color="#6F2FFF"/>
<stop offset="0.7" stop-color="#4F25FF"/>
<stop offset="0.81" stop-color="#391FFF"/>
<stop offset="0.91" stop-color="#2B1BFF"/>
<stop offset="1" stop-color="#271AFF"/>
</linearGradient>
<linearGradient id="paint18_linear_24_1673" x1="194.701" y1="96.447" x2="194.701" y2="253.359" gradientUnits="userSpaceOnUse">
<stop stop-color="#FF6600"/>
<stop offset="0.25" stop-color="#FFC635"/>
<stop offset="0.41" stop-color="#FFA824"/>
<stop offset="0.71" stop-color="#FF6600"/>
<stop offset="1" stop-color="#FB2872"/>
</linearGradient>
<linearGradient id="paint19_linear_24_1673" x1="217.184" y1="250.044" x2="253.285" y2="257.394" gradientUnits="userSpaceOnUse">
<stop offset="0.01" stop-color="#BE0449"/>
<stop offset="0.27" stop-color="#CC1747"/>
<stop offset="0.73" stop-color="#E23444"/>
<stop offset="1" stop-color="#EB4043"/>
</linearGradient>
<radialGradient id="paint20_radial_24_1673" cx="0" cy="0" r="1" gradientUnits="userSpaceOnUse" gradientTransform="translate(207.473 249.981) rotate(180) scale(37.8592 37.8592)">
<stop offset="0.16" stop-color="#A5004C"/>
<stop offset="0.25" stop-color="#A8034D" stop-opacity="0.96"/>
<stop offset="0.38" stop-color="#B30B52" stop-opacity="0.84"/>
<stop offset="0.53" stop-color="#C5195A" stop-opacity="0.64"/>
<stop offset="0.7" stop-color="#DD2C65" stop-opacity="0.37"/>
<stop offset="0.88" stop-color="#FC4572" stop-opacity="0.03"/>
<stop offset="0.89" stop-color="#FF4774" stop-opacity="0"/>
</radialGradient>
<linearGradient id="paint21_linear_24_1673" x1="193.028" y1="102.07" x2="217.194" y2="238.819" gradientUnits="userSpaceOnUse">
<stop stop-color="#FFEB49"/>
<stop offset="0.04" stop-color="#FFE344" stop-opacity="0.95"/>
<stop offset="0.25" stop-color="#FFBE30" stop-opacity="0.66"/>
<stop offset="0.45" stop-color="#FF9E1F" stop-opacity="0.43"/>
<stop offset="0.63" stop-color="#FF8611" stop-opacity="0.24"/>
<stop offset="0.78" stop-color="#FF7408" stop-opacity="0.11"/>
<stop offset="0.91" stop-color="#FF6902" stop-opacity="0.03"/>
<stop offset="1" stop-color="#FF6600" stop-opacity="0"/>
</linearGradient>
<linearGradient id="paint22_linear_24_1673" x1="200.61" y1="143.393" x2="281.909" y2="-187.618" gradientUnits="userSpaceOnUse">
<stop offset="0.11" stop-color="#FF9E00"/>
<stop offset="0.18" stop-color="#FF6600"/>
<stop offset="0.63" stop-color="#FF6600"/>
<stop offset="1" stop-color="#FB2872"/>
</linearGradient>
<linearGradient id="paint23_linear_24_1673" x1="202.994" y1="90.3261" x2="197.709" y2="109.282" gradientUnits="userSpaceOnUse">
<stop offset="0.16" stop-color="#A030B9"/>
<stop offset="0.88" stop-color="#00073A"/>
</linearGradient>
<linearGradient id="paint24_linear_24_1673" x1="180.288" y1="88.6105" x2="172.229" y2="101.393" gradientUnits="userSpaceOnUse">
<stop offset="0.16" stop-color="#A030B9"/>
<stop offset="0.88" stop-color="#00073A"/>
</linearGradient>
<linearGradient id="paint25_linear_24_1673" x1="185.898" y1="38.1689" x2="227.422" y2="146.306" gradientUnits="userSpaceOnUse">
<stop offset="0.09" stop-color="#BE0449" stop-opacity="0"/>
<stop offset="0.14" stop-color="#BE0449" stop-opacity="0.15"/>
<stop offset="0.2" stop-color="#BE0449" stop-opacity="0.29"/>
<stop offset="0.27" stop-color="#BE0449" stop-opacity="0.4"/>
<stop offset="0.36" stop-color="#BE0449" stop-opacity="0.49"/>
<stop offset="0.46" stop-color="#BE0449" stop-opacity="0.55"/>
<stop offset="0.6" stop-color="#BE0449" stop-opacity="0.59"/>
<stop offset="1" stop-color="#BE0449" stop-opacity="0.6"/>
</linearGradient>
<linearGradient id="paint26_linear_24_1673" x1="226.428" y1="88.9034" x2="249.014" y2="48.2224" gradientUnits="userSpaceOnUse">
<stop stop-color="#FF6600" stop-opacity="0"/>
<stop offset="0.03" stop-color="#FF6600" stop-opacity="0.17"/>
<stop offset="0.07" stop-color="#FF6600" stop-opacity="0.36"/>
<stop offset="0.11" stop-color="#FF6600" stop-opacity="0.53"/>
<stop offset="0.16" stop-color="#FF6600" stop-opacity="0.68"/>
<stop offset="0.2" stop-color="#FF6600" stop-opacity="0.8"/>
<stop offset="0.25" stop-color="#FF6600" stop-opacity="0.89"/>
<stop offset="0.3" stop-color="#FF6600" stop-opacity="0.95"/>
<stop offset="0.36" stop-color="#FF6600" stop-opacity="0.99"/>
<stop offset="0.43" stop-color="#FF6600"/>
<stop offset="0.72" stop-color="#FD4737"/>
<stop offset="1" stop-color="#FB2872"/>
</linearGradient>
<linearGradient id="paint27_linear_24_1673" x1="201.274" y1="207.621" x2="213.6" y2="252.266" gradientUnits="userSpaceOnUse">
<stop stop-color="#FFC635"/>
<stop offset="0.09" stop-color="#FFC432" stop-opacity="0.96"/>
<stop offset="0.24" stop-color="#FFBF2C" stop-opacity="0.84"/>
<stop offset="0.44" stop-color="#FFB822" stop-opacity="0.66"/>
<stop offset="0.67" stop-color="#FFAD15" stop-opacity="0.4"/>
<stop offset="0.94" stop-color="#FFA003" stop-opacity="0.07"/>
<stop offset="1" stop-color="#FF9E00" stop-opacity="0"/>
</linearGradient>
<linearGradient id="paint28_linear_24_1673" x1="184.821" y1="104.983" x2="178.774" y2="324.175" gradientUnits="userSpaceOnUse">
<stop offset="0.13" stop-color="#D81F60" stop-opacity="0"/>
<stop offset="0.67" stop-color="#D81F60"/>
</linearGradient>
<linearGradient id="paint29_linear_24_1673" x1="158.949" y1="206.477" x2="127.084" y2="228.282" gradientUnits="userSpaceOnUse">
<stop offset="0.08" stop-color="#FB2872" stop-opacity="0"/>
<stop offset="1" stop-color="#B10047"/>
</linearGradient>
</defs>
</svg>
