<svg xmlns="http://www.w3.org/2000/svg" viewBox="5 -3 21 48" fill="white"><path d="M15.71 14.88c.86 0 1.93-.58 2.57-1.35.58-.7 1-1.68 1-2.66a1.79 1.79 0 0 0-.03-.37c-.96.04-2.1.64-2.8 1.45a4.1 4.1 0 0 0-1.03 2.57c0 .15.02.3.04.34a1.3 1.3 0 0 0 .25.02ZM12.69 29.5c1.17 0 1.7-.79 3.15-.79 1.49 0 1.82.76 3.12.76 1.28 0 2.14-1.18 2.95-2.34.9-1.33 1.28-2.63 1.3-2.7a4.17 4.17 0 0 1-2.54-3.83c0-2.44 1.94-3.54 2.05-3.63a4.47 4.47 0 0 0-3.76-1.88c-1.44 0-2.61.87-3.35.87-.8 0-1.84-.82-3.09-.82-2.37 0-4.77 1.96-4.77 5.65 0 2.3.9 4.72 2 6.3.93 1.32 1.76 2.41 2.94 2.41Z"/></svg>
