<svg width="15" height="14" viewBox="0 0 15 14" fill="none" xmlns="http://www.w3.org/2000/svg">
<path d="M12.995 13.8564H2.005C1.4734 13.8559 0.963731 13.6445 0.587836 13.2686C0.21194 12.8927 0.000529479 12.383 0 11.8514V2.86145C0 1.75545 0.899 0.856445 2.005 0.856445H4.963C5.2389 0.856681 5.5118 0.913713 5.7647 1.02399C6.0176 1.13427 6.24509 1.29543 6.433 1.49745L7.693 2.85645H12.995C14.101 2.85645 15 3.75545 15 4.86145V11.8514C14.9995 12.383 14.7881 12.8927 14.4122 13.2686C14.0363 13.6445 13.5266 13.8559 12.995 13.8564ZM1.85 2.10645L1.25 2.70645V12.0064L1.85 12.6064H13.15L13.75 12.0064V4.70645L13.15 4.10645H7.42L6.962 3.90645L5.517 2.34745C5.44611 2.27144 5.36035 2.21082 5.26505 2.16937C5.16974 2.12791 5.06693 2.10649 4.963 2.10645H1.85Z" fill="currentColor"/>
</svg>
