<svg fill="none" viewBox="0 0 8 8" xmlns="http://www.w3.org/2000/svg"><path clip-rule="evenodd" d="M1.713 0h.57a.571.571 0 010 1.143h-.57a.571.571 0 00-.571.571v4.572c0 .315.255.571.57.571H6.28c.315 0 .571-.256.571-.571v-.572a.571.571 0 111.142 0v.572C7.993 7.232 7.226 8 6.28 8H1.713A1.714 1.714 0 010 6.286V1.714C0 .768.767 0 1.713 0zm5.716 0A.57.57 0 018 .571V3.43a.571.571 0 11-1.142 0V1.95l-1.88 1.882a.57.57 0 11-.807-.808l1.88-1.882H4.574a.571.571 0 010-1.143z" fill="#5e5e72" fill-rule="evenodd"/></svg>