<svg width="12" height="12" viewBox="0 0 12 12" fill="none" xmlns="http://www.w3.org/2000/svg">
<path d="M3.99992 12C3.73472 12 3.48041 11.8946 3.29292 11.707L0.292919 8.70701C0.110761 8.51841 0.00996641 8.26581 0.0122448 8.00361C0.0145233 7.74141 0.119692 7.4906 0.3051 7.30519C0.490508 7.11978 0.741321 7.01461 1.00352 7.01234C1.26571 7.01006 1.51832 7.11085 1.70692 7.29301L3.86392 9.45001L10.1799 0.42701C10.333 0.212456 10.5646 0.0670121 10.8243 0.0223066C11.0841 -0.0223988 11.351 0.037249 11.567 0.188279C11.783 0.33931 11.9306 0.569509 11.9778 0.828819C12.025 1.08813 11.9679 1.35558 11.8189 1.57301L4.81892 11.573C4.73561 11.6934 4.62687 11.7941 4.50039 11.8679C4.3739 11.9417 4.23275 11.9868 4.08692 12C4.05794 12.0015 4.0289 12.0015 3.99992 12Z" fill="#00A49A"/>
</svg>
