<svg width="13" height="16" viewBox="0 0 13 16" fill="none" xmlns="http://www.w3.org/2000/svg">
<path fill-rule="evenodd" clip-rule="evenodd" d="M9.09935 3.25H11.4827C11.8493 3.25 12.1243 3.525 12.1243 3.8C12.1243 4.075 11.8493 4.35 11.5743 4.35H11.2077V13.3333C11.2077 14.3417 10.3827 15.1667 9.37435 15.1667H3.41602C2.40768 15.1667 1.58268 14.3417 1.58268 13.3333V4.35H1.21602C0.849349 4.35 0.666016 4.16667 0.666016 3.8C0.666016 3.43333 0.849349 3.25 1.21602 3.25H3.59935V2.33333C3.59935 1.325 4.42435 0.5 5.43268 0.5H7.26602C8.27435 0.5 9.09935 1.325 9.09935 2.33333V3.25ZM5.34102 1.6L4.79102 2.15V3.25H7.99935V2.15L7.44935 1.6H5.34102ZM9.46601 13.975L10.016 13.425V4.35H2.68268V13.425L3.23268 13.975H9.46601ZM5.43222 11.8667C5.43222 12.1417 5.15722 12.4167 4.88222 12.4167C4.60722 12.4167 4.33222 12.1417 4.33222 11.8667V7.46667C4.24055 7.19167 4.51555 6.91667 4.88222 6.91667C5.24889 6.91667 5.43222 7.19167 5.43222 7.46667V11.8667ZM8.36628 11.8667C8.36628 12.1417 8.09128 12.4167 7.81628 12.4167C7.54128 12.4167 7.26628 12.1417 7.26628 11.8667V7.46667C7.26628 7.19167 7.54128 6.91667 7.81628 6.91667C8.09128 6.91667 8.36628 7.19167 8.36628 7.46667V11.8667Z" fill="#5B5B66"/>
</svg>
