<?xml version="1.0" encoding="UTF-8"?>
<svg xmlns="http://www.w3.org/2000/svg" xmlns:xlink="http://www.w3.org/1999/xlink" width="24px" height="24px" viewBox="0 0 24 24" version="1.1">
<g id="surface1">
<path style=" stroke:none;fill-rule:nonzero;fill:rgb(0%,0%,0%);fill-opacity:1;" d="M 4.511719 3.089844 C 4.496094 3.125 4.480469 7.847656 4.472656 13.582031 L 4.460938 24 L 7.433594 24 L 7.417969 15.03125 C 7.410156 6.914062 7.414062 6.050781 7.492188 5.980469 C 7.566406 5.90625 8.097656 5.894531 12.703125 5.894531 C 17.300781 5.894531 17.84375 5.90625 17.917969 5.980469 C 17.988281 6.050781 18 6.664062 18 11.949219 C 18 17.234375 17.988281 17.84375 17.917969 17.917969 C 17.84375 17.988281 17.4375 18 14.1875 18 C 11.3125 18 10.527344 18.015625 10.511719 18.0625 C 10.496094 18.097656 10.480469 19.449219 10.476562 21.066406 L 10.460938 24 L 13.433594 24 L 13.417969 22.554688 C 13.414062 21.679688 13.429688 21.074219 13.460938 21.027344 C 13.503906 20.957031 14 20.941406 17.203125 20.921875 L 20.894531 20.894531 L 20.894531 3.050781 L 12.714844 3.035156 C 6.199219 3.027344 4.527344 3.035156 4.511719 3.089844 Z M 4.511719 3.089844 "/>
<path style=" stroke:none;fill-rule:nonzero;fill:rgb(0%,0%,0%);fill-opacity:1;" d="M 10.511719 9.089844 C 10.496094 9.125 10.492188 10.445312 10.496094 12.027344 L 10.511719 14.894531 L 14.894531 14.894531 L 14.894531 9.050781 L 12.714844 9.035156 C 11 9.027344 10.527344 9.035156 10.511719 9.089844 Z M 10.511719 9.089844 "/>
</g>
</svg>
