<svg width="16" height="16" viewBox="0 0 16 16" fill="none" xmlns="http://www.w3.org/2000/svg">
<path d="M12.5 6.65132H12V4.66666C12 3.60579 11.5786 2.58837 10.8284 1.83823C10.0783 1.08808 9.06087 0.666656 8 0.666656C6.93913 0.666656 5.92172 1.08808 5.17157 1.83823C4.42143 2.58837 4 3.60579 4 4.66666V6.65132H3.5C3.10218 6.65132 2.72064 6.80936 2.43934 7.09066C2.15804 7.37197 2 7.7535 2 8.15132V13.1667C2 13.5645 2.15804 13.946 2.43934 14.2273C2.72064 14.5086 3.10218 14.6667 3.5 14.6667H12.5C12.8978 14.6667 13.2794 14.5086 13.5607 14.2273C13.842 13.946 14 13.5645 14 13.1667V8.15132C14 7.7535 13.842 7.37197 13.5607 7.09066C13.2794 6.80936 12.8978 6.65132 12.5 6.65132ZM6 4.66666C6 4.13622 6.21071 3.62752 6.58579 3.25244C6.96086 2.87737 7.46957 2.66666 8 2.66666C8.53043 2.66666 9.03914 2.87737 9.41421 3.25244C9.78929 3.62752 10 4.13622 10 4.66666V6.65132H6V4.66666Z" fill="white"/>
</svg>
