<svg width="38" height="24" fill="none" xmlns="http://www.w3.org/2000/svg"><g clip-path="url(#clip0)"><path d="M2.36 0h33.6c1.06 0 1.92.86 1.92 1.92v20.16c0 1.06-.86 1.92-1.92 1.92H2.36a1.92 1.92 0 01-1.92-1.92V1.92C.44.86 1.3 0 2.36 0z" fill="#16366F"/><path d="M21.992 12a8.616 8.616 0 01-8.616 8.616 8.616 8.616 0 010-17.232A8.617 8.617 0 0121.992 12z" fill="#D9222A"/><path d="M24.944 3.384a8.585 8.585 0 00-5.784 2.23 8.76 8.76 0 00-.87.912h1.74c.239.29.458.595.657.913h-3.054c-.184.293-.35.598-.497.912h4.047c.14.297.261.601.365.912h-4.776c-.1.3-.184.604-.25.913h5.276a8.66 8.66 0 01-.25 4.561h-4.777c.104.31.226.616.365.912h4.047a8.636 8.636 0 01-.496.913h-3.054c.199.318.419.623.656.912h1.74c-.267.325-.557.63-.87.912a8.616 8.616 0 105.784-15.002" fill="#EE9F2D"/><path d="M32.412 16.803a.278.278 0 11.556 0 .278.278 0 01-.556 0zm.278.212a.212.212 0 000-.424.211.211 0 000 .423zm-.038-.09h-.057v-.244h.104c.021 0 .043 0 .062.012.02.013.031.037.031.061a.067.067 0 01-.042.063l.045.108h-.063l-.038-.097h-.041v.097zm0-.139h.032c.012 0 .024.001.035-.004a.033.033 0 00.014-.028.03.03 0 00-.014-.025c-.01-.006-.026-.005-.036-.005h-.03v.063zm-21.288-3.843a1.574 1.574 0 00-.208-.014c-.53 0-.799.182-.799.54 0 .222.131.363.335.363.381 0 .656-.363.672-.889zm.68 1.584h-.774l.018-.368c-.237.291-.552.43-.98.43-.508 0-.856-.397-.856-.972 0-.865.605-1.37 1.643-1.37.106 0 .242.01.381.028a.87.87 0 00.037-.23c0-.236-.163-.324-.6-.324a3.1 3.1 0 00-.99.16l.13-.8c.465-.136.773-.188 1.119-.188.803 0 1.228.361 1.228 1.043.001.182-.029.408-.076.704-.081.515-.255 1.618-.28 1.887zm-2.983 0h-.935l.535-3.36-1.196 3.36h-.637l-.08-3.34-.562 3.34H5.31l.731-4.37h1.345l.082 2.446.82-2.446h1.496l-.723 4.37zm17.04-1.584a1.569 1.569 0 00-.21-.014c-.53 0-.798.182-.798.54 0 .222.131.363.335.363.381 0 .656-.363.672-.889zm.68 1.584h-.775l.017-.368c-.236.291-.552.43-.98.43-.507 0-.854-.397-.854-.972 0-.865.604-1.37 1.642-1.37.106 0 .242.01.38.028a.873.873 0 00.038-.23c0-.236-.163-.324-.6-.324a3.106 3.106 0 00-.99.16l.13-.8c.466-.136.773-.188 1.118-.188.804 0 1.23.361 1.229 1.043.001.182-.029.408-.076.704-.08.515-.255 1.618-.28 1.887zm-10.579-.054c-.256.08-.455.115-.672.115-.478 0-.739-.274-.739-.78-.007-.157.069-.57.128-.948.054-.332.406-2.425.406-2.425h.93l-.109.538h.562l-.127.854h-.564c-.108.676-.262 1.518-.263 1.63 0 .183.097.263.32.263.106 0 .189-.011.252-.034l-.124.787zm2.85-.029a3.17 3.17 0 01-.953.144c-1.041 0-1.584-.544-1.584-1.585 0-1.215.69-2.11 1.628-2.11.766 0 1.256.501 1.256 1.287 0 .26-.034.515-.115.874h-1.851c-.063.515.267.73.808.73a2.2 2.2 0 00.966-.224l-.154.884zm-.522-2.107c.005-.074.099-.634-.432-.634-.296 0-.508.226-.595.634h1.027zm-5.924-.24c0 .449.218.759.713.992.378.178.437.23.437.392 0 .222-.167.322-.537.322-.28 0-.539-.044-.838-.14l-.129.82c.213.047.402.09.974.105.987 0 1.442-.375 1.442-1.188 0-.488-.19-.775-.659-.99-.392-.18-.437-.22-.437-.386 0-.192.155-.29.458-.29.183 0 .434.02.672.053l.133-.824a6.341 6.341 0 00-.823-.07c-1.047 0-1.409.547-1.406 1.203zm10.996-1.11c.26 0 .503.068.836.236l.153-.949c-.137-.053-.62-.37-1.028-.37-.626 0-1.155.311-1.527.824-.543-.18-.766.184-1.04.546l-.243.056c.019-.119.035-.237.03-.357h-.86c-.117 1.1-.325 2.214-.487 3.315l-.043.24h.936c.156-1.016.242-1.665.294-2.105l.352-.196c.053-.196.218-.262.548-.254-.044.24-.067.484-.066.729 0 1.162.627 1.886 1.634 1.886.26 0 .482-.034.827-.127l.165-.997c-.31.153-.565.225-.795.225-.544 0-.873-.402-.873-1.065 0-.962.49-1.637 1.188-1.637z" fill="#000"/><path d="M9.33 14.268h-.936l.537-3.36-1.197 3.36h-.637l-.08-3.34-.562 3.34h-.876l.731-4.37h1.345l.038 2.705.908-2.705h1.452l-.723 4.37z" fill="#fff"/><path d="M31.52 10.157l-.206 1.263c-.256-.337-.531-.58-.894-.58-.472 0-.902.357-1.183.884-.391-.081-.796-.22-.796-.22v.004c.031-.294.044-.474.04-.535h-.858c-.117 1.1-.325 2.214-.488 3.316l-.043.238h.936c.126-.82.223-1.502.294-2.042.32-.289.48-.54.803-.524a3.046 3.046 0 00-.227 1.153c0 .888.45 1.475 1.13 1.475.343 0 .606-.119.862-.393l-.044.33h.885l.712-4.37h-.922zm-1.169 3.549c-.318 0-.48-.236-.48-.7 0-.7.302-1.195.726-1.195.322 0 .496.245.496.697 0 .704-.306 1.198-.742 1.198z" fill="#000"/><path d="M11.633 12.684a1.557 1.557 0 00-.208-.014c-.53 0-.799.182-.799.54 0 .222.131.363.335.363.381 0 .656-.363.672-.889zm.68 1.584h-.774l.017-.368c-.236.29-.552.43-.98.43-.507 0-.854-.396-.854-.972 0-.865.604-1.37 1.642-1.37.106 0 .242.01.38.028a.874.874 0 00.037-.23c0-.236-.162-.324-.6-.324a3.124 3.124 0 00-.99.16l.13-.8c.466-.136.774-.188 1.12-.188.803 0 1.228.361 1.228 1.042.001.183-.03.409-.076.704-.081.515-.256 1.62-.28 1.888zm12.547-4.253l-.153.95c-.334-.169-.576-.237-.836-.237-.698 0-1.188.675-1.188 1.637 0 .663.33 1.065.873 1.065.23 0 .485-.072.795-.225l-.165.996a2.916 2.916 0 01-.826.128c-1.007 0-1.635-.724-1.635-1.886 0-1.563.867-2.655 2.107-2.655.408 0 .89.173 1.028.227zm1.51 2.67a1.553 1.553 0 00-.21-.015c-.53 0-.798.182-.798.54 0 .222.131.363.335.363.381 0 .656-.363.672-.889zm.68 1.583h-.776l.018-.368c-.236.29-.552.43-.98.43-.507 0-.855-.396-.855-.972 0-.865.605-1.37 1.643-1.37.106 0 .242.01.38.028a.882.882 0 00.037-.23c0-.236-.162-.324-.6-.324a3.125 3.125 0 00-.99.16l.13-.8c.466-.136.774-.188 1.12-.188.803 0 1.229.361 1.227 1.042.002.183-.028.409-.075.704-.081.515-.256 1.62-.28 1.888zm-10.579-.054c-.256.08-.456.115-.672.115-.478 0-.74-.274-.74-.78-.006-.158.07-.57.13-.948.053-.332.405-2.425.405-2.425h.93l-.11.538h.478l-.127.854h-.479c-.108.676-.262 1.517-.264 1.63 0 .183.098.262.32.262.107 0 .19-.01.253-.033l-.124.787zm2.85-.029c-.318.098-.627.145-.953.144-1.041 0-1.584-.544-1.584-1.585 0-1.216.69-2.11 1.627-2.11.767 0 1.257.5 1.257 1.287 0 .26-.034.515-.115.874h-1.851c-.063.515.267.73.808.73.332 0 .633-.068.966-.224l-.154.884zm-.522-2.107c.006-.074.099-.635-.433-.635-.296 0-.507.227-.594.635H18.8zm-5.924-.24c0 .449.218.759.712.992.379.178.438.23.438.392 0 .222-.168.322-.537.322-.28 0-.54-.044-.839-.14l-.128.82c.212.047.402.09.973.105.988 0 1.443-.375 1.443-1.187 0-.489-.19-.775-.66-.99-.391-.181-.437-.22-.437-.387 0-.192.156-.29.458-.29.184 0 .434.02.672.053l.133-.825a6.332 6.332 0 00-.823-.069c-1.046 0-1.408.546-1.405 1.204zM32 14.268h-.885l.044-.331c-.257.274-.52.393-.863.393-.68 0-1.13-.587-1.13-1.475 0-1.183.698-2.18 1.523-2.18.362 0 .637.149.893.485l.207-1.262h.923L32 14.268zm-1.38-.822c.435 0 .741-.493.741-1.197 0-.452-.174-.697-.495-.697-.425 0-.726.495-.726 1.194 0 .465.161.7.48.7zm-2.729-2.732c-.117 1.1-.325 2.214-.488 3.315l-.042.239h.935c.335-2.174.416-2.598.94-2.545.084-.445.24-.834.356-1.03-.392-.082-.611.14-.897.56.022-.182.064-.359.055-.54h-.859zm-7.7 0c-.117 1.1-.325 2.214-.488 3.315l-.043.239h.936c.335-2.174.415-2.598.94-2.545.084-.445.24-.834.355-1.03-.391-.082-.61.14-.897.56.023-.182.064-.359.056-.54h-.859zm12.22 3.275a.278.278 0 11.556 0 .278.278 0 01-.557 0zm.278.212a.211.211 0 000-.423.212.212 0 000 .423zm-.038-.09h-.057v-.244h.103c.022 0 .044 0 .063.012.02.014.031.037.031.061a.067.067 0 01-.043.064l.045.107h-.063l-.037-.096h-.042v.096zm0-.138h.031c.012 0 .025 0 .035-.005a.033.033 0 00.015-.028c0-.01-.006-.02-.014-.025-.01-.006-.026-.004-.037-.004h-.03v.062z" fill="#fff"/></g><defs><clipPath id="clip0"><path fill="#fff" d="M.44 0h37.44v24H.44z"/></clipPath></defs></svg>