<svg width="38" height="24" fill="none" xmlns="http://www.w3.org/2000/svg"><g clip-path="url(#clip0)"><path d="M1.92 0h33.6c1.06 0 1.92.86 1.92 1.92v20.16c0 1.06-.86 1.92-1.92 1.92H1.92A1.92 1.92 0 010 22.08V1.92C0 .86.86 0 1.92 0z" fill="#0E4595"/><path d="M14.074 16.739l1.6-9.396h2.562l-1.602 9.396h-2.56zm11.813-9.194a6.615 6.615 0 00-2.296-.395c-2.53 0-4.313 1.275-4.328 3.101-.015 1.35 1.272 2.104 2.244 2.553.997.46 1.332.755 1.327 1.166-.006.63-.796.917-1.532.917-1.025 0-1.57-.142-2.41-.493l-.33-.149-.36 2.104c.598.262 1.704.489 2.853.5 2.692 0 4.44-1.26 4.46-3.21.01-1.069-.673-1.882-2.15-2.553-.896-.434-1.444-.724-1.438-1.165 0-.39.464-.808 1.466-.808a4.727 4.727 0 011.917.36l.23.109.347-2.037zm6.59-.203H30.5c-.613 0-1.072.168-1.341.78l-3.804 8.61h2.69s.439-1.157.538-1.411l3.28.004c.077.329.312 1.408.312 1.408h2.377l-2.073-9.39zm-3.14 6.068c.212-.541 1.021-2.627 1.021-2.627-.015.025.21-.544.34-.896l.173.81.593 2.713h-2.126zM11.9 7.342L9.392 13.75l-.267-1.302c-.467-1.5-1.922-3.127-3.548-3.941l2.293 8.217 2.71-.003 4.032-9.379H11.9" fill="#fff"/><path d="M7.052 7.342h-4.13l-.032.196c3.213.777 5.339 2.657 6.221 4.915l-.898-4.318c-.155-.595-.604-.772-1.16-.793" fill="#F2AE14"/></g><defs><clipPath id="clip0"><path fill="#fff" d="M0 0h37.44v24H0z"/></clipPath></defs></svg>