<svg viewBox="0 0 24 24" xmlns="http://www.w3.org/2000/svg"><g style="stroke-width:2;fill:none;fill-rule:evenodd;stroke-linecap:round;stroke-linejoin:round" transform="translate(1 1)"><path d="m4.14 15.76c-2.44-1.76-4.14-4.13-4.14-5.22 0-1.91 5.27-7.66 10.54-7.66 1.8042928.06356301 3.559947.60164173 5.09 1.56m3.53 2.85c.954643.86366544 1.6242352 1.9970896 1.92 3.25 0 1.92-5.27 7.67-10.54 7.67-.82748303-.0073597-1.64946832-.1353738-2.44-.38"/><path d="m11.35 14.29c1.3567546-.2923172 2.4501897-1.2939955 2.86-2.62m-1.56-4.33c-1.5090443-.9785585-3.49511641-.77861361-4.77882585.48110127-1.28370945 1.25971488-1.52108848 3.24166123-.57117415 4.76889873"/><path d="m13.08 7.9c-.1699924-.15256531-.3916348-.2347875-.62-.23-.5522847 0-1 .44771525-1 1 .0046671.23144917.0894903.45410992.24.63"/><path d="m21.08 0-21.08 21.08"/></g></svg>
