<svg fill="none" height="40" viewBox="0 0 40 40" width="40" xmlns="http://www.w3.org/2000/svg" xmlns:xlink="http://www.w3.org/1999/xlink"><radialGradient id="a" cx="0" cy="0" gradientTransform="matrix(35.5623 0 0 35.4924 37.9331 5.91615)" gradientUnits="userSpaceOnUse" r="1"><stop offset="0" stop-color="#fff36e"/><stop offset=".5" stop-color="#fc4055"/><stop offset="1" stop-color="#e31587"/></radialGradient><radialGradient id="b" cx="0" cy="0" gradientTransform="matrix(27.6596 0 0 27.6052 3.95136 7.09923)" gradientUnits="userSpaceOnUse" r="1"><stop offset="0" stop-color="#c60084"/><stop offset="1" stop-color="#fc4055" stop-opacity=".01"/></radialGradient><radialGradient id="c" cx="0" cy="0" gradientTransform="matrix(52.5531 0 0 52.4499 43.465 3.15563)" gradientUnits="userSpaceOnUse" r="1"><stop offset="0" stop-color="#ffde67" stop-opacity=".6"/><stop offset=".66" stop-color="#fc4055" stop-opacity=".01"/></radialGradient><radialGradient id="d" cx="0" cy="0" gradientTransform="matrix(69.1489 0 0 69.0131 17.386 20.1131)" gradientUnits="userSpaceOnUse" r="1"><stop offset=".15" stop-color="#810220"/><stop offset=".27" stop-color="#fc4055" stop-opacity=".01"/></radialGradient><radialGradient id="e" cx="0" cy="0" gradientTransform="matrix(63.2218 0 0 63.0977 20.9422 21.6906)" gradientUnits="userSpaceOnUse" r="1"><stop offset=".12" stop-color="#810220"/><stop offset=".3" stop-color="#fc4055" stop-opacity=".01"/></radialGradient><radialGradient id="f" cx="0" cy="0" gradientTransform="matrix(39.2351 0 0 39.3293 34.4749 4.15524)" gradientUnits="userSpaceOnUse" r="1"><stop offset="0" stop-color="#ff9640"/><stop offset=".8" stop-color="#fc4055"/></radialGradient><radialGradient id="g" cx="0" cy="0" gradientTransform="matrix(39.942 0 0 40.0379 34.8283 6.63546)" gradientUnits="userSpaceOnUse" r="1"><stop offset=".09" stop-color="#ffde67"/><stop offset=".82" stop-color="#ff9640" stop-opacity=".01"/></radialGradient><radialGradient id="h" cx="0" cy="0" gradientTransform="matrix(19.0873 0 0 19.1332 24.9312 17.6193)" gradientUnits="userSpaceOnUse" r="1"><stop offset=".36" stop-color="#fc4055"/><stop offset=".59" stop-color="#ff9640" stop-opacity=".01"/></radialGradient><radialGradient id="i" cx="0" cy="0" gradientTransform="matrix(19.0873 0 0 19.1332 21.3965 18.6823)" gradientUnits="userSpaceOnUse" r="1"><stop offset=".22" stop-color="#fc4055" stop-opacity=".8"/><stop offset=".47" stop-color="#ff9640" stop-opacity=".01"/></radialGradient><radialGradient id="j" cx="0" cy="0" gradientTransform="matrix(46.4936 0 0 47.4344 39.0644 1.25234)" gradientUnits="userSpaceOnUse" r="1"><stop offset=".05" stop-color="#fff36e"/><stop offset=".55" stop-color="#ff9640"/><stop offset=".7" stop-color="#ff9640"/></radialGradient><linearGradient id="k" gradientUnits="userSpaceOnUse" x1="9.58461" x2="16.2576" y1=".3761" y2="24.8183"><stop offset="0" stop-color="#b833e1"/><stop offset=".37" stop-color="#9059ff"/><stop offset="1" stop-color="#0090ed"/></linearGradient><linearGradient id="l" gradientUnits="userSpaceOnUse" x1="41.9646" x2="29.2229" y1="6.1129" y2="-12.884"><stop offset="0" stop-color="#592acb" stop-opacity=".5"/><stop offset=".24" stop-color="#722291" stop-opacity=".01"/></linearGradient><linearGradient id="m" gradientUnits="userSpaceOnUse" x1="7.17059" x2="-10.392" y1="-5.8414" y2="35.7257"><stop offset="0" stop-color="#fff36e" stop-opacity=".8"/><stop offset=".09" stop-color="#fff36e" stop-opacity=".7"/><stop offset=".75" stop-color="#fff36e" stop-opacity=".01"/></linearGradient><path d="m35.5357 7.75375c-3.5618-4.72417-9.0767-7.574781-14.9906-7.74864363-4.5867-.09185187-7.755 1.28642363-9.5476 2.39456363 2.3985-1.39111 5.8696-2.180243 8.9086-2.14123 7.8173.098765 16.2133 5.42272 17.4603 15.01876 1.4321 11.0153-6.2405 20.2089-17.0336 20.237-11.8741.0302-19.09633-10.4834-17.20842-19.9269.0351-.463.10326-.9229.20395-1.3763.23295-2.4203.93632-4.77176 2.07061-6.92244-1.3674.70766-3.10864 2.94564-3.9679 5.01874-1.250809 3.163-1.691808 6.5883-1.28296 9.965.029629.2558.056296.5111.089876.7649 1.402334 8.0748 7.638284 14.449 15.680444 16.028 8.0422 1.5789 16.2252-1.9642 20.5766-8.9094 4.3513-6.9452 3.9698-15.8542-.9593-22.40205z" fill="url(#a)"/><path d="m35.5357 7.75375c-3.5618-4.72417-9.0767-7.574781-14.9906-7.74864363-4.5867-.09185187-7.755 1.28642363-9.5476 2.39456363 2.3985-1.39111 5.8696-2.180243 8.9086-2.14123 7.8173.098765 16.2133 5.42272 17.4603 15.01876 1.4321 11.0153-6.2405 20.2089-17.0336 20.237-11.8741.0302-19.09633-10.4834-17.20842-19.9269.0351-.463.10326-.9229.20395-1.3763.23295-2.4203.93632-4.77176 2.07061-6.92244-1.3674.70766-3.10864 2.94564-3.9679 5.01874-1.250809 3.163-1.691808 6.5883-1.28296 9.965.029629.2558.056296.5111.089876.7649 1.402334 8.0748 7.638284 14.449 15.680444 16.028 8.0422 1.5789 16.2252-1.9642 20.5766-8.9094 4.3513-6.9452 3.9698-15.8542-.9593-22.40205z" fill="url(#b)" opacity=".67"/><path d="m35.5357 7.75375c-3.5618-4.72417-9.0767-7.574781-14.9906-7.74864363-4.5867-.09185187-7.755 1.28642363-9.5476 2.39456363 2.3985-1.39111 5.8696-2.180243 8.9086-2.14123 7.8173.098765 16.2133 5.42272 17.4603 15.01876 1.4321 11.0153-6.2405 20.2089-17.0336 20.237-11.8741.0302-19.09633-10.4834-17.20842-19.9269.0351-.463.10326-.9229.20395-1.3763.23295-2.4203.93632-4.77176 2.07061-6.92244-1.3674.70766-3.10864 2.94564-3.9679 5.01874-1.250809 3.163-1.691808 6.5883-1.28296 9.965.029629.2558.056296.5111.089876.7649 1.402334 8.0748 7.638284 14.449 15.680444 16.028 8.0422 1.5789 16.2252-1.9642 20.5766-8.9094 4.3513-6.9452 3.9698-15.8542-.9593-22.40205z" fill="url(#c)"/><path d="m35.5357 7.75375c-3.5618-4.72417-9.0767-7.574781-14.9906-7.74864363-4.5867-.09185187-7.755 1.28642363-9.5476 2.39456363 2.3985-1.39111 5.8696-2.180243 8.9086-2.14123 7.8173.098765 16.2133 5.42272 17.4603 15.01876 1.4321 11.0153-6.2405 20.2089-17.0336 20.237-11.8741.0302-19.09633-10.4834-17.20842-19.9269.0351-.463.10326-.9229.20395-1.3763.23295-2.4203.93632-4.77176 2.07061-6.92244-1.3674.70766-3.10864 2.94564-3.9679 5.01874-1.250809 3.163-1.691808 6.5883-1.28296 9.965.029629.2558.056296.5111.089876.7649 1.402334 8.0748 7.638284 14.449 15.680444 16.028 8.0422 1.5789 16.2252-1.9642 20.5766-8.9094 4.3513-6.9452 3.9698-15.8542-.9593-22.40205z" fill="url(#d)"/><path d="m35.5357 7.75375c-3.5618-4.72417-9.0767-7.574781-14.9906-7.74864363-4.5867-.09185187-7.755 1.28642363-9.5476 2.39456363 2.3985-1.39111 5.8696-2.180243 8.9086-2.14123 7.8173.098765 16.2133 5.42272 17.4603 15.01876 1.4321 11.0153-6.2405 20.2089-17.0336 20.237-11.8741.0302-19.09633-10.4834-17.20842-19.9269.0351-.463.10326-.9229.20395-1.3763.23295-2.4203.93632-4.77176 2.07061-6.92244-1.3674.70766-3.10864 2.94564-3.9679 5.01874-1.250809 3.163-1.691808 6.5883-1.28296 9.965.029629.2558.056296.5111.089876.7649 1.402334 8.0748 7.638284 14.449 15.680444 16.028 8.0422 1.5789 16.2252-1.9642 20.5766-8.9094 4.3513-6.9452 3.9698-15.8542-.9593-22.40205z" fill="url(#e)"/><path d="m37.8473 14.7295c-1.1116-10.0286-10.0553-14.536252-17.9412-14.471067-3.0395.024691-6.5101.750127-8.9086 2.141237-.6347.37633-1.22451.82365-1.75806 1.33333.0637-.05284.25383-.20938.56889-.42568l.03111-.02123.02765-.01877c1.16391-.78694 2.44631-1.38246 3.79851-1.76395 2.1183-.585513 4.3139-.842495 6.5101-.761974 8.446.504364 15.1263 7.343494 15.4321 15.799004.1813 6.522-5.1565 11.722-11.3096 12.0232-4.4751.2193-8.6914-1.9462-10.7506-6.278-.4817-.9866-.8089-2.0414-.9699-3.1274-.9758-6.5926 3.4514-12.21483 7.5111-13.60693-2.1901-1.91308-7.678-1.78321-11.76245 1.22173-2.94123 2.16395-4.84938 5.4563-5.48148 9.3827-.45476 3.0127-.05437 6.0926 1.15556 8.8889 2.56273 6.0469 8.30657 10.1403 14.85877 10.5891.4902.0376.9814.0562 1.4736.0558 13.0676 0 18.7368-9.9195 17.5145-20.96z" fill="url(#f)"/><path d="m37.8473 14.7295c-1.1116-10.0286-10.0553-14.536252-17.9412-14.471067-3.0395.024691-6.5101.750127-8.9086 2.141237-.6347.37633-1.22451.82365-1.75806 1.33333.0637-.05284.25383-.20938.56889-.42568l.03111-.02123.02765-.01877c1.16391-.78694 2.44631-1.38246 3.79851-1.76395 2.1183-.585513 4.3139-.842495 6.5101-.761974 8.446.504364 15.1263 7.343494 15.4321 15.799004.1813 6.522-5.1565 11.722-11.3096 12.0232-4.4751.2193-8.6914-1.9462-10.7506-6.278-.4817-.9866-.8089-2.0414-.9699-3.1274-.9758-6.5926 3.4514-12.21483 7.5111-13.60693-2.1901-1.91308-7.678-1.78321-11.76245 1.22173-2.94123 2.16395-4.84938 5.4563-5.48148 9.3827-.45476 3.0127-.05437 6.0926 1.15556 8.8889 2.56273 6.0469 8.30657 10.1403 14.85877 10.5891.4902.0376.9814.0562 1.4736.0558 13.0676 0 18.7368-9.9195 17.5145-20.96z" fill="url(#g)"/><path d="m37.8473 14.7295c-1.1116-10.0286-10.0553-14.536252-17.9412-14.471067-3.0395.024691-6.5101.750127-8.9086 2.141237-.6347.37633-1.22451.82365-1.75806 1.33333.0637-.05284.25383-.20938.56889-.42568l.03111-.02123.02765-.01877c1.16391-.78694 2.44631-1.38246 3.79851-1.76395 2.1183-.585513 4.3139-.842495 6.5101-.761974 8.446.504364 15.1263 7.343494 15.4321 15.799004.1813 6.522-5.1565 11.722-11.3096 12.0232-4.4751.2193-8.6914-1.9462-10.7506-6.278-.4817-.9866-.8089-2.0414-.9699-3.1274-.9758-6.5926 3.4514-12.21483 7.5111-13.60693-2.1901-1.91308-7.678-1.78321-11.76245 1.22173-2.94123 2.16395-4.84938 5.4563-5.48148 9.3827-.45476 3.0127-.05437 6.0926 1.15556 8.8889 2.56273 6.0469 8.30657 10.1403 14.85877 10.5891.4902.0376.9814.0562 1.4736.0558 13.0676 0 18.7368-9.9195 17.5145-20.96z" fill="url(#h)" opacity=".53"/><path d="m37.8473 14.7295c-1.1116-10.0286-10.0553-14.536252-17.9412-14.471067-3.0395.024691-6.5101.750127-8.9086 2.141237-.6347.37633-1.22451.82365-1.75806 1.33333.0637-.05284.25383-.20938.56889-.42568l.03111-.02123.02765-.01877c1.16391-.78694 2.44631-1.38246 3.79851-1.76395 2.1183-.585513 4.3139-.842495 6.5101-.761974 8.446.504364 15.1263 7.343494 15.4321 15.799004.1813 6.522-5.1565 11.722-11.3096 12.0232-4.4751.2193-8.6914-1.9462-10.7506-6.278-.4817-.9866-.8089-2.0414-.9699-3.1274-.9758-6.5926 3.4514-12.21483 7.5111-13.60693-2.1901-1.91308-7.678-1.78321-11.76245 1.22173-2.94123 2.16395-4.84938 5.4563-5.48148 9.3827-.45476 3.0127-.05437 6.0926 1.15556 8.8889 2.56273 6.0469 8.30657 10.1403 14.85877 10.5891.4902.0376.9814.0562 1.4736.0558 13.0676 0 18.7368-9.9195 17.5145-20.96z" fill="url(#i)" opacity=".53"/><path d="m24.2982 28.5636c8.4444-.5136 12.0593-7.5062 12.2859-12.4666.3536-7.75066-4.2444-16.10621903-16.4084-15.355602-2.1963-.080039-4.3919.177443-6.5101.763462-1.3461.39768-2.6261.99208-3.79851 1.76395l-.02766.01876-.03111.02124c-.18897.13168-.37383.27028-.55457.4158 3.14855-1.76058 6.78645-2.44318 10.35905-1.94371 6.9837.91655 13.3689 6.34914 13.3689 13.5175 0 5.5156-4.2623 9.7284-9.2534 9.4257-7.4148-.4444-9.2839-8.0494-5.4266-11.3353-1.04-.2237-2.9946.2148-4.3556 2.2494-1.2212 1.8271-1.1521 4.6469-.3985 6.6474 1.9235 4.13 6.2084 6.6323 10.7506 6.278z" fill="url(#j)"/><path d="m35.5713 9.24806c-.5078-1.49708-1.3298-2.8683-2.4109-4.02173-1.2846-1.33864-2.8076-2.42602-4.4908-3.20642-1.4053-.69268-2.8871-1.217928-4.4149-1.564934-2.6931-.589514-5.4801-.606339-8.1802-.049383-2.8064.592593-5.2741 1.806917-6.83506 3.324937 1.24466-.70317 2.57876-1.23474 3.96596-1.58025 5.4777-1.376504 11.2793.13099 15.394 4 .8207.77827 1.5391 1.65775 2.1378 2.61729 2.4173 3.93033 2.1887 8.87163.3037 11.78563-1.4 2.165-4.3985 4.1976-7.196 4.1739 4.29.3238 8.4102-1.7394 10.721-5.3684 1.9698-3.0736 2.037-6.9852 1.0054-10.11064z" fill="url(#k)"/><path d="m35.5713 9.24806c-.5078-1.49708-1.3298-2.8683-2.4109-4.02173-1.2846-1.33864-2.8076-2.42602-4.4908-3.20642-1.4053-.69268-2.8871-1.217928-4.4149-1.564934-2.6931-.589514-5.4801-.606339-8.1802-.049383-2.8064.592593-5.2741 1.806917-6.83506 3.324937 1.24466-.70317 2.57876-1.23474 3.96596-1.58025 5.4777-1.376504 11.2793.13099 15.394 4 .8207.77827 1.5391 1.65775 2.1378 2.61729 2.4173 3.93033 2.1887 8.87163.3037 11.78563-1.4 2.165-4.3985 4.1976-7.196 4.1739 4.29.3238 8.4102-1.7394 10.721-5.3684 1.9698-3.0736 2.037-6.9852 1.0054-10.11064z" fill="url(#l)"/><path d="m35.5357 7.75374c-.5291-.69273-1.1035-1.34965-1.7195-1.96642-.4891-.51715-1.0133-.99994-1.5689-1.44494.3197.27838.6245.57344.9131.88395 1.081 1.1535 1.903 2.5247 2.4109 4.02173 1.0316 3.12544.9644 7.03704-1.0055 10.10914-2.226 3.5036-6.1514 5.5543-10.2987 5.3802-.1783 0-.358 0-.5388-.0133-7.4148-.4444-9.2839-8.0494-5.4262-11.3353-1.0405-.2237-2.995.2148-4.356 2.2494-1.2212 1.8271-1.1521 4.6469-.3985 6.6474-.4816-.9866-.8086-2.0414-.9694-3.1274-.9763-6.5926 3.4509-12.21483 7.5106-13.60693-2.1901-1.91309-7.678-1.78321-11.76246 1.22173-2.40228 1.79573-4.15157 4.3276-4.98124 7.2099.26442-2.3389.96083-4.60828 2.05383-6.69286-1.36741.70765-3.10864 2.94566-3.9679 5.01876-1.250567 3.1625-1.691563 6.5873-1.282966 9.9635.02963.2558.056297.5111.089877.7649 1.402339 8.0748 7.638279 14.449 15.680459 16.028 8.0421 1.5789 16.2252-1.9642 20.5765-8.9094 4.3514-6.9452 3.9699-15.8543-.9592-22.40206z" fill="url(#m)"/></svg>