<?xml version="1.0" encoding="UTF-8"?>
<svg id="svg4" width="24" height="24" version="1.1" viewBox="0 0 24 24" xmlns="http://www.w3.org/2000/svg">
 <path id="path2" d="m10.694 1.3113-2.8968 2.9664s-1.1147 0.84264-1.7888-0.0206c-0.98785-1.2811 0.80095-2.0347-0.70751-3.6309-1.1614-1.2126-3.2305-0.32199-4.205 0.68508-1.0012 1.0002-1.5352 3.0349-0.48725 4.1447 0.75423 0.78099 1.5352 0.63028 2.1492 0.54807 0.26698-0.0274 0.48057-0.0685 0.64076-0.0343 0.53397 0.0959 0.93445 0.42475 0.96782 1.0276 0.0467 0.58917-0.36043 1.0961-0.36043 1.0961s-3.5776 3.3637-3.6443 3.9666c-0.0467 0.58917 0.35375 0.91115 0.35375 0.91115l2.2694 2.4389s1.1547 0.54806 1.8556-0.0959c1.1347-1.0413-0.33373-2.2608 0.82765-3.4939 0.88105-0.93171 2.6832-0.52066 3.8579 0.66453 1.148 1.1509 1.7487 2.9938 0.66746 4.0831-0.58737 0.58917-1.3216 0.53436-1.9824 0.47956-0.56734-0.0411-1.0813-0.0822-1.4217 0.26033-0.66747 0.68508-0.22027 1.6236-0.22027 1.6236s4.0048 4.2475 4.3252 4.5558c0.31371 0.31514 0.53397 0.54807 1.148 0.54807 0.61406 0 0.83433-0.23293 1.1547-0.54807 0.3137-0.30143 4.3185-4.5489 4.3185-4.5489s0.46723-0.93855-0.21358-1.6168c-0.33373-0.34254-0.85435-0.30143-1.415-0.25348-0.66746 0.048-1.4017 0.10276-1.989-0.47955-1.0813-1.0961-0.46722-2.9458 0.66746-4.0968 1.1747-1.192 2.9769-1.6031 3.8579-0.68508 1.1681 1.2468-0.30703 2.4663 0.82098 3.5076 0.70083 0.65082 1.8489 0.0959 1.8489 0.0959l2.2694-2.4389s0.40048-0.32198 0.35375-0.918c-0.0534-0.59602-3.6377-3.9735-3.6377-3.9735s-0.41383-0.5001-0.37378-1.0961c0.0334-0.59602 0.43385-0.92486 0.96782-1.0276 0.15351-0.0206 0.37378 0.0137 0.63409 0.048 0.62074 0.0685 1.4017 0.22607 2.1492-0.54807 1.0679-1.1235 0.52062-3.1514-0.46722-4.1516-1.0012-1.0002-3.0703-1.8977-4.205-0.68508-1.5218 1.6031 0.26699 2.3567-0.72086 3.6309-0.66746 0.86319-1.7888 0.0205-1.7888 0.0205l-2.8968-2.9664c-0.26698-0.28088-0.73421-0.82895-1.3349-0.82895-0.60072 0-1.0679 0.54807-1.3483 0.8358z" fill="#333" fill-rule="evenodd" stroke-width=".067621"/>
</svg>