<svg width="410" height="176" viewBox="0 0 410 176" fill="none" xmlns="http://www.w3.org/2000/svg">
<g clip-path="url(#clip0_22336_11798)">
<path d="M0 8C0 3.58172 3.58172 0 8 0H402C406.418 0 410 3.58172 410 8V168C410 172.418 406.418 176 402 176H7.99999C3.58171 176 0 172.418 0 168V8Z" fill="#E4D7FC"/>
<g clip-path="url(#clip1_22336_11798)">
<path d="M-999 37.4866C-999 32.7996 -995.2 29 -990.513 29H350.373C355.06 29 358.859 32.7996 358.859 37.4866V121H-999V37.4866Z" fill="#F9F9FB"/>
<mask id="path-4-inside-1_22336_11798" fill="white">
<path d="M-999 75.6768H358.859V118.11H-999V75.6768Z"/>
</mask>
<path d="M-999 75.6768V76.8174H358.859V75.6768V74.5361H-999V75.6768Z" fill="#E8E8E8" mask="url(#path-4-inside-1_22336_11798)"/>
<path d="M-775.691 82.1191H128.691C132.439 82.1193 135.477 85.1573 135.478 88.9053V107.7C135.478 111.448 132.44 114.487 128.691 114.487H-775.691C-779.44 114.487 -782.478 111.448 -782.478 107.7V88.9053C-782.477 85.1573 -779.439 82.1193 -775.691 82.1191Z" fill="white"/>
<path d="M-775.691 82.1191H128.691C132.439 82.1193 135.477 85.1573 135.478 88.9053V107.7C135.478 111.448 132.44 114.487 128.691 114.487H-775.691C-779.44 114.487 -782.478 111.448 -782.478 107.7V88.9053C-782.477 85.1573 -779.439 82.1193 -775.691 82.1191Z" stroke="#E8E8E8" stroke-width="1.04414"/>
<path fill-rule="evenodd" clip-rule="evenodd" d="M256.799 89.5121C256.066 89.5121 255.473 90.1054 255.473 90.8382V92.4294C255.473 92.8688 255.117 93.225 254.677 93.225H251.76C251.467 93.225 251.229 93.4629 251.229 93.7555V95.3467H252.555C254.167 95.3467 255.473 96.6523 255.473 98.264C255.473 99.8756 254.167 101.181 252.555 101.181H251.229V102.772C251.229 103.065 251.467 103.303 251.76 103.303H261.838C262.13 103.303 262.368 103.065 262.368 102.772V93.7555C262.368 93.4629 262.13 93.225 261.838 93.225H258.92C258.481 93.225 258.125 92.8688 258.125 92.4294V90.8382C258.125 90.1054 257.532 89.5121 256.799 89.5121ZM253.881 90.8382C253.881 89.2266 255.187 87.9209 256.799 87.9209C258.41 87.9209 259.716 89.2266 259.716 90.8382V91.6338H261.838C263.009 91.6338 263.959 92.5841 263.959 93.7555V102.772C263.959 103.944 263.009 104.894 261.838 104.894H251.76C250.588 104.894 249.638 103.944 249.638 102.772V100.386C249.638 99.9462 249.994 99.59 250.434 99.59H252.555C253.288 99.59 253.881 98.9968 253.881 98.264C253.881 97.5312 253.288 96.9379 252.555 96.9379H250.434C249.994 96.9379 249.638 96.5817 249.638 96.1423V93.7555C249.638 92.5841 250.588 91.6338 251.76 91.6338H253.881V90.8382Z" fill="#5B5B66"/>
<path d="M293.707 88.4951C295.817 88.4952 297.84 89.3331 299.333 90.8252C300.825 92.3173 301.663 94.3411 301.663 96.4512C301.663 98.5612 300.825 100.585 299.333 102.077C297.84 103.569 295.817 104.407 293.707 104.407C291.596 104.407 289.573 103.569 288.081 102.077C286.589 100.585 285.751 98.5612 285.75 96.4512C285.75 94.3411 286.588 92.3173 288.081 90.8252C289.573 89.3331 291.596 88.4951 293.707 88.4951ZM293.707 89.8213C290.051 89.8213 287.077 92.7956 287.077 96.4512C287.077 100.107 290.051 103.081 293.707 103.081C297.362 103.081 300.336 100.107 300.336 96.4512C300.336 92.7956 297.362 89.8214 293.707 89.8213ZM296.883 98.042C297.183 98.0429 297.48 98.108 297.753 98.2324C298.027 98.357 298.271 98.5386 298.468 98.7646C297.494 100.389 295.735 101.49 293.707 101.49C291.678 101.49 289.918 100.389 288.944 98.7646C289.334 98.3256 289.897 98.0421 290.529 98.042H296.883ZM293.707 91.6777C294.41 91.6778 295.084 91.9568 295.582 92.4541C296.079 92.9514 296.359 93.6258 296.359 94.3291C296.359 95.0325 296.079 95.7077 295.582 96.2051C295.084 96.7022 294.41 96.9814 293.707 96.9814C293.003 96.9814 292.329 96.7022 291.832 96.2051C291.334 95.7077 291.054 95.0325 291.054 94.3291C291.054 93.6258 291.334 92.9514 291.832 92.4541C292.329 91.9569 293.003 91.6777 293.707 91.6777Z" fill="#9D9D9D"/>
<path d="M339.278 101.181H326.548V99.5901H339.278V101.181Z" fill="#9D9D9D"/>
<path d="M339.278 96.9381H326.548V95.3468H339.278V96.9381Z" fill="#9D9D9D"/>
<path d="M339.278 92.6948H326.548V91.1035H339.278V92.6948Z" fill="#9D9D9D"/>
<mask id="path-13-inside-2_22336_11798" fill="white">
<path d="M-999 121H358.859V1047.24H-999V121Z"/>
</mask>
<path d="M-999 121H358.859V1047.24H-999V121Z" fill="#E2F7FF"/>
<path d="M-999 121V121.5H358.859V121V120.5H-999V121Z" fill="black" fill-opacity="0.08" mask="url(#path-13-inside-2_22336_11798)"/>
</g>
<g filter="url(#filter0_d_22336_11798)">
<g clip-path="url(#clip2_22336_11798)">
<path d="M153.09 97.4406C153.09 64.0515 180.157 36.9844 213.546 36.9844C246.935 36.9844 274.002 64.0515 274.002 97.4406C274.002 130.83 246.935 157.897 213.546 157.897C180.157 157.897 153.09 130.83 153.09 97.4406Z" fill="#F9F9FB"/>
<path d="M154.176 75.4434C154.176 71.2516 157.574 67.8535 161.766 67.8535H264.056C268.248 67.8535 271.646 71.2516 271.646 75.4434V120.983C271.646 125.175 268.248 128.573 264.056 128.573H161.766C157.574 128.573 154.176 125.175 154.176 120.983V75.4434Z" fill="white"/>
<g clip-path="url(#clip3_22336_11798)">
<path d="M184.116 109.598C177.838 109.598 172.731 104.491 172.731 98.213C172.731 91.9354 177.838 86.8281 184.116 86.8281C190.393 86.8281 195.501 91.9354 195.501 98.213C195.501 104.491 190.393 109.598 184.116 109.598Z" fill="#008E00"/>
</g>
<path d="M179.372 98.2132L182.092 101.18C182.489 101.613 183.18 101.585 183.54 101.122L188.385 94.8926" stroke="white" stroke-width="2.84621" stroke-miterlimit="10" stroke-linecap="round"/>
<path d="M209.523 106.713L203.488 89.3327H206.885L211.281 103.365H211.365L215.762 89.3327H219.158L213.124 106.713H209.523ZM222.747 100.968V98.4624H227.156C228.272 98.4624 229.139 98.1773 229.757 97.6072C230.376 97.0291 230.685 96.2181 230.685 95.1743V95.1502C230.685 94.0983 230.376 93.2873 229.757 92.7172C229.139 92.1471 228.272 91.862 227.156 91.862H222.747V89.3327H227.927C229.099 89.3327 230.127 89.5736 231.01 90.0553C231.893 90.5371 232.584 91.2156 233.082 92.0909C233.588 92.9581 233.84 93.9738 233.84 95.1381V95.1622C233.84 96.3185 233.588 97.3342 233.082 98.2095C232.584 99.0767 231.893 99.7552 231.01 100.245C230.127 100.727 229.099 100.968 227.927 100.968H222.747ZM221.194 106.713V89.3327H224.289V106.713H221.194ZM236.273 106.713V89.3327H239.044L249.089 103.714L246.27 101.486H247.619V89.3327H250.691V106.713H247.933L237.887 92.2956L240.694 94.5118H239.345V106.713H236.273Z" fill="#5B5B66"/>
<line opacity="0.9" x1="153.09" y1="66.9277" x2="274.002" y2="66.9277" stroke="#E8E8E8" stroke-width="1.71103"/>
<mask id="path-21-inside-3_22336_11798" fill="white">
<path d="M159.936 128.24H270.582V164.742H159.936V128.24Z"/>
</mask>
<path d="M159.936 128.24H270.582V164.742H159.936V128.24Z" fill="#E2F7FF"/>
<path d="M159.936 128.24V128.74H270.582V128.24V127.74H159.936V128.24Z" fill="black" fill-opacity="0.08" mask="url(#path-21-inside-3_22336_11798)"/>
</g>
</g>
</g>
<defs>
<filter id="filter0_d_22336_11798" x="147.025" y="30.92" width="133.041" height="133.041" filterUnits="userSpaceOnUse" color-interpolation-filters="sRGB">
<feFlood flood-opacity="0" result="BackgroundImageFix"/>
<feColorMatrix in="SourceAlpha" type="matrix" values="0 0 0 0 0 0 0 0 0 0 0 0 0 0 0 0 0 0 127 0" result="hardAlpha"/>
<feOffset/>
<feGaussianBlur stdDeviation="3.03219"/>
<feComposite in2="hardAlpha" operator="out"/>
<feColorMatrix type="matrix" values="0 0 0 0 0 0 0 0 0 0 0 0 0 0 0 0 0 0 0.18 0"/>
<feBlend mode="normal" in2="BackgroundImageFix" result="effect1_dropShadow_22336_11798"/>
<feBlend mode="normal" in="SourceGraphic" in2="effect1_dropShadow_22336_11798" result="shape"/>
</filter>
<clipPath id="clip0_22336_11798">
<path d="M0 8C0 3.58172 3.58172 0 8 0H402C406.418 0 410 3.58172 410 8V168C410 172.418 406.418 176 402 176H7.99999C3.58171 176 0 172.418 0 168V8Z" fill="white"/>
</clipPath>
<clipPath id="clip1_22336_11798">
<rect x="-999" y="29" width="1357.86" height="1018.24" rx="9.12547" fill="white"/>
</clipPath>
<clipPath id="clip2_22336_11798">
<path d="M153.09 97.4406C153.09 64.0515 180.157 36.9844 213.546 36.9844C246.935 36.9844 274.002 64.0515 274.002 97.4406C274.002 130.83 246.935 157.897 213.546 157.897C180.157 157.897 153.09 130.83 153.09 97.4406Z" fill="white"/>
</clipPath>
<clipPath id="clip3_22336_11798">
<rect width="22.7697" height="22.7697" fill="white" transform="translate(172.731 86.8281)"/>
</clipPath>
</defs>
</svg>
