<svg height="12" viewBox="0 0 12 12" width="12" xmlns="http://www.w3.org/2000/svg"><path d="m11.1998 0c-.4418 0-.8.358172-.8.8v1.9344c-1.38752-2.322951-4.23833-3.320412-6.77142-2.369233-2.5331.951183-4.022793 3.578503-3.5384224 6.240593.4843704 2.66208 2.8040424 4.59624 5.5098324 4.5942622 1.48606.0041778 2.91203-.5864222 3.96-1.6400222.30318-.3139.29884-.81287-.00974-1.12145-.30859-.30859-.80755-.31293-1.12146-.00975-1.23579 1.25883-3.14847 1.56362-4.71432.75126s-2.41808-2.55159-2.10056-4.28682c.31751-1.73523 1.73041-3.05998 3.48246-3.26521 1.75206-.20524 3.43287.7571 4.14282 2.37197h-2.0392c-.44183 0-.8.35817-.8.8s.35817.8.8.8h4.00001c.4418 0 .8-.35817.8-.8v-4c0-.441828-.3582-.8-.8-.8z" /></svg>
