<svg fill="none" viewBox="0 0 11 14" xmlns="http://www.w3.org/2000/svg"><g clip-rule="evenodd" fill-rule="evenodd"><path d="M3.656 9.752a.406.406 0 00.406-.406V4.47a.406.406 0 00-.812 0v4.875c0 .224.182.406.406.406zm1.625 0a.406.406 0 00.407-.406V4.47a.406.406 0 00-.813 0v4.875c0 .224.182.406.406.406zm2.032-.406a.406.406 0 11-.813 0V4.47a.406.406 0 01.813 0z"/><path d="M9.75 1.627H7.272a2.031 2.031 0 00-3.981 0H.813a.812.812 0 100 1.625v7.313a2.437 2.437 0 002.437 2.437h4.063a2.437 2.437 0 002.437-2.438V3.252a.813.813 0 000-1.625zM5.281.815c.51.005.963.33 1.13.812h-2.26a1.21 1.21 0 011.13-.812zm2.032 10.562a.812.812 0 00.812-.813V3.253H2.437v7.313c0 .448.364.812.813.812z"/></g></svg>