<svg height="2in" width="3in" viewBox="0 0 216 144" xmlns="http://www.w3.org/2000/svg"><style>@keyframes beat{0%,60%,90%,to{transform:scale(1)}25%{transform:scale(.8)}80%{transform:scale(.9)}}.heart{animation:beat 1.5s infinite}</style><radialGradient id="a" cx="133.87" cy="114.93" gradientUnits="userSpaceOnUse" r="128.97"><stop offset=".4" stop-color="#cdcdd4" stop-opacity="0"/><stop offset=".58" stop-color="#cdcdd4" stop-opacity=".02"/><stop offset=".77" stop-color="#cdcdd4" stop-opacity=".08"/><stop offset=".96" stop-color="#cdcdd4" stop-opacity=".18"/><stop offset="1" stop-color="#cdcdd4" stop-opacity=".2"/></radialGradient><radialGradient id="b" cx="89.36" cy="94.91" gradientUnits="userSpaceOnUse" r="102.61"><stop offset=".26" stop-color="#cdcdd4" stop-opacity="0"/><stop offset=".4" stop-color="#cdcdd4" stop-opacity=".02"/><stop offset=".55" stop-color="#cdcdd4" stop-opacity=".08"/><stop offset=".69" stop-color="#cdcdd4" stop-opacity=".18"/><stop offset=".72" stop-color="#cdcdd4" stop-opacity=".2"/></radialGradient><radialGradient id="c" cx="75.77" cy="203.9" gradientUnits="userSpaceOnUse" r="150.75"><stop offset=".27" stop-color="#cdcdd4" stop-opacity="0"/><stop offset=".46" stop-color="#cdcdd4" stop-opacity=".02"/><stop offset=".66" stop-color="#cdcdd4" stop-opacity=".08"/><stop offset=".86" stop-color="#cdcdd4" stop-opacity=".18"/><stop offset=".9" stop-color="#cdcdd4" stop-opacity=".2"/></radialGradient><linearGradient id="d" gradientUnits="userSpaceOnUse" x1="105.4" x2="182.03" y1="76.22" y2="-.41"><stop offset=".43" stop-color="#00b3f4"/><stop offset=".61" stop-color="#00bbf6"/><stop offset=".89" stop-color="#00d2fc"/><stop offset="1" stop-color="#0df"/></linearGradient><linearGradient id="e" gradientUnits="userSpaceOnUse" x1="49.63" x2="109.11" y1="105.11" y2="45.64"><stop offset="0" stop-color="#c689ff"/><stop offset="1" stop-color="#d74cf0"/></linearGradient><linearGradient id="f" gradientUnits="userSpaceOnUse" x1="19.43" x2="120.37" y1="141.35" y2="40.41"><stop offset=".22" stop-color="#b833e1"/><stop offset=".91" stop-color="#ff4f5e"/></linearGradient><linearGradient id="g" gradientUnits="userSpaceOnUse" x1="62.25" x2="181.48" y1="169.32" y2="50.09"><stop offset=".28" stop-color="#7542e5"/><stop offset=".42" stop-color="#824deb"/><stop offset=".79" stop-color="#a067fa"/><stop offset="1" stop-color="#ab71ff"/></linearGradient><circle cx="106.58" cy="72" fill="url(#a)" r="67.79"/><path d="M74.68 36.27a9.51 9.51 0 01-9.47 9.51H27.14a7.27 7.27 0 010-14.54 7.15 7.15 0 011.74.22 7.82 7.82 0 01-.2-1.69 7.5 7.5 0 017.51-7.49 7.42 7.42 0 014.23 1.32 12.6 12.6 0 0124.79 3.16 9.51 9.51 0 019.47 9.51z" fill="url(#b)"/><path d="M193.59 105.85a10.8 10.8 0 00-2.62.32 11.09 11.09 0 00.29-2.53 11.31 11.31 0 00-17.69-9.32 19 19 0 00-37.36 4.78 14.27 14.27 0 100 28.54h57.38a10.9 10.9 0 100-21.79z" fill="url(#c)"/><rect fill="url(#d)" height="61.41" rx="5.4" width="75.77" x="106.31" y="6.71"/><path d="M172.01 32.2H177v9.99h-4.99z" fill="#0df"/><path class="heart" d="M149.54 30.15a6.26 6.26 0 00-8.85 0l-1.26 1.26-1.26-1.26a6.26 6.26 0 00-8.85 8.85l9 9a1.51 1.51 0 001.08.45 1.53 1.53 0 001.08-.45l9-9a6.26 6.26 0 00.06-8.85z" fill="#f9f9fa" style="transform-origin:65% 25%"/><path d="M66.08 101.22h29.85v8.65H66.08z" fill="#ff848b"/><path d="M43.55 51.72h71.63v47.31H43.55z" fill="url(#e)"/><path d="M123 103.81h-2V50.05a3.86 3.86 0 00-3.86-3.86H41.65a3.86 3.86 0 00-3.86 3.86v53.76h-1.95a1.92 1.92 0 00-1.93 1.92v3.9a1.92 1.92 0 001.93 1.93H123a1.93 1.93 0 001.93-1.93v-3.9a1.93 1.93 0 00-1.93-1.92zm-35.82 3.87H71.66v-3.87h15.49z" fill="url(#f)"/><path class="heart" d="M89.52 67.33a6.28 6.28 0 00-8.85 0l-1.27 1.26-1.26-1.26a6.26 6.26 0 00-8.85 0 6.26 6.26 0 000 8.85l9 9a1.51 1.51 0 002.15 0l9-9a6.26 6.26 0 00.08-8.85z" fill="#f9f9fa" style="transform-origin:37% 52%"/><rect fill="url(#g)" height="62.76" rx="5.4" width="41.61" x="104.85" y="74.54"/><path d="M121.72 127.06h7.75v3.87h-7.75z" fill="#ab71ff"/><path class="heart" d="M135.7 93.67a6.28 6.28 0 00-8.85 0l-1.26 1.27-1.26-1.26a6.26 6.26 0 00-8.85 8.85l9 9a1.53 1.53 0 001.08.45 1.51 1.51 0 001.08-.45l9-9a6.26 6.26 0 00.06-8.86z" fill="#f9f9fa" style="transform-origin:58% 69%"/></svg>