<?xml version="1.0" encoding="UTF-8"?>
<svg xmlns="http://www.w3.org/2000/svg" xmlns:xlink="http://www.w3.org/1999/xlink" width="180px" height="40px" viewBox="0 0 180 40" version="1.1">
<defs>
<linearGradient id="linear0" gradientUnits="userSpaceOnUse" x1="89.359398" y1="625.67688" x2="52.020901" y2="561.004822" gradientTransform="matrix(0.37037,0,0,-0.37037,0,240.740741)">
<stop offset="0" style="stop-color:rgb(100%,59.607846%,5.490196%);stop-opacity:1;"/>
<stop offset="0.2075" style="stop-color:rgb(100%,44.313726%,22.352941%);stop-opacity:1;"/>
<stop offset="0.3633" style="stop-color:rgb(100%,34.509805%,32.941177%);stop-opacity:1;"/>
<stop offset="0.4563" style="stop-color:rgb(100%,30.980393%,36.862746%);stop-opacity:1;"/>
<stop offset="0.6929" style="stop-color:rgb(100%,21.568628%,31.37255%);stop-opacity:1;"/>
<stop offset="0.8575" style="stop-color:rgb(97.647059%,13.333334%,38.039216%);stop-opacity:1;"/>
<stop offset="1" style="stop-color:rgb(96.078432%,8.235294%,42.352942%);stop-opacity:1;"/>
</linearGradient>
<linearGradient id="linear1" gradientUnits="userSpaceOnUse" x1="89.359398" y1="625.67688" x2="52.020901" y2="561.004822" gradientTransform="matrix(0.37037,0,0,-0.37037,0,240.740741)">
<stop offset="0" style="stop-color:rgb(100%,95.686275%,30.980393%);stop-opacity:0.8;"/>
<stop offset="0.75" style="stop-color:rgb(100%,95.686275%,30.980393%);stop-opacity:0;"/>
</linearGradient>
<linearGradient id="linear2" gradientUnits="userSpaceOnUse" x1="89.554398" y1="553.694214" x2="89.554398" y2="630.41333" gradientTransform="matrix(0.37037,0,0,-0.37037,0,240.740741)">
<stop offset="0" style="stop-color:rgb(22.745098%,55.686277%,90.196079%);stop-opacity:1;"/>
<stop offset="0.2359" style="stop-color:rgb(36.078432%,47.450981%,94.117647%);stop-opacity:1;"/>
<stop offset="0.6293" style="stop-color:rgb(56.470591%,34.901962%,100%);stop-opacity:1;"/>
<stop offset="1" style="stop-color:rgb(75.686276%,22.352941%,90.196079%);stop-opacity:1;"/>
</linearGradient>
<linearGradient id="linear3" gradientUnits="userSpaceOnUse" x1="76.5224" y1="633.359985" x2="110.738098" y2="599.144409" gradientTransform="matrix(0.37037,0,0,-0.37037,0,240.740741)">
<stop offset="0" style="stop-color:rgb(43.137255%,0%,54.509807%);stop-opacity:0.5;"/>
<stop offset="0.5" style="stop-color:rgb(78.431374%,27.450982%,79.607844%);stop-opacity:0;"/>
</linearGradient>
<filter id="alpha" filterUnits="objectBoundingBox" x="0%" y="0%" width="100%" height="100%">
  <feColorMatrix type="matrix" in="SourceGraphic" values="0 0 0 0 1 0 0 0 0 1 0 0 0 0 1 0 0 0 1 0"/>
</filter>
<mask id="mask0">
  <g filter="url(#alpha)">
<rect x="0" y="0" width="180" height="40" style="fill:rgb(0%,0%,0%);fill-opacity:0.9;stroke:none;"/>
  </g>
</mask>
<linearGradient id="linear4" gradientUnits="userSpaceOnUse" x1="110.937401" y1="591.276489" x2="91.248802" y2="571.587891" gradientTransform="matrix(0.37037,0,0,-0.37037,0,240.740741)">
<stop offset="0.136" style="stop-color:rgb(41.568628%,16.862746%,91.764706%);stop-opacity:0;"/>
<stop offset="0.2995" style="stop-color:rgb(40.000001%,17.254902%,90.196079%);stop-opacity:0.0945975;"/>
<stop offset="0.4689" style="stop-color:rgb(34.901962%,18.431373%,85.882354%);stop-opacity:0.1926;"/>
<stop offset="0.641" style="stop-color:rgb(27.058825%,20.392157%,78.823531%);stop-opacity:0.2923;"/>
<stop offset="0.815" style="stop-color:rgb(15.686275%,23.137255%,68.627453%);stop-opacity:0.393;"/>
<stop offset="0.989" style="stop-color:rgb(1.176471%,26.666668%,55.29412%);stop-opacity:0.4936;"/>
<stop offset="1" style="stop-color:rgb(0%,27.058825%,54.509807%);stop-opacity:0.5;"/>
</linearGradient>
<clipPath id="clip1">
  <rect x="0" y="0" width="180" height="40"/>
</clipPath>
<g id="surface5" clip-path="url(#clip1)">
<path style=" stroke:none;fill-rule:nonzero;fill:url(#linear4);" d="M 37.222656 20.890625 L 37.222656 25.628906 C 37.222656 26 37.035156 26.332031 36.703125 26.519531 L 33.480469 28.371094 L 34 29.183594 C 34.59375 30.148438 35.851562 30.445312 36.851562 29.890625 L 38.445312 28.964844 C 39.554688 28.332031 40.257812 27.148438 40.257812 25.890625 L 40.257812 20.890625 Z M 37.222656 20.890625 "/>
</g>
<mask id="mask1">
  <g filter="url(#alpha)">
<rect x="0" y="0" width="180" height="40" style="fill:rgb(0%,0%,0%);fill-opacity:0.9;stroke:none;"/>
  </g>
</mask>
<linearGradient id="linear5" gradientUnits="userSpaceOnUse" x1="81.3452" y1="578.758972" x2="85.974998" y2="573.241272" gradientTransform="matrix(0.37037,0,0,-0.37037,0,240.740741)">
<stop offset="0" style="stop-color:rgb(58.823532%,5.490196%,9.411765%);stop-opacity:0.6;"/>
<stop offset="0.1683" style="stop-color:rgb(66.274512%,8.235294%,13.333334%);stop-opacity:0.4653;"/>
<stop offset="0.5065" style="stop-color:rgb(85.09804%,15.686275%,23.529412%);stop-opacity:0.1948;"/>
<stop offset="0.75" style="stop-color:rgb(100%,21.568628%,31.37255%);stop-opacity:0;"/>
</linearGradient>
<clipPath id="clip2">
  <rect x="0" y="0" width="180" height="40"/>
</clipPath>
<g id="surface8" clip-path="url(#clip2)">
<path style=" stroke:none;fill-rule:nonzero;fill:url(#linear5);" d="M 33.257812 28 L 31.851562 25.925781 C 31.109375 26.59375 30.222656 27.109375 29.296875 27.445312 L 30.777344 29.667969 C 31.59375 29.148438 32.445312 28.59375 33.257812 28 Z M 33.257812 28 "/>
</g>
</defs>
<g id="surface1">
<path style=" stroke:none;fill-rule:nonzero;fill:rgb(13.333334%,0%,20%);fill-opacity:1;" d="M 46.703125 14.109375 L 54.332031 14.109375 L 54.332031 16.296875 L 49.035156 16.296875 L 49.035156 19.035156 L 54.332031 19.035156 L 54.332031 21.183594 L 49.035156 21.183594 L 49.035156 25.925781 L 46.742188 25.925781 L 46.742188 14.109375 Z M 46.703125 14.109375 "/>
<path style=" stroke:none;fill-rule:nonzero;fill:rgb(13.333334%,0%,20%);fill-opacity:1;" d="M 55.703125 14.703125 C 55.703125 14.296875 55.851562 13.925781 56.109375 13.667969 C 56.371094 13.40625 56.703125 13.257812 57.148438 13.257812 C 57.59375 13.257812 57.925781 13.40625 58.183594 13.667969 C 58.445312 13.925781 58.59375 14.296875 58.59375 14.703125 C 58.59375 15.109375 58.445312 15.445312 58.183594 15.742188 C 57.925781 16 57.554688 16.148438 57.148438 16.148438 C 56.742188 16.148438 56.371094 16 56.109375 15.742188 C 55.851562 15.480469 55.703125 15.109375 55.703125 14.703125 Z M 56 17.183594 L 58.296875 17.183594 L 58.296875 25.925781 L 56 25.925781 Z M 56 17.183594 "/>
<path style=" stroke:none;fill-rule:nonzero;fill:rgb(13.333334%,0%,20%);fill-opacity:1;" d="M 60.074219 17.183594 L 62.257812 17.183594 L 62.257812 18.519531 C 62.480469 18 62.777344 17.628906 63.222656 17.371094 C 63.628906 17.109375 64.109375 17 64.703125 17 C 65 17 65.257812 17.035156 65.519531 17.109375 C 65.777344 17.183594 66 17.257812 66.183594 17.371094 L 65.371094 19.554688 C 65.257812 19.480469 65.074219 19.40625 64.890625 19.332031 C 64.667969 19.257812 64.445312 19.257812 64.222656 19.257812 C 63.667969 19.257812 63.183594 19.40625 62.851562 19.742188 C 62.519531 20.074219 62.332031 20.59375 62.332031 21.332031 L 62.332031 25.925781 L 60.109375 25.925781 L 60.109375 17.183594 Z M 60.074219 17.183594 "/>
<path style=" stroke:none;fill-rule:nonzero;fill:rgb(13.333334%,0%,20%);fill-opacity:1;" d="M 70.925781 26.109375 C 70.222656 26.109375 69.59375 26 69 25.777344 C 68.445312 25.554688 67.925781 25.222656 67.519531 24.816406 C 67.109375 24.40625 66.816406 23.925781 66.59375 23.371094 C 66.371094 22.816406 66.257812 22.222656 66.257812 21.59375 C 66.257812 20.964844 66.371094 20.371094 66.59375 19.816406 C 66.816406 19.257812 67.148438 18.777344 67.554688 18.371094 C 67.964844 17.964844 68.445312 17.628906 69 17.40625 C 69.554688 17.183594 70.148438 17.035156 70.816406 17.035156 C 71.480469 17.035156 72.074219 17.148438 72.628906 17.371094 C 73.183594 17.59375 73.667969 17.925781 74.035156 18.296875 C 74.445312 18.703125 74.742188 19.148438 74.964844 19.703125 C 75.183594 20.257812 75.296875 20.851562 75.296875 21.519531 L 75.296875 22.371094 L 68.332031 22.371094 C 68.480469 22.925781 68.777344 23.40625 69.222656 23.742188 C 69.667969 24.074219 70.183594 24.222656 70.851562 24.222656 C 71.371094 24.222656 71.816406 24.109375 72.148438 23.890625 C 72.519531 23.667969 72.777344 23.40625 73 23.035156 L 74.816406 24.109375 C 74.371094 24.742188 73.816406 25.222656 73.183594 25.59375 C 72.703125 25.925781 71.890625 26.109375 70.925781 26.109375 Z M 70.890625 18.890625 C 70.332031 18.890625 69.816406 19.035156 69.40625 19.332031 C 69 19.628906 68.703125 20.035156 68.519531 20.554688 L 73.183594 20.554688 C 73.035156 20 72.742188 19.59375 72.371094 19.296875 C 71.964844 19.035156 71.480469 18.890625 70.890625 18.890625 Z M 70.890625 18.890625 "/>
<path style=" stroke:none;fill-rule:nonzero;fill:rgb(13.333334%,0%,20%);fill-opacity:1;" d="M 76.035156 17.183594 L 77.480469 17.183594 L 77.480469 16.890625 C 77.480469 16.183594 77.554688 15.59375 77.667969 15.109375 C 77.777344 14.628906 78 14.257812 78.296875 13.964844 C 78.59375 13.667969 78.964844 13.480469 79.445312 13.371094 C 79.925781 13.257812 80.519531 13.183594 81.222656 13.183594 L 81.816406 13.183594 L 81.816406 15.183594 L 81.445312 15.183594 C 81.074219 15.183594 80.742188 15.222656 80.519531 15.257812 C 80.296875 15.296875 80.109375 15.371094 80 15.480469 C 79.890625 15.59375 79.816406 15.742188 79.777344 15.964844 C 79.742188 16.148438 79.742188 16.445312 79.742188 16.777344 L 79.742188 17.183594 L 81.851562 17.183594 L 81.851562 19.183594 L 79.742188 19.183594 L 79.742188 25.925781 L 77.519531 25.925781 L 77.519531 19.183594 L 76.074219 19.183594 L 76.074219 17.183594 Z M 76.035156 17.183594 "/>
<path style=" stroke:none;fill-rule:nonzero;fill:rgb(13.333334%,0%,20%);fill-opacity:1;" d="M 86.964844 26.109375 C 86.296875 26.109375 85.703125 26 85.148438 25.742188 C 84.59375 25.519531 84.109375 25.183594 83.667969 24.777344 C 83.257812 24.371094 82.925781 23.890625 82.703125 23.332031 C 82.480469 22.777344 82.371094 22.183594 82.371094 21.554688 C 82.371094 20.925781 82.480469 20.332031 82.703125 19.777344 C 82.925781 19.222656 83.257812 18.742188 83.667969 18.332031 C 84.074219 17.925781 84.554688 17.59375 85.148438 17.371094 C 85.703125 17.148438 86.332031 17 86.964844 17 C 87.59375 17 88.222656 17.109375 88.777344 17.371094 C 89.332031 17.59375 89.851562 17.925781 90.257812 18.332031 C 90.667969 18.742188 91 19.222656 91.222656 19.777344 C 91.445312 20.332031 91.59375 20.925781 91.59375 21.554688 C 91.59375 22.183594 91.480469 22.777344 91.222656 23.332031 C 91 23.890625 90.667969 24.371094 90.257812 24.777344 C 89.851562 25.183594 89.371094 25.519531 88.777344 25.742188 C 88.222656 26 87.59375 26.109375 86.964844 26.109375 Z M 86.964844 24 C 87.296875 24 87.59375 23.925781 87.890625 23.816406 C 88.183594 23.703125 88.445312 23.519531 88.667969 23.296875 C 88.890625 23.074219 89.035156 22.816406 89.183594 22.519531 C 89.296875 22.222656 89.371094 21.890625 89.371094 21.554688 C 89.371094 21.222656 89.296875 20.890625 89.183594 20.59375 C 89.074219 20.296875 88.890625 20.035156 88.667969 19.816406 C 88.445312 19.59375 88.183594 19.445312 87.890625 19.296875 C 87.59375 19.183594 87.296875 19.109375 86.964844 19.109375 C 86.628906 19.109375 86.332031 19.183594 86.035156 19.296875 C 85.742188 19.40625 85.480469 19.59375 85.257812 19.816406 C 85.035156 20.035156 84.890625 20.296875 84.742188 20.59375 C 84.628906 20.890625 84.554688 21.222656 84.554688 21.554688 C 84.554688 21.890625 84.628906 22.222656 84.742188 22.519531 C 84.851562 22.816406 85.035156 23.074219 85.257812 23.296875 C 85.480469 23.519531 85.742188 23.667969 86.035156 23.816406 C 86.332031 23.925781 86.628906 24 86.964844 24 Z M 86.964844 24 "/>
<path style=" stroke:none;fill-rule:nonzero;fill:rgb(13.333334%,0%,20%);fill-opacity:1;" d="M 94.925781 21.445312 L 91.851562 17.183594 L 94.519531 17.183594 L 96.332031 19.777344 L 98.183594 17.183594 L 100.816406 17.183594 L 97.703125 21.445312 L 101.035156 25.925781 L 98.332031 25.925781 L 96.332031 23.183594 L 94.371094 25.925781 L 91.667969 25.925781 Z M 94.925781 21.445312 "/>
<path style=" stroke:none;fill-rule:nonzero;fill:rgb(13.333334%,0%,20%);fill-opacity:1;" d="M 106.296875 14.109375 L 107.628906 14.109375 L 111.851562 19.925781 L 116.222656 14.109375 L 117.519531 14.109375 L 117.519531 25.925781 L 116.222656 25.925781 L 116.222656 16.222656 L 111.890625 22.035156 L 107.703125 16.332031 L 107.703125 25.925781 L 106.296875 25.925781 Z M 106.296875 14.109375 "/>
<path style=" stroke:none;fill-rule:nonzero;fill:rgb(13.333334%,0%,20%);fill-opacity:1;" d="M 124.074219 26.109375 C 123.445312 26.109375 122.816406 26 122.257812 25.777344 C 121.703125 25.554688 121.222656 25.222656 120.816406 24.816406 C 120.40625 24.40625 120.074219 23.925781 119.851562 23.371094 C 119.628906 22.816406 119.519531 22.222656 119.519531 21.554688 C 119.519531 20.925781 119.628906 20.332031 119.851562 19.777344 C 120.074219 19.222656 120.40625 18.742188 120.816406 18.332031 C 121.222656 17.925781 121.703125 17.59375 122.257812 17.371094 C 122.816406 17.148438 123.40625 17.035156 124.035156 17.035156 C 124.667969 17.035156 125.257812 17.148438 125.816406 17.371094 C 126.371094 17.59375 126.851562 17.925781 127.257812 18.332031 C 127.667969 18.742188 128 19.222656 128.222656 19.777344 C 128.445312 20.332031 128.554688 20.925781 128.554688 21.554688 C 128.554688 22.183594 128.445312 22.777344 128.222656 23.332031 C 128 23.890625 127.667969 24.371094 127.257812 24.777344 C 126.851562 25.183594 126.371094 25.519531 125.816406 25.742188 C 125.332031 26 124.703125 26.109375 124.074219 26.109375 Z M 124.074219 24.851562 C 124.519531 24.851562 124.964844 24.777344 125.332031 24.59375 C 125.742188 24.40625 126.074219 24.183594 126.371094 23.890625 C 126.667969 23.59375 126.890625 23.257812 127.035156 22.851562 C 127.183594 22.445312 127.296875 22.035156 127.296875 21.554688 C 127.296875 21.074219 127.222656 20.667969 127.035156 20.257812 C 126.890625 19.851562 126.667969 19.519531 126.371094 19.222656 C 126.074219 18.925781 125.742188 18.703125 125.332031 18.519531 C 124.964844 18.332031 124.519531 18.257812 124.074219 18.257812 C 123.628906 18.257812 123.183594 18.332031 122.816406 18.519531 C 122.445312 18.703125 122.074219 18.925781 121.816406 19.222656 C 121.519531 19.519531 121.296875 19.851562 121.148438 20.257812 C 121 20.667969 120.890625 21.109375 120.890625 21.554688 C 120.890625 22.035156 120.964844 22.480469 121.148438 22.851562 C 121.296875 23.257812 121.519531 23.59375 121.816406 23.890625 C 122.109375 24.183594 122.445312 24.40625 122.816406 24.59375 C 123.183594 24.742188 123.628906 24.851562 124.074219 24.851562 Z M 124.074219 24.851562 "/>
<path style=" stroke:none;fill-rule:nonzero;fill:rgb(13.333334%,0%,20%);fill-opacity:1;" d="M 130.628906 17.183594 L 131.925781 17.183594 L 131.925781 18.628906 C 132.222656 18.148438 132.628906 17.742188 133.148438 17.445312 C 133.667969 17.148438 134.257812 17 134.964844 17 C 135.519531 17 136.035156 17.074219 136.519531 17.257812 C 136.964844 17.445312 137.371094 17.703125 137.703125 18.035156 C 138.035156 18.371094 138.257812 18.777344 138.445312 19.257812 C 138.628906 19.742188 138.703125 20.296875 138.703125 20.925781 L 138.703125 25.925781 L 137.371094 25.925781 L 137.371094 21 C 137.371094 20.148438 137.148438 19.480469 136.703125 18.964844 C 136.257812 18.445312 135.59375 18.183594 134.742188 18.183594 C 134.371094 18.183594 134 18.257812 133.667969 18.40625 C 133.332031 18.554688 133.035156 18.742188 132.777344 19 C 132.519531 19.257812 132.332031 19.554688 132.183594 19.890625 C 132.035156 20.222656 131.964844 20.628906 131.964844 21.035156 L 131.964844 25.925781 L 130.628906 25.925781 Z M 130.628906 17.183594 "/>
<path style=" stroke:none;fill-rule:nonzero;fill:rgb(13.333334%,0%,20%);fill-opacity:1;" d="M 140.667969 14.554688 C 140.667969 14.257812 140.777344 14 140.964844 13.816406 C 141.148438 13.628906 141.40625 13.519531 141.703125 13.519531 C 142 13.519531 142.257812 13.628906 142.480469 13.816406 C 142.667969 14 142.777344 14.257812 142.777344 14.554688 C 142.777344 14.851562 142.667969 15.109375 142.480469 15.296875 C 142.296875 15.480469 142.035156 15.59375 141.703125 15.59375 C 141.40625 15.59375 141.148438 15.480469 140.964844 15.296875 C 140.742188 15.109375 140.667969 14.851562 140.667969 14.554688 Z M 141.035156 17.222656 L 142.371094 17.222656 L 142.371094 25.964844 L 141.035156 25.964844 Z M 141.035156 17.222656 "/>
<path style=" stroke:none;fill-rule:nonzero;fill:rgb(13.333334%,0%,20%);fill-opacity:1;" d="M 144 17.183594 L 145.703125 17.183594 L 145.703125 15.257812 L 147 14.40625 L 147 17.183594 L 149.554688 17.183594 L 149.554688 18.371094 L 147 18.371094 L 147 23.257812 C 147 23.816406 147.109375 24.222656 147.332031 24.445312 C 147.554688 24.667969 147.890625 24.816406 148.257812 24.816406 C 148.628906 24.816406 148.964844 24.667969 149.257812 24.40625 L 149.964844 25.445312 C 149.703125 25.628906 149.445312 25.777344 149.148438 25.890625 C 148.851562 26 148.519531 26.035156 148.148438 26.035156 C 147.332031 26.035156 146.742188 25.816406 146.296875 25.371094 C 145.851562 24.925781 145.667969 24.222656 145.667969 23.257812 L 145.667969 18.371094 L 143.964844 18.371094 L 143.964844 17.183594 Z M 144 17.183594 "/>
<path style=" stroke:none;fill-rule:nonzero;fill:rgb(13.333334%,0%,20%);fill-opacity:1;" d="M 155.148438 26.109375 C 154.519531 26.109375 153.890625 26 153.332031 25.777344 C 152.777344 25.554688 152.296875 25.222656 151.890625 24.816406 C 151.480469 24.40625 151.148438 23.925781 150.925781 23.371094 C 150.703125 22.816406 150.59375 22.222656 150.59375 21.554688 C 150.59375 20.925781 150.703125 20.332031 150.925781 19.777344 C 151.148438 19.222656 151.480469 18.742188 151.890625 18.332031 C 152.296875 17.925781 152.777344 17.59375 153.332031 17.371094 C 153.890625 17.148438 154.480469 17.035156 155.109375 17.035156 C 155.742188 17.035156 156.332031 17.148438 156.890625 17.371094 C 157.445312 17.59375 157.925781 17.925781 158.332031 18.332031 C 158.742188 18.742188 159.074219 19.222656 159.296875 19.777344 C 159.519531 20.332031 159.628906 20.925781 159.628906 21.554688 C 159.628906 22.183594 159.519531 22.777344 159.296875 23.332031 C 159.074219 23.890625 158.742188 24.371094 158.332031 24.777344 C 157.925781 25.183594 157.445312 25.519531 156.890625 25.742188 C 156.40625 26 155.816406 26.109375 155.148438 26.109375 Z M 155.148438 24.851562 C 155.59375 24.851562 156.035156 24.777344 156.40625 24.59375 C 156.816406 24.40625 157.148438 24.183594 157.445312 23.890625 C 157.742188 23.59375 157.964844 23.257812 158.109375 22.851562 C 158.257812 22.445312 158.371094 22.035156 158.371094 21.554688 C 158.371094 21.074219 158.296875 20.667969 158.109375 20.257812 C 157.964844 19.851562 157.742188 19.519531 157.445312 19.222656 C 157.148438 18.925781 156.816406 18.703125 156.40625 18.519531 C 156.035156 18.332031 155.59375 18.257812 155.148438 18.257812 C 154.703125 18.257812 154.257812 18.332031 153.890625 18.519531 C 153.519531 18.703125 153.148438 18.925781 152.890625 19.222656 C 152.59375 19.519531 152.371094 19.851562 152.222656 20.257812 C 152.074219 20.667969 151.964844 21.109375 151.964844 21.554688 C 151.964844 22.035156 152.035156 22.480469 152.222656 22.851562 C 152.371094 23.257812 152.59375 23.59375 152.890625 23.890625 C 153.183594 24.183594 153.519531 24.40625 153.890625 24.59375 C 154.296875 24.742188 154.703125 24.851562 155.148438 24.851562 Z M 155.148438 24.851562 "/>
<path style=" stroke:none;fill-rule:nonzero;fill:rgb(13.333334%,0%,20%);fill-opacity:1;" d="M 161.703125 17.183594 L 163 17.183594 L 163 18.851562 C 163.183594 18.257812 163.480469 17.816406 163.925781 17.519531 C 164.371094 17.222656 164.890625 17.074219 165.519531 17.074219 C 166.148438 17.074219 166.628906 17.183594 166.964844 17.40625 L 166.40625 18.667969 C 166.296875 18.59375 166.148438 18.519531 165.964844 18.480469 C 165.777344 18.445312 165.59375 18.40625 165.332031 18.40625 C 164.59375 18.40625 164.035156 18.628906 163.628906 19.074219 C 163.222656 19.519531 163.035156 20.222656 163.035156 21.183594 L 163.035156 25.925781 L 161.742188 25.925781 L 161.742188 17.183594 Z M 161.703125 17.183594 "/>
<path style=" stroke:none;fill-rule:nonzero;fill:url(#linear0);" d="M 38.445312 11.445312 L 35.480469 9.742188 L 28.667969 5.890625 L 28.445312 5.777344 C 27.332031 5.148438 25.964844 5.148438 24.851562 5.777344 L 24.628906 5.890625 L 15.074219 11.332031 L 14.851562 11.445312 C 13.742188 12.074219 13.035156 13.257812 13.035156 14.519531 L 13.035156 25.925781 C 13.035156 27.183594 13.742188 28.371094 14.851562 29 L 24.628906 34.554688 C 24.851562 34.703125 25.109375 34.742188 25.371094 34.742188 C 25.890625 34.742188 26.40625 34.480469 26.667969 34 C 27.074219 33.296875 26.851562 32.40625 26.109375 31.964844 L 16.554688 26.519531 C 16.222656 26.332031 16.035156 26 16.035156 25.628906 L 16.035156 14.777344 C 16.035156 14.40625 16.222656 14.074219 16.554688 13.890625 L 18.257812 12.925781 L 26.148438 8.445312 C 26.480469 8.257812 26.851562 8.257812 27.183594 8.445312 L 36.742188 13.890625 C 37.074219 14.074219 37.257812 14.40625 37.257812 14.777344 L 37.257812 25.667969 C 37.257812 26.035156 37.074219 26.371094 36.742188 26.554688 L 33.519531 28.40625 L 31.851562 25.925781 C 33.445312 24.519531 34.445312 22.480469 34.445312 20.222656 C 34.445312 16 30.964844 12.554688 26.628906 12.554688 C 22.296875 12.554688 18.816406 16 18.816406 20.222656 C 18.816406 24.445312 22.332031 27.890625 26.628906 27.890625 C 27.554688 27.890625 28.445312 27.742188 29.257812 27.445312 L 31.742188 31.148438 C 31.777344 31.222656 31.816406 31.257812 31.851562 31.296875 C 31.851562 31.296875 31.890625 31.332031 31.890625 31.332031 C 31.925781 31.40625 32 31.445312 32.074219 31.480469 C 32.074219 31.480469 32.109375 31.519531 32.109375 31.519531 C 32.183594 31.554688 32.257812 31.59375 32.332031 31.667969 C 32.371094 31.667969 32.371094 31.667969 32.371094 31.703125 C 32.445312 31.742188 32.519531 31.742188 32.59375 31.777344 C 32.59375 31.777344 32.628906 31.777344 32.628906 31.777344 C 32.703125 31.816406 32.777344 31.816406 32.851562 31.816406 C 32.890625 31.816406 32.890625 31.816406 32.925781 31.816406 C 32.964844 31.816406 32.964844 31.816406 33 31.816406 C 33.035156 31.816406 33.074219 31.816406 33.148438 31.816406 C 33.183594 31.816406 33.183594 31.816406 33.222656 31.816406 C 33.296875 31.816406 33.40625 31.777344 33.480469 31.742188 C 33.519531 31.742188 33.519531 31.742188 33.554688 31.703125 C 33.628906 31.667969 33.667969 31.667969 33.742188 31.628906 C 33.742188 31.628906 33.777344 31.628906 33.777344 31.59375 L 38.445312 28.925781 C 39.554688 28.296875 40.257812 27.109375 40.257812 25.851562 L 40.257812 14.519531 C 40.222656 13.257812 39.554688 12.074219 38.445312 11.445312 Z M 21.851562 20.183594 C 21.851562 17.59375 24 15.445312 26.667969 15.445312 C 29.296875 15.445312 31.480469 17.554688 31.480469 20.183594 C 31.480469 22.816406 29.332031 24.925781 26.667969 24.925781 C 24 24.925781 21.851562 22.816406 21.851562 20.183594 Z M 21.851562 20.183594 "/>
<path style=" stroke:none;fill-rule:nonzero;fill:url(#linear1);" d="M 38.445312 11.445312 L 35.480469 9.742188 L 28.667969 5.890625 L 28.445312 5.777344 C 27.332031 5.148438 25.964844 5.148438 24.851562 5.777344 L 24.628906 5.890625 L 15.074219 11.332031 L 14.851562 11.445312 C 13.742188 12.074219 13.035156 13.257812 13.035156 14.519531 L 13.035156 25.925781 C 13.035156 27.183594 13.742188 28.371094 14.851562 29 L 24.628906 34.554688 C 24.851562 34.703125 25.109375 34.742188 25.371094 34.742188 C 25.890625 34.742188 26.40625 34.480469 26.667969 34 C 27.074219 33.296875 26.851562 32.40625 26.109375 31.964844 L 16.554688 26.519531 C 16.222656 26.332031 16.035156 26 16.035156 25.628906 L 16.035156 14.777344 C 16.035156 14.40625 16.222656 14.074219 16.554688 13.890625 L 18.257812 12.925781 L 26.148438 8.445312 C 26.480469 8.257812 26.851562 8.257812 27.183594 8.445312 L 36.742188 13.890625 C 37.074219 14.074219 37.257812 14.40625 37.257812 14.777344 L 37.257812 25.667969 C 37.257812 26.035156 37.074219 26.371094 36.742188 26.554688 L 33.519531 28.40625 L 31.851562 25.925781 C 33.445312 24.519531 34.445312 22.480469 34.445312 20.222656 C 34.445312 16 30.964844 12.554688 26.628906 12.554688 C 22.296875 12.554688 18.816406 16 18.816406 20.222656 C 18.816406 24.445312 22.332031 27.890625 26.628906 27.890625 C 27.554688 27.890625 28.445312 27.742188 29.257812 27.445312 L 31.742188 31.148438 C 31.777344 31.222656 31.816406 31.257812 31.851562 31.296875 C 31.851562 31.296875 31.890625 31.332031 31.890625 31.332031 C 31.925781 31.40625 32 31.445312 32.074219 31.480469 C 32.074219 31.480469 32.109375 31.519531 32.109375 31.519531 C 32.183594 31.554688 32.257812 31.59375 32.332031 31.667969 C 32.371094 31.667969 32.371094 31.667969 32.371094 31.703125 C 32.445312 31.742188 32.519531 31.742188 32.59375 31.777344 C 32.59375 31.777344 32.628906 31.777344 32.628906 31.777344 C 32.703125 31.816406 32.777344 31.816406 32.851562 31.816406 C 32.890625 31.816406 32.890625 31.816406 32.925781 31.816406 C 32.964844 31.816406 32.964844 31.816406 33 31.816406 C 33.035156 31.816406 33.074219 31.816406 33.148438 31.816406 C 33.183594 31.816406 33.183594 31.816406 33.222656 31.816406 C 33.296875 31.816406 33.40625 31.777344 33.480469 31.742188 C 33.519531 31.742188 33.519531 31.742188 33.554688 31.703125 C 33.628906 31.667969 33.667969 31.667969 33.742188 31.628906 C 33.742188 31.628906 33.777344 31.628906 33.777344 31.59375 L 38.445312 28.925781 C 39.554688 28.296875 40.257812 27.109375 40.257812 25.851562 L 40.257812 14.519531 C 40.222656 13.257812 39.554688 12.074219 38.445312 11.445312 Z M 21.851562 20.183594 C 21.851562 17.59375 24 15.445312 26.667969 15.445312 C 29.296875 15.445312 31.480469 17.554688 31.480469 20.183594 C 31.480469 22.816406 29.332031 24.925781 26.667969 24.925781 C 24 24.925781 21.851562 22.816406 21.851562 20.183594 Z M 21.851562 20.183594 "/>
<path style=" stroke:none;fill-rule:nonzero;fill:url(#linear2);" d="M 38.445312 11.445312 L 35.480469 9.742188 C 35.480469 9.742188 33 8.332031 31.332031 7.371094 C 30.371094 6.816406 29.222656 6.816406 28.222656 7.332031 L 26.148438 8.445312 C 26.480469 8.257812 26.851562 8.257812 27.183594 8.445312 L 36.742188 13.890625 C 37.074219 14.074219 37.257812 14.40625 37.257812 14.777344 L 37.257812 25.667969 C 37.257812 26.035156 37.074219 26.371094 36.742188 26.554688 L 33.519531 28.40625 L 34.035156 29.222656 C 34.628906 30.183594 35.890625 30.480469 36.890625 29.925781 L 38.480469 29 C 39.59375 28.371094 40.296875 27.183594 40.296875 25.925781 L 40.296875 14.519531 C 40.222656 13.257812 39.554688 12.074219 38.445312 11.445312 Z M 38.445312 11.445312 "/>
<path style=" stroke:none;fill-rule:nonzero;fill:url(#linear3);" d="M 37.222656 14.777344 L 37.222656 20.035156 L 40.222656 20.035156 L 40.222656 14.519531 C 40.222656 13.257812 39.554688 12.074219 38.40625 11.445312 L 35.445312 9.742188 C 35.445312 9.742188 32.964844 8.332031 31.296875 7.371094 C 30.332031 6.816406 29.183594 6.816406 28.183594 7.332031 L 26.109375 8.445312 C 26.445312 8.257812 26.816406 8.257812 27.148438 8.445312 L 36.703125 13.890625 C 37.035156 14.074219 37.222656 14.40625 37.222656 14.777344 Z M 37.222656 14.777344 "/>
<use xlink:href="#surface5" mask="url(#mask0)"/>
<use xlink:href="#surface8" mask="url(#mask1)"/>
</g>
</svg>
