<svg height="2in" viewBox="0 0 216 144" width="3in" xmlns="http://www.w3.org/2000/svg" xmlns:xlink="http://www.w3.org/1999/xlink"><radialGradient id="a" cx="144.73" cy="175.05" gradientUnits="userSpaceOnUse" r="102.61"><stop offset=".26" stop-color="#cdcdd4" stop-opacity="0"/><stop offset=".4" stop-color="#cdcdd4" stop-opacity=".02"/><stop offset=".55" stop-color="#cdcdd4" stop-opacity=".08"/><stop offset=".69" stop-color="#cdcdd4" stop-opacity=".18"/><stop offset=".72" stop-color="#cdcdd4" stop-opacity=".2"/></radialGradient><radialGradient id="b" cx="73.71" cy="140.53" gradientUnits="userSpaceOnUse" r="150.75"><stop offset=".27" stop-color="#cdcdd4" stop-opacity="0"/><stop offset=".46" stop-color="#cdcdd4" stop-opacity=".02"/><stop offset=".66" stop-color="#cdcdd4" stop-opacity=".08"/><stop offset=".86" stop-color="#cdcdd4" stop-opacity=".18"/><stop offset=".9" stop-color="#cdcdd4" stop-opacity=".2"/></radialGradient><radialGradient id="c" cx="129.21" cy="117.26" gradientTransform="matrix(1 0 0 .7 0 35.37)" gradientUnits="userSpaceOnUse" r="112.67"><stop offset=".4" stop-color="#cdcdd4" stop-opacity="0"/><stop offset=".58" stop-color="#cdcdd4" stop-opacity=".02"/><stop offset=".77" stop-color="#cdcdd4" stop-opacity=".08"/><stop offset=".96" stop-color="#cdcdd4" stop-opacity=".18"/><stop offset="1" stop-color="#cdcdd4" stop-opacity=".2"/></radialGradient><linearGradient id="d" gradientUnits="userSpaceOnUse" x1="65.86" x2="200.31" y1="168.33" y2="33.88"><stop offset=".43" stop-color="#00b3f4"/><stop offset=".61" stop-color="#00bbf6"/><stop offset=".89" stop-color="#00d2fc"/><stop offset="1" stop-color="#0df"/></linearGradient><path d="m130.05 116.42a9.51 9.51 0 0 1 -9.47 9.51h-38.07a7.27 7.27 0 0 1 0-14.54 7.15 7.15 0 0 1 1.74.22 7.24 7.24 0 0 1 -.2-1.69 7.5 7.5 0 0 1 11.74-6.18 12.6 12.6 0 0 1 24.79 3.17 9.51 9.51 0 0 1 9.47 9.51z" fill="url(#a)"/><path d="m191.53 42.49a10.74 10.74 0 0 0 -2.62.32 11.31 11.31 0 0 0 -17.4-11.81 19 19 0 0 0 -37.37 4.77 14.27 14.27 0 1 0 0 28.54h57.39a10.89 10.89 0 0 0 0-21.78z" fill="url(#b)"/><path d="m24.87 72.66a22.54 22.54 0 0 1 22.45-22.66l120.77-.48a22.53 22.53 0 1 1 .18 45.06l-120.77.53a22.54 22.54 0 0 1 -22.63-22.45z" fill="url(#c)"/><path d="m189.43 101.83v-36.75a10 10 0 0 0 -.6-3.43c-.1-.27-.22-.54-.35-.82a3.52 3.52 0 0 0 -.68-.95c-.71-.69-2.13-1.88-4.48-3.76l-.27-.22c-8.56-6.84-25.27-19.46-25.45-19.6-2.61-1.92-4.71-2.78-6.8-2.78s-4.19.87-6.75 2.81c-.16.12-17 12.87-25.43 19.58l-.27.22c-2.28 1.83-3.68 3-4.4 3.69a3.32 3.32 0 0 0 -.68.94c-.06.13-.13.27-.19.42l-.29.29v.53a9.67 9.67 0 0 0 -.51 3.12v36.71a3.94 3.94 0 0 0 -.1.47 3.31 3.31 0 0 0 .25 1.86 10.09 10.09 0 0 0 1.6 2.72 7.73 7.73 0 0 0 .79.81l.23.23.24.19a9.93 9.93 0 0 0 5.08 2.27h.51a7.24 7.24 0 0 0 .88.07h58.24a10 10 0 0 0 9.22-6.14 3.28 3.28 0 0 0 .21-2.48z" fill="url(#d)"/><path d="m182 71a1.92 1.92 0 0 0 -2.69-.43l-19.54 14.12-.16-.12a13.29 13.29 0 0 0 -12.06-2.57 16.83 16.83 0 0 0 -5.55 2.55l-.13.1-19.47-14.1a1.92 1.92 0 1 0 -2.26 3.11l18.51 13.41-14.5 10.93a1.92 1.92 0 0 0 .89 3.44h.27a1.9 1.9 0 0 0 1.15-.39l17.87-13.46c.07-.05 6.78-5 12.94 0l17.87 13.46a2 2 0 0 0 2.69-.38 1.91 1.91 0 0 0 -.38-2.69l-14.45-10.87 18.58-13.45a1.93 1.93 0 0 0 .77-1.25 1.91 1.91 0 0 0 -.35-1.41z" fill="#0df" opacity=".8"/><g fill="#f9f9fa"><rect height="16.64" rx="1" transform="matrix(.70710678 -.70710678 .70710678 .70710678 .709988 124.660062)" width="3.53" x="149.07" y="53.15"/><path d="m140.86 55.34 3.77-3.77a.89.89 0 0 1 1.25 0l5.63 5.63a3.53 3.53 0 0 0 0-5l-3.76-3.76a3.51 3.51 0 0 0 -5 0l-5 5a3.51 3.51 0 0 0 0 5l3.75 3.75a3.53 3.53 0 0 0 4.94 0l-5.63-5.63a.89.89 0 0 1 .05-1.22zm23.06 9.24-3.75-3.76a3.54 3.54 0 0 0 -5 0l5.63 5.63a.89.89 0 0 1 0 1.26l-3.8 3.79a.91.91 0 0 1 -1.26 0l-5.63-5.63a3.53 3.53 0 0 0 0 4.94l3.76 3.76a3.53 3.53 0 0 0 5 0l5-5a3.51 3.51 0 0 0 .05-4.99z"/></g><path d="m88.46 62.58s1.12 6.38 3.28 8.54 8.54 3.28 8.54 3.28-6.38 1-8.54 3.2-3.28 8.63-3.28 8.63-1-6.48-3.19-8.63-8.63-3.2-8.63-3.2 6.47-1.12 8.63-3.28 3.19-8.54 3.19-8.54m0-5.25a5.25 5.25 0 0 0 -5.15 4.41 19.88 19.88 0 0 1 -1.73 5.66 20.81 20.81 0 0 1 -5.81 1.83 5.25 5.25 0 0 0 .08 10.36 20.49 20.49 0 0 1 5.73 1.73 20 20 0 0 1 1.73 5.74 5.26 5.26 0 0 0 5.16 4.42 5.26 5.26 0 0 0 5.18-4.35 21 21 0 0 1 1.82-5.81 20 20 0 0 1 5.66-1.73 5.25 5.25 0 0 0 .07-10.36 20.24 20.24 0 0 1 -5.72-1.83 19.92 19.92 0 0 1 -1.83-5.73 5.27 5.27 0 0 0 -5.18-4.34zm-17.08 38.09a1.32 1.32 0 0 1 -1.29-1.1 8.07 8.07 0 0 0 -1-3.12 8 8 0 0 0 -3.11-1 1.31 1.31 0 0 1 0-2.59 8.33 8.33 0 0 0 3.02-1.14 8.07 8.07 0 0 0 1.06-3.08 1.3 1.3 0 0 1 1.28-1.1 1.3 1.3 0 0 1 1.29 1.08 8.26 8.26 0 0 0 1.1 3.1 8.24 8.24 0 0 0 3.1 1.09 1.31 1.31 0 0 1 0 2.59 7.9 7.9 0 0 0 -3.08 1 8.55 8.55 0 0 0 -1.1 3.14 1.31 1.31 0 0 1 -1.27 1.13zm-1.31-28.9a1.31 1.31 0 0 1 -1.29-1.1 6 6 0 0 0 -.7-2.16 6.17 6.17 0 0 0 -2.15-.7 1.31 1.31 0 0 1 0-2.59 6 6 0 0 0 2.17-.73 5.83 5.83 0 0 0 .7-2.12 1.32 1.32 0 0 1 1.26-1.12 1.32 1.32 0 0 1 1.29 1.09 6.35 6.35 0 0 0 .73 2.15 6.31 6.31 0 0 0 2.15.72 1.32 1.32 0 0 1 1.08 1.31 1.3 1.3 0 0 1 -1.1 1.28 6.1 6.1 0 0 0 -2.13.7 6.42 6.42 0 0 0 -.73 2.17 1.32 1.32 0 0 1 -1.28 1.1zm-16.35 9.19a1.32 1.32 0 0 1 -1.29-1.11 8 8 0 0 0 -1.05-3.11 8 8 0 0 0 -3.11-1 1.31 1.31 0 0 1 0-2.59 8.14 8.14 0 0 0 3.13-1.1 7.86 7.86 0 0 0 1.05-3.07 1.32 1.32 0 0 1 1.29-1.11 1.32 1.32 0 0 1 1.26 1.04 8 8 0 0 0 1.1 3.09 8.34 8.34 0 0 0 3.09 1.1 1.31 1.31 0 0 1 0 2.59 8 8 0 0 0 -3.08 1 8.33 8.33 0 0 0 -1.11 3.18 1.32 1.32 0 0 1 -1.28 1.09zm-22.05 4.86a1.31 1.31 0 0 1 -1.28-1.11 6.25 6.25 0 0 0 -.7-2.15 6 6 0 0 0 -2.16-.7 1.31 1.31 0 0 1 0-2.59 6.42 6.42 0 0 0 2.17-.73 6 6 0 0 0 .7-2.13 1.3 1.3 0 0 1 1.28-1.1 1.32 1.32 0 0 1 1.32 1.08 6 6 0 0 0 .73 2.15 6.2 6.2 0 0 0 2.14.73 1.31 1.31 0 0 1 0 2.59 5.83 5.83 0 0 0 -2.12.7 6.12 6.12 0 0 0 -.75 2.17 1.32 1.32 0 0 1 -1.33 1.09z" fill="#b1b1bc"/></svg>