<?xml version="1.0" encoding="UTF-8"?>
<svg xmlns="http://www.w3.org/2000/svg" xmlns:xlink="http://www.w3.org/1999/xlink" width="180px" height="40px" viewBox="0 0 180 40" version="1.1">
<defs>
<radialGradient id="radial0" gradientUnits="userSpaceOnUse" cx="-15463.896484" cy="-8578.980469" fx="-15466.290039" fy="-8578.749023" r="37.5298" gradientTransform="matrix(0.282148,0.0148016,-0.0217789,0.414741,4214.748264,3797.536531)">
<stop offset="0.1019" style="stop-color:rgb(100%,91.764706%,0%);stop-opacity:1;"/>
<stop offset="0.1655" style="stop-color:rgb(100%,87.058824%,0%);stop-opacity:1;"/>
<stop offset="0.2796" style="stop-color:rgb(100%,74.901962%,0%);stop-opacity:1;"/>
<stop offset="0.4286" style="stop-color:rgb(100%,55.686277%,0%);stop-opacity:1;"/>
<stop offset="0.769" style="stop-color:rgb(100%,15.294118%,17.647059%);stop-opacity:1;"/>
<stop offset="0.8715" style="stop-color:rgb(87.843138%,14.509805%,35.294119%);stop-opacity:1;"/>
<stop offset="0.9533" style="stop-color:rgb(80.000001%,14.117648%,46.666667%);stop-opacity:1;"/>
<stop offset="1" style="stop-color:rgb(76.862746%,14.117648%,50.980395%);stop-opacity:1;"/>
</radialGradient>
<radialGradient id="radial1" gradientUnits="userSpaceOnUse" cx="-8077.245117" cy="-8194.404297" fx="-8077.245117" fy="-8194.404297" r="65.860001" gradientTransform="matrix(0.453852,0.00358447,-0.00358447,0.453852,3667.657697,3757.064164)">
<stop offset="0" style="stop-color:rgb(0%,80.000001%,85.490197%);stop-opacity:1;"/>
<stop offset="0.2196" style="stop-color:rgb(0%,51.372552%,100%);stop-opacity:1;"/>
<stop offset="0.2611" style="stop-color:rgb(0%,47.843137%,97.647059%);stop-opacity:1;"/>
<stop offset="0.3298" style="stop-color:rgb(0%,37.64706%,90.980393%);stop-opacity:1;"/>
<stop offset="0.3332" style="stop-color:rgb(0%,37.254903%,90.588236%);stop-opacity:1;"/>
<stop offset="0.4381" style="stop-color:rgb(14.901961%,22.352941%,67.843139%);stop-opacity:1;"/>
<stop offset="0.5224" style="stop-color:rgb(25.098041%,11.764706%,51.764709%);stop-opacity:1;"/>
<stop offset="0.5659" style="stop-color:rgb(29.019609%,7.843138%,45.882353%);stop-opacity:1;"/>
</radialGradient>
<linearGradient id="linear0" gradientUnits="userSpaceOnUse" x1="74.391899" y1="70.601196" x2="58.4571" y2="18.475401" gradientTransform="matrix(0.37037,0.00292501,-0.00292501,0.37037,-0.0415556,-0.912111)">
<stop offset="0.000378667" style="stop-color:rgb(0%,5.882353%,26.274511%);stop-opacity:0.4;"/>
<stop offset="0.1736" style="stop-color:rgb(0%,7.450981%,30.980393%);stop-opacity:0.3307;"/>
<stop offset="0.7033" style="stop-color:rgb(0%,10.980392%,42.745098%);stop-opacity:0.1187;"/>
<stop offset="1" style="stop-color:rgb(0%,12.54902%,47.450981%);stop-opacity:0;"/>
</linearGradient>
<radialGradient id="radial2" gradientUnits="userSpaceOnUse" cx="-9039.516602" cy="-7071.562988" fx="-9039.516602" fy="-7071.562988" r="22.214899" gradientTransform="matrix(0.451222,0.048963,-0.049,0.450963,3773.46535,3654.603588)">
<stop offset="0.003408" style="stop-color:rgb(100%,91.764706%,0%);stop-opacity:1;"/>
<stop offset="0.4973" style="stop-color:rgb(100%,15.294118%,17.647059%);stop-opacity:1;"/>
<stop offset="1" style="stop-color:rgb(76.862746%,14.117648%,50.980395%);stop-opacity:1;"/>
</radialGradient>
<radialGradient id="radial3" gradientUnits="userSpaceOnUse" cx="-9041.526367" cy="-7092.864258" fx="-9041.526367" fy="-7092.864258" r="37.097198" gradientTransform="matrix(0.451222,0.048963,-0.049,0.450963,3773.46535,3654.603588)">
<stop offset="0.003408" style="stop-color:rgb(100%,91.37255%,0%);stop-opacity:1;"/>
<stop offset="0.1571" style="stop-color:rgb(100%,68.627453%,5.490196%);stop-opacity:1;"/>
<stop offset="0.3158" style="stop-color:rgb(100%,47.843137%,10.588235%);stop-opacity:1;"/>
<stop offset="0.4717" style="stop-color:rgb(100%,30.588236%,14.901961%);stop-opacity:1;"/>
<stop offset="0.6211" style="stop-color:rgb(100%,17.254902%,18.039216%);stop-opacity:1;"/>
<stop offset="0.7624" style="stop-color:rgb(100%,7.843138%,20.392157%);stop-opacity:1;"/>
<stop offset="0.8923" style="stop-color:rgb(100%,1.960784%,21.960784%);stop-opacity:1;"/>
<stop offset="1" style="stop-color:rgb(100%,0%,22.352941%);stop-opacity:1;"/>
</radialGradient>
<radialGradient id="radial4" gradientUnits="userSpaceOnUse" cx="-9036.279297" cy="-7058.476074" fx="-9036.279297" fy="-7058.476074" r="34.040699" gradientTransform="matrix(0.451222,0.048963,-0.049,0.450963,3773.46535,3654.603588)">
<stop offset="0.003408" style="stop-color:rgb(100%,15.294118%,17.647059%);stop-opacity:1;"/>
<stop offset="0.4973" style="stop-color:rgb(76.862746%,14.117648%,50.980395%);stop-opacity:1;"/>
<stop offset="0.9865" style="stop-color:rgb(38.431373%,2.745098%,0%);stop-opacity:1;"/>
</radialGradient>
<radialGradient id="radial5" gradientUnits="userSpaceOnUse" cx="88.918503" cy="42.7043" fx="91.247299" fy="41.5532" r="65.106796" gradientTransform="matrix(0.37037,0.00292501,-0.00292501,0.37037,-0.0415556,-0.912111)">
<stop offset="0.156" style="stop-color:rgb(100%,91.764706%,0%);stop-opacity:1;"/>
<stop offset="0.231" style="stop-color:rgb(100%,87.058824%,0%);stop-opacity:1;"/>
<stop offset="0.3655" style="stop-color:rgb(100%,74.901962%,0%);stop-opacity:1;"/>
<stop offset="0.5412" style="stop-color:rgb(100%,55.686277%,0%);stop-opacity:1;"/>
<stop offset="0.763" style="stop-color:rgb(100%,15.294118%,17.647059%);stop-opacity:1;"/>
<stop offset="0.7957" style="stop-color:rgb(97.647059%,14.117648%,20%);stop-opacity:1;"/>
<stop offset="0.8408" style="stop-color:rgb(91.37255%,10.588235%,27.058825%);stop-opacity:1;"/>
<stop offset="0.8931" style="stop-color:rgb(81.176472%,5.490196%,38.431373%);stop-opacity:1;"/>
<stop offset="0.935" style="stop-color:rgb(70.980394%,0%,49.803922%);stop-opacity:1;"/>
</radialGradient>
<radialGradient id="radial6" gradientUnits="userSpaceOnUse" cx="85.185303" cy="12.5097" fx="85.185303" fy="12.5097" r="74.201797" gradientTransform="matrix(0.37037,0.00292501,-0.00292501,0.37037,-0.0415556,-0.912111)">
<stop offset="0.2791" style="stop-color:rgb(100%,91.764706%,0%);stop-opacity:1;"/>
<stop offset="0.4019" style="stop-color:rgb(100%,86.666667%,0%);stop-opacity:1;"/>
<stop offset="0.6297" style="stop-color:rgb(100%,72.941178%,0%);stop-opacity:1;"/>
<stop offset="0.8563" style="stop-color:rgb(100%,56.862748%,0%);stop-opacity:1;"/>
<stop offset="0.9325" style="stop-color:rgb(100%,40.392157%,6.666667%);stop-opacity:1;"/>
<stop offset="0.9941" style="stop-color:rgb(100%,29.019609%,11.372549%);stop-opacity:1;"/>
</radialGradient>
<linearGradient id="linear1" gradientUnits="userSpaceOnUse" x1="-9096.426758" y1="-7084.979492" x2="-9070.870117" y2="-7091.494141" gradientTransform="matrix(0.451222,0.048963,-0.049,0.450963,3773.46535,3654.603588)">
<stop offset="0" style="stop-color:rgb(76.862746%,14.117648%,50.980395%);stop-opacity:0.5;"/>
<stop offset="0.4745" style="stop-color:rgb(100%,15.294118%,17.647059%);stop-opacity:0.5;"/>
<stop offset="0.6475" style="stop-color:rgb(100%,43.529412%,11.372549%);stop-opacity:0.6646;"/>
<stop offset="0.8149" style="stop-color:rgb(100%,67.843139%,5.490196%);stop-opacity:0.8239;"/>
<stop offset="0.9366" style="stop-color:rgb(100%,83.137256%,1.960784%);stop-opacity:0.9396;"/>
<stop offset="1" style="stop-color:rgb(100%,89.019608%,0.784314%);stop-opacity:1;"/>
</linearGradient>
<linearGradient id="linear2" gradientUnits="userSpaceOnUse" x1="157.006805" y1="-1328.062256" x2="152.464401" y2="-1339.702759" gradientTransform="matrix(0.368222,0.04,-0.04,0.368222,-95.728669,493.613146)">
<stop offset="0" style="stop-color:rgb(53.725493%,8.235294%,31.764707%);stop-opacity:0.6;"/>
<stop offset="1" style="stop-color:rgb(76.862746%,14.117648%,50.980395%);stop-opacity:0;"/>
</linearGradient>
<linearGradient id="linear3" gradientUnits="userSpaceOnUse" x1="-155.435196" y1="289.145386" x2="-147.601898" y2="298.042511" gradientTransform="matrix(0.368222,0.04,-0.04,0.368222,86.287113,-82.897667)">
<stop offset="0.00540541" style="stop-color:rgb(53.725493%,8.235294%,31.764707%);stop-opacity:0.5;"/>
<stop offset="0.4838" style="stop-color:rgb(100%,15.294118%,17.647059%);stop-opacity:0.5;"/>
<stop offset="1" style="stop-color:rgb(100%,15.294118%,17.647059%);stop-opacity:0;"/>
</linearGradient>
<linearGradient id="linear4" gradientUnits="userSpaceOnUse" x1="-140.613495" y1="304.610107" x2="-140.608002" y2="298.385498" gradientTransform="matrix(0.368222,0.04,-0.04,0.368222,86.287113,-82.897667)">
<stop offset="0" style="stop-color:rgb(76.862746%,14.117648%,50.980395%);stop-opacity:1;"/>
<stop offset="0.773" style="stop-color:rgb(76.862746%,14.117648%,50.980395%);stop-opacity:0;"/>
</linearGradient>
<linearGradient id="linear5" gradientUnits="userSpaceOnUse" x1="81.039398" y1="12.9119" x2="106.4814" y2="69.804298" gradientTransform="matrix(0.37037,0.00292501,-0.00292501,0.37037,-0.0415556,-0.912111)">
<stop offset="0" style="stop-color:rgb(100%,94.509804%,30.980393%);stop-opacity:1;"/>
<stop offset="0.2677" style="stop-color:rgb(100%,93.333334%,29.803923%);stop-opacity:1;"/>
<stop offset="0.4524" style="stop-color:rgb(100%,90.196079%,26.274511%);stop-opacity:1;"/>
<stop offset="0.6123" style="stop-color:rgb(100%,84.705883%,20.392157%);stop-opacity:1;"/>
<stop offset="0.7571" style="stop-color:rgb(100%,76.862746%,11.764706%);stop-opacity:1;"/>
<stop offset="0.892" style="stop-color:rgb(100%,67.058825%,0.784314%);stop-opacity:1;"/>
<stop offset="0.9019" style="stop-color:rgb(100%,66.274512%,0%);stop-opacity:1;"/>
<stop offset="0.9492" style="stop-color:rgb(100%,62.7451%,0%);stop-opacity:1;"/>
<stop offset="1" style="stop-color:rgb(100%,56.862748%,0%);stop-opacity:1;"/>
</linearGradient>
<linearGradient id="linear6" gradientUnits="userSpaceOnUse" x1="86.063103" y1="45.631699" x2="74.011398" y2="77.990303" gradientTransform="matrix(0.37037,0.00292501,-0.00292501,0.37037,-0.0415556,-0.912111)">
<stop offset="0" style="stop-color:rgb(100%,55.686277%,0%);stop-opacity:1;"/>
<stop offset="0.0150605" style="stop-color:rgb(100%,55.686277%,0%);stop-opacity:0.9733;"/>
<stop offset="0.2822" style="stop-color:rgb(100%,55.686277%,0%);stop-opacity:0.5;"/>
<stop offset="1" style="stop-color:rgb(100%,55.686277%,0%);stop-opacity:0;"/>
</linearGradient>
</defs>
<g id="surface1">
<path style=" stroke:none;fill-rule:nonzero;fill:rgb(12.54902%,7.058824%,22.745098%);fill-opacity:1;" d="M 45.964844 25.460938 L 48.257812 25.460938 L 48.257812 20.691406 L 53.589844 20.691406 L 53.589844 18.542969 L 48.257812 18.542969 L 48.257812 15.804688 L 53.589844 15.804688 L 53.589844 13.625 L 45.964844 13.625 Z M 55.253906 25.460938 L 57.550781 25.460938 L 57.550781 16.730469 L 55.253906 16.730469 Z M 56.402344 12.773438 C 55.589844 12.773438 54.960938 13.402344 54.960938 14.214844 C 54.960938 15.03125 55.550781 15.660156 56.402344 15.660156 C 57.253906 15.660156 57.847656 15.066406 57.847656 14.214844 C 57.847656 13.402344 57.253906 12.773438 56.402344 12.773438 Z M 61.550781 18.0625 L 61.550781 16.730469 L 59.328125 16.730469 L 59.328125 25.460938 L 61.550781 25.460938 L 61.550781 20.839844 C 61.550781 19.359375 62.289062 18.765625 63.4375 18.765625 C 63.957031 18.765625 64.363281 18.914062 64.621094 19.0625 L 65.4375 16.84375 C 65.066406 16.65625 64.546875 16.507812 63.957031 16.507812 C 62.84375 16.546875 61.957031 17.027344 61.550781 18.0625 Z M 70.175781 16.546875 C 67.546875 16.546875 65.585938 18.582031 65.585938 21.132812 C 65.585938 23.6875 67.398438 25.683594 70.210938 25.683594 C 72.136719 25.683594 73.359375 24.90625 74.25 23.648438 L 72.398438 22.578125 C 71.953125 23.28125 71.25 23.761719 70.210938 23.761719 C 68.917969 23.761719 67.992188 23.058594 67.695312 21.910156 L 74.730469 21.910156 L 74.730469 21.023438 C 74.730469 18.433594 72.804688 16.546875 70.175781 16.546875 Z M 67.804688 20.136719 C 68.175781 19.097656 69.027344 18.433594 70.175781 18.433594 C 71.359375 18.433594 72.175781 19.023438 72.472656 20.136719 Z M 76.800781 16.398438 L 76.800781 16.730469 L 75.359375 16.730469 L 75.359375 18.730469 L 76.800781 18.730469 L 76.800781 25.460938 L 79.023438 25.460938 L 79.023438 18.730469 L 81.132812 18.730469 L 81.132812 16.730469 L 79.023438 16.730469 L 79.023438 16.324219 C 79.023438 14.992188 79.210938 14.769531 80.765625 14.769531 L 81.132812 14.769531 L 81.132812 12.734375 L 80.542969 12.734375 C 77.691406 12.699219 76.800781 13.585938 76.800781 16.398438 Z M 86.28125 16.546875 C 83.652344 16.546875 81.652344 18.582031 81.652344 21.097656 C 81.652344 23.613281 83.652344 25.648438 86.28125 25.648438 C 88.945312 25.648438 90.945312 23.613281 90.945312 21.097656 C 90.945312 18.582031 88.910156 16.546875 86.28125 16.546875 Z M 86.316406 23.539062 C 84.984375 23.539062 83.910156 22.464844 83.910156 21.097656 C 83.910156 19.726562 84.949219 18.65625 86.316406 18.65625 C 87.648438 18.65625 88.722656 19.726562 88.722656 21.097656 C 88.722656 22.429688 87.648438 23.539062 86.316406 23.539062 Z M 100.164062 16.730469 L 97.535156 16.730469 L 95.683594 19.320312 L 93.832031 16.730469 L 91.167969 16.730469 L 94.277344 20.984375 L 91.019531 25.460938 L 93.722656 25.460938 L 95.683594 22.726562 L 97.683594 25.460938 L 100.386719 25.460938 L 97.054688 20.984375 Z M 100.164062 16.730469 "/>
<path style=" stroke:none;fill-rule:nonzero;fill:rgb(12.54902%,7.058824%,22.745098%);fill-opacity:1;" d="M 104.925781 13.667969 L 110 13.667969 C 112.222656 13.667969 113.667969 14.890625 113.667969 16.816406 C 113.667969 17.964844 113.109375 18.890625 112.074219 19.371094 C 113.222656 19.851562 113.890625 20.851562 113.890625 22.183594 C 113.890625 24.257812 112.371094 25.554688 110.109375 25.554688 L 104.851562 25.554688 L 104.851562 13.667969 Z M 106.296875 14.890625 L 106.296875 18.816406 L 110.109375 18.816406 C 111.554688 18.816406 112.332031 17.964844 112.332031 16.816406 C 112.332031 15.667969 111.445312 14.890625 110 14.890625 Z M 106.296875 20.074219 L 106.296875 24.296875 L 110.183594 24.296875 C 111.667969 24.296875 112.59375 23.40625 112.59375 22.183594 C 112.59375 20.925781 111.742188 20.074219 110.109375 20.074219 Z M 106.296875 20.074219 "/>
<path style=" stroke:none;fill-rule:nonzero;fill:rgb(12.54902%,7.058824%,22.745098%);fill-opacity:1;" d="M 115.554688 16.742188 L 116.851562 16.742188 L 116.851562 18.40625 C 117.222656 17.222656 118.109375 16.628906 119.371094 16.628906 C 119.964844 16.628906 120.480469 16.742188 120.851562 16.964844 L 120.296875 18.222656 C 120.035156 18.074219 119.703125 17.964844 119.222656 17.964844 C 117.742188 17.964844 116.925781 18.816406 116.925781 20.742188 L 116.925781 25.554688 L 115.554688 25.554688 Z M 115.554688 16.742188 "/>
<path style=" stroke:none;fill-rule:nonzero;fill:rgb(12.54902%,7.058824%,22.745098%);fill-opacity:1;" d="M 120.890625 21.148438 C 120.890625 18.59375 122.890625 16.554688 125.445312 16.554688 C 128 16.554688 130.035156 18.554688 130.035156 21.148438 C 130.035156 23.703125 128.035156 25.742188 125.445312 25.742188 C 122.851562 25.742188 120.890625 23.742188 120.890625 21.148438 Z M 128.667969 21.148438 C 128.667969 19.257812 127.257812 17.816406 125.445312 17.816406 C 123.628906 17.816406 122.222656 19.257812 122.222656 21.148438 C 122.222656 23.035156 123.59375 24.445312 125.445312 24.445312 C 127.296875 24.445312 128.667969 23.035156 128.667969 21.148438 Z M 128.667969 21.148438 "/>
<path style=" stroke:none;fill-rule:nonzero;fill:rgb(12.54902%,7.058824%,22.745098%);fill-opacity:1;" d="M 130.554688 16.742188 L 131.964844 16.742188 L 134.183594 23.703125 L 136.890625 16.742188 L 138.109375 16.742188 L 140.742188 23.667969 L 143.035156 16.742188 L 144.40625 16.742188 L 141.371094 25.554688 L 140.148438 25.554688 L 137.445312 18.59375 L 134.742188 25.554688 L 133.445312 25.554688 Z M 130.554688 16.742188 "/>
<path style=" stroke:none;fill-rule:nonzero;fill:rgb(12.54902%,7.058824%,22.745098%);fill-opacity:1;" d="M 144.890625 23.890625 L 146.035156 23.109375 C 146.628906 23.964844 147.519531 24.554688 148.890625 24.554688 C 150.257812 24.554688 150.964844 23.890625 150.964844 23.035156 C 150.964844 22.074219 149.742188 21.851562 148.480469 21.59375 C 146.964844 21.296875 145.371094 20.890625 145.371094 19.148438 C 145.371094 17.777344 146.554688 16.59375 148.628906 16.59375 C 150.257812 16.59375 151.371094 17.183594 152.148438 18.148438 L 151.035156 18.890625 C 150.519531 18.183594 149.742188 17.703125 148.628906 17.703125 C 147.257812 17.703125 146.742188 18.296875 146.742188 19.109375 C 146.742188 20.035156 147.816406 20.183594 149.183594 20.480469 C 150.703125 20.777344 152.371094 21.183594 152.371094 23 C 152.371094 24.371094 151.183594 25.742188 148.890625 25.742188 C 146.925781 25.742188 145.667969 25 144.890625 23.890625 Z M 144.890625 23.890625 "/>
<path style=" stroke:none;fill-rule:nonzero;fill:rgb(12.54902%,7.058824%,22.745098%);fill-opacity:1;" d="M 153.40625 21.183594 C 153.40625 18.59375 155.371094 16.59375 158 16.59375 C 160.554688 16.59375 162.480469 18.480469 162.480469 21.074219 L 162.480469 21.667969 L 154.703125 21.667969 C 154.890625 23.332031 156.183594 24.519531 158.035156 24.519531 C 159.445312 24.519531 160.371094 23.890625 161 22.816406 L 162.148438 23.480469 C 161.257812 24.890625 160 25.703125 158.074219 25.703125 C 155.222656 25.742188 153.40625 23.742188 153.40625 21.183594 Z M 154.742188 20.480469 L 161.109375 20.480469 C 160.890625 18.816406 159.703125 17.777344 158 17.777344 C 156.296875 17.777344 155.035156 18.925781 154.742188 20.480469 Z M 154.742188 20.480469 "/>
<path style=" stroke:none;fill-rule:nonzero;fill:rgb(12.54902%,7.058824%,22.745098%);fill-opacity:1;" d="M 164.074219 16.742188 L 165.371094 16.742188 L 165.371094 18.40625 C 165.742188 17.222656 166.628906 16.628906 167.890625 16.628906 C 168.480469 16.628906 169 16.742188 169.371094 16.964844 L 168.816406 18.222656 C 168.554688 18.074219 168.222656 17.964844 167.742188 17.964844 C 166.257812 17.964844 165.445312 18.816406 165.445312 20.742188 L 165.445312 25.554688 L 164.074219 25.554688 Z M 164.074219 16.742188 "/>
<path style=" stroke:none;fill-rule:nonzero;fill:url(#radial0);" d="M 34.554688 5.851562 C 33.816406 6.703125 33.445312 8.628906 34.183594 10.59375 C 34.925781 12.554688 36.074219 12.148438 36.777344 14.148438 C 37.703125 16.777344 37.222656 20.332031 37.222656 20.332031 C 37.222656 20.332031 38.332031 23.628906 39.148438 20.148438 C 40.925781 13.628906 34.519531 7.480469 34.554688 5.851562 Z M 34.554688 5.851562 "/>
<path style=" stroke:none;fill-rule:nonzero;fill:url(#radial1);" d="M 25.296875 33 C 32.851562 33.074219 39.035156 26.964844 39.074219 19.371094 C 39.109375 11.777344 33.074219 5.554688 25.554688 5.519531 C 18 5.445312 11.816406 11.554688 11.777344 19.148438 C 11.667969 26.742188 17.777344 32.964844 25.296875 33 Z M 25.296875 33 "/>
<path style=" stroke:none;fill-rule:nonzero;fill:url(#linear0);" d="M 35.59375 27.816406 C 35.296875 28.035156 35 28.183594 34.667969 28.371094 C 35.035156 27.816406 35.445312 27.183594 35.851562 26.445312 C 36.148438 26.109375 36.40625 25.816406 36.628906 25.480469 C 36.742188 25.332031 36.851562 25.109375 37 24.890625 C 37.777344 23.519531 38.628906 21.257812 38.703125 18.964844 C 38.703125 18.890625 38.703125 18.851562 38.703125 18.777344 C 38.703125 18.183594 38.667969 17.628906 38.554688 17.074219 C 38.554688 17.109375 38.554688 17.148438 38.554688 17.222656 C 38.554688 17.183594 38.554688 17.148438 38.519531 17.109375 C 38.519531 17.183594 38.554688 17.222656 38.554688 17.296875 C 38.703125 18.628906 38.59375 19.925781 38 20.890625 C 38 20.890625 38 20.925781 37.964844 20.925781 C 38.257812 19.480469 38.371094 17.851562 38.074219 16.257812 C 38.074219 16.257812 37.964844 15.480469 37 13.109375 C 36.445312 11.742188 35.480469 10.59375 34.628906 9.777344 C 33.890625 8.816406 33.183594 8.183594 32.816406 7.777344 C 32.035156 6.925781 31.703125 6.296875 31.554688 5.890625 C 31.445312 5.816406 29.925781 4.332031 29.816406 4.296875 C 29.148438 5.257812 27.035156 8.480469 28.035156 11.480469 C 28.480469 12.851562 29.59375 14.257812 30.777344 15.074219 C 30.816406 15.148438 31.480469 15.851562 31.777344 17.445312 C 32.074219 19.109375 31.890625 20.40625 31.222656 22.296875 C 30.445312 23.964844 28.40625 25.628906 26.554688 25.777344 C 22.554688 26.148438 21.109375 23.742188 21.109375 23.742188 C 22.519531 24.332031 24.109375 24.222656 25.074219 23.628906 C 26.035156 23.035156 26.628906 22.59375 27.109375 22.777344 C 27.59375 22.964844 27.964844 22.445312 27.628906 21.925781 C 27.296875 21.40625 26.445312 20.628906 25.183594 20.851562 C 24.222656 21 23.332031 21.777344 22.074219 21 C 22 20.964844 21.925781 20.890625 21.851562 20.851562 C 21.777344 20.777344 22.109375 20.925781 22.035156 20.890625 C 21.777344 20.742188 21.371094 20.445312 21.257812 20.332031 C 21.222656 20.332031 21.445312 20.40625 21.445312 20.371094 C 20.257812 19.371094 20.40625 18.742188 20.445312 18.296875 C 20.480469 17.964844 20.703125 17.554688 21.074219 17.371094 C 21.257812 17.480469 21.371094 17.554688 21.371094 17.554688 C 21.371094 17.554688 21.296875 17.40625 21.257812 17.332031 C 21.257812 17.332031 21.296875 17.332031 21.296875 17.332031 C 21.445312 17.40625 21.742188 17.59375 21.925781 17.703125 C 22.148438 17.851562 22.222656 18 22.222656 18 C 22.222656 18 22.296875 17.964844 22.222656 17.851562 C 22.222656 17.816406 22.148438 17.628906 21.925781 17.445312 C 22.035156 17.519531 22.148438 17.59375 22.296875 17.703125 C 22.371094 17.480469 22.480469 17.257812 22.445312 16.851562 C 22.445312 16.554688 22.445312 16.480469 22.40625 16.371094 C 22.371094 16.257812 22.445312 16.222656 22.519531 16.332031 C 22.519531 16.257812 22.480469 16.183594 22.445312 16.109375 C 22.554688 15.777344 24.554688 14.890625 24.703125 14.777344 C 24.925781 14.628906 25.148438 14.40625 25.296875 14.148438 C 25.40625 13.964844 25.480469 13.742188 25.519531 13.332031 C 25.519531 13.074219 25.40625 12.890625 23.371094 12.667969 C 22.816406 12.59375 22.480469 12.183594 22.296875 11.816406 C 22.257812 11.742188 22.222656 11.667969 22.183594 11.59375 C 22.148438 11.480469 22.109375 11.40625 22.109375 11.332031 C 22.445312 10.371094 23 9.59375 23.851562 9 C 23.890625 8.964844 23.667969 9 23.703125 8.964844 C 23.742188 8.925781 24.109375 8.777344 24.148438 8.742188 C 24.222656 8.703125 23.816406 8.519531 23.445312 8.554688 C 23.074219 8.59375 23 8.628906 22.777344 8.703125 C 22.851562 8.628906 23.109375 8.519531 23.074219 8.519531 C 22.667969 8.59375 22.183594 8.816406 21.742188 9.074219 C 21.742188 9.035156 21.742188 9 21.777344 8.925781 C 21.59375 9 21.074219 9.332031 20.925781 9.628906 C 20.925781 9.554688 20.925781 9.519531 20.925781 9.480469 C 20.777344 9.59375 20.628906 9.742188 20.519531 9.890625 C 19.371094 9.40625 18.371094 9.371094 17.480469 9.59375 C 17.296875 9.40625 17.183594 9.554688 16.777344 8.59375 C 16.742188 8.519531 16.816406 8.667969 16.777344 8.59375 C 16.703125 8.40625 16.816406 8.851562 16.777344 8.59375 C 16.035156 9.148438 15.109375 9.777344 14.667969 10.222656 C 14.667969 10.222656 15.183594 10.074219 14.667969 10.222656 C 14.480469 10.257812 14.480469 10.371094 14.445312 11.371094 C 14.445312 11.445312 14.445312 11.519531 14.445312 11.59375 C 14.074219 12.035156 13.816406 12.445312 13.742188 12.628906 C 13.257812 13.445312 12.742188 14.703125 12.222656 16.667969 C 12.222656 16.667969 12.519531 15.925781 13.035156 15.109375 C 12.628906 16.148438 12.183594 17.816406 12.109375 20.371094 C 12.109375 20.296875 12.257812 19.667969 12.519531 18.816406 C 12.445312 20.519531 12.59375 22.628906 13.554688 25.035156 C 13.851562 25.742188 14.296875 26.816406 15.109375 28 C 17.628906 30.703125 21.222656 32.40625 25.183594 32.40625 C 29.296875 32.445312 33.035156 30.667969 35.59375 27.816406 Z M 35.59375 27.816406 "/>
<path style=" stroke:none;fill-rule:nonzero;fill:url(#radial2);" d="M 32.519531 29.742188 C 37.554688 29.183594 39.816406 24.035156 36.964844 23.925781 C 34.371094 23.816406 30.148438 30 32.519531 29.742188 Z M 32.519531 29.742188 "/>
<path style=" stroke:none;fill-rule:nonzero;fill:url(#radial3);" d="M 37.332031 22.851562 C 40.816406 20.851562 39.925781 16.519531 39.925781 16.519531 C 39.925781 16.519531 38.59375 18.074219 37.667969 20.519531 C 36.742188 22.964844 35.257812 24.035156 37.332031 22.851562 Z M 37.332031 22.851562 "/>
<path style=" stroke:none;fill-rule:nonzero;fill:url(#radial4);" d="M 26.296875 32.257812 C 31.109375 33.851562 35.257812 30.074219 32.742188 28.777344 C 30.40625 27.628906 24 31.519531 26.296875 32.257812 Z M 26.296875 32.257812 "/>
<path style=" stroke:none;fill-rule:nonzero;fill:url(#radial5);" d="M 37.667969 24.703125 C 37.777344 24.554688 37.964844 24 38.074219 23.777344 C 38.925781 22.40625 38.964844 21.332031 38.964844 21.296875 C 39.480469 18.742188 39.445312 17.703125 39.148438 15.742188 C 38.890625 14.183594 37.816406 11.925781 36.851562 10.851562 C 35.851562 9.742188 36.554688 10.109375 35.59375 9.296875 C 34.816406 8.332031 34 7.40625 33.554688 7.035156 C 30.371094 4.332031 30.445312 3.742188 30.519531 3.667969 C 30.519531 3.667969 30.480469 3.703125 30.480469 3.703125 C 30.40625 3.554688 30.371094 3.445312 30.371094 3.445312 C 30.371094 3.445312 28.59375 5.183594 28.222656 8.109375 C 27.964844 10.035156 28.667969 12.035156 29.703125 13.296875 C 30.59375 14.371094 31.519531 15.109375 31.519531 15.109375 C 32.296875 16.257812 32.703125 17.628906 32.703125 19.109375 C 32.667969 22.851562 29.628906 25.851562 25.890625 25.816406 C 25.371094 25.816406 24.851562 25.742188 24.371094 25.628906 C 22.59375 25.296875 21.59375 24.371094 21.109375 23.777344 C 20.816406 23.445312 20.703125 23.183594 20.703125 23.183594 C 22.296875 23.777344 24.035156 23.667969 25.109375 23.074219 C 26.183594 22.480469 26.851562 22.035156 27.371094 22.222656 C 27.890625 22.40625 28.296875 21.890625 27.925781 21.371094 C 27.554688 20.851562 26.628906 20.109375 25.222656 20.296875 C 24.148438 20.445312 23.148438 21.183594 21.777344 20.445312 C 21.703125 20.40625 21.59375 20.332031 21.519531 20.296875 C 21.445312 20.257812 21.816406 20.371094 21.742188 20.332031 C 21.480469 20.183594 21 19.890625 20.851562 19.816406 C 20.816406 19.816406 21.074219 19.890625 21.035156 19.851562 C 19.742188 18.890625 19.890625 18.222656 19.964844 17.816406 C 20 17.480469 20.222656 17.074219 20.628906 16.890625 C 20.816406 17 20.925781 17.074219 20.925781 17.074219 C 20.925781 17.074219 20.851562 16.925781 20.816406 16.851562 C 20.816406 16.851562 20.851562 16.851562 20.851562 16.851562 C 21 16.925781 21.371094 17.109375 21.554688 17.222656 C 21.777344 17.371094 21.890625 17.519531 21.890625 17.519531 C 21.890625 17.519531 21.964844 17.480469 21.890625 17.371094 C 21.890625 17.332031 21.816406 17.148438 21.554688 16.964844 C 21.667969 17.035156 21.816406 17.109375 21.964844 17.222656 C 22.035156 17 22.148438 16.777344 22.148438 16.371094 C 22.148438 16.074219 22.148438 16 22.074219 15.890625 C 22.035156 15.777344 22.109375 15.742188 22.183594 15.851562 C 22.183594 15.777344 22.148438 15.703125 22.109375 15.628906 C 22.222656 15.296875 24.445312 14.40625 24.628906 14.296875 C 24.851562 14.148438 25.109375 13.925781 25.296875 13.667969 C 25.40625 13.480469 25.519531 13.257812 25.554688 12.851562 C 25.554688 12.667969 25.519531 12.554688 24.925781 12.40625 C 24.554688 12.332031 24.035156 12.257812 23.183594 12.148438 C 22.554688 12.074219 22.222656 11.703125 22 11.332031 C 21.964844 11.257812 21.925781 11.183594 21.890625 11.109375 C 21.851562 11 21.816406 10.925781 21.816406 10.851562 C 22.183594 9.925781 22.816406 9.109375 23.742188 8.519531 C 23.777344 8.480469 23.554688 8.519531 23.59375 8.480469 C 23.667969 8.445312 24.035156 8.296875 24.109375 8.257812 C 24.183594 8.222656 23.742188 8.035156 23.332031 8.074219 C 22.925781 8.109375 22.851562 8.148438 22.628906 8.222656 C 22.703125 8.148438 23 8.035156 22.925781 8.035156 C 22.480469 8.109375 21.925781 8.332031 21.445312 8.59375 C 21.445312 8.554688 21.445312 8.519531 21.480469 8.445312 C 21.257812 8.519531 20.703125 8.851562 20.554688 9.148438 C 20.554688 9.074219 20.554688 9.035156 20.554688 9 C 20.40625 9.109375 20.257812 9.257812 20.109375 9.40625 C 18.851562 8.925781 17.703125 8.890625 16.777344 9.109375 C 16.554688 8.925781 16.222656 8.628906 15.777344 7.703125 C 15.742188 7.628906 15.742188 7.816406 15.703125 7.777344 C 15.519531 7.332031 15.40625 6.667969 15.445312 6.183594 C 15.445312 6.183594 15.074219 6.371094 14.742188 7.074219 C 14.667969 7.183594 14.628906 7.257812 14.59375 7.332031 C 14.59375 7.371094 14.628906 7.109375 14.628906 7.109375 C 14.59375 7.183594 14.445312 7.332031 14.371094 7.480469 C 14.332031 7.59375 14.257812 7.667969 14.222656 7.816406 C 14.222656 7.777344 14.222656 7.628906 14.222656 7.667969 C 14.074219 7.925781 13.964844 8.222656 13.851562 8.59375 C 13.667969 9.148438 13.480469 9.890625 13.445312 10.890625 C 13.445312 10.964844 13.445312 11.035156 13.445312 11.109375 C 13.035156 11.554688 12.777344 11.964844 12.667969 12.148438 C 12.148438 12.925781 11.554688 14.183594 11 16.148438 C 11 16.148438 11.332031 15.40625 11.890625 14.628906 C 11.40625 15.667969 10.964844 17.332031 10.851562 19.851562 C 10.851562 19.777344 11 19.148438 11.296875 18.296875 C 11.183594 20 11.371094 22.074219 12.445312 24.445312 C 13.074219 25.851562 14.519531 28.667969 18.035156 30.890625 C 18.035156 30.890625 19.257812 31.816406 21.332031 32.480469 C 21.480469 32.554688 21.628906 32.59375 21.816406 32.667969 C 21.777344 32.628906 21.703125 32.628906 21.667969 32.59375 C 22.851562 32.964844 24.296875 33.257812 25.925781 33.257812 C 31.332031 33.296875 32.925781 31.148438 32.925781 31.148438 C 33 31.074219 33.074219 31 33.148438 30.925781 C 32.296875 31.742188 30.332031 31.777344 29.628906 31.703125 C 30.890625 31.332031 31.703125 31.035156 33.296875 30.445312 C 33.480469 30.371094 33.667969 30.296875 33.851562 30.222656 C 33.890625 30.222656 33.890625 30.183594 33.925781 30.183594 C 33.964844 30.183594 34 30.148438 34.035156 30.148438 C 34.703125 29.816406 35.445312 29.40625 36.222656 28.816406 C 37.816406 27.554688 38.183594 26.332031 38.371094 25.480469 C 38.332031 25.554688 38.257812 25.742188 38.222656 25.851562 C 37.816406 26.742188 36.890625 27.257812 35.890625 27.703125 C 36.296875 27.183594 36.777344 26.519531 37.222656 25.777344 C 37.332031 25.554688 37.445312 25.035156 37.667969 24.703125 Z M 37.667969 24.703125 "/>
<path style=" stroke:none;fill-rule:nonzero;fill:url(#radial6);" d="M 35.703125 27.742188 C 36.371094 27.035156 36.964844 26.222656 37.40625 25.296875 C 38.554688 22.925781 40.371094 18.964844 39 14.777344 C 37.925781 11.480469 36.445312 9.667969 34.554688 7.925781 C 31.480469 5.035156 30.628906 3.742188 30.628906 3 C 30.628906 3 27.035156 6.964844 28.554688 11.148438 C 30.035156 15.296875 33.222656 15.183594 35.296875 19.554688 C 37.742188 24.667969 33.222656 30.222656 29.480469 31.742188 C 29.703125 31.703125 37.742188 29.925781 38.183594 25.371094 C 38.183594 25.445312 38 26.703125 35.703125 27.742188 Z M 35.703125 27.742188 "/>
<path style=" stroke:none;fill-rule:nonzero;fill:url(#linear1);" d="M 25.445312 12.816406 C 25.445312 12.554688 25.332031 12.371094 23.074219 12.148438 C 22.148438 12.074219 21.816406 11.183594 21.703125 10.851562 C 21.371094 11.703125 21.222656 12.59375 21.296875 13.667969 C 21.332031 14.371094 21.816406 15.148438 22.035156 15.59375 C 22.035156 15.59375 22.074219 15.519531 22.109375 15.519531 C 22.554688 15.074219 24.332031 14.40625 24.519531 14.332031 C 24.703125 14.148438 25.40625 13.628906 25.445312 12.816406 Z M 25.445312 12.816406 "/>
<path style=" stroke:none;fill-rule:nonzero;fill:url(#linear2);" d="M 15.667969 7.703125 C 15.628906 7.628906 15.628906 7.816406 15.59375 7.777344 C 15.40625 7.332031 15.296875 6.667969 15.332031 6.183594 C 15.332031 6.183594 14.964844 6.371094 14.628906 7.074219 C 14.554688 7.183594 14.519531 7.257812 14.480469 7.332031 C 14.480469 7.371094 14.519531 7.109375 14.519531 7.109375 C 14.480469 7.183594 14.332031 7.332031 14.257812 7.480469 C 14.222656 7.628906 14.148438 7.667969 14.109375 7.851562 C 14.109375 7.890625 14.109375 7.667969 14.109375 7.703125 C 13.371094 9.109375 13.222656 11.257812 13.296875 11.148438 C 14.851562 9.480469 16.667969 9.109375 16.667969 9.109375 C 16.480469 8.964844 16.035156 8.554688 15.667969 7.703125 Z M 15.667969 7.703125 "/>
<path style=" stroke:none;fill-rule:nonzero;fill:url(#linear3);" d="M 21.40625 25.109375 C 19.257812 24.183594 16.816406 22.851562 16.964844 19.925781 C 17.109375 16.035156 20.59375 16.851562 20.59375 16.851562 C 20.445312 16.890625 20.109375 17.148438 19.964844 17.40625 C 19.816406 17.742188 19.59375 18.480469 20.296875 19.296875 C 21.445312 20.554688 17.925781 22.222656 23.296875 25.480469 C 23.445312 25.519531 22.074219 25.40625 21.40625 25.109375 Z M 21.40625 25.109375 "/>
<path style=" stroke:none;fill-rule:nonzero;fill:url(#linear4);" d="M 20.667969 23.183594 C 22.183594 23.742188 23.964844 23.667969 25.035156 23.074219 C 25.742188 22.667969 26.667969 22.074219 27.222656 22.222656 C 26.742188 22.035156 26.371094 21.925781 25.925781 21.925781 C 25.851562 21.925781 25.777344 21.925781 25.667969 21.925781 C 25.519531 21.925781 25.371094 21.925781 25.183594 21.964844 C 24.925781 22 24.59375 22.148438 24.332031 22.109375 C 24.332031 22.109375 24.59375 22 24.59375 22 C 24.445312 22.035156 24.296875 22.035156 24.109375 22.035156 C 24 22.035156 23.925781 22.074219 23.816406 22.074219 C 20.628906 22.332031 17.964844 20.296875 17.964844 20.296875 C 17.742188 21.035156 18.964844 22.59375 20.667969 23.183594 Z M 20.667969 23.183594 "/>
<path style=" stroke:none;fill-rule:nonzero;fill:url(#linear5);" d="M 35.703125 27.742188 C 38.925781 24.628906 40.59375 20.777344 39.925781 16.480469 C 39.925781 16.480469 40.183594 18.703125 39.109375 20.925781 C 39.628906 18.742188 39.703125 16 38.40625 13.148438 C 36.667969 9.371094 33.777344 7.332031 32.667969 6.519531 C 31 5.257812 30.296875 3.964844 30.296875 3.703125 C 29.777344 4.742188 28.222656 8.257812 30.074219 11.332031 C 31.816406 14.183594 34.554688 15.074219 36.445312 17.703125 C 39.964844 22.554688 35.703125 27.742188 35.703125 27.742188 Z M 35.703125 27.742188 "/>
<path style=" stroke:none;fill-rule:nonzero;fill:url(#linear6);" d="M 35.296875 19.554688 C 34.183594 17.222656 32.816406 16.222656 31.480469 15.109375 C 31.628906 15.332031 31.667969 15.40625 31.742188 15.554688 C 32.890625 16.816406 34.59375 19.851562 33.296875 23.667969 C 30.890625 30.816406 21.519531 27.371094 20.554688 26.40625 C 20.925781 30.554688 27.851562 32.59375 32.371094 29.925781 C 35 27.480469 37.109375 23.371094 35.296875 19.554688 Z M 35.296875 19.554688 "/>
</g>
</svg>
