<?xml version="1.0" encoding="UTF-8"?>
<svg xmlns="http://www.w3.org/2000/svg" xmlns:xlink="http://www.w3.org/1999/xlink" width="180px" height="40px" viewBox="0 0 180 40" version="1.1">
<defs>
<linearGradient id="linear0" gradientUnits="userSpaceOnUse" x1="24.5093" y1="24.635799" x2="-25.962799" y2="-26.212099" gradientTransform="matrix(0.37037,0,0,-0.37037,20.880408,19.997593)">
<stop offset="0.0000009" style="stop-color:rgb(100%,58.823532%,25.098041%);stop-opacity:1;"/>
<stop offset="0.6" style="stop-color:rgb(98.823529%,25.098041%,33.333334%);stop-opacity:1;"/>
<stop offset="1" style="stop-color:rgb(89.019608%,8.235294%,52.941179%);stop-opacity:1;"/>
</linearGradient>
<linearGradient id="linear1" gradientUnits="userSpaceOnUse" x1="25.223499" y1="32.658699" x2="-14.2275" y2="-18.439699" gradientTransform="matrix(0.37037,0,0,-0.37037,20.880408,19.997593)">
<stop offset="0.00000063" style="stop-color:rgb(100%,95.294118%,43.137255%);stop-opacity:0.8;"/>
<stop offset="0.752" style="stop-color:rgb(100%,95.294118%,43.137255%);stop-opacity:0;"/>
</linearGradient>
<linearGradient id="linear2" gradientUnits="userSpaceOnUse" x1="-24.800301" y1="-30.856501" x2="17.5184" y2="11.4622" gradientTransform="matrix(0.37037,0,0,-0.37037,20.880408,19.997593)">
<stop offset="0" style="stop-color:rgb(0%,56.470591%,92.941177%);stop-opacity:1;"/>
<stop offset="0.3863" style="stop-color:rgb(35.686275%,42.745098%,97.254902%);stop-opacity:1;"/>
<stop offset="0.6293" style="stop-color:rgb(56.470591%,34.901962%,100%);stop-opacity:1;"/>
<stop offset="1" style="stop-color:rgb(72.156864%,20%,88.235295%);stop-opacity:1;"/>
</linearGradient>
<linearGradient id="linear3" gradientUnits="userSpaceOnUse" x1="35.590698" y1="0.9055" x2="27.141199" y2="-13.7295" gradientTransform="matrix(0.37037,0,0,-0.37037,20.880408,19.997593)">
<stop offset="0" style="stop-color:rgb(44.705883%,13.333334%,56.862748%);stop-opacity:0.5;"/>
<stop offset="0.5" style="stop-color:rgb(44.705883%,13.333334%,56.862748%);stop-opacity:0;"/>
</linearGradient>
<linearGradient id="linear4" gradientUnits="userSpaceOnUse" x1="18.1385" y1="-17.850201" x2="-5.291" y2="-30.446699" gradientTransform="matrix(0.37037,0,0,-0.37037,20.880408,19.997593)">
<stop offset="0" style="stop-color:rgb(44.705883%,13.333334%,56.862748%);stop-opacity:0.5;"/>
<stop offset="0.5" style="stop-color:rgb(44.705883%,13.333334%,56.862748%);stop-opacity:0;"/>
</linearGradient>
<filter id="alpha" filterUnits="objectBoundingBox" x="0%" y="0%" width="100%" height="100%">
  <feColorMatrix type="matrix" in="SourceGraphic" values="0 0 0 0 1 0 0 0 0 1 0 0 0 0 1 0 0 0 1 0"/>
</filter>
<mask id="mask0">
  <g filter="url(#alpha)">
<rect x="0" y="0" width="180" height="40" style="fill:rgb(0%,0%,0%);fill-opacity:0.9;stroke:none;"/>
  </g>
</mask>
<linearGradient id="linear5" gradientUnits="userSpaceOnUse" x1="-40.273701" y1="-0.308" x2="-14.7028" y2="-19.0767" gradientTransform="matrix(0.37037,0,0,-0.37037,20.880408,19.997593)">
<stop offset="0" style="stop-color:rgb(1.960784%,25.098041%,58.823532%);stop-opacity:0.5;"/>
<stop offset="0.0999519" style="stop-color:rgb(9.019608%,23.137255%,63.137257%);stop-opacity:0.4422;"/>
<stop offset="0.2949" style="stop-color:rgb(20.392157%,20.392157%,70.19608%);stop-opacity:0.3294;"/>
<stop offset="0.4888" style="stop-color:rgb(28.235295%,18.039216%,75.686276%);stop-opacity:0.2171;"/>
<stop offset="0.6797" style="stop-color:rgb(33.333334%,16.862746%,78.431374%);stop-opacity:0.1066;"/>
<stop offset="0.864" style="stop-color:rgb(34.901962%,16.470589%,79.607844%);stop-opacity:0;"/>
</linearGradient>
<clipPath id="clip1">
  <rect x="0" y="0" width="180" height="40"/>
</clipPath>
<g id="surface5" clip-path="url(#clip1)">
<path style=" stroke:none;fill-rule:nonzero;fill:url(#linear5);" d="M 9.585938 21.589844 C 8.878906 20.773438 8.878906 19.257812 9.585938 18.40625 C 9.585938 18.40625 8.214844 20.035156 7.878906 20.480469 C 6.398438 22.441406 8.175781 24.480469 8.214844 24.480469 C 9.878906 26.367188 11.585938 28.144531 13.398438 29.847656 L 15.511719 27.738281 C 13.398438 25.8125 11.472656 23.773438 9.585938 21.589844 Z M 9.585938 21.589844 "/>
</g>
</defs>
<g id="surface1">
<path style=" stroke:none;fill-rule:nonzero;fill:url(#linear0);" d="M 20.878906 34.8125 C 19.621094 34.8125 18.324219 34.40625 17.363281 33.554688 C 13.769531 30.40625 10.472656 27.144531 7.324219 23.515625 C 5.65625 21.554688 5.65625 18.40625 7.324219 16.480469 C 10.472656 12.886719 13.730469 9.589844 17.363281 6.441406 C 19.324219 4.773438 22.472656 4.773438 24.398438 6.441406 C 27.992188 9.554688 31.25 12.847656 34.4375 16.480469 C 36.101562 18.441406 36.101562 21.589844 34.4375 23.515625 C 34.066406 23.960938 33.769531 24.292969 33.398438 24.664062 L 33.027344 25.070312 C 32.472656 25.664062 31.546875 25.738281 30.917969 25.183594 C 30.324219 24.628906 30.289062 23.703125 30.804688 23.070312 L 31.175781 22.664062 C 31.511719 22.292969 31.804688 21.996094 32.140625 21.589844 C 32.84375 20.773438 32.84375 19.257812 32.140625 18.40625 C 29.066406 14.886719 25.878906 11.703125 22.398438 8.664062 C 21.585938 7.960938 20.066406 7.960938 19.214844 8.664062 C 15.730469 11.703125 12.546875 14.886719 9.472656 18.40625 C 8.769531 19.21875 8.769531 20.738281 9.472656 21.589844 C 12.546875 25.109375 15.730469 28.292969 19.214844 31.332031 C 20.027344 32.035156 21.546875 32.035156 22.398438 31.332031 C 23.917969 29.996094 25.25 28.773438 26.4375 27.628906 L 22.363281 23.886719 L 22.324219 23.847656 C 21.878906 23.367188 21.585938 22.664062 21.621094 21.960938 C 21.65625 21.21875 21.953125 20.554688 22.511719 20.035156 C 23.363281 19.332031 23.84375 18.480469 23.84375 17.773438 C 23.84375 16.921875 23.472656 16.144531 22.84375 15.554688 C 22.214844 14.996094 21.398438 14.738281 20.546875 14.8125 C 19.175781 14.960938 18.066406 16.109375 17.917969 17.480469 C 17.804688 18.664062 18.917969 19.738281 19.25 20.035156 C 19.804688 20.515625 20.140625 21.257812 20.140625 21.996094 C 20.140625 22.738281 19.804688 23.441406 19.25 23.921875 L 17.4375 25.554688 C 16.804688 26.109375 15.878906 26.035156 15.363281 25.441406 C 14.804688 24.8125 14.878906 23.886719 15.472656 23.367188 L 17.027344 21.996094 C 15.585938 20.589844 14.878906 18.886719 15.027344 17.21875 C 15.289062 14.441406 17.511719 12.183594 20.289062 11.886719 C 21.953125 11.703125 23.65625 12.257812 24.878906 13.367188 C 26.140625 14.480469 26.84375 16.109375 26.84375 17.773438 C 26.84375 19.257812 26.101562 20.773438 24.804688 22.035156 L 29.398438 26.21875 C 29.769531 26.589844 29.992188 27.070312 29.992188 27.554688 C 29.992188 28.035156 29.804688 28.515625 29.4375 28.886719 C 27.992188 30.292969 26.363281 31.8125 24.398438 33.515625 C 23.4375 34.40625 22.140625 34.8125 20.878906 34.8125 Z M 20.878906 34.8125 "/>
<path style=" stroke:none;fill-rule:nonzero;fill:url(#linear1);" d="M 20.878906 34.8125 C 19.621094 34.8125 18.324219 34.40625 17.363281 33.554688 C 13.769531 30.40625 10.472656 27.144531 7.324219 23.515625 C 5.65625 21.554688 5.65625 18.40625 7.324219 16.480469 C 10.472656 12.886719 13.730469 9.589844 17.363281 6.441406 C 19.324219 4.773438 22.472656 4.773438 24.398438 6.441406 C 27.992188 9.554688 31.25 12.847656 34.4375 16.480469 C 36.101562 18.441406 36.101562 21.589844 34.4375 23.515625 C 34.066406 23.960938 33.769531 24.292969 33.398438 24.664062 L 33.027344 25.070312 C 32.472656 25.664062 31.546875 25.738281 30.917969 25.183594 C 30.324219 24.628906 30.289062 23.703125 30.804688 23.070312 L 31.175781 22.664062 C 31.511719 22.292969 31.804688 21.996094 32.140625 21.589844 C 32.84375 20.773438 32.84375 19.257812 32.140625 18.40625 C 29.066406 14.886719 25.878906 11.703125 22.398438 8.664062 C 21.585938 7.960938 20.066406 7.960938 19.214844 8.664062 C 15.730469 11.703125 12.546875 14.886719 9.472656 18.40625 C 8.769531 19.21875 8.769531 20.738281 9.472656 21.589844 C 12.546875 25.109375 15.730469 28.292969 19.214844 31.332031 C 20.027344 32.035156 21.546875 32.035156 22.398438 31.332031 C 23.917969 29.996094 25.25 28.773438 26.4375 27.628906 L 22.363281 23.886719 L 22.324219 23.847656 C 21.878906 23.367188 21.585938 22.664062 21.621094 21.960938 C 21.65625 21.21875 21.953125 20.554688 22.511719 20.035156 C 23.363281 19.332031 23.84375 18.480469 23.84375 17.773438 C 23.84375 16.921875 23.472656 16.144531 22.84375 15.554688 C 22.214844 14.996094 21.398438 14.738281 20.546875 14.8125 C 19.175781 14.960938 18.066406 16.109375 17.917969 17.480469 C 17.804688 18.664062 18.917969 19.738281 19.25 20.035156 C 19.804688 20.515625 20.140625 21.257812 20.140625 21.996094 C 20.140625 22.738281 19.804688 23.441406 19.25 23.921875 L 17.4375 25.554688 C 16.804688 26.109375 15.878906 26.035156 15.363281 25.441406 C 14.804688 24.8125 14.878906 23.886719 15.472656 23.367188 L 17.027344 21.996094 C 15.585938 20.589844 14.878906 18.886719 15.027344 17.21875 C 15.289062 14.441406 17.511719 12.183594 20.289062 11.886719 C 21.953125 11.703125 23.65625 12.257812 24.878906 13.367188 C 26.140625 14.480469 26.84375 16.109375 26.84375 17.773438 C 26.84375 19.257812 26.101562 20.773438 24.804688 22.035156 L 29.398438 26.21875 C 29.769531 26.589844 29.992188 27.070312 29.992188 27.554688 C 29.992188 28.035156 29.804688 28.515625 29.4375 28.886719 C 27.992188 30.292969 26.363281 31.8125 24.398438 33.515625 C 23.4375 34.40625 22.140625 34.8125 20.878906 34.8125 Z M 20.878906 34.8125 "/>
<path style=" stroke:none;fill-rule:nonzero;fill:url(#linear2);" d="M 34.65625 21.847656 C 34.25 20.480469 32.214844 18.40625 32.214844 18.40625 C 32.917969 19.21875 32.917969 20.738281 32.214844 21.589844 C 31.84375 21.996094 31.585938 22.332031 31.25 22.664062 L 30.878906 23.070312 C 30.324219 23.664062 30.363281 24.628906 30.992188 25.183594 C 31.585938 25.738281 32.546875 25.703125 33.101562 25.070312 L 33.472656 24.664062 C 33.65625 24.441406 33.84375 24.257812 34.066406 24.035156 C 34.066406 23.960938 35.027344 23.144531 34.65625 21.847656 Z M 27.214844 28.332031 L 26.511719 27.628906 C 25.324219 28.773438 23.992188 29.996094 22.472656 31.332031 C 21.65625 32.035156 20.140625 32.035156 19.289062 31.332031 C 15.804688 28.292969 12.621094 25.109375 9.546875 21.589844 C 8.84375 20.773438 8.84375 19.257812 9.546875 18.40625 C 9.546875 18.40625 8.175781 20.035156 7.84375 20.480469 C 6.363281 22.441406 8.140625 24.480469 8.175781 24.480469 C 11.066406 27.703125 14.066406 30.703125 17.363281 33.554688 C 18.324219 34.40625 19.585938 34.8125 20.878906 34.8125 C 22.140625 34.8125 23.4375 34.40625 24.398438 33.554688 C 25.472656 32.628906 26.4375 31.738281 27.324219 30.921875 C 27.621094 30.628906 28.289062 29.960938 27.953125 29.332031 C 27.730469 28.847656 27.4375 28.554688 27.214844 28.332031 Z M 27.214844 28.332031 "/>
<path style=" stroke:none;fill-rule:nonzero;fill:url(#linear3);" d="M 34.65625 21.847656 C 35.066406 23.144531 34.066406 23.921875 33.992188 23.996094 C 33.804688 24.21875 33.621094 24.40625 33.398438 24.628906 L 33.027344 25.035156 C 32.472656 25.628906 31.546875 25.703125 30.917969 25.144531 C 30.324219 24.589844 30.289062 23.664062 30.804688 23.035156 L 31.175781 22.628906 C 31.511719 22.257812 31.804688 21.960938 32.140625 21.554688 C 32.84375 20.738281 32.84375 19.21875 32.140625 18.367188 C 32.175781 18.40625 34.25 20.515625 34.65625 21.847656 Z M 34.65625 21.847656 "/>
<path style=" stroke:none;fill-rule:nonzero;fill:url(#linear4);" d="M 27.953125 29.332031 C 27.730469 28.847656 27.4375 28.589844 27.214844 28.332031 C 26.992188 28.070312 26.511719 27.628906 26.511719 27.628906 C 25.324219 28.773438 23.992188 29.996094 22.472656 31.332031 C 21.65625 32.035156 20.140625 32.035156 19.289062 31.332031 C 17.953125 30.183594 16.695312 28.996094 15.4375 27.773438 L 13.324219 29.886719 C 14.621094 31.144531 15.953125 32.367188 17.324219 33.554688 C 18.324219 34.40625 19.585938 34.8125 20.878906 34.8125 C 22.140625 34.8125 23.4375 34.40625 24.398438 33.554688 C 25.472656 32.628906 26.4375 31.738281 27.324219 30.921875 C 27.65625 30.628906 28.289062 29.960938 27.953125 29.332031 Z M 27.953125 29.332031 "/>
<use xlink:href="#surface5" mask="url(#mask0)"/>
<path style=" stroke:none;fill-rule:nonzero;fill:rgb(12.54902%,7.058824%,22.745098%);fill-opacity:1;" d="M 42.003906 25.917969 L 44.296875 25.917969 L 44.296875 21.148438 L 49.628906 21.148438 L 49.628906 19 L 44.296875 19 L 44.296875 16.261719 L 49.628906 16.261719 L 49.628906 14.082031 L 42.003906 14.082031 Z M 51.296875 25.917969 L 53.589844 25.917969 L 53.589844 17.1875 L 51.296875 17.1875 Z M 52.441406 13.230469 C 51.628906 13.230469 51 13.859375 51 14.671875 C 51 15.484375 51.589844 16.113281 52.441406 16.113281 C 53.292969 16.113281 53.886719 15.523438 53.886719 14.671875 C 53.886719 13.859375 53.292969 13.230469 52.441406 13.230469 Z M 57.589844 18.519531 L 57.589844 17.1875 L 55.367188 17.1875 L 55.367188 25.917969 L 57.589844 25.917969 L 57.589844 21.292969 C 57.589844 19.816406 58.328125 19.222656 59.476562 19.222656 C 59.996094 19.222656 60.402344 19.371094 60.660156 19.519531 L 61.476562 17.300781 C 61.105469 17.113281 60.585938 16.964844 59.996094 16.964844 C 58.882812 17.003906 57.996094 17.484375 57.589844 18.519531 Z M 66.214844 17.003906 C 63.585938 17.003906 61.625 19.039062 61.625 21.589844 C 61.625 24.144531 63.4375 26.140625 66.25 26.140625 C 68.175781 26.140625 69.398438 25.363281 70.289062 24.105469 L 68.4375 23.035156 C 67.992188 23.738281 67.289062 24.21875 66.25 24.21875 C 64.957031 24.21875 64.03125 23.515625 63.734375 22.367188 L 70.769531 22.367188 L 70.769531 21.480469 C 70.769531 18.890625 68.84375 17.003906 66.214844 17.003906 Z M 63.84375 20.589844 C 64.214844 19.554688 65.066406 18.890625 66.214844 18.890625 C 67.398438 18.890625 68.214844 19.480469 68.511719 20.589844 Z M 72.84375 16.855469 L 72.84375 17.1875 L 71.398438 17.1875 L 71.398438 19.1875 L 72.84375 19.1875 L 72.84375 25.917969 L 75.0625 25.917969 L 75.0625 19.1875 L 77.171875 19.1875 L 77.171875 17.1875 L 75.0625 17.1875 L 75.0625 16.78125 C 75.0625 15.449219 75.25 15.226562 76.804688 15.226562 L 77.171875 15.226562 L 77.171875 13.191406 L 76.582031 13.191406 C 73.730469 13.15625 72.84375 14.042969 72.84375 16.855469 Z M 82.320312 17.003906 C 79.691406 17.003906 77.691406 19.039062 77.691406 21.554688 C 77.691406 24.070312 79.691406 26.105469 82.320312 26.105469 C 84.984375 26.105469 86.984375 24.070312 86.984375 21.554688 C 86.984375 19.039062 84.949219 17.003906 82.320312 17.003906 Z M 82.355469 23.996094 C 81.023438 23.996094 79.949219 22.921875 79.949219 21.554688 C 79.949219 20.183594 80.988281 19.113281 82.355469 19.113281 C 83.6875 19.113281 84.761719 20.183594 84.761719 21.554688 C 84.761719 22.886719 83.6875 23.996094 82.355469 23.996094 Z M 96.203125 17.1875 L 93.574219 17.1875 L 91.722656 19.777344 L 89.871094 17.1875 L 87.207031 17.1875 L 90.316406 21.441406 L 87.058594 25.917969 L 89.761719 25.917969 L 91.722656 23.179688 L 93.722656 25.917969 L 96.425781 25.917969 L 93.09375 21.441406 Z M 96.203125 17.1875 "/>
<path style=" stroke:none;fill-rule:nonzero;fill:rgb(12.54902%,7.058824%,22.745098%);fill-opacity:1;" d="M 102.207031 14.101562 L 100.824219 14.101562 L 100.824219 25.925781 L 108.367188 25.925781 L 108.367188 24.601562 L 102.207031 24.601562 Z M 113.785156 17.011719 C 111.207031 17.011719 109.191406 19 109.191406 21.578125 C 109.191406 24.160156 111.167969 26.148438 113.785156 26.148438 C 116.398438 26.148438 118.375 24.085938 118.375 21.542969 C 118.375 19 116.359375 17.011719 113.785156 17.011719 Z M 113.785156 24.859375 C 111.953125 24.859375 110.535156 23.457031 110.535156 21.578125 C 110.535156 19.699219 111.917969 18.265625 113.785156 18.265625 C 115.613281 18.265625 117.03125 19.699219 117.03125 21.578125 C 117.03125 23.421875 115.613281 24.859375 113.785156 24.859375 Z M 124.351562 24.859375 C 122.484375 24.859375 121.027344 23.386719 121.027344 21.542969 C 121.027344 19.699219 122.449219 18.226562 124.316406 18.226562 C 125.695312 18.226562 126.777344 18.964844 127.300781 20.179688 L 128.535156 19.628906 C 127.863281 18.042969 126.292969 16.976562 124.351562 16.976562 C 121.699219 17.011719 119.683594 18.964844 119.683594 21.542969 C 119.683594 24.085938 121.699219 26.109375 124.316406 26.109375 C 126.367188 26.109375 127.863281 24.96875 128.535156 23.347656 L 127.300781 22.832031 C 126.816406 23.972656 125.769531 24.859375 124.351562 24.859375 Z M 137.757812 17.195312 L 136.078125 17.195312 L 131.371094 22.132812 L 131.371094 13.179688 L 130.027344 13.179688 L 130.027344 25.964844 L 131.371094 25.964844 L 131.371094 23.679688 L 133.277344 21.691406 L 136.375 25.964844 L 138.019531 25.964844 L 134.285156 20.878906 Z M 148.589844 24.046875 L 145.972656 17.195312 L 144.742188 17.195312 L 142.015625 24.121094 L 139.773438 17.195312 L 138.355469 17.195312 L 141.269531 25.925781 L 142.574219 25.925781 L 145.300781 19 L 148.027344 25.925781 L 149.261719 25.925781 L 152.324219 17.195312 L 150.941406 17.195312 Z M 154.300781 13.4375 C 153.703125 13.4375 153.257812 13.878906 153.257812 14.507812 C 153.257812 15.132812 153.703125 15.574219 154.300781 15.574219 C 154.9375 15.574219 155.386719 15.132812 155.386719 14.507812 C 155.386719 13.878906 154.9375 13.4375 154.300781 13.4375 Z M 153.628906 25.925781 L 155.011719 25.925781 L 155.011719 17.195312 L 153.628906 17.195312 Z M 160.464844 20.878906 C 159.082031 20.585938 158.035156 20.4375 158.035156 19.515625 C 158.035156 18.707031 158.597656 18.117188 159.941406 18.117188 C 161.0625 18.117188 161.84375 18.59375 162.367188 19.296875 L 163.488281 18.558594 C 162.703125 17.601562 161.585938 17.011719 159.941406 17.011719 C 157.851562 17.011719 156.65625 18.191406 156.65625 19.554688 C 156.65625 21.285156 158.296875 21.691406 159.792969 21.984375 C 161.097656 22.242188 162.292969 22.425781 162.292969 23.421875 C 162.292969 24.304688 161.585938 24.933594 160.203125 24.933594 C 158.859375 24.933594 157.960938 24.378906 157.328125 23.496094 L 156.167969 24.269531 C 156.953125 25.375 158.222656 26.109375 160.164062 26.109375 C 162.480469 26.109375 163.675781 24.785156 163.675781 23.386719 C 163.675781 21.578125 161.996094 21.175781 160.464844 20.878906 Z M 173.945312 21.46875 C 173.945312 18.890625 172.039062 17.011719 169.425781 17.011719 C 166.773438 17.011719 164.796875 19.039062 164.796875 21.578125 C 164.796875 24.121094 166.625 26.109375 169.464844 26.109375 C 171.40625 26.109375 172.675781 25.300781 173.570312 23.902344 L 172.414062 23.238281 C 171.816406 24.304688 170.84375 24.933594 169.425781 24.933594 C 167.558594 24.933594 166.253906 23.753906 166.066406 22.09375 L 173.90625 22.09375 L 173.90625 21.46875 Z M 166.140625 20.878906 C 166.4375 19.332031 167.746094 18.191406 169.425781 18.191406 C 171.144531 18.191406 172.339844 19.257812 172.5625 20.878906 Z M 166.140625 20.878906 "/>
</g>
</svg>
