<svg width="141" height="18" xmlns="http://www.w3.org/2000/svg">
    <g transform="translate(3 3)" fill="none" fill-rule="evenodd">
        <circle fill="#0090ED" cx="6" cy="6" r="3.75"/>
        <circle stroke="#E0E0E6" stroke-width="3" cx="6" cy="6" r="7.5"/>
        <circle stroke="#E0E0E6" stroke-width="3" cx="67.5" cy="6" r="7.5"/>
        <circle stroke="#E0E0E6" stroke-width="3" cx="129" cy="6" r="7.5"/>
        <path d="M13.5 6.375H60" stroke="#E0E0E6" stroke-width="3"/>
        <path d="M75 6.375h46.5" stroke="#E0E0E6" stroke-width="3"/>
        <g transform="translate(62)">
            <circle stroke="#005CE3" stroke-width="3" fill="#005CE3" cx="6" cy="6" r="7.5"/>
            <path
                d="M4.746 9.75a.626.626 0 0 1-.442-.184L2.426 7.69a.625.625 0 0 1 .885-.884l1.35 1.349 3.953-5.643a.626.626 0 0 1 1.026.717L5.26 9.482a.626.626 0 0 1-.458.267.54.54 0 0 1-.055 0z"
                fill="#FFF" fill-rule="nonzero"/>
        </g>
        <g transform="translate(123)">
            <circle stroke="#005CE3" stroke-width="3" fill="#005CE3" cx="6" cy="6" r="7.5"/>
            <path
                d="M4.746 9.75a.626.626 0 0 1-.442-.184L2.426 7.69a.625.625 0 0 1 .885-.884l1.35 1.349 3.953-5.643a.626.626 0 0 1 1.026.717L5.26 9.482a.626.626 0 0 1-.458.267.54.54 0 0 1-.055 0z"
                fill="#FFF" fill-rule="nonzero"/>
        </g>
    </g>
</svg>
