<svg viewBox="0 0 402.9099999999999 81" xmlns="http://www.w3.org/2000/svg" width="173" height="32">
    <linearGradient id="a" x1="70.101%" x2="27.084%" y1="12.771%" y2="93.974%">
        <stop offset="0" stop-color="#ff980e"/>
        <stop offset=".21" stop-color="#ff7139"/>
        <stop offset=".36" stop-color="#ff5854"/>
        <stop offset=".46" stop-color="#ff4f5e"/>
        <stop offset=".69" stop-color="#ff3750"/>
        <stop offset=".86" stop-color="#f92261"/>
        <stop offset="1" stop-color="#f5156c"/>
    </linearGradient>
    <linearGradient id="b" x1="70.101%" x2="27.084%" y1="12.771%" y2="93.974%">
        <stop offset="0" stop-color="#fff44f" stop-opacity=".8"/>
        <stop offset=".09" stop-color="#fff44f" stop-opacity=".7"/>
        <stop offset=".75" stop-color="#fff44f" stop-opacity="0"/>
    </linearGradient>
    <linearGradient id="c" x1="49.985%" x2="49.985%" y1="123.797%" y2="1.21%">
        <stop offset="0" stop-color="#3a8ee6"/>
        <stop offset=".24" stop-color="#5c79f0"/>
        <stop offset=".63" stop-color="#9059ff"/>
        <stop offset="1" stop-color="#c139e6"/>
    </linearGradient>
    <linearGradient id="d" x1="15.487%" x2="105.667%" y1="1.34%" y2="85.492%">
        <stop offset="0" stop-color="#6e008b" stop-opacity=".5"/>
        <stop offset=".5" stop-color="#c846cb" stop-opacity="0"/>
    </linearGradient>
    <linearGradient id="e" x1="83.041%" x2="26.232%" y1="9.507%" y2="88.029%">
        <stop offset=".14" stop-color="#6a2bea" stop-opacity="0"/>
        <stop offset=".34" stop-color="#642de4" stop-opacity=".03"/>
        <stop offset=".55" stop-color="#5131d3" stop-opacity=".12"/>
        <stop offset=".76" stop-color="#3139b7" stop-opacity=".27"/>
        <stop offset=".98" stop-color="#054490" stop-opacity=".48"/>
        <stop offset="1" stop-color="#00458b" stop-opacity=".5"/>
    </linearGradient>
    <linearGradient id="f" x1="21.653%" x2="64.704%" y1="16.514%" y2="65.253%">
        <stop offset="0" stop-color="#960e18" stop-opacity=".6"/>
        <stop offset=".19" stop-color="#ac1624" stop-opacity=".48"/>
        <stop offset=".58" stop-color="#e42c41" stop-opacity=".16"/>
        <stop offset=".75" stop-color="#ff3750" stop-opacity="0"/>
    </linearGradient>
    <path d="M245.1 23.97h3.6l11.36 15.72 11.77-15.73h3.46v31.97h-3.56v-26.3L260 45.4l-11.34-15.43v25.97h-3.6V23.97zm34.6 20.13c0-6.9 5.4-12.3 12.24-12.3 6.92 0 12.32 5.4 12.32 12.3 0 6.84-5.35 12.33-12.32 12.33s-12.25-5.34-12.25-12.32zm20.93 0c0-5-3.77-8.93-8.7-8.93-4.9 0-8.62 3.9-8.62 8.94 0 5.1 3.73 8.9 8.64 8.9 4.95.03 8.7-3.83 8.7-8.9zm8.14-11.8h3.52v3.93c1.6-2.63 4.53-4.43 8.2-4.43 6.2 0 10.1 4.03 10.1 10.66v13.48h-3.63v-13.3c0-4.6-2.54-7.58-7.14-7.58-4.2 0-7.46 3.2-7.46 7.74v13.14h-3.6V32.3zm29.09-10.13c1.65 0 2.85 1.23 2.85 2.86s-1.16 2.86-2.84 2.86c-1.63 0-2.8-1.24-2.8-2.87s1.23-2.86 2.8-2.86zm-1.8 10.12h3.63v23.64h-3.64V32.3zm6.84.01h4.6v-5.2l3.53-2.3v7.5h6.9v3.2h-6.9v13.2c0 3.04 1.4 4.2 3.43 4.2 1.05 0 1.9-.4 2.7-1.13l1.9 2.86c-1.37 1.06-2.9 1.66-4.86 1.66-4.34 0-6.7-2.3-6.7-7.5V35.5h-4.6zm16.76 11.8c0-6.9 5.4-12.3 12.25-12.3 6.93 0 12.33 5.4 12.33 12.3 0 6.84-5.34 12.33-12.32 12.33-6.93 0-12.24-5.34-12.24-12.32zm20.94 0c0-5-3.77-8.93-8.7-8.93-4.9 0-8.6 3.9-8.6 8.94 0 5.1 3.7 8.9 8.6 8.9 5 .03 8.7-3.83 8.7-8.9zm8.17-11.8h3.46v4.44c1-3.14 3.37-4.83 6.74-4.83 1.63 0 3.03.33 3.94.9l-1.47 3.43c-.66-.43-1.63-.74-2.9-.74-3.93 0-6.22 2.27-6.22 7.47v12.97h-3.53V32.3zM89.5 23.94h21.4v5.77H95.62v7.87h15.26v5.74H95.62v12.64H89.5v-32zm28.64-2.23c2.12 0 3.55 1.56 3.55 3.6 0 2.07-1.4 3.6-3.6 3.6-2.13 0-3.56-1.47-3.56-3.5 0-2.2 1.63-3.7 3.6-3.7zm-3.03 10.6h6.07v23.64h-6.06V32.3zm23.6 6.56a4.991 4.991 0 0 0-2.96-1.06c-2.45 0-3.85 1.57-3.85 5.03V55.9h-6V32.3h5.73v3.4c1.23-2.67 3.1-3.6 5.66-3.6 1.4 0 2.8.4 4 1.2l-2.6 5.56zm2.5 5.4c0-6.8 5.03-12.46 12.2-12.46s12.14 5.03 12.14 12.06v2.5H147.1c.67 2.98 3 4.95 6.56 4.95 2.77 0 4.65-1.3 5.88-3.5l5.06 3.03c-2.5 3.68-6.06 5.6-11.1 5.6-7.7 0-12.3-5.14-12.3-12.17zm6-2.7h12.46c-.66-3.02-3.12-4.67-6.32-4.67-2.88 0-5.28 1.6-6.14 4.67zm19.83-9.27h4.26v-1.2c0-6.44 2.7-9.1 8.67-9.1h2.12v5.23h-1.73c-2.8 0-3.43.97-3.43 3.9v1.18h5.15v5.44h-5v18.23h-5.8V37.7h-4.24v-5.4h-.03zm16.17 11.8c0-6.8 5.17-12.3 12.37-12.3 6.8-.1 12.4 5.3 12.52 12.14.1 6.8-5.33 12.4-12.16 12.52h-.37c-7.37-.03-12.37-5.43-12.37-12.35zm18.86 0c0-3.76-2.8-6.7-6.5-6.7s-6.47 2.94-6.47 6.7c0 3.8 2.76 6.73 6.47 6.73 3.7 0 6.5-2.94 6.5-6.72zm14.03-.24l-8.56-11.57h7.1l5.05 7.24 5.16-7.25h6.97l-8.7 11.5 9.13 12.14h-7.06l-5.66-7.7-5.48 7.7H207l9.1-12.08z"
          fill="#20133a"/>
    <path d="M68.54 16.74l-8.05-4.6-18.4-10.5-.56-.35c-3-1.73-6.7-1.73-9.7 0l-.58.33-25.83 14.8-.57.34C1.86 18.5 0 21.67 0 25.1V56c0 3.46 1.86 6.63 4.86 8.34l26.4 15.12c1.94 1.1 4.4.45 5.54-1.46 1.1-1.9.46-4.37-1.46-5.46l-.03-.03L9.5 57.7c-.84-.47-1.4-1.4-1.4-2.4V25.78c0-1 .56-1.88 1.4-2.4l4.6-2.63L35.3 8.57c.87-.48 1.93-.48 2.8 0l25.8 14.8c.87.5 1.4 1.4 1.4 2.4v29.6c0 1-.53 1.9-1.4 2.4l-8.73 5-4.4-6.66c4.46-3.93 7-9.6 7-15.53 0-11.5-9.46-20.88-21.06-20.88s-21.04 9.36-21.04 20.87c0 11.52 9.45 20.9 21.05 20.9 2.44 0 4.84-.4 7.13-1.24l6.7 10.1c.13.16.24.33.36.44l.04.06.46.43c.03.03.1.05.1.08.2.15.4.26.6.35l.13.04c.17.1.37.15.54.2l.12.03c.2.06.4.1.64.12h.37c.1 0 .24 0 .36-.04h.17c.23-.03.46-.1.68-.15.07 0 .13 0 .2-.04.16-.06.33-.15.5-.23.03-.03.1-.03.1-.06l12.64-7.23c3-1.7 4.86-4.9 4.86-8.37V25.1c0-3.44-1.86-6.64-4.86-8.36zM23.7 40.54c-.04-7.17 5.7-13 12.87-13.08 7.17-.1 13 5.68 13.1 12.85.04 7.2-5.7 13-12.87 13.1h-.1c-7.13.03-12.93-5.7-13-12.86z"
          fill="url(#a)"/>
    <path d="M68.54 16.74l-8.05-4.6-18.4-10.5-.56-.35c-3-1.73-6.7-1.73-9.7 0l-.58.33-25.83 14.8-.57.34C1.86 18.5 0 21.67 0 25.1V56c0 3.46 1.86 6.63 4.86 8.34l26.4 15.12c1.94 1.1 4.4.45 5.54-1.46 1.1-1.9.46-4.37-1.46-5.46l-.03-.03L9.5 57.7c-.84-.47-1.4-1.4-1.4-2.4V25.78c0-1 .56-1.88 1.4-2.4l4.6-2.63L35.3 8.57c.87-.48 1.93-.48 2.8 0l25.8 14.8c.87.5 1.4 1.4 1.4 2.4v29.6c0 1-.53 1.9-1.4 2.4l-8.73 5-4.4-6.66c4.46-3.93 7-9.6 7-15.53 0-11.5-9.46-20.88-21.06-20.88s-21.04 9.36-21.04 20.87c0 11.52 9.45 20.9 21.05 20.9 2.44 0 4.84-.4 7.13-1.24l6.7 10.1c.13.16.24.33.36.44l.04.06.46.43c.03.03.1.05.1.08.2.15.4.26.6.35l.13.04c.17.1.37.15.54.2l.12.03c.2.06.4.1.64.12h.37c.1 0 .24 0 .36-.04h.17c.23-.03.46-.1.68-.15.07 0 .13 0 .2-.04.16-.06.33-.15.5-.23.03-.03.1-.03.1-.06l12.64-7.23c3-1.7 4.86-4.9 4.86-8.37V25.1c0-3.44-1.86-6.64-4.86-8.36zM23.7 40.54c-.04-7.17 5.7-13 12.87-13.08 7.17-.1 13 5.68 13.1 12.85.04 7.2-5.7 13-12.87 13.1h-.1c-7.13.03-12.93-5.7-13-12.86z"
          fill="url(#b)"/>
    <path d="M68.54 16.74l-8.05-4.6L49.3 5.7a8.657 8.657 0 0 0-8.36-.1L35.3 8.57c.87-.48 1.93-.48 2.8 0l25.8 14.8c.87.5 1.4 1.4 1.4 2.4v29.6c0 1-.53 1.92-1.4 2.4l-8.73 5 1.37 2.17a5.718 5.718 0 0 0 7.7 1.92l4.3-2.5c3-1.7 4.86-4.9 4.86-8.36V25.1c0-3.44-1.86-6.64-4.86-8.36z"
          fill="url(#c)"/>
    <path d="M65.3 25.77V40.1h8.1v-15c0-3.47-1.86-6.64-4.86-8.36l-8.05-4.6L49.3 5.7a8.657 8.657 0 0 0-8.36-.1L35.3 8.57c.87-.48 1.93-.48 2.8 0l25.8 14.8c.87.5 1.4 1.4 1.4 2.4z"
          fill="url(#d)"/>
    <path d="M65.3 42.43v12.9c0 1-.56 1.93-1.4 2.4l-8.76 5 1.37 2.18c1.64 2.6 5.04 3.47 7.7 1.93l4.3-2.5c3-1.7 4.87-4.9 4.87-8.36V42.4H65.3z"
          fill="url(#e)" opacity=".9"/>
    <path d="M54.54 61.8l-3.8-5.7c-2.03 1.8-4.4 3.2-6.97 4.13l4.03 6.08c2.3-1.44 4.54-2.96 6.74-4.5z" fill="url(#f)"
          opacity=".9"/>
    <ellipse cx="36.686" cy="40.543" fill="none" rx="12.971" ry="12.857"/>
</svg>