<svg viewBox="0 0 303 80" height="32" xmlns="http://www.w3.org/2000/svg">
    <g>
        <path class="st2"
              d="M84.721 55.606c-8.437 0-15.519-7.125-15.519-15.825 0-8.786 7.038-16.087 15.52-16.087 8.611 0 15.518 7.3 15.518 16.087 0 8.7-6.907 15.825-15.519 15.825m.088-36.983c-6.383 0-12.066 3.585-16.088 8.437l-.13-5.77c-.088-2.011-1.094-3.017-2.58-3.017-1.574 0-2.623 1.224-2.623 2.973v55.956c0 1.661 1.137 2.798 2.71 2.798 1.661 0 2.623-1.224 2.623-2.885V52.634c4.022 4.765 9.705 8.044 16.088 8.044 11.628 0 20.852-9.356 20.852-20.897s-9.18-21.158-20.852-21.158"
              clip-rule="evenodd" fill="#363636" fill-rule="evenodd"/>
        <path class="st5"
              d="M216.524 37.683l15.257-13.77c1.4-1.225 1.574-3.017.481-4.197-1.137-1.224-2.885-.918-4.11.262l-20.72 19.497V3.104c0-1.88-.831-3.104-2.536-3.104-1.88 0-2.798 1.224-2.798 3.104V57.66c0 1.792 1.05 3.017 2.798 3.017 1.574 0 2.535-1.225 2.535-3.017V45.858l5.334-4.809 16.743 18.667c1.05 1.136 2.885 1.574 4.022.48 1.311-1.223.918-2.885-.088-4.021l-16.918-18.492z"
              clip-rule="evenodd" fill="#363636" fill-rule="evenodd"/>
        <path class="st6"
              d="M131.235 55.59c-8.437 0-15.52-7.126-15.52-15.826 0-8.787 7.039-16.087 15.52-16.087 8.612 0 15.519 7.3 15.519 16.087 0 8.7-6.907 15.825-15.52 15.825m.176-36.983c-11.891 0-21.071 9.617-21.071 21.158s9.18 20.896 21.07 20.896c11.148 0 20.853-9.355 20.853-20.896s-9.792-21.158-20.852-21.158"
              clip-rule="evenodd" fill="#363636" fill-rule="evenodd"/>
        <path class="st8"
              d="M300.546 52.721c-.83 0-1.661.481-2.142.918-1.137 1.006-2.535 1.967-4.503 1.967-3.366 0-5.246-2.054-5.246-6.732V23.607l10.405.174c1.486 0 2.448-.918 2.448-2.317 0-1.486-1.006-2.36-2.448-2.36l-10.405.087v-8.48c0-1.662-1.136-2.798-2.535-2.798-1.486 0-2.71 1.136-2.71 2.797v8.481l-4.46-.087c-1.398 0-2.36.918-2.36 2.36 0 1.312 1.049 2.361 2.36 2.317l4.416-.174v25.442c0 7.956 4.852 11.629 10.404 11.629 3.454 0 6.077-1.312 7.869-3.192.568-.655 1.137-1.399 1.137-2.36.043-1.4-.831-2.405-2.23-2.405"
              clip-rule="evenodd" fill="#363636" fill-rule="evenodd"/>
        <path class="st6"
              d="M241.442 36.792c1.224-8.612 7.563-13.115 14.733-13.115 7.606 0 12.94 6.382 13.29 13.115h-28.023zm14.733-18.186c-11.629 0-20.328 9.617-20.328 21.158s8.874 20.896 20.415 20.896c5.727 0 11.322-2.142 14.995-5.726.83-.83 1.486-1.705 1.486-2.623 0-1.312-.83-2.36-2.36-2.36-.831 0-1.662.349-2.318.917-3.453 3.017-6.95 4.765-11.803 4.765-7.52 0-14.251-5.727-14.95-14.251H270.6c2.798 0 4.328-1.487 4.328-3.847 0-9.268-8.044-18.93-18.754-18.93zM192.437 47.72c-.743 0-1.574.568-2.055 1.224-2.317 3.016-7.213 6.644-12.721 6.644-8.219 0-15.257-6.47-15.257-15.825 0-10.01 7.038-16 15.257-16 5.99 0 9.268 2.886 12.066 6.252.48.568 1.224 1.136 2.142 1.136 1.224 0 2.448-.918 2.448-2.142 0-.918-.569-1.792-1.05-2.535-3.366-4.853-9.005-7.607-15.562-7.607-11.41 0-20.765 9.355-20.765 20.896 0 11.41 9.355 20.896 20.765 20.896 7.038 0 13.114-4.109 16.306-8.35.568-.742.918-1.486.918-2.141-.044-1.443-1.093-2.448-2.492-2.448"
              clip-rule="evenodd" fill="#363636" fill-rule="evenodd"/>
    </g>
    <path class="st1"
          d="M42.458 19H4.523C2.048 19 0 20.913 0 23.365v14.04c0 12.735 10.53 23.31 23.49 23.31 12.87 0 23.31-10.575 23.31-23.31v-14.04A4.322 4.322 0 0 0 42.457 19zm-5.693 17.415l-11.16 10.508c-.585.652-1.462.922-2.137.922-.833 0-1.643-.247-2.295-.922l-10.98-10.508c-1.17-1.215-1.305-3.285 0-4.59 1.215-1.17 3.285-1.305 4.522 0l8.775 8.438 8.955-8.438c1.17-1.305 3.218-1.17 4.343 0 1.147 1.283 1.147 3.353-.023 4.59z"
          fill="#ef4154"/>
    <path class="st2"
          d="M36.765 36.415l-11.16 10.508c-.585.652-1.462.922-2.137.922-.833 0-1.643-.248-2.295-.922l-10.98-10.508c-1.17-1.215-1.305-3.285 0-4.59 1.215-1.17 3.285-1.305 4.522 0l8.775 8.438 8.955-8.438c1.17-1.305 3.218-1.17 4.343 0 1.147 1.283 1.147 3.353-.023 4.59z"
          fill="#fff"/>
</svg>