<svg height="32" fill="none" viewBox="0 0 373 80" xmlns="http://www.w3.org/2000/svg">
    <path d="M74.78 17.453 45.113.856a7.153 7.153 0 0 0-6.79 0L8.552 17.453a6.955 6.955 0 0 0-2.594 2.532A6.892 6.892 0 0 0 5 23.469v33.088a6.768 6.768 0 0 0 .94 3.495 6.83 6.83 0 0 0 2.612 2.522l29.667 16.492a6.606 6.606 0 0 0 3.447.934 6.89 6.89 0 0 0 3.447-.934L74.78 62.574a6.956 6.956 0 0 0 2.593-2.532 6.891 6.891 0 0 0 .958-3.485V23.47a6.581 6.581 0 0 0-.913-3.51 6.644 6.644 0 0 0-2.638-2.506Z"
          fill="#000"/>
    <path d="m21.472 49.583-1.748 1.042a2.704 2.704 0 0 0-.809.697 2.743 2.743 0 0 0-.557 2.033c.045.36.16.706.338 1.02.23.435.57.8.986 1.056.416.257.892.396 1.379.402.462-.004.919-.11 1.336-.312l1.748-1.042c.312-.175.588-.412.809-.697a2.744 2.744 0 0 0 .557-2.033 2.754 2.754 0 0 0-.338-1.02 2.673 2.673 0 0 0-.66-.864 2.632 2.632 0 0 0-2.018-.625c-.36.042-.709.159-1.023.343Zm10.691-6.145-3.598 2.083a2.703 2.703 0 0 0-.81.697 2.744 2.744 0 0 0-.556 2.033c.044.36.16.706.338 1.02.23.435.57.8.986 1.056.416.257.892.395 1.378.402.463-.004.92-.11 1.337-.312l3.598-2.084c.313-.175.588-.412.809-.697a2.743 2.743 0 0 0 .557-2.033 2.754 2.754 0 0 0-.338-1.02 2.674 2.674 0 0 0-.66-.864 2.63 2.63 0 0 0-2.018-.625 2.62 2.62 0 0 0-1.023.343Zm14.495-5.094a2.454 2.454 0 0 0-.595-.773 2.417 2.417 0 0 0-.845-.477V16.146a2.834 2.834 0 0 0-.81-1.992 2.76 2.76 0 0 0-1.965-.82 2.653 2.653 0 0 0-1.924.832 2.724 2.724 0 0 0-.749 1.98v21.042c-.31.1-.598.261-.845.476-.247.215-.45.478-.594.774a2.8 2.8 0 0 0-.103 2.395 2.804 2.804 0 0 0 .103 2.396c.145.296.347.559.594.773.247.215.535.377.845.477v21.042c0 .746.292 1.461.813 1.989.52.527 1.227.823 1.963.823s1.442-.296 1.962-.823c.52-.528.813-1.243.813-1.99V44.376c.31-.1.598-.262.845-.477.248-.214.45-.477.594-.773a2.8 2.8 0 0 0 .103-2.396 3.247 3.247 0 0 0-.205-2.385Zm7-7.198-3.598 2.083a2.702 2.702 0 0 0-.809.697 2.743 2.743 0 0 0-.557 2.033c.045.36.16.706.338 1.02.23.435.57.8.986 1.056.416.257.892.396 1.379.403.462-.004.918-.111 1.336-.313l3.598-2.083c.313-.176.588-.413.81-.697a2.744 2.744 0 0 0 .556-2.033 2.754 2.754 0 0 0-.338-1.02 2.672 2.672 0 0 0-.66-.865 2.63 2.63 0 0 0-2.018-.625c-.36.043-.709.16-1.023.344Zm8.522 1.042c.463-.004.919-.111 1.337-.313l1.747-1.042c.312-.176.587-.414.809-.699a2.765 2.765 0 0 0 .562-2.034 2.778 2.778 0 0 0-.331-1.023 2.742 2.742 0 0 0-.694-.816 2.703 2.703 0 0 0-2.01-.56 2.693 2.693 0 0 0-1.009.34l-1.747 1.042a2.703 2.703 0 0 0-.81.697 2.744 2.744 0 0 0-.557 2.033c.045.36.16.707.339 1.02.235.423.58.772.996 1.01.417.239.89.358 1.368.345Zm3.084 18.437-1.747-1.042a2.684 2.684 0 0 0-2.059-.247 2.722 2.722 0 0 0-1.63 1.296 2.784 2.784 0 0 0-.255 2.084c.19.701.647 1.298 1.27 1.659l1.748 1.042c.418.202.874.308 1.337.312a2.697 2.697 0 0 0 1.378-.402c.416-.256.757-.621.986-1.056a2.596 2.596 0 0 0-1.028-3.646Zm-8.943-5.104-3.598-2.084a2.693 2.693 0 0 0-2.069-.264 2.7 2.7 0 0 0-.95.484 2.778 2.778 0 0 0-.463 3.873c.222.285.497.522.809.7l3.598 2.083a3.13 3.13 0 0 0 1.336.312 2.697 2.697 0 0 0 1.379-.402c.416-.257.756-.621.986-1.056a2.574 2.574 0 0 0 .286-2.055 2.565 2.565 0 0 0-.49-.937 2.523 2.523 0 0 0-.824-.654Zm-27.756-9.584 3.598 2.084c.418.202.874.308 1.336.312a2.699 2.699 0 0 0 1.379-.402c.416-.256.756-.621.986-1.056a2.755 2.755 0 0 0-1.028-3.75l-3.598-2.083a2.669 2.669 0 0 0-3.7 1.041 2.95 2.95 0 0 0-.24 2.134 2.913 2.913 0 0 0 1.267 1.72Zm-4.42-8.854-1.748-1.041a2.694 2.694 0 0 0-2.068-.265c-.345.097-.668.261-.95.484a2.778 2.778 0 0 0 .345 4.572l1.748 1.042c.418.202.874.309 1.336.313a2.698 2.698 0 0 0 1.379-.403c.416-.256.756-.62.986-1.056a2.66 2.66 0 0 0-1.028-3.646Z"
          fill="url(#a)"/>
    <path d="M122.795 24.51v5.742h-13.771v7.232h13.771v5.654h-13.771v12.666H103V24.51h19.795Zm4.664-1.14a3.846 3.846 0 0 1 2.685-1.098c1.001 0 1.963.394 2.686 1.099a3.827 3.827 0 0 1 1.032 2.761c.019.478-.056.956-.219 1.405-.163.45-.412.861-.732 1.212a3.56 3.56 0 0 1-2.491 1.161h-.31a3.53 3.53 0 0 1-1.443-.252 3.588 3.588 0 0 1-1.225-.818 3.808 3.808 0 0 1-1.033-2.709 3.823 3.823 0 0 1 1.05-2.76Zm5.663 9.284v23.15h-5.955v-23.15h5.955Zm10.328 0v3.559a5.961 5.961 0 0 1 2.461-3.025c1.162-.666 2.48-.999 3.813-.964a8.313 8.313 0 0 1 2.126.254 7.748 7.748 0 0 1 1.721.649l-2.109 5.83a4.076 4.076 0 0 0-1.282-.597 6.327 6.327 0 0 0-1.721-.236 4.994 4.994 0 0 0-3.58 1.262c-.924.859-1.386 2.27-1.386 4.234v12.184h-5.766v-23.15h5.723Zm17.557 22.703a11.246 11.246 0 0 1-3.787-2.55 11.282 11.282 0 0 1-2.444-3.814 13 13 0 0 1-.861-4.716 12.411 12.411 0 0 1 .861-4.742 11.649 11.649 0 0 1 2.582-3.805 11.787 11.787 0 0 1 3.795-2.63 11.754 11.754 0 0 1 4.716-.876 12.088 12.088 0 0 1 4.717.877c1.381.563 2.639 1.4 3.7 2.463a11.167 11.167 0 0 1 2.445 3.752c.594 1.512.886 3.13.86 4.76v2.173h-18.073a6.42 6.42 0 0 0 2.298 3.585 6.794 6.794 0 0 0 4.226 1.307 6.573 6.573 0 0 0 3.442-.877 6.586 6.586 0 0 0 2.229-2.253l4.742 2.92a13.496 13.496 0 0 1-4.217 3.9 12.226 12.226 0 0 1-6.291 1.49 13.083 13.083 0 0 1-4.94-.964Zm1.015-16.997a6.774 6.774 0 0 0-2.315 3.261h12.144a5.835 5.835 0 0 0-2.152-3.26 6.32 6.32 0 0 0-3.873-1.14 6.179 6.179 0 0 0-3.804 1.14Zm21.017-5.706v-.816c-.034-1.586.128-3.17.482-4.716a6.428 6.428 0 0 1 1.601-3.024 6.211 6.211 0 0 1 2.986-1.604 18.938 18.938 0 0 1 4.648-.49h1.514v5.399h-.972a14.656 14.656 0 0 0-2.401.149 2.695 2.695 0 0 0-1.369.605c-.335.333-.55.771-.611 1.245a15.83 15.83 0 0 0-.12 2.12v1.114h5.473v5.312h-5.473v17.856h-5.758V37.966h-3.761v-5.312h3.761Zm19.795 22.66a11.844 11.844 0 0 1-3.813-2.63 11.939 11.939 0 0 1-2.56-3.904 12.109 12.109 0 0 1-.882-4.608 12.15 12.15 0 0 1 .86-4.699 11.542 11.542 0 0 1 2.582-3.769 11.41 11.41 0 0 1 3.938-2.682 11.238 11.238 0 0 1 4.668-.824 11.86 11.86 0 0 1 4.743.876 11.754 11.754 0 0 1 5.32 4.414 12.08 12.08 0 0 1 1.978 6.693 11.932 11.932 0 0 1-.921 4.672 12.63 12.63 0 0 1-2.548 3.83 11.761 11.761 0 0 1-3.812 2.63 12.514 12.514 0 0 1-9.553 0Zm7.238-5.19a6.53 6.53 0 0 0 1.979-1.376 6.463 6.463 0 0 0 1.326-2.034 6.921 6.921 0 0 0 0-5.084 6.384 6.384 0 0 0-1.326-2.06 6.34 6.34 0 0 0-1.979-1.368 6.017 6.017 0 0 0-4.889 0 6.42 6.42 0 0 0-1.971 1.368 6.275 6.275 0 0 0-1.334 2.06 6.921 6.921 0 0 0 0 5.084c.312.76.765 1.45 1.334 2.034a6.597 6.597 0 0 0 1.971 1.376 6.16 6.16 0 0 0 4.915.026l-.026-.026Zm10.25-17.47h6.885l4.751 6.88 4.802-6.863h6.816l-8.038 11.3 8.675 11.833h-7.031l-5.224-7.24-5.087 7.24h-6.988l8.486-11.886-8.047-11.264Zm49.228-8.144c1.47-.025 2.931.236 4.303.772a10.003 10.003 0 0 1 3.365 2.121 9.622 9.622 0 0 1 2.212 3.217 10.617 10.617 0 0 1 .353 6.942c-.282.935-.7 1.821-1.239 2.63a9.52 9.52 0 0 1-2.005 2.165 9.088 9.088 0 0 1-2.72 1.49l6.696 11.957h-3.959l-6.025-11.019h-9.665v11.019h-3.494V24.51h12.178Zm-8.684 17.015h8.417a8.02 8.02 0 0 0 3.133-.579 6.988 6.988 0 0 0 2.315-1.543 6.407 6.407 0 0 0 1.438-2.226c.317-.84.481-1.73.481-2.63a7.062 7.062 0 0 0-.507-2.7 6.19 6.19 0 0 0-1.506-2.156 6.635 6.635 0 0 0-2.316-1.394 9.062 9.062 0 0 0-3.02-.456h-8.435v13.684Zm29.839 13.832a11.25 11.25 0 0 1-3.787-2.533 10.891 10.891 0 0 1-2.419-3.796 13 13 0 0 1-.86-4.716 12.55 12.55 0 0 1 .86-4.777 11.817 11.817 0 0 1 2.582-3.805 11.393 11.393 0 0 1 3.744-2.63 11.724 11.724 0 0 1 4.734-.946 11.933 11.933 0 0 1 4.613.877 10.785 10.785 0 0 1 3.657 2.445 11.398 11.398 0 0 1 2.427 3.76c.595 1.504.887 3.114.861 4.734v1.587h-20.096a8.396 8.396 0 0 0 1.658 4.285 8.17 8.17 0 0 0 3.644 2.727 9.622 9.622 0 0 0 3.304.553 7.939 7.939 0 0 0 4.459-1.08 8.14 8.14 0 0 0 3.158-3.382l2.952 1.753a13.398 13.398 0 0 1-4.303 4.33 11.874 11.874 0 0 1-6.274 1.543 12.774 12.774 0 0 1-4.914-.929Zm1.773-19.513a7.81 7.81 0 0 0-2.505 1.508 8.299 8.299 0 0 0-1.833 2.27 9.309 9.309 0 0 0-1.033 2.85h16.464a7.833 7.833 0 0 0-2.59-5.252 7.557 7.557 0 0 0-5.457-1.91 8.582 8.582 0 0 0-3.046.534Zm23.297-13.84v33.8h-3.443v-33.8h3.443Zm9.519 33.739a7.124 7.124 0 0 1-2.531-1.482 6.205 6.205 0 0 1-1.514-2.165 6.71 6.71 0 0 1-.508-2.63 6.433 6.433 0 0 1 .667-3.143 6.3 6.3 0 0 1 2.095-2.405c1.834-1.298 4.355-1.955 7.557-1.955h7.195v-.877a5.722 5.722 0 0 0-.374-2.328 5.62 5.62 0 0 0-1.279-1.967c-1.11-1.07-2.78-1.604-4.991-1.604a7.851 7.851 0 0 0-4.149.931 8.035 8.035 0 0 0-3.089 2.97l-2.987-1.929a12.881 12.881 0 0 1 4.209-3.629 12.5 12.5 0 0 1 6.024-1.35 13.307 13.307 0 0 1 4.303.64 8.57 8.57 0 0 1 3.116 1.824 7.827 7.827 0 0 1 1.936 2.84 9.694 9.694 0 0 1 .646 3.602v14.718h-3.365v-4.067a10.268 10.268 0 0 1-4.002 3.34 12.38 12.38 0 0 1-5.396 1.2 10.654 10.654 0 0 1-3.563-.534Zm6.713-2.893a10.707 10.707 0 0 0 2.435-.99c.786-.443 1.51-.992 2.152-1.631a9.096 9.096 0 0 0 1.661-2.227v-3.208h-7.032c-2.384 0-4.139.377-5.258 1.114a3.964 3.964 0 0 0-1.612 2.539 4.014 4.014 0 0 0 .622 2.957c.16.23.342.445.542.64a5.693 5.693 0 0 0 3.942 1.14c.871.004 1.739-.105 2.582-.325l-.034-.009Zm13.408 10.589a7.37 7.37 0 0 1-2.444-1.499l2.238-2.875c.414.459.896.85 1.428 1.157.575.3 1.214.447 1.859.43a5.327 5.327 0 0 0 1.575-.21c.48-.16.925-.412 1.308-.746.457-.44.846-.949 1.154-1.508.435-.763.829-1.55 1.179-2.358l.508-1.113-9.528-22.063h3.753l7.582 17.926 7.221-17.926H367l-10.328 24.184a29.237 29.237 0 0 1-1.661 3.296 9.46 9.46 0 0 1-1.79 2.236 6.288 6.288 0 0 1-2.126 1.244 8.939 8.939 0 0 1-5.714-.175h.034Z"
          fill="#000"/>
    <defs>
        <linearGradient id="a" x1="5.833" y1="41.667" x2="77.5" y2="41.667" gradientUnits="userSpaceOnUse">
            <stop stop-color="#9059FF"/>
            <stop offset="1" stop-color="#F770FF"/>
        </linearGradient>
    </defs>
</svg>