<svg xmlns="http://www.w3.org/2000/svg" xml:space="preserve" viewBox="0 0 234 80" height="32"><path fill="#000" d="M86.22 22.46h4.42V9.6l6.4 11.66 6.37-11.66v12.86h4.45V1.82h-4.45l-6.37 11.66-6.4-11.66h-4.42v20.64zm33.39.36c4.6 0 8.44-3.73 8.44-8.14s-3.84-8.11-8.44-8.11c-4.63 0-8.5 3.69-8.5 8.11s3.87 8.14 8.5 8.14zm0-3.69c-2.34 0-4.3-2.04-4.3-4.45s1.95-4.42 4.3-4.42c2.31 0 4.27 2.01 4.27 4.42s-1.96 4.45-4.27 4.45zm10.72 3.33h13.58v-3.73h-7.87l7.81-8.71v-3.1h-13.31v3.73h7.6l-7.81 8.71v3.1zM149.2 4.8c1.31-.02 2.36-1.09 2.34-2.4-.02-1.28-1.06-2.32-2.34-2.34-1.35 0-2.4 1.11-2.4 2.34-.01 1.32 1.06 2.4 2.38 2.4h.02zm-2.22 17.66h4.39V6.93h-4.39v15.53zm8.21 0h4.39v-21h-4.39v21zm8.22 0h4.39v-21h-4.39v21zm15.15-15.89c-2.16 0-4.29.6-6.49 1.71l1.47 2.91c1.23-.63 2.58-1.11 4.03-1.11 2.55 0 3.58 1.44 3.58 3.1v.3c-1.26-.5-2.61-.76-3.97-.78-3.61 0-6.46 2.1-6.46 5.17 0 2.97 2.55 4.96 5.86 4.96 1.68 0 3.46-.66 4.57-1.92v1.56h4.24v-9.28c0-4.07-2.77-6.62-6.83-6.62zm-.99 13.22c-1.5 0-2.61-.78-2.61-2.04s1.26-2.19 2.86-2.19c1.2 0 2.34.21 3.33.57v1.44c-.3 1.44-1.89 2.22-3.58 2.22zm-53.4 12.1-13.81 33.93-13.81-33.93H84.91l19.63 48.16h11.57l19.63-48.16h-11.57zm17.24 48.16h10.31V64.42h11.36c10.45 0 18.16-6.73 18.16-16.26s-7.71-16.26-18.16-16.26h-21.66c-.01-.01-.01 48.15-.01 48.15zm10.31-25.1v-13.6h10.24c5.12 0 8.62 2.66 8.62 6.8s-3.51 6.8-8.62 6.8h-10.24zm36.39 25.1h10.3V48.92l23.2 31.13H232V31.89h-10.38v31.13l-23.2-31.13h-10.3c-.01 0-.01 48.16-.01 48.16z"/>
    <path fill="#000"
          d="M74.75 30.31c-7.47-7.89-20.68-4.75-23.78 5.66H27.62c-.28-.93-.65-1.83-1.11-2.68l6.07-6.07c4.31 2.33 9.52 2.26 13.77-.19 9.41-5.43 9.41-19.01.01-24.45-9.42-5.43-21.18 1.36-21.18 12.22 0 2.35.58 4.65 1.7 6.72l-6.07 6.07c-3.05-1.65-6.6-2.12-9.98-1.31C.25 28.79-3.63 41.81 3.84 49.7c7.46 7.89 20.68 4.75 23.78-5.66h23.35c.28.93.65 1.83 1.11 2.68L46 52.8c-6.59-3.56-14.81-1.36-18.73 5.02-5.69 9.25.77 21.2 11.63 21.51 10.86.3 17.98-11.26 12.81-20.82l6.07-6.07c3.05 1.65 6.6 2.12 9.98 1.31 10.57-2.53 14.45-15.54 6.99-23.44zM39.29 8.76c2.16 0 4.16 1.15 5.24 3.03 2.33 4.03-.58 9.07-5.24 9.07-2.16 0-4.16-1.15-5.24-3.02-2.32-4.04.59-9.08 5.24-9.08zm-25.2 37.3c-2.16 0-4.16-1.15-5.24-3.02-2.33-4.03.58-9.07 5.24-9.07 2.16 0 4.16 1.15 5.24 3.02 2.33 4.03-.58 9.07-5.24 9.07zm22.18 24.39c-1.87-1.08-3.02-3.08-3.02-5.24 0-4.66 5.04-7.57 9.07-5.24 1.87 1.08 3.02 3.08 3.02 5.24 0 4.66-5.04 7.57-9.07 5.24zm25.2-25.2c-1.87-1.08-3.03-3.08-3.02-5.24 0-4.66 5.04-7.57 9.07-5.24 1.87 1.08 3.02 3.08 3.02 5.24 0 4.66-5.04 7.57-9.07 5.24z"/></svg>
