<svg width="492" height="324" viewBox="0 0 492 324" fill="none" xmlns="http://www.w3.org/2000/svg">
<path d="M0 101.492C0 84.6517 13.6517 71 30.492 71H432.986C449.827 71 463.478 84.6517 463.478 101.492V290.575C463.478 307.415 449.827 321.067 432.986 321.067H30.492C13.6517 321.067 0 307.415 0 290.575V101.492Z" fill="#210340" fill-opacity="0.2"/>
<path d="M62.9019 141.796C61.1087 141.796 59.6603 141.465 58.5568 140.802C57.4809 140.113 56.667 139.023 56.1153 137.533C55.5911 136.044 55.2738 134.03 55.1635 131.492H59.55V133.933C59.55 135.312 59.8121 136.333 60.3362 136.995C60.888 137.63 61.7432 137.947 62.9019 137.947C63.9779 137.947 64.7917 137.685 65.3435 137.161C65.8952 136.637 66.1711 135.864 66.1711 134.843V133.312C66.1711 132.54 65.9642 131.878 65.5504 131.326C65.1641 130.774 64.5158 130.278 63.6054 129.836L60.1293 128.222C58.3637 127.34 57.1222 126.305 56.4049 125.119C55.6877 123.932 55.329 122.277 55.329 120.153C55.329 117.56 55.9497 115.628 57.1912 114.359C58.4603 113.063 60.3638 112.414 62.9019 112.414C64.6951 112.414 66.1297 112.759 67.2057 113.449C68.3092 114.111 69.123 115.187 69.6472 116.677C70.1989 118.167 70.5162 120.18 70.599 122.719H66.2539V120.277C66.2539 118.898 65.978 117.891 65.4262 117.256C64.9021 116.594 64.0606 116.263 62.9019 116.263C61.8536 116.263 61.0535 116.525 60.5018 117.049C59.95 117.573 59.6741 118.346 59.6741 119.367V120.898C59.6741 121.698 59.8672 122.374 60.2535 122.925C60.6397 123.477 61.288 123.96 62.1984 124.374L65.6745 125.988C67.4401 126.871 68.6816 127.919 69.3989 129.133C70.1438 130.319 70.5162 131.961 70.5162 134.057C70.5162 136.65 69.8817 138.595 68.6126 139.892C67.3712 141.161 65.4676 141.796 62.9019 141.796ZM73.9735 143.41H79.2291L79.7256 140.678H75.9185L72.3183 119.284H76.6634L79.436 137.285H80.3878L83.119 119.284H87.2986L83.1604 143.906C82.9948 144.872 82.65 145.603 82.1258 146.099C81.6292 146.596 80.9257 146.844 80.0153 146.844H73.9735V143.41ZM90.0547 122.719H88.3994V119.284H93.5721V123.05H94.5239C94.717 121.67 95.1722 120.636 95.8895 119.946C96.6344 119.229 97.6414 118.87 98.9104 118.87C100.511 118.87 101.724 119.422 102.552 120.525C103.38 121.629 103.793 123.243 103.793 125.367V137.947H105.449V141.382H99.5725V126.153C99.5725 124.884 99.3518 123.974 98.9104 123.422C98.4966 122.87 97.8345 122.594 96.9241 122.594C96.0137 122.594 95.3378 122.87 94.8963 123.422C94.4825 123.974 94.2756 124.884 94.2756 126.153V141.382H90.0547V122.719ZM114.485 141.796C112.774 141.796 111.367 141.396 110.264 140.596C109.188 139.796 108.388 138.554 107.864 136.871C107.34 135.188 107.078 133.009 107.078 130.333C107.078 127.657 107.34 125.477 107.864 123.794C108.388 122.112 109.188 120.87 110.264 120.07C111.367 119.27 112.774 118.87 114.485 118.87C116.609 118.87 118.237 119.518 119.368 120.815C120.527 122.084 121.244 124.098 121.52 126.857H117.258V125.698C117.258 125.064 117.161 124.512 116.968 124.043C116.775 123.574 116.471 123.215 116.057 122.967C115.644 122.719 115.119 122.594 114.485 122.594C113.492 122.594 112.761 122.925 112.292 123.588C111.85 124.25 111.63 125.298 111.63 126.733V133.933C111.63 135.368 111.85 136.416 112.292 137.078C112.761 137.74 113.492 138.071 114.485 138.071C115.119 138.071 115.644 137.947 116.057 137.699C116.471 137.423 116.775 137.051 116.968 136.582C117.161 136.085 117.258 135.478 117.258 134.761V133.478H121.52C121.327 136.347 120.651 138.458 119.492 139.809C118.333 141.134 116.664 141.796 114.485 141.796ZM135.226 141.796C133.654 141.796 132.426 141.271 131.543 140.223C130.661 139.175 130.219 137.685 130.219 135.754C130.219 133.657 130.716 132.043 131.709 130.912C132.702 129.753 134.219 129.05 136.261 128.802L139.903 128.305V131.45L137.213 131.781C136.302 131.919 135.64 132.209 135.226 132.65C134.813 133.064 134.606 133.712 134.606 134.595V135.547C134.606 136.43 134.813 137.092 135.226 137.533C135.668 137.975 136.316 138.195 137.171 138.195C138.109 138.195 138.799 137.947 139.24 137.451C139.682 136.926 139.903 136.113 139.903 135.009V130.747V130.043V125.988C139.903 124.801 139.696 123.946 139.282 123.422C138.896 122.87 138.247 122.594 137.337 122.594C136.454 122.594 135.806 122.843 135.392 123.339C134.978 123.836 134.771 124.553 134.771 125.491V126.277H130.55C130.798 123.657 131.461 121.767 132.537 120.608C133.64 119.449 135.268 118.87 137.42 118.87C139.654 118.87 141.323 119.463 142.427 120.649C143.558 121.836 144.123 123.615 144.123 125.988V137.947H145.82V141.382H143.503C142.565 141.382 141.847 141.134 141.351 140.637C140.854 140.14 140.606 139.423 140.606 138.485V137.699H139.696C139.475 139.078 139.006 140.113 138.289 140.802C137.571 141.465 136.551 141.796 135.226 141.796ZM154.6 141.796C152.889 141.796 151.482 141.396 150.379 140.596C149.303 139.796 148.503 138.554 147.978 136.871C147.454 135.188 147.192 133.009 147.192 130.333C147.192 127.657 147.454 125.477 147.978 123.794C148.503 122.112 149.303 120.87 150.379 120.07C151.482 119.27 152.889 118.87 154.6 118.87C156.724 118.87 158.352 119.518 159.483 120.815C160.641 122.084 161.359 124.098 161.635 126.857H157.372V125.698C157.372 125.064 157.276 124.512 157.083 124.043C156.889 123.574 156.586 123.215 156.172 122.967C155.758 122.719 155.234 122.594 154.6 122.594C153.606 122.594 152.875 122.925 152.406 123.588C151.965 124.25 151.744 125.298 151.744 126.733V133.933C151.744 135.368 151.965 136.416 152.406 137.078C152.875 137.74 153.606 138.071 154.6 138.071C155.234 138.071 155.758 137.947 156.172 137.699C156.586 137.423 156.889 137.051 157.083 136.582C157.276 136.085 157.372 135.478 157.372 134.761V133.478H161.635C161.441 136.347 160.766 138.458 159.607 139.809C158.448 141.134 156.779 141.796 154.6 141.796ZM164.995 122.719H163.34V119.284H168.512V123.132H169.464C169.657 121.753 170.085 120.718 170.747 120.029C171.437 119.339 172.375 118.994 173.561 118.994H175.216V122.719H171.864C170.954 122.719 170.278 123.008 169.837 123.588C169.423 124.139 169.216 125.05 169.216 126.319V141.382H164.995V122.719ZM183.528 141.796C181.762 141.796 180.328 141.396 179.224 140.596C178.148 139.796 177.334 138.554 176.783 136.871C176.258 135.188 175.996 133.009 175.996 130.333C175.996 127.657 176.258 125.477 176.783 123.794C177.334 122.112 178.148 120.87 179.224 120.07C180.328 119.27 181.762 118.87 183.528 118.87C185.293 118.87 186.714 119.27 187.79 120.07C188.894 120.87 189.708 122.112 190.232 123.794C190.784 125.477 191.059 127.657 191.059 130.333C191.059 133.009 190.784 135.188 190.232 136.871C189.708 138.554 188.894 139.796 187.79 140.596C186.714 141.396 185.293 141.796 183.528 141.796ZM183.528 138.071C184.576 138.071 185.335 137.74 185.804 137.078C186.3 136.388 186.549 135.312 186.549 133.85V126.815C186.549 125.353 186.3 124.291 185.804 123.629C185.335 122.939 184.576 122.594 183.528 122.594C182.48 122.594 181.707 122.939 181.21 123.629C180.741 124.291 180.507 125.353 180.507 126.815V133.85C180.507 135.312 180.741 136.388 181.21 137.078C181.707 137.74 182.48 138.071 183.528 138.071ZM200.115 141.796C197.908 141.796 196.266 141.23 195.19 140.099C194.115 138.94 193.439 137.037 193.163 134.388H197.384V135.257C197.384 135.864 197.466 136.388 197.632 136.83C197.825 137.271 198.115 137.616 198.501 137.864C198.915 138.085 199.453 138.195 200.115 138.195C201.025 138.195 201.701 138.002 202.143 137.616C202.612 137.202 202.846 136.582 202.846 135.754C202.846 135.037 202.681 134.471 202.35 134.057C202.046 133.616 201.481 133.202 200.653 132.816L197.549 131.45C196.032 130.733 194.942 129.905 194.28 128.967C193.618 128.029 193.287 126.815 193.287 125.326C193.287 123.229 193.866 121.629 195.025 120.525C196.184 119.422 197.894 118.87 200.156 118.87C202.336 118.87 203.963 119.449 205.039 120.608C206.115 121.739 206.791 123.629 207.067 126.277H202.929V125.408C202.929 124.801 202.832 124.277 202.639 123.836C202.446 123.394 202.143 123.063 201.729 122.843C201.343 122.594 200.818 122.47 200.156 122.47C199.273 122.47 198.598 122.677 198.129 123.091C197.687 123.477 197.466 124.084 197.466 124.912C197.466 125.629 197.618 126.208 197.922 126.65C198.253 127.064 198.818 127.464 199.618 127.85L202.722 129.216C204.267 129.933 205.37 130.76 206.033 131.698C206.722 132.636 207.067 133.85 207.067 135.34C207.067 137.437 206.474 139.037 205.288 140.14C204.129 141.244 202.405 141.796 200.115 141.796ZM215.992 141.796C213.785 141.796 212.144 141.23 211.068 140.099C209.992 138.94 209.316 137.037 209.04 134.388H213.261V135.257C213.261 135.864 213.344 136.388 213.509 136.83C213.702 137.271 213.992 137.616 214.378 137.864C214.792 138.085 215.33 138.195 215.992 138.195C216.902 138.195 217.578 138.002 218.02 137.616C218.489 137.202 218.723 136.582 218.723 135.754C218.723 135.037 218.558 134.471 218.227 134.057C217.923 133.616 217.358 133.202 216.53 132.816L213.426 131.45C211.909 130.733 210.819 129.905 210.157 128.967C209.495 128.029 209.164 126.815 209.164 125.326C209.164 123.229 209.743 121.629 210.902 120.525C212.061 119.422 213.771 118.87 216.033 118.87C218.213 118.87 219.841 119.449 220.916 120.608C221.992 121.739 222.668 123.629 222.944 126.277H218.806V125.408C218.806 124.801 218.709 124.277 218.516 123.836C218.323 123.394 218.02 123.063 217.606 122.843C217.22 122.594 216.696 122.47 216.033 122.47C215.151 122.47 214.475 122.677 214.006 123.091C213.564 123.477 213.344 124.084 213.344 124.912C213.344 125.629 213.495 126.208 213.799 126.65C214.13 127.064 214.695 127.464 215.495 127.85L218.599 129.216C220.144 129.933 221.248 130.76 221.91 131.698C222.599 132.636 222.944 133.85 222.944 135.34C222.944 137.437 222.351 139.037 221.165 140.14C220.006 141.244 218.282 141.796 215.992 141.796ZM232.78 143.41H238.036L238.532 140.678H234.725L231.125 119.284H235.47L238.243 137.285H239.194L241.926 119.284H246.105L241.967 143.906C241.801 144.872 241.457 145.603 240.932 146.099C240.436 146.596 239.732 146.844 238.822 146.844H232.78V143.41ZM255.073 141.796C253.308 141.796 251.873 141.396 250.77 140.596C249.694 139.796 248.88 138.554 248.328 136.871C247.804 135.188 247.542 133.009 247.542 130.333C247.542 127.657 247.804 125.477 248.328 123.794C248.88 122.112 249.694 120.87 250.77 120.07C251.873 119.27 253.308 118.87 255.073 118.87C256.839 118.87 258.26 119.27 259.336 120.07C260.439 120.87 261.253 122.112 261.777 123.794C262.329 125.477 262.605 127.657 262.605 130.333C262.605 133.009 262.329 135.188 261.777 136.871C261.253 138.554 260.439 139.796 259.336 140.596C258.26 141.396 256.839 141.796 255.073 141.796ZM255.073 138.071C256.122 138.071 256.88 137.74 257.349 137.078C257.846 136.388 258.094 135.312 258.094 133.85V126.815C258.094 125.353 257.846 124.291 257.349 123.629C256.88 122.939 256.122 122.594 255.073 122.594C254.025 122.594 253.253 122.939 252.756 123.629C252.287 124.291 252.053 125.353 252.053 126.815V133.85C252.053 135.312 252.287 136.388 252.756 137.078C253.253 137.74 254.025 138.071 255.073 138.071ZM270.75 141.796C269.122 141.796 267.895 141.258 267.067 140.182C266.239 139.078 265.826 137.451 265.826 135.299V122.719H264.212V119.284H270.088V134.512C270.088 135.781 270.295 136.692 270.709 137.244C271.123 137.795 271.785 138.071 272.695 138.071C273.633 138.071 274.309 137.795 274.723 137.244C275.137 136.692 275.344 135.781 275.344 134.512V119.284H279.606V137.947H281.22V141.382H278.985C278.02 141.382 277.288 141.134 276.792 140.637C276.295 140.14 276.047 139.409 276.047 138.444V137.616H275.137C274.943 138.995 274.475 140.044 273.73 140.761C273.012 141.451 272.019 141.796 270.75 141.796ZM284.131 122.719H282.476V119.284H287.649V123.132H288.601C288.794 121.753 289.221 120.718 289.883 120.029C290.573 119.339 291.511 118.994 292.697 118.994H294.353V122.719H291.001C290.09 122.719 289.414 123.008 288.973 123.588C288.559 124.139 288.352 125.05 288.352 126.319V141.382H284.131V122.719ZM307.913 141.796C306.644 141.796 305.582 141.382 304.726 140.554C303.871 139.727 303.223 138.458 302.781 136.747C302.34 135.037 302.119 132.899 302.119 130.333C302.119 127.74 302.34 125.601 302.781 123.919C303.223 122.208 303.871 120.939 304.726 120.111C305.582 119.284 306.644 118.87 307.913 118.87C309.044 118.87 309.94 119.201 310.603 119.863C311.265 120.498 311.72 121.463 311.968 122.76H312.92C312.644 120.277 312.506 118.539 312.506 117.546V116.263H310.685V112.828H316.727V137.947H318.424V141.382H316.148C315.21 141.382 314.479 141.134 313.955 140.637C313.458 140.113 313.21 139.382 313.21 138.444V137.533H312.299C312.079 138.913 311.596 139.975 310.851 140.72C310.106 141.437 309.127 141.796 307.913 141.796ZM309.609 138.071C310.603 138.071 311.334 137.74 311.803 137.078C312.272 136.416 312.506 135.354 312.506 133.892V126.774C312.506 125.312 312.272 124.25 311.803 123.588C311.334 122.925 310.603 122.594 309.609 122.594C308.589 122.594 307.844 122.925 307.375 123.588C306.906 124.25 306.671 125.312 306.671 126.774V133.892C306.671 135.354 306.906 136.416 307.375 137.078C307.844 137.74 308.589 138.071 309.609 138.071ZM327.548 141.796C325.837 141.796 324.43 141.396 323.327 140.596C322.223 139.796 321.395 138.554 320.844 136.871C320.319 135.188 320.057 133.009 320.057 130.333C320.057 127.657 320.319 125.477 320.844 123.794C321.395 122.112 322.223 120.87 323.327 120.07C324.43 119.27 325.837 118.87 327.548 118.87C329.23 118.87 330.596 119.242 331.644 119.987C332.693 120.732 333.465 121.891 333.962 123.463C334.486 125.008 334.748 127.022 334.748 129.505V131.202H322.747V128.057H333.258L330.568 129.671V126.733C330.568 125.215 330.32 124.126 329.824 123.463C329.355 122.801 328.596 122.47 327.548 122.47C326.527 122.47 325.782 122.801 325.313 123.463C324.844 124.126 324.609 125.215 324.609 126.733V133.85C324.609 135.312 324.844 136.388 325.313 137.078C325.782 137.74 326.527 138.071 327.548 138.071C328.21 138.071 328.748 137.947 329.161 137.699C329.575 137.451 329.879 137.119 330.072 136.706C330.265 136.264 330.362 135.754 330.362 135.175V134.388H334.582C334.307 136.926 333.589 138.802 332.431 140.016C331.3 141.203 329.672 141.796 327.548 141.796ZM336.161 119.284H340.507L343.238 137.451H344.19L346.962 119.284H351.142L347.459 141.382H339.803L336.161 119.284ZM353.816 122.719H352.037V119.284H358.12V141.382H353.816V122.719ZM353.568 112.828H358.203V117.049H353.568V112.828ZM368.549 141.796C366.839 141.796 365.432 141.396 364.328 140.596C363.252 139.796 362.452 138.554 361.928 136.871C361.404 135.188 361.142 133.009 361.142 130.333C361.142 127.657 361.404 125.477 361.928 123.794C362.452 122.112 363.252 120.87 364.328 120.07C365.432 119.27 366.839 118.87 368.549 118.87C370.674 118.87 372.301 119.518 373.432 120.815C374.591 122.084 375.308 124.098 375.584 126.857H371.322V125.698C371.322 125.064 371.225 124.512 371.032 124.043C370.839 123.574 370.536 123.215 370.122 122.967C369.708 122.719 369.184 122.594 368.549 122.594C367.556 122.594 366.825 122.925 366.356 123.588C365.915 124.25 365.694 125.298 365.694 126.733V133.933C365.694 135.368 365.915 136.416 366.356 137.078C366.825 137.74 367.556 138.071 368.549 138.071C369.184 138.071 369.708 137.947 370.122 137.699C370.536 137.423 370.839 137.051 371.032 136.582C371.225 136.085 371.322 135.478 371.322 134.761V133.478H375.584C375.391 136.347 374.715 138.458 373.557 139.809C372.398 141.134 370.729 141.796 368.549 141.796ZM385.317 141.796C383.607 141.796 382.2 141.396 381.097 140.596C379.993 139.796 379.165 138.554 378.614 136.871C378.089 135.188 377.827 133.009 377.827 130.333C377.827 127.657 378.089 125.477 378.614 123.794C379.165 122.112 379.993 120.87 381.097 120.07C382.2 119.27 383.607 118.87 385.317 118.87C387 118.87 388.366 119.242 389.414 119.987C390.463 120.732 391.235 121.891 391.732 123.463C392.256 125.008 392.518 127.022 392.518 129.505V131.202H380.517V128.057H391.028L388.338 129.671V126.733C388.338 125.215 388.09 124.126 387.593 123.463C387.124 122.801 386.366 122.47 385.317 122.47C384.297 122.47 383.552 122.801 383.083 123.463C382.614 124.126 382.379 125.215 382.379 126.733V133.85C382.379 135.312 382.614 136.388 383.083 137.078C383.552 137.74 384.297 138.071 385.317 138.071C385.98 138.071 386.518 137.947 386.931 137.699C387.345 137.451 387.649 137.119 387.842 136.706C388.035 136.264 388.131 135.754 388.131 135.175V134.388H392.352C392.077 136.926 391.359 138.802 390.201 140.016C389.069 141.203 387.442 141.796 385.317 141.796ZM401.542 141.796C399.335 141.796 397.693 141.23 396.617 140.099C395.541 138.94 394.866 137.037 394.59 134.388H398.811V135.257C398.811 135.864 398.893 136.388 399.059 136.83C399.252 137.271 399.542 137.616 399.928 137.864C400.342 138.085 400.88 138.195 401.542 138.195C402.452 138.195 403.128 138.002 403.57 137.616C404.039 137.202 404.273 136.582 404.273 135.754C404.273 135.037 404.107 134.471 403.776 134.057C403.473 133.616 402.907 133.202 402.08 132.816L398.976 131.45C397.459 130.733 396.369 129.905 395.707 128.967C395.045 128.029 394.714 126.815 394.714 125.326C394.714 123.229 395.293 121.629 396.452 120.525C397.611 119.422 399.321 118.87 401.583 118.87C403.763 118.87 405.39 119.449 406.466 120.608C407.542 121.739 408.218 123.629 408.494 126.277H404.356V125.408C404.356 124.801 404.259 124.277 404.066 123.836C403.873 123.394 403.57 123.063 403.156 122.843C402.769 122.594 402.245 122.47 401.583 122.47C400.7 122.47 400.024 122.677 399.555 123.091C399.114 123.477 398.893 124.084 398.893 124.912C398.893 125.629 399.045 126.208 399.349 126.65C399.68 127.064 400.245 127.464 401.045 127.85L404.149 129.216C405.694 129.933 406.797 130.76 407.459 131.698C408.149 132.636 408.494 133.85 408.494 135.34C408.494 137.437 407.901 139.037 406.715 140.14C405.556 141.244 403.832 141.796 401.542 141.796Z" fill="white"/>
<path fill-rule="evenodd" clip-rule="evenodd" d="M64.2815 177.939C63.7216 176.532 61.7314 176.532 61.1715 177.939L60.1813 180.427L57.5094 180.6C55.9992 180.697 55.3842 182.59 56.5471 183.558L58.6071 185.269L57.9462 187.864C57.5736 189.33 59.1829 190.499 60.4627 189.691L62.7264 188.261L64.9898 189.692C66.2682 190.499 67.8801 189.331 67.5058 187.863L66.845 185.269L68.9053 183.558C70.0696 182.59 69.4539 180.697 67.9436 180.6L65.2717 180.427L64.2815 177.939ZM61.4197 181.438L62.5879 178.503C62.6046 178.461 62.625 178.442 62.6416 178.432C62.6621 178.418 62.6915 178.409 62.7265 178.409C62.7615 178.409 62.791 178.418 62.8114 178.432C62.828 178.442 62.8484 178.461 62.8651 178.503L64.0333 181.438C64.1421 181.712 64.3987 181.898 64.6924 181.917L67.8453 182.121C67.8903 182.124 67.9142 182.138 67.9295 182.15C67.9483 182.166 67.9667 182.191 67.9776 182.224C67.9884 182.257 67.9881 182.288 67.982 182.312C67.977 182.331 67.9657 182.356 67.9308 182.385L65.5004 184.403C65.274 184.591 65.1761 184.893 65.2487 185.178L66.0285 188.24C66.0397 188.284 66.034 188.31 66.0269 188.329C66.0181 188.351 66.0001 188.376 65.9717 188.397C65.9434 188.418 65.9136 188.427 65.8892 188.428C65.8693 188.43 65.8418 188.427 65.8036 188.402L63.1339 186.714C62.8851 186.557 62.568 186.557 62.3192 186.714L59.6485 188.402C59.6103 188.427 59.5829 188.43 59.5631 188.428C59.5388 188.427 59.5092 188.418 59.4808 188.397C59.4525 188.376 59.4344 188.351 59.4255 188.328C59.4183 188.31 59.4127 188.283 59.4238 188.239L60.2034 185.178C60.2761 184.893 60.1781 184.591 59.9517 184.403L57.5215 182.385C57.487 182.356 57.4758 182.331 57.4708 182.312C57.4646 182.289 57.4644 182.258 57.4753 182.224C57.4861 182.191 57.5047 182.166 57.5235 182.15C57.5388 182.138 57.5627 182.124 57.6077 182.121L60.7606 181.917C61.0543 181.898 61.3109 181.712 61.4197 181.438Z" fill="#C7A8FF"/>
<path d="M56.6281 192.129V189.951H55.1035V192.129C55.1035 193.332 56.079 194.307 57.2815 194.307H68.1715C69.374 194.307 70.3495 193.332 70.3495 192.129V189.951H68.8249V192.129C68.8249 192.49 68.532 192.783 68.1715 192.783H57.2815C56.9211 192.783 56.6281 192.49 56.6281 192.129Z" fill="#C7A8FF"/>
<path d="M85.1163 181.211H83.8966V179.573H90.2389C91.3657 179.573 92.2369 179.852 92.8526 180.409C93.4682 180.967 93.776 181.757 93.776 182.779C93.776 183.522 93.6018 184.097 93.2533 184.504C92.9048 184.899 92.3879 185.131 91.7026 185.201V185.723C92.4344 185.793 92.9803 186.037 93.3404 186.455C93.7121 186.862 93.898 187.466 93.898 188.267C93.898 189.336 93.5844 190.161 92.9571 190.742C92.3298 191.311 91.4412 191.595 90.2912 191.595H85.1163V181.211ZM90.1344 189.957C90.6455 189.957 91.023 189.83 91.267 189.574C91.5225 189.319 91.6503 188.924 91.6503 188.389V187.797C91.6503 187.263 91.5225 186.868 91.267 186.612C91.023 186.345 90.6455 186.211 90.1344 186.211H87.3117V189.957H90.1344ZM90.0996 184.713C90.5758 184.713 90.9301 184.591 91.1624 184.347C91.4064 184.091 91.5283 183.708 91.5283 183.197V182.692C91.5283 182.192 91.4122 181.82 91.1798 181.577C90.9475 181.333 90.5874 181.211 90.0996 181.211H87.3117V184.713H90.0996ZM99.7832 191.77C98.8539 191.77 98.0582 191.584 97.3961 191.212C96.734 190.84 96.2287 190.294 95.8802 189.574C95.5434 188.854 95.3749 187.977 95.3749 186.943C95.3749 185.909 95.5434 185.032 95.8802 184.312C96.2287 183.592 96.734 183.046 97.3961 182.674C98.0582 182.303 98.8539 182.117 99.7832 182.117C100.701 182.117 101.491 182.303 102.153 182.674C102.815 183.046 103.314 183.592 103.651 184.312C104 185.032 104.174 185.909 104.174 186.943C104.174 187.977 104 188.854 103.651 189.574C103.314 190.294 102.815 190.84 102.153 191.212C101.491 191.584 100.701 191.77 99.7832 191.77ZM99.7832 190.079C100.515 190.079 101.049 189.876 101.386 189.47C101.735 189.063 101.909 188.418 101.909 187.536V186.351C101.909 185.468 101.735 184.823 101.386 184.417C101.049 184.01 100.515 183.807 99.7832 183.807C99.0398 183.807 98.4938 184.01 98.1454 184.417C97.8085 184.823 97.6401 185.468 97.6401 186.351V187.536C97.6401 188.418 97.8085 189.063 98.1454 189.47C98.4938 189.876 99.0398 190.079 99.7832 190.079ZM109.942 191.77C109.012 191.77 108.217 191.584 107.554 191.212C106.892 190.84 106.387 190.294 106.039 189.574C105.702 188.854 105.533 187.977 105.533 186.943C105.533 185.909 105.702 185.032 106.039 184.312C106.387 183.592 106.892 183.046 107.554 182.674C108.217 182.303 109.012 182.117 109.942 182.117C110.859 182.117 111.649 182.303 112.311 182.674C112.973 183.046 113.473 183.592 113.81 184.312C114.158 185.032 114.332 185.909 114.332 186.943C114.332 187.977 114.158 188.854 113.81 189.574C113.473 190.294 112.973 190.84 112.311 191.212C111.649 191.584 110.859 191.77 109.942 191.77ZM109.942 190.079C110.673 190.079 111.208 189.876 111.545 189.47C111.893 189.063 112.067 188.418 112.067 187.536V186.351C112.067 185.468 111.893 184.823 111.545 184.417C111.208 184.01 110.673 183.807 109.942 183.807C109.198 183.807 108.652 184.01 108.304 184.417C107.967 184.823 107.798 185.468 107.798 186.351V187.536C107.798 188.418 107.967 189.063 108.304 189.47C108.652 189.876 109.198 190.079 109.942 190.079ZM116.179 181.141H115.117V179.573H118.323V186.037H119.438L122.104 182.291H124.578L121.041 187.187V186.159L123.654 190.027H124.717V191.595H122.069L119.438 187.536H118.323V191.595H116.179V181.141ZM131.709 185.758C131.709 185.096 131.575 184.608 131.308 184.295C131.053 183.969 130.658 183.807 130.123 183.807C129.589 183.807 129.188 183.969 128.921 184.295C128.665 184.608 128.538 185.096 128.538 185.758V191.595H126.395V183.859H125.332V182.291H128.242V184.051H128.764C128.938 183.389 129.217 182.901 129.601 182.587C129.984 182.273 130.495 182.117 131.134 182.117C131.773 182.117 132.29 182.279 132.685 182.605C133.08 182.918 133.364 183.4 133.538 184.051H134.026C134.201 183.389 134.479 182.901 134.863 182.587C135.258 182.273 135.78 182.117 136.431 182.117C137.314 182.117 137.987 182.401 138.452 182.97C138.917 183.54 139.149 184.37 139.149 185.462V190.027H140.212V191.595H137.006V185.758C137.006 185.096 136.872 184.608 136.605 184.295C136.349 183.969 135.955 183.807 135.42 183.807C134.886 183.807 134.491 183.969 134.235 184.295C133.98 184.608 133.852 185.096 133.852 185.758V191.595H131.709V185.758ZM143.952 191.77C143.046 191.77 142.338 191.537 141.827 191.073C141.327 190.608 141.077 189.957 141.077 189.121C141.077 188.285 141.35 187.628 141.896 187.152C142.442 186.676 143.255 186.386 144.336 186.281L146.758 186.037V187.414L144.963 187.605C144.37 187.652 143.941 187.774 143.673 187.971C143.406 188.169 143.273 188.453 143.273 188.825V188.982C143.273 189.353 143.412 189.638 143.691 189.836C143.97 190.033 144.37 190.132 144.893 190.132C145.509 190.132 145.973 189.998 146.287 189.731C146.601 189.464 146.758 189.063 146.758 188.529V187.187V186.926V185.636C146.758 184.997 146.624 184.533 146.357 184.242C146.101 183.952 145.689 183.807 145.12 183.807C144.55 183.807 144.126 183.935 143.848 184.19C143.581 184.434 143.447 184.742 143.447 185.114V185.236H141.269C141.432 184.19 141.838 183.412 142.489 182.901C143.139 182.378 144.028 182.117 145.154 182.117C146.386 182.117 147.315 182.413 147.942 183.005C148.581 183.598 148.901 184.463 148.901 185.601V190.027H149.964V191.595H148.413C147.971 191.595 147.635 191.479 147.402 191.247C147.181 191.015 147.071 190.678 147.071 190.236V189.888H146.548C146.363 190.538 146.061 191.015 145.642 191.317C145.224 191.619 144.661 191.77 143.952 191.77ZM151.51 183.859H150.447V182.291H153.357V184.068H153.879C154.077 183.418 154.367 182.941 154.75 182.639C155.134 182.326 155.645 182.169 156.284 182.169H157.416V183.859H155.395C154.791 183.859 154.35 184.028 154.071 184.364C153.792 184.701 153.653 185.224 153.653 185.933V191.595H151.51V183.859ZM159.042 181.141H157.979V179.573H161.185V186.037H162.3L164.966 182.291H167.44L163.903 187.187V186.159L166.517 190.027H167.58V191.595H164.931L162.3 187.536H161.185V191.595H159.042V181.141ZM172.157 191.77C170.937 191.77 170.002 191.52 169.352 191.02C168.713 190.521 168.306 189.731 168.132 188.651H170.275V188.79C170.275 189.046 170.333 189.272 170.45 189.47C170.577 189.667 170.781 189.83 171.059 189.957C171.35 190.074 171.716 190.132 172.157 190.132C172.749 190.132 173.197 190.039 173.499 189.853C173.812 189.667 173.969 189.4 173.969 189.051C173.969 188.773 173.876 188.558 173.69 188.407C173.505 188.256 173.179 188.122 172.715 188.006L170.798 187.605C169.892 187.396 169.236 187.088 168.829 186.682C168.423 186.275 168.219 185.723 168.219 185.026C168.219 184.097 168.556 183.383 169.23 182.883C169.904 182.372 170.868 182.117 172.122 182.117C173.33 182.117 174.254 182.366 174.893 182.866C175.532 183.365 175.932 184.155 176.095 185.236H173.987V185.096C173.987 184.841 173.923 184.614 173.795 184.417C173.667 184.219 173.464 184.062 173.185 183.946C172.918 183.818 172.564 183.755 172.122 183.755C171.553 183.755 171.117 183.847 170.815 184.033C170.513 184.219 170.362 184.486 170.362 184.835C170.362 185.114 170.455 185.329 170.641 185.48C170.827 185.631 171.141 185.764 171.582 185.88L173.499 186.281C174.416 186.49 175.084 186.798 175.502 187.204C175.921 187.611 176.13 188.157 176.13 188.842C176.13 189.783 175.787 190.509 175.102 191.02C174.416 191.52 173.435 191.77 172.157 191.77Z" fill="white"/>
<path fill-rule="evenodd" clip-rule="evenodd" d="M54.0142 227.413C54.0142 225.007 55.9644 223.057 58.3702 223.057C60.4776 223.057 62.2354 224.554 62.639 226.542H71.4382V228.066H69.478V230.898H67.9534V228.066H62.6775C62.3622 230.162 60.5538 231.769 58.3702 231.769C55.9644 231.769 54.0142 229.819 54.0142 227.413ZM58.3702 224.582C56.8064 224.582 55.5388 225.849 55.5388 227.413C55.5388 228.977 56.8064 230.244 58.3702 230.244C59.9339 230.244 61.2016 228.977 61.2016 227.413C61.2016 225.849 59.9339 224.582 58.3702 224.582Z" fill="#C7A8FF"/>
<path d="M85.0989 223.028H83.8966V221.39H90.1518C91.3599 221.39 92.2776 221.698 92.9048 222.314C93.5321 222.918 93.8457 223.812 93.8457 224.997C93.8457 226.147 93.5321 227.024 92.9048 227.628C92.2892 228.221 91.3831 228.517 90.1867 228.517H87.3117V233.413H85.0989V223.028ZM89.995 227.001C90.5294 227.001 90.9301 226.862 91.1973 226.583C91.4644 226.304 91.598 225.886 91.598 225.328V224.684C91.598 224.126 91.4644 223.714 91.1973 223.446C90.9301 223.168 90.5294 223.028 89.995 223.028H87.3117V227.001H89.995ZM97.6868 233.587C96.7807 233.587 96.0721 233.355 95.561 232.89C95.0615 232.426 94.8118 231.775 94.8118 230.939C94.8118 230.102 95.0848 229.446 95.6307 228.97C96.1767 228.494 96.9898 228.203 98.0701 228.099L100.492 227.855V229.231L98.6973 229.423C98.1049 229.469 97.6751 229.591 97.408 229.789C97.1408 229.986 97.0072 230.271 97.0072 230.643V230.799C97.0072 231.171 97.1466 231.456 97.4254 231.653C97.7042 231.851 98.1049 231.949 98.6277 231.949C99.2433 231.949 99.7079 231.816 100.022 231.549C100.335 231.281 100.492 230.881 100.492 230.346V229.005V228.743V227.454C100.492 226.815 100.358 226.35 100.091 226.06C99.8357 225.77 99.4233 225.624 98.8542 225.624C98.285 225.624 97.861 225.752 97.5822 226.008C97.315 226.252 97.1815 226.56 97.1815 226.931V227.053H95.0035C95.1661 226.008 95.5726 225.229 96.2231 224.718C96.8736 224.196 97.7623 223.934 98.889 223.934C100.12 223.934 101.05 224.231 101.677 224.823C102.316 225.415 102.635 226.281 102.635 227.419V231.845H103.698V233.413H102.147C101.706 233.413 101.369 233.297 101.137 233.064C100.916 232.832 100.806 232.495 100.806 232.054V231.705H100.283C100.097 232.356 99.7951 232.832 99.3769 233.134C98.9587 233.436 98.3953 233.587 97.6868 233.587ZM108.468 233.587C107.248 233.587 106.313 233.337 105.662 232.838C105.023 232.338 104.617 231.549 104.443 230.468H106.586V230.608C106.586 230.863 106.644 231.09 106.76 231.287C106.888 231.485 107.091 231.647 107.37 231.775C107.66 231.891 108.026 231.949 108.468 231.949C109.06 231.949 109.507 231.856 109.809 231.671C110.123 231.485 110.28 231.218 110.28 230.869C110.28 230.59 110.187 230.375 110.001 230.224C109.815 230.073 109.49 229.94 109.025 229.824L107.109 229.423C106.202 229.214 105.546 228.906 105.14 228.499C104.733 228.093 104.53 227.541 104.53 226.844C104.53 225.915 104.867 225.2 105.54 224.701C106.214 224.19 107.178 223.934 108.433 223.934C109.641 223.934 110.564 224.184 111.203 224.684C111.842 225.183 112.243 225.973 112.405 227.053H110.297V226.914C110.297 226.658 110.233 226.432 110.105 226.234C109.978 226.037 109.774 225.88 109.496 225.764C109.228 225.636 108.874 225.572 108.433 225.572C107.864 225.572 107.428 225.665 107.126 225.851C106.824 226.037 106.673 226.304 106.673 226.652C106.673 226.931 106.766 227.146 106.952 227.297C107.138 227.448 107.451 227.582 107.893 227.698L109.809 228.099C110.727 228.308 111.395 228.616 111.813 229.022C112.231 229.429 112.44 229.975 112.44 230.66C112.44 231.601 112.098 232.327 111.412 232.838C110.727 233.337 109.745 233.587 108.468 233.587ZM117.741 233.587C116.521 233.587 115.586 233.337 114.936 232.838C114.297 232.338 113.89 231.549 113.716 230.468H115.859V230.608C115.859 230.863 115.917 231.09 116.034 231.287C116.161 231.485 116.365 231.647 116.643 231.775C116.934 231.891 117.3 231.949 117.741 231.949C118.334 231.949 118.781 231.856 119.083 231.671C119.396 231.485 119.553 231.218 119.553 230.869C119.553 230.59 119.46 230.375 119.274 230.224C119.089 230.073 118.763 229.94 118.299 229.824L116.382 229.423C115.476 229.214 114.82 228.906 114.413 228.499C114.007 228.093 113.803 227.541 113.803 226.844C113.803 225.915 114.14 225.2 114.814 224.701C115.488 224.19 116.452 223.934 117.706 223.934C118.914 223.934 119.838 224.184 120.477 224.684C121.116 225.183 121.516 225.973 121.679 227.053H119.571V226.914C119.571 226.658 119.507 226.432 119.379 226.234C119.251 226.037 119.048 225.88 118.769 225.764C118.502 225.636 118.148 225.572 117.706 225.572C117.137 225.572 116.701 225.665 116.399 225.851C116.097 226.037 115.946 226.304 115.946 226.652C115.946 226.931 116.039 227.146 116.225 227.297C116.411 227.448 116.725 227.582 117.166 227.698L119.083 228.099C120 228.308 120.668 228.616 121.087 229.022C121.505 229.429 121.714 229.975 121.714 230.66C121.714 231.601 121.371 232.327 120.686 232.838C120 233.337 119.019 233.587 117.741 233.587ZM122.592 224.109H124.77L126.443 231.636H126.983L128.673 224.109H130.938L132.646 231.636H133.169L134.841 224.109H136.932L134.772 233.413H131.269L130.032 227.837H129.492L128.255 233.413H124.753L122.592 224.109ZM142.203 233.587C141.274 233.587 140.478 233.401 139.816 233.03C139.154 232.658 138.649 232.112 138.3 231.392C137.963 230.672 137.795 229.795 137.795 228.761C137.795 227.727 137.963 226.85 138.3 226.13C138.649 225.41 139.154 224.864 139.816 224.492C140.478 224.12 141.274 223.934 142.203 223.934C143.121 223.934 143.911 224.12 144.573 224.492C145.235 224.864 145.734 225.41 146.071 226.13C146.42 226.85 146.594 227.727 146.594 228.761C146.594 229.795 146.42 230.672 146.071 231.392C145.734 232.112 145.235 232.658 144.573 233.03C143.911 233.401 143.121 233.587 142.203 233.587ZM142.203 231.897C142.935 231.897 143.469 231.694 143.806 231.287C144.155 230.881 144.329 230.236 144.329 229.353V228.168C144.329 227.286 144.155 226.641 143.806 226.234C143.469 225.828 142.935 225.624 142.203 225.624C141.46 225.624 140.914 225.828 140.565 226.234C140.228 226.641 140.06 227.286 140.06 228.168V229.353C140.06 230.236 140.228 230.881 140.565 231.287C140.914 231.694 141.46 231.897 142.203 231.897ZM148.685 225.677H147.622V224.109H150.532V225.886H151.055C151.252 225.235 151.543 224.759 151.926 224.457C152.309 224.143 152.82 223.987 153.459 223.987H154.592V225.677H152.571C151.967 225.677 151.525 225.845 151.246 226.182C150.968 226.519 150.828 227.042 150.828 227.75V233.413H148.685V225.677ZM158.671 233.587C157.963 233.587 157.341 233.396 156.807 233.012C156.273 232.629 155.86 232.077 155.57 231.357C155.279 230.625 155.134 229.76 155.134 228.761C155.134 227.75 155.274 226.885 155.552 226.165C155.843 225.444 156.255 224.893 156.79 224.509C157.324 224.126 157.951 223.934 158.671 223.934C159.322 223.934 159.85 224.091 160.257 224.405C160.675 224.707 160.977 225.166 161.163 225.781H161.686C161.569 224.736 161.511 224.004 161.511 223.586V222.959H160.344V221.39H163.655V231.845H164.717V233.413H163.167C162.725 233.413 162.388 233.297 162.156 233.064C161.924 232.821 161.808 232.478 161.808 232.036V231.601H161.302C161.093 232.251 160.768 232.745 160.327 233.082C159.885 233.419 159.333 233.587 158.671 233.587ZM159.455 231.897C160.164 231.897 160.681 231.694 161.006 231.287C161.343 230.881 161.511 230.242 161.511 229.371V228.151C161.511 227.28 161.343 226.641 161.006 226.234C160.681 225.828 160.164 225.624 159.455 225.624C158.747 225.624 158.224 225.828 157.887 226.234C157.562 226.641 157.399 227.28 157.399 228.151V229.371C157.399 230.242 157.562 230.881 157.887 231.287C158.224 231.694 158.747 231.897 159.455 231.897ZM169.639 233.587C168.419 233.587 167.484 233.337 166.833 232.838C166.195 232.338 165.788 231.549 165.614 230.468H167.757V230.608C167.757 230.863 167.815 231.09 167.931 231.287C168.059 231.485 168.262 231.647 168.541 231.775C168.831 231.891 169.197 231.949 169.639 231.949C170.231 231.949 170.678 231.856 170.98 231.671C171.294 231.485 171.451 231.218 171.451 230.869C171.451 230.59 171.358 230.375 171.172 230.224C170.986 230.073 170.661 229.94 170.196 229.824L168.28 229.423C167.374 229.214 166.717 228.906 166.311 228.499C165.904 228.093 165.701 227.541 165.701 226.844C165.701 225.915 166.038 225.2 166.712 224.701C167.385 224.19 168.349 223.934 169.604 223.934C170.812 223.934 171.735 224.184 172.374 224.684C173.013 225.183 173.414 225.973 173.577 227.053H171.468V226.914C171.468 226.658 171.404 226.432 171.277 226.234C171.149 226.037 170.946 225.88 170.667 225.764C170.4 225.636 170.045 225.572 169.604 225.572C169.035 225.572 168.599 225.665 168.297 225.851C167.995 226.037 167.844 226.304 167.844 226.652C167.844 226.931 167.937 227.146 168.123 227.297C168.309 227.448 168.622 227.582 169.064 227.698L170.98 228.099C171.898 228.308 172.566 228.616 172.984 229.022C173.402 229.429 173.611 229.975 173.611 230.66C173.611 231.601 173.269 232.327 172.583 232.838C171.898 233.337 170.917 233.587 169.639 233.587Z" fill="white"/>
<path fill-rule="evenodd" clip-rule="evenodd" d="M233.481 179.061C233.481 177.859 234.457 176.883 235.659 176.883H248.727C249.93 176.883 250.905 177.859 250.905 179.061V187.773C250.905 188.976 249.93 189.951 248.727 189.951H235.659C234.457 189.951 233.481 188.976 233.481 187.773V179.061ZM235.659 178.408C235.299 178.408 235.006 178.701 235.006 179.061V187.773C235.006 188.134 235.299 188.427 235.659 188.427H248.727C249.088 188.427 249.381 188.134 249.381 187.773V179.061C249.381 178.701 249.088 178.408 248.727 178.408H235.659Z" fill="#C7A8FF"/>
<path fill-rule="evenodd" clip-rule="evenodd" d="M235.659 193.872C234.457 193.872 233.481 192.896 233.481 191.694H235.006C235.006 192.054 235.299 192.347 235.659 192.347H248.727C249.088 192.347 249.381 192.054 249.381 191.694H250.905C250.905 192.896 249.93 193.872 248.727 193.872H235.659Z" fill="#C7A8FF"/>
<path d="M269.131 191.77C268.004 191.77 267.046 191.543 266.256 191.09C265.478 190.625 264.88 189.934 264.462 189.017C264.055 188.087 263.852 186.943 263.852 185.584C263.852 184.225 264.055 183.087 264.462 182.169C264.88 181.24 265.478 180.549 266.256 180.095C267.046 179.631 268.004 179.399 269.131 179.399C270.258 179.399 271.211 179.631 271.989 180.095C272.779 180.549 273.377 181.234 273.783 182.152C274.19 183.069 274.393 184.213 274.393 185.584C274.393 186.955 274.19 188.099 273.783 189.017C273.377 189.934 272.779 190.625 271.989 191.09C271.211 191.543 270.258 191.77 269.131 191.77ZM269.131 190.01C270.142 190.01 270.879 189.731 271.344 189.173C271.82 188.616 272.058 187.745 272.058 186.56V184.608C272.058 183.423 271.82 182.552 271.344 181.995C270.879 181.437 270.142 181.158 269.131 181.158C268.121 181.158 267.377 181.437 266.901 181.995C266.425 182.552 266.187 183.423 266.187 184.608V186.56C266.187 187.745 266.425 188.616 266.901 189.173C267.377 189.731 268.121 190.01 269.131 190.01ZM276.578 183.859H275.498V182.291H278.408V184.103H278.931C279.128 183.453 279.448 182.959 279.889 182.622C280.33 182.285 280.882 182.117 281.544 182.117C282.264 182.117 282.886 182.308 283.409 182.692C283.943 183.075 284.355 183.633 284.646 184.364C284.936 185.085 285.081 185.944 285.081 186.943C285.081 187.954 284.936 188.819 284.646 189.539C284.367 190.259 283.96 190.811 283.426 191.195C282.892 191.578 282.264 191.77 281.544 191.77C280.894 191.77 280.359 191.619 279.941 191.317C279.535 191.003 279.238 190.538 279.053 189.923H278.53C278.646 190.968 278.704 191.682 278.704 192.066V193.895H276.578V183.859ZM280.76 190.079C281.469 190.079 281.991 189.876 282.328 189.47C282.665 189.063 282.834 188.424 282.834 187.553V186.333C282.834 185.462 282.665 184.823 282.328 184.417C281.991 184.01 281.469 183.807 280.76 183.807C280.063 183.807 279.546 184.01 279.209 184.417C278.873 184.823 278.704 185.462 278.704 186.333V187.553C278.704 188.424 278.873 189.063 279.209 189.47C279.546 189.876 280.063 190.079 280.76 190.079ZM290.82 191.77C289.902 191.77 289.118 191.584 288.468 191.212C287.817 190.84 287.318 190.294 286.969 189.574C286.632 188.854 286.464 187.977 286.464 186.943C286.464 185.909 286.632 185.032 286.969 184.312C287.318 183.592 287.817 183.046 288.468 182.674C289.118 182.303 289.902 182.117 290.82 182.117C291.714 182.117 292.475 182.291 293.102 182.639C293.73 182.976 294.206 183.482 294.531 184.155C294.868 184.817 295.037 185.631 295.037 186.595V187.344H287.858V185.95H294.27L292.911 186.821V186.298C292.911 185.416 292.742 184.771 292.405 184.364C292.069 183.958 291.54 183.755 290.82 183.755C290.1 183.755 289.571 183.958 289.234 184.364C288.897 184.771 288.729 185.416 288.729 186.298V187.536C288.729 188.418 288.897 189.063 289.234 189.47C289.571 189.876 290.1 190.079 290.82 190.079C291.261 190.079 291.621 190.01 291.9 189.87C292.179 189.731 292.382 189.563 292.51 189.365C292.638 189.168 292.702 188.97 292.702 188.773V188.651H294.897C294.688 189.661 294.235 190.434 293.538 190.968C292.853 191.502 291.947 191.77 290.82 191.77ZM297.116 183.859H296.053V182.291H298.963V184.051H299.485C299.671 183.389 299.968 182.901 300.374 182.587C300.792 182.273 301.332 182.117 301.995 182.117C302.935 182.117 303.65 182.401 304.138 182.97C304.626 183.54 304.869 184.37 304.869 185.462V190.027H305.95V191.595H302.726V185.88C302.726 185.16 302.587 184.637 302.308 184.312C302.029 183.975 301.594 183.807 301.001 183.807C300.397 183.807 299.956 183.975 299.677 184.312C299.398 184.637 299.259 185.16 299.259 185.88V191.595H297.116V183.859ZM313.422 191.595C312.969 191.595 312.627 191.479 312.394 191.247C312.174 191.003 312.063 190.66 312.063 190.219V182.291L312.795 180.427H314.206V190.027H316.123V191.595H313.422ZM310.565 182.291H316.123V183.859H310.565V182.291ZM320.17 191.77C319.263 191.77 318.555 191.537 318.044 191.073C317.544 190.608 317.295 189.957 317.295 189.121C317.295 188.285 317.568 187.628 318.114 187.152C318.659 186.676 319.473 186.386 320.553 186.281L322.975 186.037V187.414L321.18 187.605C320.588 187.652 320.158 187.774 319.891 187.971C319.624 188.169 319.49 188.453 319.49 188.825V188.982C319.49 189.353 319.629 189.638 319.908 189.836C320.187 190.033 320.588 190.132 321.11 190.132C321.726 190.132 322.191 189.998 322.504 189.731C322.818 189.464 322.975 189.063 322.975 188.529V187.187V186.926V185.636C322.975 184.997 322.841 184.533 322.574 184.242C322.318 183.952 321.906 183.807 321.337 183.807C320.768 183.807 320.344 183.935 320.065 184.19C319.798 184.434 319.664 184.742 319.664 185.114V185.236H317.486C317.649 184.19 318.055 183.412 318.706 182.901C319.356 182.378 320.245 182.117 321.372 182.117C322.603 182.117 323.532 182.413 324.16 183.005C324.799 183.598 325.118 184.463 325.118 185.601V190.027H326.181V191.595H324.63C324.189 191.595 323.852 191.479 323.619 191.247C323.399 191.015 323.288 190.678 323.288 190.236V189.888H322.766C322.58 190.538 322.278 191.015 321.86 191.317C321.441 191.619 320.878 191.77 320.17 191.77ZM332.466 191.77C331.804 191.77 331.252 191.601 330.811 191.264C330.37 190.927 330.05 190.434 329.853 189.783H329.33V191.595H327.5V181.141H326.438V179.573H329.626V181.768C329.626 182.186 329.568 182.918 329.452 183.964H329.975C330.172 183.348 330.474 182.889 330.881 182.587C331.287 182.273 331.816 182.117 332.466 182.117C333.186 182.117 333.814 182.308 334.348 182.692C334.882 183.075 335.289 183.633 335.568 184.364C335.858 185.085 336.003 185.944 336.003 186.943C336.003 187.942 335.858 188.807 335.568 189.539C335.289 190.259 334.882 190.811 334.348 191.195C333.814 191.578 333.186 191.77 332.466 191.77ZM331.682 190.079C332.391 190.079 332.913 189.876 333.25 189.47C333.587 189.063 333.756 188.424 333.756 187.553V186.333C333.756 185.462 333.587 184.823 333.25 184.417C332.913 184.01 332.391 183.807 331.682 183.807C330.985 183.807 330.468 184.01 330.131 184.417C329.795 184.823 329.626 185.462 329.626 186.333V187.553C329.626 188.424 329.795 189.063 330.131 189.47C330.468 189.876 330.985 190.079 331.682 190.079ZM341.33 191.77C340.11 191.77 339.175 191.52 338.525 191.02C337.886 190.521 337.479 189.731 337.305 188.651H339.448V188.79C339.448 189.046 339.506 189.272 339.622 189.47C339.75 189.667 339.953 189.83 340.232 189.957C340.523 190.074 340.888 190.132 341.33 190.132C341.922 190.132 342.37 190.039 342.672 189.853C342.985 189.667 343.142 189.4 343.142 189.051C343.142 188.773 343.049 188.558 342.863 188.407C342.677 188.256 342.352 188.122 341.887 188.006L339.971 187.605C339.065 187.396 338.408 187.088 338.002 186.682C337.595 186.275 337.392 185.723 337.392 185.026C337.392 184.097 337.729 183.383 338.403 182.883C339.076 182.372 340.041 182.117 341.295 182.117C342.503 182.117 343.427 182.366 344.065 182.866C344.704 183.365 345.105 184.155 345.268 185.236H343.159V185.096C343.159 184.841 343.096 184.614 342.968 184.417C342.84 184.219 342.637 184.062 342.358 183.946C342.091 183.818 341.736 183.755 341.295 183.755C340.726 183.755 340.29 183.847 339.988 184.033C339.686 184.219 339.535 184.486 339.535 184.835C339.535 185.114 339.628 185.329 339.814 185.48C340 185.631 340.313 185.764 340.755 185.88L342.672 186.281C343.589 186.49 344.257 186.798 344.675 187.204C345.093 187.611 345.303 188.157 345.303 188.842C345.303 189.783 344.96 190.509 344.275 191.02C343.589 191.52 342.608 191.77 341.33 191.77Z" fill="white"/>
<path fill-rule="evenodd" clip-rule="evenodd" d="M242.193 220.226C238.224 220.226 235.006 223.444 235.006 227.413C235.006 231.383 238.224 234.6 242.193 234.6C246.163 234.6 249.381 231.383 249.381 227.413C249.381 223.444 246.163 220.226 242.193 220.226ZM233.481 227.413C233.481 222.602 237.382 218.701 242.193 218.701C247.005 218.701 250.905 222.602 250.905 227.413C250.905 232.225 247.005 236.125 242.193 236.125C237.382 236.125 233.481 232.225 233.481 227.413Z" fill="#C7A8FF"/>
<path fill-rule="evenodd" clip-rule="evenodd" d="M241.431 227.413V223.057H242.956V226.973L246.214 228.854L245.452 230.175L241.812 228.073C241.576 227.937 241.431 227.685 241.431 227.413Z" fill="#C7A8FF"/>
<path d="M264.584 223.028H263.364V221.39H269.706C270.833 221.39 271.704 221.669 272.32 222.227C272.935 222.784 273.243 223.574 273.243 224.596C273.243 225.34 273.069 225.915 272.721 226.321C272.372 226.716 271.855 226.949 271.17 227.018V227.541C271.902 227.611 272.448 227.855 272.808 228.273C273.179 228.679 273.365 229.283 273.365 230.085C273.365 231.154 273.052 231.978 272.424 232.559C271.797 233.128 270.908 233.413 269.759 233.413H264.584V223.028ZM269.602 231.775C270.113 231.775 270.49 231.647 270.734 231.392C270.99 231.136 271.118 230.741 271.118 230.207V229.615C271.118 229.08 270.99 228.685 270.734 228.43C270.49 228.163 270.113 228.029 269.602 228.029H266.779V231.775H269.602ZM269.567 226.53C270.043 226.53 270.397 226.409 270.63 226.165C270.874 225.909 270.996 225.526 270.996 225.015V224.509C270.996 224.01 270.879 223.638 270.647 223.394C270.415 223.15 270.055 223.028 269.567 223.028H266.779V226.53H269.567ZM275.574 225.677H274.511V224.109H277.421V225.886H277.944C278.141 225.235 278.432 224.759 278.815 224.457C279.198 224.143 279.709 223.987 280.348 223.987H281.481V225.677H279.46C278.856 225.677 278.414 225.845 278.135 226.182C277.857 226.519 277.717 227.042 277.717 227.75V233.413H275.574V225.677ZM286.363 233.587C285.434 233.587 284.638 233.401 283.976 233.03C283.314 232.658 282.809 232.112 282.46 231.392C282.123 230.672 281.955 229.795 281.955 228.761C281.955 227.727 282.123 226.85 282.46 226.13C282.809 225.41 283.314 224.864 283.976 224.492C284.638 224.12 285.434 223.934 286.363 223.934C287.281 223.934 288.071 224.12 288.733 224.492C289.395 224.864 289.894 225.41 290.231 226.13C290.58 226.85 290.754 227.727 290.754 228.761C290.754 229.795 290.58 230.672 290.231 231.392C289.894 232.112 289.395 232.658 288.733 233.03C288.071 233.401 287.281 233.587 286.363 233.587ZM286.363 231.897C287.095 231.897 287.629 231.694 287.966 231.287C288.315 230.881 288.489 230.236 288.489 229.353V228.168C288.489 227.286 288.315 226.641 287.966 226.234C287.629 225.828 287.095 225.624 286.363 225.624C285.62 225.624 285.074 225.828 284.725 226.234C284.388 226.641 284.22 227.286 284.22 228.168V229.353C284.22 230.236 284.388 230.881 284.725 231.287C285.074 231.694 285.62 231.897 286.363 231.897ZM291.612 224.109H293.79L295.463 231.636H296.003L297.693 224.109H299.958L301.666 231.636H302.188L303.861 224.109H305.952L303.791 233.413H300.289L299.052 227.837H298.512L297.275 233.413H293.772L291.612 224.109ZM310.838 233.587C309.618 233.587 308.683 233.337 308.033 232.838C307.394 232.338 306.987 231.549 306.813 230.468H308.956V230.608C308.956 230.863 309.014 231.09 309.13 231.287C309.258 231.485 309.461 231.647 309.74 231.775C310.031 231.891 310.396 231.949 310.838 231.949C311.43 231.949 311.878 231.856 312.18 231.671C312.493 231.485 312.65 231.218 312.65 230.869C312.65 230.59 312.557 230.375 312.371 230.224C312.185 230.073 311.86 229.94 311.395 229.824L309.479 229.423C308.573 229.214 307.916 228.906 307.51 228.499C307.103 228.093 306.9 227.541 306.9 226.844C306.9 225.915 307.237 225.2 307.911 224.701C308.584 224.19 309.549 223.934 310.803 223.934C312.011 223.934 312.935 224.184 313.573 224.684C314.212 225.183 314.613 225.973 314.776 227.053H312.667V226.914C312.667 226.658 312.604 226.432 312.476 226.234C312.348 226.037 312.145 225.88 311.866 225.764C311.599 225.636 311.244 225.572 310.803 225.572C310.234 225.572 309.798 225.665 309.496 225.851C309.194 226.037 309.043 226.304 309.043 226.652C309.043 226.931 309.136 227.146 309.322 227.297C309.508 227.448 309.822 227.582 310.263 227.698L312.18 228.099C313.097 228.308 313.765 228.616 314.183 229.022C314.601 229.429 314.811 229.975 314.811 230.66C314.811 231.601 314.468 232.327 313.783 232.838C313.097 233.337 312.116 233.587 310.838 233.587ZM316.888 225.677H315.738V224.109H319.031V233.413H316.888V225.677ZM316.749 221.39H319.118V223.237H316.749V221.39ZM321.635 225.677H320.572V224.109H323.482V225.868H324.005C324.191 225.206 324.487 224.718 324.894 224.405C325.312 224.091 325.852 223.934 326.514 223.934C327.455 223.934 328.169 224.219 328.657 224.788C329.145 225.357 329.389 226.188 329.389 227.28V231.845H330.469V233.413H327.246V227.698C327.246 226.978 327.106 226.455 326.828 226.13C326.549 225.793 326.113 225.624 325.521 225.624C324.917 225.624 324.475 225.793 324.197 226.13C323.918 226.455 323.778 226.978 323.778 227.698V233.413H321.635V225.677ZM331.559 234.145H336.908C337.187 234.145 337.384 234.098 337.501 234.005C337.617 233.924 337.675 233.779 337.675 233.57C337.675 233.361 337.611 233.21 337.483 233.117C337.367 233.024 337.175 232.977 336.908 232.977H333.476C332.825 232.977 332.343 232.873 332.029 232.664C331.716 232.443 331.559 232.118 331.559 231.688C331.559 231.281 331.693 230.968 331.96 230.747C332.239 230.526 332.645 230.404 333.179 230.381V229.928C332.61 229.742 332.186 229.423 331.907 228.97C331.629 228.505 331.489 227.924 331.489 227.227C331.489 226.17 331.826 225.357 332.5 224.788C333.185 224.219 334.144 223.934 335.375 223.934C336.595 223.934 337.541 224.219 338.215 224.788C338.9 225.357 339.243 226.17 339.243 227.227C339.243 228.25 338.906 229.034 338.232 229.58C337.57 230.126 336.641 230.399 335.445 230.399H334.138C333.905 230.399 333.737 230.433 333.632 230.503C333.54 230.573 333.493 230.689 333.493 230.852C333.493 231.003 333.54 231.119 333.632 231.2C333.737 231.27 333.905 231.305 334.138 231.305H337.309C338.122 231.305 338.738 231.485 339.156 231.845C339.586 232.205 339.801 232.728 339.801 233.413C339.801 234.168 339.557 234.737 339.069 235.121C338.592 235.515 337.89 235.713 336.96 235.713H331.559V234.145ZM335.375 228.9C335.967 228.9 336.409 228.784 336.699 228.552C337.001 228.308 337.152 227.93 337.152 227.419V227.001C337.152 226.501 337.001 226.136 336.699 225.903C336.409 225.659 335.967 225.537 335.375 225.537C334.771 225.537 334.318 225.659 334.016 225.903C333.725 226.136 333.58 226.501 333.58 227.001V227.419C333.58 227.93 333.725 228.308 334.016 228.552C334.318 228.784 334.771 228.9 335.375 228.9ZM336.699 224.562C336.699 223.865 336.833 223.354 337.1 223.028C337.367 222.703 337.785 222.54 338.354 222.54H339.696V224.109H337.762C337.53 224.109 337.355 224.172 337.239 224.3C337.123 224.428 337.065 224.637 337.065 224.927L336.699 224.562ZM345.554 222.959H344.491V221.39H347.697V223.516C347.697 223.934 347.639 224.666 347.523 225.712H348.028C348.202 225.108 348.481 224.66 348.865 224.37C349.248 224.08 349.771 223.934 350.433 223.934C351.374 223.934 352.082 224.219 352.558 224.788C353.046 225.346 353.29 226.176 353.29 227.28V231.845H354.353V233.413H351.165V227.698C351.165 226.989 351.025 226.467 350.746 226.13C350.468 225.793 350.026 225.624 349.422 225.624C348.83 225.624 348.394 225.793 348.115 226.13C347.837 226.455 347.697 226.978 347.697 227.698V233.413H345.554V222.959ZM356.041 225.677H354.891V224.109H358.184V233.413H356.041V225.677ZM355.902 221.39H358.271V223.237H355.902V221.39ZM364.012 233.587C362.792 233.587 361.857 233.337 361.206 232.838C360.568 232.338 360.161 231.549 359.987 230.468H362.13V230.608C362.13 230.863 362.188 231.09 362.304 231.287C362.432 231.485 362.635 231.647 362.914 231.775C363.204 231.891 363.57 231.949 364.012 231.949C364.604 231.949 365.051 231.856 365.353 231.671C365.667 231.485 365.824 231.218 365.824 230.869C365.824 230.59 365.731 230.375 365.545 230.224C365.359 230.073 365.034 229.94 364.569 229.824L362.653 229.423C361.747 229.214 361.09 228.906 360.684 228.499C360.277 228.093 360.074 227.541 360.074 226.844C360.074 225.915 360.411 225.2 361.084 224.701C361.758 224.19 362.722 223.934 363.977 223.934C365.185 223.934 366.108 224.184 366.747 224.684C367.386 225.183 367.787 225.973 367.95 227.053H365.841V226.914C365.841 226.658 365.777 226.432 365.65 226.234C365.522 226.037 365.319 225.88 365.04 225.764C364.773 225.636 364.418 225.572 363.977 225.572C363.408 225.572 362.972 225.665 362.67 225.851C362.368 226.037 362.217 226.304 362.217 226.652C362.217 226.931 362.31 227.146 362.496 227.297C362.682 227.448 362.995 227.582 363.437 227.698L365.353 228.099C366.271 228.308 366.939 228.616 367.357 229.022C367.775 229.429 367.984 229.975 367.984 230.66C367.984 231.601 367.642 232.327 366.956 232.838C366.271 233.337 365.289 233.587 364.012 233.587ZM371.752 233.413C371.299 233.413 370.956 233.297 370.724 233.064C370.503 232.821 370.393 232.478 370.393 232.036V224.109L371.125 222.244H372.536V231.845H374.453V233.413H371.752ZM368.894 224.109H374.453V225.677H368.894V224.109ZM379.83 233.587C378.901 233.587 378.105 233.401 377.443 233.03C376.781 232.658 376.275 232.112 375.927 231.392C375.59 230.672 375.422 229.795 375.422 228.761C375.422 227.727 375.59 226.85 375.927 226.13C376.275 225.41 376.781 224.864 377.443 224.492C378.105 224.12 378.901 223.934 379.83 223.934C380.748 223.934 381.537 224.12 382.2 224.492C382.862 224.864 383.361 225.41 383.698 226.13C384.046 226.85 384.221 227.727 384.221 228.761C384.221 229.795 384.046 230.672 383.698 231.392C383.361 232.112 382.862 232.658 382.2 233.03C381.537 233.401 380.748 233.587 379.83 233.587ZM379.83 231.897C380.562 231.897 381.096 231.694 381.433 231.287C381.781 230.881 381.956 230.236 381.956 229.353V228.168C381.956 227.286 381.781 226.641 381.433 226.234C381.096 225.828 380.562 225.624 379.83 225.624C379.086 225.624 378.54 225.828 378.192 226.234C377.855 226.641 377.687 227.286 377.687 228.168V229.353C377.687 230.236 377.855 230.881 378.192 231.287C378.54 231.694 379.086 231.897 379.83 231.897ZM386.312 225.677H385.249V224.109H388.159V225.886H388.681C388.879 225.235 389.169 224.759 389.553 224.457C389.936 224.143 390.447 223.987 391.086 223.987H392.218V225.677H390.197C389.593 225.677 389.152 225.845 388.873 226.182C388.594 226.519 388.455 227.042 388.455 227.75V233.413H386.312V225.677ZM394.105 234.145H396.893L397.242 232.96H395.412L393.008 224.109H395.238L397.172 231.392H397.695L399.629 224.109H401.754L398.967 234.336C398.827 234.813 398.641 235.161 398.409 235.382C398.177 235.603 397.846 235.713 397.416 235.713H394.105V234.145Z" fill="white"/>
<path fill-rule="evenodd" clip-rule="evenodd" d="M63.162 262.043C62.3198 262.043 61.6374 262.726 61.6374 263.568V265.637C61.6374 266.058 61.2961 266.399 60.8751 266.399H57.9348C57.5744 266.399 57.2814 266.692 57.2814 267.053V268.359H58.5882C60.2725 268.359 61.6374 269.724 61.6374 271.409C61.6374 273.093 60.2725 274.458 58.5882 274.458H57.2814V275.765C57.2814 276.125 57.5744 276.418 57.9348 276.418H68.3892C68.7497 276.418 69.0426 276.125 69.0426 275.765V267.053C69.0426 266.692 68.7497 266.399 68.3892 266.399H65.4489C65.0279 266.399 64.6866 266.058 64.6866 265.637V263.568C64.6866 262.726 64.0043 262.043 63.162 262.043ZM60.1128 263.568C60.1128 261.884 61.4778 260.519 63.162 260.519C64.8463 260.519 66.2112 261.884 66.2112 263.568V264.875H68.3892C69.5917 264.875 70.5672 265.85 70.5672 267.053V275.765C70.5672 276.967 69.5917 277.943 68.3892 277.943H57.9348C56.7324 277.943 55.7568 276.967 55.7568 275.765V273.696C55.7568 273.275 56.0981 272.933 56.5191 272.933H58.5882C59.4305 272.933 60.1128 272.251 60.1128 271.409C60.1128 270.566 59.4305 269.884 58.5882 269.884H56.5191C56.0981 269.884 55.7568 269.543 55.7568 269.122V267.053C55.7568 265.85 56.7324 264.875 57.9348 264.875H60.1128V263.568Z" fill="#C7A8FF"/>
<path d="M87.2072 263.208H91.1798L94.3336 275.231H92.0336L89.4026 265.055H88.8799L86.2489 275.231H84.0534L87.2072 263.208ZM86.214 270.857H91.9814L92.0859 272.408H86.1443L86.214 270.857ZM85.5693 263.208H88.6011V264.846H85.5693V263.208ZM98.7423 275.405C98.0337 275.405 97.4122 275.213 96.8779 274.83C96.3436 274.447 95.9312 273.895 95.6408 273.175C95.3504 272.443 95.2052 271.577 95.2052 270.578C95.2052 269.568 95.3446 268.702 95.6234 267.982C95.9138 267.262 96.3261 266.71 96.8605 266.327C97.3948 265.944 98.0221 265.752 98.7423 265.752C99.3928 265.752 99.9213 265.909 100.328 266.222C100.746 266.524 101.048 266.983 101.234 267.599H101.757C101.64 266.553 101.582 265.822 101.582 265.403V264.776H100.415V263.208H103.726V273.662H104.788V275.231H103.238C102.796 275.231 102.459 275.114 102.227 274.882C101.995 274.638 101.879 274.296 101.879 273.854V273.418H101.373C101.164 274.069 100.839 274.563 100.398 274.9C99.9561 275.236 99.4044 275.405 98.7423 275.405ZM99.5264 273.715C100.235 273.715 100.752 273.511 101.077 273.105C101.414 272.698 101.582 272.059 101.582 271.188V269.969C101.582 269.097 101.414 268.458 101.077 268.052C100.752 267.645 100.235 267.442 99.5264 267.442C98.8178 267.442 98.2951 267.645 97.9582 268.052C97.6329 268.458 97.4703 269.097 97.4703 269.969V271.188C97.4703 272.059 97.6329 272.698 97.9582 273.105C98.2951 273.511 98.8178 273.715 99.5264 273.715ZM109.309 275.405C108.6 275.405 107.979 275.213 107.445 274.83C106.91 274.447 106.498 273.895 106.207 273.175C105.917 272.443 105.772 271.577 105.772 270.578C105.772 269.568 105.911 268.702 106.19 267.982C106.48 267.262 106.893 266.71 107.427 266.327C107.962 265.944 108.589 265.752 109.309 265.752C109.959 265.752 110.488 265.909 110.895 266.222C111.313 266.524 111.615 266.983 111.801 267.599H112.323C112.207 266.553 112.149 265.822 112.149 265.403V264.776H110.982V263.208H114.292V273.662H115.355V275.231H113.804C113.363 275.231 113.026 275.114 112.794 274.882C112.561 274.638 112.445 274.296 112.445 273.854V273.418H111.94C111.731 274.069 111.406 274.563 110.964 274.9C110.523 275.236 109.971 275.405 109.309 275.405ZM110.093 273.715C110.802 273.715 111.319 273.511 111.644 273.105C111.981 272.698 112.149 272.059 112.149 271.188V269.969C112.149 269.097 111.981 268.458 111.644 268.052C111.319 267.645 110.802 267.442 110.093 267.442C109.384 267.442 108.862 267.645 108.525 268.052C108.2 268.458 108.037 269.097 108.037 269.969V271.188C108.037 272.059 108.2 272.698 108.525 273.105C108.862 273.511 109.384 273.715 110.093 273.715ZM116.141 269.498H120.062V271.066H116.141V269.498ZM126.14 275.405C125.211 275.405 124.415 275.219 123.753 274.847C123.091 274.476 122.586 273.93 122.237 273.209C121.901 272.489 121.732 271.612 121.732 270.578C121.732 269.545 121.901 268.668 122.237 267.947C122.586 267.227 123.091 266.681 123.753 266.31C124.415 265.938 125.211 265.752 126.14 265.752C127.058 265.752 127.848 265.938 128.51 266.31C129.172 266.681 129.672 267.227 130.009 267.947C130.357 268.668 130.531 269.545 130.531 270.578C130.531 271.612 130.357 272.489 130.009 273.209C129.672 273.93 129.172 274.476 128.51 274.847C127.848 275.219 127.058 275.405 126.14 275.405ZM126.14 273.715C126.872 273.715 127.407 273.511 127.743 273.105C128.092 272.698 128.266 272.054 128.266 271.171V269.986C128.266 269.103 128.092 268.458 127.743 268.052C127.407 267.645 126.872 267.442 126.14 267.442C125.397 267.442 124.851 267.645 124.503 268.052C124.166 268.458 123.997 269.103 123.997 269.986V271.171C123.997 272.054 124.166 272.698 124.503 273.105C124.851 273.511 125.397 273.715 126.14 273.715ZM132.622 267.494H131.559V265.926H134.469V267.686H134.992C135.178 267.024 135.474 266.536 135.881 266.222C136.299 265.909 136.839 265.752 137.501 265.752C138.442 265.752 139.156 266.037 139.644 266.606C140.132 267.175 140.376 268.005 140.376 269.097V273.662H141.456V275.231H138.233V269.516C138.233 268.795 138.093 268.273 137.815 267.947C137.536 267.61 137.1 267.442 136.508 267.442C135.904 267.442 135.462 267.61 135.184 267.947C134.905 268.273 134.765 268.795 134.765 269.516V275.231H132.622V267.494ZM146.344 275.405C145.125 275.405 144.19 275.155 143.539 274.656C142.9 274.156 142.494 273.366 142.319 272.286H144.463V272.425C144.463 272.681 144.521 272.907 144.637 273.105C144.765 273.302 144.968 273.465 145.247 273.593C145.537 273.709 145.903 273.767 146.344 273.767C146.937 273.767 147.384 273.674 147.686 273.488C148 273.302 148.156 273.035 148.156 272.687C148.156 272.408 148.064 272.193 147.878 272.042C147.692 271.891 147.367 271.757 146.902 271.641L144.985 271.24C144.079 271.031 143.423 270.724 143.016 270.317C142.61 269.91 142.407 269.359 142.407 268.662C142.407 267.732 142.743 267.018 143.417 266.519C144.091 266.007 145.055 265.752 146.31 265.752C147.518 265.752 148.441 266.002 149.08 266.501C149.719 267.001 150.12 267.791 150.282 268.871H148.174V268.731C148.174 268.476 148.11 268.249 147.982 268.052C147.854 267.854 147.651 267.698 147.372 267.581C147.105 267.454 146.751 267.39 146.31 267.39C145.74 267.39 145.305 267.483 145.003 267.669C144.701 267.854 144.55 268.122 144.55 268.47C144.55 268.749 144.643 268.964 144.828 269.115C145.014 269.266 145.328 269.399 145.769 269.516L147.686 269.916C148.604 270.125 149.272 270.433 149.69 270.84C150.108 271.246 150.317 271.792 150.317 272.478C150.317 273.418 149.974 274.144 149.289 274.656C148.604 275.155 147.622 275.405 146.344 275.405Z" fill="white"/>
<path fill-rule="evenodd" clip-rule="evenodd" d="M238.926 269.231C238.926 267.427 240.39 265.964 242.193 265.964C243.997 265.964 245.46 267.427 245.46 269.231C245.46 271.034 243.997 272.498 242.193 272.498C240.39 272.498 238.926 271.034 238.926 269.231ZM243.936 269.231C243.936 268.272 243.152 267.488 242.193 267.488C241.235 267.488 240.451 268.272 240.451 269.231C240.451 270.189 241.235 270.973 242.193 270.973C243.152 270.973 243.936 270.189 243.936 269.231Z" fill="#C7A8FF"/>
<path fill-rule="evenodd" clip-rule="evenodd" d="M239.745 276.601C239.972 277.394 240.704 277.943 241.531 277.943H242.856L242.899 277.96C243.718 277.96 244.45 277.411 244.685 276.627L245.129 275.129C245.373 274.998 245.626 274.85 245.887 274.667L247.395 275.042C248.196 275.251 249.041 274.885 249.451 274.17L250.113 273.029C250.522 272.315 250.418 271.409 249.851 270.816L248.762 269.666C248.78 269.527 248.788 269.387 248.788 269.239C248.788 269.083 248.771 268.934 248.754 268.786L249.825 267.671C250.391 267.079 250.505 266.164 250.095 265.45L249.433 264.308C249.024 263.603 248.179 263.237 247.386 263.428L245.844 263.794C245.591 263.62 245.347 263.472 245.103 263.35L244.659 261.852C244.424 261.068 243.692 260.519 242.873 260.519H241.557C240.73 260.519 239.998 261.068 239.772 261.86L239.345 263.333C239.092 263.455 238.839 263.611 238.578 263.786L237.036 263.42C236.234 263.228 235.398 263.594 234.989 264.3L234.327 265.441C233.908 266.155 234.022 267.07 234.597 267.663L235.668 268.778C235.642 268.926 235.633 269.074 235.633 269.231C235.633 269.379 235.642 269.518 235.659 269.658L234.57 270.808C234.004 271.4 233.9 272.315 234.309 273.02L234.971 274.162C235.381 274.876 236.226 275.233 237.027 275.033L238.534 274.658C238.796 274.841 239.057 274.998 239.318 275.129L239.745 276.601ZM239.162 273.221C239.031 273.116 238.865 273.064 238.7 273.064L238.709 273.081C238.648 273.081 238.587 273.09 238.526 273.108L236.67 273.569C236.531 273.604 236.374 273.543 236.304 273.412L235.642 272.271C235.564 272.14 235.581 271.975 235.686 271.87L237.027 270.459C237.184 270.294 237.254 270.067 237.228 269.841L237.201 269.649C237.2 269.641 237.2 269.633 237.199 269.626C237.182 269.495 237.167 269.371 237.167 269.239C237.167 269.128 237.181 269.017 237.196 268.906C237.201 268.869 237.206 268.832 237.21 268.795L237.236 268.621C237.262 268.386 237.184 268.159 237.027 267.994L235.694 266.617C235.59 266.504 235.572 266.347 235.642 266.216L236.304 265.075C236.374 264.944 236.522 264.883 236.67 264.918L238.552 265.371C238.77 265.424 239.005 265.38 239.188 265.241C239.562 264.953 239.911 264.753 240.259 264.605C240.468 264.509 240.634 264.335 240.695 264.108L241.218 262.296C241.261 262.148 241.392 262.052 241.54 262.052H242.856C243.004 262.052 243.134 262.148 243.178 262.287L243.718 264.117C243.788 264.335 243.945 264.517 244.154 264.605C244.493 264.744 244.824 264.944 245.208 265.232C245.391 265.363 245.626 265.415 245.844 265.363L247.726 264.91C247.874 264.875 248.022 264.936 248.091 265.066L248.754 266.208C248.823 266.338 248.806 266.504 248.701 266.608L247.368 267.985C247.203 268.15 247.133 268.386 247.159 268.612L247.185 268.786C247.19 268.825 247.195 268.862 247.2 268.9C247.215 269.007 247.229 269.114 247.229 269.231C247.229 269.37 247.212 269.509 247.194 269.64L247.168 269.832C247.133 270.058 247.212 270.285 247.368 270.45L248.71 271.862C248.806 271.975 248.832 272.132 248.754 272.262L248.091 273.404C248.022 273.534 247.865 273.595 247.726 273.561L245.87 273.099C245.643 273.038 245.408 273.09 245.225 273.229C244.833 273.526 244.493 273.735 244.154 273.874C243.945 273.961 243.779 274.144 243.718 274.362L243.178 276.192C243.134 276.331 243.004 276.427 242.856 276.427H241.531C241.383 276.427 241.253 276.322 241.209 276.183L240.686 274.371C240.625 274.144 240.468 273.961 240.251 273.874C239.902 273.726 239.545 273.508 239.162 273.221Z" fill="#C7A8FF"/>
<path d="M268.539 275.405C267.54 275.405 266.703 275.254 266.03 274.952C265.368 274.65 264.857 274.185 264.496 273.558C264.136 272.919 263.91 272.088 263.817 271.066H266.012V271.467C266.012 272.187 266.216 272.733 266.622 273.105C267.04 273.465 267.679 273.645 268.539 273.645C269.317 273.645 269.915 273.511 270.333 273.244C270.752 272.977 270.961 272.594 270.961 272.094V271.85C270.961 271.479 270.833 271.182 270.577 270.962C270.333 270.729 269.915 270.549 269.323 270.422L266.936 269.881C265.879 269.637 265.106 269.26 264.618 268.749C264.142 268.226 263.904 267.518 263.904 266.623C263.904 265.462 264.293 264.573 265.071 263.957C265.861 263.342 267 263.034 268.487 263.034C269.474 263.034 270.299 263.185 270.961 263.487C271.623 263.789 272.134 264.259 272.494 264.898C272.854 265.525 273.081 266.35 273.174 267.372H270.978V266.972C270.978 266.263 270.775 265.723 270.368 265.351C269.962 264.979 269.335 264.794 268.487 264.794C267.72 264.794 267.133 264.927 266.727 265.194C266.32 265.462 266.117 265.845 266.117 266.344V266.588C266.117 266.972 266.239 267.274 266.483 267.494C266.727 267.715 267.139 267.889 267.72 268.017L270.124 268.557C271.193 268.813 271.966 269.196 272.442 269.707C272.93 270.218 273.174 270.921 273.174 271.815C273.174 272.977 272.773 273.866 271.971 274.481C271.181 275.097 270.037 275.405 268.539 275.405ZM278.96 275.405C278.042 275.405 277.258 275.219 276.608 274.847C275.957 274.476 275.458 273.93 275.109 273.209C274.772 272.489 274.604 271.612 274.604 270.578C274.604 269.545 274.772 268.668 275.109 267.947C275.458 267.227 275.957 266.681 276.608 266.31C277.258 265.938 278.042 265.752 278.96 265.752C279.854 265.752 280.615 265.926 281.243 266.275C281.87 266.612 282.346 267.117 282.671 267.791C283.008 268.453 283.177 269.266 283.177 270.23V270.979H275.998V269.585H282.41L281.051 270.456V269.934C281.051 269.051 280.882 268.406 280.546 268C280.209 267.593 279.68 267.39 278.96 267.39C278.24 267.39 277.711 267.593 277.374 268C277.038 268.406 276.869 269.051 276.869 269.934V271.171C276.869 272.054 277.038 272.698 277.374 273.105C277.711 273.511 278.24 273.715 278.96 273.715C279.401 273.715 279.762 273.645 280.04 273.506C280.319 273.366 280.522 273.198 280.65 273C280.778 272.803 280.842 272.605 280.842 272.408V272.286H283.037C282.828 273.297 282.375 274.069 281.678 274.603C280.993 275.138 280.087 275.405 278.96 275.405ZM286.912 275.231C286.459 275.231 286.116 275.114 285.884 274.882C285.663 274.638 285.553 274.296 285.553 273.854V265.926L286.285 264.062H287.696V273.662H289.613V275.231H286.912ZM284.054 265.926H289.613V267.494H284.054V265.926ZM293.276 275.231C292.823 275.231 292.48 275.114 292.248 274.882C292.027 274.638 291.917 274.296 291.917 273.854V265.926L292.649 264.062H294.06V273.662H295.977V275.231H293.276ZM290.418 265.926H295.977V267.494H290.418V265.926ZM297.95 267.494H296.8V265.926H300.093V275.231H297.95V267.494ZM297.81 263.208H300.18V265.055H297.81V263.208ZM302.697 267.494H301.634V265.926H304.544V267.686H305.067C305.252 267.024 305.549 266.536 305.955 266.222C306.373 265.909 306.914 265.752 307.576 265.752C308.517 265.752 309.231 266.037 309.719 266.606C310.207 267.175 310.451 268.005 310.451 269.097V273.662H311.531V275.231H308.307V269.516C308.307 268.795 308.168 268.273 307.889 267.947C307.611 267.61 307.175 267.442 306.582 267.442C305.978 267.442 305.537 267.61 305.258 267.947C304.979 268.273 304.84 268.795 304.84 269.516V275.231H302.697V267.494ZM312.621 275.962H317.97C318.249 275.962 318.446 275.916 318.562 275.823C318.678 275.742 318.736 275.596 318.736 275.387C318.736 275.178 318.673 275.027 318.545 274.934C318.429 274.841 318.237 274.795 317.97 274.795H314.537C313.887 274.795 313.405 274.69 313.091 274.481C312.777 274.261 312.621 273.935 312.621 273.506C312.621 273.099 312.754 272.785 313.021 272.565C313.3 272.344 313.707 272.222 314.241 272.199V271.746C313.672 271.56 313.248 271.24 312.969 270.787C312.69 270.323 312.551 269.742 312.551 269.045C312.551 267.988 312.888 267.175 313.561 266.606C314.247 266.037 315.205 265.752 316.436 265.752C317.656 265.752 318.603 266.037 319.277 266.606C319.962 267.175 320.305 267.988 320.305 269.045C320.305 270.067 319.968 270.851 319.294 271.397C318.632 271.943 317.703 272.216 316.506 272.216H315.199C314.967 272.216 314.799 272.251 314.694 272.321C314.601 272.39 314.555 272.507 314.555 272.669C314.555 272.82 314.601 272.936 314.694 273.018C314.799 273.087 314.967 273.122 315.199 273.122H318.371C319.184 273.122 319.799 273.302 320.217 273.662C320.647 274.023 320.862 274.545 320.862 275.231C320.862 275.986 320.618 276.555 320.13 276.938C319.654 277.333 318.951 277.531 318.022 277.531H312.621V275.962ZM316.436 270.718C317.029 270.718 317.47 270.602 317.761 270.369C318.063 270.125 318.214 269.748 318.214 269.237V268.819C318.214 268.319 318.063 267.953 317.761 267.721C317.47 267.477 317.029 267.355 316.436 267.355C315.832 267.355 315.379 267.477 315.077 267.721C314.787 267.953 314.642 268.319 314.642 268.819V269.237C314.642 269.748 314.787 270.125 315.077 270.369C315.379 270.602 315.832 270.718 316.436 270.718ZM317.761 266.379C317.761 265.682 317.894 265.171 318.161 264.846C318.429 264.521 318.847 264.358 319.416 264.358H320.758V265.926H318.824C318.591 265.926 318.417 265.99 318.301 266.118C318.185 266.246 318.127 266.455 318.127 266.745L317.761 266.379ZM325.88 275.405C324.66 275.405 323.725 275.155 323.074 274.656C322.436 274.156 322.029 273.366 321.855 272.286H323.998V272.425C323.998 272.681 324.056 272.907 324.172 273.105C324.3 273.302 324.503 273.465 324.782 273.593C325.072 273.709 325.438 273.767 325.88 273.767C326.472 273.767 326.919 273.674 327.221 273.488C327.535 273.302 327.692 273.035 327.692 272.687C327.692 272.408 327.599 272.193 327.413 272.042C327.227 271.891 326.902 271.757 326.437 271.641L324.521 271.24C323.615 271.031 322.958 270.724 322.552 270.317C322.145 269.91 321.942 269.359 321.942 268.662C321.942 267.732 322.279 267.018 322.952 266.519C323.626 266.007 324.59 265.752 325.845 265.752C327.053 265.752 327.976 266.002 328.615 266.501C329.254 267.001 329.655 267.791 329.818 268.871H327.709V268.731C327.709 268.476 327.645 268.249 327.518 268.052C327.39 267.854 327.187 267.698 326.908 267.581C326.641 267.454 326.286 267.39 325.845 267.39C325.276 267.39 324.84 267.483 324.538 267.669C324.236 267.854 324.085 268.122 324.085 268.47C324.085 268.749 324.178 268.964 324.364 269.115C324.55 269.266 324.863 269.399 325.305 269.516L327.221 269.916C328.139 270.125 328.807 270.433 329.225 270.84C329.643 271.246 329.852 271.792 329.852 272.478C329.852 273.418 329.51 274.144 328.824 274.656C328.139 275.155 327.157 275.405 325.88 275.405Z" fill="white"/>
<path d="M463.139 267.037C463.139 267.037 462.787 268.224 464.105 267.312C476.617 258.678 482.241 249.045 486.92 235.216C489.721 226.912 492.346 214.521 491.786 199.605C491.544 193.014 490.457 186.929 490.457 186.929C490.457 186.929 489.919 189.115 489.04 191.817C488.348 193.948 487.612 195.013 487.612 195.013C487.612 195.013 487.337 191.52 486.063 187.017C481.57 171.101 476.77 162.599 462.655 152.449C449.255 142.816 442.049 144.672 431.965 137.236C420.102 128.492 421.805 113.4 421.805 113.4C421.805 113.4 402.198 132.963 396.717 162.225C393.652 178.592 397.123 196.222 414.478 211.094C432.383 226.439 463.15 237.61 463.15 243.652V267.026L463.139 267.037Z" fill="url(#paint0_linear_11751_2222)"/>
<path d="M479.891 186.413C475.255 175.341 473.091 172.408 465.995 163.346C461.206 157.238 457.219 154.987 457.219 154.987L461.316 163.642L464.633 171.935C465.765 172.561 460.481 166.553 452.847 160.061C447.476 155.492 440.062 153.108 440.062 153.108C440.062 153.108 447.586 162.225 453.034 171.551C458.482 180.877 463.843 201.516 464.139 207.865C464.655 219.311 473.047 212.819 478.77 213.061C484.493 213.302 485.778 204.218 479.913 186.413H479.891Z" fill="url(#paint1_linear_11751_2222)"/>
<path d="M147.425 57.7473C146.074 54.5509 143.097 55.2758 138.703 50.7942C137.056 49.1136 135.748 46.8619 134.617 44.3135C132.794 40.1944 131.475 35.3064 130.026 30.8138C129.213 28.2874 129.202 26.1564 128.389 20.1261C127.236 11.5473 125.939 2.74891 122.71 1.45276C118.876 -0.096028 114.285 1.40882 108.452 8.28499C101.664 16.2816 98.8521 25.2118 96.139 25.1459C94.2168 25.102 91.8441 25.3436 91.1082 25.3107C90.9764 25.3107 90.8995 25.2887 90.8775 25.2667C90.7567 25.1129 90.6578 24.9152 90.57 24.6516C90.1635 23.4104 90.1086 20.7741 90.537 15.0184C91.3279 4.34164 89.4825 0.595984 85.9016 0.0467692C82.0462 -0.557367 73.6981 4.79199 69.3922 10.2732C63.8012 17.38 58.331 27.9579 56.277 35.7457C55.7937 37.6021 55.2994 39.6452 54.5085 41.5894C53.9812 42.8855 53.3332 44.1487 52.4544 45.2691C47.7532 51.2556 35.7913 54.5069 37.6366 58.7469C38.8669 61.5698 42.7553 59.9442 41.6898 60.8668C57.5951 59.6696 72.2591 70.8626 84.9131 80.2431C85.5501 80.7155 86.1653 81.1109 86.7694 81.4514C86.7914 81.3745 86.8243 81.3416 86.8683 81.3526C88.2852 81.748 89.4276 81.8249 90.537 81.7809C98.1052 81.5393 104.289 71.225 114.12 71.2141C119.525 71.2141 123.094 74.8059 124.962 78.1232C129.531 75.2673 135.715 62.163 145.25 61.1964C145.239 61.1744 145.217 61.1524 145.206 61.1305C144.81 60.2957 148.479 60.2407 147.425 57.7363V57.7473Z" fill="url(#paint2_linear_11751_2222)"/>
<path d="M109.309 33.7577C118.009 36.2841 124.698 44.1269 124.698 44.1269L134.661 47.9275L134.628 44.3027C132.805 40.1836 131.486 35.2955 130.037 30.803C129.224 28.2766 129.213 26.1456 128.4 20.1152C127.247 11.5365 125.95 2.73808 122.721 1.44193C118.887 -0.106852 114.296 1.398 108.463 8.27417C101.675 16.2707 98.8631 25.201 96.1499 25.1351C94.2277 25.0911 91.8551 25.3328 91.1191 25.2998C91.9649 26.3433 95.6447 29.7814 109.331 33.7468L109.309 33.7577Z" fill="url(#paint3_linear_11751_2222)"/>
<path d="M90.559 24.6516C90.1526 23.4104 90.0977 20.7741 90.526 15.0184C91.3169 4.34164 89.4716 0.595984 85.8907 0.0467692C82.0352 -0.557367 73.6871 4.79199 69.3813 10.2732C63.7903 17.38 58.3201 27.9579 56.266 35.7457C55.7827 37.6021 55.2884 39.6452 54.4976 41.5894C59.1769 38.5907 66.9318 34.0102 75.5215 30.5502C81.5848 28.1007 87.6372 25.772 90.548 24.6516H90.559Z" fill="url(#paint4_linear_11751_2222)"/>
<path d="M86.77 81.4516C86.1659 81.1111 85.5508 80.7047 84.9137 80.2433C72.2598 70.8627 57.5957 59.6697 41.6904 60.867C41.6136 60.9329 41.5147 61.0098 41.3829 61.1087C40.3394 61.8666 36.0885 64.2831 37.088 67.0512C38.1535 69.995 42.7889 67.4246 43.1623 68.8196C43.5688 70.3465 40.0648 71.5767 40.7787 73.8724C41.7014 76.8272 45.2054 74.0591 47.1057 75.6409C47.8526 76.267 45.9963 77.8048 45.9963 77.8048H59.0456C62.8791 77.8048 65.4934 79.0021 70.1068 80.5728C76.1152 82.6269 84.8038 84.9776 89.6479 89.1077C91.6031 90.7773 93.5363 92.0624 95.4366 93.062C88.4506 88.7561 86.5503 82.2974 86.77 81.4406V81.4516Z" fill="url(#paint5_linear_11751_2222)"/>
<path d="M124.973 78.1343C125.555 79.1669 125.973 80.1664 126.225 81.0342C126.698 82.6379 126.687 84.5492 126.148 86.4604C126.467 85.7794 126.939 84.7579 127.675 83.253C128.268 82.0228 131.036 79.7051 133.585 78.4968C134.87 77.8927 136.452 77.8158 136.452 77.8158H140.823C140.823 77.8158 142.164 76.7064 143.009 76.3988C146.008 75.2894 148.842 75.6848 149.314 73.3781C149.831 70.8408 145.657 69.8851 145.744 68.2155C145.81 66.9853 150.786 68.0727 150.797 65.3816C150.808 62.1522 146.041 62.5366 145.239 61.2295C135.705 62.2071 129.521 75.3004 124.951 78.1563L124.973 78.1343Z" fill="url(#paint6_linear_11751_2222)"/>
<path d="M126.225 81.0342C125.972 80.1775 125.544 79.1669 124.973 78.1344C123.105 74.8061 119.525 71.2143 114.131 71.2252C104.311 71.2362 98.1271 81.5505 90.548 81.7922C89.4385 81.8251 88.2962 81.7482 86.8792 81.3638C86.8353 81.3528 86.8023 81.3857 86.7804 81.4626C86.5607 82.3194 88.461 88.7891 95.447 93.084C97.6988 94.468 100.467 95.6324 103.883 96.3024C117.372 98.9716 124.457 92.6336 126.159 86.4715C126.686 84.5492 126.708 82.6489 126.236 81.0452L126.225 81.0342Z" fill="#FFC635"/>
<path d="M117.756 85.3182C120.513 84.703 122.271 85.5379 122.952 86.5374C123.787 87.7677 123.237 90.8543 119.843 91.6232C116.625 92.3481 114.186 90.1293 114.274 88.5366C114.34 87.4052 115.307 85.8674 117.745 85.3182H117.756Z" fill="#00073A"/>
<path d="M97.71 62.8994C97.8418 66.9416 95.5351 69.1165 93.7227 69.2813C90.4493 69.5779 88.8237 68.2927 87.8461 62.6468C86.7806 56.4626 88.7688 54.3316 91.9762 54.0131C95.2715 53.6836 97.5342 57.3963 97.7209 62.9104L97.71 62.8994Z" fill="url(#paint7_linear_11751_2222)"/>
<path d="M94.6786 67.2046C95.4957 66.9965 95.9797 66.1272 95.7596 65.263C95.5394 64.3989 94.6986 63.867 93.8814 64.0752C93.0643 64.2833 92.5803 65.1526 92.8004 66.0168C93.0205 66.8809 93.8614 67.4128 94.6786 67.2046Z" fill="white"/>
<path d="M125.664 58.6811C126.488 63.7559 124.697 65.4474 122.72 66.1285C120.512 66.8864 117.964 65.6671 117.261 61.9874C116.086 55.7593 116.25 51.783 120.26 51.761C122.885 51.75 124.917 54.1117 125.653 58.6811H125.664Z" fill="url(#paint8_linear_11751_2222)"/>
<path d="M122.384 64.9215C123.171 64.7746 123.679 63.9593 123.519 63.1006C123.358 62.2419 122.59 61.6648 121.803 61.8117C121.016 61.9586 120.508 62.7738 120.668 63.6325C120.828 64.4913 121.596 65.0684 122.384 64.9215Z" fill="white"/>
<path opacity="0.6" d="M86.77 81.4516C86.1659 81.1111 85.5508 80.7047 84.9137 80.2433C72.2598 70.8627 57.5957 59.6697 41.6904 60.867C41.6136 60.9329 41.5147 61.0098 41.3829 61.1087C40.3394 61.8666 36.0885 64.2831 37.088 67.0512C38.1535 69.995 42.7889 67.4246 43.1623 68.8196C43.5688 70.3465 40.0648 71.5767 40.7787 73.8724C41.7014 76.8272 45.2054 74.0591 47.1057 75.6409C47.8526 76.267 45.9963 77.8048 45.9963 77.8048H59.0456C62.8791 77.8048 65.4934 79.0021 70.1068 80.5728C76.1152 82.6269 84.8038 84.9776 89.6479 89.1077C91.6031 90.7773 93.5363 92.0624 95.4366 93.062C88.4506 88.7561 86.5503 82.2974 86.77 81.4406V81.4516Z" fill="url(#paint9_linear_11751_2222)"/>
<path opacity="0.6" d="M124.973 78.1343C125.555 79.1669 125.973 80.1664 126.225 81.0342C126.698 82.6379 126.687 84.5492 126.148 86.4604C126.467 85.7794 126.939 84.7579 127.675 83.253C128.268 82.0228 131.036 79.7051 133.585 78.4968C134.87 77.8927 136.452 77.8158 136.452 77.8158H140.823C140.823 77.8158 142.164 76.7064 143.009 76.3988C146.008 75.2894 148.842 75.6848 149.314 73.3781C149.831 70.8408 145.657 69.8851 145.744 68.2155C145.81 66.9853 150.786 68.0727 150.797 65.3816C150.808 62.1522 146.041 62.5366 145.239 61.2295C135.705 62.2071 129.521 75.3004 124.951 78.1563L124.973 78.1343Z" fill="url(#paint10_linear_11751_2222)"/>
<defs>
<linearGradient id="paint0_linear_11751_2222" x1="430.713" y1="111.829" x2="458.339" y2="268.542" gradientUnits="userSpaceOnUse">
<stop stop-color="#FFEB49"/>
<stop offset="0.32" stop-color="#FF9B1D"/>
<stop offset="0.56" stop-color="#FF6600"/>
<stop offset="0.74" stop-color="#FD4835"/>
<stop offset="0.91" stop-color="#FB3161"/>
<stop offset="1" stop-color="#FB2872"/>
</linearGradient>
<linearGradient id="paint1_linear_11751_2222" x1="437.335" y1="154.198" x2="474.093" y2="198.216" gradientUnits="userSpaceOnUse">
<stop stop-color="#FFC635"/>
<stop offset="0.09" stop-color="#FFC132" stop-opacity="0.96"/>
<stop offset="0.24" stop-color="#FFB62C" stop-opacity="0.84"/>
<stop offset="0.44" stop-color="#FFA422" stop-opacity="0.66"/>
<stop offset="0.67" stop-color="#FF8C15" stop-opacity="0.4"/>
<stop offset="0.94" stop-color="#FF6C03" stop-opacity="0.07"/>
<stop offset="1" stop-color="#FF6600" stop-opacity="0"/>
</linearGradient>
<linearGradient id="paint2_linear_11751_2222" x1="114.922" y1="2.74891" x2="28.7942" y2="215.91" gradientUnits="userSpaceOnUse">
<stop stop-color="#FF6600"/>
<stop offset="0.33" stop-color="#FFB029"/>
<stop offset="0.46" stop-color="#FF9218"/>
<stop offset="0.63" stop-color="#FF6600"/>
<stop offset="0.97" stop-color="#FB2872"/>
</linearGradient>
<linearGradient id="paint3_linear_11751_2222" x1="113.307" y1="31.462" x2="116.35" y2="-4.42368" gradientUnits="userSpaceOnUse">
<stop offset="0.15" stop-color="#FB2872" stop-opacity="0"/>
<stop offset="0.37" stop-color="#E41A63" stop-opacity="0.18"/>
<stop offset="0.64" stop-color="#CF0E54" stop-opacity="0.36"/>
<stop offset="0.85" stop-color="#C2064C" stop-opacity="0.46"/>
<stop offset="1" stop-color="#BE0449" stop-opacity="0.5"/>
</linearGradient>
<linearGradient id="paint4_linear_11751_2222" x1="73.8409" y1="30.4074" x2="67.5139" y2="-0.172915" gradientUnits="userSpaceOnUse">
<stop offset="0.09" stop-color="#FB2872" stop-opacity="0"/>
<stop offset="0.1" stop-color="#F92771" stop-opacity="0.01"/>
<stop offset="0.38" stop-color="#DF175F" stop-opacity="0.22"/>
<stop offset="0.63" stop-color="#CD0D53" stop-opacity="0.37"/>
<stop offset="0.84" stop-color="#C2064B" stop-opacity="0.47"/>
<stop offset="1" stop-color="#BE0449" stop-opacity="0.5"/>
</linearGradient>
<linearGradient id="paint5_linear_11751_2222" x1="95.2466" y1="6.31252" x2="19.5618" y2="196.861" gradientUnits="userSpaceOnUse">
<stop stop-color="#FF6600"/>
<stop offset="0.33" stop-color="#FFB029"/>
<stop offset="0.46" stop-color="#FF9218"/>
<stop offset="0.63" stop-color="#FF6600"/>
<stop offset="1" stop-color="#FB2872"/>
</linearGradient>
<linearGradient id="paint6_linear_11751_2222" x1="155.303" y1="30.1722" x2="79.6184" y2="220.721" gradientUnits="userSpaceOnUse">
<stop stop-color="#FF6600"/>
<stop offset="0.33" stop-color="#FFB029"/>
<stop offset="0.46" stop-color="#FF9218"/>
<stop offset="0.63" stop-color="#FF6600"/>
<stop offset="1" stop-color="#FB2872"/>
</linearGradient>
<linearGradient id="paint7_linear_11751_2222" x1="83.0278" y1="49.1761" x2="78.9371" y2="68.5973" gradientUnits="userSpaceOnUse">
<stop offset="0.15" stop-color="#A030B9"/>
<stop offset="0.88" stop-color="#00073A"/>
</linearGradient>
<linearGradient id="paint8_linear_11751_2222" x1="109.478" y1="48.5165" x2="107.241" y2="64.6905" gradientUnits="userSpaceOnUse">
<stop offset="0.16" stop-color="#A030B9"/>
<stop offset="0.88" stop-color="#00073A"/>
</linearGradient>
<linearGradient id="paint9_linear_11751_2222" x1="64.8768" y1="67.8158" x2="79.7719" y2="206.985" gradientUnits="userSpaceOnUse">
<stop stop-color="#FFEB49"/>
<stop offset="0.36" stop-color="#FFB52B" stop-opacity="0.6"/>
<stop offset="0.67" stop-color="#FF8A14" stop-opacity="0.28"/>
<stop offset="0.89" stop-color="#FF7005" stop-opacity="0.08"/>
<stop offset="1" stop-color="#FF6600" stop-opacity="0"/>
</linearGradient>
<linearGradient id="paint10_linear_11751_2222" x1="136.62" y1="60.133" x2="151.511" y2="199.312" gradientUnits="userSpaceOnUse">
<stop stop-color="#FFEB49"/>
<stop offset="0.36" stop-color="#FFB52B" stop-opacity="0.6"/>
<stop offset="0.67" stop-color="#FF8A14" stop-opacity="0.28"/>
<stop offset="0.89" stop-color="#FF7005" stop-opacity="0.08"/>
<stop offset="1" stop-color="#FF6600" stop-opacity="0"/>
</linearGradient>
</defs>
</svg>
