<svg width="508" height="427" viewBox="0 0 508 427" fill="none" xmlns="http://www.w3.org/2000/svg">
<path d="M355.96 200.228C351.974 181.381 328.614 172.433 328.614 172.433C328.614 172.433 336.642 185.509 328.22 197.556C324.518 202.857 319.908 206.471 310.73 206.832C307.718 206.953 305.002 206.361 305.002 206.361C305.002 206.361 306.787 205.42 308.474 203.853C309.974 202.463 310.642 200.196 310.642 200.196C310.642 200.196 305.265 202.145 301.837 202.791C298.815 203.35 293.328 202.791 288.761 202.145C285.76 201.718 282.803 201.324 279.89 200.94C279.792 200.929 279.693 200.918 279.594 200.907C275.301 200.349 271.096 199.845 266.978 199.385C262.795 198.925 258.699 198.509 254.701 198.148C223.861 195.41 198.64 196.067 181.183 202.123C177.842 203.284 174.787 204.631 172.038 206.197C166.595 209.285 162.302 212.845 159.071 216.689C150.945 226.315 149.587 237.661 153.924 247.43C157.308 255.053 164.142 261.722 173.987 265.884C209.931 281.085 308.726 280.329 337.485 255.545C359.98 236.161 358.83 213.644 355.993 200.228H355.96Z" fill="url(#paint0_linear_11751_2220)"/>
<path d="M295.88 50.5191C288.783 40.6188 282.858 36.72 277.722 27.641C269.552 13.1629 258.962 -1.07426 251.952 2.66026C249.236 4.10588 247.999 10.414 247.473 17.0726C246.794 25.6807 247.287 34.8801 247.287 34.8801C247.287 34.8801 237.836 34.3215 227.716 39.7755C225.34 41.0568 222.92 42.6777 220.576 44.7037C212.921 51.3623 214.114 52.7642 206.207 61.175C199.494 68.3046 194.489 69.794 189.013 70.8016C189.199 71.5791 189.517 72.3458 190.075 73.0795C194.259 78.632 199.395 79.8038 205.671 80.22C211.475 80.2419 219.349 78.8182 228.746 73.7476C235.744 69.9802 242.359 66.8371 249.773 65.2491C272.443 60.4084 283.526 63.902 281.938 67.6913C280.909 70.1554 274.874 69.805 276.232 71.4806C277.185 72.6414 286.527 71.1849 285.103 75.1275C283.679 79.0591 276.309 78.2487 276.714 79.7929C277.098 81.2604 283.329 79.4972 282.42 82.8484C281.631 85.7616 273.034 84.6664 266.431 87.7986C250.102 95.5414 292.463 108.694 300.052 138.089C302.451 147.365 298.957 160.331 294.171 172.148C300.753 160.551 307.039 149.752 309.887 138.417C316.732 111.224 315.724 78.2049 295.88 50.5081V50.5191Z" fill="url(#paint1_linear_11751_2220)"/>
<path d="M247.287 34.88C247.287 34.88 246.783 25.6916 247.473 17.0726C243.103 10.3811 238.23 4.59866 234.211 4.76294C228.801 4.98197 227.87 30.5651 227.705 39.7754C237.825 34.3106 247.276 34.88 247.276 34.88H247.287Z" fill="url(#paint2_linear_11751_2220)"/>
<path d="M247.287 34.88C247.287 34.88 246.783 25.6916 247.473 17.0726C243.103 10.3811 238.23 4.59866 234.211 4.76294C228.801 4.98197 227.87 30.5651 227.705 39.7754C237.825 34.3106 247.276 34.88 247.276 34.88H247.287Z" fill="url(#paint3_linear_11751_2220)"/>
<path fill-rule="evenodd" clip-rule="evenodd" d="M249.762 65.2596C272.421 60.4191 283.515 63.9128 281.927 67.702C280.887 70.166 274.864 69.8268 276.221 71.4911C277.174 72.6629 286.516 71.2069 285.092 75.1385C283.668 79.07 276.299 78.2706 276.703 79.8036C277.087 81.2602 283.317 79.4971 282.409 82.8593C281.62 85.7724 273.023 84.6773 266.419 87.8094C250.091 95.5523 292.452 108.705 300.041 138.099L300.031 138.089C302.418 147.354 298.924 160.332 294.149 172.148C293.207 173.813 292.255 175.489 291.313 177.186C293.196 167.275 294.981 158.634 296.339 153.849C295.693 156.247 291.761 157.047 287.184 166.683C282.88 175.74 281.073 182.191 280.952 180.724C280.821 179.037 280.405 176.354 280.438 173.846C280.493 168.687 281.16 163.485 281.16 163.485C281.16 163.485 278.324 167.899 276.824 172.882C275.379 177.695 273.455 182.958 273.451 182.969C273.451 182.969 271.501 175.313 270.932 174.415C269.267 182.541 267.942 191.193 266.946 199.374C262.762 198.903 258.666 198.487 254.668 198.137C223.828 195.399 198.618 196.067 181.15 202.112C177.82 203.273 174.765 204.62 172.005 206.186C166.564 209.274 162.271 212.843 159.04 216.675C159.043 216.675 159.046 216.677 159.049 216.678C150.923 226.304 149.565 237.639 153.902 247.419C152.599 245.437 151.722 243.137 151.339 240.475C150.003 231.135 150.32 222.539 151.874 214.6C151.871 214.599 151.868 214.599 151.865 214.598C161.524 165.392 219.054 141.714 228.1 122.713C230.882 116.854 234.265 108.07 223.576 101.4C209.975 92.9129 202.976 98.3783 190.82 92.3768C203.721 90.8107 211.737 80.5048 210.368 80.4501C208.726 80.3844 207.16 80.3299 205.659 80.2313C211.464 80.2642 219.338 78.8292 228.735 73.7587C235.733 69.9803 242.348 66.8476 249.762 65.2596Z" fill="url(#paint4_linear_11751_2220)"/>
<path d="M210.391 80.45C208.748 80.3843 207.182 80.3295 205.682 80.2309C199.406 79.8148 194.27 78.6429 190.086 73.0905C189.528 72.3567 189.21 71.5901 189.024 70.8125C187.546 71.0863 186.023 71.3272 184.435 71.6339C184.709 72.4662 184.819 73.5176 184.643 74.8756C184.249 78.172 179.562 78.2049 178.916 78.0516C178.905 78.0516 178.894 78.0516 178.883 78.0406C178.959 79.4862 179.354 80.7457 179.748 81.2275C180.186 81.7532 181.303 87.6233 190.722 92.3216C190.765 92.3435 190.809 92.3654 190.853 92.3873C203.754 90.8212 211.771 80.5157 210.402 80.4609L210.391 80.45Z" fill="#FFC635"/>
<path d="M184.632 74.8646C184.796 73.5066 184.687 72.4553 184.424 71.6229C183.833 71.7324 183.23 71.8529 182.617 71.9953C179.507 72.6852 178.74 75.6203 178.872 78.0296C178.883 78.0296 178.894 78.0297 178.904 78.0406C179.562 78.2049 184.238 78.1611 184.632 74.8646Z" fill="#00073A"/>
<path d="M279.868 200.94C280.055 200.447 280.252 199.955 280.449 199.473C280.098 200.053 279.803 200.535 279.584 200.907C279.682 200.918 279.781 200.929 279.879 200.94H279.868Z" fill="url(#paint5_linear_11751_2220)"/>
<path d="M287.206 166.694C282.901 175.751 281.094 182.202 280.974 180.734C280.843 179.048 280.426 176.365 280.459 173.857C280.514 168.699 281.182 163.497 281.182 163.497C281.182 163.497 278.335 167.91 276.845 172.893C275.4 177.712 273.472 182.98 273.472 182.98C273.472 182.98 271.523 175.324 270.953 174.426C269.3 182.552 267.974 191.204 266.967 199.385C271.085 199.845 275.29 200.349 279.583 200.907C279.813 200.535 280.098 200.053 280.448 199.473C283.602 191.522 287.435 184.195 291.334 177.197C293.218 167.286 295.003 158.645 296.361 153.859C295.715 156.257 291.783 157.057 287.206 166.694Z" fill="url(#paint6_linear_11751_2220)"/>
<path d="M287.206 166.694C282.901 175.751 281.094 182.202 280.974 180.734C280.843 179.048 280.426 176.365 280.459 173.857C280.514 168.699 281.182 163.497 281.182 163.497C281.182 163.497 278.335 167.91 276.845 172.893C275.4 177.712 273.472 182.98 273.472 182.98C273.472 182.98 271.523 175.324 270.953 174.426C269.3 182.552 267.974 191.204 266.967 199.385C271.085 199.845 275.29 200.349 279.583 200.907C279.813 200.535 280.098 200.053 280.448 199.473C283.602 191.522 287.435 184.195 291.334 177.197C293.218 167.286 295.003 158.645 296.361 153.859C295.715 156.257 291.783 157.057 287.206 166.694Z" fill="url(#paint7_linear_11751_2220)"/>
<path d="M341.241 227.18C341.241 227.18 330.257 230.893 320.477 232.7C304.181 235.712 285.629 236.314 273.713 234.332C273.494 234.299 273.275 234.255 273.056 234.222C270.45 233.784 267.789 233.335 265.182 232.985C256.333 231.769 248.24 231.671 245.885 237.223C242.392 245.47 243.377 254.636 262.543 257.451C266.956 258.097 272.334 258.415 278.839 258.294C309.854 258.185 322.58 247.178 322.569 247.255C322.569 247.255 318.572 247.332 313.665 247.211C309.821 247.112 307.193 246.39 306.339 246.116C308.255 245.645 316.491 242.272 323.949 238.384C333.981 233.149 341.263 227.18 341.263 227.18H341.241Z" fill="url(#paint8_linear_11751_2220)"/>
<path d="M227.541 53.465C225.285 52.4246 221.649 54.3521 220.893 60.3974C220.477 63.7815 221.89 65.0957 225.384 64.9971C227.278 64.9424 229.95 65.4024 230.476 60.2113C230.947 55.6225 229.14 54.2207 227.541 53.476V53.465Z" fill="url(#paint9_linear_11751_2220)"/>
<path d="M223.971 56.4439C223.248 56.3344 222.525 57.1229 222.361 58.218C222.197 59.3132 222.656 60.2989 223.379 60.4084C224.102 60.5179 224.825 59.7294 224.989 58.6342C225.153 57.539 224.694 56.5534 223.971 56.4439Z" fill="white"/>
<path opacity="0.7" d="M254.69 198.148C254.241 196.056 251.58 185.279 242.622 177.044C232.656 167.877 218.342 167.702 204.334 172.838C195.814 175.96 178.653 198.52 178.653 198.52L181.15 202.123C198.618 196.078 223.828 195.41 254.668 198.148H254.69Z" fill="url(#paint10_linear_11751_2220)"/>
<path d="M128.027 360.64C124.87 360.64 122.352 359.936 120.475 358.528C118.598 357.077 117.211 354.709 116.315 351.424C115.462 348.096 115.035 343.595 115.035 337.92C115.035 332.245 115.462 327.765 116.315 324.48C117.211 321.152 118.598 318.784 120.475 317.376C122.395 315.925 124.912 315.2 128.027 315.2C131.184 315.2 133.68 315.925 135.515 317.376C137.392 318.784 138.758 321.152 139.611 324.48C140.507 327.765 140.955 332.245 140.955 337.92C140.955 343.595 140.507 348.096 139.611 351.424C138.758 354.709 137.392 357.077 135.515 358.528C133.68 359.936 131.184 360.64 128.027 360.64ZM128.027 354.688C129.99 354.688 131.419 354.069 132.315 352.832C133.254 351.595 133.723 349.611 133.723 346.88V328.96C133.723 326.229 133.254 324.245 132.315 323.008C131.419 321.771 129.99 321.152 128.027 321.152C126.022 321.152 124.55 321.771 123.611 323.008C122.715 324.245 122.267 326.229 122.267 328.96V346.88C122.267 349.611 122.715 351.595 123.611 352.832C124.55 354.069 126.022 354.688 128.027 354.688ZM146.498 331.136H143.938V325.824H151.938V331.648H153.41C153.709 329.515 154.413 327.915 155.522 326.848C156.674 325.739 158.231 325.184 160.194 325.184C162.669 325.184 164.546 326.037 165.826 327.744C167.106 329.451 167.746 331.947 167.746 335.232V354.688H170.306V360H161.218V336.448C161.218 334.485 160.877 333.077 160.194 332.224C159.554 331.371 158.53 330.944 157.122 330.944C155.714 330.944 154.669 331.371 153.986 332.224C153.346 333.077 153.026 334.485 153.026 336.448V360H146.498V331.136ZM184.409 360.64C181.764 360.64 179.588 360.021 177.881 358.784C176.174 357.547 174.894 355.627 174.041 353.024C173.23 350.421 172.825 347.051 172.825 342.912C172.825 338.773 173.23 335.403 174.041 332.8C174.894 330.197 176.174 328.277 177.881 327.04C179.588 325.803 181.764 325.184 184.409 325.184C187.012 325.184 189.124 325.76 190.745 326.912C192.366 328.064 193.561 329.856 194.329 332.288C195.14 334.677 195.545 337.792 195.545 341.632V344.256H176.985V339.392H193.241L189.081 341.888V337.344C189.081 334.997 188.697 333.312 187.929 332.288C187.204 331.264 186.03 330.752 184.409 330.752C182.83 330.752 181.678 331.264 180.953 332.288C180.228 333.312 179.865 334.997 179.865 337.344V348.352C179.865 350.613 180.228 352.277 180.953 353.344C181.678 354.368 182.83 354.88 184.409 354.88C185.433 354.88 186.265 354.688 186.905 354.304C187.545 353.92 188.014 353.408 188.313 352.768C188.612 352.085 188.761 351.296 188.761 350.4V349.184H195.289C194.862 353.109 193.753 356.011 191.961 357.888C190.212 359.723 187.694 360.64 184.409 360.64ZM216.734 360.64C214.302 360.64 212.403 359.829 211.038 358.208C209.673 356.587 208.99 354.283 208.99 351.296C208.99 348.053 209.758 345.557 211.294 343.808C212.83 342.016 215.177 340.928 218.334 340.544L223.966 339.776V344.64L219.806 345.152C218.398 345.365 217.374 345.813 216.734 346.496C216.094 347.136 215.774 348.139 215.774 349.504V350.976C215.774 352.341 216.094 353.365 216.734 354.048C217.417 354.731 218.419 355.072 219.742 355.072C221.193 355.072 222.259 354.688 222.942 353.92C223.625 353.109 223.966 351.851 223.966 350.144V343.552V342.464V336.192C223.966 334.357 223.646 333.035 223.006 332.224C222.409 331.371 221.406 330.944 219.998 330.944C218.633 330.944 217.63 331.328 216.99 332.096C216.35 332.864 216.03 333.973 216.03 335.424V336.64H209.502C209.886 332.587 210.91 329.664 212.574 327.872C214.281 326.08 216.798 325.184 220.126 325.184C223.582 325.184 226.163 326.101 227.87 327.936C229.619 329.771 230.494 332.523 230.494 336.192V354.688H233.118V360H229.534C228.083 360 226.974 359.616 226.206 358.848C225.438 358.08 225.054 356.971 225.054 355.52V354.304H223.646C223.305 356.437 222.579 358.037 221.47 359.104C220.361 360.128 218.782 360.64 216.734 360.64ZM246.696 360.64C244.051 360.64 241.875 360.021 240.168 358.784C238.504 357.547 237.267 355.627 236.456 353.024C235.645 350.421 235.24 347.051 235.24 342.912C235.24 338.773 235.645 335.403 236.456 332.8C237.267 330.197 238.504 328.277 240.168 327.04C241.875 325.803 244.051 325.184 246.696 325.184C249.981 325.184 252.499 326.187 254.248 328.192C256.04 330.155 257.149 333.269 257.576 337.536H250.984V335.744C250.984 334.763 250.835 333.909 250.536 333.184C250.237 332.459 249.768 331.904 249.128 331.52C248.488 331.136 247.677 330.944 246.696 330.944C245.16 330.944 244.029 331.456 243.304 332.48C242.621 333.504 242.28 335.125 242.28 337.344V348.48C242.28 350.699 242.621 352.32 243.304 353.344C244.029 354.368 245.16 354.88 246.696 354.88C247.677 354.88 248.488 354.688 249.128 354.304C249.768 353.877 250.237 353.301 250.536 352.576C250.835 351.808 250.984 350.869 250.984 349.76V347.776H257.576C257.277 352.213 256.232 355.477 254.44 357.568C252.648 359.616 250.067 360.64 246.696 360.64ZM272.501 360.64C269.856 360.64 267.68 360.021 265.973 358.784C264.309 357.547 263.072 355.627 262.261 353.024C261.45 350.421 261.045 347.051 261.045 342.912C261.045 338.773 261.45 335.403 262.261 332.8C263.072 330.197 264.309 328.277 265.973 327.04C267.68 325.803 269.856 325.184 272.501 325.184C275.786 325.184 278.304 326.187 280.053 328.192C281.845 330.155 282.954 333.269 283.381 337.536H276.789V335.744C276.789 334.763 276.64 333.909 276.341 333.184C276.042 332.459 275.573 331.904 274.933 331.52C274.293 331.136 273.482 330.944 272.501 330.944C270.965 330.944 269.834 331.456 269.109 332.48C268.426 333.504 268.085 335.125 268.085 337.344V348.48C268.085 350.699 268.426 352.32 269.109 353.344C269.834 354.368 270.965 354.88 272.501 354.88C273.482 354.88 274.293 354.688 274.933 354.304C275.573 353.877 276.042 353.301 276.341 352.576C276.64 351.808 276.789 350.869 276.789 349.76V347.776H283.381C283.082 352.213 282.037 355.477 280.245 357.568C278.453 359.616 275.872 360.64 272.501 360.64ZM298.498 360.64C295.767 360.64 293.549 360.021 291.842 358.784C290.178 357.547 288.919 355.627 288.066 353.024C287.255 350.421 286.85 347.051 286.85 342.912C286.85 338.773 287.255 335.403 288.066 332.8C288.919 330.197 290.178 328.277 291.842 327.04C293.549 325.803 295.767 325.184 298.498 325.184C301.229 325.184 303.426 325.803 305.09 327.04C306.797 328.277 308.055 330.197 308.866 332.8C309.719 335.403 310.146 338.773 310.146 342.912C310.146 347.051 309.719 350.421 308.866 353.024C308.055 355.627 306.797 357.547 305.09 358.784C303.426 360.021 301.229 360.64 298.498 360.64ZM298.498 354.88C300.119 354.88 301.293 354.368 302.018 353.344C302.786 352.277 303.17 350.613 303.17 348.352V337.472C303.17 335.211 302.786 333.568 302.018 332.544C301.293 331.477 300.119 330.944 298.498 330.944C296.877 330.944 295.682 331.477 294.914 332.544C294.189 333.568 293.826 335.211 293.826 337.472V348.352C293.826 350.613 294.189 352.277 294.914 353.344C295.682 354.368 296.877 354.88 298.498 354.88ZM322.743 360.64C320.226 360.64 318.327 359.808 317.047 358.144C315.767 356.437 315.127 353.92 315.127 350.592V331.136H312.631V325.824H321.719V349.376C321.719 351.339 322.039 352.747 322.679 353.6C323.319 354.453 324.343 354.88 325.751 354.88C327.202 354.88 328.247 354.453 328.887 353.6C329.527 352.747 329.847 351.339 329.847 349.376V325.824H336.439V354.688H338.935V360H335.479C333.986 360 332.855 359.616 332.087 358.848C331.319 358.08 330.935 356.949 330.935 355.456V354.176H329.527C329.228 356.309 328.503 357.931 327.351 359.04C326.242 360.107 324.706 360.64 322.743 360.64ZM343.438 331.136H340.878V325.824H348.878V331.648H350.35C350.649 329.515 351.353 327.915 352.462 326.848C353.614 325.739 355.171 325.184 357.134 325.184C359.609 325.184 361.486 326.037 362.766 327.744C364.046 329.451 364.686 331.947 364.686 335.232V354.688H367.246V360H358.158V336.448C358.158 334.485 357.817 333.077 357.134 332.224C356.494 331.371 355.47 330.944 354.062 330.944C352.654 330.944 351.609 331.371 350.926 332.224C350.286 333.077 349.966 334.485 349.966 336.448V360H343.438V331.136ZM376.615 360C375.121 360 373.969 359.616 373.159 358.848C372.391 358.037 372.007 356.907 372.007 355.456V325.824L374.567 319.424H378.599V354.688H383.207V360H376.615ZM368.359 325.824H383.207V331.136H368.359V325.824ZM390.291 360H386.707V352.768H394.067V360L390.163 365.952H386.643L390.291 360ZM68.2553 418.64C65.6099 418.64 63.4339 418.021 61.7273 416.784C60.0206 415.547 58.7406 413.627 57.8873 411.024C57.0766 408.421 56.6713 405.051 56.6713 400.912C56.6713 396.773 57.0766 393.403 57.8873 390.8C58.7406 388.197 60.0206 386.277 61.7273 385.04C63.4339 383.803 65.6099 383.184 68.2553 383.184C70.8579 383.184 72.9699 383.76 74.5913 384.912C76.2126 386.064 77.4073 387.856 78.1753 390.288C78.9859 392.677 79.3913 395.792 79.3913 399.632V402.256H60.8313V397.392H77.0873L72.9273 399.888V395.344C72.9273 392.997 72.5433 391.312 71.7753 390.288C71.0499 389.264 69.8766 388.752 68.2553 388.752C66.6766 388.752 65.5246 389.264 64.7993 390.288C64.0739 391.312 63.7113 392.997 63.7113 395.344V406.352C63.7113 408.613 64.0739 410.277 64.7993 411.344C65.5246 412.368 66.6766 412.88 68.2553 412.88C69.2793 412.88 70.1113 412.688 70.7513 412.304C71.3913 411.92 71.8606 411.408 72.1593 410.768C72.4579 410.085 72.6073 409.296 72.6073 408.4V407.184H79.1353C78.7086 411.109 77.5993 414.011 75.8073 415.888C74.0579 417.723 71.5406 418.64 68.2553 418.64ZM81.5773 383.824H88.2973L92.5213 411.92H93.9933L98.2813 383.824H104.745L99.0493 418H87.2093L81.5773 383.824ZM118.553 418.64C115.907 418.64 113.731 418.021 112.025 416.784C110.318 415.547 109.038 413.627 108.185 411.024C107.374 408.421 106.969 405.051 106.969 400.912C106.969 396.773 107.374 393.403 108.185 390.8C109.038 388.197 110.318 386.277 112.025 385.04C113.731 383.803 115.907 383.184 118.553 383.184C121.155 383.184 123.267 383.76 124.889 384.912C126.51 386.064 127.705 387.856 128.473 390.288C129.283 392.677 129.689 395.792 129.689 399.632V402.256H111.129V397.392H127.385L123.225 399.888V395.344C123.225 392.997 122.841 391.312 122.073 390.288C121.347 389.264 120.174 388.752 118.553 388.752C116.974 388.752 115.822 389.264 115.097 390.288C114.371 391.312 114.009 392.997 114.009 395.344V406.352C114.009 408.613 114.371 410.277 115.097 411.344C115.822 412.368 116.974 412.88 118.553 412.88C119.577 412.88 120.409 412.688 121.049 412.304C121.689 411.92 122.158 411.408 122.457 410.768C122.755 410.085 122.905 409.296 122.905 408.4V407.184H129.433C129.006 411.109 127.897 414.011 126.105 415.888C124.355 417.723 121.838 418.64 118.553 418.64ZM134.877 389.136H132.317V383.824H140.317V389.776H141.789C142.087 387.643 142.749 386.043 143.773 384.976C144.839 383.909 146.29 383.376 148.125 383.376H150.685V389.136H145.501C144.093 389.136 143.047 389.584 142.365 390.48C141.725 391.333 141.405 392.741 141.405 394.704V418H134.877V389.136ZM155.116 421.136H163.244L164.012 416.912H158.124L152.556 383.824H159.276L163.564 411.664H165.036L169.26 383.824H175.724L169.324 421.904C169.068 423.397 168.535 424.528 167.724 425.296C166.956 426.064 165.868 426.448 164.46 426.448H155.116V421.136ZM185.171 418C183.677 418 182.525 417.616 181.715 416.848C180.947 416.037 180.563 414.907 180.563 413.456V383.824L183.123 377.424H187.155V412.688H191.763V418H185.171ZM176.915 383.824H191.763V389.136H176.915V383.824ZM195.967 379.152H193.407V373.84H202.559V381.072C202.559 382.608 202.346 385.296 201.919 389.136H203.327C203.711 387.131 204.415 385.637 205.439 384.656C206.463 383.675 207.871 383.184 209.663 383.184C212.181 383.184 214.058 384.037 215.295 385.744C216.575 387.408 217.215 389.904 217.215 393.232V412.688H219.775V418H210.687V394.448C210.687 392.528 210.367 391.141 209.727 390.288C209.087 389.392 208.042 388.944 206.591 388.944C205.183 388.944 204.159 389.392 203.519 390.288C202.879 391.141 202.559 392.528 202.559 394.448V418H195.967V379.152ZM223.844 389.136H221.092V383.824H230.5V418H223.844V389.136ZM223.46 373.84H230.628V380.368H223.46V373.84ZM236.902 389.136H234.342V383.824H242.342V389.648H243.814C244.112 387.515 244.816 385.915 245.926 384.848C247.078 383.739 248.635 383.184 250.598 383.184C253.072 383.184 254.95 384.037 256.23 385.744C257.51 387.451 258.15 389.947 258.15 393.232V412.688H260.71V418H251.622V394.448C251.622 392.485 251.28 391.077 250.598 390.224C249.958 389.371 248.934 388.944 247.526 388.944C246.118 388.944 245.072 389.371 244.39 390.224C243.75 391.077 243.43 392.485 243.43 394.448V418H236.902V389.136ZM263.869 421.136H276.669C277.735 421.136 278.482 420.944 278.909 420.56C279.378 420.219 279.613 419.664 279.613 418.896C279.613 418.128 279.378 417.573 278.909 417.232C278.482 416.848 277.735 416.656 276.669 416.656H270.205C268.029 416.656 266.365 416.272 265.213 415.504C264.103 414.693 263.549 413.52 263.549 411.984C263.549 410.619 263.997 409.552 264.893 408.784C265.831 407.973 267.069 407.547 268.605 407.504V406.224C266.813 405.541 265.469 404.325 264.573 402.576C263.719 400.784 263.293 398.416 263.293 395.472C263.293 391.333 264.189 388.261 265.981 386.256C267.773 384.208 270.439 383.184 273.981 383.184C277.565 383.184 280.231 384.208 281.981 386.256C283.773 388.261 284.669 391.333 284.669 395.472C284.669 399.525 283.794 402.533 282.045 404.496C280.295 406.416 277.65 407.376 274.109 407.376H272.125C271.271 407.376 270.631 407.525 270.205 407.824C269.821 408.123 269.629 408.571 269.629 409.168C269.629 409.765 269.821 410.213 270.205 410.512C270.589 410.768 271.229 410.896 272.125 410.896H278.013C280.701 410.896 282.727 411.557 284.093 412.88C285.501 414.16 286.205 416.016 286.205 418.448C286.205 421.051 285.437 423.035 283.901 424.4C282.365 425.765 280.103 426.448 277.117 426.448H263.869V421.136ZM273.981 402.192C275.431 402.192 276.477 401.808 277.117 401.04C277.799 400.229 278.141 398.971 278.141 397.264V393.552C278.141 391.845 277.799 390.608 277.117 389.84C276.477 389.072 275.431 388.688 273.981 388.688C272.573 388.688 271.527 389.072 270.845 389.84C270.162 390.608 269.821 391.845 269.821 393.552V397.264C269.821 398.971 270.162 400.229 270.845 401.04C271.527 401.808 272.573 402.192 273.981 402.192ZM277.949 384.976C277.949 382.8 278.375 381.179 279.229 380.112C280.082 379.045 281.383 378.512 283.133 378.512H286.205V383.824H281.149C280.423 383.824 279.89 384.037 279.549 384.464C279.25 384.848 279.101 385.467 279.101 386.32L277.949 384.976ZM300.812 373.84H312.78L318.028 401.872H319.436L324.684 373.84H336.652V418H329.868V380.176H328.46L321.548 418H315.724L308.812 380.176H307.404V418H300.812V373.84ZM353.167 418.64C350.436 418.64 348.217 418.021 346.511 416.784C344.847 415.547 343.588 413.627 342.735 411.024C341.924 408.421 341.519 405.051 341.519 400.912C341.519 396.773 341.924 393.403 342.735 390.8C343.588 388.197 344.847 386.277 346.511 385.04C348.217 383.803 350.436 383.184 353.167 383.184C355.897 383.184 358.095 383.803 359.759 385.04C361.465 386.277 362.724 388.197 363.535 390.8C364.388 393.403 364.815 396.773 364.815 400.912C364.815 405.051 364.388 408.421 363.535 411.024C362.724 413.627 361.465 415.547 359.759 416.784C358.095 418.021 355.897 418.64 353.167 418.64ZM353.167 412.88C354.788 412.88 355.961 412.368 356.687 411.344C357.455 410.277 357.839 408.613 357.839 406.352V395.472C357.839 393.211 357.455 391.568 356.687 390.544C355.961 389.477 354.788 388.944 353.167 388.944C351.545 388.944 350.351 389.477 349.583 390.544C348.857 391.568 348.495 393.211 348.495 395.472V406.352C348.495 408.613 348.857 410.277 349.583 411.344C350.351 412.368 351.545 412.88 353.167 412.88ZM367.376 412.688L379.984 389.136H367.44V383.824H387.216V389.136L374.608 412.688H387.28V418H367.376V412.688ZM391.979 389.136H389.227V383.824H398.635V418H391.979V389.136ZM391.595 373.84H398.763V380.368H391.595V373.84ZM404.717 379.152H401.965V373.84H411.373V418H404.717V379.152ZM417.522 379.152H414.77V373.84H424.178V418H417.522V379.152ZM436.343 418.64C433.911 418.64 432.012 417.829 430.647 416.208C429.281 414.587 428.599 412.283 428.599 409.296C428.599 406.053 429.367 403.557 430.903 401.808C432.439 400.016 434.785 398.928 437.943 398.544L443.575 397.776V402.64L439.415 403.152C438.007 403.365 436.983 403.813 436.343 404.496C435.703 405.136 435.383 406.139 435.383 407.504V408.976C435.383 410.341 435.703 411.365 436.343 412.048C437.025 412.731 438.028 413.072 439.351 413.072C440.801 413.072 441.868 412.688 442.551 411.92C443.233 411.109 443.575 409.851 443.575 408.144V401.552V400.464V394.192C443.575 392.357 443.255 391.035 442.615 390.224C442.017 389.371 441.015 388.944 439.607 388.944C438.241 388.944 437.239 389.328 436.599 390.096C435.959 390.864 435.639 391.973 435.639 393.424V394.64H429.111C429.495 390.587 430.519 387.664 432.183 385.872C433.889 384.08 436.407 383.184 439.735 383.184C443.191 383.184 445.772 384.101 447.479 385.936C449.228 387.771 450.103 390.523 450.103 394.192V412.688H452.727V418H449.143C447.692 418 446.583 417.616 445.815 416.848C445.047 416.08 444.663 414.971 444.663 413.52V412.304H443.255C442.913 414.437 442.188 416.037 441.079 417.104C439.969 418.128 438.391 418.64 436.343 418.64Z" fill="black"/>
<defs>
<linearGradient id="paint0_linear_11751_2220" x1="329.195" y1="155.195" x2="186.22" y2="298.18" gradientUnits="userSpaceOnUse">
<stop offset="0.11" stop-color="#FFEB49"/>
<stop offset="0.12" stop-color="#FFE644"/>
<stop offset="0.2" stop-color="#FFC626"/>
<stop offset="0.27" stop-color="#FFAE11"/>
<stop offset="0.35" stop-color="#FFA004"/>
<stop offset="0.41" stop-color="#FF9C00"/>
<stop offset="0.47" stop-color="#FF9200"/>
<stop offset="0.57" stop-color="#FF7900"/>
<stop offset="0.63" stop-color="#FF6600"/>
<stop offset="0.76" stop-color="#FE5029"/>
<stop offset="0.99" stop-color="#FB2872"/>
</linearGradient>
<linearGradient id="paint1_linear_11751_2220" x1="251.372" y1="6.66857" x2="251.372" y2="183.768" gradientUnits="userSpaceOnUse">
<stop stop-color="#FF6600"/>
<stop offset="0.07" stop-color="#FF6F05"/>
<stop offset="0.19" stop-color="#FF8813"/>
<stop offset="0.34" stop-color="#FFB029"/>
<stop offset="0.46" stop-color="#FF9218"/>
<stop offset="0.63" stop-color="#FF6600"/>
<stop offset="0.77" stop-color="#FD4F29"/>
<stop offset="1" stop-color="#FB2872"/>
</linearGradient>
<linearGradient id="paint2_linear_11751_2220" x1="235.295" y1="3.38303" x2="259.104" y2="262.96" gradientUnits="userSpaceOnUse">
<stop stop-color="#FF6600"/>
<stop offset="0.26" stop-color="#FFB029"/>
<stop offset="0.34" stop-color="#FFA623"/>
<stop offset="0.47" stop-color="#FF8D15"/>
<stop offset="0.63" stop-color="#FF6600"/>
<stop offset="1" stop-color="#FB2872"/>
</linearGradient>
<linearGradient id="paint3_linear_11751_2220" x1="228.122" y1="-4.44742" x2="252.872" y2="81.4575" gradientUnits="userSpaceOnUse">
<stop offset="0.09" stop-color="#FB2872" stop-opacity="0"/>
<stop offset="0.2" stop-color="#E91D66" stop-opacity="0.17"/>
<stop offset="0.33" stop-color="#D9145B" stop-opacity="0.33"/>
<stop offset="0.47" stop-color="#CD0D53" stop-opacity="0.45"/>
<stop offset="0.62" stop-color="#C4084D" stop-opacity="0.53"/>
<stop offset="0.78" stop-color="#BF044A" stop-opacity="0.58"/>
<stop offset="1" stop-color="#BE0449" stop-opacity="0.6"/>
</linearGradient>
<linearGradient id="paint4_linear_11751_2220" x1="227.607" y1="21.3437" x2="225.855" y2="241.439" gradientUnits="userSpaceOnUse">
<stop stop-color="#FF6600"/>
<stop offset="0.07" stop-color="#FFA221"/>
<stop offset="0.14" stop-color="#FFD63D"/>
<stop offset="0.17" stop-color="#FFEB49"/>
<stop offset="0.35" stop-color="#FFAC26"/>
<stop offset="0.51" stop-color="#FF790A"/>
<stop offset="0.59" stop-color="#FF6600"/>
<stop offset="1" stop-color="#FB2872"/>
</linearGradient>
<linearGradient id="paint5_linear_11751_2220" x1="281.456" y1="17.7193" x2="279.748" y2="233.576" gradientUnits="userSpaceOnUse">
<stop stop-color="#FF6700"/>
<stop offset="0.18" stop-color="#FF9B1D"/>
<stop offset="0.27" stop-color="#FFB029"/>
<stop offset="0.42" stop-color="#FF9218"/>
<stop offset="0.63" stop-color="#FF6600"/>
<stop offset="1" stop-color="#FB2872"/>
</linearGradient>
<linearGradient id="paint6_linear_11751_2220" x1="282.923" y1="17.7296" x2="281.215" y2="233.587" gradientUnits="userSpaceOnUse">
<stop stop-color="#FF6700"/>
<stop offset="0.18" stop-color="#FF9B1D"/>
<stop offset="0.27" stop-color="#FFB029"/>
<stop offset="0.42" stop-color="#FF9218"/>
<stop offset="0.63" stop-color="#FF6600"/>
<stop offset="1" stop-color="#FB2872"/>
</linearGradient>
<linearGradient id="paint7_linear_11751_2220" x1="284.557" y1="158.14" x2="266.77" y2="263.248" gradientUnits="userSpaceOnUse">
<stop offset="0.02" stop-color="#FB2872" stop-opacity="0"/>
<stop offset="0.49" stop-color="#BE0449"/>
<stop offset="0.52" stop-color="#AA0447"/>
<stop offset="0.61" stop-color="#760543"/>
<stop offset="0.7" stop-color="#4C0540"/>
<stop offset="0.78" stop-color="#2B063D"/>
<stop offset="0.86" stop-color="#13063B"/>
<stop offset="0.94" stop-color="#04063A"/>
<stop offset="1" stop-color="#00073A"/>
</linearGradient>
<linearGradient id="paint8_linear_11751_2220" x1="324.31" y1="208.53" x2="264.459" y2="258.119" gradientUnits="userSpaceOnUse">
<stop stop-color="#FFEB49"/>
<stop offset="0.1" stop-color="#FFE847" stop-opacity="0.98"/>
<stop offset="0.22" stop-color="#FFE042" stop-opacity="0.92"/>
<stop offset="0.36" stop-color="#FFD23B" stop-opacity="0.82"/>
<stop offset="0.51" stop-color="#FFBF31" stop-opacity="0.67"/>
<stop offset="0.66" stop-color="#FFA723" stop-opacity="0.49"/>
<stop offset="0.83" stop-color="#FF8A13" stop-opacity="0.27"/>
<stop offset="0.99" stop-color="#FF6700" stop-opacity="0.01"/>
<stop offset="1" stop-color="#FF6600" stop-opacity="0"/>
</linearGradient>
<linearGradient id="paint9_linear_11751_2220" x1="220.387" y1="52.151" x2="228.299" y2="63.6542" gradientUnits="userSpaceOnUse">
<stop offset="0.16" stop-color="#A030B9"/>
<stop offset="0.88" stop-color="#00073A"/>
</linearGradient>
<linearGradient id="paint10_linear_11751_2220" x1="240.136" y1="169.794" x2="220.795" y2="193.23" gradientUnits="userSpaceOnUse">
<stop stop-color="#FFEB49"/>
<stop offset="1" stop-color="#FF6600" stop-opacity="0"/>
</linearGradient>
</defs>
</svg>
