<svg width="747" height="638" viewBox="0 0 747 638" fill="none" xmlns="http://www.w3.org/2000/svg">
<g clip-path="url(#clip0_11751_2177)">
<g clip-path="url(#clip1_11751_2177)">
<path d="M571.665 426.358C678.21 431.02 733.368 417.365 747.241 413.274V300.547C696.928 290.24 675.639 268.22 622.778 268.22C565.815 268.22 545.738 288.8 500.384 301.45C471.131 309.608 439.536 316.385 381.761 315.082C307.829 310.317 291.968 284.309 236.056 284.023C188.337 283.783 163.849 302.752 126.163 310.557C81.8606 319.733 31.5477 319.607 10.1336 319.024C6.37417 318.921 2.42045 318.807 -0.322021 318.727V433.934C49.111 432.962 516.062 423.924 571.654 426.358H571.665Z" fill="url(#paint0_linear_11751_2177)"/>
<path d="M747.229 346.677C745.652 348.083 743.858 349.66 742.636 350.688C712.137 376.147 679.41 385.335 629.646 385.003C587.709 384.718 557.313 371.954 517.353 359.921C462.367 343.364 426.977 350.277 387.223 367.143C358.53 379.313 331.242 393.379 299.921 401.081C252.979 412.634 222.915 400.887 177.356 374.468C130.437 347.26 60.5379 348.254 4.9458 385.678C3.51743 386.637 1.47201 388.112 -0.322021 389.426V537.725L747.218 538.216V346.689L747.229 346.677Z" fill="url(#paint1_linear_11751_2177)"/>
<path d="M295.773 360.641C276.667 369.691 265.743 389.757 265.743 389.757L275.296 390.26C275.296 390.26 267.823 396.796 264.692 403.458C256.122 421.672 258.441 433.716 258.441 433.716C258.441 433.716 273.434 432.642 295.91 437.533C315.028 441.693 345.515 451.245 345.515 451.245C345.515 451.245 334.865 433.442 332.397 420.793C328.271 399.618 345.469 387.963 354.496 382.844C375.373 370.994 393.382 365.383 396.125 363.509C396.125 363.509 379.247 351.774 362.838 349.603C341.39 346.769 326.18 346.232 295.75 360.641H295.773Z" fill="url(#paint2_linear_11751_2177)"/>
<path opacity="0.5" d="M329.54 390.054C321.347 394.648 314.148 401.138 309.474 408.886C306.412 413.959 304.001 425.763 304.001 425.763C304.001 425.763 307.086 421.41 308.709 419.216C310.914 416.233 316.97 412.051 316.97 412.051C316.97 412.051 315.016 426.061 316.685 433.134C317.553 436.813 318.844 440.413 320.433 443.795C333.848 447.566 345.515 451.223 345.515 451.223C345.515 451.223 334.865 433.419 332.397 420.77C328.272 399.596 345.469 387.94 354.496 382.821C354.668 382.73 354.839 382.627 355.011 382.535C354.919 382.432 354.828 382.33 354.725 382.204C346.315 382.935 337.459 385.598 329.529 390.043L329.54 390.054Z" fill="url(#paint3_radial_11751_2177)"/>
<path opacity="0.5" d="M350.68 356.002C332.934 355.979 325.049 356.927 312.239 362.252C305.703 364.972 299.338 368.252 294.173 372.548C290.837 375.325 287.751 378.502 284.906 382.147C287.409 380.913 291.18 379.736 293.888 378.707C297.761 377.233 301.784 376.056 305.783 375.382C297.144 379.336 288.711 385.541 283.329 394.362C275.148 407.777 276.587 422.324 276.587 422.324C276.587 422.324 281.432 409.606 291.877 397.379C298.07 390.134 305.075 384.889 319.53 379.279C326.82 376.445 332.602 375.256 345.549 372.4C346.555 372.182 338.601 370.48 337.961 370.4C332.876 369.817 331.608 369.154 326.466 368.309C330.968 366.777 335.676 365.635 340.418 364.743C354.199 362.161 373.751 362.995 387.314 367.28C388.126 366.949 388.891 366.652 389.6 366.355C387.029 364.481 384.218 362.709 381.727 361.681C376.196 360.081 363.775 356.002 350.668 355.979L350.68 356.002Z" fill="url(#paint4_radial_11751_2177)"/>
<path d="M574.682 599.087C674.68 603.464 729.415 591.706 747.241 586.861V453.382C698.516 443.304 681.399 426.335 629.155 426.335C572.191 426.335 562.501 441.978 517.159 454.616C487.906 462.775 456.779 468.489 430.051 468.192C356.119 463.427 330.877 424.449 247.152 431.991C199.627 436.276 166.877 475.482 129.203 483.287C84.9003 492.462 34.5874 492.337 13.1733 491.754C7.52839 491.605 1.44925 491.423 -0.299072 491.365V606.721C27.2513 606.184 517.639 596.596 574.694 599.087H574.682Z" fill="url(#paint5_linear_11751_2177)"/>
<path d="M641.838 486.795C641.838 486.795 635.211 482.19 625.566 473.711C620.093 468.889 614.116 461.815 608.14 456.125C576.465 425.958 538.322 401.001 473.279 417.285C419.081 430.86 394.559 462.844 394.559 462.844C394.559 462.844 414.568 469.311 438.324 473.837C458.264 477.63 473.405 476.979 495.653 489.663C527.146 507.626 533.579 532.674 533.579 532.674C533.579 532.674 560.513 547.163 595.571 557.608C621.967 565.469 639.313 563.618 639.313 563.618C639.313 563.618 642.181 536.525 631.908 506.438C629.817 500.301 618.699 480.019 618.699 480.019C618.699 480.019 622.721 482.761 629.806 485.092C639.187 488.189 641.827 486.783 641.827 486.783L641.838 486.795Z" fill="url(#paint6_linear_11751_2177)"/>
<path opacity="0.5" d="M472.308 427.557C501.71 419.49 515.753 420.061 538.676 426.552C550.377 429.866 559.941 434.414 569.631 440.698C575.893 444.766 581.79 449.554 587.377 455.211C582.852 453.611 578.133 452.137 573.311 450.937C566.398 449.212 559.301 448 552.342 447.669C567.883 452.674 581.892 463.781 592.92 477.699C606.346 494.657 615.328 515.762 617.145 535.017C605.786 518.196 592.028 503.775 578.407 488.909C567.346 476.842 550.091 467.655 531.145 460.25C518.633 455.359 496.922 453.382 483.906 450.606C483.564 448.88 495.356 445.921 496.453 445.669C505.001 443.658 507.035 442.253 515.65 439.773C507.652 438.059 499.413 436.95 491.128 436.516C466.252 435.236 440.884 440.173 420.075 454.034C425.046 448.412 433.354 444.972 440.004 441.247C449.111 437.408 456.082 432.025 472.331 427.557H472.308Z" fill="url(#paint7_radial_11751_2177)"/>
<path opacity="0.5" d="M524.049 491.331C516.736 486.475 507.583 484.075 507.583 484.075C507.583 484.075 512.714 482.453 521.73 481.733C526.072 481.39 534.391 481.573 534.391 481.573C534.391 481.573 524.964 475.951 519.513 474.042C506.018 469.323 493.768 465.175 468.469 466.181C455.179 466.706 441.684 468.363 428.292 470.146C426.795 470.351 425.423 470.58 424.144 470.843C428.611 471.871 433.388 472.9 438.324 473.848C458.264 477.642 473.405 476.99 495.653 489.674C527.146 507.638 533.579 532.685 533.579 532.685C533.579 532.685 539.83 536.045 550.206 540.684C548.286 527.349 544.515 514.162 535.693 503.649C532.094 499.581 529.112 494.691 524.038 491.32L524.049 491.331Z" fill="url(#paint8_radial_11751_2177)"/>
<path d="M742.636 526.058C712.137 551.003 679.41 560.007 629.646 559.676C587.709 559.401 566.146 532.685 510.714 528.16C453.579 523.498 424.749 527.36 389.166 540.856C362.644 550.923 329.837 573.16 293.511 582.461C246.74 594.436 222.915 575.228 177.356 549.346C130.437 522.687 60.5379 523.658 4.9458 560.338C3.51743 561.275 1.47201 562.727 -0.322021 564.007V638.465H747.218V522.138C745.641 523.509 743.847 525.063 742.624 526.069L742.636 526.058Z" fill="url(#paint9_linear_11751_2177)"/>
<path d="M271.776 477.745C230.548 475.231 214.596 483.812 180.269 514.334C166.694 526.4 153.119 526.743 153.119 526.743C153.119 526.743 160.432 529.143 165.723 529.189C171.745 529.246 183.286 525.509 183.286 525.509C183.286 525.509 154.627 547.632 140.172 557.185C129.945 563.949 117.695 566.92 105.64 566.566C93.3446 566.212 84.2373 558.693 84.2373 558.693C84.2373 558.693 82.7747 608.469 128.003 624.078C164.592 636.705 200.712 636.522 243.003 619.21C270.531 607.943 279.49 598.562 316.033 577.936C356.13 555.299 377.316 545.895 377.316 545.895C377.316 545.895 366.46 528.526 353.845 516.013C335.665 497.959 309.268 480.03 271.788 477.745H271.776Z" fill="url(#paint10_linear_11751_2177)"/>
<path opacity="0.3" d="M294.276 551.163C287.626 552.774 243.461 585.798 237.587 589.374C226.023 596.402 215.442 601.521 206.609 604.652C195.787 608.48 183.389 607.041 183.389 607.041C183.389 607.041 187.331 611.04 198.027 613.44C204.906 614.982 211.248 614.479 216.242 613.405C202.164 617.69 175.39 623.61 141.178 620.559C129.065 619.473 115.776 615.519 103.755 609.052C109.788 615.177 117.673 620.524 128.003 624.09C164.592 636.716 200.712 636.533 243.003 619.222C270.531 607.955 279.49 598.573 316.033 577.948C335.288 567.08 350.177 559.264 360.45 554.077C338.316 547.883 316.296 543.175 294.288 551.163H294.276Z" fill="url(#paint11_radial_11751_2177)"/>
<path opacity="0.3" d="M288.288 496.588C252.545 490.177 218.401 507.352 192.462 534.194C170.705 556.693 154.73 570.474 126.334 574.474C132.55 575.753 143.052 576.805 153.61 574.794C164.98 572.622 169.699 571.503 183.389 566.475C207.751 557.527 214.105 548.192 233.553 537.085C240.592 533.062 253.379 529.726 253.379 529.726C253.379 529.726 240.124 537.862 236.433 541.461C228.023 549.666 226.514 554.054 226.514 554.054C226.514 554.054 239.587 546.649 253.665 540.616C262.155 536.97 272.736 535.645 281.821 534.079C296.402 531.565 309.554 532.08 316.673 532.297C325.095 534.011 361.775 545.769 357.307 535.805C344.098 526.035 331.357 504.849 288.277 496.599L288.288 496.588Z" fill="url(#paint12_radial_11751_2177)"/>
<path d="M657.928 254.37C653.551 253.445 650.591 251.628 649.792 250.76C649.506 250.451 649.563 250.474 651.003 249.56C654.865 247.103 658.705 246.452 661.664 246.257C664.555 246.063 665.926 244.76 666.132 244.143C666.235 243.835 666.315 243.503 665.984 243.241C665.652 242.978 664.487 242.612 663.732 242.224C662.19 241.424 661.527 240.487 660.064 239.138C659.116 238.258 657.608 237.641 655.825 237.196C654.957 236.979 654.614 236.704 654.408 236.51C651.711 233.951 648.797 232.259 647.758 232.831C647.118 233.185 647.586 235.585 648.009 237.413C648.169 238.121 648.123 238.464 647.78 238.681C646.786 239.333 644.238 240.955 642.718 241.698C640.639 242.704 632.697 242.555 628.115 241.949C621.19 241.035 617.682 239.733 611.751 240.967C610.951 241.138 609.329 240.818 608.906 240.658C608.483 240.498 607.192 239.744 606.426 239.39C594.394 233.779 590.691 230.545 574.271 224.889C546.035 215.153 523.809 209.383 499.676 210.72C463.384 212.719 448.506 224.843 438.13 232.705L444.895 232.214C426.795 244.806 418.019 267.009 416.545 273.282L421.378 270.003C416.065 298.353 438.553 315.105 438.896 315.333C473.771 339.57 528.495 343.261 523.821 361.898C552.731 370.857 577.025 379.816 605.295 383.381C611.077 375.999 623.053 344.552 606.906 321.138C602.164 314.259 596.359 309.654 596.359 309.654C596.359 309.654 597.25 308.9 599.879 308.786C602.873 308.649 605.501 309.094 605.501 309.094C605.501 309.094 596.713 298.181 581.79 292.342C560.353 283.955 545.566 283.406 524.141 281.818C491.403 279.384 505.229 249.765 550.48 244.978C558.547 244.12 566.203 243.801 573.665 243.732C575.734 243.721 577.79 243.732 579.836 243.732C580.053 243.732 580.259 243.732 580.476 243.732C582.453 243.755 584.429 243.789 586.395 243.835C586.715 243.835 587.035 243.846 587.366 243.858C589.297 243.903 591.24 243.961 593.171 244.018C593.72 244.029 594.268 244.052 594.817 244.063C595.754 244.086 596.702 244.12 597.639 244.143C598.199 244.166 598.77 244.178 599.33 244.189C599.582 244.189 599.833 244.2 600.096 244.212C601.101 244.246 601.558 244.303 603.101 244.475C604.644 244.646 606.392 245.115 607.089 245.663C607.26 245.8 607.318 246.029 607.146 246.166C606.381 246.772 604.495 247.697 604.301 247.8C602.061 248.988 600.267 248.634 598.747 249.023C597.125 249.445 596.645 250.348 594.542 251.262C592.931 251.971 591.823 252.405 590.12 252.474C587.926 252.554 587.823 254.679 591.297 254.485C593.937 254.336 594.245 254.302 596.576 253.719C601.433 252.485 604.347 254.553 611.134 252.919C613.363 252.382 617.99 252.005 624.012 253.422C628.755 254.53 635.679 255.776 639.564 255.65C640.547 255.616 646.409 255.81 648.215 256.279C652.545 257.593 654.282 257.022 657.905 257.284C660.67 257.49 663.035 257.559 664.155 257.284C665.264 257.022 666.658 256.062 665.984 255.09C665.241 254.062 663.892 255.627 657.916 254.359L657.928 254.37Z" fill="url(#paint13_linear_11751_2177)"/>
<path d="M507.035 274.311C507.035 274.219 507.035 274.128 507.012 274.025C502.144 264.198 518.427 248.349 550.48 244.966C569.54 242.955 586.246 243.846 603.832 244.326C606.232 243.858 606.792 239.538 606.415 239.367C601.204 236.933 597.559 234.956 593.765 233.025C557.565 229.368 537.819 232.751 524.358 239.71C499.173 252.736 503.218 267.557 507.012 274.299L507.035 274.311Z" fill="url(#paint14_radial_11751_2177)"/>
<path d="M659.356 239.31C659.356 239.31 658.248 238.761 657.162 237.436C656.077 236.11 654.808 234.762 653.997 234.042C653.083 233.242 651.814 232.454 651.22 232.796C650.866 233.002 651.037 234.019 651.117 234.762C651.346 236.762 653.003 239.824 653.003 239.824L659.356 239.31Z" fill="url(#paint15_linear_11751_2177)"/>
<path d="M619.179 252.405C619.179 252.405 614.688 253.285 611.02 254.302C607.672 255.228 604.13 256.393 602.873 256.873C600.724 257.696 598.702 259.913 595.936 260.735C594.142 261.272 592.314 259.581 594.999 258.621C597.353 257.776 597.593 255.776 600.393 254.256C601.17 253.833 602.05 253.833 602.736 253.376C606.792 250.691 609.089 247.297 609.489 247.4C610.346 247.64 619.167 252.394 619.167 252.394L619.179 252.405Z" fill="url(#paint16_linear_11751_2177)"/>
<path d="M635.28 250.257C635.28 250.257 639.919 248.257 647.255 253.513C648.432 254.359 655.78 257.661 657.631 258.553C661.664 260.621 662.796 259.707 663.527 260.507C664.601 261.444 662.681 263.032 659.093 261.901C657.951 261.535 652.603 259.97 650.443 259.078C645.861 257.17 642.604 255.582 641.096 254.908C640.285 254.542 635.28 250.257 635.28 250.257Z" fill="url(#paint17_linear_11751_2177)"/>
<path d="M657.928 254.37C653.551 253.445 650.592 251.628 649.792 250.76C649.506 250.451 649.563 250.474 651.003 249.56C654.865 247.103 658.705 246.452 661.664 246.257C664.555 246.063 665.926 244.76 666.132 244.143C666.235 243.835 666.315 243.503 665.984 243.241C665.652 242.978 664.487 242.612 663.733 242.224C662.19 241.424 661.527 240.487 660.064 239.138C659.116 238.258 657.608 237.641 655.825 237.196C654.957 236.979 654.614 236.704 654.408 236.51C651.711 233.951 648.798 232.259 647.758 232.831C647.118 233.185 647.586 235.585 648.009 237.413C648.169 238.121 648.123 238.464 647.781 238.681C646.786 239.333 644.238 240.955 642.718 241.698C640.639 242.704 632.697 242.555 628.115 241.949C621.19 241.035 617.682 239.733 611.751 240.967C610.951 241.138 609.329 240.818 608.906 240.658C608.483 240.498 607.192 239.744 606.426 239.39C594.394 233.779 590.691 230.545 574.271 224.889C574.271 224.889 562.73 220.924 564.204 233.859C565.312 243.618 573.562 243.743 573.562 243.743C582.521 243.663 591.229 243.983 600.107 244.246C601.113 244.28 601.57 244.338 603.113 244.509C604.655 244.68 606.404 245.149 607.101 245.697C607.272 245.835 607.329 246.063 607.158 246.2C606.392 246.806 604.507 247.731 604.312 247.834C602.073 249.023 600.279 248.668 598.759 249.057C597.136 249.48 596.656 250.382 594.554 251.297C592.943 252.005 591.834 252.439 590.132 252.508C587.938 252.588 587.835 254.713 591.309 254.519C593.948 254.37 594.257 254.336 596.588 253.753C601.444 252.519 604.358 254.588 611.146 252.954C613.374 252.416 618.002 252.039 624.024 253.456C628.766 254.565 635.691 255.81 639.576 255.685C640.559 255.65 646.421 255.845 648.226 256.313C652.557 257.627 654.294 257.056 657.916 257.319C660.682 257.524 663.047 257.593 664.167 257.319C665.275 257.056 666.669 256.096 665.995 255.125C665.252 254.096 663.904 255.662 657.928 254.393V254.37Z" fill="url(#paint18_linear_11751_2177)"/>
<path opacity="0.8" d="M657.928 254.37C653.551 253.445 650.592 251.628 649.792 250.76C649.506 250.451 649.563 250.474 651.003 249.56C654.865 247.103 658.705 246.452 661.664 246.257C664.555 246.063 665.926 244.76 666.132 244.143C666.235 243.835 666.315 243.503 665.984 243.241C665.652 242.978 664.487 242.612 663.733 242.224C662.19 241.424 661.527 240.487 660.064 239.138C659.116 238.258 657.608 237.641 655.825 237.196C654.957 236.979 654.614 236.704 654.408 236.51C651.711 233.951 648.798 232.259 647.758 232.831C647.118 233.185 647.586 235.585 648.009 237.413C648.169 238.121 648.123 238.464 647.781 238.681C646.786 239.333 644.238 240.955 642.718 241.698C640.639 242.704 632.697 242.555 628.115 241.949C621.19 241.035 617.682 239.733 611.751 240.967C610.951 241.138 609.329 240.818 608.906 240.658C608.483 240.498 607.192 239.744 606.426 239.39C594.394 233.779 590.691 230.545 574.271 224.889C574.271 224.889 562.73 220.924 564.204 233.859C565.312 243.618 573.562 243.743 573.562 243.743C582.521 243.663 591.229 243.983 600.107 244.246C601.113 244.28 601.57 244.338 603.113 244.509C604.655 244.68 606.404 245.149 607.101 245.697C607.272 245.835 607.329 246.063 607.158 246.2C606.392 246.806 604.507 247.731 604.312 247.834C602.073 249.023 600.279 248.668 598.759 249.057C597.136 249.48 596.656 250.382 594.554 251.297C592.943 252.005 591.834 252.439 590.132 252.508C587.938 252.588 587.835 254.713 591.309 254.519C593.948 254.37 594.257 254.336 596.588 253.753C601.444 252.519 604.358 254.588 611.146 252.954C613.374 252.416 618.002 252.039 624.024 253.456C628.766 254.565 635.691 255.81 639.576 255.685C640.559 255.65 646.421 255.845 648.226 256.313C652.557 257.627 654.294 257.056 657.916 257.319C660.682 257.524 663.047 257.593 664.167 257.319C665.275 257.056 666.669 256.096 665.995 255.125C665.252 254.096 663.904 255.662 657.928 254.393V254.37Z" fill="url(#paint19_linear_11751_2177)"/>
<path d="M657.928 254.37C653.551 253.445 650.592 251.628 649.792 250.76C649.506 250.451 649.563 250.474 651.003 249.56C654.865 247.103 658.705 246.452 661.664 246.257C664.555 246.063 665.926 244.76 666.132 244.143C666.235 243.835 666.315 243.503 665.984 243.241C665.652 242.978 664.487 242.612 663.733 242.224C662.19 241.424 661.527 240.487 660.064 239.138C659.116 238.258 657.608 237.641 655.825 237.196C654.957 236.979 654.614 236.704 654.408 236.51C651.711 233.951 648.798 232.259 647.758 232.831C647.118 233.185 647.586 235.585 648.009 237.413C648.169 238.121 648.123 238.464 647.781 238.681C646.786 239.333 644.238 240.955 642.718 241.698C640.639 242.704 632.697 242.555 628.115 241.949C621.19 241.035 617.682 239.733 611.751 240.967C610.951 241.138 609.329 240.818 608.906 240.658C608.483 240.498 607.192 239.744 606.426 239.39C594.394 233.779 590.691 230.545 574.271 224.889C574.271 224.889 562.73 220.924 564.204 233.859C565.312 243.618 573.562 243.743 573.562 243.743C582.521 243.663 591.229 243.983 600.107 244.246C601.113 244.28 601.57 244.338 603.113 244.509C604.655 244.68 606.404 245.149 607.101 245.697C607.272 245.835 607.329 246.063 607.158 246.2C606.392 246.806 604.507 247.731 604.312 247.834C602.073 249.023 600.279 248.668 598.759 249.057C597.136 249.48 596.656 250.382 594.554 251.297C592.943 252.005 591.834 252.439 590.132 252.508C587.938 252.588 587.835 254.713 591.309 254.519C593.948 254.37 594.257 254.336 596.588 253.753C601.444 252.519 604.358 254.588 611.146 252.954C613.374 252.416 618.002 252.039 624.024 253.456C628.766 254.565 635.691 255.81 639.576 255.685C640.559 255.65 646.421 255.845 648.226 256.313C652.557 257.627 654.294 257.056 657.916 257.319C660.682 257.524 663.047 257.593 664.167 257.319C665.275 257.056 666.669 256.096 665.995 255.125C665.252 254.096 663.904 255.662 657.928 254.393V254.37Z" fill="url(#paint20_radial_11751_2177)"/>
<path d="M606.918 253.559C608.381 252.874 609.192 251.925 609.192 251.925C609.192 251.925 607.512 251.811 605.912 251.777C605.41 251.777 603.49 251.651 603.49 251.651C603.49 251.651 605.455 250.611 605.947 250.257C606.347 249.971 607.981 248.863 607.981 248.863C607.981 248.863 605.318 249.343 604.77 249.434C604.141 249.537 602.336 249.823 602.336 249.823C602.336 249.823 603.078 248.817 603.593 248.154C601.684 248.931 600.119 248.691 598.77 249.045C597.148 249.468 596.668 250.371 594.565 251.285C592.954 251.994 591.846 252.428 590.143 252.496C587.949 252.576 587.846 254.702 591.32 254.508C593.96 254.359 594.268 254.325 596.599 253.742C600.302 252.805 602.884 253.776 606.906 253.571L606.918 253.559Z" fill="url(#paint21_linear_11751_2177)"/>
<path d="M658.579 241.721C658.648 242.578 659.105 242.509 659.425 242.521C660.019 242.555 660.259 242.338 660.202 241.778C660.099 240.784 659.493 240.452 659.105 240.612C658.831 240.727 658.522 240.955 658.579 241.709V241.721Z" fill="url(#paint22_linear_11751_2177)"/>
<path d="M659.834 241.829C659.953 241.813 660.03 241.659 660.007 241.484C659.984 241.308 659.869 241.179 659.75 241.195C659.632 241.21 659.554 241.365 659.577 241.54C659.6 241.715 659.715 241.845 659.834 241.829Z" fill="white"/>
<path d="M657.928 254.37C655.585 253.868 653.654 253.125 652.226 252.394C650.912 252.165 649.78 251.948 649.175 251.765C649.232 251.799 651.62 253.582 652.671 253.776C651.677 254.005 649.826 253.228 647.918 253.502C650.237 254.553 650.843 254.725 653.071 255.285C650.854 255.57 649.46 255.239 648.032 255.285L651.654 257.033C653.825 257.307 655.425 257.102 657.916 257.273C660.682 257.479 663.047 257.547 664.167 257.273C665.275 257.01 666.669 256.05 665.995 255.079C665.252 254.051 663.904 255.616 657.928 254.348V254.37Z" fill="url(#paint23_linear_11751_2177)"/>
<path opacity="0.6" d="M661.31 244.52C661.31 244.52 661.367 244.52 661.39 244.52C660.362 244.486 658.979 244.189 657.368 243.275C656.157 242.589 655.014 242.018 653.723 241.709C649.78 240.772 647.826 241.344 648.089 242.018C648.261 242.452 649.312 242.418 649.072 242.703C648.9 242.909 647.278 242.612 647.506 243.309C647.746 244.006 649.038 243.892 648.958 244.155C648.889 244.406 647.804 244.075 647.952 244.669C648.078 245.183 649.586 245.023 650.729 245.594C653.551 247.011 649.506 248.611 649.335 249.731C649.243 250.325 649.323 250.725 649.392 250.965C649.426 250.657 649.815 250.337 651.003 249.583C654.865 247.126 658.705 246.474 661.664 246.28C662.03 246.257 662.35 246.212 662.67 246.154C661.756 245.332 661.184 244.555 661.299 244.543L661.31 244.52Z" fill="url(#paint24_linear_11751_2177)"/>
<path d="M662.681 246.132C664.887 245.743 665.961 244.68 666.132 244.143C666.235 243.835 666.315 243.503 665.984 243.241C665.755 243.058 665.15 242.841 664.544 242.589C664.544 242.829 664.475 243.069 664.304 243.298C663.401 244.452 662.27 244.463 661.39 244.52C661.367 244.52 661.333 244.52 661.31 244.52C661.185 244.52 661.756 245.309 662.681 246.132Z" fill="#FFC635"/>
<path d="M666.121 244.189C666.121 244.189 666.132 244.155 666.144 244.143C666.247 243.835 666.327 243.503 665.995 243.241C665.904 243.161 665.732 243.081 665.538 242.989C665.47 243.138 665.435 243.343 665.458 243.629C665.493 244.006 665.847 244.143 666.121 244.189Z" fill="#00073A"/>
<path d="M647.781 238.67C647.461 238.875 646.981 239.184 646.432 239.527C647.381 239.035 649.3 238.178 651.54 237.961C653.517 237.767 655.528 237.561 656.682 237.424C656.396 237.344 656.111 237.253 655.814 237.184C654.945 236.967 654.602 236.693 654.397 236.499C651.7 233.939 648.786 232.248 647.746 232.819C647.106 233.173 647.575 235.573 647.998 237.401C648.158 238.11 648.112 238.453 647.769 238.67H647.781Z" fill="url(#paint25_linear_11751_2177)"/>
<path opacity="0.6" d="M635.211 253.296C633.303 252.656 628.72 251.754 625.007 251.674C622.744 251.628 620.162 252.096 618.482 252.565C620.15 252.702 622.024 252.965 624.047 253.445C628.789 254.553 635.714 255.799 639.599 255.673C639.702 255.673 642.307 255.73 642.41 255.742C640.536 254.759 636.331 253.673 635.222 253.308L635.211 253.296Z" fill="url(#paint26_linear_11751_2177)"/>
<path opacity="0.48" d="M463.281 328.429C473.062 332.519 484.615 336.702 496.579 340.85C513.822 346.883 526.381 353.042 523.844 361.898C533.248 364.812 542.173 367.726 550.891 370.457C546.606 353.328 522.85 333.868 505.721 328.943C490.1 324.452 473.222 311.357 463.681 300.01C466.092 307.494 472.171 319.207 477.462 324.109C465.018 323.332 453.042 317.196 441.398 307.769C435.502 302.992 430.657 298.467 426.041 292.914C430.954 306.557 441.433 319.218 463.281 328.429Z" fill="url(#paint27_radial_11751_2177)"/>
<path opacity="0.6" d="M483.244 228.991C487.483 227.563 490.089 227.186 494.534 226.409C509.823 223.758 536.128 223.129 551.44 228.511C532.734 216.033 495.082 211.965 468.366 223.106C462.195 225.677 456.173 228.831 451.237 233.048C448.037 235.767 445.078 238.898 442.324 242.521C444.689 241.332 448.243 240.258 450.791 239.287C454.448 237.904 458.23 236.807 461.978 236.236C453.819 240.007 445.775 246.063 440.496 254.85C432.474 268.22 433.377 283.006 433.377 283.006C433.377 283.006 438.267 270.254 448.357 258.141C454.334 250.965 461.018 245.857 474.651 240.555C481.53 237.881 490.957 235.585 503.104 233.036C505.881 232.454 483.358 228.991 483.244 228.968V228.991Z" fill="url(#paint28_radial_11751_2177)"/>
<path opacity="0.8" d="M515.228 287.052C521.033 293.085 528.312 295.473 537.533 299.61C537.533 299.61 510.634 295.096 496.076 288.503C480.844 281.601 479.656 264.86 479.656 264.86C462.961 299.644 516.896 307.78 517.033 307.814C533.237 311.951 550.434 312.568 564.089 329.537C569.574 336.347 573.642 345.089 572.523 355.179C575.116 348.654 582.727 331.605 566.683 318.007C583.001 321.972 592.005 332.188 596.051 366.503C597.296 353.122 603.044 335.365 594.839 323.149C576.602 291.325 550.903 297.473 515.228 287.04V287.052Z" fill="url(#paint29_radial_11751_2177)"/>
</g>
<path d="M258.38 29.68H254.78V22.8H273.26C277.206 22.8 280.273 23.6267 282.46 25.28C284.7 26.9333 286.3 29.76 287.26 33.76C288.273 37.7067 288.78 43.2533 288.78 50.4C288.78 57.6533 288.273 63.2533 287.26 67.2C286.3 71.1467 284.7 73.9467 282.46 75.6C280.273 77.2 277.206 78 273.26 78H258.38V29.68ZM272.7 71.12C275.206 71.12 276.993 70.3733 278.06 68.88C279.18 67.3867 279.74 64.96 279.74 61.6V39.2C279.74 35.84 279.18 33.4133 278.06 31.92C276.993 30.4267 275.206 29.68 272.7 29.68H266.78V71.12H272.7ZM308.265 78.8C304.851 78.8 302.078 78.0267 299.945 76.48C297.865 74.9333 296.291 72.5333 295.225 69.28C294.211 66.0267 293.705 61.8133 293.705 56.64C293.705 51.4667 294.211 47.2533 295.225 44C296.291 40.7467 297.865 38.3467 299.945 36.8C302.078 35.2533 304.851 34.48 308.265 34.48C311.678 34.48 314.425 35.2533 316.505 36.8C318.638 38.3467 320.211 40.7467 321.225 44C322.291 47.2533 322.825 51.4667 322.825 56.64C322.825 61.8133 322.291 66.0267 321.225 69.28C320.211 72.5333 318.638 74.9333 316.505 76.48C314.425 78.0267 311.678 78.8 308.265 78.8ZM308.265 71.6C310.291 71.6 311.758 70.96 312.665 69.68C313.625 68.3467 314.105 66.2667 314.105 63.44V49.84C314.105 47.0133 313.625 44.96 312.665 43.68C311.758 42.3467 310.291 41.68 308.265 41.68C306.238 41.68 304.745 42.3467 303.785 43.68C302.878 44.96 302.425 47.0133 302.425 49.84V63.44C302.425 66.2667 302.878 68.3467 303.785 69.68C304.745 70.96 306.238 71.6 308.265 71.6ZM359.772 48.16C359.772 45.92 359.399 44.2933 358.652 43.28C357.959 42.2133 356.786 41.68 355.132 41.68C353.532 41.68 352.332 42.2133 351.532 43.28C350.786 44.2933 350.412 45.92 350.412 48.16V78H342.252V41.92H339.052V35.28H349.052V42.56H350.892C351.212 39.8933 352.039 37.8933 353.372 36.56C354.759 35.1733 356.626 34.48 358.972 34.48C361.266 34.48 363.026 35.1467 364.252 36.48C365.532 37.76 366.359 39.7867 366.732 42.56H368.412C368.732 39.8933 369.559 37.8933 370.892 36.56C372.279 35.1733 374.146 34.48 376.492 34.48C379.479 34.48 381.719 35.5467 383.212 37.68C384.759 39.76 385.532 42.88 385.532 47.04V71.36H388.732V78H377.372V48.16C377.372 45.92 376.999 44.2933 376.252 43.28C375.506 42.2133 374.306 41.68 372.652 41.68C371.052 41.68 369.879 42.2133 369.132 43.28C368.386 44.2933 368.012 45.92 368.012 48.16V78H359.772V48.16ZM406.44 78.8C403.026 78.8 400.253 78.0267 398.12 76.48C396.04 74.9333 394.466 72.5333 393.4 69.28C392.386 66.0267 391.88 61.8133 391.88 56.64C391.88 51.4667 392.386 47.2533 393.4 44C394.466 40.7467 396.04 38.3467 398.12 36.8C400.253 35.2533 403.026 34.48 406.44 34.48C409.853 34.48 412.6 35.2533 414.68 36.8C416.813 38.3467 418.386 40.7467 419.4 44C420.466 47.2533 421 51.4667 421 56.64C421 61.8133 420.466 66.0267 419.4 69.28C418.386 72.5333 416.813 74.9333 414.68 76.48C412.6 78.0267 409.853 78.8 406.44 78.8ZM406.44 71.6C408.466 71.6 409.933 70.96 410.84 69.68C411.8 68.3467 412.28 66.2667 412.28 63.44V49.84C412.28 47.0133 411.8 44.96 410.84 43.68C409.933 42.3467 408.466 41.68 406.44 41.68C404.413 41.68 402.92 42.3467 401.96 43.68C401.053 44.96 400.6 47.0133 400.6 49.84V63.44C400.6 66.2667 401.053 68.3467 401.96 69.68C402.92 70.96 404.413 71.6 406.44 71.6ZM427.546 41.92H424.346V35.28H434.346V42.72H436.186C436.559 40.0533 437.386 38.0533 438.666 36.72C439.999 35.3867 441.813 34.72 444.106 34.72H447.306V41.92H440.826C439.066 41.92 437.759 42.48 436.906 43.6C436.106 44.6667 435.706 46.4267 435.706 48.88V78H427.546V41.92ZM463.294 78.8C459.987 78.8 457.267 78.0267 455.134 76.48C453.001 74.9333 451.401 72.5333 450.334 69.28C449.321 66.0267 448.814 61.8133 448.814 56.64C448.814 51.4667 449.321 47.2533 450.334 44C451.401 40.7467 453.001 38.3467 455.134 36.8C457.267 35.2533 459.987 34.48 463.294 34.48C466.547 34.48 469.187 35.2 471.214 36.64C473.241 38.08 474.734 40.32 475.694 43.36C476.707 46.3467 477.214 50.24 477.214 55.04V58.32H454.014V52.24H474.334L469.134 55.36V49.68C469.134 46.7467 468.654 44.64 467.694 43.36C466.787 42.08 465.321 41.44 463.294 41.44C461.321 41.44 459.881 42.08 458.974 43.36C458.067 44.64 457.614 46.7467 457.614 49.68V63.44C457.614 66.2667 458.067 68.3467 458.974 69.68C459.881 70.96 461.321 71.6 463.294 71.6C464.574 71.6 465.614 71.36 466.414 70.88C467.214 70.4 467.801 69.76 468.174 68.96C468.547 68.1067 468.734 67.12 468.734 66V64.48H476.894C476.361 69.3867 474.974 73.0133 472.734 75.36C470.547 77.6533 467.401 78.8 463.294 78.8ZM209.761 107.28H218.081L222.721 142.4H224.481L229.601 107.28H238.161L243.201 142.4H245.041L249.681 107.28H257.681L251.361 150H238.081L234.561 125.12H232.881L229.361 150H216.081L209.761 107.28ZM263.028 113.92H259.588V107.28H271.348V150H263.028V113.92ZM262.548 94.8H271.508V102.96H262.548V94.8ZM285.831 150C283.964 150 282.524 149.52 281.511 148.56C280.551 147.547 280.071 146.133 280.071 144.32V107.28L283.271 99.28H288.311V143.36H294.071V150H285.831ZM275.511 107.28H294.071V113.92H275.511V107.28ZM299.326 101.44H296.126V94.8H307.566V103.84C307.566 105.76 307.3 109.12 306.766 113.92H308.526C309.006 111.413 309.886 109.547 311.166 108.32C312.446 107.093 314.206 106.48 316.446 106.48C319.593 106.48 321.94 107.547 323.486 109.68C325.086 111.76 325.886 114.88 325.886 119.04V143.36H329.086V150H317.726V120.56C317.726 118.16 317.326 116.427 316.526 115.36C315.726 114.24 314.42 113.68 312.606 113.68C310.846 113.68 309.566 114.24 308.766 115.36C307.966 116.427 307.566 118.16 307.566 120.56V150H299.326V101.44ZM346.973 94.8H361.933L368.493 129.84H370.253L376.813 94.8H391.773V150H383.293V102.72H381.533L372.893 150H365.613L356.973 102.72H355.213V150H346.973V94.8ZM412.416 150.8C409.003 150.8 406.23 150.027 404.096 148.48C402.016 146.933 400.443 144.533 399.376 141.28C398.363 138.027 397.856 133.813 397.856 128.64C397.856 123.467 398.363 119.253 399.376 116C400.443 112.747 402.016 110.347 404.096 108.8C406.23 107.253 409.003 106.48 412.416 106.48C415.83 106.48 418.576 107.253 420.656 108.8C422.79 110.347 424.363 112.747 425.376 116C426.443 119.253 426.976 123.467 426.976 128.64C426.976 133.813 426.443 138.027 425.376 141.28C424.363 144.533 422.79 146.933 420.656 148.48C418.576 150.027 415.83 150.8 412.416 150.8ZM412.416 143.6C414.443 143.6 415.91 142.96 416.816 141.68C417.776 140.347 418.256 138.267 418.256 135.44V121.84C418.256 119.013 417.776 116.96 416.816 115.68C415.91 114.347 414.443 113.68 412.416 113.68C410.39 113.68 408.896 114.347 407.936 115.68C407.03 116.96 406.576 119.013 406.576 121.84V135.44C406.576 138.267 407.03 140.347 407.936 141.68C408.896 142.96 410.39 143.6 412.416 143.6ZM430.177 143.36L445.937 113.92H430.257V107.28H454.977V113.92L439.217 143.36H455.057V150H430.177V143.36ZM460.931 113.92H457.491V107.28H469.251V150H460.931V113.92ZM460.451 94.8H469.411V102.96H460.451V94.8ZM476.854 101.44H473.414V94.8H485.174V150H476.854V101.44ZM492.86 101.44H489.42V94.8H501.18V150H492.86V101.44ZM516.386 150.8C513.346 150.8 510.973 149.787 509.266 147.76C507.56 145.733 506.706 142.853 506.706 139.12C506.706 135.067 507.666 131.947 509.586 129.76C511.506 127.52 514.44 126.16 518.386 125.68L525.426 124.72V130.8L520.226 131.44C518.466 131.707 517.186 132.267 516.386 133.12C515.586 133.92 515.186 135.173 515.186 136.88V138.72C515.186 140.427 515.586 141.707 516.386 142.56C517.24 143.413 518.493 143.84 520.146 143.84C521.96 143.84 523.293 143.36 524.146 142.4C525 141.387 525.426 139.813 525.426 137.68V129.44V128.08V120.24C525.426 117.947 525.026 116.293 524.226 115.28C523.48 114.213 522.226 113.68 520.466 113.68C518.76 113.68 517.506 114.16 516.706 115.12C515.906 116.08 515.506 117.467 515.506 119.28V120.8H507.346C507.826 115.733 509.106 112.08 511.186 109.84C513.32 107.6 516.466 106.48 520.626 106.48C524.946 106.48 528.173 107.627 530.306 109.92C532.493 112.213 533.586 115.653 533.586 120.24V143.36H536.866V150H532.386C530.573 150 529.186 149.52 528.226 148.56C527.266 147.6 526.786 146.213 526.786 144.4V142.88H525.026C524.6 145.547 523.693 147.547 522.306 148.88C520.92 150.16 518.946 150.8 516.386 150.8Z" fill="white"/>
</g>
<defs>
<linearGradient id="paint0_linear_11751_2177" x1="374.688" y1="401.013" x2="367.306" y2="198.378" gradientUnits="userSpaceOnUse">
<stop offset="0.17" stop-color="#210340"/>
<stop offset="0.36" stop-color="#29074C"/>
<stop offset="0.71" stop-color="#3E126D"/>
<stop offset="1" stop-color="#541D8F"/>
</linearGradient>
<linearGradient id="paint1_linear_11751_2177" x1="372.939" y1="433.065" x2="366.632" y2="323.332" gradientUnits="userSpaceOnUse">
<stop stop-color="#210340"/>
<stop offset="0.23" stop-color="#29074C"/>
<stop offset="0.65" stop-color="#3E126D"/>
<stop offset="1" stop-color="#541D8F"/>
</linearGradient>
<linearGradient id="paint2_linear_11751_2177" x1="180.761" y1="590.369" x2="440.21" y2="236.647" gradientUnits="userSpaceOnUse">
<stop stop-color="#FFEB49"/>
<stop offset="0.57" stop-color="#FF6600"/>
<stop offset="0.63" stop-color="#FE6009"/>
<stop offset="0.75" stop-color="#FD5322"/>
<stop offset="0.89" stop-color="#FC3C4C"/>
<stop offset="1" stop-color="#FB2872"/>
</linearGradient>
<radialGradient id="paint3_radial_11751_2177" cx="0" cy="0" r="1" gradientUnits="userSpaceOnUse" gradientTransform="translate(399.484 422.438) scale(127.102 127.102)">
<stop offset="0.07" stop-color="#FB2872"/>
<stop offset="1" stop-color="#FB2872" stop-opacity="0"/>
</radialGradient>
<radialGradient id="paint4_radial_11751_2177" cx="0" cy="0" r="1" gradientUnits="userSpaceOnUse" gradientTransform="translate(235.073 250.223) scale(209.227 209.228)">
<stop stop-color="#FFEB49"/>
<stop offset="1" stop-color="#FFEB49" stop-opacity="0"/>
</radialGradient>
<linearGradient id="paint5_linear_11751_2177" x1="373.305" y1="527.452" x2="364.506" y2="376.719" gradientUnits="userSpaceOnUse">
<stop stop-color="#210340"/>
<stop offset="0.23" stop-color="#29074C"/>
<stop offset="0.65" stop-color="#3E126D"/>
<stop offset="1" stop-color="#541D8F"/>
</linearGradient>
<linearGradient id="paint6_linear_11751_2177" x1="649.666" y1="301.45" x2="436.976" y2="640.853" gradientUnits="userSpaceOnUse">
<stop stop-color="#FFEB49"/>
<stop offset="0.57" stop-color="#FF6600"/>
<stop offset="0.63" stop-color="#FE6009"/>
<stop offset="0.75" stop-color="#FD5322"/>
<stop offset="0.89" stop-color="#FC3C4C"/>
<stop offset="1" stop-color="#FB2872"/>
</linearGradient>
<radialGradient id="paint7_radial_11751_2177" cx="0" cy="0" r="1" gradientUnits="userSpaceOnUse" gradientTransform="translate(617.613 373.257) scale(155.875 155.875)">
<stop stop-color="#FFEB49"/>
<stop offset="1" stop-color="#FFEB49" stop-opacity="0"/>
</radialGradient>
<radialGradient id="paint8_radial_11751_2177" cx="0" cy="0" r="1" gradientUnits="userSpaceOnUse" gradientTransform="translate(558.982 455.451) scale(114.978 114.978)">
<stop offset="0.07" stop-color="#FB2872"/>
<stop offset="1" stop-color="#FB2872" stop-opacity="0"/>
</radialGradient>
<linearGradient id="paint9_linear_11751_2177" x1="375.122" y1="609.086" x2="368.928" y2="501.273" gradientUnits="userSpaceOnUse">
<stop stop-color="#210340"/>
<stop offset="0.23" stop-color="#29074C"/>
<stop offset="0.65" stop-color="#3E126D"/>
<stop offset="1" stop-color="#541D8F"/>
</linearGradient>
<linearGradient id="paint10_linear_11751_2177" x1="13.5388" y1="439.041" x2="563.369" y2="750.152" gradientUnits="userSpaceOnUse">
<stop stop-color="#FFEB49"/>
<stop offset="0.57" stop-color="#FF6600"/>
<stop offset="0.7" stop-color="#FD5420"/>
<stop offset="1" stop-color="#FB2872"/>
</linearGradient>
<radialGradient id="paint11_radial_11751_2177" cx="0" cy="0" r="1" gradientUnits="userSpaceOnUse" gradientTransform="translate(169.094 548.523) scale(146.276 146.276)">
<stop offset="0.07" stop-color="#FB2872"/>
<stop offset="1" stop-color="#FB2872" stop-opacity="0"/>
</radialGradient>
<radialGradient id="paint12_radial_11751_2177" cx="0" cy="0" r="1" gradientUnits="userSpaceOnUse" gradientTransform="translate(189.525 469.254) scale(269.436 269.436)">
<stop stop-color="#FFEB49"/>
<stop offset="1" stop-color="#FFEB49" stop-opacity="0"/>
</radialGradient>
<linearGradient id="paint13_linear_11751_2177" x1="425.366" y1="494.131" x2="581.447" y2="189.705" gradientUnits="userSpaceOnUse">
<stop stop-color="#FFEB49"/>
<stop offset="0.09" stop-color="#FFC836"/>
<stop offset="0.22" stop-color="#FF9E1E"/>
<stop offset="0.33" stop-color="#FF7F0E"/>
<stop offset="0.43" stop-color="#FF6C03"/>
<stop offset="0.49" stop-color="#FF6600"/>
<stop offset="0.92" stop-color="#FB325E"/>
<stop offset="1" stop-color="#FB2872"/>
</linearGradient>
<radialGradient id="paint14_radial_11751_2177" cx="0" cy="0" r="1" gradientUnits="userSpaceOnUse" gradientTransform="translate(495.556 284.572) rotate(-87.82) scale(82.5255 82.5255)">
<stop stop-color="#BE0449"/>
<stop offset="0.06" stop-color="#C3064C" stop-opacity="0.92"/>
<stop offset="0.31" stop-color="#D61259" stop-opacity="0.59"/>
<stop offset="0.53" stop-color="#E61B64" stop-opacity="0.34"/>
<stop offset="0.73" stop-color="#F1226B" stop-opacity="0.15"/>
<stop offset="0.89" stop-color="#F82670" stop-opacity="0.04"/>
<stop offset="1" stop-color="#FB2872" stop-opacity="0"/>
</radialGradient>
<linearGradient id="paint15_linear_11751_2177" x1="656.789" y1="240.227" x2="650.029" y2="233.019" gradientUnits="userSpaceOnUse">
<stop offset="0.43" stop-color="#FF6600"/>
<stop offset="0.55" stop-color="#FE6403"/>
<stop offset="0.65" stop-color="#FE5E0E"/>
<stop offset="0.75" stop-color="#FD5420"/>
<stop offset="0.85" stop-color="#FC463A"/>
<stop offset="0.94" stop-color="#FB345B"/>
<stop offset="1" stop-color="#FB2872"/>
</linearGradient>
<linearGradient id="paint16_linear_11751_2177" x1="616.13" y1="248.932" x2="586.642" y2="264.872" gradientUnits="userSpaceOnUse">
<stop offset="0.24" stop-color="#BE0449"/>
<stop offset="0.45" stop-color="#D20F56"/>
<stop offset="0.8" stop-color="#EF216A"/>
<stop offset="1" stop-color="#FB2872"/>
</linearGradient>
<linearGradient id="paint17_linear_11751_2177" x1="648.773" y1="255.839" x2="673.291" y2="268.55" gradientUnits="userSpaceOnUse">
<stop offset="0.01" stop-color="#BE0449"/>
<stop offset="0.28" stop-color="#D20F56"/>
<stop offset="0.74" stop-color="#EF216A"/>
<stop offset="1" stop-color="#FB2872"/>
</linearGradient>
<linearGradient id="paint18_linear_11751_2177" x1="572.351" y1="240.887" x2="674.497" y2="240.887" gradientUnits="userSpaceOnUse">
<stop stop-color="#FF6600" stop-opacity="0"/>
<stop offset="0.1" stop-color="#FB2872" stop-opacity="0.1"/>
<stop offset="0.35" stop-color="#FF6600"/>
<stop offset="0.48" stop-color="#FF6600"/>
<stop offset="1" stop-color="#FFB029"/>
</linearGradient>
<linearGradient id="paint19_linear_11751_2177" x1="615.157" y1="267.809" x2="615.157" y2="234.636" gradientUnits="userSpaceOnUse">
<stop offset="0.35" stop-color="#FB2872"/>
<stop offset="0.46" stop-color="#FC5659" stop-opacity="0.66"/>
<stop offset="0.58" stop-color="#FD863F" stop-opacity="0.31"/>
<stop offset="0.67" stop-color="#FEA42F" stop-opacity="0.09"/>
<stop offset="0.71" stop-color="#FFB029" stop-opacity="0"/>
</linearGradient>
<radialGradient id="paint20_radial_11751_2177" cx="0" cy="0" r="1" gradientUnits="userSpaceOnUse" gradientTransform="translate(632.731 218.456) scale(30.4757)">
<stop offset="0.28" stop-color="#FFEB49" stop-opacity="0"/>
<stop offset="0.51" stop-color="#FFEB49" stop-opacity="0.11"/>
<stop offset="0.73" stop-color="#FFEB49" stop-opacity="0.2"/>
<stop offset="0.83" stop-color="#FFEB49" stop-opacity="0.12"/>
<stop offset="0.94" stop-color="#FFEB49" stop-opacity="0"/>
</radialGradient>
<linearGradient id="paint21_linear_11751_2177" x1="613.9" y1="248.998" x2="584.187" y2="255.195" gradientUnits="userSpaceOnUse">
<stop stop-color="#FA2771" stop-opacity="0.02"/>
<stop offset="0.1" stop-color="#F2256D" stop-opacity="0.25"/>
<stop offset="0.19" stop-color="#EB2369" stop-opacity="0.45"/>
<stop offset="0.28" stop-color="#E52266" stop-opacity="0.62"/>
<stop offset="0.38" stop-color="#E02164" stop-opacity="0.76"/>
<stop offset="0.48" stop-color="#DC2062" stop-opacity="0.87"/>
<stop offset="0.6" stop-color="#DA1F61" stop-opacity="0.94"/>
<stop offset="0.72" stop-color="#D81F60" stop-opacity="0.99"/>
<stop offset="0.88" stop-color="#D81F60"/>
</linearGradient>
<linearGradient id="paint22_linear_11751_2177" x1="660.317" y1="240.457" x2="658.972" y2="242.327" gradientUnits="userSpaceOnUse">
<stop offset="0.16" stop-color="#A030B9"/>
<stop offset="0.88" stop-color="#00073A"/>
</linearGradient>
<linearGradient id="paint23_linear_11751_2177" x1="644.762" y1="249.958" x2="666.846" y2="259.439" gradientUnits="userSpaceOnUse">
<stop stop-color="#FB2872" stop-opacity="0"/>
<stop offset="0.19" stop-color="#EF256C" stop-opacity="0.32"/>
<stop offset="0.41" stop-color="#E32165" stop-opacity="0.68"/>
<stop offset="0.57" stop-color="#DB1F61" stop-opacity="0.91"/>
<stop offset="0.65" stop-color="#D81F60"/>
</linearGradient>
<linearGradient id="paint24_linear_11751_2177" x1="655.264" y1="243.657" x2="651.784" y2="262.019" gradientUnits="userSpaceOnUse">
<stop stop-color="#FFEB49"/>
<stop offset="0.06" stop-color="#FED84C" stop-opacity="0.9"/>
<stop offset="0.21" stop-color="#FDAA56" stop-opacity="0.67"/>
<stop offset="0.35" stop-color="#FC825E" stop-opacity="0.46"/>
<stop offset="0.5" stop-color="#FC6265" stop-opacity="0.3"/>
<stop offset="0.64" stop-color="#FB486B" stop-opacity="0.17"/>
<stop offset="0.77" stop-color="#FB366E" stop-opacity="0.08"/>
<stop offset="0.89" stop-color="#FB2B71" stop-opacity="0.02"/>
<stop offset="1" stop-color="#FB2872" stop-opacity="0"/>
</linearGradient>
<linearGradient id="paint25_linear_11751_2177" x1="651.417" y1="238.111" x2="648.747" y2="230.956" gradientUnits="userSpaceOnUse">
<stop stop-color="#FF6600" stop-opacity="0"/>
<stop offset="0.19" stop-color="#FF6600" stop-opacity="0.31"/>
<stop offset="0.58" stop-color="#FF6600"/>
<stop offset="0.62" stop-color="#FE5B12"/>
<stop offset="0.74" stop-color="#FC453B"/>
<stop offset="0.85" stop-color="#FB3559"/>
<stop offset="0.94" stop-color="#FB2B6B"/>
<stop offset="1" stop-color="#FB2872"/>
</linearGradient>
<linearGradient id="paint26_linear_11751_2177" x1="630.828" y1="251.602" x2="627.2" y2="275.275" gradientUnits="userSpaceOnUse">
<stop stop-color="#FFEB49"/>
<stop offset="0.37" stop-color="#FFEB49" stop-opacity="0.59"/>
<stop offset="0.68" stop-color="#FFEB49" stop-opacity="0.27"/>
<stop offset="0.89" stop-color="#FFEB49" stop-opacity="0.08"/>
<stop offset="1" stop-color="#FFEB49" stop-opacity="0"/>
</linearGradient>
<radialGradient id="paint27_radial_11751_2177" cx="0" cy="0" r="1" gradientUnits="userSpaceOnUse" gradientTransform="translate(554.182 252.885) scale(162.983 162.983)">
<stop offset="0.07" stop-color="#FB2872"/>
<stop offset="1" stop-color="#FB2872" stop-opacity="0"/>
</radialGradient>
<radialGradient id="paint28_radial_11751_2177" cx="0" cy="0" r="1" gradientUnits="userSpaceOnUse" gradientTransform="translate(398.206 104.158) rotate(1.69) scale(202.823 220.46)">
<stop stop-color="#FFEB49"/>
<stop offset="1" stop-color="#FFEB49" stop-opacity="0"/>
</radialGradient>
<radialGradient id="paint29_radial_11751_2177" cx="0" cy="0" r="1" gradientUnits="userSpaceOnUse" gradientTransform="translate(603.599 189.486) rotate(-13.81) scale(171.779 179.012)">
<stop stop-color="#FFEB49"/>
<stop offset="0.88" stop-color="#FFEB49" stop-opacity="0"/>
</radialGradient>
<clipPath id="clip0_11751_2177">
<rect width="746.919" height="638" fill="white"/>
</clipPath>
<clipPath id="clip1_11751_2177">
<rect width="747.54" height="443" fill="white" transform="translate(-0.310547 195.453)"/>
</clipPath>
</defs>
</svg>
