<svg width="488" height="312" viewBox="0 0 488 312" fill="none" xmlns="http://www.w3.org/2000/svg">
<path d="M251.693 7.74816C251.693 7.74816 241.549 8.79071 236.18 12.4757C231.308 15.8199 230.585 17.7525 227.276 19.9187C219.851 24.7792 215.586 22.4191 215.987 17.4283C216.151 15.3844 216.694 12.7784 217.692 10.7884C219.268 7.64528 217.714 5.94789 215.492 4.84143C214.143 4.16937 212.513 4.2637 211.137 4.37704C210.861 4.39974 210.776 4.7507 211 4.91277C212.267 5.82797 212.613 6.84635 212.356 7.8074C211.656 10.4238 206.611 13.1683 204.431 16.2065C199.262 23.4117 200.295 31.4882 205.006 36.4909C213.113 45.0999 223.344 43.1762 239.351 39.4559C247.977 37.451 253.192 41.0614 253.192 41.0614L251.693 7.74816Z" fill="url(#paint0_linear_11562_36988)"/>
<path d="M281.97 86.3474C276.118 85.8875 272.945 74.6339 265.563 77.4252C253.415 82.0188 243.613 77.3252 240.276 72.3444C234.779 64.1391 244.115 60.3622 243.858 54.6824C243.433 51.9359 243.987 48.8656 244.467 46.707C231.756 49.5387 221.664 59.2956 218.343 71.8063C220.068 71.1484 221.793 70.6859 223.465 70.9189C238.906 73.6531 232.544 90.322 232.991 101.029C234.603 104.399 234.855 107.615 234.004 110.66C239.301 113.875 245.521 115.72 252.171 115.705C252.327 115.705 252.481 115.701 252.636 115.698C252.479 112.698 251.424 109.452 249.311 105.706C245.409 99.8792 252.608 89.7477 259.384 91.4266C267.956 93.7272 263.76 106.307 274.689 106.259C275.101 106.292 275.526 106.293 275.959 106.273C281.453 101.126 285.28 94.2252 286.549 86.4649C285.127 86.6878 283.567 86.6595 281.97 86.3474Z" fill="url(#paint1_radial_11562_36988)"/>
<path d="M232.991 101.026C232.544 90.3197 238.905 73.6508 223.465 70.9166C221.793 70.6836 220.068 71.1461 218.343 71.804C217.576 74.6943 217.168 77.7306 217.175 80.8632C217.203 93.4978 223.939 104.55 234.004 110.657C234.855 107.613 234.603 104.396 232.991 101.026Z" fill="url(#paint2_radial_11562_36988)"/>
<path opacity="0.2" d="M232.991 101.026C232.544 90.3197 238.905 73.6508 223.465 70.9166C221.793 70.6836 220.068 71.1461 218.343 71.804C217.576 74.6943 217.168 77.7306 217.175 80.8632C217.203 93.4978 223.939 104.55 234.004 110.657C234.855 107.613 234.603 104.396 232.991 101.026Z" fill="url(#paint3_linear_11562_36988)"/>
<path d="M243.857 54.6805C244.114 60.3602 234.779 64.1371 240.276 72.3425C243.612 77.3232 253.415 82.0168 265.563 77.4233C272.945 74.632 276.118 85.8856 281.97 86.3455C283.567 86.6576 285.127 86.6859 286.549 86.463C286.855 84.5898 287.015 82.6675 287.011 80.7069C286.988 70.7138 282.769 61.7115 276.027 55.3616C273.798 56.5314 271.376 57.947 268.832 59.6551C257.448 67.2975 255.106 70.3077 255.106 70.3077L252.258 67.6348C252.258 67.6348 256.769 61.8947 266.747 55.7524C268.74 54.5255 270.668 53.4194 272.477 52.4341C266.72 48.2878 259.651 45.8501 252.015 45.8673C249.422 45.8731 246.897 46.1637 244.467 46.7051C243.987 48.8637 243.433 51.934 243.857 54.6805Z" fill="url(#paint4_radial_11562_36988)"/>
<path opacity="0.2" d="M243.857 54.6805C244.114 60.3602 234.779 64.1371 240.276 72.3425C243.612 77.3232 253.415 82.0168 265.563 77.4233C272.945 74.632 276.118 85.8856 281.97 86.3455C283.567 86.6576 285.127 86.6859 286.549 86.463C286.855 84.5898 287.015 82.6675 287.011 80.7069C286.988 70.7138 282.769 61.7115 276.027 55.3616C273.798 56.5314 271.376 57.947 268.832 59.6551C257.448 67.2975 255.106 70.3077 255.106 70.3077L252.258 67.6348C252.258 67.6348 256.769 61.8947 266.747 55.7524C268.74 54.5255 270.668 53.4194 272.477 52.4341C266.72 48.2878 259.651 45.8501 252.015 45.8673C249.422 45.8731 246.897 46.1637 244.467 46.7051C243.987 48.8637 243.433 51.934 243.857 54.6805Z" fill="url(#paint5_linear_11562_36988)"/>
<path d="M252.258 67.6343L255.106 70.3072C255.106 70.3072 257.448 67.297 268.832 59.6546C271.376 57.9465 273.798 56.5309 276.026 55.3611C274.91 54.3098 273.724 53.3319 272.477 52.4336C270.667 53.4189 268.74 54.525 266.747 55.7519C256.768 61.8942 252.258 67.6343 252.258 67.6343Z" fill="url(#paint6_radial_11562_36988)"/>
<path opacity="0.2" d="M252.258 67.6343L255.106 70.3072C255.106 70.3072 257.448 67.297 268.832 59.6546C271.376 57.9465 273.798 56.5309 276.026 55.3611C274.91 54.3098 273.724 53.3319 272.477 52.4336C270.667 53.4189 268.74 54.525 266.747 55.7519C256.768 61.8942 252.258 67.6343 252.258 67.6343Z" fill="url(#paint7_linear_11562_36988)"/>
<path d="M252.258 67.6343L255.106 70.3072C255.106 70.3072 257.448 67.297 268.832 59.6546C271.376 57.9465 273.798 56.5309 276.026 55.3611C274.91 54.3098 273.724 53.3319 272.477 52.4336C270.667 53.4189 268.74 54.525 266.747 55.7519C256.768 61.8942 252.258 67.6343 252.258 67.6343Z" fill="url(#paint8_linear_11562_36988)"/>
<path d="M274.689 106.256C263.76 106.304 267.956 93.7241 259.384 91.4235C252.608 89.7447 245.409 99.8762 249.311 105.703C251.424 109.449 252.479 112.695 252.636 115.695C261.654 115.557 269.839 112.003 275.959 106.27C275.526 106.29 275.101 106.289 274.689 106.256Z" fill="url(#paint9_radial_11562_36988)"/>
<path opacity="0.2" d="M274.689 106.256C263.76 106.304 267.956 93.7241 259.384 91.4235C252.608 89.7447 245.409 99.8762 249.311 105.703C251.424 109.449 252.479 112.695 252.636 115.695C261.654 115.557 269.839 112.003 275.959 106.27C275.526 106.29 275.101 106.289 274.689 106.256Z" fill="url(#paint10_linear_11562_36988)"/>
<path d="M252.903 5.76565C254.045 5.7601 254.978 6.67689 254.993 7.81928L255.106 70.307C255.106 70.307 254.634 71.4246 252.975 71.3998C251.213 71.3735 250.945 70.3272 250.945 70.3272L250.833 7.87272C250.818 6.71737 251.747 5.77126 252.903 5.76565Z" fill="url(#paint11_linear_11562_36988)"/>
<path d="M69.4684 229.8C66.4818 229.8 64.0284 228.867 62.1084 227C60.2418 225.133 58.8284 222.12 57.8684 217.96C56.9084 213.8 56.4284 208.28 56.4284 201.4C56.4284 194.307 56.9618 188.707 58.0284 184.6C59.0951 180.493 60.7751 177.533 63.0684 175.72C65.3618 173.907 68.4284 173 72.2684 173C76.9618 173 80.5084 174.44 82.9084 177.32C85.3618 180.2 86.8551 184.92 87.3884 191.48H78.9084V187.8C78.9084 186.307 78.6684 185.027 78.1884 183.96C77.7618 182.84 77.0418 181.987 76.0284 181.4C75.0684 180.76 73.8151 180.44 72.2684 180.44C69.8684 180.44 68.1084 181.213 66.9884 182.76C65.9218 184.253 65.3884 186.68 65.3884 190.04V212.68C65.3884 216.093 65.9484 218.573 67.0684 220.12C68.1884 221.613 69.9751 222.36 72.4284 222.36C74.8284 222.36 76.5884 221.64 77.7084 220.2C78.8284 218.707 79.3884 216.44 79.3884 213.4V203.96L80.3484 207.4H72.5884V200.92H87.6284V229H80.8284V220.84H78.9884C78.5618 223.773 77.5484 226.013 75.9484 227.56C74.3484 229.053 72.1884 229.8 69.4684 229.8ZM107.843 229.8C104.429 229.8 101.656 229.027 99.5228 227.48C97.4428 225.933 95.8695 223.533 94.8028 220.28C93.7895 217.027 93.2828 212.813 93.2828 207.64C93.2828 202.467 93.7895 198.253 94.8028 195C95.8695 191.747 97.4428 189.347 99.5228 187.8C101.656 186.253 104.429 185.48 107.843 185.48C111.256 185.48 114.003 186.253 116.083 187.8C118.216 189.347 119.789 191.747 120.803 195C121.869 198.253 122.403 202.467 122.403 207.64C122.403 212.813 121.869 217.027 120.803 220.28C119.789 223.533 118.216 225.933 116.083 227.48C114.003 229.027 111.256 229.8 107.843 229.8ZM107.843 222.6C109.869 222.6 111.336 221.96 112.243 220.68C113.203 219.347 113.683 217.267 113.683 214.44V200.84C113.683 198.013 113.203 195.96 112.243 194.68C111.336 193.347 109.869 192.68 107.843 192.68C105.816 192.68 104.323 193.347 103.363 194.68C102.456 195.96 102.003 198.013 102.003 200.84V214.44C102.003 217.267 102.456 219.347 103.363 220.68C104.323 221.96 105.816 222.6 107.843 222.6ZM148.95 229.8C145.91 229.8 143.537 228.787 141.83 226.76C140.124 224.733 139.27 221.853 139.27 218.12C139.27 214.067 140.23 210.947 142.15 208.76C144.07 206.52 147.004 205.16 150.95 204.68L157.99 203.72V209.8L152.79 210.44C151.03 210.707 149.75 211.267 148.95 212.12C148.15 212.92 147.75 214.173 147.75 215.88V217.72C147.75 219.427 148.15 220.707 148.95 221.56C149.804 222.413 151.057 222.84 152.71 222.84C154.524 222.84 155.857 222.36 156.71 221.4C157.564 220.387 157.99 218.813 157.99 216.68V208.44V207.08V199.24C157.99 196.947 157.59 195.293 156.79 194.28C156.044 193.213 154.79 192.68 153.03 192.68C151.324 192.68 150.07 193.16 149.27 194.12C148.47 195.08 148.07 196.467 148.07 198.28V199.8H139.91C140.39 194.733 141.67 191.08 143.75 188.84C145.884 186.6 149.03 185.48 153.19 185.48C157.51 185.48 160.737 186.627 162.87 188.92C165.057 191.213 166.15 194.653 166.15 199.24V222.36H169.43V229H164.95C163.137 229 161.75 228.52 160.79 227.56C159.83 226.6 159.35 225.213 159.35 223.4V221.88H157.59C157.164 224.547 156.257 226.547 154.87 227.88C153.484 229.16 151.51 229.8 148.95 229.8ZM174.243 192.92H171.043V186.28H181.043V193.56H182.883C183.256 190.893 184.136 188.893 185.523 187.56C186.963 186.173 188.909 185.48 191.363 185.48C194.456 185.48 196.803 186.547 198.403 188.68C200.003 190.813 200.803 193.933 200.803 198.04V222.36H204.003V229H192.643V199.56C192.643 197.107 192.216 195.347 191.363 194.28C190.563 193.213 189.283 192.68 187.523 192.68C185.763 192.68 184.456 193.213 183.603 194.28C182.803 195.347 182.403 197.107 182.403 199.56V229H174.243V192.92ZM208.839 232.92H218.999L219.959 227.64H212.599L205.639 186.28H214.039L219.399 221.08H221.239L226.519 186.28H234.599L226.599 233.88C226.279 235.747 225.612 237.16 224.599 238.12C223.639 239.08 222.279 239.56 220.519 239.56H208.839V232.92ZM236.647 186.28H244.967L249.607 221.4H251.367L256.487 186.28H265.047L270.087 221.4H271.927L276.567 186.28H284.567L278.247 229H264.967L261.447 204.12H259.767L256.247 229H242.967L236.647 186.28ZM289.434 180.44H286.234V173.8H297.674V182.84C297.674 184.76 297.407 188.12 296.874 192.92H298.634C299.114 190.413 299.994 188.547 301.274 187.32C302.554 186.093 304.314 185.48 306.554 185.48C309.701 185.48 312.047 186.547 313.594 188.68C315.194 190.76 315.994 193.88 315.994 198.04V222.36H319.194V229H307.834V199.56C307.834 197.16 307.434 195.427 306.634 194.36C305.834 193.24 304.527 192.68 302.714 192.68C300.954 192.68 299.674 193.24 298.874 194.36C298.074 195.427 297.674 197.16 297.674 199.56V229H289.434V180.44ZM336.76 229.8C333.453 229.8 330.733 229.027 328.6 227.48C326.466 225.933 324.866 223.533 323.8 220.28C322.786 217.027 322.28 212.813 322.28 207.64C322.28 202.467 322.786 198.253 323.8 195C324.866 191.747 326.466 189.347 328.6 187.8C330.733 186.253 333.453 185.48 336.76 185.48C340.013 185.48 342.653 186.2 344.68 187.64C346.706 189.08 348.2 191.32 349.16 194.36C350.173 197.347 350.68 201.24 350.68 206.04V209.32H327.48V203.24H347.8L342.6 206.36V200.68C342.6 197.747 342.12 195.64 341.16 194.36C340.253 193.08 338.786 192.44 336.76 192.44C334.786 192.44 333.346 193.08 332.44 194.36C331.533 195.64 331.08 197.747 331.08 200.68V214.44C331.08 217.267 331.533 219.347 332.44 220.68C333.346 221.96 334.786 222.6 336.76 222.6C338.04 222.6 339.08 222.36 339.88 221.88C340.68 221.4 341.266 220.76 341.64 219.96C342.013 219.107 342.2 218.12 342.2 217V215.48H350.36C349.826 220.387 348.44 224.013 346.2 226.36C344.013 228.653 340.866 229.8 336.76 229.8ZM357.165 192.92H353.965V186.28H363.965V193.72H365.805C366.178 191.053 367.005 189.053 368.285 187.72C369.618 186.387 371.431 185.72 373.725 185.72H376.925V192.92H370.445C368.685 192.92 367.378 193.48 366.525 194.6C365.725 195.667 365.325 197.427 365.325 199.88V229H357.165V192.92ZM392.913 229.8C389.606 229.8 386.886 229.027 384.753 227.48C382.619 225.933 381.019 223.533 379.953 220.28C378.939 217.027 378.433 212.813 378.433 207.64C378.433 202.467 378.939 198.253 379.953 195C381.019 191.747 382.619 189.347 384.753 187.8C386.886 186.253 389.606 185.48 392.913 185.48C396.166 185.48 398.806 186.2 400.833 187.64C402.859 189.08 404.353 191.32 405.313 194.36C406.326 197.347 406.833 201.24 406.833 206.04V209.32H383.633V203.24H403.953L398.753 206.36V200.68C398.753 197.747 398.273 195.64 397.313 194.36C396.406 193.08 394.939 192.44 392.913 192.44C390.939 192.44 389.499 193.08 388.593 194.36C387.686 195.64 387.233 197.747 387.233 200.68V214.44C387.233 217.267 387.686 219.347 388.593 220.68C389.499 221.96 390.939 222.6 392.913 222.6C394.193 222.6 395.233 222.36 396.033 221.88C396.833 221.4 397.419 220.76 397.793 219.96C398.166 219.107 398.353 218.12 398.353 217V215.48H406.513C405.979 220.387 404.593 224.013 402.353 226.36C400.166 228.653 397.019 229.8 392.913 229.8ZM410.548 219.96H419.748V229H410.548V219.96ZM35.8072 301.8C32.3405 301.8 29.5405 301.16 27.4072 299.88C25.3272 298.547 23.7539 296.44 22.6872 293.56C21.6739 290.68 21.0605 286.787 20.8472 281.88H29.3272V286.6C29.3272 289.267 29.8339 291.24 30.8472 292.52C31.9139 293.747 33.5672 294.36 35.8072 294.36C37.8872 294.36 39.4605 293.853 40.5272 292.84C41.5939 291.827 42.1272 290.333 42.1272 288.36V285.4C42.1272 283.907 41.7272 282.627 40.9272 281.56C40.1805 280.493 38.9272 279.533 37.1672 278.68L30.4472 275.56C27.0339 273.853 24.6339 271.853 23.2472 269.56C21.8605 267.267 21.1672 264.067 21.1672 259.96C21.1672 254.947 22.3672 251.213 24.7672 248.76C27.2205 246.253 30.9005 245 35.8072 245C39.2739 245 42.0472 245.667 44.1272 247C46.2605 248.28 47.8339 250.36 48.8472 253.24C49.9139 256.12 50.5272 260.013 50.6872 264.92H42.2872V260.2C42.2872 257.533 41.7539 255.587 40.6872 254.36C39.6739 253.08 38.0472 252.44 35.8072 252.44C33.7805 252.44 32.2339 252.947 31.1672 253.96C30.1005 254.973 29.5672 256.467 29.5672 258.44V261.4C29.5672 262.947 29.9405 264.253 30.6872 265.32C31.4339 266.387 32.6872 267.32 34.4472 268.12L41.1672 271.24C44.5805 272.947 46.9805 274.973 48.3672 277.32C49.8072 279.613 50.5272 282.787 50.5272 286.84C50.5272 291.853 49.3005 295.613 46.8472 298.12C44.4472 300.573 40.7672 301.8 35.8072 301.8ZM57.2109 304.92H67.3709L68.3309 299.64H60.9709L54.0109 258.28H62.4109L67.7709 293.08H69.6109L74.8909 258.28H82.9709L74.9709 305.88C74.6509 307.747 73.9843 309.16 72.9709 310.12C72.0109 311.08 70.6509 311.56 68.8909 311.56H57.2109V304.92ZM88.2991 264.92H85.0991V258.28H95.0991V265.56H96.9391C97.3124 262.893 98.1924 260.893 99.5791 259.56C101.019 258.173 102.966 257.48 105.419 257.48C108.512 257.48 110.859 258.547 112.459 260.68C114.059 262.813 114.859 265.933 114.859 270.04V294.36H118.059V301H106.699V271.56C106.699 269.107 106.272 267.347 105.419 266.28C104.619 265.213 103.339 264.68 101.579 264.68C99.8191 264.68 98.5124 265.213 97.6591 266.28C96.8591 267.347 96.4591 269.107 96.4591 271.56V301H88.2991V264.92ZM135.528 301.8C132.221 301.8 129.501 301.027 127.368 299.48C125.288 297.933 123.741 295.533 122.728 292.28C121.714 289.027 121.208 284.813 121.208 279.64C121.208 274.467 121.714 270.253 122.728 267C123.741 263.747 125.288 261.347 127.368 259.8C129.501 258.253 132.221 257.48 135.528 257.48C139.634 257.48 142.781 258.733 144.968 261.24C147.208 263.693 148.594 267.587 149.128 272.92H140.888V270.68C140.888 269.453 140.701 268.387 140.328 267.48C139.954 266.573 139.368 265.88 138.568 265.4C137.768 264.92 136.754 264.68 135.528 264.68C133.608 264.68 132.194 265.32 131.288 266.6C130.434 267.88 130.008 269.907 130.008 272.68V286.6C130.008 289.373 130.434 291.4 131.288 292.68C132.194 293.96 133.608 294.6 135.528 294.6C136.754 294.6 137.768 294.36 138.568 293.88C139.368 293.347 139.954 292.627 140.328 291.72C140.701 290.76 140.888 289.587 140.888 288.2V285.72H149.128C148.754 291.267 147.448 295.347 145.208 297.96C142.968 300.52 139.741 301.8 135.528 301.8ZM180.825 301.8C177.519 301.8 174.799 301.027 172.665 299.48C170.532 297.933 168.932 295.533 167.865 292.28C166.852 289.027 166.345 284.813 166.345 279.64C166.345 274.467 166.852 270.253 167.865 267C168.932 263.747 170.532 261.347 172.665 259.8C174.799 258.253 177.519 257.48 180.825 257.48C184.079 257.48 186.719 258.2 188.745 259.64C190.772 261.08 192.265 263.32 193.225 266.36C194.239 269.347 194.745 273.24 194.745 278.04V281.32H171.545V275.24H191.865L186.665 278.36V272.68C186.665 269.747 186.185 267.64 185.225 266.36C184.319 265.08 182.852 264.44 180.825 264.44C178.852 264.44 177.412 265.08 176.505 266.36C175.599 267.64 175.145 269.747 175.145 272.68V286.44C175.145 289.267 175.599 291.347 176.505 292.68C177.412 293.96 178.852 294.6 180.825 294.6C182.105 294.6 183.145 294.36 183.945 293.88C184.745 293.4 185.332 292.76 185.705 291.96C186.079 291.107 186.265 290.12 186.265 289V287.48H194.425C193.892 292.387 192.505 296.013 190.265 298.36C188.079 300.653 184.932 301.8 180.825 301.8ZM197.478 258.28H205.878L211.158 293.4H212.998L218.358 258.28H226.438L219.318 301H204.518L197.478 258.28ZM243.697 301.8C240.391 301.8 237.671 301.027 235.537 299.48C233.404 297.933 231.804 295.533 230.737 292.28C229.724 289.027 229.217 284.813 229.217 279.64C229.217 274.467 229.724 270.253 230.737 267C231.804 263.747 233.404 261.347 235.537 259.8C237.671 258.253 240.391 257.48 243.697 257.48C246.951 257.48 249.591 258.2 251.617 259.64C253.644 261.08 255.137 263.32 256.097 266.36C257.111 269.347 257.617 273.24 257.617 278.04V281.32H234.417V275.24H254.737L249.537 278.36V272.68C249.537 269.747 249.057 267.64 248.097 266.36C247.191 265.08 245.724 264.44 243.697 264.44C241.724 264.44 240.284 265.08 239.377 266.36C238.471 267.64 238.017 269.747 238.017 272.68V286.44C238.017 289.267 238.471 291.347 239.377 292.68C240.284 293.96 241.724 294.6 243.697 294.6C244.977 294.6 246.017 294.36 246.817 293.88C247.617 293.4 248.204 292.76 248.577 291.96C248.951 291.107 249.137 290.12 249.137 289V287.48H257.297C256.764 292.387 255.377 296.013 253.137 298.36C250.951 300.653 247.804 301.8 243.697 301.8ZM264.102 264.92H260.902V258.28H270.902V265.72H272.742C273.116 263.053 273.942 261.053 275.222 259.72C276.556 258.387 278.369 257.72 280.662 257.72H283.862V264.92H277.382C275.622 264.92 274.316 265.48 273.462 266.6C272.662 267.667 272.262 269.427 272.262 271.88V301H264.102V264.92ZM289.402 304.92H299.562L300.522 299.64H293.162L286.202 258.28H294.602L299.962 293.08H301.802L307.082 258.28H315.162L307.162 305.88C306.842 307.747 306.175 309.16 305.162 310.12C304.202 311.08 302.842 311.56 301.082 311.56H289.402V304.92ZM326.97 301C325.103 301 323.663 300.52 322.65 299.56C321.69 298.547 321.21 297.133 321.21 295.32V258.28L324.41 250.28H329.45V294.36H335.21V301H326.97ZM316.65 258.28H335.21V264.92H316.65V258.28ZM340.465 252.44H337.265V245.8H348.705V254.84C348.705 256.76 348.439 260.12 347.905 264.92H349.665C350.145 262.413 351.025 260.547 352.305 259.32C353.585 258.093 355.345 257.48 357.585 257.48C360.732 257.48 363.079 258.547 364.625 260.68C366.225 262.76 367.025 265.88 367.025 270.04V294.36H370.225V301H358.865V271.56C358.865 269.16 358.465 267.427 357.665 266.36C356.865 265.24 355.559 264.68 353.745 264.68C351.985 264.68 350.705 265.24 349.905 266.36C349.105 267.427 348.705 269.16 348.705 271.56V301H340.465V252.44ZM375.311 264.92H371.871V258.28H383.631V301H375.311V264.92ZM374.831 245.8H383.791V253.96H374.831V245.8ZM391.633 264.92H388.433V258.28H398.433V265.56H400.273C400.647 262.893 401.527 260.893 402.913 259.56C404.353 258.173 406.3 257.48 408.753 257.48C411.847 257.48 414.193 258.547 415.793 260.68C417.393 262.813 418.193 265.933 418.193 270.04V294.36H421.393V301H410.033V271.56C410.033 269.107 409.607 267.347 408.753 266.28C407.953 265.213 406.673 264.68 404.913 264.68C403.153 264.68 401.847 265.213 400.993 266.28C400.193 267.347 399.793 269.107 399.793 271.56V301H391.633V264.92ZM425.342 304.92H441.342C442.676 304.92 443.609 304.68 444.142 304.2C444.729 303.773 445.022 303.08 445.022 302.12C445.022 301.16 444.729 300.467 444.142 300.04C443.609 299.56 442.676 299.32 441.342 299.32H433.262C430.542 299.32 428.462 298.84 427.022 297.88C425.636 296.867 424.942 295.4 424.942 293.48C424.942 291.773 425.502 290.44 426.622 289.48C427.796 288.467 429.342 287.933 431.262 287.88V286.28C429.022 285.427 427.342 283.907 426.222 281.72C425.156 279.48 424.622 276.52 424.622 272.84C424.622 267.667 425.742 263.827 427.982 261.32C430.222 258.76 433.556 257.48 437.982 257.48C442.462 257.48 445.796 258.76 447.982 261.32C450.222 263.827 451.342 267.667 451.342 272.84C451.342 277.907 450.249 281.667 448.062 284.12C445.876 286.52 442.569 287.72 438.142 287.72H435.662C434.596 287.72 433.796 287.907 433.262 288.28C432.782 288.653 432.542 289.213 432.542 289.96C432.542 290.707 432.782 291.267 433.262 291.64C433.742 291.96 434.542 292.12 435.662 292.12H443.022C446.382 292.12 448.916 292.947 450.622 294.6C452.382 296.2 453.262 298.52 453.262 301.56C453.262 304.813 452.302 307.293 450.382 309C448.462 310.707 445.636 311.56 441.902 311.56H425.342V304.92ZM437.982 281.24C439.796 281.24 441.102 280.76 441.902 279.8C442.756 278.787 443.182 277.213 443.182 275.08V270.44C443.182 268.307 442.756 266.76 441.902 265.8C441.102 264.84 439.796 264.36 437.982 264.36C436.222 264.36 434.916 264.84 434.062 265.8C433.209 266.76 432.782 268.307 432.782 270.44V275.08C432.782 277.213 433.209 278.787 434.062 279.8C434.916 280.76 436.222 281.24 437.982 281.24ZM442.942 259.72C442.942 257 443.476 254.973 444.542 253.64C445.609 252.307 447.236 251.64 449.422 251.64H453.262V258.28H446.942C446.036 258.28 445.369 258.547 444.942 259.08C444.569 259.56 444.382 260.333 444.382 261.4L442.942 259.72ZM457.36 291.96H466.56V301H457.36V291.96Z" fill="white"/>
<defs>
<linearGradient id="paint0_linear_11562_36988" x1="196.634" y1="11.9791" x2="270.977" y2="38.4674" gradientUnits="userSpaceOnUse">
<stop stop-color="#FFEB49"/>
<stop offset="0.5677" stop-color="#FF6600"/>
<stop offset="0.6347" stop-color="#FF6109"/>
<stop offset="0.746" stop-color="#FE5323"/>
<stop offset="0.887" stop-color="#FC3D4C"/>
<stop offset="1" stop-color="#FB2872"/>
</linearGradient>
<radialGradient id="paint1_radial_11562_36988" cx="0" cy="0" r="1" gradientUnits="userSpaceOnUse" gradientTransform="translate(239.811 56.0959) scale(74.8163 74.8163)">
<stop stop-color="#F942FF"/>
<stop offset="0.151" stop-color="#F641FF"/>
<stop offset="0.2649" stop-color="#EC40FF"/>
<stop offset="0.3667" stop-color="#DC3CFF"/>
<stop offset="0.4613" stop-color="#C538FF"/>
<stop offset="0.5511" stop-color="#A832FF"/>
<stop offset="0.6372" stop-color="#832BFF"/>
<stop offset="0.7187" stop-color="#5922FF"/>
<stop offset="0.797" stop-color="#2919FF"/>
</radialGradient>
<radialGradient id="paint2_radial_11562_36988" cx="0" cy="0" r="1" gradientUnits="userSpaceOnUse" gradientTransform="translate(239.81 56.0936) scale(74.8163 74.8163)">
<stop stop-color="#F942FF"/>
<stop offset="0.151" stop-color="#F641FF"/>
<stop offset="0.2649" stop-color="#EC40FF"/>
<stop offset="0.3667" stop-color="#DC3CFF"/>
<stop offset="0.4613" stop-color="#C538FF"/>
<stop offset="0.5511" stop-color="#A832FF"/>
<stop offset="0.6372" stop-color="#832BFF"/>
<stop offset="0.7187" stop-color="#5922FF"/>
<stop offset="0.797" stop-color="#2919FF"/>
</radialGradient>
<linearGradient id="paint3_linear_11562_36988" x1="210.822" y1="111.668" x2="235.958" y2="78.1985" gradientUnits="userSpaceOnUse">
<stop stop-color="#2919FF"/>
<stop offset="0.6972" stop-color="#0E01A8"/>
</linearGradient>
<radialGradient id="paint4_radial_11562_36988" cx="0" cy="0" r="1" gradientUnits="userSpaceOnUse" gradientTransform="translate(239.81 56.094) scale(74.8163 74.8163)">
<stop stop-color="#F942FF"/>
<stop offset="0.151" stop-color="#F641FF"/>
<stop offset="0.2649" stop-color="#EC40FF"/>
<stop offset="0.3667" stop-color="#DC3CFF"/>
<stop offset="0.4613" stop-color="#C538FF"/>
<stop offset="0.5511" stop-color="#A832FF"/>
<stop offset="0.6372" stop-color="#832BFF"/>
<stop offset="0.7187" stop-color="#5922FF"/>
<stop offset="0.797" stop-color="#2919FF"/>
</radialGradient>
<linearGradient id="paint5_linear_11562_36988" x1="253.248" y1="82.9062" x2="278.67" y2="49.0555" gradientUnits="userSpaceOnUse">
<stop stop-color="#2919FF"/>
<stop offset="0.6972" stop-color="#0E01A8"/>
</linearGradient>
<radialGradient id="paint6_radial_11562_36988" cx="0" cy="0" r="1" gradientUnits="userSpaceOnUse" gradientTransform="translate(239.81 56.0935) scale(74.8163 74.8163)">
<stop stop-color="#F942FF"/>
<stop offset="0.151" stop-color="#F641FF"/>
<stop offset="0.2649" stop-color="#EC40FF"/>
<stop offset="0.3667" stop-color="#DC3CFF"/>
<stop offset="0.4613" stop-color="#C538FF"/>
<stop offset="0.5511" stop-color="#A832FF"/>
<stop offset="0.6372" stop-color="#832BFF"/>
<stop offset="0.7187" stop-color="#5922FF"/>
<stop offset="0.797" stop-color="#2919FF"/>
</radialGradient>
<linearGradient id="paint7_linear_11562_36988" x1="249.932" y1="80.4159" x2="275.354" y2="46.5652" gradientUnits="userSpaceOnUse">
<stop stop-color="#2919FF"/>
<stop offset="0.6972" stop-color="#0E01A8"/>
</linearGradient>
<linearGradient id="paint8_linear_11562_36988" x1="232.301" y1="80.5727" x2="269.424" y2="57.8281" gradientUnits="userSpaceOnUse">
<stop stop-color="#2919FF"/>
<stop offset="1" stop-color="#2919FF" stop-opacity="0"/>
</linearGradient>
<radialGradient id="paint9_radial_11562_36988" cx="0" cy="0" r="1" gradientUnits="userSpaceOnUse" gradientTransform="translate(239.811 56.0929) scale(74.8163 74.8163)">
<stop stop-color="#F942FF"/>
<stop offset="0.151" stop-color="#F641FF"/>
<stop offset="0.2649" stop-color="#EC40FF"/>
<stop offset="0.3667" stop-color="#DC3CFF"/>
<stop offset="0.4613" stop-color="#C538FF"/>
<stop offset="0.5511" stop-color="#A832FF"/>
<stop offset="0.6372" stop-color="#832BFF"/>
<stop offset="0.7187" stop-color="#5922FF"/>
<stop offset="0.797" stop-color="#2919FF"/>
</radialGradient>
<linearGradient id="paint10_linear_11562_36988" x1="241.431" y1="129.922" x2="268.782" y2="93.5029" gradientUnits="userSpaceOnUse">
<stop stop-color="#2919FF"/>
<stop offset="0.6972" stop-color="#0E01A8"/>
</linearGradient>
<linearGradient id="paint11_linear_11562_36988" x1="249.964" y1="38.5829" x2="257.48" y2="38.5829" gradientUnits="userSpaceOnUse">
<stop stop-color="#F942FF"/>
<stop offset="0.151" stop-color="#F641FF"/>
<stop offset="0.2649" stop-color="#EC40FF"/>
<stop offset="0.3667" stop-color="#DC3CFF"/>
<stop offset="0.4613" stop-color="#C538FF"/>
<stop offset="0.5511" stop-color="#A832FF"/>
<stop offset="0.6372" stop-color="#832BFF"/>
<stop offset="0.7187" stop-color="#5922FF"/>
<stop offset="0.797" stop-color="#2919FF"/>
</linearGradient>
</defs>
</svg>
