<svg width="576" height="628" viewBox="0 0 576 628" fill="none" xmlns="http://www.w3.org/2000/svg">
<path d="M39.952 45.44C37.1787 45.44 34.9387 44.928 33.232 43.904C31.568 42.8374 30.3093 41.152 29.456 38.848C28.6453 36.544 28.1547 33.4294 27.984 29.504H34.768V33.28C34.768 35.4134 35.1733 36.992 35.984 38.016C36.8373 38.9974 38.16 39.488 39.952 39.488C41.616 39.488 42.8747 39.0827 43.728 38.272C44.5813 37.4614 45.008 36.2667 45.008 34.688V32.32C45.008 31.1254 44.688 30.1014 44.048 29.248C43.4507 28.3947 42.448 27.6267 41.04 26.944L35.664 24.448C32.9333 23.0827 31.0133 21.4827 29.904 19.648C28.7947 17.8134 28.24 15.2534 28.24 11.968C28.24 7.95738 29.2 4.97071 31.12 3.00805C33.0827 1.00271 36.0267 4.57764e-05 39.952 4.57764e-05C42.7253 4.57764e-05 44.944 0.53338 46.608 1.60005C48.3147 2.62405 49.5733 4.28805 50.384 6.59205C51.2373 8.89605 51.728 12.0107 51.856 15.936H45.136V12.16C45.136 10.0267 44.7093 8.46938 43.856 7.48805C43.0453 6.46405 41.744 5.95205 39.952 5.95205C38.3307 5.95205 37.0933 6.35738 36.24 7.16805C35.3867 7.97872 34.96 9.17338 34.96 10.752V13.12C34.96 14.3574 35.2587 15.4027 35.856 16.256C36.4533 17.1094 37.456 17.856 38.864 18.496L44.24 20.992C46.9707 22.3574 48.8907 23.9787 50 25.856C51.152 27.6907 51.728 30.2294 51.728 33.472C51.728 37.4827 50.7467 40.4907 48.784 42.496C46.864 44.4587 43.92 45.44 39.952 45.44ZM57.075 47.936H65.203L65.971 43.712H60.083L54.515 10.624H61.235L65.523 38.464H66.995L71.219 10.624H77.683L71.283 48.704C71.027 50.1974 70.4937 51.328 69.683 52.096C68.915 52.864 67.827 53.248 66.419 53.248H57.075V47.936ZM81.9455 15.936H79.3855V10.624H87.3855V16.448H88.8575C89.1562 14.3147 89.8602 12.7147 90.9695 11.648C92.1215 10.5387 93.6788 9.98405 95.6415 9.98405C98.1162 9.98405 99.9935 10.8374 101.274 12.544C102.554 14.2507 103.194 16.7467 103.194 20.032V39.488H105.754V44.8H96.6655V21.248C96.6655 19.2854 96.3242 17.8774 95.6415 17.024C95.0015 16.1707 93.9775 15.744 92.5695 15.744C91.1615 15.744 90.1162 16.1707 89.4335 17.024C88.7935 17.8774 88.4735 19.2854 88.4735 21.248V44.8H81.9455V15.936ZM119.729 45.44C117.083 45.44 114.907 44.8214 113.201 43.584C111.537 42.3467 110.299 40.4267 109.489 37.824C108.678 35.2214 108.273 31.8507 108.273 27.712C108.273 23.5734 108.678 20.2027 109.489 17.6C110.299 14.9974 111.537 13.0774 113.201 11.84C114.907 10.6027 117.083 9.98405 119.729 9.98405C123.014 9.98405 125.531 10.9867 127.281 12.992C129.073 14.9547 130.182 18.0694 130.609 22.336H124.017V20.544C124.017 19.5627 123.867 18.7094 123.569 17.984C123.27 17.2587 122.801 16.704 122.161 16.32C121.521 15.936 120.71 15.744 119.729 15.744C118.193 15.744 117.062 16.256 116.337 17.28C115.654 18.304 115.313 19.9254 115.313 22.144V33.28C115.313 35.4987 115.654 37.12 116.337 38.144C117.062 39.168 118.193 39.68 119.729 39.68C120.71 39.68 121.521 39.488 122.161 39.104C122.801 38.6774 123.27 38.1014 123.569 37.376C123.867 36.608 124.017 35.6694 124.017 34.56V32.576H130.609C130.31 37.0134 129.265 40.2774 127.473 42.368C125.681 44.416 123.099 45.44 119.729 45.44ZM151.295 44.8C149.801 44.8 148.649 44.416 147.839 43.648C147.071 42.8374 146.687 41.7067 146.687 40.256V10.624L149.247 4.22405H153.279V39.488H157.887V44.8H151.295ZM143.039 10.624H157.887V15.936H143.039V10.624ZM162.091 5.95205H159.531V0.640045H168.683V7.87205C168.683 9.40805 168.47 12.096 168.043 15.936H169.451C169.835 13.9307 170.539 12.4374 171.563 11.456C172.587 10.4747 173.995 9.98405 175.787 9.98405C178.304 9.98405 180.182 10.8374 181.419 12.544C182.699 14.208 183.339 16.704 183.339 20.032V39.488H185.899V44.8H176.811V21.248C176.811 19.328 176.491 17.9414 175.851 17.088C175.211 16.192 174.166 15.744 172.715 15.744C171.307 15.744 170.283 16.192 169.643 17.088C169.003 17.9414 168.683 19.328 168.683 21.248V44.8H162.091V5.95205ZM199.951 45.44C197.306 45.44 195.13 44.8214 193.423 43.584C191.717 42.3467 190.437 40.4267 189.583 37.824C188.773 35.2214 188.367 31.8507 188.367 27.712C188.367 23.5734 188.773 20.2027 189.583 17.6C190.437 14.9974 191.717 13.0774 193.423 11.84C195.13 10.6027 197.306 9.98405 199.951 9.98405C202.554 9.98405 204.666 10.56 206.287 11.712C207.909 12.864 209.103 14.656 209.871 17.088C210.682 19.4774 211.087 22.592 211.087 26.432V29.056H192.527V24.192H208.783L204.623 26.688V22.144C204.623 19.7974 204.239 18.112 203.471 17.088C202.746 16.064 201.573 15.552 199.951 15.552C198.373 15.552 197.221 16.064 196.495 17.088C195.77 18.112 195.407 19.7974 195.407 22.144V33.152C195.407 35.4134 195.77 37.0774 196.495 38.144C197.221 39.168 198.373 39.68 199.951 39.68C200.975 39.68 201.807 39.488 202.447 39.104C203.087 38.72 203.557 38.208 203.855 37.568C204.154 36.8854 204.303 36.096 204.303 35.2V33.984H210.831C210.405 37.9094 209.295 40.8107 207.503 42.688C205.754 44.5227 203.237 45.44 199.951 45.44ZM225.044 45.44C221.63 45.44 219.092 44.5654 217.428 42.816C215.764 41.024 214.718 38.08 214.292 33.984H220.82V35.328C220.82 36.2667 220.948 37.0774 221.204 37.76C221.502 38.4427 221.95 38.976 222.548 39.36C223.188 39.7014 224.02 39.872 225.044 39.872C226.452 39.872 227.497 39.5734 228.18 38.976C228.905 38.336 229.268 37.376 229.268 36.096C229.268 34.9867 229.012 34.112 228.5 33.472C228.03 32.7894 227.156 32.1494 225.876 31.552L221.076 29.44C218.729 28.3307 217.044 27.0507 216.02 25.6C214.996 24.1494 214.484 22.272 214.484 19.968C214.484 16.7254 215.38 14.2507 217.172 12.544C218.964 10.8374 221.609 9.98405 225.108 9.98405C228.478 9.98405 230.996 10.88 232.66 12.672C234.324 14.4214 235.369 17.344 235.796 21.44H229.396V20.096C229.396 19.1574 229.246 18.3467 228.948 17.664C228.649 16.9814 228.18 16.4694 227.54 16.128C226.942 15.744 226.132 15.552 225.108 15.552C223.742 15.552 222.697 15.872 221.972 16.512C221.289 17.1094 220.948 18.048 220.948 19.328C220.948 20.4374 221.182 21.3334 221.652 22.016C222.164 22.656 223.038 23.2747 224.276 23.872L229.076 25.984C231.465 27.0934 233.172 28.3734 234.196 29.824C235.262 31.2747 235.796 33.152 235.796 35.456C235.796 38.6987 234.878 41.1734 233.044 42.88C231.252 44.5867 228.585 45.44 225.044 45.44ZM250.686 45.44C248.041 45.44 245.865 44.8214 244.158 43.584C242.452 42.3467 241.172 40.4267 240.318 37.824C239.508 35.2214 239.102 31.8507 239.102 27.712C239.102 23.5734 239.508 20.2027 240.318 17.6C241.172 14.9974 242.452 13.0774 244.158 11.84C245.865 10.6027 248.041 9.98405 250.686 9.98405C253.289 9.98405 255.401 10.56 257.022 11.712C258.644 12.864 259.838 14.656 260.606 17.088C261.417 19.4774 261.822 22.592 261.822 26.432V29.056H243.262V24.192H259.518L255.358 26.688V22.144C255.358 19.7974 254.974 18.112 254.206 17.088C253.481 16.064 252.308 15.552 250.686 15.552C249.108 15.552 247.956 16.064 247.23 17.088C246.505 18.112 246.142 19.7974 246.142 22.144V33.152C246.142 35.4134 246.505 37.0774 247.23 38.144C247.956 39.168 249.108 39.68 250.686 39.68C251.71 39.68 252.542 39.488 253.182 39.104C253.822 38.72 254.292 38.208 254.59 37.568C254.889 36.8854 255.038 36.096 255.038 35.2V33.984H261.566C261.14 37.9094 260.03 40.8107 258.238 42.688C256.489 44.5227 253.972 45.44 250.686 45.44ZM283.011 45.44C280.579 45.44 278.681 44.6294 277.315 43.008C275.95 41.3867 275.267 39.0827 275.267 36.096C275.267 32.8534 276.035 30.3574 277.571 28.608C279.107 26.816 281.454 25.728 284.611 25.344L290.243 24.576V29.44L286.083 29.952C284.675 30.1654 283.651 30.6134 283.011 31.296C282.371 31.936 282.051 32.9387 282.051 34.304V35.776C282.051 37.1414 282.371 38.1654 283.011 38.848C283.694 39.5307 284.697 39.872 286.019 39.872C287.47 39.872 288.537 39.488 289.219 38.72C289.902 37.9094 290.243 36.6507 290.243 34.944V28.352V27.264V20.992C290.243 19.1574 289.923 17.8347 289.283 17.024C288.686 16.1707 287.683 15.744 286.275 15.744C284.91 15.744 283.907 16.128 283.267 16.896C282.627 17.664 282.307 18.7734 282.307 20.224V21.44H275.779C276.163 17.3867 277.187 14.464 278.851 12.672C280.558 10.88 283.075 9.98405 286.403 9.98405C289.859 9.98405 292.441 10.9014 294.147 12.736C295.897 14.5707 296.771 17.3227 296.771 20.992V39.488H299.395V44.8H295.811C294.361 44.8 293.251 44.416 292.483 43.648C291.715 42.88 291.331 41.7707 291.331 40.32V39.104H289.923C289.582 41.2374 288.857 42.8374 287.747 43.904C286.638 44.928 285.059 45.44 283.011 45.44ZM312.974 45.44C310.328 45.44 308.152 44.8214 306.446 43.584C304.782 42.3467 303.544 40.4267 302.734 37.824C301.923 35.2214 301.518 31.8507 301.518 27.712C301.518 23.5734 301.923 20.2027 302.734 17.6C303.544 14.9974 304.782 13.0774 306.446 11.84C308.152 10.6027 310.328 9.98405 312.974 9.98405C316.259 9.98405 318.776 10.9867 320.526 12.992C322.318 14.9547 323.427 18.0694 323.854 22.336H317.262V20.544C317.262 19.5627 317.112 18.7094 316.814 17.984C316.515 17.2587 316.046 16.704 315.406 16.32C314.766 15.936 313.955 15.744 312.974 15.744C311.438 15.744 310.307 16.256 309.582 17.28C308.899 18.304 308.558 19.9254 308.558 22.144V33.28C308.558 35.4987 308.899 37.12 309.582 38.144C310.307 39.168 311.438 39.68 312.974 39.68C313.955 39.68 314.766 39.488 315.406 39.104C316.046 38.6774 316.515 38.1014 316.814 37.376C317.112 36.608 317.262 35.6694 317.262 34.56V32.576H323.854C323.555 37.0134 322.51 40.2774 320.718 42.368C318.926 44.416 316.344 45.44 312.974 45.44ZM329.05 15.936H326.49V10.624H334.49V16.576H335.962C336.261 14.4427 336.922 12.8427 337.946 11.776C339.013 10.7094 340.464 10.176 342.298 10.176H344.858V15.936H339.674C338.266 15.936 337.221 16.384 336.538 17.28C335.898 18.1334 335.578 19.5414 335.578 21.504V44.8H329.05V15.936ZM357.713 45.44C354.982 45.44 352.764 44.8214 351.057 43.584C349.393 42.3467 348.134 40.4267 347.281 37.824C346.47 35.2214 346.065 31.8507 346.065 27.712C346.065 23.5734 346.47 20.2027 347.281 17.6C348.134 14.9974 349.393 13.0774 351.057 11.84C352.764 10.6027 354.982 9.98405 357.713 9.98405C360.444 9.98405 362.641 10.6027 364.305 11.84C366.012 13.0774 367.27 14.9974 368.081 17.6C368.934 20.2027 369.361 23.5734 369.361 27.712C369.361 31.8507 368.934 35.2214 368.081 37.824C367.27 40.4267 366.012 42.3467 364.305 43.584C362.641 44.8214 360.444 45.44 357.713 45.44ZM357.713 39.68C359.334 39.68 360.508 39.168 361.233 38.144C362.001 37.0774 362.385 35.4134 362.385 33.152V22.272C362.385 20.0107 362.001 18.368 361.233 17.344C360.508 16.2774 359.334 15.744 357.713 15.744C356.092 15.744 354.897 16.2774 354.129 17.344C353.404 18.368 353.041 20.0107 353.041 22.272V33.152C353.041 35.4134 353.404 37.0774 354.129 38.144C354.897 39.168 356.092 39.68 357.713 39.68ZM383.366 45.44C379.953 45.44 377.414 44.5654 375.75 42.816C374.086 41.024 373.041 38.08 372.614 33.984H379.142V35.328C379.142 36.2667 379.27 37.0774 379.526 37.76C379.825 38.4427 380.273 38.976 380.87 39.36C381.51 39.7014 382.342 39.872 383.366 39.872C384.774 39.872 385.819 39.5734 386.502 38.976C387.227 38.336 387.59 37.376 387.59 36.096C387.59 34.9867 387.334 34.112 386.822 33.472C386.353 32.7894 385.478 32.1494 384.198 31.552L379.398 29.44C377.051 28.3307 375.366 27.0507 374.342 25.6C373.318 24.1494 372.806 22.272 372.806 19.968C372.806 16.7254 373.702 14.2507 375.494 12.544C377.286 10.8374 379.931 9.98405 383.43 9.98405C386.801 9.98405 389.318 10.88 390.982 12.672C392.646 14.4214 393.691 17.344 394.118 21.44H387.718V20.096C387.718 19.1574 387.569 18.3467 387.27 17.664C386.971 16.9814 386.502 16.4694 385.862 16.128C385.265 15.744 384.454 15.552 383.43 15.552C382.065 15.552 381.019 15.872 380.294 16.512C379.611 17.1094 379.27 18.048 379.27 19.328C379.27 20.4374 379.505 21.3334 379.974 22.016C380.486 22.656 381.361 23.2747 382.598 23.872L387.398 25.984C389.787 27.0934 391.494 28.3734 392.518 29.824C393.585 31.2747 394.118 33.152 394.118 35.456C394.118 38.6987 393.201 41.1734 391.366 42.88C389.574 44.5867 386.907 45.44 383.366 45.44ZM407.921 45.44C404.508 45.44 401.969 44.5654 400.305 42.816C398.641 41.024 397.596 38.08 397.169 33.984H403.697V35.328C403.697 36.2667 403.825 37.0774 404.081 37.76C404.38 38.4427 404.828 38.976 405.425 39.36C406.065 39.7014 406.897 39.872 407.921 39.872C409.329 39.872 410.374 39.5734 411.057 38.976C411.782 38.336 412.145 37.376 412.145 36.096C412.145 34.9867 411.889 34.112 411.377 33.472C410.908 32.7894 410.033 32.1494 408.753 31.552L403.953 29.44C401.606 28.3307 399.921 27.0507 398.897 25.6C397.873 24.1494 397.361 22.272 397.361 19.968C397.361 16.7254 398.257 14.2507 400.049 12.544C401.841 10.8374 404.486 9.98405 407.985 9.98405C411.356 9.98405 413.873 10.88 415.537 12.672C417.201 14.4214 418.246 17.344 418.673 21.44H412.273V20.096C412.273 19.1574 412.124 18.3467 411.825 17.664C411.526 16.9814 411.057 16.4694 410.417 16.128C409.82 15.744 409.009 15.552 407.985 15.552C406.62 15.552 405.574 15.872 404.849 16.512C404.166 17.1094 403.825 18.048 403.825 19.328C403.825 20.4374 404.06 21.3334 404.529 22.016C405.041 22.656 405.916 23.2747 407.153 23.872L411.953 25.984C414.342 27.0934 416.049 28.3734 417.073 29.824C418.14 31.2747 418.673 33.152 418.673 35.456C418.673 38.6987 417.756 41.1734 415.921 42.88C414.129 44.5867 411.462 45.44 407.921 45.44ZM29.52 105.936H37.648L38.416 101.712H32.528L26.96 68.624H33.68L37.968 96.464H39.44L43.664 68.624H50.128L43.728 106.704C43.472 108.197 42.9387 109.328 42.128 110.096C41.36 110.864 40.272 111.248 38.864 111.248H29.52V105.936ZM63.998 103.44C61.2673 103.44 59.0487 102.821 57.342 101.584C55.678 100.347 54.4193 98.4267 53.566 95.824C52.7553 93.2214 52.35 89.8507 52.35 85.712C52.35 81.5734 52.7553 78.2027 53.566 75.6C54.4193 72.9974 55.678 71.0774 57.342 69.84C59.0487 68.6027 61.2673 67.984 63.998 67.984C66.7287 67.984 68.926 68.6027 70.59 69.84C72.2967 71.0774 73.5553 72.9974 74.366 75.6C75.2193 78.2027 75.646 81.5734 75.646 85.712C75.646 89.8507 75.2193 93.2214 74.366 95.824C73.5553 98.4267 72.2967 100.347 70.59 101.584C68.926 102.821 66.7287 103.44 63.998 103.44ZM63.998 97.68C65.6193 97.68 66.7927 97.168 67.518 96.144C68.286 95.0774 68.67 93.4134 68.67 91.152V80.272C68.67 78.0107 68.286 76.368 67.518 75.344C66.7927 74.2774 65.6193 73.744 63.998 73.744C62.3767 73.744 61.182 74.2774 60.414 75.344C59.6887 76.368 59.326 78.0107 59.326 80.272V91.152C59.326 93.4134 59.6887 95.0774 60.414 96.144C61.182 97.168 62.3767 97.68 63.998 97.68ZM88.243 103.44C85.7257 103.44 83.827 102.608 82.547 100.944C81.267 99.2374 80.627 96.72 80.627 93.392V73.936H78.131V68.624H87.219V92.176C87.219 94.1387 87.539 95.5467 88.179 96.4C88.819 97.2534 89.843 97.68 91.251 97.68C92.7017 97.68 93.747 97.2534 94.387 96.4C95.027 95.5467 95.347 94.1387 95.347 92.176V68.624H101.939V97.488H104.435V102.8H100.979C99.4857 102.8 98.355 102.416 97.587 101.648C96.819 100.88 96.435 99.7494 96.435 98.256V96.976H95.027C94.7283 99.1094 94.003 100.731 92.851 101.84C91.7417 102.907 90.2057 103.44 88.243 103.44ZM108.938 73.936H106.378V68.624H114.378V74.576H115.85C116.149 72.4427 116.81 70.8427 117.834 69.776C118.901 68.7094 120.351 68.176 122.186 68.176H124.746V73.936H119.562C118.154 73.936 117.109 74.384 116.426 75.28C115.786 76.1334 115.466 77.5414 115.466 79.504V102.8H108.938V73.936ZM145.718 103.44C143.755 103.44 142.112 102.8 140.79 101.52C139.467 100.24 138.464 98.2774 137.782 95.632C137.099 92.9867 136.758 89.68 136.758 85.712C136.758 81.7014 137.099 78.3947 137.782 75.792C138.464 73.1467 139.467 71.184 140.79 69.904C142.112 68.624 143.755 67.984 145.718 67.984C147.467 67.984 148.854 68.496 149.878 69.52C150.902 70.5014 151.606 71.9947 151.99 74H153.462C153.035 70.16 152.822 67.472 152.822 65.936V63.952H150.006V58.64H159.35V97.488H161.974V102.8H158.454C157.003 102.8 155.872 102.416 155.062 101.648C154.294 100.837 153.91 99.7067 153.91 98.256V96.848H152.502C152.16 98.9814 151.414 100.624 150.262 101.776C149.11 102.885 147.595 103.44 145.718 103.44ZM148.342 97.68C149.878 97.68 151.008 97.168 151.734 96.144C152.459 95.12 152.822 93.4774 152.822 91.216V80.208C152.822 77.9467 152.459 76.304 151.734 75.28C151.008 74.256 149.878 73.744 148.342 73.744C146.763 73.744 145.611 74.256 144.886 75.28C144.16 76.304 143.798 77.9467 143.798 80.208V91.216C143.798 93.4774 144.16 95.12 144.886 96.144C145.611 97.168 146.763 97.68 148.342 97.68ZM176.084 103.44C173.439 103.44 171.263 102.821 169.556 101.584C167.849 100.347 166.569 98.4267 165.716 95.824C164.905 93.2214 164.5 89.8507 164.5 85.712C164.5 81.5734 164.905 78.2027 165.716 75.6C166.569 72.9974 167.849 71.0774 169.556 69.84C171.263 68.6027 173.439 67.984 176.084 67.984C178.687 67.984 180.799 68.56 182.42 69.712C184.041 70.864 185.236 72.656 186.004 75.088C186.815 77.4774 187.22 80.592 187.22 84.432V87.056H168.66V82.192H184.916L180.756 84.688V80.144C180.756 77.7974 180.372 76.112 179.604 75.088C178.879 74.064 177.705 73.552 176.084 73.552C174.505 73.552 173.353 74.064 172.628 75.088C171.903 76.112 171.54 77.7974 171.54 80.144V91.152C171.54 93.4134 171.903 95.0774 172.628 96.144C173.353 97.168 174.505 97.68 176.084 97.68C177.108 97.68 177.94 97.488 178.58 97.104C179.22 96.72 179.689 96.208 179.988 95.568C180.287 94.8854 180.436 94.096 180.436 93.2V91.984H186.964C186.537 95.9094 185.428 98.8107 183.636 100.688C181.887 102.523 179.369 103.44 176.084 103.44ZM189.406 68.624H196.126L200.35 96.72H201.822L206.11 68.624H212.574L206.878 102.8H195.038L189.406 68.624ZM216.71 73.936H213.958V68.624H223.366V102.8H216.71V73.936ZM216.326 58.64H223.494V65.168H216.326V58.64ZM239.496 103.44C236.851 103.44 234.675 102.821 232.968 101.584C231.304 100.347 230.067 98.4267 229.256 95.824C228.445 93.2214 228.04 89.8507 228.04 85.712C228.04 81.5734 228.445 78.2027 229.256 75.6C230.067 72.9974 231.304 71.0774 232.968 69.84C234.675 68.6027 236.851 67.984 239.496 67.984C242.781 67.984 245.299 68.9867 247.048 70.992C248.84 72.9547 249.949 76.0694 250.376 80.336H243.784V78.544C243.784 77.5627 243.635 76.7094 243.336 75.984C243.037 75.2587 242.568 74.704 241.928 74.32C241.288 73.936 240.477 73.744 239.496 73.744C237.96 73.744 236.829 74.256 236.104 75.28C235.421 76.304 235.08 77.9254 235.08 80.144V91.28C235.08 93.4987 235.421 95.12 236.104 96.144C236.829 97.168 237.96 97.68 239.496 97.68C240.477 97.68 241.288 97.488 241.928 97.104C242.568 96.6774 243.037 96.1014 243.336 95.376C243.635 94.608 243.784 93.6694 243.784 92.56V90.576H250.376C250.077 95.0134 249.032 98.2774 247.24 100.368C245.448 102.416 242.867 103.44 239.496 103.44ZM265.429 103.44C262.784 103.44 260.608 102.821 258.901 101.584C257.194 100.347 255.914 98.4267 255.061 95.824C254.25 93.2214 253.845 89.8507 253.845 85.712C253.845 81.5734 254.25 78.2027 255.061 75.6C255.914 72.9974 257.194 71.0774 258.901 69.84C260.608 68.6027 262.784 67.984 265.429 67.984C268.032 67.984 270.144 68.56 271.765 69.712C273.386 70.864 274.581 72.656 275.349 75.088C276.16 77.4774 276.565 80.592 276.565 84.432V87.056H258.005V82.192H274.261L270.101 84.688V80.144C270.101 77.7974 269.717 76.112 268.949 75.088C268.224 74.064 267.05 73.552 265.429 73.552C263.85 73.552 262.698 74.064 261.973 75.088C261.248 76.112 260.885 77.7974 260.885 80.144V91.152C260.885 93.4134 261.248 95.0774 261.973 96.144C262.698 97.168 263.85 97.68 265.429 97.68C266.453 97.68 267.285 97.488 267.925 97.104C268.565 96.72 269.034 96.208 269.333 95.568C269.632 94.8854 269.781 94.096 269.781 93.2V91.984H276.309C275.882 95.9094 274.773 98.8107 272.981 100.688C271.232 102.523 268.714 103.44 265.429 103.44ZM290.521 103.44C287.108 103.44 284.569 102.565 282.905 100.816C281.241 99.024 280.196 96.08 279.769 91.984H286.297V93.328C286.297 94.2667 286.425 95.0774 286.681 95.76C286.98 96.4427 287.428 96.976 288.025 97.36C288.665 97.7014 289.497 97.872 290.521 97.872C291.929 97.872 292.974 97.5734 293.657 96.976C294.382 96.336 294.745 95.376 294.745 94.096C294.745 92.9867 294.489 92.112 293.977 91.472C293.508 90.7894 292.633 90.1494 291.353 89.552L286.553 87.44C284.206 86.3307 282.521 85.0507 281.497 83.6C280.473 82.1494 279.961 80.272 279.961 77.968C279.961 74.7254 280.857 72.2507 282.649 70.544C284.441 68.8374 287.086 67.984 290.585 67.984C293.956 67.984 296.473 68.88 298.137 70.672C299.801 72.4214 300.846 75.344 301.273 79.44H294.873V78.096C294.873 77.1574 294.724 76.3467 294.425 75.664C294.126 74.9814 293.657 74.4694 293.017 74.128C292.42 73.744 291.609 73.552 290.585 73.552C289.22 73.552 288.174 73.872 287.449 74.512C286.766 75.1094 286.425 76.048 286.425 77.328C286.425 78.4374 286.66 79.3334 287.129 80.016C287.641 80.656 288.516 81.2747 289.753 81.872L294.553 83.984C296.942 85.0934 298.649 86.3734 299.673 87.824C300.74 89.2747 301.273 91.152 301.273 93.456C301.273 96.6987 300.356 99.1734 298.521 100.88C296.729 102.587 294.062 103.44 290.521 103.44Z" fill="white"/>
<path d="M26 174.8C26 161.545 36.7452 150.8 50 150.8C63.2548 150.8 74 161.545 74 174.8C74 188.055 63.2548 198.8 50 198.8C36.7452 198.8 26 188.055 26 174.8Z" fill="#3A0F6E" fill-opacity="0.3"/>
<path d="M45.23 184.3C44.79 184.3 44.34 184.16 43.97 183.89C43.25 183.37 42.93 182.48 43.15 181.62L44.21 177.47L40.91 174.73C40.23 174.16 39.96 173.25 40.24 172.41C40.51 171.57 41.26 170.98 42.15 170.93L46.43 170.65L48.01 166.67C48.34 165.85 49.12 165.31 50.01 165.31C50.9 165.31 51.68 165.84 52.01 166.67L53.59 170.65L57.87 170.93C58.75 170.99 59.5 171.57 59.78 172.41C60.05 173.25 59.79 174.17 59.11 174.73L55.81 177.47L56.87 181.62C57.09 182.48 56.77 183.37 56.05 183.89C55.33 184.41 54.38 184.44 53.63 183.97L50.01 181.68L46.39 183.97C46.04 184.19 45.64 184.31 45.24 184.31L45.23 184.3ZM50 167.05C49.9 167.05 49.71 167.08 49.63 167.3L47.84 171.8C47.72 172.11 47.42 172.33 47.08 172.35L42.25 172.66C42.01 172.68 41.92 172.84 41.89 172.94C41.86 173.02 41.83 173.22 42.02 173.38L45.74 176.47C46 176.69 46.11 177.03 46.03 177.36L44.84 182.05C44.78 182.28 44.91 182.42 44.99 182.48C45.07 182.54 45.24 182.62 45.44 182.49L49.53 179.9C49.82 179.72 50.18 179.72 50.46 179.9L54.55 182.49C54.75 182.62 54.92 182.54 55 182.48C55.08 182.42 55.21 182.28 55.15 182.05L53.95 177.36C53.87 177.03 53.98 176.69 54.24 176.47L57.96 173.38C58.15 173.22 58.11 173.02 58.09 172.95C58.06 172.85 57.97 172.69 57.73 172.67L52.9 172.36C52.56 172.34 52.27 172.12 52.14 171.81L50.35 167.31C50.26 167.09 50.08 167.06 49.98 167.06L50 167.05Z" fill="white"/>
<path d="M95.36 170.764H94.24V169.26H100.064C101.099 169.26 101.899 169.516 102.464 170.028C103.029 170.54 103.312 171.265 103.312 172.204C103.312 172.887 103.152 173.415 102.832 173.788C102.512 174.151 102.037 174.364 101.408 174.428V174.908C102.08 174.972 102.581 175.196 102.912 175.58C103.253 175.953 103.424 176.508 103.424 177.244C103.424 178.225 103.136 178.983 102.56 179.516C101.984 180.039 101.168 180.3 100.112 180.3H95.36V170.764ZM99.968 178.796C100.437 178.796 100.784 178.679 101.008 178.444C101.243 178.209 101.36 177.847 101.36 177.356V176.812C101.36 176.321 101.243 175.959 101.008 175.724C100.784 175.479 100.437 175.356 99.968 175.356H97.376V178.796H99.968ZM99.936 173.98C100.373 173.98 100.699 173.868 100.912 173.644C101.136 173.409 101.248 173.057 101.248 172.588V172.124C101.248 171.665 101.141 171.324 100.928 171.1C100.715 170.876 100.384 170.764 99.936 170.764H97.376V173.98H99.936ZM108.828 180.46C107.975 180.46 107.244 180.289 106.636 179.948C106.028 179.607 105.564 179.105 105.244 178.444C104.935 177.783 104.78 176.977 104.78 176.028C104.78 175.079 104.935 174.273 105.244 173.612C105.564 172.951 106.028 172.449 106.636 172.108C107.244 171.767 107.975 171.596 108.828 171.596C109.671 171.596 110.396 171.767 111.004 172.108C111.612 172.449 112.071 172.951 112.38 173.612C112.7 174.273 112.86 175.079 112.86 176.028C112.86 176.977 112.7 177.783 112.38 178.444C112.071 179.105 111.612 179.607 111.004 179.948C110.396 180.289 109.671 180.46 108.828 180.46ZM108.828 178.908C109.5 178.908 109.991 178.721 110.3 178.348C110.62 177.975 110.78 177.383 110.78 176.572V175.484C110.78 174.673 110.62 174.081 110.3 173.708C109.991 173.335 109.5 173.148 108.828 173.148C108.146 173.148 107.644 173.335 107.324 173.708C107.015 174.081 106.86 174.673 106.86 175.484V176.572C106.86 177.383 107.015 177.975 107.324 178.348C107.644 178.721 108.146 178.908 108.828 178.908ZM118.156 180.46C117.303 180.46 116.572 180.289 115.964 179.948C115.356 179.607 114.892 179.105 114.572 178.444C114.263 177.783 114.108 176.977 114.108 176.028C114.108 175.079 114.263 174.273 114.572 173.612C114.892 172.951 115.356 172.449 115.964 172.108C116.572 171.767 117.303 171.596 118.156 171.596C118.999 171.596 119.724 171.767 120.332 172.108C120.94 172.449 121.399 172.951 121.708 173.612C122.028 174.273 122.188 175.079 122.188 176.028C122.188 176.977 122.028 177.783 121.708 178.444C121.399 179.105 120.94 179.607 120.332 179.948C119.724 180.289 118.999 180.46 118.156 180.46ZM118.156 178.908C118.828 178.908 119.319 178.721 119.628 178.348C119.948 177.975 120.108 177.383 120.108 176.572V175.484C120.108 174.673 119.948 174.081 119.628 173.708C119.319 173.335 118.828 173.148 118.156 173.148C117.474 173.148 116.972 173.335 116.652 173.708C116.343 174.081 116.188 174.673 116.188 175.484V176.572C116.188 177.383 116.343 177.975 116.652 178.348C116.972 178.721 117.474 178.908 118.156 178.908ZM123.885 170.7H122.909V169.26H125.853V175.196H126.877L129.325 171.756H131.597L128.349 176.252V175.308L130.749 178.86H131.725V180.3H129.293L126.877 176.572H125.853V180.3H123.885V170.7ZM138.145 174.94C138.145 174.332 138.022 173.884 137.777 173.596C137.542 173.297 137.179 173.148 136.689 173.148C136.198 173.148 135.83 173.297 135.585 173.596C135.35 173.884 135.233 174.332 135.233 174.94V180.3H133.265V173.196H132.289V171.756H134.961V173.372H135.441C135.601 172.764 135.857 172.316 136.209 172.028C136.561 171.74 137.03 171.596 137.617 171.596C138.203 171.596 138.678 171.745 139.041 172.044C139.403 172.332 139.665 172.775 139.825 173.372H140.273C140.433 172.764 140.689 172.316 141.041 172.028C141.403 171.74 141.883 171.596 142.481 171.596C143.291 171.596 143.91 171.857 144.337 172.38C144.763 172.903 144.977 173.665 144.977 174.668V178.86H145.953V180.3H143.009V174.94C143.009 174.332 142.886 173.884 142.641 173.596C142.406 173.297 142.043 173.148 141.553 173.148C141.062 173.148 140.699 173.297 140.465 173.596C140.23 173.884 140.113 174.332 140.113 174.94V180.3H138.145V174.94ZM149.388 180.46C148.556 180.46 147.905 180.247 147.436 179.82C146.977 179.393 146.748 178.796 146.748 178.028C146.748 177.26 146.998 176.657 147.5 176.22C148.001 175.783 148.748 175.516 149.74 175.42L151.964 175.196V176.46L150.316 176.636C149.772 176.679 149.377 176.791 149.132 176.972C148.886 177.153 148.764 177.415 148.764 177.756V177.9C148.764 178.241 148.892 178.503 149.148 178.684C149.404 178.865 149.772 178.956 150.252 178.956C150.817 178.956 151.244 178.833 151.532 178.588C151.82 178.343 151.964 177.975 151.964 177.484V176.252V176.012V174.828C151.964 174.241 151.841 173.815 151.596 173.548C151.361 173.281 150.982 173.148 150.46 173.148C149.937 173.148 149.548 173.265 149.292 173.5C149.046 173.724 148.924 174.007 148.924 174.348V174.46H146.924C147.073 173.5 147.446 172.785 148.044 172.316C148.641 171.836 149.457 171.596 150.492 171.596C151.622 171.596 152.476 171.868 153.052 172.412C153.638 172.956 153.932 173.751 153.932 174.796V178.86H154.908V180.3H153.484C153.078 180.3 152.769 180.193 152.556 179.98C152.353 179.767 152.252 179.457 152.252 179.052V178.732H151.772C151.601 179.329 151.324 179.767 150.94 180.044C150.556 180.321 150.038 180.46 149.388 180.46ZM156.327 173.196H155.351V171.756H158.023V173.388H158.503C158.685 172.791 158.951 172.353 159.303 172.076C159.655 171.788 160.125 171.644 160.711 171.644H161.751V173.196H159.895C159.341 173.196 158.935 173.351 158.679 173.66C158.423 173.969 158.295 174.449 158.295 175.1V180.3H156.327V173.196ZM163.244 170.7H162.268V169.26H165.212V175.196H166.236L168.684 171.756H170.956L167.708 176.252V175.308L170.108 178.86H171.084V180.3H168.652L166.236 176.572H165.212V180.3H163.244V170.7ZM175.287 180.46C174.167 180.46 173.309 180.231 172.711 179.772C172.125 179.313 171.751 178.588 171.591 177.596H173.559V177.724C173.559 177.959 173.613 178.167 173.719 178.348C173.837 178.529 174.023 178.679 174.279 178.796C174.546 178.903 174.882 178.956 175.287 178.956C175.831 178.956 176.242 178.871 176.519 178.7C176.807 178.529 176.951 178.284 176.951 177.964C176.951 177.708 176.866 177.511 176.695 177.372C176.525 177.233 176.226 177.111 175.799 177.004L174.039 176.636C173.207 176.444 172.605 176.161 172.231 175.788C171.858 175.415 171.671 174.908 171.671 174.268C171.671 173.415 171.981 172.759 172.599 172.3C173.218 171.831 174.103 171.596 175.255 171.596C176.365 171.596 177.213 171.825 177.799 172.284C178.386 172.743 178.754 173.468 178.903 174.46H176.967V174.332C176.967 174.097 176.909 173.889 176.791 173.708C176.674 173.527 176.487 173.383 176.231 173.276C175.986 173.159 175.661 173.1 175.255 173.1C174.733 173.1 174.333 173.185 174.055 173.356C173.778 173.527 173.639 173.772 173.639 174.092C173.639 174.348 173.725 174.545 173.895 174.684C174.066 174.823 174.354 174.945 174.759 175.052L176.519 175.42C177.362 175.612 177.975 175.895 178.359 176.268C178.743 176.641 178.935 177.143 178.935 177.772C178.935 178.636 178.621 179.303 177.991 179.772C177.362 180.231 176.461 180.46 175.287 180.46Z" fill="white"/>
<path d="M260 174.8C260 161.545 270.745 150.8 284 150.8C297.255 150.8 308 161.545 308 174.8C308 188.055 297.255 198.8 284 198.8C270.745 198.8 260 188.055 260 174.8Z" fill="#3A0F6E" fill-opacity="0.3"/>
<path fill-rule="evenodd" clip-rule="evenodd" d="M279 173.8V169.8C279 167.039 281.239 164.8 284 164.8C286.761 164.8 289 167.039 289 169.8V173.8C290.38 173.8 291.5 174.92 291.5 176.3V182.3C291.5 183.68 290.38 184.8 289 184.8H279C277.62 184.8 276.5 183.68 276.5 182.3V176.3C276.5 174.92 277.62 173.8 279 173.8ZM280.75 169.8C280.75 168.005 282.205 166.55 284 166.55C285.795 166.55 287.25 168.005 287.25 169.8V173.8H280.75V169.8ZM278.25 176.3C278.25 175.886 278.586 175.55 279 175.55H289C289.414 175.55 289.75 175.886 289.75 176.3V182.3C289.75 182.714 289.414 183.05 289 183.05H279C278.586 183.05 278.25 182.714 278.25 182.3V176.3Z" fill="white"/>
<path d="M329.344 170.764H328.24V169.26H333.984C335.093 169.26 335.936 169.543 336.512 170.108C337.088 170.663 337.376 171.484 337.376 172.572C337.376 173.628 337.088 174.433 336.512 174.988C335.947 175.532 335.115 175.804 334.016 175.804H331.376V180.3H329.344V170.764ZM333.84 174.412C334.331 174.412 334.699 174.284 334.944 174.028C335.189 173.772 335.312 173.388 335.312 172.876V172.284C335.312 171.772 335.189 171.393 334.944 171.148C334.699 170.892 334.331 170.764 333.84 170.764H331.376V174.412H333.84ZM340.903 180.46C340.071 180.46 339.42 180.247 338.951 179.82C338.492 179.393 338.263 178.796 338.263 178.028C338.263 177.26 338.514 176.657 339.015 176.22C339.516 175.783 340.263 175.516 341.255 175.42L343.479 175.196V176.46L341.831 176.636C341.287 176.679 340.892 176.791 340.647 176.972C340.402 177.153 340.279 177.415 340.279 177.756V177.9C340.279 178.241 340.407 178.503 340.663 178.684C340.919 178.865 341.287 178.956 341.767 178.956C342.332 178.956 342.759 178.833 343.047 178.588C343.335 178.343 343.479 177.975 343.479 177.484V176.252V176.012V174.828C343.479 174.241 343.356 173.815 343.111 173.548C342.876 173.281 342.498 173.148 341.975 173.148C341.452 173.148 341.063 173.265 340.807 173.5C340.562 173.724 340.439 174.007 340.439 174.348V174.46H338.439C338.588 173.5 338.962 172.785 339.559 172.316C340.156 171.836 340.972 171.596 342.007 171.596C343.138 171.596 343.991 171.868 344.567 172.412C345.154 172.956 345.447 173.751 345.447 174.796V178.86H346.423V180.3H344.999C344.594 180.3 344.284 180.193 344.071 179.98C343.868 179.767 343.767 179.457 343.767 179.052V178.732H343.287C343.116 179.329 342.839 179.767 342.455 180.044C342.071 180.321 341.554 180.46 340.903 180.46ZM350.803 180.46C349.683 180.46 348.824 180.231 348.227 179.772C347.64 179.313 347.267 178.588 347.107 177.596H349.075V177.724C349.075 177.959 349.128 178.167 349.235 178.348C349.352 178.529 349.539 178.679 349.795 178.796C350.062 178.903 350.398 178.956 350.803 178.956C351.347 178.956 351.758 178.871 352.035 178.7C352.323 178.529 352.467 178.284 352.467 177.964C352.467 177.708 352.382 177.511 352.211 177.372C352.04 177.233 351.742 177.111 351.315 177.004L349.555 176.636C348.723 176.444 348.12 176.161 347.747 175.788C347.374 175.415 347.187 174.908 347.187 174.268C347.187 173.415 347.496 172.759 348.115 172.3C348.734 171.831 349.619 171.596 350.771 171.596C351.88 171.596 352.728 171.825 353.315 172.284C353.902 172.743 354.27 173.468 354.419 174.46H352.483V174.332C352.483 174.097 352.424 173.889 352.307 173.708C352.19 173.527 352.003 173.383 351.747 173.276C351.502 173.159 351.176 173.1 350.771 173.1C350.248 173.1 349.848 173.185 349.571 173.356C349.294 173.527 349.155 173.772 349.155 174.092C349.155 174.348 349.24 174.545 349.411 174.684C349.582 174.823 349.87 174.945 350.275 175.052L352.035 175.42C352.878 175.612 353.491 175.895 353.875 176.268C354.259 176.641 354.451 177.143 354.451 177.772C354.451 178.636 354.136 179.303 353.507 179.772C352.878 180.231 351.976 180.46 350.803 180.46ZM359.319 180.46C358.199 180.46 357.34 180.231 356.743 179.772C356.156 179.313 355.783 178.588 355.623 177.596H357.591V177.724C357.591 177.959 357.644 178.167 357.751 178.348C357.868 178.529 358.055 178.679 358.311 178.796C358.577 178.903 358.913 178.956 359.319 178.956C359.863 178.956 360.273 178.871 360.551 178.7C360.839 178.529 360.983 178.284 360.983 177.964C360.983 177.708 360.897 177.511 360.727 177.372C360.556 177.233 360.257 177.111 359.831 177.004L358.071 176.636C357.239 176.444 356.636 176.161 356.263 175.788C355.889 175.415 355.703 174.908 355.703 174.268C355.703 173.415 356.012 172.759 356.631 172.3C357.249 171.831 358.135 171.596 359.286 171.596C360.396 171.596 361.244 171.825 361.831 172.284C362.417 172.743 362.785 173.468 362.935 174.46H360.999V174.332C360.999 174.097 360.94 173.889 360.823 173.708C360.705 173.527 360.519 173.383 360.263 173.276C360.017 173.159 359.692 173.1 359.286 173.1C358.764 173.1 358.364 173.185 358.087 173.356C357.809 173.527 357.671 173.772 357.671 174.092C357.671 174.348 357.756 174.545 357.927 174.684C358.097 174.823 358.385 174.945 358.791 175.052L360.551 175.42C361.393 175.612 362.007 175.895 362.391 176.268C362.775 176.641 362.967 177.143 362.967 177.772C362.967 178.636 362.652 179.303 362.023 179.772C361.393 180.231 360.492 180.46 359.319 180.46ZM363.773 171.756H365.773L367.309 178.668H367.805L369.357 171.756H371.437L373.005 178.668H373.485L375.021 171.756H376.941L374.957 180.3H371.741L370.605 175.18H370.109L368.973 180.3H365.757L363.773 171.756ZM381.781 180.46C380.928 180.46 380.197 180.289 379.589 179.948C378.981 179.607 378.517 179.105 378.197 178.444C377.888 177.783 377.733 176.977 377.733 176.028C377.733 175.079 377.888 174.273 378.197 173.612C378.517 172.951 378.981 172.449 379.589 172.108C380.197 171.767 380.928 171.596 381.781 171.596C382.624 171.596 383.349 171.767 383.957 172.108C384.565 172.449 385.024 172.951 385.333 173.612C385.653 174.273 385.813 175.079 385.813 176.028C385.813 176.977 385.653 177.783 385.333 178.444C385.024 179.105 384.565 179.607 383.957 179.948C383.349 180.289 382.624 180.46 381.781 180.46ZM381.781 178.908C382.453 178.908 382.944 178.721 383.253 178.348C383.573 177.975 383.733 177.383 383.733 176.572V175.484C383.733 174.673 383.573 174.081 383.253 173.708C382.944 173.335 382.453 173.148 381.781 173.148C381.099 173.148 380.597 173.335 380.277 173.708C379.968 174.081 379.813 174.673 379.813 175.484V176.572C379.813 177.383 379.968 177.975 380.277 178.348C380.597 178.721 381.099 178.908 381.781 178.908ZM387.734 173.196H386.758V171.756H389.43V173.388H389.91C390.091 172.791 390.358 172.353 390.71 172.076C391.062 171.788 391.531 171.644 392.118 171.644H393.158V173.196H391.302C390.747 173.196 390.342 173.351 390.086 173.66C389.83 173.969 389.702 174.449 389.702 175.1V180.3H387.734V173.196ZM396.904 180.46C396.253 180.46 395.682 180.284 395.192 179.932C394.701 179.58 394.322 179.073 394.056 178.412C393.789 177.74 393.656 176.945 393.656 176.028C393.656 175.1 393.784 174.305 394.04 173.644C394.306 172.983 394.685 172.476 395.176 172.124C395.666 171.772 396.242 171.596 396.904 171.596C397.501 171.596 397.986 171.74 398.36 172.028C398.744 172.305 399.021 172.727 399.192 173.292H399.672C399.565 172.332 399.512 171.66 399.512 171.276V170.7H398.44V169.26H401.48V178.86H402.456V180.3H401.032C400.626 180.3 400.317 180.193 400.104 179.98C399.89 179.756 399.784 179.441 399.784 179.036V178.636H399.32C399.128 179.233 398.829 179.687 398.424 179.996C398.018 180.305 397.512 180.46 396.904 180.46ZM397.624 178.908C398.274 178.908 398.749 178.721 399.048 178.348C399.357 177.975 399.512 177.388 399.512 176.588V175.468C399.512 174.668 399.357 174.081 399.048 173.708C398.749 173.335 398.274 173.148 397.624 173.148C396.973 173.148 396.493 173.335 396.184 173.708C395.885 174.081 395.736 174.668 395.736 175.468V176.588C395.736 177.388 395.885 177.975 396.184 178.348C396.493 178.721 396.973 178.908 397.624 178.908ZM406.975 180.46C405.855 180.46 404.996 180.231 404.399 179.772C403.812 179.313 403.439 178.588 403.279 177.596H405.247V177.724C405.247 177.959 405.3 178.167 405.407 178.348C405.524 178.529 405.711 178.679 405.967 178.796C406.233 178.903 406.569 178.956 406.975 178.956C407.519 178.956 407.929 178.871 408.207 178.7C408.495 178.529 408.639 178.284 408.639 177.964C408.639 177.708 408.553 177.511 408.383 177.372C408.212 177.233 407.913 177.111 407.487 177.004L405.727 176.636C404.895 176.444 404.292 176.161 403.919 175.788C403.545 175.415 403.359 174.908 403.359 174.268C403.359 173.415 403.668 172.759 404.287 172.3C404.905 171.831 405.791 171.596 406.943 171.596C408.052 171.596 408.9 171.825 409.487 172.284C410.073 172.743 410.441 173.468 410.591 174.46H408.655V174.332C408.655 174.097 408.596 173.889 408.479 173.708C408.361 173.527 408.175 173.383 407.919 173.276C407.673 173.159 407.348 173.1 406.943 173.1C406.42 173.1 406.02 173.185 405.743 173.356C405.465 173.527 405.327 173.772 405.327 174.092C405.327 174.348 405.412 174.545 405.583 174.684C405.753 174.823 406.041 174.945 406.447 175.052L408.207 175.42C409.049 175.612 409.663 175.895 410.047 176.268C410.431 176.641 410.623 177.143 410.623 177.772C410.623 178.636 410.308 179.303 409.679 179.772C409.049 180.231 408.148 180.46 406.975 180.46Z" fill="white"/>
<path d="M26 246.8C26 233.545 36.7452 222.8 50 222.8C63.2548 222.8 74 233.545 74 246.8C74 260.055 63.2548 270.8 50 270.8C36.7452 270.8 26 260.055 26 246.8Z" fill="#3A0F6E" fill-opacity="0.3"/>
<path fill-rule="evenodd" clip-rule="evenodd" d="M40 239.3C40 237.92 41.1198 236.8 42.5 236.8H57.5C58.8802 236.8 60 237.92 60 239.3V249.3C60 250.68 58.8802 251.8 57.5 251.8H42.5C41.1198 251.8 40 250.68 40 249.3V239.3ZM42.5 238.55C42.0862 238.55 41.75 238.886 41.75 239.3V249.3C41.75 249.714 42.0862 250.05 42.5 250.05H57.5C57.9138 250.05 58.25 249.714 58.25 249.3V239.3C58.25 238.886 57.9138 238.55 57.5 238.55H42.5Z" fill="white"/>
<path fill-rule="evenodd" clip-rule="evenodd" d="M42.5 256.3C41.1198 256.3 40 255.18 40 253.8H41.75C41.75 254.214 42.0862 254.55 42.5 254.55H57.5C57.9138 254.55 58.25 254.214 58.25 253.8H60C60 255.18 58.8802 256.3 57.5 256.3H42.5Z" fill="white"/>
<path d="M99.536 252.46C98.5013 252.46 97.6213 252.252 96.896 251.836C96.1813 251.409 95.632 250.775 95.248 249.932C94.8747 249.079 94.688 248.028 94.688 246.78C94.688 245.532 94.8747 244.487 95.248 243.644C95.632 242.791 96.1813 242.156 96.896 241.74C97.6213 241.313 98.5013 241.1 99.536 241.1C100.571 241.1 101.445 241.313 102.16 241.74C102.885 242.156 103.435 242.785 103.808 243.628C104.181 244.471 104.368 245.521 104.368 246.78C104.368 248.039 104.181 249.089 103.808 249.932C103.435 250.775 102.885 251.409 102.16 251.836C101.445 252.252 100.571 252.46 99.536 252.46ZM99.536 250.844C100.464 250.844 101.141 250.588 101.568 250.076C102.005 249.564 102.224 248.764 102.224 247.676V245.884C102.224 244.796 102.005 243.996 101.568 243.484C101.141 242.972 100.464 242.716 99.536 242.716C98.608 242.716 97.9253 242.972 97.488 243.484C97.0507 243.996 96.832 244.796 96.832 245.884V247.676C96.832 248.764 97.0507 249.564 97.488 250.076C97.9253 250.588 98.608 250.844 99.536 250.844ZM106.375 245.196H105.383V243.756H108.055V245.42H108.535C108.716 244.823 109.009 244.369 109.415 244.06C109.82 243.751 110.327 243.596 110.935 243.596C111.596 243.596 112.167 243.772 112.647 244.124C113.137 244.476 113.516 244.988 113.783 245.66C114.049 246.321 114.183 247.111 114.183 248.028C114.183 248.956 114.049 249.751 113.783 250.412C113.527 251.073 113.153 251.58 112.663 251.932C112.172 252.284 111.596 252.46 110.935 252.46C110.337 252.46 109.847 252.321 109.463 252.044C109.089 251.756 108.817 251.329 108.647 250.764H108.167C108.273 251.724 108.327 252.38 108.327 252.732V254.412H106.375V245.196ZM110.215 250.908C110.865 250.908 111.345 250.721 111.655 250.348C111.964 249.975 112.119 249.388 112.119 248.588V247.468C112.119 246.668 111.964 246.081 111.655 245.708C111.345 245.335 110.865 245.148 110.215 245.148C109.575 245.148 109.1 245.335 108.791 245.708C108.481 246.081 108.327 246.668 108.327 247.468V248.588C108.327 249.388 108.481 249.975 108.791 250.348C109.1 250.721 109.575 250.908 110.215 250.908ZM119.452 252.46C118.609 252.46 117.889 252.289 117.292 251.948C116.695 251.607 116.236 251.105 115.916 250.444C115.607 249.783 115.452 248.977 115.452 248.028C115.452 247.079 115.607 246.273 115.916 245.612C116.236 244.951 116.695 244.449 117.292 244.108C117.889 243.767 118.609 243.596 119.452 243.596C120.273 243.596 120.972 243.756 121.548 244.076C122.124 244.385 122.561 244.849 122.86 245.468C123.169 246.076 123.324 246.823 123.324 247.708V248.396H116.732V247.116H122.62L121.372 247.916V247.436C121.372 246.625 121.217 246.033 120.908 245.66C120.599 245.287 120.113 245.1 119.452 245.1C118.791 245.1 118.305 245.287 117.996 245.66C117.687 246.033 117.532 246.625 117.532 247.436V248.572C117.532 249.383 117.687 249.975 117.996 250.348C118.305 250.721 118.791 250.908 119.452 250.908C119.857 250.908 120.188 250.844 120.444 250.716C120.7 250.588 120.887 250.433 121.004 250.252C121.121 250.071 121.18 249.889 121.18 249.708V249.596H123.196C123.004 250.524 122.588 251.233 121.948 251.724C121.319 252.215 120.487 252.46 119.452 252.46ZM125.234 245.196H124.258V243.756H126.93V245.372H127.41C127.58 244.764 127.852 244.316 128.226 244.028C128.61 243.74 129.106 243.596 129.714 243.596C130.578 243.596 131.234 243.857 131.682 244.38C132.13 244.903 132.354 245.665 132.354 246.668V250.86H133.345V252.3H130.386V247.052C130.386 246.391 130.258 245.911 130.002 245.612C129.746 245.303 129.346 245.148 128.802 245.148C128.247 245.148 127.842 245.303 127.586 245.612C127.33 245.911 127.202 246.391 127.202 247.052V252.3H125.234V245.196ZM140.207 252.3C139.791 252.3 139.477 252.193 139.263 251.98C139.061 251.756 138.959 251.441 138.959 251.036V243.756L139.631 242.044H140.927V250.86H142.687V252.3H140.207ZM137.583 243.756H142.687V245.196H137.583V243.756ZM146.403 252.46C145.571 252.46 144.92 252.247 144.451 251.82C143.992 251.393 143.763 250.796 143.763 250.028C143.763 249.26 144.014 248.657 144.515 248.22C145.016 247.783 145.763 247.516 146.755 247.42L148.979 247.196V248.46L147.331 248.636C146.787 248.679 146.392 248.791 146.147 248.972C145.902 249.153 145.779 249.415 145.779 249.756V249.9C145.779 250.241 145.907 250.503 146.163 250.684C146.419 250.865 146.787 250.956 147.267 250.956C147.832 250.956 148.259 250.833 148.547 250.588C148.835 250.343 148.979 249.975 148.979 249.484V248.252V248.012V246.828C148.979 246.241 148.856 245.815 148.611 245.548C148.376 245.281 147.998 245.148 147.475 245.148C146.952 245.148 146.563 245.265 146.307 245.5C146.062 245.724 145.939 246.007 145.939 246.348V246.46H143.939C144.088 245.5 144.462 244.785 145.059 244.316C145.656 243.836 146.472 243.596 147.507 243.596C148.638 243.596 149.491 243.868 150.067 244.412C150.654 244.956 150.947 245.751 150.947 246.796V250.86H151.923V252.3H150.499C150.094 252.3 149.784 252.193 149.571 251.98C149.368 251.767 149.267 251.457 149.267 251.052V250.732H148.787C148.616 251.329 148.339 251.767 147.955 252.044C147.571 252.321 147.054 252.46 146.403 252.46ZM157.695 252.46C157.087 252.46 156.58 252.305 156.175 251.996C155.77 251.687 155.476 251.233 155.295 250.636H154.815V252.3H153.135V242.7H152.159V241.26H155.087V243.276C155.087 243.66 155.034 244.332 154.927 245.292H155.407C155.588 244.727 155.866 244.305 156.239 244.028C156.612 243.74 157.098 243.596 157.695 243.596C158.356 243.596 158.932 243.772 159.423 244.124C159.914 244.476 160.287 244.988 160.543 245.66C160.81 246.321 160.943 247.111 160.943 248.028C160.943 248.945 160.81 249.74 160.543 250.412C160.287 251.073 159.914 251.58 159.423 251.932C158.932 252.284 158.356 252.46 157.695 252.46ZM156.975 250.908C157.626 250.908 158.106 250.721 158.415 250.348C158.724 249.975 158.879 249.388 158.879 248.588V247.468C158.879 246.668 158.724 246.081 158.415 245.708C158.106 245.335 157.626 245.148 156.975 245.148C156.335 245.148 155.86 245.335 155.551 245.708C155.242 246.081 155.087 246.668 155.087 247.468V248.588C155.087 249.388 155.242 249.975 155.551 250.348C155.86 250.721 156.335 250.908 156.975 250.908ZM165.834 252.46C164.714 252.46 163.855 252.231 163.258 251.772C162.671 251.313 162.298 250.588 162.138 249.596H164.106V249.724C164.106 249.959 164.159 250.167 164.266 250.348C164.383 250.529 164.57 250.679 164.826 250.796C165.093 250.903 165.429 250.956 165.834 250.956C166.378 250.956 166.789 250.871 167.066 250.7C167.354 250.529 167.498 250.284 167.498 249.964C167.498 249.708 167.413 249.511 167.242 249.372C167.071 249.233 166.773 249.111 166.346 249.004L164.586 248.636C163.754 248.444 163.151 248.161 162.778 247.788C162.405 247.415 162.218 246.908 162.218 246.268C162.218 245.415 162.527 244.759 163.146 244.3C163.765 243.831 164.65 243.596 165.802 243.596C166.911 243.596 167.759 243.825 168.346 244.284C168.933 244.743 169.301 245.468 169.45 246.46H167.514V246.332C167.514 246.097 167.455 245.889 167.338 245.708C167.221 245.527 167.034 245.383 166.778 245.276C166.533 245.159 166.207 245.1 165.802 245.1C165.279 245.1 164.879 245.185 164.602 245.356C164.325 245.527 164.186 245.772 164.186 246.092C164.186 246.348 164.271 246.545 164.442 246.684C164.613 246.823 164.901 246.945 165.306 247.052L167.066 247.42C167.909 247.612 168.522 247.895 168.906 248.268C169.29 248.641 169.482 249.143 169.482 249.772C169.482 250.636 169.167 251.303 168.538 251.772C167.909 252.231 167.007 252.46 165.834 252.46Z" fill="white"/>
<path d="M260 246.8C260 233.545 270.745 222.8 284 222.8C297.255 222.8 308 233.545 308 246.8C308 260.055 297.255 270.8 284 270.8C270.745 270.8 260 260.055 260 246.8Z" fill="#3A0F6E" fill-opacity="0.3"/>
<path fill-rule="evenodd" clip-rule="evenodd" d="M284 238.55C279.444 238.55 275.75 242.244 275.75 246.8C275.75 251.356 279.444 255.05 284 255.05C288.556 255.05 292.25 251.356 292.25 246.8C292.25 242.244 288.556 238.55 284 238.55ZM274 246.8C274 241.277 278.477 236.8 284 236.8C289.523 236.8 294 241.277 294 246.8C294 252.323 289.523 256.8 284 256.8C278.477 256.8 274 252.323 274 246.8Z" fill="white"/>
<path fill-rule="evenodd" clip-rule="evenodd" d="M283.125 246.8V241.8H284.875V246.295L288.615 248.454L287.741 249.97L283.563 247.558C283.292 247.402 283.125 247.113 283.125 246.8Z" fill="white"/>
<path d="M329.36 242.764H328.24V241.26H334.064C335.099 241.26 335.899 241.516 336.464 242.028C337.029 242.54 337.312 243.265 337.312 244.204C337.312 244.887 337.152 245.415 336.832 245.788C336.512 246.151 336.037 246.364 335.408 246.428V246.908C336.08 246.972 336.581 247.196 336.912 247.58C337.253 247.953 337.424 248.508 337.424 249.244C337.424 250.225 337.136 250.983 336.56 251.516C335.984 252.039 335.168 252.3 334.112 252.3H329.36V242.764ZM333.968 250.796C334.437 250.796 334.784 250.679 335.008 250.444C335.243 250.209 335.36 249.847 335.36 249.356V248.812C335.36 248.321 335.243 247.959 335.008 247.724C334.784 247.479 334.437 247.356 333.968 247.356H331.376V250.796H333.968ZM333.936 245.98C334.373 245.98 334.699 245.868 334.912 245.644C335.136 245.409 335.248 245.057 335.248 244.588V244.124C335.248 243.665 335.141 243.324 334.928 243.1C334.715 242.876 334.384 242.764 333.936 242.764H331.376V245.98H333.936ZM339.452 245.196H338.476V243.756H341.148V245.388H341.628C341.81 244.791 342.076 244.353 342.428 244.076C342.78 243.788 343.25 243.644 343.836 243.644H344.876V245.196H343.02C342.466 245.196 342.06 245.351 341.804 245.66C341.548 245.969 341.42 246.449 341.42 247.1V252.3H339.452V245.196ZM349.36 252.46C348.506 252.46 347.776 252.289 347.168 251.948C346.56 251.607 346.096 251.105 345.776 250.444C345.466 249.783 345.312 248.977 345.312 248.028C345.312 247.079 345.466 246.273 345.776 245.612C346.096 244.951 346.56 244.449 347.168 244.108C347.776 243.767 348.506 243.596 349.36 243.596C350.202 243.596 350.928 243.767 351.536 244.108C352.144 244.449 352.602 244.951 352.911 245.612C353.232 246.273 353.392 247.079 353.392 248.028C353.392 248.977 353.232 249.783 352.911 250.444C352.602 251.105 352.144 251.607 351.536 251.948C350.928 252.289 350.202 252.46 349.36 252.46ZM349.36 250.908C350.032 250.908 350.522 250.721 350.832 250.348C351.152 249.975 351.312 249.383 351.312 248.572V247.484C351.312 246.673 351.152 246.081 350.832 245.708C350.522 245.335 350.032 245.148 349.36 245.148C348.677 245.148 348.176 245.335 347.856 245.708C347.546 246.081 347.392 246.673 347.392 247.484V248.572C347.392 249.383 347.546 249.975 347.856 250.348C348.176 250.721 348.677 250.908 349.36 250.908ZM354.179 243.756H356.179L357.715 250.668H358.211L359.763 243.756H361.843L363.411 250.668H363.891L365.427 243.756H367.347L365.363 252.3H362.147L361.011 247.18H360.515L359.379 252.3H356.163L354.179 243.756ZM371.834 252.46C370.714 252.46 369.855 252.231 369.258 251.772C368.671 251.313 368.298 250.588 368.138 249.596H370.106V249.724C370.106 249.959 370.159 250.167 370.266 250.348C370.383 250.529 370.57 250.679 370.826 250.796C371.093 250.903 371.429 250.956 371.834 250.956C372.378 250.956 372.789 250.871 373.066 250.7C373.354 250.529 373.498 250.284 373.498 249.964C373.498 249.708 373.413 249.511 373.242 249.372C373.071 249.233 372.773 249.111 372.346 249.004L370.586 248.636C369.754 248.444 369.151 248.161 368.778 247.788C368.405 247.415 368.218 246.908 368.218 246.268C368.218 245.415 368.527 244.759 369.146 244.3C369.765 243.831 370.65 243.596 371.802 243.596C372.911 243.596 373.759 243.825 374.346 244.284C374.933 244.743 375.301 245.468 375.45 246.46H373.514V246.332C373.514 246.097 373.455 245.889 373.338 245.708C373.221 245.527 373.034 245.383 372.778 245.276C372.533 245.159 372.207 245.1 371.802 245.1C371.279 245.1 370.879 245.185 370.602 245.356C370.325 245.527 370.186 245.772 370.186 246.092C370.186 246.348 370.271 246.545 370.442 246.684C370.613 246.823 370.901 246.945 371.306 247.052L373.066 247.42C373.909 247.612 374.522 247.895 374.906 248.268C375.29 248.641 375.482 249.143 375.482 249.772C375.482 250.636 375.167 251.303 374.538 251.772C373.909 252.231 373.007 252.46 371.834 252.46ZM377.39 245.196H376.334V243.756H379.358V252.3H377.39V245.196ZM377.262 241.26H379.438V242.956H377.262V241.26ZM381.749 245.196H380.773V243.756H383.445V245.372H383.925C384.096 244.764 384.368 244.316 384.741 244.028C385.125 243.74 385.621 243.596 386.229 243.596C387.093 243.596 387.749 243.857 388.197 244.38C388.645 244.903 388.869 245.665 388.869 246.668V250.86H389.861V252.3H386.901V247.052C386.901 246.391 386.773 245.911 386.517 245.612C386.261 245.303 385.861 245.148 385.317 245.148C384.762 245.148 384.357 245.303 384.101 245.612C383.845 245.911 383.717 246.391 383.717 247.052V252.3H381.749V245.196ZM390.862 252.972H395.774C396.03 252.972 396.211 252.929 396.318 252.844C396.424 252.769 396.478 252.636 396.478 252.444C396.478 252.252 396.419 252.113 396.302 252.028C396.195 251.943 396.019 251.9 395.774 251.9H392.622C392.024 251.9 391.582 251.804 391.294 251.612C391.006 251.409 390.862 251.111 390.862 250.716C390.862 250.343 390.984 250.055 391.23 249.852C391.486 249.649 391.859 249.537 392.35 249.516V249.1C391.827 248.929 391.438 248.636 391.182 248.22C390.926 247.793 390.798 247.26 390.798 246.62C390.798 245.649 391.107 244.903 391.726 244.38C392.355 243.857 393.235 243.596 394.366 243.596C395.486 243.596 396.355 243.857 396.974 244.38C397.603 244.903 397.918 245.649 397.918 246.62C397.918 247.559 397.608 248.279 396.99 248.78C396.382 249.281 395.528 249.532 394.43 249.532H393.23C393.016 249.532 392.862 249.564 392.766 249.628C392.68 249.692 392.638 249.799 392.638 249.948C392.638 250.087 392.68 250.193 392.766 250.268C392.862 250.332 393.016 250.364 393.23 250.364H396.142C396.888 250.364 397.454 250.529 397.838 250.86C398.232 251.191 398.43 251.671 398.43 252.3C398.43 252.993 398.206 253.516 397.758 253.868C397.32 254.231 396.675 254.412 395.822 254.412H390.862V252.972ZM394.366 248.156C394.91 248.156 395.315 248.049 395.582 247.836C395.859 247.612 395.998 247.265 395.998 246.796V246.412C395.998 245.953 395.859 245.617 395.582 245.404C395.315 245.18 394.91 245.068 394.366 245.068C393.811 245.068 393.395 245.18 393.118 245.404C392.851 245.617 392.718 245.953 392.718 246.412V246.796C392.718 247.265 392.851 247.612 393.118 247.836C393.395 248.049 393.811 248.156 394.366 248.156ZM395.582 244.172C395.582 243.532 395.704 243.063 395.95 242.764C396.195 242.465 396.579 242.316 397.102 242.316H398.334V243.756H396.558C396.344 243.756 396.184 243.815 396.078 243.932C395.971 244.049 395.918 244.241 395.918 244.508L395.582 244.172ZM403.713 242.7H402.737V241.26H405.681V243.212C405.681 243.596 405.628 244.268 405.521 245.228H405.985C406.145 244.673 406.401 244.263 406.753 243.996C407.105 243.729 407.585 243.596 408.193 243.596C409.057 243.596 409.708 243.857 410.145 244.38C410.593 244.892 410.817 245.655 410.817 246.668V250.86H411.793V252.3H408.865V247.052C408.865 246.401 408.737 245.921 408.481 245.612C408.225 245.303 407.82 245.148 407.265 245.148C406.721 245.148 406.321 245.303 406.065 245.612C405.809 245.911 405.681 246.391 405.681 247.052V252.3H403.713V242.7ZM413.343 245.196H412.287V243.756H415.311V252.3H413.343V245.196ZM413.215 241.26H415.391V242.956H413.215V241.26ZM420.662 252.46C419.542 252.46 418.684 252.231 418.086 251.772C417.5 251.313 417.126 250.588 416.966 249.596H418.934V249.724C418.934 249.959 418.988 250.167 419.094 250.348C419.212 250.529 419.398 250.679 419.654 250.796C419.921 250.903 420.257 250.956 420.662 250.956C421.206 250.956 421.617 250.871 421.894 250.7C422.182 250.529 422.326 250.284 422.326 249.964C422.326 249.708 422.241 249.511 422.07 249.372C421.9 249.233 421.601 249.111 421.174 249.004L419.414 248.636C418.582 248.444 417.98 248.161 417.606 247.788C417.233 247.415 417.046 246.908 417.046 246.268C417.046 245.415 417.356 244.759 417.974 244.3C418.593 243.831 419.478 243.596 420.63 243.596C421.74 243.596 422.588 243.825 423.174 244.284C423.761 244.743 424.129 245.468 424.278 246.46H422.342V246.332C422.342 246.097 422.284 245.889 422.166 245.708C422.049 245.527 421.862 245.383 421.606 245.276C421.361 245.159 421.036 245.1 420.63 245.1C420.108 245.1 419.708 245.185 419.43 245.356C419.153 245.527 419.014 245.772 419.014 246.092C419.014 246.348 419.1 246.545 419.27 246.684C419.441 246.823 419.729 246.945 420.134 247.052L421.894 247.42C422.737 247.612 423.35 247.895 423.734 248.268C424.118 248.641 424.31 249.143 424.31 249.772C424.31 250.636 423.996 251.303 423.366 251.772C422.737 252.231 421.836 252.46 420.662 252.46ZM427.77 252.3C427.354 252.3 427.039 252.193 426.826 251.98C426.623 251.756 426.522 251.441 426.522 251.036V243.756L427.194 242.044H428.49V250.86H430.25V252.3H427.77ZM425.146 243.756H430.25V245.196H425.146V243.756ZM435.188 252.46C434.334 252.46 433.604 252.289 432.996 251.948C432.388 251.607 431.924 251.105 431.604 250.444C431.294 249.783 431.14 248.977 431.14 248.028C431.14 247.079 431.294 246.273 431.604 245.612C431.924 244.951 432.388 244.449 432.996 244.108C433.604 243.767 434.334 243.596 435.188 243.596C436.03 243.596 436.756 243.767 437.364 244.108C437.972 244.449 438.43 244.951 438.74 245.612C439.06 246.273 439.22 247.079 439.22 248.028C439.22 248.977 439.06 249.783 438.74 250.444C438.43 251.105 437.972 251.607 437.364 251.948C436.756 252.289 436.03 252.46 435.188 252.46ZM435.188 250.908C435.86 250.908 436.35 250.721 436.66 250.348C436.98 249.975 437.14 249.383 437.14 248.572V247.484C437.14 246.673 436.98 246.081 436.66 245.708C436.35 245.335 435.86 245.148 435.188 245.148C434.505 245.148 434.004 245.335 433.684 245.708C433.374 246.081 433.22 246.673 433.22 247.484V248.572C433.22 249.383 433.374 249.975 433.684 250.348C434.004 250.721 434.505 250.908 435.188 250.908ZM441.14 245.196H440.164V243.756H442.836V245.388H443.316C443.497 244.791 443.764 244.353 444.116 244.076C444.468 243.788 444.937 243.644 445.524 243.644H446.564V245.196H444.708C444.153 245.196 443.748 245.351 443.492 245.66C443.236 245.969 443.108 246.449 443.108 247.1V252.3H441.14V245.196ZM448.296 252.972H450.856L451.176 251.884H449.496L447.288 243.756H449.336L451.112 250.444H451.592L453.368 243.756H455.32L452.76 253.148C452.632 253.585 452.462 253.905 452.248 254.108C452.035 254.311 451.731 254.412 451.336 254.412H448.296V252.972Z" fill="white"/>
<path d="M26 318.8C26 305.545 36.7452 294.8 50 294.8C63.2548 294.8 74 305.545 74 318.8C74 332.055 63.2548 342.8 50 342.8C36.7452 342.8 26 332.055 26 318.8Z" fill="#3A0F6E" fill-opacity="0.3"/>
<path fill-rule="evenodd" clip-rule="evenodd" d="M50.5 310.55C49.5332 310.55 48.75 311.333 48.75 312.3V314.675C48.75 315.158 48.3582 315.55 47.875 315.55H44.5C44.0862 315.55 43.75 315.886 43.75 316.3V317.8H45.25C47.1832 317.8 48.75 319.367 48.75 321.3C48.75 323.233 47.1832 324.8 45.25 324.8H43.75V326.3C43.75 326.714 44.0862 327.05 44.5 327.05H56.5C56.9138 327.05 57.25 326.714 57.25 326.3V316.3C57.25 315.886 56.9138 315.55 56.5 315.55H53.125C52.6418 315.55 52.25 315.158 52.25 314.675V312.3C52.25 311.333 51.4668 310.55 50.5 310.55ZM47 312.3C47 310.367 48.5668 308.8 50.5 308.8C52.4332 308.8 54 310.367 54 312.3V313.8H56.5C57.8802 313.8 59 314.92 59 316.3V326.3C59 327.68 57.8802 328.8 56.5 328.8H44.5C43.1198 328.8 42 327.68 42 326.3V323.925C42 323.442 42.3918 323.05 42.875 323.05H45.25C46.2168 323.05 47 322.267 47 321.3C47 320.333 46.2168 319.55 45.25 319.55H42.875C42.3918 319.55 42 319.158 42 318.675V316.3C42 314.92 43.1198 313.8 44.5 313.8H47V312.3Z" fill="white"/>
<path d="M97.28 313.26H100.928L103.824 324.3H101.712L99.296 314.956H98.816L96.4 324.3H94.384L97.28 313.26ZM96.368 320.284H101.664L101.76 321.708H96.304L96.368 320.284ZM95.776 313.26H98.56V314.764H95.776V313.26ZM107.872 324.46C107.222 324.46 106.651 324.284 106.16 323.932C105.67 323.58 105.291 323.073 105.024 322.412C104.758 321.74 104.624 320.945 104.624 320.028C104.624 319.1 104.752 318.305 105.008 317.644C105.275 316.983 105.654 316.476 106.144 316.124C106.635 315.772 107.211 315.596 107.872 315.596C108.47 315.596 108.955 315.74 109.328 316.028C109.712 316.305 109.99 316.727 110.16 317.292H110.64C110.534 316.332 110.48 315.66 110.48 315.276V314.7H109.408V313.26H112.448V322.86H113.424V324.3H112C111.595 324.3 111.286 324.193 111.072 323.98C110.859 323.756 110.752 323.441 110.752 323.036V322.636H110.288C110.096 323.233 109.798 323.687 109.392 323.996C108.987 324.305 108.48 324.46 107.872 324.46ZM108.592 322.908C109.243 322.908 109.718 322.721 110.016 322.348C110.326 321.975 110.48 321.388 110.48 320.588V319.468C110.48 318.668 110.326 318.081 110.016 317.708C109.718 317.335 109.243 317.148 108.592 317.148C107.942 317.148 107.462 317.335 107.152 317.708C106.854 318.081 106.704 318.668 106.704 319.468V320.588C106.704 321.388 106.854 321.975 107.152 322.348C107.462 322.721 107.942 322.908 108.592 322.908ZM117.576 324.46C116.925 324.46 116.354 324.284 115.864 323.932C115.373 323.58 114.994 323.073 114.728 322.412C114.461 321.74 114.328 320.945 114.328 320.028C114.328 319.1 114.456 318.305 114.712 317.644C114.978 316.983 115.357 316.476 115.848 316.124C116.338 315.772 116.914 315.596 117.576 315.596C118.173 315.596 118.658 315.74 119.032 316.028C119.416 316.305 119.693 316.727 119.864 317.292H120.344C120.237 316.332 120.184 315.66 120.184 315.276V314.7H119.112V313.26H122.152V322.86H123.128V324.3H121.704C121.298 324.3 120.989 324.193 120.776 323.98C120.562 323.756 120.456 323.441 120.456 323.036V322.636H119.992C119.8 323.233 119.501 323.687 119.096 323.996C118.69 324.305 118.184 324.46 117.576 324.46ZM118.296 322.908C118.946 322.908 119.421 322.721 119.72 322.348C120.029 321.975 120.184 321.388 120.184 320.588V319.468C120.184 318.668 120.029 318.081 119.72 317.708C119.421 317.335 118.946 317.148 118.296 317.148C117.645 317.148 117.165 317.335 116.856 317.708C116.557 318.081 116.408 318.668 116.408 319.468V320.588C116.408 321.388 116.557 321.975 116.856 322.348C117.165 322.721 117.645 322.908 118.296 322.908ZM123.85 319.036H127.45V320.476H123.85V319.036ZM133.031 324.46C132.178 324.46 131.447 324.289 130.839 323.948C130.231 323.607 129.767 323.105 129.447 322.444C129.138 321.783 128.983 320.977 128.983 320.028C128.983 319.079 129.138 318.273 129.447 317.612C129.767 316.951 130.231 316.449 130.839 316.108C131.447 315.767 132.178 315.596 133.031 315.596C133.874 315.596 134.599 315.767 135.207 316.108C135.815 316.449 136.274 316.951 136.583 317.612C136.903 318.273 137.063 319.079 137.063 320.028C137.063 320.977 136.903 321.783 136.583 322.444C136.274 323.105 135.815 323.607 135.207 323.948C134.599 324.289 133.874 324.46 133.031 324.46ZM133.031 322.908C133.703 322.908 134.194 322.721 134.503 322.348C134.823 321.975 134.983 321.383 134.983 320.572V319.484C134.983 318.673 134.823 318.081 134.503 317.708C134.194 317.335 133.703 317.148 133.031 317.148C132.349 317.148 131.847 317.335 131.527 317.708C131.218 318.081 131.063 318.673 131.063 319.484V320.572C131.063 321.383 131.218 321.975 131.527 322.348C131.847 322.721 132.349 322.908 133.031 322.908ZM138.984 317.196H138.008V315.756H140.68V317.372H141.16C141.33 316.764 141.602 316.316 141.976 316.028C142.36 315.74 142.856 315.596 143.464 315.596C144.328 315.596 144.984 315.857 145.432 316.38C145.88 316.903 146.104 317.665 146.104 318.668V322.86H147.095V324.3H144.136V319.052C144.136 318.391 144.008 317.911 143.752 317.612C143.496 317.303 143.096 317.148 142.552 317.148C141.997 317.148 141.592 317.303 141.336 317.612C141.08 317.911 140.952 318.391 140.952 319.052V324.3H138.984V317.196ZM151.584 324.46C150.464 324.46 149.605 324.231 149.008 323.772C148.421 323.313 148.048 322.588 147.888 321.596H149.856V321.724C149.856 321.959 149.909 322.167 150.016 322.348C150.133 322.529 150.32 322.679 150.576 322.796C150.843 322.903 151.179 322.956 151.584 322.956C152.128 322.956 152.539 322.871 152.816 322.7C153.104 322.529 153.248 322.284 153.248 321.964C153.248 321.708 153.163 321.511 152.992 321.372C152.821 321.233 152.523 321.111 152.096 321.004L150.336 320.636C149.504 320.444 148.901 320.161 148.528 319.788C148.155 319.415 147.968 318.908 147.968 318.268C147.968 317.415 148.277 316.759 148.896 316.3C149.515 315.831 150.4 315.596 151.552 315.596C152.661 315.596 153.509 315.825 154.096 316.284C154.683 316.743 155.051 317.468 155.2 318.46H153.264V318.332C153.264 318.097 153.205 317.889 153.088 317.708C152.971 317.527 152.784 317.383 152.528 317.276C152.283 317.159 151.957 317.1 151.552 317.1C151.029 317.1 150.629 317.185 150.352 317.356C150.075 317.527 149.936 317.772 149.936 318.092C149.936 318.348 150.021 318.545 150.192 318.684C150.363 318.823 150.651 318.945 151.056 319.052L152.816 319.42C153.659 319.612 154.272 319.895 154.656 320.268C155.04 320.641 155.232 321.143 155.232 321.772C155.232 322.636 154.917 323.303 154.288 323.772C153.659 324.231 152.757 324.46 151.584 324.46Z" fill="white"/>
<path d="M260 318.8C260 305.545 270.745 294.8 284 294.8C297.255 294.8 308 305.545 308 318.8C308 332.055 297.255 342.8 284 342.8C270.745 342.8 260 332.055 260 318.8Z" fill="#3A0F6E" fill-opacity="0.3"/>
<path fill-rule="evenodd" clip-rule="evenodd" d="M280.25 318.8C280.25 316.73 281.93 315.05 284 315.05C286.07 315.05 287.75 316.73 287.75 318.8C287.75 320.87 286.07 322.55 284 322.55C281.93 322.55 280.25 320.87 280.25 318.8ZM286 318.8C286 317.7 285.1 316.8 284 316.8C282.9 316.8 282 317.7 282 318.8C282 319.9 282.9 320.8 284 320.8C285.1 320.8 286 319.9 286 318.8Z" fill="white"/>
<path fill-rule="evenodd" clip-rule="evenodd" d="M281.19 327.26C281.45 328.17 282.29 328.8 283.24 328.8H284.76L284.81 328.82C285.75 328.82 286.59 328.19 286.86 327.29L287.37 325.57C287.65 325.42 287.94 325.25 288.24 325.04L289.97 325.47C290.89 325.71 291.86 325.29 292.33 324.47L293.09 323.16C293.56 322.34 293.44 321.3 292.79 320.62L291.54 319.3C291.56 319.14 291.57 318.98 291.57 318.81C291.57 318.63 291.55 318.46 291.53 318.29L292.76 317.01C293.41 316.33 293.54 315.28 293.07 314.46L292.31 313.15C291.84 312.34 290.87 311.92 289.96 312.14L288.19 312.56C287.9 312.36 287.62 312.19 287.34 312.05L286.83 310.33C286.56 309.43 285.72 308.8 284.78 308.8H283.27C282.32 308.8 281.48 309.43 281.22 310.34L280.73 312.03C280.44 312.17 280.15 312.35 279.85 312.55L278.08 312.13C277.16 311.91 276.2 312.33 275.73 313.14L274.97 314.45C274.49 315.27 274.62 316.32 275.28 317L276.51 318.28C276.48 318.45 276.47 318.62 276.47 318.8C276.47 318.97 276.48 319.13 276.5 319.29L275.25 320.61C274.6 321.29 274.48 322.34 274.95 323.15L275.71 324.46C276.18 325.28 277.15 325.69 278.07 325.46L279.8 325.03C280.1 325.24 280.4 325.42 280.7 325.57L281.19 327.26ZM280.52 323.38C280.37 323.26 280.18 323.2 279.99 323.2L280 323.22C279.93 323.22 279.86 323.23 279.79 323.25L277.66 323.78C277.5 323.82 277.32 323.75 277.24 323.6L276.48 322.29C276.39 322.14 276.41 321.95 276.53 321.83L278.07 320.21C278.25 320.02 278.33 319.76 278.3 319.5L278.27 319.28C278.269 319.271 278.268 319.262 278.267 319.253C278.248 319.103 278.23 318.961 278.23 318.81C278.23 318.683 278.247 318.555 278.264 318.428C278.269 318.385 278.275 318.343 278.28 318.3L278.31 318.1C278.34 317.83 278.25 317.57 278.07 317.38L276.54 315.8C276.42 315.67 276.4 315.49 276.48 315.34L277.24 314.03C277.32 313.88 277.49 313.81 277.66 313.85L279.82 314.37C280.07 314.43 280.34 314.38 280.55 314.22C280.98 313.89 281.38 313.66 281.78 313.49C282.02 313.38 282.21 313.18 282.28 312.92L282.88 310.84C282.93 310.67 283.08 310.56 283.25 310.56H284.76C284.93 310.56 285.08 310.67 285.13 310.83L285.75 312.93C285.83 313.18 286.01 313.39 286.25 313.49C286.64 313.65 287.02 313.88 287.46 314.21C287.67 314.36 287.94 314.42 288.19 314.36L290.35 313.84C290.52 313.8 290.69 313.87 290.77 314.02L291.53 315.33C291.61 315.48 291.59 315.67 291.47 315.79L289.94 317.37C289.75 317.56 289.67 317.83 289.7 318.09L289.73 318.29C289.735 318.334 289.741 318.377 289.747 318.42C289.763 318.544 289.78 318.666 289.78 318.8C289.78 318.96 289.76 319.12 289.74 319.27L289.71 319.49C289.67 319.75 289.76 320.01 289.94 320.2L291.48 321.82C291.59 321.95 291.62 322.13 291.53 322.28L290.77 323.59C290.69 323.74 290.51 323.81 290.35 323.77L288.22 323.24C287.96 323.17 287.69 323.23 287.48 323.39C287.03 323.73 286.64 323.97 286.25 324.13C286.01 324.23 285.82 324.44 285.75 324.69L285.13 326.79C285.08 326.95 284.93 327.06 284.76 327.06H283.24C283.07 327.06 282.92 326.94 282.87 326.78L282.27 324.7C282.2 324.44 282.02 324.23 281.77 324.13C281.37 323.96 280.96 323.71 280.52 323.38Z" fill="white"/>
<path d="M332.992 324.46C332.075 324.46 331.307 324.321 330.688 324.044C330.08 323.767 329.611 323.34 329.28 322.764C328.949 322.177 328.741 321.415 328.656 320.476H330.672V320.844C330.672 321.505 330.859 322.007 331.232 322.348C331.616 322.679 332.203 322.844 332.992 322.844C333.707 322.844 334.256 322.721 334.64 322.476C335.024 322.231 335.216 321.879 335.216 321.42V321.196C335.216 320.855 335.099 320.583 334.864 320.38C334.64 320.167 334.256 320.001 333.712 319.884L331.52 319.388C330.549 319.164 329.84 318.817 329.392 318.348C328.955 317.868 328.736 317.217 328.736 316.396C328.736 315.329 329.093 314.513 329.808 313.948C330.533 313.383 331.579 313.1 332.944 313.1C333.851 313.1 334.608 313.239 335.216 313.516C335.824 313.793 336.293 314.225 336.624 314.812C336.955 315.388 337.163 316.145 337.248 317.084H335.232V316.716C335.232 316.065 335.045 315.569 334.672 315.228C334.299 314.887 333.723 314.716 332.944 314.716C332.24 314.716 331.701 314.839 331.328 315.084C330.955 315.329 330.768 315.681 330.768 316.14V316.364C330.768 316.716 330.88 316.993 331.104 317.196C331.328 317.399 331.707 317.559 332.24 317.676L334.448 318.172C335.429 318.407 336.139 318.759 336.576 319.228C337.024 319.697 337.248 320.343 337.248 321.164C337.248 322.231 336.88 323.047 336.144 323.612C335.419 324.177 334.368 324.46 332.992 324.46ZM342.562 324.46C341.719 324.46 340.999 324.289 340.402 323.948C339.804 323.607 339.346 323.105 339.026 322.444C338.716 321.783 338.562 320.977 338.562 320.028C338.562 319.079 338.716 318.273 339.026 317.612C339.346 316.951 339.804 316.449 340.402 316.108C340.999 315.767 341.719 315.596 342.562 315.596C343.383 315.596 344.082 315.756 344.658 316.076C345.234 316.385 345.671 316.849 345.97 317.468C346.279 318.076 346.434 318.823 346.434 319.708V320.396H339.842V319.116H345.73L344.482 319.916V319.436C344.482 318.625 344.327 318.033 344.018 317.66C343.708 317.287 343.223 317.1 342.562 317.1C341.9 317.1 341.415 317.287 341.106 317.66C340.796 318.033 340.642 318.625 340.642 319.436V320.572C340.642 321.383 340.796 321.975 341.106 322.348C341.415 322.721 341.9 322.908 342.562 322.908C342.967 322.908 343.298 322.844 343.554 322.716C343.81 322.588 343.996 322.433 344.114 322.252C344.231 322.071 344.29 321.889 344.29 321.708V321.596H346.306C346.113 322.524 345.698 323.233 345.058 323.724C344.428 324.215 343.596 324.46 342.562 324.46ZM349.864 324.3C349.448 324.3 349.133 324.193 348.92 323.98C348.717 323.756 348.616 323.441 348.616 323.036V315.756L349.288 314.044H350.584V322.86H352.344V324.3H349.864ZM347.24 315.756H352.344V317.196H347.24V315.756ZM355.707 324.3C355.291 324.3 354.977 324.193 354.763 323.98C354.561 323.756 354.459 323.441 354.459 323.036V315.756L355.131 314.044H356.427V322.86H358.187V324.3H355.707ZM353.083 315.756H358.187V317.196H353.083V315.756ZM359.999 317.196H358.943V315.756H361.967V324.3H359.999V317.196ZM359.871 313.26H362.047V314.956H359.871V313.26ZM364.359 317.196H363.383V315.756H366.055V317.372H366.535C366.705 316.764 366.977 316.316 367.351 316.028C367.735 315.74 368.231 315.596 368.839 315.596C369.703 315.596 370.359 315.857 370.807 316.38C371.255 316.903 371.479 317.665 371.479 318.668V322.86H372.47V324.3H369.511V319.052C369.511 318.391 369.383 317.911 369.127 317.612C368.871 317.303 368.471 317.148 367.927 317.148C367.372 317.148 366.967 317.303 366.711 317.612C366.455 317.911 366.327 318.391 366.327 319.052V324.3H364.359V317.196ZM373.471 324.972H378.383C378.639 324.972 378.82 324.929 378.927 324.844C379.034 324.769 379.087 324.636 379.087 324.444C379.087 324.252 379.028 324.113 378.911 324.028C378.804 323.943 378.628 323.9 378.383 323.9H375.231C374.634 323.9 374.191 323.804 373.903 323.612C373.615 323.409 373.471 323.111 373.471 322.716C373.471 322.343 373.594 322.055 373.839 321.852C374.095 321.649 374.468 321.537 374.959 321.516V321.1C374.436 320.929 374.047 320.636 373.791 320.22C373.535 319.793 373.407 319.26 373.407 318.62C373.407 317.649 373.716 316.903 374.335 316.38C374.964 315.857 375.844 315.596 376.975 315.596C378.095 315.596 378.964 315.857 379.583 316.38C380.212 316.903 380.527 317.649 380.527 318.62C380.527 319.559 380.218 320.279 379.599 320.78C378.991 321.281 378.138 321.532 377.039 321.532H375.839C375.626 321.532 375.471 321.564 375.375 321.628C375.29 321.692 375.247 321.799 375.247 321.948C375.247 322.087 375.29 322.193 375.375 322.268C375.471 322.332 375.626 322.364 375.839 322.364H378.751C379.498 322.364 380.063 322.529 380.447 322.86C380.842 323.191 381.039 323.671 381.039 324.3C381.039 324.993 380.815 325.516 380.367 325.868C379.93 326.231 379.284 326.412 378.431 326.412H373.471V324.972ZM376.975 320.156C377.519 320.156 377.924 320.049 378.191 319.836C378.468 319.612 378.607 319.265 378.607 318.796V318.412C378.607 317.953 378.468 317.617 378.191 317.404C377.924 317.18 377.519 317.068 376.975 317.068C376.42 317.068 376.004 317.18 375.727 317.404C375.46 317.617 375.327 317.953 375.327 318.412V318.796C375.327 319.265 375.46 319.612 375.727 319.836C376.004 320.049 376.42 320.156 376.975 320.156ZM378.191 316.172C378.191 315.532 378.314 315.063 378.559 314.764C378.804 314.465 379.188 314.316 379.711 314.316H380.943V315.756H379.167C378.954 315.756 378.794 315.815 378.687 315.932C378.58 316.049 378.527 316.241 378.527 316.508L378.191 316.172ZM385.647 324.46C384.527 324.46 383.668 324.231 383.071 323.772C382.484 323.313 382.111 322.588 381.951 321.596H383.919V321.724C383.919 321.959 383.972 322.167 384.079 322.348C384.196 322.529 384.383 322.679 384.639 322.796C384.905 322.903 385.241 322.956 385.647 322.956C386.191 322.956 386.601 322.871 386.879 322.7C387.167 322.529 387.311 322.284 387.311 321.964C387.311 321.708 387.225 321.511 387.055 321.372C386.884 321.233 386.585 321.111 386.159 321.004L384.399 320.636C383.567 320.444 382.964 320.161 382.591 319.788C382.217 319.415 382.031 318.908 382.031 318.268C382.031 317.415 382.34 316.759 382.959 316.3C383.577 315.831 384.463 315.596 385.615 315.596C386.724 315.596 387.572 315.825 388.159 316.284C388.745 316.743 389.113 317.468 389.263 318.46H387.327V318.332C387.327 318.097 387.268 317.889 387.151 317.708C387.033 317.527 386.847 317.383 386.591 317.276C386.345 317.159 386.02 317.1 385.615 317.1C385.092 317.1 384.692 317.185 384.415 317.356C384.137 317.527 383.999 317.772 383.999 318.092C383.999 318.348 384.084 318.545 384.255 318.684C384.425 318.823 384.713 318.945 385.119 319.052L386.879 319.42C387.721 319.612 388.335 319.895 388.719 320.268C389.103 320.641 389.295 321.143 389.295 321.772C389.295 322.636 388.98 323.303 388.351 323.772C387.721 324.231 386.82 324.46 385.647 324.46Z" fill="white"/>
<path d="M407.235 603.153L390.998 596.114L390.117 596.246L384.413 613.555C385.125 613.746 399.396 619.384 399.396 619.384L402.802 627.715C407.338 627.664 413.108 627.612 417.549 627.59L412.132 621.167L407.243 603.161L407.235 603.153Z" fill="url(#paint0_linear_11751_2224)"/>
<path d="M418.65 602.074L415.692 595.871C413.644 597.934 406.186 597.017 405.738 594.271C405.723 594.183 405.709 594.073 405.694 593.978L405.334 594.029C405.4 595.115 405.011 595.747 404.534 596.283C403.352 597.604 397.759 597.802 395.865 596.789C395.395 596.539 395.013 596.114 394.69 595.585L390.998 596.121L407.236 603.161L412.124 621.167L417.542 627.59C418.614 627.59 419.612 627.583 420.493 627.583L421.638 609.591L429.39 604.82L418.65 602.082V602.074Z" fill="url(#paint1_linear_11751_2224)"/>
<path d="M420.485 627.576C422.71 627.576 424.192 627.59 424.354 627.635C425.066 627.825 441.472 627.524 441.472 627.524L429.705 604.893L429.39 604.812L421.638 609.584L420.493 627.576H420.485Z" fill="url(#paint2_linear_11751_2224)"/>
<path d="M384.406 613.548L374.129 618.848L371.839 627.333L395.461 627.796C395.461 627.796 398.596 627.759 402.787 627.715L399.381 619.384C399.381 619.384 385.111 613.739 384.399 613.555L384.406 613.548Z" fill="url(#paint3_linear_11751_2224)"/>
<path d="M406.156 545.698C405.004 560.086 404.637 587.569 405.731 594.271C406.2 597.141 414.312 598.015 415.927 595.585C416.529 594.682 416.984 593.559 416.14 591.357C415.596 589.94 414.525 588.89 414.561 586.886C414.804 575.215 420.933 539.671 423.297 524.953C423.055 526.568 414.848 532.918 413.108 535.039C408.373 540.816 406.465 540.971 406.149 545.698H406.156Z" fill="url(#paint4_linear_11751_2224)"/>
<path d="M406.156 545.698C405.004 560.086 404.637 587.569 405.731 594.271C406.2 597.141 414.312 598.015 415.927 595.585C416.529 594.682 416.984 593.559 416.14 591.357C415.596 589.94 414.525 588.89 414.561 586.886C414.804 575.215 420.933 539.671 423.297 524.953C423.055 526.568 414.848 532.918 413.108 535.039C408.373 540.816 406.465 540.971 406.149 545.698H406.156Z" fill="url(#paint5_linear_11751_2224)"/>
<path d="M356.57 512.269C351.344 514.383 334.798 518.31 325.732 527.677C304.936 549.163 272.997 522.626 317.247 481.747C321.761 477.57 330.981 466.654 333.565 461.259C337.044 453.984 335.062 448.626 335.062 448.626C335.048 448.699 333.359 452.773 331.054 455.452C333.477 441.755 328.059 426.501 304.738 420.805C308.24 423.051 308.504 428.27 306.801 431.764C296.708 454.505 243.055 457.574 230.789 510.015C230.715 509.861 230.649 509.707 230.598 509.567C229.776 507.527 228.887 501.897 229.012 501.353C222.472 513.458 223.742 573.189 277.343 573.174C293.008 573.174 312.629 564.909 324.932 555.123C335.04 547.085 336.119 546.028 343.174 536.361C344.473 533.88 359.661 510.801 356.578 512.269H356.57Z" fill="url(#paint6_linear_11751_2224)"/>
<path d="M356.57 512.269C351.344 514.383 334.798 518.31 325.732 527.677C304.936 549.163 272.997 522.626 317.247 481.747C321.761 477.57 330.981 466.654 333.565 461.259C337.044 453.984 335.062 448.626 335.062 448.626C335.048 448.699 333.359 452.773 331.054 455.452C333.477 441.755 328.059 426.501 304.738 420.805C308.24 423.051 308.504 428.27 306.801 431.764C296.708 454.505 243.055 457.574 230.789 510.015C230.715 509.861 230.649 509.707 230.598 509.567C229.776 507.527 228.887 501.897 229.012 501.353C222.472 513.458 223.742 573.189 277.343 573.174C293.008 573.174 312.629 564.909 324.932 555.123C335.04 547.085 336.119 546.028 343.174 536.361C344.473 533.88 359.661 510.801 356.578 512.269H356.57Z" fill="url(#paint7_linear_11751_2224)"/>
<path d="M443.953 461.354C443.99 459.578 441.81 459.372 440.804 459.101C438.198 458.902 436.385 459.93 434.998 460.708C430.204 463.395 431.283 470.398 428.134 468.438C425.235 466.632 423.855 466.177 417.182 467.821C411.008 469.348 410.414 470.354 405.863 467.895C396.614 462.896 380.75 461.677 368.396 462.081C367.721 462.881 364.528 462.712 364.447 464.826C364.381 466.632 367.655 466.478 367.669 467.3C367.691 468.423 365.276 468.298 365.313 469.422C365.416 472.255 368.301 470.882 376.522 476.828C381.58 480.491 383.672 482.194 383.048 491.436C381.308 511.219 359.83 508.18 339.188 518.751C320.153 527.06 318.304 539.892 315.265 560.864C314.252 567.837 311.235 576.022 309.238 581.726C306.581 589.309 308.563 612.417 310.457 617.585C311.44 620.272 316.872 621.975 320.873 620.367C322.451 619.736 323.523 617.255 321.717 615.324C318.862 612.27 318.715 605.099 319.155 601.759C319.588 598.463 321.13 591.562 322.51 587.98C322.591 587.767 322.671 587.569 322.752 587.371C322.752 587.386 322.752 587.393 322.752 587.408C322.539 594.601 324.139 602.97 324.528 607.169C324.793 610.002 327.795 618.87 331.275 619.501C334.754 620.132 339.584 619.67 339.687 617.145C339.826 613.819 336.743 613.819 335.077 609.459C334.416 607.734 333.932 604.372 334.761 594.645C335.606 583.414 345.449 579.663 350.786 571.589C354.375 566.817 356.791 561.268 358.046 557.942C365.247 556.716 375.854 554.969 389.464 551.96C390.425 559.513 391.541 569.225 392.224 578.437C392.554 582.82 392.936 587.085 392.951 587.231C393.2 589.925 393.486 595.512 395.857 596.774C397.751 597.787 403.345 597.589 404.527 596.268C405.342 595.358 405.921 594.154 404.336 590.836C403.279 588.619 402.567 588.942 402.625 582.834C402.809 572.748 405.033 547.607 405.275 547.482C439.387 531.083 419.612 498.718 430.924 479.691C433.669 474.898 435.695 472.152 437.633 470.596C440.129 468.585 442.192 468.394 442.566 466.713C443.05 464.533 439.431 465.171 439.564 464.489C439.82 463.16 443.917 463.432 443.953 461.354Z" fill="url(#paint8_linear_11751_2224)"/>
<path d="M347.138 560.541C340.619 570.187 336.039 575.296 332.691 578.298C326.988 583.414 324.852 582.438 322.759 587.393C322.759 587.393 322.759 587.408 322.759 587.415C322.547 594.609 324.147 602.977 324.536 607.176C324.8 610.009 327.802 618.877 331.282 619.508C334.761 620.14 339.592 619.677 339.694 617.152C339.834 613.827 336.751 613.827 335.084 609.466C334.424 607.741 333.939 604.379 334.769 594.653C335.613 583.422 345.457 579.671 350.793 571.596C354.383 566.825 356.798 561.275 358.053 557.95C351.425 559.073 347.681 559.756 347.145 560.541H347.138Z" fill="url(#paint9_linear_11751_2224)"/>
<path d="M389.236 548.781L389.464 551.96C380.075 554.037 372.118 555.512 365.717 556.636C375.274 553.978 382.989 551.35 389.236 548.781ZM422.827 502.792C422.504 502.447 421.968 502.41 421.608 502.719C420.155 503.959 417.953 508.642 416.411 521.819C415.883 526.326 415.765 532.61 406.054 539.803C405.679 542.505 405.378 544.23 405.29 547.482C420.272 540.281 424.86 529.996 426.248 519.118C426.284 518.229 426.321 517.326 426.35 516.357C425.998 507.262 423.884 503.908 422.827 502.785V502.792Z" fill="url(#paint10_linear_11751_2224)"/>
<path d="M405.283 547.482C405.459 540.677 406.597 540.574 407.309 524.161C407.309 524.161 402.457 539.737 401.965 542.329C400.812 538.959 398.654 532.705 397.377 528.704C396.019 533.285 393.751 542.681 392.98 545.074C390.212 541.338 388.421 537.513 388.421 537.513L389.456 551.96C390.418 559.513 391.534 569.225 392.216 578.437C392.547 582.82 392.929 587.085 392.943 587.231C393.193 589.925 393.479 595.512 395.85 596.774C397.744 597.787 403.338 597.589 404.519 596.268C405.334 595.357 405.914 594.154 404.329 590.836C403.271 588.619 402.559 588.942 402.618 582.834C402.802 572.748 405.026 547.607 405.268 547.482H405.283Z" fill="url(#paint11_linear_11751_2224)"/>
<path d="M335.18 570.524L328.456 576.991L331.282 563.771C327.428 568.101 322.018 575.325 321.805 576.206L322.202 563.939L314.971 576.859L316.792 563.609C316.792 563.609 315.243 565.914 313.452 569.026C312.145 573.629 310.501 578.165 309.245 581.726C306.588 589.309 308.57 612.417 310.464 617.585C311.448 620.271 316.88 621.974 320.88 620.367C322.458 619.735 323.53 617.254 321.724 615.324C318.869 612.27 318.722 605.098 319.163 601.758C319.596 598.462 321.137 591.562 322.517 587.98C324.69 582.335 326.76 583.612 332.691 578.298L335.18 570.524Z" fill="url(#paint12_linear_11751_2224)"/>
<path d="M256.018 479.566C254.925 482.583 253.126 487.524 253.214 490.387C252.157 491.055 262.133 478.693 272.887 472.02C263.014 484.808 254.139 503.497 254.029 513.612C253.963 520.175 255.673 528.11 248.472 529.931C242.673 531.399 238.21 524.858 238.797 513.921C239.744 496.281 256.092 479.574 256.018 479.566Z" fill="url(#paint13_linear_11751_2224)"/>
<path d="M443.953 461.354C443.99 459.578 441.81 459.372 440.804 459.101C438.198 458.903 436.385 459.93 434.998 460.708C430.204 463.395 431.283 470.398 428.134 468.438C425.235 466.632 423.855 466.177 417.182 467.821C411.009 469.348 410.414 470.354 405.863 467.895C396.614 462.896 380.75 461.677 368.396 462.081C367.721 462.881 364.528 462.712 364.447 464.826C364.381 466.632 367.655 466.478 367.669 467.3C367.691 468.423 365.276 468.299 365.313 469.422C365.416 472.255 368.301 470.883 376.522 476.828C381.58 480.491 383.672 482.194 383.048 491.436C381.308 511.219 359.83 508.18 339.188 518.751C320.153 527.06 318.304 539.892 315.265 560.864C314.883 563.485 314.222 566.274 313.437 569.041C313.437 569.041 313.437 569.034 313.437 569.027C315.228 565.914 316.777 563.609 316.777 563.609L314.956 576.859L322.187 563.94L321.79 576.206C322.003 575.325 327.413 568.109 331.267 563.771L328.441 576.991L335.165 570.524L332.677 578.298C336.024 575.296 340.604 570.187 347.123 560.541C348.239 558.889 363.324 557.737 389.449 551.96L388.414 537.513C388.414 537.513 390.212 541.338 392.973 545.074C393.751 542.674 396.019 533.278 397.37 528.705C398.647 532.705 400.805 538.96 401.958 542.329C402.449 539.738 407.301 524.161 407.301 524.161C406.589 540.574 405.452 540.677 405.275 547.482C439.387 531.083 419.612 498.718 430.924 479.691C433.669 474.898 435.695 472.152 437.633 470.596C440.129 468.585 442.192 468.394 442.566 466.713C443.05 464.533 439.431 465.172 439.564 464.489C439.82 463.16 443.917 463.432 443.953 461.354Z" fill="url(#paint14_linear_11751_2224)"/>
<path d="M441.7 456.546C440.775 454.41 435.702 455.533 432.48 453.023C431.577 452.318 430.865 450.674 430.3 448.919C429.683 446.996 429.272 446.644 428.509 443.817C427.305 439.398 427.129 438.114 425.257 432.469C423.693 427.771 421.924 422.948 419.348 422.464C416.962 422.016 414.789 425.326 411.64 431.103C409.885 434.326 408.902 436.939 407.647 438.98C407.647 438.98 407.647 438.98 407.647 438.987C407.573 439.112 407.5 439.237 407.426 439.354C407.346 439.472 405.4 439.67 403.91 439.942C403.338 440.044 403.051 439.743 402.537 439.068C402.515 439.039 402.486 439.002 402.464 438.973C401.363 437.512 399.234 434.634 396.724 430.67C393.487 425.554 391.805 423.286 389.119 423.954C386.851 424.519 384.215 430.788 382.255 437.101C380.831 441.696 380.89 442.217 380.405 443.928C380.09 445.051 379.745 446.35 379.348 447.686C379.304 447.833 379.26 447.987 379.216 448.134C378.284 451.209 376.478 454.322 374.775 455.775C371.567 458.513 367.963 457.5 367.163 459.688C366.385 461.824 368.066 461.589 368.418 461.795C368.484 461.831 368.514 461.883 368.462 461.971C368.44 462.007 368.411 462.037 368.382 462.074C380.736 461.67 396.599 462.888 405.848 467.887C410.399 470.346 410.994 469.341 417.167 467.814C423.84 466.162 425.22 466.625 428.12 468.431C431.276 470.391 430.19 463.388 434.983 460.701C436.37 459.923 438.184 458.895 440.79 459.093C440.745 459.064 440.701 459.035 440.665 459.013C439.894 458.418 442.272 457.926 441.678 456.546H441.7Z" fill="url(#paint15_linear_11751_2224)"/>
<path d="M430.3 448.927C429.683 447.003 429.272 446.651 428.509 443.825C427.305 439.406 427.129 438.121 425.257 432.476C423.693 427.778 421.924 422.955 419.348 422.471C416.962 422.023 414.789 425.334 411.64 431.111C409.886 434.333 408.902 436.947 407.647 438.987C407.647 438.987 407.647 438.987 407.647 438.995C409.709 439.053 414.04 439.538 418.687 442.261C423.495 445.073 428.428 447.906 430.307 448.919L430.3 448.927Z" fill="url(#paint16_linear_11751_2224)"/>
<path d="M402.464 438.98C401.363 437.519 399.234 434.642 396.724 430.678C393.487 425.561 391.806 423.293 389.119 423.961C386.851 424.526 384.215 430.795 382.255 437.108C380.831 441.703 380.89 442.224 380.406 443.935C380.09 445.058 379.745 446.357 379.348 447.693C381.808 446.365 385.625 444.243 389.368 442.136C393.993 439.53 399.557 439.046 402.457 438.987L402.464 438.98Z" fill="url(#paint17_linear_11751_2224)"/>
<path d="M408.153 459.188C408.366 461.787 406.575 462.881 405.466 462.822C403.338 462.712 402.009 462.396 401.715 458.99C401.341 454.652 402.692 453.206 404.945 453.345C407.302 453.499 407.867 455.643 408.16 459.188H408.153Z" fill="url(#paint18_linear_11751_2224)"/>
<path d="M405.386 460.451C405.422 461.024 405.899 461.501 406.45 461.523C407.001 461.545 407.419 461.09 407.382 460.517C407.346 459.945 406.868 459.467 406.318 459.445C405.767 459.423 405.349 459.878 405.386 460.451Z" fill="white"/>
<path d="M427.554 457.486C427.951 460.965 426.211 461.574 425.103 461.516C422.988 461.406 421.719 461.016 421.418 458.477C420.933 454.417 421.542 452.002 424.457 452.325C426.292 452.531 427.239 454.667 427.554 457.486Z" fill="url(#paint19_linear_11751_2224)"/>
<path d="M424.926 459.189C424.963 459.776 425.455 460.268 426.02 460.282C426.585 460.297 427.018 459.842 426.982 459.255C426.945 458.667 426.453 458.176 425.888 458.161C425.323 458.146 424.89 458.601 424.926 459.189Z" fill="white"/>
<path d="M428.186 463.608C423.246 462.69 417.49 468.893 411.508 469.348C406.736 469.715 411.251 479.331 420.155 480.572C429.059 481.812 433.97 475.118 433.911 469.715C433.882 467.168 432.333 464.378 428.186 463.608Z" fill="#FFC635"/>
<path d="M427.474 464.878C429.368 464.922 430.381 465.751 430.659 466.514C431.004 467.454 430.138 469.37 427.811 469.319C425.594 469.267 424.369 467.425 424.684 466.404C424.912 465.678 425.793 464.833 427.474 464.878Z" fill="#00073A"/>
<defs>
<linearGradient id="paint0_linear_11751_2224" x1="411.332" y1="651.792" x2="392.172" y2="594.051" gradientUnits="userSpaceOnUse">
<stop stop-color="#271AFF"/>
<stop offset="0.02" stop-color="#2A1BFF"/>
<stop offset="0.7" stop-color="#B142FF"/>
<stop offset="1" stop-color="#E752FF"/>
</linearGradient>
<linearGradient id="paint1_linear_11751_2224" x1="419.12" y1="627.392" x2="404.586" y2="583.569" gradientUnits="userSpaceOnUse">
<stop stop-color="#271AFF"/>
<stop offset="0.02" stop-color="#2A1BFF"/>
<stop offset="0.7" stop-color="#B142FF"/>
<stop offset="1" stop-color="#E752FF"/>
</linearGradient>
<linearGradient id="paint2_linear_11751_2224" x1="405.283" y1="661.739" x2="458.011" y2="575.061" gradientUnits="userSpaceOnUse">
<stop stop-color="#271AFF"/>
<stop offset="0.02" stop-color="#2A1BFF"/>
<stop offset="0.7" stop-color="#B142FF"/>
<stop offset="1" stop-color="#E752FF"/>
</linearGradient>
<linearGradient id="paint3_linear_11751_2224" x1="410.333" y1="638.212" x2="364.998" y2="610.964" gradientUnits="userSpaceOnUse">
<stop stop-color="#271AFF"/>
<stop offset="0.02" stop-color="#2A1BFF"/>
<stop offset="0.7" stop-color="#B142FF"/>
<stop offset="1" stop-color="#E752FF"/>
</linearGradient>
<linearGradient id="paint4_linear_11751_2224" x1="412.697" y1="595.592" x2="414.862" y2="525.805" gradientUnits="userSpaceOnUse">
<stop offset="0.01" stop-color="#BE0449"/>
<stop offset="0.27" stop-color="#CC1747"/>
<stop offset="0.73" stop-color="#E23444"/>
<stop offset="1" stop-color="#EB4043"/>
</linearGradient>
<linearGradient id="paint5_linear_11751_2224" x1="414.187" y1="526.37" x2="414.187" y2="609.048" gradientUnits="userSpaceOnUse">
<stop stop-color="#BE0449" stop-opacity="0"/>
<stop offset="0.05" stop-color="#BF054A" stop-opacity="0.07"/>
<stop offset="0.16" stop-color="#C40B4F" stop-opacity="0.26"/>
<stop offset="0.31" stop-color="#CC1356" stop-opacity="0.57"/>
<stop offset="0.49" stop-color="#D81F60"/>
<stop offset="0.54" stop-color="#CE1F5C"/>
<stop offset="0.63" stop-color="#B51F53"/>
<stop offset="0.75" stop-color="#8C1F45"/>
<stop offset="0.88" stop-color="#531F31"/>
<stop offset="1" stop-color="#1C1F1E"/>
</linearGradient>
<linearGradient id="paint6_linear_11751_2224" x1="285.051" y1="422.177" x2="295.526" y2="572.014" gradientUnits="userSpaceOnUse">
<stop stop-color="#FFEB49"/>
<stop offset="0.33" stop-color="#FF9B1D"/>
<stop offset="0.57" stop-color="#FF6600"/>
<stop offset="0.71" stop-color="#FD4C2E"/>
<stop offset="0.88" stop-color="#FB325F"/>
<stop offset="0.97" stop-color="#FB2872"/>
<stop offset="1" stop-color="#FB2872"/>
</linearGradient>
<linearGradient id="paint7_linear_11751_2224" x1="245.007" y1="473.628" x2="346.242" y2="532.081" gradientUnits="userSpaceOnUse">
<stop offset="0.78" stop-color="#BE0449" stop-opacity="0"/>
<stop offset="1" stop-color="#1C1F1E" stop-opacity="0.5"/>
</linearGradient>
<linearGradient id="paint8_linear_11751_2224" x1="375.957" y1="448.692" x2="375.957" y2="595.6" gradientUnits="userSpaceOnUse">
<stop stop-color="#FF6700"/>
<stop offset="0.12" stop-color="#FF9B1D"/>
<stop offset="0.18" stop-color="#FFB029"/>
<stop offset="0.35" stop-color="#FF9218"/>
<stop offset="0.61" stop-color="#FF6600"/>
<stop offset="0.67" stop-color="#FE5F0B"/>
<stop offset="0.77" stop-color="#FD4F29"/>
<stop offset="0.91" stop-color="#FB3559"/>
<stop offset="0.97" stop-color="#FB2872"/>
</linearGradient>
<linearGradient id="paint9_linear_11751_2224" x1="340.392" y1="562.567" x2="340.392" y2="639.878" gradientUnits="userSpaceOnUse">
<stop offset="0.29" stop-color="#D81F60"/>
<stop offset="0.37" stop-color="#CE1F5C"/>
<stop offset="0.49" stop-color="#B51F53"/>
<stop offset="0.64" stop-color="#8C1F45"/>
<stop offset="0.83" stop-color="#531F31"/>
<stop offset="0.99" stop-color="#1C1F1E"/>
</linearGradient>
<linearGradient id="paint10_linear_11751_2224" x1="359.242" y1="558.647" x2="401.062" y2="532.889" gradientUnits="userSpaceOnUse">
<stop stop-color="#FF6600"/>
<stop offset="0.23" stop-color="#FF7106"/>
<stop offset="0.63" stop-color="#FF8F16"/>
<stop offset="1" stop-color="#FFB029"/>
</linearGradient>
<linearGradient id="paint11_linear_11751_2224" x1="397.869" y1="487.303" x2="397.869" y2="669.549" gradientUnits="userSpaceOnUse">
<stop offset="0.22" stop-color="#BE0449" stop-opacity="0"/>
<stop offset="0.49" stop-color="#D81F60"/>
<stop offset="0.53" stop-color="#B41F53"/>
<stop offset="0.58" stop-color="#8C1F45"/>
<stop offset="0.63" stop-color="#691F39"/>
<stop offset="0.69" stop-color="#4D1F2F"/>
<stop offset="0.75" stop-color="#371F27"/>
<stop offset="0.81" stop-color="#271F22"/>
<stop offset="0.89" stop-color="#1E1F1E"/>
<stop offset="1" stop-color="#1C1F1E"/>
</linearGradient>
<linearGradient id="paint12_linear_11751_2224" x1="321.57" y1="555.931" x2="321.57" y2="652.027" gradientUnits="userSpaceOnUse">
<stop offset="0.02" stop-color="#BE0449" stop-opacity="0"/>
<stop offset="0.49" stop-color="#D61F5F"/>
<stop offset="0.63" stop-color="#941F48"/>
<stop offset="0.75" stop-color="#601F36"/>
<stop offset="0.86" stop-color="#3B1F28"/>
<stop offset="0.95" stop-color="#241F20"/>
<stop offset="1" stop-color="#1C1F1E"/>
</linearGradient>
<linearGradient id="paint13_linear_11751_2224" x1="271.206" y1="470.202" x2="246.569" y2="515.036" gradientUnits="userSpaceOnUse">
<stop stop-color="#FFEB49"/>
<stop offset="0.09" stop-color="#FFE545" stop-opacity="0.96"/>
<stop offset="0.24" stop-color="#FFD63D" stop-opacity="0.84"/>
<stop offset="0.44" stop-color="#FFBD2F" stop-opacity="0.66"/>
<stop offset="0.67" stop-color="#FF9A1C" stop-opacity="0.4"/>
<stop offset="0.94" stop-color="#FF6F05" stop-opacity="0.07"/>
<stop offset="1" stop-color="#FF6600" stop-opacity="0"/>
</linearGradient>
<linearGradient id="paint14_linear_11751_2224" x1="378.702" y1="447.488" x2="378.702" y2="555.659" gradientUnits="userSpaceOnUse">
<stop offset="0.08" stop-color="#FFEB49"/>
<stop offset="0.29" stop-color="#FFB52B" stop-opacity="0.6"/>
<stop offset="0.47" stop-color="#FF8A14" stop-opacity="0.28"/>
<stop offset="0.59" stop-color="#FF7005" stop-opacity="0.08"/>
<stop offset="0.66" stop-color="#FF6600" stop-opacity="0"/>
</linearGradient>
<linearGradient id="paint15_linear_11751_2224" x1="404.152" y1="430.883" x2="404.872" y2="518.156" gradientUnits="userSpaceOnUse">
<stop stop-color="#FF6600"/>
<stop offset="0.5" stop-color="#FFB029"/>
<stop offset="0.7" stop-color="#FF7F0E"/>
<stop offset="0.83" stop-color="#FF6600"/>
<stop offset="0.96" stop-color="#FB2872"/>
</linearGradient>
<linearGradient id="paint16_linear_11751_2224" x1="419.879" y1="440.682" x2="425.56" y2="416.851" gradientUnits="userSpaceOnUse">
<stop stop-color="#FF6600" stop-opacity="0"/>
<stop offset="0.03" stop-color="#FF6600" stop-opacity="0.17"/>
<stop offset="0.07" stop-color="#FF6600" stop-opacity="0.36"/>
<stop offset="0.11" stop-color="#FF6600" stop-opacity="0.53"/>
<stop offset="0.16" stop-color="#FF6600" stop-opacity="0.68"/>
<stop offset="0.2" stop-color="#FF6600" stop-opacity="0.8"/>
<stop offset="0.25" stop-color="#FF6600" stop-opacity="0.89"/>
<stop offset="0.3" stop-color="#FF6600" stop-opacity="0.95"/>
<stop offset="0.36" stop-color="#FF6600" stop-opacity="0.99"/>
<stop offset="0.43" stop-color="#FF6600"/>
<stop offset="0.72" stop-color="#FD4737"/>
<stop offset="1" stop-color="#FB2872"/>
</linearGradient>
<linearGradient id="paint17_linear_11751_2224" x1="389.514" y1="439.158" x2="382.609" y2="417.304" gradientUnits="userSpaceOnUse">
<stop stop-color="#FF6600" stop-opacity="0"/>
<stop offset="0.03" stop-color="#FF6600" stop-opacity="0.17"/>
<stop offset="0.07" stop-color="#FF6600" stop-opacity="0.36"/>
<stop offset="0.11" stop-color="#FF6600" stop-opacity="0.53"/>
<stop offset="0.16" stop-color="#FF6600" stop-opacity="0.68"/>
<stop offset="0.2" stop-color="#FF6600" stop-opacity="0.8"/>
<stop offset="0.25" stop-color="#FF6600" stop-opacity="0.89"/>
<stop offset="0.3" stop-color="#FF6600" stop-opacity="0.95"/>
<stop offset="0.36" stop-color="#FF6600" stop-opacity="0.99"/>
<stop offset="0.43" stop-color="#FF6600"/>
<stop offset="0.72" stop-color="#FD4737"/>
<stop offset="1" stop-color="#FB2872"/>
</linearGradient>
<linearGradient id="paint18_linear_11751_2224" x1="405.885" y1="450.431" x2="404.409" y2="462.624" gradientUnits="userSpaceOnUse">
<stop offset="0.16" stop-color="#A030B9"/>
<stop offset="0.88" stop-color="#00073A"/>
</linearGradient>
<linearGradient id="paint19_linear_11751_2224" x1="425.037" y1="450.028" x2="424.185" y2="460.326" gradientUnits="userSpaceOnUse">
<stop offset="0.16" stop-color="#A030B9"/>
<stop offset="0.88" stop-color="#00073A"/>
</linearGradient>
</defs>
</svg>
