<svg width="444" height="480" viewBox="0 0 444 480" fill="none" xmlns="http://www.w3.org/2000/svg">
<path d="M178.594 162.202C174.728 162.143 171.891 162.124 167.204 161.889L161.851 161.596C155.51 161.185 149.59 160.529 146.244 159.472C136.488 156.39 124.139 132.309 130.91 124.48C131.224 124.118 131.566 123.776 131.958 123.492C134.658 121.535 136.537 120.361 138.103 119.451C129.364 117.738 122.466 110.674 121.536 109.695C118.239 110.175 114.462 110.263 110.45 109.91C97.8563 108.814 94.6859 108.335 83.4525 108.335C67.4636 108.335 60.7999 114.774 50.0852 122.563C50.6038 122.563 50.7799 122.66 50.2124 123.14C49.273 123.932 45.6819 127.758 47.6585 130.332C49.1067 132.211 53.1088 128.473 53.7546 130.753C54.1656 132.201 49.4687 133.884 51.6704 136.438C54.6451 139.902 61.71 135.909 63.7942 145.44C65.5751 153.581 63.4126 154.12 67.4441 176.126C68.6966 182.956 70.4677 189.072 72.5226 194.523C77.9337 208.907 85.2922 218.662 90.1945 224.749C91.7895 226.725 93.1301 228.32 94.0499 229.553C94.0792 229.592 96.3983 232.039 96.3102 232.078L146.195 239.27C159.19 239.27 174.64 239.387 181.862 239.436L178.584 162.202H178.594Z" fill="url(#paint0_linear_11751_2221)"/>
<path d="M87.582 236.658C87.6602 231.109 93.1301 230.092 93.9423 229.671C94.0304 229.632 94.0793 229.593 94.05 229.554C93.1204 228.321 91.7896 226.726 90.1946 224.749C86.0457 224.867 81.1825 225.062 78.6481 225.366C70.3797 226.344 64.5086 236.687 80.2725 236.667C82.0338 236.667 84.2452 236.667 87.582 236.667V236.658Z" fill="url(#paint1_linear_11751_2221)"/>
<path d="M87.582 236.658C87.6602 231.109 93.1301 230.092 93.9423 229.671C94.0304 229.632 94.0793 229.593 94.05 229.554C93.1204 228.321 91.7896 226.726 90.1946 224.749C86.0457 224.867 81.1825 225.062 78.6481 225.366C70.3797 226.344 64.5086 236.687 80.2725 236.667C82.0338 236.667 84.2452 236.667 87.582 236.667V236.658Z" fill="url(#paint2_radial_11751_2221)"/>
<path opacity="0.4" d="M78.3442 176.87C78.3442 176.87 83.6869 185.638 94.0103 200.491C94.6854 200.873 95.3606 201.264 96.0162 201.685L94.0201 193.72L95.3508 189.415L121.683 196.646C121.683 196.646 122.299 198.319 123.238 200.971L123.601 199.18L128.542 208.476C128.806 205.619 129.276 202.752 130 199.875C132.339 190.56 136.889 182.438 142.867 175.98C135.46 178.69 128.16 181.127 127.153 180.735C125.068 179.923 117.485 164.737 116.771 154.335C115.929 142.084 119.823 131.995 130.9 124.48C131.213 124.118 131.556 123.776 131.947 123.492C134.648 121.535 136.527 120.361 138.092 119.451C129.354 117.738 122.456 110.674 121.526 109.695C118.228 110.175 114.451 110.263 110.44 109.91C97.846 108.814 94.6757 108.335 83.4423 108.335C67.4534 108.335 60.7897 114.774 50.075 122.563C50.5936 122.563 50.7697 122.66 50.2022 123.14C49.2628 123.932 45.6716 127.758 47.6482 130.332C49.0964 132.211 53.0986 128.473 53.7444 130.753C54.1554 132.201 49.4585 133.884 51.6602 136.438C54.6348 139.902 61.6997 135.909 63.7839 145.44C65.5648 153.581 63.4023 154.12 67.4338 176.126C68.6863 182.956 70.4574 189.072 72.5123 194.523C75.4674 194.62 78.3638 194.982 81.1624 195.599C77.992 184.581 78.3345 176.87 78.3345 176.87H78.3442Z" fill="url(#paint3_linear_11751_2221)"/>
<path d="M110.959 76.1126C107.778 64.5661 101.751 45.4753 96.9071 46.4245C91.7699 47.4323 87.4644 57.9514 84.3625 67.8735C83.7754 66.1415 83.1003 64.1258 82.0337 61.6795C78.286 53.1077 76.143 48.6457 72.7965 49.497C69.1956 50.4168 64.8901 58.4406 62.845 65.163C59.5572 75.9658 59.7137 78.5295 59.3517 83.1971C59.2636 84.3126 59.1951 85.5455 59.1168 86.8371C58.8037 92.4244 58.5297 99.0783 57.4142 101.603C54.7135 107.679 45.2122 116.261 46.1026 121.516C46.3668 123.072 48.9892 122.563 50.0852 122.553C60.7999 114.764 67.4636 108.316 83.4525 108.325C94.6761 108.325 97.8464 108.805 110.45 109.901C114.462 110.253 118.239 110.165 121.536 109.685C121.468 109.607 121.419 109.558 121.419 109.558C121.419 109.558 123.601 109.402 126.566 106.241C130.715 101.799 131.028 98.4032 138.553 95.7416C125.333 94.1955 126.996 83.0209 110.968 76.1126H110.959Z" fill="url(#paint4_linear_11751_2221)"/>
<path d="M126.555 106.241C123.59 109.412 121.408 109.558 121.408 109.558C121.408 109.558 121.457 109.607 121.526 109.686C122.455 110.674 129.354 117.729 138.092 119.441C140.616 117.964 142.28 117.162 145.127 114.774C150.607 110.175 153.386 104.079 153.406 100.086C152.897 100.468 152.241 100.771 151.419 100.918C148.327 101.486 146.086 99.2645 146.233 97.7576C146.311 96.9944 146.84 96.055 147.975 95.4189C146.81 95.5657 145.382 95.7908 143.552 95.8691C141.654 95.9571 140 95.8984 138.522 95.7321C131.007 98.3936 130.694 101.789 126.536 106.232L126.555 106.241Z" fill="#FFC635"/>
<path d="M146.243 97.7673C146.096 99.2742 148.327 101.495 151.429 100.928C152.251 100.781 152.907 100.478 153.416 100.096C153.416 99.059 153.249 98.1489 152.877 97.464C151.635 95.184 150.372 95.1449 147.995 95.4385C146.86 96.0745 146.321 97.0139 146.253 97.7771L146.243 97.7673Z" fill="#00073A"/>
<path d="M103.893 94.4014C105.595 97.748 103.981 100.292 102.503 100.683C99.6752 101.447 96.9354 100.116 94.6848 95.742C91.8178 90.1742 94.4891 87.7182 97.6986 87.8943C99.7437 88.002 101.574 89.8416 103.893 94.4112V94.4014Z" fill="url(#paint5_linear_11751_2221)"/>
<path d="M103.738 98.5238C104.358 98.1289 104.479 97.2102 104.009 96.4718C103.539 95.7335 102.655 95.455 102.035 95.8499C101.415 96.2448 101.294 97.1635 101.764 97.9019C102.235 98.6403 103.119 98.9187 103.738 98.5238Z" fill="white"/>
<path d="M124.99 88.2365C127.866 91.8962 126.976 93.7064 125.929 94.4893C123.923 95.9962 121.046 94.9394 119.236 92.0234C116.594 87.7864 116.447 85.8588 118.688 84.5084C120.547 83.3929 122.661 85.2619 124.999 88.2268L124.99 88.2365Z" fill="url(#paint6_linear_11751_2221)"/>
<path d="M125.336 93.7556C126.057 93.6868 126.578 92.9638 126.499 92.1407C126.421 91.3176 125.773 90.7061 125.052 90.7749C124.331 90.8437 123.81 91.5667 123.889 92.3898C123.967 93.2129 124.615 93.8244 125.336 93.7556Z" fill="white"/>
<path d="M94.1969 73.3533C98.7763 73.2653 104.794 73.6273 109.824 75.6333C110.215 75.7898 110.587 75.9562 110.959 76.1127C107.779 64.5663 101.751 45.4754 96.9074 46.4246C91.7702 47.4325 87.4647 57.9515 84.3628 67.8736C85.175 70.2808 85.811 72.1302 87.0537 73.7839C87.1124 73.8622 90.0773 73.4316 94.1969 73.3533Z" fill="url(#paint7_linear_11751_2221)"/>
<path d="M62.7857 97.3369C63.3336 96.9749 70.3202 89.9002 77.0426 82.9528C78.344 81.6122 88.1194 80.0563 89.5187 79.0387C90.0764 76.8272 86.769 78.6766 87.4931 76.1423C87.9041 74.7039 83.8824 69.371 84.3521 67.8738C83.765 66.1419 83.0898 64.1261 82.0233 61.6798C78.2755 53.1081 76.1326 48.646 72.7861 49.4973C69.1851 50.4171 64.8797 58.441 62.8346 65.1633C59.5468 75.9661 59.7033 78.5299 59.3413 83.1974C59.2532 84.3129 59.1847 85.5458 59.1064 86.8375C60.995 92.7673 62.5704 97.4739 62.7857 97.3369Z" fill="url(#paint8_linear_11751_2221)"/>
<path opacity="0.6" d="M99.1965 229.563C96.2609 226.168 92.2686 220.405 87.3369 210.972C77.6398 192.439 78.3443 176.88 78.3443 176.88C78.3443 176.88 86.0942 189.591 100.968 210.355C104.49 215.267 108.404 223.604 110.674 229.348L99.1965 229.573V229.563Z" fill="url(#paint9_linear_11751_2221)"/>
<path d="M134.766 205.414L131.038 213.154L128.552 208.476L123.611 199.18L123.249 200.971L121.742 208.476L110.264 193.622L114.012 210.658L101.917 198.564L115.675 224.475C116.272 225.708 116.321 226.628 115.979 227.322C115.372 228.506 113.552 228.976 111.184 229.035C110.998 229.035 110.783 229.035 110.558 229.054C108.141 229.113 103.365 229.221 99.0502 229.397C97.1812 229.475 95.4199 229.573 93.9521 229.681C93.14 230.101 87.6701 231.119 87.5918 236.667C87.5918 237.01 87.5918 237.362 87.6309 237.744C87.993 241.237 91.6331 241.697 105.107 241.697H135.197C135.607 241.697 135.999 241.697 136.381 241.697C138.983 241.707 141.097 241.765 144.766 241.765C146.107 241.765 146.068 240.454 146.087 239.74C144.424 230.111 134.756 205.423 134.756 205.423L134.766 205.414Z" fill="url(#paint10_linear_11751_2221)"/>
<path opacity="0.97" d="M181.881 239.437L178.603 162.203C174.738 162.144 171.9 162.124 167.213 161.889L161.86 161.596C156.841 161.273 152.085 160.794 148.66 160.079C136.947 166.948 127.71 178.739 124.002 193.495C120.009 209.367 123.278 225.229 131.615 237.167L146.224 239.27C159.218 239.27 174.669 239.388 181.891 239.437H181.881Z" fill="url(#paint11_linear_11751_2221)"/>
<path d="M396.832 116.027C395.628 111.056 392.732 105.674 392.732 105.674C392.732 105.674 392.653 107.249 392.399 109.48C392.096 112.191 391.841 113.375 391.841 113.375C391.841 113.375 390.276 108.218 389.483 106.271C381.391 86.4167 372.574 75.3986 361.771 62.1495C342.553 38.5967 363.631 23.097 363.631 23.097C363.631 23.097 324.108 21.2378 315.214 63.4901C311.231 82.4243 315.174 97.0629 315.674 109.989C315.928 116.555 315.292 122.69 312.268 128.708C304.147 144.902 287.248 149.844 275.613 147.995C262.178 145.861 259.947 143.562 256.356 131.291C253.156 120.381 253.743 120.782 250.201 114.794C248.42 109.324 239.702 105.214 239.017 113.6C234.711 166.479 231.355 207.606 234.016 210.668C250.113 229.26 278.245 237.216 306.241 234.525C321.77 233.037 337.26 228.282 350.626 220.209C386.557 198.515 398.867 170.05 398.867 130.92C398.867 128.092 398.29 122.005 396.841 116.007L396.832 116.027Z" fill="url(#paint12_linear_11751_2221)"/>
<path d="M367.173 183.26C378.798 158.719 381.596 137.837 381.596 137.837C381.596 137.837 378.954 142.671 376.86 146.018C374.766 149.364 372.173 153.034 372.173 153.034C372.496 154.678 374.062 144.296 374.492 132.886C374.805 124.598 373.259 115.547 373.259 115.547C373.259 115.547 370.539 127.495 366.958 136.331C359.775 154.061 354.041 165.177 341.125 175.941C333.248 182.507 322.699 185.266 328.375 194.454C334.06 203.652 355.763 204.357 367.173 183.26Z" fill="url(#paint13_linear_11751_2221)"/>
<path d="M288.657 261.952C288.657 264.447 288.002 266.375 286.837 267.696C285.252 268.166 283.334 268.117 281.162 267.52L173.985 235.014C170.991 234.182 168.926 231.491 168.926 228.428V50.6224C168.926 47.5792 170.971 44.898 173.946 44.0467L282.043 9.91616C284.293 9.27034 286.162 9.09421 287.63 9.43669C288.305 10.562 288.657 12.1178 288.657 14.1825V261.952Z" fill="url(#paint14_linear_11751_2221)"/>
<path d="M281.172 267.52L173.995 235.014C171.001 234.182 168.936 231.491 168.936 228.428V50.6226C168.936 47.5794 170.981 44.8983 173.956 44.047L282.052 9.91643C284.303 9.27061 286.172 9.09448 287.64 9.43696C286.231 7.09831 283.393 6.71669 279.264 7.91048L171.167 42.5401C168.193 43.4012 166.147 46.1215 166.147 49.2136V229.613C166.147 232.724 168.212 235.454 171.206 236.296L278.383 269.272C282.082 270.319 285.066 269.722 286.847 267.687C285.262 268.156 283.344 268.107 281.172 267.51V267.52Z" fill="url(#paint15_linear_11751_2221)"/>
<path d="M294.929 262.843L293.785 14.3784C293.785 8.94764 293.041 5.78704 291.436 3.90829C291.319 3.7713 291.191 3.6343 291.064 3.5071H291.25C291.172 3.49731 291.103 3.48753 291.025 3.47774C289.704 2.20567 287.884 1.61856 285.487 1.30544C283.725 1.15866 281.563 1.32501 278.813 2.14696L171.862 37.4615C164.347 39.6339 161.48 44.1154 161.48 51.9436L161.176 226.55C161.176 234.397 163.368 239.29 170.913 241.443L283.569 277.814C284.626 277.883 285.497 277.834 286.221 277.736C284.567 277.736 283.168 277.667 283.168 277.667C286.054 277.54 288.608 276.199 290.595 274.115C293.276 271.307 294.929 267.158 294.92 262.843H294.929ZM278.383 269.281L171.206 236.305C168.212 235.464 166.147 232.734 166.147 229.622V49.2233C166.147 46.1312 168.192 43.4109 171.167 42.5498L279.263 7.9202C283.393 6.72641 286.23 7.10803 287.639 9.44668C288.315 10.572 288.667 12.1278 288.667 14.1925V261.962C288.667 264.457 288.011 266.385 286.847 267.706C285.066 269.741 282.082 270.328 278.383 269.291V269.281Z" fill="url(#paint16_linear_11751_2221)"/>
<path d="M301.886 17.3826C301.886 5.39575 301.417 3.11582 292.786 1.76547C290.252 1.36428 285.398 1.29578 285.398 1.29578C285.428 1.29578 285.457 1.29578 285.487 1.30556C287.874 1.61869 289.694 2.2058 291.025 3.47787C291.103 3.48765 291.172 3.49744 291.25 3.50722H291.064C291.191 3.63443 291.318 3.76164 291.436 3.90842C293.041 5.78716 293.784 8.94776 293.784 14.3785L294.929 262.843C294.929 267.168 293.285 271.307 290.604 274.115C288.618 276.2 286.064 277.54 283.177 277.667C283.177 277.667 284.577 277.736 286.23 277.736C287.933 277.736 289.909 277.677 290.917 277.413C299.284 275.211 303.051 271.493 303.041 262.843L301.896 17.3826H301.886Z" fill="url(#paint17_linear_11751_2221)"/>
<path d="M235.084 229.553C236.013 228.321 237.344 226.726 238.939 224.749C243.851 218.663 251.2 208.907 256.611 194.523C258.666 189.072 260.437 182.957 261.689 176.127C265.721 154.12 263.568 153.582 265.339 145.44C267.424 135.91 274.488 139.902 277.463 136.438C279.665 133.884 274.968 132.201 275.379 130.753C276.025 128.473 280.037 132.211 281.475 130.332C283.461 127.759 279.86 123.933 278.921 123.14C278.354 122.661 278.539 122.563 279.048 122.563C268.334 114.774 261.67 108.325 245.681 108.335C234.457 108.335 231.287 108.815 218.684 109.911C214.672 110.263 210.895 110.175 207.597 109.695C206.668 110.684 199.769 117.739 191.031 119.451C192.597 120.361 194.475 121.525 197.176 123.492C197.577 123.786 197.91 124.119 198.223 124.481C204.994 132.309 192.645 156.39 182.89 159.472C179.837 160.441 174.631 161.067 168.926 161.488V228.438C168.926 231.501 170.991 234.192 173.985 235.023L186.373 238.781L232.813 232.088C232.725 232.049 235.054 229.602 235.074 229.563L235.084 229.553Z" fill="url(#paint18_linear_11751_2221)"/>
<path d="M241.561 236.658C241.483 231.11 236.013 230.092 235.201 229.671C235.113 229.632 235.064 229.593 235.093 229.554C236.023 228.321 237.354 226.726 238.949 224.749C243.098 224.867 247.961 225.062 250.495 225.366C258.764 226.344 264.635 236.687 248.871 236.668C247.11 236.668 244.898 236.668 241.561 236.668V236.658Z" fill="url(#paint19_linear_11751_2221)"/>
<path d="M241.561 236.658C241.483 231.11 236.013 230.092 235.201 229.671C235.113 229.632 235.064 229.593 235.093 229.554C236.023 228.321 237.354 226.726 238.949 224.749C243.098 224.867 247.961 225.062 250.495 225.366C258.764 226.344 264.635 236.687 248.871 236.668C247.11 236.668 244.898 236.668 241.561 236.668V236.658Z" fill="url(#paint20_radial_11751_2221)"/>
<path opacity="0.4" d="M250.799 176.87C250.799 176.87 245.456 185.638 235.133 200.492C234.457 200.873 233.782 201.265 233.127 201.685L235.123 193.72L233.792 189.415L207.46 196.646C207.46 196.646 206.844 198.319 205.904 200.971L205.542 199.18L200.601 208.476C200.337 205.619 199.867 202.752 199.143 199.875C196.804 190.56 192.254 182.438 186.275 175.98C193.683 178.69 200.982 181.127 201.99 180.735C204.075 179.923 211.658 164.737 212.372 154.335C213.214 142.084 209.319 131.996 198.243 124.481C197.929 124.119 197.587 123.776 197.196 123.492C194.495 121.535 192.616 120.361 191.051 119.451C199.789 117.739 206.687 110.674 207.617 109.695C210.914 110.175 214.691 110.263 218.703 109.91C231.297 108.815 234.467 108.335 245.701 108.335C261.689 108.335 268.353 114.774 279.068 122.563C278.549 122.563 278.373 122.661 278.941 123.14C279.88 123.933 283.471 127.759 281.495 130.332C280.046 132.211 276.044 128.473 275.398 130.753C274.988 132.201 279.684 133.884 277.483 136.438C274.508 139.902 267.443 135.91 265.359 145.44C263.578 153.582 265.741 154.12 261.709 176.127C260.457 182.957 258.685 189.072 256.631 194.523C253.675 194.62 250.779 194.983 247.981 195.599C251.151 184.581 250.808 176.87 250.808 176.87H250.799Z" fill="url(#paint21_linear_11751_2221)"/>
<path d="M218.184 76.1127C221.365 64.5663 227.392 45.4754 232.236 46.4246C237.373 47.4325 241.679 57.9515 244.78 67.8736C245.368 66.1417 246.043 64.1259 247.109 61.6796C250.857 53.1078 253 48.6458 256.346 49.4971C259.947 50.4169 264.253 58.4407 266.298 65.1631C269.586 75.9659 269.429 78.5297 269.791 83.1972C269.879 84.3127 269.948 85.5456 270.026 86.8372C270.339 92.4246 270.613 99.0785 271.729 101.603C274.429 107.68 283.931 116.261 283.04 121.516C282.776 123.072 280.154 122.563 279.058 122.553C268.343 114.764 261.679 108.316 245.69 108.325C234.467 108.325 231.297 108.805 218.693 109.901C214.681 110.253 210.904 110.165 207.607 109.686C207.675 109.607 207.724 109.558 207.724 109.558C207.724 109.558 205.542 109.402 202.577 106.241C198.428 101.799 198.115 98.4033 190.59 95.7417C203.81 94.1957 202.147 83.021 218.175 76.1127H218.184Z" fill="url(#paint22_linear_11751_2221)"/>
<path d="M202.587 106.241C205.552 109.412 207.734 109.559 207.734 109.559C207.734 109.559 207.685 109.608 207.616 109.686C206.687 110.674 199.788 117.729 191.05 119.442C188.526 117.964 186.862 117.162 184.015 114.774C178.535 110.175 175.756 104.079 175.736 100.087C176.245 100.468 176.901 100.772 177.723 100.918C180.815 101.486 183.056 99.2646 182.909 97.7577C182.831 96.9945 182.302 96.0551 181.167 95.4191C182.332 95.5658 183.76 95.7909 185.59 95.8692C187.488 95.9573 189.142 95.8985 190.62 95.7322C198.135 98.3938 198.448 101.789 202.606 106.232L202.587 106.241Z" fill="#FFC635"/>
<path d="M182.9 97.7674C183.046 99.2744 180.815 101.496 177.713 100.928C176.891 100.781 176.236 100.478 175.727 100.096C175.727 99.0591 175.893 98.1491 176.265 97.4641C177.508 95.1842 178.77 95.145 181.148 95.4386C182.283 96.0746 182.821 97.014 182.89 97.7772L182.9 97.7674Z" fill="#00073A"/>
<path d="M231.444 87.8842C234.664 87.7178 237.325 90.1641 234.458 95.7319C232.207 100.106 229.468 101.437 226.64 100.673C225.162 100.272 223.548 97.7378 225.25 94.3913C227.569 89.8314 229.399 87.982 231.444 87.8744V87.8842Z" fill="url(#paint23_linear_11751_2221)"/>
<path d="M227.397 97.9671C227.867 97.2288 227.746 96.3101 227.126 95.9152C226.506 95.5203 225.622 95.7987 225.152 96.5371C224.682 97.2755 224.803 98.1942 225.423 98.5891C226.043 98.984 226.926 98.7055 227.397 97.9671Z" fill="white"/>
<path d="M210.455 84.5083C212.696 85.8587 212.549 87.7864 209.907 92.0233C208.087 94.9393 205.22 95.9961 203.214 94.4892C202.167 93.6966 201.276 91.8961 204.153 88.2365C206.492 85.2618 208.605 83.3928 210.465 84.5181L210.455 84.5083Z" fill="url(#paint24_linear_11751_2221)"/>
<path d="M205.225 92.3436C205.304 91.5204 204.783 90.7974 204.062 90.7287C203.341 90.6599 202.693 91.2714 202.615 92.0945C202.536 92.9176 203.057 93.6406 203.778 93.7094C204.499 93.7782 205.147 93.1667 205.225 92.3436Z" fill="white"/>
<path d="M234.946 73.3533C230.367 73.2653 224.349 73.6273 219.319 75.6333C218.928 75.7898 218.556 75.9562 218.184 76.1127C221.364 64.5663 227.392 45.4754 232.236 46.4246C237.373 47.4325 241.678 57.9515 244.78 67.8736C243.968 70.2808 243.332 72.1302 242.089 73.7839C242.03 73.8622 239.066 73.4316 234.946 73.3533Z" fill="url(#paint25_linear_11751_2221)"/>
<path d="M266.357 97.3369C265.809 96.9749 258.822 89.9002 252.1 82.9528C250.798 81.6122 241.023 80.0563 239.624 79.0387C239.066 76.8272 242.373 78.6766 241.649 76.1423C241.238 74.7039 245.26 69.371 244.79 67.8738C245.377 66.1419 246.053 64.1261 247.119 61.6798C250.867 53.1081 253.01 48.646 256.356 49.4973C259.957 50.4171 264.263 58.441 266.308 65.1633C269.596 75.9661 269.439 78.5299 269.801 83.1974C269.889 84.3129 269.958 85.5458 270.036 86.8375C268.147 92.7673 266.572 97.4739 266.357 97.3369Z" fill="url(#paint26_linear_11751_2221)"/>
<path opacity="0.6" d="M229.946 229.564C232.881 226.168 236.874 220.405 241.805 210.972C251.502 192.439 250.798 176.88 250.798 176.88C250.798 176.88 243.048 189.591 228.175 210.355C224.652 215.268 220.738 223.604 218.468 229.348L229.946 229.573V229.564Z" fill="url(#paint27_linear_11751_2221)"/>
<path d="M224.036 241.687C237.52 241.687 241.15 241.237 241.512 237.734C241.551 237.353 241.561 237 241.551 236.658C241.473 231.11 236.003 230.092 235.191 229.671C233.723 229.564 231.962 229.466 230.093 229.388C225.768 229.202 221.003 229.094 218.586 229.045C218.361 229.045 218.145 229.035 217.959 229.025C215.591 228.967 213.771 228.497 213.165 227.313C212.813 226.628 212.871 225.699 213.468 224.466L227.226 198.555L215.132 210.649L218.879 193.613L207.401 208.467L205.894 200.962L205.532 199.171L200.591 208.467L198.105 213.144L194.377 205.404C194.377 205.404 185.815 227.264 183.428 237.861L195.992 241.678H224.036V241.687Z" fill="url(#paint28_linear_11751_2221)"/>
<path opacity="0.97" d="M205.15 193.486C200.287 174.15 185.932 159.903 168.936 155.157V228.428C168.936 231.491 171 234.182 173.994 235.014L194.387 241.198C205.004 228.947 209.612 211.216 205.15 193.486Z" fill="url(#paint29_linear_11751_2221)"/>
<path d="M79.0008 355.84C76.2274 355.84 73.9874 355.328 72.2808 354.304C70.6168 353.237 69.3581 351.552 68.5048 349.248C67.6941 346.944 67.2034 343.829 67.0328 339.904H73.8168V343.68C73.8168 345.813 74.2221 347.392 75.0328 348.416C75.8861 349.397 77.2088 349.888 79.0008 349.888C80.6648 349.888 81.9234 349.483 82.7768 348.672C83.6301 347.861 84.0568 346.667 84.0568 345.088V342.72C84.0568 341.525 83.7368 340.501 83.0968 339.648C82.4994 338.795 81.4968 338.027 80.0888 337.344L74.7128 334.848C71.9821 333.483 70.0621 331.883 68.9528 330.048C67.8434 328.213 67.2888 325.653 67.2888 322.368C67.2888 318.357 68.2488 315.371 70.1688 313.408C72.1314 311.403 75.0754 310.4 79.0008 310.4C81.7741 310.4 83.9928 310.933 85.6568 312C87.3634 313.024 88.6221 314.688 89.4328 316.992C90.2861 319.296 90.7768 322.411 90.9048 326.336H84.1848V322.56C84.1848 320.427 83.7581 318.869 82.9048 317.888C82.0941 316.864 80.7928 316.352 79.0008 316.352C77.3794 316.352 76.1421 316.757 75.2888 317.568C74.4354 318.379 74.0088 319.573 74.0088 321.152V323.52C74.0088 324.757 74.3074 325.803 74.9048 326.656C75.5021 327.509 76.5048 328.256 77.9128 328.896L83.2888 331.392C86.0194 332.757 87.9394 334.379 89.0488 336.256C90.2008 338.091 90.7768 340.629 90.7768 343.872C90.7768 347.883 89.7954 350.891 87.8328 352.896C85.9128 354.859 82.9688 355.84 79.0008 355.84ZM106.108 355.84C103.462 355.84 101.286 355.221 99.5798 353.984C97.8731 352.747 96.5931 350.827 95.7398 348.224C94.9291 345.621 94.5238 342.251 94.5238 338.112C94.5238 333.973 94.9291 330.603 95.7398 328C96.5931 325.397 97.8731 323.477 99.5798 322.24C101.286 321.003 103.462 320.384 106.108 320.384C108.71 320.384 110.822 320.96 112.444 322.112C114.065 323.264 115.26 325.056 116.028 327.488C116.838 329.877 117.244 332.992 117.244 336.832V339.456H98.6838V334.592H114.94L110.78 337.088V332.544C110.78 330.197 110.396 328.512 109.628 327.488C108.902 326.464 107.729 325.952 106.108 325.952C104.529 325.952 103.377 326.464 102.652 327.488C101.926 328.512 101.564 330.197 101.564 332.544V343.552C101.564 345.813 101.926 347.477 102.652 348.544C103.377 349.568 104.529 350.08 106.108 350.08C107.132 350.08 107.964 349.888 108.604 349.504C109.244 349.12 109.713 348.608 110.012 347.968C110.31 347.285 110.46 346.496 110.46 345.6V344.384H116.988C116.561 348.309 115.452 351.211 113.66 353.088C111.91 354.923 109.393 355.84 106.108 355.84ZM132.16 355.84C129.514 355.84 127.338 355.221 125.632 353.984C123.968 352.747 122.73 350.827 121.92 348.224C121.109 345.621 120.704 342.251 120.704 338.112C120.704 333.973 121.109 330.603 121.92 328C122.73 325.397 123.968 323.477 125.632 322.24C127.338 321.003 129.514 320.384 132.16 320.384C135.445 320.384 137.962 321.387 139.712 323.392C141.504 325.355 142.613 328.469 143.04 332.736H136.448V330.944C136.448 329.963 136.298 329.109 136 328.384C135.701 327.659 135.232 327.104 134.592 326.72C133.952 326.336 133.141 326.144 132.16 326.144C130.624 326.144 129.493 326.656 128.768 327.68C128.085 328.704 127.744 330.325 127.744 332.544V343.68C127.744 345.899 128.085 347.52 128.768 348.544C129.493 349.568 130.624 350.08 132.16 350.08C133.141 350.08 133.952 349.888 134.592 349.504C135.232 349.077 135.701 348.501 136 347.776C136.298 347.008 136.448 346.069 136.448 344.96V342.976H143.04C142.741 347.413 141.696 350.677 139.904 352.768C138.112 354.816 135.53 355.84 132.16 355.84ZM155.597 355.84C153.079 355.84 151.181 355.008 149.901 353.344C148.621 351.637 147.981 349.12 147.981 345.792V326.336H145.485V321.024H154.573V344.576C154.573 346.539 154.893 347.947 155.533 348.8C156.173 349.653 157.197 350.08 158.605 350.08C160.055 350.08 161.101 349.653 161.741 348.8C162.381 347.947 162.701 346.539 162.701 344.576V321.024H169.293V349.888H171.789V355.2H168.333C166.839 355.2 165.709 354.816 164.941 354.048C164.173 353.28 163.789 352.149 163.789 350.656V349.376H162.381C162.082 351.509 161.357 353.131 160.205 354.24C159.095 355.307 157.559 355.84 155.597 355.84ZM176.292 326.336H173.732V321.024H181.732V326.976H183.204C183.502 324.843 184.164 323.243 185.188 322.176C186.254 321.109 187.705 320.576 189.54 320.576H192.1V326.336H186.916C185.508 326.336 184.462 326.784 183.78 327.68C183.14 328.533 182.82 329.941 182.82 331.904V355.2H176.292V326.336ZM204.89 355.84C202.245 355.84 200.069 355.221 198.362 353.984C196.656 352.747 195.376 350.827 194.522 348.224C193.712 345.621 193.306 342.251 193.306 338.112C193.306 333.973 193.712 330.603 194.522 328C195.376 325.397 196.656 323.477 198.362 322.24C200.069 321.003 202.245 320.384 204.89 320.384C207.493 320.384 209.605 320.96 211.226 322.112C212.848 323.264 214.042 325.056 214.81 327.488C215.621 329.877 216.026 332.992 216.026 336.832V339.456H197.466V334.592H213.722L209.562 337.088V332.544C209.562 330.197 209.178 328.512 208.41 327.488C207.685 326.464 206.512 325.952 204.89 325.952C203.312 325.952 202.16 326.464 201.434 327.488C200.709 328.512 200.346 330.197 200.346 332.544V343.552C200.346 345.813 200.709 347.477 201.434 348.544C202.16 349.568 203.312 350.08 204.89 350.08C205.914 350.08 206.746 349.888 207.386 349.504C208.026 349.12 208.496 348.608 208.794 347.968C209.093 347.285 209.242 346.496 209.242 345.6V344.384H215.77C215.344 348.309 214.234 351.211 212.442 353.088C210.693 354.923 208.176 355.84 204.89 355.84ZM220.894 316.352H218.142V311.04H227.55V355.2H220.894V316.352ZM233.891 358.336H242.019L242.787 354.112H236.899L231.331 321.024H238.051L242.339 348.864H243.811L248.035 321.024H254.499L248.099 359.104C247.843 360.597 247.31 361.728 246.499 362.496C245.731 363.264 244.643 363.648 243.235 363.648H233.891V358.336ZM277.835 355.84C274.421 355.84 271.883 354.965 270.219 353.216C268.555 351.424 267.509 348.48 267.083 344.384H273.611V345.728C273.611 346.667 273.739 347.477 273.995 348.16C274.293 348.843 274.741 349.376 275.339 349.76C275.979 350.101 276.811 350.272 277.835 350.272C279.243 350.272 280.288 349.973 280.971 349.376C281.696 348.736 282.059 347.776 282.059 346.496C282.059 345.387 281.803 344.512 281.291 343.872C280.821 343.189 279.947 342.549 278.667 341.952L273.867 339.84C271.52 338.731 269.835 337.451 268.811 336C267.787 334.549 267.275 332.672 267.275 330.368C267.275 327.125 268.171 324.651 269.963 322.944C271.755 321.237 274.4 320.384 277.899 320.384C281.269 320.384 283.787 321.28 285.451 323.072C287.115 324.821 288.16 327.744 288.587 331.84H282.187V330.496C282.187 329.557 282.037 328.747 281.739 328.064C281.44 327.381 280.971 326.869 280.331 326.528C279.733 326.144 278.923 325.952 277.899 325.952C276.533 325.952 275.488 326.272 274.763 326.912C274.08 327.509 273.739 328.448 273.739 329.728C273.739 330.837 273.973 331.733 274.443 332.416C274.955 333.056 275.829 333.675 277.067 334.272L281.867 336.384C284.256 337.493 285.963 338.773 286.987 340.224C288.053 341.675 288.587 343.552 288.587 345.856C288.587 349.099 287.669 351.573 285.835 353.28C284.043 354.987 281.376 355.84 277.835 355.84ZM293.244 358.336H301.372L302.14 354.112H296.252L290.684 321.024H297.404L301.692 348.864H303.164L307.388 321.024H313.852L307.452 359.104C307.196 360.597 306.662 361.728 305.852 362.496C305.084 363.264 303.996 363.648 302.588 363.648H293.244V358.336ZM318.114 326.336H315.554V321.024H323.554V326.848H325.026C325.325 324.715 326.029 323.115 327.138 322.048C328.29 320.939 329.848 320.384 331.81 320.384C334.285 320.384 336.162 321.237 337.442 322.944C338.722 324.651 339.362 327.147 339.362 330.432V349.888H341.922V355.2H332.834V331.648C332.834 329.685 332.493 328.277 331.81 327.424C331.17 326.571 330.146 326.144 328.738 326.144C327.33 326.144 326.285 326.571 325.602 327.424C324.962 328.277 324.642 329.685 324.642 331.648V355.2H318.114V326.336ZM355.897 355.84C353.252 355.84 351.076 355.221 349.369 353.984C347.705 352.747 346.468 350.827 345.657 348.224C344.847 345.621 344.441 342.251 344.441 338.112C344.441 333.973 344.847 330.603 345.657 328C346.468 325.397 347.705 323.477 349.369 322.24C351.076 321.003 353.252 320.384 355.897 320.384C359.183 320.384 361.7 321.387 363.449 323.392C365.241 325.355 366.351 328.469 366.777 332.736H360.185V330.944C360.185 329.963 360.036 329.109 359.737 328.384C359.439 327.659 358.969 327.104 358.329 326.72C357.689 326.336 356.879 326.144 355.897 326.144C354.361 326.144 353.231 326.656 352.505 327.68C351.823 328.704 351.481 330.325 351.481 332.544V343.68C351.481 345.899 351.823 347.52 352.505 348.544C353.231 349.568 354.361 350.08 355.897 350.08C356.879 350.08 357.689 349.888 358.329 349.504C358.969 349.077 359.439 348.501 359.737 347.776C360.036 347.008 360.185 346.069 360.185 344.96V342.976H366.777C366.479 347.413 365.433 350.677 363.641 352.768C361.849 354.816 359.268 355.84 355.897 355.84ZM55.244 413.84C52.5987 413.84 50.4227 413.221 48.716 411.984C47.0093 410.747 45.7293 408.827 44.876 406.224C44.0653 403.621 43.66 400.251 43.66 396.112C43.66 391.973 44.0653 388.603 44.876 386C45.7293 383.397 47.0093 381.477 48.716 380.24C50.4227 379.003 52.5987 378.384 55.244 378.384C57.8467 378.384 59.9587 378.96 61.58 380.112C63.2013 381.264 64.396 383.056 65.164 385.488C65.9747 387.877 66.38 390.992 66.38 394.832V397.456H47.82V392.592H64.076L59.916 395.088V390.544C59.916 388.197 59.532 386.512 58.764 385.488C58.0387 384.464 56.8653 383.952 55.244 383.952C53.6653 383.952 52.5133 384.464 51.788 385.488C51.0627 386.512 50.7 388.197 50.7 390.544V401.552C50.7 403.813 51.0627 405.477 51.788 406.544C52.5133 407.568 53.6653 408.08 55.244 408.08C56.268 408.08 57.1 407.888 57.74 407.504C58.38 407.12 58.8493 406.608 59.148 405.968C59.4467 405.285 59.596 404.496 59.596 403.6V402.384H66.124C65.6973 406.309 64.588 409.211 62.796 411.088C61.0467 412.923 58.5293 413.84 55.244 413.84ZM68.566 379.024H75.286L79.51 407.12H80.982L85.27 379.024H91.734L86.038 413.2H74.198L68.566 379.024ZM105.542 413.84C102.896 413.84 100.72 413.221 99.0135 411.984C97.3068 410.747 96.0268 408.827 95.1735 406.224C94.3628 403.621 93.9575 400.251 93.9575 396.112C93.9575 391.973 94.3628 388.603 95.1735 386C96.0268 383.397 97.3068 381.477 99.0135 380.24C100.72 379.003 102.896 378.384 105.542 378.384C108.144 378.384 110.256 378.96 111.878 380.112C113.499 381.264 114.694 383.056 115.462 385.488C116.272 387.877 116.678 390.992 116.678 394.832V397.456H98.1175V392.592H114.374L110.214 395.088V390.544C110.214 388.197 109.83 386.512 109.062 385.488C108.336 384.464 107.163 383.952 105.542 383.952C103.963 383.952 102.811 384.464 102.086 385.488C101.36 386.512 100.998 388.197 100.998 390.544V401.552C100.998 403.813 101.36 405.477 102.086 406.544C102.811 407.568 103.963 408.08 105.542 408.08C106.566 408.08 107.398 407.888 108.038 407.504C108.678 407.12 109.147 406.608 109.446 405.968C109.744 405.285 109.894 404.496 109.894 403.6V402.384H116.422C115.995 406.309 114.886 409.211 113.094 411.088C111.344 412.923 108.827 413.84 105.542 413.84ZM121.866 384.336H119.306V379.024H127.306V384.976H128.778C129.076 382.843 129.738 381.243 130.762 380.176C131.828 379.109 133.279 378.576 135.114 378.576H137.674V384.336H132.49C131.082 384.336 130.036 384.784 129.354 385.68C128.714 386.533 128.394 387.941 128.394 389.904V413.2H121.866V384.336ZM142.105 416.336H150.233L151.001 412.112H145.113L139.545 379.024H146.265L150.553 406.864H152.025L156.249 379.024H162.713L156.313 417.104C156.057 418.597 155.524 419.728 154.713 420.496C153.945 421.264 152.857 421.648 151.449 421.648H142.105V416.336ZM164.352 379.024H171.008L174.72 407.12H176.128L180.224 379.024H187.072L191.104 407.12H192.576L196.288 379.024H202.688L197.632 413.2H187.008L184.192 393.296H182.848L180.032 413.2H169.408L164.352 379.024ZM206.581 374.352H204.021V369.04H213.173V376.272C213.173 377.808 212.96 380.496 212.533 384.336H213.941C214.325 382.331 215.029 380.837 216.053 379.856C217.077 378.875 218.485 378.384 220.277 378.384C222.794 378.384 224.672 379.237 225.909 380.944C227.189 382.608 227.829 385.104 227.829 388.432V407.888H230.389V413.2H221.301V389.648C221.301 387.728 220.981 386.341 220.341 385.488C219.701 384.592 218.656 384.144 217.205 384.144C215.797 384.144 214.773 384.592 214.133 385.488C213.493 386.341 213.173 387.728 213.173 389.648V413.2H206.581V374.352ZM244.442 413.84C241.796 413.84 239.62 413.221 237.914 411.984C236.207 410.747 234.927 408.827 234.074 406.224C233.263 403.621 232.858 400.251 232.858 396.112C232.858 391.973 233.263 388.603 234.074 386C234.927 383.397 236.207 381.477 237.914 380.24C239.62 379.003 241.796 378.384 244.442 378.384C247.044 378.384 249.156 378.96 250.778 380.112C252.399 381.264 253.594 383.056 254.362 385.488C255.172 387.877 255.578 390.992 255.578 394.832V397.456H237.018V392.592H253.274L249.114 395.088V390.544C249.114 388.197 248.73 386.512 247.962 385.488C247.236 384.464 246.063 383.952 244.442 383.952C242.863 383.952 241.711 384.464 240.986 385.488C240.26 386.512 239.898 388.197 239.898 390.544V401.552C239.898 403.813 240.26 405.477 240.986 406.544C241.711 407.568 242.863 408.08 244.442 408.08C245.466 408.08 246.298 407.888 246.938 407.504C247.578 407.12 248.047 406.608 248.346 405.968C248.644 405.285 248.794 404.496 248.794 403.6V402.384H255.322C254.895 406.309 253.786 409.211 251.994 411.088C250.244 412.923 247.727 413.84 244.442 413.84ZM260.765 384.336H258.205V379.024H266.205V384.976H267.677C267.976 382.843 268.637 381.243 269.661 380.176C270.728 379.109 272.179 378.576 274.013 378.576H276.573V384.336H271.389C269.981 384.336 268.936 384.784 268.253 385.68C267.613 386.533 267.293 387.941 267.293 389.904V413.2H260.765V384.336ZM289.364 413.84C286.719 413.84 284.543 413.221 282.836 411.984C281.129 410.747 279.849 408.827 278.996 406.224C278.185 403.621 277.78 400.251 277.78 396.112C277.78 391.973 278.185 388.603 278.996 386C279.849 383.397 281.129 381.477 282.836 380.24C284.543 379.003 286.719 378.384 289.364 378.384C291.967 378.384 294.079 378.96 295.7 380.112C297.321 381.264 298.516 383.056 299.284 385.488C300.095 387.877 300.5 390.992 300.5 394.832V397.456H281.94V392.592H298.196L294.036 395.088V390.544C294.036 388.197 293.652 386.512 292.884 385.488C292.159 384.464 290.985 383.952 289.364 383.952C287.785 383.952 286.633 384.464 285.908 385.488C285.183 386.512 284.82 388.197 284.82 390.544V401.552C284.82 403.813 285.183 405.477 285.908 406.544C286.633 407.568 287.785 408.08 289.364 408.08C290.388 408.08 291.22 407.888 291.86 407.504C292.5 407.12 292.969 406.608 293.268 405.968C293.567 405.285 293.716 404.496 293.716 403.6V402.384H300.244C299.817 406.309 298.708 409.211 296.916 411.088C295.167 412.923 292.649 413.84 289.364 413.84ZM315.865 416.336H323.993L324.761 412.112H318.873L313.305 379.024H320.025L324.313 406.864H325.785L330.009 379.024H336.473L330.073 417.104C329.817 418.597 329.284 419.728 328.473 420.496C327.705 421.264 326.617 421.648 325.209 421.648H315.865V416.336ZM350.343 413.84C347.612 413.84 345.394 413.221 343.687 411.984C342.023 410.747 340.764 408.827 339.911 406.224C339.1 403.621 338.695 400.251 338.695 396.112C338.695 391.973 339.1 388.603 339.911 386C340.764 383.397 342.023 381.477 343.687 380.24C345.394 379.003 347.612 378.384 350.343 378.384C353.074 378.384 355.271 379.003 356.935 380.24C358.642 381.477 359.9 383.397 360.711 386C361.564 388.603 361.991 391.973 361.991 396.112C361.991 400.251 361.564 403.621 360.711 406.224C359.9 408.827 358.642 410.747 356.935 411.984C355.271 413.221 353.074 413.84 350.343 413.84ZM350.343 408.08C351.964 408.08 353.138 407.568 353.863 406.544C354.631 405.477 355.015 403.813 355.015 401.552V390.672C355.015 388.411 354.631 386.768 353.863 385.744C353.138 384.677 351.964 384.144 350.343 384.144C348.722 384.144 347.527 384.677 346.759 385.744C346.034 386.768 345.671 388.411 345.671 390.672V401.552C345.671 403.813 346.034 405.477 346.759 406.544C347.527 407.568 348.722 408.08 350.343 408.08ZM374.588 413.84C372.071 413.84 370.172 413.008 368.892 411.344C367.612 409.637 366.972 407.12 366.972 403.792V384.336H364.476V379.024H373.564V402.576C373.564 404.539 373.884 405.947 374.524 406.8C375.164 407.653 376.188 408.08 377.596 408.08C379.047 408.08 380.092 407.653 380.732 406.8C381.372 405.947 381.692 404.539 381.692 402.576V379.024H388.284V407.888H390.78V413.2H387.324C385.831 413.2 384.7 412.816 383.932 412.048C383.164 411.28 382.78 410.149 382.78 408.656V407.376H381.372C381.073 409.509 380.348 411.131 379.196 412.24C378.087 413.307 376.551 413.84 374.588 413.84ZM111.702 471.84C109.184 471.84 107.286 471.008 106.006 469.344C104.726 467.637 104.086 465.12 104.086 461.792V442.336H101.59V437.024H110.678V460.576C110.678 462.539 110.998 463.947 111.638 464.8C112.278 465.653 113.302 466.08 114.71 466.08C116.16 466.08 117.206 465.653 117.846 464.8C118.486 463.947 118.806 462.539 118.806 460.576V437.024H125.398V465.888H127.894V471.2H124.438C122.944 471.2 121.814 470.816 121.046 470.048C120.278 469.28 119.894 468.149 119.894 466.656V465.376H118.486C118.187 467.509 117.462 469.131 116.31 470.24C115.2 471.307 113.664 471.84 111.702 471.84ZM141.165 471.84C137.751 471.84 135.213 470.965 133.549 469.216C131.885 467.424 130.839 464.48 130.413 460.384H136.941V461.728C136.941 462.667 137.069 463.477 137.325 464.16C137.623 464.843 138.071 465.376 138.669 465.76C139.309 466.101 140.141 466.272 141.165 466.272C142.573 466.272 143.618 465.973 144.301 465.376C145.026 464.736 145.389 463.776 145.389 462.496C145.389 461.387 145.133 460.512 144.621 459.872C144.151 459.189 143.277 458.549 141.997 457.952L137.197 455.84C134.85 454.731 133.165 453.451 132.141 452C131.117 450.549 130.605 448.672 130.605 446.368C130.605 443.125 131.501 440.651 133.293 438.944C135.085 437.237 137.73 436.384 141.229 436.384C144.599 436.384 147.117 437.28 148.781 439.072C150.445 440.821 151.49 443.744 151.917 447.84H145.517V446.496C145.517 445.557 145.367 444.747 145.069 444.064C144.77 443.381 144.301 442.869 143.661 442.528C143.063 442.144 142.253 441.952 141.229 441.952C139.863 441.952 138.818 442.272 138.093 442.912C137.41 443.509 137.069 444.448 137.069 445.728C137.069 446.837 137.303 447.733 137.773 448.416C138.285 449.056 139.159 449.675 140.397 450.272L145.197 452.384C147.586 453.493 149.293 454.773 150.317 456.224C151.383 457.675 151.917 459.552 151.917 461.856C151.917 465.099 150.999 467.573 149.165 469.28C147.373 470.987 144.706 471.84 141.165 471.84ZM166.808 471.84C164.162 471.84 161.986 471.221 160.28 469.984C158.573 468.747 157.293 466.827 156.44 464.224C155.629 461.621 155.224 458.251 155.224 454.112C155.224 449.973 155.629 446.603 156.44 444C157.293 441.397 158.573 439.477 160.28 438.24C161.986 437.003 164.162 436.384 166.808 436.384C169.41 436.384 171.522 436.96 173.144 438.112C174.765 439.264 175.96 441.056 176.728 443.488C177.538 445.877 177.944 448.992 177.944 452.832V455.456H159.384V450.592H175.64L171.48 453.088V448.544C171.48 446.197 171.096 444.512 170.328 443.488C169.602 442.464 168.429 441.952 166.808 441.952C165.229 441.952 164.077 442.464 163.352 443.488C162.626 444.512 162.264 446.197 162.264 448.544V459.552C162.264 461.813 162.626 463.477 163.352 464.544C164.077 465.568 165.229 466.08 166.808 466.08C167.832 466.08 168.664 465.888 169.304 465.504C169.944 465.12 170.413 464.608 170.712 463.968C171.01 463.285 171.16 462.496 171.16 461.6V460.384H177.688C177.261 464.309 176.152 467.211 174.36 469.088C172.61 470.923 170.093 471.84 166.808 471.84ZM193.629 432.544H190.685V427.04H214.685V440.096H208.861V432.544H200.413V446.112H209.757V451.232H200.413V471.2H193.629V432.544ZM219.426 442.336H216.674V437.024H226.082V471.2H219.426V442.336ZM219.042 427.04H226.21V433.568H219.042V427.04ZM232.484 442.336H229.924V437.024H237.924V442.976H239.396C239.695 440.843 240.356 439.243 241.38 438.176C242.447 437.109 243.898 436.576 245.732 436.576H248.292V442.336H243.108C241.7 442.336 240.655 442.784 239.972 443.68C239.332 444.533 239.012 445.941 239.012 447.904V471.2H232.484V442.336ZM261.083 471.84C258.437 471.84 256.261 471.221 254.555 469.984C252.848 468.747 251.568 466.827 250.715 464.224C249.904 461.621 249.499 458.251 249.499 454.112C249.499 449.973 249.904 446.603 250.715 444C251.568 441.397 252.848 439.477 254.555 438.24C256.261 437.003 258.437 436.384 261.083 436.384C263.685 436.384 265.797 436.96 267.419 438.112C269.04 439.264 270.235 441.056 271.003 443.488C271.813 445.877 272.219 448.992 272.219 452.832V455.456H253.659V450.592H269.915L265.755 453.088V448.544C265.755 446.197 265.371 444.512 264.603 443.488C263.877 442.464 262.704 441.952 261.083 441.952C259.504 441.952 258.352 442.464 257.627 443.488C256.901 444.512 256.539 446.197 256.539 448.544V459.552C256.539 461.813 256.901 463.477 257.627 464.544C258.352 465.568 259.504 466.08 261.083 466.08C262.107 466.08 262.939 465.888 263.579 465.504C264.219 465.12 264.688 464.608 264.987 463.968C265.285 463.285 265.435 462.496 265.435 461.6V460.384H271.963C271.536 464.309 270.427 467.211 268.635 469.088C266.885 470.923 264.368 471.84 261.083 471.84ZM278.559 431.584C278.559 430.133 278.943 429.024 279.711 428.256C280.479 427.445 281.609 427.04 283.103 427.04H290.271V432.352H285.087V471.2H278.559V431.584ZM275.487 465.888H289.439V471.2H275.487V465.888ZM275.167 437.024H290.271V442.336H275.167V437.024ZM304.194 471.84C301.464 471.84 299.245 471.221 297.538 469.984C295.874 468.747 294.616 466.827 293.762 464.224C292.952 461.621 292.546 458.251 292.546 454.112C292.546 449.973 292.952 446.603 293.762 444C294.616 441.397 295.874 439.477 297.538 438.24C299.245 437.003 301.464 436.384 304.194 436.384C306.925 436.384 309.122 437.003 310.786 438.24C312.493 439.477 313.752 441.397 314.562 444C315.416 446.603 315.842 449.973 315.842 454.112C315.842 458.251 315.416 461.621 314.562 464.224C313.752 466.827 312.493 468.747 310.786 469.984C309.122 471.221 306.925 471.84 304.194 471.84ZM304.194 466.08C305.816 466.08 306.989 465.568 307.714 464.544C308.482 463.477 308.866 461.813 308.866 459.552V448.672C308.866 446.411 308.482 444.768 307.714 443.744C306.989 442.677 305.816 442.144 304.194 442.144C302.573 442.144 301.378 442.677 300.61 443.744C299.885 444.768 299.522 446.411 299.522 448.672V459.552C299.522 461.813 299.885 463.477 300.61 464.544C301.378 465.568 302.573 466.08 304.194 466.08ZM317.647 465.888H320.207L324.367 450.528L324.431 454.944L320.527 442.336H317.967V437.024H325.903L329.231 450.144H330.703L334.031 437.024H341.775V442.336H339.215L335.311 454.944L335.375 450.528L339.535 465.888H342.031V471.2H334.159L330.511 456.928H329.039L325.391 471.2H317.647V465.888Z" fill="black"/>
<defs>
<linearGradient id="paint0_linear_11751_2221" x1="114.471" y1="89.1169" x2="114.471" y2="234.103" gradientUnits="userSpaceOnUse">
<stop stop-color="#FF6600"/>
<stop offset="0.25" stop-color="#FFC635"/>
<stop offset="0.41" stop-color="#FFA824"/>
<stop offset="0.71" stop-color="#FF6600"/>
<stop offset="1" stop-color="#FB2872"/>
</linearGradient>
<linearGradient id="paint1_linear_11751_2221" x1="82.8655" y1="231.041" x2="49.5079" y2="237.832" gradientUnits="userSpaceOnUse">
<stop offset="0.01" stop-color="#BE0449"/>
<stop offset="0.27" stop-color="#CC1747"/>
<stop offset="0.73" stop-color="#E23444"/>
<stop offset="1" stop-color="#EB4043"/>
</linearGradient>
<radialGradient id="paint2_radial_11751_2221" cx="0" cy="0" r="1" gradientUnits="userSpaceOnUse" gradientTransform="translate(91.8385 230.982) scale(34.9819 34.9819)">
<stop offset="0.16" stop-color="#A5004C"/>
<stop offset="0.25" stop-color="#A8034D" stop-opacity="0.96"/>
<stop offset="0.38" stop-color="#B30B52" stop-opacity="0.84"/>
<stop offset="0.53" stop-color="#C5195A" stop-opacity="0.64"/>
<stop offset="0.7" stop-color="#DD2C65" stop-opacity="0.37"/>
<stop offset="0.88" stop-color="#FC4572" stop-opacity="0.03"/>
<stop offset="0.89" stop-color="#FF4774" stop-opacity="0"/>
</radialGradient>
<linearGradient id="paint3_linear_11751_2221" x1="105.185" y1="94.3128" x2="82.8552" y2="220.668" gradientUnits="userSpaceOnUse">
<stop stop-color="#FFEB49"/>
<stop offset="0.04" stop-color="#FFE344" stop-opacity="0.95"/>
<stop offset="0.25" stop-color="#FFBE30" stop-opacity="0.66"/>
<stop offset="0.45" stop-color="#FF9E1F" stop-opacity="0.43"/>
<stop offset="0.63" stop-color="#FF8611" stop-opacity="0.24"/>
<stop offset="0.78" stop-color="#FF7408" stop-opacity="0.11"/>
<stop offset="0.91" stop-color="#FF6902" stop-opacity="0.03"/>
<stop offset="1" stop-color="#FF6600" stop-opacity="0"/>
</linearGradient>
<linearGradient id="paint4_linear_11751_2221" x1="98.1791" y1="132.495" x2="23.0586" y2="-173.36" gradientUnits="userSpaceOnUse">
<stop offset="0.11" stop-color="#FF9E00"/>
<stop offset="0.18" stop-color="#FF6600"/>
<stop offset="0.63" stop-color="#FF6600"/>
<stop offset="1" stop-color="#FB2872"/>
</linearGradient>
<linearGradient id="paint5_linear_11751_2221" x1="95.9765" y1="83.4617" x2="100.859" y2="100.977" gradientUnits="userSpaceOnUse">
<stop offset="0.16" stop-color="#A030B9"/>
<stop offset="0.88" stop-color="#00073A"/>
</linearGradient>
<linearGradient id="paint6_linear_11751_2221" x1="116.956" y1="81.8762" x2="124.402" y2="93.6869" gradientUnits="userSpaceOnUse">
<stop offset="0.16" stop-color="#A030B9"/>
<stop offset="0.88" stop-color="#00073A"/>
</linearGradient>
<linearGradient id="paint7_linear_11751_2221" x1="111.773" y1="35.1227" x2="73.414" y2="135.041" gradientUnits="userSpaceOnUse">
<stop offset="0.09" stop-color="#BE0449" stop-opacity="0"/>
<stop offset="0.14" stop-color="#BE0449" stop-opacity="0.15"/>
<stop offset="0.2" stop-color="#BE0449" stop-opacity="0.29"/>
<stop offset="0.27" stop-color="#BE0449" stop-opacity="0.4"/>
<stop offset="0.36" stop-color="#BE0449" stop-opacity="0.49"/>
<stop offset="0.46" stop-color="#BE0449" stop-opacity="0.55"/>
<stop offset="0.6" stop-color="#BE0449" stop-opacity="0.59"/>
<stop offset="1" stop-color="#BE0449" stop-opacity="0.6"/>
</linearGradient>
<linearGradient id="paint8_linear_11751_2221" x1="74.3276" y1="82.1985" x2="53.4581" y2="44.6092" gradientUnits="userSpaceOnUse">
<stop stop-color="#FF6600" stop-opacity="0"/>
<stop offset="0.03" stop-color="#FF6600" stop-opacity="0.17"/>
<stop offset="0.07" stop-color="#FF6600" stop-opacity="0.36"/>
<stop offset="0.11" stop-color="#FF6600" stop-opacity="0.53"/>
<stop offset="0.16" stop-color="#FF6600" stop-opacity="0.68"/>
<stop offset="0.2" stop-color="#FF6600" stop-opacity="0.8"/>
<stop offset="0.25" stop-color="#FF6600" stop-opacity="0.89"/>
<stop offset="0.3" stop-color="#FF6600" stop-opacity="0.95"/>
<stop offset="0.36" stop-color="#FF6600" stop-opacity="0.99"/>
<stop offset="0.43" stop-color="#FF6600"/>
<stop offset="0.72" stop-color="#FD4737"/>
<stop offset="1" stop-color="#FB2872"/>
</linearGradient>
<linearGradient id="paint9_linear_11751_2221" x1="97.5692" y1="191.974" x2="86.17" y2="233.224" gradientUnits="userSpaceOnUse">
<stop stop-color="#FFC635"/>
<stop offset="0.09" stop-color="#FFC432" stop-opacity="0.96"/>
<stop offset="0.24" stop-color="#FFBF2C" stop-opacity="0.84"/>
<stop offset="0.44" stop-color="#FFB822" stop-opacity="0.66"/>
<stop offset="0.67" stop-color="#FFAD15" stop-opacity="0.4"/>
<stop offset="0.94" stop-color="#FFA003" stop-opacity="0.07"/>
<stop offset="1" stop-color="#FF9E00" stop-opacity="0"/>
</linearGradient>
<linearGradient id="paint10_linear_11751_2221" x1="112.926" y1="96.9942" x2="118.523" y2="299.527" gradientUnits="userSpaceOnUse">
<stop offset="0.13" stop-color="#D81F60" stop-opacity="0"/>
<stop offset="0.67" stop-color="#D81F60"/>
</linearGradient>
<linearGradient id="paint11_linear_11751_2221" x1="138.405" y1="188.26" x2="235.719" y2="254.848" gradientUnits="userSpaceOnUse">
<stop stop-color="#FB2872" stop-opacity="0"/>
<stop offset="0.51" stop-color="#B10047"/>
</linearGradient>
<linearGradient id="paint12_linear_11751_2221" x1="363.102" y1="50.0159" x2="264.321" y2="243.899" gradientUnits="userSpaceOnUse">
<stop stop-color="#FFEB49"/>
<stop offset="0.32" stop-color="#FF9B1D"/>
<stop offset="0.56" stop-color="#FF6600"/>
<stop offset="0.74" stop-color="#FD4835"/>
<stop offset="0.91" stop-color="#FB3161"/>
<stop offset="1" stop-color="#FB2872"/>
</linearGradient>
<linearGradient id="paint13_linear_11751_2221" x1="268.534" y1="95.6464" x2="247.712" y2="164.891" gradientUnits="userSpaceOnUse">
<stop stop-color="#FFEB49" stop-opacity="0.6"/>
<stop offset="0.13" stop-color="#FFE143" stop-opacity="0.56"/>
<stop offset="0.35" stop-color="#FFC835" stop-opacity="0.44"/>
<stop offset="0.65" stop-color="#FF9E1F" stop-opacity="0.26"/>
<stop offset="1" stop-color="#FF6600" stop-opacity="0"/>
</linearGradient>
<linearGradient id="paint14_linear_11751_2221" x1="168.936" y1="138.64" x2="288.657" y2="138.64" gradientUnits="userSpaceOnUse">
<stop stop-color="#E7E4FF"/>
<stop offset="1" stop-color="white"/>
</linearGradient>
<linearGradient id="paint15_linear_11751_2221" x1="246.523" y1="302.698" x2="205.161" y2="-82.8663" gradientUnits="userSpaceOnUse">
<stop stop-color="#8134FF"/>
<stop offset="0.12" stop-color="#6F2EFF"/>
<stop offset="0.35" stop-color="#4F25FF"/>
<stop offset="0.59" stop-color="#391FFF"/>
<stop offset="0.8" stop-color="#2B1BFF"/>
<stop offset="1" stop-color="#271AFF"/>
</linearGradient>
<linearGradient id="paint16_linear_11751_2221" x1="-100756" y1="-11056" x2="93007" y2="10413.5" gradientUnits="userSpaceOnUse">
<stop stop-color="#D674E6"/>
<stop offset="0.3" stop-color="#E752FF"/>
<stop offset="0.37" stop-color="#C849FF"/>
<stop offset="0.48" stop-color="#973AFF"/>
<stop offset="0.59" stop-color="#6F2FFF"/>
<stop offset="0.7" stop-color="#4F25FF"/>
<stop offset="0.81" stop-color="#391FFF"/>
<stop offset="0.91" stop-color="#2B1BFF"/>
<stop offset="1" stop-color="#271AFF"/>
</linearGradient>
<linearGradient id="paint17_linear_11751_2221" x1="85.1065" y1="117.23" x2="439.602" y2="156.508" gradientUnits="userSpaceOnUse">
<stop stop-color="#D674E6"/>
<stop offset="0.3" stop-color="#E752FF"/>
<stop offset="0.37" stop-color="#C849FF"/>
<stop offset="0.48" stop-color="#973AFF"/>
<stop offset="0.59" stop-color="#6F2FFF"/>
<stop offset="0.7" stop-color="#4F25FF"/>
<stop offset="0.81" stop-color="#391FFF"/>
<stop offset="0.91" stop-color="#2B1BFF"/>
<stop offset="1" stop-color="#271AFF"/>
</linearGradient>
<linearGradient id="paint18_linear_11751_2221" x1="225.504" y1="89.1171" x2="225.504" y2="234.104" gradientUnits="userSpaceOnUse">
<stop stop-color="#FF6600"/>
<stop offset="0.25" stop-color="#FFC635"/>
<stop offset="0.41" stop-color="#FFA824"/>
<stop offset="0.71" stop-color="#FF6600"/>
<stop offset="1" stop-color="#FB2872"/>
</linearGradient>
<linearGradient id="paint19_linear_11751_2221" x1="246.278" y1="231.041" x2="279.635" y2="237.832" gradientUnits="userSpaceOnUse">
<stop offset="0.01" stop-color="#BE0449"/>
<stop offset="0.27" stop-color="#CC1747"/>
<stop offset="0.73" stop-color="#E23444"/>
<stop offset="1" stop-color="#EB4043"/>
</linearGradient>
<radialGradient id="paint20_radial_11751_2221" cx="0" cy="0" r="1" gradientUnits="userSpaceOnUse" gradientTransform="translate(237.305 230.982) rotate(180) scale(34.9819 34.9819)">
<stop offset="0.16" stop-color="#A5004C"/>
<stop offset="0.25" stop-color="#A8034D" stop-opacity="0.96"/>
<stop offset="0.38" stop-color="#B30B52" stop-opacity="0.84"/>
<stop offset="0.53" stop-color="#C5195A" stop-opacity="0.64"/>
<stop offset="0.7" stop-color="#DD2C65" stop-opacity="0.37"/>
<stop offset="0.88" stop-color="#FC4572" stop-opacity="0.03"/>
<stop offset="0.89" stop-color="#FF4774" stop-opacity="0"/>
</radialGradient>
<linearGradient id="paint21_linear_11751_2221" x1="223.958" y1="94.313" x2="246.288" y2="220.669" gradientUnits="userSpaceOnUse">
<stop stop-color="#FFEB49"/>
<stop offset="0.04" stop-color="#FFE344" stop-opacity="0.95"/>
<stop offset="0.25" stop-color="#FFBE30" stop-opacity="0.66"/>
<stop offset="0.45" stop-color="#FF9E1F" stop-opacity="0.43"/>
<stop offset="0.63" stop-color="#FF8611" stop-opacity="0.24"/>
<stop offset="0.78" stop-color="#FF7408" stop-opacity="0.11"/>
<stop offset="0.91" stop-color="#FF6902" stop-opacity="0.03"/>
<stop offset="1" stop-color="#FF6600" stop-opacity="0"/>
</linearGradient>
<linearGradient id="paint22_linear_11751_2221" x1="230.964" y1="132.495" x2="306.084" y2="-173.36" gradientUnits="userSpaceOnUse">
<stop offset="0.11" stop-color="#FF9E00"/>
<stop offset="0.18" stop-color="#FF6600"/>
<stop offset="0.63" stop-color="#FF6600"/>
<stop offset="1" stop-color="#FB2872"/>
</linearGradient>
<linearGradient id="paint23_linear_11751_2221" x1="233.166" y1="83.4613" x2="228.284" y2="100.977" gradientUnits="userSpaceOnUse">
<stop offset="0.16" stop-color="#A030B9"/>
<stop offset="0.88" stop-color="#00073A"/>
</linearGradient>
<linearGradient id="paint24_linear_11751_2221" x1="212.187" y1="81.8761" x2="204.74" y2="93.6868" gradientUnits="userSpaceOnUse">
<stop offset="0.16" stop-color="#A030B9"/>
<stop offset="0.88" stop-color="#00073A"/>
</linearGradient>
<linearGradient id="paint25_linear_11751_2221" x1="217.37" y1="35.268" x2="255.738" y2="135.187" gradientUnits="userSpaceOnUse">
<stop offset="0.09" stop-color="#BE0449" stop-opacity="0"/>
<stop offset="0.14" stop-color="#BE0449" stop-opacity="0.15"/>
<stop offset="0.2" stop-color="#BE0449" stop-opacity="0.29"/>
<stop offset="0.27" stop-color="#BE0449" stop-opacity="0.4"/>
<stop offset="0.36" stop-color="#BE0449" stop-opacity="0.49"/>
<stop offset="0.46" stop-color="#BE0449" stop-opacity="0.55"/>
<stop offset="0.6" stop-color="#BE0449" stop-opacity="0.59"/>
<stop offset="1" stop-color="#BE0449" stop-opacity="0.6"/>
</linearGradient>
<linearGradient id="paint26_linear_11751_2221" x1="254.819" y1="82.1467" x2="275.689" y2="44.5575" gradientUnits="userSpaceOnUse">
<stop stop-color="#FF6600" stop-opacity="0"/>
<stop offset="0.03" stop-color="#FF6600" stop-opacity="0.17"/>
<stop offset="0.07" stop-color="#FF6600" stop-opacity="0.36"/>
<stop offset="0.11" stop-color="#FF6600" stop-opacity="0.53"/>
<stop offset="0.16" stop-color="#FF6600" stop-opacity="0.68"/>
<stop offset="0.2" stop-color="#FF6600" stop-opacity="0.8"/>
<stop offset="0.25" stop-color="#FF6600" stop-opacity="0.89"/>
<stop offset="0.3" stop-color="#FF6600" stop-opacity="0.95"/>
<stop offset="0.36" stop-color="#FF6600" stop-opacity="0.99"/>
<stop offset="0.43" stop-color="#FF6600"/>
<stop offset="0.72" stop-color="#FD4737"/>
<stop offset="1" stop-color="#FB2872"/>
</linearGradient>
<linearGradient id="paint27_linear_11751_2221" x1="231.577" y1="191.842" x2="242.967" y2="233.094" gradientUnits="userSpaceOnUse">
<stop stop-color="#FFC635"/>
<stop offset="0.09" stop-color="#FFC432" stop-opacity="0.96"/>
<stop offset="0.24" stop-color="#FFBF2C" stop-opacity="0.84"/>
<stop offset="0.44" stop-color="#FFB822" stop-opacity="0.66"/>
<stop offset="0.67" stop-color="#FFAD15" stop-opacity="0.4"/>
<stop offset="0.94" stop-color="#FFA003" stop-opacity="0.07"/>
<stop offset="1" stop-color="#FF9E00" stop-opacity="0"/>
</linearGradient>
<linearGradient id="paint28_linear_11751_2221" x1="216.374" y1="97.0043" x2="210.787" y2="299.537" gradientUnits="userSpaceOnUse">
<stop offset="0.13" stop-color="#D81F60" stop-opacity="0"/>
<stop offset="0.67" stop-color="#D81F60"/>
</linearGradient>
<linearGradient id="paint29_linear_11751_2221" x1="192.469" y1="190.785" x2="163.025" y2="210.932" gradientUnits="userSpaceOnUse">
<stop offset="0.08" stop-color="#FB2872" stop-opacity="0"/>
<stop offset="1" stop-color="#B10047"/>
</linearGradient>
</defs>
</svg>
