<svg width="141" height="32" viewBox="0 0 141 32" fill="none" xmlns="http://www.w3.org/2000/svg">
<path d="M27.9119 6.98103L16.0452 0.342528C15.6283 0.117745 15.1615 0 14.6872 0C14.2129 0 13.746 0.117745 13.3292 0.342528L1.42074 6.98103C0.990843 7.22164 0.63287 7.57112 0.383306 7.99385C0.133742 8.41659 0.0015087 8.89747 8.33542e-05 9.38749V22.623C-0.00377294 23.1141 0.126243 23.597 0.37635 24.0207C0.626457 24.4443 0.987338 24.7929 1.42074 25.0295L13.2874 31.6265C13.7035 31.875 14.1808 32.0043 14.6663 31.9999C15.1511 31.9987 15.6269 31.8698 16.0452 31.6265L27.9119 25.0295C28.3418 24.7889 28.6997 24.4394 28.9493 24.0166C29.1989 23.5939 29.3311 23.113 29.3325 22.623V9.38749C29.3448 8.89482 29.2183 8.40853 28.9673 7.98337C28.7163 7.55821 28.3508 7.21107 27.9119 6.98103Z" fill="url(#paint0_linear_10384_37324)"/>
<path d="M6.58942 19.833L5.89039 20.2497C5.76531 20.3199 5.65528 20.4147 5.56672 20.5285C5.47815 20.6422 5.41283 20.7727 5.37456 20.9124C5.33628 21.052 5.32582 21.1979 5.34379 21.3417C5.36175 21.4854 5.40779 21.6241 5.4792 21.7497C5.57102 21.9237 5.70718 22.0695 5.87351 22.1721C6.03983 22.2747 6.23025 22.3303 6.42494 22.333C6.61 22.3314 6.79246 22.2888 6.9595 22.208L7.65852 21.7913C7.78361 21.7211 7.89364 21.6263 7.9822 21.5126C8.07076 21.3988 8.13609 21.2683 8.17436 21.1287C8.21263 20.989 8.22309 20.8431 8.20513 20.6993C8.18716 20.5556 8.14113 20.4169 8.06972 20.2913C8.00622 20.159 7.91647 20.0413 7.80607 19.9456C7.69568 19.85 7.56701 19.7784 7.4281 19.7354C7.28919 19.6924 7.14303 19.6789 6.99873 19.6957C6.85443 19.7125 6.71509 19.7592 6.58942 19.833ZM10.8658 17.3747L9.42666 18.208C9.30158 18.2782 9.19155 18.373 9.10298 18.4868C9.01442 18.6006 8.9491 18.7311 8.91082 18.8707C8.87255 19.0103 8.86209 19.1563 8.88006 19.3C8.89802 19.4438 8.94405 19.5825 9.01547 19.708C9.10729 19.882 9.24345 20.0279 9.40978 20.1305C9.5761 20.2331 9.76652 20.2886 9.96121 20.2913C10.1463 20.2898 10.3287 20.2471 10.4958 20.1663L11.9349 19.333C12.06 19.2628 12.1701 19.168 12.2586 19.0542C12.3472 18.9405 12.4125 18.81 12.4508 18.6703C12.4891 18.5307 12.4995 18.3848 12.4815 18.241C12.4636 18.0973 12.4175 17.9586 12.3461 17.833C12.2826 17.7006 12.1929 17.583 12.0825 17.4873C11.9721 17.3917 11.8434 17.3201 11.7045 17.2771C11.5656 17.2341 11.4194 17.2205 11.2751 17.2373C11.1308 17.2541 10.9915 17.3009 10.8658 17.3747ZM16.6637 15.3372C16.6057 15.219 16.5249 15.1138 16.426 15.0279C16.3271 14.9419 16.2122 14.8771 16.088 14.8372V6.45802C16.0885 6.31012 16.0602 6.16359 16.0046 6.02685C15.949 5.89011 15.8672 5.76587 15.764 5.66129C15.6608 5.55672 15.5382 5.47387 15.4033 5.41753C15.2683 5.36119 15.1237 5.33246 14.9778 5.33302C14.834 5.33349 14.6918 5.36322 14.5596 5.42045C14.4274 5.47768 14.3079 5.56124 14.2082 5.66617C14.1085 5.77111 14.0306 5.89527 13.9791 6.03129C13.9277 6.16732 13.9037 6.31243 13.9087 6.45802V14.8747C13.7845 14.9146 13.6696 14.9794 13.5707 15.0654C13.4718 15.1513 13.3909 15.2565 13.333 15.3747C13.2557 15.5211 13.2119 15.6832 13.2048 15.8491C13.1977 16.015 13.2275 16.1804 13.2919 16.333C13.2275 16.4857 13.1977 16.651 13.2048 16.8169C13.2119 16.9828 13.2557 17.1449 13.333 17.2913C13.3909 17.4096 13.4718 17.5148 13.5707 17.6007C13.6696 17.6866 13.7845 17.7514 13.9087 17.7913V26.208C13.9087 26.5064 14.0256 26.7925 14.2339 27.0035C14.4421 27.2145 14.7244 27.333 15.0189 27.333C15.3133 27.333 15.5957 27.2145 15.8039 27.0035C16.0122 26.7925 16.1291 26.5064 16.1291 26.208V17.7497C16.2533 17.7098 16.3682 17.6449 16.4671 17.559C16.566 17.4731 16.6469 17.3679 16.7048 17.2497C16.782 17.1033 16.8259 16.9411 16.833 16.7753C16.8401 16.6094 16.8103 16.444 16.7459 16.2913C16.841 15.9745 16.8116 15.6326 16.6637 15.3372ZM19.4639 12.458L18.0247 13.2913C17.8996 13.3616 17.7896 13.4564 17.7011 13.5701C17.6125 13.6839 17.5472 13.8144 17.5089 13.954C17.4706 14.0936 17.4602 14.2396 17.4781 14.3833C17.4961 14.5271 17.5421 14.6658 17.6135 14.7913C17.7054 14.9653 17.8415 15.1112 18.0078 15.2138C18.1742 15.3164 18.3646 15.3719 18.5593 15.3747C18.7443 15.3731 18.9268 15.3304 19.0938 15.2497L20.533 14.4163C20.6581 14.3461 20.7681 14.2513 20.8567 14.1376C20.9452 14.0238 21.0106 13.8933 21.0488 13.7537C21.0871 13.6141 21.0976 13.4681 21.0796 13.3243C21.0616 13.1806 21.0156 13.0419 20.9442 12.9163C20.8807 12.784 20.791 12.6663 20.6806 12.5706C20.5702 12.475 20.4415 12.4034 20.3026 12.3604C20.1637 12.3174 20.0175 12.3039 19.8732 12.3207C19.7289 12.3375 19.5896 12.3842 19.4639 12.458ZM22.8727 12.8747C23.0578 12.8731 23.2402 12.8304 23.4073 12.7497L24.1063 12.333C24.2312 12.2623 24.3411 12.1672 24.4297 12.0533C24.5182 11.9394 24.5837 11.8089 24.6223 11.6693C24.661 11.5296 24.672 11.3836 24.6548 11.2397C24.6376 11.0957 24.5925 10.9566 24.5221 10.8304C24.4517 10.7041 24.3573 10.5932 24.2445 10.5041C24.1316 10.4149 24.0025 10.3491 23.8645 10.3107C23.7266 10.2722 23.5824 10.2617 23.4405 10.2799C23.2985 10.298 23.1614 10.3444 23.0372 10.4163L22.3382 10.833C22.2131 10.9033 22.103 10.998 22.0145 11.1118C21.9259 11.2256 21.8606 11.3561 21.8223 11.4957C21.784 11.6353 21.7736 11.7813 21.7915 11.925C21.8095 12.0688 21.8555 12.2075 21.927 12.333C22.0211 12.5019 22.1589 12.6416 22.3255 12.737C22.4922 12.8325 22.6814 12.8801 22.8727 12.8747ZM24.1063 20.2497L23.4073 19.833C23.1565 19.691 22.8605 19.6554 22.584 19.734C22.3074 19.8126 22.0729 19.9989 21.9315 20.2523C21.7902 20.5057 21.7536 20.8054 21.8298 21.086C21.906 21.3666 22.0888 21.6052 22.3382 21.7497L23.0372 22.1663C23.2042 22.2471 23.3867 22.2898 23.5717 22.2913C23.7664 22.2886 23.9568 22.2331 24.1232 22.1305C24.2895 22.0279 24.4257 21.882 24.5175 21.708C24.591 21.5864 24.6389 21.4507 24.658 21.3094C24.677 21.1681 24.6669 21.0244 24.6282 20.8873C24.5896 20.7501 24.5232 20.6227 24.4334 20.5129C24.3435 20.4031 24.2321 20.3135 24.1063 20.2497ZM20.5289 18.208L19.0897 17.3747C18.9655 17.3027 18.8284 17.2563 18.6864 17.2382C18.5445 17.2201 18.4003 17.2305 18.2624 17.269C18.1244 17.3075 17.9953 17.3732 17.8824 17.4624C17.7696 17.5516 17.6752 17.6625 17.6048 17.7887C17.5344 17.915 17.4893 18.0541 17.4721 18.198C17.4549 18.342 17.4659 18.488 17.5045 18.6276C17.5432 18.7672 17.6087 18.8977 17.6972 19.0116C17.7858 19.1255 17.8957 19.2206 18.0206 19.2913L19.4598 20.1247C19.6268 20.2054 19.8093 20.2481 19.9943 20.2497C20.189 20.2469 20.3795 20.1914 20.5458 20.0888C20.7121 19.9862 20.8483 19.8403 20.9401 19.6663C21.0149 19.5451 21.0638 19.4093 21.0836 19.2677C21.1033 19.1262 21.0935 18.982 21.0547 18.8445C21.0159 18.707 20.9491 18.5793 20.8585 18.4696C20.7679 18.36 20.6556 18.2709 20.5289 18.208ZM9.42666 14.3747L10.8658 15.208C11.0329 15.2888 11.2153 15.3314 11.4004 15.333C11.5951 15.3303 11.7855 15.2747 11.9518 15.1721C12.1182 15.0695 12.2543 14.9237 12.3461 14.7497C12.4175 14.6241 12.4636 14.4854 12.4815 14.3417C12.4995 14.1979 12.4891 14.052 12.4508 13.9124C12.4125 13.7727 12.3472 13.6422 12.2586 13.5285C12.1701 13.4147 12.06 13.3199 11.9349 13.2497L10.4958 12.4163C10.3719 12.344 10.235 12.2973 10.0931 12.2791C9.95125 12.2609 9.80722 12.2715 9.66944 12.3103C9.53165 12.3491 9.40286 12.4153 9.29058 12.505C9.1783 12.5948 9.08478 12.7063 9.01547 12.833C8.87772 13.0948 8.84357 13.3999 8.91995 13.6863C8.99634 13.9727 9.17753 14.2189 9.42666 14.3747ZM7.65852 10.833L6.9595 10.4163C6.83525 10.3444 6.6982 10.298 6.55622 10.2799C6.41424 10.2617 6.27011 10.2722 6.13214 10.3107C5.99416 10.3491 5.86504 10.4149 5.7522 10.5041C5.63936 10.5932 5.54502 10.7041 5.4746 10.8304C5.40418 10.9566 5.35908 11.0957 5.34187 11.2397C5.32466 11.3836 5.33569 11.5296 5.37433 11.6693C5.41296 11.8089 5.47844 11.9394 5.567 12.0533C5.65557 12.1672 5.76547 12.2623 5.89039 12.333L6.58942 12.7497C6.75645 12.8304 6.93892 12.8731 7.12397 12.8747C7.31867 12.8719 7.50908 12.8164 7.67541 12.7138C7.84173 12.6112 7.97789 12.4653 8.06972 12.2913C8.13968 12.1688 8.18458 12.0333 8.20174 11.8928C8.2189 11.7524 8.20797 11.6098 8.16959 11.4737C8.13122 11.3376 8.06619 11.2108 7.97839 11.1007C7.89058 10.9906 7.7818 10.8996 7.65852 10.833Z" fill="#20133A"/>
<path d="M36.4902 21.6002V9.92019H44.0102V12.0642H38.7622V14.7682H44.0102V16.8802H38.7622V21.6002H36.4902Z" fill="black"/>
<path d="M45.674 21.6002V12.9602H47.93V21.6002H45.674ZM45.386 10.5282C45.386 9.69619 45.978 9.08819 46.794 9.08819C47.642 9.08819 48.218 9.69619 48.218 10.5282C48.218 11.3442 47.642 11.9362 46.794 11.9362C45.962 11.9362 45.386 11.3442 45.386 10.5282Z" fill="black"/>
<path d="M49.6896 21.6002V12.9602H51.8656V14.2882C52.2816 13.2642 53.1456 12.8002 54.2496 12.8002C54.8256 12.8002 55.3376 12.9442 55.7056 13.1362L54.9056 15.3122C54.6656 15.1362 54.2496 15.0082 53.7536 15.0082C52.6176 15.0082 51.8816 15.5842 51.8816 17.0402V21.6002H49.6896Z" fill="black"/>
<path d="M60.4311 21.7762C57.6471 21.7762 55.8551 19.8082 55.8551 17.2962C55.8551 14.7842 57.8071 12.7842 60.3831 12.7842C62.9751 12.7842 64.8471 14.6562 64.8471 17.2162V18.0482H57.9831C58.2711 19.1682 59.1831 19.8722 60.4631 19.8722C61.4871 19.8722 62.1751 19.4242 62.6071 18.7202L64.4151 19.7762C63.5511 20.9922 62.3351 21.7762 60.4311 21.7762ZM60.3831 14.6562C59.2631 14.6562 58.3991 15.3122 58.0471 16.3202H62.6551C62.3671 15.2482 61.5351 14.6562 60.3831 14.6562Z" fill="black"/>
<path d="M65.476 14.9442V12.9602H66.9V12.6562C66.9 9.85619 67.78 8.99219 70.596 8.99219H71.172V11.0082H70.804C69.268 11.0082 69.092 11.2322 69.092 12.5442V12.9602H71.172V14.9442H69.092V21.6002H66.9V14.9442H65.476Z" fill="black"/>
<path d="M76.2432 21.7762C73.6512 21.7762 71.6832 19.7602 71.6832 17.2802C71.6832 14.7842 73.6512 12.7842 76.2432 12.7842C78.8192 12.7842 80.8192 14.7842 80.8192 17.2802C80.8192 19.7602 78.8512 21.7762 76.2432 21.7762ZM76.2592 19.6802C77.5712 19.6802 78.6272 18.6082 78.6272 17.2642C78.6272 15.9202 77.5712 14.8482 76.2592 14.8482C74.9312 14.8482 73.8912 15.9202 73.8912 17.2642C73.8912 18.6082 74.9312 19.6802 76.2592 19.6802Z" fill="black"/>
<path d="M80.893 21.6002L84.125 17.1682L81.069 12.9602H83.693L85.501 15.5202L87.325 12.9602H89.917L86.845 17.1842L90.141 21.6002H87.469L85.485 18.8962L83.549 21.6002H80.893Z" fill="black"/>
<path d="M93.8769 9.92019H98.5169C99.1036 9.92019 99.6422 10.0162 100.133 10.2082C100.634 10.4002 101.061 10.6669 101.413 11.0082C101.765 11.3389 102.037 11.7389 102.229 12.2082C102.432 12.6669 102.533 13.1629 102.533 13.6962C102.533 14.0695 102.48 14.4375 102.373 14.8002C102.266 15.1522 102.106 15.4829 101.893 15.7922C101.69 16.0909 101.44 16.3575 101.141 16.5922C100.842 16.8269 100.506 17.0082 100.133 17.1362L102.677 21.6002H101.173L98.8849 17.4882H95.2049V21.6002H93.8769V9.92019ZM95.2049 11.1522V16.2722H98.4049C98.8529 16.2722 99.2476 16.2029 99.5889 16.0642C99.9409 15.9149 100.234 15.7229 100.469 15.4882C100.714 15.2429 100.896 14.9655 101.013 14.6562C101.141 14.3362 101.205 14.0055 101.205 13.6642C101.205 13.3015 101.141 12.9655 101.013 12.6562C100.885 12.3469 100.698 12.0802 100.453 11.8562C100.218 11.6322 99.9249 11.4615 99.5729 11.3442C99.2316 11.2162 98.8476 11.1522 98.4209 11.1522H95.2049Z" fill="black"/>
<path d="M108.425 21.7762C107.731 21.7762 107.102 21.6642 106.537 21.4402C105.982 21.2055 105.502 20.8909 105.097 20.4962C104.702 20.0909 104.398 19.6162 104.185 19.0722C103.971 18.5282 103.865 17.9415 103.865 17.3122C103.865 16.6722 103.977 16.0802 104.201 15.5362C104.435 14.9815 104.75 14.5015 105.145 14.0962C105.55 13.6909 106.025 13.3709 106.569 13.1362C107.123 12.9015 107.726 12.7842 108.377 12.7842C109.006 12.7842 109.587 12.8962 110.121 13.1202C110.665 13.3335 111.129 13.6375 111.513 14.0322C111.907 14.4162 112.217 14.8802 112.441 15.4242C112.665 15.9575 112.777 16.5442 112.777 17.1842V17.7762H105.145C105.187 18.1922 105.299 18.5709 105.481 18.9122C105.662 19.2535 105.891 19.5522 106.169 19.8082C106.457 20.0535 106.787 20.2455 107.161 20.3842C107.545 20.5229 107.966 20.5922 108.425 20.5922C109.118 20.5922 109.699 20.4482 110.169 20.1602C110.638 19.8722 111.022 19.4615 111.321 18.9282L112.441 19.5842C111.993 20.2775 111.449 20.8162 110.809 21.2002C110.169 21.5842 109.374 21.7762 108.425 21.7762ZM108.377 13.9522C107.961 13.9522 107.571 14.0215 107.209 14.1602C106.857 14.2882 106.542 14.4749 106.265 14.7202C105.987 14.9549 105.753 15.2375 105.561 15.5682C105.379 15.8882 105.251 16.2402 105.177 16.6242H111.433C111.326 15.8029 111.001 15.1522 110.457 14.6722C109.913 14.1922 109.219 13.9522 108.377 13.9522Z" fill="black"/>
<path d="M114.763 8.99219H116.075V21.6002H114.763V8.99219Z" fill="black"/>
<path d="M121.028 21.7762C120.516 21.7762 120.068 21.7122 119.684 21.5842C119.3 21.4455 118.98 21.2589 118.724 21.0242C118.468 20.7895 118.276 20.5229 118.148 20.2242C118.02 19.9149 117.956 19.5842 117.956 19.2322C117.956 18.3362 118.302 17.6482 118.996 17.1682C119.7 16.6775 120.66 16.4322 121.876 16.4322H124.612V16.0962C124.612 15.4349 124.398 14.9069 123.972 14.5122C123.556 14.1069 122.926 13.9042 122.084 13.9042C121.433 13.9042 120.884 14.0322 120.436 14.2882C119.998 14.5442 119.63 14.9015 119.332 15.3602L118.196 14.6402C118.633 14.0749 119.166 13.6269 119.796 13.2962C120.425 12.9549 121.193 12.7842 122.1 12.7842C122.718 12.7842 123.262 12.8642 123.732 13.0242C124.201 13.1842 124.596 13.4135 124.916 13.7122C125.236 14.0002 125.476 14.3469 125.636 14.7522C125.806 15.1575 125.892 15.6055 125.892 16.0962V21.6002H124.612V20.0802C124.228 20.6135 123.721 21.0295 123.092 21.3282C122.462 21.6269 121.774 21.7762 121.028 21.7762ZM121.268 20.6242C121.588 20.6242 121.908 20.5815 122.228 20.4962C122.558 20.4109 122.868 20.2882 123.156 20.1282C123.454 19.9682 123.726 19.7655 123.972 19.5202C124.228 19.2749 124.441 18.9922 124.612 18.6722V17.4882H121.94C121.033 17.4882 120.366 17.6269 119.94 17.9042C119.513 18.1815 119.3 18.5922 119.3 19.1362C119.3 19.5629 119.454 19.9202 119.764 20.2082C120.084 20.4855 120.585 20.6242 121.268 20.6242Z" fill="black"/>
<path d="M128.514 24.6562C128.088 24.6562 127.693 24.5869 127.33 24.4482C126.968 24.3095 126.658 24.1229 126.402 23.8882L127.25 22.8162C127.421 22.9975 127.602 23.1415 127.794 23.2482C127.986 23.3549 128.221 23.4082 128.498 23.4082C128.722 23.4082 128.92 23.3815 129.09 23.3282C129.272 23.2749 129.437 23.1789 129.586 23.0402C129.746 22.9015 129.896 22.7149 130.034 22.4802C130.173 22.2455 130.322 21.9522 130.482 21.6002L130.674 21.1842L127.058 12.9602H128.482L131.378 19.6482L134.13 12.9602H135.554L131.634 21.9842C131.421 22.4642 131.208 22.8749 130.994 23.2162C130.792 23.5575 130.568 23.8349 130.322 24.0482C130.077 24.2615 129.805 24.4162 129.506 24.5122C129.218 24.6082 128.888 24.6562 128.514 24.6562Z" fill="black"/>
<defs>
<linearGradient id="paint0_linear_10384_37324" x1="8.33542e-05" y1="16.0011" x2="29.3367" y2="16.0011" gradientUnits="userSpaceOnUse">
<stop stop-color="#9059FF"/>
<stop offset="1" stop-color="#F770FF"/>
</linearGradient>
</defs>
</svg>
