<svg width="16" height="16" viewBox="0 0 16 16" fill="none" xmlns="http://www.w3.org/2000/svg">
<path d="M13.6672 4.13445L8.60977 1.28938C8.43212 1.19304 8.23317 1.14258 8.03102 1.14258C7.82886 1.14258 7.62991 1.19304 7.45226 1.28938L2.37699 4.13445C2.19377 4.23757 2.04121 4.38734 1.93485 4.56852C1.82848 4.74969 1.77213 4.95578 1.77152 5.16579V10.8382C1.76988 11.0486 1.82529 11.2556 1.93188 11.4372C2.03847 11.6187 2.19228 11.7681 2.37699 11.8695L7.43445 14.6968C7.61177 14.8033 7.81518 14.8587 8.02211 14.8568C8.22873 14.8563 8.43151 14.8011 8.60977 14.6968L13.6672 11.8695C13.8505 11.7664 14.003 11.6166 14.1094 11.4354C14.2157 11.2542 14.2721 11.0482 14.2727 10.8382V5.16579C14.2779 4.95464 14.224 4.74623 14.1171 4.56402C14.0101 4.38181 13.8543 4.23304 13.6672 4.13445Z" fill="url(#paint0_linear_10384_37372)"/>
<path d="M4.49585 9.48785L4.19312 9.66566C4.13895 9.69564 4.09129 9.73608 4.05294 9.78464C4.01459 9.83319 3.9863 9.88888 3.96972 9.94847C3.95314 10.0081 3.94861 10.0703 3.95639 10.1317C3.96418 10.193 3.98411 10.2522 4.01504 10.3058C4.05481 10.3801 4.11377 10.4423 4.1858 10.4861C4.25784 10.5299 4.3403 10.5536 4.42462 10.5547C4.50476 10.5541 4.58379 10.5359 4.65612 10.5014L4.95886 10.3236C5.01303 10.2936 5.06068 10.2532 5.09904 10.2046C5.13739 10.1561 5.16568 10.1004 5.18226 10.0408C5.19883 9.9812 5.20336 9.91891 5.19558 9.85756C5.1878 9.79621 5.16787 9.73702 5.13694 9.68344C5.10944 9.62695 5.07057 9.57673 5.02276 9.53591C4.97495 9.49509 4.91923 9.46455 4.85907 9.44619C4.79891 9.42784 4.73561 9.42207 4.67311 9.42923C4.61062 9.4364 4.55028 9.45635 4.49585 9.48785ZM6.34788 8.43872L5.7246 8.79436C5.67043 8.82433 5.62278 8.86478 5.58442 8.91333C5.54607 8.96188 5.51778 9.01758 5.5012 9.07716C5.48463 9.13675 5.4801 9.19903 5.48788 9.26038C5.49566 9.32173 5.51559 9.38092 5.54652 9.4345C5.58629 9.50875 5.64526 9.57101 5.71729 9.61479C5.78932 9.65857 5.87179 9.68228 5.9561 9.68344C6.03625 9.68277 6.11527 9.66456 6.18761 9.6301L6.81089 9.27447C6.86506 9.24449 6.91271 9.20405 6.95106 9.15549C6.98942 9.10694 7.01771 9.05125 7.03428 8.99166C7.05086 8.93208 7.05539 8.86979 7.04761 8.80844C7.03983 8.74709 7.01989 8.6879 6.98897 8.63432C6.96146 8.57783 6.9226 8.52761 6.87479 8.48679C6.82698 8.44597 6.77125 8.41543 6.7111 8.39707C6.65094 8.37872 6.58764 8.37294 6.52514 8.38011C6.46265 8.38728 6.40231 8.40723 6.34788 8.43872ZM8.8588 7.5692C8.83372 7.51874 8.79871 7.47385 8.75588 7.43719C8.71305 7.40053 8.66326 7.37286 8.60949 7.35582V3.77991C8.60973 3.7168 8.59745 3.65426 8.57337 3.59591C8.54929 3.53755 8.51388 3.48453 8.46919 3.4399C8.42449 3.39527 8.3714 3.35992 8.31295 3.33588C8.25451 3.31183 8.19188 3.29957 8.12868 3.29981C8.06642 3.30001 8.00483 3.3127 7.94758 3.33712C7.89033 3.36155 7.83857 3.39721 7.79538 3.44199C7.7522 3.48677 7.71846 3.53976 7.69618 3.59781C7.6739 3.65586 7.66352 3.71778 7.66567 3.77991V7.37182C7.6119 7.38886 7.56211 7.41653 7.51928 7.45319C7.47645 7.48985 7.44144 7.53475 7.41636 7.5852C7.3829 7.64769 7.36393 7.71688 7.36085 7.78767C7.35777 7.85846 7.37065 7.92903 7.39855 7.99418C7.37065 8.05933 7.35777 8.12991 7.36085 8.20069C7.36393 8.27148 7.3829 8.34068 7.41636 8.40316C7.44144 8.45362 7.47645 8.49851 7.51928 8.53517C7.56211 8.57183 7.6119 8.5995 7.66567 8.61654V12.2084C7.66567 12.3358 7.71633 12.4579 7.8065 12.5479C7.89667 12.638 8.01896 12.6886 8.14648 12.6886C8.274 12.6886 8.3963 12.638 8.48647 12.5479C8.57664 12.4579 8.6273 12.3358 8.6273 12.2084V8.59876C8.68107 8.58172 8.73086 8.55405 8.77369 8.51739C8.81652 8.48073 8.85152 8.43583 8.87661 8.38538C8.91007 8.32289 8.92904 8.2537 8.93212 8.18291C8.9352 8.11212 8.92232 8.04155 8.89442 7.9764C8.93562 7.84116 8.92286 7.69526 8.8588 7.5692ZM10.0715 6.34048L9.44825 6.69612C9.39408 6.72609 9.34642 6.76653 9.30807 6.81509C9.26971 6.86364 9.24142 6.91934 9.22485 6.97892C9.20827 7.0385 9.20374 7.10079 9.21152 7.16214C9.2193 7.22349 9.23924 7.28268 9.27017 7.33626C9.30993 7.41051 9.3689 7.47276 9.44093 7.51654C9.51297 7.56032 9.59543 7.58403 9.67975 7.5852C9.75989 7.58452 9.83891 7.56631 9.91125 7.53186L10.5345 7.17622C10.5887 7.14625 10.6364 7.1058 10.6747 7.05725C10.7131 7.0087 10.7414 6.953 10.7579 6.89342C10.7745 6.83383 10.779 6.77155 10.7713 6.7102C10.7635 6.64885 10.7435 6.58966 10.7126 6.53608C10.6851 6.47959 10.6462 6.42937 10.5984 6.38855C10.5506 6.34773 10.4949 6.31719 10.4347 6.29883C10.3746 6.28048 10.3113 6.2747 10.2488 6.28187C10.1863 6.28903 10.1259 6.30899 10.0715 6.34048ZM11.5478 6.5183C11.6279 6.51762 11.707 6.49941 11.7793 6.46495L12.082 6.28714C12.1361 6.25695 12.1837 6.21638 12.2221 6.16777C12.2604 6.11916 12.2888 6.06346 12.3055 6.00387C12.3223 5.94428 12.327 5.88198 12.3196 5.82054C12.3121 5.75911 12.2926 5.69975 12.2621 5.64587C12.2316 5.592 12.1908 5.54467 12.1419 5.50661C12.093 5.46854 12.0371 5.4405 11.9773 5.42408C11.9176 5.40766 11.8552 5.40319 11.7937 5.41093C11.7322 5.41867 11.6728 5.43847 11.619 5.46918L11.3163 5.64699C11.2621 5.67697 11.2145 5.71741 11.1761 5.76597C11.1378 5.81452 11.1095 5.87021 11.0929 5.9298C11.0763 5.98938 11.0718 6.05167 11.0796 6.11302C11.0874 6.17437 11.1073 6.23356 11.1382 6.28714C11.179 6.35921 11.2387 6.41882 11.3108 6.45955C11.383 6.50028 11.4649 6.52059 11.5478 6.5183ZM12.082 9.66566L11.7793 9.48785C11.6707 9.42726 11.5425 9.41207 11.4228 9.4456C11.303 9.47913 11.2014 9.55865 11.1402 9.66678C11.079 9.77491 11.0632 9.90283 11.0962 10.0226C11.1292 10.1423 11.2083 10.2442 11.3163 10.3058L11.619 10.4836C11.6914 10.5181 11.7704 10.5363 11.8505 10.537C11.9349 10.5358 12.0173 10.5121 12.0894 10.4683C12.1614 10.4245 12.2204 10.3623 12.2601 10.288C12.292 10.2361 12.3127 10.1782 12.321 10.1179C12.3292 10.0576 12.3248 9.99627 12.3081 9.93776C12.2913 9.87924 12.2626 9.82484 12.2237 9.778C12.1848 9.73116 12.1365 9.6929 12.082 9.66566ZM10.5328 8.79436L9.90947 8.43872C9.85567 8.40801 9.79631 8.38822 9.73482 8.38048C9.67333 8.37274 9.61092 8.37721 9.55116 8.39363C9.4914 8.41004 9.43548 8.43809 9.38662 8.47615C9.33775 8.51421 9.29689 8.56154 9.2664 8.61542C9.2359 8.66929 9.21636 8.72865 9.20891 8.79009C9.20146 8.85153 9.20624 8.91383 9.22297 8.97342C9.2397 9.033 9.26806 9.0887 9.30641 9.13732C9.34477 9.18593 9.39236 9.22649 9.44646 9.25668L10.0697 9.61232C10.1421 9.64678 10.2211 9.66498 10.3012 9.66566C10.3856 9.66449 10.468 9.64079 10.5401 9.597C10.6121 9.55322 10.6711 9.49097 10.7108 9.41672C10.7432 9.36499 10.7644 9.30703 10.773 9.24661C10.7815 9.18619 10.7773 9.12465 10.7605 9.06598C10.7437 9.0073 10.7147 8.9528 10.6755 8.90601C10.6363 8.85922 10.5876 8.82118 10.5328 8.79436ZM5.7246 7.15844L6.34788 7.51407C6.42022 7.54853 6.49924 7.56674 6.57938 7.56742C6.6637 7.56625 6.74617 7.54254 6.8182 7.49876C6.89023 7.45498 6.9492 7.39273 6.98897 7.31848C7.01989 7.2649 7.03983 7.20571 7.04761 7.14436C7.05539 7.08301 7.05086 7.02072 7.03428 6.96114C7.01771 6.90155 6.98942 6.84586 6.95106 6.79731C6.91271 6.74875 6.86506 6.70831 6.81089 6.67833L6.18761 6.3227C6.13395 6.29182 6.07467 6.27191 6.01323 6.26414C5.95179 6.25637 5.88942 6.2609 5.82974 6.27745C5.77007 6.294 5.7143 6.32225 5.66567 6.36055C5.61704 6.39884 5.57654 6.44643 5.54652 6.50052C5.48687 6.61224 5.47208 6.74245 5.50516 6.86467C5.53824 6.98689 5.61671 7.09194 5.7246 7.15844ZM4.95886 5.64699L4.65612 5.46918C4.60232 5.43847 4.54296 5.41867 4.48147 5.41093C4.41998 5.40319 4.35757 5.40766 4.29781 5.42408C4.23805 5.4405 4.18214 5.46854 4.13327 5.50661C4.0844 5.54467 4.04354 5.592 4.01305 5.64587C3.98255 5.69975 3.96302 5.75911 3.95556 5.82054C3.94811 5.88198 3.95289 5.94428 3.96962 6.00387C3.98635 6.06346 4.01471 6.11916 4.05306 6.16777C4.09142 6.21638 4.13901 6.25695 4.19312 6.28714L4.49585 6.46495C4.56819 6.49941 4.64721 6.51762 4.72736 6.5183C4.81167 6.51713 4.89414 6.49342 4.96617 6.44964C5.0382 6.40586 5.09717 6.34361 5.13694 6.26935C5.16724 6.21707 5.18668 6.15923 5.19411 6.09929C5.20155 6.03934 5.19681 5.97851 5.18019 5.92043C5.16357 5.86235 5.13541 5.80821 5.09738 5.76123C5.05936 5.71425 5.01225 5.6754 4.95886 5.64699Z" fill="#20133A"/>
<defs>
<linearGradient id="paint0_linear_10384_37372" x1="1.77152" y1="8.00019" x2="14.2745" y2="8.00019" gradientUnits="userSpaceOnUse">
<stop stop-color="#9059FF"/>
<stop offset="1" stop-color="#F770FF"/>
</linearGradient>
</defs>
</svg>
