<svg width="252" height="160" viewBox="0 0 126 80" fill="none" xmlns="http://www.w3.org/2000/svg">
<path d="M77.4133 79.1754C63.9344 79.1754 50.4781 79.2005 36.9967 79.0729C30.4724 79.0109 23.954 79.1587 17.4309 79.2589C14.3446 79.3066 11.2547 79.4353 8.16836 79.4353C6.60315 79.4353 5.0117 79.3995 3.45603 79.2183C1.42947 78.9823 1.39967 78.1502 1.38536 76.2417C1.29357 63.391 1.17198 50.5653 1.3496 37.7157C1.43662 31.3905 1.1529 25.0521 1.26019 18.7269C1.35675 13.0776 2.99349 7.46523 7.8012 4.08088C10.1353 2.43818 12.5731 1.24251 15.4508 1.0482C18.6743 0.831243 21.9144 0.747797 25.1449 0.772831C31.581 0.821707 38.0219 1.01483 44.4616 0.942108C57.7045 0.791904 70.9451 0.656006 84.1892 0.554678C90.4644 0.506995 96.7276 0.415203 103.005 0.518915C108.994 0.617859 115.191 0.656006 119.736 5.19668C124.426 9.8816 124.606 15.6632 124.658 21.8859C124.711 28.2088 124.509 34.5471 124.466 40.8712C124.416 48.2657 124.568 55.6519 124.57 63.0453C124.57 66.792 124.76 70.5471 124.674 74.2926C124.649 75.3929 124.923 77.2192 124.36 78.2134C123.719 79.3459 122.693 79.0979 121.567 79.0693C114.239 78.8786 106.794 79.0479 99.4623 79.2255C92.1321 79.4031 84.753 79.1683 77.4133 79.1683V79.1754Z" fill="#D7DCA7"/>
<path d="M96.4864 56.7365C95.7449 56.0594 94.97 55.4204 94.1701 54.8137C93.3679 54.2045 93.189 53.8326 92.4225 54.2963C91.8003 54.673 91.3485 55.8865 90.9074 56.4707C90.2267 57.3707 89.4518 58.198 88.6591 58.9991C87.3144 60.3593 85.6598 61.1425 86.6385 63.1356C87.5886 65.0728 88.7092 66.6416 89.9764 68.3808C91.2817 70.1726 93.0007 72.2873 94.2679 74.1029C95.5184 75.8958 96.7331 77.4682 97.8382 79.3075C61.9622 78.8712 44.0713 79.0632 37.4051 78.9905C34.0899 78.9535 25.967 79.6151 25.4032 78.342C24.8691 77.1356 24.6808 75.413 24.6891 74.1136C24.7261 68.2962 29.6661 64.6448 35.1473 64.6842C38.174 64.7056 41.3855 65.1169 44.1905 66.2863C45.8773 66.9897 45.6937 66.1576 46.372 64.4326C47.0396 62.7351 46.1885 62.7744 44.7794 61.9257C42.2951 60.4296 40.5701 58.3685 38.5543 56.3455C36.455 54.2379 34.5203 51.9932 32.6725 49.6603C30.7282 47.2069 29.7471 45.0779 30.553 41.9641C31.279 39.1591 32.8204 36.4435 33.9791 33.7935C34.5799 32.4202 35.2069 31.0577 35.8709 29.7142C36.4384 28.5662 37.6138 27.1071 37.7401 25.8363C37.8689 24.5477 37.3467 18.5479 37.1667 17.2425C36.9402 15.601 36.4217 13.981 35.5967 12.5409C34.835 11.2106 30.1203 1.45567 31.1347 0.996719C31.6521 0.76307 57.4537 1.43302 63.99 1.26971C70.5334 1.10639 84.3008 0.398288 90.8442 0.542531C97.0085 0.67843 103.359 0.1253 109.49 0.8489C114.92 1.48905 119.482 4.30239 122.163 9.11724C125.156 14.4936 124.23 21.459 124.088 27.3693C123.773 40.4966 123.984 53.6621 124.166 66.7894C124.21 69.9628 124.287 73.1254 124.174 76.2987C124.135 77.4157 124.261 78.6364 123.076 79.1359C121.78 79.6819 119.599 79.2646 118.205 79.2682C114.822 79.2754 111.432 79.3529 108.05 79.2968C106.476 79.2706 107.191 78.7938 106.905 77.3251C106.605 75.7849 105.356 71.6031 104.497 68.7683C102.733 64.3313 99.8373 59.7966 96.4876 56.7401L96.4864 56.7365Z" fill="#FEAD3B"/>
<path d="M62.5834 79.491C63.0125 76.0781 63.7147 72.3456 65.225 69.22C66.6424 66.2851 68.8049 64.5577 72.0021 64.1786C70.0685 63.374 68.1612 62.8971 64.418 63.1749C62.6132 60.6262 60.8906 57.0547 60.3708 54.0912C64.7053 52.1671 66.6162 50.5161 68.1624 47.518C69.8778 44.1932 69.8563 40.7171 69.4295 37.0359C71.4609 27.2083 76.1494 7.22531 80.2776 1.04789C81.2289 0.0942207 110.008 0.362441 113.737 1.75003C117.179 3.03153 119.958 5.06405 122.002 8.12057C126.433 14.7474 123.901 25.7015 123.952 33.2129C124.007 41.2011 124.906 76.9626 123.75 79.1453C120.495 70.5253 113.223 57.2931 93.8471 53.3103C92.6014 54.717 87.603 60.5702 86.2356 62.0293C89.4543 68.3247 93.412 73.4805 97.9646 78.87C94.8282 79.0929 80.6793 78.5123 62.5846 79.4899L62.5834 79.491Z" fill="#F87710"/>
<path d="M45.8665 66.9861C45.9166 66.8525 49.7229 69.8769 50.7565 72.0763C51.8902 74.4927 51.6601 76.7731 52.0678 79.348C45.7819 79.348 39.912 79.0405 33.6261 79.2431C33.5904 78.752 34.1864 74.8181 36.0938 71.5995C37.7818 68.7504 40.2661 66.8311 41.9648 66.0109C43.145 65.4411 44.771 66.4174 45.8665 66.9861Z" fill="#F87710"/>
<path d="M63.3928 20.9356C60.6796 20.9535 56.4358 20.8617 54.985 20.7532C51.2347 20.473 51.8057 17.432 51.882 14.4589C51.969 11.009 52.1705 7.31951 52.5448 3.88867C52.6545 2.88255 52.5341 1.65469 53.607 1.13375C54.2888 0.803542 56.8769 1.29588 57.4324 1.6237C59.4589 6.74969 62.6394 17.4189 63.3928 20.9356Z" fill="#F87710"/>
<path d="M31.2889 42.3837C32.4249 41.7578 34.4765 40.7016 38.7418 40.3559C43.0083 40.009 44.7965 40.3666 48.6112 41.0819C49.9225 37.2672 54.0542 35.3944 56.1273 35.0201C59.1016 34.4062 62.2296 34.6565 62.9484 34.7507C68.5191 35.4791 70.1713 37.8728 70.0986 38.2495C70.0235 38.6417 74.0027 49.1881 76.1401 55.4156C71.2597 68.978 70.4777 78.119 70.7185 79.3897C70.6362 79.4219 52.3031 79.5411 52.1433 79.1668C51.7857 78.3311 51.7893 76.0459 51.7177 75.7956C51.3041 74.3472 50.8749 70.1689 45.1529 66.8311C45.0826 66.7905 47.3845 63.3907 47.0602 63.2548C41.0998 60.7514 33.2189 50.4458 32.1615 48.9378C31.4725 47.9555 30.818 42.6435 31.2877 42.3848L31.2889 42.3837Z" fill="#FBF0D4"/>
<path d="M38.1206 26.5382C37.943 25.9112 36.8117 14.2514 36.6496 13.9772C35.7806 12.5145 30.8787 1.25877 30.7881 0.934518C32.0362 1.15863 47.084 0.929749 48.344 0.929749C48.344 1.2087 48.7529 1.82739 48.2546 2.93485C48.0257 3.44268 45.2636 9.95865 44.9167 11.0411C44.6664 11.8219 42.8401 17.3341 42.5588 18.1018C41.8137 20.1427 40.9828 22.1275 38.1218 26.5382H38.1206Z" fill="#FBF0D4"/>
<path d="M57.0999 0.98336C57.1797 0.958326 76.4713 0.517252 76.7443 0.55063C75.7883 2.03717 71.6612 8.97752 71.1415 9.96815C70.2963 11.5799 66.459 20.3513 66.2539 20.8162L63.3929 20.9354C63.2749 20.418 61.3663 13.306 60.4127 9.96815C59.9823 8.46373 57.1797 1.20986 57.0999 0.98336Z" fill="#FBF0D4"/>
<path d="M95.1405 50.8365C98.7979 52.1681 102.709 55.5548 102.851 55.9828C103.566 57.7709 103.961 59.7844 104.332 61.6858C104.73 63.7266 105.116 65.8772 104.52 69.4773C104.445 69.3199 101.659 60.3935 93.1736 53.3912C93.7994 52.5317 94.231 51.5184 95.1405 50.8365Z" fill="#FBF0D4"/>
<path d="M69.1154 36.4327C71.6188 37.744 72.6201 40.3821 72.6201 40.3821C74.2414 40.009 76.5051 39.519 84.0165 39.8897C93.6724 40.3666 99.3945 43.9429 99.3945 43.9429C99.2753 45.4926 97.4871 47.6383 97.4871 47.6383C100.467 50.1417 102.017 54.0756 102.971 56.2214C99.7521 54.7909 96.7719 53.8372 93.8 53.2388C93.8 53.2388 89.3809 59.44 78.5412 69.1854C78.5412 69.1854 80.5594 72.9107 79.2863 78.4789C79.2243 79.0499 62.2644 78.7984 62.2644 78.7984C62.4397 74.1028 63.1549 67.3078 71.2611 63.8508C71.2611 63.8508 69.3538 62.8971 63.8702 63.0163C62.69 60.377 61.1331 56.5874 59.9363 53.9564C59.9363 53.9564 63.2634 52.7226 66.0159 48.8304C68.7685 44.9382 69.3979 41.2618 69.1154 36.4327Z" fill="#F8AF46"/>
<path d="M110.719 43.8238C108.573 42.8701 106.189 42.2741 103.328 41.7972C100.467 41.3204 98.3213 41.4396 98.3213 41.4396C95.8179 35.956 91.3142 29.1444 91.0495 28.6842C90.5584 29.4221 89.7382 31.7837 89.2614 31.7837C88.5461 31.7837 83.5393 12.4718 83.5393 12.4718C83.9017 12.0546 85.2083 9.61079 85.2083 9.61079C84.1414 7.21588 81.3113 1.17675 80.9167 0.550898C81.9288 0.550898 103.924 -0.641193 114.388 2.08512C111.553 2.10062 108.249 2.45467 105.692 2.71812C101.31 3.16992 96.4139 4.24638 92.6457 6.16684C98.9173 9.25316 103.512 12.1142 107.533 16.6441C111.553 21.1741 113.461 26.1809 113.708 27.6173C111.434 26.8961 110.6 26.5385 105.235 25.4656C101.136 24.7694 98.2021 24.1543 93.1953 24.0351L91.1687 28.2074C94.2419 29.1957 98.4834 30.6572 103.686 34.8831C107.5 37.9826 110.75 43.7833 110.719 43.8238Z" fill="#F8AF46"/>
<path d="M31.2195 48.9484C29.7926 49.2929 12.7266 49.2393 11.3557 48.7362C8.6163 47.7313 9.20638 43.1989 9.28864 40.9602C9.37924 38.5307 9.00611 35.6113 11.7014 34.468C14.3348 33.3511 27.9317 33.4619 31.2052 33.9304C34.5431 34.4073 34.0662 38.5867 34.0662 41.4406C34.0662 46.4474 34.4549 48.1676 31.2183 48.9496L31.2195 48.9484Z" fill="#95934A"/>
<path d="M9.62964 63.6123H36.4517C36.4517 67.0694 36.8093 68.6191 34.6635 70.8841C34.4633 71.0951 31.5641 71.0033 31.5641 71.0033L32.3986 68.4999L29.776 68.3807L29.8952 71.0033L16.0669 71.4801L15.8285 69.692L13.9212 69.5728V71.7185L9.62964 71.8377V63.6123Z" fill="#95934A"/>
<path d="M36.4513 66.5924C36.5669 68.5665 35.0208 71.0032 35.0208 71.0032H31.5637L32.5174 68.7382L29.8948 68.619V71.0032H25.2456C25.9609 68.4998 27.7132 66.8094 29.9615 65.7818C31.8128 64.9354 34.2077 64.5659 36.2128 64.3275C36.2128 64.3275 36.4513 65.1619 36.4513 66.5924Z" fill="#BC6610"/>
<path d="M33.948 42.3933C33.4188 42.6985 31.0322 43.7701 30.6197 43.8488C30.1333 43.943 30.1334 43.4936 30.2561 43.1216C30.6662 41.8711 31.0405 40.6075 31.49 39.3713C31.9322 38.1566 33.1279 35.4756 33.1279 35.4756C34.3057 35.1227 33.948 42.3945 33.948 42.3945V42.3933Z" fill="#BC6610"/>
<path d="M33.7099 46.8039C33.5371 47.3868 32.4666 48.3333 32.3986 48.2344C31.4223 46.7967 30.1337 44.6581 30.1933 43.4076C31.2554 42.3717 32.5417 41.7864 33.8292 41.201C33.8292 41.201 33.9591 45.9646 33.7099 46.8039Z" fill="#B9A878"/>
<path d="M91.1961 29.4505C90.6048 30.2957 90.3092 31.3304 89.4294 31.9134C89.1898 32.0719 88.8608 32.0505 88.6617 31.8454C88.5461 31.7262 88.4638 31.5677 88.4066 31.3662C87.6437 28.6661 86.8593 25.9732 86.0808 23.2767C85.4657 21.144 84.8351 19.015 84.2426 16.8752C83.9041 15.6533 83.6537 14.4075 83.32 13.1856C83.0601 12.2355 83.7277 11.6276 84.0841 10.9064C84.276 10.5189 84.5419 10.1661 84.7552 9.82752C83.6883 6.5898 82.1005 3.64057 80.5793 0.56378L81.3673 0.507751C82.6905 3.29844 84.0102 6.08316 85.3286 8.8655C85.8913 8.1419 86.4671 7.36227 87.0846 6.6196C87.6306 5.96276 88.2814 5.43109 89.017 4.97213C90.1709 4.2533 91.1544 4.74563 91.7087 5.84832C92.3799 7.18227 92.5146 8.59609 92.3048 10.0552C92.0663 11.717 91.8184 13.3788 91.5657 15.0977C91.8303 14.9595 92.0783 14.8259 92.3286 14.6984C93.4742 14.1131 94.522 14.5649 94.9381 15.7904C95.2814 16.8036 95.1574 17.8169 94.9905 18.829C94.4207 22.2789 93.2215 25.5095 91.5514 28.5719C91.5287 28.6125 91.5311 28.6661 91.5299 28.6709C94.354 33.4846 97.3509 38.1683 99.5694 43.3682C99.7982 43.9046 99.7613 44.515 99.4776 45.0252C97.9219 47.8194 95.8429 50.3491 93.8914 52.9883C94.5602 53.5117 95.2194 53.973 95.8155 54.5059C96.6046 55.2128 97.3676 55.9543 98.0995 56.722C99.5753 58.2705 100.763 60.0467 101.925 61.8277C102.83 63.2141 103.715 64.6243 104.283 66.2062C104.588 67.0586 105.055 67.8537 105.371 68.7037C105.773 69.7861 106.104 70.8959 106.449 71.9998C106.836 73.242 107.255 74.4782 107.568 75.7406C107.858 76.9076 107.981 77.7314 108.217 78.989C107.691 79.0915 107.04 79.0117 106.548 79.1082C106.323 78.337 106.309 78.0997 106.104 77.3094C105.867 76.395 105.737 75.4497 105.442 74.5568C104.68 72.2525 103.91 69.9482 103.034 67.6868C102.236 65.6281 101.146 63.716 99.8805 61.8921C98.9793 60.5951 98.0661 59.316 97.0326 58.1239C95.98 56.9103 94.8332 55.7945 93.4694 54.8611C91.4262 57.3919 89.3639 59.875 86.9189 62.1376C88.7607 64.9402 90.5309 67.8144 92.4871 70.5574C94.441 73.2968 96.5796 75.9027 98.6383 78.567C98.7075 78.567 98.7766 78.567 98.8469 78.567C98.6836 78.871 97.3068 78.542 97.1315 78.8674C96.2673 78.455 96.8323 78.8341 96.1886 78.1033C93.7078 75.284 91.4512 72.2764 89.4819 69.0792C88.3339 67.2159 87.0989 65.4063 85.9151 63.5646C85.5766 63.0377 85.2821 62.481 84.9567 61.9195C90.1506 56.623 94.8785 51.0202 98.934 44.7355C99.1462 44.4077 99.1652 43.9904 98.9876 43.6412C97.8277 41.3547 96.694 39.0349 95.4555 36.7711C94.1108 34.3131 92.6433 31.9229 91.1973 29.4481L91.1961 29.4505ZM90.5703 17.2709L90.37 17.1934C90.3676 16.9789 90.3366 16.7583 90.3771 16.5521C90.4749 16.0514 90.6418 15.5639 90.724 15.062C91.0411 13.1368 91.3725 11.2139 91.6276 9.28034C91.7731 8.17528 91.5764 7.08213 91.0316 6.0915C90.5893 5.28684 90.1697 5.19028 89.3579 5.62659C88.4293 6.12488 87.7176 6.8759 87.1299 7.71632C86.0987 9.19213 85.1236 10.7073 84.1675 12.232C84.0066 12.4895 83.9613 12.9007 84.0269 13.2059C84.2534 14.2526 84.5371 15.2885 84.8268 16.3208C85.6314 19.1973 86.4492 22.0715 87.2622 24.9456C87.7522 26.6777 88.2302 28.4134 88.7428 30.1395C88.8036 30.3434 88.8489 30.6831 88.955 30.9216C89.0408 31.1147 89.3055 31.1385 89.4342 30.9716C89.5021 30.8846 89.5665 30.7976 89.582 30.769C91.2354 27.7494 92.7935 24.6905 93.7055 21.3455C94.1036 19.8828 94.4124 18.4082 94.3814 16.8847C94.3683 16.241 94.2872 15.5269 93.6327 15.2623C92.995 15.0048 92.4073 15.3767 91.9388 15.8511C91.4763 16.3196 91.0245 16.7989 90.5679 17.2733L90.5703 17.2709Z" fill="#653918"/>
<path d="M33.0724 48.1747C33.9533 49.2178 34.8379 50.2668 35.7236 51.3135C36.9645 52.7797 38.1423 54.3044 39.4656 55.692C40.9044 57.2012 42.4291 58.6389 44.011 59.9978C45.1828 61.0028 46.5072 61.8301 47.7625 62.7385C47.8603 62.81 47.983 63.0138 48.1344 63.1354C47.4192 64.6851 47.0616 65.4004 46.3463 66.8309C49.0881 68.4998 50.6569 70.822 51.8323 73.5638C51.8621 73.4398 51.8943 73.3159 51.9205 73.1907C52.3997 70.9269 53.3296 68.8622 54.8185 67.0944C56.2359 65.4111 58.0705 64.2965 60.1495 63.5991C62.182 62.9173 64.2718 62.5465 66.4235 62.6216C69.4776 62.7277 72.3875 63.4513 75.0054 65.0297C77.6721 66.6366 79.2206 69.0935 79.8178 72.1452C80.2565 74.3852 80.3221 76.6049 79.4483 78.7721C79.3493 79.0165 79.2444 79.2573 79.1324 79.5219C78.8749 79.4778 78.6663 79.442 78.4123 79.3979C78.4517 79.2429 78.4612 79.1214 78.5113 79.0188C79.6533 76.6931 79.5115 74.2779 78.9607 71.8568C78.0965 68.0576 75.6193 65.7282 72.0406 64.4586C70.5636 63.9341 69.0437 63.6552 67.4785 63.4585C64.9799 63.145 62.5969 63.5336 60.2818 64.3335C57.3243 65.3539 55.1106 67.2529 53.7551 70.1592C52.631 72.5696 52.2829 75.0814 52.3056 77.692C52.3103 78.1999 52.2352 78.7089 52.1935 79.2561C51.7345 79.1357 51.6547 78.8209 51.6177 78.474C51.5176 77.5263 51.4461 76.5739 51.3114 75.6309C50.8417 72.3562 49.2192 69.7456 46.4989 67.9181C45.3473 67.1444 43.9883 66.639 42.6651 66.1753C40.6815 65.4803 38.5977 65.2573 36.5008 65.2585C36.4138 64.7781 36.3327 64.3299 36.229 63.7589C36.4972 63.7231 36.831 63.6397 37.166 63.6385C39.0888 63.6289 40.9676 63.9449 42.8177 64.4479C43.6605 64.6768 44.5045 64.9033 45.4034 65.1465C45.6656 64.7269 45.9422 64.2834 46.2545 63.7839C43.2433 61.8658 40.6564 59.5425 38.2961 56.9556C35.9429 54.3771 33.7328 51.6854 31.5966 48.8101C32.1247 48.5836 32.5622 48.3964 33.07 48.1783L33.0724 48.1747Z" fill="#653918"/>
<path d="M33.7066 37.0537C33.4097 36.4255 33.132 35.8366 32.7982 35.1321C33.0402 34.6099 33.3275 33.9674 33.6339 33.3344C34.572 31.3865 36.3328 27.8496 36.6093 27.1642C37.0754 26.0114 37.2757 25.2723 37.1124 24.1803C36.7619 21.845 36.5497 19.4883 36.2994 17.1387C36.2243 16.4377 36.2994 15.7105 36.1456 15.031C36.0049 14.4124 35.6545 13.839 35.3815 13.2524C34.1119 10.5261 32.8054 7.81651 31.5811 5.07113C31.1221 4.03997 30.8491 2.92656 30.4999 1.84771C30.4498 1.69393 30.4474 1.52466 30.4176 1.32439C30.6882 1.20637 30.9302 1.10147 31.1853 0.990601C31.7492 1.41498 32.1318 1.95143 32.4048 2.58681C33.3835 4.86251 34.3563 7.14179 35.3719 9.40199C35.875 10.5226 36.4651 11.6026 37.085 12.84C37.2435 11.934 37.2864 11.2795 37.5248 10.4498C37.8527 9.31139 38.1209 8.65694 38.9279 7.17875C39.2009 6.67807 39.7099 6.26083 40.1939 5.92228C41.3908 5.08662 42.4017 5.4526 43.3446 6.386C43.9228 6.95702 44.34 7.69373 44.8109 8.36726C44.9623 8.58422 45.0577 8.84171 45.2186 9.15881C45.7956 7.70207 46.3225 6.29064 46.9114 4.90424C47.5086 3.49995 47.8996 2.59158 48.6113 1.02636C48.7663 1.32796 49.1763 1.00133 49.1549 1.11219C49.0679 1.5628 48.9928 2.03249 48.8008 2.44257C46.878 6.55051 45.3652 10.8134 43.9586 15.1169C43.5282 16.4353 43.0478 17.7454 42.5316 19.0269C41.9916 20.368 41.4635 21.6996 40.7912 22.9847C39.9436 24.6047 39.046 26.1997 38.1924 27.8162C37.526 29.0786 36.8716 30.3482 36.2541 31.6345C35.6461 32.9005 35.0966 34.1939 34.5077 35.4694C34.2645 35.9964 33.9855 36.5066 33.7066 37.0537ZM38.9411 24.7466C39.3404 24.0635 39.7099 23.5271 39.9829 22.9453C40.4455 21.9583 41.0069 20.8318 41.4576 19.8614C42.9226 16.7036 43.7273 13.4706 44.8288 10.1494C44.7215 9.90863 44.613 9.63684 44.4831 9.37696C44.0229 8.45786 43.5676 7.52564 42.7689 6.84615C41.8486 6.06176 41.1238 5.94135 40.1296 6.86403C39.4286 7.51491 38.9947 8.34461 38.68 9.21364C37.9766 11.1544 37.5964 13.1726 37.78 15.2373C38.0315 18.0709 38.382 20.8949 38.7002 23.7226C38.7336 24.023 38.8385 24.3162 38.9422 24.7478L38.9411 24.7466Z" fill="#653918"/>
<path d="M61.0076 54.3368C58.5186 54.2867 56.126 53.8754 53.8348 52.9432C50.5208 51.5961 48.567 49.0403 48.0293 45.6047C47.6109 42.932 48.0293 40.2999 49.8449 38.0468C51.2432 36.3135 53.0421 35.2752 55.1306 34.7066C56.8985 34.225 58.7033 33.8769 60.5487 33.9186C63.1641 33.9782 65.6663 34.5373 68.0434 35.6591C69.8303 36.5019 71.3896 37.6344 72.41 39.3283C73.5604 41.2357 74.3138 43.3278 74.1147 45.5939C73.918 47.841 73.068 49.802 71.2966 51.3529C69.7349 52.7203 67.8967 53.358 65.9381 53.7121C64.3097 54.0065 62.915 54.3141 61.0064 54.3368H61.0076ZM64.1309 53.3187C64.9964 53.2007 65.8523 53.0088 66.7118 52.8526C69.4715 52.0479 70.3393 51.3816 71.7376 49.9332C71.8712 49.7949 71.9773 49.6244 72.075 49.4563C73.2158 47.5168 73.6986 45.4688 73.2659 43.2086C72.8642 41.1069 71.9129 39.3522 70.3059 37.9562C67.7966 35.7747 64.746 34.9617 61.5429 34.6529C59.179 34.4253 56.8651 34.8508 54.6288 35.6197C53.2471 36.0954 51.9382 36.7439 50.9559 37.8752C49.8056 39.1996 48.9496 40.6432 48.7708 42.4683C48.6218 43.9882 48.5384 45.4616 49.0617 46.9291C49.6399 48.5503 50.5888 49.9522 51.8548 51.0573C52.8168 51.8977 54.053 52.4008 55.313 52.737C60.1732 53.9553 63.2845 53.4331 64.1297 53.3175L64.1309 53.3187Z" fill="#653918"/>
<path d="M63.6526 20.5087C64.3058 20.5576 64.9341 20.6041 65.5456 20.6494C65.8031 20.6684 66.0415 20.5158 66.1333 20.2738C68.6772 13.5803 71.9686 7.35635 76.0026 1.48411C76.6249 0.669915 77.1923 0.618655 76.8633 1.14675C76.011 2.51289 74.3921 5.33457 73.5469 6.70547C71.2378 10.4534 69.2888 14.3837 67.6353 18.4619C67.354 19.1557 67.0977 19.8602 66.833 20.5826C66.6602 21.0535 66.2012 21.3575 65.7006 21.3324C64.0352 21.2502 62.3472 21.1608 60.6592 21.094C58.8234 21.0213 56.978 21.1441 55.0445 20.9915C54.8692 20.9772 54.2136 20.8151 54.9288 20.6398C55.7597 20.4372 56.4988 20.4503 56.8362 20.4562C58.8854 20.4944 60 20.4538 62.0492 20.4908C62.2936 20.4956 62.5368 20.4908 62.9182 20.4908C61.3125 14.2037 59.758 7.96312 57.1914 1.97764C57.8185 1.85724 57.6468 1.12052 57.791 1.50199C58.5516 3.50471 59.7938 6.57076 60.4232 8.6152C61.4055 11.8076 62.253 15.0418 63.1423 18.2628C63.3426 18.9888 63.4797 19.7326 63.6549 20.5075L63.6526 20.5087Z" fill="#653918"/>
<path d="M24.6131 71.2846C25.1448 71.1511 25.68 71.0152 26.3619 70.8435C25.6431 73.5472 25.7373 76.1316 26.716 78.7161C26.3357 78.8412 26.0472 78.9378 25.8112 79.0153C25.6967 78.9617 25.6478 78.9485 25.6097 78.9199C24.5428 78.1248 24.4474 76.9124 24.2972 75.7502C24.1053 74.2636 24.1935 72.783 24.6131 71.2858V71.2846Z" fill="#653918"/>
<path d="M68.139 68.7527C68.4239 68.0923 68.7577 68.5 68.6909 69.8006C68.3738 71.9011 68.6027 73.9991 68.7183 76.0948C68.7756 77.1367 68.9329 78.1726 69.0438 79.205C68.5407 79.3147 68.3297 79.1692 68.2653 78.6697C68.1652 77.8949 68.0567 77.1188 68.0031 76.3392C67.8517 74.1207 67.6705 71.9011 67.9721 69.6802C68.0114 69.3941 68.0424 68.9769 68.139 68.7527Z" fill="#653918"/>
<path d="M60.6046 68.5858C60.8895 68.0231 61.0409 69.1568 60.9932 69.499C60.8442 70.5551 60.6308 71.6149 60.6213 72.6747C60.6034 74.5534 60.7179 76.4322 60.7715 78.3109C60.7775 78.5064 60.7369 78.7019 60.7095 78.9749C60.1564 78.7186 60.0575 78.3133 60.0277 77.908C59.85 75.4439 59.7296 72.9763 60.067 70.5158C60.154 69.8816 60.3197 69.1485 60.6046 68.5858Z" fill="#653918"/>
<path d="M40.1176 78.9759C39.8708 76.4165 39.7897 74.6987 40.0949 71.2929C40.1426 70.7648 40.1986 70.8673 40.2654 70.6038C40.623 70.1699 40.7053 71.2714 40.7065 71.604C40.7088 73.1656 40.6635 74.7261 40.6838 76.2877C40.6957 77.2879 40.7923 78.2869 40.8471 79.2858C40.8567 79.4515 40.1545 79.355 40.1176 78.9759Z" fill="#653918"/>
<path d="M33.0219 70.7063C33.2329 70.7648 33.3343 71.3644 33.3069 71.6898C33.1137 73.9834 33.1137 75.6523 33.1292 78.4812C32.7215 78.5181 32.4176 78.6445 32.3985 78.0377C32.3615 76.8194 32.352 75.2816 32.4414 74.0657C32.5177 73.0309 32.5177 72.7925 32.6369 71.8388C32.6536 71.7041 32.8109 70.6491 33.0219 70.7075V70.7063Z" fill="#653918"/>
<path d="M51.8308 40.6277C51.5411 40.4179 51.7342 39.9423 52.0811 40.0305C52.1944 40.0591 52.2945 40.127 52.3851 40.2033C53.3662 41.0354 54.5547 41.2476 55.7707 41.424C58.3634 41.8007 60.8788 41.3978 63.3655 40.6969C65.0857 40.2129 66.7093 39.525 68.1493 38.4677C68.3699 38.3055 68.6953 38.4629 68.6858 38.7371C68.6786 38.935 68.526 39.1173 68.2089 39.3033C67.328 39.8207 66.4518 40.3869 65.5017 40.741C62.5989 41.8222 59.6104 42.4993 56.4752 42.2525C54.8194 42.1226 53.2339 41.7924 51.9119 40.6885C51.8856 40.6671 51.8594 40.6468 51.832 40.6265L51.8308 40.6277Z" fill="#653918"/>
<path d="M62.4893 35.6921C63.1545 35.9556 62.5453 36.9939 61.6739 37.3539C60.2708 37.9332 58.8546 37.789 57.4801 37.2585C57.2262 37.1608 56.958 36.7602 56.9437 36.486C56.9318 36.2667 57.2512 35.9126 57.4992 35.8197C58.0344 35.617 58.6138 35.4787 59.1848 35.4322C60.297 35.3428 61.4236 35.2367 62.4893 35.6921Z" fill="#653918"/>
<path d="M67.1971 33.7542C67.1875 33.9294 67.0886 34.287 66.9694 34.5255C66.7763 34.9105 66.6153 35.2371 66.2362 35.4553C65.881 35.3611 65.5341 35.2681 65.2051 35.1811C64.64 34.3049 64.7652 32.6992 65.4936 32.0078C65.6903 31.8206 66.0157 31.6656 66.3101 31.7252C66.6201 31.7872 66.7929 31.966 66.9694 32.2617C67.327 32.8577 67.2078 33.573 67.1971 33.7554V33.7542Z" fill="#643616"/>
<path d="M57.1872 34.827C56.6746 34.9665 56.1728 35.1024 55.6995 35.2311C55.1094 34.3871 55.0915 32.8279 55.6208 32.0876C55.8509 31.7645 56.1477 31.5154 56.5733 31.5559C56.9834 31.5952 57.1551 31.7979 57.3136 32.1412C57.7106 32.9983 57.3136 34.6446 57.1872 34.827Z" fill="#643616"/>
<path d="M91.1675 3.6245e-05C93.2799 0.0286464 95.3923 0.0548726 97.5059 0.0691777C99.3941 0.0822907 101.282 0.0572551 103.171 0.0954021C105.213 0.137125 107.252 0.238454 109.293 0.301635C111.582 0.371968 113.729 0.973974 115.765 2.00156C117.405 2.83006 119.011 3.71578 120.238 5.12722C120.921 5.914 121.587 6.72104 122.201 7.56266C123.337 9.11715 124.107 10.8683 124.503 12.7363C124.799 14.1263 124.889 15.5652 124.999 16.9885C125.094 18.2259 125.14 19.4716 125.121 20.7126C125.068 24.1351 124.934 27.5564 124.901 30.9789C124.868 34.4503 124.925 37.9216 124.924 41.393C124.924 43.0405 124.866 44.6879 124.856 46.3366C124.846 48.1653 124.85 49.9951 124.872 51.8238C124.892 53.5058 124.96 55.1867 124.979 56.8687C124.997 58.4304 124.967 59.9932 124.979 61.556C124.994 63.6315 125.035 65.7057 125.054 67.7811C125.062 68.73 125.032 69.6789 125.041 70.6278C125.05 71.6435 125.108 72.6592 125.102 73.6748C125.094 74.8574 125.025 76.0399 125.012 77.2225C124.997 78.659 124.278 79.7819 122.391 79.7032C120.02 79.6043 117.64 79.6877 115.264 79.6997C113.131 79.7092 110.998 79.7378 108.864 79.7378C107.722 79.7378 106.579 79.6687 105.437 79.6794C103.829 79.6937 102.221 79.7926 100.614 79.7843C97.4129 79.7688 94.2133 79.6818 91.0126 79.6663C88.6427 79.6544 86.2728 79.7175 83.9017 79.733C81.1826 79.7509 78.4634 79.7569 75.7443 79.7628C73.217 79.7688 70.691 79.7569 68.1638 79.7736C66.1634 79.7867 64.1631 79.8427 62.1628 79.8606C59.961 79.8808 57.7592 79.9118 55.5574 79.8808C52.8013 79.8427 50.0452 79.7235 47.2891 79.6806C44.5234 79.6377 41.7566 79.6424 38.9909 79.6317C36.6532 79.6234 34.3143 79.5995 31.9766 79.6234C27.8711 79.6639 23.7667 79.7378 19.6612 79.7938C17.7395 79.8201 15.8179 79.8236 13.8974 79.8606C12.0425 79.8963 10.1876 80.0179 8.33272 79.9977C6.26206 79.975 2.95401 80.062 1.88112 79.5852C0.890496 79.1239 0.817777 77.9973 0.799896 77.1247C0.770094 75.6477 0.827315 74.1684 0.808241 72.6902C0.764134 69.1795 0.673535 65.6699 0.643732 62.1604C0.61393 58.6652 0.621083 55.1688 0.63658 51.6724C0.649693 48.8138 0.699761 45.9539 0.731948 43.0953C0.747445 41.666 0.765325 40.2379 0.770094 38.8086C0.77963 36.0703 0.789168 33.3321 0.782015 30.5939C0.774863 27.6828 0.725986 24.7729 0.736715 21.863C0.742676 20.1643 0.823739 18.4655 0.879768 16.7668C0.93222 15.1658 1.1766 13.6006 1.61171 12.0509C2.3818 9.31027 3.9339 7.07033 5.85555 5.02947C7.15612 3.64783 8.77975 2.78595 10.4439 1.95626C12.1438 1.10987 13.932 0.609194 15.8226 0.513827C16.9337 0.457799 18.6515 0.401771 19.7601 0.430381C23.1015 0.517404 25.4833 0.294481 28.6471 0.402962C31.2161 0.491176 33.7874 0.541246 36.3576 0.546014C38.9444 0.550782 41.5324 0.460182 44.1193 0.442301C47.6562 0.418459 51.1943 0.439917 54.7313 0.411307C57.603 0.388657 60.4736 0.326669 63.3441 0.271833C66.1491 0.218189 68.9529 0.147854 71.7567 0.0882498C73.279 0.0560633 74.8025 0.0131482 76.3248 0.0119561C77.7577 0.010764 79.1894 0.071561 80.6223 0.0775214C81.9098 0.0834819 83.196 0.0465273 84.4835 0.0405669C86.4254 0.0322223 88.3673 0.0405668 90.308 0.0274538C90.4666 0.0274538 91.0853 -0.00115585 91.164 3.6245e-05H91.1675ZM121.932 77.9509C122.59 77.9485 123.175 77.4192 123.189 76.7921C123.243 74.5701 123.294 72.3468 123.315 70.1248C123.33 68.4666 123.293 66.8084 123.284 65.1502C123.273 63.1332 123.277 61.1161 123.256 59.0979C123.234 56.6589 123.185 54.2199 123.163 51.7809C123.148 50.1239 123.163 48.4681 123.155 46.8111C123.144 44.5711 123.108 42.33 123.113 40.09C123.117 38.2602 123.173 36.4315 123.193 34.6017C123.226 31.749 123.241 28.8951 123.279 26.0425C123.307 23.8776 123.338 21.714 123.406 19.5503C123.474 17.3402 123.244 15.167 122.753 13.0153C122.266 10.8791 121.215 9.01224 119.871 7.32543C119.073 6.32527 118.123 5.46339 117.05 4.71356C115.074 3.33312 112.903 2.45455 110.552 2.10884C108.871 1.86208 107.151 1.85374 105.448 1.80129C103.686 1.74764 101.923 1.77983 100.159 1.75479C98.3105 1.72857 96.4628 1.65466 94.6139 1.64989C92.9628 1.64631 91.3118 1.72857 89.6607 1.7381C88.4376 1.74526 87.2134 1.67373 85.9903 1.68088C82.9421 1.69757 79.8939 1.74526 76.8446 1.76671C75.5368 1.77625 74.2279 1.72261 72.9202 1.74645C68.8158 1.82513 64.7115 1.93957 60.6059 2.01586C57.907 2.06593 55.2081 2.08977 52.5092 2.09931C49.7412 2.11004 46.9731 2.07189 44.2051 2.08619C40.6992 2.10288 37.192 2.1911 33.6861 2.17203C31.2817 2.15891 28.8796 1.99679 26.4751 1.93361C25.0339 1.89546 23.5915 1.89904 22.1502 1.92049C20.8079 1.94076 19.4657 2.05758 18.1246 2.04686C15.6629 2.02659 13.293 2.44263 11.0733 3.50359C8.8775 4.55263 6.95943 5.99148 5.57541 8.02758C4.95314 8.94191 4.38451 9.90631 3.90649 10.9029C2.79903 13.2108 2.54154 15.7273 2.44141 18.2271C2.32577 21.1096 2.42829 24.0028 2.44737 26.89C2.46525 29.6771 2.52128 32.4631 2.51412 35.2502C2.50459 38.8765 2.44141 42.5028 2.41518 46.1292C2.39968 48.2916 2.40326 50.4541 2.40922 52.6165C2.41637 55.2153 2.42948 57.8141 2.45213 60.414C2.4867 64.4135 2.53201 68.4129 2.57254 72.4124C2.58684 73.8191 2.55346 75.2269 2.62618 76.63C2.70367 78.1189 2.79784 78.0784 4.03642 78.1618C6.32524 78.3168 8.62836 78.2989 10.9255 78.2918C12.5861 78.287 14.2455 78.1583 15.9061 78.1273C19.0389 78.0677 22.1729 78.045 25.3057 77.9938C27.3788 77.9604 29.4506 77.8722 31.5225 77.8638C34.6636 77.8507 37.8048 77.8769 40.9447 77.902C43.0595 77.9199 45.1755 77.964 47.2902 77.9985C49.138 78.0283 50.9857 78.0605 52.8335 78.0891C54.388 78.113 55.9412 78.1368 57.4957 78.1547C58.7617 78.169 60.0277 78.2024 61.2925 78.1762C62.9472 78.1428 64.6006 78.0307 66.2552 78.0045C68.0815 77.9759 69.909 78.0164 71.7365 78.0117C73.8619 78.0069 75.9863 77.9759 78.1117 77.9735C80.1824 77.9699 82.2543 77.9985 84.3249 77.9926C86.491 77.9866 88.657 77.9234 90.8218 77.9437C92.9318 77.9628 95.0394 78.082 97.1494 78.1082C98.9268 78.1297 100.705 78.0689 102.483 78.0665C104.962 78.0629 107.442 78.082 109.922 78.0868C111.998 78.0903 120.004 77.9544 121.932 77.9473V77.9509Z" fill="#748C3E"/>
<path d="M34.4046 42.0844C34.4046 43.1609 34.4046 44.2374 34.4106 45.3126C34.4249 48.4729 33.1136 49.5457 30.9106 49.6363C29.4038 49.6983 27.8922 49.5755 26.389 49.659C23.1024 49.8426 19.8158 49.7269 16.5292 49.7293C15.3335 49.7293 14.1367 49.6292 12.941 49.6244C11.7394 49.6196 10.7774 49.0617 9.92741 48.3215C9.58647 48.0246 9.36474 47.5204 9.23361 47.0686C8.96181 46.1352 8.80684 45.1684 8.80208 44.1897C8.7985 43.2873 8.71028 38.3556 8.92367 37.3256C9.28249 35.5983 10.1444 34.1177 11.9718 33.5515C12.7062 33.3238 13.5025 33.2427 14.275 33.2034C15.8831 33.1199 17.4948 33.0925 19.1065 33.0734C20.8577 33.052 22.6113 33.0162 24.3601 33.0758C26.4736 33.1485 28.5932 33.0853 30.6984 33.344C31.1693 33.4024 31.6235 33.3559 32.1134 33.5526C33.2221 33.9973 33.6762 34.8449 33.9612 35.8951C34.3951 37.4937 34.4022 39.1269 34.413 40.7612C34.4165 41.2023 34.413 41.6422 34.413 42.0832C34.4106 42.0832 34.407 42.0832 34.4046 42.0832V42.0844ZM26.0635 37.7798C24.1526 37.5295 18.4175 37.5354 17.7618 37.7738V45.594C20.5156 45.6285 23.2741 45.7775 26.0898 45.5153C26.2889 42.9249 26.1243 40.375 26.0635 37.7798ZM33.6464 44.0359V39.2353H26.8479V44.0359H33.6464ZM10.508 39.2592C10.3446 40.7243 10.3446 42.5124 10.3446 44.0621C11.4795 44.0621 12.7419 44.0252 13.8124 44.0252H17.0609C17.1407 42.7508 17.0215 40.2474 17.0466 39.258H10.5092L10.508 39.2592ZM10.4984 38.6822C12.7241 38.6822 14.7983 38.6989 17.0203 38.6989V34.6458C16.3766 34.6458 15.7007 34.6327 15.0915 34.6553C14.4121 34.6804 13.7314 34.7125 13.0555 34.79C11.9802 34.914 11.191 35.4552 10.7762 36.4876C10.5056 37.1599 10.4734 37.8609 10.4972 38.6822H10.4984ZM33.5511 38.5809C33.6 37.3912 33.532 36.2992 32.7095 35.4946C30.7807 34.5552 28.7767 34.8914 26.7192 34.728C26.7383 36.0429 26.7573 37.3137 26.7764 38.5809H33.5511ZM33.6739 44.6689H26.7705C26.8158 45.8431 26.8599 46.9684 26.9028 48.0818C27.5882 48.0818 28.1914 48.0878 28.7934 48.0807C29.7805 48.0687 30.7675 48.0568 31.7534 48.027C31.9382 48.0211 32.1408 47.9662 32.3018 47.8756C33.116 47.4143 33.6262 46.7407 33.6703 45.7752C33.6858 45.4366 33.6727 45.098 33.6727 44.6689H33.6739ZM10.3661 44.6057C10.5223 45.3794 10.5878 46.016 10.7845 46.6072C11.0766 47.487 11.7501 47.9448 12.6764 48.0222C13.6455 48.1033 14.6135 48.2011 15.5827 48.2654C16.0559 48.2976 16.5328 48.2714 17.0573 48.2714V44.6057H10.3661ZM17.6927 37.0216H26.0326V34.6804C23.2443 34.6219 20.487 34.6673 17.6927 34.6446V37.0216ZM17.707 48.331C20.5275 48.275 23.3444 48.2201 26.184 48.1641V46.2544H17.707V48.3322V48.331Z" fill="#616940"/>
<path d="M9.20328 72.0061C9.04235 69.7936 9.02805 66.0563 9.02686 63.7175C9.02686 63.3718 9.26766 63.0714 9.60621 62.9986C9.78026 62.9617 27.7367 62.858 30.8874 62.883C32.3346 62.8937 33.783 62.9402 35.2266 63.0296C36.0873 63.0833 36.9516 63.2084 37.8778 63.5851C37.4034 63.814 37.0255 63.9964 36.6691 64.1681C36.6953 65.2731 36.6893 66.712 36.6893 67.4273C36.6893 68.1425 36.6679 68.5109 36.4044 68.996C35.9884 69.7626 35.5878 70.5386 35.1706 71.329H31.1342C31.468 70.4814 31.7672 69.7208 32.0914 68.8947H30.1889V71.1978L25.0056 71.3612C25.0056 71.3612 24.9568 72.0037 24.8185 72.3077H15.3676L15.3497 70.2883H14.396V72.1956C14.396 72.1956 11.4981 72.3697 9.64913 72.4138C9.41429 72.4197 9.21759 72.2409 9.2009 72.0073L9.20328 72.0061ZM10.5837 64.5662C10.5909 66.3198 10.7029 68.8578 10.7029 70.7651C11.4897 70.7806 12.1895 70.8533 12.9679 70.7651C12.9679 70.2418 13.0001 69.4312 13.0001 68.797C14.0134 68.7386 14.8872 68.7934 15.8289 68.7386C15.8289 68.1425 15.8873 67.4308 15.8873 66.8205C14.9217 66.8205 14.0038 66.8205 12.9739 66.8205L12.9679 66.2352C13.9788 66.2352 14.9575 66.2399 15.8897 66.2399V64.5054C15.4594 64.5054 15.0779 64.4947 14.6976 64.5078C13.9109 64.5341 10.5539 64.546 10.5837 64.5662ZM16.6765 64.54V70.6888C18.7531 70.6232 20.7594 70.7401 22.774 70.6423V64.54H16.6765ZM23.5549 64.5317L23.5775 67.1876H25.008C24.9735 67.4082 25.0462 67.7801 25.008 68.0221C24.5383 68.0221 24.0091 67.9804 23.5251 67.9804C23.5584 68.9066 23.5358 70.628 23.5358 70.628C24.4454 70.628 25.2488 70.6447 26.0809 70.6447V69.095H26.9154L27.0203 70.6101C27.8512 70.6614 28.6856 70.6614 29.5141 70.6125V67.9923H27.9966V67.2747H29.47V64.5305C28.57 64.5305 27.8082 64.565 26.9166 64.565C26.944 65.1265 26.9166 66.234 26.9166 66.234H26.0821V64.565C26.0821 64.565 24.4132 64.5317 23.5561 64.5317H23.5549ZM30.2151 64.5102V68.1461H32.5945C32.7232 68.3273 32.995 68.7374 32.995 68.7374L32.2261 70.597H34.7546C34.9966 70.1488 35.198 69.7328 35.4376 69.3394C35.8823 68.6134 35.9085 68.344 35.9753 67.4249C36.0218 66.7931 35.9753 65.7559 35.9729 64.5007H33.5184V66.3031L32.8746 66.352V64.5638C31.9365 64.5638 31.1354 64.509 30.2139 64.509L30.2151 64.5102Z" fill="#616940"/>
<path d="M20.0007 69.0962H19.4047L19.438 66.2292L20.0007 66.2351V69.0962Z" fill="#616940"/>
<path d="M102.402 37.4758C102.402 37.4269 102.402 37.378 102.402 37.3292C105.172 35.1608 108.306 33.6289 111.429 32.0172C112.271 31.5833 113.127 30.8931 114.019 31.4355C114.977 32.0184 115.616 33.8256 116.007 34.8461C117.06 37.5902 117.37 40.8554 117.042 43.7641C116.748 46.3593 115.873 50.4446 113.649 52.123H113.21C110.091 50.2073 106.825 48.6219 103.826 46.494C102.173 45.321 103.203 44.4066 103.465 42.6495C103.737 40.8256 103.513 38.9945 102.402 37.4746V37.4758Z" fill="#CAC8B5"/>
<path d="M113.937 53.3603C111.315 52.049 102.613 46.5653 101.621 45.7297C102.255 44.5388 102.851 43.2275 102.887 41.4882C102.919 39.9564 102.374 38.3399 101.662 37.0584C105.593 34.406 113.937 29.5184 113.937 29.5184C116.798 32.6179 117.951 35.1284 118.467 40.9625C118.984 46.7966 115.827 51.6711 113.937 53.3603ZM113.461 51.2145C117.656 46.8634 117.991 36.5518 113.461 31.545C112.577 31.9694 111.434 32.8563 110.694 33.2974C114.061 37.329 113.887 45.7881 110.689 49.6719C111.566 50.0868 112.572 50.7949 113.461 51.2145ZM110.083 33.6049C109.069 34.2212 108.127 34.7922 107.241 35.3299C109.374 39.4676 109.288 43.5327 107.206 47.6239C108.159 48.1937 109.098 48.7552 110.061 49.331C110.263 49.0508 110.422 48.8375 110.575 48.6205C111.935 46.6941 112.518 44.2038 112.506 41.9162C112.477 36.5112 111.107 35.0307 110.082 33.6049H110.083ZM103.6 37.6139C104.758 40.0076 104.758 42.7494 103.621 45.3649C104.637 45.9955 105.584 46.5844 106.531 47.1721C108.931 42.9891 108.155 37.7939 106.531 35.7829C105.592 36.3694 104.652 36.9559 103.598 37.6139H103.6Z" fill="#758C3F"/>
</svg>
