<svg width="187" height="160" viewBox="0 0 110 94" fill="none" xmlns="http://www.w3.org/2000/svg">
<g clip-path="url(#clip0_8594_9572)">
<path d="M67.8323 8.38608C68.1261 8.26749 68.3312 8.16226 68.5263 8.0051C69.0545 7.57958 69.9377 7.46982 70.4637 8.39589C70.6681 8.75581 70.8024 9.11828 70.8046 9.53495C70.8102 10.5738 70.6758 11.5758 70.1076 12.4794C69.9861 12.6727 70.0667 12.7574 70.2895 12.7866C70.9457 12.8727 71.273 13.2925 71.4269 13.9092C71.5908 14.566 71.5124 15.2144 71.4606 15.8736C71.4033 16.6022 71.0755 17.2546 70.9533 17.9601C70.9177 18.1655 70.7205 18.2314 70.6506 18.3994C70.37 19.0739 69.9185 19.6711 69.7488 20.3977C69.7292 20.4818 69.7274 20.533 69.7621 20.6108C70.1815 21.551 70.4566 22.5379 70.6822 23.5386C70.8245 24.1698 71.0708 24.7607 71.3005 25.3623C71.7589 26.5629 72.172 27.7811 72.5888 28.9972C72.8359 29.7183 73.0237 30.4609 73.2966 31.1715C73.4831 31.6572 73.4508 32.203 73.7693 32.6571C73.8691 32.7993 73.6878 33.0492 73.507 33.1281C73.2914 33.2223 73.2029 33.3695 73.1518 33.5759C73.1332 33.6508 73.0931 33.7372 73.0349 33.783C72.4224 34.2652 71.9876 34.9233 71.3777 35.4154C70.9759 35.7395 70.6478 36.162 70.2359 36.4837C68.9077 37.5211 67.7777 38.808 66.3132 39.6688C65.3583 40.2301 64.479 40.9064 63.5079 41.4401C63.3191 41.5438 63.1222 41.6583 62.9827 41.8974C63.2019 42.1367 63.4051 42.4027 63.6825 42.5979C64.0158 42.8324 64.1634 43.2355 64.4868 43.4754C64.988 43.8472 65.3018 44.4085 65.8263 44.7621C66.1716 44.9949 66.2891 45.4137 66.4847 45.7622C66.6021 45.9714 66.6987 46.0999 66.984 46.0772C67.605 46.028 68.1603 46.3294 68.7212 46.5299C69.3421 46.7518 69.9392 47.0582 70.5142 47.3847C70.9486 47.6313 71.2989 48.0238 71.5554 48.4395C71.786 48.8132 72.0288 49.1844 72.252 49.565C72.449 49.9008 72.6489 50.2127 72.5823 50.6265C72.5377 50.9037 72.7232 50.9884 72.9501 50.9715C73.5514 50.9265 74.1505 50.8423 74.7523 50.8145C75.3679 50.7859 75.5726 50.4737 75.7166 49.8875C76.1111 48.2823 76.9559 46.8887 77.9688 45.5892C78.8824 44.4171 79.9557 43.4193 81.1801 42.5878C81.8943 42.1028 82.5608 41.5359 83.3571 41.1836C83.7431 41.0128 83.9582 40.6804 84.1948 40.3853C84.4345 40.0864 84.6909 39.8082 84.9516 39.5307C85.2015 39.2646 85.4119 38.9741 85.5683 38.6397C86.0704 37.5664 86.5892 36.5015 87.0792 35.4218C87.4958 34.5038 87.8538 33.5767 88.1502 32.6158C88.4969 31.4918 88.6037 30.3314 88.743 29.1766C88.7936 28.7566 88.8609 28.3432 88.9489 27.932C89.0293 27.5566 89.0938 27.196 88.9773 26.8043C88.8649 26.4265 89.0281 26.2371 89.3972 26.0861C90.1417 25.7814 90.8097 26.0454 91.4907 26.3124C94.0503 27.3157 95.9956 29.1011 97.6835 31.1967C98.9343 32.7497 100.08 34.377 100.954 36.1822C101.692 37.704 102.368 39.2459 102.918 40.849C103.811 43.4508 104.388 46.1209 104.8 48.832C105.185 51.3643 105.372 53.9128 105.377 56.5583C105.73 56.0876 105.858 55.584 106.132 55.1626C106.253 54.9771 106.345 54.7691 106.485 54.6008C106.802 54.221 107.165 54.2606 107.391 54.6839C108.153 56.1058 108.66 57.6196 109.01 59.1889C109.357 60.7481 109.491 62.3298 109.441 63.9231C109.363 66.4422 108.848 68.866 107.866 71.1981C106.546 74.3303 104.608 77.0203 102.125 79.3184C99.982 81.3026 97.5527 82.8619 94.8907 84.0803C92.4199 85.2113 89.856 86.0211 87.1894 86.5069C85.8023 86.7596 84.4034 86.9471 82.9866 86.9436C82.809 86.9432 82.622 86.9182 82.4305 87.0178C82.51 87.2164 82.5773 87.4136 82.5642 87.6442C82.4562 89.5403 82.4593 91.439 82.4629 93.3375C82.4639 93.8464 82.4588 93.8476 81.9717 93.8608C81.8101 93.8652 81.6483 93.8615 81.4865 93.8616C62.0369 93.8773 42.5873 93.893 23.1377 93.9085C22.2309 93.9092 21.3241 93.9086 20.332 93.9086C20.5271 93.6464 20.592 93.4079 20.4012 93.164C20.3086 93.0457 20.3499 92.8916 20.3497 92.7517C20.3401 82.8748 20.3291 72.9979 20.3243 63.121C20.3239 62.3292 20.4764 61.555 20.7612 60.8165C21.3739 59.228 22.1559 57.7361 23.2987 56.4516C23.6508 56.0558 24.0628 55.736 24.4718 55.4081C24.5689 55.3301 24.6765 55.2955 24.6305 55.0839C24.1846 53.0312 24.7612 51.2274 26.045 49.6189C27.1941 48.1793 28.7299 47.3213 30.4667 46.8166C32.2037 46.312 33.9661 46.2725 35.7319 46.6984C35.8287 46.7217 35.9293 46.7292 36.0471 46.7469C36.5526 45.1841 37.4011 43.8006 38.3113 42.3848C37.6614 41.9744 37.0609 41.5139 36.4388 41.0873C35.4681 40.4214 34.6503 39.584 33.7866 38.7997C33.4434 38.4882 33.0834 38.1972 32.7398 37.8869C31.917 37.144 31.0785 36.4254 30.3701 35.559C29.7107 34.7525 28.9371 34.0396 28.2716 33.2376C27.9794 32.8855 27.7913 32.4271 27.9457 31.9199C28.4425 30.2871 29.0725 28.7027 29.6869 27.1127C30.0775 26.1019 30.511 25.1068 30.7729 24.0509C30.8237 23.8462 31.0074 23.7172 31.0708 23.5308C31.532 22.176 32.1789 20.9069 32.8319 19.639C32.9343 19.44 33.0589 19.2602 33.1756 19.073C33.278 18.9087 33.3063 18.7387 33.0626 18.731C32.8457 18.7243 32.7934 18.5711 32.7218 18.4484C32.0774 17.3446 31.7716 16.1518 31.8825 14.8759C31.9207 14.4372 32.0842 14.0096 32.3305 13.636C32.5667 13.2778 32.8817 13.0478 33.348 13.2145C33.4285 13.2433 33.5041 13.2395 33.599 13.1533C33.1483 12.1697 33.1861 11.1074 33.1867 10.0431C33.1871 9.25789 33.5559 8.65827 34.0385 8.10262C34.2603 7.84722 34.6017 7.77493 34.8694 7.9282C35.4112 8.23849 35.9768 8.56426 36.0937 9.27536C36.1338 9.51919 36.2313 9.73477 36.4373 9.95034C36.8348 9.0324 37.2793 8.15635 37.5656 7.21891C37.867 6.23165 38.335 5.31613 38.7156 4.36342C39.2475 3.03187 40.0436 1.84618 40.7652 0.619525C40.8652 0.449533 41.0567 0.332302 41.1522 0.160848C41.3098 -0.122009 41.5627 -0.140874 41.7721 -0.0227956C42.1962 0.216408 42.7054 0.351986 42.9591 0.835094C43.0687 1.04383 43.1398 1.28758 43.4187 1.36072C43.4809 1.37706 43.5311 1.47016 43.5707 1.53739C44.4154 2.96972 45.1432 4.46376 45.7458 6.00882C46.2045 7.18499 46.7302 8.34153 47.118 9.53707C47.7673 11.5392 48.5515 13.496 49.1214 15.5241C49.2631 16.0286 49.3041 16.0738 49.8382 16.0524C50.1881 16.0384 50.5063 16.1615 50.8483 16.1831C51.5683 16.2285 52.281 16.3809 53.0008 16.4434C53.2114 16.4616 53.4267 16.715 53.6138 16.5141C53.7392 16.3795 53.7455 16.1416 53.8345 15.9648C54.1692 15.3005 54.4852 14.624 54.8644 13.9855C55.7487 12.4962 56.5534 10.9646 57.3855 9.44697C58.1382 8.07423 58.831 6.66795 59.6923 5.35039C60.1755 4.6113 60.5886 3.82071 61.1722 3.15554C61.7819 2.46049 62.2732 1.67071 62.9296 1.01598C63.157 0.789099 63.4004 0.585733 63.6793 0.418883C63.8965 0.288923 64.0508 0.32252 64.2099 0.499344C64.651 0.989341 65.0872 1.48023 65.3966 2.07133C66.0968 3.40931 66.7104 4.78898 67.2476 6.19617C67.5087 6.87992 67.7274 7.59543 67.8323 8.38608ZM48.5415 39.0556C48.586 39.0614 48.6306 39.0672 48.6751 39.073C49.2959 39.2256 49.9221 39.2321 50.5533 39.152C50.6905 39.1346 50.8872 39.0388 50.8869 39.3168C50.2302 39.4452 49.5674 39.4867 48.8997 39.4535C46.8896 39.3533 45.1843 38.5913 43.8467 37.0773C42.4096 35.4507 41.9598 33.1699 43.148 31.1415C43.1872 31.0745 43.2504 31.0129 43.2011 30.9423C38.1586 28.6314 33.4878 29.3639 29.1056 32.5141C29.1819 32.7768 29.3883 32.755 29.5018 32.8677C29.984 33.3468 30.4742 33.818 30.9479 34.3052C31.4104 34.7809 31.8135 35.3235 32.318 35.7472C33.6269 36.8462 34.885 38.0021 36.1771 39.1195C37.1519 39.9626 38.1797 40.7236 39.2992 41.3626C39.4315 41.4381 39.6582 41.5133 39.5992 41.6936C39.4913 42.0236 39.7169 42.1621 39.8882 42.3356C40.1264 42.5769 40.1314 42.8754 40.1247 43.1793C40.0847 44.972 40.2335 46.751 40.5253 48.5182C40.5782 48.8387 40.6136 49.1545 40.6009 49.4791C40.5847 49.8913 40.592 49.8916 40.1137 49.8875C39.7286 49.2348 39.542 48.5226 39.4719 47.7738C39.4098 47.1115 39.3562 46.4503 39.3441 45.7835C39.3292 44.9676 39.238 44.1537 39.2086 43.3161C39.0799 43.7565 38.7216 44.054 38.5684 44.4564C38.2601 45.2662 37.8483 46.0245 37.4639 46.7964C37.2014 47.3236 37.1977 47.3313 37.6442 47.6746C37.8515 47.834 38.0508 48.0063 38.239 48.188C39.0973 49.0169 39.6816 50.0166 40.0627 51.1406C40.0935 51.2983 40.0992 51.4508 40.3471 51.4254C40.7671 51.3824 41.191 51.3678 41.6137 51.3599C45.8491 51.2806 50.085 51.3285 54.3207 51.3172C54.9544 51.3155 54.9545 51.3216 54.9831 50.7172C55.0013 50.6393 55.0235 50.562 55.0373 50.4833C55.3245 48.8382 56.1203 47.5124 57.4981 46.5463C58.2354 46.0293 59.0533 45.7044 59.9249 45.5036C60.1113 45.4606 60.272 45.4309 60.249 45.1686C60.1548 44.0977 60.5126 43.1146 60.8852 42.1417C61.037 41.7455 61.3971 41.4474 61.7444 41.304C62.056 41.1753 62.3051 41.0388 62.494 40.7815C62.713 40.4833 62.9911 40.2709 63.3094 40.0829C64.1235 39.6023 64.9136 39.0811 65.7145 38.5793C66.3382 38.1885 66.9287 37.7304 67.4601 37.1966C67.955 36.6994 68.4843 36.2178 69.0457 35.803C69.7093 35.3128 70.3297 34.7781 70.9405 34.2321C71.4108 33.8117 71.8244 33.3279 72.2947 32.8397C70.8731 32.2487 69.4985 31.7368 68.0618 31.4053C67.1186 31.1026 66.1464 30.9289 65.1718 30.7731C62.97 30.4211 60.7602 30.2862 58.5414 30.6059C57.4975 30.7563 56.4863 31.0208 55.5739 31.5748C55.1685 31.8209 55.1731 31.829 55.281 32.2915C55.5118 33.2813 55.5036 34.2611 55.0413 35.1828C54.7945 35.675 54.6213 36.2344 54.11 36.5546C54.0969 36.5628 54.0916 36.5833 54.0827 36.5981C54.081 36.5843 54.0794 36.5705 54.0777 36.5567C54.7308 35.4036 55.0713 34.489 55.0098 33.6118C54.9779 33.1564 54.7912 32.758 54.6818 32.3322C54.4704 31.5094 54.0301 30.8113 53.4181 30.2366C51.6266 28.5542 49.49 27.965 47.1035 28.4493C44.5586 28.9658 43.1629 30.9795 42.9979 33.4114C42.8958 34.9161 43.5327 36.161 44.6142 37.1754C45.5916 38.0922 46.7647 38.6543 48.0657 38.9573C48.2175 39.0229 48.3664 39.1026 48.5415 39.0556ZM67.6909 18.7132C67.8201 19.2916 67.9494 19.87 68.0776 20.4441C68.2096 20.4202 68.2229 20.3635 68.2463 20.3121C68.6496 19.4252 69.0085 18.5142 69.4708 17.6589C69.9305 16.8084 70.0636 15.8923 70.1804 14.9689C70.2157 14.69 70.2513 14.37 70.0988 14.0893C69.8385 13.8011 69.6859 13.7771 69.2918 13.9647C69.0442 14.0825 68.8225 14.2775 68.5174 14.2224C68.6008 13.625 68.7932 13.0582 69.0112 12.4998C69.2075 11.9967 69.4067 11.4909 69.4937 10.9591C69.5914 10.3619 69.7991 9.76409 69.5971 9.14746C69.557 9.02153 69.4656 8.90628 69.3424 8.94235C69.1173 9.00828 68.8735 9.0204 68.6831 9.20719C68.2376 9.64428 67.7536 10.0431 67.3207 10.4918C66.9465 10.8796 66.5858 11.2837 66.3271 11.7703C66.1235 12.1534 65.9077 12.5024 66.2627 12.92C66.3581 13.0323 66.3692 13.2205 66.407 13.3768C66.8363 15.1553 67.2633 16.9343 67.6909 18.7132ZM35.2484 47.96C34.7016 47.7882 34.1359 47.778 33.571 47.771C31.2157 47.742 29.1236 48.4145 27.4375 50.1192C26.3094 51.2598 25.7016 52.6304 25.7833 54.2515C25.8141 54.8617 25.937 55.4134 26.4351 55.9196C27.68 57.1847 29.1362 58.0035 30.8465 58.4105C31.0002 58.4471 31.1505 58.5246 31.2863 58.4351C31.3008 57.6669 31.0673 56.958 30.9324 56.2317C30.8518 55.7974 30.825 55.3534 30.7584 54.9162C30.7307 54.7341 30.7519 54.5635 30.932 54.5198C31.1298 54.4718 31.2824 54.61 31.3499 54.7928C31.4117 54.9603 31.4666 55.141 31.471 55.3172C31.4959 56.3099 31.9231 57.2425 31.9012 58.2417C31.8996 58.3146 31.9611 58.3888 31.9933 58.4625C32.0104 58.497 32.0237 58.5593 32.045 58.5622C33.2673 58.7268 34.4424 58.5231 35.5895 58.1028C35.7441 58.0461 35.7986 57.9396 35.8036 57.7817C35.8232 57.1616 35.9425 56.543 35.8251 55.9213L35.8024 55.5445C35.8302 55.4897 35.8059 55.4581 35.7551 55.4383C35.7418 55.0368 35.6605 54.6468 35.5539 54.2612C35.5008 54.0691 35.4312 53.88 35.3967 53.6846C35.37 53.5331 35.3356 53.3395 35.5371 53.2769C35.7041 53.2249 35.7746 53.3767 35.8459 53.4988C36.1101 53.9508 36.2873 54.4339 36.371 54.9509C36.4279 55.3893 36.4887 55.8273 36.5405 56.2663C36.5932 56.7123 36.4573 57.159 36.4747 57.7058C38.0245 56.7384 39.0107 55.5064 39.2467 53.771C39.4887 51.9915 38.929 50.4283 37.8332 49.042C37.6366 48.7931 37.4137 48.5621 37.1487 48.3647C36.5681 47.9321 35.9186 47.9201 35.2484 47.96ZM64.4675 57.1103C65.4386 57.0004 66.354 56.69 67.2369 56.2928C67.8992 55.9948 68.4836 55.5948 68.9832 55.0329C69.6282 54.3074 70.1504 53.4924 70.7816 52.7593C71.3135 52.1415 71.2708 51.4302 71.0646 50.6786C70.9154 50.1344 70.5449 49.7381 70.2991 49.2624C70.1158 48.9074 69.8088 48.6863 69.5202 48.4373C69.3434 48.2846 69.1131 48.2847 68.9156 48.18C68.3677 47.8896 67.812 47.6161 67.2277 47.389C66.6185 47.1522 65.8246 47.319 65.4129 46.6192C65.4058 46.6072 65.3753 46.6081 65.3555 46.6044C64.7824 46.4984 64.2357 46.2674 63.6452 46.2435C62.1862 45.9714 60.7433 46.0529 59.3425 46.5322C57.8998 47.0258 56.8277 47.9508 56.2463 49.3945C55.9788 50.0586 55.8597 50.7463 55.8469 51.459C55.833 52.2318 55.9669 52.9844 56.1326 53.7333C56.2934 54.4598 56.6874 55.1225 56.7264 55.8834C56.7282 55.9176 56.7667 55.9522 56.7928 55.9826C57.1639 56.4155 57.603 56.7351 58.2174 56.8545C58.1002 56.091 58.1589 55.3656 58.1597 54.642C58.1605 53.8366 58.5099 53.1193 58.8279 52.4012C58.8831 52.2766 58.9921 52.1354 59.1579 52.2129C59.331 52.2938 59.4324 52.4232 59.3457 52.6515C59.2318 52.9515 59.1809 53.2759 59.0605 53.5727C58.7144 54.4257 58.8617 55.3224 58.8083 56.2002C58.7953 56.4134 58.8825 56.6346 58.9349 56.8494C58.9739 57.0095 59.0417 57.1387 59.2353 57.1832C60.0681 57.3745 60.9128 57.4111 61.762 57.4026C61.9523 57.4007 62.0232 57.2819 61.954 57.1235C61.7457 56.6464 61.8804 56.1695 61.9363 55.6946C62.0139 55.0355 62.0441 54.364 62.2773 53.7358C62.3636 53.5034 62.3656 53.062 62.7611 53.1867C63.1028 53.2944 62.9417 53.6562 62.8992 53.9232C62.7412 54.9155 62.5815 55.908 62.5484 56.9145C62.5339 57.3545 62.5921 57.4104 63.0362 57.3508C63.5154 57.2864 63.9906 57.1917 64.4675 57.1103ZM105.631 72.7851C105.871 72.4845 106.012 72.1276 106.176 71.7867C107.27 69.5207 107.938 67.1379 108.136 64.6253C108.304 62.4812 108.102 60.3711 107.541 58.2992C107.368 57.6623 107.205 57.0115 106.886 56.4021C106.728 56.519 106.687 56.6284 106.675 56.7521C106.377 57.2988 106.024 57.8093 105.64 58.2977C105.551 58.4112 105.477 58.5168 105.447 58.663C105.312 59.3165 104.922 59.8299 104.503 60.3238C104.418 60.4238 104.347 60.5935 104.168 60.4788C104.006 60.3756 103.788 60.3109 103.869 60.0282C103.919 59.856 103.95 59.6684 103.94 59.4906C103.852 58.0105 104.016 56.5328 103.95 55.0502C103.876 53.3789 103.78 51.7144 103.562 50.0541C103.149 46.8895 102.403 43.812 101.326 40.8057C100.315 37.9812 99.0122 35.313 97.2794 32.8611C95.729 30.6672 93.7879 28.9114 91.3732 27.7057C90.9858 27.5122 90.5944 27.3054 90.0748 27.2086C90.2233 27.8831 89.9721 28.4793 89.9705 29.1019C89.968 30.0852 89.8542 31.0688 89.6797 32.0261C89.4901 33.0667 89.145 34.0872 88.7043 35.061C88.4563 35.6091 88.1536 36.1334 87.9258 36.689C87.7721 37.0637 87.614 37.4381 87.3879 37.7652C86.8715 38.5121 86.4478 39.3133 85.9804 40.088C85.3927 41.0623 84.6036 41.8105 83.6334 42.3777C83.1602 42.6544 82.7023 42.9428 82.3283 43.3501C82.2475 43.438 82.1538 43.5217 82.0506 43.5801C80.9786 44.1868 80.1871 45.1031 79.3808 45.9999C79.1531 46.2531 78.991 46.5639 78.7757 46.8296C77.7971 48.0372 77.2191 49.4482 76.693 50.8864C76.5803 51.1945 76.6806 51.426 76.9546 51.5989C77.5116 51.9505 77.9518 52.4289 78.3047 52.9718C80.0648 55.6796 81.3015 58.5715 81.3607 61.8647C81.3599 62.0257 81.348 62.1874 81.3599 62.3474C81.5504 64.9211 81.6043 67.5007 81.6801 70.0787C81.764 72.938 81.7054 75.8009 81.8895 78.658C81.9012 78.8387 81.9258 79.0185 81.9444 79.1987C81.8941 81.3305 82.039 83.4565 82.0746 85.6478C82.557 85.4797 82.9717 85.6514 83.3968 85.63C84.6263 85.568 85.8485 85.4542 87.067 85.2699C90.4177 84.763 93.5602 83.6743 96.4926 81.9774C99.2479 80.3831 101.64 78.3592 103.617 75.867C104.379 74.9059 105.12 73.9169 105.631 72.7851ZM44.1079 5.73584C43.6009 4.10563 42.8769 2.59021 41.7662 1.22554C41.6066 1.52973 41.4732 1.77656 41.3466 2.02684C40.8016 3.10426 40.1588 4.12852 39.6467 5.22528C39.1353 6.32076 38.7346 7.46017 38.249 8.56446C37.9175 9.31837 37.5785 10.0691 37.3079 10.8463C37.177 11.2223 36.9473 11.6564 37.0983 12.0102C37.2838 12.445 37.1779 12.7944 37.0535 13.1683C36.8175 13.8775 36.4591 14.5347 36.1439 15.2102C35.5301 16.5255 35.131 17.9251 34.5583 19.2567C34.4559 19.4948 34.3931 19.7262 34.0796 19.8167C33.8818 19.8738 33.7322 20.0894 33.6849 20.3211C33.6524 20.4809 33.6069 20.631 33.522 20.7728C32.9955 21.6525 32.6922 22.631 32.32 23.5759C32.0797 24.186 31.8337 24.7968 31.6193 25.4203C31.1156 26.8845 30.5144 28.3151 29.9613 29.7626C29.7123 30.4143 29.4641 31.0679 29.3093 31.7657C29.4748 31.7501 29.5619 31.6641 29.6583 31.5964C30.5051 31.0017 31.4201 30.5334 32.3784 30.149C34.6357 29.2436 36.9681 28.9233 39.3859 29.2488C40.7019 29.426 41.9423 29.8239 43.0975 30.4767C43.314 30.5991 43.4426 30.6156 43.5679 30.3606C43.7836 29.922 44.1046 29.5594 44.4691 29.2333C44.8013 28.9361 45.1914 28.722 45.5543 28.4737C45.1188 27.5106 45.3586 26.572 45.6252 25.645C45.719 25.319 45.9816 25.2093 46.2899 25.2582C46.585 25.305 46.8241 25.6151 46.8486 26.0255C46.8811 26.569 46.9208 27.115 46.8335 27.6565C46.7917 27.9151 46.8955 27.9853 47.1282 27.9468C47.2079 27.9336 47.2888 27.9275 47.3684 27.9139C49.037 27.6276 50.6216 27.8901 52.1346 28.6346C52.2323 28.6826 52.324 28.8026 52.4729 28.6977C52.4835 28.4877 52.4857 28.2658 52.5076 28.0459C52.5616 27.5036 52.6233 26.9607 52.8558 26.4584C52.9826 26.1844 53.2002 25.9767 53.5075 25.9922C53.8331 26.0086 53.9412 26.3177 54.0633 26.5657C54.1349 26.711 54.117 26.8806 54.0947 27.0431C54.0424 27.423 53.9882 27.8028 53.9463 28.1839C53.8942 28.6584 53.7864 29.0976 53.2013 29.3391C54.0019 29.9068 54.5104 30.6227 54.9747 31.3893C56.4562 30.3954 58.0857 30.0869 59.7777 29.9788C61.8074 29.8491 63.8125 30.0363 65.8029 30.4163C66.6934 30.5863 67.5778 30.7881 68.465 30.9754C68.516 31.006 68.5633 31.0496 68.6185 31.0651C69.8036 31.3992 70.9703 31.7864 72.1082 32.2581C72.1837 32.2894 72.263 32.3031 72.3254 32.2113C72.2774 31.9209 72.2013 31.6361 72.0944 31.3509C71.8406 30.6738 71.5831 29.9929 71.4064 29.2935C71.1141 28.1366 70.6353 27.0446 70.18 25.9584C69.5368 24.4244 69.2021 22.8174 68.7615 21.2337C68.7304 21.1218 68.7593 20.9836 68.5928 20.9601C68.2518 21.2747 67.9445 21.284 67.6709 20.9877C67.6571 20.8883 67.6533 20.7863 67.628 20.6899C67.0821 18.6149 66.6303 16.5177 66.1466 14.4281C65.9479 13.5694 65.7396 12.7107 65.6911 11.825C66.1132 11.2124 66.3731 10.5006 66.8579 9.92553C66.9677 9.79539 66.9638 9.64863 66.9189 9.47459C66.8034 9.02798 66.6237 8.6092 66.4645 8.1796C66.0803 7.14315 65.7492 6.08661 65.3215 5.06519C64.9034 4.06685 64.6097 3.01357 64.0073 2.09668C63.9396 1.87648 63.8481 1.82799 63.6935 2.03931C63.3131 2.55915 62.9563 3.10025 62.5351 3.58519C61.8712 4.34955 61.2813 5.15254 60.7881 6.04195C59.9973 7.46817 59.1089 8.8406 58.3255 10.2706C57.4449 11.8778 56.5602 13.4816 55.6573 15.0764C55.2572 15.7831 54.7486 16.4675 54.6389 17.3173C54.6278 17.403 54.5754 17.4629 54.4887 17.4857C53.9527 17.6267 53.4545 17.9576 52.8693 17.8527C52.0422 17.7045 51.1984 17.6608 50.3777 17.5034C49.1276 17.2637 47.9057 17.2973 46.6811 17.6062C46.4214 17.0052 46.5545 16.6276 47.1444 16.381C47.4177 16.2667 47.7125 16.2038 48.0023 16.1162C47.9597 15.9058 47.7537 15.8178 47.6977 15.6052C47.3501 14.2866 46.8289 13.0232 46.4211 11.7237C45.8564 9.92384 44.9969 8.23464 44.4574 6.42587C44.3847 6.18237 44.2864 5.9343 44.1079 5.73584ZM25.3773 55.8882C25.1261 56.1117 25.029 56.3657 24.8275 56.5407C24.0589 57.2084 23.475 58.0245 22.9798 58.9068C22.0746 60.5196 21.3938 62.1821 21.5449 64.1005C21.7304 66.4548 21.6366 68.8176 21.663 71.1768C21.6703 71.8228 21.6793 72.4688 21.6756 73.1148C21.6744 73.318 21.7378 73.417 21.9515 73.4009C22.072 73.3918 22.1938 73.401 22.315 73.4008C25.2247 73.3948 28.1344 73.3892 31.0441 73.3825C32.2159 73.3797 33.3877 73.3725 34.5596 73.3726C34.7982 73.3727 34.9865 73.3751 34.9878 73.0381C34.993 71.7693 35.1525 70.504 35.1 69.2349C35.0866 68.9121 35.2618 68.7948 35.4783 68.6974C35.6583 68.6165 35.8634 68.5683 36.061 68.5536C37.3283 68.4592 38.5955 68.3465 39.8649 68.3017C41.0737 68.259 42.284 68.2663 43.4924 68.1854C44.7368 68.1021 45.9853 68.1244 47.2315 68.051C47.7265 68.0218 48.2152 67.8989 48.7207 67.9503C49.4093 68.0202 49.4033 68.017 49.4664 68.6822C49.5906 69.9904 49.5714 71.3017 49.5989 72.6123C49.6148 73.3657 49.621 73.371 50.4001 73.3701C55.6524 73.3643 60.9048 73.3531 66.1572 73.3557C66.4739 73.3558 66.6082 73.2755 66.5658 72.9545C66.5526 72.8552 66.5622 72.7528 66.5635 72.6518C66.6026 69.4623 66.483 66.2715 66.6374 63.0828C66.6441 62.9422 66.6374 62.8006 66.6306 62.6597C66.5983 61.9975 66.6097 61.3311 66.7507 60.687C67.0231 59.4422 67.4002 58.2244 67.8864 56.9587C67.1877 57.2971 66.5428 57.5622 65.8692 57.7545C63.9804 58.2937 62.0588 58.4372 60.1121 58.2166C58.9811 58.0885 57.8823 57.8333 56.9251 57.1678C56.4434 56.833 56.0878 56.4097 56.0204 55.8003C56.0094 55.7007 56.013 55.6045 55.9486 55.5144C55.3688 54.7037 55.2016 53.7486 55.0372 52.8017C54.9116 52.0788 54.9415 52.0735 54.2264 52.0645C54.1254 52.0632 54.0243 52.0637 53.9232 52.0637C49.5189 52.0658 45.1145 52.0678 40.7101 52.0704C40.2798 52.0706 40.2812 52.0724 40.3065 52.5697C40.4075 54.56 39.6508 56.1988 38.1891 57.505C36.8051 58.7419 35.1617 59.4152 33.2978 59.4923C31.0237 59.5863 28.9433 59.0176 27.1098 57.6315C26.4621 57.1419 25.9279 56.5409 25.3773 55.8882ZM21.6909 92.5789C21.9241 92.5128 22.0955 92.4982 22.2749 92.4976C24.9363 92.4894 27.5978 92.4721 30.2593 92.4551C33.6481 92.4335 37.0369 92.407 40.4258 92.3885C44.5759 92.3658 48.7261 92.35 52.8762 92.3295C55.3095 92.3175 57.7427 92.3006 60.176 92.2889C62.2138 92.2791 64.2516 92.2745 66.2894 92.2654C66.7029 92.2636 66.7298 92.2349 66.7202 91.8231C66.7141 91.5613 66.6876 91.2997 66.6862 91.0379C66.67 88.0109 66.6571 84.9839 66.6425 81.9569C66.64 81.4324 66.6272 80.9078 66.6328 80.3834C66.6347 80.2024 66.5733 80.1213 66.3926 80.13C66.2917 80.1349 66.1906 80.1351 66.0895 80.1352C62.1323 80.1377 58.1751 80.1406 54.2179 80.142C52.8046 80.1425 51.3914 80.1429 49.9781 80.1354C49.702 80.1339 49.5156 80.1668 49.5446 80.5213C49.6037 81.2441 49.4389 81.9593 49.437 82.6808C49.4351 83.3658 49.2564 83.5793 48.5776 83.4193C48.0397 83.2925 47.513 83.3519 46.9868 83.3321C45.073 83.2599 43.1563 83.2668 41.2418 83.2089C39.8321 83.1662 38.4204 83.2291 37.0117 83.1041C36.5116 83.0597 35.9978 83.0536 35.5011 83.116C34.9222 83.1888 34.7867 83.1254 34.7813 82.5401C34.774 81.7578 34.7795 80.9754 34.7795 80.1261C34.5091 80.1261 34.2098 80.1273 33.9106 80.1259C30.9208 80.1123 27.931 80.0992 24.9412 80.0838C23.9925 80.0789 23.0437 80.0746 22.0952 80.0554C21.8178 80.0498 21.6721 80.1341 21.6937 80.4279C21.6996 80.508 21.6942 80.5889 21.6942 80.6695C21.6931 83.792 21.6919 86.9146 21.6909 90.0371C21.6906 90.8618 21.6909 91.6864 21.6909 92.5789ZM67.4035 73.3292C68.2334 72.9984 68.9396 72.7146 69.6476 72.4352C73.1727 71.0443 76.7005 69.6601 80.2215 68.2589C80.8036 68.0273 80.7565 68.1721 80.7526 67.488C80.743 65.793 80.6991 64.0975 80.7284 62.4032C80.7447 61.4641 80.5867 60.5588 80.3998 59.6532C80.0541 57.979 79.3445 56.4441 78.5389 54.9499C78.1082 54.1508 77.6672 53.3538 77.0661 52.6676C76.6521 52.1949 76.185 51.7815 75.4792 51.8423C75.4042 51.8488 75.3233 51.806 75.2474 51.7795C74.973 51.6837 74.7094 51.7138 74.4207 51.7566C73.917 51.8314 73.4541 52.0141 72.9731 52.1514C72.5005 52.2864 72.0894 52.4904 71.7489 52.8517C70.9321 53.7186 70.2647 54.7062 69.4965 55.6125C69.238 55.9175 69.0411 56.2744 68.9094 56.6616C68.5472 57.7267 68.1408 58.7785 67.8209 59.856C67.4237 61.1938 67.1988 62.5629 67.2733 63.9716C67.3755 65.9046 67.3831 67.8405 67.4015 69.7756C67.4124 70.9226 67.4035 72.0697 67.4035 73.3292ZM80.9343 75.0637C80.7237 75.1292 80.6078 75.1587 80.4966 75.2006C76.2736 76.7948 72.0532 78.3957 67.8248 79.9752C67.456 80.113 67.4096 80.3231 67.4101 80.6534C67.4161 84.0842 67.413 87.5151 67.4064 90.9459C67.4059 91.2316 67.4479 91.5087 67.4999 91.7855C67.5943 92.288 67.5985 92.2868 68.127 92.2864C69.8236 92.2849 71.5201 92.2836 73.2167 92.2826C75.7404 92.2811 78.264 92.2816 80.7877 92.2771C81.2824 92.2762 81.3526 92.2014 81.2888 91.7229C81.2542 91.464 81.2111 91.2104 81.2039 90.9458C81.1595 89.3166 81.2433 87.6888 81.174 86.0569C81.0552 83.2594 81.0486 80.4571 80.9934 77.6568C80.9768 76.815 80.9552 75.9733 80.9343 75.0637ZM48.7905 68.4629C48.504 68.4629 48.4969 68.8449 48.268 68.7734C47.9537 68.6752 47.6779 68.7979 47.3851 68.8339C45.8014 69.0291 44.2048 69.0587 42.615 69.1012C40.7996 69.1498 38.9836 69.234 37.1664 69.2281C36.9446 69.2273 36.7222 69.2473 36.501 69.2672C35.7747 69.3324 35.5684 69.5338 35.5957 70.2559C35.6407 71.442 35.5321 72.6246 35.5776 73.8131C35.6386 75.4048 35.6006 77.0012 35.5709 78.5949C35.5503 79.6967 35.3645 80.7934 35.4508 81.9C35.4571 81.9801 35.4486 82.0614 35.4468 82.1422C35.4409 82.4044 35.5621 82.5291 35.819 82.4378C36.1733 82.3119 36.5386 82.343 36.899 82.3396C37.8079 82.3312 38.7176 82.3253 39.6259 82.3535C41.0985 82.3993 42.5716 82.3438 44.0448 82.418C45.2541 82.4789 46.4683 82.3874 47.6792 82.4708C47.982 82.4917 48.3049 82.2742 48.5772 82.6152C48.7483 81.3412 48.924 69.362 48.7905 68.4629ZM66.6474 79.4319C66.5216 77.6068 66.6232 75.8387 66.5437 74.0877C65.1644 74.0877 63.8528 74.0891 62.5413 74.0874C58.4423 74.0821 54.3434 74.0751 50.2444 74.0703C49.6067 74.0695 49.5901 74.073 49.5824 74.6866C49.5641 76.1383 49.573 77.5904 49.5479 79.0419C49.542 79.3844 49.6799 79.4358 49.9759 79.4307C50.8636 79.4154 51.7519 79.4277 52.6399 79.428C56.3752 79.4296 60.1105 79.4307 63.8459 79.4319C64.7704 79.4322 65.695 79.4319 66.6474 79.4319ZM80.7256 68.6389C80.5642 68.6981 80.4711 68.7299 80.3796 68.7661C76.1975 70.4206 72.0168 72.0787 67.831 73.7237C67.5229 73.8448 67.3992 73.9886 67.4038 74.3347C67.4249 75.9088 67.4118 77.4834 67.417 79.0578C67.4175 79.2083 67.3666 79.3728 67.4798 79.5322C67.651 79.4572 67.8095 79.3794 67.9739 79.317C70.8395 78.2288 73.7051 77.1406 76.5723 76.0565C77.8739 75.5643 79.1757 75.072 80.4848 74.6003C80.7814 74.4934 80.903 74.3431 80.8804 74.0298C80.8557 73.6884 80.881 73.3436 80.8676 73.001C80.8115 71.5726 80.8987 70.1391 80.7256 68.6389ZM28.3523 74.0685L28.3524 74.023C26.2731 74.023 24.1939 74.0213 22.1146 74.0245C21.6971 74.0251 21.6891 74.0337 21.6891 74.4562C21.6889 75.988 21.6925 77.5198 21.6997 79.0515C21.7016 79.4454 21.7502 79.491 22.1574 79.4892C24.7007 79.478 27.2441 79.4621 29.7875 79.4501C31.3626 79.4427 32.9378 79.4352 34.5129 79.4384C34.7753 79.4389 34.9165 79.4 34.9195 79.0838C34.9333 77.5917 34.9702 76.0997 34.9981 74.6077C35 74.5069 34.9944 74.4059 34.9943 74.305C34.994 74.1591 34.9197 74.0811 34.7763 74.0761C34.5947 74.0698 34.4128 74.0688 34.231 74.0688C32.2715 74.0683 30.3119 74.0685 28.3523 74.0685ZM34.1619 18.7561C34.7906 17.0672 35.3466 15.4545 36.1083 13.9249C36.2785 13.583 36.3975 13.2137 36.5867 12.8837C36.8055 12.5021 36.6249 12.2211 36.3856 11.9859C35.8254 11.4355 35.372 10.8364 35.1573 10.0617C35.0683 9.74037 34.9827 9.38661 34.7035 9.13138C34.2898 9.72583 34.2984 9.7258 34.3005 10.3264C34.3042 11.3937 34.4054 12.4444 34.7567 13.4614C34.8483 13.7266 34.9026 14.0044 34.9827 14.2738C35.0926 14.6432 34.6909 14.703 34.5672 14.9354C34.4949 15.0714 34.2601 14.9877 34.0926 14.8613C33.7861 14.63 33.4475 14.4409 33.1323 14.2406C32.711 15.9205 33.1559 17.3575 34.1619 18.7561ZM64.9128 45.7202C63.7158 44.6753 62.8143 43.3738 61.6192 42.2531C61.3776 43.3163 61.2381 44.3169 60.9265 45.3391C62.3199 45.2421 63.6151 45.4223 64.9128 45.7202Z" fill="#090707"/>
<path d="M25.3773 55.8882C25.9279 56.5408 26.4621 57.1419 27.1098 57.6315C28.9433 59.0176 31.0237 59.5863 33.2978 59.4922C35.1617 59.4151 36.8051 58.7418 38.1891 57.505C39.6508 56.1988 40.4075 54.56 40.3065 52.5697C40.2812 52.0724 40.2798 52.0706 40.7101 52.0703C45.1145 52.0677 49.5189 52.0658 53.9232 52.0637C54.0243 52.0637 54.1254 52.0632 54.2264 52.0645C54.9414 52.0735 54.9116 52.0788 55.0371 52.8017C55.2016 53.7486 55.3688 54.7037 55.9485 55.5144C56.013 55.6045 56.0093 55.7007 56.0203 55.8002C56.0878 56.4097 56.4434 56.833 56.925 57.1678C57.8823 57.8333 58.9811 58.0885 60.1121 58.2166C62.0588 58.4372 63.9804 58.2937 65.8691 57.7545C66.5428 57.5622 67.1877 57.2971 67.8864 56.9587C67.4002 58.2244 67.0231 59.4422 66.7506 60.6869C66.6097 61.3311 66.5983 61.9975 66.6306 62.6597C66.6374 62.8005 66.6441 62.9422 66.6373 63.0828C66.4829 66.2715 66.6025 69.4623 66.5634 72.6518C66.5622 72.7528 66.5526 72.8552 66.5657 72.9545C66.6082 73.2754 66.4739 73.3558 66.1572 73.3556C60.9048 73.3531 55.6524 73.3643 50.4001 73.3701C49.621 73.371 49.6148 73.3657 49.5989 72.6123C49.5713 71.3017 49.5906 69.9904 49.4664 68.6822C49.4032 68.017 49.4092 68.0202 48.7207 67.9502C48.2152 67.8989 47.7265 68.0218 47.2315 68.051C45.9852 68.1244 44.7367 68.1021 43.4924 68.1854C42.284 68.2663 41.0737 68.259 39.8648 68.3016C38.5955 68.3464 37.3283 68.4592 36.061 68.5535C35.8634 68.5682 35.6583 68.6165 35.4783 68.6974C35.2618 68.7947 35.0866 68.9121 35.0999 69.2348C35.1525 70.504 34.9929 71.7693 34.9878 73.038C34.9865 73.3751 34.7982 73.3726 34.5595 73.3726C33.3877 73.3724 32.2159 73.3797 31.0441 73.3824C28.1344 73.3891 25.2247 73.3948 22.315 73.4007C22.1938 73.401 22.072 73.3918 21.9515 73.4009C21.7377 73.417 21.6744 73.3179 21.6755 73.1147C21.6793 72.4688 21.6702 71.8227 21.663 71.1768C21.6365 68.8176 21.7304 66.4548 21.5449 64.1005C21.3938 62.1821 22.0746 60.5196 22.9797 58.9068C23.4749 58.0245 24.0589 57.2084 24.8275 56.5407C25.029 56.3656 25.1261 56.1117 25.3773 55.8882Z" fill="#DED9FE"/>
<path d="M46.6811 17.6061C47.9057 17.2972 49.1276 17.2636 50.3777 17.5033C51.1984 17.6607 52.0423 17.7044 52.8693 17.8527C53.4545 17.9575 53.9527 17.6266 54.4887 17.4857C54.5754 17.4628 54.6279 17.4029 54.6389 17.3173C54.7486 16.4674 55.2572 15.783 55.6573 15.0763C56.5603 13.4815 57.4449 11.8777 58.3255 10.2705C59.1089 8.84052 59.9973 7.4681 60.7881 6.04187C61.2813 5.15246 61.8713 4.34947 62.5351 3.58511C62.9564 3.10018 63.3132 2.55908 63.6935 2.03924C63.8481 1.82791 63.9396 1.8764 64.0073 2.09663C63.9661 2.32331 64.0331 2.53111 64.105 2.74286C64.4207 3.67244 64.7296 4.60428 65.0393 5.53587C65.0961 5.70705 65.1796 5.87848 65.1919 6.05391C65.2714 7.1911 65.537 8.31456 65.4572 9.46304C65.4067 10.1882 65.6336 10.8957 65.5838 11.6209C65.5793 11.6862 65.6535 11.7568 65.6911 11.825C65.7396 12.7107 65.9479 13.5693 66.1467 14.4281C66.6303 16.5177 67.0821 18.6149 67.628 20.6898C67.6533 20.7862 67.6571 20.8883 67.6709 20.9876C67.5136 21.2226 67.5 21.4456 67.6142 21.7238C67.7806 22.1293 67.8982 22.5591 67.9957 22.9878C68.1925 23.8531 68.0624 24.7515 68.2384 25.6211C68.3829 26.3357 68.292 27.0706 68.3876 27.7817C68.5312 28.8492 68.469 29.9105 68.465 30.9754C67.5779 30.788 66.6935 30.5862 65.803 30.4162C63.8125 30.0362 61.8074 29.849 59.7778 29.9787C58.0857 30.0868 56.4562 30.3954 54.9747 31.3893C54.5104 30.6226 54.0019 29.9067 53.2013 29.339C53.7864 29.0975 53.8943 28.6583 53.9463 28.1838C53.9882 27.8027 54.0424 27.4229 54.0947 27.043C54.117 26.8805 54.1349 26.7109 54.0633 26.5656C53.9413 26.3176 53.8332 26.0086 53.5075 25.9922C53.2002 25.9767 52.9827 26.1843 52.8558 26.4584C52.6233 26.9606 52.5616 27.5035 52.5076 28.0458C52.4857 28.2657 52.4835 28.4876 52.4729 28.6976C52.324 28.8025 52.2323 28.6826 52.1346 28.6345C50.6216 27.89 49.037 27.6276 47.3684 27.9138C47.2888 27.9274 47.2079 27.9336 47.1282 27.9467C46.8955 27.9852 46.7918 27.9151 46.8335 27.6564C46.9208 27.1149 46.8811 26.5689 46.8486 26.0254C46.8241 25.615 46.585 25.305 46.2899 25.2582C45.9816 25.2093 45.719 25.3189 45.6252 25.645C45.3586 26.5719 45.1188 27.5105 45.5543 28.4736C45.1914 28.7219 44.8014 28.9361 44.4691 29.2333C44.1047 29.5593 43.7836 29.9219 43.5679 30.3606C43.4426 30.6155 43.314 30.599 43.0975 30.4766C41.9423 29.8238 40.7019 29.4259 39.3859 29.2487C36.9681 28.9233 34.6357 29.2435 32.3784 30.1489C31.4201 30.5333 30.5052 31.0016 29.6583 31.5964C29.5619 31.664 29.4748 31.7501 29.3093 31.7656C29.4641 31.0679 29.7123 30.4143 29.9613 29.7625C30.5144 28.315 31.1156 26.8844 31.6193 25.4202C31.8338 24.7967 32.0798 24.1859 32.32 23.5759C32.6922 22.6309 32.9955 21.6524 33.5221 20.7727C33.6069 20.6309 33.6524 20.4808 33.685 20.3211C33.7322 20.0893 33.8818 19.8737 34.0796 19.8166C34.3931 19.7261 34.4559 19.4947 34.5583 19.2566C35.1311 17.925 35.5301 16.5254 36.1439 15.2101C36.4592 14.5347 36.8175 13.8775 37.0535 13.1682C37.1779 12.7943 37.2838 12.445 37.0983 12.0102C36.9473 11.6564 37.177 11.2223 37.3079 10.8462C37.5785 10.069 37.9175 9.31829 38.249 8.56438C38.7346 7.46009 39.1353 6.32068 39.6467 5.2252C40.1588 4.12845 40.8016 3.10418 41.3466 2.02676C41.4732 1.77649 41.6066 1.52965 41.7662 1.22546C42.877 2.59013 43.6009 4.10555 44.1079 5.73582C43.9912 6.08452 43.9223 6.45169 43.9954 6.80591C44.1819 7.70906 44.2819 8.62366 44.4191 9.53344C44.5595 10.4649 44.6532 11.4006 44.6995 12.3396C44.7322 13.0033 44.7421 13.6723 44.6967 14.3345C44.6394 15.1695 44.5999 16.0162 44.2238 16.7941C44.1729 16.8993 44.067 17.071 44.1829 17.1183C44.5149 17.2539 44.6329 17.7094 45.1104 17.646C45.6266 17.5775 46.1569 17.6149 46.6811 17.6061Z" fill="#FEA849"/>
<path d="M81.3607 61.8647C81.3015 58.5715 80.0648 55.6796 78.3047 52.9718C77.9518 52.4289 77.5116 51.9505 76.9547 51.5989C76.6807 51.4259 76.5804 51.1944 76.6931 50.8863C77.2191 49.4481 77.7971 48.0372 78.7757 46.8295C78.991 46.5638 79.1532 46.253 79.3808 45.9998C80.1871 45.1031 80.9787 44.1868 82.0506 43.5801C82.1538 43.5217 82.2476 43.438 82.3283 43.3501C82.7023 42.9428 83.1602 42.6544 83.6334 42.3777C84.6037 41.8105 85.3927 41.0622 85.9804 40.088C86.4478 39.3133 86.8716 38.5121 87.3879 37.7651C87.614 37.4381 87.7721 37.0637 87.9258 36.689C88.1536 36.1334 88.4564 35.609 88.7043 35.061C89.145 34.0872 89.4901 33.0666 89.6797 32.026C89.8542 31.0687 89.968 30.0851 89.9705 29.1018C89.9721 28.4793 90.2233 27.8831 90.0748 27.2086C90.5944 27.3053 90.9858 27.5121 91.3732 27.7056C93.788 28.9114 95.729 30.6671 97.2794 32.861C99.0122 35.313 100.315 37.9811 101.326 40.8057C102.403 43.812 103.149 46.8894 103.563 50.0541C103.78 51.7144 103.876 53.3789 103.95 55.0501C104.016 56.5328 103.852 58.0104 103.94 59.4906C103.95 59.6683 103.919 59.856 103.869 60.0282C103.788 60.3108 104.006 60.3755 104.168 60.4787C104.347 60.5934 104.418 60.4238 104.503 60.3238C104.922 59.8299 105.312 59.3164 105.447 58.6629C105.477 58.5167 105.551 58.4111 105.64 58.2976C106.024 57.8092 106.377 57.2988 106.675 56.7521C106.981 57.0454 107.021 57.4633 107.18 57.8256C107.485 58.5227 107.408 59.283 107.533 60.0103C107.63 60.5791 107.512 61.1622 107.519 61.7407C107.525 62.1678 107.322 62.5899 107.252 63.027C107.189 63.4195 107.161 63.8164 107.051 64.2083C106.736 65.3313 106.259 66.3971 105.932 67.5139C105.794 67.9841 105.54 68.3867 105.247 68.7702C105.07 68.4403 105.148 68.0646 105.042 67.7123C104.734 66.6855 104.325 65.7012 103.887 64.7283C103.631 64.1605 103.442 63.5571 103.057 63.0519C102.76 62.6613 102.704 62.6462 102.373 62.9948C101.981 63.4081 101.54 63.7606 101.071 64.0757C100.72 64.3111 100.356 64.5334 99.977 64.7182C99.6518 64.8766 99.5418 64.7872 99.5341 64.4351C99.5323 64.3545 99.5426 64.2738 99.5424 64.1931C99.5398 63.0121 99.8166 61.8435 99.6619 60.6518C99.6078 60.2359 99.605 59.8119 99.514 59.3971C99.3976 58.8668 99.2825 58.3358 99.1874 57.8015C98.9047 56.214 98.3153 54.7471 97.4657 53.3815C97.3782 53.2411 97.3016 53.0616 97.0084 53.0472C97.077 53.9554 96.6899 54.7113 96.3617 55.4849C96.3381 55.5406 96.3062 55.595 96.2941 55.6532C96.0809 56.687 95.5562 57.6096 95.2387 58.6063C95.121 58.976 94.9112 59.2952 94.6429 59.5772C94.2492 59.991 93.932 60.46 93.745 60.9989C93.6498 61.2732 93.4976 61.5 93.341 61.7355C92.548 62.928 91.6122 64.0142 90.7859 65.1821C90.4306 65.6842 90.0327 66.1576 89.5157 66.533C89.4384 66.3543 89.4718 66.2109 89.4934 66.0769C89.7493 64.4833 89.7653 62.8722 89.8435 61.2662C89.8679 60.7635 89.8086 60.257 89.8284 59.7538C89.847 59.2798 89.7604 58.8334 89.6108 58.3906C89.4966 58.0524 89.4784 58.0366 89.1604 58.23C88.3346 58.7321 87.5424 59.2994 86.6825 59.7334C85.5146 60.3229 84.3024 60.8298 83.0635 61.2577C82.4937 61.4545 81.8991 61.5795 81.3607 61.8647Z" fill="#FEEEE1"/>
<path d="M21.6908 92.5789C21.6908 91.6864 21.6906 90.8618 21.6909 90.0371C21.6919 86.9146 21.693 83.792 21.6941 80.6695C21.6942 80.5889 21.6996 80.508 21.6937 80.4279C21.6721 80.1341 21.8178 80.0498 22.0952 80.0554C23.0436 80.0746 23.9924 80.0789 24.9411 80.0838C27.9309 80.0992 30.9207 80.1123 33.9106 80.1259C34.2098 80.1273 34.509 80.1261 34.7794 80.1261C34.7794 80.9754 34.774 81.7578 34.7812 82.5401C34.7866 83.1253 34.9222 83.1888 35.5011 83.116C35.9978 83.0536 36.5116 83.0597 37.0117 83.1041C38.4203 83.2291 39.832 83.1662 41.2418 83.2088C43.1563 83.2668 45.073 83.2599 46.9868 83.3321C47.5129 83.3519 48.0397 83.2925 48.5775 83.4193C49.2564 83.5793 49.4351 83.3658 49.437 82.6808C49.4389 81.9593 49.6037 81.2441 49.5446 80.5213C49.5156 80.1668 49.7019 80.1339 49.9781 80.1354C51.3913 80.1429 52.8046 80.1425 54.2179 80.142C58.1751 80.1406 62.1323 80.1377 66.0895 80.1352C66.1905 80.1351 66.2917 80.1349 66.3926 80.13C66.5733 80.1213 66.6347 80.2024 66.6328 80.3834C66.6272 80.9078 66.64 81.4324 66.6425 81.9569C66.6571 84.9839 66.67 88.0109 66.6862 91.0379C66.6876 91.2997 66.7141 91.5613 66.7202 91.8231C66.7297 92.2349 66.7029 92.2636 66.2893 92.2654C64.2515 92.2745 62.2137 92.2791 60.176 92.2889C57.7427 92.3006 55.3094 92.3175 52.8762 92.3295C48.726 92.35 44.5759 92.3658 40.4257 92.3885C37.0369 92.407 33.6481 92.4335 30.2592 92.4551C27.5978 92.4721 24.9363 92.4893 22.2748 92.4976C22.0955 92.4982 21.9241 92.5128 21.6908 92.5789Z" fill="#DED9FE"/>
<path d="M54.983 50.7172C54.9544 51.3216 54.9544 51.3155 54.3207 51.3172C50.085 51.3285 45.8491 51.2806 41.6136 51.3599C41.191 51.3678 40.7671 51.3824 40.347 51.4254C40.0992 51.4508 40.0935 51.2983 40.0629 51.1412C40.08 50.7237 40.0968 50.3056 40.1137 49.8875C40.592 49.8916 40.5846 49.8913 40.6008 49.4791C40.6136 49.1545 40.5781 48.8387 40.5252 48.5182C40.2335 46.751 40.0846 44.972 40.1246 43.1793C40.1314 42.8754 40.1264 42.5769 39.8881 42.3355C39.7169 42.1621 39.4913 42.0236 39.5992 41.6936C39.6582 41.5133 39.4315 41.4381 39.2992 41.3626C38.1797 40.7236 37.1519 39.9625 36.1771 39.1195C34.885 38.002 33.6269 36.8462 32.318 35.7472C31.8135 35.3235 31.4104 34.7808 30.9479 34.3052C30.4742 33.818 29.9839 33.3468 29.5018 32.8677C29.3883 32.755 29.1819 32.7768 29.1055 32.5141C33.4878 29.3639 38.1586 28.6314 43.2011 30.9422C43.2504 31.0129 43.1872 31.0745 43.148 31.1415C41.9598 33.1699 42.4096 35.4507 43.8467 37.0773C45.1843 38.5913 46.8896 39.3533 48.8997 39.4535C49.5673 39.4867 50.2302 39.4452 50.8869 39.3168C51.4026 39.2541 51.8928 39.1334 52.2575 38.7116C51.4615 38.9573 50.6573 39.1191 49.8241 39.0972C49.4411 39.0871 49.0581 39.0809 48.6751 39.073C48.6305 39.0672 48.586 39.0614 48.5423 39.0557C48.4036 38.9279 48.2355 38.9386 48.0657 38.9572C46.7646 38.6543 45.5916 38.0922 44.6142 37.1754C43.5326 36.161 42.8957 34.9161 42.9979 33.4114C43.1629 30.9795 44.5585 28.9658 47.1035 28.4493C49.49 27.965 51.6265 28.5542 53.4181 30.2366C54.0301 30.8113 54.4704 31.5094 54.6818 32.3322C54.7912 32.758 54.9779 33.1564 55.0098 33.6118C55.0712 34.489 54.7308 35.4036 54.0777 36.5567C54.0793 36.5705 54.081 36.5843 54.0827 36.5981C54.0916 36.5833 54.0969 36.5628 54.1099 36.5546C54.6213 36.2344 54.7944 35.675 55.0413 35.1828C55.5036 34.2611 55.5117 33.2813 55.2809 32.2915C55.1731 31.829 55.1685 31.8208 55.5739 31.5748C56.4863 31.0208 57.4974 30.7563 58.5414 30.6059C60.7601 30.2862 62.97 30.421 65.1718 30.7731C66.1464 30.9289 67.1186 31.1026 68.0614 31.4051C67.9368 31.8104 67.6826 32.1575 67.5362 32.5503C67.3704 32.9952 67.1147 33.3703 66.7814 33.6997C66.1801 34.2939 65.6123 34.9279 64.9185 35.4173C64.3422 35.8237 63.8852 36.3634 63.2791 36.7437C61.9358 37.5864 60.5854 38.4306 59.3258 39.3895C58.2888 40.179 57.3036 41.0399 56.2423 41.8026C56.1101 41.8977 56.0227 42.0348 55.9566 42.1862C55.3167 43.6513 54.8641 45.1584 54.8944 46.7788C54.8996 47.0594 54.8902 47.3425 54.8592 47.6213C54.7439 48.6603 54.6875 49.6953 54.983 50.7172ZM45.1564 31.7601C45.1606 32.3808 45.453 32.7259 45.8383 33.0103C46.2502 33.3144 46.7209 33.4835 47.2182 33.5922C48.4417 33.8598 49.6664 33.7418 50.8842 33.5763C51.6606 33.4709 52.4167 33.2565 53.1396 32.9384C53.3635 32.8398 53.5734 32.7237 53.7524 32.5625C53.8775 32.4499 53.8475 32.3004 53.748 32.1833C53.6956 32.1216 53.6192 32.138 53.5364 32.1848C52.5924 32.7184 51.5642 32.9767 50.4913 33.0282C49.6884 33.0667 48.8819 33.0511 48.0775 33.033C46.97 33.0082 45.9851 32.665 45.1564 31.7601ZM48.7181 28.626C48.4577 28.6532 48.1964 28.6723 47.9377 28.7097C47.6033 28.7579 47.2334 29.3386 47.4029 29.6124C47.6544 30.0187 47.9041 30.4426 48.3209 30.7174C48.4555 30.8061 48.595 30.8903 48.769 30.8649C49.5909 30.745 50.2303 30.3213 50.7254 29.6715C50.8709 29.4807 50.8334 29.3133 50.6121 29.1729C50.0319 28.805 49.379 28.711 48.7181 28.626Z" fill="#FEEEE1"/>
<path d="M81.3607 61.8646C81.899 61.5794 82.4936 61.4544 83.0634 61.2576C84.3024 60.8297 85.5146 60.3228 86.6825 59.7333C87.5423 59.2993 88.3346 58.7321 89.1604 58.2299C89.4784 58.0365 89.4965 58.0523 89.6108 58.3905C89.7604 58.8333 89.8469 59.2798 89.8283 59.7537C89.8086 60.2569 89.8679 60.7635 89.8434 61.2662C89.7653 62.8722 89.7493 64.4832 89.4933 66.0768C89.4718 66.2108 89.4384 66.3543 89.5156 66.5329C90.0327 66.1575 90.4305 65.6841 90.7858 65.182C91.6122 64.0141 92.548 62.9279 93.341 61.7354C93.4976 61.4999 93.6497 61.2731 93.7449 60.9989C93.932 60.4599 94.2491 59.9909 94.6428 59.5771C94.9112 59.2951 95.1209 58.976 95.2387 58.6062C95.5561 57.6095 96.0808 56.6869 96.2941 55.6532C96.3061 55.5949 96.3381 55.5406 96.3617 55.4848C96.6899 54.7113 97.077 53.9553 97.0083 53.0471C97.3015 53.0615 97.3782 53.241 97.4656 53.3815C98.3152 54.747 98.9046 56.2139 99.1873 57.8014C99.2825 58.3358 99.3976 58.8668 99.5139 59.397C99.6049 59.8118 99.6078 60.2359 99.6618 60.6517C99.8166 61.8435 99.5397 63.0121 99.5424 64.193C99.5426 64.2737 99.5323 64.3544 99.5341 64.435C99.5417 64.7871 99.6518 64.8765 99.977 64.7181C100.356 64.5334 100.72 64.311 101.071 64.0756C101.54 63.7605 101.981 63.4081 102.373 62.9947C102.704 62.6461 102.76 62.6612 103.057 63.0518C103.442 63.557 103.631 64.1604 103.887 64.7283C104.325 65.7012 104.734 66.6854 105.042 67.7122C105.148 68.0646 105.07 68.4403 105.247 68.7701C105.205 68.8124 105.163 68.8547 105.122 68.897C105.054 68.9475 105.032 69.0211 105.003 69.098C104.711 69.8708 104.321 70.5913 103.806 71.2393C103.344 71.8207 102.87 72.3931 102.406 72.9733C101.689 73.8703 100.963 74.7656 99.9797 75.3838C99.5506 75.6535 99.1589 75.9627 98.7713 76.2788C98.4259 76.5604 98.0693 76.8297 97.6756 77.0239C96.8957 77.4087 96.1942 77.9159 95.4526 78.3596C94.5338 78.9093 93.5583 79.3526 92.5271 79.6391C92.1753 79.7368 91.8235 79.8054 91.522 80.0145C91.232 80.2156 90.8897 80.343 90.5686 80.3682C90.0167 80.4114 89.5111 80.6046 88.9813 80.7114C88.883 80.7312 88.7845 80.7668 88.6862 80.7668C87.0388 80.7663 85.3917 80.8779 83.7721 80.3743C83.0265 80.1425 82.4062 79.8206 81.9444 79.1986C81.9258 79.0184 81.9012 78.8385 81.8895 78.6579C81.7054 75.8008 81.764 72.9379 81.6801 70.0786C81.6043 67.5006 81.5503 64.9209 81.3598 62.3473C81.348 62.1873 81.3598 62.0256 81.3607 61.8646Z" fill="#FEA849"/>
<path d="M67.4035 73.3292C67.4035 72.0697 67.4124 70.9226 67.4015 69.7757C67.3831 67.8405 67.3755 65.9046 67.2733 63.9716C67.1988 62.5629 67.4237 61.1938 67.8209 59.8561C68.1408 58.7785 68.5472 57.7267 68.9094 56.6616C69.0411 56.2744 69.2379 55.9175 69.4965 55.6125C70.2647 54.7062 70.9321 53.7186 71.7489 52.8517C72.0893 52.4904 72.5005 52.2864 72.9731 52.1514C73.4541 52.0141 73.917 51.8314 74.4207 51.7566C74.7094 51.7138 74.973 51.6837 75.2474 51.7796C75.3232 51.8061 75.4042 51.8488 75.4792 51.8423C76.185 51.7815 76.6521 52.1949 77.0661 52.6676C77.6672 53.3538 78.1082 54.1508 78.5389 54.9499C79.3445 56.4441 80.0541 57.979 80.3998 59.6533C80.5867 60.5588 80.7446 61.4641 80.7284 62.4032C80.6991 64.0975 80.7429 65.793 80.7526 67.488C80.7565 68.1721 80.8036 68.0273 80.2215 68.259C76.7004 69.6601 73.1727 71.0443 69.6476 72.4352C68.9396 72.7146 68.2334 72.9985 67.4035 73.3292Z" fill="#949EE3"/>
<path d="M80.9343 75.0637C80.9551 75.9732 80.9767 76.815 80.9933 77.6568C81.0485 80.4571 81.0551 83.2594 81.174 86.0569C81.2433 87.6887 81.1594 89.3165 81.2039 90.9457C81.2111 91.2104 81.2542 91.464 81.2887 91.7229C81.3526 92.2014 81.2824 92.2762 80.7877 92.2771C78.264 92.2816 75.7403 92.2811 73.2167 92.2826C71.5201 92.2836 69.8235 92.2849 68.127 92.2864C67.5985 92.2868 67.5942 92.288 67.4998 91.7855C67.4478 91.5087 67.4058 91.2315 67.4064 90.9459C67.413 87.515 67.416 84.0842 67.4101 80.6533C67.4095 80.3231 67.4559 80.113 67.8247 79.9752C72.0531 78.3957 76.2736 76.7948 80.4965 75.2006C80.6077 75.1586 80.7236 75.1292 80.9343 75.0637Z" fill="#949EE3"/>
<path d="M48.7904 68.4629C48.924 69.362 48.7482 81.3412 48.5772 82.6152C48.3049 82.2743 47.982 82.4917 47.6792 82.4708C46.4683 82.3874 45.2541 82.4789 44.0448 82.418C42.5716 82.3438 41.0985 82.3993 39.6259 82.3535C38.7176 82.3253 37.8079 82.3312 36.899 82.3396C36.5386 82.343 36.1733 82.3119 35.819 82.4378C35.5621 82.5292 35.4409 82.4044 35.4468 82.1422C35.4486 82.0615 35.4571 81.9802 35.4508 81.9001C35.3645 80.7934 35.5503 79.6968 35.5709 78.595C35.6006 77.0012 35.6385 75.4048 35.5776 73.8132C35.5321 72.6246 35.6407 71.4421 35.5957 70.2559C35.5684 69.5338 35.7747 69.3324 36.501 69.2672C36.7222 69.2473 36.9446 69.2274 37.1664 69.2281C38.9836 69.2341 40.7996 69.1498 42.615 69.1012C44.2047 69.0587 45.8014 69.0292 47.3851 68.834C47.6779 68.7979 47.9537 68.6753 48.268 68.7735C48.4969 68.845 48.504 68.4629 48.7904 68.4629ZM41.1604 76.5668C41.1727 76.5671 41.185 76.5673 41.1972 76.5675C41.1972 77.0313 41.1719 77.4967 41.2031 77.9584C41.2507 78.6618 41.4664 78.8154 42.1835 78.7255C42.6597 78.6658 42.655 78.6656 42.6687 78.1792C42.691 77.3879 42.5799 76.6119 42.4206 75.8401C42.3457 75.4776 42.3813 75.1725 42.6067 74.8217C42.9201 74.334 43.3475 73.907 43.4446 73.2697C43.563 72.4928 42.8881 71.6001 42.1029 71.6496C41.7223 71.6737 41.3528 71.8031 40.9662 71.8072C40.8369 71.8086 40.7331 71.8836 40.6746 71.997C40.3947 72.5394 40.1573 73.0945 40.2413 73.7275C40.2768 73.995 40.3535 74.2773 40.6239 74.368C41.1934 74.5592 41.1993 75.0242 41.2123 75.4797C41.2226 75.8413 41.1797 76.2044 41.1604 76.5668Z" fill="#B7B7BA"/>
<path d="M81.9444 79.1987C82.4062 79.8207 83.0265 80.1426 83.772 80.3744C85.3917 80.878 87.0388 80.7665 88.6862 80.7669C88.7845 80.7669 88.883 80.7313 88.9812 80.7115C89.5111 80.6048 90.0167 80.4115 90.5686 80.3683C90.8897 80.3432 91.232 80.2157 91.522 80.0146C91.8235 79.8055 92.1753 79.7369 92.5271 79.6392C93.5583 79.3527 94.5337 78.9095 95.4526 78.3597C96.1942 77.916 96.8957 77.4088 97.6756 77.0241C98.0693 76.8298 98.4258 76.5606 98.7713 76.2789C99.1588 75.9629 99.5506 75.6536 99.9797 75.3839C100.963 74.7658 101.689 73.8705 102.406 72.9735C102.87 72.3932 103.344 71.8209 103.806 71.2395C104.321 70.5915 104.711 69.8709 105.003 69.0982C105.032 69.0213 105.054 68.9476 105.122 68.8971C105.126 68.9969 105.118 69.0991 105.136 69.1962C105.345 70.2947 105.509 71.3981 105.519 72.5194C105.52 72.6227 105.547 72.7159 105.631 72.7851C105.12 73.9169 104.379 74.906 103.617 75.867C101.64 78.3593 99.2478 80.3831 96.4926 81.9775C93.5602 83.6743 90.4176 84.763 87.067 85.2699C85.8485 85.4542 84.6263 85.568 83.3968 85.63C82.9717 85.6514 82.5569 85.4797 82.0745 85.6478C82.039 83.4566 81.8941 81.3305 81.9444 79.1987Z" fill="#ED751E"/>
<path d="M64.4675 57.1103C63.9906 57.1917 63.5154 57.2864 63.0362 57.3507C62.5921 57.4104 62.5339 57.3544 62.5484 56.9144C62.5815 55.908 62.7412 54.9155 62.8992 53.9232C62.9417 53.6562 63.1029 53.2944 62.7611 53.1866C62.3656 53.0619 62.3636 53.5033 62.2773 53.7358C62.0441 54.364 62.0139 55.0354 61.9363 55.6945C61.8804 56.1695 61.7457 56.6464 61.9541 57.1234C62.0233 57.2818 61.9524 57.4006 61.762 57.4026C60.9129 57.4111 60.0681 57.3745 59.2353 57.1831C59.0418 57.1386 58.9739 57.0094 58.9349 56.8493C58.8825 56.6345 58.7953 56.4134 58.8083 56.2001C58.8618 55.3224 58.7144 54.4257 59.0605 53.5727C59.1809 53.2759 59.2319 52.9515 59.3457 52.6515C59.4324 52.4232 59.3311 52.2938 59.158 52.2129C58.9921 52.1354 58.8831 52.2766 58.8279 52.4012C58.51 53.1193 58.1605 53.8366 58.1597 54.6419C58.1589 55.3655 58.1002 56.0909 58.2174 56.8545C57.6031 56.735 57.1639 56.4154 56.7928 55.9825C56.7667 55.9521 56.7282 55.9176 56.7264 55.8834C56.6874 55.1224 56.2934 54.4598 56.1327 53.7333C55.9669 52.9844 55.833 52.2317 55.8469 51.459C55.8597 50.7462 55.9788 50.0586 56.2463 49.3944C56.8277 47.9508 57.8998 47.0257 59.3426 46.5321C60.7434 46.0529 62.1862 45.9714 63.6451 46.2435C63.652 46.2827 63.6469 46.3473 63.6679 46.3573C64.0516 46.5398 64.3079 46.8871 64.6575 47.1134C65.2982 47.5282 65.7367 48.1069 66.0763 48.7863C66.2948 49.2232 66.3946 49.6926 66.5533 50.1447C66.8611 51.0214 67.0081 51.8979 66.6836 52.8294C66.3541 53.7753 66.0734 54.7329 65.5593 55.6052C65.242 56.1438 64.7455 56.5469 64.4675 57.1103Z" fill="#FEA849"/>
<path d="M66.6474 79.4319C65.695 79.4319 64.7704 79.4322 63.8459 79.4319C60.1106 79.4307 56.3752 79.4295 52.6399 79.428C51.7519 79.4276 50.8637 79.4153 49.9759 79.4306C49.6799 79.4358 49.542 79.3844 49.5479 79.0419C49.573 77.5904 49.5641 76.1383 49.5824 74.6866C49.5901 74.0729 49.6067 74.0695 50.2444 74.0702C54.3434 74.0751 58.4423 74.0821 62.5413 74.0874C63.8528 74.0891 65.1644 74.0876 66.5437 74.0876C66.6233 75.8387 66.5217 77.6068 66.6474 79.4319Z" fill="#B7B7BA"/>
<path d="M35.8024 55.5445C35.81 55.6701 35.8175 55.7957 35.8251 55.9214C35.2871 56.4626 34.835 57.0858 34.2512 57.5825C33.602 58.135 32.9184 58.6111 31.9933 58.4624C31.9611 58.3888 31.8996 58.3146 31.9012 58.2417C31.9231 57.2425 31.4959 56.3099 31.471 55.3172C31.4666 55.141 31.4117 54.9603 31.3499 54.7928C31.2824 54.61 31.1298 54.4718 30.932 54.5198C30.7519 54.5635 30.7307 54.7341 30.7584 54.9162C30.825 55.3534 30.8518 55.7974 30.9324 56.2317C31.0673 56.958 31.3008 57.6669 31.2863 58.4351C31.1505 58.5246 31.0002 58.4471 30.8464 58.4105C29.1362 58.0035 27.6799 57.1847 26.4351 55.9196C25.937 55.4134 25.8141 54.8617 25.7833 54.2515C25.7016 52.6304 26.3094 51.2598 27.4375 50.1192C29.1236 48.4145 31.2157 47.742 33.571 47.771C34.1359 47.778 34.7016 47.7882 35.2484 47.96C35.3288 48.0486 35.4072 48.1392 35.4901 48.2255C35.9322 48.6859 36.4125 49.117 36.3645 49.8517C36.3518 50.0464 36.5133 50.2172 36.6408 50.3745C36.8778 50.667 36.966 50.9948 36.9498 51.3765C36.9313 51.8153 36.8788 52.2654 36.985 52.6957C37.2007 53.5698 36.9935 54.3127 36.371 54.9509C36.2873 54.4339 36.1101 53.9508 35.8459 53.4988C35.7746 53.3767 35.7041 53.2249 35.5371 53.2769C35.3356 53.3395 35.3699 53.5331 35.3967 53.6846C35.4312 53.88 35.5007 54.0691 35.5539 54.2612C35.6605 54.6468 35.7418 55.0368 35.7549 55.4381C35.7409 55.4866 35.7555 55.5228 35.8024 55.5445Z" fill="#FEA849"/>
<path d="M80.7255 68.6389C80.8987 70.1391 80.8115 71.5726 80.8675 73.001C80.881 73.3436 80.8557 73.6884 80.8803 74.0298C80.9029 74.3431 80.7813 74.4934 80.4848 74.6003C79.1757 75.072 77.8739 75.5643 76.5722 76.0565C73.705 77.1406 70.8394 78.2288 67.9738 79.317C67.8095 79.3794 67.651 79.4572 67.4797 79.5322C67.3665 79.3728 67.4174 79.2083 67.4169 79.0578C67.4117 77.4834 67.4249 75.9088 67.4038 74.3347C67.3991 73.9886 67.5229 73.8448 67.831 73.7237C72.0168 72.0787 76.1975 70.4206 80.3796 68.7661C80.471 68.7299 80.5642 68.6981 80.7255 68.6389Z" fill="#758DB4"/>
<path d="M54.9831 50.7171C54.6875 49.6952 54.744 48.6602 54.8593 47.6212C54.8902 47.3424 54.8996 47.0594 54.8944 46.7787C54.8642 45.1583 55.3167 43.6512 55.9567 42.1862C56.0228 42.0347 56.1101 41.8976 56.2424 41.8026C57.3036 41.0399 58.2889 40.1789 59.3259 39.3894C60.5854 38.4305 61.9359 37.5863 63.2792 36.7436C63.8853 36.3634 64.3423 35.8237 64.9186 35.4172C65.6123 34.9278 66.1802 34.2938 66.7814 33.6996C67.1147 33.3702 67.3705 32.9951 67.5363 32.5502C67.6826 32.1574 67.9369 31.8103 68.0615 31.405C69.4985 31.7367 70.8731 32.2487 72.2947 32.8396C71.8244 33.3279 71.4109 33.8116 70.9406 34.232C70.3298 34.7781 69.7094 35.3127 69.0457 35.803C68.4844 36.2177 67.955 36.6993 67.4601 37.1965C66.9287 37.7303 66.3382 38.1884 65.7145 38.5792C64.9136 39.081 64.1235 39.6022 63.3095 40.0828C62.9911 40.2708 62.713 40.4832 62.494 40.7814C62.3052 41.0387 62.0561 41.1752 61.7445 41.3039C61.3971 41.4473 61.037 41.7454 60.8853 42.1416C60.5126 43.1145 60.1548 44.0976 60.249 45.1686C60.2721 45.4308 60.1114 45.4605 59.925 45.5035C59.0534 45.7043 58.2354 46.0292 57.4981 46.5462C56.1203 47.5123 55.3245 48.8382 55.0373 50.4832C55.0235 50.5619 55.0013 50.6392 54.9831 50.7171Z" fill="#ECCAA1"/>
<path d="M28.3523 74.0684C30.3119 74.0684 32.2714 74.0682 34.231 74.0687C34.4128 74.0688 34.5947 74.0697 34.7763 74.076C34.9197 74.081 34.994 74.1591 34.9943 74.305C34.9944 74.4058 35 74.5068 34.9981 74.6076C34.9702 76.0996 34.9333 77.5916 34.9194 79.0837C34.9165 79.3999 34.7753 79.4389 34.5129 79.4383C32.9378 79.4351 31.3626 79.4426 29.7875 79.45C27.2441 79.462 24.7007 79.4779 22.1574 79.4891C21.7502 79.4909 21.7016 79.4453 21.6997 79.0514C21.6925 77.5197 21.6889 75.9879 21.6891 74.4562C21.6891 74.0336 21.6971 74.025 22.1146 74.0244C24.1939 74.0212 26.2731 74.0229 28.3524 74.0229L28.3523 74.0684Z" fill="#B7B7BA"/>
<path d="M64.4674 57.1103C64.7454 56.547 65.2419 56.1438 65.5593 55.6052C66.0733 54.7329 66.354 53.7754 66.6835 52.8294C67.008 51.898 66.8611 51.0214 66.5533 50.1447C66.3945 49.6926 66.2947 49.2233 66.0763 48.7863C65.7367 48.107 65.2981 47.5282 64.6575 47.1135C64.3079 46.8871 64.0516 46.5398 63.6679 46.3573C63.6469 46.3473 63.6519 46.2827 63.645 46.2435C64.2357 46.2674 64.7823 46.4984 65.3555 46.6044C65.3753 46.6081 65.4057 46.6072 65.4128 46.6192C65.8246 47.319 66.6185 47.1522 67.2277 47.389C67.8119 47.6161 68.3677 47.8897 68.9156 48.18C69.1131 48.2847 69.3433 48.2847 69.5202 48.4373C69.8088 48.6864 70.1157 48.9074 70.2991 49.2624C70.5449 49.7381 70.9153 50.1344 71.0646 50.6786C71.2708 51.4302 71.3134 52.1416 70.7816 52.7593C70.1503 53.4925 69.6282 54.3074 68.9831 55.0329C68.4836 55.5948 67.8991 55.9948 67.2369 56.2928C66.354 56.6901 65.4386 57.0004 64.4674 57.1103Z" fill="#ED751E"/>
<path d="M68.465 30.9753C68.469 29.9105 68.5311 28.8491 68.3876 27.7817C68.292 27.0706 68.3829 26.3356 68.2383 25.6211C68.0624 24.7515 68.1925 23.8531 67.9957 22.9878C67.8982 22.5591 67.7806 22.1293 67.6142 21.7237C67.5 21.4456 67.5136 21.2226 67.6708 20.9876C67.9444 21.2838 68.2517 21.2746 68.5928 20.96C68.7593 20.9835 68.7304 21.1217 68.7615 21.2336C69.2021 22.8173 69.5368 24.4243 70.1799 25.9583C70.6353 27.0445 71.1141 28.1365 71.4064 29.2934C71.5831 29.9928 71.8406 30.6737 72.0944 31.3508C72.2013 31.636 72.2774 31.9208 72.3254 32.2112C72.263 32.303 72.1836 32.2893 72.1082 32.258C70.9703 31.7863 69.8036 31.3991 68.6185 31.065C68.5633 31.0495 68.516 31.0059 68.465 30.9753Z" fill="#ED751E"/>
<path d="M46.681 17.6061C46.1569 17.6149 45.6266 17.5775 45.1104 17.646C44.6328 17.7095 44.5149 17.2539 44.1829 17.1183C44.0669 17.071 44.1728 16.8993 44.2237 16.7941C44.5998 16.0163 44.6394 15.1695 44.6966 14.3345C44.742 13.6723 44.7322 13.0033 44.6994 12.3396C44.6532 11.4007 44.5594 10.4649 44.419 9.53346C44.2819 8.62367 44.1818 7.70908 43.9953 6.80593C43.9222 6.45171 43.9912 6.08454 44.1079 5.73584C44.2864 5.93424 44.3847 6.18232 44.4573 6.42582C44.9969 8.23459 45.8564 9.92378 46.4211 11.7237C46.8288 13.0232 47.3501 14.2865 47.6976 15.6052C47.7537 15.8178 47.9596 15.9058 48.0023 16.1161C47.7125 16.2037 47.4177 16.2667 47.1443 16.3809C46.5544 16.6276 46.4214 17.0051 46.681 17.6061Z" fill="#ED751E"/>
<path d="M68.5174 14.2224C68.8225 14.2775 69.0442 14.0825 69.2918 13.9647C69.6859 13.7771 69.8385 13.8011 70.0986 14.0891C69.9196 15.2241 69.3243 16.1864 68.8086 17.1812C68.5884 17.606 68.3057 18.0056 68.1414 18.4498C68.04 18.7239 67.8939 18.7172 67.6909 18.7132C67.2632 16.9343 66.8363 15.1553 66.4069 13.3768C66.3692 13.2206 66.3581 13.0324 66.2627 12.9201C65.9077 12.5024 66.1234 12.1534 66.3271 11.7703C66.5858 11.2837 66.9465 10.8797 67.3207 10.4918C67.7536 10.0432 68.2376 9.6443 68.6831 9.20721C68.8735 9.02043 69.1173 9.00831 69.3424 8.94238C69.4655 8.90631 69.5569 9.02155 69.597 9.1473C69.3732 9.39205 69.4781 9.72572 69.3586 10.006C68.8551 11.1865 68.5772 12.4474 68.069 13.6291C67.8364 14.1701 67.8187 14.3026 68.5174 14.2224Z" fill="#FEEEE1"/>
<path d="M36.371 54.9508C36.9935 54.3126 37.2007 53.5698 36.985 52.6956C36.8789 52.2654 36.9313 51.8152 36.9498 51.3764C36.966 50.9947 36.8778 50.6669 36.6408 50.3744C36.5133 50.2171 36.3518 50.0463 36.3645 49.8516C36.4125 49.1169 35.9322 48.6858 35.4901 48.2254C35.4072 48.1391 35.3288 48.0485 35.2484 47.9599C35.9186 47.9201 36.5681 47.932 37.1487 48.3646C37.4137 48.5621 37.6366 48.7931 37.8332 49.0419C38.929 50.4282 39.4887 51.9914 39.2467 53.7709C39.0107 55.5063 38.0246 56.7383 36.4748 57.7057C36.4574 57.1589 36.5932 56.7123 36.5405 56.2663C36.4887 55.8272 36.4279 55.3892 36.371 54.9508Z" fill="#ED751E"/>
<path d="M105.631 72.785C105.547 72.7158 105.52 72.6227 105.519 72.5193C105.509 71.398 105.345 70.2946 105.136 69.1962C105.118 69.0991 105.126 68.9969 105.122 68.897C105.163 68.8548 105.205 68.8125 105.247 68.7702C105.54 68.3867 105.794 67.9841 105.932 67.5139C106.259 66.3971 106.736 65.3313 107.051 64.2083C107.161 63.8164 107.189 63.4195 107.252 63.027C107.322 62.5899 107.525 62.1678 107.519 61.7407C107.512 61.1622 107.63 60.5791 107.533 60.0103C107.408 59.283 107.485 58.5227 107.18 57.8256C107.021 57.4633 106.981 57.0454 106.675 56.7521C106.687 56.6283 106.728 56.5189 106.887 56.4021C107.205 57.0115 107.368 57.6622 107.541 58.2991C108.102 60.371 108.304 62.4811 108.136 64.6253C107.938 67.1379 107.27 69.5207 106.176 71.7867C106.012 72.1275 105.871 72.4844 105.631 72.785Z" fill="#ECCAA1"/>
<path d="M34.1619 18.7561C33.1559 17.3575 32.711 15.9205 33.1323 14.2405C33.4476 14.4409 33.7861 14.63 34.0927 14.8613C34.2601 14.9877 34.4949 15.0714 34.5672 14.9354C34.691 14.703 35.0926 14.6431 34.9827 14.2738C34.9026 14.0043 34.8483 13.7266 34.7567 13.4614C34.4054 12.4443 34.3042 11.3936 34.3005 10.3263C34.2984 9.72577 34.2899 9.7258 34.7035 9.13135C34.9827 9.38658 35.0683 9.74034 35.1573 10.0617C35.372 10.8364 35.8254 11.4355 36.3856 11.9859C36.6249 12.2211 36.8055 12.502 36.5867 12.8837C36.3976 13.2137 36.2786 13.583 36.1083 13.9249C35.3466 15.4545 34.7907 17.0672 34.1619 18.7561Z" fill="#FEEEE1"/>
<path d="M40.1137 49.8875C40.0969 50.3056 40.08 50.7237 40.0629 51.1412C39.6816 50.0166 39.0973 49.0168 38.2389 48.188C38.0508 48.0063 37.8515 47.834 37.6441 47.6745C37.1977 47.3313 37.2014 47.3236 37.4639 46.7964C37.8483 46.0244 38.2601 45.2662 38.5684 44.4564C38.7216 44.054 39.0799 43.7565 39.2086 43.316C39.238 44.1537 39.3292 44.9676 39.3441 45.7834C39.3562 46.4503 39.4098 47.1115 39.4718 47.7738C39.542 48.5226 39.7286 49.2348 40.1137 49.8875Z" fill="#FEA849"/>
<path d="M65.6911 11.825C65.6535 11.7569 65.5793 11.6862 65.5838 11.621C65.6336 10.8958 65.4067 10.1882 65.4571 9.46309C65.537 8.31461 65.2714 7.19115 65.1919 6.05396C65.1796 5.87853 65.0961 5.7071 65.0392 5.53592C64.7296 4.60433 64.4206 3.67248 64.105 2.74291C64.0331 2.53116 63.9661 2.32336 64.0073 2.09668C64.6097 3.01355 64.9034 4.06682 65.3215 5.06516C65.7492 6.08658 66.0803 7.14313 66.4645 8.17958C66.6237 8.60918 66.8034 9.02796 66.9188 9.47456C66.9638 9.64861 66.9676 9.79536 66.8579 9.92551C66.3731 10.5006 66.1132 11.2124 65.6911 11.825Z" fill="#ED751E"/>
<path d="M64.9128 45.7202C63.615 45.4222 62.3198 45.242 60.9264 45.339C61.238 44.3168 61.3775 43.3163 61.6191 42.2531C62.8142 43.3737 63.7157 44.6752 64.9128 45.7202Z" fill="#ED751E"/>
<path d="M67.6908 18.7131C67.8938 18.7171 68.0399 18.7238 68.1413 18.4497C68.3057 18.0055 68.5883 17.6059 68.8086 17.1811C69.3243 16.1863 69.9196 15.2239 70.0986 14.089C70.2512 14.3699 70.2156 14.6899 70.1804 14.9688C70.0635 15.8922 69.9304 16.8083 69.4707 17.6589C69.0085 18.5141 68.6495 19.4251 68.2462 20.312C68.2228 20.3635 68.2095 20.4201 68.0776 20.444C67.9493 19.8699 67.82 19.2915 67.6908 18.7131Z" fill="#ECCAA1"/>
<path d="M31.9933 58.4624C32.9183 58.6111 33.602 58.1349 34.2512 57.5825C34.835 57.0857 35.2871 56.4626 35.825 55.9214C35.9424 56.543 35.8232 57.1616 35.8036 57.7816C35.7986 57.9395 35.7441 58.0461 35.5894 58.1027C34.4423 58.5231 33.2673 58.7268 32.045 58.5621C32.0237 58.5593 32.0103 58.497 31.9933 58.4624Z" fill="#ED751E"/>
<path d="M68.5174 14.2224C67.8187 14.3026 67.8364 14.17 68.069 13.6291C68.5772 12.4474 68.8551 11.1864 69.3586 10.0059C69.4781 9.72564 69.3732 9.39197 69.597 9.14722C69.7991 9.76404 69.5914 10.3618 69.4936 10.959C69.4066 11.4909 69.2075 11.9967 69.0112 12.4997C68.7932 13.0582 68.6007 13.6249 68.5174 14.2224Z" fill="#ECCAA1"/>
<path d="M48.6751 39.073C49.0581 39.0809 49.4411 39.0871 49.8241 39.0972C50.6573 39.1191 51.4614 38.9573 52.2575 38.7115C51.8928 39.1334 51.4026 39.2541 50.8869 39.3168C50.8871 39.0388 50.6905 39.1345 50.5533 39.1519C49.9221 39.232 49.2958 39.2256 48.6751 39.073Z" fill="#758DB4"/>
<path d="M48.0657 38.9572C48.2355 38.9386 48.4036 38.9278 48.5423 39.0556C48.3663 39.1026 48.2175 39.0229 48.0657 38.9572Z" fill="#758DB4"/>
<path d="M35.8024 55.5444C35.7554 55.5227 35.7409 55.4865 35.7549 55.438C35.8059 55.458 35.8301 55.4896 35.8024 55.5444Z" fill="#ED751E"/>
<path d="M45.1564 31.7601C45.9851 32.665 46.97 33.0082 48.0775 33.033C48.8819 33.0511 49.6884 33.0667 50.4913 33.0282C51.5642 32.9767 52.5924 32.7184 53.5364 32.1848C53.6192 32.138 53.6956 32.1216 53.748 32.1833C53.8475 32.3004 53.8775 32.4499 53.7524 32.5626C53.5734 32.7237 53.3635 32.8399 53.1396 32.9384C52.4167 33.2566 51.6606 33.4709 50.8842 33.5764C49.6664 33.7418 48.4417 33.8599 47.2182 33.5922C46.7209 33.4835 46.2502 33.3144 45.8383 33.0104C45.453 32.7259 45.1606 32.3808 45.1564 31.7601Z" fill="#090707"/>
<path d="M48.7181 28.626C49.3789 28.711 50.0319 28.8051 50.612 29.1729C50.8333 29.3133 50.8708 29.4807 50.7253 29.6716C50.2302 30.3213 49.5909 30.745 48.7689 30.865C48.5949 30.8903 48.4554 30.8061 48.3209 30.7174C47.9041 30.4426 47.6544 30.0187 47.4029 29.6124C47.2334 29.3386 47.6033 28.7579 47.9377 28.7097C48.1963 28.6724 48.4576 28.6532 48.7181 28.626Z" fill="#080606"/>
<path d="M41.1604 76.5668C41.1796 76.2043 41.2226 75.8412 41.2122 75.4796C41.1992 75.0241 41.1934 74.5592 40.6238 74.3679C40.3535 74.2772 40.2767 73.9949 40.2412 73.7274C40.1572 73.0944 40.3946 72.5393 40.6745 71.9969C40.733 71.8836 40.8368 71.8085 40.9661 71.8071C41.3527 71.8031 41.7223 71.6736 42.1028 71.6496C42.8881 71.6 43.5629 72.4927 43.4446 73.2696C43.3475 73.9069 42.92 74.3339 42.6067 74.8216C42.3812 75.1724 42.3457 75.4775 42.4206 75.8401C42.5799 76.6119 42.6909 77.3879 42.6687 78.1791C42.655 78.6655 42.6597 78.6657 42.1834 78.7254C41.4664 78.8153 41.2507 78.6617 41.2031 77.9583C41.1718 77.4967 41.1972 77.0312 41.1972 76.5674C41.1849 76.5672 41.1726 76.567 41.1604 76.5668Z" fill="#080606"/>
</g>
<path d="M6.07139 9.59279C7.79505 8.70455 10.6609 8.91193 12.0301 9.04778C15.9632 11.2689 18.8066 14.6392 19.0207 15.87C19.2347 17.1007 16.9639 23.1016 16.9639 23.1016L19.4305 27.1579L13.8127 26.1173C13.8127 26.1173 9.9666 27.5893 7.11445 27.158C3.86653 24.8069 1.79065 23.1016 0.827484 19.0271C2.21872 14.4788 3.44124 11.4785 6.07139 9.59279Z" fill="#2BCFAC" stroke="black" stroke-linejoin="round"/>
<path d="M13.579 14.1915C14.0336 14.6461 14.1927 14.8131 14.5086 15.1325C14.7348 15.3609 14.8291 15.5552 15.3973 16.1803C13.0108 18.3963 10.8516 20.6691 8.46513 22.9988C8.4549 22.9988 5.60703 20.1555 4.20355 18.7372C4.20355 18.7179 5.03314 17.8849 5.42179 17.4928C5.69908 17.2133 6.19229 16.8053 6.19229 16.8053C6.19229 16.8053 7.1537 17.8008 7.48099 18.1372C7.66054 18.3224 8.46513 19.1918 8.46513 19.1918C8.46513 19.1918 9.48904 18.1622 9.70042 17.9576C10.1323 17.5383 10.563 17.1178 10.9903 16.6951C11.8437 15.8507 12.7426 15.0529 13.579 14.1915Z" fill="white"/>
<defs>
<clipPath id="clip0_8594_9572">
<rect width="89.6481" height="94" fill="white" transform="translate(20.1452)"/>
</clipPath>
</defs>
</svg>
