<svg width="233" height="160" viewBox="0 0 102 70" fill="none" xmlns="http://www.w3.org/2000/svg">
<path d="M78.5424 10.5791C80.7071 8.33588 82.992 12.2436 83.9383 13.7322C85.7079 16.5184 97.9073 35.954 99.0345 38.8776C99.9642 41.2899 87.3642 62.5399 78.7993 62.4025C77.8185 62.3874 62.9488 52.2682 63.0511 51.2689C63.1436 50.3686 76.7866 12.3989 78.5424 10.5791Z" fill="#82EBE4"/>
<path d="M52.0274 0.686646C52.084 0.686646 52.1393 0.686646 52.1959 0.686646C54.5388 4.1573 56.3817 7.87537 58.2977 11.5948C58.7011 12.3783 59.0699 13.6222 59.8629 14.0195C60.6102 14.3947 61.9903 14.2256 62.8233 14.2889C64.6896 14.4318 67.172 15.3074 68.4995 13.849C71.0207 11.0794 72.8041 7.67194 75.3639 4.89679C76.1209 4.0762 77.3324 2.00893 78.4693 3.19376C79.3465 4.10782 79.2084 7.15237 79.3783 8.38119C79.4405 8.82928 79.3603 9.97426 79.7996 10.2588C80.1146 10.4636 81.0139 9.76945 81.5692 10.0636C82.7738 10.7 82.2475 13.0848 82.2213 14.0813C82.1992 14.917 81.945 16.1156 82.1688 16.9211C82.3567 17.5987 82.9299 17.9739 83.1579 18.642C83.582 19.879 82.7158 21.1972 81.9961 22.1621C81.007 23.4871 80.8108 23.6301 81.7488 25.2025C82.7103 26.8148 83.7049 28.4079 84.6194 30.0463C85.4013 31.4483 86.1874 32.2552 84.9897 33.4661C83.774 34.6949 82.2337 35.7217 80.873 36.7883C79.3175 38.0075 77.7579 39.2226 76.1927 40.4308C75.06 41.3064 72.6093 42.4775 71.9117 43.7241C71.2679 44.8719 72.3593 46.8347 72.6604 48.0992C73.0223 49.6222 73.1121 51.1795 73.4907 52.6915C75.7921 49.3006 77.2523 45.155 79.7582 41.9345C82.2613 38.7168 87.2732 38.9614 90.9533 38.9793C93.7065 38.9917 101.187 37.7876 99.6811 42.4692C98.2776 46.8306 95.704 50.6668 93.9275 54.8481C93.1912 56.5827 94.6956 56.2487 95.5894 57.6659C96.5122 59.1297 96.8465 60.8891 96.6544 62.5963C96.4652 64.2842 95.722 66.1246 94.6528 67.4565C93.4564 68.9465 92.3775 68.6593 90.5748 68.6771C81.7212 68.7692 72.8621 68.684 64.0085 68.684C55.1232 68.684 46.2378 68.684 37.3525 68.6812C32.8325 68.6812 28.311 68.6785 23.791 68.6771C21.4522 68.6771 19.1149 68.6744 16.7761 68.6744C14.704 68.6744 12.9772 68.8998 11.1758 67.7988C5.56306 64.368 0.993294 57.4954 1.02507 50.807C1.04303 47.1632 2.01003 43.2527 4.12775 40.2521C5.14034 38.8171 6.41816 37.3175 7.92116 36.3705C9.25147 35.5334 10.5818 35.488 11.7532 34.3967C14.3586 31.972 16.8314 29.7604 20.1205 28.2622C21.8667 27.4664 23.4056 26.9111 25.312 26.6636C26.8053 26.4698 28.2282 26.8231 29.6565 26.7104C30.3666 26.654 30.0972 26.0616 31.0601 26.386C31.7549 26.621 31.8737 26.9358 32.034 27.5997C32.407 29.1515 31.7757 31.3013 31.7135 32.9039C31.5463 37.1911 31.4289 41.5318 31.6693 45.8162C31.7384 45.8285 31.8074 45.8423 31.8765 45.8546C32.1321 44.7289 32.8891 43.9509 33.6848 43.1716C34.7485 42.1283 34.9488 41.5648 35.6395 43.0273C36.7792 45.4395 38.1385 47.5962 39.6926 49.7693C40.6997 51.1781 40.8585 51.7032 42.2206 50.3974C43.4529 49.2167 44.5939 47.9233 45.7778 46.6958C46.8581 45.5756 47.9384 44.4581 49.0214 43.3407C50.2868 42.0335 50.3282 42.0678 48.9965 40.9545C46.673 39.0095 44.395 37.0179 42.1157 35.0221C41.2205 34.2386 40.288 33.7589 40.2935 32.5246C40.3005 31.2339 41.1362 29.6766 41.5769 28.4725C42.4638 26.0424 44.3107 23.0088 43.8576 20.4096C43.6836 19.4117 42.8216 17.6674 43.6559 16.7726C44.4972 15.8696 45.2722 16.5486 46.0361 17.1808C46.1052 17.1327 46.1743 17.086 46.2434 17.0379C45.2929 14.3727 44.0966 11.7048 44.4972 8.80729C45.0028 5.1497 47.2214 7.19911 48.9675 8.81141C49.7605 6.28368 50.2992 2.78966 52.0233 0.694893L52.0274 0.686646Z" fill="#FE9F48"/>
<path d="M42.8228 25.5655C43.6655 23.1697 44.3037 21.7072 43.7318 19.2358C43.5204 18.319 42.9402 16.8648 44.0813 16.3053C45.0607 15.8256 45.4903 16.8483 46.3344 17.005C45.4821 14.3027 44.2402 11.698 44.5979 8.78811C45.058 5.03981 47.2724 7.01636 49.0765 8.70014C49.9551 5.914 50.6983 3.13198 52.1364 0.578125C52.193 0.578125 52.2483 0.578125 52.3049 0.578125C54.768 4.18073 57.0197 8.09123 58.828 12.0677C59.8475 14.3095 60.4181 13.992 62.9253 14.1858C64.9657 14.3425 67.357 15.2209 68.7508 13.511C70.1226 11.8285 71.236 9.91797 72.5498 8.1847C73.2405 7.27202 73.9643 6.39371 74.7269 5.54013C75.3237 4.87074 76.2907 3.3574 77.0974 2.98078C79.3229 1.9389 79.0715 5.53463 79.2939 7.04935C79.5909 9.06989 79.3809 10.1008 78.1818 11.7928C75.8956 15.0161 72.5912 15.4243 68.9235 15.9906C64.438 16.6833 60.0437 17.4091 55.8428 19.1905C51.7648 20.9196 49.2464 23.2645 47.0196 27.0568C44.6118 31.157 44.9765 34.1672 46.4656 38.5285C45.261 37.6117 44.149 36.574 43.0093 35.5802L39.9854 32.713L42.827 25.5655H42.8228Z" fill="#EC7522"/>
<path d="M16.8174 38.8722C16.385 42.0569 15.7012 44.9819 15.9457 48.2327C16.1515 50.9597 16.729 53.6771 17.5482 56.2859C18.8356 60.3848 21.4866 66.0849 25.5756 68.17C26.0799 68.4271 26.6683 68.5796 27.3052 68.6635L60.7523 68.7239C61.0673 68.7239 61.3588 68.5576 61.5163 68.2855C62.2318 67.0539 63.3024 65.0375 63.8661 64.0094C65.1549 61.6589 66.4507 59.3126 67.7368 56.9622C68.5933 55.3966 70.6558 52.6668 67.9813 51.7968C66.0819 51.1782 50.9373 42.4377 50.9373 42.4377C48.872 42.5793 40.6304 51.4889 39.2904 52.9184L16.8174 38.8722Z" fill="#EC7522"/>
<path d="M83.0817 58.6913C87.6405 51.6813 94.9606 56.4275 95.5712 57.2879C96.7109 58.8933 97.0632 61.186 96.6584 63.0732C96.3959 64.2952 94.5462 67.3507 93.5654 68.1961C93.2491 68.4682 92.9244 68.7266 92.5072 68.7266H85.0157C85.0157 68.7266 79.3519 66.2525 83.0817 58.6927V58.6913Z" fill="#EC7522"/>
<path d="M61.5192 68.4503C63.5306 64.6814 65.5654 60.9235 67.545 57.1367C68.1086 56.0577 69.6489 54.1169 69.3298 52.8619C68.809 50.8125 66.4316 51.563 65.1026 52.0922C63.4629 52.7451 61.8521 53.3032 60.2911 54.1279C59.6142 54.4852 58.9884 54.8907 58.3392 55.2811C57.4081 55.8419 57.654 55.9257 56.9094 55.3484C55.8816 54.5512 55.0569 52.3561 54.5126 51.1809C53.6948 49.4146 53.1284 47.5357 52.8438 45.6114C52.6988 44.6327 52.9115 42.9723 52.2498 42.1792C52.1186 42.0211 51.1654 41.6033 50.9043 41.4108C50.2689 40.9435 49.6472 40.4033 49.0145 39.9181C46.3926 37.9058 45.1341 35.3217 45.4518 31.9404C45.7737 28.5124 48.2368 25.0211 50.6225 22.6294C53.2362 20.0082 56.9564 18.686 60.4445 17.6578C64.5957 16.4331 68.9154 16.3177 73.079 15.2332C74.8486 14.7727 76.4635 14.2215 77.7165 12.8346C77.9983 12.5226 79.6726 9.57566 79.8853 9.70624C80.9973 10.3866 81.0112 23.7071 81.0112 23.7071C81.4532 24.5359 85.9484 31.3233 85.7674 32.295C85.5809 33.2929 84.8336 33.7177 84.0033 34.4379C81.8566 36.2963 79.5538 37.9924 77.3076 39.7298C76.1541 40.6232 75.0006 41.518 73.8236 42.3799C72.4698 43.3695 71.9062 43.4273 72.2874 45.0808C72.561 46.267 72.9657 47.4216 73.2227 48.6161C73.4907 49.8655 73.4548 51.1438 74.0861 52.2503L74.0723 52.2352C71.7708 57.9064 67.6776 62.7791 65.3762 68.4531H61.5206L61.5192 68.4503Z" fill="#FEA902"/>
<path d="M8.23603 36.2289C9.3619 35.6035 13.3473 32.7404 14.2964 31.8827C16.3312 30.0449 18.6188 28.6278 21.2104 27.7234C23.6804 26.8616 34.1793 24.6032 32.0836 28.1797C32.3875 33.9554 20.4506 54.8344 19.2999 52.8688C17.732 50.1899 15.0465 44.0595 14.7011 43.1592C10.6259 48.0456 10.1424 52.0936 10.0043 56.7229C7.37955 53.743 6.96512 51.4063 6.62114 50.0552C5.37233 52.587 4.47855 58.6912 8.37694 65.2161C6.51754 64.2951 4.8764 61.454 3.81546 59.7345C-0.769497 53.4681 0.473788 41.5098 8.23741 36.2275L8.23603 36.2289Z" fill="#F1ECF0"/>
<path d="M85.4758 33.2105C81.3578 36.5987 77.2121 40.2975 72.5926 43.0081C71.9074 43.4094 70.6324 43.2596 70.2345 43.984C69.8256 44.7276 70.7968 51.2854 70.3727 51.9562C68.8531 51.9562 67.5062 51.7074 66.705 51.6813C65.8084 51.6524 64.5817 52.2063 63.6893 52.4304C61.4155 53.0022 59.7025 54.2874 57.8873 55.7141C55.8677 57.3017 53.9765 59.0349 52.2497 60.9359C50.534 62.8272 49.1608 65.1942 47.2144 66.8573C46.5928 65.0265 47.3747 62.0905 47.6537 60.2019C47.9894 57.9312 48.4052 55.6756 48.9647 53.4475C49.4827 51.383 50.045 49.3061 50.6832 47.276C51.0009 46.2643 51.4084 45.3283 51.8298 44.3579C52.3892 43.0727 52.7194 43.7943 51.5852 42.883C48.2215 40.1793 44.2899 37.3217 41.2107 34.2552C40.2838 33.3329 40.2893 33.3219 41.3074 32.4807C42.0686 31.8511 42.9955 31.3316 43.8506 30.8409C45.518 29.8856 47.2655 29.1914 49.1014 28.6306C50.9332 28.0712 52.4846 27.8856 54.3481 28.0382C55.5914 28.1399 58.6305 29.1378 58.6305 29.1378C59.7357 27.0761 59.8462 27.0637 60.1501 26.6637C60.7054 25.9338 61.468 25.2658 62.2222 24.7394C63.8869 23.5765 66.0737 23.182 68.0864 23.725C69.4775 24.1002 71.8563 25.4637 72.7211 26.6637C73.7213 28.052 73.55 29.5502 74.6551 29.1378C75.5793 28.9536 76.596 28.6787 77.5713 28.7268C78.4609 28.7722 79.5108 29.3041 80.319 29.6478C82.1963 30.4464 83.9411 31.5364 85.4758 32.8751V33.2091V33.2105Z" fill="#FEEEE2"/>
<path d="M79.91 19.6412C79.8479 17.9862 79.7982 16.3313 79.7346 14.6764C79.6973 13.7005 79.1143 11.2717 79.8714 10.4828C82.1935 8.06636 82.6163 12.9995 82.6674 14.018C82.724 15.1437 82.2612 16.7148 82.6674 17.5918C83.2061 18.7546 83.5791 19.4419 82.9326 20.8494C82.7199 21.314 81.3882 23.5173 80.8508 23.5063C80.0192 23.4912 79.9211 20.1951 79.8424 19.6549C79.8645 19.6494 79.8866 19.6453 79.9087 19.6398L79.91 19.6412Z" fill="#FEEEE2"/>
<path d="M32.2756 45.7267C32.5091 44.601 33.2688 43.8134 34.059 43.0327C35.0785 42.0265 35.312 41.6733 36.0455 42.9653C36.6754 44.0732 37.2031 45.2347 37.8082 46.3549C38.4948 47.6249 39.5502 48.6242 40.2589 49.8654C41.0366 51.2275 40.5503 51.4488 39.4604 52.5251C39.1081 52.8728 37.391 54.503 37.2183 54.98C37.0691 55.3923 33.9029 52.3684 32.8282 50.7066C32.9359 52.2309 33.6874 54.3051 34.1792 55.6672C32.5325 55.4542 27.5511 52.1746 25.7525 48.3823C24.6473 50.5815 24.6473 56.7668 24.6473 58.9661C19.3979 55.5298 16.6351 48.1074 15.9443 46.0456C16.0825 43.9838 16.4969 40.8225 17.0978 38.8555C15.9678 39.4053 14.2866 40.9599 11.8083 44.344C12.4714 36.4707 22.5752 27.4896 32.1278 26.8367C33.1473 26.7666 32.277 30.6744 32.2231 31.5665C31.9454 36.2439 31.944 40.9434 31.944 45.6333C32.0546 45.6649 32.1637 45.6965 32.2742 45.7281L32.2756 45.7267Z" fill="#E0AF70"/>
<path d="M46.7296 67.539C47.0805 62.9069 47.575 58.2638 48.7976 53.7678C49.3764 51.6373 49.8751 49.4504 50.581 47.3584C50.9112 46.3797 52.8714 43.6541 51.5176 42.9132C52.6587 43.1771 52.3354 43.8919 52.2899 44.8527C52.2277 46.1557 52.3755 47.4175 52.7305 48.6738C53.4807 51.3294 55.1052 53.442 56.2131 55.9203C56.7602 57.145 56.5902 56.9759 55.5017 57.9229C54.4518 58.837 53.471 59.8253 52.5302 60.8493C50.541 63.0141 48.7037 65.3165 46.8595 67.6023C46.8166 67.5817 46.7724 67.561 46.7296 67.539Z" fill="#E0AF70"/>
<path d="M46.6231 16.9265C45.9918 14.9734 45.1201 13.0477 44.9046 10.99C44.801 10.0045 44.5026 6.98879 45.8315 6.52833C47.2185 6.04862 48.8693 9.3777 49.3984 10.2766C50.3281 11.8546 51.4581 13.1439 50.9511 15.0173C50.4179 16.9857 49.4647 18.9223 48.7325 20.8274C48.3361 21.8611 47.597 23.9173 46.8883 24.0534C46.5665 24.1153 44.0854 19.8391 43.8713 18.6639C43.7027 17.7348 43.3284 16.7369 43.711 16.3561C44.1807 15.8888 45.5179 16.2091 46.4394 17.0076L46.6231 16.9265Z" fill="#E0AF70"/>
<path d="M46.8869 38.4404C45.8508 37.6404 44.8231 36.846 43.8381 35.9814C43.1598 35.3862 41.2908 34.2468 40.9716 33.4454C40.5945 32.4984 41.5905 32.2482 42.4139 31.7314C43.3933 31.1142 44.5109 30.1287 45.6547 29.873C45.5856 31.2462 45.319 32.6743 45.4116 34.0475C45.5165 35.6158 46.3357 37.0082 46.8759 38.45L46.8855 38.4404H46.8869Z" fill="#E0AF70"/>
<path d="M84.7395 68.7059C80.359 68.7059 76.5311 68.7183 72.1506 68.7141C71.004 68.7141 66.1331 68.7031 64.9851 68.7059C64.474 68.7059 77.2895 45.959 79.6918 42.4389C81.8869 39.2225 86.0767 39.1744 89.616 39.0919C91.6411 39.0452 99.2445 37.9167 99.8841 40.4774C100.307 42.1681 99.018 44.3879 98.388 45.8037C97.899 46.9047 93.5213 55.1353 93.6442 55.7291C93.781 56.393 92.0224 55.472 90.2652 55.2356C88.1364 54.9497 85.3321 55.7799 83.9107 57.2974C82.7102 58.5785 81.6396 62.2154 81.8371 63.902C82.2529 67.4688 84.763 68.6537 84.7395 68.7059Z" fill="#634FCE"/>
<path d="M65.0707 68.5878C67.5048 63.175 70.5646 58.0508 73.5305 52.9114C75.0308 50.3122 76.5407 47.7171 78.0533 45.1262C78.9609 43.5716 80.7236 39.2199 83.2185 39.7683C82.7143 42.0473 80.7955 44.5035 79.6807 46.5653C78.3628 49.0009 77.0435 51.4366 75.7229 53.8709C73.0609 58.7765 70.4002 63.6822 67.741 68.5892H65.0721L65.0707 68.5878Z" fill="#B4FEE3"/>
<path d="M96.3436 43.951C95.9734 44.674 95.5769 46.3151 94.563 46.5392C93.1152 46.8594 93.1042 45.7282 93.2796 44.8746C93.6305 43.1675 95.7192 41.0604 96.1226 43.8602C96.1958 43.8905 96.2704 43.9193 96.3436 43.9496V43.951Z" fill="#2E2C7E"/>
<path d="M99.3674 38.9753C99.069 38.8103 98.8135 38.567 98.4336 38.2798C97.8492 38.3169 97.1267 38.3939 96.4029 38.4021C93.4052 38.4378 90.4061 38.42 87.4084 38.4887C85.9399 38.5217 84.448 38.5698 83.0141 38.8488C81.5788 39.1278 80.3935 40.0034 79.3892 41.0769C79.3712 41.0962 79.3616 41.125 79.3477 41.1498C77.9166 43.6156 76.4827 46.0788 75.0556 48.5474C74.7269 49.1151 74.4257 49.6979 74.0458 50.3934C73.2266 48.212 73.2183 45.9372 72.2362 43.9235C72.3149 43.8356 72.3743 43.7366 72.4613 43.6747C74.1384 42.4844 75.8292 41.3133 77.4939 40.1051C79.1336 38.9134 80.7485 37.6887 82.3703 36.4723C83.8471 35.3644 85.368 34.3019 86.5091 32.7776C86.3861 32.2814 86.3668 31.7453 86.1306 31.3316C85.3349 29.9392 84.4535 28.5936 83.6191 27.2218C82.9602 26.1387 82.3233 25.0418 81.728 24.037C82.3012 23.1037 82.8649 22.279 83.3318 21.4035C84.075 20.0097 83.8167 18.2379 82.7626 17.0971C83.0293 15.3542 83.2682 13.6031 82.916 11.8176C82.5803 10.1173 81.9476 9.40392 80.2747 9.10565C80.2319 8.93247 80.1697 8.74965 80.1407 8.56135C79.9666 7.38751 79.8326 6.2068 79.6254 5.03983C79.4016 3.78627 79.2151 2.48873 77.7784 1.73825C77.4939 1.92243 77.114 2.09287 76.8349 2.36502C76.3017 2.88734 75.8624 3.5045 75.3209 4.01857C72.9393 6.28515 71.0454 8.95583 68.9995 11.5001C68.4082 12.2354 67.8335 12.9832 67.263 13.7117C64.7543 13.6264 62.294 13.0038 59.7992 13.4972C58.9869 11.6609 58.1649 9.84102 57.372 8.00742C56.3663 5.67761 54.9669 3.5801 53.5565 1.48671C53.1407 0.868176 52.5853 0.43108 51.7454 0.238647C51.5976 0.421458 51.3821 0.60152 51.2757 0.832439C50.5325 2.44062 49.8045 4.05568 49.0876 5.67486C48.8555 6.19855 48.6662 6.74286 48.4604 7.26793C48.0004 6.89681 47.6274 6.50507 47.177 6.24666C45.797 5.45219 44.6145 6.00062 44.1904 7.33528C44.0094 7.90708 43.9445 8.53111 43.9169 9.13452C43.8298 11.0135 44.2249 12.821 44.8245 14.5914C44.9239 14.8855 45.0027 15.1865 45.1091 15.5439C43.8741 15.3075 43.2013 15.6126 42.9678 16.5707C42.8131 17.2029 42.7606 17.8943 42.8338 18.539C42.914 19.2455 43.1585 19.941 43.3947 20.62C43.5784 21.1492 43.5632 21.6165 43.3546 22.1374C42.4153 24.4755 41.4994 26.8232 40.5945 29.1736C40.1028 30.4519 39.6524 31.7439 39.1592 33.0937C42.5824 36.1561 45.9338 39.1526 49.2948 42.16C46.514 44.8005 43.6613 47.5083 40.7866 50.2381C40.7078 50.1473 40.6084 50.0539 40.5338 49.9439C39.4383 48.3055 38.3276 46.6767 37.2625 45.019C36.6506 44.0665 36.098 43.0851 35.7817 41.9703C35.6628 41.5525 35.1835 41.2364 34.8602 40.8639C33.6377 41.6542 33.0671 42.8404 32.1513 43.8686C32.1513 42.3786 32.1609 40.9999 32.1499 39.6227C32.1236 36.6262 32.2853 33.6394 32.5892 30.6581C32.7315 29.2616 32.8199 27.8582 32.9276 26.5386C32.2949 26.0878 31.4205 25.8528 30.1993 25.7675C26.044 25.4748 22.1179 26.3009 18.5 28.342C15.5161 30.0258 12.7063 31.9666 10.5098 34.4875C9.41019 35.0015 8.31057 35.3424 7.42231 35.9761C6.28402 36.787 5.17611 37.6695 4.32101 38.8351C3.11364 40.479 2.02645 42.1587 1.40205 44.1228C0.266515 47.6897 0.035816 51.2868 0.922693 54.9293C1.92699 59.0528 3.88033 62.6651 7.06867 65.5172C8.38102 66.691 9.89507 67.6422 11.3179 68.6937H13.839C11.329 67.0979 8.85347 65.4787 6.83106 63.2396C4.55723 60.7215 3.12331 57.791 2.30136 54.5609C1.65347 52.0153 1.67833 49.434 2.20328 46.8389C2.9078 43.3559 4.44948 40.3745 7.1405 38.0062C7.43198 37.7506 7.68893 37.4564 7.9735 37.1925C8.11993 37.0564 8.28985 36.9465 8.44871 36.8255C8.49154 36.8613 8.53298 36.8956 8.5758 36.9314C7.4085 38.3471 6.7164 39.9677 6.36828 41.7779C6.62799 41.7298 6.85316 41.646 6.98716 41.4879C7.2745 41.1498 7.52592 40.7786 7.77596 40.4103C10.0291 37.0881 12.4963 33.9789 15.8767 31.6697C18.9628 29.5626 22.1663 27.7716 25.9569 27.3414C27.3936 27.1778 28.8469 27.1311 30.2946 27.083C30.6883 27.0692 31.0876 27.2424 31.5089 27.3345C31.4771 27.7578 31.4578 28.0864 31.4274 28.4135C31.2229 30.6223 30.9315 32.8271 30.8334 35.0414C30.7146 37.741 30.7643 40.446 30.7284 43.1497C30.7104 44.5008 30.785 45.8437 31.1718 47.1454C31.31 47.6086 31.455 48.1213 32.1789 48.2203C32.2783 47.8849 32.3985 47.5564 32.4718 47.2183C32.8157 45.6059 33.3918 44.1146 34.6903 42.8913C35.9985 45.9963 37.8331 48.7014 39.8472 51.2799C38.5556 52.8167 37.1866 54.3877 35.8853 56.0097C34.3712 57.8982 32.9304 59.8446 31.4274 61.7414C30.546 62.8534 29.6011 63.9145 28.6908 65.0059C28.4684 65.2725 28.1755 65.5461 28.5789 66.0533C35.6173 58.0302 42.5562 49.9783 50.5809 42.8968C51.0147 43.2198 51.4346 43.5318 51.8173 43.8177C51.3365 44.8898 50.8447 45.885 50.4414 46.9145C50.0352 47.9467 49.6609 48.9983 49.368 50.0676C47.9576 55.1932 47.0306 60.4067 46.5623 65.7014C46.5002 66.4065 46.2695 67.0951 46.1603 67.7975C46.1244 68.0257 46.228 68.2745 46.2681 68.515C46.3358 68.5274 46.4035 68.5398 46.4711 68.5521C46.63 68.3762 46.8027 68.2113 46.9464 68.0229C47.4188 67.4072 47.8691 66.7735 48.3513 66.1646C51.2578 62.4823 54.3826 59.0034 58.0503 56.0454C60.1749 54.3314 62.4833 52.9376 65.2061 52.3823C66.1261 52.1954 67.0779 52.0071 68.0048 52.0442C70.4859 52.1418 71.8411 53.4572 72.1933 55.0901C71.9944 55.4145 71.7609 55.798 71.504 56.2172C69.8836 54.2255 66.2477 53.4283 65.4299 54.9087C65.7448 54.9087 66.0087 54.9155 66.2725 54.9073C66.7464 54.8922 67.2216 54.8248 67.6926 54.8523C69.3061 54.9499 70.5798 55.8378 70.9791 57.1079C70.0646 58.7216 69.1307 60.3325 68.2328 61.9641C67.0019 64.2004 65.8001 66.4519 64.5858 68.6978H65.4257C66.1979 67.1707 66.9177 65.6148 67.7534 64.1234C69.3296 61.3125 70.9791 58.5429 72.5843 55.7485C73.7281 53.7596 74.8553 51.761 75.9784 49.7611C77.3212 47.3694 78.6501 44.9709 79.9846 42.5751C80.6297 41.415 80.7154 41.3422 82.7682 40.2714C82.6825 40.5161 82.6494 40.6838 82.5679 40.8254C81.1851 43.2322 79.7815 45.6252 78.4153 48.0402C77.0615 50.4319 75.745 52.8455 74.4133 55.2496C72.3011 59.0652 70.1778 62.8754 68.0877 66.702C67.7451 67.3288 67.5421 68.0298 67.2741 68.6978H67.9468C68.5533 67.4855 69.1183 66.2498 69.7731 65.065C72.395 60.3256 75.0432 55.6001 77.6873 50.8717C79.5439 47.5509 81.4254 44.2438 83.2627 40.912C83.6371 40.233 84.1537 39.9814 84.8818 39.9718C88.8382 39.9168 92.796 39.855 96.7524 39.7862C97.222 39.778 97.6903 39.7079 98.3023 39.6543C98.9129 40.0089 99.1505 40.7731 99.453 41.4109C98.3424 43.8081 97.2055 46.1461 96.1694 48.5268C95.1375 50.8978 93.506 52.9734 92.7642 55.5423C92.5418 55.4544 92.3442 55.3746 92.1453 55.299C89.924 54.4427 87.7109 54.462 85.6029 55.5767C84.89 55.9533 84.2339 56.5718 83.7545 57.2261C82.4573 59.002 81.5663 60.9662 81.5124 63.2176C81.471 64.9646 81.9545 66.5027 83.3401 67.6807C83.7158 68.0009 84.0584 68.3597 84.4148 68.7006H85.5904C85.2478 68.4298 84.9025 68.1631 84.564 67.8882C82.8372 66.4862 81.9131 64.7942 82.2874 62.43C83.4243 62.6445 84.5613 62.8575 85.6982 63.0733C86.027 63.1365 86.3543 63.2039 86.6817 63.2754C87.0464 63.3551 87.3324 63.2726 87.5438 62.8685C85.9109 62.1867 84.133 62.2142 82.4352 61.7345C82.6521 60.5978 83.0859 59.6494 83.597 58.7312C83.6771 58.5869 83.7987 58.4618 83.8719 58.3147C84.3886 57.2825 84.8016 56.8715 86.5077 57.3155C87.4567 57.5629 88.3477 57.9464 89.0965 58.6157C89.4197 58.9044 89.801 59.2027 90.2735 58.6776C89.0205 57.4474 87.541 56.7189 85.7811 56.2722C86.1609 56.0963 86.5243 55.8626 86.9235 55.7567C89.2194 55.1465 91.3772 55.4104 93.3858 56.7588C94.8722 57.7567 95.4455 59.2027 95.6707 60.8796C95.9663 63.0774 95.5201 65.1145 94.3293 66.9673C93.919 67.6051 93.3264 68.1246 92.8167 68.6992H94.8336C96.9527 66.0313 97.6323 63.0266 96.9181 59.7167C96.6971 58.6927 96.3877 57.6756 95.6154 56.9017C95.2079 56.4935 94.7369 56.1485 94.2547 55.743C94.3445 55.5052 94.4025 55.2977 94.4965 55.1066C95.2369 53.5878 95.9995 52.0785 96.7261 50.5542C97.6696 48.5763 98.5758 46.5832 99.518 44.6053C99.9186 43.7655 100.526 43.0232 100.67 42.0638C100.721 41.7243 100.861 41.3972 100.992 40.9601C100.765 40.1436 100.223 39.4522 99.3702 38.9835L99.3674 38.9753ZM80.4943 10.4815C81.623 11.0822 81.9034 12.1983 81.9808 13.2842C82.0526 14.2917 81.8468 15.3267 81.6865 16.3384C81.6202 16.7562 81.3563 17.1438 81.1326 17.6606C81.4199 17.9067 81.7749 18.1404 82.0374 18.451C82.3966 18.8771 82.6314 19.3554 82.4656 19.9698C82.1963 20.9691 81.7873 21.8777 81.1049 22.6268C80.5938 22.5471 80.5164 22.224 80.5012 21.879C80.4308 20.242 80.3949 18.6049 80.2954 16.9693C80.2111 15.5838 80.0578 14.2037 79.9349 12.821C79.9031 12.4622 79.8616 12.1021 79.8409 11.7434C79.8091 11.2059 79.9804 10.7647 80.4957 10.4802L80.4943 10.4815ZM43.9873 16.7205C45.5138 16.884 46.007 18.2366 47.0113 19.0434C47.1232 18.9527 47.2627 18.8386 47.4464 18.6888C47.0265 17.5053 46.6562 16.315 46.1838 15.1659C45.4585 13.3996 45.0566 11.5688 44.9502 9.67745C44.9018 8.82663 44.9778 7.96343 45.558 7.25281C46.2902 7.25006 46.851 7.56482 47.253 8.08164C47.8125 8.79914 48.3223 9.55787 48.8154 10.3235C49.502 11.3874 50.1554 12.4732 50.8268 13.5591C49.9012 17.0751 48.6331 20.3932 46.7972 23.6302C45.1975 21.5368 43.5273 19.6193 43.9873 16.7219V16.7205ZM69.1556 51.5164C66.2394 51.027 63.5732 51.816 61.0521 53.1754C57.2863 55.2069 54.3688 58.2474 51.5009 61.3235C50.0988 62.8273 48.8127 64.4368 47.4727 65.9983C47.3884 66.0972 47.2931 66.188 47.1328 66.2498C48.1316 58.7614 48.9632 51.2497 52.2966 44.2465C53.533 44.7482 54.29 46.0307 55.7764 45.9413C55.8662 45.7819 55.9685 45.6032 56.137 45.3049C50.6016 41.7216 45.7666 37.3561 40.9827 32.9411C44.084 30.2306 50.5588 26.8933 58.3887 29.3702C58.3293 29.7564 58.2533 30.1096 58.2257 30.467C58.013 33.1418 58.8584 34.9095 61.4693 36.3197C63.6271 37.4853 65.9078 37.9293 68.3447 37.4661C68.7826 37.3822 69.2454 37.3987 69.6681 37.2723C70.0673 37.1513 70.4265 36.9039 70.8036 36.7114L70.7304 36.4915C70.5329 36.5053 70.3353 36.5094 70.1391 36.5355C69.0326 36.6853 67.9316 36.9259 66.8223 36.9781C64.6038 37.0812 62.6339 36.3692 60.7896 35.1239C59.4386 34.2112 58.9441 32.9714 58.8612 31.4745C58.8142 30.6251 58.8529 29.7715 58.8529 28.8588C52.5632 26.6995 46.7253 27.8486 41.2949 31.8017C42.2481 28.5344 43.3671 25.4005 44.7858 22.3093C45.5856 23.0199 45.8771 24.2075 47.137 24.3422C47.9451 23.2357 48.5778 22.0041 49.0945 20.7217C49.7465 19.1066 50.3433 17.4682 50.9387 15.8312C51.1376 15.2855 51.3282 14.7206 51.3973 14.1488C51.447 13.735 51.3904 13.2471 51.2053 12.8815C50.7826 12.0471 50.2438 11.2705 49.77 10.4609C49.5752 10.1283 49.4274 9.76817 49.2492 9.3998C50.1347 6.92567 50.8876 4.41305 52.1654 2.0159C53.5192 3.93335 54.8329 5.74496 55.7184 7.82598C56.5183 9.70632 57.3609 11.5702 58.216 13.4258C58.4343 13.8986 58.7741 14.3164 59.1112 14.8429C59.7536 14.8429 60.4346 14.858 61.117 14.8401C63.5138 14.7797 65.8885 14.9817 68.2576 15.3336C69.0478 15.4504 69.8601 15.4298 70.6627 15.4449C70.9196 15.449 71.1794 15.3625 71.5717 15.2937C70.9639 14.135 69.914 14.179 68.8047 13.9632C70.2856 12.1048 71.656 10.3166 73.1023 8.59159C74.5611 6.85007 76.0945 5.17179 77.719 3.32444C77.9166 4.04881 78.139 4.63023 78.2288 5.23089C78.6018 7.75176 79.0342 10.2712 79.2538 12.8072C79.5149 15.805 79.6199 18.818 79.7083 21.8268C79.7415 22.9773 80.0288 23.9546 80.6642 24.9236C81.9725 26.9166 83.1743 28.977 84.4121 31.0154C84.6538 31.4141 84.8541 31.8388 85.1525 32.401C83.8857 31.5611 82.8068 30.7873 81.6699 30.1096C80.8134 29.5983 79.8906 29.1928 78.9817 28.7722C77.5325 28.1015 76.0876 28.4272 74.6495 28.8396C74.4658 28.8918 74.2862 28.9647 74.0804 29.0361C73.5237 27.5008 72.7721 26.1235 71.4736 25.1504C71.8245 23.659 71.6449 22.8728 70.8285 22.6735C70.4431 22.58 70.0452 22.7752 69.8863 23.1367C69.7855 23.3649 69.6777 23.6082 69.5645 23.8652C66.8721 22.9677 64.228 22.9622 61.6586 24.8274C61.776 24.0783 61.8699 23.4171 61.6599 22.822C61.5398 22.4824 61.2055 22.257 60.8449 22.2845C60.4111 22.3161 60.1666 22.5251 59.9856 22.9704C59.4939 24.1786 59.6362 24.8246 60.5617 25.5311C59.9926 26.3572 59.2632 27.1036 59.0477 28.1221L59.2618 28.2279C59.4856 27.9544 59.7246 27.6905 59.9276 27.4032C60.9181 26.004 62.2084 25.0006 63.8163 24.3752C65.3373 23.7827 66.8817 23.7498 68.3944 24.2624C71.0523 25.1628 72.8302 26.9551 73.5388 29.6973C73.8441 30.8766 73.6936 32.0628 73.4642 33.2394C73.4145 33.4978 73.3662 33.7576 73.4118 34.0353C74.5335 32.7803 74.271 31.2312 74.3345 29.6478C75.4922 29.1915 76.7341 28.7709 77.9995 29.1159C80.5123 29.8031 82.5886 31.3082 84.7754 32.9714C81.8302 35.1885 78.9637 37.3162 76.1318 39.488C73.322 41.6432 70.2676 43.426 67.2381 45.2678C68.1913 45.5303 68.795 44.8032 69.7275 44.6025C69.8491 46.9598 69.9706 49.2951 70.0963 51.7157C69.7827 51.6483 69.4733 51.5686 69.1597 51.5164H69.1556ZM72.7804 54.0551C72.0801 53.3294 71.3769 52.5995 70.6793 51.8751C70.8354 51.1233 70.5867 50.2848 70.5992 49.4491C70.6116 48.5914 70.5163 47.7309 70.4679 46.8719C70.4182 45.9922 70.3698 45.1111 70.3173 44.1778C70.4596 44.105 70.6213 44.0225 70.8105 43.9263C70.892 44.0596 70.9749 44.1421 70.9984 44.2397C71.457 46.0856 71.9143 47.9316 72.3577 49.7817C72.5235 50.4745 72.6078 51.1892 72.8205 51.8655C72.92 52.1789 73.2391 52.4235 73.5209 52.7782C73.2584 53.2304 72.9987 53.6785 72.7818 54.0537L72.7804 54.0551Z" fill="black"/>
<path d="M94.4274 46.9528C94.915 46.6532 95.4524 46.3247 95.7577 45.8684C96.3904 44.9254 96.5879 43.8272 96.4981 42.7193C95.5228 41.8671 94.5061 41.896 93.7947 42.8472C93.4535 43.3035 93.2034 43.8574 93.0377 44.4045C92.8802 44.9241 92.8208 45.4931 92.8346 46.0374C92.8553 46.8498 93.8361 47.3143 94.4274 46.9515V46.9528ZM94.8542 42.6836C95.8074 42.8815 95.9276 43.0932 95.7452 43.9784C95.5974 44.6973 95.3957 45.3804 94.8694 45.9206C94.5213 46.2766 94.1304 46.5199 93.5142 46.1927C93.3347 44.7605 93.9273 43.6554 94.8542 42.6836Z" fill="black"/>
<path d="M71.4265 30.0257C70.5991 30.7555 69.6376 31.0195 68.6347 31.0538C66.3498 31.1322 64.3895 30.3831 62.8714 28.6305C62.6241 28.3446 62.3616 28.1151 61.8284 28.3831C62.1199 28.7804 62.345 29.1941 62.6683 29.5075C64.5166 31.2889 66.7808 31.829 69.2812 31.638C69.9553 31.5871 70.6212 31.5349 71.1406 31.0304C71.3975 30.7803 71.6337 30.5205 71.4265 30.0284V30.0257Z" fill="black"/>
<path d="M66.937 27.4348C67.4067 27.8541 67.9371 27.8843 68.4648 27.5187C68.9773 27.1641 69.465 26.7916 69.1597 25.9545C68.0255 25.6425 66.9176 25.0047 65.7296 25.9366C65.8263 26.6844 66.4604 27.0087 66.9384 27.4348H66.937Z" fill="black"/>
</svg>
