<svg width="150" height="160" viewBox="0 0 100 106" fill="none" xmlns="http://www.w3.org/2000/svg">
<path d="M99.9673 3.33894C99.9673 37.3326 99.9673 71.3262 99.9724 105.32C99.9724 105.513 99.929 105.558 99.7348 105.558C68.0922 105.552 36.4496 105.552 4.80695 105.552C3.32117 101.845 2.44189 97.85 1.7331 93.93C1.38594 92.0098 1.13796 90.0958 0.868288 88.1674C0.594482 86.2048 0.675074 84.1616 0.674041 82.1835C0.674041 82.0894 0.679207 81.9953 0.674041 81.9022C0.659576 81.6685 0.639945 81.4348 0.623413 81.2011C0.623413 81.1494 0.623413 81.0977 0.623413 81.046C0.640978 80.9654 0.671974 80.8847 0.673008 80.8041C0.678174 80.3843 0.675074 79.9644 0.674041 79.5457C0.674041 79.3564 0.674041 79.1672 0.674041 78.978C0.827992 76.7176 0.770131 74.4531 1.00984 72.201C1.24335 70.0119 1.70107 67.8539 2.0317 65.6773C2.3768 63.4055 2.97711 61.2227 3.47719 58.9871C3.97727 56.7516 4.6654 54.4798 5.38659 52.3053C5.70276 51.354 6.14912 50.4461 6.50765 49.5103C6.85275 48.6107 7.10589 47.6811 7.48301 46.7929C8.25484 44.972 9.22504 43.241 10.0279 41.4356C10.4639 40.4543 10.8028 39.4316 11.2729 38.4659C11.7038 37.5807 12.2204 36.7411 12.7256 35.8973C13.7588 34.1705 14.8541 32.4975 16.0495 30.8782C16.6849 30.0168 17.3586 29.1896 18.0395 28.3645C18.1749 28.2011 18.3019 28.0274 18.4631 27.8971C18.5282 27.8443 18.646 27.8795 18.7163 27.8164C19.0128 27.5517 19.2587 27.1608 19.5212 26.861C20.8199 25.3813 22.1569 23.9099 23.5125 22.4788C24.9094 21.0043 26.3673 19.5184 27.9699 18.2734C29.5631 17.0357 31.2121 15.8765 32.8085 14.6429C36.0321 12.152 39.4015 9.84711 43.117 8.14096C45.015 7.26928 46.9224 6.48549 48.8803 5.7596C50.6947 5.08645 52.4532 4.30473 54.3275 3.79288C55.2523 3.54058 56.1977 3.42477 57.1265 3.20349C58.074 2.97807 58.9367 2.51276 59.8801 2.26976C61.9703 1.7331 64.0967 1.35258 66.2468 1.16852C70.3363 0.819022 74.429 0.775593 78.5288 0.595673C80.3473 0.604979 82.1182 0.923459 83.9336 0.910017C85.688 0.897608 87.4466 1.11992 89.1917 1.29778C91.0505 1.487 92.8277 1.74551 94.6544 2.15188C96.4264 2.54585 98.1911 2.96876 99.9683 3.33791L99.9673 3.33894Z" fill="#DAEAFE"/>
<path d="M0.672698 79.5457C0.672698 79.9655 0.675799 80.3853 0.671666 80.8041C0.671666 80.8847 0.639635 80.9654 0.62207 81.046C0.62207 80.5466 0.62207 80.0461 0.62207 79.5467C0.638602 79.5467 0.656167 79.5467 0.672698 79.5467V79.5457Z" fill="#EAF3FE"/>
<path d="M0.673732 82.1835H0.647901H0.62207C0.62207 81.8557 0.62207 81.5289 0.62207 81.2011C0.639635 81.4348 0.658233 81.6685 0.672698 81.9022C0.678898 81.9953 0.672698 82.0894 0.672698 82.1835H0.673732Z" fill="#EAF3FE"/>
<path d="M13.4856 105.604C13.4691 105.301 13.3059 105.136 13.3069 104.86C13.3069 104.788 13.4226 104.699 13.4247 104.615C13.4299 104.41 13.2831 104.211 13.2098 104.027C12.8926 103.229 12.7469 102.348 12.7779 101.489C12.8347 99.9067 13.4144 98.2233 14.0973 96.8077C14.8237 95.3032 15.8538 94.1472 17.2466 93.2383C17.882 92.8236 18.5402 92.4431 19.2242 92.1164C19.6675 91.9054 21.0592 91.6014 21.208 91.132C21.3124 90.8031 21.1997 90.3068 21.2049 89.9532C21.2121 89.4817 21.2349 89.0153 21.2989 88.5469C21.4177 87.6804 21.6079 86.8304 21.9333 86.0166C22.5378 84.507 23.478 83.505 24.6993 82.473C24.941 82.2683 25.1756 82.1452 25.1839 81.8206C25.1921 81.5031 24.8553 80.9633 24.7551 80.6345C24.505 79.8145 24.287 78.9739 24.2033 78.1187C24.1207 77.277 24.1703 76.4622 24.4244 75.6526C24.6776 74.846 25.3213 74.1264 25.1301 73.2754C24.7881 71.7481 23.9708 69.4515 25.1601 68.0794C25.7067 67.4486 26.6076 67.4217 27.3526 67.6813C28.1885 67.9729 28.5263 68.5147 29.0636 69.1589C29.5678 67.491 29.7786 65.7476 30.3097 64.0891C30.5122 63.4583 30.8129 62.5132 31.4339 62.1772C32.2274 61.7491 32.9134 62.3964 33.427 62.933C34.5738 64.1294 35.6443 65.4674 36.5101 66.882C36.9348 67.5768 37.3594 68.2727 37.7717 68.9748C37.9876 69.3409 38.436 70.5176 38.8886 70.5652C39.056 70.5828 39.585 70.3418 39.7658 70.3036C40.1202 70.2291 40.4126 70.0781 40.7515 69.9623C41.0522 69.8589 41.39 69.8445 41.6845 69.7276C42.1784 69.5332 42.0306 69.1041 42.0451 68.6336C42.0689 67.8488 42.1805 67.0691 42.2197 66.2853C42.2631 65.4168 42.1815 64.635 42.3014 63.7582C42.4233 62.8668 42.5473 61.9755 42.6888 61.0873C42.7746 60.5486 42.9017 59.5311 43.3966 59.1919C43.8987 58.8486 44.8297 59.3594 45.1727 59.7224C45.6883 60.2683 46.116 60.9797 46.5159 61.6136C47.4685 63.1212 48.1701 64.7281 48.8975 66.3526C49.5257 67.7568 50.3419 69.0555 51.0487 70.4266C52.6998 73.629 54.293 76.8572 55.8552 80.102C56.1673 80.7493 56.2086 81.0967 57.0352 80.9189C57.7915 80.7565 58.5757 80.3357 59.3228 80.0948C60.1328 79.8342 60.9552 79.6181 61.7684 79.3699C62.2003 79.2386 62.626 79.0876 63.0579 78.9573C63.372 78.8622 63.9619 78.8508 64.1779 78.6058C64.3701 78.3876 64.3732 77.672 64.4197 77.4011C64.492 76.9741 64.5685 76.5491 64.6459 76.1231C64.803 75.2566 64.9714 74.3921 65.1419 73.5277C65.488 71.7698 65.8104 70.0099 66.1472 68.251C67.476 61.3148 68.8532 54.3816 70.3835 47.4857C71.1253 44.1417 71.8134 40.7666 72.6504 37.4432C73.0296 35.9377 73.2631 34.2347 74.2715 33.0104C75.2665 31.8026 76.4516 30.7479 78.0727 30.5618C79.6608 30.3798 81.1652 30.9185 82.6613 31.3414C83.2781 31.5162 83.8123 32.2142 84.2607 32.6505C84.8724 33.2451 85.0698 34.1116 85.2268 34.9274C85.8922 38.3749 85.3033 42.0023 84.7247 45.4135C84.1264 48.9447 83.4858 52.4863 82.6954 55.9802C81.905 59.4701 81.0267 62.9351 80.2105 66.4187C79.4128 69.8248 78.8911 73.2671 78.3114 76.7135C78.0107 78.4993 77.6729 80.2799 77.3836 82.0667C77.2596 82.8298 77.0467 83.6663 77.0219 84.4325C77.0096 84.8079 77.0963 85.176 77.0798 85.5565C77.055 86.1231 76.9817 86.6918 76.9155 87.2544C76.7161 88.9564 76.5095 90.7225 76.1323 92.3935C75.78 93.9528 75.4339 95.7903 74.6052 97.1769C73.7745 98.5676 73.1101 99.6782 71.6822 100.546C70.1861 101.456 68.5887 101.991 66.9635 102.614C66.5946 102.755 65.2101 103.134 65.0716 103.521C64.9879 103.754 65.2679 104.419 65.3444 104.633C65.4601 104.962 65.6347 105.26 65.7133 105.599H13.4856V105.604Z" fill="#568FFD"/>
<path d="M35.4419 105.552C35.537 104.732 35.6238 103.911 35.6992 103.089C35.7405 102.638 35.7756 102.185 35.8046 101.732C35.8294 101.354 36.0371 100.573 35.9079 100.206C35.7839 99.8529 35.538 99.9801 35.1795 99.9822C34.728 99.9853 34.2847 99.9232 33.8404 99.8478C33.0479 99.7133 32.1418 99.6751 31.4268 99.3059C30.8141 98.9905 30.1879 98.6752 29.755 98.1199C29.2043 97.4137 28.8613 96.483 28.6825 95.6134C28.3643 94.0696 28.7383 92.226 29.9131 91.0761C31.0786 89.9345 33.8962 89.1621 35.3892 88.5945C35.8325 88.4259 35.0896 88.2325 34.9759 87.7672C34.8767 87.364 34.5709 87.1561 34.4996 86.7456C34.3436 85.8481 34.3384 84.9009 34.6546 84.0375C34.947 83.2372 35.4822 82.5144 35.9947 81.8423C36.2468 81.5114 36.4173 81.3542 36.4121 80.9416C36.4039 80.2974 36.1879 80.4318 35.7064 80.2426C35.04 79.98 34.6257 79.2179 34.264 78.643C33.8063 77.915 33.3879 77.1633 33.1657 76.3268C32.957 75.5388 32.8495 74.5948 32.9735 73.7882C33.0242 73.4594 33.0707 73.0489 33.2515 72.7625C33.5387 72.3085 33.5563 72.3334 33.4158 71.7409C33.1141 70.4659 32.8506 68.1342 34.1514 67.2894C34.513 67.0546 34.544 67.1405 34.8344 67.4558C35.0947 67.7402 35.3644 68.0194 35.5969 68.3275C35.7715 68.5602 36.5733 70.4204 36.8461 70.2694C36.9959 70.1867 37.0031 69.2809 37.03 69.0782C37.0889 68.6346 37.1488 68.1921 37.2077 67.7485C37.34 66.7558 37.4329 65.758 37.5776 64.7674C37.713 63.8388 37.9113 62.9206 38.0932 62.0003C38.1758 61.5857 38.2471 61.1648 38.3742 60.7605C38.429 60.5858 38.6594 59.7648 38.8691 59.6965C39.1192 59.6148 40.0584 60.4689 40.2309 60.6675C40.8529 61.384 41.3241 62.2692 41.7735 63.0985C42.6022 64.6257 43.1942 66.2543 44.0167 67.7878C44.4238 68.5478 44.8009 69.3212 45.1667 70.1009C45.4157 70.6313 45.3774 70.59 45.8693 70.378C46.2247 70.225 46.5119 70.3708 46.7072 70.0616C46.8043 69.9075 46.7609 69.3905 46.7775 69.2044C46.8033 68.919 46.8291 68.6336 46.8601 68.3482C46.92 67.794 47.0006 67.2418 47.0606 66.6876C47.1711 65.6794 47.2848 64.6691 47.3602 63.6579C47.5131 61.626 47.5575 59.6045 48.2787 57.6657C48.3779 57.3989 48.566 56.6337 48.8553 56.5624C48.9979 56.5272 49.4246 56.7888 49.5434 56.8509C50.2884 57.2438 51.0395 58.4236 51.5024 59.102C52.6679 60.8112 53.6588 62.2609 54.6062 64.0891C54.7664 63.2804 55.1993 59.7482 56.6448 60.3314C57.3381 60.6106 57.3815 62.1182 57.4497 62.7314C57.5013 63.1998 57.5344 63.6713 57.5499 64.1418C57.5623 64.5409 57.4734 65.0228 57.5923 65.4023C57.8247 64.9308 58.0262 64.3031 58.5883 64.7788C59.1008 65.213 59.2713 65.8686 59.2981 66.5118C59.3601 67.9987 59.4087 69.7038 59.0109 71.1484C58.9282 71.4462 58.7639 71.7326 58.8073 72.05C58.858 72.4171 59.107 72.8121 59.2485 73.1471C59.4045 73.5163 59.6102 73.8999 59.7259 74.2825C59.7972 74.5172 59.7744 74.7188 60.009 74.8636C60.1681 74.9618 60.3623 74.9163 60.5339 74.9525C60.8717 75.0229 61.2096 75.1655 61.5392 75.27C62.3151 75.515 62.7636 75.7353 63.305 76.3495C63.7513 76.8562 64.1522 77.4042 64.4198 78.0277C64.5263 78.2749 64.5759 78.7526 64.735 78.9511C64.8104 79.0442 64.7784 79.0917 64.8817 79.1465C64.9974 79.2076 65.4717 78.9511 65.607 78.9056C67.1 78.3969 68.6054 77.9264 70.114 77.4642C70.4838 77.3504 70.8537 77.2367 71.2247 77.124C71.4623 77.0516 71.9903 76.9875 72.1659 76.8065C72.3457 76.6204 72.3623 76.0755 72.417 75.8273C72.5172 75.3724 72.6195 74.9174 72.7332 74.4655C73.1289 72.901 73.6538 71.4172 73.8925 69.8124C74.1187 68.2841 74.6085 66.8323 74.8503 65.3113C75.0941 63.7799 75.5384 62.6218 75.7895 61.0914C76.3216 57.8384 77.1885 54.3361 77.7195 51.0841C78.7641 44.6918 80.222 38.3821 81.4898 32.0322C82.0942 29.0035 83.0479 25.3513 84.3653 22.5222C85.2952 20.7644 88.0684 20.235 88.773 20.3673C89.5304 20.509 90.2557 20.3508 90.9779 20.7168C93.7459 22.119 93.747 25.6595 93.2045 28.3272C92.5856 31.3725 91.9171 34.4001 91.2838 37.4422C90.9552 39.018 90.7465 40.6115 90.4458 42.1904C90.142 43.7849 89.7401 45.3587 89.4281 46.9521C88.7885 50.2186 88.1138 53.4748 87.4298 56.732C86.7603 59.9199 86.1765 63.1284 85.4822 66.3101C84.7765 69.5466 84.1111 72.7128 83.5397 75.9814C83.2649 77.5562 83.0572 79.2014 82.6098 80.7379C82.2151 82.0935 81.5818 83.5608 80.532 84.5835C80.0484 85.055 79.4337 85.4231 78.8912 85.8264C78.323 86.2482 77.765 86.636 77.0841 86.8387C76.4073 87.0393 75.7213 87.1561 75.0435 87.3484C74.2872 87.5625 73.5587 87.8375 72.7807 87.9627C71.2743 88.2057 69.8711 88.8974 68.3833 89.2521C67.6673 89.4227 67.0081 89.6285 66.3261 89.9077C66.0689 90.0131 65.7878 90.0462 65.7517 90.3502C65.7145 90.6594 65.9418 91.2209 65.9759 91.5383C66.1433 93.0883 66.3861 94.629 66.5307 96.1832C66.6733 97.7146 66.5163 99.2284 66.5658 100.761C66.6185 102.363 66.7219 103.952 66.7498 105.556H35.4429L35.4419 105.552Z" fill="#2F5CFD"/>
<path d="M99.7603 11.818C98.693 11.5305 97.6195 11.2751 96.5428 11.0249C95.4755 10.7777 94.3865 10.4096 93.3047 10.2431C92.2487 10.0808 91.1514 10.1563 90.0872 10.0074C89.5665 9.93396 89.0571 9.81195 88.5374 9.73439C88.0559 9.66305 87.5517 9.66822 87.0857 9.51932C87.219 9.4976 87.2872 9.48726 87.3616 9.47485C87.252 9.34767 86.4399 9.40867 86.2849 9.40247C85.9357 9.38903 85.5854 9.37559 85.2362 9.35801C84.3642 9.31561 83.4942 9.23909 82.6232 9.17292C80.9514 9.0447 79.2652 8.91855 77.5893 8.91648C74.1197 8.91338 70.6615 8.86064 67.2312 9.449C65.6204 9.72509 64.0137 10.057 62.4318 10.4686C61.6879 10.6619 60.9481 11.0249 60.2052 11.182C59.8498 11.2575 59.8322 11.0786 59.5171 11.0497C59.1565 11.0156 58.5025 11.3723 58.1687 11.484C54.9399 12.5635 51.7958 13.704 48.725 15.1909C45.6946 16.6593 42.6558 18.1555 39.832 19.9992C37.0816 21.7942 34.9201 23.3804 32.4971 25.6222C31.2469 26.7793 29.3665 28.1845 28.1917 29.4192C27.6172 30.023 27.0593 30.6424 26.5024 31.2628C26.0446 31.7726 25.5879 32.1624 25.2211 32.7549C24.3522 34.1581 23.3252 35.4486 22.4345 36.8352C21.5098 38.2756 20.6625 39.7636 19.7409 41.206C18.7366 42.7767 17.879 44.3919 17.0101 46.0391C16.138 47.6914 15.265 49.29 14.5861 51.0344C13.8887 52.8264 13.2636 54.5698 12.7336 56.4217C12.4897 57.2738 12.1477 58.0824 11.8646 58.921C11.5743 59.7823 11.0318 60.8329 10.9915 61.7387C11.0804 61.6704 11.1785 61.6187 11.286 61.5857C11.1424 62.2309 10.8024 62.8451 10.632 63.4924C10.4377 64.2297 10.3334 64.9855 10.2249 65.7383C10.0265 67.1084 9.84671 68.4712 9.69793 69.8475C9.54294 71.2766 9.296 72.6994 9.16995 74.1315C9.04493 75.5543 9.08109 76.9958 9.05836 78.4227C9.01186 81.4183 9.26707 84.389 9.54088 87.3691C9.80538 90.2468 10.1257 93.1266 10.7281 95.9577C11.4172 99.1973 12.469 102.343 13.2781 105.552H4.59895C3.88912 103.591 3.24955 101.616 2.7474 99.5882C2.25765 97.6101 1.72451 95.5751 1.50753 93.5453C1.30192 91.6252 1.30605 89.6843 0.836963 87.7993C0.586921 86.7932 0.511496 85.816 0.486698 84.7809C0.460868 83.7397 0.605519 82.5847 0.415405 81.562C0.415405 81.045 0.415405 80.528 0.415405 80.011C0.600353 79.4877 0.490831 78.767 0.511496 78.2149C0.530094 77.7051 0.595187 77.1974 0.606552 76.6866C0.656147 74.3466 0.696443 72.0117 1.1521 69.7017C1.60982 67.3824 1.8175 65.0072 2.32378 62.6993C2.57899 61.5371 3.01294 60.4234 3.21649 59.2477C3.4097 58.1289 3.75893 57.0763 4.11436 56.0009C4.87585 53.696 5.58878 51.3602 6.48769 49.1049C7.33494 46.98 8.46219 45.0185 9.31977 42.907C10.2249 40.6787 11.1744 38.5041 12.3781 36.4216C12.9619 35.4124 13.4568 34.3835 14.1356 33.4291C14.7979 32.4985 15.516 31.6092 16.2507 30.7344C16.9553 29.8958 17.5494 28.9818 18.2562 28.1421C19.0238 27.2301 19.8246 26.3512 20.6305 25.4733C22.294 23.6607 23.8625 21.8211 25.683 20.1553C27.3393 18.6405 29.0999 17.2414 30.8936 15.892C32.8143 14.4475 34.7082 12.7868 36.8222 11.6473C38.867 10.5461 40.8983 9.37042 42.9927 8.36224C47.3488 6.26523 51.7049 4.28404 56.4525 3.27897C61.1682 2.28113 65.9593 1.30397 70.7793 1.00514C73.2549 0.852105 75.7336 0.70941 78.2113 0.602905C79.4615 0.549136 80.6714 0.689763 81.9123 0.815914C83.0768 0.934827 84.2402 0.896569 85.4067 0.957576C90.2577 1.21195 95.0281 2.338 99.7603 3.33377V11.8128V11.818Z" fill="#2F5CFD"/>
<path d="M48.9772 56.5913C49.2572 56.735 49.4835 56.7857 49.7521 56.9532C50.0683 57.1497 50.3638 57.4516 50.5766 57.7453C51.0912 58.4557 51.5881 59.1784 52.0655 59.9147C53.0099 61.3726 53.7466 62.9206 54.6155 64.4148C54.7571 63.693 55.3377 59.6417 56.7729 60.4038C57.4125 60.744 57.4352 62.2443 57.4817 62.8585C57.5437 63.6858 57.4321 64.6577 57.647 65.4581C57.7627 65.212 57.9322 64.6526 58.2566 64.6216C58.5955 64.5895 58.9757 65.1717 59.1018 65.4178C59.5512 66.2956 59.3467 67.5179 59.3177 68.4681C59.3012 69.01 59.2919 69.558 59.2402 70.0978C59.1875 70.651 58.9902 71.1618 58.8951 71.7046C58.8073 72.2061 59.0419 72.5784 59.2351 73.0354C59.4438 73.5287 59.6225 74.0519 59.8292 74.5379C60.0048 74.9484 60.0875 74.9122 60.5183 75.0042C61.005 75.1076 61.4978 75.2886 61.9731 75.4344C62.8338 75.6991 63.4021 76.3629 63.9053 77.0868C64.176 77.4755 64.4064 77.8933 64.5769 78.3369C64.707 78.675 64.6822 79.1672 65.0687 79.1796C65.4479 79.192 66.0833 78.8187 66.4377 78.6978C66.913 78.5365 67.5298 78.2066 68.0351 78.2697C67.4823 78.7422 66.4108 78.8808 65.7196 79.0979C64.8341 79.3761 63.9497 79.6532 63.0642 79.9293C61.3955 80.4504 59.7279 80.9747 58.0572 81.4876C54.5184 82.5733 50.9754 83.6456 47.4273 84.6982C43.903 85.7436 40.3714 86.7632 36.8409 87.7858C36.3945 87.9151 35.9482 88.0505 35.5008 88.1746C35.0916 88.2884 35.0245 88.3432 34.8333 87.9492C34.4562 87.1716 34.3994 86.0673 34.4552 85.2183C34.5047 84.4749 34.8178 83.7562 35.1846 83.1131C35.5245 82.5175 36.3666 81.8309 36.4658 81.1618C36.5939 80.2902 35.9523 80.4773 35.415 80.0885C34.8075 79.6501 34.3684 78.8498 33.9985 78.2159C33.1874 76.822 32.7865 75.1872 33.0706 73.5793C33.1357 73.2102 33.2256 72.9713 33.4188 72.6601C33.6255 72.3271 33.6265 72.3985 33.5128 71.9332C33.3083 71.0966 33.1368 70.0864 33.2762 69.2292C33.3837 68.5664 33.5945 67.8312 34.1297 67.3959C34.4665 67.1218 34.4789 67.1136 34.7744 67.3803C35.0565 67.6357 35.2983 67.9687 35.5297 68.2696C35.7663 68.5757 35.9885 68.8962 36.1693 69.2395C36.3181 69.5228 36.4038 69.9871 36.6456 70.196C36.938 70.4483 36.9163 70.2704 36.9752 69.9489C37.0796 69.3884 37.1198 68.8052 37.1922 68.2406C37.4143 66.4962 37.6613 64.756 37.9392 63.0188C38.0653 62.2319 38.2016 61.4481 38.4909 60.7016C38.555 60.5361 38.7482 59.8102 38.9125 59.7503C38.9549 59.7347 39.4064 60.0046 39.4704 60.0429C40.7692 60.8143 41.6051 62.599 42.2364 63.9143C43.0588 65.6297 43.7976 67.3648 44.6572 69.0648C44.867 69.4794 45.0364 70.0492 45.3278 70.4018C45.6574 70.7999 45.7132 70.4224 46.1575 70.3201C46.5997 70.2177 46.7051 70.4049 46.7847 69.8651C46.8591 69.3636 46.8787 68.8456 46.9345 68.341C47.1608 66.2863 47.3653 64.239 47.4914 62.1751C47.6112 60.2001 48.009 58.3688 48.8718 56.5913C48.9059 56.5913 48.941 56.5913 48.9751 56.5913H48.9772Z" fill="#FEB574"/>
<path d="M35.4935 105.604C35.6093 104.537 35.7084 103.47 35.7973 102.4C35.8231 102.094 36.1269 99.9615 35.7756 100.013C45.9756 96.7343 56.1364 93.3716 66.2796 89.919C66.2868 89.9376 66.2941 89.9562 66.3013 89.9748C65.7991 90.2757 65.8146 90.2964 65.9138 90.8931C66.0275 91.5734 66.0482 92.2549 66.136 92.9373C66.3147 94.3178 66.5689 95.6713 66.6464 97.0652C66.7229 98.4425 66.5637 99.8229 66.6299 101.201C66.7001 102.672 66.76 104.134 66.8003 105.605H35.4935V105.604Z" fill="#FEB574"/>
<path d="M35.4934 105.604C35.6102 104.556 35.7156 103.511 35.7941 102.459C35.8209 102.104 36.1991 99.9387 35.7114 99.9801C46.022 96.9628 56.1177 93.3334 66.3022 89.9676C65.9075 90.1992 65.8218 90.1951 65.8734 90.647C65.9395 91.2312 66.0346 91.802 66.079 92.3903C66.1214 92.9539 66.2268 93.5081 66.328 94.0634C66.3818 94.3571 66.6938 95.449 66.515 95.7116C66.3446 95.9619 65.486 96.0601 65.1884 96.1563C64.5416 96.3651 63.8948 96.573 63.248 96.7819C62.0215 97.1779 60.7941 97.5739 59.5676 97.97C54.479 99.613 49.3893 101.256 44.3006 102.898C42.8934 103.352 41.4851 103.808 40.0768 104.261C38.7253 104.695 37.1858 104.989 35.9077 105.603H35.4944L35.4934 105.604Z" fill="#E26C2A"/>
<path d="M39.7473 86.9379C38.681 87.2523 37.6137 87.5594 36.5463 87.8696C36.2178 87.9647 35.3189 88.4197 35.0079 88.2543C34.6875 88.0847 34.5946 87.0569 34.545 86.7415C34.3693 85.6289 34.422 84.6786 34.9376 83.6653C35.1639 83.2206 35.4284 82.8029 35.7187 82.3975C36.008 81.9912 36.4296 81.6075 36.4637 81.0978C36.4926 80.6718 36.2973 80.4691 36.2333 80.1041C36.1516 79.6408 36.2663 79.0318 36.2694 78.5551C36.2767 77.2905 36.2767 76.0228 36.3386 74.7602C36.4575 72.3716 36.9286 69.9737 37.2624 67.6079C37.4556 66.2388 37.6292 64.8667 37.841 63.4997C37.9412 62.8493 38.0631 62.2082 38.2274 61.5702C38.3586 61.0583 38.5115 60.0481 38.9992 59.7389C39.0281 59.9447 39.3464 59.9199 39.4766 60.0378C39.7183 60.258 39.6687 60.5103 39.6605 60.8071C39.6419 61.4626 39.5799 62.1203 39.5396 62.7748C39.4518 64.1863 39.3712 65.5967 39.3092 67.0092C39.1821 69.9406 39.1904 72.8711 39.2121 75.8036C39.2172 76.5274 39.2234 77.2502 39.2307 77.974C39.2348 78.4383 39.209 79.9428 39.209 79.9428C38.994 80.285 38.2811 80.3646 37.9216 80.5642C37.6292 80.7266 36.7757 81.2063 36.7137 81.5703C36.6827 81.7533 36.6941 82.4327 36.7747 82.6943C37.6643 85.5958 38.7182 86.2689 39.7483 86.939L39.7473 86.9379Z" fill="#E26C2A"/>
<path d="M60.047 80.863C58.1676 81.4555 56.283 82.0346 54.4046 82.6312C54.0274 82.7512 53.7381 82.9373 53.4178 82.6571C53.1585 82.4306 53.0531 81.9912 53.0583 81.6675C53.0717 80.8 52.771 80.1206 53.1564 79.2624C53.3569 78.8146 53.548 78.3638 53.7299 77.9078C53.8683 77.5604 53.9045 77.1519 54.325 77.2739C54.6887 77.3794 54.854 77.9192 55.0183 78.2035C55.1991 78.5158 55.4171 78.8064 55.6713 79.0628C56.1714 79.5674 56.7955 79.9283 57.4578 80.1785C58.2843 80.4898 59.2576 80.497 60.047 80.863Z" fill="#E26C2A"/>
<path d="M48.8066 56.6916C48.7735 59.348 48.7497 62.0034 48.7043 64.6598C48.6815 65.9762 48.6371 67.2935 48.5741 68.6088C48.5369 69.3946 48.4098 70.1888 47.1741 70.3728C46.3433 70.499 46.8135 69.6893 46.862 69.2085C46.9271 68.5591 46.9963 67.9098 47.0635 67.2594C47.1937 66.0082 47.3146 64.7581 47.4024 63.5038C47.4902 62.2495 47.5347 61.0004 47.7888 59.7648C47.9944 58.7679 48.2218 57.5457 48.8066 56.6927V56.6916Z" fill="#E26C2A"/>
<path d="M44.808 81.9395C44.8163 81.8423 44.8245 81.744 44.8328 81.6468C45.4434 81.8588 45.9652 82.1132 46.6151 82.2186C47.4024 82.3469 48.1929 82.4585 48.9843 82.5568C49.7251 82.6488 50.4701 82.7543 51.2171 82.7346C51.8174 82.7191 52.7163 82.5506 53.1988 82.9735C52.2524 83.4316 51.0911 83.628 50.0826 83.9258C49.0132 84.2412 47.9438 84.5586 46.8734 84.8719C46.3868 85.0146 45.9012 85.1708 45.4114 85.299C44.7615 85.4686 44.9991 85.2183 44.9475 84.6838C44.9103 84.2888 44.7594 83.9051 44.7284 83.4998C44.6881 82.9724 44.7801 82.4647 44.8318 81.9415C44.8245 81.9415 44.8163 81.9405 44.809 81.9395H44.808Z" fill="#E26C2A"/>
<path d="M40.0913 105.604C40.2225 104.235 40.3589 102.867 40.518 101.501C40.5935 100.849 40.7629 99.2449 40.8662 98.5211C41.0501 98.2378 41.3508 98.2874 41.6794 98.2078C43.005 97.8841 44.3151 97.3392 45.6139 96.9132C47.0563 96.4406 48.4997 95.9712 49.9369 95.4811C52.6512 94.5556 55.3397 93.6302 58.1211 92.9374C58.8155 92.7647 61.6506 91.6976 61.7901 91.773C61.9441 92.7306 62.2065 95.1047 62.3129 95.8688C62.7645 99.1043 62.8306 102.344 62.874 105.604H40.0913Z" fill="#F1ECF0"/>
<path d="M53.8146 82.808C52.8072 83.1131 51.7987 83.414 50.7903 83.7139C50.2406 83.8772 49.6889 84.0385 49.1402 84.206C48.9067 84.2774 48.6618 84.3818 48.4211 84.4242C48.2279 84.4583 47.6069 84.6093 47.5036 84.6714C47.3073 84.7903 46.9725 84.8347 46.7514 84.9009C46.333 85.026 45.9135 85.148 45.494 85.268C44.9836 85.4138 45.2181 83.5743 44.9991 83.0107C44.8069 82.5154 44.281 81.6572 43.9462 81.3253C43.4038 80.7876 43.4802 80.0327 43.8346 79.4206C44.7087 77.9078 46.1924 76.6659 47.9717 76.5615C48.9408 76.5046 49.9276 76.6721 50.8606 76.9296C51.3338 77.0609 51.8225 77.2078 52.2606 77.4342C52.397 77.5045 52.5365 77.5831 52.6615 77.6731C52.8475 77.8075 53.1977 77.9626 53.3682 78.0464C53.6379 78.1787 53.8228 77.7289 53.9985 77.4838C54.2454 77.1395 54.4944 76.7952 54.7972 76.4974C55.445 75.8625 56.2881 75.239 57.154 74.9432C57.6819 74.7623 58.2368 74.7354 58.7906 74.7158C59.0158 74.7075 59.2462 74.6899 59.4704 74.6982C60.0563 74.7199 59.5738 74.7447 59.9416 74.8678C60.8012 75.1552 61.8582 75.2152 62.6476 75.7157C63.3905 76.1872 64.027 77.1468 64.3969 77.9202C64.5384 78.217 64.6056 78.8891 64.8133 79.0918C65.0519 79.3254 57.8762 81.5765 53.8156 82.808H53.8146Z" fill="#F1ECF0"/>
<path d="M56.7263 60.3138C57.9816 61.5764 57.2966 63.8895 57.6345 65.4509C57.7595 65.2172 57.9227 64.6743 58.241 64.6237C58.553 64.574 58.927 65.1148 59.0562 65.3392C59.5273 66.1602 59.3672 67.279 59.3486 68.1838C59.3362 68.7732 59.3259 69.3667 59.2752 69.9541C59.2453 70.3025 59.2194 71.3355 58.9353 71.6054C58.6501 71.8753 58.4993 71.5072 58.3226 71.1866C58.0478 70.6882 57.8938 70.1092 57.6923 69.5798C57.3307 68.6305 56.6519 67.8984 56.2479 66.9812C56.0691 66.5769 55.9958 66.0868 55.7034 65.7446C55.3696 65.3547 55.0845 65.1365 54.8416 64.6423C54.6598 64.2731 54.6205 63.8078 54.8106 63.4097C54.8964 63.2319 54.9791 62.7728 55.0214 62.537C55.1082 62.052 55.2405 61.7956 55.4368 61.322C55.5918 60.9498 55.7519 60.6995 55.848 60.3655C56.0206 60.3655 56.5537 60.3138 56.7263 60.3138Z" fill="#F1ECF0"/>
<path d="M32.962 74.0664C33.0116 73.8523 33.0323 73.6249 33.1191 73.4263C33.2451 73.1358 33.4249 72.869 33.5685 72.5846C33.6068 72.5081 33.6202 72.3995 33.5995 72.3168C33.3495 71.3117 33.1232 70.2922 33.2823 69.2592C33.4012 68.4888 33.6016 67.7071 34.3724 67.2759C34.4416 67.2366 34.6038 67.2511 34.6524 67.3038C35.0347 67.7237 35.4366 68.1342 35.759 68.5984C36.0338 68.9955 36.1981 69.467 36.4388 69.891C36.5473 70.0823 36.7251 70.2322 36.8594 70.4101C36.9059 70.4711 36.9451 70.56 36.94 70.6334C36.7591 73.3467 36.5835 76.06 36.3758 78.7702C36.3407 79.2251 36.1888 79.6749 36.0545 80.1154C35.977 80.3708 35.7859 80.4381 35.5658 80.2312C35.3343 80.0141 35.0543 79.829 34.8849 79.5715C34.4199 78.8632 33.9705 78.1415 33.5727 77.3939C33.2017 76.6959 33.0364 75.9266 33.0106 75.1325C33.0096 75.0859 32.9796 75.0404 32.9631 74.9949C32.9631 74.6847 32.9631 74.3745 32.9631 74.0643L32.962 74.0664Z" fill="#E2975C"/>
<path d="M40.2504 103.953C40.4054 102.523 40.548 101.102 40.7185 99.6844C40.7671 99.2801 40.7629 98.9347 40.8663 98.5211C40.891 98.4239 41.2165 98.3205 41.3446 98.2884C43.5216 97.7487 45.616 96.9463 47.7527 96.2824C50.3606 95.4718 52.9344 94.5473 55.5484 93.7594C57.2904 93.2341 61.0741 91.9002 61.3242 91.7999C61.8408 91.5931 61.817 91.7203 61.8573 92.0936C62.1507 93.7646 62.2541 95.2122 62.4318 96.7798C62.4432 96.8656 62.4535 96.9825 62.4587 97.0393C62.4607 97.06 62.4494 97.0786 62.4297 97.0869C62.3781 97.1086 62.2716 97.1531 62.1879 97.18C56.9577 98.8644 51.7306 100.557 46.5025 102.247C44.5135 102.889 42.5235 103.526 40.5356 104.171C40.3724 104.224 40.144 104.415 40.2515 103.953H40.2504Z" fill="#E2975C"/>
<path d="M60.0719 80.9106C58.6657 81.349 57.3307 81.7657 55.9958 82.1824C55.2746 82.4078 54.5555 82.6405 53.8291 82.8483C53.7227 82.8783 52.9788 81.9446 53.0986 81.4172C53.1462 81.2063 53.0449 80.9457 52.9653 80.7244C52.8393 80.3729 53.6421 78.2469 53.9676 77.519C54.1091 77.2025 54.2982 76.7134 54.5059 76.9099C54.6092 77.4269 54.7363 77.6648 54.7921 77.794C55.4172 79.2427 56.592 80.0099 58.0457 80.4204C58.6874 80.6014 59.3424 80.7348 60.0729 80.9095L60.0719 80.9106Z" fill="#E2975C"/>
<path d="M44.8731 85.0581C44.9155 84.7137 44.962 84.3766 44.993 84.0385C45.0002 83.9599 44.9754 83.8669 44.9341 83.7986C44.682 83.384 44.6375 82.9528 44.7677 82.4844C44.8215 82.29 44.4464 81.4927 44.5848 81.562C46.0045 82.2734 47.9862 82.4958 49.5113 82.6829C50.4432 82.7977 51.3969 82.7232 52.3403 82.7563C52.5903 82.7656 53.018 82.7408 53.264 82.8029C53.3053 82.8132 53.1565 82.9838 53.1916 83.019C53.1513 83.0438 53.1141 83.08 53.0697 83.0934C51.4403 83.5794 49.8119 84.0633 48.1805 84.5431C48.103 84.5659 47.5533 84.7261 47.4913 84.7437C46.7092 84.9743 45.928 85.209 45.1418 85.4251C44.7295 85.5379 45.0054 85.1615 44.8731 85.057V85.0581Z" fill="#E2975C"/>
<path d="M51.0591 58.2209C51.7421 59.1164 52.4116 60.0232 53.0574 60.9456C53.5575 61.6601 54.011 62.4077 54.5029 63.1656C54.6134 62.7334 54.7085 62.3208 54.8263 61.9155C55.0226 61.2413 55.2571 60.5909 55.8285 60.1163C56.156 59.8444 56.5734 59.833 56.8782 60.2828C57.4145 61.0748 57.6242 61.9786 57.7699 62.9009C57.8402 63.3466 57.865 63.7985 57.9208 64.2462C57.9249 64.2783 58.0375 64.3362 58.0706 64.3207C58.5407 64.0973 58.6626 64.1914 59.0057 64.5719C59.6122 65.244 59.607 66.0568 59.6318 66.8561C59.6607 67.7991 59.6504 68.7484 59.5739 69.6883C59.5243 70.3056 59.3198 70.9095 59.203 71.5237C59.173 71.6798 59.1699 71.869 59.2309 72.0097C59.5967 72.8524 59.981 73.6879 60.3737 74.5182C60.4171 74.6092 60.5493 74.693 60.6526 74.7137C61.5743 74.8967 62.4876 75.1169 63.1913 75.787C63.5829 76.1592 63.9486 76.577 64.2441 77.0278C64.5541 77.4993 64.7824 78.0277 65.0118 78.5468C65.1048 78.7567 65.1151 79.0069 65.143 79.2406C65.1472 79.2758 65.0438 79.3637 64.9963 79.3595C64.8858 79.3492 64.7204 79.3295 64.6812 79.2582C64.5376 78.9894 64.4394 78.6978 64.3196 78.4165C63.9476 77.5427 63.4299 76.7641 62.7036 76.152C62.4287 75.9204 62.0692 75.7797 61.7355 75.6277C60.8603 75.2307 59.9087 75.21 58.9798 75.1759C57.3194 75.1159 55.906 75.756 54.848 77.0288C54.3995 77.5686 54.0854 78.2407 53.8013 78.8922C53.5637 79.4391 53.4335 80.0389 53.3012 80.6252C53.1566 81.2704 53.3198 81.8608 53.7362 82.381C53.7775 82.4327 53.8075 82.5681 53.7837 82.5857C53.7104 82.6405 53.5947 82.7036 53.5192 82.6819C53.1617 82.5785 52.58 81.806 52.611 81.4276C52.6523 80.9271 52.7205 80.4225 52.8383 79.9355C52.9571 79.4464 53.1462 78.9738 53.3157 78.4982C53.3601 78.3731 53.3663 78.3389 53.2175 78.2935C53.0532 78.2438 52.8879 78.1404 52.7639 78.0194C52.1564 77.4259 51.4001 77.1509 50.5921 77.0247C49.7841 76.8985 48.9668 76.7879 48.1516 76.7703C47.387 76.7548 46.6762 77.0123 46.0201 77.4445C45.4445 77.823 44.8628 78.19 44.4743 78.7639C44.1933 79.1806 43.9867 79.6491 43.7656 80.104C43.7346 80.1671 43.7831 80.3088 43.841 80.3698C44.7657 81.3366 45.2141 82.505 45.2885 83.8234C45.3216 84.4128 45.3123 85.0053 45.3051 85.5957C45.3051 85.6816 44.8608 85.846 44.8463 85.6102C44.8101 85.0074 44.7471 84.4066 44.6862 83.8058C44.558 82.5474 44.1747 81.3873 43.1446 80.5849C42.7726 80.2953 42.2539 80.1868 41.7942 80.0192C41.1907 79.8 40.6028 79.9562 40.0077 80.1102C39.2183 80.3139 38.4599 80.5849 37.7625 81.0088C36.8874 81.5413 36.0887 82.168 35.6072 83.0965C35.2435 83.7976 35.0348 84.5483 34.9624 85.3486C34.8746 86.3144 35.0658 87.214 35.4191 88.0981C35.447 88.1684 35.4315 88.3018 35.3819 88.3473C35.2931 88.429 35.1887 88.4703 35.0523 88.3483C34.701 88.034 34.5998 87.5987 34.5016 87.1871C34.2361 86.0797 34.3043 84.965 34.6359 83.8834C34.8943 83.0427 35.322 82.2827 35.9481 81.6458C36.006 81.5868 36.0256 81.4814 36.0422 81.3924C36.0597 81.3025 36.0566 81.2084 36.0546 81.1163C36.0463 80.8361 36.0515 80.6014 35.6929 80.4494C35.0317 80.1702 34.6081 79.5767 34.1958 79.0214C33.5531 78.1559 33.0561 77.2046 32.834 76.1354C32.6687 75.3392 32.649 74.5317 32.7865 73.7293C32.8609 73.2898 32.8836 72.7749 33.1316 72.4481C33.4829 71.9838 33.2535 71.5919 33.1987 71.1762C33.0944 70.3821 33.0448 69.5963 33.1543 68.7949C33.2225 68.2975 33.2969 67.8136 33.58 67.3958C33.9282 66.8809 34.6731 66.6824 35.1856 67.3276C35.789 68.0876 36.2653 68.9138 36.6652 69.8475C36.7685 68.9603 36.8491 68.1145 36.971 67.2738C37.1291 66.1891 37.2986 65.1034 37.5073 64.028C37.7584 62.7345 38.0539 61.4502 38.3359 60.1628C38.3721 59.9984 38.4424 59.7865 38.5033 59.7027C38.6955 59.4369 38.9631 59.3925 39.3113 59.4897C39.7845 59.6231 39.9943 59.986 40.2154 60.3314C41.0926 61.7046 41.977 63.0757 42.7891 64.4871C43.3688 65.4953 43.8327 66.5707 44.3576 67.612C44.7678 68.4257 45.1873 69.2343 45.614 70.0388C45.646 70.0998 45.7752 70.1557 45.8454 70.1422C46.0449 70.104 46.299 70.0843 46.4158 69.953C46.546 69.8072 46.5883 69.5487 46.5997 69.3357C46.6369 68.6646 46.6193 67.9904 46.6658 67.3204C46.7351 66.3194 46.8322 65.3206 46.9334 64.3227C47.0719 62.9671 47.1948 61.6094 47.3808 60.26C47.5244 59.2239 47.7394 58.1961 47.9594 57.1714C48.0121 56.9263 48.1888 56.6957 48.35 56.492C48.414 56.4114 48.6135 56.2315 49.0267 56.2832C49.44 56.3349 50.4929 57.4837 51.057 58.223L51.0591 58.2209ZM45.5045 77.0878C45.5262 77.0743 45.5592 77.0495 45.5954 77.0319C46.0903 76.7951 46.5646 76.4818 47.0863 76.3453C47.6309 76.2037 48.2198 76.2337 48.7891 76.1892C48.9338 76.1778 49.0051 76.1406 48.9575 75.9638C48.879 75.6681 48.8201 75.3651 48.7839 75.0621C48.7705 74.9525 48.816 74.8077 48.8873 74.723C49.1466 74.4086 49.6198 74.4924 49.7924 74.8688C49.9794 75.2793 50.0796 75.7011 50.0558 76.1447C50.0476 76.2936 50.0713 76.334 50.215 76.3484C51.4455 76.4798 52.5242 76.974 53.4676 77.764C53.5833 77.8602 53.5905 77.8602 53.6763 77.734C54.0348 77.2077 54.3696 76.6514 54.8004 76.1892C55.3935 75.5543 56.1746 75.1748 56.9919 74.8894C57.8154 74.6009 58.6699 74.5482 59.5316 74.6051C59.7517 74.6196 59.7413 74.5482 59.6742 74.4034C59.3508 73.7034 59.0336 73.0003 58.6988 72.3064C58.2783 71.4327 57.8433 70.5662 57.4135 69.6966C56.9836 68.828 56.5683 67.9511 56.1126 67.096C55.7613 66.4352 55.3697 65.7941 54.974 65.1582C54.0741 63.7126 53.1824 62.2609 52.2453 60.8391C51.6739 59.9715 51.0426 59.1402 50.403 58.3192C50.0527 57.8694 49.6322 57.4733 49.2344 57.0618C49.1611 56.9853 49.0288 56.8477 48.8222 56.8477C48.6155 56.8477 48.5949 57.1424 48.5318 57.311C48.4037 57.6522 48.349 58.0234 48.2797 58.3843C48.2208 58.6925 48.1816 59.0047 48.1382 59.316C47.977 60.4803 47.7848 61.6415 47.665 62.8099C47.4883 64.5368 47.356 66.2688 47.2227 67.9997C47.1669 68.7235 47.1618 69.4525 47.1246 70.1774C47.1204 70.257 47.0502 70.4038 47.0264 70.4007C46.7547 70.4959 46.485 70.5579 46.2205 70.6458C45.5603 70.865 44.9042 71.0987 44.2522 71.3396C43.8616 71.4265 43.9639 71.0853 44.0115 71.0015C44.2749 70.8071 44.3473 70.7502 44.8949 70.4969C45.1015 70.3935 45.0943 70.3408 45.0333 70.2229C44.9031 69.9737 44.7647 69.7276 44.6376 69.4773C44.3276 68.8683 44.0177 68.2603 43.7139 67.6481C43.314 66.8426 42.9555 66.0134 42.5133 65.2316C41.9254 64.1935 41.2889 63.1822 40.6431 62.1782C40.204 61.4957 39.7153 60.8453 39.2421 60.1866C39.1966 60.1235 39.085 60.0481 39.0344 60.0656C38.9693 60.0884 38.9083 60.1928 38.8908 60.2724C38.7337 60.9849 38.5756 61.6973 38.4372 62.4129C38.2078 63.5999 37.9712 64.786 37.777 65.9782C37.6085 67.0174 37.4918 68.0649 37.3585 69.1092C37.2397 70.0399 37.0909 70.9684 37.0217 71.9021C36.9111 73.4004 36.844 74.9029 36.7789 76.4032C36.7169 77.8323 36.6786 79.2613 36.6332 80.6914C36.6301 80.7813 36.6559 80.8733 36.6673 80.9633C36.7561 80.924 36.8553 80.8992 36.9318 80.8434C37.5848 80.3605 38.2925 79.9696 39.0716 79.7587C39.7742 79.5684 40.4995 79.4609 41.2186 79.3378C41.3984 79.3068 41.604 79.3171 41.7766 79.3719C42.2167 79.5115 42.6455 79.6915 43.0816 79.8435C43.127 79.859 43.2303 79.8145 43.2531 79.77C43.3853 79.5177 43.4742 79.2386 43.6302 79.0028C43.8823 78.6212 44.1799 78.2697 44.4444 77.8954C44.4971 77.8209 44.527 77.6854 44.4971 77.6048C44.3183 77.1229 44.2388 76.6359 44.4403 76.1499C44.4991 76.0083 44.6541 75.8532 44.7957 75.8128C45.0003 75.7539 45.1573 75.9576 45.2224 76.1137C45.3495 76.4198 45.4115 76.7528 45.5045 77.0857V77.0878ZM33.3465 75.5864C33.3992 76.2016 33.6781 76.7807 33.9179 77.3473C34.3477 78.3638 35.0038 79.2241 35.8965 79.89C36.0194 79.981 36.0577 79.9438 36.0566 79.8062C36.0566 79.5839 36.0535 79.3616 36.0628 79.1403C36.1259 77.7092 36.1837 76.2771 36.2591 74.846C36.3129 73.8296 36.3986 72.8152 36.4534 71.7987C36.4792 71.32 36.6507 70.8464 36.3046 70.3707C36.0246 69.9851 35.9027 69.4887 35.6599 69.071C35.3923 68.6108 35.0833 68.1714 34.762 67.7453C34.4768 67.3679 34.1958 67.4176 33.9902 67.8498C33.954 67.9263 33.9199 68.007 33.8982 68.0886C33.5035 69.5259 33.6533 70.9519 34.079 72.3437C34.357 73.2515 34.7661 74.1191 35.1081 75.0073C35.1288 75.0611 35.0885 75.1769 35.0399 75.21C34.8478 75.3413 34.5326 75.1872 34.4024 74.8791C34.1534 74.2918 33.9272 73.6941 33.6864 73.1037C33.6606 73.0406 33.5996 72.8824 33.5645 72.931C33.5294 72.9796 33.4984 73.0478 33.4911 73.1088C33.4074 73.8378 33.2194 74.117 33.3454 75.5864H33.3465ZM57.8237 65.5574C57.7534 65.7187 57.5189 65.7073 57.4641 65.5408C57.4372 65.4612 57.4176 65.3847 57.4083 65.3061C57.3215 64.5668 57.2802 63.8222 57.1882 63.084C57.0983 62.355 56.9454 61.6353 56.6003 60.9766C56.5662 60.9115 56.528 60.8494 56.4867 60.7884C56.3761 60.623 56.1364 60.6085 56.0052 60.7574C55.9452 60.8256 55.8894 60.896 55.845 60.9725C55.3997 61.7439 55.2179 62.6021 55.0763 63.4686C55.0246 63.784 55.0009 64.0787 55.2075 64.393C55.7035 65.1468 56.1705 65.9234 56.5962 66.7186C57.1159 67.6885 57.5819 68.6873 58.0696 69.6748C58.2824 70.104 58.4911 70.5352 58.7019 70.9663C58.8579 70.3118 59.0005 69.6614 59.0408 69.0048C59.0894 68.2231 59.0801 67.4341 59.0377 66.6513C59.0119 66.1819 59.046 65.9978 58.9457 65.5346C58.891 65.2813 58.6585 64.8273 58.4291 64.8108C58.2049 64.7942 57.9972 65.0445 57.9425 65.2368C57.9125 65.3423 57.8712 65.4457 57.8226 65.5563L57.8237 65.5574Z" fill="#5C2E2E"/>
<path d="M66.542 105.604C66.5162 104.365 66.4903 103.126 66.4645 101.887C66.4387 100.66 66.4428 99.4331 66.3787 98.2088C66.3157 97.0062 66.2176 95.8026 66.0719 94.6073C65.9045 93.23 65.6679 91.8599 65.4602 90.4877C65.455 90.4546 65.4416 90.4226 65.4313 90.3905C65.3899 90.2561 65.3775 90.1134 65.5553 90.0969C65.6451 90.0876 65.7919 90.1413 65.8311 90.2116C65.9499 90.4247 66.0719 90.6511 66.1142 90.8869C66.2981 91.8909 66.4872 92.896 66.6133 93.9093C66.7507 95.0209 66.8499 96.1397 66.9119 97.2585C66.9894 98.6462 67.0162 100.037 67.0586 101.427C67.0958 102.657 67.1227 103.888 67.1568 105.117C67.1578 105.16 67.194 105.201 67.2146 105.242C67.2818 105.55 67.1619 105.666 66.852 105.607C66.7517 105.589 66.6463 105.604 66.543 105.604H66.542Z" fill="#5C2E2E"/>
<path d="M35.0803 105.604C35.2156 104.431 35.3479 103.256 35.4894 102.082C35.5803 101.328 35.6816 100.576 35.787 99.824C35.7953 99.763 35.8738 99.6627 35.9141 99.6647C36.0029 99.6689 36.1166 99.7051 36.1703 99.7702C36.3873 100.031 36.2757 100.336 36.2447 100.623C36.13 101.702 36.006 102.779 35.8872 103.858C35.8231 104.44 35.7622 105.022 35.6992 105.604H35.0792H35.0803Z" fill="#5C2E2E"/>
<path d="M46.3176 80.6293C46.0324 80.6324 45.3433 80.5332 45.0684 80.3243C44.7936 80.1154 44.8122 80.0213 44.7192 79.8517C44.6954 79.8083 44.7987 79.6294 44.8607 79.6191C45.0777 79.5829 45.1366 79.5901 45.3092 79.8052C45.4683 80.0203 45.7225 80.1154 46.7557 80.1154C47.6453 80.0265 48.5277 79.4723 49.2871 79.0328C49.7551 78.7629 50.0124 78.6378 50.4753 78.3576C50.5053 78.339 50.6819 78.2542 50.7346 78.0908C50.7935 77.9088 50.7574 77.7072 50.7894 77.5179C50.7997 77.458 50.7842 77.427 50.932 77.369C51.089 77.307 51.1397 77.4373 51.1634 77.5055C51.3918 78.1373 51.3422 78.5282 50.7222 78.8756C49.8874 79.342 49.0649 79.8455 48.1877 80.2137C47.5967 80.4618 46.6028 80.6262 46.3176 80.6293Z" fill="#5C2E2E"/>
<path d="M47.8922 77.0133C48.1071 76.9875 48.4481 76.8944 48.5803 77.1746C48.7611 77.5562 48.6289 77.6493 48.3644 77.9512C48.0999 78.2531 47.9769 78.3565 47.6762 78.4599C47.3756 78.5633 46.7556 78.4599 46.2649 78.3162C46.1605 78.2852 46.0045 78.098 46.0096 77.9894C46.0169 77.8416 46.1223 77.6503 46.2463 77.5645C46.7939 77.1829 47.6783 77.0392 47.8922 77.0133Z" fill="#5C2E2E"/>
<path d="M56.9319 78.8043C56.8368 79.6108 56.747 80.3501 56.6643 81.0895C56.6333 81.3687 56.592 81.3873 56.5703 81.6665C56.5579 81.8288 56.0516 81.9746 56.0578 81.8836C56.1095 81.0512 56.1859 80.2209 56.2748 79.3916C56.3099 79.0648 56.3905 78.7422 56.4608 78.4196C56.4721 78.3658 56.5455 78.2935 56.5734 78.2842C56.6726 78.2542 56.7955 78.3348 56.8265 78.402C56.8937 78.5447 56.9092 78.7122 56.9298 78.8032L56.9319 78.8043Z" fill="#5C2E2E"/>
<path d="M37.8162 87.5366C37.8182 87.5811 37.7118 87.6566 37.6457 87.6721C37.5589 87.6917 37.4669 87.8179 37.3646 87.6442C37.0836 87.1664 37.1311 86.6349 37.1084 86.1231C37.0846 85.5864 37.1384 85.0456 37.1745 84.508C37.1807 84.4221 37.2531 84.2929 37.3233 84.2681C37.469 84.2184 37.6095 84.2701 37.6509 84.4511C37.6808 84.5834 37.6364 85.2638 37.6633 85.5957C37.6901 85.9277 37.7717 86.6432 37.8162 87.5366Z" fill="#5C2E2E"/>
<path d="M41.7125 83.9879C41.6237 84.3301 41.5441 84.5917 41.4893 84.8575C41.354 85.5069 41.2331 86.1593 41.0957 86.8087C41.0812 86.8759 40.9769 86.9876 40.9541 86.9783C40.8498 86.9369 40.7134 86.8811 40.6731 86.7921C40.484 86.3827 40.6535 85.9722 40.733 85.572C40.8394 85.0322 40.9996 84.5038 41.1308 83.9693C41.1783 83.7728 41.2507 83.5681 41.4862 83.657C41.603 83.7014 41.6598 83.9031 41.7146 83.9879H41.7125Z" fill="#5C2E2E"/>
<path d="M60.2434 80.4629C60.2434 80.5259 59.8311 80.8661 59.7743 80.8393C59.5883 80.7503 59.61 80.4008 59.6049 80.163C59.5904 79.4247 59.5801 78.6864 59.578 77.9481C59.578 77.8799 59.6421 77.7527 59.6762 77.7527C59.7743 77.7537 59.9117 77.7754 59.9624 77.8426C60.2021 78.1601 60.2062 78.5416 60.2062 78.9201C60.2062 79.0307 60.2062 79.1414 60.2062 79.2531C60.1979 79.2531 60.2455 80.0596 60.2434 80.4629Z" fill="#5C2E2E"/>
<path d="M0.105469 78.0991C0.135432 77.8127 0.179861 77.5273 0.19226 77.2408C0.225323 76.4953 0.229456 75.7477 0.272852 75.0032C0.32658 74.1015 0.393739 73.1988 0.481564 72.2992C0.657213 70.4897 0.796699 68.675 1.05397 66.8768C1.22136 65.7073 1.58195 64.5657 1.83819 63.4076C1.99318 62.7076 2.1027 61.9962 2.25458 61.2951C2.45296 60.379 2.65858 59.4639 2.88899 58.556C3.0977 57.7339 3.32397 56.915 3.57918 56.1064C4.00384 54.7621 4.44606 53.4231 4.90481 52.0902C5.28608 50.9817 5.68594 49.8784 6.10853 48.7844C6.63134 47.4299 7.15519 46.0732 7.73689 44.7435C8.2938 43.4685 8.91787 42.2225 9.52748 40.9713C10.0668 39.8639 10.6124 38.7595 11.1837 37.6686C11.5164 37.0337 11.8946 36.4216 12.2738 35.8136C12.9475 34.732 13.6129 33.6432 14.3289 32.5895C14.985 31.6227 15.6597 30.6631 16.4026 29.7625C17.7582 28.1194 19.151 26.5063 20.5644 24.9129C21.3042 24.0795 22.1236 23.3174 22.9037 22.5202C23.4699 21.9411 24.0092 21.3341 24.5961 20.7778C25.5621 19.8627 26.5385 18.9559 27.548 18.0893C28.7476 17.0605 29.9751 16.0637 31.2129 15.0793C31.9392 14.5013 32.6894 13.9491 33.4612 13.4342C34.8044 12.5387 36.1548 11.6505 37.5373 10.816C38.6242 10.1594 39.7618 9.58448 40.8808 8.98165C41.5235 8.63525 42.1651 8.28471 42.8243 7.97243C43.936 7.44715 45.0581 6.94151 46.1833 6.44621C47.3757 5.92093 48.568 5.39564 49.7769 4.91068C50.6944 4.54257 51.6315 4.21685 52.5728 3.91181C53.7662 3.52509 54.9647 3.14663 56.1767 2.82505C57.8712 2.37525 59.575 1.95544 61.286 1.57388C62.1436 1.38258 63.026 1.29573 63.9001 1.18095C64.9416 1.04446 65.9841 0.915204 67.0287 0.8087C67.877 0.721841 68.7294 0.681515 69.5777 0.602929C70.3826 0.529513 71.1843 0.416804 71.9892 0.353728C72.8871 0.283414 73.787 0.250326 74.686 0.196556C74.8647 0.186216 75.0424 0.154161 75.2201 0.132446C76.3226 0.132446 77.424 0.132446 78.5265 0.132446C78.5461 0.154161 78.5719 0.196556 78.5854 0.193454C78.6205 0.183114 78.6504 0.154161 78.6814 0.132446C78.7507 0.132446 78.8189 0.132446 78.8881 0.132446C79.0338 0.160365 79.1795 0.205863 79.3262 0.212067C80.6694 0.2617 82.0136 0.280312 83.3558 0.355796C84.4923 0.42094 85.6247 0.547091 86.7592 0.652561C87.5362 0.724943 88.3142 0.794224 89.0891 0.887286C89.8692 0.981382 90.6473 1.09409 91.4232 1.21404C92.4998 1.38052 93.5827 1.52528 94.649 1.74449C96.2122 2.06711 97.7662 2.43833 99.3181 2.81575C99.532 2.86745 99.7128 3.06495 99.8957 3.21281C99.9102 3.22419 99.8172 3.4434 99.7727 3.4434C99.2107 3.45064 98.6352 3.50751 98.0875 3.41031C96.8187 3.18489 95.5685 2.85711 94.3028 2.61721C92.909 2.35353 91.5079 2.11985 90.1048 1.91407C89.1191 1.77034 88.1231 1.68762 87.1301 1.59146C85.7704 1.46117 84.4107 1.32778 83.0489 1.22748C82.1252 1.15924 81.1984 1.14062 80.2726 1.11167C79.1526 1.07755 78.0305 1.07858 76.9115 1.02585C75.4175 0.955531 73.9482 1.17681 72.4717 1.33192C71.7629 1.40637 71.0459 1.4012 70.334 1.44773C69.4764 1.50357 68.6188 1.56354 67.7633 1.64316C66.8685 1.72692 65.9738 1.82411 65.0821 1.93579C64.0458 2.06504 63.0043 2.17775 61.9783 2.36698C60.5958 2.62238 59.2113 2.88813 57.8547 3.25314C56.1333 3.71638 54.4316 4.25925 52.7381 4.81659C51.6687 5.16919 50.62 5.59004 49.5785 6.02019C47.9605 6.68921 46.3435 7.36133 44.7523 8.09031C43.4969 8.66627 42.2684 9.30633 41.0513 9.96087C39.6492 10.7147 38.2554 11.4871 36.8884 12.304C35.8283 12.9378 34.7837 13.6089 33.7897 14.341C32.1779 15.5281 30.5764 16.7358 29.0369 18.0149C27.673 19.1472 26.3877 20.3756 25.091 21.5864C24.3316 22.2947 23.6031 23.0382 22.8871 23.791C21.9179 24.8095 20.956 25.8363 20.024 26.8889C19.2264 27.7906 18.4525 28.715 17.7096 29.6622C17.07 30.478 16.4894 31.3383 15.8839 32.1811C15.297 32.9969 14.6936 33.8024 14.1326 34.6358C13.678 35.31 13.2419 36.0018 12.8545 36.7163C11.9246 38.4338 11.0102 40.1617 10.1237 41.9019C9.59464 42.9422 9.09869 44.0021 8.6451 45.0774C7.99003 46.6295 7.37526 48.1981 6.76669 49.7688C6.3069 50.9548 5.84712 52.144 5.44933 53.3528C4.92445 54.9472 4.45019 56.5593 3.97698 58.1703C3.70214 59.104 3.4428 60.0439 3.22685 60.9932C2.98301 62.0696 2.80943 63.1615 2.58005 64.2411C2.48086 64.7074 2.29695 65.1551 2.19052 65.6194C2.04484 66.2502 1.90432 66.8861 1.82063 67.5272C1.68424 68.5664 1.58092 69.6108 1.48896 70.6551C1.40424 71.6106 1.35464 72.5691 1.28748 73.5266C1.23375 74.2877 1.16143 75.0487 1.12733 75.8108C1.0798 76.911 1.04571 78.0122 1.03124 79.1135C1.01574 80.3626 1.00438 81.6127 1.03641 82.8608C1.06534 83.9775 1.11803 85.0963 1.22859 86.2079C1.36084 87.5449 1.56955 88.8747 1.7359 90.2086C1.83509 91.0037 1.89709 91.803 2.01074 92.5951C2.11613 93.3303 2.27112 94.0593 2.39614 94.7924C2.53356 95.5979 2.64618 96.4086 2.80013 97.211C2.96544 98.0744 3.15762 98.9337 3.35497 99.7909C3.53062 100.554 3.70007 101.321 3.92118 102.072C4.25698 103.214 4.62997 104.345 4.99987 105.477C5.08253 105.729 5.07116 105.821 4.76223 105.813C4.12059 105.795 4.12369 105.813 3.93875 105.202C3.62774 104.173 3.27955 103.155 3.00781 102.115C2.68027 100.863 2.4044 99.5975 2.1275 98.3329C1.92188 97.3961 1.73487 96.4551 1.56955 95.511C1.4218 94.6693 1.31021 93.8204 1.19139 92.9746C1.06017 92.0346 0.936184 91.0937 0.814263 90.1527C0.711974 89.3648 0.604518 88.5769 0.519794 87.7869C0.39374 86.6081 0.272852 85.4272 0.175728 84.2453C0.135432 83.7562 0.16333 83.262 0.155064 82.7708C0.155064 82.7108 0.124067 82.6509 0.107535 82.5919C0.107535 81.2818 0.107535 79.9727 0.107535 78.6626V78.3007C0.107535 78.2314 0.107535 78.1632 0.107535 78.0939L0.105469 78.0991Z" fill="black"/>
<path d="M34.4624 100.305C33.1832 100.302 32.2048 100.125 31.2904 99.6885C30.6539 99.3856 30.0991 98.9668 29.6961 98.3691C29.4636 98.0248 29.1578 97.7197 28.9821 97.3506C28.7734 96.9122 28.5719 95.8326 28.4914 95.5328C28.1163 94.6414 28.324 93.7584 28.6112 92.9177C29.2373 91.0875 30.5847 89.9232 32.3484 89.2717C34.1534 88.6048 35.9936 88.0299 37.8255 87.4363C39.6885 86.8335 41.5596 86.2513 43.4298 85.6702C44.7006 85.2752 45.9839 84.9164 47.2506 84.508C49.0629 83.9248 50.8618 83.3002 52.673 82.7139C54.3252 82.1793 55.9845 81.6706 57.6439 81.1577C59.296 80.6469 60.9513 80.1475 62.6044 79.6387C64.0747 79.1858 65.5419 78.7267 67.0111 78.2718C68.1446 77.9212 69.2791 77.5728 70.4146 77.2284C70.9105 77.0785 71.4086 76.9379 71.9076 76.7972C72.0915 76.7455 72.201 76.6566 72.2424 76.4477C72.4263 75.5202 72.6247 74.5948 72.8292 73.6714C73.133 72.2992 73.4626 70.9333 73.7529 69.5591C74.1156 67.8426 74.439 66.1178 74.7996 64.4013C75.3069 61.99 75.8514 59.5859 76.3443 57.1714C76.7038 55.4063 76.9911 53.6268 77.3372 51.8586C77.6885 50.0687 78.0749 48.2871 78.4428 46.5003C78.8468 44.5387 79.2559 42.5782 79.6465 40.6146C80.0463 38.6044 80.4162 36.5891 80.8171 34.58C81.1312 33 81.4588 31.4231 81.8049 29.8504C82.0963 28.5268 82.4517 27.2167 82.7245 25.89C82.897 25.0504 83.0499 24.2108 83.4818 23.4622C84.1865 22.2389 84.9883 21.0891 86.3335 20.4914C87.1828 20.114 88.0776 19.9847 89.0117 20.1802C89.333 20.2474 89.6802 20.1843 90.0129 20.2143C90.6803 20.2742 91.2383 20.6144 91.7797 20.9733C92.5866 21.5089 93.0588 22.2947 93.407 23.1788C93.7263 23.9874 93.8441 24.8188 93.8172 25.6812C93.7707 27.2105 93.5052 28.7098 93.2035 30.204C92.9173 31.6206 92.6342 33.0372 92.3407 34.4518C92.0266 35.9687 91.6991 37.4836 91.3819 39.0005C91.0626 40.5267 90.7516 42.0539 90.4344 43.5802C90.0594 45.3866 89.6729 47.191 89.3082 49.0005C88.9424 50.8111 88.6004 52.6258 88.2409 54.4375C87.9557 55.8737 87.6654 57.3089 87.3668 58.7431C87.0868 60.0874 86.7809 61.4254 86.5113 62.7717C86.2953 63.8481 86.1259 64.9349 85.914 66.0134C85.7539 66.8303 85.5504 67.6389 85.3819 68.4547C85.1071 69.7834 84.8457 71.1142 84.577 72.444C84.3456 73.5918 84.1131 74.7385 83.8786 75.8852C83.5356 77.5552 83.2039 79.2262 82.8392 80.8909C82.6749 81.6375 82.5664 82.4172 82.0963 83.0562C81.1705 84.3146 80.1879 85.5224 78.7445 86.2296C77.9623 86.6122 77.1822 87.0186 76.3639 87.3071C74.7438 87.8768 73.102 88.3856 71.4613 88.8943C69.5663 89.4816 67.6569 90.0224 65.7651 90.617C63.5684 91.3077 61.3852 92.0429 59.1906 92.744C56.8969 93.4761 54.5948 94.1803 52.3021 94.9134C51.0777 95.3053 49.8657 95.7323 48.6476 96.1428C47.4594 96.543 46.2732 96.9504 45.0819 97.3402C43.6943 97.7952 42.3067 98.2512 40.9097 98.6762C39.238 99.1849 37.5631 99.6823 35.8758 100.137C35.3386 100.282 34.76 100.273 34.4644 100.305H34.4624ZM34.7538 99.735C35.2104 99.6585 35.8934 99.5934 36.5485 99.4217C37.623 99.1394 38.6821 98.7982 39.7422 98.4642C41.3302 97.9638 42.9152 97.4561 44.4971 96.937C46.205 96.3755 47.9057 95.7923 49.6126 95.2277C51.0643 94.7479 52.518 94.2775 53.9749 93.8121C55.6715 93.2703 57.3721 92.745 59.0677 92.2001C60.3799 91.7782 61.6807 91.3201 62.996 90.9065C65.1079 90.2427 67.2271 89.6016 69.3431 88.9512C70.6274 88.5562 71.9159 88.1726 73.195 87.761C74.8905 87.2151 76.6667 86.8738 78.1958 85.8956C78.9759 85.3972 79.8035 84.9205 80.4483 84.2743C81.3906 83.3302 81.9289 82.1049 82.243 80.8041C82.4796 79.8269 82.679 78.8405 82.8836 77.855C83.175 76.4539 83.456 75.0497 83.7412 73.6476C84.0418 72.17 84.3353 70.6903 84.6452 69.2137C85.0957 67.0681 85.572 64.9266 86.0122 62.7789C86.3821 60.9746 86.7076 59.1599 87.0692 57.3534C87.499 55.2068 87.9536 53.0643 88.3835 50.9166C88.679 49.441 88.9414 47.9593 89.2369 46.4837C89.583 44.7528 89.9467 43.0259 90.3063 41.2981C90.6225 39.7801 90.9304 38.2611 91.2651 36.7473C91.4491 35.9149 91.7177 35.1012 91.8882 34.2667C92.2384 32.5523 92.5722 30.8327 92.8656 29.1079C93.0816 27.8382 93.438 26.5849 93.2727 25.2645C93.1735 24.4745 93.0919 23.702 92.7013 22.9813C92.2291 22.1096 91.6247 21.3796 90.7031 20.9877C89.5128 20.4811 88.2719 20.5379 87.0537 20.8502C85.7467 21.1863 84.9821 22.2037 84.2702 23.2574C83.5035 24.3917 83.2969 25.7225 82.9921 27.0109C82.6532 28.442 82.3969 29.8928 82.0994 31.3332C81.8628 32.4778 81.6127 33.6194 81.3771 34.7641C81.0672 36.2634 80.7655 37.7648 80.4596 39.2641C80.1466 40.7976 79.8252 42.329 79.5204 43.8635C79.2218 45.3701 78.9511 46.8818 78.6453 48.3863C78.3818 49.684 78.0708 50.9724 77.8125 52.2712C77.5831 53.4272 77.4178 54.5957 77.1864 55.7507C76.8898 57.2262 76.552 58.6935 76.2379 60.166C75.9537 61.4947 75.6675 62.8234 75.4009 64.1563C75.1767 65.2771 74.9949 66.4063 74.7655 67.5262C74.4958 68.8456 74.2014 70.1598 73.91 71.4751C73.507 73.296 73.0969 75.1159 72.6908 76.9368C72.6464 77.1343 72.5833 77.2377 72.3343 77.3029C71.1017 77.6265 69.8794 77.9936 68.6591 78.3638C66.975 78.8746 65.296 79.404 63.6139 79.9221C62.1095 80.3853 60.602 80.8392 59.0976 81.3035C57.1149 81.9167 55.13 82.5237 53.1545 83.1565C50.8618 83.8907 48.5794 84.66 46.2877 85.3972C44.8205 85.8688 43.343 86.3103 41.8706 86.7653C40.015 87.3391 38.1572 87.9058 36.3046 88.4879C35.3107 88.8002 34.3022 89.0846 33.3413 89.4796C32.2947 89.9097 31.2583 90.3337 30.4008 91.1723C28.8798 92.6613 28.6029 94.4326 29.1712 96.2742C29.3417 96.8263 29.6734 97.3371 29.9895 97.8314C30.1972 98.1571 30.4741 98.4591 30.7779 98.699C31.8772 99.5696 33.1791 99.7464 34.7538 99.734V99.735Z" fill="black"/>
<path d="M99.4989 12.063C98.7643 11.8872 98.0338 11.6856 97.2919 11.5398C95.1501 11.12 93.0113 10.6805 90.858 10.329C89.1925 10.057 87.5104 9.87607 85.8303 9.70545C84.233 9.54311 82.6304 9.39835 81.0269 9.33217C78.7651 9.24014 76.5013 9.19981 74.2375 9.19568C73.3148 9.19361 72.3911 9.33734 71.4685 9.4242C70.5809 9.50795 69.6924 9.58551 68.8079 9.69821C67.38 9.8802 65.9345 9.99291 64.5355 10.3083C62.4215 10.7839 60.3323 11.3775 58.2483 11.9782C56.6086 12.4508 54.9792 12.9709 53.3705 13.5417C51.8733 14.0732 50.3793 14.6347 48.94 15.3037C46.9148 16.2457 44.8815 17.198 42.9607 18.3323C40.9035 19.5473 38.9518 20.9474 36.9969 22.3278C35.7136 23.2336 34.4686 24.2046 33.2742 25.2252C31.6138 26.6449 29.9658 28.0863 28.4108 29.6187C27.4313 30.5835 26.6088 31.7116 25.7585 32.7994C24.9618 33.8179 24.1952 34.8623 23.4616 35.9273C22.4966 37.3305 21.5388 38.742 20.6481 40.1927C19.8298 41.5256 19.0766 42.9018 18.344 44.2854C17.6383 45.6182 16.9729 46.9749 16.3303 48.3398C15.8302 49.4017 15.3725 50.4864 14.9302 51.5742C14.4395 52.7789 13.9456 53.9845 13.5271 55.215C12.9909 56.7909 12.5001 58.3833 12.0413 59.9829C11.6683 61.2837 11.3635 62.6052 11.0453 63.9205C10.9389 64.3589 10.8965 64.8118 10.8004 65.2534C10.7147 65.6494 10.5545 66.0341 10.4987 66.4332C10.3541 67.4672 10.2259 68.5054 10.133 69.5446C9.99037 71.1535 9.84365 72.7635 9.77029 74.3766C9.69177 76.1096 9.64734 77.8468 9.67834 79.5808C9.70933 81.2901 9.85709 82.9973 9.94801 84.7065C9.99657 85.6165 10.0059 86.5285 10.0803 87.4363C10.1671 88.4848 10.2869 89.5323 10.4274 90.5756C10.6206 92.0005 10.7963 93.4306 11.0711 94.841C11.4514 96.7963 11.8636 98.7496 12.3596 100.678C12.7729 102.285 13.3277 103.856 13.8112 105.445C13.8226 105.483 13.7513 105.587 13.7038 105.598C13.3804 105.672 13.2099 105.554 13.1087 105.212C12.7408 103.969 12.2759 102.753 11.9618 101.498C11.4214 99.3339 10.9099 97.1593 10.4936 94.9682C10.1464 93.1442 9.89325 91.2964 9.70727 89.4475C9.49649 87.3495 9.39007 85.2411 9.26918 83.1358C9.18549 81.6892 9.10283 80.2395 9.11006 78.7908C9.11833 76.9286 9.18652 75.0642 9.28674 73.204C9.36734 71.7098 9.47789 70.2126 9.67524 68.7298C9.91391 66.9409 10.1939 65.1531 10.5752 63.39C10.9492 61.6591 11.4493 59.955 11.938 58.2509C12.2965 57.0008 12.6964 55.762 13.1283 54.5357C13.5199 53.4231 13.9735 52.3322 14.4116 51.2371C14.6792 50.5671 14.953 49.8991 15.2516 49.2425C15.6876 48.286 16.1339 47.3337 16.602 46.3917C17.1692 45.2501 17.7396 44.1086 18.3544 42.9918C19.0838 41.6662 19.8298 40.3478 20.6285 39.0625C21.3962 37.8279 22.2042 36.616 23.0576 35.4393C24.126 33.9658 25.1871 32.4778 26.3825 31.1098C27.7423 29.5536 29.1723 28.0418 30.7056 26.6583C32.4693 25.0659 34.3467 23.5935 36.2364 22.1489C37.7232 21.0115 39.2659 19.934 40.8508 18.9383C42.5205 17.8898 44.245 16.9199 45.9942 16.0089C48.2901 14.8115 50.6892 13.8354 53.139 12.9988C55.0185 12.3577 56.9268 11.8035 58.8166 11.1945C59.2981 11.0393 59.7444 10.756 60.2321 10.6464C62.1002 10.2287 63.9703 9.81299 65.8549 9.48417C67.4833 9.19981 69.1272 8.98267 70.7731 8.8317C72.2041 8.70038 73.6465 8.67142 75.0848 8.65695C76.677 8.6404 78.2712 8.65695 79.8614 8.72002C81.6716 8.79241 83.4849 8.8834 85.2879 9.05815C87.2955 9.25255 89.2979 9.52036 91.2941 9.81092C92.754 10.0229 94.2057 10.2959 95.6512 10.5937C96.827 10.8356 97.9873 11.1531 99.1528 11.4426C99.2923 11.4778 99.439 11.5253 99.5547 11.605C99.6735 11.6877 99.7593 11.818 99.8595 11.9265C99.7469 11.9679 99.6343 12.0103 99.4958 12.061L99.4989 12.063Z" fill="black"/>
</svg>
