<svg width="133" height="110" viewBox="0 0 133 110" fill="none" xmlns="http://www.w3.org/2000/svg">
<g clip-path="url(#clip0_7388_50948)">
<path d="M78.4925 0.591831C78.7142 0.374093 78.9726 0.148485 79.2953 0.111758C79.5943 0.109135 79.8816 0.214068 80.1728 0.279652C80.2961 0.452793 80.4246 0.624622 80.5558 0.795139C80.544 0.837113 80.5217 0.922372 80.5099 0.964345C80.9755 1.4195 81.1106 2.07664 81.3808 2.64591C81.8019 3.50637 82.1718 4.39175 82.5784 5.26007C82.9745 6.10479 83.0126 7.05444 83.3103 7.93064C83.7104 9.13213 84.0593 10.3507 84.3701 11.5784C84.3583 11.6138 84.336 11.6846 84.3242 11.7201C84.8082 13.3059 85.2214 14.9127 85.4995 16.5483C85.6228 17.1189 85.7172 17.696 85.8392 18.2692C85.8891 18.5171 85.9363 18.7677 85.9874 19.0169C85.9691 19.2294 85.9717 19.4419 86.0661 19.6399C86.0491 19.8432 86.036 20.0492 86.0268 20.2538C86.1711 20.6775 86.2852 21.1143 86.3285 21.5615C86.3455 21.7373 86.3639 21.9157 86.3849 22.0928C86.5475 22.4338 86.6577 22.7971 86.6931 23.1749C86.9148 23.756 87.1811 24.3174 87.4578 24.8735C87.8251 25.6054 88.0691 26.3924 88.4376 27.1257C88.8508 26.7689 89.3414 26.5184 89.8687 26.3767C91.8952 25.8415 93.9991 25.5254 96.1004 25.6854C98.3867 25.7379 100.643 26.2704 102.773 27.0863C104.225 27.6713 105.632 28.3888 106.906 29.3057C107.33 29.5942 107.787 29.8474 108.128 30.2383C108.218 30.296 108.308 30.355 108.401 30.414C109.344 31.3165 110.331 32.1979 111.09 33.2695C112.166 34.635 112.992 36.188 113.606 37.8105C113.859 38.4192 113.944 39.0802 114.187 39.6928C114.161 39.7085 114.11 39.74 114.083 39.7544C114.317 40.0902 114.3 40.506 114.352 40.893C114.588 42.4407 114.524 44.0239 114.258 45.5651C114.149 46.1764 114.005 46.785 113.759 47.3582C114.616 47.4618 115.516 47.5536 116.271 48.0062C116.829 48.1819 117.448 48.2331 117.945 48.5754C118.403 48.9532 118.811 49.3926 119.149 49.8819C119.442 50.316 119.861 50.6597 120.09 51.1398C120.344 51.6671 120.507 52.2311 120.697 52.7833C120.912 53.5768 121.215 54.3888 121.076 55.2243C121.069 56.1569 120.735 57.0541 120.238 57.8332C122.634 58.148 124.796 59.7129 125.881 61.8653C126.275 62.7205 126.489 63.6492 126.571 64.5857C126.606 65.3885 126.504 66.1991 126.266 66.9677C126.104 67.6432 125.627 68.1679 125.356 68.7962C125.917 68.8788 126.539 68.7949 127.038 69.1267C130.245 71.2897 132.238 74.9571 132.756 78.7505C132.777 79.4614 132.86 80.1736 132.821 80.8859C132.846 83.8516 131.838 86.7622 130.273 89.2583C128.966 91.193 127.326 92.9192 125.397 94.2387C125.372 94.2426 125.323 94.2505 125.298 94.2544C125.077 94.4932 124.793 94.6584 124.502 94.7975C122.653 95.9334 120.592 96.7269 118.462 97.1427C116.385 97.4628 114.238 97.6031 112.166 97.1821C110.013 96.7912 107.909 95.9832 106.148 94.6715C106.089 94.5522 106.009 94.4551 105.87 94.4827L106.021 94.5443C105.922 94.7778 105.84 95.0231 105.762 95.2657C105.193 96.9709 104.075 98.4439 102.76 99.6467C102.239 100.187 101.675 100.686 101.039 101.086C98.6871 102.82 96.0204 104.08 93.2921 105.099C91.9319 105.642 90.5193 106.04 89.1171 106.46C87.9208 106.717 86.7482 107.083 85.548 107.32C83.776 107.561 82.0288 108.006 80.2358 108.093C78.6631 108.2 77.0891 108.305 75.5124 108.331C74.9379 108.292 74.3673 108.201 73.7941 108.157C72.3198 107.83 70.8363 107.519 69.3384 107.323C68.7258 107.3 68.1356 107.132 67.5637 106.925C66.4435 106.631 65.3666 106.193 64.3107 105.724C64.2858 105.804 64.236 105.962 64.211 106.041C61.5352 107.803 58.3335 108.537 55.1841 108.842C53.5708 108.906 51.9548 109.088 50.3414 108.915C49.6528 108.828 48.9511 108.915 48.269 108.769C46.434 108.684 44.6278 108.342 42.8216 108.031C39.7195 107.414 36.6672 106.532 33.716 105.393C31.8193 104.572 29.9121 103.756 28.1387 102.69C25.72 101.336 23.5033 99.5838 21.7299 97.4497C21.0387 96.6128 20.4812 95.6763 20.0969 94.661C19.3571 94.8814 18.5963 95.0191 17.8565 95.2408C16.9305 95.4113 15.9782 95.4507 15.0404 95.3943C11.5172 94.9614 8.36003 92.9231 6.03181 90.3102C3.15663 87.0717 1.49474 82.8468 1.11829 78.5511C0.817914 75.7231 1.18256 72.8493 2.04302 70.1459C3.06481 67.133 4.83688 64.2971 7.43399 62.4044C8.08327 61.8496 8.90569 61.5439 9.52349 60.9511C9.65334 60.9681 9.78451 60.9852 9.91436 60.9996C10.3092 60.9707 10.7158 60.9563 11.0857 60.7989C11.3874 60.833 11.6877 60.8671 11.9894 60.896C9.76221 58.5927 8.907 55.1299 9.54972 52.0173C10.0796 49.2903 11.836 46.7771 14.3072 45.4694C14.9013 45.1703 15.5086 44.8923 16.1422 44.6863C17.4198 44.4004 18.7445 44.2495 20.0444 44.4686C20.6832 44.6076 21.3167 44.7781 21.9293 45.0116C21.7273 44.3191 21.4754 43.6016 21.6119 42.871C21.642 42.2532 21.8296 41.6577 22.1129 41.1107C22.7674 39.9748 23.8876 39.1183 25.1691 38.8271C26.709 38.3955 28.3617 38.8756 29.6144 39.8187C29.3442 38.8586 29.4452 37.8499 29.5619 36.8753C29.8728 34.7137 31.0349 32.7829 32.4305 31.1433C34.4859 28.9869 37.1958 27.3604 40.1681 26.9184C40.3347 26.8882 40.5013 26.8581 40.6692 26.8266C42.1697 26.7204 43.7306 26.6967 45.1551 27.2463C45.2207 27.2371 45.3531 27.2188 45.4187 27.2096C45.6312 26.4672 45.8489 25.7248 46.0864 24.9903C46.2831 24.3528 46.6268 23.7599 46.6884 23.0857C47.0098 20.2997 47.6486 17.557 48.4343 14.8668C49.7564 10.4412 51.4341 6.09561 53.7478 2.08845C53.9341 1.7238 54.2279 1.37228 54.6542 1.30407C54.9375 1.33555 55.209 1.43261 55.4884 1.49426C55.7363 1.85497 56.0433 2.17371 56.2767 2.54622C56.6939 2.97383 57.0283 3.47226 57.3222 3.99169C58.6378 6.1848 59.9271 8.39628 61.2021 10.6143C61.934 11.7502 62.4705 13.0107 63.2693 14.1034C63.2548 14.1283 63.2234 14.1808 63.2076 14.2057C63.5001 14.3788 63.6064 14.7067 63.727 15.0045C64.0156 15.4413 64.2806 15.8938 64.5691 16.3319C64.7449 16.3188 64.922 16.3057 65.0991 16.2926C65.5936 16.4224 66.1143 16.4145 66.6049 16.2689C67.2895 16.0892 67.9952 16.1994 68.6878 16.2558C69.1508 16.3083 69.5627 16.0656 69.9903 15.9345C70.2408 15.3206 70.5373 14.7212 70.7091 14.0784C71.4764 12.2277 72.3985 10.4504 73.3219 8.67567C74.4906 6.51928 75.7144 4.38781 77.0877 2.35341C77.5272 1.74479 77.9744 1.13749 78.4925 0.591831ZM79.3084 1.75922C78.8349 2.41243 78.2905 3.0158 77.8984 3.7241C77.7882 3.90249 77.6714 4.07563 77.5613 4.25271C77.4471 4.41929 77.3409 4.59112 77.2412 4.76688C77.0864 5.03446 76.9251 5.29811 76.7769 5.56832C76.6562 5.74801 76.5381 5.93034 76.4188 6.11004C76.4175 6.16119 76.4162 6.26613 76.4149 6.31728C76.4057 6.33696 76.3899 6.375 76.3808 6.39336C76.222 6.53633 76.0896 6.70554 75.9991 6.89835C75.5675 7.77193 75.1032 8.62714 74.6808 9.50333C74.551 9.76698 74.4198 10.0306 74.286 10.2916C74.0893 10.6747 73.9004 11.0655 73.7666 11.4761C73.6958 11.6033 73.6236 11.7319 73.5528 11.8591C73.5449 11.9207 73.5279 12.0454 73.52 12.107C73.4452 12.2382 73.3718 12.368 73.3009 12.4992C72.9875 13.2442 72.6766 13.9906 72.3906 14.7474C72.127 15.4544 71.8896 16.1745 71.5499 16.8513C71.9499 17.0035 72.3382 17.1871 72.7382 17.3432C72.7409 17.4088 72.7461 17.54 72.7487 17.6068C72.7422 17.6252 72.7304 17.6619 72.7251 17.6803C72.6766 17.7406 72.5821 17.8626 72.5336 17.9243C72.2673 17.9649 72.0011 18.0095 71.7361 18.0476C71.5958 18.0003 71.4541 17.9689 71.3098 17.9544L71.2639 17.8456L71.1249 17.818L71.0383 17.9046C70.9583 17.8666 70.7996 17.7918 70.7196 17.7538C70.3025 17.6751 69.8749 17.7065 69.4551 17.6764C68.4701 17.5045 67.4509 17.5045 66.4671 17.6829C65.3679 17.721 64.2648 17.6593 63.167 17.7249C62.7603 17.8416 62.3524 17.9807 61.9222 17.9374C61.892 17.7446 61.8618 17.5504 61.8317 17.3589C62.0875 17.1635 62.3445 16.9707 62.599 16.7713C61.8789 15.6472 61.2322 14.4785 60.6263 13.2914C59.1965 10.8635 57.8245 8.40284 56.4473 5.94476C55.8937 4.94265 55.2982 3.96021 54.8234 2.91743C54.0758 4.11236 53.6416 5.47125 53.0015 6.72259C52.873 7.28792 52.5831 7.79554 52.3732 8.33201C51.4734 10.6943 50.7231 13.1078 49.9978 15.5265C49.6777 16.8789 49.2711 18.2142 49.0744 19.5927C48.7727 20.4755 48.6782 21.4094 48.3831 22.2948C47.8479 24.0065 47.4741 25.7655 46.8616 27.4536C46.2477 29.2125 45.6483 30.9754 45.0108 32.7252C45.399 32.5468 45.7834 32.3527 46.1926 32.2189C46.8419 31.9959 47.5371 31.9893 48.1968 31.8096C49.4377 31.6103 50.7074 31.6903 51.9522 31.8228C54.5493 32.2018 57.149 33.0072 59.3001 34.5523C59.5126 34.0906 59.8078 33.6657 60.2039 33.3417C61.9497 31.8293 64.1717 30.9505 66.433 30.5701C68.7271 30.4232 71.1196 31.1145 72.8287 32.6871C73.4531 33.2853 74.0748 33.9385 74.37 34.7701C74.6834 34.3438 75.1071 34.0146 75.557 33.743C77.9115 32.2635 80.6948 31.6457 83.431 31.365C84.803 31.2194 86.1947 31.2653 87.5523 31.5145C88.3498 31.6181 88.881 32.2963 89.407 32.838C88.376 30.3563 87.1443 27.9638 86.032 25.5175C85.9599 25.4034 85.8825 25.2932 85.7999 25.1896C85.5349 24.2557 85.2503 23.3271 84.942 22.4063C84.3518 20.9267 84.4725 19.2976 84.0514 17.7761C83.7707 16.3398 83.4992 14.9009 83.1464 13.4803C82.7319 12.0873 82.5745 10.6353 82.1547 9.24362C81.9029 8.5668 81.7101 7.86637 81.6038 7.15151C81.4425 6.15726 81.0031 5.24564 80.6227 4.32354C80.203 3.37389 79.9275 2.36915 79.4881 1.42999C79.4199 1.53623 79.3596 1.64641 79.3084 1.75922ZM92.2323 27.6057C91.8323 27.6595 91.4414 27.7526 91.0453 27.8182C90.3776 27.9546 89.731 28.1697 89.0856 28.3796C89.4437 29.1299 89.6785 29.9392 90.1192 30.6514C90.434 31.1472 90.6819 31.6824 90.9862 32.1874C91.0702 32.3632 91.2774 32.5324 91.2 32.7462C90.9613 33.4059 90.7895 34.0972 90.4393 34.7111C90.1953 35.2187 89.8621 35.6751 89.5801 36.1605C89.4726 36.3244 89.3794 36.4949 89.2929 36.6707L89.2273 36.5605C89.1197 37.0708 88.5872 37.3633 88.4022 37.8538L88.3393 37.8184C88.0533 38.3011 87.7713 38.8048 87.3358 39.1734C91.1528 40.3368 94.9698 41.5095 98.7933 42.6572C99.2078 42.8303 99.6393 42.9575 100.073 43.0743C100.718 43.3222 100.989 43.9938 101.447 44.4555C101.838 44.9618 102.267 45.4366 102.643 45.9534C102.985 46.4059 103.334 46.8519 103.669 47.311C103.706 47.3477 103.778 47.4212 103.814 47.4592C104.454 48.3275 105.147 49.1565 105.786 50.0261C105.937 50.194 106.086 50.3659 106.224 50.5482C106.356 50.7174 106.486 50.8919 106.603 51.0742C106.915 51.4572 107.246 51.8284 107.513 52.2455C107.87 52.7518 108.333 53.1847 108.624 53.7342C108.7 53.7998 108.779 53.8654 108.859 53.931C108.967 54.1238 109.114 54.2865 109.253 54.4596C109.137 54.7744 108.813 54.941 108.574 55.1535C108.425 55.0774 108.279 55.0026 108.135 54.9266C108.014 55.1482 107.929 55.3922 107.776 55.5942C107.34 55.9142 106.842 56.132 106.387 56.4219C105.876 56.7524 105.353 57.062 104.813 57.34C104.281 57.7519 103.673 58.0418 103.1 58.3881C102.981 58.4576 102.866 58.5271 102.751 58.5966C102.957 58.9849 103.156 59.3823 103.277 59.8086C103.317 60.3307 103.298 60.8579 103.231 61.3774C103.236 63.0957 103.153 64.8113 103.118 66.5283C103.02 66.9821 103.153 67.4583 103.004 67.9042C102.854 68.059 102.629 67.9672 102.445 67.9908C102.248 68.2623 102.053 68.5378 101.919 68.8486C101.867 68.8644 101.759 68.8972 101.705 68.9142C101.634 68.9011 101.494 68.8736 101.423 68.8605C100.929 69.1333 100.446 69.4245 99.9712 69.7301C99.7889 69.835 99.6131 69.9518 99.4334 70.0606C97.6207 71.1244 95.8512 72.2564 94.0555 73.349C86.579 77.9071 79.1103 82.4809 71.6286 87.0337C70.5477 87.7551 69.3935 88.3519 68.3061 89.0628C68.1894 88.9763 68.0739 88.8897 67.9624 88.8031C67.7408 88.7939 67.5191 88.7861 67.3 88.7821C64.1284 87.0625 60.9083 85.4347 57.7445 83.7047C57.17 83.4082 56.6191 83.0724 56.0393 82.7865C54.7631 82.1123 53.4816 81.446 52.2197 80.7442C51.6518 80.4399 51.0747 80.15 50.5198 79.8247C50.3441 79.7355 50.167 79.649 49.9899 79.5689C45.2876 76.9863 40.5563 74.4587 35.8343 71.914C34.3023 71.0667 32.7165 70.3059 31.2304 69.3786C31.3248 69.1136 31.3576 68.7975 31.6278 68.6453C31.5911 68.4263 31.557 68.2072 31.5097 67.9921C31.4402 67.2077 31.4022 66.4194 31.3484 65.6337C31.3261 65.0671 31.2907 64.4991 31.2369 63.9351C31.2251 63.5403 31.2028 63.1455 31.2133 62.752C31.191 62.0922 31.2028 61.4325 31.1517 60.7753C29.5672 60.0421 28.0325 59.2065 26.4506 58.4681C26.2499 58.35 26.0965 58.1572 25.9797 57.9605C26.0453 57.5486 26.0729 57.1223 26.2198 56.7314C28.746 53.1191 31.1858 49.4516 33.7461 45.8642C33.8694 45.9154 33.9927 45.9678 34.116 46.0229C37.1132 44.3637 40.134 42.7451 43.1745 41.1737C43.3358 41.0727 43.5011 40.9743 43.6611 40.8707L43.6703 40.9507C44.2002 40.569 44.8009 40.308 45.3951 40.0469C45.8503 39.8672 46.2923 39.6416 46.6635 39.3177C46.0549 38.9884 45.6745 38.41 45.3531 37.8197L45.2889 37.8525C45.1026 37.3633 44.5727 37.0694 44.4638 36.5605L44.3995 36.6694C44.3104 36.4949 44.2185 36.3244 44.1136 36.1605C43.9877 35.9532 43.8657 35.742 43.7175 35.5505C43.7411 35.2856 43.7595 35.0206 43.7726 34.7557C43.7175 34.7688 43.6073 34.7963 43.5509 34.8094C43.3187 34.1693 43.2689 33.4755 43.568 32.8472C43.6467 32.5861 43.7227 32.3238 43.8303 32.072C44.1674 30.9243 44.5478 29.7844 44.9426 28.6551C44.2959 28.4636 43.6362 28.3232 42.9646 28.2707C42.0412 28.0766 41.1059 28.2655 40.1838 28.3547C39.6356 28.4819 39.0925 28.6315 38.556 28.8007C35.0683 29.9431 32.0606 32.7422 31.0336 36.3113C30.543 37.825 30.6519 39.4475 30.9667 40.9835C30.564 41.0609 30.16 41.133 29.7705 41.2616C29.3966 40.9743 28.8772 40.994 28.5231 40.6818C27.8803 40.1978 27.0632 39.9394 26.2591 39.9787C24.9094 39.9171 23.603 40.788 23.0573 42.0105C22.8724 42.6808 22.652 43.4061 22.9025 44.0895C23.0547 44.9657 23.704 45.6019 24.1972 46.2984C24.0398 46.5607 23.8811 46.8244 23.725 47.0893C23.3131 47.0539 22.9065 46.9804 22.509 46.8729C22.1037 46.5096 21.5686 46.3522 21.0728 46.1554C19.3479 45.5914 17.4263 45.615 15.7461 46.3207C15.4444 46.4755 15.1309 46.6027 14.8358 46.7693C13.0112 47.8173 11.651 49.6156 11.0647 51.6316C10.4495 53.5965 10.6463 55.7398 11.3939 57.6404C11.832 58.6727 12.4708 59.6079 13.2211 60.4395C13.4979 60.7281 13.6408 61.115 13.9333 61.3918C13.835 61.498 13.7392 61.6056 13.6448 61.7145C13.4165 61.679 13.1883 61.6436 12.9784 61.5479C12.9876 61.6082 13.0047 61.7289 13.0138 61.7879C12.5561 61.7827 12.097 61.7145 11.6418 61.7827C11.0621 61.9217 10.5335 62.2063 9.98519 62.432C8.66696 63.2137 7.40514 64.1266 6.43581 65.3268C5.28023 66.6621 4.43944 68.2309 3.75868 69.8508C3.74294 69.9308 3.71015 70.0908 3.69441 70.1695C3.66818 70.2141 3.6144 70.302 3.58686 70.3466C3.53439 70.643 3.44913 70.9342 3.35731 71.2228C3.29829 71.434 3.22614 71.6412 3.12646 71.8393C3.12908 71.8983 3.13433 72.0163 3.13826 72.0754C3.03858 72.3757 2.93889 72.68 2.91922 72.9988C2.72378 73.9222 2.71591 74.8679 2.60835 75.8018C2.61884 75.8412 2.63983 75.9186 2.65163 75.9579C2.64507 76.6925 2.63852 77.4296 2.71722 78.1628C2.84576 79.4181 3.08055 80.6576 3.39011 81.8814C3.6931 82.7183 4.01053 83.5525 4.32402 84.3867C4.74637 85.1777 5.12151 85.9935 5.59765 86.7556C5.9859 87.4744 6.57354 88.0568 7.00245 88.7467C7.37497 89.0956 7.72518 89.4681 8.0754 89.8407C9.23623 91.0762 10.7001 91.9734 12.215 92.7106C12.2767 92.7185 12.4 92.7342 12.4616 92.7434C12.905 93.0556 13.4611 93.0975 13.9464 93.3153C14.0763 93.3258 14.2062 93.3402 14.336 93.3572C15.2896 93.6052 16.2799 93.6878 17.2624 93.6484C18.5006 93.6983 19.6496 93.1474 20.8249 92.8326C21.0492 93.2484 21.301 93.6511 21.4833 94.0905C21.7889 94.6938 22.0631 95.3313 22.5195 95.8416C23.0429 96.5905 23.7079 97.2188 24.3323 97.8786C25.5246 98.9699 26.8363 99.9287 28.2201 100.763C28.8654 101.149 29.5357 101.49 30.185 101.87C30.4106 101.963 30.6401 102.047 30.8644 102.151L30.9628 102.152C30.8657 102.326 31.174 102.53 31.3091 102.401C31.3432 102.405 31.4114 102.414 31.4442 102.42C32.3964 102.956 33.4261 103.346 34.4361 103.76C35.5025 104.129 36.5413 104.576 37.63 104.884C39.5005 105.52 41.4352 105.931 43.3673 106.334C44.2605 106.45 45.1367 106.7 46.047 106.671C46.0391 106.7 46.0247 106.759 46.0168 106.787C46.2398 106.785 46.4641 106.791 46.6884 106.802C46.737 106.801 46.834 106.797 46.8825 106.795C48.0827 106.941 49.296 107.055 50.5054 107.024C51.3842 106.997 52.263 107.035 53.1432 107.039C54.4116 106.947 55.6865 106.867 56.9391 106.63C57.5556 106.499 58.1839 106.411 58.7781 106.195C58.908 106.174 59.0391 106.154 59.1703 106.136C59.5704 105.974 59.9848 105.851 60.398 105.724C60.8492 105.633 61.2349 105.352 61.6612 105.19C62.5439 104.782 63.2693 104.091 64.2242 103.83C64.8708 104.213 65.604 104.407 66.256 104.778C66.353 104.782 66.5484 104.79 66.6455 104.794C66.6626 104.812 66.6941 104.848 66.7098 104.865C66.7924 104.903 66.9577 104.977 67.0403 105.014C67.2148 105.043 67.3958 105.067 67.5611 105.143C68.0503 105.405 68.6445 105.339 69.1246 105.61C69.6125 105.737 70.1175 105.8 70.6015 105.938C70.7668 105.955 70.9334 105.97 71.1026 105.991C71.3243 106.074 71.559 106.115 71.7899 106.178L71.8594 106.107C72.005 106.212 72.169 106.247 72.3487 106.214C72.4221 106.427 72.5454 106.45 72.7212 106.286C73.3928 106.423 74.1207 106.423 74.8054 106.566C74.8605 106.578 74.9681 106.6 75.0232 106.612L75.1898 106.509C76.104 106.689 77.0628 106.658 77.9889 106.555L78.0072 106.631C78.8428 106.446 79.7111 106.431 80.5611 106.309C80.7027 106.277 80.8509 106.255 80.9978 106.235C82.5666 106.086 84.1196 105.755 85.67 105.457C85.8825 105.389 86.0989 105.324 86.318 105.267C86.5344 105.212 86.7522 105.158 86.9751 105.12C87.1522 105.067 87.3358 105.011 87.5273 105.027C87.7346 104.964 87.9431 104.897 88.1504 104.828C88.7918 104.744 89.3847 104.479 90.0038 104.314C90.859 104.07 91.6814 103.729 92.5366 103.483L92.5642 103.41C92.896 103.327 93.2056 103.179 93.5309 103.073C94.4071 102.677 95.3239 102.359 96.1503 101.857C96.532 101.709 96.9058 101.534 97.2442 101.301C97.2836 101.314 97.3636 101.341 97.4029 101.356L97.4069 101.2C98.3604 100.755 99.2209 100.132 100.07 99.5169C100.467 99.3555 100.757 99.0315 101.068 98.7482C101.564 98.2354 102.128 97.792 102.596 97.2529C102.833 96.9263 103.075 96.6036 103.33 96.2928C103.749 95.654 104.009 94.9326 104.291 94.2308C104.595 93.8321 104.579 93.3074 104.844 92.8942C104.9 92.6739 104.966 92.4561 105.037 92.241C106.212 92.7631 107.345 93.373 108.463 94.0105C109.03 94.2544 109.655 94.3436 110.197 94.6558C110.594 94.7319 110.971 94.888 111.363 94.989C113.049 95.4533 114.814 95.5281 116.555 95.4533C116.833 95.3602 117.125 95.3405 117.418 95.3195C118.774 95.1398 120.09 94.7201 121.354 94.2072C121.816 94.0538 122.224 93.7796 122.676 93.6052C125.058 92.2476 127.184 90.3876 128.667 88.0647C129.155 87.2003 129.64 86.3319 130.031 85.419C130.134 85.0216 130.277 84.6372 130.431 84.2582C130.604 83.403 130.866 82.5648 130.937 81.6912C131.03 80.4976 131.03 79.2922 130.827 78.1117C130.65 77.3037 130.47 76.4944 130.175 75.7192C129.726 74.5374 129.069 73.4565 128.32 72.4439C128.05 72.1396 127.767 71.8484 127.499 71.5441C126.714 70.6207 125.681 69.9609 124.784 69.1595C124.478 68.8408 124.118 68.5876 123.743 68.3607C124.08 68.0564 124.316 67.6511 124.313 67.1868C124.383 67.0569 124.456 66.9284 124.532 66.8024C125.032 65.3583 125.003 63.6859 124.211 62.3493C123.608 61.2462 122.649 60.3346 121.496 59.8257C121.27 59.743 121.046 59.6565 120.828 59.562C120.415 59.4387 119.985 59.3915 119.568 59.2957C119.087 59.3849 118.597 59.3744 118.117 59.4479C118.362 58.813 118.462 58.131 118.744 57.5092C118.963 57.0593 119.349 56.6763 119.434 56.174L119.581 56.2225C119.467 55.947 119.432 55.6677 119.68 55.4552C119.599 54.7731 119.586 54.0818 119.363 53.426C119.182 53.2017 119.081 52.9328 119.051 52.6495C118.859 52.1891 118.695 51.709 118.384 51.3129C118.1 51.0716 117.723 50.8932 117.647 50.4905C117.515 50.3751 117.38 50.2609 117.246 50.1521C117.218 50.1048 117.165 50.0104 117.137 49.9645C116.957 49.8399 116.783 49.714 116.603 49.5972C116.342 49.6969 116.068 49.7245 115.808 49.6117C115.606 49.5776 115.412 49.5369 115.217 49.4923C115.004 49.3742 114.788 49.2614 114.581 49.1381C114.491 49.1841 114.313 49.2746 114.224 49.3205C114.06 49.1945 113.902 49.0621 113.761 48.9138C113.77 48.9821 113.788 49.1172 113.798 49.1841C113.519 49.1775 113.247 49.1683 112.972 49.1657C112.937 49.2247 112.868 49.3415 112.832 49.4005C112.55 49.1959 112.321 48.9283 112.019 48.7551C111.764 48.4994 111.855 48.1216 111.817 47.7989C111.844 47.4356 111.81 47.0749 111.749 46.7181C112.204 46.078 112.225 45.2543 112.343 44.5014C112.342 43.7367 112.631 42.9536 112.364 42.2033C112.393 42.1456 112.448 42.0289 112.477 41.9712C112.242 41.2104 112.293 40.3893 112.011 39.6403C111.856 39.2232 111.77 38.7864 111.673 38.3549C111.637 38.2854 111.566 38.149 111.531 38.0807C111.161 37.1757 110.73 36.2956 110.23 35.4561C109.465 34.2782 108.515 33.2433 107.545 32.2346C106.625 31.4174 105.624 30.6973 104.575 30.0559C100.902 27.8694 96.4625 26.9499 92.2323 27.6057ZM60.6735 33.9529C60.2957 34.2323 59.9494 34.572 59.7579 35.0088C59.573 35.4417 59.2306 35.8496 59.2844 36.3467C59.2306 38.9727 61.0696 41.3888 63.449 42.3699C66.5222 43.7813 70.4599 43.1687 72.876 40.7736C73.4426 40.2476 73.8177 39.5629 74.2939 38.9609C74.3398 39.0697 74.3857 39.1786 74.4342 39.2888C74.1089 39.9433 74.0145 40.7303 73.457 41.2497C71.2416 43.5006 67.7945 44.3978 64.7436 43.6396C62.9007 43.2055 61.1824 42.1535 60.0557 40.6201C59.0903 39.3662 58.6076 37.7659 58.6955 36.1893C58.7611 35.8889 58.9303 35.6279 59.0391 35.3433C58.0016 34.5563 56.8198 33.9883 55.6157 33.5056C53.3032 32.6727 50.8097 32.2687 48.3556 32.5127C47.0714 32.678 45.7689 33.0085 44.7157 33.7994C44.7445 33.89 44.8022 34.071 44.8311 34.1628C45.2521 34.7661 45.5617 35.4417 46.0195 36.0201C48.5917 39.4095 51.6702 42.4276 55.1736 44.849C55.9226 45.3107 56.4132 46.0623 57.0218 46.6801C56.9916 46.7509 56.9313 46.8939 56.9011 46.9647C56.825 47.0605 56.7503 47.1562 56.6755 47.2533C56.3148 47.2074 55.9646 47.1169 55.6275 46.987C54.7277 47.9878 53.9498 49.087 53.1405 50.1586C52.6959 51.0125 52.4231 51.9438 52.0007 52.8082C51.9325 52.9918 51.7331 53.2778 52.0414 53.3447C53.2481 53.8326 54.4011 54.4465 55.6314 54.8728C58.3518 55.9693 61.0434 57.1354 63.7585 58.2425C64.1888 58.4405 64.6203 58.6373 65.0676 58.7973C65.6959 59.099 66.3911 59.2616 66.9879 59.6302C67.1728 59.6879 67.3617 59.747 67.5466 59.8191C68.1657 59.461 68.8124 59.1554 69.4354 58.8039C70.3418 58.3146 71.2429 57.8135 72.165 57.3558C72.7527 57.0029 73.3705 56.7026 73.962 56.3576C74.7582 55.9588 75.5505 55.5522 76.3244 55.1128C77.8918 54.2655 79.4789 53.4562 81.0411 52.5996C80.1728 52.0933 80.0469 51.0322 79.5668 50.236C78.9857 49.2693 78.3929 48.3105 77.8301 47.3333C77.6373 47.4343 77.4432 47.534 77.2504 47.635C77.0982 47.433 76.9487 47.2297 76.7979 47.0277C76.7716 46.9398 76.7179 46.764 76.6916 46.6761C76.9907 46.28 77.3632 45.9495 77.6767 45.5665C78.0295 45.1244 78.5371 44.8555 78.9792 44.5171C81.4268 42.8106 83.6068 40.7513 85.6084 38.5464C87.042 36.8897 88.515 35.1833 89.2955 33.1043C88.759 32.493 87.9418 32.3055 87.1784 32.1507C85.8878 31.9395 84.5682 31.9251 83.2683 32.0549C81.6222 32.2254 79.98 32.5258 78.4178 33.0793C77.1087 33.5187 75.7643 34.0723 74.8146 35.1124C74.509 35.3367 74.9392 35.7433 74.6585 35.9794C74.5208 36.289 74.1968 36.2575 73.9214 36.188C73.7508 34.9878 72.9442 33.987 72.0719 33.1948C70.717 32.0156 68.899 31.4332 67.1177 31.4319C64.7711 31.5316 62.4757 32.4524 60.6735 33.9529ZM81.7639 44.5696C80.9191 45.2569 80.0665 45.9455 79.1156 46.482C79.1904 46.5227 79.3412 46.6053 79.416 46.646C79.9538 47.5681 80.6201 48.4115 81.0975 49.369C81.5527 50.0104 81.8688 50.7371 82.156 51.4664C82.219 51.6185 82.2715 51.7733 82.3253 51.932C85.7618 50.0576 89.2299 48.2423 92.6914 46.4138C94.449 45.5324 96.1398 44.525 97.8922 43.6317C94.5435 42.6375 91.204 41.6144 87.8539 40.6254C87.3739 40.4877 86.8977 40.2739 86.3941 40.2699C84.9342 41.7862 83.4074 43.2487 81.7639 44.5696ZM45.9972 41.0491C42.4622 42.8749 38.9233 44.6942 35.3543 46.4532C36.2514 46.907 37.226 47.1851 38.1481 47.5812C40.6626 48.6213 43.1889 49.6326 45.6915 50.703C46.148 50.9587 46.6478 51.1214 47.1357 51.3116C48.1706 51.6946 49.1426 52.2547 50.2326 52.4803C50.39 51.8848 50.6916 51.3391 51.0891 50.8709C51.4996 49.9973 51.8538 49.0791 52.4794 48.3275C53.0697 47.6691 53.5314 46.9096 54.0784 46.2157C53.3556 45.6753 52.6146 45.1546 51.9286 44.5683C50.2837 43.2828 48.833 41.777 47.3088 40.3591C46.9258 40.6883 46.4667 40.8838 45.9972 41.0491ZM99.499 44.18C99.2353 44.6417 98.6962 44.7834 98.2529 45.0103C96.3785 45.9941 94.4871 46.945 92.6284 47.959C87.8631 50.5023 83.0795 53.0089 78.3076 55.5404C77.4773 55.9497 76.7008 56.4665 75.8469 56.8246C74.1129 57.7926 72.3237 58.6583 70.5897 59.6276C70.271 59.7824 69.9549 59.945 69.6427 60.1116C71.0672 62.0148 72.4995 63.9128 73.9253 65.8148C74.4014 66.4548 74.8789 67.0949 75.3786 67.7193C76.3991 69.1175 77.4707 70.4804 78.5083 71.8668C78.688 71.6346 78.8192 71.35 79.0854 71.1992C79.8554 70.7886 80.5558 70.2613 81.331 69.8599C81.9462 69.4769 82.5797 69.1254 83.1831 68.724C83.7091 68.4105 84.2193 68.0695 84.7571 67.7744C85.5375 67.2982 86.3245 66.8326 87.1076 66.3591C87.9969 65.8436 88.8338 65.2389 89.7467 64.7641C90.3304 64.4441 90.8459 64.006 91.461 63.7358C91.5962 63.6452 91.7299 63.5534 91.8664 63.4629C92.0657 63.3291 92.2664 63.1953 92.4789 63.0799C93.2921 62.6353 94.0516 62.1001 94.8648 61.6594C95.1836 61.4062 95.5495 61.2265 95.8945 61.0127C96.1319 60.8212 96.4139 60.7019 96.6841 60.5628C96.8678 60.4382 97.0488 60.3083 97.2324 60.1824C97.3596 60.1168 97.4869 60.0526 97.6154 59.987C97.9971 59.7352 98.3814 59.482 98.7907 59.2721C99.2721 58.9101 99.8138 58.6412 100.335 58.3382C102.42 57.0252 104.574 55.8224 106.641 54.478C106.8 54.4071 106.96 54.3324 107.12 54.2576C104.604 50.8814 102.013 47.5576 99.499 44.18ZM34.2564 47.4146C33.838 48.1045 33.329 48.7342 32.9119 49.4254C32.6745 49.7284 32.4502 50.0419 32.2613 50.3777C32.1511 50.5429 32.0475 50.7122 31.9413 50.88C31.4547 51.4939 31.0769 52.1825 30.606 52.8056C30.2846 53.2594 30.0079 53.7447 29.6445 54.1684C29.2301 54.9593 28.6214 55.6257 28.1781 56.3983C27.9656 56.7865 27.6495 57.1013 27.3832 57.4515C27.597 57.4751 27.8279 57.4371 28.0364 57.5119C32.2758 59.5541 36.5164 61.5885 40.7452 63.6557C40.7872 63.6466 40.8711 63.6295 40.9131 63.6203L40.9184 63.7476C41.1204 63.8171 41.3276 63.8879 41.4994 64.023C41.8457 64.1948 42.2038 64.3444 42.5527 64.5136C42.6996 64.5949 42.8478 64.6788 42.9987 64.7615C44.1189 65.273 45.243 65.7872 46.3212 66.3866C46.7815 66.6044 47.2577 66.7906 47.7155 67.0189C48.4185 67.4189 49.174 67.7127 49.8968 68.0761C50.1617 68.2099 50.428 68.3463 50.6851 68.4997C51.0642 68.6414 51.4406 68.7988 51.7869 69.0126L51.8826 69.027C52.0558 69.1333 52.2381 69.2264 52.423 69.3195C52.7444 69.4966 53.0933 69.6199 53.4094 69.8114C54.6857 70.3374 55.8609 71.068 57.1398 71.59C57.9911 70.6404 58.7099 69.5832 59.4628 68.5561C60.3679 67.2799 61.349 66.0587 62.2422 64.7746C63.2955 63.4118 64.2622 61.9807 65.3614 60.6533C64.6059 60.21 63.7612 59.9594 62.9781 59.5738C61.9602 59.1842 60.9738 58.7186 59.9612 58.3199C57.995 57.4869 56.0236 56.6632 54.0587 55.829C52.5634 55.2479 51.1153 54.5449 49.6161 53.9743C49.3957 53.8615 49.1688 53.7631 48.9432 53.6687C45.967 52.4318 43.0013 51.1634 40.0291 49.9147C38.0996 49.0922 36.1754 48.2567 34.2564 47.4146ZM80.7985 71.796C80.0036 72.3075 79.1326 72.7037 78.4191 73.3333C77.9062 73.1522 77.4104 72.9148 76.9579 72.6145C76.2916 71.3776 75.3235 70.3335 74.5549 69.1608C72.51 66.3499 70.4349 63.5587 68.3966 60.7438C68.1657 60.8684 67.9375 60.997 67.7119 61.1308C67.8627 62.2536 67.788 63.3908 67.8982 64.5188C67.8903 65.9118 68.0215 67.3009 67.9979 68.6939C67.9926 69.7327 68.1041 70.765 68.0975 71.8025C68.1198 73.3031 68.2103 74.7984 68.2313 76.2989L68.1972 76.358C68.272 77.9844 68.2943 79.6109 68.352 81.2387C68.3454 81.8919 68.373 82.5451 68.3704 83.1983C68.4543 84.5913 68.4766 85.9896 68.4464 87.3852C70.7104 85.8951 73.0871 84.5861 75.3524 83.0987C76.2286 82.6553 77.0235 82.0742 77.8656 81.5719C78.5214 81.2321 79.0854 80.7363 79.7649 80.436C80.06 80.2274 80.3787 80.0543 80.6817 79.8575C81.2903 79.4155 81.9921 79.1204 82.585 78.6573C82.6361 78.6468 82.7371 78.6245 82.7883 78.6141C83.2854 78.2205 83.8442 77.9202 84.3767 77.5791C85.7448 76.7948 87.0525 75.9173 88.418 75.1302C88.7957 74.864 89.1892 74.6226 89.5959 74.4049C90.4524 73.8251 91.36 73.3254 92.2402 72.7824C92.8173 72.4413 93.3486 72.0229 93.9506 71.7238C94.1972 71.5572 94.453 71.4025 94.7192 71.27C94.8937 71.1598 95.0668 71.0483 95.2413 70.9368C95.5207 70.7178 95.842 70.563 96.1529 70.3951C97.0829 69.8272 97.9984 69.2369 98.9389 68.6899C99.3494 68.3961 99.7928 68.1508 100.227 67.8937C100.714 67.613 101.169 67.2812 101.629 66.9572C101.545 65.6626 101.659 64.3654 101.733 63.0734C101.713 61.7512 101.923 60.4395 101.877 59.116C94.878 63.3895 87.812 67.5488 80.7985 71.796ZM66.3714 61.4049C66.3294 61.6528 66.2966 61.9033 66.2796 62.1552L66.172 62.0857C65.8506 62.5644 65.4755 63.0051 65.1568 63.4865C64.2556 64.8769 62.9256 65.9328 62.0547 67.3455C61.5733 68.0866 61.0342 68.7883 60.5921 69.553C59.8392 70.8647 59.0221 72.137 58.1747 73.3897C57.6304 73.3464 57.0821 73.349 56.5391 73.3018C55.6012 72.8925 54.708 72.3849 53.7859 71.9429C52.7641 71.4969 51.7856 70.9578 50.7887 70.4594C49.7551 70.0475 48.8146 69.4428 47.7915 69.0087C42.7311 66.4955 37.6497 64.0296 32.6024 61.4902C32.7637 63.9063 32.9145 66.3263 32.8713 68.749C34.0767 69.4258 35.3424 70.0003 36.5374 70.7007C38.4341 71.7304 40.3727 72.6971 42.2471 73.7635C43.4958 74.4298 44.7786 75.0332 46.0063 75.7402C46.0536 75.7323 46.1493 75.7153 46.1965 75.7074L46.1375 75.8464C47.5777 76.48 48.9183 77.3194 50.3309 78.0094C50.731 78.2533 51.1599 78.4448 51.5757 78.6613C52.8389 79.4115 54.1912 80.0044 55.4478 80.7652C55.5094 80.7967 55.6327 80.8583 55.6957 80.8885C56.08 81.1062 56.5037 81.2558 56.8657 81.5128C58.0724 82.0979 59.2123 82.8101 60.4308 83.3754C61.3896 83.984 62.4337 84.4444 63.4227 85.0006C64.5862 85.6892 65.8179 86.2585 66.9643 86.976C66.98 86.4001 66.9249 85.8269 66.9039 85.2537C66.8108 83.1144 66.8882 80.9711 66.7491 78.8331C66.7386 76.8157 66.6849 74.7997 66.6521 72.7837C66.517 70.685 66.6599 68.5784 66.5157 66.4798C66.5288 64.8572 66.4409 63.2373 66.4632 61.6161C66.4461 61.3446 66.5222 61.0101 66.2376 60.8527C66.2769 61.0376 66.3215 61.22 66.3714 61.4049Z" fill="#080810"/>
<path d="M70.6619 27.7828C70.7209 27.1978 71.1787 26.74 71.6837 26.4843C71.8397 26.4843 71.9971 26.4843 72.1572 26.4843C72.5244 26.7807 73.0517 26.9958 73.1199 27.5244C73.1737 28.3809 73.1973 29.3004 72.8287 30.094C72.43 30.8259 71.3859 30.6501 70.9373 30.0612C70.5373 29.3621 70.6999 28.5475 70.6619 27.7828Z" fill="#080810"/>
<path d="M61.0853 27.7907C61.1732 27.2791 61.5418 26.8187 62.0271 26.6285C62.5793 26.4895 63.125 26.8646 63.348 27.3578C63.6641 27.8825 63.5211 28.5095 63.5473 29.0866C63.5801 29.4499 63.4424 29.7884 63.3335 30.1268C63.104 30.3143 62.902 30.5439 62.6383 30.6842C62.1517 30.7551 61.5562 30.6619 61.3437 30.1556C61.0552 29.4053 61.0394 28.5829 61.0853 27.7907Z" fill="#080810"/>
<path d="M64.8708 32.9901C65.2735 32.4851 65.9792 32.535 66.5603 32.4366C67.1532 32.3068 67.7592 32.3776 68.3573 32.4392C68.4714 32.7055 68.5999 32.9705 68.655 33.2603C68.7049 33.2617 68.8019 33.2656 68.8505 33.2682C68.7783 33.3036 68.6327 33.3758 68.5606 33.4112C68.3428 34.0605 67.729 34.3766 67.1886 34.715C67.1309 34.7294 67.0154 34.7583 66.9577 34.7714C66.6718 34.677 66.3583 34.7216 66.0828 34.5943C65.5398 34.3766 65.225 33.8506 64.8787 33.4125C64.8761 33.3063 64.8722 33.0964 64.8708 32.9901Z" fill="#080810"/>
<path d="M70.8888 35.1623C71.0278 35.1255 71.1682 35.0888 71.3111 35.0521C71.4148 35.2279 71.5197 35.401 71.6286 35.5754C71.6194 35.6463 71.6023 35.7906 71.5945 35.8614C71.399 36.3638 70.9386 36.6956 70.4612 36.9055C69.6768 37.236 68.8714 37.5233 68.0425 37.7135C67.1938 37.9063 66.3202 37.7856 65.469 37.6846C64.4445 37.4813 63.5408 36.9199 62.6069 36.4779C62.3603 36.3939 62.2186 36.1736 62.0835 35.9676C62.1937 35.7945 62.2947 35.6148 62.4206 35.4522C64.1507 36.6209 66.3491 37.2229 68.415 36.7402C68.9619 36.6418 69.4551 36.3729 69.9326 36.0988C70.3733 35.9453 70.7524 35.62 70.8888 35.1623Z" fill="#080810"/>
<path d="M79.3084 1.75922C79.3596 1.64642 79.4199 1.53624 79.4881 1.42999C79.9275 2.36915 80.203 3.37389 80.6227 4.32354C81.0031 5.24565 81.4425 6.15726 81.6039 7.15151C81.7101 7.86637 81.9029 8.5668 82.1548 9.24363C82.5745 10.6353 82.7319 12.0873 83.1464 13.4803C83.4992 14.9009 83.7707 16.3398 84.0514 17.7761C84.4725 19.2976 84.3518 20.9267 84.9421 22.4063C85.2503 23.3271 85.5349 24.2557 85.7999 25.1896C85.8825 25.2933 85.9599 25.4034 86.0321 25.5175C87.1444 27.9638 88.376 30.3563 89.407 32.838C88.881 32.2963 88.3498 31.6181 87.5523 31.5145C86.1947 31.2653 84.803 31.2194 83.431 31.365C82.9391 30.1609 82.7542 28.8662 82.3436 27.6359C81.9318 26.4633 81.7101 25.2355 81.3454 24.0485C81.0739 23.0805 80.7316 22.1203 80.7001 21.1051C80.6555 20.0453 80.5073 18.9894 80.5335 17.9269C80.6083 16.6939 80.826 15.4701 80.8142 14.2319C80.8431 11.5286 80.5807 8.8252 80.0679 6.17169C79.7242 4.71967 79.3058 3.26633 79.3084 1.75922Z" fill="#EE751E"/>
<path d="M76.7979 47.0277C76.9487 47.2297 77.0983 47.433 77.2504 47.635C77.4432 47.534 77.6374 47.4343 77.8302 47.3333C78.3929 48.3105 78.9858 49.2693 79.5668 50.236C80.0469 51.0322 80.1728 52.0934 81.0411 52.5997C79.4789 53.4562 77.8918 54.2655 76.3244 55.1128C76.4464 53.5703 76.5618 52.0278 76.6562 50.4839C76.7048 49.3323 77.0379 48.1806 76.7979 47.0277Z" fill="#EE751E"/>
<path d="M77.8984 3.7241C78.2906 3.0158 78.8349 2.41243 79.3084 1.75922C79.3058 3.26633 79.7242 4.71966 80.0679 6.17168C80.5807 8.8252 80.8431 11.5286 80.8142 14.2319C80.826 15.4701 80.6083 16.6939 80.5335 17.9269C80.5073 18.9893 80.6555 20.0452 80.7001 21.1051C80.7316 22.1203 81.0739 23.0805 81.3454 24.0485C81.7101 25.2355 81.9318 26.4633 82.3436 27.6359C82.7542 28.8662 82.9391 30.1609 83.431 31.365C80.6949 31.6457 77.9115 32.2635 75.557 33.743C75.1071 34.0146 74.6835 34.3438 74.37 34.7701C74.0748 33.9385 73.4531 33.2853 72.8288 32.6871C71.1196 31.1145 68.7271 30.4232 66.433 30.5701C64.1717 30.9505 61.9497 31.8293 60.2039 33.3417C59.8078 33.6657 59.5126 34.0906 59.3002 34.5523C57.149 33.0072 54.5493 32.2018 51.9522 31.8228C50.7074 31.6903 49.4377 31.6103 48.1969 31.8096C47.5371 31.9893 46.8419 31.9959 46.1926 32.2189C45.7834 32.3527 45.3991 32.5468 45.0108 32.7252C45.6483 30.9754 46.2477 29.2125 46.8616 27.4536C47.4741 25.7655 47.8479 24.0065 48.3831 22.2948C48.6782 21.4094 48.7727 20.4755 49.0744 19.5927C49.2711 18.2141 49.6777 16.8789 49.9978 15.5265C50.7231 13.1078 51.4734 10.6943 52.3732 8.33201C52.5831 7.79553 52.873 7.28792 53.0015 6.72259C53.6416 5.47125 54.0758 4.11236 54.8234 2.91742C55.2983 3.9602 55.8937 4.94265 56.4473 5.94476C57.8245 8.40284 59.1965 10.8635 60.6263 13.2914C61.2323 14.4785 61.8789 15.6472 62.599 16.7713C62.3446 16.9707 62.0875 17.1635 61.8317 17.3589C61.8619 17.5504 61.892 17.7446 61.9222 17.9374C62.3524 17.9807 62.7604 17.8416 63.167 17.7249C64.2648 17.6593 65.368 17.721 66.4671 17.6829C67.4509 17.5045 68.4701 17.5045 69.4551 17.6764C69.8749 17.7065 70.3025 17.6751 70.7196 17.7538C70.7996 17.7918 70.9583 17.8666 71.0383 17.9046C71.1065 17.9177 71.2416 17.9426 71.3098 17.9544C71.4541 17.9689 71.5958 18.0003 71.7361 18.0476C72.0011 18.0095 72.2674 17.9649 72.5336 17.9243C72.5822 17.8626 72.6766 17.7406 72.7251 17.6803L72.7514 17.6475L72.7487 17.6068C72.7461 17.5399 72.7409 17.4088 72.7382 17.3432C72.3382 17.1871 71.9499 17.0035 71.5499 16.8513C71.8896 16.1745 72.127 15.4544 72.3907 14.7474C72.6766 13.9906 72.9875 13.2442 73.301 12.4992C73.3718 12.368 73.4452 12.2382 73.52 12.107C73.5279 12.0454 73.5449 11.9207 73.5528 11.8591C73.6236 11.7319 73.6958 11.6033 73.7666 11.4761C73.9004 11.0655 74.0893 10.6747 74.286 10.2916C74.4198 10.0306 74.551 9.76698 74.6808 9.50333C75.1032 8.62713 75.5675 7.77192 75.9991 6.89835C76.0896 6.70553 76.222 6.53633 76.3808 6.39336L76.4149 6.36188V6.31728C76.4162 6.26612 76.4175 6.16119 76.4188 6.11004C76.5382 5.93034 76.6562 5.74801 76.7769 5.56831C76.9251 5.29811 77.0864 5.03446 77.2412 4.76688C77.3409 4.59112 77.4472 4.41929 77.5613 4.25271C77.6714 4.07563 77.7882 3.90249 77.8984 3.7241ZM70.6619 27.7828C70.6999 28.5475 70.5373 29.3621 70.9373 30.0612C71.3859 30.6501 72.43 30.8259 72.8288 30.094C73.1973 29.3004 73.1737 28.3809 73.1199 27.5244C73.0517 26.9958 72.5244 26.7807 72.1572 26.4842C71.9972 26.4842 71.8398 26.4842 71.6837 26.4842C71.1787 26.74 70.7209 27.1978 70.6619 27.7828ZM61.0853 27.7907C61.0394 28.5829 61.0552 29.4053 61.3437 30.1556C61.5562 30.6619 62.1517 30.7551 62.6384 30.6842C62.902 30.5439 63.104 30.3143 63.3336 30.1268C63.4424 29.7884 63.5801 29.4499 63.5474 29.0866C63.5211 28.5095 63.6641 27.8825 63.348 27.3578C63.125 26.8646 62.5793 26.4895 62.0271 26.6285C61.5418 26.8187 61.1732 27.2791 61.0853 27.7907Z" fill="#FFAA00"/>
<path d="M74.913 47.593C75.4678 47.2205 76.0633 46.9083 76.6916 46.6761C76.7178 46.764 76.7716 46.9398 76.7979 47.0277C77.0379 48.1806 76.7047 49.3323 76.6562 50.4839C76.5618 52.0278 76.4463 53.5703 76.3243 55.1128C75.5505 55.5522 74.7582 55.9588 73.962 56.3576C73.3705 56.7026 72.7527 57.0029 72.165 57.3558C71.2429 57.8135 70.3418 58.3146 69.4354 58.8039C69.3922 57.6942 69.8355 56.6553 70.1477 55.6126C70.6645 54.2038 71.2495 52.82 71.9316 51.4808C72.594 49.9763 73.5541 48.5518 74.913 47.593Z" fill="#FFAA00"/>
<path d="M56.9011 46.9647C57.191 47.0618 57.4822 47.1549 57.776 47.2467C58.1774 47.753 58.6692 48.1898 58.9932 48.7565C60.1986 50.8473 61.3595 52.963 62.519 55.08C62.9702 56.1176 63.3217 57.1971 63.7585 58.2425C61.0434 57.1354 58.3518 55.9693 55.6314 54.8728C54.401 54.4465 53.2481 53.8326 52.0414 53.3447C51.7331 53.2778 51.9325 52.9918 52.0007 52.8082C52.423 51.9438 52.6959 51.0125 53.1405 50.1586C53.9498 49.087 54.7277 47.9878 55.6275 46.987C55.9646 47.1169 56.3148 47.2074 56.6755 47.2533C56.7503 47.1562 56.825 47.0605 56.9011 46.9647Z" fill="#FFAA00"/>
<path d="M92.2323 27.6057C96.4625 26.9499 100.903 27.8694 104.575 30.0559C105.625 30.6973 106.625 31.4175 107.545 32.2346C108.515 33.2433 109.465 34.2782 110.23 35.4561C110.73 36.2956 111.161 37.1757 111.531 38.0808C111.566 38.149 111.637 38.2854 111.673 38.3549C111.77 38.7864 111.856 39.2232 112.011 39.6403C112.293 40.3893 112.242 41.2104 112.477 41.9712C112.448 42.0289 112.393 42.1456 112.364 42.2033C112.631 42.9536 112.342 43.7367 112.343 44.5014C112.225 45.2543 112.204 46.078 111.749 46.7181C111.81 47.0749 111.844 47.4356 111.817 47.7989C111.855 48.1216 111.764 48.4994 112.019 48.7551C112.321 48.9283 112.55 49.1959 112.832 49.4005C112.868 49.3415 112.937 49.2247 112.973 49.1657C113.247 49.1683 113.519 49.1775 113.798 49.1841C113.788 49.1172 113.77 48.9821 113.761 48.9139C113.902 49.0621 114.06 49.1946 114.224 49.3205C114.313 49.2746 114.491 49.1841 114.581 49.1382C114.788 49.2615 115.004 49.3743 115.217 49.4923C115.412 49.5369 115.606 49.5776 115.808 49.6117C116.068 49.7245 116.342 49.6969 116.603 49.5972C116.783 49.714 116.957 49.8399 117.137 49.9645C117.165 50.0104 117.218 50.1049 117.246 50.1521C117.38 50.2609 117.515 50.3751 117.647 50.4905C117.723 50.8932 118.1 51.0716 118.384 51.3129C118.695 51.709 118.859 52.1891 119.051 52.6495C119.081 52.9328 119.182 53.2017 119.363 53.426C119.586 54.0818 119.599 54.7731 119.68 55.4552C119.433 55.6677 119.467 55.947 119.581 56.2225L119.434 56.174C119.349 56.6763 118.963 57.0593 118.744 57.5092C118.462 58.131 118.362 58.8131 118.117 59.4479C118.597 59.3744 119.088 59.3849 119.568 59.2957C119.985 59.3915 120.415 59.4387 120.828 59.562C121.046 59.6565 121.27 59.743 121.496 59.8257C122.649 60.3346 123.608 61.2462 124.211 62.3493C125.003 63.6859 125.032 65.3583 124.532 66.8025C124.456 66.9284 124.383 67.0569 124.313 67.1868C124.316 67.6511 124.08 68.0564 123.743 68.3607C124.118 68.5876 124.479 68.8408 124.784 69.1595C125.681 69.961 126.714 70.6207 127.499 71.5441C127.767 71.8485 128.05 72.1396 128.32 72.444C129.069 73.4566 129.727 74.5374 130.175 75.7192C130.47 76.4944 130.65 77.3037 130.827 78.1117C131.03 79.2922 131.03 80.4976 130.937 81.6912C130.866 82.5648 130.604 83.403 130.431 84.2582C130.277 84.6373 130.134 85.0216 130.031 85.419C129.64 86.3319 129.155 87.2003 128.667 88.0647C127.184 90.3876 125.058 92.2476 122.676 93.6052C122.224 93.7796 121.816 94.0538 121.354 94.2072C120.09 94.7201 118.774 95.1398 117.418 95.3195C117.125 95.3405 116.833 95.3602 116.555 95.4533C114.814 95.5281 113.049 95.4533 111.363 94.989C110.971 94.888 110.594 94.7319 110.197 94.6558C109.655 94.3436 109.03 94.2545 108.463 94.0105C107.345 93.373 106.212 92.7631 105.037 92.241C104.966 92.4561 104.9 92.6739 104.844 92.8942C104.579 93.3074 104.595 93.8321 104.291 94.2308C104.009 94.9326 103.749 95.654 103.33 96.2928C103.075 96.6037 102.833 96.9263 102.596 97.2529C102.128 97.792 101.564 98.2354 101.068 98.7482C100.757 99.0316 100.467 99.3555 100.07 99.5169C99.2209 100.132 98.3605 100.755 97.4069 101.2L97.403 101.356C97.3636 101.341 97.2836 101.314 97.2442 101.301C96.9058 101.534 96.532 101.709 96.1503 101.857C95.324 102.359 94.4071 102.677 93.5309 103.073C93.2056 103.179 92.8961 103.327 92.5642 103.41L92.5367 103.483C91.6814 103.729 90.859 104.07 90.0038 104.314C89.3847 104.479 88.7918 104.744 88.1504 104.828C87.9432 104.897 87.7346 104.964 87.5274 105.027C87.3359 105.011 87.1522 105.067 86.9752 105.12C86.7522 105.158 86.5344 105.212 86.318 105.267C86.099 105.324 85.8825 105.389 85.67 105.457C84.1196 105.755 82.5666 106.086 80.9979 106.235C80.851 106.255 80.7027 106.277 80.5611 106.309C79.7111 106.431 78.8428 106.446 78.0073 106.631L77.9889 106.555C77.0629 106.658 76.104 106.689 75.1898 106.509L75.0232 106.612C74.9681 106.6 74.8605 106.578 74.8055 106.566C74.1208 106.423 73.3928 106.423 72.7212 106.286C72.6071 106.208 72.4825 106.184 72.3487 106.214C72.169 106.247 72.005 106.212 71.8594 106.107L71.7899 106.178C71.5591 106.115 71.3243 106.074 71.1026 105.991C70.9334 105.97 70.7668 105.955 70.6015 105.938C70.1175 105.8 69.6125 105.737 69.1246 105.61C68.6445 105.339 68.0503 105.405 67.5611 105.143C67.3958 105.067 67.2148 105.043 67.0404 105.014C66.9577 104.977 66.7925 104.903 66.7098 104.865L66.7124 104.796L66.6455 104.794C66.5485 104.79 66.353 104.782 66.256 104.778C65.6041 104.407 64.8709 104.213 64.2242 103.83C63.2693 104.091 62.5439 104.782 61.6612 105.19C61.2349 105.353 60.8493 105.633 60.398 105.724C59.9849 105.851 59.5704 105.974 59.1703 106.136C59.0392 106.154 58.908 106.174 58.7781 106.195C58.1839 106.411 57.5556 106.499 56.9392 106.63C55.6865 106.867 54.4116 106.948 53.1432 107.039C52.2631 107.035 51.3842 106.997 50.5054 107.024C47.9463 106.802 45.3886 106.5 42.8728 105.962C40.4409 105.536 38.097 104.735 35.7478 103.994C34.8427 103.702 33.9862 103.279 33.0772 103.003C33.009 102.961 32.8726 102.88 32.8044 102.838C32.7401 102.83 32.6116 102.814 32.5473 102.807C32.4174 102.73 32.2876 102.657 32.1577 102.585C32.0148 102.544 31.8718 102.504 31.7314 102.462C31.6593 102.451 31.5163 102.43 31.4442 102.42C31.4114 102.414 31.3432 102.405 31.3091 102.401C31.2684 102.341 31.1858 102.222 31.1438 102.163C31.0992 102.16 31.0074 102.155 30.9628 102.152L30.8644 102.151C30.6401 102.047 30.4106 101.963 30.185 101.87C29.5357 101.49 28.8654 101.149 28.2201 100.763C26.8363 99.9287 25.5246 98.9699 24.3323 97.8786C23.7079 97.2188 23.0429 96.5905 22.5196 95.8416C22.0631 95.3313 21.789 94.6939 21.4833 94.0905C21.301 93.6511 21.0492 93.2484 20.8249 92.8326C19.6496 93.1474 18.5006 93.6983 17.2624 93.6485C16.2799 93.6878 15.2896 93.6052 14.336 93.3573C14.2062 93.3402 14.0763 93.3258 13.9465 93.3153C13.4611 93.0976 12.905 93.0556 12.4617 92.7434C12.4 92.7342 12.2767 92.7185 12.2151 92.7106C10.7001 91.9734 9.23625 91.0763 8.07542 89.8407C7.7252 89.4682 7.37499 89.0956 7.00247 88.7467C6.57355 88.0568 5.98592 87.4744 5.59767 86.7556C5.12153 85.9935 4.74639 85.1777 4.32403 84.3867C4.01054 83.5525 3.69312 82.7183 3.39012 81.8814C3.08057 80.6576 2.84578 79.4181 2.71723 78.1628C2.63853 77.4296 2.64509 76.6925 2.65165 75.9579C2.63985 75.9186 2.61886 75.8412 2.60837 75.8018C2.71593 74.8679 2.72379 73.9222 2.91923 72.9988C2.93891 72.6801 3.03859 72.3757 3.13828 72.0754C3.13435 72.0163 3.1291 71.8983 3.12648 71.8393C3.22616 71.6412 3.29831 71.434 3.35733 71.2228C3.44915 70.9342 3.53441 70.643 3.58687 70.3466C3.61442 70.302 3.6682 70.2141 3.69443 70.1695C3.71017 70.0908 3.74296 69.9308 3.7587 69.8508C4.43946 68.2309 5.28024 66.6621 6.43583 65.3268C7.40515 64.1266 8.66698 63.2137 9.98521 62.432C10.5335 62.2064 11.0621 61.9217 11.6419 61.7827C12.097 61.7145 12.5561 61.7827 13.0139 61.7879C13.0047 61.7289 12.9876 61.6082 12.9785 61.5479C13.1883 61.6436 13.4165 61.6791 13.6448 61.7145C13.7392 61.6056 13.835 61.498 13.9334 61.3918C13.6408 61.115 13.4979 60.7281 13.2211 60.4395C12.4708 59.6079 11.832 58.6727 11.3939 57.6404C10.6463 55.7398 10.4495 53.5965 11.0647 51.6316C11.651 49.6156 13.0112 47.8173 14.8358 46.7693C15.1309 46.6027 15.4444 46.4755 15.7461 46.3207C17.4263 45.615 19.3479 45.5914 21.0728 46.1554C21.5686 46.3522 22.1038 46.5096 22.5091 46.8729C22.9065 46.9804 23.3131 47.0539 23.725 47.0893C23.8811 46.8244 24.0398 46.5607 24.1972 46.2984C23.704 45.6019 23.0547 44.9657 22.9026 44.0895C22.652 43.4061 22.8724 42.6808 23.0573 42.0105C23.603 40.788 24.9094 39.9171 26.2591 39.9787C27.0632 39.9394 27.8804 40.1978 28.5231 40.6818C28.8772 40.994 29.3967 40.9743 29.7705 41.2616C30.1601 41.133 30.564 41.0609 30.9667 40.9835C30.6519 39.4475 30.5431 37.825 31.0336 36.3113C32.0607 32.7422 35.0683 29.9431 38.5561 28.8007C39.0925 28.6315 39.6356 28.4819 40.1839 28.3547C41.106 28.2655 42.0412 28.0766 42.9646 28.2708C43.6362 28.3232 44.296 28.4636 44.9426 28.6551C44.5478 29.7844 44.1674 30.9243 43.8303 32.072C43.7228 32.3238 43.6467 32.5862 43.568 32.8472C43.2689 33.4755 43.3188 34.1693 43.5509 34.8094C43.6073 34.7963 43.7175 34.7688 43.7726 34.7557C43.7595 35.0206 43.7411 35.2856 43.7175 35.5505C43.8657 35.742 43.9877 35.9532 44.1136 36.1605C44.2186 36.3244 44.3104 36.4949 44.3996 36.6694L44.4638 36.5605C44.5727 37.0695 45.1026 37.3633 45.2889 37.8525L45.3532 37.8197C45.6745 38.41 46.0549 38.9884 46.6635 39.3177C46.2923 39.6416 45.8503 39.8673 45.3951 40.047C44.8009 40.308 44.2002 40.569 43.6703 40.9507L43.6611 40.8707C43.5011 40.9743 43.3358 41.0727 43.1745 41.1737C40.134 42.7451 37.1132 44.3637 34.1161 46.0229C33.9928 45.9678 33.8695 45.9154 33.7462 45.8642C31.1858 49.4516 28.7461 53.1191 26.2198 56.7314C26.0729 57.1223 26.0453 57.5486 25.9798 57.9605C26.0965 58.1572 26.25 58.35 26.4506 58.4681C28.0325 59.2066 29.5672 60.0421 31.1517 60.7753C31.2028 61.4325 31.191 62.0922 31.2133 62.752C31.2028 63.1455 31.2251 63.5403 31.2369 63.9351C31.2907 64.4991 31.3261 65.0671 31.3484 65.6337C31.4022 66.4194 31.4402 67.2078 31.5098 67.9921C31.557 68.2072 31.5911 68.4263 31.6278 68.6454C31.3576 68.7975 31.3248 69.1136 31.2304 69.3786C32.7165 70.3059 34.3023 71.0667 35.8344 71.914C40.5564 74.4587 45.2876 76.9863 49.9899 79.569C50.167 79.649 50.3441 79.7355 50.5198 79.8247C51.0747 80.15 51.6518 80.4399 52.2198 80.7442C53.4816 81.446 54.7631 82.1123 56.0394 82.7865C56.6191 83.0724 57.17 83.4082 57.7445 83.7047C60.9083 85.4348 64.1284 87.0625 67.3001 88.7821C67.5191 88.7861 67.7408 88.794 67.9625 88.8031C68.074 88.8897 68.1894 88.9763 68.3061 89.0628C69.3935 88.3519 70.5478 87.7551 71.6286 87.0337C79.1104 82.4809 86.579 77.9071 94.0556 73.349C95.8512 72.2564 97.6207 71.1244 99.4334 70.0606C99.6131 69.9518 99.7889 69.835 99.9712 69.7301C100.446 69.4245 100.929 69.1333 101.423 68.8605C101.494 68.8736 101.634 68.9011 101.705 68.9142C101.759 68.8972 101.867 68.8644 101.919 68.8487C102.053 68.5378 102.248 68.2623 102.445 67.9908C102.629 67.9672 102.854 68.059 103.004 67.9043C103.153 67.4583 103.02 66.9821 103.118 66.5283C103.153 64.8113 103.236 63.0957 103.231 61.3774C103.298 60.8579 103.317 60.3307 103.277 59.8086C103.156 59.3823 102.957 58.9849 102.751 58.5966C102.866 58.5271 102.982 58.4576 103.1 58.3881C103.673 58.0418 104.281 57.7519 104.813 57.34C105.353 57.062 105.876 56.7524 106.387 56.4219C106.842 56.132 107.34 55.9143 107.776 55.5942C107.929 55.3922 108.014 55.1482 108.135 54.9266C108.279 55.0026 108.425 55.0774 108.574 55.1535C108.813 54.941 109.137 54.7744 109.253 54.4596C109.114 54.2865 108.967 54.1238 108.859 53.931C108.779 53.8654 108.7 53.7998 108.624 53.7343C108.333 53.1847 107.87 52.7518 107.513 52.2455C107.246 51.8284 106.915 51.4572 106.603 51.0742C106.486 50.8919 106.356 50.7174 106.224 50.5482C106.086 50.3659 105.937 50.194 105.786 50.0262C105.147 49.1565 104.455 48.3275 103.814 47.4592C103.778 47.4212 103.706 47.3477 103.669 47.311C103.334 46.8519 102.985 46.4059 102.643 45.9534C102.267 45.4366 101.838 44.9618 101.447 44.4555C100.989 43.9938 100.718 43.3222 100.074 43.0743C99.6394 42.9576 99.2078 42.8303 98.7933 42.6572C94.9698 41.5095 91.1528 40.3368 87.3359 39.1734C87.7713 38.8048 88.0534 38.3011 88.3393 37.8184L88.4023 37.8538C88.5872 37.3633 89.1197 37.0708 89.2273 36.5605L89.2929 36.6707C89.3795 36.4949 89.4726 36.3244 89.5801 36.1605C89.8622 35.6751 90.1953 35.2187 90.4393 34.7111C90.7895 34.0972 90.9613 33.406 91.2001 32.7462C91.2774 32.5324 91.0702 32.3632 90.9863 32.1874C90.6819 31.6824 90.434 31.1473 90.1192 30.6514C89.6785 29.9392 89.4437 29.1299 89.0856 28.3796C89.731 28.1698 90.3776 27.9546 91.0453 27.8182C91.4414 27.7526 91.8323 27.6595 92.2323 27.6057ZM5.32746 76.5797C5.24614 78.6888 5.70129 80.8006 6.50797 82.7445C6.90147 84.0811 7.66355 85.2839 8.55418 86.3438C9.43825 87.2081 10.2685 88.1657 11.369 88.7625C11.7901 88.9828 12.0957 89.3593 12.4931 89.6111C12.947 89.8066 13.4546 89.8367 13.9071 90.0414C14.6574 90.4283 15.5152 90.4965 16.3376 90.6198C17.1758 90.5634 18.0087 90.8769 18.8364 90.6539C19.71 90.5752 20.5848 90.5319 21.4532 90.3916C22.1916 91.2612 23.0573 92.0089 23.8168 92.8588C24.9908 94.3436 26.389 95.6396 27.8515 96.8345C31.4507 99.6074 35.7124 101.406 40.0763 102.58C42.1435 103.111 44.292 103.158 46.3776 103.583C47.5922 103.81 48.8238 103.937 50.0568 104.007C51.6767 103.957 53.3085 104.114 54.9166 103.86C57.1018 103.637 59.2516 103.027 61.2152 102.043C61.732 101.804 62.1636 101.417 62.6738 101.17C63.205 101.09 63.7809 100.952 64.299 101.17C64.9902 101.442 65.7156 101.608 66.433 101.799C67.3722 102.027 68.2117 102.543 69.1574 102.759C70.6343 103.237 72.1729 103.487 73.7089 103.691C75.1754 103.843 76.6602 103.609 78.1227 103.841C79.1274 103.906 80.1387 103.862 81.1461 103.866C83.1097 103.702 84.9867 103.053 86.9174 102.704C90.4406 101.836 93.8103 100.331 96.8271 98.3154C98.8327 96.9106 100.804 95.3405 102.112 93.2353C102.707 92.1138 103.556 91.1615 104.26 90.1096C105.054 90.0676 105.863 90.1017 106.635 90.3089C107.293 90.6014 107.878 91.0369 108.546 91.3137C109.35 91.6311 110.1 92.0915 110.962 92.2502C113.021 92.8942 115.251 92.8864 117.334 92.3552C118.154 92.1099 119.038 92.1413 119.835 91.8134C120.613 91.5078 121.425 91.2704 122.133 90.8139C123.053 90.2329 123.956 89.6006 124.691 88.7913C125.608 87.9112 126.215 86.7832 126.843 85.6958C127.705 84.674 128.16 83.3964 128.542 82.1346C128.642 81.8198 128.572 81.4906 128.539 81.1731C128.461 80.5488 128.524 79.9152 128.432 79.2935C128.337 78.2258 127.869 77.1188 126.971 76.4892C126.792 78.5721 125.837 80.495 124.603 82.1503C123.457 83.601 122.01 84.8747 120.268 85.5502C117.636 86.5313 114.797 87.2422 111.973 86.8356C110.394 86.8186 108.799 86.8002 107.25 86.4526C105.774 86.1103 104.243 86.3844 102.8 86.7543C101.574 87.1045 100.285 87.2763 99.1488 87.8902C98.4903 88.1119 98.0706 88.7166 97.4187 88.9422C96.4717 89.3278 95.6742 89.9823 94.8137 90.5188C93.6398 91.2966 92.4081 91.98 91.1489 92.6083C88.6803 93.7849 86.0439 94.5693 83.3825 95.1713C82.1246 95.4284 80.8457 95.5163 79.5681 95.6068C77.6754 95.6251 75.7499 95.6225 73.9109 95.1175C73.5292 95.0257 73.1396 94.9732 72.7501 94.947C70.7537 94.8263 68.8137 94.3095 66.8593 93.9265C66.5026 93.8924 66.1524 93.9974 65.7982 94.0144C65.3549 94.0551 64.8971 93.9934 64.4669 94.1298C62.6895 94.7608 60.8401 95.1792 58.9762 95.4533C56.8539 95.8468 54.6975 95.9662 52.5503 96.1328C51.8459 96.1315 51.1389 96.1052 50.4411 96.2193C49.7014 96.3453 48.9655 96.1459 48.227 96.1328C46.8052 96.0987 45.4187 95.7576 44.0113 95.5845C43.2978 95.5005 42.6498 95.1411 41.9336 95.0834C40.3609 94.9588 38.8774 94.3843 37.4162 93.8334C36.1216 93.3769 34.9713 92.6135 33.7855 91.9393C33.0995 91.555 32.6024 90.9189 31.9138 90.5398C31.0074 90.0296 30.446 89.1101 29.5934 88.5316C27.8358 87.3144 25.8774 86.4041 23.8575 85.7168C22.7294 85.3324 21.5384 85.2262 20.3684 85.0426C19.3729 84.8944 18.3589 85.0714 17.3647 84.9088C16.4295 84.7265 15.4995 84.4772 14.639 84.0628C12.4551 83.0226 10.4784 81.5456 8.87685 79.7316C7.66224 78.3806 6.62471 76.7856 6.31515 74.9663C5.60947 75.1512 5.33927 75.9212 5.32746 76.5797Z" fill="white"/>
<path d="M60.6735 33.9529C62.4757 32.4524 64.7712 31.5316 67.1177 31.4319C68.899 31.4332 70.717 32.0156 72.0719 33.1948C72.9442 33.987 73.7509 34.9878 73.9214 36.188C74.1968 36.2575 74.5208 36.289 74.6586 35.9794C74.9393 35.7433 74.509 35.3367 74.8146 35.1124C75.7643 34.0723 77.1088 33.5187 78.4178 33.0793C79.98 32.5258 81.6222 32.2254 83.2684 32.0549C83.1385 34.227 82.4512 36.3152 81.7626 38.3627C81.3192 39.7216 80.5165 40.914 79.7255 42.0905C78.7116 43.5071 77.6229 44.8936 76.2916 46.0269C75.805 46.4545 75.2108 46.7234 74.631 46.9949C74.6021 47.088 74.5444 47.2769 74.5156 47.3713C74.6467 47.4448 74.7792 47.5182 74.913 47.593C73.5541 48.5518 72.594 49.9763 71.9316 51.4808C71.2495 52.82 70.6645 54.2038 70.1477 55.6126C69.8355 56.6553 69.3922 57.6942 69.4355 58.8039C68.8124 59.1554 68.1658 59.461 67.5467 59.8191C67.3617 59.7469 67.1728 59.6879 66.9879 59.6302C66.3911 59.2616 65.6959 59.099 65.0676 58.7973C64.6203 58.6373 64.1888 58.4405 63.7586 58.2425C63.3218 57.1971 62.9702 56.1175 62.519 55.08C61.3595 52.963 60.1987 50.8472 58.9932 48.7564C58.6693 48.1898 58.1774 47.753 57.776 47.2467C57.4822 47.1549 57.191 47.0618 56.9011 46.9647C56.9313 46.8939 56.9916 46.7509 57.0218 46.6801C56.4132 46.0623 55.9226 45.3107 55.1737 44.849C51.6702 42.4276 48.5917 39.4095 46.0195 36.0201C45.5617 35.4417 45.2522 34.7661 44.8311 34.1628C44.8023 34.071 44.7446 33.8899 44.7157 33.7994C45.769 33.0085 47.0715 32.678 48.3556 32.5127C50.8097 32.2687 53.3032 32.6727 55.6157 33.5056C56.8198 33.9883 58.0016 34.5563 59.0392 35.3433C58.9303 35.6279 58.7611 35.8889 58.6955 36.1893C58.6076 37.7659 59.0903 39.3662 60.0557 40.6201C61.1824 42.1535 62.9007 43.2054 64.7436 43.6396C67.7946 44.3978 71.2417 43.5006 73.4571 41.2497C74.0145 40.7303 74.109 39.9433 74.4343 39.2888C74.3857 39.1786 74.3398 39.0697 74.2939 38.9609C73.8178 39.5629 73.4426 40.2476 72.876 40.7736C70.4599 43.1687 66.5222 43.7813 63.449 42.3699C61.0696 41.3888 59.2307 38.9727 59.2844 36.3467C59.2307 35.8496 59.573 35.4417 59.758 35.0088C59.9495 34.572 60.2957 34.2323 60.6735 33.9529ZM64.8709 32.9901C64.8722 33.0964 64.8761 33.3063 64.8787 33.4125C65.225 33.8506 65.5398 34.3766 66.0828 34.5943C66.3583 34.7215 66.6718 34.677 66.9577 34.7714C67.0154 34.7583 67.1309 34.7294 67.1886 34.715C67.729 34.3766 68.3429 34.0605 68.5606 33.4112C68.6327 33.3758 68.7783 33.3036 68.8505 33.2682C68.8019 33.2656 68.7049 33.2617 68.655 33.2603C68.5999 32.9705 68.4714 32.7055 68.3573 32.4392C67.7592 32.3776 67.1532 32.3068 66.5603 32.4366C65.9792 32.535 65.2735 32.4851 64.8709 32.9901ZM70.8888 35.1623C70.7524 35.62 70.3733 35.9453 69.9326 36.0988C69.4552 36.3729 68.962 36.6418 68.415 36.7402C66.3491 37.2229 64.1507 36.6208 62.4207 35.4521C62.2947 35.6148 62.1937 35.7945 62.0836 35.9676C62.2187 36.1736 62.3603 36.3939 62.6069 36.4779C63.5408 36.9199 64.4446 37.4813 65.469 37.6846C66.3203 37.7856 67.1938 37.9063 68.0425 37.7135C68.8715 37.5233 69.6768 37.236 70.4612 36.9055C70.9387 36.6956 71.399 36.3638 71.5945 35.8614C71.6024 35.7906 71.6194 35.6463 71.6286 35.5754C71.5197 35.401 71.4148 35.2279 71.3112 35.0521C71.1682 35.0888 71.0278 35.1255 70.8888 35.1623Z" fill="#FFEFE2"/>
<path d="M83.2684 32.0549C84.5682 31.9251 85.8878 31.9395 87.1785 32.1507C87.9419 32.3055 88.759 32.493 89.2955 33.1043C88.5151 35.1833 87.042 36.8897 85.6084 38.5464C83.6068 40.7513 81.4268 42.8106 78.9792 44.5171C78.5372 44.8555 78.0295 45.1244 77.6767 45.5665C77.3632 45.9495 76.9907 46.28 76.6916 46.6761C76.0633 46.9083 75.4678 47.2205 74.913 47.593C74.7792 47.5182 74.6467 47.4448 74.5156 47.3713C74.5444 47.2769 74.6021 47.088 74.631 46.9949C75.2108 46.7234 75.8049 46.4545 76.2916 46.0269C77.6229 44.8936 78.7116 43.5071 79.7255 42.0905C80.5165 40.914 81.3192 39.7216 81.7626 38.3628C82.4512 36.3152 83.1385 34.227 83.2684 32.0549Z" fill="#E1B070"/>
<path d="M81.7639 44.5696C83.4074 43.2487 84.9342 41.7862 86.3941 40.2699C86.8978 40.2739 87.3739 40.4877 87.854 40.6254C91.204 41.6144 94.5435 42.6375 97.8922 43.6317C96.1398 44.525 94.4491 45.5324 92.6914 46.4138C89.2299 48.2423 85.7619 50.0576 82.3253 51.932C82.2715 51.7733 82.219 51.6185 82.1561 51.4664C81.8688 50.7371 81.5527 50.0104 81.0975 49.369C80.6201 48.4115 79.9538 47.5681 79.416 46.646C79.3412 46.6053 79.1904 46.5227 79.1156 46.482C80.0666 45.9455 80.9192 45.2569 81.7639 44.5696Z" fill="#C5AC7E"/>
<path d="M45.9972 41.0491C46.4668 40.8838 46.9259 40.6884 47.3089 40.3591C48.833 41.777 50.2837 43.2829 51.9286 44.5683C52.6146 45.1546 53.3557 45.6753 54.0784 46.2158C53.5314 46.9096 53.0697 47.6691 52.4795 48.3275C51.8538 49.0791 51.4997 49.9973 51.0891 50.8709C50.6917 51.3391 50.39 51.8848 50.2326 52.4803C49.1426 52.2547 48.1706 51.6946 47.1357 51.3116C46.6478 51.1214 46.148 50.9588 45.6916 50.703C43.1889 49.6327 40.6626 48.6214 38.1481 47.5812C37.226 47.1851 36.2515 46.907 35.3543 46.4532C38.9233 44.6942 42.4622 42.8749 45.9972 41.0491Z" fill="#C5AC7E"/>
<path d="M99.499 44.18C102.013 47.5576 104.604 50.8814 107.12 54.2576C106.96 54.3324 106.8 54.4071 106.641 54.478C104.574 55.8224 102.42 57.0252 100.335 58.3382C99.8138 58.6412 99.2721 58.9101 98.7907 59.2721C98.3814 59.482 97.9971 59.7352 97.6154 59.987C97.4869 60.0526 97.3597 60.1168 97.2324 60.1824C97.0488 60.3083 96.8678 60.4382 96.6841 60.5628C96.4139 60.7019 96.1319 60.8212 95.8945 61.0127C95.5496 61.2265 95.1836 61.4062 94.8649 61.6594C94.0516 62.1001 93.2922 62.6353 92.4789 63.0799C92.2664 63.1953 92.0657 63.3291 91.8664 63.4629C91.73 63.5534 91.5962 63.6452 91.4611 63.7358C90.8459 64.006 90.3304 64.4441 89.7467 64.7641C88.8338 65.2389 87.9969 65.8436 87.1076 66.3591C86.3245 66.8326 85.5375 67.2983 84.7571 67.7744C84.2193 68.0695 83.7091 68.4106 83.1831 68.724C82.5797 69.1254 81.9462 69.4769 81.331 69.86C80.5558 70.2613 79.8554 70.7886 79.0854 71.1992C78.8192 71.35 78.688 71.6346 78.5083 71.8668C77.4708 70.4804 76.3991 69.1175 75.3786 67.7193C74.8789 67.0949 74.4014 66.4548 73.9253 65.8148C72.4995 63.9128 71.0672 62.0148 69.6427 60.1116C69.9549 59.945 70.271 59.7824 70.5897 59.6276C72.3238 58.6583 74.1129 57.7926 75.8469 56.8246C76.7008 56.4665 77.4773 55.9497 78.3076 55.5404C83.0795 53.0089 87.8631 50.5023 92.6285 47.959C94.4871 46.945 96.3785 45.9941 98.2529 45.0103C98.6963 44.7834 99.2353 44.6417 99.499 44.18Z" fill="#F9E9D1"/>
<path d="M34.2564 47.4146C36.1754 48.2567 38.0996 49.0922 40.0291 49.9147C43.0013 51.1634 45.967 52.4318 48.9432 53.6687C49.1688 53.7631 49.3957 53.8615 49.6161 53.9743C51.1153 54.5449 52.5634 55.2479 54.0587 55.829C56.0236 56.6632 57.9951 57.4869 59.9613 58.3199C60.9739 58.7186 61.9602 59.1842 62.9781 59.5738C63.7612 59.9594 64.6059 60.21 65.3614 60.6533C64.2622 61.9807 63.2955 63.4118 62.2423 64.7746C61.349 66.0587 60.3679 67.2799 59.4628 68.5562C58.7099 69.5832 57.9911 70.6404 57.1398 71.5901C55.861 71.068 54.6857 70.3374 53.4094 69.8114C53.0933 69.6199 52.7444 69.4966 52.4231 69.3195C52.2381 69.2264 52.0558 69.1333 51.8827 69.027L51.7869 69.0126C51.4406 68.7988 51.0642 68.6414 50.6851 68.4998C50.428 68.3463 50.1618 68.2099 49.8968 68.0761C49.1741 67.7127 48.4185 67.4189 47.7155 67.0189C47.2577 66.7906 46.7816 66.6044 46.3212 66.3866C45.243 65.7872 44.1189 65.273 42.9987 64.7615C42.8479 64.6788 42.6996 64.5949 42.5527 64.5136C42.2038 64.3444 41.8457 64.1948 41.4995 64.023C41.3276 63.8879 41.1204 63.8171 40.9184 63.7476L40.9131 63.6203C40.8712 63.6295 40.7872 63.6466 40.7452 63.6557C36.5164 61.5885 32.2758 59.5541 28.0365 57.5119C27.8279 57.4371 27.597 57.4751 27.3832 57.4515C27.6495 57.1013 27.9656 56.7865 28.1781 56.3983C28.6215 55.6257 29.2301 54.9594 29.6446 54.1684C30.0079 53.7447 30.2847 53.2594 30.606 52.8056C31.0769 52.1825 31.4547 51.4939 31.9413 50.8801C32.0475 50.7122 32.1512 50.543 32.2613 50.3777C32.4502 50.0419 32.6745 49.7284 32.9119 49.4254C33.3291 48.7342 33.838 48.1046 34.2564 47.4146Z" fill="#F9E9D1"/>
<path d="M80.7985 71.796C87.812 67.5488 94.878 63.3895 101.877 59.116C101.923 60.4395 101.713 61.7512 101.733 63.0733C101.659 64.3653 101.545 65.6626 101.629 66.9572C101.169 67.2812 100.714 67.613 100.227 67.8937C99.7928 68.1508 99.3495 68.3961 98.9389 68.6899C97.9984 69.2369 97.0829 69.8271 96.1529 70.3951C95.8421 70.563 95.5207 70.7178 95.2413 70.9368C95.0669 71.0483 94.8937 71.1598 94.7193 71.27C94.453 71.4025 94.1972 71.5572 93.9506 71.7238C93.3486 72.0229 92.8173 72.4413 92.2402 72.7823C91.3601 73.3254 90.4524 73.8251 89.5959 74.4049C89.1892 74.6226 88.7957 74.864 88.418 75.1302C87.0525 75.9172 85.7448 76.7948 84.3767 77.5791C83.8442 77.9202 83.2854 78.2205 82.7883 78.614C82.7371 78.6245 82.6361 78.6468 82.585 78.6573C81.9921 79.1204 81.2904 79.4155 80.6817 79.8575C80.3787 80.0543 80.06 80.2274 79.7649 80.436C79.0854 80.7363 78.5214 81.2321 77.8656 81.5719C77.0235 82.0742 76.2286 82.6553 75.3524 83.0987C73.0871 84.5861 70.7104 85.8951 68.4465 87.3852C68.4766 85.9896 68.4543 84.5913 68.3704 83.1983C68.373 82.5451 68.3455 81.8919 68.352 81.2387C68.2943 79.6109 68.272 77.9844 68.1972 76.358L68.2313 76.2989C68.2104 74.7984 68.1198 73.3031 68.0975 71.8025C68.1041 70.765 67.9926 69.7327 67.9979 68.6939C68.0215 67.3009 67.8903 65.9118 67.8982 64.5188C67.788 63.3908 67.8628 62.2535 67.7119 61.1308C67.9375 60.997 68.1658 60.8684 68.3966 60.7438C70.435 63.5587 72.51 66.3499 74.5549 69.1608C75.3236 70.3335 76.2916 71.3775 76.9579 72.6145C77.4104 72.9148 77.9062 73.1522 78.4191 73.3333C79.1326 72.7036 80.0036 72.3075 80.7985 71.796Z" fill="#E7D1A8"/>
<path d="M66.3714 61.4049C66.3216 61.2199 66.277 61.0376 66.2376 60.8527C66.5222 61.0101 66.4462 61.3446 66.4632 61.6161C66.4409 63.2373 66.5288 64.8572 66.5157 66.4798C66.66 68.5784 66.517 70.685 66.6521 72.7837C66.6849 74.7997 66.7387 76.8157 66.7492 78.8331C66.8882 80.9711 66.8108 83.1144 66.9039 85.2537C66.9249 85.8269 66.98 86.4001 66.9643 86.976C65.8179 86.2585 64.5862 85.6892 63.4228 85.0006C62.4338 84.4444 61.3897 83.984 60.4308 83.3754C59.2123 82.8101 58.0724 82.0978 56.8657 81.5128C56.5037 81.2557 56.08 81.1062 55.6957 80.8885C55.6327 80.8583 55.5094 80.7967 55.4478 80.7652C54.1912 80.0044 52.8389 79.4115 51.5757 78.6613C51.1599 78.4448 50.731 78.2533 50.331 78.0094C48.9183 77.3194 47.5778 76.4799 46.1375 75.8464L46.1966 75.7074C46.1493 75.7152 46.0536 75.7323 46.0064 75.7402C44.7786 75.0332 43.4958 74.4298 42.2471 73.7635C40.3727 72.6971 38.4341 71.7304 36.5374 70.7007C35.3425 70.0003 34.0767 69.4258 32.8713 68.7489C32.9146 66.3263 32.7637 63.9063 32.6024 61.4902C37.6497 64.0296 42.7311 66.4955 47.7916 69.0087C48.8147 69.4428 49.7551 70.0475 50.7887 70.4594C51.7856 70.9578 52.7641 71.4969 53.7859 71.9429C54.708 72.3849 55.6013 72.8925 56.5391 73.3018C57.0821 73.349 57.6304 73.3464 58.1748 73.3896C59.0221 72.137 59.8393 70.8647 60.5922 69.553C61.0342 68.7883 61.5733 68.0866 62.0547 67.3455C62.9256 65.9328 64.2557 64.8769 65.1568 63.4865C65.4755 63.0051 65.8507 62.5644 66.172 62.0857L66.2796 62.1552C66.2966 61.9033 66.3294 61.6528 66.3714 61.4049Z" fill="#E7D1A8"/>
<path d="M5.32747 76.5796C5.33928 75.9212 5.60948 75.1512 6.31516 74.9663C6.62472 76.7856 7.66225 78.3806 8.87686 79.7316C10.4784 81.5456 12.4551 83.0226 14.639 84.0627C15.4995 84.4772 16.4295 84.7264 17.3647 84.9088C18.3589 85.0714 19.3729 84.8943 20.3684 85.0426C21.5384 85.2262 22.7294 85.3324 23.8575 85.7168C25.8775 86.4041 27.8358 87.3144 29.5934 88.5316C30.446 89.1101 31.0074 90.0295 31.9138 90.5398C32.6024 90.9189 33.0995 91.555 33.7855 91.9393C34.9713 92.6135 36.1216 93.3769 37.4162 93.8334C38.8774 94.3843 40.3609 94.9588 41.9336 95.0834C42.6498 95.1411 43.2978 95.5005 44.0113 95.5845C45.4187 95.7576 46.8052 96.0987 48.227 96.1328C48.9655 96.1459 49.7014 96.3452 50.4411 96.2193C51.139 96.1052 51.8459 96.1314 52.5503 96.1328C54.6975 95.9662 56.8539 95.8468 58.9762 95.4533C60.8401 95.1792 62.6895 94.7607 64.4669 94.1298C64.8971 93.9934 65.3549 94.0551 65.7982 94.0144C66.1524 93.9974 66.5026 93.8924 66.8593 93.9265C68.8137 94.3095 70.7537 94.8263 72.7501 94.947C73.1396 94.9732 73.5292 95.0257 73.9109 95.1175C75.7499 95.6225 77.6754 95.6251 79.5681 95.6068C80.8457 95.5163 82.1246 95.4284 83.3825 95.1713C86.0439 94.5692 88.6803 93.7849 91.1489 92.6083C92.4081 91.98 93.6398 91.2966 94.8137 90.5188C95.6742 89.9823 96.4717 89.3278 97.4187 88.9422C98.0706 88.7166 98.4903 88.1119 99.1488 87.8902C100.285 87.2763 101.574 87.1045 102.8 86.7543C104.243 86.3844 105.774 86.1103 107.25 86.4526C108.799 86.8002 110.394 86.8186 111.973 86.8356C114.797 87.2422 117.636 86.5313 120.268 85.5502C122.01 84.8747 123.457 83.601 124.603 82.1503C125.837 80.495 126.792 78.5721 126.971 76.4891C127.869 77.1187 128.337 78.2258 128.432 79.2935C128.524 79.9152 128.461 80.5488 128.539 81.1731C128.572 81.4906 128.642 81.8198 128.542 82.1346C128.16 83.3964 127.705 84.674 126.843 85.6958C126.215 86.7832 125.608 87.9112 124.691 88.7913C123.956 89.6006 123.053 90.2329 122.133 90.8139C121.425 91.2704 120.613 91.5078 119.835 91.8134C119.038 92.1413 118.154 92.1099 117.334 92.3551C115.251 92.8864 113.021 92.8942 110.962 92.2502C110.1 92.0915 109.35 91.6311 108.546 91.3137C107.878 91.0369 107.293 90.6014 106.635 90.3089C105.863 90.1017 105.054 90.0676 104.26 90.1096C103.556 91.1615 102.707 92.1138 102.112 93.2353C100.804 95.3405 98.8327 96.9106 96.8271 98.3154C93.8103 100.331 90.4406 101.836 86.9174 102.704C84.9867 103.053 83.1097 103.702 81.1461 103.866C80.1387 103.862 79.1274 103.906 78.1227 103.841C76.6602 103.609 75.1754 103.843 73.7089 103.691C72.1729 103.487 70.6343 103.237 69.1574 102.759C68.2117 102.543 67.3722 102.027 66.4331 101.799C65.7156 101.608 64.9902 101.442 64.299 101.17C63.7809 100.952 63.205 101.09 62.6738 101.17C62.1636 101.417 61.732 101.804 61.2152 102.043C59.2516 103.027 57.1018 103.637 54.9166 103.86C53.3085 104.114 51.6767 103.957 50.0568 104.007C48.8238 103.937 47.5922 103.81 46.3776 103.583C44.292 103.158 42.1435 103.111 40.0763 102.58C35.7124 101.406 31.4507 99.6074 27.8515 96.8345C26.389 95.6396 24.9908 94.3436 23.8168 92.8588C23.0574 92.0089 22.1916 91.2612 21.4532 90.3916C20.5848 90.5319 19.71 90.5752 18.8364 90.6539C18.0087 90.8769 17.1758 90.5634 16.3377 90.6198C15.5152 90.4965 14.6574 90.4283 13.9071 90.0413C13.4546 89.8367 12.947 89.8066 12.4931 89.6111C12.0957 89.3593 11.7901 88.9828 11.369 88.7625C10.2685 88.1657 9.43826 87.2081 8.55419 86.3437C7.66356 85.2839 6.90148 84.0811 6.50798 82.7445C5.7013 80.8006 5.24615 78.6888 5.32747 76.5796Z" fill="#B4DBFF"/>
</g>
<defs>
<clipPath id="clip0_7388_50948">
<rect width="131.921" height="109" fill="white" transform="translate(0.918274 0.0514221)"/>
</clipPath>
</defs>
</svg>
