<svg width="256" height="125" viewBox="0 0 256 125" fill="none" xmlns="http://www.w3.org/2000/svg">
<g clip-path="url(#clip0_11045_459133)">
<path d="M175.749 1.95661C176.121 1.40212 176.797 1.83552 177.138 2.19881C179.391 4.33392 181.306 6.80365 183.021 9.38491C183.786 10.5449 184.671 11.6379 185.213 12.9318C185.847 14.2766 186.239 15.7966 187.288 16.8993C188.355 17.1956 189.487 17.1287 190.586 17.2434C190.583 15.5098 190.433 13.7508 190.822 12.0458C191.357 9.47733 191.784 6.80684 193.196 4.54425C195.561 6.36707 197.141 8.98976 198.524 11.587C199.716 18.3779 200.876 25.3887 199.579 32.2498C197.699 28.3046 192.759 26.2045 188.604 27.5462C186.561 28.2409 184.404 29.318 183.41 31.3479C179.633 30.462 175.701 31.0803 172.036 32.1637C173.011 33.4894 173.859 34.9075 174.49 36.4308C175.299 38.3588 176.351 40.1816 177.049 42.1574C177.055 42.5015 177.071 42.8489 177.097 43.1963C182.743 44.2702 187.944 46.9247 192.747 50.0063C196.673 52.578 200.35 55.5449 203.668 58.8655C205.322 60.65 206.966 62.5302 207.944 64.7801C208.664 66.4467 208.575 68.2855 208.476 70.0541C207.664 70.2772 206.838 70.4525 206.019 70.6309C206.125 69.079 206.415 67.2052 205.188 65.9974C204.936 67.4569 204.789 68.9292 204.554 70.3887C203.738 70.2071 202.925 70.0191 202.109 69.8374C202.128 68.585 202.074 67.3326 201.858 66.1026C201.52 66.0261 201.185 65.9592 200.854 65.8986C200.79 67.0777 200.745 68.2568 200.688 69.4359C199.722 69.0917 198.782 68.6838 197.868 68.2345C195.618 67.2721 193.613 65.8476 191.446 64.7291C189.391 63.7253 187.46 62.4792 185.347 61.5933C183.652 60.905 182.103 59.9203 180.452 59.1491C178.11 58.0497 175.647 57.2275 173.151 56.5646C173.113 56.3448 173.037 55.905 172.998 55.6851C171.099 55.1848 169.174 54.6845 167.195 54.6876C166.539 52.4601 165.13 50.4525 163.174 49.1841C162.301 50.2103 161.351 51.2173 160.844 52.4888C158.276 51.8451 155.621 51.6124 152.979 51.6985C147.6 51.5423 142.265 52.4729 137.042 53.6711C137.081 46.5997 136.714 39.5379 136.539 32.4697C139.35 31.6666 142.16 30.8413 145.019 30.223C151.434 28.7985 158.049 27.6959 164.627 28.5213C166.147 28.8017 167.645 29.1905 169.155 29.5315C169.923 26.7399 170.401 23.8782 170.857 21.0229C171.176 21.5933 171.501 22.1638 171.902 22.6864C172.645 22.6163 172.632 21.8005 172.763 21.2428C173.33 17.5462 173.913 13.8527 174.509 10.1625C174.722 9.32436 174.264 8.55317 173.897 7.83934C174.155 5.80939 174.439 3.61053 175.749 1.95661ZM187.75 23.8495C186.207 24.7036 184.406 24.9386 186.184 23.7754C186.353 22.8799 187.177 25.0095 186.703 24.181C186.499 23.7858 188.1 23.4894 187.75 23.8495ZM194.35 24.4423C193.881 25.325 194.123 26.3511 194.394 27.253C194.665 27.355 193.197 26.8164 193.468 26.9184C194.109 26.0994 194.159 25.1752 193.85 24.181C193.738 23.4225 194.777 23.8559 194.35 24.4423Z" fill="#FEA902"/>
<path d="M80.9812 53.5213C81.3477 53.2472 81.6823 52.7915 82.1922 52.8362C88.9544 52.7915 95.7199 52.8361 102.482 52.8138C102.692 54.3753 102.594 55.9623 102.374 57.5175C101.472 58.2568 100.526 58.9483 99.7511 59.8247C93.0494 67.7979 84.7925 74.4932 75.5478 79.3052C71.7142 81.2842 67.6256 82.9572 63.2884 83.3556C62.8104 83.4066 62.3324 83.4544 61.8576 83.5022C58.5051 83.8209 55.1909 83.107 51.9054 82.5685C50.1813 82.253 48.4796 81.8419 46.7938 81.3734C51.5962 81.3894 56.2393 79.5825 60.2578 77.0554C62.5331 75.5831 64.6237 73.7826 66.2138 71.5742C64.3719 72.0331 62.5204 72.492 60.6211 72.6545C58.2757 72.8234 55.9238 73.2823 53.5688 72.9541C51.9914 72.7979 50.4777 72.304 49.0086 71.7272C52.5841 70.5289 55.9876 68.8081 59.0245 66.571C59.9328 65.905 60.6817 65.0541 61.4082 64.2001C61.5166 64.079 61.6281 63.9611 61.746 63.8463C60.8123 65.3537 59.8627 66.9502 59.9678 68.7985C60.978 69.8757 62.4535 69.2925 63.6708 68.9993C64.6045 68.7699 65.4108 68.2217 66.1501 67.6258C66.7556 68.2026 67.3228 68.824 68.0016 69.318C68.8333 69.8534 69.8595 69.9298 70.8251 69.9681C70.978 69.5474 71.1469 69.1332 71.3158 68.7189C71.3222 67.1255 71.3477 65.5162 70.9717 63.9547C72.0392 63.1931 73.2534 62.4442 73.6963 61.1281C74.0086 60.0796 72.5618 60.0446 71.9372 59.6749C75.1654 57.97 78.2884 56.0006 80.9812 53.5213Z" fill="#FEA902"/>
<path d="M96.2521 67.4665C97.9506 64.8342 100.079 62.5143 102.113 60.1401C101.893 64.2861 101.631 68.4384 101.673 72.5939C101.733 74.6462 101.192 76.657 101.268 78.7125C97.1731 82.9859 92.9443 87.2434 87.8678 90.36C86.3031 91.3575 84.5312 92.1191 82.6383 92.0394C82.1316 91.2428 82.3451 90.2517 82.4471 89.3721C82.6288 87.6035 83.5529 86.0547 84.2253 84.4454C85.2674 82.3772 86.8257 80.6341 87.992 78.6424C90.8506 74.9935 93.4924 71.1854 96.2521 67.4665Z" fill="#FEA902"/>
<path d="M171.013 12.6418C170.809 10.3155 169.754 7.82026 171.045 5.60547C172.355 6.63797 172.925 8.25365 173.821 9.60802C172.865 13.3269 172.552 17.1829 171.912 20.9656C170.694 18.5883 169.346 16.2141 168.792 13.5755C168.696 12.7151 168.585 11.6252 169.518 11.1823C170.019 11.6667 170.484 12.1861 171.013 12.6418Z" fill="#FFDBBA"/>
<path d="M137.042 53.6711C142.265 52.4729 147.6 51.5423 152.979 51.6985C155.621 51.6124 158.276 51.8451 160.844 52.4888C160.554 53.1421 160.286 53.8049 160.022 54.4678C158.033 54.2638 156.074 54.6717 154.244 55.4365C148.4 56.1121 142.67 57.4952 137.042 59.1905C137.042 57.3518 137.042 55.5098 137.042 53.6711Z" fill="#FFDBBA"/>
<path d="M199.895 8.18673C200.035 8.12299 200.318 7.99234 200.459 7.92542C200.946 9.37538 201.039 10.9082 201.074 12.4251C201.491 12.1192 201.896 11.7941 202.342 11.5232C203.636 13.2154 202.884 15.4557 202.976 17.4028C202.001 15.0573 200.663 12.8872 199.656 10.5609C199.662 9.76416 199.828 8.98023 199.895 8.18673Z" fill="#E0AF70"/>
<path d="M199.254 33.7093C199.914 35.87 199.091 38.0561 198.237 40.0255C200.028 38.4289 200.822 35.7775 200.028 33.4831C202.256 33.4194 204.264 34.4742 205.863 35.9432C203.907 39.1236 201.176 41.7113 198.919 44.6622C197.457 46.246 196.255 48.0338 194.996 49.7737C193.531 48.7986 191.944 48.0306 190.414 47.167C191.472 45.6373 192.438 44.0408 193.464 42.4856C194.933 42.4187 196.513 42.1797 197.495 40.956C196.676 41.0643 195.879 41.281 195.076 41.4499C196.278 40.2995 197.555 39.2033 198.55 37.8553C199.464 36.6889 199.372 35.1019 199.254 33.7093Z" fill="#E0AF70"/>
<path d="M21.0258 69.1427C22.7148 70.8412 24.2126 72.7373 26.0768 74.2542C29.2731 77.0522 32.9474 79.2574 36.8066 81.007C39.4739 82.1829 42.3101 82.8808 45.1208 83.6169C47.1444 84.1204 49.2476 84.1331 51.3126 84.3498C54.8531 84.7004 58.3617 83.9515 61.8576 83.5022C62.3324 83.4544 62.8104 83.4066 63.2884 83.3556C61.5835 85.8126 58.9417 87.2944 56.319 88.5786C55.6307 88.7922 54.8945 88.6806 54.1903 88.6615C45.1367 87.817 36.131 84.7163 29.0118 78.9579C25.7486 76.2619 22.7753 73.0369 21.0258 69.1427Z" fill="#E0AF70"/>
<path d="M198.524 11.587C200.516 15.3251 202.176 19.232 203.652 23.1995C204.939 27.3168 206 31.5998 205.863 35.9433C204.264 34.4742 202.256 33.4194 200.028 33.4832C199.891 33.0657 199.742 32.6546 199.579 32.2499C200.876 25.3888 199.716 18.378 198.524 11.587Z" fill="#EC7522"/>
<path d="M194.996 49.7738C196.255 48.0338 197.457 46.246 198.919 44.6622C200.739 45.0861 202.648 44.9937 204.429 45.6151C209.483 47.218 214.2 49.8248 218.4 53.0434C221.3 55.1944 223.993 57.6865 226.074 60.6565C226.762 61.6221 226.74 62.8554 226.791 63.9898C226.338 64.2065 225.892 64.4232 225.446 64.6399C225.22 63.6998 225.181 62.5813 224.26 62.0141C224.219 62.9 224.26 63.7859 224.337 64.6718C223.578 64.6112 222.823 64.5411 222.068 64.4583C221.918 63.3684 222.259 61.7145 220.949 61.2365C220.959 62.2467 221 63.2601 221.058 64.2703C218.164 63.5437 215.366 62.4251 212.807 60.8828C210.229 59.3372 207.278 58.6042 204.608 57.2531C203.186 56.4054 202.119 55.0925 200.758 54.1587C198.779 52.7725 196.969 51.1664 194.996 49.7738Z" fill="#EC7522"/>
<path d="M99.7511 59.8248C100.525 58.9484 101.472 58.2569 102.374 57.5176C101.574 59.1237 100.325 60.4526 99.2444 61.8675C97.4025 63.7763 95.841 65.921 94.254 68.037C92.4758 69.9204 91.1533 72.167 89.4675 74.1269C88.2852 75.494 87.2049 76.944 86.1055 78.3748C80.8569 83.958 73.4541 87.0428 65.9875 88.2218C62.6956 88.7094 59.3464 89.0058 56.0194 88.7317L56.319 88.5788C58.9417 87.2945 61.5835 85.8127 63.2884 83.3557C67.6255 82.9573 71.7141 81.2843 75.5478 79.3053C84.7925 74.4934 93.0494 67.798 99.7511 59.8248Z" fill="#EC7522"/>
<path d="M87.8677 90.3602C92.9442 87.2436 97.173 82.9861 101.268 78.7126C101.223 80.1339 101.054 81.5488 100.968 82.9701C99.0308 85.1881 96.6854 86.9822 94.4897 88.9262C92.8263 90.2901 91.15 91.6668 89.2794 92.7343C87.2208 93.9007 84.2985 93.907 82.6382 92.0396C84.5312 92.1193 86.303 91.3576 87.8677 90.3602Z" fill="#EC7522"/>
<path d="M135.293 20.0159C135.541 19.3977 135.777 18.7763 136.051 18.1676H136.227C136.395 22.5079 136.415 26.8547 136.666 31.1918C135.857 31.3512 135.392 31.9566 135.261 32.747C135.58 32.6768 136.22 32.5398 136.539 32.4697C136.714 39.5379 137.081 46.5997 137.042 53.6711C137.042 55.5099 137.042 57.3518 137.042 59.1905C142.67 57.4952 148.4 56.1122 154.244 55.4366C156.074 54.6717 158.033 54.2639 160.022 54.4678C160.286 53.805 160.554 53.1421 160.844 52.4888C161.351 51.2173 162.301 50.2103 163.174 49.1842C165.13 50.4525 166.539 52.4601 167.195 54.6877C169.174 54.6845 171.099 55.1848 172.998 55.6851C173.037 55.905 173.113 56.3448 173.151 56.5647C175.647 57.2275 178.11 58.0497 180.452 59.1491C182.103 59.9203 183.652 60.905 185.347 61.5934C187.46 62.4793 189.391 63.7253 191.446 64.7291C193.613 65.8477 195.618 67.2721 197.868 68.2345C197.536 68.7603 197.211 69.2893 196.886 69.8215C192.571 67.7023 188.547 65.0095 184.133 63.0816C181.813 62.0586 179.757 60.4876 177.329 59.7036C175.755 59.0631 174.107 58.6424 172.498 58.1134C171.561 59.0758 170.532 59.9522 169.324 60.5513C169.636 61.45 169.901 62.3709 169.996 63.3238C170.095 64.4933 170.296 66.0644 169.244 66.8674C167.154 67.2817 165.121 66.1504 163.939 64.4742C162.495 65.7903 160.653 66.6762 158.706 66.8993C157.89 66.9885 156.947 66.861 156.415 66.1663C156.096 65.0701 156.577 63.9515 156.896 62.9127C157.221 61.979 157.785 61.1568 158.384 60.376C157.138 59.6526 156.096 58.6584 155.022 57.7183C153.97 56.8897 152.552 57.2211 151.338 57.355C146.552 58.1389 141.889 59.5283 137.345 61.1918C137.297 64.2479 137.581 67.304 137.466 70.3601C137.434 70.9719 137.476 71.5838 137.578 72.1893C137.657 74.2288 137.692 76.2683 137.67 78.311C137.683 79.5379 137.543 80.8349 138.123 81.9694C154.652 82.1447 171.182 82.1383 187.708 82.2944C200.353 82.2817 212.992 82.5366 225.637 82.457C228.084 82.5048 230.545 82.3327 232.989 82.5908C233.062 82.8457 233.212 83.3556 233.288 83.6106C233.715 83.2345 234.142 82.8553 234.573 82.4793C234.627 82.8203 234.684 83.1644 234.745 83.5086C241.635 88.0847 248.422 92.8139 255.264 97.4633C255.044 98.7348 254.847 100.01 254.751 101.297C254.595 101.415 254.279 101.648 254.12 101.762C247.065 101.6 240.003 101.75 232.944 101.718C197.049 101.619 161.156 101.851 125.261 102.059C122.342 102.014 119.407 102.231 116.497 101.973C116.437 100.545 116.3 99.1204 116.309 97.6896C121.443 94.1332 126.593 90.6023 131.685 86.9885C133.107 85.8795 134.77 85.0637 136.035 83.7763C135.28 62.3008 134.885 40.8126 134.321 19.334C134.643 19.5602 134.968 19.7897 135.293 20.0159ZM163.384 50.7903C162.106 51.9088 161.647 53.5596 161.306 55.1561C159.394 55.5099 157.418 55.5608 155.586 56.281C155.803 56.5583 156.019 56.8387 156.239 57.1192C156.297 57.1415 156.411 57.1861 156.469 57.2084C157.591 58.2505 158.821 59.4869 160.424 59.6335C160.194 59.9586 159.971 60.2836 159.754 60.615C158.639 62.0427 157.791 63.6456 157.418 65.4302C158.884 65.2995 160.382 65.0669 161.705 64.3881C162.657 63.8018 163.429 62.9668 164.318 62.2881C164.818 63.1166 165.28 63.9866 165.949 64.6941C166.673 65.4206 167.743 65.5194 168.703 65.6756C168.738 63.6297 168.343 61.6443 167.877 59.6686C169.417 59.0185 170.866 58.0401 171.756 56.5934C170.937 56.3289 170.098 56.1408 169.248 56.0548C168.285 55.8381 166.625 56.45 166.255 55.2039C165.561 53.5819 164.617 52.0586 163.384 50.7903ZM117.906 98.2568C140.108 98.225 162.313 98.2632 184.518 98.225C198.333 98.2154 212.148 98.1071 225.959 98.1389C234.92 98.158 243.891 98.1103 252.849 98.0465C248.422 95.0032 243.951 92.0236 239.499 89.0185C237.355 87.3709 234.866 86.1568 233.024 84.1459C230.462 84.1204 227.896 84.1077 225.337 84.2893C220.567 83.9898 215.768 84.0217 210.991 84.1969C204.225 83.9802 197.447 84.0025 190.675 84.0153C188.958 83.7827 187.227 83.9452 185.503 83.8846C176.443 83.8591 167.387 83.6743 158.33 83.7571C151.883 83.652 145.43 83.7922 138.989 83.5341C131.94 88.413 124.952 93.3779 117.906 98.2568Z" fill="#040404"/>
<path d="M11.0417 51.2652C41.8002 51.1632 72.5554 51.313 103.311 51.4022C103.607 51.7783 103.9 52.1575 104.203 52.5335C103.827 62.0906 103.387 71.6476 102.992 81.2078C102.705 88.2219 102.348 95.2327 101.854 102.234C101.81 102.961 101.727 103.69 101.819 104.417C102.855 105.778 104.248 106.813 105.366 108.098C108.712 111.963 112.09 115.8 115.471 119.634C116.459 120.625 115.815 122.122 115.768 123.333C115.417 123.722 115.073 124.114 114.729 124.506C105.914 124.382 97.0965 124.528 88.282 124.468C64.5981 124.468 40.9174 124.586 17.2336 124.522C15.4299 124.43 13.6294 124.659 11.8257 124.618C9.26672 124.452 6.6982 124.57 4.15199 124.834C3.13861 124.946 2.1316 124.739 1.12459 124.656C1.05448 123.576 0.570091 122.393 1.00349 121.361C5.08889 116.131 9.21891 110.937 13.3075 105.708C13.2278 105.185 13.1673 104.659 13.1227 104.136C12.0679 87.4602 11.166 70.7713 10.5064 54.0727C10.5287 53.1135 10.8665 52.2021 11.0417 51.2652ZM11.9404 52.7407C13.0175 68.053 13.8652 83.378 14.6714 98.7031C14.6937 100.717 15.0252 102.737 14.7479 104.745C20.1367 104.618 25.5255 104.802 30.9143 104.755C40.1654 104.774 49.4133 104.748 58.6644 104.78C72.412 104.984 86.1692 104.879 99.92 105.051C99.9391 102.824 100.032 100.599 100.146 98.378C100.541 95.8987 100.465 93.3876 100.494 90.886C100.605 89.6017 100.876 88.3366 100.863 87.0459L100.506 87.0874C100.567 86.8038 100.688 86.2333 100.749 85.9497C100.184 86.6827 99.5471 87.3551 98.8269 87.9351C96.4942 89.7547 94.4133 91.9312 91.7906 93.3525C89.7415 94.4679 87.4439 95.341 85.0761 95.204C83.9512 95.118 82.7211 94.8407 82.0583 93.8433C81.6058 93.3143 81.029 92.8809 80.7231 92.2467C80.5382 91.4277 80.5733 90.5801 80.551 89.7483L80.7103 89.6559C80.6944 87.473 81.9627 85.6565 82.7116 83.6935C74.2858 89.5794 63.5911 91.4978 53.4955 90.4844C44.7097 89.6495 36.0577 86.5616 28.999 81.2174C23.9895 77.3359 19.7638 72.167 18.0048 65.9943L17.9283 66.2524C17.9474 65.016 17.3419 63.7381 17.9283 62.5112C18.4063 62.5399 18.8907 62.5941 19.3145 62.8331C21.0226 63.582 22.702 64.4073 24.4802 64.9746C28.2948 66.227 32.3196 66.74 36.319 66.8452C44.3687 67.0236 52.4025 65.5418 59.9997 62.9191C59.2635 62.2786 58.6549 61.5106 58.1259 60.6948C59.1679 59.1173 61.2616 59.2671 62.9187 59.2225C63.6804 57.8203 63.7441 55.7681 65.3247 54.9236C67.2272 55.5769 68.2884 57.6196 68.948 59.4073C69.3273 59.3691 69.7001 59.2958 70.0698 59.1938C73.2788 57.2786 76.4751 55.3187 79.3528 52.9127C77.1348 53.2282 74.8913 53.0466 72.6638 53.0912C59.8085 53.0275 46.9531 52.9924 34.0978 52.9733C26.7109 52.7821 19.3209 52.9191 11.9404 52.7407ZM80.9812 53.5214C78.2884 56.0007 75.1654 57.9701 71.9372 59.675C72.5618 60.0447 74.0086 60.0797 73.6963 61.1282C73.2533 62.4443 72.0392 63.1932 70.9716 63.9548C71.3477 65.5163 71.3222 67.1256 71.3158 68.719C71.1469 69.1333 70.978 69.5475 70.825 69.9682C69.8595 69.93 68.8333 69.8535 68.0016 69.3181C67.3228 68.8242 66.7556 68.2027 66.1501 67.6259C65.4108 68.2219 64.6045 68.77 63.6708 68.9994C62.4535 69.2926 60.978 69.8758 59.9678 68.7987C59.8626 66.9504 60.8123 65.3538 61.746 63.8465C61.6281 63.9612 61.5166 64.0791 61.4082 64.2002C58.9767 64.8152 56.5962 65.6215 54.1488 66.1696C46.6695 67.9 38.9194 68.7158 31.2616 67.9127C27.6255 67.4443 23.948 66.6858 20.7135 64.8885C19.9805 64.487 19.3814 63.8974 18.8429 63.2665C19.4547 65.2582 19.9009 67.3583 21.0258 69.1428C22.7753 73.037 25.7485 76.262 29.0118 78.958C36.131 84.7164 45.1367 87.8171 54.1902 88.6616C54.8945 88.6808 55.6306 88.7923 56.319 88.5788L56.0194 88.7317C59.3464 89.0058 62.6957 88.7094 65.9876 88.2219C73.4541 87.0428 80.8569 83.958 86.1055 78.3748C87.2049 76.944 88.2852 75.494 89.4675 74.1269C91.1533 72.167 92.4758 69.9204 94.254 68.037C95.841 65.921 97.4025 63.7764 99.2444 61.8675C100.325 60.4526 101.574 59.1237 102.374 57.5176C102.594 55.9625 102.692 54.3755 102.482 52.814C95.7199 52.8363 88.9544 52.7916 82.1921 52.8363C81.6823 52.7916 81.3477 53.2474 80.9812 53.5214ZM65.5127 55.9242C64.7129 57.2658 64.391 58.7923 63.9257 60.2614C62.3834 60.408 60.8059 60.2327 59.3081 60.7362C60.4331 61.9663 61.7364 63.1071 63.3489 63.6329C63.0908 64.0154 62.8231 64.3914 62.5777 64.7834C61.7332 65.8191 61.2903 67.0906 60.8537 68.3366C61.9755 68.1741 63.1322 68.0466 64.1711 67.5654C65.1239 67.1161 65.7454 66.2301 66.4082 65.4526C66.883 66.16 67.2654 66.928 67.7944 67.6004C68.3712 68.2505 69.2795 68.3844 70.0793 68.5756C70.1622 66.8643 70.0252 65.1148 69.2412 63.5597C70.6689 63.1454 71.8703 62.2435 72.8072 61.1059C72.2431 60.8764 71.6982 60.5322 71.0768 60.494C70.1016 60.6438 69.1201 60.4908 68.1545 60.3442C67.7339 58.6361 66.7492 57.1511 65.5127 55.9242ZM96.2521 67.4666C93.4923 71.1855 90.8505 74.9937 87.992 78.6425C86.8257 80.6342 85.2673 82.3774 84.2253 84.4456C83.5529 86.0549 82.6287 87.6036 82.4471 89.3723C82.3451 90.2518 82.1316 91.2429 82.6383 92.0396C84.2986 93.907 87.2208 93.9006 89.2795 92.7343C91.1501 91.6667 92.8263 90.2901 94.4898 88.9261C96.6854 86.9822 99.0309 85.1881 100.968 82.9701C101.054 81.5488 101.223 80.1339 101.268 78.7126C101.192 76.6572 101.733 74.6463 101.673 72.5941C101.631 68.4386 101.893 64.2862 102.112 60.1403C100.079 62.5144 97.9506 64.8343 96.2521 67.4666ZM15.0252 106.08C11.0067 111.049 7.06786 116.084 2.99202 121.004C10.3853 121.004 17.7753 120.972 25.1686 120.921C54.8371 120.794 84.5121 120.892 114.184 120.848C109.968 116.004 105.64 111.262 101.45 106.399C101.37 106.495 101.211 106.689 101.131 106.785C100.583 106.606 100.016 106.456 99.4356 106.479C97.3164 106.482 95.1972 106.421 93.0812 106.59C89.5663 106.581 86.0577 106.307 82.5427 106.265C79.3687 106.504 76.1788 106.348 72.9984 106.342C54.8308 106.316 36.66 106.093 18.4923 106.198C17.3355 106.227 16.1724 106.24 15.0252 106.08Z" fill="#040404"/>
<path d="M198.304 89.8692C199.531 88.91 201.15 88.9228 202.61 88.6424C204.241 88.2982 205.981 88.6455 207.383 89.5346C208.142 90.0636 208.432 90.991 208.849 91.7749C211.163 90.3696 213.495 88.5691 216.364 88.7411C217.74 89.0439 218.846 90.156 219.49 91.3766C221.332 89.4677 224.031 88.773 226.609 88.824C227.995 89.1841 229.203 90.0445 230.439 90.7552C230.615 91.7813 230.219 92.7214 229.748 93.6073C229.299 93.5914 228.852 93.5722 228.409 93.5531C228.483 93.0177 228.594 92.4887 228.703 91.9597C227.976 91.5614 227.32 91.0483 226.583 90.6723C225.178 90.5799 223.715 90.7838 222.428 91.3511C221.44 92.0522 220.411 92.766 219.668 93.7284C219.401 93.7857 219.136 93.8495 218.881 93.9132C218.489 93.7539 218.104 93.5914 217.721 93.4288C217.699 92.9349 217.785 92.4441 217.785 91.9502C217.361 91.4626 216.944 90.9719 216.552 90.4652C215.118 90.4907 213.658 90.7807 212.479 91.6315C211.134 92.5716 209.684 93.33 208.199 94.0152C207.89 94.0853 207.584 94.1554 207.285 94.2255C207.096 93.2599 206.937 92.2912 206.81 91.3224C205.901 90.6978 204.831 90.1242 203.696 90.274C202.539 90.4078 201.386 90.564 200.229 90.6914C198.801 91.4307 197.482 92.3708 196.128 93.2408C195.627 92.9476 194.624 92.8871 194.898 92.0872C196.038 91.3543 197.192 90.6436 198.304 89.8692Z" fill="#040404"/>
<path d="M76.4847 110.774C78.7154 110.239 81.5261 111.463 82.1189 113.811C83.8748 112.218 86.0609 110.555 88.5593 110.806C89.4484 111.453 90.0698 112.409 90.6753 113.314C92.1348 112.425 93.6389 111.536 95.3438 111.211C96.2744 111.664 97.3164 112.052 97.9761 112.894C98.3936 113.419 98.4318 114.114 98.5433 114.748C98.1546 115.147 97.7753 115.551 97.412 115.975C97.0647 115.886 96.7205 115.794 96.3827 115.692C96.3827 115.159 96.5134 114.659 96.7779 114.194C96.2202 113.78 95.7709 112.859 94.9646 113.085C92.9888 113.595 91.4847 115.166 89.477 115.609C88.9512 115.845 88.6262 115.204 88.2788 114.949C88.5784 114.659 88.8811 114.366 89.1871 114.079C88.776 113.454 88.3904 112.82 88.0366 112.167C87.001 112.435 85.9461 112.744 85.0889 113.41C83.7983 114.372 82.7116 115.634 81.2138 116.303C80.8856 116.106 80.5956 115.864 80.3056 115.625C80.3725 115.472 80.5032 115.159 80.5701 115.006C80.3725 114.388 80.3343 113.658 79.8276 113.2C79.1456 112.613 78.247 112.409 77.4089 112.17C76.1851 112.919 75.1112 113.897 74.3145 115.096C73.862 115.265 73.4254 115.472 72.9793 115.647C72.7339 115.325 72.4885 115.006 72.2463 114.691C73.4924 113.238 74.6428 111.507 76.4847 110.774Z" fill="#040404"/>
<path d="M136.227 18.1676C147.323 18.3461 158.425 18.3014 169.522 18.3269C169.722 18.7571 169.93 19.1874 170.137 19.6208C169.665 22.4283 168.926 25.1848 168.241 27.9477C157.68 26.0389 146.67 27.3996 136.666 31.1918C136.415 26.8547 136.395 22.5079 136.227 18.1676Z" fill="#D6E6FC"/>
<path d="M203.346 18.037C205.016 18.0402 206.682 18.139 208.352 18.1262C213.084 18.7094 217.871 18.2186 222.629 18.3302C226.864 18.2505 231.099 18.5086 235.337 18.4098C234.974 20.7298 235.044 23.0848 234.907 25.4207C234.531 34.8694 234.279 44.3244 233.907 53.7731C233.735 60.0191 233.607 66.2715 233.355 72.5175C233.065 75.8668 233.069 79.232 232.989 82.5909C230.545 82.3327 228.084 82.5048 225.637 82.457C212.992 82.5367 200.353 82.2817 187.708 82.2945C171.182 82.1383 154.652 82.1447 138.123 81.9694C137.543 80.8349 137.683 79.5379 137.67 78.311C137.692 76.2683 137.657 74.2288 137.578 72.1893C137.74 70.9274 137.645 69.6527 137.559 68.3907C141.3 66.5265 145.36 65.4016 149.353 64.2065C151.794 63.4194 154.366 63.2537 156.896 62.9127C156.577 63.9516 156.096 65.0701 156.415 66.1664C156.947 66.8611 157.89 66.9885 158.706 66.8993C160.653 66.6762 162.495 65.7903 163.939 64.4742C165.121 66.1504 167.154 67.2817 169.244 66.8674C170.296 66.0644 170.095 64.4933 169.997 63.3238C172.759 64.1555 175.388 65.3601 178.113 66.3034C181.36 67.3901 184.197 69.3595 187.288 70.7935C189.636 71.8483 191.622 73.5341 193.948 74.6304C195.494 75.4111 196.902 76.4882 198.585 76.9758C200.854 77.6514 203.167 78.3461 205.551 78.4035C206.456 78.4417 207.297 78.0689 208.116 77.7311C208.167 76.8388 208.41 75.9178 208.164 75.0351C207.772 73.9771 207.074 73.0752 206.475 72.132C207.399 71.9886 208.403 71.9631 209.235 71.4946C210.627 69.9554 210.165 67.7374 209.99 65.8636C211.772 66.4755 213.518 67.1893 215.204 68.0306C217.638 69.2384 220.331 69.7546 222.992 70.1944C224.324 70.478 225.685 70.5959 227.049 70.5705C227.342 69.8598 227.702 69.1619 227.842 68.4003C227.689 67.3327 227.148 66.3767 226.756 65.3888C227.893 64.8566 227.651 63.4194 227.728 62.3837C227.823 61.2174 226.988 60.3028 226.38 59.4041C224.178 56.638 221.743 54.0376 218.907 51.9089C214.761 48.7572 210.156 46.0708 205.121 44.6399C206.271 43.1517 207.192 41.501 207.938 39.7738C207.53 38.754 207.122 37.7342 206.701 36.7209C207.724 35.3378 206.937 33.6488 206.819 32.116C206.396 28.6138 205.538 25.1849 204.385 21.8547C203.993 20.5959 203.349 19.385 203.346 18.037ZM217.6 27.1702C216.937 27.9669 216.399 28.856 216.004 29.8152C214.831 30.188 213.202 29.812 212.594 31.1568C213.094 32.132 213.84 32.9414 214.56 33.7604C214.299 34.9012 213.945 36.0389 214.002 37.2244C215.548 37.3741 217.004 36.8451 218.4 36.2588C219.158 36.8643 220 37.3518 220.879 37.7629C221.268 37.5653 221.663 37.3646 222.055 37.1574C222.31 35.9847 222.208 34.7897 221.845 33.6552C222.527 33.1007 223.543 32.6992 223.722 31.74C223.789 31.2046 224.273 30.5195 223.69 30.1147C222.622 29.7578 221.478 29.8853 220.379 29.9044C220.261 28.5787 219.264 27.696 218.18 27.0842C218.033 27.1065 217.747 27.1479 217.6 27.1702Z" fill="#D6E6FC"/>
<path opacity="0.8" d="M208.352 18.1262C213.11 18.0911 217.874 18.0784 222.629 18.3301C217.871 18.2186 213.084 18.7093 208.352 18.1262Z" fill="#586167"/>
<path d="M217.6 27.1701C217.747 27.1478 218.034 27.1064 218.18 27.0841C219.264 27.696 220.261 28.5787 220.379 29.9044C221.478 29.8853 222.622 29.7578 223.69 30.1147C224.273 30.5194 223.789 31.2046 223.722 31.7399C223.543 32.6991 222.527 33.1007 221.845 33.6552C222.208 34.7897 222.31 35.9847 222.055 37.1574C221.663 37.3645 221.268 37.5653 220.879 37.7629C220 37.3518 219.158 36.8642 218.4 36.2587C217.004 36.8451 215.548 37.3741 214.002 37.2243C213.945 36.0389 214.299 34.9012 214.56 33.7603C213.84 32.9413 213.094 32.1319 212.594 31.1568C213.202 29.812 214.831 30.188 216.004 29.8151C216.399 28.8559 216.937 27.9668 217.6 27.1701ZM217.106 30.6086C216.128 31.1281 214.981 30.9273 213.929 31.1472C214.493 32.0841 215.156 32.9923 216.16 33.5022L215.94 34.2415H215.704C215.363 34.9235 215.073 35.6278 214.831 36.3512C216.45 36.3416 217.546 35.0892 218.935 34.4805C219.318 35.5481 220.287 36.1823 221.147 36.8387C221.121 36.1536 221.128 35.4589 220.946 34.7928C220.822 34.2383 220.484 33.6137 220.924 33.1039C221.692 32.3677 222.606 31.7877 223.244 30.9178C222.677 30.9241 222.116 30.9432 221.558 30.9687C221.045 30.9496 220.541 30.9464 220.035 30.9337C219.681 29.7578 219.021 28.738 218.03 27.9987C217.489 28.7699 217.243 29.6845 217.106 30.6086Z" fill="black"/>
<path d="M188.604 27.5462C192.759 26.2046 197.699 28.3046 199.579 32.2498C199.742 32.6545 199.891 33.0656 200.028 33.4831C200.822 35.7775 200.028 38.4289 198.237 40.0255C199.091 38.0561 199.914 35.87 199.254 33.7093C198.572 31.6284 197.042 29.8566 195.108 28.8432C192.342 27.5016 188.881 27.7183 186.319 29.42C185.436 29.9968 184.726 30.7839 183.9 31.434L183.409 31.348C184.404 29.318 186.561 28.2409 188.604 27.5462Z" fill="black"/>
<path d="M192.087 29.2192C193.349 29.2224 194.748 29.1937 195.717 30.1498C195.213 30.9847 194.426 31.5902 193.537 31.9662C192.833 31.2237 191.778 30.3697 192.087 29.2192Z" fill="black"/>
<path d="M188.435 33.26C188.088 32.9541 187.906 32.1096 188.559 32.0905C189.499 32.8616 190.363 33.8113 191.555 34.2001C192.807 34.7131 194.184 34.7163 195.49 35.0159C196.443 34.7896 196.676 33.5468 197.686 33.5054C197.53 34.2001 197.23 34.847 196.867 35.4525C193.948 36.5009 190.538 35.4588 188.435 33.26Z" fill="black"/>
<path d="M183.827 38.209C183.059 37.2562 182.845 35.8986 183.41 34.7928C183.661 36.2301 184.005 37.7852 185.239 38.7221C187.947 40.9146 191.631 41.861 195.076 41.45C195.879 41.2811 196.676 41.0644 197.495 40.956C196.513 42.1797 194.933 42.4187 193.464 42.4856C189.869 42.492 186.048 41.1568 183.827 38.209Z" fill="black"/>
<path d="M186.319 29.42C188.881 27.7183 192.342 27.5016 195.108 28.8432C197.042 29.8566 198.572 31.6284 199.254 33.7093C199.372 35.1019 199.464 36.6889 198.55 37.8553C197.555 39.2033 196.278 40.2995 195.076 41.4499C191.631 41.861 187.947 40.9146 185.239 38.7221C184.005 37.7852 183.661 36.23 183.409 34.7928C182.845 35.8986 183.059 37.2562 183.827 38.209C186.048 41.1568 189.869 42.492 193.464 42.4856C192.438 44.0408 191.472 45.6373 190.414 47.1669C186.322 44.659 181.654 43.3588 177.049 42.1574C176.351 40.1816 175.299 38.3588 174.49 36.4308C173.859 34.9076 173.011 33.4894 172.036 32.1638C175.701 31.0803 179.633 30.462 183.409 31.348L183.9 31.434C184.726 30.7839 185.436 29.9968 186.319 29.42ZM192.087 29.2192C191.778 30.3696 192.833 31.2237 193.537 31.9662C194.426 31.5901 195.213 30.9847 195.717 30.1497C194.748 29.1937 193.349 29.2224 192.087 29.2192ZM188.435 33.26C190.538 35.4589 193.948 36.5009 196.867 35.4525C197.23 34.847 197.53 34.2001 197.686 33.5054C196.676 33.5468 196.443 34.7896 195.49 35.0159C194.184 34.7163 192.807 34.7132 191.555 34.2001C190.363 33.8113 189.499 32.8617 188.559 32.0905C187.906 32.1096 188.088 32.9541 188.435 33.26Z" fill="#FEEEE2"/>
<path d="M18.8429 63.2664C19.3815 63.8973 19.9806 64.4869 20.7135 64.8884C23.9481 66.6857 27.6256 67.4442 31.2616 67.9126C38.9194 68.7157 46.6695 67.8999 54.1488 66.1695C56.5962 65.6214 58.9767 64.8151 61.4082 64.2001C60.6816 65.0541 59.9328 65.905 59.0245 66.571C55.9876 68.8081 52.5841 70.5289 49.0086 71.7272C50.4777 72.304 51.9914 72.7979 53.5688 72.9541C55.9238 73.2823 58.2757 72.8234 60.6211 72.6545C62.5204 72.492 64.3719 72.0331 66.2138 71.5742C64.6236 73.7826 62.5331 75.5831 60.2578 77.0554C56.2393 79.5825 51.5962 81.3894 46.7938 81.3734C48.4796 81.8419 50.1813 82.253 51.9053 82.5685C55.1909 83.107 58.5051 83.8209 61.8576 83.5022C58.3617 83.9515 54.8531 84.7004 51.3126 84.3498C49.2476 84.1332 47.1444 84.1204 45.1208 83.6169C42.3101 82.8808 39.4739 82.1829 36.8066 81.007C32.9474 79.2574 29.2731 77.0522 26.0768 74.2543C24.2126 72.7374 22.7148 70.8412 21.0258 69.1427C19.9009 67.3581 19.4548 65.2581 18.8429 63.2664Z" fill="#FEEEE2"/>
<path d="M217.106 30.6087C217.243 29.6846 217.489 28.77 218.03 27.9988C219.021 28.7381 219.681 29.7579 220.035 30.9338C220.541 30.9465 221.045 30.9497 221.558 30.9688C220.988 31.842 220.51 32.8299 219.643 33.4513C218.559 34.1842 217.202 34.2512 215.94 34.2416L216.16 33.5023C216.258 33.1804 216.335 32.8522 216.424 32.5303C215.589 32.0746 214.758 31.6094 213.929 31.1473C214.981 30.9274 216.128 31.1282 217.106 30.6087Z" fill="#FFF44F"/>
<path d="M163.384 50.7904C164.617 52.0587 165.561 53.582 166.255 55.204C166.625 56.4501 168.285 55.8382 169.248 56.0549C168.903 58.531 166.912 60.3347 164.824 61.4756C163.664 62.0778 162.326 62.575 161.01 62.269C160.216 62.1129 160.076 61.2174 159.754 60.6151C159.971 60.2837 160.194 59.9587 160.424 59.6336C160.758 59.3851 161.105 59.1205 161.274 58.7254C159.668 58.2283 158.021 57.865 156.469 57.2085C156.411 57.1862 156.297 57.1416 156.239 57.1193C156.019 56.8388 155.803 56.5584 155.586 56.2812C157.418 55.561 159.394 55.51 161.306 55.1562C161.647 53.5597 162.106 51.909 163.384 50.7904Z" fill="#FFF44F"/>
<path d="M65.5128 55.9242C66.7492 57.1511 67.7339 58.6361 68.1546 60.3442C69.1201 60.4908 70.1017 60.6438 71.0768 60.494C69.9678 60.7808 69.5217 61.9057 68.8875 62.7343C67.753 64.3754 65.8251 65.5864 63.7792 65.4398C63.2788 65.4621 62.9379 65.0574 62.5778 64.7833C62.8231 64.3914 63.0908 64.0153 63.349 63.6329C61.7365 63.1071 60.4331 61.9663 59.3082 60.7362C60.8059 60.2327 62.3834 60.4079 63.9258 60.2614C64.391 58.7923 64.7129 57.2658 65.5128 55.9242Z" fill="#FFF44F"/>
<path d="M221.558 30.9687C222.116 30.9432 222.677 30.9241 223.244 30.9177C222.606 31.7877 221.692 32.3677 220.924 33.1038C220.484 33.6137 220.822 34.2383 220.946 34.7928C221.128 35.4588 221.121 36.1535 221.147 36.8387C220.286 36.1822 219.318 35.5481 218.935 34.4805C217.546 35.0892 216.45 36.3416 214.831 36.3511C215.073 35.6277 215.363 34.9235 215.704 34.2415H215.94C217.202 34.2511 218.559 34.1841 219.643 33.4512C220.51 32.8298 220.988 31.8419 221.558 30.9687Z" fill="#EEB50D"/>
<path d="M169.248 56.0548C170.098 56.1409 170.937 56.3289 171.756 56.5934C170.866 58.0402 169.416 59.0185 167.877 59.6686C168.343 61.6444 168.738 63.6297 168.703 65.6756C167.743 65.5194 166.673 65.4207 165.949 64.6941C165.28 63.9866 164.818 63.1166 164.318 62.2881C163.429 62.9669 162.657 63.8018 161.705 64.3881C160.382 65.0669 158.884 65.2996 157.418 65.4302C157.791 63.6456 158.639 62.0427 159.754 60.615C160.076 61.2173 160.216 62.1128 161.01 62.269C162.326 62.5749 163.664 62.0778 164.824 61.4755C166.912 60.3346 168.903 58.5309 169.248 56.0548Z" fill="#EEB50D"/>
<path d="M156.469 57.2084C158.021 57.8648 159.668 58.2281 161.274 58.7253C161.105 59.1204 160.758 59.3849 160.423 59.6335C158.821 59.4869 157.59 58.2504 156.469 57.2084Z" fill="#EEB50D"/>
<path d="M71.0768 60.4939C71.6982 60.5321 72.2431 60.8763 72.8072 61.1058C71.8703 62.2434 70.6689 63.1453 69.2412 63.5596C70.0251 65.1147 70.1622 66.8642 70.0793 68.5755C69.2794 68.3843 68.3712 68.2504 67.7944 67.6003C67.2654 66.9279 66.883 66.1599 66.4082 65.4525C65.7453 66.23 65.1239 67.1159 64.1711 67.5653C63.1322 68.0465 61.9754 68.174 60.8537 68.3365C61.2903 67.0905 61.7332 65.819 62.5777 64.7833C62.9378 65.0573 63.2788 65.462 63.7791 65.4397C65.825 65.5863 67.753 64.3753 68.8875 62.7342C69.5216 61.9056 69.9678 60.7807 71.0768 60.4939Z" fill="#EEB50D"/>
<path d="M213.929 31.1472C214.758 31.6093 215.589 32.0746 216.424 32.5303C216.335 32.8521 216.258 33.1804 216.16 33.5022C215.156 32.9923 214.493 32.0841 213.929 31.1472Z" fill="#CFA313"/>
<path d="M200.984 43.993C202.638 41.3735 205.325 39.5475 206.701 36.7208C207.122 37.7342 207.53 38.754 207.938 39.7737C207.192 41.5009 206.271 43.1517 205.121 44.6399C203.773 44.267 202.38 44.0535 200.984 43.993Z" fill="#B4CCF0"/>
<path d="M137.345 61.1918C141.889 59.5284 146.552 58.139 151.338 57.355C152.552 57.2212 153.97 56.8897 155.022 57.7183C156.096 58.6584 157.138 59.6527 158.384 60.376C157.785 61.1568 157.221 61.979 156.896 62.9127C154.365 63.2537 151.794 63.4194 149.353 64.2065C145.36 65.4015 141.3 66.5265 137.559 68.3907C137.645 69.6526 137.74 70.9273 137.578 72.1893C137.476 71.5838 137.434 70.972 137.466 70.3601C137.581 67.304 137.297 64.2479 137.345 61.1918Z" fill="#B4CCF0"/>
<path d="M169.324 60.5513C170.532 59.9522 171.561 59.0758 172.498 58.1134C174.107 58.6424 175.755 59.0631 177.329 59.7036C179.757 60.4875 181.813 62.0586 184.133 63.0815C188.546 65.0095 192.571 67.7023 196.886 69.8215C199.898 71.1567 203.126 72.339 206.475 72.1319C207.074 73.0752 207.772 73.977 208.164 75.035C208.409 75.9177 208.167 76.8387 208.116 77.731C207.297 78.0688 206.456 78.4416 205.551 78.4034C203.167 78.346 200.854 77.6513 198.585 76.9757C196.902 76.4882 195.494 75.411 193.948 74.6303C191.622 73.5341 189.636 71.8483 187.288 70.7935C184.197 69.3594 181.36 67.39 178.113 66.3033C175.388 65.3601 172.759 64.1555 169.996 63.3237C169.901 62.3709 169.636 61.4499 169.324 60.5513Z" fill="#B4CCF0"/>
<path d="M206.214 59.2703C208.279 60.0733 210.111 61.3671 212.195 62.1288C215.363 63.3493 218.349 65.204 221.775 65.6087C223.422 65.8955 225.165 66.0134 226.756 65.3888C227.148 66.3767 227.689 67.3327 227.842 68.4003C227.702 69.1619 227.342 69.8598 227.049 70.5705C225.685 70.596 224.324 70.478 222.992 70.1944C220.331 69.7547 217.638 69.2384 215.204 68.0306C213.518 67.1893 211.771 66.4755 209.99 65.8636C209.805 64.7993 209.455 63.7636 208.929 62.8203C208.221 61.4914 206.953 60.58 206.214 59.2703Z" fill="#B4CCF0"/>
<path d="M11.9404 52.7406C19.3209 52.9191 26.7109 52.782 34.0978 52.9732C46.9531 52.9924 59.8084 53.0274 72.6638 53.0911C74.8913 53.0465 77.1348 53.2282 79.3527 52.9127C76.4751 55.3187 73.2788 57.2785 70.0698 59.1938C69.7001 59.2957 69.3272 59.369 68.948 59.4073C68.2884 57.6195 67.2272 55.5768 65.3247 54.9235C63.7441 55.768 63.6803 57.8203 62.9187 59.2224C61.2616 59.267 59.1679 59.1173 58.1258 60.6947C58.6548 61.5105 59.2635 62.2785 59.9996 62.9191C52.4024 65.5417 44.3687 67.0236 36.319 66.8451C32.3196 66.74 28.2947 66.2269 24.4802 64.9745C22.702 64.4073 21.0226 63.5819 19.3145 62.833C18.8907 62.594 18.4063 62.5398 17.9283 62.5112C17.3419 63.7381 17.9474 65.0159 17.9283 66.2524C17.5873 67.3741 17.1348 68.515 17.31 69.7132C18.0557 74.3372 20.1176 78.7126 23.1705 82.269C29.0691 89.5156 37.7084 94.1938 46.746 96.2333C55.7708 98.2983 65.5637 97.6673 73.9895 93.6966C76.3285 92.6418 78.3457 91.0357 80.551 89.7483C80.5733 90.58 80.5382 91.4277 80.723 92.2467C81.029 92.8808 81.6058 93.3142 82.0583 93.8432C81.7492 95.1498 81.0927 96.3735 80.978 97.7215C81.1787 99.2607 82.6733 100.628 84.2635 100.5C87.3483 100.414 90.1972 99.0249 92.8454 97.5558C95.8664 95.905 97.8263 92.9796 100.494 90.8859C100.465 93.3875 100.541 95.8987 100.146 98.3779C100.032 100.599 99.9391 102.823 99.92 105.051C86.1692 104.879 72.412 104.984 58.6644 104.78C49.4133 104.748 40.1654 104.774 30.9142 104.755C25.5255 104.802 20.1367 104.618 14.7479 104.745C15.0251 102.737 14.6937 100.717 14.6714 98.703C13.8652 83.378 13.0175 68.0529 11.9404 52.7406Z" fill="#C4C6FC"/>
<path d="M17.9283 66.2524L18.0048 65.9943C19.7639 72.167 23.9895 77.3359 28.999 81.2173C36.0577 86.5615 44.7097 89.6495 53.4955 90.4844C63.5911 91.4978 74.2858 89.5794 82.7116 83.6934C81.9627 85.6565 80.6944 87.4729 80.7103 89.6558L80.551 89.7483C78.3458 91.0357 76.3285 92.6418 73.9895 93.6966C65.5637 97.6673 55.7709 98.2983 46.746 96.2333C37.7084 94.1938 29.0691 89.5156 23.1705 82.269C20.1176 78.7126 18.0558 74.3372 17.3101 69.7132C17.1348 68.515 17.5873 67.3741 17.9283 66.2524Z" fill="#A3A6FA"/>
<path d="M100.749 85.9496C100.688 86.2332 100.567 86.8036 100.506 87.0873L100.863 87.0458C100.876 88.3365 100.605 89.6016 100.494 90.8859C97.8263 92.9795 95.8665 95.905 92.8455 97.5557C90.1973 99.0248 87.3483 100.414 84.2636 100.5C82.6734 100.628 81.1788 99.2606 80.978 97.7214C81.0928 96.3734 81.7492 95.1497 82.0583 93.8432C82.7212 94.8406 83.9513 95.1178 85.0762 95.2039C87.4439 95.3409 89.7416 94.4678 91.7906 93.3524C94.4133 91.9311 96.4943 89.7546 98.827 87.9349C99.5472 87.3549 100.185 86.6825 100.749 85.9496Z" fill="#A3A6FA"/>
<path d="M117.906 98.2568C124.952 93.3779 131.94 88.413 138.989 83.5341C145.43 83.7922 151.883 83.652 158.33 83.7571C161.752 83.7826 165.165 84.1682 168.591 83.9356C175.953 84.0248 183.314 83.977 190.675 84.0153C197.447 84.0025 204.225 83.9802 210.991 84.1969C215.768 84.0216 220.567 83.9898 225.338 84.2893C227.896 84.1077 230.462 84.1204 233.024 84.1459C234.866 86.1567 237.355 87.3709 239.499 89.0184C243.951 92.0235 248.422 95.0031 252.849 98.0465C243.891 98.1102 234.92 98.158 225.959 98.1389C212.148 98.107 198.333 98.2154 184.518 98.2249C162.313 98.2632 140.108 98.2249 117.906 98.2568ZM198.304 89.8693C197.192 90.6437 196.039 91.3543 194.898 92.0873C194.624 92.8871 195.627 92.9477 196.128 93.2409C197.482 92.3709 198.801 91.4308 200.229 90.6915C201.386 90.564 202.54 90.4079 203.696 90.274C204.831 90.1242 205.902 90.6979 206.81 91.3225C206.937 92.2912 207.097 93.26 207.285 94.2256C207.584 94.1555 207.89 94.0854 208.199 94.0153C209.684 93.3301 211.134 92.5717 212.479 91.6316C213.658 90.7807 215.118 90.4907 216.552 90.4652C216.944 90.9719 217.361 91.4627 217.785 91.9502C217.785 92.4442 217.699 92.9349 217.721 93.4289C218.104 93.5914 218.489 93.7539 218.881 93.9133C219.136 93.8495 219.401 93.7858 219.668 93.7284C220.411 92.766 221.44 92.0522 222.428 91.3511C223.715 90.7839 225.178 90.5799 226.584 90.6724C227.32 91.0484 227.976 91.5615 228.703 91.9598C228.594 92.4888 228.483 93.0178 228.41 93.5532C228.852 93.5723 229.299 93.5914 229.748 93.6073C230.22 92.7214 230.615 91.7814 230.439 90.7552C229.203 90.0446 227.995 89.1842 226.609 88.8241C224.031 88.7731 221.332 89.4678 219.49 91.3766C218.846 90.1561 217.74 89.0439 216.364 88.7412C213.496 88.5691 211.163 90.3696 208.849 91.775C208.432 90.991 208.142 90.0637 207.383 89.5347C205.981 88.6456 204.241 88.2982 202.61 88.6424C201.15 88.9228 199.531 88.9101 198.304 89.8693Z" fill="#DADADA"/>
<path opacity="0.94" d="M158.33 83.7572C167.387 83.6743 176.443 83.8592 185.503 83.8846C187.227 83.9452 188.958 83.7827 190.675 84.0153C183.314 83.9771 175.953 84.0249 168.591 83.9356C165.165 84.1683 161.752 83.7827 158.33 83.7572Z" fill="#757575"/>
<path d="M15.0251 106.08C16.1724 106.24 17.3355 106.227 18.4923 106.198C36.6599 106.093 54.8307 106.316 72.9984 106.342C76.1787 106.348 79.3687 106.504 82.5427 106.265C86.0576 106.307 89.5662 106.581 93.0812 106.59C95.1972 106.421 97.3164 106.482 99.4356 106.479C100.016 106.456 100.583 106.606 101.131 106.785C101.211 106.689 101.37 106.495 101.45 106.399C105.64 111.262 109.968 116.004 114.184 120.848C84.5121 120.892 54.8371 120.794 25.1685 120.921C17.7753 120.972 10.3852 121.004 2.992 121.004C7.06785 116.084 11.0067 111.048 15.0251 106.08ZM76.4847 110.774C74.6427 111.507 73.4923 113.238 72.2463 114.691C72.4885 115.006 72.7339 115.325 72.9792 115.647C73.4254 115.472 73.862 115.265 74.3145 115.096C75.1112 113.897 76.1851 112.919 77.4088 112.17C78.2469 112.409 79.1456 112.613 79.8276 113.2C80.3343 113.658 80.3725 114.388 80.5701 115.006C80.5032 115.159 80.3725 115.472 80.3056 115.625C80.5956 115.864 80.8856 116.106 81.2138 116.303C82.7116 115.634 83.7982 114.372 85.0889 113.41C85.9461 112.744 87.0009 112.435 88.0366 112.167C88.3903 112.82 88.7759 113.454 89.187 114.079C88.8811 114.366 88.5784 114.659 88.2788 114.949C88.6262 115.204 88.9512 115.845 89.477 115.609C91.4847 115.166 92.9888 113.595 94.9646 113.085C95.7708 112.859 96.2202 113.779 96.7778 114.194C96.5133 114.659 96.3827 115.159 96.3827 115.692C96.7205 115.794 97.0647 115.886 97.412 115.975C97.7753 115.551 98.1545 115.147 98.5433 114.748C98.4318 114.114 98.3935 113.419 97.9761 112.894C97.3164 112.052 96.2743 111.663 95.3438 111.211C93.6389 111.536 92.1348 112.425 90.6752 113.314C90.0698 112.409 89.4483 111.453 88.5592 110.806C86.0608 110.555 83.8747 112.218 82.1188 113.811C81.5261 111.463 78.7154 110.239 76.4847 110.774Z" fill="#939393"/>
<path d="M174.907 0.844229C175.271 0.286549 176.115 -0.051247 176.686 0.404457C179.302 2.36112 181.236 5.04436 183.206 7.61287C185.207 10.0985 186.737 12.9411 187.817 15.943C188.371 15.892 188.929 15.8888 189.487 15.8187C189.257 11.3987 190.42 6.98189 192.658 3.17055C193.722 3.32351 194.509 4.05328 195.22 4.79898C196.717 6.12466 197.683 7.89968 198.894 9.47074C199.028 8.45417 199.346 7.44079 200.194 6.79388C201.472 7.64474 201.485 9.35283 201.934 10.6817C203.352 11.0832 203.808 12.6479 203.974 13.9481C204.021 14.8818 203.913 15.8155 203.865 16.7461C211.131 16.8799 218.397 16.6696 225.659 16.6919C228.744 16.6218 231.832 16.7015 234.914 16.574C235.624 16.5326 236.367 16.8608 236.695 17.5173C236.877 18.8716 236.654 20.2419 236.651 21.5995C236.306 37.103 235.768 52.6065 235.076 68.0973C234.844 72.8901 234.942 77.6925 234.573 82.479C234.143 82.8551 233.716 83.2343 233.288 83.6103C233.212 83.3554 233.062 82.8455 232.989 82.5906C233.069 79.2317 233.065 75.8665 233.355 72.5173C233.607 66.2712 233.735 60.0189 233.907 53.7728C234.28 44.3241 234.531 34.8691 234.907 25.4204C235.044 23.0845 234.974 20.7295 235.338 18.4096C231.099 18.5083 226.864 18.2502 222.629 18.3299C217.874 18.0781 213.11 18.0909 208.352 18.1259C206.682 18.1387 205.016 18.0399 203.346 18.0367C203.349 19.3847 203.993 20.5957 204.385 21.8544C205.538 25.1846 206.396 28.6135 206.819 32.1157C206.937 33.6486 207.724 35.3375 206.701 36.7206C205.325 39.5472 202.638 41.3732 200.984 43.9927C202.38 44.0533 203.773 44.2668 205.121 44.6396C210.156 46.0705 214.761 48.7569 218.907 51.9086C221.743 54.0373 224.178 56.6377 226.38 59.4038C226.988 60.3025 227.823 61.2171 227.728 62.3834C227.651 63.4191 227.893 64.8563 226.756 65.3885C225.165 66.0131 223.422 65.8952 221.775 65.6084C218.349 65.2037 215.363 63.349 212.195 62.1285C210.111 61.3668 208.279 60.073 206.214 59.27C206.953 60.5797 208.222 61.4911 208.929 62.82C209.455 63.7633 209.805 64.799 209.99 65.8633C210.165 67.7371 210.628 69.9551 209.235 71.4943C208.403 71.9628 207.399 71.9883 206.475 72.1317C203.126 72.3388 199.898 71.1565 196.886 69.8213C197.211 69.2891 197.536 68.7601 197.868 68.2343C198.782 68.6836 199.723 69.0915 200.688 69.4357C200.745 68.2566 200.79 67.0775 200.854 65.8984C201.185 65.9589 201.52 66.0259 201.858 66.1023C202.074 67.3324 202.129 68.5848 202.109 69.8372C202.925 70.0189 203.738 70.2069 204.554 70.3885C204.789 68.929 204.936 67.4567 205.188 65.9972C206.415 67.205 206.125 69.0788 206.02 70.6307C206.839 70.4523 207.664 70.277 208.476 70.0539C208.575 68.2853 208.665 66.4465 207.944 64.7799C206.966 62.53 205.322 60.6498 203.668 58.8653C200.35 55.5447 196.673 52.5778 192.747 50.0061C187.944 46.9245 182.744 44.27 177.097 43.196C177.071 42.8487 177.055 42.5013 177.049 42.1572C181.654 43.3586 186.322 44.6588 190.414 47.1667C191.944 48.0303 193.531 48.7983 194.997 49.7735C196.969 51.1661 198.779 52.7722 200.758 54.1584C202.119 55.0922 203.187 56.4051 204.608 57.2528C207.278 58.6039 210.229 59.3369 212.807 60.8825C215.366 62.4248 218.164 63.5434 221.058 64.27C221 63.2598 220.959 62.2464 220.949 61.2362C222.259 61.7142 221.918 63.3681 222.068 64.458C222.823 64.5408 223.578 64.611 224.337 64.6715C224.26 63.7856 224.219 62.8997 224.26 62.0138C225.181 62.581 225.22 63.6995 225.446 64.6396C225.892 64.4229 226.338 64.2062 226.791 63.9895C226.74 62.8551 226.762 61.6218 226.074 60.6562C223.993 57.6862 221.3 55.1941 218.4 53.0431C214.2 49.8245 209.484 47.2177 204.429 45.6148C202.648 44.9934 200.739 45.0858 198.919 44.6619C201.176 41.711 203.907 39.1234 205.863 35.943C206 31.5995 204.939 27.3165 203.652 23.1992C202.176 19.2317 200.516 15.3248 198.524 11.5867C197.141 8.98954 195.561 6.36686 193.196 4.54404C191.784 6.80663 191.357 9.47712 190.822 12.0456C190.433 13.7505 190.583 15.5096 190.586 17.2432C189.487 17.1285 188.355 17.1954 187.288 16.899C186.239 15.7964 185.847 14.2764 185.213 12.9315C184.672 11.6377 183.786 10.5447 183.021 9.3847C181.306 6.80344 179.391 4.33371 177.138 2.1986C176.797 1.83531 176.121 1.40191 175.749 1.9564C174.439 3.61032 174.155 5.80917 173.897 7.83913C174.264 8.55296 174.723 9.32415 174.509 10.1623C173.913 13.8525 173.33 17.5459 172.763 21.2426C172.632 21.8003 172.645 22.6161 171.902 22.6862C171.501 22.1635 171.176 21.5931 170.857 21.0227C170.401 23.878 169.923 26.7397 169.155 29.5313C167.645 29.1903 166.147 28.8015 164.627 28.5211C158.049 27.6957 151.434 28.7983 145.019 30.2228C142.16 30.841 139.35 31.6664 136.539 32.4695C136.22 32.5396 135.58 32.6766 135.261 32.7467C135.392 31.9564 135.857 31.3509 136.666 31.1916C146.67 27.3994 157.68 26.0386 168.241 27.9475C168.926 25.1846 169.665 22.428 170.137 19.6205C169.93 19.1871 169.723 18.7569 169.522 18.3267C158.425 18.3012 147.323 18.3458 136.227 18.1674H136.051C135.777 18.776 135.542 19.3974 135.293 20.0157C134.968 19.7894 134.643 19.56 134.321 19.3337C134.468 18.6326 134.538 17.8806 134.93 17.2623C135.468 16.9213 136.131 17.001 136.74 16.9755C147.348 16.7365 157.963 16.8321 168.575 16.7907C167.756 14.8468 167.431 12.5205 168.384 10.567C168.559 10.0571 169.162 10.1304 169.579 9.98062C169.464 8.28209 168.776 5.81874 170.535 4.73843C171.609 4.45162 172.078 5.65621 172.645 6.29993C173.132 4.38789 173.811 2.49496 174.907 0.844229ZM171.013 12.6416C170.484 12.1858 170.019 11.6664 169.519 11.182C168.585 11.625 168.696 12.7148 168.792 13.5753C169.346 16.2139 170.694 18.588 171.912 20.9653C172.552 17.1827 172.865 13.3267 173.821 9.60777C172.925 8.25341 172.355 6.63773 171.045 5.60522C169.754 7.82001 170.809 10.3152 171.013 12.6416ZM199.895 8.18649C199.828 8.97998 199.662 9.76392 199.656 10.5606C200.663 12.8869 202.001 15.0571 202.976 17.4025C202.884 15.4554 203.636 13.2152 202.342 11.523C201.896 11.7939 201.491 12.1189 201.074 12.4249C201.039 10.908 200.946 9.37514 200.459 7.92517C200.318 7.99209 200.035 8.12275 199.895 8.18649Z" fill="#010100"/>
<path d="M187.737 23.6473C188.103 23.303 188.8 23.6306 188.986 24.0344C189.28 24.9336 189.396 25.9515 189.009 26.8144C187.284 28.1466 186.159 24.4321 187.737 23.6473Z" fill="#010100"/>
<path d="M194.597 25.0064C194.832 24.3201 195.949 24.1581 196.28 24.8497C196.869 25.7083 196.522 26.7276 196.307 27.563C196.104 27.736 195.142 27.8501 194.931 27.6274C194.406 26.8458 194.41 25.9882 194.597 25.0064Z" fill="#010100"/>
</g>
<defs>
<clipPath id="clip0_11045_459133">
<rect width="254.541" height="125" fill="white" transform="translate(0.729431)"/>
</clipPath>
</defs>
</svg>
