<svg width="224" height="185" viewBox="0 0 224 185" fill="none" xmlns="http://www.w3.org/2000/svg">
<mask id="mask0_11084_29778" style="mask-type:luminance" maskUnits="userSpaceOnUse" x="0" y="0" width="224" height="185">
<path d="M223.903 0H0V185H223.903V0Z" fill="white"/>
</mask>
<g mask="url(#mask0_11084_29778)">
<path d="M131.663 0.917424C132.039 0.547868 132.477 0.164956 133.025 0.102621C133.533 0.0981691 134.02 0.276266 134.514 0.387579C134.724 0.681442 134.942 0.973078 135.165 1.26249C135.144 1.33373 135.107 1.47843 135.087 1.54967C135.877 2.32218 136.106 3.43751 136.565 4.4037C137.279 5.86412 137.907 7.36683 138.597 8.84058C139.27 10.2743 139.334 11.8861 139.84 13.3732C140.519 15.4124 141.111 17.4806 141.638 19.5644C141.618 19.6244 141.58 19.7446 141.56 19.8049C142.382 22.4963 143.083 25.2235 143.555 27.9995C143.764 28.968 143.925 29.9474 144.132 30.9203C144.216 31.341 144.297 31.7664 144.383 32.1893C144.352 32.55 144.357 32.9107 144.517 33.2467C144.488 33.5918 144.466 33.9414 144.45 34.2887C144.695 35.0078 144.889 35.7491 144.962 36.5081C144.991 36.8065 145.022 37.1093 145.058 37.4099C145.334 37.9887 145.521 38.6053 145.581 39.2465C145.957 40.2328 146.409 41.1856 146.879 42.1294C147.502 43.3716 147.916 44.7074 148.542 45.952C149.243 45.3464 150.076 44.9212 150.971 44.6807C154.41 43.7724 157.981 43.2359 161.548 43.5074C165.428 43.5965 169.257 44.5003 172.873 45.8851C175.337 46.878 177.725 48.0958 179.887 49.652C180.607 50.1416 181.383 50.5714 181.961 51.2348C182.114 51.3328 182.267 51.4329 182.425 51.533C184.025 53.0648 185.7 54.5608 186.989 56.3795C188.815 58.6971 190.217 61.3329 191.259 64.0867C191.688 65.1198 191.833 66.2417 192.245 67.2814C192.201 67.3081 192.114 67.3616 192.068 67.386C192.466 67.9559 192.437 68.6617 192.525 69.3185C192.926 71.9453 192.817 74.6324 192.365 77.2482C192.18 78.2857 191.936 79.3187 191.519 80.2915C192.973 80.4674 194.501 80.6232 195.782 81.3913C196.729 81.6896 197.78 81.7765 198.623 82.3574C199.401 82.9986 200.093 83.7444 200.667 84.5749C201.164 85.3117 201.875 85.895 202.264 86.7098C202.695 87.6048 202.972 88.562 203.294 89.4993C203.659 90.846 204.173 92.2242 203.937 93.6423C203.925 95.2251 203.359 96.7479 202.515 98.0702C206.582 98.6045 210.251 101.261 212.093 104.914C212.761 106.365 213.125 107.941 213.264 109.531C213.323 110.893 213.15 112.269 212.746 113.574C212.471 114.72 211.662 115.611 211.202 116.677C212.154 116.817 213.209 116.675 214.056 117.238C219.499 120.909 222.882 127.134 223.761 133.572C223.797 134.779 223.938 135.987 223.871 137.196C223.914 142.23 222.203 147.17 219.547 151.406C217.329 154.69 214.545 157.62 211.271 159.859C211.229 159.866 211.146 159.879 211.103 159.886C210.728 160.291 210.246 160.572 209.752 160.808C206.614 162.736 203.116 164.082 199.501 164.788C195.976 165.331 192.332 165.57 188.815 164.855C185.161 164.192 181.59 162.82 178.601 160.594C178.501 160.391 178.365 160.227 178.129 160.273L178.385 160.378C178.217 160.774 178.078 161.191 177.946 161.602C176.98 164.497 175.082 166.997 172.851 169.038C171.966 169.955 171.009 170.802 169.93 171.481C165.938 174.424 161.412 176.562 156.781 178.292C154.473 179.214 152.075 179.889 149.695 180.602C147.665 181.038 145.675 181.659 143.638 182.062C140.63 182.471 137.665 183.226 134.621 183.374C131.952 183.555 129.281 183.733 126.605 183.777C125.63 183.711 124.661 183.557 123.688 183.482C121.186 182.927 118.668 182.399 116.126 182.067C115.086 182.028 114.084 181.742 113.114 181.391C111.212 180.892 109.385 180.149 107.593 179.353C107.55 179.489 107.466 179.757 107.423 179.891C102.882 182.881 97.4478 184.127 92.1024 184.645C89.3643 184.753 86.6215 185.062 83.8832 184.769C82.7145 184.621 81.5235 184.769 80.3658 184.521C77.2514 184.377 74.1858 183.796 71.1202 183.268C65.8552 182.221 60.6747 180.724 55.6658 178.791C52.4466 177.398 49.2096 176.013 46.1997 174.203C42.0946 171.905 38.3323 168.931 35.3224 165.309C34.1492 163.889 33.203 162.299 32.5508 160.576C31.2952 160.95 30.0039 161.184 28.7483 161.56C27.1766 161.85 25.5603 161.916 23.9686 161.821C17.9889 161.086 12.6304 157.626 8.67883 153.192C3.79894 147.695 0.9783 140.524 0.339371 133.234C-0.170442 128.434 0.448453 123.556 1.90887 118.968C3.6431 113.854 6.65074 109.041 11.0587 105.829C12.1607 104.887 13.5565 104.368 14.6051 103.362C14.8255 103.391 15.0481 103.42 15.2685 103.444C15.9386 103.395 16.6287 103.371 17.2565 103.104C17.7686 103.162 18.2783 103.219 18.7903 103.269C15.0102 99.3593 13.5587 93.482 14.6496 88.1992C15.5489 83.5708 18.53 79.3053 22.7242 77.0858C23.7326 76.5781 24.7633 76.1063 25.8387 75.7567C28.0071 75.2714 30.2554 75.0153 32.4617 75.3872C33.5459 75.6231 34.6211 75.9125 35.6608 76.3088C35.318 75.1334 34.8904 73.9156 35.1221 72.6756C35.1732 71.6271 35.4916 70.6164 35.9724 69.688C37.0833 67.7601 38.9845 66.3064 41.1596 65.8121C43.7731 65.0796 46.5782 65.8945 48.7043 67.4951C48.2457 65.8656 48.4172 64.1536 48.6152 62.4995C49.1429 58.8307 51.1153 55.5536 53.484 52.7708C56.9725 49.1109 61.5718 46.3503 66.6166 45.6001C66.8993 45.5489 67.1821 45.4978 67.4671 45.4443C70.0138 45.2641 72.663 45.2239 75.0808 46.1567C75.1921 46.141 75.4168 46.11 75.5281 46.0944C75.8888 44.8343 76.2583 43.5743 76.6614 42.3277C76.9952 41.2457 77.5786 40.2394 77.6831 39.0951C78.2286 34.3666 79.3128 29.7115 80.6464 25.1456C82.8903 17.6342 85.7378 10.2587 89.6647 3.45756C89.9809 2.83866 90.4795 2.24204 91.2031 2.12627C91.6839 2.1797 92.1447 2.34443 92.6189 2.44907C93.0397 3.06128 93.5607 3.60226 93.9569 4.23451C94.6649 4.96027 95.2325 5.80622 95.7313 6.68783C97.9642 10.4101 100.152 14.1635 102.316 17.928C103.559 19.8559 104.469 21.9953 105.825 23.8499C105.8 23.8922 105.747 23.9813 105.72 24.0235C106.217 24.3173 106.397 24.8739 106.602 25.3793C107.092 26.1207 107.541 26.8887 108.031 27.6322C108.329 27.61 108.63 27.5878 108.931 27.5655C109.77 27.7858 110.654 27.7724 111.486 27.5253C112.648 27.2203 113.846 27.4073 115.022 27.5031C115.807 27.5922 116.506 27.1802 117.232 26.9577C117.657 25.9158 118.161 24.8985 118.452 23.8075C119.755 20.6664 121.32 17.6499 122.887 14.6377C124.87 10.9778 126.947 7.36014 129.278 3.90726C130.024 2.87428 130.783 1.84354 131.663 0.917424ZM133.047 2.89877C132.244 4.00743 131.32 5.0315 130.654 6.23366C130.467 6.53643 130.269 6.83029 130.082 7.13084C129.888 7.41357 129.708 7.70521 129.539 8.00352C129.276 8.45767 129.002 8.90514 128.751 9.36376C128.546 9.66874 128.345 9.9782 128.143 10.2832C128.141 10.37 128.139 10.5481 128.136 10.6349C128.121 10.6683 128.094 10.7329 128.078 10.7641C127.809 11.0067 127.584 11.2939 127.431 11.6211C126.698 13.1038 125.91 14.5553 125.193 16.0424C124.973 16.4899 124.75 16.9374 124.523 17.3803C124.189 18.0305 123.869 18.6938 123.642 19.3907C123.521 19.6066 123.399 19.8249 123.279 20.0408C123.265 20.1453 123.236 20.357 123.223 20.4615C123.096 20.6842 122.971 20.9045 122.851 21.1272C122.319 22.3916 121.792 23.6585 121.306 24.9429C120.859 26.1429 120.456 27.3651 119.879 28.5138C120.558 28.7721 121.217 29.0837 121.896 29.3486C121.901 29.46 121.91 29.6827 121.914 29.796C121.903 29.8273 121.883 29.8896 121.874 29.9208C121.792 30.0231 121.631 30.2302 121.549 30.3349C121.097 30.4038 120.645 30.4795 120.195 30.5442C119.957 30.4639 119.717 30.4106 119.472 30.386L119.394 30.2013L119.158 30.1545L119.011 30.3015C118.875 30.237 118.606 30.11 118.47 30.0455C117.762 29.912 117.036 29.9653 116.324 29.9142C114.652 29.6224 112.922 29.6224 111.252 29.9252C109.387 29.9899 107.515 29.8851 105.651 29.9965C104.961 30.1946 104.269 30.4306 103.539 30.3572C103.487 30.0299 103.436 29.7003 103.385 29.3753C103.819 29.0436 104.255 28.7164 104.687 28.378C103.465 26.4701 102.368 24.4865 101.339 22.4717C98.9125 18.351 96.5839 14.1746 94.2464 10.0027C93.3068 8.30184 92.2961 6.6344 91.4902 4.86454C90.2214 6.89263 89.4844 9.19901 88.398 11.3228C88.1799 12.2823 87.6879 13.1439 87.3317 14.0544C85.8045 18.0638 84.531 22.1601 83.3 26.2653C82.7567 28.5606 82.0666 30.8269 81.7328 33.1666C81.2207 34.6649 81.0603 36.25 80.5595 37.7527C79.6511 40.6579 79.0167 43.6434 77.9771 46.5085C76.9352 49.4938 75.9178 52.4859 74.8358 55.4557C75.4947 55.1529 76.1471 54.8235 76.8416 54.5964C77.9437 54.2179 79.1236 54.2067 80.2433 53.9017C82.3494 53.5634 84.5044 53.6992 86.6171 53.9241C91.025 54.5674 95.4374 55.9343 99.0883 58.5567C99.449 57.7731 99.95 57.052 100.622 56.5021C103.585 53.9351 107.357 52.4436 111.195 51.798C115.088 51.5486 119.149 52.722 122.05 55.391C123.109 56.4063 124.165 57.515 124.666 58.9264C125.198 58.2029 125.917 57.6441 126.68 57.1832C130.676 54.6721 135.4 53.6235 140.044 53.1471C142.373 52.9 144.735 52.9779 147.039 53.4008C148.393 53.5767 149.294 54.7278 150.187 55.6472C148.437 51.4351 146.347 47.3744 144.459 43.2225C144.337 43.0288 144.205 42.8418 144.065 42.6659C143.615 41.0809 143.132 39.5048 142.609 37.942C141.607 35.4307 141.812 32.6657 141.097 30.0834C140.621 27.6456 140.16 25.2035 139.561 22.7923C138.858 20.4281 138.591 17.9637 137.878 15.6017C137.451 14.4529 137.124 13.2641 136.943 12.0508C136.669 10.3633 135.924 8.81609 135.278 7.25106C134.566 5.63927 134.098 3.93397 133.352 2.33999C133.237 2.5203 133.134 2.70731 133.047 2.89877ZM154.982 46.7666C154.304 46.858 153.64 47.016 152.968 47.1273C151.835 47.3588 150.737 47.7239 149.642 48.0801C150.249 49.3536 150.648 50.7272 151.396 51.936C151.93 52.7775 152.351 53.6858 152.867 54.5429C153.01 54.8413 153.362 55.1285 153.23 55.4914C152.825 56.611 152.534 57.7843 151.939 58.8263C151.525 59.6878 150.96 60.4624 150.481 61.2863C150.299 61.5644 150.14 61.8538 149.994 62.1522L149.882 61.9652C149.7 62.8313 148.796 63.3277 148.482 64.1602L148.375 64.1001C147.89 64.9194 147.411 65.7743 146.672 66.3999C153.15 68.3745 159.629 70.3648 166.118 72.3128C166.822 72.6066 167.554 72.8225 168.29 73.0207C169.385 73.4414 169.845 74.5813 170.622 75.3649C171.286 76.2243 172.014 77.0301 172.652 77.9072C173.232 78.6752 173.825 79.4322 174.393 80.2114C174.456 80.2737 174.578 80.3985 174.639 80.463C175.726 81.9367 176.902 83.3437 177.986 84.8196C178.243 85.1046 178.496 85.3963 178.73 85.7058C178.954 85.9929 179.174 86.2891 179.373 86.5985C179.903 87.2486 180.464 87.8786 180.918 88.5865C181.523 89.4458 182.309 90.1805 182.803 91.1132C182.932 91.2245 183.066 91.3359 183.202 91.4472C183.385 91.7744 183.635 92.0506 183.871 92.3444C183.674 92.8787 183.124 93.1614 182.718 93.5221C182.465 93.3929 182.218 93.266 181.973 93.137C181.768 93.5131 181.624 93.9272 181.364 94.2701C180.624 94.8132 179.779 95.1828 179.006 95.6749C178.139 96.2358 177.252 96.7613 176.335 97.2331C175.432 97.9322 174.4 98.4242 173.428 99.012C173.226 99.13 173.03 99.2479 172.835 99.3659C173.185 100.025 173.523 100.699 173.728 101.423C173.796 102.309 173.764 103.204 173.65 104.086C173.658 107.002 173.518 109.914 173.458 112.828C173.292 113.598 173.518 114.406 173.265 115.163C173.01 115.426 172.628 115.27 172.316 115.31C171.982 115.771 171.651 116.239 171.423 116.766C171.335 116.793 171.152 116.849 171.06 116.877C170.939 116.855 170.702 116.808 170.581 116.786C169.743 117.249 168.923 117.744 168.117 118.262C167.808 118.44 167.509 118.638 167.204 118.823C164.128 120.629 161.125 122.55 158.077 124.404C145.387 132.141 132.711 139.903 120.013 147.631C118.178 148.855 116.219 149.868 114.374 151.075C114.176 150.928 113.98 150.781 113.79 150.634C113.414 150.618 113.038 150.605 112.666 150.598C107.283 147.68 101.818 144.917 96.4481 141.981C95.473 141.477 94.538 140.907 93.5539 140.422C91.3879 139.278 89.2129 138.147 87.0711 136.956C86.1073 136.439 85.1278 135.947 84.186 135.395C83.8878 135.244 83.5872 135.097 83.2866 134.961C75.3056 130.578 67.2754 126.288 59.261 121.969C56.6609 120.531 53.9694 119.239 51.4471 117.666C51.6073 117.216 51.663 116.679 52.1216 116.421C52.0593 116.049 52.0014 115.677 51.9211 115.312C51.8032 113.981 51.7387 112.643 51.6474 111.31C51.6095 110.348 51.5494 109.384 51.4581 108.427C51.4381 107.757 51.4002 107.086 51.4181 106.419C51.3802 105.299 51.4002 104.179 51.3135 103.064C48.6242 101.819 46.0195 100.401 43.3346 99.1478C42.9939 98.9473 42.7336 98.6201 42.5353 98.2863C42.6467 97.5872 42.6935 96.8636 42.9429 96.2002C47.2304 90.0692 51.3714 83.8446 55.7169 77.7558C55.9261 77.8427 56.1354 77.9317 56.3447 78.0252C61.4317 75.2091 66.5587 72.462 71.7192 69.7949C71.9929 69.6235 72.2735 69.4565 72.5451 69.2806L72.5607 69.4164C73.46 68.7686 74.4796 68.3256 75.4881 67.8824C76.2607 67.5775 77.0109 67.1946 77.6409 66.6448C76.6079 66.0859 75.9623 65.1042 75.4168 64.1023L75.3078 64.158C74.9916 63.3277 74.0923 62.8289 73.9074 61.9652L73.7983 62.15C73.6471 61.8538 73.4911 61.5644 73.3131 61.2863C73.0994 60.9344 72.8923 60.576 72.6408 60.2509C72.6808 59.8013 72.7121 59.3516 72.7343 58.902C72.6408 58.9242 72.4537 58.9709 72.358 58.9931C71.9639 57.9067 71.8794 56.7292 72.387 55.6628C72.5206 55.2196 72.6496 54.7744 72.8322 54.3471C73.4044 52.3991 74.05 50.4644 74.7201 48.5477C73.6225 48.2227 72.5028 47.9844 71.3629 47.8953C69.7957 47.5659 68.2083 47.8865 66.6432 48.0379C65.7128 48.2538 64.791 48.5077 63.8804 48.7949C57.9609 50.7338 52.8561 55.4846 51.1131 61.5422C50.2804 64.1113 50.4652 66.8651 50.9995 69.4721C50.316 69.6035 49.6303 69.7258 48.9693 69.9441C48.3347 69.4565 47.4531 69.4899 46.8521 68.96C45.7611 68.1386 44.3743 67.7 43.0096 67.7667C40.7188 67.6621 38.5015 69.1403 37.5753 71.2152C37.2615 72.3528 36.8874 73.5838 37.3126 74.7437C37.5709 76.2309 38.6729 77.3107 39.51 78.4928C39.2429 78.938 38.9735 79.3855 38.7086 79.8351C38.0095 79.7751 37.3194 79.6503 36.6447 79.4679C35.9568 78.8512 35.0486 78.5841 34.2071 78.2501C31.2795 77.2928 28.0181 77.3329 25.1664 78.5306C24.6543 78.7934 24.1222 79.0093 23.6214 79.292C20.5246 81.0707 18.216 84.1229 17.2209 87.5445C16.1767 90.8795 16.5108 94.5172 17.7796 97.743C18.5232 99.495 19.6074 101.082 20.8808 102.494C21.3506 102.984 21.5932 103.64 22.0896 104.11C21.9228 104.29 21.7602 104.473 21.6 104.658C21.2125 104.597 20.8252 104.537 20.4689 104.375C20.4845 104.477 20.5136 104.682 20.529 104.782C19.7522 104.773 18.973 104.658 18.2004 104.773C17.2165 105.009 16.3193 105.492 15.3887 105.876C13.1513 107.202 11.0097 108.752 9.36452 110.789C7.40321 113.055 5.97619 115.718 4.82077 118.467C4.79405 118.603 4.7384 118.874 4.71168 119.008C4.66717 119.084 4.57589 119.233 4.52915 119.309C4.44009 119.812 4.29538 120.306 4.13954 120.796C4.03937 121.154 3.91691 121.506 3.74773 121.842C3.75218 121.942 3.76109 122.142 3.76776 122.243C3.59858 122.752 3.42938 123.269 3.396 123.81C3.06429 125.377 3.05093 126.982 2.86837 128.567C2.88618 128.634 2.9218 128.766 2.94183 128.832C2.93069 130.079 2.91958 131.33 3.05315 132.575C3.27132 134.705 3.66981 136.809 4.19521 138.886C4.70946 140.306 5.24822 141.722 5.78029 143.138C6.49712 144.481 7.13383 145.865 7.94195 147.159C8.60091 148.379 9.59828 149.367 10.3262 150.538C10.9585 151.13 11.5529 151.762 12.1473 152.395C14.1175 154.492 16.6021 156.015 19.1732 157.266C19.278 157.279 19.4872 157.306 19.5918 157.321C20.3443 157.851 21.2882 157.922 22.1119 158.292C22.3323 158.31 22.5528 158.334 22.7731 158.363C24.3916 158.784 26.0724 158.924 27.7399 158.857C29.8415 158.942 31.7916 158.007 33.7864 157.473C34.1671 158.179 34.5944 158.862 34.9038 159.608C35.4225 160.632 35.8879 161.714 36.6625 162.58C37.5509 163.851 38.6795 164.917 39.7393 166.037C41.7629 167.889 43.9892 169.517 46.3379 170.933C47.4331 171.588 48.5708 172.167 49.6728 172.812C50.0557 172.969 50.4452 173.112 50.8259 173.288L50.9929 173.29C50.8281 173.586 51.3514 173.932 51.5807 173.713C51.6385 173.72 51.7543 173.735 51.81 173.745C53.4261 174.655 55.1737 175.317 56.888 176.019C58.6979 176.646 60.461 177.404 62.3088 177.927C65.4835 179.007 68.7672 179.704 72.0464 180.388C73.5624 180.585 75.0495 181.009 76.5945 180.96C76.5811 181.009 76.5567 181.109 76.5433 181.157C76.9218 181.154 77.3024 181.164 77.6831 181.182C77.7656 181.181 77.9303 181.174 78.0126 181.17C80.0496 181.418 82.1089 181.612 84.1615 181.559C85.6531 181.513 87.1446 181.578 88.6385 181.585C90.7913 181.428 92.9551 181.293 95.0811 180.89C96.1275 180.668 97.1938 180.519 98.2024 180.152C98.4228 180.117 98.6453 180.083 98.868 180.052C99.5471 179.777 100.25 179.568 100.952 179.353C101.718 179.198 102.372 178.721 103.096 178.446C104.594 177.754 105.825 176.581 107.446 176.138C108.543 176.788 109.788 177.117 110.894 177.747C111.059 177.754 111.39 177.768 111.555 177.774C111.584 177.805 111.638 177.866 111.664 177.895C111.805 177.959 112.085 178.085 112.225 178.148C112.522 178.197 112.829 178.238 113.109 178.367C113.94 178.811 114.948 178.699 115.763 179.159C116.591 179.375 117.448 179.482 118.27 179.716C118.55 179.745 118.833 179.77 119.12 179.806C119.496 179.947 119.895 180.016 120.287 180.123L120.405 180.003C120.652 180.181 120.93 180.24 121.235 180.184C121.36 180.546 121.569 180.585 121.867 180.307C123.007 180.539 124.243 180.539 125.405 180.782C125.498 180.802 125.681 180.84 125.774 180.86L126.057 180.685C127.609 180.991 129.236 180.938 130.808 180.763L130.839 180.892C132.257 180.578 133.731 180.553 135.173 180.346C135.414 180.291 135.665 180.254 135.915 180.22C138.577 179.967 141.213 179.405 143.845 178.9C144.205 178.784 144.573 178.674 144.944 178.577C145.312 178.484 145.681 178.392 146.06 178.328C146.36 178.238 146.672 178.143 146.997 178.17C147.349 178.063 147.703 177.949 148.054 177.832C149.143 177.689 150.149 177.24 151.2 176.96C152.652 176.546 154.047 175.967 155.499 175.549L155.546 175.425C156.109 175.284 156.634 175.033 157.186 174.853C158.674 174.181 160.23 173.642 161.632 172.789C162.28 172.538 162.915 172.241 163.489 171.846C163.556 171.868 163.692 171.914 163.758 171.939L163.765 171.674C165.383 170.919 166.844 169.862 168.285 168.818C168.959 168.544 169.451 167.994 169.979 167.513C170.821 166.643 171.778 165.89 172.572 164.975C172.974 164.421 173.385 163.873 173.818 163.346C174.529 162.261 174.97 161.037 175.449 159.846C175.965 159.169 175.938 158.279 176.388 157.577C176.483 157.204 176.595 156.834 176.715 156.469C178.709 157.355 180.632 158.39 182.53 159.472C183.492 159.886 184.553 160.037 185.473 160.567C186.147 160.696 186.787 160.961 187.452 161.133C190.314 161.921 193.309 162.048 196.264 161.921C196.736 161.763 197.231 161.729 197.729 161.694C200.03 161.389 202.264 160.676 204.409 159.806C205.193 159.546 205.886 159.08 206.653 158.784C210.696 156.48 214.304 153.323 216.821 149.381C217.649 147.913 218.473 146.44 219.136 144.89C219.311 144.216 219.554 143.563 219.815 142.92C220.109 141.468 220.553 140.046 220.674 138.563C220.832 136.537 220.832 134.491 220.487 132.488C220.187 131.116 219.881 129.743 219.381 128.427C218.619 126.421 217.503 124.587 216.232 122.868C215.774 122.352 215.294 121.857 214.839 121.341C213.506 119.774 211.753 118.654 210.231 117.294C209.711 116.753 209.1 116.323 208.464 115.938C209.036 115.422 209.436 114.734 209.431 113.946C209.55 113.725 209.674 113.507 209.803 113.293C210.652 110.842 210.602 108.004 209.258 105.735C208.235 103.863 206.607 102.316 204.65 101.452C204.267 101.312 203.886 101.165 203.516 101.004C202.815 100.795 202.086 100.715 201.378 100.552C200.562 100.704 199.73 100.686 198.915 100.811C199.331 99.7332 199.501 98.5756 199.979 97.5203C200.351 96.7567 201.006 96.1067 201.15 95.2541L201.4 95.3364C201.206 94.8689 201.147 94.3948 201.568 94.0341C201.43 92.8765 201.408 91.7031 201.03 90.5901C200.723 90.2094 200.551 89.753 200.5 89.2722C200.175 88.4908 199.896 87.6759 199.368 87.0036C198.886 86.5941 198.246 86.2913 198.117 85.6078C197.893 85.412 197.664 85.2181 197.437 85.0335C197.389 84.9532 197.299 84.793 197.252 84.7151C196.946 84.5036 196.651 84.2899 196.346 84.0917C195.903 84.2609 195.438 84.3077 194.996 84.1163C194.653 84.0584 194.324 83.9893 193.993 83.9136C193.632 83.7132 193.265 83.5217 192.914 83.3125C192.761 83.3905 192.459 83.5441 192.308 83.622C192.029 83.4082 191.761 83.1835 191.522 82.9318C191.537 83.0477 191.568 83.277 191.585 83.3905C191.111 83.3793 190.65 83.3637 190.183 83.3593C190.123 83.4594 190.006 83.6577 189.945 83.7578C189.467 83.4106 189.078 82.9564 188.565 82.6624C188.133 82.2284 188.287 81.5872 188.223 81.0395C188.268 80.4229 188.211 79.8107 188.107 79.2051C188.879 78.1187 188.915 76.7207 189.115 75.4428C189.114 74.145 189.604 72.8158 189.151 71.5424C189.2 71.4445 189.293 71.2464 189.343 71.1485C188.944 69.8572 189.03 68.4636 188.552 67.1923C188.289 66.4844 188.143 65.7431 187.978 65.0107C187.917 64.8927 187.796 64.6612 187.737 64.5453C187.109 63.0093 186.378 61.5156 185.529 60.0907C184.231 58.0915 182.618 56.3351 180.972 54.623C179.41 53.236 177.711 52.0139 175.931 50.9252C169.697 47.2142 162.162 45.6536 154.982 46.7666ZM101.419 57.5394C100.778 58.0136 100.19 58.5902 99.8653 59.3315C99.5515 60.0663 98.9704 60.7586 99.0617 61.6023C98.9704 66.0593 102.092 70.16 106.13 71.8252C111.346 74.2206 118.029 73.1809 122.13 69.1158C123.092 68.2231 123.728 67.061 124.537 66.0392C124.614 66.2239 124.692 66.4087 124.775 66.5958C124.223 67.7066 124.062 69.0423 123.116 69.9239C119.356 73.7442 113.505 75.267 108.327 73.9801C105.199 73.2434 102.283 71.4579 100.371 68.8553C98.7322 66.7271 97.913 64.011 98.0622 61.3351C98.1735 60.8253 98.4607 60.3823 98.6453 59.8993C96.8844 58.5635 94.8786 57.5995 92.835 56.7802C88.9101 55.3666 84.678 54.6809 80.5128 55.095C78.3332 55.3756 76.1225 55.9365 74.335 57.2789C74.3839 57.4327 74.4818 57.7399 74.5308 57.8957C75.2454 58.9196 75.7709 60.0663 76.5479 61.048C80.9135 66.8006 86.1385 71.9231 92.0846 76.0328C93.3559 76.8164 94.1885 78.0921 95.2215 79.1406C95.1702 79.2608 95.0679 79.5035 95.0166 79.6237C94.8875 79.7863 94.7607 79.9487 94.6337 80.1135C94.0215 80.0356 93.4271 79.882 92.855 79.6615C91.3278 81.3601 90.0075 83.2257 88.6339 85.0445C87.8794 86.4938 87.4163 88.0744 86.6994 89.5415C86.5837 89.8531 86.2452 90.3386 86.7685 90.4521C88.8166 91.2802 90.7735 92.3221 92.8616 93.0457C97.4788 94.9067 102.047 96.8859 106.655 98.7649C107.386 99.1009 108.118 99.435 108.877 99.7065C109.944 100.219 111.124 100.495 112.136 101.12C112.45 101.218 112.771 101.318 113.085 101.441C114.135 100.833 115.233 100.314 116.29 99.7177C117.829 98.8873 119.358 98.0368 120.923 97.2599C121.921 96.661 122.969 96.1513 123.973 95.5657C125.325 94.8889 126.669 94.1988 127.983 93.453C130.643 92.0149 133.337 90.6414 135.988 89.1875C134.514 88.3282 134.301 86.5272 133.486 85.1759C132.5 83.5351 131.494 81.9078 130.538 80.2493C130.211 80.4207 129.882 80.5899 129.554 80.7613C129.296 80.4185 129.042 80.0734 128.786 79.7306C128.742 79.5814 128.651 79.283 128.606 79.1338C129.114 78.4616 129.746 77.9006 130.278 77.2506C130.877 76.5002 131.738 76.0438 132.489 75.4695C136.643 72.5731 140.343 69.078 143.74 65.3357C146.173 62.5239 148.673 59.6277 149.998 56.0991C149.087 55.0616 147.7 54.7434 146.405 54.4806C144.214 54.1222 141.975 54.0977 139.768 54.318C136.974 54.6074 134.187 55.1173 131.536 56.0567C129.314 56.8025 127.032 57.7421 125.42 59.5074C124.902 59.8881 125.632 60.5782 125.155 60.9789C124.922 61.5044 124.372 61.4509 123.904 61.3329C123.615 59.2959 122.246 57.5973 120.765 56.2527C118.466 54.2513 115.38 53.2629 112.357 53.2607C108.374 53.4299 104.478 54.9927 101.419 57.5394ZM137.215 75.5586C135.781 76.7251 134.334 77.8938 132.72 78.8044C132.847 78.8735 133.103 79.0137 133.23 79.0828C134.143 80.6478 135.274 82.0792 136.084 83.7044C136.856 84.793 137.393 86.0264 137.88 87.2642C137.987 87.5223 138.076 87.785 138.168 88.0544C144 84.8731 149.887 81.7921 155.762 78.6887C158.745 77.1927 161.614 75.4829 164.589 73.9667C158.905 72.2793 153.237 70.5429 147.551 68.8643C146.737 68.6306 145.928 68.2677 145.074 68.2609C142.596 70.8345 140.004 73.3167 137.215 75.5586ZM76.51 69.5834C70.5102 72.6823 64.5038 75.7701 58.4464 78.7555C59.969 79.5257 61.6231 79.9977 63.1881 80.67C67.4559 82.4353 71.7436 84.1518 75.9912 85.9685C76.7659 86.4025 77.6142 86.6786 78.4423 87.0014C80.1988 87.6515 81.8485 88.6021 83.6985 88.985C83.9657 87.9743 84.4776 87.0481 85.1522 86.2535C85.8489 84.7707 86.4501 83.2123 87.5119 81.9367C88.5138 80.8192 89.2974 79.5301 90.2258 78.3524C88.999 77.4352 87.7414 76.5515 86.5771 75.5564C83.7853 73.3746 81.3231 70.8189 78.7361 68.4123C78.0861 68.9711 77.3069 69.3029 76.51 69.5834ZM167.316 74.8973C166.868 75.681 165.953 75.9215 165.201 76.3066C162.02 77.9763 158.809 79.5902 155.655 81.3112C147.567 85.6278 139.448 89.8822 131.349 94.1788C129.94 94.8734 128.622 95.7506 127.172 96.3584C124.229 98.0013 121.193 99.4706 118.25 101.116C117.709 101.378 117.172 101.654 116.642 101.937C119.06 105.167 121.491 108.389 123.911 111.617C124.719 112.703 125.529 113.79 126.378 114.849C128.11 117.222 129.928 119.536 131.689 121.889C131.994 121.495 132.217 121.012 132.669 120.756C133.976 120.059 135.165 119.164 136.48 118.482C137.524 117.832 138.6 117.236 139.624 116.555C140.516 116.022 141.382 115.444 142.295 114.943C143.62 114.135 144.955 113.344 146.285 112.541C147.794 111.666 149.214 110.64 150.764 109.834C151.754 109.291 152.629 108.547 153.673 108.088C153.903 107.935 154.13 107.779 154.361 107.625C154.7 107.398 155.04 107.171 155.401 106.975C156.781 106.221 158.07 105.312 159.45 104.564C159.992 104.134 160.613 103.829 161.198 103.467C161.601 103.142 162.08 102.939 162.538 102.703C162.85 102.492 163.157 102.271 163.469 102.057C163.685 101.946 163.901 101.837 164.119 101.726C164.767 101.298 165.419 100.869 166.114 100.512C166.931 99.898 167.85 99.4416 168.735 98.9273C172.273 96.6988 175.929 94.6574 179.438 92.3756C179.707 92.2553 179.979 92.1285 180.251 92.0015C175.98 86.2713 171.583 80.63 167.316 74.8973ZM56.583 80.3873C55.8728 81.5582 55.0089 82.6269 54.301 83.8001C53.8981 84.3143 53.5174 84.8464 53.1968 85.4164C53.0097 85.6968 52.8339 85.9841 52.6537 86.2689C51.8278 87.3108 51.1866 88.4796 50.3873 89.5371C49.8418 90.3073 49.3722 91.131 48.7554 91.8501C48.0521 93.1925 47.019 94.3235 46.2666 95.6348C45.9059 96.2937 45.3694 96.828 44.9174 97.4224C45.2803 97.4624 45.6722 97.3979 46.0261 97.5249C53.2214 100.991 60.4187 104.444 67.5961 107.952C67.6673 107.937 67.8097 107.908 67.881 107.892L67.89 108.108C68.2329 108.226 68.5845 108.347 68.8761 108.576C69.4639 108.867 70.0717 109.121 70.6638 109.409C70.9132 109.546 71.1647 109.689 71.4208 109.829C73.3221 110.697 75.2299 111.57 77.0599 112.587C77.8412 112.957 78.6494 113.273 79.4264 113.661C80.6195 114.34 81.9018 114.838 83.1286 115.455C83.5782 115.682 84.0302 115.914 84.4665 116.174C85.11 116.414 85.7488 116.682 86.3366 117.044L86.499 117.069C86.7929 117.249 87.1024 117.407 87.4162 117.565C87.9617 117.866 88.5538 118.075 89.0903 118.4C91.2565 119.293 93.2511 120.533 95.4218 121.419C96.8666 119.807 98.0866 118.013 99.3645 116.27C100.901 114.104 102.566 112.031 104.082 109.851C105.87 107.538 107.51 105.11 109.376 102.857C108.094 102.104 106.66 101.679 105.331 101.024C103.603 100.363 101.929 99.5729 100.21 98.8963C96.8732 97.4824 93.5273 96.0844 90.1924 94.6686C87.6545 93.6823 85.1967 92.4891 82.6522 91.5207C82.2781 91.3292 81.893 91.1622 81.5101 91.002C76.4587 88.9027 71.4252 86.7499 66.3807 84.6305C63.1058 83.2346 59.84 81.8165 56.583 80.3873ZM135.576 121.769C134.227 122.637 132.749 123.309 131.538 124.378C130.667 124.07 129.826 123.667 129.058 123.158C127.927 121.058 126.284 119.286 124.979 117.296C121.509 112.525 117.987 107.788 114.527 103.01C114.135 103.222 113.748 103.44 113.365 103.667C113.621 105.573 113.494 107.503 113.681 109.417C113.668 111.782 113.891 114.139 113.851 116.504C113.842 118.267 114.031 120.019 114.02 121.78C114.058 124.326 114.211 126.864 114.247 129.411L114.189 129.511C114.316 132.272 114.354 135.032 114.452 137.795C114.44 138.904 114.487 140.012 114.483 141.121C114.625 143.485 114.663 145.859 114.612 148.227C118.454 145.698 122.488 143.477 126.333 140.952C127.82 140.199 129.169 139.213 130.599 138.361C131.712 137.784 132.669 136.942 133.822 136.433C134.323 136.079 134.864 135.785 135.378 135.451C136.411 134.701 137.602 134.2 138.609 133.414C138.695 133.396 138.867 133.358 138.954 133.341C139.797 132.672 140.746 132.163 141.65 131.584C143.972 130.253 146.191 128.763 148.509 127.427C149.15 126.976 149.818 126.566 150.508 126.196C151.961 125.212 153.502 124.364 154.996 123.443C155.975 122.864 156.877 122.154 157.899 121.646C158.317 121.363 158.751 121.101 159.203 120.876C159.499 120.689 159.793 120.499 160.089 120.31C160.564 119.939 161.109 119.676 161.637 119.391C163.215 118.427 164.769 117.425 166.365 116.497C167.062 115.998 167.814 115.582 168.551 115.145C169.378 114.669 170.15 114.106 170.931 113.556C170.788 111.359 170.982 109.157 171.107 106.964C171.074 104.72 171.43 102.494 171.352 100.247C159.473 107.501 147.48 114.56 135.576 121.769ZM111.09 104.132C111.019 104.553 110.963 104.978 110.934 105.406L110.752 105.288C110.206 106.1 109.57 106.848 109.029 107.665C107.499 110.025 105.242 111.817 103.764 114.215C102.946 115.473 102.032 116.664 101.281 117.962C100.003 120.188 98.6165 122.347 97.1782 124.473C96.2544 124.4 95.3238 124.404 94.4022 124.324C92.8104 123.63 91.2944 122.768 89.7294 122.018C87.9951 121.261 86.3344 120.346 84.6424 119.5C82.8881 118.801 81.2918 117.775 79.5554 117.038C70.9666 112.772 62.3422 108.587 53.7757 104.277C54.0495 108.378 54.3054 112.485 54.2321 116.597C56.278 117.746 58.4262 118.721 60.4544 119.91C63.6735 121.657 66.9638 123.298 70.1452 125.108C72.2645 126.239 74.4417 127.263 76.5254 128.463C76.6057 128.449 76.7682 128.421 76.8483 128.407L76.7481 128.643C79.1925 129.718 81.4678 131.143 83.8654 132.314C84.5444 132.728 85.2724 133.053 85.9781 133.421C88.1221 134.694 90.4172 135.7 92.55 136.991C92.6546 137.045 92.8638 137.149 92.9708 137.201C93.623 137.57 94.3421 137.824 94.9565 138.26C97.0046 139.253 98.9393 140.462 101.007 141.422C102.635 142.455 104.407 143.236 106.085 144.18C108.06 145.349 110.151 146.315 112.096 147.533C112.123 146.555 112.029 145.582 111.994 144.61C111.836 140.979 111.967 137.341 111.731 133.712C111.713 130.288 111.622 126.867 111.566 123.445C111.337 119.883 111.58 116.307 111.335 112.746C111.357 109.992 111.208 107.242 111.246 104.491C111.217 104.03 111.346 103.462 110.863 103.195C110.93 103.509 111.005 103.818 111.09 104.132Z" fill="#080810"/>
<path d="M118.372 47.0681C118.472 46.0752 119.249 45.2982 120.106 44.8643C120.371 44.8643 120.638 44.8643 120.91 44.8643C121.533 45.3673 122.428 45.7324 122.544 46.6296C122.635 48.0833 122.675 49.6439 122.05 50.9908C121.373 52.233 119.601 51.9347 118.839 50.9351C118.161 49.7486 118.437 48.366 118.372 47.0681Z" fill="#080810"/>
<path d="M102.118 47.0808C102.268 46.2125 102.893 45.4311 103.717 45.1082C104.654 44.8723 105.58 45.509 105.959 46.346C106.495 47.2366 106.252 48.3008 106.297 49.2802C106.353 49.8969 106.119 50.4714 105.934 51.0457C105.545 51.364 105.202 51.7536 104.754 51.9918C103.928 52.1121 102.918 51.9539 102.557 51.0946C102.067 49.8212 102.04 48.4253 102.118 47.0808Z" fill="#080810"/>
<path d="M108.543 55.905C109.227 55.0479 110.424 55.1326 111.411 54.9656C112.417 54.7453 113.446 54.8655 114.461 54.97C114.654 55.422 114.872 55.8718 114.966 56.3636C115.051 56.366 115.215 56.3726 115.298 56.377C115.175 56.4371 114.928 56.5597 114.806 56.6198C114.436 57.7218 113.394 58.2583 112.477 58.8326C112.379 58.8571 112.183 58.9061 112.085 58.9284C111.6 58.7681 111.068 58.8438 110.6 58.6278C109.679 58.2583 109.144 57.3655 108.557 56.622C108.552 56.4417 108.546 56.0855 108.543 55.905Z" fill="#080810"/>
<path d="M118.757 59.5923C118.993 59.5298 119.231 59.4676 119.474 59.4053C119.65 59.7036 119.828 59.9974 120.013 60.2934C119.997 60.4138 119.968 60.6587 119.955 60.7789C119.623 61.6316 118.842 62.1947 118.031 62.5509C116.7 63.1119 115.333 63.5995 113.926 63.9223C112.486 64.2496 111.003 64.0447 109.558 63.8733C107.82 63.5282 106.286 62.5754 104.701 61.8252C104.282 61.6826 104.042 61.3087 103.812 60.9591C103.999 60.6653 104.171 60.3603 104.385 60.0843C107.321 62.0679 111.052 63.0897 114.559 62.2704C115.487 62.1034 116.324 61.647 117.134 61.1818C117.882 60.9213 118.526 60.3691 118.757 59.5923Z" fill="#080810"/>
<path d="M133.048 2.89961C133.134 2.70816 133.237 2.52115 133.352 2.34082C134.098 3.93481 134.566 5.6401 135.278 7.25189C135.924 8.81694 136.67 10.3642 136.944 12.0517C137.124 13.265 137.451 14.4538 137.879 15.6025C138.591 17.9645 138.858 20.4289 139.562 22.7932C140.16 25.2043 140.621 27.6465 141.098 30.0842C141.812 32.6666 141.607 35.4316 142.609 37.9428C143.132 39.5056 143.615 41.0817 144.065 42.6668C144.205 42.8428 144.337 43.0296 144.459 43.2233C146.347 47.3753 148.437 51.4359 150.187 55.648C149.295 54.7286 148.393 53.5775 147.039 53.4017C144.735 52.9787 142.373 52.9008 140.045 53.1479C139.21 51.1043 138.896 48.9069 138.199 46.8187C137.5 44.8285 137.124 42.7447 136.505 40.73C136.044 39.0871 135.463 37.4574 135.41 35.7344C135.334 33.9356 135.082 32.1435 135.127 30.3402C135.254 28.2475 135.623 26.1704 135.603 24.0688C135.652 19.4807 135.207 14.8923 134.337 10.3887C133.753 7.92422 133.043 5.45754 133.048 2.89961Z" fill="#EE751E"/>
<path d="M128.787 79.7314C129.042 80.0743 129.296 80.4193 129.555 80.7622C129.882 80.5908 130.211 80.4216 130.539 80.2501C131.494 81.9087 132.5 83.536 133.486 85.1767C134.301 86.5281 134.515 88.3292 135.988 89.1885C133.337 90.6422 130.643 92.0158 127.983 93.4539C128.19 90.8359 128.386 88.2179 128.546 85.5975C128.629 83.6429 129.194 81.6882 128.787 79.7314Z" fill="#EE751E"/>
<path d="M130.654 6.23333C131.32 5.03117 132.244 4.0071 133.047 2.89844C133.043 5.45638 133.753 7.92304 134.337 10.3875C135.207 14.8912 135.652 19.4795 135.603 24.0677C135.623 26.1692 135.254 28.2463 135.127 30.339C135.082 32.1422 135.334 33.9343 135.41 35.7332C135.463 37.4562 136.044 39.0859 136.505 40.7289C137.124 42.7435 137.5 44.8274 138.199 46.8176C138.896 48.9057 139.21 51.1031 140.045 53.1468C135.401 53.6232 130.677 54.6718 126.68 57.1828C125.917 57.6438 125.198 58.2025 124.666 58.9261C124.165 57.5146 123.11 56.406 122.05 55.3907C119.149 52.7216 115.088 51.5483 111.195 51.7976C107.357 52.4433 103.585 53.9348 100.622 56.5017C99.9501 57.0516 99.4491 57.7728 99.0886 58.5564C95.4375 55.934 91.0251 54.567 86.6172 53.9238C84.5045 53.6989 82.3495 53.5631 80.2435 53.9014C79.1237 54.2064 77.9438 54.2176 76.8417 54.5961C76.1472 54.8231 75.495 55.1526 74.8359 55.4554C75.9179 52.4855 76.9353 49.4935 77.9772 46.5082C79.0168 43.643 79.6512 40.6576 80.5596 37.7524C81.0604 36.2497 81.2208 34.6646 81.7329 33.1663C82.0667 30.8264 82.7568 28.5603 83.3001 26.2649C84.5311 22.1598 85.8046 18.0635 87.3318 14.0541C87.688 13.1436 88.18 12.282 88.3981 11.3225C89.4845 9.19867 90.2215 6.8923 91.4903 4.86419C92.2964 6.63405 93.3069 8.30151 94.2465 10.0023C96.584 14.1743 98.9126 18.3507 101.339 22.4714C102.368 24.4862 103.465 26.4698 104.687 28.3777C104.256 28.7161 103.819 29.0433 103.385 29.375C103.436 29.7 103.488 30.0296 103.539 30.3568C104.269 30.4303 104.961 30.1942 105.652 29.9961C107.515 29.8848 109.387 29.9895 111.253 29.9249C112.922 29.6221 114.652 29.6221 116.324 29.9138C117.036 29.9649 117.762 29.9116 118.47 30.0452C118.606 30.1097 118.875 30.2366 119.011 30.3011C119.127 30.3234 119.356 30.3656 119.472 30.3857C119.717 30.4103 119.957 30.4636 120.195 30.5439C120.645 30.4792 121.097 30.4035 121.549 30.3346C121.631 30.2299 121.792 30.0228 121.874 29.9205L121.919 29.8648L121.914 29.7957C121.91 29.6822 121.901 29.4597 121.896 29.3483C121.217 29.0834 120.558 28.7718 119.879 28.5134C120.456 27.3647 120.859 26.1425 121.306 24.9426C121.792 23.6581 122.319 22.3913 122.851 21.1268C122.972 20.9042 123.096 20.6839 123.223 20.4612C123.237 20.3566 123.265 20.145 123.279 20.0404C123.399 19.8245 123.521 19.6063 123.642 19.3904C123.869 18.6935 124.189 18.0302 124.523 17.38C124.75 16.937 124.973 16.4896 125.193 16.0421C125.91 14.555 126.698 13.1035 127.431 11.6208C127.584 11.2935 127.809 11.0064 128.079 10.7637L128.136 10.7103V10.6346C128.139 10.5478 128.141 10.3697 128.143 10.2829C128.346 9.97786 128.546 9.6684 128.751 9.36341C129.002 8.90481 129.276 8.45733 129.539 8.00318C129.708 7.70487 129.889 7.41323 130.082 7.13051C130.269 6.82996 130.467 6.5361 130.654 6.23333ZM118.372 47.0669C118.437 48.3648 118.161 49.7474 118.84 50.9339C119.601 51.9334 121.373 52.2318 122.05 50.9896C122.675 49.6426 122.635 48.082 122.544 46.6283C122.428 45.7312 121.533 45.3661 120.91 44.8629C120.639 44.8629 120.371 44.8629 120.106 44.8629C119.249 45.297 118.472 46.074 118.372 47.0669ZM102.118 47.0803C102.04 48.4249 102.067 49.8207 102.557 51.0941C102.918 51.9534 103.928 52.1116 104.754 51.9913C105.202 51.7532 105.545 51.3635 105.934 51.0452C106.119 50.4709 106.353 49.8964 106.297 49.2798C106.253 48.3003 106.495 47.2361 105.959 46.3456C105.58 45.5085 104.654 44.8718 103.717 45.1078C102.893 45.4306 102.268 46.212 102.118 47.0803Z" fill="#FFAA00"/>
<path d="M125.587 80.691C126.529 80.0587 127.54 79.5289 128.606 79.1348C128.651 79.284 128.742 79.5823 128.786 79.7315C129.194 81.6883 128.628 83.643 128.546 85.5975C128.386 88.2179 128.19 90.8359 127.983 93.4539C126.669 94.1997 125.325 94.8898 123.973 95.5667C122.969 96.1522 121.921 96.6619 120.923 97.2609C119.358 98.0377 117.829 98.8882 116.291 99.7186C116.217 97.8352 116.97 96.0719 117.499 94.3022C118.377 91.9111 119.369 89.5625 120.527 87.2895C121.651 84.736 123.281 82.3183 125.587 80.691Z" fill="#FFAA00"/>
<path d="M95.0168 79.623C95.5088 79.7878 96.003 79.9459 96.5017 80.1017C97.183 80.961 98.0177 81.7023 98.5676 82.6642C100.613 86.2128 102.584 89.8037 104.552 93.3967C105.318 95.1578 105.914 96.99 106.655 98.7643C102.047 96.8852 97.479 94.9061 92.8618 93.0451C90.7735 92.3215 88.8167 91.2796 86.7687 90.4515C86.2454 90.3379 86.5838 89.8525 86.6996 89.5409C87.4163 88.0738 87.8795 86.4932 88.6341 85.0439C90.0077 83.2251 91.328 81.3595 92.8552 79.6609C93.4273 79.8814 94.0217 80.035 94.6339 80.1129C94.7608 79.9481 94.8876 79.7856 95.0168 79.623Z" fill="#FFAA00"/>
<path d="M154.983 46.7665C162.162 45.6534 169.699 47.214 175.931 50.9251C177.713 52.0137 179.411 53.236 180.972 54.6228C182.618 56.3349 184.231 58.0913 185.529 60.0905C186.378 61.5154 187.109 63.0091 187.737 64.5453C187.797 64.661 187.917 64.8926 187.978 65.0105C188.143 65.7429 188.289 66.4842 188.552 67.1922C189.031 68.4634 188.944 69.857 189.343 71.1483C189.294 71.2462 189.2 71.4443 189.151 71.5422C189.604 72.8156 189.114 74.1448 189.115 75.4426C188.915 76.7205 188.879 78.1185 188.107 79.2049C188.211 79.8105 188.268 80.4227 188.223 81.0393C188.287 81.587 188.133 82.2282 188.565 82.6622C189.078 82.9562 189.467 83.4104 189.945 83.7576C190.006 83.6575 190.124 83.4593 190.185 83.3591C190.65 83.3635 191.111 83.3791 191.585 83.3903C191.568 83.2768 191.537 83.0475 191.522 82.9317C191.761 83.1833 192.03 83.4082 192.308 83.6218C192.459 83.5439 192.761 83.3903 192.914 83.3124C193.265 83.5217 193.632 83.7132 193.993 83.9134C194.324 83.9891 194.654 84.0582 194.996 84.1161C195.438 84.3075 195.903 84.2607 196.346 84.0915C196.651 84.2897 196.946 84.5034 197.252 84.7149C197.3 84.7928 197.389 84.9532 197.437 85.0333C197.664 85.2179 197.894 85.4118 198.118 85.6076C198.247 86.2911 198.886 86.5939 199.368 87.0034C199.896 87.6757 200.175 88.4906 200.501 89.272C200.551 89.7528 200.723 90.2092 201.03 90.5899C201.409 91.703 201.431 92.8763 201.568 94.034C201.149 94.3946 201.207 94.8687 201.4 95.3363L201.151 95.2539C201.006 96.1065 200.351 96.7565 199.979 97.5201C199.501 98.5755 199.331 99.7331 198.915 100.811C199.73 100.686 200.563 100.704 201.378 100.552C202.086 100.715 202.816 100.795 203.517 101.004C203.887 101.165 204.267 101.311 204.65 101.452C206.607 102.316 208.235 103.863 209.258 105.735C210.603 108.003 210.652 110.842 209.803 113.293C209.674 113.507 209.55 113.725 209.431 113.945C209.437 114.733 209.036 115.421 208.464 115.938C209.1 116.323 209.713 116.753 210.231 117.294C211.753 118.654 213.507 119.774 214.839 121.341C215.294 121.857 215.774 122.352 216.232 122.868C217.504 124.587 218.62 126.421 219.381 128.427C219.881 129.743 220.187 131.116 220.487 132.488C220.832 134.491 220.832 136.537 220.674 138.563C220.554 140.046 220.109 141.468 219.815 142.92C219.554 143.563 219.311 144.215 219.136 144.89C218.473 146.439 217.65 147.913 216.821 149.38C214.304 153.323 210.696 156.48 206.653 158.784C205.886 159.08 205.193 159.545 204.409 159.806C202.264 160.676 200.03 161.389 197.729 161.694C197.232 161.729 196.736 161.763 196.264 161.921C193.309 162.048 190.314 161.921 187.452 161.133C186.787 160.961 186.147 160.696 185.473 160.567C184.553 160.037 183.492 159.886 182.53 159.472C180.633 158.39 178.71 157.355 176.715 156.469C176.595 156.834 176.483 157.203 176.388 157.577C175.938 158.279 175.965 159.169 175.449 159.846C174.971 161.037 174.529 162.261 173.818 163.345C173.385 163.873 172.975 164.421 172.572 164.975C171.778 165.89 170.821 166.643 169.979 167.513C169.451 167.994 168.959 168.544 168.285 168.818C166.844 169.862 165.384 170.919 163.765 171.674L163.759 171.939C163.692 171.914 163.556 171.868 163.489 171.846C162.915 172.241 162.28 172.538 161.632 172.789C160.23 173.641 158.674 174.181 157.187 174.853C156.634 175.033 156.109 175.284 155.546 175.425L155.499 175.549C154.048 175.967 152.652 176.545 151.2 176.959C150.149 177.239 149.143 177.689 148.055 177.832C147.703 177.949 147.349 178.063 146.997 178.17C146.672 178.142 146.36 178.237 146.06 178.327C145.681 178.392 145.312 178.484 144.945 178.577C144.573 178.674 144.205 178.784 143.845 178.899C141.213 179.405 138.577 179.967 135.915 180.22C135.666 180.254 135.414 180.291 135.174 180.345C133.731 180.553 132.257 180.578 130.839 180.892L130.808 180.763C129.236 180.938 127.609 180.99 126.057 180.685L125.774 180.86C125.681 180.839 125.498 180.802 125.405 180.782C124.243 180.539 123.007 180.539 121.867 180.306C121.674 180.174 121.462 180.133 121.235 180.184C120.93 180.24 120.652 180.181 120.405 180.003L120.287 180.123C119.895 180.016 119.496 179.947 119.12 179.806C118.833 179.77 118.55 179.745 118.27 179.716C117.448 179.482 116.591 179.375 115.763 179.159C114.948 178.699 113.94 178.811 113.109 178.366C112.829 178.237 112.522 178.197 112.226 178.148C112.085 178.085 111.805 177.959 111.665 177.895L111.669 177.778L111.555 177.774C111.391 177.767 111.059 177.754 110.894 177.747C109.788 177.117 108.543 176.788 107.446 176.138C105.825 176.581 104.594 177.754 103.096 178.446C102.372 178.723 101.718 179.198 100.952 179.353C100.251 179.568 99.5472 179.777 98.8681 180.052C98.6456 180.082 98.4229 180.116 98.2025 180.152C97.194 180.519 96.1276 180.668 95.0814 180.89C92.9553 181.293 90.7914 181.43 88.6387 181.584C87.1449 181.578 85.6532 181.513 84.1617 181.559C79.8182 181.182 75.4772 180.67 71.2072 179.757C67.0797 179.033 63.1015 177.674 59.1143 176.416C57.5782 175.921 56.1245 175.203 54.5817 174.734C54.4659 174.663 54.2344 174.526 54.1187 174.454C54.0095 174.441 53.7914 174.414 53.6823 174.402C53.4618 174.271 53.2415 174.147 53.0211 174.025C52.7785 173.955 52.5358 173.887 52.2975 173.816C52.1752 173.797 51.9325 173.762 51.8101 173.745C51.7544 173.735 51.6387 173.719 51.5808 173.713C51.5117 173.611 51.3715 173.409 51.3002 173.309C51.2245 173.304 51.0687 173.295 50.993 173.29L50.826 173.288C50.4453 173.112 50.0558 172.969 49.6729 172.811C48.5709 172.166 47.4332 171.588 46.338 170.933C43.9893 169.517 41.7631 167.889 39.7394 166.037C38.6797 164.917 37.551 163.851 36.6628 162.58C35.888 161.714 35.4228 160.632 34.904 159.608C34.5946 158.862 34.1672 158.178 33.7865 157.473C31.7917 158.007 29.8416 158.942 27.74 158.857C26.0725 158.924 24.3917 158.784 22.7732 158.363C22.5529 158.334 22.3324 158.31 22.1121 158.292C21.2883 157.922 20.3445 157.851 19.5921 157.321C19.4874 157.306 19.2781 157.279 19.1735 157.266C16.6022 156.014 14.1177 154.492 12.1475 152.395C11.5531 151.762 10.9587 151.13 10.3264 150.538C9.59842 149.367 8.60107 148.378 7.94211 147.158C7.13399 145.865 6.49728 144.48 5.78043 143.138C5.24836 141.722 4.70962 140.306 4.19535 138.886C3.66997 136.809 3.27147 134.705 3.05329 132.574C2.91972 131.33 2.93085 130.079 2.94199 128.832C2.92196 128.765 2.88633 128.634 2.86853 128.567C3.05109 126.982 3.06443 125.377 3.39614 123.81C3.42954 123.269 3.59872 122.752 3.76792 122.243C3.76125 122.142 3.75234 121.942 3.74789 121.842C3.91707 121.506 4.03953 121.154 4.1397 120.795C4.29554 120.306 4.44025 119.811 4.52929 119.308C4.57605 119.233 4.66732 119.083 4.71184 119.008C4.73856 118.874 4.79421 118.603 4.82092 118.467C5.97634 115.717 7.40336 113.055 9.36468 110.789C11.0099 108.751 13.1515 107.202 15.3889 105.875C16.3194 105.492 17.2166 105.009 18.2007 104.773C18.9731 104.658 19.7523 104.773 20.5293 104.782C20.5137 104.682 20.4847 104.477 20.4692 104.375C20.8253 104.537 21.2126 104.597 21.6001 104.658C21.7603 104.473 21.9229 104.29 22.0899 104.11C21.5933 103.64 21.3508 102.983 20.881 102.494C19.6075 101.082 18.5233 99.4948 17.7798 97.7428C16.5109 94.517 16.1769 90.8793 17.221 87.5444C18.2161 84.1227 20.5247 81.0705 23.6215 79.2918C24.1224 79.0091 24.6545 78.7932 25.1665 78.5304C28.0182 77.3327 31.2797 77.2926 34.2072 78.2499C35.0487 78.5839 35.9571 78.8511 36.645 79.4677C37.3195 79.6501 38.0096 79.7749 38.7087 79.8349C38.9736 79.3853 39.243 78.9378 39.5101 78.4926C38.673 77.3105 37.571 76.2307 37.3129 74.7435C36.8875 73.5836 37.2616 72.3526 37.5754 71.215C38.5016 69.1401 40.7189 67.662 43.0097 67.7665C44.3744 67.6998 45.7614 68.1384 46.8522 68.9598C47.4532 69.4897 48.335 69.4563 48.9694 69.9439C49.6306 69.7256 50.3162 69.6033 50.9996 69.4719C50.4653 66.8649 50.2807 64.1111 51.1132 61.542C52.8564 55.4844 57.9611 50.7336 63.8807 48.7947C64.7911 48.5075 65.7129 48.2536 66.6435 48.0377C68.2085 47.8863 69.7958 47.5657 71.363 47.8953C72.5029 47.9842 73.6228 48.2225 74.7202 48.5475C74.0501 50.4643 73.4045 52.3989 72.8324 54.3469C72.6499 54.7742 72.5207 55.2196 72.3872 55.6626C71.8795 56.729 71.9642 57.9065 72.3581 58.9929C72.4539 58.9707 72.6409 58.924 72.7344 58.9018C72.7122 59.3514 72.681 59.8011 72.6409 60.2507C72.8924 60.5758 73.0995 60.9342 73.3132 61.2861C73.4914 61.5643 73.6472 61.8536 73.7986 62.1498L73.9076 61.965C74.0924 62.8289 74.9918 63.3275 75.308 64.1578L75.4171 64.1021C75.9624 65.104 76.6081 66.0857 77.641 66.6446C77.011 67.1944 76.2608 67.5774 75.4882 67.8824C74.4797 68.3254 73.4602 68.7684 72.5608 69.4162L72.5452 69.2804C72.2736 69.4563 71.9931 69.6233 71.7193 69.7947C66.5588 72.4618 61.4318 75.2089 56.345 78.025C56.1357 77.9315 55.9264 77.8426 55.7171 77.7557C51.3715 83.8444 47.2307 90.069 42.943 96.2C42.6937 96.8634 42.6468 97.587 42.5356 98.2861C42.7337 98.6199 42.9942 98.9471 43.3347 99.1476C46.0196 100.401 48.6243 101.819 51.3136 103.063C51.4004 104.179 51.3803 105.299 51.4182 106.418C51.4004 107.086 51.4382 107.756 51.4582 108.426C51.5496 109.384 51.6096 110.348 51.6475 111.309C51.7388 112.643 51.8033 113.981 51.9214 115.312C52.0015 115.677 52.0594 116.049 52.1217 116.421C51.6631 116.679 51.6074 117.216 51.4472 117.665C53.9695 119.239 56.661 120.531 59.2613 121.969C67.2757 126.288 75.3058 130.578 83.2867 134.961C83.5873 135.097 83.8879 135.244 84.1861 135.395C85.1279 135.947 86.1074 136.439 87.0714 136.956C89.213 138.147 91.388 139.278 93.5542 140.422C94.5381 140.907 95.4731 141.477 96.4482 141.98C101.818 144.917 107.283 147.679 112.666 150.598C113.038 150.605 113.414 150.618 113.791 150.634C113.98 150.781 114.176 150.928 114.374 151.074C116.219 149.868 118.179 148.855 120.013 147.63C132.711 139.903 145.388 132.14 158.077 124.404C161.125 122.55 164.128 120.628 167.205 118.823C167.51 118.638 167.808 118.44 168.117 118.262C168.923 117.743 169.743 117.249 170.581 116.786C170.702 116.808 170.94 116.855 171.06 116.877C171.152 116.848 171.335 116.793 171.423 116.766C171.651 116.238 171.982 115.771 172.316 115.31C172.628 115.27 173.01 115.426 173.265 115.163C173.518 114.406 173.292 113.598 173.458 112.828C173.518 109.914 173.659 107.002 173.65 104.085C173.764 103.204 173.796 102.309 173.728 101.423C173.523 100.699 173.185 100.025 172.835 99.3657C173.031 99.2477 173.227 99.1298 173.428 99.0118C174.4 98.4241 175.432 97.932 176.335 97.2329C177.252 96.7611 178.139 96.2356 179.007 95.6747C179.779 95.1827 180.624 94.8132 181.364 94.2699C181.624 93.927 181.768 93.5129 181.973 93.1368C182.218 93.2658 182.466 93.3927 182.718 93.5219C183.124 93.1612 183.674 92.8785 183.871 92.3442C183.635 92.0504 183.385 91.7742 183.202 91.447C183.066 91.3357 182.932 91.2243 182.803 91.1132C182.309 90.1804 181.524 89.4456 180.918 88.5863C180.465 87.8784 179.903 87.2484 179.373 86.5983C179.175 86.2889 178.954 85.9927 178.73 85.7056C178.496 85.3961 178.243 85.1044 177.987 84.8196C176.902 83.3435 175.728 81.9365 174.64 80.4628C174.578 80.3983 174.456 80.2735 174.393 80.2112C173.825 79.432 173.233 78.6751 172.652 77.907C172.014 77.0299 171.286 76.2241 170.622 75.3647C169.845 74.5811 169.385 73.4412 168.292 73.0205C167.554 72.8224 166.822 72.6064 166.118 72.3126C159.629 70.3646 153.15 68.3743 146.672 66.3997C147.411 65.7741 147.89 64.9192 148.375 64.0999L148.482 64.16C148.796 63.3275 149.7 62.8311 149.882 61.965L149.994 62.152C150.141 61.8536 150.299 61.5643 150.481 61.2861C150.96 60.4622 151.525 59.6876 151.939 58.8261C152.534 57.7841 152.825 56.611 153.231 55.4912C153.362 55.1283 153.01 54.8411 152.868 54.5427C152.351 53.6856 151.93 52.7774 151.396 51.9358C150.648 50.727 150.25 49.3534 149.642 48.08C150.737 47.7239 151.835 47.3586 152.968 47.1271C153.64 47.0158 154.304 46.8578 154.983 46.7665ZM7.4835 129.887C7.34548 133.467 8.11798 137.051 9.48712 140.351C10.155 142.619 11.4484 144.661 12.96 146.46C14.4605 147.926 15.8697 149.552 17.7375 150.565C18.4522 150.939 18.9709 151.578 19.6454 152.005C20.4157 152.337 21.2773 152.388 22.0453 152.735C23.3187 153.392 24.7746 153.508 26.1704 153.717C27.5931 153.621 29.0067 154.153 30.4115 153.775C31.8942 153.641 33.379 153.568 34.8529 153.33C36.1061 154.806 37.5754 156.075 38.8645 157.517C40.8571 160.037 43.2302 162.237 45.7124 164.265C51.8211 168.971 59.0543 172.024 66.4609 174.016C69.9694 174.918 73.616 174.997 77.1558 175.719C79.2172 176.104 81.3076 176.32 83.4003 176.438C86.1496 176.354 88.9192 176.62 91.6486 176.189C95.3574 175.81 99.0061 174.775 102.339 173.105C103.216 172.699 103.949 172.043 104.814 171.623C105.716 171.488 106.693 171.253 107.573 171.623C108.746 172.085 109.977 172.367 111.195 172.691C112.789 173.078 114.214 173.954 115.819 174.32C118.325 175.132 120.937 175.556 123.544 175.902C126.033 176.16 128.553 175.763 131.035 176.157C132.74 176.267 134.457 176.192 136.167 176.199C139.499 175.921 142.685 174.819 145.962 174.227C151.942 172.754 157.661 170.199 162.781 166.778C166.185 164.394 169.531 161.729 171.751 158.156C172.761 156.253 174.202 154.636 175.397 152.851C176.744 152.78 178.117 152.838 179.428 153.189C180.544 153.686 181.537 154.425 182.671 154.895C184.036 155.433 185.308 156.215 186.771 156.484C190.266 157.577 194.051 157.564 197.586 156.662C198.978 156.246 200.478 156.299 201.831 155.743C203.152 155.224 204.53 154.821 205.731 154.046C207.293 153.06 208.826 151.987 210.073 150.614C211.629 149.12 212.66 147.205 213.725 145.36C215.189 143.625 215.961 141.457 216.609 139.316C216.779 138.781 216.66 138.222 216.604 137.684C216.472 136.624 216.579 135.549 216.422 134.493C216.261 132.681 215.467 130.802 213.943 129.734C213.639 133.269 212.018 136.533 209.924 139.342C207.979 141.804 205.523 143.966 202.566 145.113C198.099 146.778 193.28 147.984 188.487 147.294C185.807 147.265 183.1 147.234 180.471 146.644C177.966 146.063 175.368 146.528 172.919 147.156C170.838 147.751 168.65 148.042 166.722 149.084C165.604 149.46 164.892 150.487 163.785 150.87C162.178 151.524 160.824 152.635 159.364 153.546C157.371 154.866 155.281 156.026 153.144 157.092C148.954 159.089 144.479 160.42 139.962 161.442C137.827 161.878 135.657 162.028 133.488 162.181C130.276 162.212 127.008 162.208 123.887 161.351C123.239 161.195 122.578 161.106 121.916 161.061C118.528 160.856 115.235 159.979 111.918 159.329C111.313 159.271 110.718 159.45 110.117 159.478C109.365 159.548 108.588 159.443 107.858 159.674C104.841 160.745 101.702 161.455 98.5387 161.921C94.9366 162.589 91.2767 162.791 87.6324 163.074C86.4368 163.072 85.2369 163.027 84.0525 163.221C82.7971 163.435 81.5481 163.096 80.2946 163.074C77.8815 163.016 75.5283 162.437 73.1396 162.143C71.9286 162.001 70.8288 161.391 69.6132 161.293C66.9439 161.081 64.4261 160.106 61.946 159.171C59.7488 158.396 57.7964 157.101 55.7838 155.957C54.6195 155.304 53.7758 154.225 52.6071 153.581C51.0687 152.715 50.1159 151.155 48.6688 150.173C45.6857 148.107 42.3618 146.562 38.9336 145.395C37.0189 144.743 34.9975 144.563 33.0117 144.251C31.3221 144 29.6011 144.3 27.9137 144.024C26.3264 143.715 24.748 143.291 23.2875 142.588C19.5809 140.823 16.2259 138.316 13.5077 135.237C11.4462 132.944 9.68525 130.237 9.15985 127.149C7.96214 127.463 7.50354 128.77 7.4835 129.887Z" fill="white"/>
<path d="M101.419 57.5395C104.478 54.9928 108.374 53.43 112.357 53.2607C115.38 53.2629 118.466 54.2514 120.765 56.2528C122.246 57.5974 123.615 59.296 123.904 61.333C124.372 61.451 124.922 61.5044 125.155 60.979C125.632 60.5783 124.902 59.8882 125.42 59.5075C127.032 57.7422 129.314 56.8026 131.536 56.0568C134.187 55.1174 136.974 54.6075 139.768 54.3181C139.548 58.0047 138.381 61.5489 137.213 65.024C136.46 67.3304 135.098 69.3542 133.755 71.351C132.034 73.7553 130.187 76.1086 127.927 78.0321C127.101 78.7578 126.093 79.2142 125.109 79.675C125.06 79.833 124.962 80.1536 124.913 80.3139C125.135 80.4386 125.36 80.5632 125.587 80.6901C123.281 82.3175 121.651 84.7352 120.527 87.2887C119.369 89.5616 118.376 91.9103 117.499 94.3014C116.969 96.0711 116.217 97.8344 116.291 99.7178C115.233 100.314 114.136 100.833 113.085 101.441C112.771 101.318 112.45 101.218 112.136 101.12C111.123 100.495 109.944 100.219 108.877 99.7066C108.118 99.435 107.386 99.101 106.655 98.765C105.914 96.9907 105.317 95.1583 104.552 93.3974C102.584 89.8044 100.613 86.2133 98.5674 82.6647C98.0177 81.7031 97.1828 80.9617 96.5015 80.1024C96.0029 79.9466 95.5086 79.7886 95.0166 79.6237C95.0679 79.5036 95.1702 79.2609 95.2215 79.1407C94.1885 78.0922 93.3558 76.8165 92.0848 76.0329C86.1385 71.9232 80.9135 66.8007 76.5478 61.0481C75.7708 60.0664 75.2455 58.9197 74.5308 57.8958C74.4819 57.7399 74.384 57.4326 74.335 57.279C76.1227 55.9366 78.3333 55.3757 80.5128 55.0951C84.678 54.681 88.9101 55.3667 92.835 56.7803C94.8786 57.5996 96.8844 58.5636 98.6455 59.8994C98.4607 60.3824 98.1735 60.8254 98.0621 61.3352C97.913 64.0111 98.7322 66.7272 100.371 68.8554C102.283 71.458 105.199 73.2433 108.327 73.9802C113.506 75.2671 119.356 73.7443 123.116 69.924C124.062 69.0424 124.223 67.7067 124.775 66.5958C124.692 66.4088 124.614 66.224 124.536 66.0393C123.728 67.0611 123.092 68.2232 122.13 69.1159C118.029 73.181 111.346 74.2207 106.13 71.8252C102.092 70.1601 98.9705 66.0593 99.0617 61.6024C98.9705 60.7587 99.5515 60.0664 99.8655 59.3316C100.19 58.5903 100.778 58.0137 101.419 57.5395ZM108.543 55.9054C108.546 56.0858 108.552 56.4421 108.557 56.6223C109.144 57.3659 109.679 58.2586 110.6 58.6281C111.068 58.844 111.6 58.7685 112.085 58.9287C112.183 58.9065 112.379 58.8574 112.477 58.833C113.394 58.2586 114.436 57.7221 114.806 56.6201C114.928 56.56 115.175 56.4375 115.298 56.3774C115.215 56.373 115.051 56.3664 114.966 56.364C114.872 55.8721 114.654 55.4224 114.461 54.9704C113.445 54.8658 112.417 54.7457 111.411 54.966C110.424 55.133 109.227 55.0483 108.543 55.9054ZM118.757 59.5922C118.526 60.369 117.882 60.9211 117.134 61.1816C116.324 61.6468 115.487 62.1032 114.559 62.2702C111.052 63.0895 107.321 62.0676 104.385 60.084C104.171 60.3602 103.999 60.6652 103.813 60.959C104.042 61.3086 104.282 61.6825 104.701 61.8251C106.286 62.5752 107.82 63.5281 109.558 63.8731C111.003 64.0445 112.486 64.2494 113.926 63.9222C115.333 63.5994 116.7 63.1117 118.031 62.5508C118.842 62.1945 119.623 61.6314 119.955 60.7787C119.968 60.6585 119.997 60.4136 120.013 60.2933C119.828 59.9973 119.65 59.7035 119.474 59.4051C119.231 59.4674 118.993 59.5297 118.757 59.5922Z" fill="#FFEFE2"/>
<path d="M139.769 54.3172C141.975 54.0969 144.214 54.1214 146.405 54.4798C147.701 54.7426 149.087 55.0608 149.998 56.0983C148.673 59.6269 146.173 62.5231 143.74 65.3349C140.343 69.0772 136.643 72.5723 132.489 75.4687C131.738 76.043 130.877 76.4994 130.278 77.2498C129.746 77.8998 129.114 78.4608 128.606 79.133C127.54 79.5271 126.529 80.057 125.587 80.6892C125.36 80.5623 125.135 80.4377 124.913 80.313C124.962 80.1527 125.06 79.8321 125.109 79.6741C126.093 79.2133 127.101 78.7569 127.927 78.0312C130.187 76.1077 132.034 73.7545 133.755 71.3501C135.098 69.3533 136.46 67.3295 137.213 65.0233C138.382 61.548 139.548 58.0038 139.769 54.3172Z" fill="#E1B070"/>
<path d="M137.215 75.5594C140.004 73.3175 142.596 70.8353 145.074 68.2617C145.928 68.2685 146.736 68.6314 147.551 68.8651C153.237 70.5437 158.905 72.2801 164.589 73.9675C161.614 75.4837 158.745 77.1935 155.762 78.6894C149.887 81.7929 144.001 84.8739 138.168 88.0552C138.076 87.7858 137.987 87.5231 137.881 87.2649C137.393 86.0271 136.856 84.7938 136.084 83.7051C135.274 82.08 134.143 80.6486 133.23 79.0835C133.103 79.0145 132.847 78.8743 132.72 78.8052C134.334 77.8946 135.781 76.7259 137.215 75.5594Z" fill="#C5AC7E"/>
<path d="M76.5102 69.5832C77.3072 69.3027 78.0864 68.971 78.7364 68.4121C81.3232 70.8186 83.7854 73.3745 86.5772 75.5562C87.7415 76.5513 88.9994 77.435 90.226 78.3524C89.2976 79.5299 88.514 80.819 87.5122 81.9365C86.4503 83.2121 85.8493 84.7705 85.1524 86.2532C84.4779 87.0479 83.9658 87.9741 83.6987 88.9848C81.8487 88.6019 80.199 87.6513 78.4425 87.0012C77.6144 86.6784 76.7661 86.4024 75.9915 85.9683C71.7438 84.1517 67.456 82.4353 63.1883 80.6698C61.6233 79.9975 59.9693 79.5255 58.4465 78.7553C64.504 75.7698 70.5104 72.682 76.5102 69.5832Z" fill="#C5AC7E"/>
<path d="M167.316 74.8975C171.583 80.6301 175.98 86.2714 180.25 92.0016C179.979 92.1286 179.707 92.2554 179.437 92.3757C175.929 94.6575 172.273 96.6989 168.735 98.9274C167.85 99.4417 166.931 99.8981 166.114 100.512C165.419 100.869 164.767 101.298 164.119 101.726C163.901 101.837 163.685 101.946 163.469 102.057C163.157 102.271 162.85 102.492 162.538 102.703C162.08 102.939 161.601 103.142 161.198 103.467C160.613 103.83 159.991 104.135 159.451 104.564C158.07 105.312 156.781 106.221 155.401 106.975C155.04 107.171 154.7 107.398 154.361 107.625C154.13 107.779 153.903 107.935 153.673 108.089C152.629 108.547 151.754 109.291 150.764 109.834C149.214 110.64 147.794 111.666 146.284 112.541C144.955 113.345 143.62 114.135 142.295 114.943C141.382 115.444 140.516 116.023 139.624 116.555C138.6 117.236 137.524 117.833 136.48 118.483C135.164 119.164 133.976 120.059 132.669 120.756C132.217 121.012 131.994 121.495 131.689 121.889C129.928 119.536 128.109 117.223 126.377 114.849C125.529 113.79 124.719 112.703 123.911 111.617C121.491 108.389 119.06 105.168 116.642 101.937C117.172 101.655 117.709 101.379 118.25 101.116C121.193 99.4707 124.229 98.0014 127.172 96.3585C128.622 95.7507 129.939 94.8736 131.349 94.1789C139.448 89.8823 147.567 85.628 155.655 81.3114C158.809 79.5903 162.019 77.9764 165.201 76.3067C165.953 75.9216 166.868 75.6811 167.316 74.8975Z" fill="#F9E9D1"/>
<path d="M56.5829 80.3877C59.8399 81.8169 63.1057 83.235 66.3806 84.631C71.4251 86.7503 76.4587 88.9031 81.51 91.0025C81.8929 91.1627 82.278 91.3297 82.6521 91.5211C85.1966 92.4896 87.6544 93.6827 90.1923 94.669C93.5272 96.0849 96.8733 97.4829 100.21 98.8967C101.929 99.5734 103.603 100.364 105.331 101.025C106.66 101.679 108.093 102.105 109.376 102.857C107.51 105.11 105.869 107.539 104.082 109.852C102.566 112.031 100.901 114.104 99.3644 116.27C98.0865 118.013 96.8665 119.808 95.4217 121.42C93.2512 120.533 91.2565 119.293 89.0903 118.401C88.5538 118.076 87.9616 117.866 87.4163 117.566C87.1023 117.408 86.7929 117.25 86.4991 117.069L86.3365 117.045C85.7487 116.682 85.1099 116.415 84.4665 116.175C84.0301 115.914 83.5783 115.682 83.1285 115.455C81.9019 114.839 80.6195 114.34 79.4263 113.661C78.6493 113.274 77.8413 112.958 77.0598 112.588C75.2299 111.571 73.322 110.698 71.4207 109.83C71.1648 109.689 70.9131 109.547 70.6638 109.409C70.0716 109.122 69.4638 108.868 68.8762 108.576C68.5845 108.347 68.2328 108.227 67.8899 108.109L67.881 107.893C67.8098 107.908 67.6673 107.937 67.596 107.953C60.4187 104.444 53.2213 100.991 46.0262 97.5253C45.6721 97.3984 45.2802 97.4629 44.9174 97.4228C45.3693 96.8284 45.9058 96.2941 46.2665 95.6353C47.0191 94.324 48.052 93.1931 48.7555 91.8506C49.3721 91.1314 49.8419 90.3078 50.3873 89.5376C51.1865 88.48 51.8277 87.3113 52.6536 86.2695C52.8338 85.9845 53.0098 85.6974 53.1967 85.4168C53.5173 84.8469 53.898 84.3148 54.3009 83.8005C55.009 82.6274 55.8728 81.5588 56.5829 80.3877Z" fill="#F9E9D1"/>
<path d="M135.576 121.768C147.48 114.56 159.473 107.5 171.352 100.247C171.43 102.493 171.074 104.72 171.107 106.964C170.982 109.156 170.788 111.358 170.931 113.556C170.15 114.105 169.378 114.669 168.551 115.145C167.814 115.581 167.062 115.998 166.365 116.496C164.769 117.425 163.215 118.426 161.637 119.39C161.109 119.675 160.564 119.938 160.089 120.31C159.793 120.499 159.499 120.688 159.203 120.875C158.752 121.1 158.317 121.363 157.899 121.646C156.877 122.153 155.975 122.863 154.996 123.442C153.502 124.364 151.962 125.212 150.508 126.196C149.818 126.566 149.15 126.975 148.509 127.427C146.191 128.763 143.972 130.252 141.65 131.584C140.746 132.162 139.797 132.672 138.954 133.34C138.867 133.358 138.695 133.396 138.609 133.413C137.602 134.199 136.411 134.7 135.378 135.451C134.864 135.785 134.323 136.078 133.822 136.432C132.669 136.942 131.712 137.784 130.599 138.36C129.169 139.213 127.82 140.199 126.333 140.952C122.488 143.476 118.454 145.698 114.612 148.227C114.663 145.858 114.625 143.485 114.483 141.121C114.487 140.012 114.441 138.903 114.452 137.795C114.354 135.032 114.316 132.271 114.189 129.511L114.247 129.411C114.211 126.864 114.058 124.326 114.02 121.779C114.031 120.018 113.842 118.266 113.851 116.503C113.891 114.139 113.668 111.781 113.681 109.417C113.494 107.502 113.621 105.572 113.365 103.667C113.748 103.44 114.136 103.221 114.527 103.01C117.987 107.787 121.509 112.525 124.98 117.296C126.284 119.286 127.927 121.058 129.058 123.157C129.826 123.667 130.667 124.07 131.538 124.377C132.749 123.309 134.227 122.636 135.576 121.768Z" fill="#E7D1A8"/>
<path d="M111.09 104.134C111.006 103.82 110.93 103.51 110.863 103.196C111.346 103.463 111.217 104.031 111.246 104.492C111.208 107.244 111.357 109.993 111.335 112.747C111.58 116.309 111.337 119.884 111.567 123.446C111.622 126.868 111.714 130.289 111.731 133.713C111.967 137.342 111.836 140.98 111.994 144.611C112.03 145.584 112.123 146.557 112.096 147.534C110.151 146.316 108.06 145.35 106.086 144.181C104.407 143.237 102.635 142.456 101.007 141.423C98.9393 140.463 97.0047 139.254 94.9566 138.262C94.3422 137.825 93.6231 137.571 92.9708 137.202C92.8639 137.151 92.6546 137.046 92.5501 136.993C90.4173 135.701 88.1221 134.695 85.9781 133.422C85.2724 133.054 84.5445 132.729 83.8656 132.315C81.4679 131.144 79.1927 129.72 76.7482 128.644L76.8485 128.408C76.7682 128.422 76.6058 128.451 76.5257 128.464C74.4418 127.264 72.2646 126.24 70.1452 125.109C66.9639 123.299 63.6736 121.658 60.4544 119.911C58.4264 118.722 56.278 117.747 54.2321 116.598C54.3056 112.486 54.0495 108.379 53.7758 104.278C62.3423 108.588 70.9667 112.774 79.5556 117.039C81.292 117.776 82.8881 118.802 84.6424 119.501C86.3344 120.347 87.9952 121.262 89.7294 122.019C91.2944 122.769 92.8106 123.631 94.4023 124.326C95.3239 124.406 96.2545 124.401 97.1785 124.475C98.6165 122.349 100.004 120.189 101.281 117.963C102.032 116.665 102.947 115.474 103.764 114.216C105.242 111.818 107.499 110.026 109.029 107.667C109.57 106.849 110.206 106.101 110.752 105.289L110.934 105.407C110.963 104.979 111.019 104.554 111.09 104.134Z" fill="#E7D1A8"/>
<path d="M7.48336 129.888C7.5034 128.77 7.962 127.463 9.15971 127.149C9.68511 130.237 11.4461 132.944 13.5076 135.237C16.2258 138.316 19.5807 140.823 23.2873 142.588C24.7478 143.292 26.3263 143.715 27.9135 144.024C29.6009 144.3 31.3219 144 33.0115 144.251C34.9973 144.563 37.0187 144.743 38.9334 145.396C42.3619 146.562 45.6856 148.107 48.6687 150.173C50.1157 151.155 51.0686 152.715 52.6069 153.582C53.7757 154.225 54.6194 155.305 55.7837 155.957C57.7963 157.101 59.7486 158.397 61.9459 159.172C64.4259 160.107 66.9438 161.082 69.613 161.293C70.8286 161.391 71.9284 162.001 73.1394 162.144C75.5281 162.437 77.8813 163.016 80.2945 163.074C81.5479 163.096 82.7969 163.435 84.0524 163.221C85.2369 163.027 86.4367 163.072 87.6322 163.074C91.2765 162.791 94.9365 162.589 98.5385 161.921C101.702 161.456 104.841 160.745 107.858 159.675C108.588 159.443 109.365 159.548 110.117 159.479C110.718 159.45 111.313 159.272 111.918 159.33C115.235 159.98 118.528 160.857 121.916 161.062C122.577 161.106 123.239 161.195 123.886 161.351C127.008 162.208 130.276 162.213 133.488 162.181C135.656 162.028 137.827 161.879 139.962 161.442C144.479 160.42 148.954 159.089 153.144 157.092C155.281 156.026 157.371 154.866 159.364 153.546C160.824 152.635 162.178 151.524 163.785 150.87C164.891 150.487 165.604 149.461 166.721 149.084C168.65 148.043 170.838 147.751 172.918 147.157C175.368 146.529 177.966 146.064 180.471 146.645C183.1 147.234 185.807 147.266 188.487 147.295C193.28 147.985 198.099 146.778 202.566 145.113C205.522 143.966 207.978 141.805 209.923 139.342C212.018 136.533 213.639 133.269 213.943 129.734C215.467 130.803 216.261 132.682 216.422 134.494C216.578 135.549 216.471 136.624 216.604 137.684C216.66 138.223 216.779 138.781 216.609 139.316C215.961 141.457 215.188 143.626 213.725 145.36C212.659 147.206 211.629 149.12 210.073 150.614C208.825 151.987 207.293 153.061 205.731 154.047C204.53 154.822 203.151 155.224 201.831 155.743C200.478 156.3 198.978 156.246 197.586 156.663C194.051 157.564 190.266 157.577 186.771 156.484C185.308 156.215 184.035 155.434 182.671 154.895C181.537 154.425 180.544 153.686 179.427 153.19C178.117 152.838 176.744 152.78 175.396 152.851C174.201 154.637 172.761 156.253 171.751 158.156C169.531 161.729 166.185 164.394 162.781 166.779C157.661 170.2 151.941 172.754 145.962 174.227C142.685 174.82 139.499 175.921 136.166 176.199C134.457 176.193 132.74 176.267 131.035 176.157C128.553 175.763 126.033 176.16 123.544 175.902C120.937 175.556 118.325 175.132 115.819 174.321C114.213 173.954 112.789 173.078 111.195 172.691C109.977 172.367 108.746 172.085 107.573 171.624C106.693 171.254 105.716 171.488 104.814 171.624C103.948 172.043 103.216 172.7 102.339 173.105C99.006 174.775 95.3572 175.811 91.6484 176.189C88.919 176.62 86.1495 176.354 83.4001 176.439C81.3074 176.32 79.2171 176.104 77.1556 175.719C73.6158 174.998 69.9693 174.918 66.4607 174.017C59.0541 172.024 51.821 168.971 45.7122 164.265C43.23 162.237 40.8569 160.037 38.8643 157.517C37.5754 156.075 36.106 154.806 34.8527 153.33C33.3788 153.568 31.8941 153.642 30.4114 153.775C29.0065 154.154 27.5929 153.622 26.1704 153.717C24.7745 153.508 23.3186 153.392 22.0451 152.735C21.2771 152.388 20.4156 152.337 19.6452 152.005C18.9707 151.578 18.452 150.939 17.7373 150.565C15.8695 149.552 14.4604 147.927 12.9599 146.46C11.4483 144.661 10.1548 142.619 9.48698 140.351C8.11784 137.052 7.34534 133.467 7.48336 129.888Z" fill="#B4DBFF"/>
</g>
</svg>
