<svg width="114" height="160" viewBox="0 0 75 105" fill="none" xmlns="http://www.w3.org/2000/svg">
<path d="M0.640706 34.7977C0.640706 34.7294 0.640706 34.6602 0.640706 34.5918C1.36595 33.5398 1.12587 31.2398 1.2951 29.9686C1.53434 28.1646 1.96032 26.3957 2.4705 24.6509C3.39998 21.4732 4.82463 18.433 6.81364 15.7779C10.8792 10.3519 16.2952 5.86034 22.5915 3.29864C34.0204 -1.35212 48.1544 -0.526002 58.5221 6.41303C63.4738 9.7275 68.0854 14.3916 70.7596 19.7551C73.5156 25.282 74.6109 31.9309 74.3008 38.0738C73.9774 44.4802 72.6469 50.7598 69.9369 56.6002C67.1859 62.528 63.7356 68.1024 60.3327 73.6693C56.9849 79.1462 53.3529 84.4272 49.5099 89.5656C47.5517 92.184 45.4452 94.6823 43.5162 97.3232C42.5859 98.5978 41.6705 99.8849 40.701 101.13C39.8041 102.284 38.6345 103.38 37.9243 104.657H37.2032C37.0256 104.056 36.3212 103.533 35.9219 103.045C35.4734 102.497 35.0449 101.932 34.6106 101.373C33.742 100.253 32.8792 99.1297 32.0256 97.9993C30.34 95.7685 28.6886 93.5136 26.9822 91.2987C20.7826 83.2518 15.1398 74.7747 10.1548 65.9192C7.6606 61.4893 5.08972 57.0528 3.40915 52.2303C2.59137 49.8854 1.97866 47.477 1.54018 45.0329C1.31927 43.8 1.14838 42.5687 1.04084 41.3208C0.973319 40.5305 1.09836 39.2743 0.639038 38.6099C0.639038 38.5065 0.639038 38.4039 0.639038 38.3006C0.937473 37.5028 0.937473 35.5947 0.639038 34.7969L0.640706 34.7977Z" fill="#E9F5F6"/>
<path d="M74.3491 39.2487C73.9698 43.4918 73.2779 47.7007 71.94 51.7579C70.5453 55.9869 68.3804 60.0666 66.2188 63.9504C64.0631 67.8251 61.6698 71.5822 59.339 75.3535C56.984 79.1631 54.3231 82.7452 51.8781 86.4889C47.5625 80.1076 43.2869 73.7854 38.9704 67.4033C35.8076 69.8383 32.2731 71.172 28.2809 69.8941C24.588 68.712 21.7887 65.5843 19.8639 62.3424C18.1049 59.3797 16.7978 54.4655 21.3577 53.6169C23.581 53.2034 25.7826 52.6991 28.0275 52.4073C28.8428 52.3014 30.3408 52.4798 31.0535 52.0964C31.7979 51.6962 31.9138 50.3658 32.1597 49.5872C34.9507 40.77 38.5002 32.1896 42.1223 23.685C43.7962 19.7545 45.0858 15.1971 48.1894 12.1011C51.2137 9.08337 56.2988 9.63856 58.9872 12.7188C62.375 16.6001 64.6108 21.1133 66.9366 25.6657C68.1595 28.059 69.3766 30.4557 70.612 32.8431C71.1939 33.9677 71.7757 35.0931 72.3743 36.2085C72.9086 37.2046 73.3855 38.4901 74.2341 39.2428C74.2716 39.2453 74.3099 39.2478 74.3475 39.2503L74.3491 39.2487ZM22.8874 57.5441C22.9433 57.5324 22.9991 57.5207 23.0558 57.509C23.0766 57.2381 22.9966 57.1448 22.8157 57.229C22.8399 57.334 22.8641 57.439 22.8882 57.5441H22.8874Z" fill="#C5D3F2"/>
<path d="M37.925 57.198C32.8933 57.0863 27.724 56.6445 23.1649 54.3187C20.98 53.2042 19.5195 51.5153 17.9323 49.6913C16.4835 48.0266 15.2772 46.1526 14.422 44.1169C12.5497 39.6587 12.5163 34.7487 13.7201 30.1088C14.3211 27.7914 15.2781 25.5814 16.5777 23.5699C17.9106 21.5067 19.6637 19.8903 21.3927 18.1689C24.9139 14.6619 30.5275 13.1922 35.3549 12.8112C40.1241 12.4353 45.756 13.0797 49.9833 15.4688C58.3053 20.1721 63.0477 29.8487 61.8473 39.3078C61.1854 44.5221 58.3428 49.1011 54.3531 52.4739C49.8365 56.2919 43.6161 56.7954 37.925 57.1972V57.198Z" fill="#7485EA"/>
<path d="M12.6639 35.6899C12.6639 35.2414 12.6981 34.7929 12.7714 34.3503C12.8064 34.1385 12.839 33.9259 12.8631 33.7125C13.0915 31.701 13.58 29.7579 14.292 27.863C14.8288 26.435 15.489 25.0712 16.2901 23.7783C17.8232 21.305 19.7096 19.1501 22.0129 17.3503C24.0986 15.7206 26.4019 14.541 28.9244 13.7724C30.1965 13.3848 31.5037 13.1714 32.8166 12.9838C36.4854 12.4603 38.3193 12.627 39.5264 12.687C41.7897 12.8004 44.0396 13.1197 46.2203 13.7957C49.1163 14.6944 51.7039 16.139 53.9922 18.1322C55.6019 19.5344 57.0107 21.1174 58.1886 22.8855C60.2418 25.9699 61.6139 29.3385 62.0641 33.0348C62.2416 34.4928 62.3417 35.9683 62.3458 37.4355C62.3484 38.4008 62.1283 39.3678 61.9891 40.3315C61.5281 43.5192 60.0601 46.2527 58.1594 48.7902C56.5355 50.9584 54.6324 52.8341 52.3549 54.3146C52.0573 54.508 51.7331 54.6622 51.4054 54.8422C51.1804 54.6488 51.2596 54.4955 51.4555 54.3537C51.8148 54.0945 52.1715 53.8311 52.5342 53.5777C54.905 51.9204 56.8406 49.8414 58.4637 47.4606C59.339 46.1768 60.1276 44.8422 60.6694 43.38C61.1404 42.1104 61.428 40.7933 61.6256 39.4528C61.9232 37.4405 61.8198 35.4365 61.5798 33.4299C61.208 30.3205 60.2101 27.4121 58.6646 24.7045C56.9498 21.6993 54.6957 19.1609 51.8573 17.1469C50.3451 16.074 48.7454 15.1804 47.0098 14.5377C45.5976 14.0141 44.1255 13.709 42.64 13.4906C41.5404 13.3289 40.4342 13.158 39.3263 13.113C37.1539 13.0238 34.9807 13.0546 32.8241 13.4206C31.3428 13.6724 29.8706 13.9433 28.4318 14.4001C27.2197 14.7852 26.0935 15.3446 25.0006 15.9648C22.8891 17.1644 21.0359 18.6991 19.4112 20.5039C17.5781 22.5396 16.1301 24.8245 15.0689 27.3479C14.4128 28.9084 13.916 30.5306 13.6234 32.1928C13.2499 34.3161 13.0799 36.4735 13.2999 38.6242C13.5325 40.8933 14.0494 43.1099 15.1556 45.1373C16.1893 47.0312 17.4039 48.8044 18.8919 50.3782C19.2795 50.7884 19.6638 51.201 20.0873 51.6528C19.9531 51.747 19.8247 51.8371 19.6313 51.9738C18.9327 51.1985 18.2183 50.4633 17.5706 49.6738C16.416 48.2683 15.4007 46.7637 14.5812 45.1373C13.7584 43.5067 13.2358 41.7419 12.9823 39.9338C12.8956 39.3128 12.7706 38.6976 12.6622 38.079C12.6622 37.2829 12.6622 36.4868 12.6622 35.6899H12.6639Z" fill="#4B6BBC"/>
<path d="M44.6415 62.0312C44.5381 62.0296 44.4347 62.0287 44.3314 62.0271C43.9479 62.0262 43.5644 62.0246 43.1801 62.0237C43.0784 62.0237 42.9767 62.0237 42.8759 62.0237C41.1169 61.807 39.699 61.3752 38.0609 60.6774C36.5412 60.0297 36.0769 59.001 35.1232 57.7473C34.0704 59.3637 32.8741 60.4132 31.1327 61.241C29.3604 62.0829 26.7354 62.2505 24.8264 61.9062C21.3685 61.2818 16.1109 57.9082 18.2441 53.7468C18.6334 52.9865 19.3028 52.1962 19.9522 51.6435C20.334 51.3184 20.9326 51.1542 21.2727 50.8249C21.7495 50.3639 21.7087 50.4731 21.1493 49.9104C19.4137 48.1648 17.5956 46.5201 16.0109 44.627C15.264 43.7342 14.6412 42.773 13.9752 41.8218C13.4325 41.0466 12.3888 40.2063 12.814 39.1993C13.2399 38.1898 14.2478 37.247 14.908 36.3767C15.7349 35.2854 16.5586 34.1909 17.403 33.1122C18.1366 32.1752 18.8935 31.2549 19.6029 30.2996C20.3682 29.2692 20.2123 28.5957 19.9389 27.3894C19.4254 25.1262 18.8352 22.762 18.7285 20.4346C18.6593 18.929 19.4212 15.6021 21.5969 16.4724C22.2822 16.7466 22.8115 17.4252 23.2 18.0079C23.7785 18.8757 23.806 18.2396 24.1953 17.3385C24.6947 16.1831 25.2065 15.0335 25.7275 13.8882C26.086 13.1012 26.4736 11.6841 27.3181 11.2698C28.9028 10.4912 30.3399 13.9215 30.7984 14.9869C31.6996 17.0809 32.5057 19.2925 33.3118 21.4274C33.7136 22.4919 33.9437 23.6073 34.1812 24.7177C34.2829 25.192 34.3046 25.8239 34.4947 26.2632C34.7873 26.9401 34.9148 26.7926 35.7009 26.7675C36.8271 26.7317 38.1793 27.1518 38.5611 25.9389C38.9679 24.6468 39.228 23.3856 39.7448 22.1135C40.7818 19.5593 41.9339 17.0534 42.9601 14.495C43.4161 13.3596 45.3317 8.80892 47.0498 9.73423C47.9509 10.2202 48.4436 12.0509 48.8412 12.9237C49.0355 13.3505 49.8683 16.1398 50.1742 16.2081C50.3576 16.2498 51.8673 14.3725 52.2199 14.2324C53.3028 13.8015 53.7796 14.5759 53.9013 15.5162C54.0472 16.6399 54.0964 17.8487 54.0105 18.9774C53.988 19.2742 53.6104 20.4471 53.8021 20.643C54.0072 20.8522 54.3956 20.6471 54.7366 20.7422C56.6781 21.2823 55.4252 25.0503 55.0692 26.279C54.7824 27.2694 54.0597 28.2672 54.2281 29.3226C54.4123 30.4771 55.4652 31.5742 56.1212 32.4937C57.5492 34.4944 58.998 36.4842 60.3768 38.5191C60.8078 39.1551 62.1358 40.5497 61.7323 41.2858C61.2963 42.0811 59.9017 42.8855 59.2256 43.5608C57.4558 45.3297 55.6486 47.0728 53.7904 48.75C53.4903 49.021 52.6367 49.5078 52.5342 49.8654C52.41 50.2997 52.6484 50.3789 52.991 50.7891C53.6521 51.5802 54.5532 52.1704 53.6112 52.9882C53.2377 53.3124 52.2416 53.7001 52.0073 54.1569C51.8073 54.5479 52.0182 55.1089 52.024 55.5674C52.0382 56.6452 51.703 57.7039 51.1304 58.6117C49.6849 60.9017 47.0506 61.2952 44.639 62.0329L44.6415 62.0312Z" fill="#FE9F19"/>
<path d="M42.9584 62.0155C42.1914 61.878 41.4304 61.7571 40.6751 61.5637C40.2224 61.4478 38.7394 61.2936 38.5085 60.8551C38.326 60.5084 39.0604 59.408 39.2238 59.0637C39.6114 58.2467 40.0365 57.4481 40.5017 56.6729C42.1223 53.972 44.3488 51.1385 47.0998 49.5204C45.6993 49.0553 44.2121 49.1853 42.7383 49.2212C42.0239 49.2387 39.553 49.6063 39.0112 49.8147C37.8666 50.2557 36.998 50.6892 36.0427 51.4553C35.1982 52.1322 35.1457 53.3709 34.7356 54.3896C35.0698 55.7509 35.0248 56.9488 34.4688 58.2684C33.9603 59.4763 33.1209 59.8506 32.0405 60.4358C29.3629 61.888 25.8859 62.5282 22.9657 61.2586C22.5598 61.0827 21.6069 60.7809 21.4452 60.3691C21.2501 59.874 21.7228 58.8445 21.9154 58.3835C22.4839 57.028 23.4309 55.8551 24.4437 54.8064C25.5191 53.6927 26.7395 52.6949 28.0458 51.8637C29.503 50.9376 30.4358 51.0476 31.9296 51.8037C32.0547 51.2027 32.0697 50.109 32.464 49.6196C32.464 49.6196 33.3951 49.5855 33.9853 49.5546C34.914 49.5071 35.129 49.107 35.6075 48.3575C36.0485 47.6673 36.4336 46.9387 36.7704 46.1918C38.0117 43.4375 39.1821 39.6754 38.5877 36.6377C39.0462 36.9311 39.3988 37.1571 39.7239 37.3646C40.7009 32.5922 41.1311 29.3794 42.6424 23.0447C44.1538 16.7101 44.904 14.0425 46.5004 9.43677C47.6391 9.71853 48.0059 11.3349 48.4194 12.2594C48.9896 13.534 49.5531 14.8119 50.1208 16.0874C50.8669 15.1804 52.6533 12.8063 53.657 14.7369C54.5115 16.3808 53.7854 18.9458 53.6537 20.6723C56.8514 20.0737 55.3026 25.263 54.7466 26.8044C54.4715 27.5663 53.9771 28.2482 54.0663 29.0968C54.1539 29.9321 54.7557 30.6482 55.2251 31.3051C56.2379 32.723 57.2699 34.1252 58.2669 35.5548C59.2206 36.922 60.1559 38.2991 61.0871 39.6821C61.5889 40.4265 61.8965 40.6791 61.3388 41.4202C60.8261 42.1029 59.9483 42.7165 59.3231 43.3C58.0469 44.4912 56.7714 45.6833 55.4968 46.8754C54.6374 47.679 52.7184 48.9794 52.2832 49.8697C52.68 50.3807 53.7187 51.3094 53.8738 51.9104C54.0738 52.684 53.487 52.8849 52.8626 53.3317C52.064 53.9028 51.783 53.9578 51.8439 54.9089C51.8956 55.7242 51.8547 56.4745 51.5938 57.2564C50.4918 60.5609 47.2273 61.1052 44.2922 62.0147H42.955L42.9584 62.0155Z" fill="#FE780A"/>
<path d="M34.8191 26.9644C35.566 26.9302 32.4391 27.0044 31.3179 27.0478C30.5118 27.0795 27.7334 27.4646 27.5666 26.3809C26.6888 20.6748 27.3999 15.2938 28.171 11.1457C30.2175 13.1714 30.9961 15.849 32.0048 18.469C33.0552 21.1983 34.1881 24.0951 34.8199 26.9644H34.8191Z" fill="#FE780A"/>
<path d="M21.7313 38.9683C25.8952 39.2209 26.8997 40.1354 26.8997 40.1354C27.2331 39.5519 27.6074 38.584 28.0668 38.0514C30.1008 35.6939 35.2442 35.3438 37.9868 36.3841C39.5407 36.9735 40.571 38.1347 40.456 39.5069C40.1726 41.5576 39.8633 43.7558 40.3143 45.8107C40.6886 47.5138 42.0799 47.4929 43.5562 47.768C45.291 48.0923 46.774 48.9251 48.1953 49.9429C49.7216 51.0366 50.7353 51.9611 51.3497 53.7601C51.9682 55.569 52.25 57.1912 51.0588 58.8101C48.9831 61.6327 44.6391 62.1738 41.4505 61.6786C39.9216 61.441 37.8768 60.7408 36.7139 59.6446C35.1909 58.2107 35.3526 57.0603 34.8182 55.2231C33.8162 51.781 29.6348 50.8716 26.6488 50.7215C25.5484 50.6665 23.4885 50.7782 22.3973 50.7215C21.3178 50.6648 21.2153 49.7212 20.4667 48.9634C18.9787 47.4571 17.4815 45.9532 16.1527 44.3027C15.6075 43.6249 11.8604 39.9303 12.7274 39.7186C16.1452 38.885 18.9795 38.8016 21.7304 38.9683H21.7313Z" fill="#FEF9DF"/>
<path d="M21.2743 16.1275C22.1163 16.3751 22.9908 17.0178 23.3926 17.8264C23.9869 19.021 23.3042 20.0605 22.8974 21.2126C22.4097 22.5947 20.8133 27.6314 20.5032 29.0478C19.5629 26.5477 19.2295 23.8868 18.9577 21.2268C18.8018 19.6996 19.0336 16.0967 21.2735 16.1275H21.2743Z" fill="#FEF9DF"/>
<path d="M47.1614 49.6905C45.1391 48.7793 41.8396 49.0636 39.7706 49.6488C38.6969 49.9522 37.6865 50.3398 36.7821 51.0092C35.7117 51.8012 35.2357 52.3905 34.9023 54.9748C33.7352 52.9741 31.8179 51.8904 31.8179 51.8904C32.1513 51.0568 32.5298 50.1414 32.7349 49.5562L34.3187 49.4729C35.3799 49.2795 35.58 48.9744 36.1343 48.0232C38.02 44.7855 39.3696 40.6057 38.9511 36.8319C39.7381 37.4688 40.3666 38.1957 40.9185 38.8818C41.1569 39.1777 41.1811 39.5753 41.4053 39.6362C41.4053 39.6362 42.4573 39.3061 43.0959 39.1552C45.1307 38.6725 47.3673 38.2916 49.4581 38.2199C53.9854 38.0632 57.7709 39.5037 61.9131 41.2209C61.2913 42.3613 57.0548 45.8033 56.0987 46.7711C55.2942 47.5856 52.194 49.5604 51.5363 49.8797C50.9169 50.1798 50.0749 50.6891 49.4922 51.0576C51.3262 52.9749 53.3144 57.7099 49.689 60.1965C46.4154 62.4423 42.4298 62.2956 38.8661 60.9968C39.4888 58.7269 40.2041 57.0771 42.073 54.6422C43.942 52.2072 45.1799 51.0418 47.1631 49.6921L47.1614 49.6905Z" fill="#FEBC4D"/>
<path d="M53.987 20.6613C56.0977 20.6613 56.0794 22.3436 55.7743 24.1208C55.6117 25.0695 55.3658 26.0165 55.069 26.9318C54.8848 27.4995 54.6597 28.6241 54.1945 29.015C53.5652 28.3906 53.4301 26.9585 53.2184 26.1299C52.9383 25.032 52.6615 23.9341 52.3439 22.8454C52.0446 21.8184 51.7179 20.8005 51.3719 19.7885C51.056 18.8657 50.3457 17.4852 50.3991 16.5132C50.4674 15.2812 52.7591 13.1421 53.8644 14.5476C54.3488 15.1628 54.2754 16.3957 54.2871 17.131C54.3062 18.3197 53.987 19.4934 53.987 20.6613Z" fill="#FEBC4D"/>
<path d="M74.8067 35.8849C74.7942 36.3484 74.8167 36.8127 74.7884 37.2754C74.6992 38.7259 74.6525 40.1822 74.4775 41.6235C74.2582 43.4292 74.0131 45.2398 73.6238 47.0137C73.2421 48.7543 72.6977 50.4632 72.165 52.1671C71.6715 53.746 71.0246 55.269 70.2894 56.7537C69.5275 58.2934 68.8189 59.8606 68.0211 61.3803C67.3092 62.7366 66.5106 64.047 65.7437 65.3733C64.8158 66.9789 63.8914 68.5869 62.9469 70.1824C62.3383 71.2111 61.7006 72.2223 61.0704 73.2377C59.985 74.9858 58.9122 76.7422 57.8026 78.4744C57.0057 79.7182 56.1687 80.9361 55.3284 82.1507C54.4281 83.4511 53.5237 84.7491 52.5842 86.0212C50.8803 88.3278 49.1563 90.6202 47.4274 92.9077C46.1736 94.5666 44.8882 96.2021 43.6345 97.861C42.5958 99.234 41.6004 100.64 40.5509 102.004C39.8857 102.869 39.1721 103.7 38.4493 104.517C37.8983 105.14 37.469 105.165 36.8963 104.563C36.2861 103.922 35.7284 103.228 35.1849 102.528C34.1395 101.181 33.115 99.8167 32.0922 98.4513C31.4386 97.5785 30.8192 96.6798 30.1582 95.8129C29.1854 94.5374 28.1817 93.287 27.2047 92.0149C26.2494 90.7703 25.3024 89.519 24.3687 88.2578C23.2417 86.7356 22.1221 85.2076 21.0201 83.6679C20.2298 82.5642 19.4504 81.4513 18.7084 80.3151C17.5464 78.5353 16.4027 76.7439 15.2831 74.9374C13.9185 72.7358 12.5697 70.5234 11.2451 68.2968C10.2097 66.557 9.20354 64.7989 8.21654 63.0308C7.46961 61.6921 6.74187 60.3408 6.06247 58.967C4.73368 56.2794 3.51827 53.5401 2.65297 50.6616C2.06944 48.721 1.58344 46.7578 1.25416 44.7546C0.958226 42.9532 0.692302 41.1492 0.643119 39.3228C0.598103 37.6455 0.53975 35.9658 0.581431 34.2902C0.628947 32.3937 0.895705 30.5139 1.27333 28.6533C1.65013 26.7993 2.10695 24.9679 2.68632 23.1647C3.11063 21.8451 3.67499 20.588 4.30103 19.3568C5.76487 16.475 7.78889 14.0133 10.0013 11.6833C11.6269 9.97191 13.3908 8.42305 15.2948 7.03924C16.7278 5.99722 18.2166 5.03606 19.8105 4.24329C21.3052 3.50053 22.8424 2.87032 24.4121 2.31263C25.9359 1.77161 27.4839 1.30729 29.0745 1.01218C30.615 0.726254 32.1614 0.470334 33.7094 0.227751C34.2638 0.140221 34.8289 0.11438 35.3908 0.078534C37.319 -0.0448414 38.3685 0.00600903 39.403 0.0385201C39.9649 0.0560261 40.6484 0.120215 41.2028 0.203577C42.8684 0.453662 44.5323 0.718752 46.192 1.00718C47.8025 1.28728 49.3756 1.73493 50.8994 2.3168C52.435 2.90366 53.9463 3.55889 55.4476 4.22828C57.0882 4.9602 58.5695 5.97471 60.015 7.02674C61.9165 8.41054 63.6871 9.94857 65.3052 11.6658C66.9732 13.4364 68.5555 15.2679 69.8642 17.3261C70.7745 18.7574 71.554 20.2588 72.1642 21.8343C72.9945 23.9784 73.548 26.2074 74.0065 28.4632C74.4049 30.4256 74.6459 32.4012 74.7651 34.3969C74.7876 34.7737 74.8092 35.7982 74.8067 35.8849ZM37.5357 103.613C37.5982 103.692 37.7191 103.693 37.7816 103.614C38.0542 103.273 38.2935 102.977 38.526 102.675C39.8215 100.994 41.1244 99.3182 42.4032 97.6251C43.2101 96.5564 43.9729 95.4536 44.7698 94.3757C45.4801 93.4154 46.2078 92.4675 46.9314 91.5172C47.4883 90.7853 48.0535 90.0592 48.6103 89.3273C49.2497 88.4862 49.8949 87.6484 50.5193 86.7956C51.0978 86.0045 51.648 85.1926 52.219 84.3965C52.8101 83.5712 53.4295 82.7651 54.0038 81.9289C54.6357 81.0078 55.2359 80.0641 55.8411 79.1247C56.9073 77.4716 57.9752 75.8194 59.028 74.158C59.8291 72.8934 60.6202 71.6221 61.3963 70.3425C62.3542 68.7645 63.3103 67.1848 64.234 65.5867C65.176 63.9562 66.0979 62.3131 66.9891 60.655C67.651 59.4238 68.2787 58.1717 68.8672 56.9038C69.4849 55.5733 70.0535 54.2203 70.6278 52.8707C70.782 52.5089 70.9979 51.9037 71.1088 51.5261C71.3722 50.6299 71.6315 49.7321 71.8741 48.8302C72.0867 48.0399 72.2984 47.2488 72.466 46.4485C72.6368 45.6316 72.7594 44.8038 72.8911 43.9785C73.0553 42.9532 73.2654 41.9303 73.3496 40.8975C73.4738 39.3728 73.5422 37.8406 73.5638 36.3101C73.5797 35.2214 73.5171 34.1277 73.4279 33.0406C73.3571 32.1753 73.2445 31.315 73.0995 30.4589C72.8861 29.1976 72.666 27.9322 72.3609 26.6901C71.9641 25.0712 71.4723 23.4823 70.8546 21.9252C70.4453 20.8923 69.9609 19.907 69.4174 18.9508C68.1987 16.8084 66.6323 14.9211 64.9567 13.1272C64.0531 12.1593 63.1236 11.2107 62.1474 10.3179C61.4097 9.64263 60.5786 9.06827 59.7883 8.45056C58.0986 7.12927 56.2821 6.01222 54.3564 5.07107C52.5033 4.16576 50.571 3.46386 48.6036 2.85782C46.8797 2.3268 45.1025 2.02336 43.3252 1.7316C42.2998 1.56321 41.2695 1.36647 40.235 1.31979C38.6469 1.24727 37.0505 1.2431 35.4617 1.30562C34.4455 1.34563 33.436 1.56237 32.4223 1.68908C30.7742 1.89415 29.1462 2.21176 27.5423 2.63024C25.82 3.07956 24.1395 3.67309 22.5014 4.37C21.5878 4.75846 20.6591 5.14693 19.7988 5.6446C17.9749 6.70079 16.1843 7.81701 14.5637 9.1733C13.6401 9.94607 12.7347 10.7472 11.8811 11.5958C10.9425 12.5294 10.0738 13.534 9.1727 14.5051C8.06899 15.693 7.10199 16.9893 6.2542 18.3656C5.54229 19.521 4.87373 20.7072 4.45275 22.0143C4.05762 23.2423 3.58162 24.4468 3.23234 25.6873C2.90889 26.8352 2.69549 28.0147 2.45374 29.1843C2.01775 31.2925 1.82519 33.4299 1.77684 35.5781C1.75266 36.6493 1.80685 37.7239 1.85687 38.7959C1.89771 39.6795 1.95857 40.5632 2.0561 41.4418C2.1578 42.3546 2.29785 43.2641 2.4504 44.1702C2.62296 45.1964 2.78968 46.2259 3.0306 47.2371C3.30986 48.4075 3.69999 49.5521 3.98009 50.7225C4.25768 51.882 4.75119 52.9549 5.20467 54.0428C5.64399 55.0981 6.11332 56.1418 6.60265 57.1755C7.26538 58.5735 7.9331 59.9715 8.65002 61.3428C9.18436 62.3639 9.79374 63.3468 10.3706 64.3463C11.0308 65.4908 11.6769 66.6446 12.3563 67.7783C13.0607 68.9545 13.7993 70.1099 14.5195 71.277C15.314 72.5649 16.0942 73.8629 16.8995 75.1441C17.919 76.7655 18.9444 78.3844 19.9939 79.9866C20.5808 80.8819 21.2226 81.7406 21.8387 82.6167C22.7715 83.943 23.6885 85.2801 24.6388 86.593C25.4683 87.7384 26.336 88.8563 27.1863 89.9867C29.0461 92.4609 30.9009 94.9401 32.7674 97.4101C33.9862 99.0223 35.2191 100.624 36.4495 102.228C36.7938 102.677 37.1464 103.119 37.5365 103.615L37.5357 103.613Z" fill="#7589B8"/>
<path d="M62.349 40.4237C62.5183 40.6521 62.5449 40.9639 62.3957 41.2065C62.3549 41.2732 62.3049 41.3399 62.2473 41.4041C61.658 42.0609 61.0861 42.7345 60.4717 43.3664C59.6881 44.1717 58.8804 44.9544 58.0601 45.723C57.5149 46.234 56.9372 46.7109 56.362 47.1885C55.245 48.1138 54.1196 49.0292 52.9767 49.9653C53.6211 50.6922 54.2946 51.4508 54.9915 52.2369C54.1896 53.0155 53.4652 53.8641 52.4782 54.2918C52.4782 55.0654 52.5065 55.7423 52.4715 56.4158C52.4115 57.5762 51.9597 58.5716 51.2052 59.4661C49.9773 60.9224 48.4068 61.7343 46.5778 62.1361C45.3232 62.4121 44.0636 62.6296 42.7774 62.5329C41.7787 62.4579 40.7692 62.3921 39.7922 62.1895C38.831 61.9902 38.0024 61.4451 37.1938 60.8824C36.4019 60.3313 35.7933 59.6228 35.2673 58.85C34.958 59.2368 34.7121 59.6861 34.3412 59.9746C33.7426 60.4414 33.0924 60.8649 32.4105 61.1966C30.5357 62.1086 28.64 62.5146 26.5652 62.4746C26.2084 62.4679 24.6479 62.4746 22.9915 62.0369C21.8802 61.7485 20.8766 61.2016 19.9312 60.5606C19.2435 60.0938 18.7125 59.4602 18.254 58.775C17.5271 57.6896 17.2995 56.4792 17.4029 55.1888C17.4762 54.2735 17.6913 53.374 18.2307 52.6521C18.8475 51.8268 19.5953 51.0849 20.5723 50.6464C20.6607 50.6064 20.7449 50.5564 20.8824 50.483C17.5171 47.3878 14.7395 43.8499 12.1644 40.1436C12.1077 40.0619 12.0369 39.9177 12.0077 39.8227L12.0052 39.8144C11.9285 39.5684 11.9735 39.3017 12.1261 39.0941C14.6411 35.6713 17.0461 32.1484 19.9287 28.9623C19.196 27.4826 18.865 25.8804 18.5866 24.2841C18.2548 22.3792 18.124 20.4469 18.4532 18.5154C18.5691 17.836 18.8325 17.21 19.2268 16.6523C19.8145 15.8203 20.9774 15.5919 22.0236 16.0054C22.7222 16.2813 23.1348 16.7932 23.4408 17.4976C23.8067 16.6823 24.1243 15.902 24.5011 15.1526C25.023 14.1156 25.5131 13.0552 26.1459 12.0824C27.1479 10.5394 27.5422 10.311 28.2808 10.5044C28.9768 11.0954 29.5645 11.9073 30.088 12.7743C30.4182 13.3211 30.795 13.8422 31.0884 14.4074C31.5469 15.291 32.0087 16.1813 32.3647 17.1083C32.8498 18.3704 33.2766 19.6591 33.6576 20.9571C34.1144 22.5151 34.4962 24.0948 34.9122 25.6645C34.9464 25.7929 34.9939 25.9171 35.0464 26.078H37.9182C39.6821 20.0376 44.2379 9.87247 45.976 9.11305C47.0722 8.70541 47.8683 9.64239 48.4093 10.5319C48.7819 11.1454 49.107 11.799 49.4063 12.4567C49.7164 13.1378 50.0732 14.1239 50.4458 14.8542C50.9068 14.2906 51.4303 13.933 51.7463 13.808C53.0709 13.2845 54.3413 14.0064 54.6814 15.4027C54.9432 16.4764 54.9599 17.5501 54.8098 18.6363C54.7398 19.1431 54.6831 19.6508 54.6147 20.206C54.7448 20.2327 54.8323 20.181 54.9924 20.2093C55.9202 20.3736 56.1269 21.4823 56.2428 21.8766C56.4946 22.7327 56.317 23.5688 56.1686 24.4066C55.9819 25.4661 55.7034 26.5098 55.2858 27.5018C55.1149 27.9086 54.9974 28.3554 54.7756 28.7389C54.5097 29.1982 54.6989 29.6059 54.954 29.9193C56.1019 31.3331 57.1248 32.8311 58.1268 34.3483C59.1154 35.8447 60.1375 37.3193 61.157 38.7948C61.5196 39.32 61.9081 39.8269 62.349 40.4204V40.4237ZM53.2293 21.7824L53.2259 21.779C53.2426 21.5973 53.2551 21.4147 53.2776 21.2338C53.4285 20.0009 53.6069 18.7697 53.7203 17.5334C53.7661 17.0299 53.7453 16.4956 53.6252 16.0079C53.406 15.1151 53.3468 14.8525 52.499 14.7008C51.4145 15.1109 51.1311 16.1663 50.5542 16.9257C51.7896 20.6003 52.865 24.2741 53.7903 28.0028C53.9178 27.6936 54.047 27.4026 54.1596 27.1059C54.5564 26.0597 54.859 24.9918 55.0474 23.8823C55.1991 22.9878 55.1591 21.4648 54.8098 21.3039C54.5756 21.2138 54.4005 21.253 54.2279 21.3147C53.8837 21.4381 53.561 21.624 53.2293 21.784V21.7824ZM46.9463 10.5285C46.7471 10.2826 46.3719 10.2834 46.1677 10.526C45.5933 11.2071 44.8698 12.4283 44.4888 13.1269C43.556 14.8392 42.6673 16.5664 41.9137 18.367C41.4302 19.5233 40.9668 20.6895 40.5291 21.8641C40.1857 22.7852 39.878 23.7214 39.5863 24.6608C39.3229 25.5103 39.1019 26.3731 38.8552 27.2534C38.6576 27.2651 38.4901 27.2851 38.3225 27.2842C37.6606 27.2792 36.9987 27.2609 36.336 27.2584C34.5762 27.2501 32.8165 27.2484 31.0567 27.2417C30.8841 27.2417 30.7108 27.2267 30.5382 27.2184C30.4007 27.2151 30.4007 27.1317 30.5207 27.1033C31.5852 26.6974 32.7281 26.8874 33.9143 26.7166C33.7418 25.9563 33.5909 25.1952 33.3933 24.4466C33.0549 23.1645 32.7031 21.8866 32.3271 20.6153C32.0871 19.8059 31.8095 19.0064 31.516 18.2145C31.2985 17.6276 31.0375 17.0566 30.7791 16.4864C30.0847 14.955 29.2361 13.5129 28.2491 12.1524C28.1941 12.0766 28.1315 12.0057 28.0632 11.9315C27.9256 11.784 27.6864 11.8023 27.5747 11.9699C27.3479 12.3075 27.1362 12.6142 26.9653 12.9419C26.421 13.9864 25.8958 15.0417 25.3906 16.1063C25.013 16.9024 24.6862 17.7218 24.3244 18.5263C24.0752 19.0814 23.7651 19.6116 23.5541 20.1802C23.0448 21.5523 22.5596 22.9336 22.097 24.3224C21.5593 25.938 21.035 27.5577 20.7832 29.2516C20.7424 29.5283 20.634 29.8276 20.4664 30.0477C19.8012 30.9255 19.0918 31.7691 18.4157 32.6377C17.5238 33.784 16.6435 34.9394 15.7673 36.0972C15.2772 36.745 14.802 37.4035 14.3285 38.0629C13.9559 38.5831 13.5957 39.1124 13.264 39.5884C13.5299 40.0211 13.73 40.4196 13.9967 40.768C14.9354 41.9918 15.8749 43.2155 16.856 44.4051C17.6505 45.3671 18.4774 46.3066 19.3419 47.2069C20.3564 48.2631 21.4401 49.2534 22.4654 50.3004C22.7314 50.5722 22.9798 50.6064 23.3249 50.5655C24.0026 50.4863 24.6862 50.4296 25.3681 50.4188C25.98 50.4088 26.5977 50.4388 27.2054 50.5113C28.0832 50.6164 28.9668 50.7231 29.8263 50.924C31.4518 51.3024 32.8873 52.0577 34.0402 53.2931C34.2328 53.499 34.4137 53.7149 34.6513 53.9842C34.7205 53.7208 34.7638 53.5432 34.8138 53.3681C35.0356 52.5829 35.3782 51.8568 35.9742 51.2883C36.7645 50.5347 37.6973 49.9928 38.7385 49.6752C40.3974 49.17 42.0996 48.9191 43.8386 48.9533C45.214 48.9808 46.5553 49.16 47.8249 49.7477C49.0645 50.3213 50.089 51.1249 50.7751 52.3186C51.0085 52.7246 51.2061 53.1497 51.432 53.5882C52.1247 53.1447 52.8275 52.7688 53.391 52.1436C52.8733 51.5817 52.3765 51.0415 51.8821 50.5038C51.5779 50.1737 51.5654 49.6635 51.8621 49.3268C51.9705 49.2042 52.093 49.0942 52.2189 48.9908C53.3727 48.0422 54.5531 47.1252 55.7151 46.1857C56.3753 45.6522 57.0531 45.1337 57.6633 44.5468C58.8887 43.3681 60.0741 42.1468 61.2653 40.9531C60.5818 39.9511 59.9332 39.0041 59.2888 38.0546C58.677 37.1534 58.0726 36.2481 57.4599 35.3487C56.753 34.3125 56.0377 33.2813 55.33 32.2459C54.9273 31.6574 54.4413 31.1039 54.1546 30.4628C53.7653 29.5942 53.5085 28.663 53.2351 27.7461C52.9483 26.7832 52.7216 25.8029 52.4465 24.8367C51.9188 22.9853 51.3845 21.1355 50.8335 19.2907C50.6184 18.5721 50.0765 17.0441 49.4096 15.4602C48.7502 13.8938 47.8716 11.6648 46.9488 10.5277L46.9463 10.5285ZM46.0627 60.9666C47.113 60.6906 48.1425 60.3964 49.0312 59.7695C49.9265 59.1376 50.7159 58.3949 51.0827 57.3253C51.4061 56.3808 51.3395 55.4013 51.1344 54.451C50.5275 51.6409 48.4285 50.0779 45.8718 49.5885C44.6805 49.3609 43.4634 49.3084 42.2447 49.4551C40.8025 49.6285 39.3654 49.7986 38.0391 50.4613C37.238 50.8615 36.4702 51.3041 35.9534 52.061C35.1839 53.1889 34.9722 54.4327 35.2031 55.7748C35.4699 57.3278 36.2927 58.5399 37.4597 59.5419C37.7373 59.7803 38.0808 59.9429 38.4534 60.1788C38.4075 59.1801 38.3484 58.2957 38.3317 57.4095C38.3175 56.6601 38.3409 55.9115 38.5176 55.1696C38.5576 55.0029 38.8102 55.0237 38.8127 55.1954C38.8127 55.1971 38.8127 55.1988 38.8127 55.2004C38.8177 55.9857 38.731 56.6067 38.7368 57.392C38.7443 58.3974 38.8202 59.4761 38.9869 60.4764C39.9756 61.2167 44.4654 61.5318 45.5925 60.9982C45.0165 59.341 44.6463 56.6809 44.7947 55.4197C44.8214 55.1921 45.1582 55.1846 45.1832 55.4113C45.1832 55.413 45.1832 55.4147 45.1832 55.4163C45.2407 55.994 45.2616 56.5759 45.2966 57.1561C45.3741 58.4582 45.6425 59.7211 46.0627 60.9649V60.9666ZM27.503 61.2675C27.8831 61.205 28.2174 61.17 28.5417 61.0924C29.3128 60.9074 30.0772 60.6973 30.8466 60.5072C31.5694 60.3288 32.1913 59.937 32.824 59.5744C33.1408 59.3927 33.4592 59.176 33.7009 58.9075C34.5054 58.0172 34.728 56.916 34.6763 55.7615C34.6504 55.1796 34.4595 54.6269 34.0961 54.1417C33.1858 52.9247 31.9795 52.1252 30.5615 51.6376C28.8476 51.0482 27.0687 50.8481 25.2656 50.8815C23.705 50.9098 22.1837 51.1365 20.7882 51.9101C20.0054 52.3445 19.3869 52.9672 19.0001 53.7449C18.605 54.541 18.5374 55.4388 18.62 56.3325C18.6725 56.8977 18.8275 57.4054 19.1652 57.8939C19.4961 58.3715 19.7345 58.8984 20.2097 59.2785C20.9016 59.8312 21.6968 60.2005 22.4571 60.6331C22.533 60.6765 22.6405 60.6623 22.7297 60.6748C22.7472 60.5981 22.7647 60.5648 22.7605 60.5339C22.7505 60.4497 22.7305 60.3664 22.7155 60.2822C22.3887 58.5057 22.2095 56.7243 22.5638 54.9295C22.5788 54.8536 22.6072 54.7803 22.6405 54.7044C22.7055 54.5577 22.9189 54.5602 22.9739 54.7111C23.0415 54.8953 22.9906 55.0796 22.9689 55.2513C22.7297 57.1394 22.9431 58.9967 23.3232 60.879C24.5203 61.2558 25.7307 61.3975 26.9678 61.2867C26.8478 60.1596 26.7069 59.0943 26.6277 58.0239C26.5585 57.0836 26.4776 56.1349 26.7319 55.2013C26.7777 55.0329 27.0212 55.0412 27.0587 55.2121C27.0687 55.2579 27.0737 55.3038 27.0712 55.3488C27.0087 56.8918 27.0979 58.4265 27.2971 59.9554C27.3513 60.3739 27.4255 60.7898 27.5005 61.2675H27.503ZM23.2157 19.5099C22.8789 18.8897 22.5355 18.2662 22.2012 17.6385C21.8161 16.9149 20.7982 16.7557 20.2197 17.3242C19.8737 17.6635 19.7879 18.117 19.6962 18.5504C19.3377 20.256 19.4594 21.9708 19.732 23.6705C19.9029 24.7334 20.1822 25.7787 20.4222 26.8299C20.4564 26.9816 20.544 27.1209 20.6081 27.2684C21.4901 24.6442 22.3579 22.0616 23.2157 19.5099Z" fill="#5F3112"/>
<path d="M35.1381 35.5405C35.9934 35.4863 37.1763 35.7664 38.2966 36.2999C38.6776 36.4817 39.0436 36.7201 39.3678 36.991C40.7083 38.1122 41.7362 39.4235 42.0371 41.2233C42.4289 43.5741 41.8037 45.5439 39.9947 47.1128C38.3675 48.5241 36.4719 49.3177 34.3511 49.6853C32.513 50.0038 30.8324 49.5703 29.2586 48.74C27.8539 47.9989 26.8652 46.8377 26.4809 45.2246C26.125 43.7341 26.0241 42.2486 26.4368 40.7606C27.0878 38.414 28.4891 36.8043 30.9116 36.1465C32.1729 35.8039 33.4366 35.5555 35.1397 35.5405H35.1381ZM26.6635 43.2932C26.7327 44.3035 26.8661 44.6078 27.0945 45.4581C27.2237 45.9374 27.4863 46.4 27.7706 46.8144C28.4575 47.8164 29.4353 48.4491 30.5715 48.8484C31.4826 49.1685 32.4238 49.3736 33.3858 49.3277C34.8871 49.256 36.3035 48.8167 37.6398 48.1373C38.9044 47.4937 40.0356 46.6676 40.8225 45.4631C41.9946 43.6691 41.8487 41.776 41.1326 39.8712C40.8058 39.0025 40.1514 38.3631 39.5246 37.7071C38.9652 37.121 38.28 36.7576 37.5305 36.4958C36.772 36.2307 36.0067 36.0148 35.1822 36.074C34.457 36.1265 33.7151 36.0482 33.004 36.1674C32.1029 36.3183 31.2117 36.57 30.3398 36.8501C29.3994 37.1527 28.5842 37.6871 28.009 38.5107C27.1045 39.8078 26.6777 41.2616 26.6618 43.2923L26.6635 43.2932Z" fill="#5F3112"/>
<path d="M35.7725 36.6893C35.8934 36.7476 35.9567 36.8902 35.9126 37.0169C35.7867 37.372 35.2065 37.7446 33.5226 38.2548C32.7415 38.4916 32.1688 38.4607 31.5502 38.0581C31.1092 37.7713 31.0959 37.2753 31.5677 37.0511C32.1321 36.7843 32.7348 36.6343 33.3483 36.5609C34.9572 36.4275 35.5266 36.5709 35.7733 36.6893H35.7725Z" fill="#5F3112"/>
<path d="M37.9749 39.7076C38.0708 39.6343 38.2058 39.7151 38.1883 39.8343C38.1449 40.1294 37.8073 40.4379 37.6531 40.5521C36.3668 41.5074 35.4399 42.2426 33.8343 42.5961C31.9303 43.0154 30.6974 42.5027 29.482 41.0564C29.4095 40.9697 29.2336 40.4687 29.5187 40.5996C29.7237 40.7521 29.9663 40.9647 30.1506 41.1356C31.3176 42.2193 32.4522 42.4561 33.896 42.0593C35.1481 41.715 36.286 40.9697 37.3197 40.2186C37.5564 40.0469 37.7356 39.891 37.9749 39.7076Z" fill="#5F3112"/>
<path d="M37.4029 33.5499C37.5246 33.5507 37.6563 33.6241 37.7363 33.7166C37.9556 33.9709 37.9864 34.2451 37.9864 34.6336C37.9864 34.967 37.9364 35.4022 37.8364 35.5597C37.7363 35.7173 37.7288 35.7431 37.653 35.8007C37.3295 36.0449 36.7743 35.9582 36.6526 35.6339C36.4026 34.967 36.4026 34.1334 36.9861 33.6333C36.9919 33.6283 37.2595 33.5482 37.4029 33.5499Z" fill="#603314"/>
<path d="M32.1662 33.7341C32.7806 33.9333 32.6964 34.8111 32.538 35.4705C32.4871 35.6823 32.3429 35.8665 32.1387 35.9432C31.997 35.9966 31.8294 36.0107 31.6477 35.9399C31.2025 35.6856 31.1517 35.2446 31.2142 34.7953C31.2634 34.4444 31.2951 34.0642 31.6802 33.8091C31.8236 33.7149 32.0028 33.6808 32.1654 33.7333L32.1662 33.7341Z" fill="#603314"/>
</svg>
