<svg width="463" height="138" viewBox="0 0 281 97" fill="none" xmlns="http://www.w3.org/2000/svg">
<path d="M248.248 45.7649L271.409 56.462L271.272 59.6648L254.174 69.0445L235.322 81.1122L222.587 90.3121L216.326 87.8528L206.14 85.3057L196.372 82.1376L193.749 81.1857L193.353 78.1525L217.625 59.6648H218.507L219.831 58.8526C219.831 58.8526 220.42 56.9161 221.723 57.2444C222.814 57.5193 224.513 55.6363 224.513 55.6363C224.513 55.6363 228.685 51.5007 229.101 51.616C231.528 52.2876 239.5 45.7649 239.5 45.7649L241.5 44.375L248.248 45.7649Z" fill="white"/>
<path d="M75.1245 41.8892L87.2924 63.1926L106.289 61.967L115.072 61.3543L124.072 60.8702L125.714 62.7249L124.995 64.314L103.356 72.2557L89.1308 78.1036L80.5518 82.1888L62.9854 90.7678L55.6239 95.7742L47.8293 92.8247L42.3551 91.1763L37.3956 89.7526L25.4015 77.0823L11.5117 65.6437L4.57301 60.8926L1.25583 57.7225L1.81141 55.2775L18.9427 48.0773L28.8228 43.5632L38.4742 39.7026L51.9554 59.5159L56.0406 57.4733L75.1245 41.8892Z" fill="white"/>
<path d="M12.8395 56.1455C22.8095 62.6798 30.9901 71.4487 39.4833 79.7233C40.4168 80.6343 41.4748 81.5106 42.2388 82.5728C42.4737 82.8996 42.7699 83.7554 43.1273 83.9372C43.6114 84.1823 44.6 83.4429 45.0371 83.2346C47.6394 82.0029 50.2478 80.7794 52.8542 79.5558C58.4448 76.9311 64.0354 74.3043 69.6301 71.6857C72.3488 70.4131 75.0675 69.1426 77.7862 67.868C79.1242 67.241 80.4702 66.622 81.7959 65.9664C82.7069 65.5149 84.296 64.8981 83.863 63.7522C83.385 62.4878 82.4393 61.2439 81.7652 60.0673C80.9502 58.6416 80.1352 57.2158 79.3223 55.7901C78.6564 54.6217 77.9905 53.4513 77.3226 52.2829C76.9692 51.664 76.6118 51.0492 76.2584 50.4303C74.9363 48.1083 67.2642 37.1504 62.8889 36.8258C57.0518 36.3849 45.8889 42.9932 40.811 43.5018C37.6306 43.8225 34.4054 45.4116 31.4456 46.5289C25.0911 48.929 18.9939 51.9418 12.9376 55.018C12.9029 55.3223 12.8681 55.6287 12.8334 55.9331V56.1373L12.8395 56.1455Z" fill="#9DCFFE"/>
<path d="M12.8395 55.9414C12.8742 55.637 12.9089 55.3306 12.9436 55.0263C12.9089 55.0263 12.8742 55.0243 12.8395 55.0222V55.9414Z" fill="#9DCFFE"/>
<path d="M41.4094 91.4806C41.3032 91.0945 41.2338 90.8494 41.1664 90.6043C43.5909 91.0884 45.9828 92.1812 48.3155 92.9982C48.916 93.2086 49.6187 93.3679 50.1885 93.6559C50.2417 93.6825 50.6216 93.7703 50.6808 93.8622C50.8218 94.0726 50.5235 94.1625 50.5705 94.2381C50.9913 94.908 52.1556 95.0163 52.9277 95.3819C53.8693 95.8272 54.3412 95.9232 55.4054 95.5208C56.3981 95.147 57.2396 94.4832 58.1077 93.8929C59.895 92.6734 61.8416 91.6256 63.825 90.7779C68.3841 88.8272 72.7716 86.3312 77.104 83.9311C78.258 83.2918 79.4121 82.6524 80.5642 82.011C81.7489 81.3533 82.9969 80.4117 84.2715 79.9521C85.1089 79.6498 85.9893 79.7785 86.8513 79.4333C88.0748 78.943 89.2697 78.3731 90.4708 77.8339C99.8382 73.6343 109.263 69.8371 119.002 66.5873C121.03 65.9112 122.813 65.0268 124.838 64.365C125.679 64.0912 126.035 63.9115 125.792 62.9801C125.569 62.1303 124.903 60.8169 123.906 60.8619C122.96 60.9048 121.88 61.7382 121.008 62.112C119.807 62.6267 118.597 63.1149 117.374 63.5765C114.976 64.4834 112.584 65.4128 110.159 66.2462C100.247 69.6553 90.8487 73.9999 81.3873 78.4896C76.6934 80.716 72.0138 82.969 67.2892 85.1301C64.8749 86.2351 62.5341 87.4791 60.1994 88.7394C59.129 89.3174 58.0608 89.8975 56.9925 90.4776C55.9569 91.0394 54.7946 92.0178 53.5956 91.7808C51.071 91.2804 48.5238 90.1692 46.0727 89.3746C43.6481 88.5882 41.1235 87.9121 38.7499 86.9807C37.8022 86.6089 37.3365 85.8981 36.6542 85.1648C35.8311 84.2824 35.0201 83.3878 34.2011 82.4992C32.4975 80.6547 30.7368 78.8654 28.9332 77.1169C21.7146 70.1169 13.967 63.5561 5.77003 57.7306C4.76098 57.0136 3.74375 56.3069 2.72449 55.6042C1.75426 54.9363 1.08838 57.2669 3.19634 59.859C7.24888 62.8493 11.0849 66.2074 14.8903 69.5062C18.7467 72.8499 22.691 76.0854 26.4453 79.5456C28.2407 81.2022 30.0035 82.9098 31.7561 84.6133C32.5956 85.4283 33.4208 86.2576 34.2501 87.0849C34.9895 87.8243 35.8515 89.0376 36.7503 89.5707C36.9566 89.6933 37.1526 89.6014 37.3916 89.7505C37.6837 89.9323 37.8349 90.2591 38.1699 90.4347C39.1258 90.9393 40.3779 91.1517 41.4033 91.4785L41.4094 91.4806Z" fill="#93AAF6"/>
<path d="M241.007 66.906L240.971 66.922L241.011 66.932L241.007 66.906Z" fill="#93AAF6"/>
<path d="M76.7968 43.5458C77.63 45.1081 82.9946 54.5779 83.9748 56.0723C85.0544 57.7182 86.1335 59.3633 87.0147 61.0968C87.083 61.2314 87.1474 61.3933 87.2155 61.5647C87.4225 62.0852 87.6637 62.692 88.1524 62.878C88.4571 62.994 88.9243 62.8996 89.3415 62.8153C89.534 62.7764 89.7159 62.7397 89.8662 62.7268C92.1049 62.5389 94.3456 62.3428 96.5823 62.1222C97.9397 61.9889 99.2946 61.8507 100.648 61.7126C107.174 61.0469 113.666 60.3847 120.25 60.29C120.596 60.2851 120.983 60.2522 121.388 60.2177C122.687 60.107 124.171 59.9806 125.089 60.7189C125.804 61.2949 126.596 62.4122 126.545 63.3641C126.471 64.7389 125.02 65.1194 123.829 65.4316C123.58 65.497 123.342 65.5594 123.13 65.6273C121.771 66.0634 120.424 66.5394 119.078 67.0153C118.596 67.1858 118.114 67.3563 117.631 67.5249C102.814 72.6968 88.1524 78.6898 74.2505 86.0125C72.6847 86.8366 71.1036 87.6312 69.5226 88.4258C67.6984 89.3426 65.8743 90.2593 64.0742 91.2212C62.4604 92.083 60.8787 93.0059 59.2985 93.928C59.1446 94.0178 58.9908 94.1075 58.8369 94.1972C58.5501 94.3648 58.2415 94.5731 57.918 94.7913C56.7513 95.5784 55.3917 96.4957 54.1635 96.1071C52.2552 95.5032 50.365 94.8202 48.4739 94.1369C46.7699 93.5212 45.0652 92.9053 43.3458 92.3466C42.7442 92.1514 42.1189 91.9835 41.4902 91.8148C40.3495 91.5085 39.1979 91.1993 38.1576 90.7187C36.8668 90.1218 35.8735 89.0313 34.9214 87.9861C34.7917 87.8437 34.6628 87.7022 34.534 87.5629C29.3621 81.9763 23.508 76.9433 17.6989 72.037C15.8413 70.4677 13.3665 68.457 10.867 66.4261C5.62675 62.1684 0.277466 57.8221 0.277466 57.269L0.27951 57.271C0.27951 56.454 1.40906 55.1875 2.40993 54.5196C3.18911 54.0002 4.08028 53.6563 4.96535 53.3148C5.41673 53.1406 5.86652 52.9671 6.29906 52.7711C7.69094 52.1412 9.06776 51.4769 10.4446 50.8126C11.6035 50.2535 12.7624 49.6944 13.9302 49.1557L14.0532 49.0991C19.3682 46.6503 24.7041 44.192 30.1506 42.0454C31.3054 41.5898 32.4654 41.1494 33.6257 40.7089L33.9682 40.5788C34.0814 40.536 34.2662 40.4789 34.4893 40.4101C34.5983 40.3764 34.7163 40.34 34.8396 40.301L35.7782 41.7311L35.7739 41.7329C33.7721 42.5397 31.7785 43.3629 29.7931 44.2126C25.6814 45.9693 21.5798 47.7484 17.5171 49.6174C13.4972 51.4659 9.49576 53.3512 5.49837 55.2468C5.31138 55.3357 5.07599 55.4282 4.8206 55.5286C3.60867 56.005 1.94634 56.6584 2.8675 57.9389C3.24545 58.4652 3.98214 58.9369 4.65294 59.3663C4.96099 59.5636 5.25515 59.7519 5.49429 59.9325C6.37057 60.5964 7.24684 61.2602 8.11903 61.9302C15.1313 67.3206 22.019 72.9786 28.5145 78.9839C29.9882 80.3464 31.4013 81.7727 32.8138 83.1985C34.2262 84.6241 35.6381 86.0493 37.1097 87.4097C38.5604 88.7518 39.9981 89.2291 41.7939 89.8251C41.8921 89.8577 41.9913 89.8907 42.0917 89.9241C42.5168 90.0657 42.942 90.2072 43.3672 90.3488C45.0649 90.9141 46.7634 91.4796 48.4605 92.0464C49.3363 92.3386 50.1992 92.6801 51.061 93.021C51.982 93.3855 52.9018 93.7494 53.8346 94.0522C54.6533 94.3172 55.2247 93.9856 55.8956 93.5963C56.0265 93.5203 56.1611 93.4422 56.3021 93.3659C57.1258 92.9188 57.9485 92.4697 58.7709 92.0207C59.0946 91.844 59.4182 91.6673 59.7418 91.4908C63.5329 89.4216 67.3444 87.3954 71.1906 85.4324C79.9024 80.9836 88.7386 76.8412 97.7486 73.0317C102.371 71.077 107.024 69.1774 111.745 67.4656C113.961 66.6629 116.197 65.9255 118.446 65.2229C119.948 64.7547 121.454 64.3638 122.961 63.9729C123.616 63.8027 124.272 63.6326 124.928 63.456C123.931 61.8168 122.305 61.9442 120.638 62.0747C120.372 62.0956 120.104 62.1165 119.837 62.1304C117.307 62.2611 114.776 62.4041 112.245 62.5573C108.29 62.7978 104.351 63.2102 100.411 63.6229C99.3983 63.7289 98.3857 63.8349 97.3728 63.9381C96.9876 63.977 96.6024 64.0167 96.217 64.0563C94.1744 64.2667 92.1284 64.4774 90.0766 64.5754C89.8753 64.5851 89.6261 64.6114 89.3527 64.6402C88.4801 64.7321 87.3602 64.8501 86.7614 64.5406C86.2152 64.2575 85.7524 63.2488 85.4054 62.4924C85.2917 62.2447 85.1905 62.0241 85.1028 61.8648C83.8956 59.6772 82.6578 57.5079 81.3996 55.3489C81.0602 54.7667 80.6777 54.1798 80.2903 53.5856C79.9993 53.1391 75.3216 44.7135 75.0413 44.2574L76.7968 43.5458Z" fill="#1533FC"/>
<path d="M72.8281 44.2574C73.2743 45.0235 78.6381 54.4454 79.0853 55.2121C79.5132 55.9451 79.939 56.6796 80.3649 57.4142C81.3418 59.0992 82.3188 60.7845 83.3217 62.4531C83.4003 62.5838 83.4907 62.7208 83.5842 62.8626C84.0957 63.6381 84.6997 64.554 83.9692 65.3311C83.6744 65.6448 83.1118 65.847 82.6171 66.0248C82.4193 66.0959 82.2323 66.1631 82.0777 66.2319C81.7356 66.3841 81.3929 66.5363 81.0503 66.6884C80.7076 66.8406 80.365 66.9928 80.0229 67.145C79.0218 67.5893 78.0199 68.0328 77.0178 68.4763C75.4497 69.1703 73.8814 69.8644 72.3161 70.5622C67.1442 72.8704 61.9703 75.1867 56.874 77.6603C54.3943 78.8634 51.9248 80.091 49.4573 81.3207C48.8781 81.6097 48.2988 81.9166 47.7165 82.2251C46.2657 82.9937 44.7966 83.772 43.2662 84.3069C42.731 84.4949 42.1386 84.3049 41.8077 83.8453H41.8057C41.1431 82.9247 40.3245 82.1323 39.5029 81.3371C39.2126 81.0561 38.9219 80.7747 38.6376 80.4873C38.1528 79.9972 37.6688 79.5065 37.1848 79.0159C36.1477 77.9646 35.1108 76.9134 34.0663 75.8689C30.9819 72.7846 27.7934 69.8126 24.5702 66.8774C23.8902 66.2575 23.213 65.6274 22.534 64.9956C20.1475 62.7749 17.739 60.5337 15.1088 58.6477C14.8899 58.4907 14.6681 58.3364 14.4462 58.1821C13.9292 57.8224 13.4112 57.462 12.9253 57.0647C12.5352 56.744 11.4628 55.7615 11.5526 55.1651C11.6193 54.7163 12.6943 54.345 13.3897 54.1049C13.5899 54.0357 13.7587 53.9775 13.8628 53.9313C14.3735 53.7036 14.8836 53.4763 15.3938 53.2491C15.9039 53.0219 16.4141 52.7946 16.9247 52.5669C21.0058 50.7469 25.087 48.929 29.1885 47.1519C31.0412 46.3492 32.8897 45.5526 34.7914 44.8703C35.5488 44.5982 36.3108 44.3384 37.0731 44.0784C37.14 44.0556 37.2069 44.0328 37.2738 44.0099L37.9739 45.0767C31.8186 47.4595 25.6704 49.8627 19.5535 52.3422C17.9523 52.9912 16.4073 53.7802 14.8634 54.5686C14.2646 54.8744 13.6659 55.1802 13.0642 55.4776C13.056 55.4796 13.1377 55.7962 13.2439 55.8779C13.9681 56.4375 14.7021 56.9856 15.4362 57.5337C16.8886 58.6181 18.3411 59.7025 19.717 60.8762C22.6011 63.3355 25.3995 65.9031 28.157 68.5053C31.6053 71.7596 34.9922 75.0752 38.379 78.3909L38.6968 78.702C39.477 79.4665 40.3113 80.4283 41.1249 81.3661C41.6895 82.0169 42.2441 82.6561 42.7637 83.2101L42.7678 83.2162C42.8892 83.3455 43.8411 82.8636 44.6466 82.4557C44.8844 82.3353 45.1094 82.2214 45.2965 82.1316C46.9153 81.3535 48.5328 80.5732 50.1503 79.7929C54.4946 77.6972 58.8385 75.6016 63.204 73.5506C68.1857 71.2091 73.1994 68.935 78.2129 66.661C78.7189 66.4316 79.2248 66.2021 79.7308 65.9725C80.4458 65.648 81.1829 65.3746 81.9202 65.1011C82.3245 64.9512 82.7289 64.8012 83.1297 64.6428C83.1807 64.6223 83.2338 64.463 83.2073 64.416C81.0751 60.7071 74.0191 48.3457 71.8796 44.6419L72.8281 44.2574Z" fill="#1533FC"/>
<path d="M201.291 76.7453C203.734 77.546 206.295 78.0485 208.783 78.696C211.16 79.315 213.446 80.1688 215.75 81.0103C216.835 81.4066 217.928 81.7824 219.014 82.1705C219.803 82.4524 221.214 83.3287 222.06 83.2245C222.875 83.1244 224.109 81.7885 224.774 81.2901C225.853 80.4813 226.933 79.6724 228.016 78.8676C235.943 72.9849 244.522 67.9744 252.881 62.731C255.097 61.34 257.313 59.951 259.529 58.56C260.003 58.2618 260.479 57.9636 260.953 57.6654C261.347 57.4182 262.442 57.0199 262.624 56.6359C263.028 55.7841 261.407 55.4818 260.716 55.1958C256.077 53.2738 251.445 51.3333 246.796 49.4398C241.221 47.1774 244.463 48.866 241.812 47.6355C239.162 48.8659 223.748 59.264 220.693 61.2379C219.705 61.485 218.551 62.9394 217.748 63.5889C216.633 64.4918 215.503 65.3762 214.365 66.2504C209.931 69.6616 205.525 73.0788 201.291 76.7412V76.7453Z" fill="#9DCFFE"/>
<path d="M271.987 56.295C270.637 56.6136 269.583 57.3428 268.396 58.0618C266.989 58.9156 265.559 59.7367 264.132 60.5558C261.29 62.1879 258.412 63.7627 255.518 65.3008C250.023 68.2217 244.804 71.5328 239.541 74.8439C236.859 76.5311 234.166 78.204 231.501 79.9157C229.058 81.4844 226.815 83.3268 224.391 84.9139C223.67 85.3878 222.554 86.3335 221.721 86.5521C220.622 86.8401 218.6 85.6717 217.568 85.3184C214.486 84.2623 211.404 83.2043 208.285 82.2544C205.235 81.3251 202.155 80.506 199.074 79.6889C197.667 79.3151 196.26 78.9393 194.854 78.5594C193.698 78.2468 193.11 80.5386 193.449 80.9043C193.823 81.3067 194.25 81.5232 194.752 81.6662C196.339 82.1196 197.922 82.5874 199.514 83.0306C202.584 83.8865 205.666 84.6831 208.718 85.6064C211.673 86.499 214.609 87.4692 217.503 88.5457C218.873 89.0563 220.089 89.7753 221.572 89.8917C222.144 89.9367 222.628 90.0102 223.116 89.7406C223.661 89.4362 224.143 88.8337 224.687 88.4885C227.383 86.7706 230.051 85.0181 232.698 83.2288C233.858 82.4444 235.049 81.6886 236.174 80.8532C236.671 80.4835 236.959 80.0729 237.388 79.646C237.976 79.0639 238.775 78.686 239.477 78.253C245.466 74.5681 251.337 70.4972 257.518 67.1494C260.4 65.5888 263.404 64.2754 266.309 62.7618C267.794 61.9897 269.471 61.2912 270.864 60.3761C271.54 59.9328 271.411 59.655 271.477 58.9034C271.532 58.2436 271.818 57.639 271.987 57.0037C271.987 56.7647 271.987 56.5278 271.987 56.2888V56.295Z" fill="#93AAF6"/>
<path d="M241.593 43.1094C242.373 43.4339 252.687 47.0435 253.467 47.3674C254.016 47.5951 254.564 47.8228 255.113 48.0508C255.585 48.2469 256.058 48.4423 256.53 48.6378C259.488 49.8611 262.444 51.0835 265.336 52.4608C265.941 52.7485 266.545 53.0393 267.149 53.33C268.2 53.8359 269.251 54.3419 270.31 54.8323C271.376 55.3266 272.091 55.8311 272.512 57.1894C272.679 57.7327 272.632 58.031 272.548 58.5571C272.534 58.6461 272.519 58.7416 272.503 58.846C272.424 59.3975 271.893 60.1961 271.476 60.5822C271.086 60.9421 270.51 61.2019 269.965 61.4473C269.694 61.5695 269.431 61.6882 269.203 61.8139C268.559 62.1684 267.92 62.5325 267.281 62.8963C267.199 62.9433 267.116 62.9904 267.033 63.0374C265.657 63.8225 264.263 64.5748 262.868 65.327C261.154 66.2519 259.44 67.1766 257.76 68.1623L257.28 68.4437C251.079 72.083 244.829 75.7508 238.835 79.7214C236.249 81.4336 233.728 83.2448 231.209 85.055C230.701 85.4195 230.194 85.7839 229.686 86.1474C228.167 87.2362 226.647 88.3228 225.117 89.3931C224.902 89.5434 224.708 89.6901 224.526 89.8275C223.619 90.5121 223.015 90.9677 221.7 90.4982C216.442 88.6237 211.004 87.1128 205.601 85.6119C204.192 85.2206 202.786 84.8299 201.386 84.4337C199.421 83.8761 197.454 83.3327 195.485 82.7976C195.379 82.7688 195.271 82.7409 195.16 82.7127C194.301 82.4926 193.349 82.2487 193.007 81.3453C192.797 80.7897 192.484 79.1944 192.566 78.6654C192.654 78.0971 193.076 77.7844 193.513 77.46C193.612 77.3868 193.711 77.313 193.808 77.2356C195.146 76.1611 196.408 75.0132 197.677 73.8591C200.489 71.3037 203.501 68.9862 206.512 66.6695C207.958 65.557 238.412 45.336 239.835 44.1977L241.721 44.8593C241.631 44.9293 212.405 64.3222 212.315 64.3922C210.955 65.4483 209.596 66.5044 208.249 67.5761C206.27 69.1529 204.305 70.7482 202.375 72.3823C200.374 74.0774 198.395 75.798 196.415 77.5188C195.773 78.0769 195.131 78.6351 194.488 79.1924C194.39 79.2782 194.259 79.4865 194.292 79.5355C194.365 79.6422 194.435 79.7633 194.506 79.8859C194.703 80.2262 194.907 80.5785 195.189 80.6671C196.7 81.1432 198.227 81.5652 199.754 81.9873C200.567 82.2118 201.379 82.4363 202.189 82.6689C204.644 83.3759 207.097 84.1019 209.548 84.8278L210.184 85.0158C210.702 85.1694 211.22 85.3227 211.738 85.4759C214.19 86.2012 216.641 86.9263 219.083 87.6835C219.469 87.8033 219.842 87.9713 220.214 88.1391C220.653 88.3374 221.093 88.5354 221.553 88.6537C222.006 88.7722 222.666 88.6966 223.04 88.4331C224.732 87.2405 226.41 86.0252 228.087 84.8099C229.967 83.4483 231.846 82.0867 233.747 80.757C236.074 79.1295 238.468 77.5963 240.861 76.0644C241.033 75.9543 241.204 75.8443 241.376 75.7342C242.353 75.1081 243.352 74.5158 244.351 73.9236C244.997 73.5402 245.644 73.1568 246.285 72.7643C247.052 72.2944 247.815 71.8162 248.578 71.338C249.888 70.5169 251.198 69.6956 252.533 68.916C254.338 67.8607 256.171 66.851 258.003 65.8418C258.621 65.5012 259.239 65.1607 259.856 64.8185C262.022 63.6154 264.191 62.4174 266.361 61.2194C266.957 60.8899 267.554 60.5604 268.151 60.2309C268.316 60.1393 268.484 60.0507 268.652 59.9622C269.057 59.7484 269.462 59.5346 269.838 59.279C269.934 59.2136 270.024 59.1401 270.116 59.0584C270.681 58.5477 270.71 57.6715 270.179 57.1241L270.183 57.1281C269.94 56.8749 269.703 56.6665 269.429 56.5358C265.693 54.7485 261.935 53.0041 258.154 51.3169C256.945 50.7768 255.713 50.2892 254.48 49.8015C253.564 49.4389 252.647 49.0763 251.74 48.6922C251.144 48.4385 240.423 44.4724 239.835 44.1977L241.593 43.1094Z" fill="#1533FC"/>
<path d="M241.593 47.0976C245.551 48.7208 256.376 53.0937 260.328 54.7322C261.304 55.1366 262.264 55.5798 263.199 56.0701C263.324 56.1334 263.357 56.7503 263.25 56.8156C261.85 57.6715 260.439 58.5109 259.029 59.3504C257.494 60.2639 255.959 61.1775 254.437 62.1121C252.416 63.3533 250.421 64.638 248.426 65.9225C247.828 66.3079 247.229 66.6934 246.63 67.0777C246.166 67.3748 245.702 67.6709 245.238 67.967C243.685 68.9577 242.131 69.9486 240.604 70.977C235.924 74.1287 231.261 77.307 226.602 80.4874C226.336 80.6693 226.067 80.8489 225.798 81.0285C224.797 81.698 223.793 82.3689 222.907 83.1693C222.033 83.958 221.25 83.705 220.389 83.4267L220.376 83.4226C218.777 82.9062 217.18 82.3843 215.583 81.8625C212.708 80.9229 209.833 79.9834 206.948 79.0759C205.925 78.754 204.881 78.4944 203.837 78.2348C203.099 78.0514 202.362 77.8679 201.631 77.6625C201.247 77.5562 200.886 77.2866 200.581 77.017C200.481 76.9271 200.504 76.4941 200.618 76.3981C201.17 75.9344 201.721 75.4703 202.272 75.0062C205.22 72.5244 208.167 70.0428 211.166 67.6251C212.235 66.7642 239.627 48.4125 240.721 47.5815L241.898 48.1682C240.414 49.123 215.574 65.6971 215.564 65.705C212.417 68.1535 209.332 70.6749 206.246 73.1968C204.863 74.3273 203.48 75.4578 202.091 76.5819C203.736 77.0828 205.389 77.5725 207.043 78.0626C211.999 79.5312 216.967 81.0036 221.801 82.7904C228.317 77.5944 235.38 72.9764 242.348 68.4299C245.613 66.3015 248.909 64.2201 252.224 62.1693C252.664 61.8978 253.103 61.6245 253.541 61.3512C254.746 60.6006 255.951 59.8497 257.176 59.134C257.634 58.8658 258.186 58.5671 258.759 58.258C259.734 57.7312 260.765 57.174 261.48 56.6849C261.663 56.5582 261.645 56.2805 261.445 56.1804C258.826 54.8802 255.761 53.7697 253.02 52.6881C250.862 51.5693 242.237 48.3787 240.57 47.6945L241.593 47.0976Z" fill="#1533FC"/>
<g filter="url(#filter0_d_8406_1652)">
<rect x="29.9148" y="29.9983" width="62.0427" height="13.1673" rx="4" fill="#B987FF"/>
<rect x="29.4148" y="29.4983" width="63.0427" height="14.1673" rx="4.5" stroke="#1533FC"/>
</g>
<path d="M38.9571 39.3537L39.0903 37.2923L37.3644 38.4482L36.6506 37.1911L38.5097 36.2856L36.6506 35.38L37.3644 34.1229L39.0903 35.2788L38.9571 33.2174H40.39L40.2515 35.2788L41.9774 34.1229L42.6911 35.38L40.8374 36.2856L42.6911 37.1911L41.9774 38.4482L40.2515 37.2923L40.39 39.3537H38.9571ZM47.4239 39.3537L47.5571 37.2923L45.8312 38.4482L45.1174 37.1911L46.9765 36.2856L45.1174 35.38L45.8312 34.1229L47.5571 35.2788L47.4239 33.2174H48.8568L48.7183 35.2788L50.4441 34.1229L51.1579 35.38L49.3042 36.2856L51.1579 37.1911L50.4441 38.4482L48.7183 37.2923L48.8568 39.3537H47.4239ZM55.8907 39.3537L56.0239 37.2923L54.298 38.4482L53.5842 37.1911L55.4433 36.2856L53.5842 35.38L54.298 34.1229L56.0239 35.2788L55.8907 33.2174H57.3236L57.1851 35.2788L58.9109 34.1229L59.6247 35.38L57.771 36.2856L59.6247 37.1911L58.9109 38.4482L57.1851 37.2923L57.3236 39.3537H55.8907ZM64.3575 39.3537L64.4907 37.2923L62.7648 38.4482L62.051 37.1911L63.9101 36.2856L62.051 35.38L62.7648 34.1229L64.4907 35.2788L64.3575 33.2174H65.7904L65.6519 35.2788L67.3777 34.1229L68.0915 35.38L66.2378 36.2856L68.0915 37.1911L67.3777 38.4482L65.6519 37.2923L65.7904 39.3537H64.3575ZM72.8243 39.3537L72.9575 37.2923L71.2316 38.4482L70.5178 37.1911L72.3769 36.2856L70.5178 35.38L71.2316 34.1229L72.9575 35.2788L72.8243 33.2174H74.2572L74.1187 35.2788L75.8445 34.1229L76.5583 35.38L74.7046 36.2856L76.5583 37.1911L75.8445 38.4482L74.1187 37.2923L74.2572 39.3537H72.8243ZM81.2911 39.3537L81.4243 37.2923L79.6984 38.4482L78.9846 37.1911L80.8437 36.2856L78.9846 35.38L79.6984 34.1229L81.4243 35.2788L81.2911 33.2174H82.724L82.5855 35.2788L84.3113 34.1229L85.0251 35.38L83.1714 36.2856L85.0251 37.1911L84.3113 38.4482L82.5855 37.2923L82.724 39.3537H81.2911Z" fill="white"/>
<g filter="url(#filter1_d_8406_1652)">
<rect x="126.866" y="10.334" width="62.0427" height="13.1673" rx="4" fill="#4DA9FF"/>
<rect x="126.366" y="9.83398" width="63.0427" height="14.1673" rx="4.5" stroke="#1533FC"/>
</g>
<path d="M135.909 19.6892L136.042 17.6278L134.316 18.7836L133.602 17.5265L135.461 16.621L133.602 15.7155L134.316 14.4584L136.042 15.6143L135.909 13.5528H137.342L137.203 15.6143L138.929 14.4584L139.643 15.7155L137.789 16.621L139.643 17.5265L138.929 18.7836L137.203 17.6278L137.342 19.6892H135.909ZM144.376 19.6892L144.509 17.6278L142.783 18.7836L142.069 17.5265L143.928 16.621L142.069 15.7155L142.783 14.4584L144.509 15.6143L144.376 13.5528H145.808L145.67 15.6143L147.396 14.4584L148.11 15.7155L146.256 16.621L148.11 17.5265L147.396 18.7836L145.67 17.6278L145.808 19.6892H144.376ZM152.842 19.6892L152.976 17.6278L151.25 18.7836L150.536 17.5265L152.395 16.621L150.536 15.7155L151.25 14.4584L152.976 15.6143L152.842 13.5528H154.275L154.137 15.6143L155.863 14.4584L156.576 15.7155L154.723 16.621L156.576 17.5265L155.863 18.7836L154.137 17.6278L154.275 19.6892H152.842ZM161.309 19.6892L161.442 17.6278L159.716 18.7836L159.003 17.5265L160.862 16.621L159.003 15.7155L159.716 14.4584L161.442 15.6143L161.309 13.5528H162.742L162.604 15.6143L164.329 14.4584L165.043 15.7155L163.189 16.621L165.043 17.5265L164.329 18.7836L162.604 17.6278L162.742 19.6892H161.309ZM169.776 19.6892L169.909 17.6278L168.183 18.7836L167.469 17.5265L169.329 16.621L167.469 15.7155L168.183 14.4584L169.909 15.6143L169.776 13.5528H171.209L171.07 15.6143L172.796 14.4584L173.51 15.7155L171.656 16.621L173.51 17.5265L172.796 18.7836L171.07 17.6278L171.209 19.6892H169.776ZM178.243 19.6892L178.376 17.6278L176.65 18.7836L175.936 17.5265L177.795 16.621L175.936 15.7155L176.65 14.4584L178.376 15.6143L178.243 13.5528H179.676L179.537 15.6143L181.263 14.4584L181.977 15.7155L180.123 16.621L181.977 17.5265L181.263 18.7836L179.537 17.6278L179.676 19.6892H178.243Z" fill="white"/>
<g filter="url(#filter2_d_8406_1652)">
<rect x="70.0725" y="1.60181" width="62.0427" height="13.1673" rx="4" fill="#FE59C2"/>
<rect x="69.5725" y="1.10181" width="63.0427" height="14.1673" rx="4.5" stroke="#1533FC"/>
</g>
<path d="M79.1148 10.9573L79.248 8.89582L77.5221 10.0517L76.8084 8.79461L78.6674 7.88907L76.8084 6.98353L77.5221 5.72643L79.248 6.88232L79.1148 4.82089H80.5477L80.4092 6.88232L82.1351 5.72643L82.8488 6.98353L80.9952 7.88907L82.8488 8.79461L82.1351 10.0517L80.4092 8.89582L80.5477 10.9573H79.1148ZM87.5816 10.9573L87.7148 8.89582L85.9889 10.0517L85.2752 8.79461L87.1342 7.88907L85.2752 6.98353L85.9889 5.72643L87.7148 6.88232L87.5816 4.82089H89.0145L88.876 6.88232L90.6019 5.72643L91.3156 6.98353L89.4619 7.88907L91.3156 8.79461L90.6019 10.0517L88.876 8.89582L89.0145 10.9573H87.5816ZM96.0484 10.9573L96.1816 8.89582L94.4557 10.0517L93.742 8.79461L95.601 7.88907L93.742 6.98353L94.4557 5.72643L96.1816 6.88232L96.0484 4.82089H97.4813L97.3428 6.88232L99.0687 5.72643L99.7824 6.98353L97.9287 7.88907L99.7824 8.79461L99.0687 10.0517L97.3428 8.89582L97.4813 10.9573H96.0484ZM104.515 10.9573L104.648 8.89582L102.923 10.0517L102.209 8.79461L104.068 7.88907L102.209 6.98353L102.923 5.72643L104.648 6.88232L104.515 4.82089H105.948L105.81 6.88232L107.535 5.72643L108.249 6.98353L106.396 7.88907L108.249 8.79461L107.535 10.0517L105.81 8.89582L105.948 10.9573H104.515ZM112.982 10.9573L113.115 8.89582L111.389 10.0517L110.676 8.79461L112.535 7.88907L110.676 6.98353L111.389 5.72643L113.115 6.88232L112.982 4.82089H114.415L114.276 6.88232L116.002 5.72643L116.716 6.98353L114.862 7.88907L116.716 8.79461L116.002 10.0517L114.276 8.89582L114.415 10.9573H112.982ZM121.449 10.9573L121.582 8.89582L119.856 10.0517L119.142 8.79461L121.001 7.88907L119.142 6.98353L119.856 5.72643L121.582 6.88232L121.449 4.82089H122.882L122.743 6.88232L124.469 5.72643L125.183 6.98353L123.329 7.88907L125.183 8.79461L124.469 10.0517L122.743 8.89582L122.882 10.9573H121.449Z" fill="white"/>
<path d="M182.48 23.9706C181.836 23.3762 180.962 22.2466 180.431 23.4803C179.859 24.806 181.001 26.6096 181.526 27.7596C182.053 28.9198 182.633 29.4734 182.886 30.7153C183.04 31.471 183.209 34.7964 182.429 34.9802C181.971 35.0885 180.842 34.6105 180.39 34.4982C179.673 34.3205 178.956 34.1448 178.239 33.9691C176.728 33.6035 175.21 33.197 173.676 32.9315C170.792 32.4331 167.832 32.1757 164.93 31.7733C162.074 31.3771 159.206 31.0972 156.341 30.7949C153.602 30.5069 150.713 30.7602 147.968 30.9522C142.394 31.3403 136.519 32.0593 131.096 33.4095C129.736 33.7485 128.571 34.0794 127.209 33.5994C125.985 33.1684 124.907 32.9683 123.641 32.7272C122.299 32.4719 120.946 31.853 119.639 31.4424C118.195 30.9869 116.747 30.5355 115.311 30.0494C110.018 28.258 105.625 25.1532 101.029 22.0505C98.9801 20.6656 97.0928 19.1664 95.091 17.7243C92.6991 16.0024 90.7484 14.0762 88.714 11.9498C88.2871 11.5025 86.6591 9.42313 86.0341 9.48032C85.3376 9.54364 84.9066 12.4707 84.8515 13.0365C84.5614 16.0003 85.5949 18.8436 85.9075 21.7564C86.0566 23.1413 86.0893 24.3954 86.606 25.7047C87.1473 27.0753 87.7703 28.4235 88.4811 29.7144C89.8885 32.2738 91.7677 34.3634 94.035 36.1935C96.4923 38.1789 99.1293 39.2493 101.913 40.6607C103.315 41.3715 104.503 41.6248 106.072 41.6983C107.49 41.7637 109.118 41.6963 110.482 42.0864C105.678 43.9759 100.939 46.1798 95.9673 47.6015C93.9615 48.1755 91.9679 48.7024 90.8485 50.6368C90.3869 51.4334 89.7006 52.6774 90.3644 53.5107C91.0794 54.4054 92.8666 54.72 93.9329 54.8405C99.3376 55.4471 104.992 55.01 110.38 54.4687C113.009 54.2052 115.623 54.193 118.244 53.8519C120.599 53.5455 123.218 54.2604 125.604 54.3523C131.049 54.5627 136.374 54.3809 141.793 53.7947C144.385 53.5148 145.86 52.3608 148.168 51.1413C148.969 50.7185 150.205 50.4673 150.997 50.1323C152.11 49.6625 153.941 50.0301 155.138 50.0301C165.808 50.0363 176.528 49.3357 186.888 52.3219C192.744 54.0112 198.541 55.6167 204.254 57.7594C205.565 58.2516 206.775 58.8828 208.041 59.4629C209.056 59.9286 210.656 60.7252 211.628 59.7448C212.457 58.9094 211.951 57.0342 211.656 56.0109C211.479 55.3961 211.268 54.7751 211.013 54.1889C210.727 53.5312 210.143 52.9347 209.924 52.2791C211.881 52.3812 214.001 53.1308 215.901 53.6129C217.866 54.1113 219.819 54.675 221.71 55.4124C223.581 56.1416 225.285 57.1384 227.088 58.0004C228.966 58.8971 230.226 58.603 231.402 56.8606C231.402 56.3847 231.402 55.9067 231.402 55.4308C230.877 54.2747 230.416 53.0471 229.807 51.9339C229.247 50.9105 228.412 50.2426 227.556 49.4848C226.594 48.633 225.771 47.6403 224.727 46.8784C223.663 46.1022 222.476 45.6896 221.244 45.2586C219.956 44.8092 218.654 44.3558 217.329 44.0208C215.944 43.6715 214.516 43.5837 213.129 43.2548C212.516 43.1098 210.08 42.638 209.859 42.0721C209.618 41.4532 211.244 39.3575 211.483 38.7182C211.936 37.509 211.469 36.2957 211.17 35.0905C210.844 33.7628 210.406 32.476 209.953 31.1871C209.487 29.8594 209.001 28.5399 208.513 27.2224C208.096 26.101 207.146 24.7284 207.026 23.5518C206.897 22.2895 207.394 20.8576 207.349 19.5524C207.306 18.2492 207.167 16.75 206.64 15.5407C206.378 14.9422 205.51 13.5022 204.687 13.8066C203.982 14.066 203.923 16.2434 203.809 16.8889C202.393 14.9239 201.104 12.7485 199.36 11.0511C199.003 10.7038 197.432 9.05342 197.005 9.09223C196.423 9.14533 196.435 11.2819 196.404 11.6577C196.176 14.3846 196.194 17.0604 196.321 19.7934C196.376 20.9679 196.596 22.2303 196.504 23.3986C196.457 24.0053 196.488 24.2484 195.763 24.279C194.76 24.3219 194.615 23.0003 194.266 22.2241C193.784 21.1538 193.265 20.0978 192.713 19.0622C191.531 16.8378 190.189 14.7012 188.722 12.6545C188.103 11.7905 187.492 10.8305 186.696 10.1217C185.871 9.3884 185.405 8.98192 184.986 10.1156C184.098 12.5238 184.087 14.8748 183.648 17.3587C182.09 16.5334 180.296 14.8994 180.435 17.4342C180.55 19.5218 181.969 22.0076 182.474 23.9747C182.492 23.9869 182.511 24.0012 182.529 24.0135C182.496 24.0176 182.48 24.0012 182.482 23.9665L182.48 23.9706Z" fill="#FE9F48"/>
<path d="M209.761 51.4209C210.204 51.7518 210.623 52.144 211.109 52.4136C211.787 52.7895 212.049 52.6281 212.745 52.6281C213.82 52.6281 214.935 53.1714 215.962 53.4942C218.383 54.254 220.811 54.9914 223.213 55.8085C224.415 56.217 225.609 56.6459 226.794 57.1035C227.703 57.4548 229.296 58.4822 230.287 58.1003C231.366 57.6836 231.024 56.8277 231.051 56.0086C231.055 55.882 231.3 55.7125 231.308 55.5164C231.335 54.9179 231.047 54.4093 230.798 53.8904C229.917 52.0623 229.004 50.7285 227.436 49.4416C225.634 47.9628 224.5 46.4165 222.206 45.5913C219.954 44.7825 217.698 44.0369 215.333 43.6549C214.073 43.4527 212.868 43.1423 211.65 42.7664C211.336 42.6684 209.99 42.46 209.836 42.17C209.738 41.9841 210.104 41.547 210.19 41.3795C209.796 41.3039 209.495 41.2957 209.099 41.2957C209.24 41.0915 209.377 40.7626 209.61 40.6748C209.775 40.6115 210.047 40.8116 210.174 40.7483C210.631 40.5175 210.694 40.4031 210.956 39.8843C211.65 38.5076 211.746 37.2432 211.373 35.7439C210.58 32.5779 209.506 29.4139 208.227 26.4113C207.596 24.9263 206.977 23.9928 207.202 22.3546C207.43 20.6838 207.416 18.9762 207.087 17.3196C206.871 16.2248 206.525 14.5335 205.396 13.9554C203.925 13.2038 204.189 15.9449 203.77 16.7416C201.484 14.3762 200.144 10.4503 196.874 9.14307C196.686 10.1133 196.85 10.0602 197.464 10.8609C197.932 11.4716 198.369 12.1069 198.786 12.7544C199.754 14.2639 200.614 15.8489 201.45 17.436C202.951 20.2916 204.213 23.2759 205.096 26.3806C205.998 29.5569 206.413 32.8353 206.773 36.1096C206.924 37.4781 206.103 38.3523 205.618 39.6351C205.016 41.2283 204.291 42.6949 203.357 44.1186C202.653 45.1951 202.175 46.0223 200.804 45.3401C200.757 45.3176 200.34 44.9724 200.216 44.9704C199.773 44.9643 194.846 44.4781 193.283 44.2514C192.433 44.1288 191.475 43.8694 190.609 43.898C189.856 43.9225 189.412 44.3147 190.25 44.7457C191.602 45.4402 193.641 45.5178 195.126 45.865C196.803 46.2572 198.51 46.6371 200.095 47.3235C202.93 48.5511 204.983 50.5038 206.579 53.1183C207.363 54.4031 208.302 55.8718 208.337 57.4201C208.347 57.9164 207.88 59.0051 208.106 59.381C208.296 59.6955 209.534 60.1 209.863 60.1572C213.454 60.7945 210.253 52.9202 209.704 51.4802C209.726 51.4577 209.747 51.4373 209.769 51.4148L209.761 51.4209ZM205.823 47.8116C205.78 47.7749 205.749 47.7463 205.717 47.7197C205.77 47.6482 205.835 47.6442 205.909 47.7075C205.882 47.7381 205.857 47.7688 205.823 47.8116Z" fill="#D05A11"/>
<path d="M170.206 34.2918C173.043 34.6962 175.815 35.3641 178.629 35.8768C179.841 36.0974 181.51 36.6244 182.711 36.1853C183.15 36.0239 182.88 34.9005 182.633 35.0169C182.341 35.1537 181.544 34.7799 181.266 34.7105C180.023 34.4 178.772 34.11 177.526 33.8077C175.327 33.2766 173.098 32.3043 170.837 32.145C169.711 32.0653 166.235 31.9734 165.477 31.8876C163.024 31.6119 160.581 31.2503 158.124 31.0113C153.264 30.5375 148.413 30.8255 143.578 31.4485C141.097 31.7691 138.609 32.0633 136.131 32.4187C134.879 32.5984 133.637 32.8415 132.401 33.1111C131.315 33.346 129.96 33.4461 128.984 33.9568C130.261 35.2906 132.358 34.5062 133.902 34.2468C135.898 33.9118 137.91 33.6688 139.93 33.5278C143.944 33.2459 149.081 32.8722 151.994 33.0192C154.907 33.1663 164.198 33.4339 170.21 34.2918H170.206Z" fill="#D15C14"/>
<path d="M128.861 54.6053C132.906 54.4541 136.921 54.3357 140.947 53.8761C144.048 53.5227 147.753 51.9581 150.435 50.4384C147.553 49.7194 144.081 50.181 141.156 50.4322C138.092 50.6957 135.059 51.2248 132.031 51.7477C130.565 52.0009 129.1 52.2522 127.63 52.4789C126.422 52.6648 124.525 52.5872 123.457 53.1979C121.861 54.113 123.404 54.2703 124.351 54.305C125.855 54.3622 127.356 54.4153 128.859 54.4705C128.859 54.5134 128.861 54.5583 128.863 54.6012L128.861 54.6053Z" fill="#D05A11"/>
<path d="M211.789 57.8817C211.197 57.3282 211.064 55.7594 210.737 54.973C210.314 53.9558 209.791 52.9835 209.189 52.0644C208.509 51.0226 207.728 50.1178 206.828 49.2599C206.493 48.9412 206.058 48.3448 205.602 48.2161C205.187 48.0997 204.566 47.2234 204.127 47.0559C202.493 47.2601 204.75 43.7285 205.592 42.4335C206.264 41.402 206.881 40.3439 207.465 39.2613C208.082 38.1174 208.523 37.4842 209.499 36.6794C208.721 36.0503 207.097 36.2464 206.509 35.4886C206.297 35.2149 206.317 34.4959 206.194 34.1487C206.037 33.6993 205.815 33.2867 205.541 32.8986C204.281 31.1093 202.062 30.3923 199.952 30.9009C198.943 31.144 198.018 31.6628 197.37 32.4839C196.841 33.1559 196.717 34.1977 195.898 34.5878C195.001 35.0127 193.594 34.7696 192.634 34.8779C191.328 35.0249 190.023 35.2129 188.722 35.4008C187.488 35.5805 186.248 35.7501 185.029 36.0013C184.134 36.1851 182.476 36.4323 182.271 36.8408C182.476 37.8621 183.526 38.912 184.191 39.5371C185.051 40.348 185.917 41.1548 186.749 41.9943C187.437 42.6888 188.062 43.6264 188.896 44.1595C189.798 44.7375 190.891 44.4679 191.904 44.4577C193.177 44.4454 194.445 44.5251 195.712 44.6354C196.946 44.7437 198.518 44.6742 199.679 45.1011C199.838 46.0305 201.098 48.1691 201.482 49.1659C199.021 48.8901 198 48.6859 196.218 48.7533C196.562 49.7337 198 51.3413 199.254 52.573C196.161 52.7711 195.24 52.7262 193.994 52.8365C192.971 52.9284 191.625 52.7915 190.701 53.2634C191.455 53.8026 192.597 53.8884 193.489 54.1274C194.423 54.3766 195.348 54.6503 196.269 54.9424C198.277 55.5797 200.281 56.2252 202.301 56.8298C204.144 57.3813 206.119 57.8204 207.851 58.6783C208.605 59.0521 209.444 59.9223 210.337 59.8161C211.185 59.716 211.354 58.9684 211.789 58.3883C211.789 58.2187 211.789 58.0472 211.789 57.8776V57.8817Z" fill="#F1ECF0"/>
<path d="M98.016 24.0766C102.073 25.7638 105.872 27.5041 110.272 28.1619V27.9576C107.845 26.4767 105.318 25.1061 102.982 23.4863C101.821 22.6815 100.739 21.7665 99.55 21.0005C98.5695 20.3673 97.6238 19.9118 96.8149 19.0702C95.1829 17.3748 92.9401 16.425 91.3081 14.6766C90.3991 13.7022 89.4758 12.7402 88.5628 11.7679C87.7927 10.9488 86.8552 10.2502 86.1688 9.36987C86.1014 9.36987 86.032 9.36987 85.9646 9.36987C85.3702 10.2952 85.0577 11.3144 84.9229 12.397C84.9167 12.4501 84.8023 12.4889 84.739 12.5359V15.5998C85.2538 16.3331 85.2231 17.7303 85.3498 18.6004C85.4989 19.6258 85.6929 20.643 85.8379 21.6684C85.9871 22.7224 85.9564 23.7886 86.2526 24.8202C86.5386 25.8169 87.0329 26.7382 87.4496 27.6839C88.3279 29.6795 89.1837 30.9337 91.1405 31.9999C92.5969 32.7945 95.1379 34.0405 96.8435 33.7974C96.0755 33.1683 95.6527 32.4289 95.2053 31.8345C94.5885 31.0133 94.0472 30.1371 93.5059 29.2669C92.3784 27.4572 91.4898 25.6883 91.0915 23.5721C93.0851 24.9856 95.0338 26.4481 97.1499 27.6798C98.1916 28.2844 99.2395 28.8788 100.289 29.4712C101.078 29.9165 101.999 30.3107 103.073 30.756C102.406 29.9022 101.166 28.5969 100.392 27.5532C99.6868 26.6013 98.2999 25.2266 98.016 24.0807C97.9894 24.0787 97.9751 24.0644 97.9751 24.0399C97.9894 24.0542 98.0037 24.0685 98.016 24.0828V24.0766Z" fill="#F1ECF0"/>
<path d="M157.06 46.9434C151.839 47.0558 145.284 47.5603 139.438 48.5346C138.603 48.6735 136.311 48.8941 135.99 49.8705C135.5 51.3616 138.063 50.9612 138.811 50.8979C140.269 50.7733 141.693 50.373 143.156 50.2933C144.596 50.2137 146.038 50.4363 147.48 50.4179C148.787 50.4016 149.972 50.2994 151.189 50.0319C152.519 49.7418 154.218 50.0196 155.585 50.0196C158.724 50.0216 161.862 49.989 164.999 49.9461C168.067 49.9052 171.135 49.9277 174.199 50.1074C175.543 50.1871 176.83 50.5834 178.166 50.6835C178.679 50.7223 179.032 50.8346 178.973 50.2565C178.895 49.5008 177.623 49.2822 177.096 49.1515C170.618 47.5358 162.278 46.8311 157.058 46.9434H157.06Z" fill="#F1ECF0"/>
<path d="M182.096 23.6251C181.789 23.2595 181.379 22.7958 181.005 22.8551C180.245 22.9715 180.337 24.0847 180.437 24.6097C180.75 26.2417 181.563 27.9616 182.306 29.4364C182.8 30.4148 183.83 31.5831 184.52 30.1022C184.831 29.4364 185.053 28.123 185.113 27.3978C185.194 26.397 185.301 25.394 185.337 24.3911C185.386 23.0124 185.715 21.2087 185.231 19.8851C185.002 19.258 184.388 18.7719 183.957 18.2449C183.47 17.6546 182.984 16.8886 182.251 16.5822C180.323 15.7734 180.65 17.82 180.972 18.9864C181.395 20.5061 181.857 21.989 182.351 23.4842L182.096 23.6272V23.6251Z" fill="#F1ECF0"/>
<path d="M134.656 51.192C134.924 51.3718 135.216 50.9265 135.093 50.6814C134.957 50.8407 134.822 51 134.656 51.192Z" fill="#F1ECF0"/>
<path d="M110.272 27.9575V28.1618C110.384 28.1781 110.496 28.1945 110.609 28.2108C110.496 28.1271 110.384 28.0413 110.272 27.9575Z" fill="#F1ECF0"/>
<path d="M204.334 13.4551C203.411 14.7154 203.488 16.2085 204.268 17.4361C204.695 18.1102 205.124 18.7842 205.553 19.4563C205.862 19.9404 206.438 21.2578 206.944 21.5336C206.944 19.9301 207.061 18.3042 206.754 16.7232C206.636 16.1125 206.489 15.4916 206.191 14.9421C205.866 14.3395 205.288 14.0086 204.949 13.4571C204.744 13.4571 204.54 13.4571 204.336 13.4571L204.334 13.4551Z" fill="#C68638"/>
<path d="M134.17 51.1413C134.262 51.0943 134.356 51.0473 134.422 51.0146C134.358 51.0208 134.264 51.031 134.17 51.0392V51.1413Z" fill="#C68638"/>
<path d="M204.205 46.674C205.077 47.1479 205.645 46.0326 206.052 45.4627C206.662 44.6069 207.398 43.8225 208.011 42.9687C208.354 42.4928 209.673 40.4543 209.859 40.295C210.196 40.0029 210.846 39.0633 211.138 38.5118C211.45 37.9194 211.385 37.47 210.893 37.0942C210.496 36.7919 206.854 35.2007 206.542 35.505C206.272 35.7665 206.613 36.6612 206.462 37.0411C206.374 37.2617 206.011 37.4231 205.968 37.611C205.888 37.948 206.366 37.7703 206.378 37.9909C206.391 38.1952 205.561 38.9366 205.425 39.1674C205.159 39.6148 204.998 40.1132 204.797 40.5911C204.338 41.686 203.786 42.7011 203.114 43.6796C202.643 44.3679 202.22 45.4403 201.192 45.332C201.033 45.3157 199.791 45.1032 199.638 45.0134C199.244 44.7846 200.128 46.6107 200.502 47.3583C200.596 47.5483 200.755 47.6974 200.953 47.777C201.542 48.014 202.273 48.4 202.567 48.6002C204.326 49.7951 205.764 51.3475 206.787 53.1838C207.332 54.1622 207.808 55.2264 208.421 59.5159C209.238 60.1062 210.86 59.7528 211.281 59.5159C212.004 59.1094 211.25 57.6224 210.976 56.3846C209.034 49.5071 203.443 46.2594 204.207 46.674H204.205Z" fill="#C68638"/>
<path d="M149.743 49.9565H143.909C144.381 50.1731 146.961 50.2221 149.743 49.9565Z" fill="#C68638"/>
<path d="M136.454 50.5937C138.582 50.8919 140.572 50.132 142.631 49.9604C140.572 50.1708 138.513 50.3833 136.454 50.5937Z" fill="#C68638"/>
<path d="M195.965 22.7306C195.969 22.8001 195.961 22.8695 195.943 22.939C195.879 23.2106 195.532 23.3066 195.336 23.1065C195.283 23.0513 195.236 22.9941 195.201 22.9287C194.137 20.9372 193.144 18.9028 192.037 16.9357C190.544 14.2844 188.922 11.7067 186.923 9.39648C186.679 9.1146 186.32 8.88582 185.971 8.75305C185.538 8.58965 185.135 8.67339 184.835 9.14523C184.091 10.3177 184.042 11.6617 183.853 12.9649C183.695 14.0393 183.634 15.128 183.518 16.2106C183.505 16.3311 183.442 16.519 183.362 16.5415C183.264 16.5701 183.119 16.47 183.009 16.4047C182.586 16.1514 182.186 15.8593 181.749 15.6387C180.738 15.1301 179.949 15.5549 180.096 16.6641C180.298 18.2001 180.652 19.7321 181.115 21.2109C181.33 21.8972 181.661 22.5447 180.623 22.3466C179.72 22.175 179.428 23.2596 179.722 24.1441C180.194 25.5576 180.711 26.9711 181.383 28.2967C182.492 30.4803 182.549 30.4496 182.284 32.8374C182.153 34.014 182.155 33.9997 181.007 33.7301C178.231 33.0764 175.394 32.6107 172.692 31.7263C170.96 31.1584 169.205 31.0318 167.461 30.7233C165.945 30.4558 164.395 30.3802 162.857 30.2576C161.353 30.1391 159.063 29.9492 157.556 29.8981C157.186 29.8859 149.806 30.7009 146.326 30.8193C141.399 30.9868 136.57 31.8999 131.719 32.6413C130.728 32.7925 129.736 33.0478 128.745 33.0478C127.781 33.0478 126.79 32.8762 125.855 32.6189C122.582 31.7181 119.327 30.756 116.071 29.798C112.97 28.885 110.098 27.4511 107.3 25.8599C107.073 25.7312 106.814 25.5494 106.709 25.3268C105.412 24.5314 105.165 24.5569 104.201 23.9257C103.761 23.6398 103.483 23.4301 103.015 23.1911C102.935 23.1503 102.693 22.9014 102.589 22.9054C102.255 22.7401 101.991 22.6591 101.86 22.559C99.6011 20.878 97.2828 19.2643 95.1299 17.4546C93.1567 15.798 91.2979 13.9903 89.5147 12.1274C88.4097 10.9734 87.5191 9.60891 86.5713 8.30981C86.3303 7.97891 86.1812 7.9687 85.8911 8.19338C85.0823 8.81638 85.0149 9.7764 84.9086 10.6363C84.4858 14.0209 84.445 17.4219 85.0578 20.7861C85.4132 22.7347 85.8462 24.6854 86.4508 26.5687C87.2924 29.1914 88.8774 31.4158 90.6443 33.5054C92.2559 35.4111 94.0187 37.1535 96.2329 38.3525C97.3951 38.9816 98.6268 39.4861 99.8279 40.0458C100.085 40.1663 101.47 41.1692 101.803 41.2714C103.116 41.6819 104.025 42.1007 105.339 42.5071C105.494 42.5541 105.641 42.6195 105.794 42.6746C105.657 42.7461 105.529 42.8401 105.384 42.885C104.191 43.2506 102.978 43.5611 101.803 43.9758C99.8605 44.6641 97.9139 45.3525 96.0225 46.1634C94.2005 46.9457 92.4561 47.9119 90.6545 48.7453C89.6332 49.2171 89.2206 50.0505 89.0694 51.0718C88.9939 51.5865 88.9326 52.1155 88.9632 52.6323C89.0409 53.9457 89.8456 54.7199 91.0385 55.0651C91.9372 55.3245 92.8666 55.5267 93.796 55.6084C95.7814 55.7841 97.7771 55.9516 99.7686 55.9577C101.603 55.9638 103.437 55.7453 105.271 55.6431C106.636 55.5655 108.004 55.5267 109.369 55.447C111.032 55.349 112.694 55.2612 114.353 55.1039C115.977 54.9486 117.59 54.6034 119.216 54.5442C120.793 54.487 122.38 54.6749 123.961 54.7709C126.02 54.8955 128.079 55.0692 130.14 55.159C131.956 55.2387 133.788 55.3899 135.59 55.2264C137.955 55.014 140.318 54.6341 142.637 54.1173C144.314 53.7435 145.903 53 147.549 52.471C149.2 51.9399 150.844 51.2863 152.543 51.0289C154.349 50.7572 156.208 50.8185 158.048 50.8062C159.889 50.794 161.629 50.8165 163.418 50.8512C165.912 50.8982 168.41 50.8675 170.902 50.984C173.119 51.0881 175.329 51.3353 177.543 51.4966C181.226 51.7663 184.874 52.3076 188.408 53.3697C193.3 54.8404 198.159 56.4234 203.01 58.0207C204.989 58.6723 206.911 59.5016 208.866 60.2288C209.963 60.6373 211.113 60.5311 212.247 60.4576C212.386 60.4494 212.563 60.1941 212.627 60.0204C213.217 58.3516 212.688 56.8115 212.057 55.2836C211.818 54.7035 211.571 54.1255 211.344 53.5392C211.281 53.3738 211.279 53.1838 211.248 53.0041C211.426 53.0123 211.618 52.9816 211.781 53.0347C214.287 53.8293 216.753 54.7975 219.306 55.3756C220.83 55.7208 222.286 56.1967 223.741 56.7114C225.293 57.2609 226.815 57.8982 228.359 58.4721C229.891 59.04 231.366 58.2904 231.6 56.6175C231.778 55.351 231.319 54.2235 230.732 53.1695C230.216 52.2402 229.631 51.3148 228.914 50.5366C228.001 49.5439 226.935 48.6881 225.916 47.7975C225.563 47.489 225.107 47.292 224.933 46.9455C224.691 46.8208 224.428 46.5853 224.322 46.5077C223.676 46.0338 223.747 46.175 222.895 45.7005C222.34 45.5462 221.718 45.2483 221.153 44.993C218.569 43.8226 215.862 43.0464 213.09 42.4867C212.175 42.3008 211.258 42.1292 210.337 41.974C209.953 41.9107 209.998 41.7595 210.151 41.494C210.662 40.6116 211.078 39.6659 211.671 38.8447C212.492 37.705 212.249 36.5693 211.969 35.358C211.044 31.3443 209.469 27.5695 207.794 23.8316C207.477 23.1248 207.404 22.461 207.53 21.6868C207.876 19.587 207.865 17.4689 207.13 15.4508C206.873 14.742 206.335 14.07 205.768 13.5552C205.067 12.922 204.379 13.1508 203.968 14.0209C203.788 14.4009 203.707 14.8278 203.576 15.2302C203.547 15.32 203.5 15.4017 203.462 15.4875C203.388 15.4222 203.302 15.365 203.243 15.2874C202.164 13.8473 201.149 12.3521 199.993 10.9775C199.213 10.0501 198.243 9.27801 197.338 8.46096C197.058 8.20768 196.713 8.21789 196.527 8.59373C196.288 9.07374 195.998 9.56397 195.916 10.0787C195.73 11.2655 195.722 11.5412 195.538 13.6676C195.354 15.7939 195.8 19.7076 195.973 22.7204L195.965 22.7306ZM85.5684 14.2497C85.6522 13.3591 85.7931 11.8047 85.9504 10.2544C85.9647 10.1073 86.0954 9.97249 86.171 9.83155C86.2813 9.92551 86.4059 10.0052 86.4998 10.1134C87.5089 11.2838 88.4403 12.5278 89.5331 13.6145C91.0671 15.1403 92.7032 16.564 94.3169 18.0061C98.0589 21.3498 102.181 24.2544 106.628 26.583C108.574 27.6022 110.49 28.7379 112.541 29.4916C116.285 30.8663 120.082 32.1246 123.924 33.1867C125.845 33.7178 127.916 33.9078 129.913 33.8873C131.746 33.8689 133.57 33.3522 135.4 33.0744C137.63 32.7353 139.857 32.3411 142.1 32.1103C145.309 31.7814 148.526 31.4852 151.745 31.3525C154.077 31.2565 156.426 31.4015 158.761 31.5342C160.479 31.6323 162.187 31.8856 163.898 32.0653C165.422 32.2246 170.623 32.4881 171.656 32.6883C174.651 33.2745 177.633 33.9384 180.601 34.6492C182.026 34.9903 181.994 35.0659 182.014 36.5141C182.014 36.6592 182.065 36.8021 182.127 36.9451C182.202 37.1249 182.441 37.1657 182.574 37.0186C182.69 36.89 182.805 36.7592 182.913 36.6224C182.968 36.5529 182.96 36.4263 182.968 36.3262C183.095 34.7697 183.221 33.2112 183.34 31.6548C183.364 31.3341 183.307 30.9644 183.81 31.3504C183.912 31.428 184.249 31.3913 184.308 31.2973C184.537 30.9378 184.817 30.5477 184.864 30.1453C185.25 26.8567 185.574 23.562 185.954 20.2713C186.034 19.585 185.95 19.2766 185.374 18.5923C184.643 17.7201 184.353 17.0726 184.498 16.0533C184.729 14.4397 184.882 12.8158 185.101 11.2001C185.158 10.7711 185.311 10.3504 185.458 9.93777C185.576 9.60482 185.783 9.57214 186.012 9.86219C186.592 10.5955 187.209 11.3002 187.75 12.0621C190.44 15.8389 192.705 19.8587 194.621 24.0808C194.705 24.2666 194.962 24.5158 195.117 24.5015C196.415 24.381 197.708 24.2135 199 24.044C199.55 23.9725 199.415 23.5722 199.141 23.4394C198.776 23.2617 198.312 23.2106 197.895 23.229C197.031 23.2658 196.995 23.2535 196.935 22.3793C196.829 20.8208 196.68 19.2623 196.594 17.7038C196.457 15.2383 196.484 12.775 196.946 10.3361C197.076 9.64363 197.272 9.53742 197.714 10.0522C199.168 11.7536 200.698 13.4143 201.95 15.2608C204.089 18.4125 205.823 21.8012 207.345 25.3023C208.785 28.6133 210.073 31.9673 210.948 35.4765C211.25 36.6898 211.342 37.801 210.564 38.8978C209.916 39.8088 209.393 40.8097 208.813 41.7677C208.609 42.1047 208.505 42.405 209.103 42.5173C209.702 42.6297 210.329 42.789 210.931 42.9626C213.581 43.7204 216.312 44.2638 218.9 45.1952C222.576 46.5188 225.942 48.4286 228.473 51.515C229.464 52.7242 230.336 54.0642 230.563 55.6533C230.64 56.2028 230.473 56.8871 230.177 57.361C229.879 57.8369 229.219 57.7531 228.72 57.5325C224.764 55.7882 220.503 54.8547 216.636 52.8346C215.086 52.0257 213.233 51.7806 211.509 51.3169C210.582 51.0677 209.571 51.0514 208.832 50.3242C208.153 49.6583 207.532 48.9332 206.834 48.2918C205.363 46.9478 203.647 45.9816 201.821 45.2075C199.893 44.3904 196.588 43.7123 194.494 43.6816C192.789 43.6571 191.081 43.7184 189.376 43.7409C189.231 43.7409 189.018 43.7899 188.943 44.0105C189.018 44.4047 189.135 44.3782 189.286 44.466C189.447 44.562 189.676 44.564 189.874 44.5681C191.584 44.6069 193.298 44.5783 195.005 44.6784C198.504 44.8827 201.75 45.9183 204.644 47.9221C206.499 49.2069 208.16 50.6959 209.156 52.7876C209.41 53.3186 209.704 53.8354 209.9 54.3869C210.329 55.588 210.778 56.7911 211.08 58.0269C211.301 58.9256 210.901 59.1707 210.006 58.8439C207.232 57.8308 204.485 56.738 201.678 55.8351C197.013 54.3338 192.321 52.9101 187.615 51.5477C185.795 51.0207 183.914 50.6612 182.037 50.3875C179.708 50.0484 177.357 49.8421 175.012 49.6399C172.682 49.4377 170.349 49.26 168.012 49.164C166.119 49.0864 164.219 49.1252 162.323 49.1538C158.265 49.213 154.204 49.2253 150.152 49.3928C146.132 49.5602 142.112 49.8299 138.104 50.1792C135.23 50.4304 132.371 50.8532 129.511 51.2556C124.789 51.9215 120.082 52.7242 115.35 53.2962C112.271 53.6679 109.161 53.766 106.06 53.9253C103.165 54.0744 100.265 54.2603 97.3706 54.2113C95.3055 54.1765 93.2016 54.0908 91.2367 53.2083C90.6831 52.9591 90.4707 52.5588 90.5667 52.1094C90.6463 51.7336 90.7709 50.7347 92.1497 50.1751C93.7348 49.3621 95.2892 48.4552 96.9457 47.8281C100.151 46.6148 103.406 45.5363 106.66 44.4537C109.283 43.5815 112.02 43.269 114.749 42.9014C119.943 42.2007 125.126 41.4123 130.312 40.6422C130.314 40.6422 130.316 40.6422 130.32 40.6422C130.686 40.583 130.745 40.0723 130.42 39.8946C130.359 39.862 130.299 39.8293 130.238 39.7986C130.171 39.7639 130.071 39.7823 129.985 39.7905C128.263 39.96 126.535 40.0907 124.819 40.3113C121.02 40.7995 117.257 41.6349 113.383 41.3735C111.934 41.2754 110.468 41.4082 109.024 41.2714C107.496 41.1263 105.966 40.8649 104.473 40.5095C103.014 40.1622 101.607 39.6046 100.165 39.1818C98.1121 38.5792 96.3636 37.4292 94.7254 36.1199C91.9556 33.9057 89.6209 31.3463 88.136 28.0393C86.2547 23.85 85.6991 19.4461 85.5786 14.2558L85.5684 14.2497ZM147.907 50.5284L147.921 50.6142C146.005 51.2291 144.101 51.8929 142.167 52.4485C139.434 53.2349 136.593 53.5719 133.749 53.4964C130.967 53.4228 128.187 53.2574 125.407 53.1328C125.269 53.1266 125.134 53.0899 124.995 53.0674C125.14 53.0061 125.279 52.9142 125.428 52.8917C128.13 52.4832 130.828 52.0461 133.539 51.6948C136.838 51.2679 140.141 50.8634 143.452 50.5509C144.925 50.412 146.42 50.5305 147.905 50.5284H147.907ZM180.999 16.8561C181.009 16.6293 181.24 16.4741 181.448 16.5619C182.462 16.9807 183.444 17.7814 183.908 18.2553C184.953 19.3235 185.135 19.8567 185.005 20.8698C184.621 23.8826 184.292 26.9037 183.932 29.9206C183.914 30.0717 183.812 30.2127 183.748 30.3597C183.632 30.2494 183.477 30.1616 183.405 30.0268C182.815 28.9361 182.19 27.8596 181.675 26.7341C181.26 25.8292 180.96 24.8672 180.652 23.9153C180.494 23.4333 180.723 23.1739 181.213 23.3904C181.559 23.5436 181.55 23.5497 181.867 23.7703C182.592 24.3116 182.723 23.5824 182.684 23.3618C182.584 22.798 182.474 22.6755 182.276 22.1362C181.254 19.0723 180.97 17.5832 181.001 16.8561H180.999ZM206.989 19.2766C206.989 20.5042 206.717 20.6758 206.599 20.8535C206.572 20.8923 206.519 20.9004 206.481 20.8718C206.407 20.8208 206.329 20.7718 206.291 20.7003C206.066 20.302 205.839 19.9016 205.647 19.4849C205.081 18.2512 204.127 17.2319 204.332 15.5978C204.397 15.0749 204.477 14.0924 205.016 14.1292C205.555 14.166 206.248 15.1362 206.374 15.5978C206.756 17.0072 206.987 18.049 206.987 19.2745L206.989 19.2766Z" fill="black"/>
<path d="M204.129 31.7364C204.648 32.2654 204.991 32.6127 205.345 33.2357C206.748 35.7174 206.176 38.5362 204.062 40.5584C201.656 42.8584 198.98 42.1394 196.868 40.0723C196.59 39.8006 196.374 39.4656 196.108 39.1817C196.02 39.0857 195.836 38.9795 195.745 39.0142C195.636 39.053 195.499 39.2491 195.514 39.3553C195.563 39.6821 195.595 40.06 195.781 40.3072C196.852 41.7166 198.318 42.5928 200.016 42.936C201.521 43.2424 202.93 42.6623 204.101 41.7533C205.962 40.3072 207.005 38.3422 207.056 35.9687C207.11 33.5114 206.009 31.5628 203.862 30.4128C202.984 29.943 202.412 30.1289 202.503 28.8318C202.516 28.6704 202.424 28.4539 202.301 28.3497C202.222 28.2823 202.138 28.219 202.052 28.1598C201.817 27.9943 201.488 28.0597 201.335 28.3007C201.264 28.411 201.211 28.5254 201.202 28.6398C201.17 29.081 201.474 29.6938 201.474 29.898C201.27 29.898 200.459 30.1493 200.022 30.2555C197.599 30.8479 196.049 32.3451 195.428 34.7676C195.24 35.503 195.089 36.2505 194.966 37.0002C194.954 37.0758 194.987 37.1616 195.034 37.2473C195.113 37.3944 195.307 37.4332 195.44 37.3331C195.51 37.28 195.567 37.2249 195.595 37.1554C195.918 36.3343 196.229 35.507 196.496 34.6655C196.917 33.348 197.648 32.3655 198.921 31.6853C200.351 30.9193 201.601 30.7355 203.11 31.1236C203.316 31.1767 204.131 31.7364 204.131 31.7364H204.129Z" fill="black"/>
<path d="M205.181 35.1966C205.257 34.9658 205.122 34.7064 204.883 34.6615C204.834 34.6512 204.793 34.6533 204.767 34.6737C204.528 34.8657 204.538 35.0046 204.334 35.6174C204.129 36.2302 204.129 36.4344 203.721 36.843C203.464 37.1003 203.186 37.1085 202.896 36.847C201.789 35.8482 200.659 34.8718 199.521 33.9057C199.47 33.8628 199.403 33.8362 199.331 33.8158C199.137 33.7647 198.943 33.9179 198.945 34.1181C198.945 34.1937 198.955 34.2672 198.982 34.3326C199.076 34.5593 199.241 34.7718 199.423 34.9413C200.494 35.932 201.572 36.9165 202.671 37.8745C202.816 38.0011 203.137 38.0624 203.31 37.9929C204.54 37.5007 204.793 36.3752 205.179 35.1966H205.181Z" fill="black"/>
<path d="M203.517 31.5324C202.7 30.9197 201.27 31.5324 201.065 31.7367C200.861 31.941 200.849 32.2902 200.929 32.4189C201.47 33.2972 203.278 33.2707 203.784 32.374C203.892 32.182 203.927 31.941 203.519 31.5324H203.517Z" fill="black"/>
<path d="M197.205 28.8646C197.099 28.7543 196.504 28.8666 196.472 28.9769C196.345 29.4161 196.331 29.8941 196.318 30.3577C196.314 30.5089 196.417 30.6989 196.529 30.8092C196.707 30.9828 196.986 31.2585 197.133 31.2116C197.364 31.138 197.45 31.1564 197.591 30.9195C197.677 30.7765 197.795 30.7152 197.765 30.0697C197.736 29.4896 197.501 29.1751 197.203 28.8646H197.205Z" fill="black"/>
<defs>
<filter id="filter0_d_8406_1652" x="28.9148" y="28.9983" width="64.0427" height="16.1672" filterUnits="userSpaceOnUse" color-interpolation-filters="sRGB">
<feFlood flood-opacity="0" result="BackgroundImageFix"/>
<feColorMatrix in="SourceAlpha" type="matrix" values="0 0 0 0 0 0 0 0 0 0 0 0 0 0 0 0 0 0 127 0" result="hardAlpha"/>
<feOffset dy="1"/>
<feColorMatrix type="matrix" values="0 0 0 0 0.0823529 0 0 0 0 0.2 0 0 0 0 0.988235 0 0 0 1 0"/>
<feBlend mode="normal" in2="BackgroundImageFix" result="effect1_dropShadow_8406_1652"/>
<feBlend mode="normal" in="SourceGraphic" in2="effect1_dropShadow_8406_1652" result="shape"/>
</filter>
<filter id="filter1_d_8406_1652" x="125.866" y="9.33398" width="64.0427" height="16.1672" filterUnits="userSpaceOnUse" color-interpolation-filters="sRGB">
<feFlood flood-opacity="0" result="BackgroundImageFix"/>
<feColorMatrix in="SourceAlpha" type="matrix" values="0 0 0 0 0 0 0 0 0 0 0 0 0 0 0 0 0 0 127 0" result="hardAlpha"/>
<feOffset dy="1"/>
<feColorMatrix type="matrix" values="0 0 0 0 0.0823529 0 0 0 0 0.2 0 0 0 0 0.988235 0 0 0 1 0"/>
<feBlend mode="normal" in2="BackgroundImageFix" result="effect1_dropShadow_8406_1652"/>
<feBlend mode="normal" in="SourceGraphic" in2="effect1_dropShadow_8406_1652" result="shape"/>
</filter>
<filter id="filter2_d_8406_1652" x="69.0725" y="0.601807" width="64.0427" height="16.1672" filterUnits="userSpaceOnUse" color-interpolation-filters="sRGB">
<feFlood flood-opacity="0" result="BackgroundImageFix"/>
<feColorMatrix in="SourceAlpha" type="matrix" values="0 0 0 0 0 0 0 0 0 0 0 0 0 0 0 0 0 0 127 0" result="hardAlpha"/>
<feOffset dy="1"/>
<feColorMatrix type="matrix" values="0 0 0 0 0.0823529 0 0 0 0 0.2 0 0 0 0 0.988235 0 0 0 1 0"/>
<feBlend mode="normal" in2="BackgroundImageFix" result="effect1_dropShadow_8406_1652"/>
<feBlend mode="normal" in="SourceGraphic" in2="effect1_dropShadow_8406_1652" result="shape"/>
</filter>
</defs>
</svg>
