<svg width="155" height="160" viewBox="0 0 96 99" fill="none" xmlns="http://www.w3.org/2000/svg">
<path d="M55.4367 97.0049C54.461 97.0089 53.9783 97.2035 53.0026 97.2075C50.4185 96.411 48.027 95.732 46.7471 93.249C46.1812 92.1484 45.8911 90.9607 45.8505 89.7223C45.8161 88.6804 46.4367 85.5043 45.2948 84.8436C43.1528 83.6031 42.8303 89.1953 42.455 90.3161C41.6031 92.8497 40.4388 95.3773 37.9074 96.0401C32.5626 97.4386 26.9339 95.8293 26.2483 89.6554C26.159 88.8608 26.4694 87.6569 26.0292 86.9495C25.3051 85.7901 24.7858 86.5522 23.6824 86.1347C22.514 85.6928 22.4593 85.6381 22.5972 84.0571C22.7007 82.8734 24.8122 78.8115 23.9948 77.7495C22.8852 76.3083 16.9137 79.7297 15.4756 80.1817C14.2768 80.5587 10.3357 83.216 9.08211 81.8802C7.77584 80.4878 10.4066 75.6374 10.8894 74.1984C12.1247 70.5317 13.3742 66.8712 14.6236 63.2106C15.4695 60.7358 17.9258 56.5847 17.8589 53.9944C17.7981 51.6594 14.3234 48.2705 13.0151 46.3753C11.1206 43.6289 9.25655 40.8642 7.46955 38.0468C5.87727 35.5335 2.95641 32.0858 2.51625 29.0637C2.2769 27.4199 2.45945 27.7949 4.17749 27.7543C5.98883 27.7118 7.8306 27.8577 9.64397 27.8962C13.4878 27.9773 17.3072 28.1698 21.1449 28.3989C23.7939 28.557 28.3801 29.7772 30.8649 28.8833C33.3111 28.0036 34.7533 22.6993 35.8303 20.5244C38.8303 14.4722 41.883 8.14018 45.7349 2.57435C47.309 0.298162 48.0148 0.847447 49.3576 3.09323C51.3069 6.35449 53.0046 9.80019 54.82 13.1385C56.4143 16.0673 58.0066 18.9982 59.5989 21.927C60.6881 23.9316 61.3555 29.165 63.5461 30.1157C65.8828 31.1291 71.682 29.2522 74.2621 29.163C77.8908 29.0394 81.5135 29.0272 85.1423 29.1144C86.7204 29.1529 92.3085 28.4617 93.4485 29.6049C94.9799 31.1392 88.0104 38.5374 87.0753 39.8447C83.0652 45.4511 80.4932 47.8813 76.7306 53.6275C74.9355 56.3699 81.4892 71.2026 82.6129 74.9098C83.12 76.584 86.1747 82.1944 84.6413 83.0173C82.8522 83.9781 76.9699 81.5377 75.1809 80.9661C74.1241 80.6276 66.7915 77.9501 66.7915 77.9501C66.7915 77.9501 68.4041 81.9512 68.8199 83.4227C70.0146 87.6548 62.9376 85.4496 62.9376 85.4496C62.9376 85.4496 63.8909 91.1107 62.82 93.2348C61.39 96.0705 58.2561 96.1434 55.4326 97.0028L55.4367 97.0049Z" fill="#FED978"/>
<path d="M22.2565 86.1408L22.1409 86.1489L22.0293 86.1164V84.2618C22.1206 84.2639 22.2118 84.2659 22.3031 84.27C22.2869 84.8942 22.2707 85.5185 22.2544 86.1408H22.2565Z" fill="#F9D6AB"/>
<path d="M22.2565 86.1408C22.2727 85.5165 22.2889 84.8922 22.3052 84.27C22.7088 82.4417 22.9035 80.3074 23.7331 78.6332C24.4857 77.1151 25.508 75.9678 26.1205 74.2977C27.5566 70.3818 28.8487 66.3584 30.1469 62.3918C31.3801 58.6299 32.6073 54.9369 34.0779 51.2581C35.5647 47.5388 36.9663 42.954 39.2097 39.6461C39.3435 40.2846 39.9074 40.7284 39.9074 40.7284C39.9074 40.7284 40.4632 41.9831 40.6742 42.8587C41.2015 45.0619 41.591 47.2955 42.1569 49.4927C42.6457 51.3959 43.2218 53.2647 43.8384 55.1294C44.4003 56.832 45.2035 58.4231 46.1082 59.9149C48.7451 56.8746 49.9864 53.0276 51.6497 49.5879C53.0919 46.6044 55.2359 42.4837 57.5056 39.4474C58.887 42.281 59.4083 46.8881 60.106 50.1494C60.9093 53.8971 61.7652 57.6245 62.7084 61.3418C63.5766 64.7673 64.2561 68.1988 64.9234 71.6668C65.5644 74.9909 67.0289 77.3259 68.2581 80.3621C68.895 81.933 69.9173 83.9963 68.4204 84.8476C66.0573 86.1914 63.9153 83.3295 63.3494 87.0772C62.461 92.9572 61.6598 94.8989 56.2501 97.0089C55.2765 97.013 53.5726 97.0049 52.599 97.0089C49.883 96.1718 47.4631 95.5638 46.2563 92.8842C45.7066 91.6661 46.1041 86.4347 45.4408 86.0536C43.5849 84.9875 43.0392 85.5246 42.8628 86.6698C42.5403 88.7575 42.4348 93.2024 40.7309 94.603C37.6174 97.1609 31.6641 97.5096 28.5586 94.8807C26.6155 93.2369 27.0556 89.0757 26.8386 86.6698C26.5931 83.9599 25.0009 86.1225 22.2585 86.1428L22.2565 86.1408Z" fill="#F3A33F"/>
<path d="M22.577 85.857C22.5729 85.2408 22.295 85.0746 22.2889 84.4585C22.6682 82.7356 23.0435 81.0107 23.4289 79.2879C23.4553 79.1663 23.5283 79.0386 23.6155 78.9494C25.583 76.9407 26.1287 74.2693 26.9867 71.7398C28.0881 68.4947 29.2625 65.276 30.3457 62.0249C31.3193 59.1062 32.1306 56.1307 33.1631 53.2343C33.9582 51.0027 34.9947 48.8583 35.8953 46.6631C36.3963 45.445 36.8081 44.1903 37.3152 42.9742C37.7188 42.0033 38.1813 41.0547 38.662 40.1183C38.9419 39.5731 38.8791 39.9055 39.1427 40.2156C39.7736 40.9554 39.5383 41.6121 39.3456 42.356C37.7918 48.3617 36.9825 54.4646 37.1793 60.6689C37.3578 66.2895 38.2746 71.7904 40.1569 77.1171C40.4997 78.088 40.5545 79.1602 40.7411 80.1858C40.5788 80.2891 40.4186 80.3925 40.2563 80.4959C39.1042 79.1217 37.3841 77.5488 32.1104 78.3596C29.2706 79.373 27.9076 81.185 27.5465 83.9821C27.5039 84.3206 27.3558 84.6571 27.2017 84.9692C25.9704 87.4684 26.5932 89.9331 29.0272 91.1674C31.5586 92.4505 34.3253 92.9612 37.0758 92.0329C38.2624 91.6316 39.2949 90.685 40.2989 89.8662C41.1265 89.1933 41.7999 88.3318 42.5687 87.5819C42.735 87.4197 43.0169 87.3792 43.2462 87.2819C43.2401 87.5231 43.236 87.7643 43.2299 88.0055C43.161 90.1783 42.9602 92.2924 41.4287 94.0497C40.4693 95.1503 39.3983 95.886 37.9217 96.1799C35.948 96.5752 34.0556 97.1569 31.9724 96.7211C28.6783 96.032 26.3274 93.5389 26.0333 90.1013C25.9704 89.3574 26.0232 85.6543 26.0232 85.6543C26.0232 85.6543 23.2463 85.8631 22.5749 85.857H22.577Z" fill="#E9701C"/>
<path d="M55.4063 43.0452C55.0797 49.0772 53.7633 54.7849 49.7268 59.542C49.1548 60.2149 48.5402 60.9284 47.5382 61.1392C47.2603 61.1979 46.6863 61.1331 46.4875 60.904C46.3212 60.7115 46.4003 60.1602 46.5504 59.8561C49.098 54.6572 51.672 49.4724 54.2501 44.2876C54.4915 43.8032 54.7998 43.3512 55.0757 42.885C55.1872 42.9377 55.2967 42.9925 55.4083 43.0452H55.4063Z" fill="#EA7220"/>
<path d="M44.3699 70.1669C45.6701 70.2844 46.9399 70.3513 48.1893 70.5338C48.6883 70.6067 49.2786 70.8155 49.6092 71.1661C51.092 72.7491 52.9358 73.5437 53.6112 75.7205C53.8404 76.4583 53.879 77.9015 54.2522 78.5724C54.382 78.8055 54.9094 78.9109 55.2562 78.9109C56.4915 78.9109 57.67 78.9251 58.7734 79.6892C60.7329 81.0472 61.3819 83.1531 62.0249 85.2246C62.2927 86.0881 62.1284 88.6663 62.248 88.9318C63.0107 90.606 62.7024 92.0836 61.4529 93.3788C60.4854 94.3821 59.5057 95.3712 58.4895 96.3238C57.4327 97.3129 52.1954 96.7414 51.9601 96.7677C49.6437 97.0332 46.3638 92.8356 46.307 90.5168C46.2502 88.1555 46.1042 87.6792 47.0149 85.6117C47.1305 85.3482 43.1752 85.5347 43.1042 85.3787C42.2726 83.5261 41.8405 82.3343 40.8304 80.5851C40.3963 79.8331 36.368 77.3421 36.368 77.3421C36.1651 73.8964 39.7655 71.4722 42.0677 70.404C42.7371 70.0939 43.6154 70.2317 44.3679 70.1649L44.3699 70.1669Z" fill="#FBF0D4"/>
<path d="M63.5583 88.6987C63.4934 91.5911 62.1892 93.9321 59.8302 95.4401C57.891 96.6806 55.6172 97.3474 53.2095 97.0961C51.6821 96.9359 49.8668 96.1617 48.9459 94.98C47.4956 93.1193 46.8019 91.2059 46.8729 88.5791C52.3535 94.6111 58.9681 94.6131 63.2034 88.6845C63.321 88.6886 63.4407 88.6946 63.5583 88.6987Z" fill="#E1B173"/>
<path d="M41.4409 81.6005C41.4409 81.6005 44.6863 82.0059 48.5402 81.3979C48.4956 81.5924 47.4814 83.8058 47.1204 84.6409C46.8689 85.2226 46.1366 85.7354 45.3151 85.3057C45.1143 85.2003 44.7938 85.2145 44.5626 85.2854C43.1772 85.705 42.664 85.4982 42.1123 84.195C41.8932 83.6801 41.4409 81.6005 41.4409 81.6005Z" fill="#E1B275"/>
<path d="M63.7328 87.6508L63.6091 87.6407L63.4874 87.6528C63.5279 87.4542 63.5665 87.2576 63.607 87.059C63.6496 87.2556 63.6902 87.4522 63.7328 87.6488V87.6508Z" fill="#F6E7D6"/>
<path d="M48.4672 81.0857C48.5098 81.0472 48.5504 81.0067 48.593 80.9682C48.5869 80.9945 48.5889 81.031 48.5727 81.0452C48.5443 81.0675 48.5058 81.0736 48.4692 81.0878L48.4672 81.0857Z" fill="#F2DEC5"/>
<path d="M48.4692 81.0878C48.4266 81.1283 48.382 81.1668 48.3394 81.2073C48.3475 81.181 48.3455 81.1445 48.3638 81.1303C48.3922 81.108 48.4327 81.0999 48.4692 81.0857V81.0878Z" fill="#EFD7B7"/>
<path d="M67.2662 78.3393C66.9538 76.9529 66.0066 72.433 65.8707 71.8391C64.8281 67.2664 63.7754 62.6958 62.7084 58.1272C61.5401 53.1249 59.2358 42.5911 58.1831 39.4211C58.0229 38.9387 57.3981 38.8029 57.0574 39.1819C54.9458 41.5412 50.4956 50.7534 49.2116 53.4066C48.3698 55.1457 46.453 59.1244 46.2522 59.3332C46.1102 59.1265 41.5484 43.6249 40.0088 39.3947C39.8425 38.9407 39.234 38.8596 38.9581 39.2569C37.2198 41.7561 34.9987 47.0442 33.9338 49.7805C32.3456 53.8566 24.3558 77.2792 24.4005 77.7515C24.4593 78.3738 25.0414 78.7163 25.4004 78.1589C25.4451 78.0535 25.4877 77.9481 25.5323 77.8427L25.5465 77.8184C25.9238 76.6023 26.299 75.3861 26.6763 74.17C26.7655 73.9065 28.3457 68.9771 28.8913 67.4448C30.9237 61.733 32.8547 55.9848 35.0048 50.3156C36.9764 45.1166 39.2948 40.6251 39.4105 40.6575C40.1224 42.9742 40.8121 45.6355 41.4875 47.9624C42.3313 50.8689 43.1062 53.7978 43.9378 56.7084C44.2989 57.9691 44.666 59.2359 45.1548 60.45C45.3191 60.8574 45.6984 61.3337 46.1041 61.3337C46.5098 61.3337 47.0108 60.904 47.1933 60.5331C52.7978 49.1724 54.8261 43.9025 57.3271 40.3312C57.674 41.523 59.6456 49.6548 60.3251 52.7823C61.4062 57.7543 65.0958 74.2531 65.9092 77.5184C66.0532 78.0981 66.3352 78.6474 66.6029 79.1865C66.6698 79.3244 66.9295 79.3649 67.0999 79.4521C67.1668 79.3021 67.2743 79.1561 67.2926 78.998C67.3189 78.7832 67.3108 78.5521 67.2642 78.3413L67.2662 78.3393Z" fill="#7A3C13"/>
<path d="M60.9133 81.1952C60.1405 80.0074 58.0735 78.3575 54.4225 78.3575C54.6253 74.5065 52.4772 72.5282 51.2034 71.2857C52.2805 70.5094 52.3616 69.7372 52.3941 68.6285C52.4205 67.7367 51.7856 66.1962 50.7714 67.007C49.7572 67.8177 49.7572 70.0473 50.1771 70.8378C47.1203 69.4392 43.9804 69.346 41.238 70.0473C42.0493 69.2366 42.0493 66.6016 40.8141 66.5712C39.4551 66.5367 39.1691 69.6946 39.8181 70.6554C38.6011 71.6688 37.38 72.7613 36.5727 74.5065C35.7654 76.2516 35.7614 77.5468 35.7614 77.5468C32.3131 77.7495 29.5018 78.5501 28.0535 80.7898C26.6053 83.0295 26.1124 84.9773 26.0251 85.857C26.0008 86.1144 27.1874 86.3151 27.2422 86.0597C27.4004 85.33 28.4592 81.8032 29.4734 80.7898C30.4876 79.7764 33.5302 78.1548 36.5727 78.7629C39.6153 79.371 41.5767 82.0505 41.7329 84.3064C41.7471 84.5233 42.1609 84.7118 42.3901 84.9125C42.5138 84.6713 42.7167 84.4402 42.7471 84.1889C43.0067 81.9593 40.6315 79.371 39.4145 78.7629C38.4003 77.9522 36.9804 77.5468 36.9804 77.5468C37.2218 73.339 40.2218 71.5837 41.4429 71.0608C42.8627 70.4527 44.0919 70.6371 45.2968 70.6554C49.2805 70.7162 53.2075 73.2903 53.4103 78.3575C53.4103 78.3575 51.5848 78.3575 49.3535 79.979C48.1446 80.8567 46.7045 83.3376 46.7471 84.8152C46.7552 85.1354 47.2542 86.6049 47.3252 86.2624C47.4773 85.5388 47.7308 84.0328 48.1365 83.2221C49.7227 80.05 51.5848 79.7764 53.2075 79.5737C56.1953 79.2007 59.0127 79.527 60.7125 82.614C61.2561 83.6031 61.5238 84.6409 61.8646 85.5915C62.1262 85.6949 62.9944 85.8712 62.9437 85.4516C62.4853 84.4362 61.7977 82.462 60.9153 81.1952H60.9133Z" fill="#7A3C13"/>
<path d="M40.4064 74.5166C40.2563 74.4254 39.9359 74.4335 39.8121 74.5389C39.6985 74.6342 39.6701 74.9524 39.7391 75.1166C39.8466 75.378 40.0332 75.6314 40.2462 75.8219C41.5646 77.0056 43.094 77.6765 44.8952 77.6623C46.4368 77.636 47.8039 77.113 49.023 76.1827C49.5483 75.7814 50.3678 75.1166 50.0514 74.6727C49.5707 73.9957 48.8993 74.8166 48.4043 75.1834C46.2685 76.7664 43.9216 76.8718 41.6843 75.4307C41.2442 75.147 40.8547 74.7882 40.4064 74.5186V74.5166Z" fill="#7A3C13"/>
<path d="M45.2035 74.1538C46.0128 73.8437 46.9114 74.0099 46.9946 72.9316C47.0798 71.8249 46.5199 71.2796 45.311 71.2715C44.7208 71.2675 44.1183 71.3465 43.5423 71.4844C43.2502 71.5533 42.8587 71.7843 42.7796 72.0296C42.6782 72.3397 42.7248 72.9376 42.9236 73.0633C43.6335 73.5072 44.4348 73.8031 45.2015 74.1538H45.2035Z" fill="#7A3C13"/>
<path d="M32.8933 91.814C32.5161 92.1403 32.5931 94.6375 32.9217 95.586C33.0089 95.8394 33.6337 96.0563 33.9237 96.2387C33.9968 95.9489 34.1692 95.6448 34.1286 95.3732C33.9887 94.4672 33.4937 91.2972 32.8933 91.816V91.814Z" fill="#7A3C13"/>
<path d="M49.5544 95.3834C49.5909 95.5759 50.2887 96.0421 50.4571 96.0421C50.6518 96.0421 50.7613 95.7482 50.7715 95.5861C50.8384 94.5605 51.2968 92.5356 50.9824 91.6924C50.8992 91.4715 50.5889 91.4492 50.4692 91.6539C49.9621 92.5092 49.4713 94.9537 49.5544 95.3834Z" fill="#7A3C13"/>
<path d="M38.6011 90.7215C38.1955 91.1269 38.0575 93.9767 37.9926 94.978C37.9703 95.3084 38.1488 95.0327 38.2888 95.3368C38.3679 95.509 38.6336 95.6286 38.8405 95.6854C38.8973 95.7016 39.1894 94.5341 39.2097 94.3699C39.3151 93.4578 39.2097 90.1135 38.6011 90.7215Z" fill="#7A3C13"/>
<path d="M56.4509 92.3431C55.9884 92.3816 55.6395 95.5861 55.4367 96.5995C55.39 96.8306 56.029 96.6076 56.2298 96.8448C56.4144 96.5833 56.6943 96.3461 56.7592 96.0583C56.8728 95.5536 57.2095 92.2782 56.4509 92.3431Z" fill="#7A3C13"/>
<path d="M69.4325 82.614C69.6171 83.1673 69.9051 84.4929 70.0309 85.2185C70.1445 85.8753 69.6495 86.4793 68.9822 86.4975L64.0289 86.6232C64.0289 86.6232 64.0248 86.6252 64.0248 86.6272C64.5299 90.4844 63.5948 93.7781 60.5948 96.0563C58.3859 97.7346 55.6699 98.0447 52.7998 97.8136C49.8018 97.5724 48.0372 96.0907 46.3658 93.9382C44.5686 91.6215 45.2116 88.7007 45.4976 86.0617C45.4976 86.0597 45.4976 86.0577 45.4956 86.0577C45.3232 86.009 44.1285 86.0577 43.879 86.0577C43.879 86.0577 43.8769 86.0577 43.8749 86.0577C43.7796 86.2401 43.7147 88.9196 43.5747 90.0973C43.2603 92.7687 41.8019 94.7773 39.4875 95.8962C37.4916 96.863 35.2401 97.3961 32.9643 97.1751C30.8852 96.9724 29.0677 96.0887 27.6256 94.526C26.3923 93.1882 25.6398 91.6336 25.5019 89.8054C25.4228 88.7615 25.5019 87.5758 25.4187 86.4651C25.4187 86.4631 25.4167 86.461 25.4146 86.461L22.8427 86.5644C22.2301 86.5887 21.721 86.1063 21.7007 85.4942C21.6216 83.1329 22.8994 81.0857 23.1895 78.6981C23.1895 78.694 23.1875 78.692 23.1834 78.694C21.8163 79.1298 20.5364 79.5352 19.2585 79.9446C16.4086 80.8567 13.5628 81.7809 10.7089 82.6768C8.22615 83.4552 7.74745 81.9431 8.14907 80.0621C8.52026 78.3251 9.12675 76.6306 9.70889 74.9544C11.3397 70.2561 12.9928 65.5638 14.646 60.8736C15.4776 58.5143 16.2748 56.1794 17.1835 53.5546C17.1835 53.5546 17.1835 53.5525 17.1835 53.5505C16.9806 53.287 16.6216 52.8634 16.3133 52.4053C13.8995 48.8238 11.4939 45.2362 9.08618 41.6507C8.00708 40.0454 6.83468 38.4928 5.8712 36.8206C4.356 34.1917 2.93005 31.5061 1.57306 28.7921C1.08422 27.8131 1.61972 27.1868 2.70896 27.1747C2.8408 27.1747 8.48375 27.351 11.1714 27.4219C14.1632 27.503 17.1571 27.5334 20.1449 27.6814C23.656 27.8557 31.013 28.5448 31.301 28.4942C31.301 28.4942 31.303 28.4942 31.303 28.4921C32.4633 26.1551 33.5322 23.508 34.7594 21.1244C36.2928 18.1449 37.8303 15.1654 39.4551 12.2345C41.2705 8.95499 46.2522 0.367083 47.1244 0.320465C48.1386 0.320465 51.6091 6.25924 52.8038 8.47057C55.6963 13.8236 58.4813 19.2617 61.323 24.6431C61.8991 25.7335 63.2541 28.6664 63.5522 29.1002C63.5522 29.1002 63.5543 29.1002 63.5563 29.1002C66.7632 28.9603 70.2012 28.709 73.3736 28.634C76.7184 28.557 80.0673 28.5509 83.4121 28.5854C86.2356 28.6158 89.0591 28.7637 91.8826 28.8266C92.8806 28.8489 94.5053 29.088 94.5844 29.1002C94.5864 29.1002 94.5864 29.1022 94.5864 29.1042C94.3816 30.5231 93.3877 32.6655 92.7325 33.7255C89.6534 38.7036 86.2153 43.4323 82.5399 47.9908C80.6068 50.3886 78.7772 52.8695 76.8138 55.4254C76.8138 55.4254 76.8138 55.4254 76.8138 55.4274C76.8341 55.5835 79.5886 63.989 81.1342 67.8684C82.9334 72.3843 84.2336 77.038 85.4831 81.7181C86.0794 83.9538 84.5561 84.1585 82.8036 83.8808C81.473 83.67 80.1728 83.218 78.8827 82.8025C76.0349 81.8843 73.2012 80.9236 70.3635 79.979C69.8787 79.8169 68.7205 79.3345 68.2276 79.1663C68.2236 79.1663 68.2216 79.1663 68.2216 79.1723C68.2743 79.3183 69.0451 81.4364 69.4366 82.6099L69.4325 82.614ZM26.8162 84.6409C27.1631 84.6409 27.443 84.9226 27.439 85.2692C27.4207 86.4995 27.3822 88.7838 27.5039 89.8216C27.7736 92.1181 29.4734 93.8916 31.2645 94.678C33.157 95.509 35.0332 95.0003 36.9622 94.6517C39.4044 94.2078 41.6133 91.735 41.6538 89.3169C41.666 88.5872 41.591 86.3637 41.6457 85.0463C41.6579 84.7341 41.6964 84.5031 41.737 84.3409C41.7816 84.1605 41.954 84.0409 42.1407 84.0531C42.7167 84.0936 45.8222 84.049 47.2055 84.1625C47.4935 84.1869 47.7025 84.4443 47.6619 84.7301C47.5787 85.3158 47.4388 86.2847 47.3252 86.8684C46.7005 90.0831 47.1 92.7565 49.9621 94.7733C50.5199 95.1665 51.1588 95.5232 51.7876 95.7867C53.816 96.3948 55.8058 96.2225 57.6111 95.4219C59.9721 94.374 61.6658 92.6167 61.9417 89.8905C62.0309 89.0169 61.8342 86.6556 61.7551 85.782C61.7328 85.5327 61.9052 85.3483 62.035 85.1334C62.3332 84.6388 64.2074 84.6834 64.4711 84.6794C65.3514 84.6672 66.2317 84.6449 67.1445 84.6226C67.5684 84.6125 67.8747 84.2233 67.7956 83.8078C67.3737 81.6147 66.327 79.677 65.7814 77.1414V77.1374C66.7327 76.2151 68.4366 77.1455 69.2581 77.4252C71.4264 78.1589 73.5237 79.1095 75.7042 79.7966C78.0166 80.5263 80.3797 81.0898 82.8117 81.7323C83.0693 81.8012 83.3107 81.5702 83.2518 81.3107C81.2154 72.4249 77.4263 64.2342 74.8442 55.7436C74.6799 55.2024 74.7935 54.6146 75.1404 54.1667C75.9071 53.1776 76.6251 52.2492 77.3533 51.327C79.5927 48.4955 81.9151 45.7247 84.0612 42.8242C86.1869 39.9481 90.2984 33.9546 91.6737 31.5183C91.9029 31.1129 91.6432 30.6062 91.1787 30.5616C88.692 30.3204 82.7042 30.3325 80.1241 30.3508C76.1201 30.3771 72.1181 30.596 68.1161 30.7582C66.6638 30.817 65.2155 30.9426 63.252 31.0784C62.966 31.0987 62.678 31.0217 62.4508 30.8474C61.8038 30.3548 61.3595 29.2988 60.8687 28.3624C58.9052 24.6167 57.0979 20.79 55.1223 17.0504C53.2846 13.5722 49.1345 5.94912 47.6538 3.3993C47.4266 3.00811 46.8627 3.01419 46.6416 3.40944C41.9216 11.8879 36.7796 20.4434 33.1468 29.5339C32.9501 30.0265 32.4612 30.3406 31.9298 30.3062C27.3801 30.0184 22.8812 29.6698 18.3741 29.5015C13.5993 29.3232 8.43913 28.786 3.51422 29.1022C3.51219 29.1022 3.50814 29.1042 3.51017 29.1083C3.67041 29.5948 6.3215 34.0154 7.51419 35.8051C10.6643 40.5298 17.3092 50.8102 18.8183 53.1492C19.0151 53.4532 19.0638 53.8282 18.9502 54.1707C18.3234 56.0821 16.2099 62.5215 15.364 64.9517C14.0172 68.819 12.6318 72.6741 11.3052 76.5496C10.9259 77.6542 10.2119 79.8635 10.0334 80.6803C10.003 80.8222 10.1369 80.9438 10.2768 80.8972C14.3904 79.5048 19.792 77.8042 24.153 76.3509C25.0008 76.0692 25.8244 76.8374 25.5952 77.7008C25.1002 79.5798 24.2889 82.3343 23.7858 84.2294C23.7209 84.4726 23.9116 84.7057 24.1611 84.6916C24.9765 84.6409 25.8548 84.6388 26.8142 84.6388L26.8162 84.6409Z" fill="black"/>
</svg>
