<svg width="210" height="160" viewBox="0 0 108 82" fill="none" xmlns="http://www.w3.org/2000/svg">
<g clip-path="url(#clip0_8594_9460)">
<path d="M0.81044 42.3511C1.06358 42.3693 1.19003 42.233 1.21853 41.999C1.23605 41.8551 1.30356 41.7547 1.43806 41.7234C1.97094 41.5995 2.47025 41.3806 3.05994 41.4795C5.33804 41.8615 7.62513 42.1896 9.90675 42.5512C12.0446 42.8899 14.1762 43.2697 16.3173 43.5865C18.1384 43.8559 19.9447 44.2122 21.7733 44.4429C23.7232 44.6888 25.661 45.0307 27.6033 45.3361C29.5429 45.641 31.4825 45.9468 33.4202 46.2634C34.574 46.4519 35.7249 46.6581 36.8757 46.8645C37.2871 46.9383 37.2977 46.9486 37.3219 47.3617C37.3322 47.539 37.404 47.6855 37.5071 47.7963C37.783 48.0929 37.8425 48.457 37.9158 48.8307C38.3873 51.2359 38.877 53.6376 39.3452 56.0435C39.7894 58.3255 40.2123 60.6117 40.6497 62.8951C40.7547 63.4434 40.8823 63.9873 40.9936 64.5344C41.0122 64.6258 41.0122 64.727 41.1359 64.7131C42.0944 64.6055 42.9704 64.99 43.8773 65.1785C44.7242 65.3546 45.5592 65.588 46.4069 65.798C46.515 65.6103 46.4384 65.4322 46.4333 65.2618C46.3561 62.664 47.3595 60.585 49.4725 59.0752C50.9757 58.0012 52.6634 57.5055 54.5256 57.6543C54.7768 57.6743 55.0335 57.8566 55.265 57.735C55.5031 57.6099 55.4295 57.2831 55.5543 57.0646C55.7852 56.66 56.0373 56.2705 56.3147 55.8978C56.7996 55.2463 57.0907 54.4836 57.5312 53.8063C57.7861 53.4144 58.0381 53.0215 58.3452 52.6686C58.5583 52.4238 58.7552 52.1752 58.8835 51.8703C58.967 51.6718 59.1301 51.52 59.2829 51.3626C59.7352 50.8968 60.162 50.4158 60.418 49.7975C60.5463 49.4876 60.78 49.2253 61.0185 48.9737C61.6038 48.3562 62.0439 47.6359 62.4584 46.859C61.5524 46.4188 60.6522 46.015 59.8101 45.5046C58.5781 44.7579 57.3875 43.9573 56.286 43.0173C55.5593 42.3972 54.8358 41.7719 54.1116 41.1487C53.3722 40.5125 52.7432 39.7626 52.0798 39.0489C51.5635 38.4935 51.0487 37.9353 50.5044 37.4079C49.9047 36.8268 49.3969 36.1674 48.8738 35.525C48.5093 35.0774 48.4694 34.4741 48.6318 33.9415C49.1205 32.3387 49.664 30.7525 50.1916 29.1616C50.8439 27.1944 51.5011 25.2288 52.158 23.2631C52.2505 22.986 52.2137 22.7431 52.0315 22.5067C51.5238 21.8476 51.2505 21.0534 50.7995 20.3571C50.4563 19.8272 50.3587 19.1815 50.178 18.5792C49.9221 17.7258 49.8931 16.8523 49.9658 15.9686C50.001 15.5405 50.1659 15.2187 50.5301 14.9772C50.7372 14.8399 50.9201 14.7388 51.1783 14.8165C51.3299 14.8622 51.498 14.8535 51.6868 14.872C51.6669 14.4129 51.6673 13.9509 51.6227 13.4933C51.5263 12.5048 51.4654 11.5076 51.5549 10.5263C51.6167 9.84778 51.5706 9.10455 52.1001 8.51347C52.2922 8.29906 52.3392 7.95922 52.5581 7.72779C53.0395 7.21898 53.7412 7.19543 54.3293 7.57914C54.8242 7.90203 55.1178 8.31117 55.3051 8.85852C55.4961 9.41686 55.7589 9.95126 56.0019 10.4909C56.0797 10.6639 56.1945 10.8203 56.3266 11.0415C56.6539 10.3263 56.9019 9.65591 57.2122 9.01244C58.4722 6.39932 59.6902 3.76582 61.0495 1.20132C61.1494 1.0129 61.1966 0.797293 61.2865 0.602761C61.5212 0.0950161 61.9431 0.0575754 62.2665 0.503874C63.2464 1.85611 63.9783 3.33942 64.6171 4.87575C65.0184 5.84094 65.4724 6.7843 65.8715 7.75038C66.1042 8.31383 66.2707 8.90434 66.4748 9.47988C66.835 10.4951 67.182 11.5138 67.4546 12.5573C67.6314 13.2337 67.8317 13.9061 68.0057 14.5809C68.1833 15.27 68.4203 15.9535 68.4839 16.6701C68.5082 16.9438 68.6519 17.0096 68.8814 16.9395C69.2073 16.8401 69.5469 16.8084 69.8629 16.6477C70.3703 16.3896 70.949 16.3705 71.501 16.3101C72.6839 16.1807 73.8737 16.1521 75.0658 16.1624C76.0559 16.1709 77.0465 16.1102 78.0467 16.0798C78.2176 15.4554 78.223 14.823 78.3643 14.2111C78.8509 12.1027 79.4911 10.0424 80.2402 8.01463C80.7904 6.52513 81.4171 5.06752 82.0981 3.63291C82.5789 2.62005 83.1688 1.67213 83.8036 0.750916C83.8845 0.633528 83.9937 0.533602 84.0991 0.435469C84.4367 0.120904 84.831 0.14913 85.0909 0.517057C85.5485 1.1651 85.9181 1.86289 86.2421 2.58633C86.381 2.89632 86.5307 3.20293 86.7951 3.43466C86.8479 3.48093 86.897 3.54536 86.9186 3.61102C87.1535 4.32566 87.5757 4.95284 87.8708 5.64307C88.2365 6.49842 88.5779 7.37327 89.0294 8.19332C89.1852 8.47639 89.287 8.79119 89.5223 9.03531C89.7873 8.79804 89.8791 8.45029 90.1037 8.18952C90.6439 7.56236 91.6601 7.67162 91.9923 8.43831C92.2409 9.0121 92.4138 9.61947 92.6063 10.2164C92.8344 10.9238 92.8766 11.6605 92.9267 12.3957C92.9622 12.9149 93.0872 13.4264 93.0462 13.9368C93.0905 13.9716 93.1153 14.0081 93.1432 14.0106C93.9001 14.0795 94.119 14.2627 94.2117 15.0249C94.325 15.9556 94.3557 16.8873 94.2147 17.8245C94.0397 18.9879 93.7068 20.1022 93.2807 21.1935C93.2479 21.2776 93.2237 21.3651 93.19 21.4488C92.9909 21.9434 93.0654 22.3435 93.3613 22.8326C93.8524 23.6445 94.4107 24.4115 94.9181 25.2102C95.6212 26.3171 96.3089 27.432 96.9742 28.5612C97.1994 28.9435 97.4082 29.3275 97.5417 29.7672C97.6841 30.236 97.9847 30.6569 98.2238 31.1133C97.4191 32.2324 96.7027 33.4198 95.9888 34.6044C95.4471 35.5035 94.7854 36.3098 94.2108 37.1804C94.1315 37.3006 94.0428 37.4188 93.9397 37.5185C93.1882 38.2455 92.5317 39.0648 91.7495 39.7621C91.6152 39.8818 91.4689 40.0043 91.3798 40.1558C91.0996 40.6323 90.6614 40.9613 90.2889 41.3485C89.8709 41.7832 89.4304 42.2024 88.9337 42.5515C88.7934 42.6502 88.804 42.7452 88.872 42.8713C89.1116 43.3152 89.3494 43.7601 89.5862 44.2055C89.6402 44.307 89.7219 44.3004 89.8151 44.2797C90.5855 44.1088 91.3606 44.2105 92.1333 44.2504C93.9743 44.3454 95.8125 44.4846 97.6562 44.5395C99.0644 44.5814 100.47 44.6959 101.877 44.7768C102.383 44.8059 102.889 44.8436 103.396 44.8532C103.645 44.8579 103.794 44.9432 103.897 45.1754C104.013 45.4383 104.154 45.6929 104.311 45.9338C104.519 46.2517 104.522 46.5851 104.404 46.9174C103.956 48.1871 103.618 49.4895 103.238 50.7792C102.86 52.0581 102.465 53.3318 102.079 54.608C102.063 54.6595 102.057 54.7139 102.038 54.8086C102.505 54.8069 102.957 54.8508 103.401 55.0018C104.594 55.4088 105.489 56.1908 106.208 57.1924C106.946 58.2189 107.356 59.384 107.605 60.6132C107.891 62.0284 107.868 63.4408 107.599 64.8561C107.247 66.7069 106.461 68.3485 105.202 69.7478C104.305 70.7447 103.222 71.4824 101.894 71.7806C100.978 71.9863 100.059 72.0975 99.1185 71.8161C98.7037 71.6921 98.2473 71.6834 97.8108 71.6117C97.0572 71.4878 96.394 71.2247 95.8008 70.7579C95.7758 70.7382 95.7332 70.7409 95.6728 70.7272C95.5377 71.39 94.865 71.3387 94.4454 71.6375C94.41 71.6627 94.382 71.6465 94.3517 71.6137C94.1181 71.3608 93.8082 71.4658 93.53 71.4545C92.3748 71.4076 91.2187 71.3398 90.0636 71.3494C88.8908 71.3592 87.7202 71.3261 86.5491 71.294C84.67 71.2424 82.7915 71.1531 80.9121 71.1271C80.3934 71.1199 80.0543 70.9103 79.7804 70.5314C79.4906 70.1304 79.1437 69.7495 79.2141 69.1883C79.245 68.9418 79.0814 68.8983 78.8689 68.9048C78.2905 68.9226 77.7118 68.9304 77.1331 68.9343C74.4422 68.9526 71.7515 68.9401 69.0608 68.8965C67.4608 68.8706 65.8605 68.859 64.2603 68.8439C63.8162 68.8397 63.3659 69.3509 63.4436 69.7929C63.5121 70.1827 63.3708 70.575 63.5029 70.9675C63.5629 71.146 63.6957 71.2772 63.7059 71.5031C63.7287 72.0068 63.5397 72.3066 63.1066 72.5438C62.2534 73.0112 61.3537 73.3714 60.4609 73.7466C58.5317 74.5573 56.5922 75.3437 54.6607 76.1493C52.1811 77.1835 49.7053 78.2271 47.2276 79.2663C45.9979 79.782 44.7662 80.2932 43.539 80.8151C43.3059 80.9143 43.0883 81.0041 42.9748 80.69C42.9303 80.5667 42.8681 80.568 42.7808 80.5851C42.6932 80.6021 42.6082 80.6328 42.5226 80.6592C42.0574 80.8022 41.6047 80.6561 41.1758 80.5354C39.1629 79.9688 37.1382 79.4483 35.1149 78.9216C32.2703 78.1812 29.4314 77.4194 26.5885 76.6726C24.461 76.1138 22.3296 75.5694 20.2024 75.0094C17.0243 74.1727 13.8484 73.3279 10.6714 72.4869C10.5317 72.4499 10.3914 72.3875 10.2511 72.3866C10.0026 72.3849 9.88525 72.2328 9.72384 72.0753C9.03778 71.4058 8.91121 70.4897 8.64145 69.6504C8.17892 68.2112 7.77016 66.7532 7.36445 65.2973C6.85649 63.4745 6.28846 61.6696 5.79292 59.8431C5.23163 57.7743 4.60628 55.7229 4.02601 53.6592C3.47479 51.6987 2.96254 49.7272 2.402 47.7695C1.91549 46.0703 1.47519 44.3593 1.01786 42.6525C0.990884 42.5519 1.02619 42.3655 0.81044 42.4596V42.3511ZM52.7624 10.8679C52.5286 11.7799 52.5911 12.7018 52.7312 13.6121C52.9396 14.9672 53.218 16.3104 53.5801 17.6348C53.6101 17.7444 53.682 17.8706 53.5617 17.9779C53.4207 17.9739 53.3171 17.91 53.2309 17.8099C52.8893 17.4134 52.5419 17.0215 52.2072 16.6192C52.0443 16.4235 51.8748 16.2378 51.6695 16.0874C51.5356 15.9892 51.3899 15.8983 51.2213 15.9936C51.0662 16.0813 51.1141 16.2417 51.1101 16.3825C51.0824 17.3536 51.3123 18.2813 51.5966 19.1972C52.0345 20.6075 52.6255 21.9362 53.671 23.0208C53.8646 23.2216 53.9816 23.4954 54.2656 23.6704C54.8184 22.3045 55.2087 20.9193 55.6629 19.5562C56.1312 18.3422 56.5035 17.0985 56.8314 15.8401C56.9171 15.5114 56.9076 15.2046 56.7802 14.8934C56.6299 14.5262 56.492 14.1538 56.3399 13.7873C55.7039 12.2551 55.12 10.7011 54.3954 9.20572C54.235 8.87469 54.0133 8.64026 53.6836 8.50472C53.456 8.41116 53.2765 8.43745 53.1697 8.71108C52.8986 9.40632 52.6609 10.104 52.7624 10.8679ZM60.8544 4.77319L60.8598 4.76621C60.7101 4.85961 60.6686 5.02607 60.5997 5.1691C59.5584 7.33146 58.4316 9.45118 57.3771 11.6064C56.918 12.5446 56.5427 13.5409 57.182 14.5769C57.219 14.6369 57.2253 14.715 57.2562 14.7798C57.443 15.1709 57.5367 15.5114 57.3187 15.9794C56.9869 16.692 56.908 17.504 56.6561 18.258C56.1531 19.7637 55.6977 21.2848 55.1763 22.7851C54.9756 23.3625 54.6918 23.9146 54.5977 24.5271C54.578 24.6548 54.5783 24.7922 54.4154 24.8162C54.2646 24.8384 54.2135 24.7276 54.1393 24.6131C53.8895 24.228 53.6134 23.8604 53.2308 23.5084C52.0976 27.1421 50.8983 30.6909 49.7604 34.3687C50.7415 33.8857 51.6688 33.6528 52.6129 33.4829C53.4498 33.3322 54.301 33.3121 55.1457 33.2329C55.254 33.2365 55.3624 33.2445 55.4707 33.2433C58.476 33.2082 61.4229 33.6152 64.3077 34.4469C65.8395 34.8886 67.3218 35.4559 68.681 36.3154C68.9942 36.5134 69.2613 36.7868 69.63 36.9566C70.1086 35.3219 71.1982 34.2039 72.5508 33.3025C72.3562 33.0313 72.0296 32.953 71.9744 32.6635C71.8155 31.8292 71.6537 30.9917 71.9272 30.1479C72.0572 29.747 72.3909 29.5443 72.9059 29.5549C73.2355 29.5616 73.525 29.7608 73.5705 30.1519C73.6332 30.6907 73.8288 31.2036 73.8363 31.7509C73.8481 32.6139 73.8551 32.6131 74.6756 32.3567C76.2557 31.8631 77.8617 31.7413 79.4942 32.0323C79.8453 32.0949 80.1926 32.1789 80.5515 32.255C80.6064 32.0865 80.5724 31.9444 80.5651 31.802C80.5372 31.261 80.4853 30.7191 80.5337 30.178C80.5781 29.6822 80.8708 29.3744 81.2952 29.3362C81.7457 29.2955 82.1703 29.5674 82.2375 30.0439C82.3553 30.8787 82.4913 31.7247 82.0151 32.5204C81.8021 32.8762 81.8207 32.9073 82.2078 33.1469C82.9715 33.6196 83.6214 34.2082 84.1433 34.9398C84.255 35.0963 84.3182 35.2961 84.527 35.4105C84.7147 35.0881 84.9535 34.82 85.2131 34.5695C85.474 34.3179 85.749 34.0836 86.0511 33.882C88.5817 32.193 91.3972 31.2861 94.3851 30.8524C95.0581 30.7547 95.7378 30.7315 96.353 30.7303C96.4572 30.62 96.4346 30.5609 96.4103 30.5181C96.0387 29.8638 95.7094 29.1883 95.3166 28.543C94.4734 27.1578 93.579 25.8058 92.7265 24.4277C92.299 23.7366 91.7115 23.1027 91.7966 22.1558C91.8507 21.5549 91.7602 20.9317 91.6541 20.3256C91.4674 19.2592 91.3426 18.1773 91.0788 17.1303C90.7577 15.8555 90.4449 14.5746 89.9975 13.3325C89.7167 12.5531 89.5147 11.745 89.2244 10.9696C88.5011 9.03776 87.4518 7.25309 86.6488 5.3564C86.3168 4.57221 85.8136 3.87733 85.4678 3.10298C85.3048 2.73799 85.0572 2.42884 84.8867 2.07059C84.7779 1.84205 84.6086 1.8374 84.4729 2.03386C84.2266 2.39052 83.9645 2.74331 83.7728 3.12933C83.2191 4.24443 82.6541 5.35444 82.1669 6.50201C81.3968 8.31606 80.7326 10.1688 80.1674 12.0545C79.6594 13.7498 79.2593 15.4724 79.0564 17.2356C79.0152 17.5939 78.8883 17.6683 78.5534 17.535C78.3488 17.4536 78.148 17.4 77.927 17.383C75.6052 17.2042 73.2979 17.3817 70.9977 17.6761C70.4113 17.7512 69.8345 17.8931 69.2886 18.1592C68.9335 18.3322 68.6016 18.5606 68.2134 18.6664C68.0682 18.706 67.9191 18.76 67.8557 18.5619C67.6589 17.9464 67.3318 17.3757 67.2815 16.7082C67.2506 16.2975 67.1802 15.8768 67.0442 15.4898C66.8228 14.8602 66.7213 14.2033 66.5307 13.5686C66.355 12.983 66.2563 12.3784 66.0566 11.7975C65.8523 11.2031 65.6604 10.6058 65.4345 10.0176C65.112 9.17786 64.8538 8.31597 64.5129 7.47928C63.941 6.07569 63.3693 4.67231 62.7369 3.29546C62.558 2.90615 62.4375 2.46109 62.0505 2.13554C61.7229 2.88986 61.346 3.5676 61.0817 4.29711C61.0161 4.339 60.9881 4.39956 60.9927 4.47623L60.9764 4.51535C60.8889 4.57919 60.8557 4.66866 60.8544 4.77319ZM52.7426 59.0784C52.5959 59.0541 52.4573 59.0875 52.3177 59.1301C50.086 59.8102 48.6002 61.2643 47.8512 63.4626C47.5131 64.4547 47.5617 65.4486 47.9582 66.4228C48.0261 66.5896 48.1017 66.7572 48.1388 66.9319C48.306 67.7189 48.799 68.2825 49.3961 68.7694C50.0004 69.262 50.6646 69.6599 51.3955 69.9393C51.648 70.0358 51.891 70.1756 52.2181 70.1899C52.0882 69.8459 51.9809 69.5618 51.8736 69.2777C51.8204 68.9577 51.7652 68.6381 51.7144 68.3177C51.5917 67.5446 51.6038 66.7682 51.682 65.9931C51.7268 65.5489 51.9072 65.1753 52.3228 64.9426C52.4669 65.1297 52.3518 65.2784 52.3181 65.4257C51.954 67.0141 52.1486 68.5456 52.7704 70.0381C52.8925 70.3312 53.0891 70.5038 53.4035 70.5604C54.8324 70.8174 56.2654 70.9935 57.7195 70.8136C58.2359 70.7498 58.2517 70.7333 58.2654 70.2389C58.2689 70.1124 58.2779 69.9839 58.2614 69.8594C58.1594 69.0871 58.1741 68.3094 58.147 67.5338C58.1293 67.0294 58.1784 66.5226 58.0894 66.0206C58.0674 65.8964 58.124 65.8112 58.2465 65.7752C58.3841 65.7347 58.4318 65.8233 58.4849 65.928C58.6209 66.1962 58.6213 66.4853 58.6342 66.7731C58.6877 67.9636 58.7396 69.1542 58.7932 70.3447C58.8083 70.6805 58.8297 70.709 59.1306 70.6523C59.8587 70.515 60.5908 70.3841 61.275 70.085C61.8424 69.8369 62.3486 69.5206 62.6907 68.9654C62.956 68.535 63.204 68.0956 63.4651 67.664C63.7006 67.2749 63.8052 66.8567 63.7889 66.43C63.7518 65.4552 63.4534 64.5495 62.9037 63.7367C61.8438 62.1695 60.3929 61.0498 58.7464 60.1681C57.4841 59.4923 56.1898 58.8947 54.7109 58.8908C54.6751 58.8907 54.6393 58.8759 54.6035 58.8758C53.9759 58.8753 53.3423 58.8217 52.7426 59.0784ZM95.0032 64.1641C94.419 63.7665 93.772 63.5351 93.03 63.3808C93.0209 64.0813 93.0393 64.7248 93.1611 65.3592C93.5266 67.2642 94.53 68.7273 96.2341 69.6795C96.5579 69.8604 96.8556 70.0838 97.2363 70.1826C97.9381 70.3649 98.65 70.3941 99.3639 70.4378C100.309 70.6055 101.234 70.4784 102.127 70.1748C103.538 69.6955 104.48 68.6599 105.191 67.4088C106.026 65.9378 106.406 64.3339 106.427 62.6455C106.446 61.1795 106.18 59.7747 105.451 58.4866C104.878 57.4716 104.11 56.6528 102.977 56.2506C102.536 56.094 102.093 55.9345 101.64 55.8197C100.844 55.6177 100.029 55.688 99.2241 55.7552C98.8942 55.7828 98.5352 55.7778 98.2477 56.0056C97.2326 56.2111 95.7525 57.2052 95.372 57.9537C95.6385 57.9253 95.8644 58.0633 96.1156 58.0731C96.7521 58.2227 97.3265 58.5302 97.9198 58.788C98.2865 58.9473 98.6016 59.1904 98.8937 59.4623C99.0936 59.6483 99.2454 59.8722 99.3981 60.0955C99.4439 60.1626 99.4476 60.2236 99.3822 60.2849C99.318 60.3451 99.256 60.3447 99.1923 60.2923C99.1088 60.2235 99.0278 60.1518 98.9461 60.081C98.6307 59.8079 98.3014 59.5482 97.8987 59.4246C97.4836 59.2973 97.0928 59.117 96.6994 58.9409C96.3689 58.7928 96.035 58.664 95.6682 58.6462C95.5884 58.6072 95.5121 58.557 95.4283 58.5309C94.8914 58.364 94.8834 58.3608 94.566 58.8411C93.8419 59.9366 93.3399 61.1175 93.1197 62.4233C93.0653 62.7458 93.1817 62.8801 93.4123 62.9285C93.9293 63.0368 94.3843 63.3073 94.8883 63.4423C95.6798 63.9235 96.5421 64.3263 96.9885 65.2774C96.6498 65.3435 96.4236 65.2643 96.2529 65.0632C95.9094 64.6588 95.4733 64.3894 95.0032 64.1641ZM81.86 43.748C80.8702 44.5224 79.7087 44.8496 78.4894 44.9495C77.2169 45.0537 75.9757 44.8839 74.7579 44.4391C73.6544 44.036 72.7342 43.4127 71.9586 42.5508C71.6796 42.2408 71.4763 41.8718 71.2165 41.5508C70.5956 40.7839 70.2382 39.9207 70.107 38.9495C70.0285 38.3689 69.7872 37.8824 69.2267 37.6088C69.1144 37.554 69.0069 37.4842 68.9086 37.4068C68.0487 36.7298 67.0861 36.234 66.0749 35.8341C62.6871 34.4944 59.1496 33.9559 55.525 33.902C55.3852 33.8999 55.2341 33.874 55.104 33.9627C54.9964 33.9505 54.888 33.923 54.7812 33.9284C53.6604 33.9849 52.5461 34.0981 51.4578 34.3848C51.127 34.472 50.8008 34.5876 50.4859 34.7217C50.1054 34.8836 50.0861 35.0765 50.3554 35.3828C51.4373 36.6129 52.6563 37.7136 53.7334 38.9468C54.3522 39.6553 55.0616 40.2599 55.758 40.8846C56.6811 41.7127 57.5987 42.5473 58.6116 43.264C59.8779 44.16 61.1892 44.9818 62.6092 45.6254C63.0183 45.8108 63.445 45.9504 63.8487 46.1509C64.1168 46.2839 64.1437 46.4215 64.031 46.6589C63.9776 46.7715 63.9627 46.9043 63.8634 46.9921C63.2117 47.5682 62.8584 48.3554 62.5037 49.1059C62.0703 50.0228 61.7301 50.9862 61.635 52.0297C61.4998 53.5131 61.0731 54.9588 61.0393 56.4629C61.0322 56.7774 61.0524 57.1116 60.9832 57.4247C60.7837 58.3271 60.749 59.2379 60.7756 60.157C60.7846 60.4703 60.8876 60.6831 61.1467 60.8751C61.9795 61.4921 62.7125 62.2171 63.311 63.0657C64.254 64.4028 64.9074 65.8211 64.4681 67.5192C64.4566 67.5635 64.4651 67.5916 64.5496 67.6222C64.8373 67.5184 65.1734 67.5228 65.5106 67.5252C66.8298 67.5344 68.1492 67.5236 69.468 67.5503C70.6947 67.5751 71.9227 67.541 73.1482 67.6251C73.2886 67.6348 73.4383 67.6785 73.5631 67.5661L73.541 67.5653C73.9568 67.6911 74.3819 67.6216 74.8035 67.626C76.3196 67.6215 77.8339 67.7196 79.3514 67.6852C79.6935 67.6775 79.8071 67.5747 79.9081 67.2863C80.6535 65.1584 81.4122 63.0352 82.1683 60.9111C83.8563 56.1692 85.5463 51.4281 87.2305 46.6849C87.3082 46.466 87.4495 46.2519 87.4196 46.0129C87.3791 45.6881 87.563 45.5086 87.7851 45.3415C88.0558 45.138 88.3304 44.9396 88.5949 44.7452C88.3439 44.1697 87.8881 43.8046 87.489 43.3958C87.3228 43.2256 87.2634 43.0586 87.4179 42.8788C87.7942 42.4408 88.1449 41.9669 88.5829 41.5991C89.2447 41.0434 89.8533 40.4331 90.4149 39.7906C91.0911 39.0172 91.815 38.2892 92.5081 37.5339C93.2677 36.7059 93.9641 35.8296 94.6252 34.9329C95.3917 33.8934 96.0367 32.7643 96.7287 31.683C96.6235 31.5322 96.4969 31.4907 96.3449 31.4922C96.0736 31.4949 95.8021 31.4829 95.5309 31.4895C94.1838 31.522 92.875 31.7954 91.5825 32.1484C89.7249 32.6557 87.9502 33.3612 86.3654 34.4761C85.7883 34.8822 85.2581 35.3428 84.9604 36.0208C84.8818 36.2 84.8502 36.3422 84.9182 36.5159C85.2345 37.3247 85.302 38.1682 85.2235 39.0211C85.1286 40.0509 84.6942 40.9239 83.9153 41.6157C83.8341 41.6878 83.7501 41.7718 83.583 41.7656C83.7295 41.5635 83.8476 41.4041 83.962 41.242C85.2506 39.4159 84.9807 37.2377 83.9514 35.7492C83.499 35.095 82.9875 34.4811 82.4095 33.9316C81.9888 33.5317 81.5019 33.2306 80.9532 33.0181C79.109 32.3039 77.2354 32.3088 75.3585 32.817C73.7943 33.2406 72.4106 33.9985 71.3346 35.2481C70.7065 35.9776 70.2036 36.8057 70.2078 37.7676C70.2117 38.6597 70.4397 39.5508 70.8121 40.3858C71.2577 41.3846 71.9525 42.1684 72.8098 42.8386C74.6897 44.3081 76.8201 44.7405 79.1443 44.4496C80.0359 44.338 80.8457 43.981 81.6676 43.6558C81.7457 43.6574 81.8169 43.6735 81.86 43.748ZM2.23683 42.6673C2.20684 42.6924 2.17685 42.7176 2.14687 42.7427C2.46414 42.9199 2.53448 43.223 2.62472 43.5071C3.04473 44.8295 3.4601 46.1535 3.85898 47.4824C4.51614 49.6716 5.16631 51.863 5.80635 54.0574C6.41226 56.1346 6.97495 58.2248 7.60567 60.2944C8.17351 62.1577 8.6623 64.0425 9.21111 65.9107C9.70355 67.5871 10.1523 69.2762 10.6206 70.9596C10.6769 71.162 10.689 71.3717 11.0248 71.2958C11.2199 71.2517 11.4522 71.3413 11.6616 71.3949C14.9307 72.2313 18.1991 73.0705 21.4669 73.9116C23.6176 74.4651 25.7678 75.0203 27.9171 75.5789C30.534 76.259 33.1487 76.9473 35.7663 77.6247C37.2157 77.9999 38.6748 78.3391 40.1183 78.735C41.0217 78.9828 41.9479 79.1473 42.8303 79.4716C43.1192 79.5778 43.4061 79.7202 43.6111 79.3173C43.6559 79.2294 43.8286 79.2036 43.945 79.1555C45.695 78.431 47.4454 77.7075 49.1958 76.984C50.9131 76.2741 52.6304 75.5642 54.348 74.855C56.0647 74.1461 57.7822 73.4389 59.4986 72.7292C60.3659 72.3706 61.2331 72.0117 62.0973 71.6457C62.3504 71.5385 62.5051 71.1753 62.3747 70.9349C62.2456 70.6967 62.0051 70.8048 61.8038 70.8399C61.7341 70.852 61.6693 70.892 61.6019 70.9182C56.2676 72.9988 50.9335 75.08 45.5986 77.1592C44.774 77.4805 43.9481 77.7987 43.1184 78.1066C42.4662 78.3487 42.2584 78.2375 42.1273 77.5891C41.8559 76.2462 41.5859 74.903 41.3245 73.5581C40.9325 71.5411 40.5431 69.5235 40.1628 67.5043C39.9324 66.2816 39.6533 65.0697 39.3935 63.8536C38.9795 61.9152 38.6716 59.9545 38.2888 58.0091C37.7736 55.3909 37.3211 52.7618 36.8541 50.1351C36.7499 49.549 36.6376 48.9643 36.5225 48.3803C36.4964 48.2476 36.4773 48.0358 36.2799 48.1121C35.9237 48.25 35.6267 48.0354 35.3015 48.0128C34.2907 47.9425 33.3026 47.7194 32.3025 47.5779C30.9638 47.3885 29.634 47.1364 28.2986 46.9223C27.0332 46.7195 25.7617 46.553 24.4998 46.3315C22.172 45.9229 19.8454 45.5093 17.5097 45.1472C14.7461 44.7187 11.9836 44.2826 9.2223 43.8389C7.63661 43.5841 6.05445 43.3075 4.47062 43.0412C3.72611 42.916 2.98144 42.7919 2.23683 42.6673ZM100.462 55.0585C100.489 54.5753 100.772 54.2105 100.914 53.7581C101.385 52.2622 101.816 50.7541 102.261 49.2503C102.506 48.423 102.755 47.5966 102.989 46.7664C103.101 46.3737 102.958 46.178 102.571 46.1561C99.8285 46.0009 97.0863 45.8489 94.3442 45.692C92.8663 45.6075 91.3882 45.5243 89.9117 45.4185C89.6378 45.3988 89.5418 45.4613 89.4694 45.7292C89.2626 46.4951 89.0364 47.2573 88.7777 48.0072C87.077 52.937 85.3645 57.8627 83.6584 62.7906C82.9086 64.9563 82.1641 67.1238 81.4183 69.2908C81.2238 69.8559 81.2253 69.8624 81.8456 69.8915C82.9279 69.9422 84.0103 70.0051 85.0934 70.0254C86.2843 70.0477 87.4732 70.1105 88.666 70.1119C90.4182 70.114 92.1703 70.2345 93.9224 70.3049C93.9947 70.3078 94.0671 70.3205 94.1389 70.3171C94.2707 70.3109 94.6093 69.9603 94.6381 69.789C94.6633 69.6392 94.5288 69.5756 94.4401 69.4962C94.0894 69.1824 93.7484 68.8622 93.4762 68.4729C92.4531 67.0092 92.0739 65.3794 92.1532 63.611C92.2434 61.5995 92.859 59.7634 94.0908 58.1883C95.7924 56.0125 97.5324 54.6852 100.462 55.0585ZM42.885 77.6524C47.9351 75.6718 52.944 73.7074 58.0195 71.7169C57.7906 71.5913 57.6473 71.6299 57.5091 71.6358C55.3853 71.7271 53.3287 71.4278 51.3606 70.5968C50.2134 70.1125 49.1668 69.4829 48.3634 68.5119C48.1 68.1936 47.8675 67.8474 47.6451 67.4985C47.5128 67.2911 47.3622 67.2344 47.1156 67.2188C46.7223 67.1941 46.324 67.1779 45.934 67.078C44.292 66.657 42.6466 66.2493 41.002 65.8384C40.8853 65.8092 40.7642 65.7385 40.6191 65.8641C41.3682 69.7612 42.1202 73.6734 42.885 77.6524ZM92.3826 15.5426C92.318 14.8298 92.2114 14.1498 92.2047 13.4688C92.1934 12.3206 91.9368 11.2136 91.7227 10.0988C91.6727 9.83823 91.553 9.5817 91.4212 9.34821C91.2073 8.96927 90.9084 8.96003 90.6673 9.326C90.4391 9.67227 90.238 10.0376 90.0437 10.4045C89.7815 10.8993 89.7834 11.393 90.0452 11.9018C90.3095 12.4157 90.4784 12.9696 90.6505 13.5217C90.8917 14.2956 91.0482 15.0915 91.2718 15.868C91.6063 17.0298 91.8886 18.1998 92.0826 19.3924C92.1441 19.7703 92.19 20.1536 92.3559 20.6174C92.5781 20.0247 92.787 19.528 92.951 19.0171C93.2543 18.0726 93.557 17.1248 93.5143 16.1119C93.5052 15.8957 93.5086 15.6791 93.4352 15.47C93.3144 15.126 93.1437 15.0626 92.833 15.2649C92.7029 15.3496 92.6374 15.5275 92.3826 15.5426ZM59.953 60.0027C59.9009 59.3948 59.9583 58.9114 60.0158 58.4287C60.0713 57.9637 60.1699 57.5026 60.2021 57.0365C60.2358 56.5502 60.2723 56.0656 60.3287 55.5811C60.3848 55.0987 60.4261 54.6175 60.5474 54.1429C60.6632 53.6897 60.7185 53.2214 60.8135 52.7625C61.0434 51.6518 61.0465 51.6525 60.9089 51.3839C60.7171 51.7586 60.4359 52.0395 60.1655 52.3304C60.0428 52.4623 59.8901 52.5975 59.8395 52.759C59.7155 53.1542 59.4521 53.4473 59.2023 53.7526C58.8593 54.1718 58.5614 54.6185 58.3077 55.0968C57.9705 55.7326 57.5944 56.3419 57.1657 56.9241C56.9142 57.2656 56.6635 57.6279 56.5639 58.0622C56.4726 58.4601 56.4742 58.4994 56.8483 58.6103C57.6666 58.853 58.4423 59.1934 59.195 59.5901C59.4143 59.7057 59.6305 59.8269 59.953 60.0027ZM80.2792 69.9228C83.1505 61.7225 86.0028 53.5764 88.8672 45.3959C88.354 45.6111 88.0532 45.9143 88.0107 46.4529C87.9913 46.6977 87.8702 46.9361 87.7857 47.1741C87.2677 48.6345 86.7331 50.0891 86.2298 51.5546C84.5435 56.465 82.7579 61.3401 81.0247 66.2339C80.7122 67.1164 80.4036 68.0005 80.0894 68.8825C79.9644 69.2334 79.8896 69.5719 80.2792 69.9228Z" fill="#080606"/>
<path d="M2.23684 42.6672C2.98144 42.7918 3.72613 42.9159 4.47064 43.0411C6.05447 43.3075 7.63664 43.5841 9.22232 43.8389C11.9836 44.2826 14.7461 44.7187 17.5097 45.1472C19.8454 45.5093 22.1721 45.9228 24.4998 46.3315C25.7617 46.553 27.0332 46.7194 28.2986 46.9223C29.634 47.1363 30.9638 47.3885 32.3026 47.5778C33.3026 47.7193 34.2907 47.9425 35.3015 48.0127C35.6267 48.0353 35.9237 48.2499 36.2799 48.1121C36.4773 48.0357 36.4964 48.2476 36.5225 48.3802C36.6376 48.9643 36.75 49.549 36.8542 50.135C37.3211 52.7617 37.7736 55.3909 38.2888 58.009C38.6716 59.9544 38.9796 61.9151 39.3936 63.8535C39.6533 65.0697 39.9324 66.2815 40.1628 67.5042C40.5432 69.5235 40.9325 71.541 41.3245 73.558C41.5859 74.9029 41.8559 76.2462 42.1274 77.5891C42.2584 78.2375 42.4662 78.3486 43.1185 78.1065C43.9481 77.7987 44.774 77.4805 45.5986 77.1591C50.9335 75.08 56.2676 72.9988 61.6019 70.9182C61.6693 70.8919 61.7341 70.852 61.8038 70.8398C62.0052 70.8048 62.2456 70.6967 62.3748 70.9348C62.5051 71.1753 62.3505 71.5384 62.0973 71.6457C61.2331 72.0117 60.3659 72.3706 59.4986 72.7291C57.7822 73.4388 56.0648 74.1461 54.348 74.855C52.6304 75.5642 50.9131 76.2741 49.1958 76.9839C47.4454 77.7074 45.695 78.431 43.945 79.1554C43.8287 79.2036 43.6559 79.2294 43.6112 79.3173C43.4061 79.7202 43.1192 79.5777 42.8303 79.4715C41.948 79.1472 41.0217 78.9827 40.1184 78.735C38.6748 78.339 37.2157 77.9998 35.7663 77.6247C33.1488 76.9472 30.534 76.259 27.9172 75.5788C25.7678 75.0202 23.6176 74.465 21.467 73.9115C18.1991 73.0705 14.9307 72.2313 11.6617 71.3949C11.4523 71.3413 11.22 71.2516 11.0248 71.2958C10.6891 71.3717 10.677 71.1619 10.6206 70.9595C10.1523 69.2761 9.70357 67.587 9.21114 65.9107C8.66233 64.0424 8.17353 62.1576 7.6057 60.2944C6.97498 58.2248 6.41228 56.1346 5.80638 54.0573C5.16633 51.863 4.51616 49.6716 3.85901 47.4823C3.46012 46.1535 3.04475 44.8294 2.62475 43.507C2.5345 43.2229 2.46416 42.9199 2.14689 42.7426C2.17688 42.7175 2.20685 42.6924 2.23684 42.6672Z" fill="#B7B7BA"/>
<path d="M61.0816 4.29709C61.346 3.56758 61.7228 2.88983 62.0504 2.13552C62.4374 2.46107 62.558 2.90613 62.7368 3.29545C63.3692 4.67229 63.941 6.07567 64.5129 7.47926C64.8538 8.31596 65.112 9.17783 65.4345 10.0176C65.6603 10.6058 65.8522 11.203 66.0566 11.7975C66.2563 12.3783 66.3549 12.983 66.5307 13.5685C66.7212 14.2033 66.8228 14.8602 67.0442 15.4898C67.1802 15.8767 67.2505 16.2974 67.2814 16.7082C67.3317 17.3757 67.6588 17.9464 67.8557 18.5619C67.919 18.7599 68.0682 18.706 68.2134 18.6664C68.6016 18.5606 68.9335 18.3322 69.2885 18.1591C69.8344 17.8931 70.4112 17.7511 70.9977 17.6761C73.2979 17.3817 75.6052 17.2042 77.927 17.383C78.1479 17.4 78.3488 17.4536 78.5534 17.535C78.8883 17.6683 79.0151 17.5939 79.0564 17.2356C79.2593 15.4724 79.6593 13.7498 80.1674 12.0545C80.7326 10.1688 81.3967 8.31604 82.1668 6.50199C82.654 5.35442 83.2191 4.24441 83.7728 3.12931C83.9645 2.74329 84.2265 2.3905 84.4729 2.03384C84.6086 1.83738 84.7779 1.84204 84.8866 2.07057C85.0571 2.42882 85.3047 2.73797 85.4677 3.10296C85.8136 3.8773 86.3167 4.57219 86.6487 5.35639C87.4517 7.25308 88.5011 9.03774 89.2244 10.9695C89.5147 11.745 89.7167 12.5531 89.9974 13.3325C90.4448 14.5746 90.7577 15.8554 91.0788 17.1303C91.3425 18.1773 91.4674 19.2592 91.654 20.3256C91.7601 20.9317 91.8506 21.5549 91.7966 22.1558C91.7115 23.1027 92.299 23.7366 92.7265 24.4277C93.5789 25.8058 94.4734 27.1578 95.3166 28.543C95.7094 29.1883 96.0387 29.8638 96.4102 30.5181C96.4345 30.5608 96.4572 30.62 96.353 30.7303C95.7377 30.7315 95.0581 30.7547 94.385 30.8524C91.3972 31.2861 88.5817 32.193 86.051 33.882C85.749 34.0836 85.474 34.3178 85.2131 34.5695C84.9535 34.82 84.7147 35.0881 84.527 35.4105C84.3182 35.2961 84.2549 35.0963 84.1433 34.9398C83.6213 34.2081 82.9714 33.6196 82.2078 33.1469C81.8207 32.9072 81.8021 32.8762 82.015 32.5204C82.4912 31.7247 82.3553 30.8786 82.2375 30.0438C82.1702 29.5674 81.7457 29.2955 81.2952 29.3361C80.8708 29.3744 80.5781 29.6821 80.5337 30.178C80.4852 30.7191 80.5371 31.261 80.565 31.802C80.5724 31.9444 80.6063 32.0865 80.5514 32.255C80.1926 32.1788 79.8453 32.0949 79.4941 32.0323C77.8617 31.7413 76.2557 31.8631 74.6756 32.3567C73.855 32.6131 73.848 32.6139 73.8362 31.7509C73.8287 31.2035 73.6331 30.6907 73.5704 30.1518C73.525 29.7608 73.2354 29.5616 72.9059 29.5548C72.3909 29.5442 72.0571 29.747 71.9272 30.1479C71.6536 30.9917 71.8154 31.8291 71.9744 32.6635C72.0295 32.953 72.3561 33.0313 72.5508 33.3025C71.1982 34.2038 70.1085 35.3218 69.63 36.9566C69.2612 36.7868 68.9942 36.5134 68.6809 36.3153C67.3217 35.4559 65.8394 34.8886 64.3077 34.4469C61.4229 33.6151 58.4759 33.2082 55.4707 33.2432C55.3624 33.2445 55.254 33.2365 55.1455 33.2328C55.1721 32.8156 55.0263 32.4174 55.0228 31.9996C55.0149 31.0251 55.0768 30.0584 55.2379 29.0979C55.4189 28.0185 55.6081 26.9405 55.7828 25.8602C55.8413 25.4986 56.0366 25.189 56.1231 24.8371C56.5651 23.0379 57.0355 21.2455 57.4702 19.4446C58.0057 17.2259 58.653 15.0349 59.1145 12.7977C59.1658 12.5493 59.1489 12.2995 59.211 12.0497C59.4276 11.1788 59.608 10.299 59.8083 9.42402C60.0004 8.58441 60.1441 7.73318 60.3441 6.89774C60.4978 6.25531 60.6011 5.59085 60.8746 4.97747C60.9 4.92055 60.8661 4.83725 60.8597 4.76619C60.8597 4.76619 60.8544 4.77317 60.8546 4.77318C61.006 4.73935 60.9973 4.63022 60.9764 4.51534C60.9764 4.51534 60.9926 4.47622 60.9927 4.47611C61.0647 4.43737 61.0944 4.37776 61.0816 4.29709Z" fill="#FEA849"/>
<path d="M55.104 33.9626C55.234 33.8739 55.3852 33.8998 55.5249 33.9019C59.1496 33.9559 62.687 34.4944 66.0749 35.834C67.0861 36.2339 68.0487 36.7297 68.9086 37.4067C69.0069 37.4841 69.1144 37.554 69.2267 37.6088C69.7872 37.8824 70.0285 38.3688 70.107 38.9494C70.2382 39.9206 70.5956 40.7838 71.2165 41.5508C71.4763 41.8717 71.6796 42.2408 71.9585 42.5508C72.7341 43.4127 73.6544 44.0359 74.7579 44.439C75.9757 44.8839 77.2169 45.0536 78.4893 44.9494C79.7087 44.8495 80.8702 44.5223 81.8599 43.748C82.1187 43.6344 82.3405 43.4764 82.4628 43.1836C82.1978 43.341 81.9327 43.4983 81.6676 43.6557C80.8457 43.9809 80.0359 44.3379 79.1443 44.4495C76.82 44.7404 74.6896 44.3081 72.8098 42.8385C71.9525 42.1683 71.2576 41.3845 70.8121 40.3857C70.4396 39.5508 70.2117 38.6597 70.2078 37.7676C70.2036 36.8056 70.7064 35.9775 71.3346 35.248C72.4105 33.9984 73.7942 33.2406 75.3585 32.817C77.2354 32.3087 79.109 32.3039 80.9532 33.0181C81.5018 33.2305 81.9888 33.5316 82.4095 33.9315C82.9875 34.481 83.499 35.0949 83.9514 35.7492C84.9806 37.2376 85.2505 39.4159 83.962 41.2419C83.8476 41.404 83.7294 41.5634 83.583 41.7656C83.7501 41.7718 83.834 41.6877 83.9152 41.6156C84.6941 40.9239 85.1285 40.0509 85.2234 39.021C85.302 38.1682 85.2344 37.3246 84.9181 36.5159C84.8502 36.3421 84.8817 36.2 84.9604 36.0207C85.2581 35.3428 85.7882 34.8821 86.3654 34.4761C87.9502 33.3611 89.7248 32.6556 91.5825 32.1483C92.875 31.7953 94.1838 31.522 95.5309 31.4894C95.802 31.4829 96.0735 31.4949 96.3448 31.4922C96.4969 31.4906 96.6235 31.5322 96.7287 31.6829C96.0366 32.7643 95.3917 33.8933 94.6252 34.9329C93.964 35.8296 93.2677 36.7059 92.508 37.5338C91.815 38.2892 91.091 39.0172 90.4149 39.7905C89.8532 40.433 89.2447 41.0433 88.5829 41.599C88.1448 41.9669 87.7941 42.4408 87.4178 42.8788C87.2634 43.0585 87.3228 43.2255 87.4889 43.3957C87.888 43.8045 88.3439 44.1696 88.5949 44.7452C88.3304 44.9396 88.0558 45.1379 87.7851 45.3415C87.563 45.5085 87.379 45.688 87.4196 46.0129C87.4494 46.2519 87.3082 46.4659 87.2304 46.6848C85.5462 51.428 83.8563 56.1692 82.1683 60.911C81.4122 63.0352 80.6534 65.1584 79.908 67.2863C79.807 67.5746 79.6934 67.6774 79.3514 67.6852C77.8339 67.7196 76.3195 67.6215 74.8035 67.626C74.3905 67.4429 73.9642 67.5344 73.5409 67.5653C73.5409 67.5653 73.5631 67.566 73.563 67.566C73.2396 67.4666 72.7715 67.6845 72.6441 67.1463C72.638 67.1208 72.5469 67.1087 72.4939 67.1022C72.346 67.0841 72.2877 66.9626 72.2182 66.8616C71.9836 66.5208 71.725 66.1976 71.5461 65.8178C71.2621 65.2148 70.9734 64.6124 70.6486 64.0309C70.3896 63.5672 70.2541 63.0721 70.1241 62.566C69.9717 61.9727 69.8888 61.3676 69.7836 60.7667C69.6168 59.8135 69.3406 58.8753 69.3619 57.8938C69.3642 57.7872 69.3398 57.6796 69.3238 57.5731C69.2308 56.9523 69.1352 56.3318 69.0433 55.7108C68.9145 54.8412 68.8068 53.968 68.6518 53.1032C68.591 52.7639 68.6195 52.4248 68.5495 52.0844C68.3578 51.1532 68.2451 50.2055 68.0434 49.2768C67.9552 48.8707 68.0002 48.4561 67.8587 48.0544C67.4704 46.9516 66.8727 46.0177 65.8687 45.3765C65.7634 45.3092 65.6668 45.2233 65.5798 45.1329C65.0421 44.5737 64.4814 44.0755 63.7599 43.7217C62.5868 43.1465 61.675 42.1944 60.6972 41.3444C59.7933 40.5587 59.1947 39.496 58.2902 38.7118C58.2767 38.7001 58.2653 38.6854 58.255 38.6707C57.5301 37.6399 56.8468 36.5861 56.3448 35.4227C56.1672 35.0111 55.944 34.6177 55.7215 34.2274C55.5908 33.9981 55.2472 34.2011 55.104 33.9626ZM78.1784 34.2119C77.7177 34.1927 77.2145 34.202 76.7245 34.3453C76.2812 34.4749 76.1514 34.9015 76.4368 35.2522C76.8057 35.7057 77.2784 36.0406 77.732 36.3964C77.8715 36.5058 78.0555 36.6226 78.229 36.5697C78.7198 36.4202 79.2341 36.3522 79.6299 35.9337C79.9505 35.5947 80.2486 35.2368 80.5641 34.8943C80.7576 34.6843 80.6698 34.4728 80.3651 34.4052C79.6601 34.2487 78.9527 34.1014 78.1784 34.2119ZM72.8509 37.4957C72.8621 37.7427 73.0469 37.7815 73.1702 37.8727C73.4942 38.1122 73.8962 38.1897 74.245 38.3801C75.6861 39.1669 77.2405 39.4058 78.857 39.2887C79.6348 39.2324 80.3866 39.051 81.0882 38.6836C81.5758 38.4282 81.8992 38.0304 82.1512 37.5629C82.2196 37.4359 82.2566 37.2678 82.098 37.1758C81.9306 37.0787 81.9012 37.2523 81.8311 37.3481C81.5047 37.7941 81.0926 38.1274 80.5791 38.349C80.1088 38.5519 79.6262 38.6374 79.1182 38.7006C77.0961 38.9519 75.2047 38.5429 73.3861 37.6831C73.2287 37.6088 73.0806 37.4984 72.8509 37.4957Z" fill="#FEEEE1"/>
<path d="M100.493 55.0894C97.6214 54.9861 95.7924 56.0124 94.0908 58.1882C92.8589 59.7633 92.2434 61.5994 92.1532 63.6109C92.0739 65.3793 92.4531 67.0091 93.4762 68.4728C93.7484 68.8621 94.0893 69.1824 94.4401 69.4962C94.5288 69.5756 94.6633 69.6392 94.6381 69.789C94.6093 69.9602 94.2707 70.3108 94.1389 70.3171C94.0671 70.3205 93.9946 70.3077 93.9224 70.3048C92.1703 70.2344 90.4182 70.1139 88.666 70.1118C87.4732 70.1104 86.2842 70.0476 85.0934 70.0253C84.0103 70.005 82.9279 69.9421 81.8455 69.8914C81.2253 69.8623 81.2238 69.8558 81.4183 69.2907C82.1641 67.1237 82.9086 64.9562 83.6584 62.7906C85.3645 57.8626 87.077 52.9369 88.7777 48.0071C89.0364 47.2573 89.2626 46.495 89.4694 45.7292C89.5418 45.4612 89.6378 45.3987 89.9117 45.4184C91.3882 45.5242 92.8663 45.6074 94.3442 45.692C97.0862 45.8488 99.8285 46.0008 102.571 46.156C102.958 46.1779 103.101 46.3736 102.989 46.7663C102.755 47.5965 102.506 48.4229 102.261 49.2502C101.816 50.754 101.385 52.2621 100.914 53.758C100.841 54.0455 100.595 54.7791 100.493 55.0894ZM92.6312 48.5264C92.6312 48.3823 92.6573 48.2325 92.627 48.0951C92.4409 47.2532 91.9501 46.7759 90.9698 47.2574C90.003 47.7322 89.429 49.3773 89.8435 50.3668C90.1316 51.0545 90.8065 51.2764 91.4421 50.8879C91.6116 50.7843 91.7637 50.6576 91.8942 50.5046C92.3806 49.9341 92.6315 49.2757 92.6312 48.5264Z" fill="#949EE3"/>
<path d="M55.104 33.9627C55.2472 34.2012 55.5909 33.9982 55.7215 34.2275C55.944 34.6178 56.1672 35.0112 56.3448 35.4228C56.8468 36.5862 57.5301 37.64 58.255 38.6708C58.2654 38.6855 58.2768 38.7002 58.2903 38.7119C59.1947 39.4961 59.7933 40.5587 60.6972 41.3445C61.675 42.1945 62.5869 43.1465 63.76 43.7218C64.4814 44.0756 65.0422 44.5738 65.5798 45.1329C65.6668 45.2234 65.7634 45.3093 65.8688 45.3766C66.8728 46.0178 67.4704 46.9516 67.8588 48.0545C68.0002 48.4561 67.9553 48.8708 68.0434 49.2769C68.2451 50.2055 68.3579 51.1533 68.5495 52.0845C68.6195 52.4249 68.591 52.764 68.6518 53.1032C68.8068 53.9681 68.9146 54.8413 69.0433 55.7109C69.1352 56.3319 69.2309 56.9523 69.3239 57.5732C69.3398 57.6797 69.3642 57.7873 69.3619 57.8939C69.3406 58.8754 69.6168 59.8136 69.7836 60.7668C69.8888 61.3676 69.9718 61.9728 70.1242 62.5661C70.2541 63.0722 70.3897 63.5673 70.6487 64.031C70.9734 64.6125 71.2621 65.2149 71.5461 65.8179C71.725 66.1977 71.9836 66.5209 72.2182 66.8617C72.2878 66.9627 72.346 67.0842 72.494 67.1023C72.5469 67.1088 72.638 67.1209 72.6441 67.1464C72.7715 67.6846 73.2396 67.4667 73.563 67.566C73.4383 67.6785 73.2886 67.6348 73.1482 67.6251C71.9227 67.5411 70.6947 67.5751 69.468 67.5503C68.1492 67.5236 66.8297 67.5345 65.5106 67.5252C65.1734 67.5228 64.8373 67.5184 64.5496 67.6223C64.465 67.5916 64.4566 67.5635 64.4681 67.5192C64.9074 65.8211 64.254 64.4028 63.311 63.0657C62.7125 62.2171 61.9794 61.4921 61.1467 60.8752C60.8876 60.6832 60.7846 60.4703 60.7756 60.157C60.749 59.2379 60.7837 58.3272 60.9832 57.4248C61.0524 57.1116 61.0322 56.7774 61.0393 56.4629C61.0731 54.9588 61.4998 53.5131 61.635 52.0297C61.7301 50.9862 62.0703 50.0228 62.5037 49.1059C62.8584 48.3554 63.2117 47.5682 63.8634 46.9921C63.9626 46.9044 63.9775 46.7715 64.031 46.6589C64.1437 46.4215 64.1167 46.284 63.8487 46.1509C63.445 45.9504 63.0182 45.8108 62.6092 45.6254C61.1892 44.9818 59.8778 44.16 58.6116 43.264C57.5987 42.5473 56.6811 41.7127 55.758 40.8847C55.0616 40.26 54.3522 39.6553 53.7334 38.9468C52.6563 37.7137 51.4373 36.6129 50.3554 35.3828C50.086 35.0765 50.1054 34.8836 50.4859 34.7217C50.8008 34.5876 51.127 34.472 51.4578 34.3849C52.5461 34.0982 53.6604 33.9849 54.7812 33.9284C54.888 33.923 54.9963 33.9505 55.104 33.9627Z" fill="#ECCAA1"/>
<path d="M95.6682 58.6462C96.035 58.664 96.3688 58.7928 96.6994 58.9409C97.0927 59.1171 97.4836 59.2973 97.8986 59.4246C98.3013 59.5482 98.6307 59.808 98.946 60.081C99.0278 60.1518 99.1088 60.2236 99.1922 60.2923C99.2559 60.3447 99.3179 60.3451 99.3822 60.2849C99.4476 60.2237 99.4439 60.1626 99.3981 60.0956C99.2454 59.8722 99.0935 59.6483 98.8937 59.4623C98.6016 59.1904 98.2865 58.9473 97.9198 58.788C97.3264 58.5302 96.7521 58.2227 96.1154 58.0731C96.5062 57.5618 96.8925 57.0531 97.4491 56.6937C97.7415 56.5048 97.9831 56.2375 98.2477 56.0056C98.5352 55.7778 98.8942 55.7828 99.2241 55.7552C100.029 55.688 100.844 55.6177 101.64 55.8197C102.093 55.9345 102.536 56.094 102.977 56.2506C104.11 56.6529 104.878 57.4716 105.451 58.4866C106.18 59.7748 106.446 61.1795 106.427 62.6455C106.406 64.3339 106.026 65.9379 105.191 67.4088C104.48 68.6599 103.538 69.6956 102.127 70.1748C101.234 70.4784 100.309 70.6055 99.3638 70.4378C98.5681 69.9914 97.9856 69.2956 97.3237 68.6932C97.2588 68.6341 97.2141 68.5506 97.1679 68.4737C96.8428 67.9328 96.4812 67.4129 96.1233 66.8966C95.5427 66.0588 95.2465 65.1277 95.0031 64.1641C95.4733 64.3894 95.9094 64.6588 96.2528 65.0633C96.4235 65.2643 96.6498 65.3435 96.9884 65.2774C96.5421 64.3263 95.6798 63.9235 94.8883 63.4422C94.8632 62.9305 94.8352 62.4261 94.8694 61.9059C94.9219 61.1059 95.1288 60.3612 95.3447 59.6057C95.4379 59.2797 95.6651 59.0006 95.6682 58.6462Z" fill="#FEA849"/>
<path d="M52.7426 59.0784C53.3422 58.8217 53.9758 58.8753 54.6035 58.8759C54.6393 58.8759 54.675 58.8907 54.7109 58.8908C56.1897 58.8947 57.4841 59.4923 58.7464 60.1682C60.3928 61.0498 61.8437 62.1695 62.9036 63.7367C63.4533 64.5495 63.7517 65.4553 63.7889 66.4301C63.8051 66.8567 63.7005 67.2749 63.4651 67.6641C63.204 68.0957 62.9559 68.535 62.6907 68.9654C62.3485 69.5206 61.8424 69.837 61.275 70.085C60.5907 70.3842 59.8587 70.515 59.1305 70.6523C58.8296 70.709 58.8082 70.6806 58.7931 70.3447C58.7395 69.1542 58.6877 67.9636 58.6342 66.7731C58.6212 66.4854 58.6209 66.1963 58.4849 65.9281C58.4318 65.8233 58.384 65.7347 58.2464 65.7752C58.124 65.8113 58.0673 65.8964 58.0893 66.0207C58.1784 66.5227 58.1293 67.0294 58.1469 67.5338C58.174 68.3095 58.1593 69.0871 58.2614 69.8594C58.2778 69.984 58.2688 70.1124 58.2653 70.2389C58.2517 70.7333 58.2358 70.7498 57.7195 70.8137C56.2653 70.9936 54.8323 70.8175 53.4035 70.5604C53.089 70.5038 52.8924 70.3312 52.7703 70.0381C52.1485 68.5457 51.9539 67.0142 52.318 65.4257C52.3518 65.2784 52.4668 65.1298 52.3228 64.9427C51.9071 65.1753 51.7267 65.5489 51.6819 65.9932C51.6037 66.7682 51.5916 67.5446 51.7143 68.3178C51.7652 68.6381 51.8204 68.9578 51.8736 69.2777C51.3267 68.8781 51.0635 68.276 50.7987 67.694C50.2936 66.5839 50.1048 65.414 50.1242 64.185C50.1432 62.9835 50.3952 61.8774 51.0285 60.8576C51.1324 60.6903 51.2583 60.5256 51.3139 60.3416C51.4729 59.8147 51.8556 59.5168 52.3206 59.2984C52.465 59.2306 52.6335 59.2134 52.7426 59.0784Z" fill="#FEA849"/>
<path d="M42.885 77.6523C42.1202 73.6733 41.3682 69.7611 40.6191 65.864C40.7642 65.7385 40.8853 65.8091 41.002 65.8383C42.6466 66.2492 44.292 66.657 45.934 67.0779C46.3239 67.1778 46.7223 67.194 47.1155 67.2188C47.3622 67.2343 47.5128 67.291 47.645 67.4984C47.8675 67.8473 48.1 68.1935 48.3634 68.5118C49.1668 69.4828 50.2134 70.1124 51.3606 70.5968C53.3287 71.4277 55.3853 71.727 57.5091 71.6357C57.6473 71.6298 57.7906 71.5912 58.0195 71.7168C52.944 73.7073 47.9351 75.6718 42.885 77.6523Z" fill="#E6E6E8"/>
<path d="M60.8598 4.76624C60.8661 4.83729 60.9 4.92059 60.8746 4.97752C60.6011 5.59089 60.4978 6.25535 60.3441 6.89778C60.1442 7.73323 60.0005 8.58445 59.8083 9.42406C59.6081 10.2991 59.4277 11.1789 59.211 12.0497C59.1489 12.2996 59.1658 12.5493 59.1146 12.7978C58.653 15.0349 58.0057 17.2259 57.4702 19.4446C57.0355 21.2456 56.5651 23.0379 56.1231 24.8371C56.0366 25.1891 55.8413 25.4987 55.7829 25.8602C55.6081 26.9406 55.419 28.0186 55.2379 29.0979C55.0769 30.0584 55.0149 31.0252 55.0229 31.9996C55.0263 32.4175 55.1721 32.8156 55.1456 33.2329C54.301 33.3121 53.4498 33.3322 52.6129 33.4829C51.6687 33.6529 50.7415 33.8858 49.7604 34.3687C50.8984 30.6909 52.0976 27.1421 53.2308 23.5084C53.6134 23.8604 53.8895 24.228 54.1393 24.6132C54.2135 24.7276 54.2646 24.8385 54.4154 24.8162C54.5782 24.7922 54.578 24.6548 54.5977 24.5271C54.6918 23.9146 54.9756 23.3625 55.1763 22.7851C55.6977 21.2849 56.1531 19.7637 56.6561 18.258C56.908 17.5041 56.9869 16.692 57.3187 15.9795C57.5367 15.5114 57.443 15.1709 57.2562 14.7798C57.2253 14.715 57.219 14.6369 57.182 14.5769C56.5427 13.5409 56.918 12.5446 57.3771 11.6064C58.4316 9.45121 59.5584 7.33148 60.5997 5.16913C60.6686 5.0261 60.7101 4.85963 60.8598 4.76624Z" fill="#ED751E"/>
<path d="M52.7624 10.8678C52.6609 10.104 52.8986 9.4063 53.1698 8.71106C53.2765 8.43743 53.456 8.41114 53.6836 8.5047C54.0134 8.64024 54.235 8.87467 54.3954 9.2057C55.12 10.7011 55.7039 12.2551 56.3399 13.7873C56.492 14.1538 56.6299 14.5262 56.7802 14.8934C56.9076 15.2045 56.9171 15.5114 56.8314 15.8401C56.5036 17.0985 56.1312 18.3422 55.6629 19.5561C55.5199 19.5595 55.4411 19.4748 55.3607 19.3664C54.7005 18.4765 54.2231 17.5018 53.9375 16.4292C53.8361 16.0485 53.9012 15.5986 53.5199 15.3192C53.4973 15.3026 53.4987 15.2521 53.4903 15.2171C53.3862 14.7841 53.2525 14.3557 53.1848 13.9171C53.0482 13.0315 52.9548 12.14 52.9642 11.241C52.9658 11.0836 52.9987 10.9007 52.7624 10.8678Z" fill="#FEEEE1"/>
<path d="M52.7427 59.0784C52.6336 59.2134 52.4651 59.2306 52.3207 59.2984C51.8557 59.5168 51.473 59.8147 51.3139 60.3416C51.2584 60.5256 51.1325 60.6903 51.0286 60.8576C50.3953 61.8774 50.1433 62.9835 50.1243 64.185C50.1049 65.414 50.2937 66.5839 50.7988 67.694C51.0636 68.276 51.3268 68.8781 51.8736 69.2776C51.9809 69.5618 52.0882 69.846 52.2181 70.1899C51.891 70.1757 51.648 70.0358 51.3955 69.9393C50.6647 69.6599 50.0004 69.2621 49.3962 68.7694C48.799 68.2825 48.3061 67.719 48.1389 66.9319C48.1017 66.7572 48.0262 66.5896 47.9583 66.4228C47.5618 65.4486 47.5132 64.4547 47.8512 63.4626C48.6003 61.2644 50.086 59.8102 52.3178 59.1301C52.4573 59.0875 52.5959 59.0541 52.7427 59.0784Z" fill="#ED751E"/>
<path d="M52.7623 10.8678C52.9986 10.9006 52.9657 11.0836 52.9641 11.241C52.9548 12.1399 53.0482 13.0315 53.1848 13.9171C53.2524 14.3557 53.3862 14.7841 53.4903 15.2171C53.4987 15.2521 53.4972 15.3025 53.5199 15.3192C53.9012 15.5986 53.8361 16.0485 53.9374 16.4292C54.223 17.5018 54.7005 18.4765 55.3607 19.3664C55.4411 19.4748 55.5199 19.5595 55.6628 19.5561C55.2087 20.9192 54.8184 22.3044 54.2656 23.6704C53.9815 23.4953 53.8646 23.2215 53.671 23.0207C52.6254 21.9361 52.0345 20.6074 51.5966 19.1971C51.3122 18.2812 51.0823 17.3535 51.1101 16.3824C51.1141 16.2416 51.0662 16.0812 51.2213 15.9936C51.3899 15.8983 51.5356 15.9892 51.6695 16.0873C51.8748 16.2378 52.0443 16.4234 52.2071 16.6192C52.5418 17.0215 52.8892 17.4133 53.2309 17.8099C53.3171 17.91 53.4207 17.9738 53.5617 17.9778C53.6819 17.8705 53.61 17.7443 53.5801 17.6347C53.218 16.3104 52.9396 14.9671 52.7311 13.612C52.5911 12.7017 52.5286 11.7798 52.7623 10.8678Z" fill="#ECCAA1"/>
<path d="M92.3826 15.5426C92.6374 15.5275 92.7029 15.3496 92.833 15.2649C93.1437 15.0626 93.3144 15.126 93.4352 15.47C93.5086 15.679 93.5052 15.8957 93.5144 16.1119C93.557 17.1248 93.2543 18.0726 92.9511 19.017C92.787 19.528 92.5782 20.0247 92.3559 20.6174C92.19 20.1536 92.1441 19.7703 92.0826 19.3924C91.8886 18.1998 91.6063 17.0297 91.2718 15.868C91.0482 15.0915 90.8917 14.2956 90.6505 13.5217C90.4785 12.9696 90.3095 12.4156 90.0452 11.9018C89.7834 11.3929 89.7815 10.8993 90.0437 10.4044C90.2381 10.0376 90.4392 9.67225 90.6673 9.32598C90.9084 8.96001 91.2073 8.96924 91.4212 9.34818C91.553 9.58168 91.6727 9.83821 91.7228 10.0988C91.9368 11.2135 92.1934 12.3206 92.2047 13.4688C92.2114 14.1498 92.318 14.8298 92.3826 15.5426Z" fill="#FEEEE1"/>
<path d="M59.9531 60.0027C59.6306 59.8269 59.4143 59.7057 59.1951 59.5901C58.4423 59.1934 57.6666 58.8529 56.8484 58.6103C56.4743 58.4994 56.4727 58.4601 56.5639 58.0622C56.6636 57.6279 56.9143 57.2656 57.1657 56.9241C57.5944 56.3419 57.9705 55.7326 58.3078 55.0968C58.5615 54.6185 58.8594 54.1717 59.2023 53.7526C59.4521 53.4473 59.7156 53.1542 59.8396 52.7589C59.8902 52.5975 60.0429 52.4623 60.1655 52.3304C60.4359 52.0395 60.7172 51.7586 60.9089 51.3839C61.0465 51.6524 61.0434 51.6518 60.8135 52.7624C60.7185 53.2214 60.6632 53.6897 60.5474 54.1429C60.4261 54.6175 60.3849 55.0987 60.3288 55.5811C60.2724 56.0656 60.2359 56.5502 60.2022 57.0365C60.1699 57.5026 60.0713 57.9637 60.0159 58.4287C59.9583 58.9113 59.901 59.3948 59.9531 60.0027Z" fill="#ED751E"/>
<path d="M95.0031 64.1641C95.2465 65.1277 95.5427 66.0587 96.1233 66.8965C96.4812 67.4128 96.8428 67.9327 97.1679 68.4736C97.2141 68.5505 97.2588 68.634 97.3236 68.6931C97.9856 69.2955 98.5681 69.9913 99.3638 70.4378C98.65 70.394 97.938 70.3649 97.2362 70.1826C96.8555 70.0837 96.5578 69.8604 96.234 69.6795C94.53 68.7273 93.5265 67.2641 93.161 65.3591C93.0393 64.7247 93.0209 64.0812 93.0299 63.3807C93.772 63.5351 94.419 63.7664 95.0031 64.1641Z" fill="#ED751E"/>
<path d="M80.2793 69.9227C79.8896 69.5719 79.9645 69.2333 80.0895 68.8824C80.4037 68.0004 80.7122 67.1164 81.0248 66.2338C82.758 61.3401 84.5436 56.4649 86.2299 51.5545C86.7331 50.0891 87.2678 48.6344 87.7858 47.174C87.8702 46.936 87.9914 46.6977 88.0107 46.4528C88.0533 45.9142 88.3541 45.611 88.8672 45.3959C86.0029 53.5763 83.1506 61.7224 80.2793 69.9227Z" fill="#D9F5FC"/>
<path d="M95.6683 58.6462C95.6652 59.0006 95.438 59.2797 95.3448 59.6057C95.1289 60.3612 94.922 61.1059 94.8695 61.9059C94.8353 62.4261 94.8633 62.9306 94.8883 63.4423C94.3844 63.3073 93.9293 63.0368 93.4124 62.9285C93.1817 62.8802 93.0654 62.7459 93.1198 62.4233C93.34 61.1175 93.842 59.9366 94.566 58.8411C94.8835 58.3608 94.8915 58.364 95.4283 58.5309C95.5121 58.557 95.5885 58.6072 95.6683 58.6462Z" fill="#ED751E"/>
<path d="M98.2477 56.0056C97.9831 56.2375 97.7415 56.5048 97.4491 56.6937C96.8925 57.0531 96.5062 57.5618 96.1155 58.0731C95.8644 58.0633 95.6385 57.9254 95.372 57.9537C95.7525 57.2052 97.2326 56.2111 98.2477 56.0056Z" fill="#ED751E"/>
<path d="M81.6676 43.6557C81.9326 43.4983 82.1977 43.341 82.4628 43.1836C82.3404 43.4764 82.1186 43.6343 81.8599 43.7479C81.8168 43.6734 81.7457 43.6574 81.6676 43.6557Z" fill="#090707"/>
<path d="M73.541 67.5653C73.9643 67.5344 74.3905 67.4429 74.8035 67.626C74.3819 67.6216 73.9568 67.6911 73.541 67.5653Z" fill="#ECCAA1"/>
<path d="M60.9764 4.51538C60.9973 4.63026 61.006 4.73939 60.8546 4.77322C60.8557 4.66868 60.8889 4.57922 60.9764 4.51538Z" fill="#ED751E"/>
<path d="M61.0817 4.29712C61.0945 4.37779 61.0648 4.43739 60.9927 4.47613C60.9881 4.39957 61.0161 4.33901 61.0817 4.29712Z" fill="#ED751E"/>
<path d="M78.1784 34.2119C78.9527 34.1014 79.6601 34.2487 80.3651 34.4052C80.6698 34.4728 80.7576 34.6843 80.5642 34.8943C80.2486 35.2369 79.9505 35.5947 79.6299 35.9337C79.2341 36.3522 78.7199 36.4202 78.229 36.5697C78.0555 36.6226 77.8715 36.5059 77.732 36.3964C77.2785 36.0407 76.8057 35.7057 76.4368 35.2522C76.1514 34.9015 76.2812 34.4749 76.7246 34.3453C77.2145 34.202 77.7178 34.1927 78.1784 34.2119Z" fill="#080606"/>
<path d="M72.8509 37.4957C73.0806 37.4984 73.2287 37.6087 73.3861 37.6832C75.2047 38.5429 77.0961 38.9519 79.1182 38.7006C79.6261 38.6374 80.1088 38.5519 80.5791 38.349C81.0926 38.1274 81.5047 37.7941 81.8311 37.3481C81.9012 37.2523 81.9306 37.0787 82.098 37.1758C82.2566 37.2678 82.2196 37.4359 82.1511 37.5629C81.8992 38.0304 81.5758 38.4282 81.0882 38.6836C80.3866 39.051 79.6348 39.2324 78.857 39.2887C77.2405 39.4058 75.6861 39.1669 74.245 38.3801C73.8961 38.1897 73.4941 38.1122 73.1702 37.8727C73.0469 37.7815 72.862 37.7427 72.8509 37.4957Z" fill="#090707"/>
<path d="M92.6312 48.5265C92.6314 49.2758 92.3806 49.9342 91.8942 50.5047C91.7637 50.6577 91.6116 50.7844 91.4421 50.888C90.8065 51.2765 90.1316 51.0547 89.8435 50.3669C89.429 49.3775 90.003 47.7323 90.9698 47.2575C91.9501 46.776 92.4409 47.2533 92.627 48.0952C92.6573 48.2326 92.6312 48.3824 92.6312 48.5265ZM90.4389 49.6041C90.4436 49.7278 90.4199 49.947 90.5179 50.1486C90.6429 50.4059 90.8478 50.4638 91.0943 50.3172C91.7277 49.9405 92.1732 48.6925 91.9144 48.0195C91.7751 47.6573 91.521 47.5756 91.1906 47.7942C91.023 47.9051 90.9002 48.0615 90.8021 48.2351C90.578 48.6316 90.4321 49.0513 90.4389 49.6041Z" fill="#090707"/>
<path d="M90.439 49.604C90.4322 49.0512 90.5781 48.6315 90.8021 48.235C90.9002 48.0614 91.0231 47.905 91.1907 47.7941C91.521 47.5755 91.7752 47.6573 91.9145 48.0195C92.1732 48.6924 91.7278 49.9404 91.0944 50.3171C90.8478 50.4638 90.643 50.4058 90.5179 50.1485C90.42 49.947 90.4436 49.7277 90.439 49.604Z" fill="#758DB4"/>
</g>
<path d="M21.0885 9.59291C22.8121 8.70467 25.678 8.91206 27.0471 9.0479C30.9802 11.2691 33.8237 14.6394 34.0377 15.8701C34.2518 17.1008 31.9809 23.1017 31.9809 23.1017L34.4476 27.158L28.8297 26.1174C28.8297 26.1174 24.9837 27.5895 22.1315 27.1581C18.8836 24.807 16.8077 23.1017 15.8446 19.0272C17.2358 14.4789 18.4583 11.4786 21.0885 9.59291Z" fill="#2BCFAC" stroke="black" stroke-linejoin="round"/>
<path d="M28.5961 14.1917C29.0507 14.6462 29.2098 14.8133 29.5257 15.1326C29.7518 15.361 29.8462 15.5554 30.4144 16.1804C28.0279 18.3964 25.8687 20.6692 23.4822 22.9989C23.472 22.9989 20.6241 20.1556 19.2206 18.7373C19.2206 18.718 20.0502 17.885 20.4389 17.493C20.7162 17.2134 21.2094 16.8054 21.2094 16.8054C21.2094 16.8054 22.1708 17.8009 22.4981 18.1373C22.6776 18.3225 23.4822 19.1919 23.4822 19.1919C23.4822 19.1919 24.5061 18.1623 24.7175 17.9577C25.1493 17.5384 25.58 17.1179 26.0073 16.6952C26.8608 15.8508 27.7597 15.0531 28.5961 14.1917Z" fill="white"/>
<defs>
<clipPath id="clip0_8594_9460">
<rect width="107" height="81.2407" fill="white" transform="translate(0.81044)"/>
</clipPath>
</defs>
</svg>
