<svg width="122" height="160" viewBox="0 0 74 97" fill="none" xmlns="http://www.w3.org/2000/svg">
<g clip-path="url(#clip0_8120_15658)">
<path d="M29.2793 1.13231C29.9167 1.13231 30.5542 1.13231 31.1908 1.13231C32.0998 1.54494 33.2494 1.27941 34.2361 1.49817C35.2289 1.71844 36.2495 2.0843 37.209 2.42451C39.2277 3.13963 41.0683 4.30661 42.5913 5.81154C48.5213 11.6721 49.5457 20.1849 50.7617 28.0226C51.3908 32.081 52.0441 36.122 52.5947 40.191C52.8799 42.2964 53.1635 44.3995 53.417 46.5094C53.552 47.6357 53.6976 48.7612 53.8492 49.8859C53.9533 50.6614 53.9232 51.6262 54.3222 52.3043V52.7826C52.1866 52.8852 50.0511 52.9855 47.914 53.061C46.996 53.0934 42.5823 53.7172 42.1802 52.9772C41.8513 52.3715 42.0105 50.942 41.9584 50.2706C41.8845 49.3103 41.8158 48.35 41.7449 47.389C41.5812 45.1652 41.4108 42.9421 41.2569 40.7183C41.0094 37.1434 40.6526 33.5799 40.0657 30.0435C39.4404 26.2748 38.9259 22.417 37.9815 18.7124C37.1992 15.6437 35.213 12.6588 31.6593 13.1551C28.1938 13.6394 26.7417 16.7941 26.6843 19.9858C26.6217 23.4678 27.3753 27.0163 27.8626 30.4516C28.3741 34.0566 28.8365 37.5915 29.4151 41.1845C30.0088 44.8732 30.7488 48.562 31.2436 52.2644C31.3968 53.408 30.6485 53.162 29.6625 53.2164C28.6298 53.2729 27.5971 53.3265 26.5636 53.371C25.1643 53.4313 23.0514 53.1092 21.8218 53.7376H19.7187C18.9726 48.5205 18.2349 43.3019 17.4715 38.0879C17.0732 35.3654 16.6847 32.6437 16.3739 29.9092C16.2343 28.6789 16.1046 27.447 15.9635 26.2167C15.8843 25.5257 16.0141 23.9099 15.5132 23.4173C15.5132 21.3134 15.5132 19.2088 15.5132 17.1049C16.0163 16.7896 15.8971 14.9475 16.0171 14.3726C16.2185 13.4033 16.4863 12.4106 16.8303 11.4835C17.5099 9.6557 18.3895 7.85959 19.6425 6.35844C20.8691 4.88897 22.4177 3.81326 24.1294 2.98122C24.9674 2.57387 25.8327 2.20952 26.7145 1.90627C27.3565 1.686 28.8131 1.6083 29.277 1.1308L29.2793 1.13231Z" fill="#E0E0DE"/>
<path d="M4.57664 76.3447C4.43633 75.0389 4.29376 73.7332 4.15647 72.4266C4.05388 71.4505 3.95128 70.4736 3.8585 69.496C3.69631 67.7927 3.53337 66.0901 3.38854 64.3853C3.32819 63.6732 3.3297 62.9565 3.27539 62.2444C3.20071 61.266 3.09962 60.2899 3.01212 59.313C2.94121 58.524 2.87634 57.7342 2.80392 56.9451C2.68247 55.6205 2.55046 54.2974 2.4358 52.9727C2.38375 52.373 2.37469 51.7688 2.32415 51.1691C2.24419 50.2231 2.1416 49.2787 2.05636 48.3335C1.98319 47.5286 1.90624 46.7229 1.8557 45.9165C1.77725 44.6651 1.70634 43.4136 1.65731 42.1606C1.61054 40.971 2.09483 39.9383 2.6191 38.9026C3.07322 38.0049 3.88641 37.5621 4.65057 37.0311C5.25178 36.6139 5.9405 36.7595 6.59 36.718C8.37781 36.6041 10.1686 36.5362 11.9587 36.4706C13.3097 36.4208 14.6623 36.411 16.0133 36.365C16.5414 36.3469 17.0566 36.3167 17.5047 36.678C17.5809 36.7399 17.7151 36.7444 17.8238 36.7482C18.9364 36.7844 20.0514 36.8651 21.1625 36.8349C22.4932 36.7987 23.8224 36.6705 25.1508 36.5747C25.9579 36.5166 26.7651 36.4562 27.5692 36.371C28.055 36.3197 28.5363 36.2209 29.0183 36.1372C29.2522 36.0964 29.4822 36.0051 29.7161 35.9991C32.388 35.9274 35.0606 35.8656 37.7326 35.8083C37.9174 35.8045 38.1595 35.7962 38.281 35.9003C38.9953 36.509 39.8274 36.2247 40.6164 36.2488C40.8518 36.2563 41.0886 36.1922 41.3255 36.1877C43.4588 36.1477 45.5929 36.116 47.7262 36.0783C49.0629 36.0542 50.3996 36.0315 51.7355 35.9855C51.909 35.9795 52.075 35.8316 52.2485 35.7592C52.459 35.6717 52.6709 35.5352 52.8874 35.5246C54.0303 35.468 55.1754 35.4432 56.3197 35.4092C57.2506 35.3813 58.1822 35.3194 59.1131 35.336C60.4143 35.3587 61.7141 35.4416 63.0146 35.4929C63.1224 35.4975 63.2348 35.4394 63.3405 35.4507C63.6301 35.4831 63.9175 35.5337 64.2042 35.5865C64.2804 35.6008 64.3467 35.6634 64.4229 35.68C65.697 35.9561 66.4627 36.8063 67.0775 37.8993C67.7127 39.0278 67.8809 40.2589 68.0649 41.4976C68.2513 42.7498 68.4444 44.0012 68.6156 45.255C68.7657 46.3533 68.9121 47.4524 69.0184 48.5553C69.1701 50.1273 69.2636 51.7054 69.4175 53.2775C69.5842 54.9778 69.7841 56.6743 69.9832 58.3708C70.1877 60.1134 70.4162 61.8537 70.6154 63.597C70.6652 64.0315 70.6214 64.475 70.6546 64.9126C70.7353 65.9694 70.8432 67.0247 70.9262 68.0816C70.9752 68.6979 70.9858 69.3172 71.0363 69.9335C71.1548 71.369 71.289 72.8038 71.4127 74.2393C71.5146 75.4229 71.5915 76.6087 71.713 77.7901C71.8457 79.08 72.026 80.3654 72.1686 81.6546C72.2538 82.4255 72.3165 83.1987 72.3715 83.972C72.4764 85.4414 72.5141 86.9177 72.6838 88.3796C72.8023 89.4002 72.8317 90.4013 72.3459 91.302C72.0238 91.8994 71.5493 92.4554 71.0295 92.8951C70.4208 93.4096 69.7283 93.8426 68.8676 93.8992C68.1238 93.9482 67.3853 94.0787 66.643 94.1647C64.0156 94.4672 61.3739 94.4016 58.7374 94.4665C56.8968 94.5117 55.0584 94.6392 53.2193 94.7425C51.0649 94.8632 48.9128 95.0367 46.7568 95.1129C45.0188 95.174 43.277 95.1046 41.5375 95.1333C40.4324 95.1514 39.3288 95.2585 38.2236 95.2955C37.7092 95.3128 37.1917 95.2555 36.6757 95.2397C36.3491 95.2299 36.0209 95.2246 35.6943 95.2351C33.9299 95.2917 32.1647 95.3475 30.4003 95.4154C29.0357 95.4682 27.6718 95.5324 26.3079 95.6048C24.7238 95.6893 23.1412 95.8009 21.5563 95.8748C20.7816 95.911 20.0038 95.8748 19.2276 95.8929C18.3541 95.9133 17.4805 95.9653 16.607 95.9895C16.1265 96.0031 15.646 95.9812 15.1654 95.9895C14.4413 96.0023 13.7178 96.0347 12.9937 96.0461C11.9496 96.0619 10.8996 96.1411 9.86387 96.0536C8.92773 95.9744 8.15678 95.515 7.52916 94.7388C6.54247 93.5197 6.21207 92.0887 5.96766 90.6147C5.79944 89.6017 5.68327 88.5803 5.55956 87.5604C5.45847 86.7283 5.37022 85.894 5.29403 85.059C5.13109 83.2606 4.98172 81.4607 4.8218 79.6616C4.72374 78.5572 4.61813 77.4536 4.51629 76.35C4.53666 76.3477 4.55627 76.3462 4.57664 76.344V76.3447Z" fill="#D7DCA7"/>
<path d="M11.1033 88.6549C11.0934 88.5621 11.0836 88.4701 11.0738 88.3773C11.0731 87.927 11.0716 87.4774 11.0708 87.0271C11.0007 86.1746 12.4535 86.852 12.8292 86.9886C13.9064 87.3801 14.9535 87.7942 16.0646 88.0922C18.348 88.704 20.6835 88.8775 23.0386 88.6783C25.1477 88.5003 27.665 88.1782 29.5961 87.2654C30.6386 86.7728 30.0819 86.2372 29.8692 85.2317C29.6331 84.1138 29.529 82.9724 29.4226 81.8364C29.1971 79.4345 29.1186 77.0229 29.4792 74.6286C29.6565 73.451 30.0057 72.3391 30.3527 71.2046C30.7005 70.067 30.3972 69.9388 29.4784 69.2621C27.7457 67.9873 26.3894 66.3088 24.9682 64.7141C23.5817 63.1579 21.9251 61.3671 21.3767 59.2934C21.0629 58.106 21.9915 57.4301 22.7549 56.6539C23.6368 55.7578 24.5548 54.8986 25.5166 54.0876C26.4181 53.328 27.355 52.6121 28.3183 51.9332C28.9066 51.5183 31.0498 50.518 31.0528 49.6996C31.0143 49.6415 30.9766 49.5834 30.9381 49.5253C31.2874 47.908 31.5393 46.2726 31.8705 44.6522C31.9957 44.0389 32.1398 43.308 32.7365 42.9527C33.5798 42.451 34.0528 44.1755 34.5062 44.7895C35.4386 43.7387 38.2085 39.2126 39.3204 41.7729C40.3117 44.0555 40.5085 46.818 40.8163 49.2568C40.8306 49.3088 40.845 49.3601 40.8601 49.4122C40.9166 49.3586 40.974 49.305 41.0306 49.2522C41.9328 47.8582 42.8832 46.3382 43.4181 44.7548C43.449 44.6907 43.4807 44.6266 43.5116 44.5625C44.1558 43.523 44.7533 42.0128 45.7716 41.2893C47.1513 40.3102 47.8416 41.5209 48.4473 42.6419C48.7347 43.1737 48.7113 43.3849 49.1873 43.3495C49.6905 43.3117 49.9258 42.5921 50.4984 43.1126C51.2799 43.8232 50.7752 46.3337 50.6168 47.2404C50.6259 47.2894 50.6357 47.3385 50.6447 47.3875C50.6968 47.3407 50.7488 47.294 50.8001 47.2472C52.4771 46.1489 52.5872 47.6213 52.4423 49.1323C52.2945 50.6682 51.5892 51.9506 50.9608 53.3242C50.6862 53.5618 50.8258 53.7255 51.0581 53.8726C52.3186 55.4643 53.6591 57.0183 54.8035 58.6967C55.2764 59.3907 55.6642 59.9897 55.6981 60.8549C55.7328 61.7443 55.1127 62.2746 54.556 62.9414C52.0727 65.9158 49.1413 68.0144 45.8908 70.064C45.7845 70.1379 45.6789 70.2126 45.5725 70.2865C45.6517 70.3439 45.7301 70.4019 45.8094 70.4593C48.0369 71.8488 50.2125 73.1515 52.1889 74.8835C54.2822 76.7174 56.365 78.558 58.413 80.4423C58.576 80.6105 58.7381 80.7788 58.9011 80.947C60.3102 82.8072 61.7835 84.6554 62.8735 86.7291C63.8715 88.6278 64.5029 90.6343 65.0415 92.7013C65.3191 93.7649 65.8298 94.3563 64.5285 94.4144C63.3525 94.4664 62.1682 94.4446 60.9906 94.4702C58.5088 94.5238 56.0338 94.6648 53.5565 94.8157C53.4238 94.8255 53.2917 94.8353 53.159 94.8451C47.9283 95.1785 42.7218 95.1695 37.4874 95.3566C37.2965 95.3641 37.1049 95.3717 36.9141 95.3792C33.9389 95.3732 30.9864 95.4132 28.018 95.6432C27.9547 95.65 27.8905 95.6568 27.8272 95.6636C26.9665 95.6885 26.105 95.7126 25.2443 95.7375L24.8618 95.7571C24.2237 95.7866 23.5862 95.8167 22.948 95.8461L22.7572 95.8544C20.9053 95.9389 19.0564 96.0038 17.2029 96.0332C16.4765 96.0445 15.5011 96.2475 14.7913 96.0921C14.0694 95.9336 13.6613 95.2049 13.2101 94.6799C13.1128 94.5728 13.0155 94.4649 12.9182 94.3578C12.4007 93.5084 11.8237 92.7775 11.5423 91.8028C11.2451 90.7739 11.2986 89.7005 11.1055 88.6557L11.1033 88.6549Z" fill="#FEAD3B"/>
<path d="M30.3761 91.3857C30.6741 88.4015 32.6105 85.931 33.7299 83.2365C34.2595 81.9631 35.1572 80.9304 35.7825 79.7054C36.4516 78.3943 36.9985 76.995 37.424 75.5866C38.2877 72.7246 38.3496 69.7585 38.7471 66.8196C38.9448 65.3561 38.9764 63.8685 39.2322 62.4127C39.429 61.2909 39.8522 59.138 40.7665 58.4048C40.7876 58.8868 40.6828 59.135 40.8585 59.5665C40.9174 59.7106 41.1105 59.7121 41.192 59.9256C41.2681 60.1247 41.0871 60.3601 41.2244 60.5743C41.9237 61.6674 42.7746 58.7171 42.7859 58.1906C42.417 58.7382 41.852 58.4199 41.6476 57.8375C41.4364 57.2348 41.9772 56.0475 42.1341 55.4764C42.626 53.6818 43.2679 51.931 43.934 50.1945C44.6348 48.3667 45.3922 46.5615 46.1797 44.7692C46.7372 43.5011 47.8287 41.9026 48.7905 43.784C51.3591 41.8431 50.6688 46.2515 50.4116 47.6968C50.7918 47.4222 51.3613 46.8112 51.8758 47.03C52.4936 47.2932 52.3775 48.4376 52.3458 48.9739C52.302 49.7283 52.118 50.4713 51.8728 51.1834C51.6223 51.9083 50.9713 52.4545 51.0249 53.1621C51.0747 53.8199 51.7989 54.4158 52.0056 54.8216C52.5328 55.8589 52.7833 56.3771 53.2608 57.0123C54.1291 58.1672 56.067 59.7204 55.8527 61.309C55.6845 62.556 53.389 64.3506 52.5638 65.2037C51.3463 66.4628 50.088 67.5747 48.6004 68.507C47.8717 68.9642 47.1272 69.3911 46.4015 69.8536C45.7007 70.3001 45.147 70.3559 45.9994 70.933C47.4425 71.9107 49.0462 72.6643 50.4335 73.7271C51.7031 74.6995 52.8527 75.8627 54.0529 76.9203C55.3126 78.0307 56.6508 79.0762 57.8389 80.2651C60.1344 82.5628 61.8815 85.3554 63.2876 88.2657C63.9831 89.705 64.395 91.2409 64.8152 92.7767C64.9215 93.1652 65.4254 94.0093 65.0558 94.3488C64.662 94.7101 62.712 94.339 62.1138 94.3488C58.4583 94.4106 54.9724 94.5283 51.3266 94.8014C47.2894 95.1039 43.2928 94.8323 39.2571 95.0277C37.3108 95.122 35.4717 94.9877 33.524 95.0277C32.7018 95.0443 31.8471 95.8877 31.4013 95.1318C30.9343 94.3397 30.7035 93.2972 30.3761 92.4373C30.3761 92.0865 30.3761 91.7357 30.3761 91.3849V91.3857Z" fill="#FE881A"/>
<path d="M40.6149 49.164C40.7099 49.5676 40.9845 49.7562 40.464 49.8429C40.0718 49.9078 39.3642 49.7615 38.907 49.7396C38.1746 49.7041 37.5032 49.7396 36.7624 49.6672C36.5535 49.6468 36.251 49.631 36.0013 49.5774C35.8195 49.5389 35.6973 49.3647 35.7214 49.1806C35.8768 47.9933 36.3528 46.8097 36.9186 45.7695C37.5243 44.6568 38.1534 43.4875 39.294 42.9248C40.1909 43.9598 40.2724 45.5349 40.3886 46.7501C40.4384 47.2676 40.5379 47.8175 40.5493 48.335L40.6149 49.164Z" fill="#FE881A"/>
<path d="M34.5046 45.166C34.169 45.7913 33.9283 46.0878 33.524 46.6747C32.8873 47.5995 32.4355 48.6978 31.789 49.6166C31.7271 49.7049 31.2315 49.6453 31.1395 49.6988C31.0837 49.7313 31.2285 47.6651 31.3982 46.735C31.571 45.7868 31.7151 44.8242 32.0085 43.9122C32.1405 43.5019 32.6044 43.1994 32.9182 42.8478C33.045 42.8478 33.1725 42.8478 33.2992 42.8478C33.7971 42.9821 34.0354 43.3993 34.2851 43.7893C34.4164 43.9937 34.8071 44.6017 34.5046 45.166Z" fill="#FEF9DF"/>
<path d="M36.9186 54.369C39.0685 54.5712 40.1525 54.7824 41.9418 55.7208C43.406 56.5566 45.2873 58.4848 45.8855 60.7025C46.4294 62.7204 45.568 65.0114 43.8963 66.3307C42.7618 67.2269 41.5164 67.8183 40.0816 67.9948C39.8364 68.025 39.758 68.1344 39.8296 68.3841C40.3833 70.3145 40.9317 72.2463 41.4771 74.179C41.9629 75.9019 42.4216 77.6324 42.9315 79.3478C43.4098 80.9553 43.7206 82.5689 44.2358 84.1651C44.3354 84.4736 44.4825 84.5249 44.1588 84.5219C42.9277 84.5113 41.6959 84.5015 40.4655 84.537C39.6154 84.5611 38.7502 84.5754 37.9211 84.7437C36.1152 85.111 34.2791 85.3962 32.6052 86.2471C32.2831 86.4108 31.9406 86.5337 31.6072 86.6748C31.3236 86.7955 31.3869 86.7495 31.4118 86.4281C31.442 86.0336 31.4398 85.6134 31.4873 85.2211C31.6351 83.9984 31.5989 82.765 31.7649 81.5452C32.0161 79.6993 32.2424 77.8481 32.5524 76.0113C32.8941 73.9866 33.4267 71.9982 33.8258 69.9833C33.9517 69.3474 34.1705 68.6428 34.3538 68.022C34.4707 67.6275 34.0898 67.5792 33.7873 67.4668C33.0043 67.1749 32.182 66.9418 31.4654 66.5276C29.6436 65.4738 28.353 63.9493 28.0814 61.7978C27.8543 59.9965 28.7158 58.2841 29.9786 56.9338C31.009 55.8317 32.9085 55.0102 34.3538 54.6708C35.2998 54.4482 36.1567 54.4784 36.9186 54.369Z" fill="#FEF9DF"/>
<path d="M52.5531 49.5306C52.3736 50.6938 50.4711 53.5015 50.1196 53.0866C49.7575 52.6604 48.6569 47.8092 48.4321 47.2954C48.1379 46.6218 48.3439 46.0379 48.5996 45.4677C48.924 44.7442 49.3457 44.0646 49.7017 43.354C49.8413 43.0756 50.7435 43.2868 50.8114 43.4686C51.1365 44.3414 50.8114 46.9967 50.7148 47.5187C50.9479 47.3573 51.402 46.1466 52.6512 47.4184C52.6512 48.0558 52.5645 49.4604 52.5531 49.5298V49.5306Z" fill="#FEC464"/>
<path d="M43.7364 95.2442C42.5211 95.2442 17.9384 96.1079 16.8152 96.129C16.2653 96.1396 15.7153 96.157 15.1654 96.1751C14.7362 96.1894 14.4035 96.0219 14.1433 95.6787C13.6627 95.0458 13.1973 94.4001 12.6791 93.7989C11.9707 92.9781 11.6486 91.996 11.5279 90.967C11.3733 89.6454 11.3409 88.3102 11.2518 86.981C11.233 86.7027 13.1234 87.107 13.8596 87.4073C14.706 87.752 15.5946 88.004 16.4795 88.2393C18.3495 88.7379 20.2595 88.8933 22.1907 88.8285C23.9619 88.7689 29.0281 87.6328 29.8126 87.3077C30.7473 86.9207 34.8132 85.4392 35.9168 85.1872C37.7808 84.7618 41.2591 84.543 41.0524 84.6109C37.8238 85.4475 34.6555 87.107 32.5102 89.1038C33.825 88.9175 35.741 88.713 37.8985 89.0683C39.4072 89.2192 40.1615 89.4455 41.4198 89.8702C39.2563 90.1999 38.0494 90.6525 36.8424 91.1051C35.6354 91.5577 34.5794 91.9349 33.0925 92.6779C38.4265 92.9155 41.8913 94.3088 42.718 94.5019C42.807 94.5223 43.3321 95.0752 43.7356 95.2442H43.7364Z" fill="#FEC464"/>
<path d="M28.242 59.4511C28.5339 58.3218 29.1819 57.4121 30.029 56.6517C31.4653 55.3617 33.1483 54.5916 35.0628 54.2891C37.0566 53.9737 38.9711 54.2091 40.8253 54.9763C42.5279 55.6801 43.8766 56.838 44.898 58.355C45.4638 59.1946 45.9647 60.0975 46.0967 61.1272C46.1684 61.687 46.2257 62.2821 46.1148 62.826C45.6079 65.3184 44.0192 66.8867 41.6981 67.758C41.1263 67.973 40.5168 68.0869 39.8763 68.2596C41.3971 73.5574 42.9314 78.905 44.4771 84.2918L44.5367 84.6199C44.4462 84.7157 44.0841 84.6652 44.0841 84.6199C44.0841 84.4691 43.9747 84.2239 43.9747 84.2239C42.4238 78.785 40.8698 73.3379 39.303 67.8455C40.2384 67.7549 41.0554 67.5415 41.8429 67.2126C43.6662 66.4522 44.9425 65.1766 45.5702 63.2771C45.9202 62.2188 45.847 61.1823 45.3989 60.179C44.5095 58.186 43.1238 56.6449 41.1685 55.6529C39.7126 54.9144 38.1541 54.5983 36.53 54.6383C34.881 54.6791 33.2901 54.9733 31.8455 55.8385C30.8709 56.4224 29.9453 57.0847 29.3456 58.0593C27.8799 60.4385 28.1477 63.0538 30.1301 65.1072C31.2503 66.2674 32.6451 66.8852 34.1252 67.38C34.3009 67.4389 34.4699 67.5166 34.6532 67.5897C33.2426 73.7158 32.2461 79.8683 31.6622 86.0917C31.6486 86.238 31.6479 86.3859 31.6562 86.533C31.6607 86.6144 31.6532 86.6416 31.6381 86.6567C31.5626 86.7321 31.3861 86.8045 31.3363 86.8075C31.2933 86.8106 31.1855 87.0339 31.1855 86.3549C31.9398 79.2641 32.4535 74.578 34.1712 67.8017C33.7042 67.635 33.232 67.4698 32.7613 67.2978C31.1998 66.7268 29.9385 65.7612 28.9707 64.4071C28.4034 63.6128 28.0858 62.7174 27.9878 61.7571C27.8656 60.5569 28.1326 59.872 28.2405 59.4526L28.242 59.4511Z" fill="#AC6665"/>
<path d="M13.6393 96.0581C13.0585 95.6462 12.7077 95.0661 12.3841 94.4453C11.8221 93.3666 11.3929 92.2426 11.1047 91.065C10.9101 90.2685 10.7215 89.4666 10.6868 88.6436C10.6597 87.9986 10.6076 87.3122 10.6944 86.3986C10.7192 86.1324 10.9621 85.94 11.2269 85.977C11.5445 86.0207 11.8719 86.1369 12.1691 86.2576C13.3904 86.7547 14.6275 87.1983 15.888 87.5815C17.0837 87.9451 18.2974 88.2189 19.5444 88.3102C20.4873 88.3788 21.4378 88.5033 22.3755 88.4467C23.4383 88.3826 24.511 88.2845 25.546 87.9752C26.2566 87.7633 26.9845 87.6064 27.6898 87.3785C28.3439 87.1681 28.9775 86.8965 29.661 86.6363C28.371 81.0767 28.3243 75.5805 29.9997 70.1122C29.3924 69.6242 28.7882 69.1218 28.1673 68.6413C27.0871 67.8062 26.0982 66.8791 25.2201 65.8321C24.7464 65.2663 24.2274 64.7375 23.7763 64.1544C22.8922 63.01 22.0103 61.8604 21.428 60.5177C21.2469 60.1005 20.8509 59.4239 20.6744 58.5194C21.0606 58.1083 21.4054 57.7304 21.7622 57.3645C22.552 56.5551 23.3418 55.7457 24.1444 54.9491C24.4114 54.6843 24.7222 54.4655 25.0044 54.2151C25.635 53.6539 26.2453 53.0677 26.8932 52.5276C27.3768 52.1248 27.9056 51.7755 28.4155 51.4044C29.0944 50.9095 29.7779 50.4207 30.4538 49.9213C30.6522 49.7742 30.7314 49.5728 30.7397 49.3096C30.7842 47.8801 31.0052 46.4702 31.3424 45.0837C31.5106 44.395 31.7905 43.7304 32.2159 43.1541C32.4943 42.7769 32.8224 42.4555 33.3678 42.4533C33.8642 42.4518 34.1795 42.7143 34.4465 43.0628C34.571 43.2257 34.6253 43.4422 34.7324 43.6829C35.4793 42.6079 36.3656 41.6793 37.3342 40.7847C37.7597 40.3924 38.3526 40.2181 38.9131 40.3607C39.0677 40.3999 39.2216 40.4625 39.3725 40.5599C39.8997 41.358 40.1577 42.2707 40.3395 43.2069C40.5832 44.4614 40.817 45.7189 41.032 46.9786C41.112 47.4471 41.1256 47.9276 41.1791 48.5054C42.4208 45.8788 43.8216 43.4369 45.4502 41.1792C45.8531 40.621 46.5946 40.409 47.223 40.6889C47.6084 40.8601 47.9366 41.1415 48.2278 41.4907C48.4556 41.7646 48.5876 42.1199 48.7543 42.4427C48.8757 42.6796 48.9821 42.924 49.1277 43.2348L49.1948 43.1692C49.52 42.8531 50.3475 42.5264 50.951 43.2054C51.6208 43.959 51.5371 44.7985 51.479 45.7701C51.4707 45.9097 51.4036 46.4536 51.4036 46.5999C51.7053 46.4491 52.1624 46.3797 52.3842 46.5245C52.7818 46.784 52.8783 47.0789 52.9877 47.5052C53.1801 48.2565 53.0284 48.9867 52.8429 49.7199C52.5969 50.6908 52.2507 51.6194 51.7008 52.465C51.5824 52.6476 51.5016 52.8542 51.3983 53.0609C51.5341 53.2359 51.654 53.38 51.7619 53.5332C52.2311 54.1985 52.7026 54.8631 53.162 55.5352C53.7089 56.3356 54.2595 57.1344 54.7808 57.9514C55.4092 58.9366 56.0028 59.9444 56.4977 61.0057C56.5369 61.0902 56.5558 61.1845 56.6025 61.3346C56.067 62.0068 55.5404 62.7174 54.9596 63.3804C54.4066 64.0111 53.8265 64.6244 53.205 65.1871C52.3465 65.9641 51.4986 66.7561 50.5444 67.4245C50.0948 67.7391 49.6957 68.1238 49.2605 68.4595C48.8878 68.7461 48.4978 69.0101 48.1131 69.2817C47.6303 69.6219 47.1453 69.9591 46.5953 70.3438C47.0812 70.6561 47.5036 70.9518 47.9486 71.2091C49.5019 72.1075 50.9698 73.1274 52.3533 74.2672C53.4207 75.1468 54.4851 76.0309 55.5216 76.9467C56.3544 77.6821 57.1313 78.4787 57.8759 79.3063C58.4205 79.9112 59.0021 80.483 59.5498 81.0858C59.8681 81.4365 60.8888 82.6382 61.0592 82.8856C61.7646 83.9123 62.2662 84.3189 63.5486 86.9591C63.784 87.4434 64.0261 88.1201 64.2275 88.6187C64.5149 89.3293 64.699 89.8649 64.9456 90.5906C65.27 91.5448 65.5544 92.5127 65.8478 93.4767C65.9384 93.7732 66.0002 94.0787 66.0885 94.4302C65.7083 94.4015 65.3794 94.3766 65.0105 94.3487C64.8597 93.8328 64.6967 93.2595 64.5247 92.6892C63.9657 90.841 63.3819 89.0072 62.4533 87.2948C62.0233 86.5027 61.628 85.6858 61.1158 84.9495C60.3773 83.8882 59.5981 82.8472 58.7562 81.8665C57.716 80.655 56.6116 79.4964 55.4982 78.3505C54.9641 77.8013 54.3463 77.3329 53.7647 76.8297C52.9937 76.1629 52.2469 75.4644 51.442 74.842C50.6047 74.1948 49.7176 73.6102 48.8388 73.0188C48.1757 72.5722 47.496 72.1505 46.8164 71.7296C46.3064 71.4143 45.7799 71.1253 45.2692 70.8108C45.2066 70.7723 45.1357 70.7384 45.07 70.6969C44.8581 70.5626 44.84 70.2609 45.0255 70.0919C45.0912 70.0323 45.1628 69.9727 45.2398 69.9229C46.7251 68.9785 48.138 67.9337 49.5154 66.8406C50.4003 66.1383 51.2783 65.4225 52.1157 64.6651C52.9002 63.9552 53.641 63.1956 54.3719 62.4307C54.7287 62.0573 55.0199 61.6205 55.3805 61.1611C54.9286 60.3864 54.4934 59.5906 54.0114 58.8234C53.2419 57.6006 52.4664 56.3808 51.6457 55.1927C51.1667 54.4987 50.6907 53.7919 50.0571 53.2141C49.925 53.0934 49.8315 52.904 49.7772 52.729C49.4521 51.6707 49.139 50.6085 48.8305 49.5457C48.5898 48.7159 48.3696 47.8808 48.1237 47.0525C48.0618 46.8451 48.0648 46.6248 48.1274 46.4174C48.2851 45.8976 48.3922 45.3651 48.5514 44.7058C48.2496 43.9461 47.9449 43.0598 47.5398 42.2217C47.4357 42.0067 47.2456 41.8091 46.9906 41.6672C46.7885 41.5541 46.5312 41.5865 46.366 41.7502C46.3374 41.7789 46.3094 41.8091 46.2845 41.8407C45.7935 42.4721 44.5179 44.5639 44.2953 44.9275C43.4912 46.2446 42.718 47.5783 42.1266 49.0078C41.9998 49.3141 41.8792 49.6234 41.7464 49.9628C41.6793 50.1333 41.5088 50.2397 41.327 50.2246C40.4874 50.1552 38.2062 49.9387 37.1494 49.858C36.8839 49.8376 36.6191 49.8112 36.3445 49.784C36.137 49.7637 36.1167 49.4657 36.3204 49.4212C36.3649 49.4114 36.4116 49.4061 36.4576 49.4023C36.6628 49.3842 36.8718 49.3993 37.0777 49.4152C38.0901 49.4914 39.1016 49.5728 40.1562 49.6558C40.2 46.8587 39.503 44.1868 38.8783 41.5066C38.8059 41.3979 38.8059 41.2471 38.5238 41.2456C38.3873 41.3187 38.2304 41.37 38.1165 41.4704C37.3976 42.1085 36.7088 42.7761 36.1303 43.5501C35.7719 44.0291 35.4287 44.524 35.0282 44.966C33.7578 46.3676 32.9001 48.0294 32.056 49.692C31.8003 50.1952 31.4329 50.4961 31.0045 50.7964C30.3685 51.2422 29.7485 51.7099 29.1314 52.1814C28.4925 52.6694 27.8573 53.1635 27.2342 53.672C26.7726 54.0491 26.3305 54.4512 25.8854 54.8487C25.5316 55.1648 25.1809 55.4839 24.8376 55.8113C24.201 56.4185 23.5711 57.0326 22.9382 57.6444C22.5444 58.0261 22.1514 58.4085 21.781 58.7683C21.913 59.0935 22.0005 59.4141 22.1627 59.6909C22.5723 60.3902 23.0076 61.0759 23.4489 61.7563C23.7763 62.2617 24.1044 62.7702 24.4756 63.2431C25.4193 64.4471 26.4256 65.599 27.5533 66.637C28.5249 67.5316 29.5531 68.3569 30.6378 69.1097C30.8913 69.2855 31.1478 69.4575 31.4405 69.6566C30.9607 70.5905 30.6122 71.9363 30.456 72.6793C30.2901 73.4714 30.1754 74.2763 30.0796 75.0804C29.9997 75.745 29.9717 76.4156 29.9348 77.0847C29.8963 77.7772 29.8511 78.4704 29.8541 79.1629C29.8571 79.866 29.9069 80.5698 29.9491 81.2721C30.0306 82.6201 30.2592 83.9485 30.5375 85.2671C30.6409 85.7582 30.8098 86.2055 30.9946 86.7072C31.0278 86.7072 32.222 86.2636 32.7877 86.0426C33.3535 85.8216 33.9208 85.6368 34.5009 85.4753C35.5223 85.1917 36.5467 84.9126 37.5809 84.6802C38.4303 84.4894 39.288 84.3265 40.166 84.3083C41.0878 84.2902 42.0089 84.2269 42.93 84.2254C44.5956 84.2231 46.2348 84.472 47.8596 84.8175C50.0548 85.2837 52.1504 86.0335 54.1705 87.0082C55.5585 87.678 56.8824 88.4573 58.1331 89.3504C58.972 89.9486 59.7444 90.6396 60.5425 91.2944C60.7198 91.44 60.888 91.5961 61.0607 91.7545C61.143 91.83 61.1234 91.9665 61.0223 92.014C60.8661 92.0872 60.7696 92.0495 60.5727 91.8933C60.1759 91.578 59.7867 91.2521 59.3989 90.9255C58.1444 89.8687 56.7738 88.9838 55.3511 88.1744C53.6523 87.2073 51.8592 86.4507 49.9944 85.8766C48.0075 85.2649 45.9738 84.9073 43.8933 84.764C42.5113 84.6689 41.1391 84.7089 39.7655 84.8017C38.3729 84.896 37.0136 85.203 35.6807 85.6088C34.442 85.986 33.2124 86.3934 31.9844 86.803C31.657 86.9124 31.3439 87.0678 31.0324 87.2201C29.4656 87.9835 27.812 88.5033 26.1321 88.9355C24.984 89.2312 23.814 89.4243 22.6244 89.4749C22.3883 89.4847 22.1522 89.5382 21.9183 89.5277C21.0221 89.4877 20.126 89.4289 19.2298 89.3776C18.0885 89.3127 16.9969 89.0079 15.8994 88.71C14.8018 88.412 13.7434 88.0333 12.7062 87.583C12.3939 87.4472 12.0733 87.3235 11.7338 87.1832C11.7233 87.7882 11.7338 88.5071 11.7987 88.9197C11.9111 89.6356 11.9918 89.9984 12.1171 90.6094C12.1917 90.9745 12.3554 91.5607 12.4829 91.9107C13.533 94.8029 14.3854 95.6085 14.6162 96.1637C14.5672 96.2686 13.8505 96.2082 13.6393 96.0588V96.0581ZM50.3399 44.2252C50.2728 43.9899 50.0065 43.8767 49.7945 43.9989C49.6203 44.0993 49.5094 44.2592 49.3714 44.4757C49.0085 45.0467 48.7799 45.6578 48.6193 46.3118C48.5318 46.6663 48.5265 46.9884 48.6321 47.3324C48.9738 48.4473 49.305 49.5645 49.6369 50.6825C49.8292 51.3297 50.0133 51.9792 50.2109 52.6611C50.7224 52.1067 51.1252 51.2694 51.3975 50.6666C51.6842 50.0322 51.8185 49.4763 51.9293 48.7875C51.9769 48.4911 51.9972 48.0943 51.9625 47.7812C51.9482 47.653 51.8434 47.5519 51.7144 47.5398C51.516 47.521 51.436 47.5874 51.2648 47.7201C51.0196 47.9102 50.5232 48.3259 50.2841 48.525C50.2117 48.5854 50.1068 48.5854 50.0344 48.525C49.9643 48.4677 49.9326 48.3749 49.953 48.2867C50.0902 47.6787 50.2366 47.1136 50.3286 46.5403C50.4086 46.0425 50.4493 45.531 50.438 45.0279C50.4327 44.7774 50.4146 44.4878 50.3392 44.2252H50.3399ZM33.2215 43.5162C33.1672 43.5607 33.0608 43.6195 32.9959 43.7334C32.6052 44.5255 32.3012 45.3417 32.1662 46.2228C32.0832 46.7621 31.9964 47.3075 31.9142 47.8469C31.8538 48.2437 31.841 48.648 31.7897 49.0463C32.191 48.381 32.5727 47.7035 32.9861 47.0465C33.3731 46.4317 33.7842 45.832 34.1659 45.2557C33.9947 44.6507 33.8695 44.054 33.4757 43.5441C33.4146 43.4649 33.2992 43.4535 33.2222 43.5169L33.2215 43.5162Z" fill="#5F3012"/>
<path d="M35.8948 59.3047C35.0862 59.1116 34.3303 58.8483 33.7291 58.2448C33.3353 57.8496 33.0713 57.4075 33.0494 56.8402C33.0442 56.6984 33.2214 56.6245 33.3157 56.7309C33.3602 56.7814 33.3912 56.841 33.4153 56.9051C33.8468 58.0555 34.7437 58.6416 35.8858 58.9034C37.6502 59.3085 39.1287 58.7148 40.175 57.2898C40.2097 57.2423 40.2474 57.197 40.2867 57.151C40.3847 57.0356 40.5824 57.0952 40.5854 57.2468C40.5869 57.3291 40.5439 57.412 40.4881 57.4958C40.0551 58.1498 39.478 58.6273 38.7644 58.96C38.2333 59.2074 37.7045 59.4284 37.1048 59.4141C37.0746 59.4141 36.3904 59.4239 35.8956 59.3055L35.8948 59.3047Z" fill="#5F3011"/>
<path d="M35.5034 55.3746C35.5049 55.2622 35.5683 55.1581 35.6679 55.106C36.0639 54.8993 36.5067 54.9159 36.9337 54.9129C37.4806 54.9084 37.9928 54.9635 38.5027 55.1988C38.7456 55.3112 38.858 55.3783 38.8814 55.5149C38.9146 55.7103 38.7984 55.9004 38.6174 55.9818C38.155 56.1893 37.6707 56.3439 37.1215 56.2903C36.647 56.2443 36.2019 56.144 35.8104 55.8596C35.6392 55.7352 35.5012 55.5963 35.5042 55.3738L35.5034 55.3746Z" fill="#5F3011"/>
<path d="M40.3464 53.107C40.5478 53.1342 40.716 53.2858 40.759 53.4849C40.842 53.8666 40.6738 54.2114 40.538 54.5508C40.4309 54.8179 40.059 54.965 39.8334 54.8843C39.5973 54.7998 39.4306 54.5327 39.4909 54.2348C39.546 53.9647 39.629 53.6871 39.7663 53.451C39.9337 53.1636 40.0839 53.0716 40.3464 53.107Z" fill="#5F3011"/>
<path d="M35.8836 52.7735C36.0028 52.6936 36.165 52.7011 36.2736 52.7962C36.5188 53.0112 36.4622 53.3295 36.4238 53.6101C36.3913 53.8462 36.2668 54.0884 36.122 54.2822C36.0383 54.3939 35.8346 54.455 35.68 54.4656C35.4891 54.4784 35.3775 54.3185 35.3239 54.1435C35.1813 53.675 35.4378 53.0738 35.8844 52.7743L35.8836 52.7735Z" fill="#5F3011"/>
<path d="M73.07 89.7367C72.9991 90.8592 72.6785 91.8436 71.8132 92.6523C71.3976 93.0408 71.0106 93.4564 70.5097 93.7212C70.0405 93.9694 69.5781 94.21 69.0274 94.3194C67.5745 94.6083 66.0953 94.5811 64.6349 94.7644C63.6798 94.8844 62.6999 94.8037 61.7306 94.8225C60.5455 94.8459 59.3597 94.8565 58.1761 94.9123C55.9183 95.0187 53.6606 95.1424 51.4043 95.2804C50.4893 95.3362 49.5788 95.4743 48.6638 95.5286C47.828 95.5776 46.9884 95.5724 46.151 95.5754C44.3021 95.5822 42.4532 95.5701 40.6043 95.5829C39.257 95.5927 37.9105 95.6297 36.5632 95.6568C34.9919 95.6878 33.4206 95.7006 31.8501 95.7594C30.4108 95.8137 28.9737 95.9284 27.5352 95.9978C26.7333 96.0363 25.9284 96.0197 25.1258 96.0559C23.8902 96.1117 22.6553 96.1932 21.4204 96.2596C21.0448 96.2799 20.6684 96.2928 20.2919 96.3018C18.8707 96.3365 17.4495 96.3818 16.0284 96.3984C14.6728 96.4142 13.3165 96.3878 11.9609 96.4014C11.3801 96.4074 10.7954 96.5274 10.2199 96.4866C9.19923 96.4142 8.26384 96.1125 7.57285 95.2668C6.9573 94.514 6.36665 93.7431 6.1328 92.7865C5.88311 91.7621 5.66737 90.7249 5.51725 89.6809C5.33696 88.4287 5.24116 87.1636 5.10915 85.9046C4.99977 84.8659 4.8836 83.8279 4.78553 82.7884C4.72594 82.1578 4.70557 81.5234 4.65126 80.892C4.57356 79.992 4.47776 79.0936 4.39553 78.1936C4.34801 77.6739 4.31557 77.1526 4.2688 76.6321C4.16319 75.4674 4.05532 74.3027 3.94292 73.138C3.86522 72.3339 3.77546 71.5305 3.69323 70.7263C3.60422 69.8604 3.51219 68.9944 3.43072 68.1276C3.3832 67.6215 3.35755 67.1138 3.31681 66.6076C3.22478 65.4708 3.11993 64.3355 3.0377 63.1979C2.95623 62.0626 2.91625 60.9243 2.82121 59.7898C2.73068 58.7065 2.57453 57.6293 2.48024 56.5461C2.35728 55.1287 2.2743 53.7075 2.15964 52.2885C2.07666 51.2634 1.96804 50.2405 1.87374 49.2161C1.81717 48.6013 1.76738 47.9865 1.71231 47.3717C1.60369 46.1685 1.49355 44.9653 1.38417 43.7621C1.2944 42.7762 1.28007 41.7774 1.52372 40.8254C1.76964 39.8637 2.13324 38.9102 2.80612 38.1483C3.41261 37.4618 4.17149 36.9481 5.01636 36.5898C5.25549 36.4879 5.54441 36.4864 5.8122 36.4736C7.60076 36.3891 9.38932 36.3076 11.1786 36.239C12.8714 36.1741 14.5649 36.1266 16.2577 36.073C16.4598 36.067 16.6628 36.0723 16.9011 36.0723C16.8649 35.7721 16.8302 35.4635 16.791 35.155C16.6062 33.7082 16.4214 32.2621 16.2335 30.816C16.1174 29.9213 15.9914 29.0274 15.8767 28.1328C15.7643 27.2539 15.6323 26.3759 15.5591 25.4933C15.4467 24.1392 15.3344 22.7829 15.3004 21.4251C15.2589 19.7768 15.314 18.1331 15.5177 16.4871C15.6346 15.5419 15.7749 14.6095 15.9733 13.6809C16.2841 12.222 16.7955 10.8355 17.4428 9.49505C17.8833 8.58305 18.3623 7.6997 18.9771 6.88651C19.9532 5.59658 21.1127 4.52766 22.4909 3.67676C23.8675 2.8266 25.331 2.17032 26.8548 1.65208C28.1953 1.19646 29.5734 1.08029 31.0044 1.01013C32.0168 0.960344 32.9907 1.10971 33.9781 1.21003C34.4284 1.25605 34.8728 1.40466 35.308 1.54496C36.1793 1.82558 37.0634 2.08131 37.9015 2.44113C38.7931 2.82359 39.6855 3.24451 40.4896 3.7801C41.3164 4.33002 42.0489 5.02553 42.8025 5.68106C43.9468 6.67605 44.7359 7.95693 45.6396 9.15484C46.5999 10.4282 47.1558 11.8841 47.8272 13.2857C48.4593 14.6065 48.8833 16.0149 49.1692 17.4595C49.449 18.8694 49.7583 20.274 50.0269 21.6861C50.1951 22.5709 50.2992 23.4686 50.4553 24.3565C50.653 25.482 50.9004 26.5992 51.0792 27.7269C51.3153 29.2168 51.5031 30.7149 51.7166 32.2085C51.8486 33.1318 52.2085 35.1113 52.2333 35.2086C53.5157 35.284 54.2844 35.1942 55.3073 35.1656C56.7474 35.1263 58.1889 35.0977 59.6297 35.0999C61.0072 35.1022 62.3846 35.1452 63.7621 35.1844C63.9582 35.1897 64.1528 35.2719 64.3467 35.324C64.4387 35.3481 64.5255 35.3904 64.6175 35.4145C65.7588 35.711 66.5924 36.4374 67.1853 37.406C67.8914 38.5579 68.2112 39.8493 68.3621 41.1936C68.5115 42.519 68.7498 43.8345 68.915 45.1584C69.13 46.8776 69.3269 48.6005 69.5049 50.3242C69.6558 51.7846 69.7599 53.2496 69.904 54.7108C70.0466 56.1546 70.2019 57.5977 70.3717 59.0385C70.5391 60.4619 70.7519 61.8808 70.9043 63.3058C70.9948 64.156 70.994 65.0152 71.0596 65.8683C71.1705 67.3122 71.3078 68.7545 71.4195 70.1991C71.4745 70.9074 71.4783 71.6202 71.5364 72.3278C71.6164 73.3055 71.7272 74.2808 71.8215 75.257C71.9083 76.1569 71.9852 77.0576 72.0773 77.9568C72.1768 78.9306 72.293 79.9023 72.3926 80.8754C72.4884 81.8168 72.5736 82.7597 72.6619 83.7027C72.7848 85.0107 72.9169 86.318 73.024 87.6275C73.0624 88.0952 73.033 88.5675 73.0504 89.0374C73.0541 89.146 73.0775 89.6424 73.0715 89.739L73.07 89.7367ZM62.1025 93.6239C63.8903 93.6963 65.6683 93.6246 67.4312 93.3146C67.9766 93.2188 68.5507 93.2097 69.0644 93.0279C69.6618 92.8175 70.2329 92.4991 70.7677 92.1544C71.0611 91.9651 71.2822 91.6407 71.4896 91.3457C71.6284 91.1481 71.7189 90.9007 71.7755 90.663C71.9075 90.1101 71.9204 89.5489 71.8743 88.9793C71.7635 87.62 71.6865 86.2576 71.5832 84.8976C71.5168 84.0293 71.4255 83.1625 71.3486 82.295C71.2724 81.4291 71.2098 80.5623 71.1253 79.6971C70.9895 78.3083 70.8386 76.9203 70.6983 75.5316C70.6425 74.9786 70.598 74.4242 70.5437 73.8712C70.469 73.1154 70.3747 72.3603 70.3174 71.6029C70.2585 70.8274 70.2472 70.049 70.1899 69.2727C70.0948 67.9918 69.9764 66.7125 69.8746 65.4316C69.827 64.8296 69.8142 64.2246 69.7539 63.6234C69.6566 62.6442 69.5291 61.6689 69.4235 60.6905C69.379 60.2794 69.3759 59.8637 69.3231 59.4541C69.2341 58.7669 69.0908 58.0857 69.0229 57.3962C68.8215 55.3301 68.6533 53.2601 68.4571 51.1932C68.3251 49.806 68.1705 48.4202 68.0181 47.0353C67.9193 46.1361 67.8227 45.2369 67.6998 44.3407C67.5218 43.0425 67.3241 41.7473 67.128 40.4513C67.0978 40.2499 67.0533 40.0454 66.9801 39.8561C66.781 39.3401 66.5396 38.84 66.3555 38.3195C65.9218 37.0922 64.92 36.5837 63.7711 36.3454C63.1005 36.2058 62.3899 36.2405 61.6967 36.2307C60.1042 36.2081 58.511 36.1892 56.9186 36.2005C55.8075 36.2081 54.9482 36.1892 53.7413 36.1892C52.8361 36.1892 52.0817 36.1892 51.2399 36.2043C51.126 36.1643 50.9879 36.1885 50.8612 36.1915C49.2227 36.2254 47.5835 36.2473 45.9458 36.3009C44.6114 36.3446 43.2792 36.4464 41.9448 36.4811C41.4379 36.494 37.2603 36.6358 35.6626 36.6411C34.7453 36.6441 33.8272 36.669 32.9107 36.7029C32.0439 36.7354 28.5822 36.7965 27.7178 36.8093C26.9068 36.8206 26.0959 36.8727 25.2857 36.9157C23.7763 36.9949 22.2872 37.0462 20.777 37.0952C19.4282 37.1389 18.5064 37.1586 17.1561 37.1706C16.3527 37.1774 15.1005 37.2091 14.2979 37.231C12.9657 37.2672 11.6335 37.3004 10.3013 37.3539C9.19244 37.3984 8.0843 37.4867 6.97541 37.5214C6.23086 37.5448 5.47501 37.5033 4.82023 37.9318C4.34801 38.241 3.60422 38.8883 2.8989 40.2642C2.59716 41.0186 2.44479 41.6605 2.4825 42.3892C2.51569 43.0364 2.59716 43.6814 2.6462 44.3279C2.71107 45.1924 2.75407 46.0591 2.82724 46.9229C2.90645 47.856 3.02865 48.7853 3.09956 49.7185C3.18178 50.7957 3.21045 51.8767 3.29494 52.9539C3.41111 54.4218 3.55519 55.8875 3.69248 57.354C3.81317 58.6485 3.95273 59.9414 4.0606 61.2374C4.22429 63.2017 4.36687 65.1675 4.52075 67.1326C4.6075 68.234 4.68671 69.3361 4.79307 70.4359C4.94394 71.9959 5.12499 73.5521 5.27812 75.1121C5.39882 76.3425 5.49915 77.5758 5.60475 78.8077C5.69829 79.897 5.78806 80.987 5.87783 82.077C5.93893 82.8178 5.99023 83.5601 6.05963 84.3009C6.11243 84.8681 6.19088 85.4324 6.25123 85.9989C6.37117 87.1267 6.47754 88.2552 6.60728 89.3814C6.67065 89.9276 6.80191 90.4662 6.8532 91.0131C6.92637 91.7961 7.1308 92.5293 7.49063 93.2286C7.68978 93.6148 7.99076 93.903 8.26987 94.2228C8.91786 94.9666 9.74915 95.2691 10.6913 95.303C11.2933 95.3242 11.8975 95.251 12.501 95.251C14.0738 95.251 15.6474 95.2902 17.2202 95.2714C18.311 95.2585 19.4003 95.1688 20.4903 95.1243C21.2379 95.0941 21.987 95.0949 22.7338 95.0594C23.906 95.0036 25.076 94.9206 26.2483 94.8648C27.8799 94.7871 29.5123 94.7169 31.1448 94.6573C32.5569 94.606 33.969 94.5668 35.3812 94.5351C37.1267 94.4959 38.8723 94.4718 40.6171 94.4371C41.2825 94.4235 41.9478 94.3805 42.6131 94.3827C43.9649 94.3873 45.3175 94.419 46.6693 94.4295C47.2697 94.4341 47.8717 94.4393 48.4699 94.3993C49.3035 94.3443 50.1332 94.2379 50.9653 94.1708C51.6698 94.1142 52.3759 94.0863 53.0812 94.0403C53.9646 93.9822 54.8472 93.9015 55.7313 93.863C56.4547 93.8313 57.1811 93.8683 57.9053 93.8381C59.3046 93.7808 60.7032 93.6978 62.1025 93.6261V93.6239ZM18.1353 36.6418C18.5464 36.6418 19.601 36.6569 19.9457 36.6418C21.3601 36.58 22.0896 36.5898 23.504 36.5234C24.8075 36.4623 26.1102 36.4042 27.4137 36.3393C27.8053 36.3197 27.8626 36.2322 27.7985 35.8241C27.7351 35.4198 27.671 35.0162 27.6167 34.6104C27.4552 33.4049 27.2983 32.1987 27.1392 30.9925C27.0102 30.0209 26.8744 29.0501 26.7514 28.0777C26.6187 27.0269 26.4851 25.9768 26.375 24.9238C26.2385 23.618 26.1321 22.3092 26.0001 21.0034C25.8817 19.8304 25.979 18.6702 26.197 17.5191C26.4142 16.3709 26.8178 15.3013 27.6544 14.4413C28.5724 13.4984 29.6308 12.7931 30.9252 12.4717C31.7467 12.2673 32.5848 12.2401 33.4116 12.3201C33.7503 12.3525 33.9555 12.4001 34.187 12.5215C34.7294 12.8059 35.2854 13.0548 35.7991 13.4131C36.5014 13.9027 37.0792 14.5077 37.5175 15.1957C37.9958 15.9455 38.3541 16.7934 38.6354 17.6413C38.9221 18.508 39.0669 19.4238 39.2457 20.3237C39.4441 21.3187 39.6138 22.319 39.7904 23.3185C39.9933 24.4719 40.1969 25.6253 40.387 26.7817C40.5417 27.7194 40.6714 28.6601 40.8223 29.5985C40.9626 30.4712 41.1308 31.3403 41.2598 32.2146C41.3926 33.119 41.4831 34.0295 41.6129 34.934C41.6657 35.3006 41.7735 35.6589 41.8414 35.9561C44.9765 35.8709 48.0512 35.7871 51.1365 35.7027C51.1426 35.588 51.1599 35.508 51.1486 35.4319C50.9298 33.9835 50.702 32.5367 50.4893 31.0876C50.3301 30.0073 50.214 28.9195 50.0352 27.8431C49.8292 26.6037 49.5743 25.3726 49.3442 24.1377C49.0017 22.2979 48.6736 20.4557 48.3183 18.6182C47.8815 16.3559 47.0894 14.2211 46.1073 12.136C45.4005 10.6364 44.5307 9.25366 43.5055 7.97579C42.5385 6.77034 41.4673 5.64259 40.1132 4.84223C39.3415 4.38584 38.5894 3.87062 37.7672 3.5289C36.7058 3.08836 35.5909 2.76927 34.4843 2.44868C33.8966 2.27895 33.2803 2.14467 32.6731 2.12581C32.0628 2.10696 30.6771 2.06471 30.5994 2.06999C29.114 2.18314 27.6778 2.49846 26.2935 3.06422C25.2307 3.49873 24.1866 3.94757 23.2098 4.57066C22.3687 5.107 21.5728 5.68408 20.8743 6.3894C19.5994 7.67783 18.7372 9.23782 18.0289 10.8846C17.5733 11.9437 17.2708 13.0563 16.9419 14.1615C16.4893 15.6822 16.3693 17.2354 16.3308 18.8007C16.3029 19.9383 16.3165 21.0788 16.3716 22.2156C16.4402 23.627 16.5451 25.0377 16.6861 26.4438C16.7744 27.3271 16.9728 28.1984 17.0942 29.0795C17.218 29.9696 17.3025 30.8658 17.4148 31.7582C17.5084 32.5027 17.6072 33.2473 17.7196 33.9895C17.8539 34.8782 17.9806 35.6815 18.136 36.6441L18.1353 36.6418ZM32.1661 13.4079C31.8659 13.4252 31.5378 13.5037 31.2451 13.567C30.4726 13.736 29.7915 14.1094 29.1895 14.6095C28.8191 14.9173 28.4781 15.2673 28.1651 15.6347C27.6996 16.1809 27.5518 16.8726 27.3813 17.5485C27.1369 18.5163 26.9581 19.497 27.0373 20.4957C27.1588 22.0391 27.3127 23.581 27.4809 25.1199C27.6204 26.3955 27.7985 27.6666 27.9629 28.9392C28.1658 30.5105 28.3454 32.0856 28.589 33.6508C28.6984 34.3531 28.7708 34.9823 28.9217 35.6612C32.796 35.6001 36.7586 35.4198 40.6141 35.3594C40.5507 34.9649 40.5017 34.7047 40.4444 34.3018C40.2769 33.1288 40.1366 31.9513 39.9458 30.7813C39.6553 29.0003 39.331 27.2253 39.0209 25.4473C38.7765 24.0457 38.5411 22.6434 38.2847 21.244C38.1677 20.6074 38.0199 19.9752 37.8675 19.3453C37.7227 18.7479 37.5733 18.1497 37.3855 17.5651C37.261 17.1773 37.0634 16.813 36.902 16.4366C36.6764 15.9108 36.2389 15.3684 35.7108 14.7649C35.2892 14.215 34.7302 14.0106 34.2368 13.7345C34.1705 13.6975 34.092 13.6696 34.0166 13.6485C33.6688 13.5519 33.4478 13.3317 32.1654 13.4071L32.1661 13.4079Z" fill="#748C3E"/>
</g>
<defs>
<clipPath id="clip0_8120_15658">
<rect width="71.5429" height="95.4856" fill="white" transform="translate(1.45337 0.86908)"/>
</clipPath>
</defs>
</svg>
