<svg width="344" height="479" viewBox="0 0 344 479" fill="none" xmlns="http://www.w3.org/2000/svg">
<rect x="0.429794" y="0.429794" width="343.14" height="478.14" rx="21.0599" fill="white" stroke="#E4D7FC" stroke-width="0.859589"/>
<path d="M66.5732 116.799L60.9419 103.99C59.5177 100.747 56.9318 98.1796 53.7045 96.8013L42.2349 91.898C40.5884 91.196 40.5884 88.8238 42.2349 88.1218L53.6793 83.2544C56.9167 81.8761 59.5126 79.2989 60.9419 76.0454L66.5732 63.2157C67.2904 61.5761 69.5884 61.6017 70.2752 63.2516L75.3561 75.4766C76.75 78.8224 79.3712 81.4918 82.6641 82.9111L94.7702 88.127C96.4066 88.834 96.4116 91.1858 94.7753 91.8929L82.5682 97.201C79.2853 98.6254 76.6793 101.29 75.2955 104.625L70.2652 116.748C69.5783 118.398 67.2803 118.423 66.5631 116.789L66.5732 116.799Z" fill="url(#paint0_linear_17920_30585)"/>
<path d="M101.06 76.1132L96.8639 66.7371C95.8008 64.3624 93.875 62.4841 91.4715 61.4759L82.9206 57.8882C81.6931 57.3713 81.6931 55.6363 82.9206 55.1245L91.4509 51.5624C93.8647 50.5542 95.8008 48.6657 96.8639 46.2858L101.06 36.8893C101.594 35.6917 103.309 35.7071 103.823 36.9149L107.613 45.8662C108.65 48.3177 110.602 50.2676 113.062 51.3065L122.085 55.1245C123.302 55.6414 123.307 57.3611 122.085 57.8831L112.985 61.7727C110.54 62.8168 108.599 64.7667 107.567 67.208L103.818 76.0825C103.309 77.2903 101.594 77.3108 101.055 76.1132H101.06Z" fill="url(#paint1_linear_17920_30585)"/>
<rect x="30.9863" y="259.669" width="281.805" height="61.1014" rx="8.15695" fill="#F1E7F8"/>
<circle cx="68.4796" cy="290.223" r="9.01426" fill="#7543E3"/>
<circle cx="199.442" cy="290.223" r="9.01426" fill="#7543E3"/>
<circle cx="112.134" cy="290.223" r="9.01426" fill="#7543E3"/>
<circle cx="243.097" cy="290.223" r="9.01426" fill="#7543E3"/>
<circle cx="155.788" cy="290.223" r="9.01426" fill="#7543E3"/>
<rect x="30.9863" y="347.006" width="281.805" height="61.1014" rx="8.15695" fill="white"/>
<rect x="31.4863" y="347.506" width="280.805" height="60.1014" rx="7.65695" stroke="black" stroke-opacity="0.2"/>
<mask id="mask0_17920_30585" style="mask-type:alpha" maskUnits="userSpaceOnUse" x="266" y="361" width="33" height="33">
<path fill-rule="evenodd" clip-rule="evenodd" d="M268.741 377.556C268.741 373.796 271.79 370.747 275.55 370.747C278.844 370.747 281.592 373.086 282.223 376.194H295.978V378.578H292.913V383.003H290.53V378.578H282.283C281.79 381.854 278.964 384.365 275.55 384.365C271.79 384.365 268.741 381.317 268.741 377.556ZM275.55 373.13C273.106 373.13 271.124 375.112 271.124 377.556C271.124 380.001 273.106 381.982 275.55 381.982C277.995 381.982 279.976 380.001 279.976 377.556C279.976 375.112 277.995 373.13 275.55 373.13Z" fill="black"/>
</mask>
<g mask="url(#mask0_17920_30585)">
<rect x="266.018" y="361.214" width="32.6836" height="32.6836" fill="#E8E8E8"/>
</g>
<circle cx="68.4796" cy="377.552" r="9.01426" fill="#E8E8E8"/>
<circle cx="204.032" cy="377.552" r="9.01426" fill="#E8E8E8"/>
<circle cx="113.665" cy="377.552" r="9.01426" fill="#E8E8E8"/>
<circle cx="158.848" cy="377.552" r="9.01426" fill="#E8E8E8"/>
<path d="M194.951 94.66C203.767 98.5034 212.797 102.356 217.139 104.108C215.929 101.404 214.915 98.7525 214.159 97.1956C210.778 90.2562 209.399 84.8826 204.408 74.6959C199.346 64.358 195.378 58.3884 190.493 58.1482C186.285 57.9346 181.686 64.4559 177.665 76.0749C174.533 85.1139 173.794 87.1957 171.57 91.2882C176.081 90.8434 185.591 90.5765 194.951 94.66Z" fill="url(#paint2_linear_17920_30585)"/>
<path d="M160.761 91.9131C159.07 89.5822 156.588 84.0485 150.832 76.424C144.026 67.3939 139.168 63.3815 134.266 65.0363C130.129 66.4331 127.033 80.0094 125.37 90.7299C123.991 99.6087 123.982 100.463 123.35 103.728C122.781 106.69 122.14 110.32 121.295 113.87C125.441 110.863 132.416 105.694 139.222 100.561C147.131 94.5999 156.125 92.5804 160.761 91.9042V91.9131Z" fill="url(#paint3_linear_17920_30585)"/>
<circle cx="171.889" cy="141.667" r="79.7988" fill="url(#paint4_radial_17920_30585)"/>
<mask id="mask1_17920_30585" style="mask-type:alpha" maskUnits="userSpaceOnUse" x="92" y="61" width="160" height="161">
<circle cx="171.889" cy="141.668" r="79.7988" fill="url(#paint5_radial_17920_30585)"/>
</mask>
<g mask="url(#mask1_17920_30585)">
<path d="M240.457 117.83C238.411 113.987 229.14 116.861 222.752 112.688C220.626 111.3 218.713 107.661 217.13 104.121C215.92 101.416 214.906 98.7647 214.149 97.2078C210.769 90.2684 209.39 84.8948 204.399 74.7082C199.336 64.3702 195.369 58.4006 190.484 58.1604C186.276 57.9468 181.677 64.4681 177.655 76.0871C174.524 85.1261 173.785 87.208 171.561 91.3004C171.561 91.3093 171.552 91.3182 171.543 91.3271C171.419 91.5584 165.253 92.6883 162.469 93.1509C161.926 93.2399 161.392 92.804 160.761 91.9232C159.07 89.5923 156.588 84.0585 150.832 76.4341C144.026 67.404 139.168 63.3916 134.266 65.0464C130.129 66.4432 127.033 80.0194 125.37 90.7399C123.991 99.6188 123.982 100.473 123.35 103.738C122.781 106.701 122.14 110.33 121.295 113.88C120.067 119.04 118.395 124.049 115.806 126.656C110.263 132.243 103.511 130.917 102.363 135.108C101.037 139.965 105.477 138.088 105.023 139.156C104.952 139.333 104.801 139.485 104.632 139.636C114.035 136.415 123.733 137.314 131.651 140.508C140.432 144.04 146.206 149.823 149.017 148.871C149.079 148.808 149.133 148.737 149.204 148.666C151.339 146.655 152.949 144.645 154.408 142.759C157.246 138.711 159.204 135.241 164.373 133.773C166.757 133.097 169.07 133.124 171.356 133.613C174.381 134.173 177.282 135.65 180.235 137.474C183.563 139.458 186.917 141.816 190.413 143.835C190.769 144.04 191.089 144.271 191.392 144.52C194.185 144.342 202.619 135.793 210.964 130.793C219.621 125.606 228.687 123.222 238.936 122.554C237.468 121.567 241.774 120.286 240.466 117.821L240.457 117.83Z" fill="url(#paint6_linear_17920_30585)"/>
<path d="M194.95 94.6635C203.767 98.5068 212.797 102.359 217.139 104.112C215.929 101.407 214.915 98.7559 214.158 97.199C210.778 90.2596 209.399 84.886 204.408 74.6993C199.345 64.3614 195.378 58.3918 190.493 58.1516C186.285 57.938 181.686 64.4593 177.664 76.0783C174.533 85.1173 173.794 87.1992 171.57 91.2916C176.081 90.8468 185.591 90.5799 194.95 94.6635Z" fill="url(#paint7_linear_17920_30585)"/>
<path d="M160.761 91.9141C159.07 89.5832 156.588 84.0495 150.832 76.425C144.026 67.3949 139.169 63.3825 134.267 65.0373C130.13 66.4341 127.034 80.0104 125.37 90.7308C123.991 99.6097 123.982 100.464 123.35 103.729C122.781 106.691 122.14 110.321 121.295 113.871C125.441 110.864 132.416 105.695 139.222 100.562C147.131 94.6009 156.126 92.5814 160.761 91.9052V91.9141Z" fill="url(#paint8_linear_17920_30585)"/>
<path d="M191.383 144.52C197.691 149.618 192.904 162.927 177.282 166.459C174.462 167.1 171.801 167.376 169.31 167.376C152.451 167.465 143.768 154.306 149.017 148.862C146.206 149.814 140.432 144.04 131.651 140.499C123.733 137.314 114.027 136.406 104.632 139.627C103.039 140.97 97.7991 141.362 97.9681 145.063C98.1194 148.435 104.214 146.415 104.365 147.945C104.569 150.036 100.174 151.406 100.415 153.497C101.037 158.755 114.035 156.735 123.51 165.374C130.521 171.762 131.233 183.194 129.614 199.03C128.439 210.471 125.459 230.72 125.459 230.72H163.706C161.223 205.667 174.266 195.622 174.266 195.622C174.266 195.622 191.961 204.546 190.057 230.72H222.041C222.041 230.72 218.153 202.384 216.721 194.199C213.892 177.954 219.345 157.491 227.299 149.778C236.507 140.846 241.969 141.985 241.952 137.785C241.952 135.801 238.731 135.801 238.58 133.826C238.34 130.721 246.88 129.672 246.204 126.629C245.412 123.017 240.991 123.364 239.469 122.821C239.229 122.732 239.06 122.643 238.927 122.554C228.678 123.221 219.612 125.606 210.956 130.793C202.611 135.792 194.177 144.342 191.383 144.52Z" fill="url(#paint9_linear_17920_30585)"/>
<path opacity="0.6" d="M191.383 144.52C197.691 149.618 192.904 162.927 177.282 166.459C174.462 167.1 171.801 167.376 169.31 167.376C152.451 167.465 143.768 154.306 149.017 148.862C146.206 149.814 140.432 144.04 131.651 140.499C123.733 137.314 114.027 136.406 104.632 139.627C103.039 140.97 97.7991 141.362 97.9681 145.063C98.1194 148.435 104.214 146.415 104.365 147.945C104.569 150.036 100.174 151.406 100.415 153.497C101.037 158.755 114.035 156.735 123.51 165.374C130.521 171.762 131.233 183.194 129.614 199.03C128.439 210.471 125.459 230.72 125.459 230.72H163.706C161.223 205.667 174.266 195.622 174.266 195.622C174.266 195.622 191.961 204.546 190.057 230.72H222.041C222.041 230.72 218.153 202.384 216.721 194.199C213.892 177.954 219.345 157.491 227.299 149.778C236.507 140.846 241.969 141.985 241.952 137.785C241.952 135.801 238.731 135.801 238.58 133.826C238.34 130.721 246.88 129.672 246.204 126.629C245.412 123.017 240.991 123.364 239.469 122.821C239.229 122.732 239.06 122.643 238.927 122.554C228.678 123.221 219.612 125.606 210.956 130.793C202.611 135.792 194.177 144.342 191.383 144.52Z" fill="url(#paint10_linear_17920_30585)"/>
<path d="M174.257 195.631C174.257 195.631 161.214 205.676 163.696 230.729H190.048C191.961 204.555 174.257 195.631 174.257 195.631Z" fill="url(#paint11_linear_17920_30585)"/>
<path opacity="0.6" d="M174.257 195.631C174.257 195.631 161.214 205.676 163.696 230.729H190.048C191.961 204.555 174.257 195.631 174.257 195.631Z" fill="url(#paint12_linear_17920_30585)"/>
<path opacity="0.6" d="M174.257 195.631C174.257 195.631 161.214 205.676 163.696 230.729H190.048C191.961 204.555 174.257 195.631 174.257 195.631Z" fill="url(#paint13_linear_17920_30585)"/>
<path d="M191.383 144.52C191.08 144.271 190.76 144.04 190.404 143.835C186.917 141.816 183.563 139.458 180.226 137.474C177.282 135.659 174.381 134.174 171.348 133.613C169.061 133.115 166.748 133.088 164.364 133.773C159.195 135.25 157.246 138.711 154.399 142.759C152.949 144.636 151.339 146.647 149.195 148.666C149.124 148.729 149.07 148.8 149.008 148.871C143.759 154.316 152.442 167.474 169.301 167.385C171.783 167.385 174.444 167.109 177.273 166.468C192.895 162.928 197.691 149.627 191.374 144.529L191.383 144.52ZM166.597 146.273C162.264 146.736 160.36 143.302 160.858 141.496C161.259 140.037 163.011 138.328 166.534 137.946C169.648 137.608 171.428 139.04 171.961 140.357C172.709 142.207 170.716 145.837 166.606 146.273H166.597Z" fill="#FFC635"/>
<path d="M171.953 140.357C171.419 139.04 169.64 137.608 166.526 137.946C163.003 138.328 161.25 140.036 160.85 141.495C160.36 143.293 162.264 146.736 166.588 146.273C170.698 145.837 172.691 142.207 171.944 140.357H171.953Z" fill="#00073A"/>
<path d="M187.282 130.624C191.259 130.072 193.661 129.289 193.082 123.106C192.344 115.232 189.31 112.839 185.111 113.462C180.716 114.112 180.369 118.071 181.001 124.512C181.463 129.236 185.209 130.908 187.291 130.624H187.282Z" fill="url(#paint14_linear_17920_30585)"/>
<path d="M188.874 121.291C189.951 121.167 190.725 120.188 190.591 119.111C190.467 118.035 189.488 117.261 188.411 117.394C187.335 117.528 186.561 118.498 186.694 119.574C186.828 120.651 187.798 121.425 188.874 121.291Z" fill="white"/>
<path d="M147.852 135.33C151.962 134.761 154.302 133.835 154.017 129.031C153.563 121.353 151.526 116.941 145.93 118.035C142.407 118.72 141.295 122.875 141.651 128.204C142.087 134.77 145.699 135.624 147.852 135.33Z" fill="url(#paint15_linear_17920_30585)"/>
<path d="M149.631 125.793C150.681 125.668 151.428 124.716 151.304 123.667C151.179 122.617 150.227 121.869 149.177 121.994C148.128 122.119 147.38 123.071 147.505 124.12C147.629 125.17 148.581 125.917 149.631 125.793Z" fill="white"/>
</g>
<defs>
<linearGradient id="paint0_linear_17920_30585" x1="72.2957" y1="59.8204" x2="64.4963" y2="120.227" gradientUnits="userSpaceOnUse">
<stop stop-color="#E752FF"/>
<stop offset="0.11" stop-color="#DD4FFF"/>
<stop offset="0.28" stop-color="#C347FF"/>
<stop offset="0.51" stop-color="#983BFF"/>
<stop offset="0.77" stop-color="#5E2AFF"/>
<stop offset="1" stop-color="#271AFF"/>
</linearGradient>
<linearGradient id="paint1_linear_17920_30585" x1="105.327" y1="34.397" x2="99.7107" y2="78.6506" gradientUnits="userSpaceOnUse">
<stop stop-color="#E752FF"/>
<stop offset="0.11" stop-color="#DD4FFF"/>
<stop offset="0.28" stop-color="#C347FF"/>
<stop offset="0.51" stop-color="#983BFF"/>
<stop offset="0.77" stop-color="#5E2AFF"/>
<stop offset="1" stop-color="#271AFF"/>
</linearGradient>
<linearGradient id="paint2_linear_17920_30585" x1="194.468" y1="95.3422" x2="199.351" y2="48.9973" gradientUnits="userSpaceOnUse">
<stop stop-color="#FF6600" stop-opacity="0"/>
<stop offset="0.06" stop-color="#FF6600" stop-opacity="0.12"/>
<stop offset="0.2" stop-color="#FF6600" stop-opacity="0.42"/>
<stop offset="0.39" stop-color="#FF6600" stop-opacity="0.9"/>
<stop offset="0.43" stop-color="#FF6600"/>
<stop offset="0.72" stop-color="#FD4737"/>
<stop offset="1" stop-color="#FB2872"/>
</linearGradient>
<linearGradient id="paint3_linear_17920_30585" x1="140.541" y1="101.67" x2="125.011" y2="57.7394" gradientUnits="userSpaceOnUse">
<stop stop-color="#FF6600" stop-opacity="0"/>
<stop offset="0.04" stop-color="#FF6600" stop-opacity="0.04"/>
<stop offset="0.1" stop-color="#FF6600" stop-opacity="0.15"/>
<stop offset="0.19" stop-color="#FF6600" stop-opacity="0.33"/>
<stop offset="0.29" stop-color="#FF6600" stop-opacity="0.58"/>
<stop offset="0.4" stop-color="#FF6600" stop-opacity="0.89"/>
<stop offset="0.43" stop-color="#FF6600"/>
<stop offset="0.72" stop-color="#FD4737"/>
<stop offset="1" stop-color="#FB2872"/>
</linearGradient>
<radialGradient id="paint4_radial_17920_30585" cx="0" cy="0" r="1" gradientUnits="userSpaceOnUse" gradientTransform="translate(171.889 8.89224) rotate(90) scale(212.574)">
<stop stop-color="#AE49EC"/>
<stop offset="1" stop-color="#210340"/>
</radialGradient>
<radialGradient id="paint5_radial_17920_30585" cx="0" cy="0" r="1" gradientUnits="userSpaceOnUse" gradientTransform="translate(171.889 8.89322) rotate(90) scale(212.574)">
<stop stop-color="#AE49EC"/>
<stop offset="1" stop-color="#210340"/>
</radialGradient>
<linearGradient id="paint6_linear_17920_30585" x1="168.963" y1="54.2191" x2="174.079" y2="207.856" gradientUnits="userSpaceOnUse">
<stop stop-color="#FF6600"/>
<stop offset="0.11" stop-color="#FF6A02"/>
<stop offset="0.23" stop-color="#FF7709"/>
<stop offset="0.35" stop-color="#FF8C15"/>
<stop offset="0.47" stop-color="#FFAA25"/>
<stop offset="0.49" stop-color="#FFB029"/>
<stop offset="0.55" stop-color="#FFAC27"/>
<stop offset="0.62" stop-color="#FFA120"/>
<stop offset="0.68" stop-color="#FF8F16"/>
<stop offset="0.73" stop-color="#FF7508"/>
<stop offset="0.76" stop-color="#FF6600"/>
<stop offset="0.91" stop-color="#FB2872"/>
</linearGradient>
<linearGradient id="paint7_linear_17920_30585" x1="194.468" y1="95.3457" x2="199.351" y2="49.0007" gradientUnits="userSpaceOnUse">
<stop stop-color="#FF6600" stop-opacity="0"/>
<stop offset="0.06" stop-color="#FF6600" stop-opacity="0.12"/>
<stop offset="0.2" stop-color="#FF6600" stop-opacity="0.42"/>
<stop offset="0.39" stop-color="#FF6600" stop-opacity="0.9"/>
<stop offset="0.43" stop-color="#FF6600"/>
<stop offset="0.72" stop-color="#FD4737"/>
<stop offset="1" stop-color="#FB2872"/>
</linearGradient>
<linearGradient id="paint8_linear_17920_30585" x1="140.541" y1="101.671" x2="125.012" y2="57.7404" gradientUnits="userSpaceOnUse">
<stop stop-color="#FF6600" stop-opacity="0"/>
<stop offset="0.04" stop-color="#FF6600" stop-opacity="0.04"/>
<stop offset="0.1" stop-color="#FF6600" stop-opacity="0.15"/>
<stop offset="0.19" stop-color="#FF6600" stop-opacity="0.33"/>
<stop offset="0.29" stop-color="#FF6600" stop-opacity="0.58"/>
<stop offset="0.4" stop-color="#FF6600" stop-opacity="0.89"/>
<stop offset="0.43" stop-color="#FF6600"/>
<stop offset="0.72" stop-color="#FD4737"/>
<stop offset="1" stop-color="#FB2872"/>
</linearGradient>
<linearGradient id="paint9_linear_17920_30585" x1="170.262" y1="80.9445" x2="177.309" y2="292.338" gradientUnits="userSpaceOnUse">
<stop stop-color="#FF6600"/>
<stop offset="0.33" stop-color="#FFB029"/>
<stop offset="0.46" stop-color="#FF9218"/>
<stop offset="0.63" stop-color="#FF6600"/>
<stop offset="1" stop-color="#FB2872"/>
</linearGradient>
<linearGradient id="paint10_linear_17920_30585" x1="172.211" y1="132.029" x2="167.077" y2="306.048" gradientUnits="userSpaceOnUse">
<stop stop-color="#FFEB49"/>
<stop offset="0.36" stop-color="#FFB52B" stop-opacity="0.6"/>
<stop offset="0.67" stop-color="#FF8A14" stop-opacity="0.28"/>
<stop offset="0.89" stop-color="#FF7005" stop-opacity="0.08"/>
<stop offset="1" stop-color="#FF6600" stop-opacity="0"/>
</linearGradient>
<linearGradient id="paint11_linear_17920_30585" x1="171.953" y1="80.8822" x2="178.999" y2="292.276" gradientUnits="userSpaceOnUse">
<stop stop-color="#FF6600"/>
<stop offset="0.33" stop-color="#FFB029"/>
<stop offset="0.46" stop-color="#FF9218"/>
<stop offset="0.63" stop-color="#FF6600"/>
<stop offset="1" stop-color="#FB2872"/>
</linearGradient>
<linearGradient id="paint12_linear_17920_30585" x1="179.541" y1="132.252" x2="174.408" y2="306.27" gradientUnits="userSpaceOnUse">
<stop stop-color="#FFEB49"/>
<stop offset="0.36" stop-color="#FFB52B" stop-opacity="0.6"/>
<stop offset="0.67" stop-color="#FF8A14" stop-opacity="0.28"/>
<stop offset="0.89" stop-color="#FF7005" stop-opacity="0.08"/>
<stop offset="1" stop-color="#FF6600" stop-opacity="0"/>
</linearGradient>
<linearGradient id="paint13_linear_17920_30585" x1="176.49" y1="219.279" x2="181.285" y2="324.722" gradientUnits="userSpaceOnUse">
<stop stop-color="#FFC635"/>
<stop offset="0.09" stop-color="#FFC132" stop-opacity="0.96"/>
<stop offset="0.24" stop-color="#FFB62C" stop-opacity="0.84"/>
<stop offset="0.44" stop-color="#FFA422" stop-opacity="0.66"/>
<stop offset="0.67" stop-color="#FF8C15" stop-opacity="0.4"/>
<stop offset="0.94" stop-color="#FF6C03" stop-opacity="0.07"/>
<stop offset="1" stop-color="#FF6600" stop-opacity="0"/>
</linearGradient>
<linearGradient id="paint14_linear_17920_30585" x1="182.374" y1="108.427" x2="189.221" y2="130.123" gradientUnits="userSpaceOnUse">
<stop offset="0.16" stop-color="#A030B9"/>
<stop offset="0.88" stop-color="#00073A"/>
</linearGradient>
<linearGradient id="paint15_linear_17920_30585" x1="144.038" y1="113.947" x2="149.236" y2="132.971" gradientUnits="userSpaceOnUse">
<stop offset="0.16" stop-color="#A030B9"/>
<stop offset="0.88" stop-color="#00073A"/>
</linearGradient>
</defs>
</svg>
