<svg width="485" height="424" viewBox="0 0 485 424" fill="none" xmlns="http://www.w3.org/2000/svg">
<path d="M256.489 290.579L274.791 249.57C279.42 239.186 287.824 230.968 298.313 226.555L335.59 210.857C340.941 208.61 340.941 201.015 335.59 198.767L298.395 183.184C287.873 178.771 279.436 170.52 274.791 160.104L256.489 119.029C254.158 113.78 246.69 113.862 244.458 119.144L227.945 158.283C223.415 168.995 214.896 177.541 204.193 182.085L164.848 198.784C159.53 201.048 159.514 208.577 164.832 210.841L204.505 227.835C215.175 232.395 223.644 240.925 228.142 251.604L244.49 290.415C246.723 295.697 254.191 295.779 256.522 290.546L256.489 290.579Z" fill="url(#paint0_linear_10046_54668)"/>
<path d="M289.958 129.248L303.368 99.1967C306.766 91.5853 312.921 85.5651 320.603 82.3336L347.933 70.8346C351.856 69.1778 351.856 63.6169 347.933 61.9766L320.669 50.5596C312.954 47.328 306.766 41.275 303.368 33.6473L289.958 3.53004C288.251 -0.308431 282.768 -0.259215 281.127 3.61207L269.013 32.3022C265.698 40.1596 259.46 46.4094 251.598 49.7394L222.758 61.9766C218.868 63.6333 218.851 69.145 222.758 70.8182L251.844 83.285C259.657 86.6314 265.862 92.8812 269.161 100.706L281.143 129.15C282.768 133.021 288.251 133.087 289.974 129.248H289.958Z" fill="url(#paint1_linear_10046_54668)"/>
<path d="M205.095 383.604C205.095 383.604 203.24 388.115 232.015 385.327C265.812 382.062 291.139 382.226 303.351 320.04C304.352 314.971 306.962 302.34 311.575 288.709C320.356 262.758 327.398 263.775 327.398 263.775C327.398 263.775 325.871 267.942 326.249 274.044C326.659 280.523 327.185 278.834 327.185 278.834C327.185 278.834 341.35 270.222 348.95 253.26C357.141 235.003 359.636 220.518 347.194 198.898C332.142 172.751 324.361 164.155 322.178 142.355C318.387 104.396 361.95 95.4727 361.95 95.4727C361.95 95.4727 348.326 124.917 385.931 147.768C396.518 154.198 432.466 172.816 451.194 198.734C456.398 205.935 458.893 214.515 458.893 214.515C458.893 214.515 460.419 212.809 461.568 209.38C462.389 206.936 463.866 202.901 463.866 202.901C463.866 202.901 480.018 229.885 483.383 259.379C490.26 319.482 468.692 349.731 444.957 376.141C417.118 407.127 368.68 420.513 315.58 421.776C224.103 423.941 229.323 422.809 183.527 422.809C137.731 422.809 205.046 383.621 205.046 383.621L205.095 383.604Z" fill="url(#paint2_linear_10046_54668)"/>
<path d="M441.919 312.97C452.753 268.877 446.844 244.862 446.942 244.911C446.942 244.911 445.268 250.767 442.904 257.853C440.606 264.727 437.75 268.434 437.75 268.434C438.669 270.763 437.471 254.195 434.631 238.956C431.48 222.028 426.047 208.773 426.047 208.773C426.047 208.773 426.588 226.26 424.865 241.286C421.992 266.351 416.116 294.844 405.496 309.853C396.928 321.959 383.288 334.213 394.055 347.073C404.823 359.934 428.164 347.5 441.919 312.954V312.97Z" fill="url(#paint3_linear_10046_54668)"/>
<path d="M139.684 131.036C139.684 131.036 139.93 131.02 140.389 130.905C134.415 131.299 127.57 130.889 120.381 129.626C98.4346 125.804 92.9523 124.475 73.2387 122.769C42.6425 120.128 30.3482 132.578 6.92502 145.964C4.51212 147.981 -0.625538 153.313 2.11565 157.594C4.3644 161.104 11.9642 155.166 12.7521 159.251C13.261 161.859 4.75835 164.09 8.22176 168.913C12.9327 175.441 26.1625 170.11 26.1625 187.285C26.1625 204.459 23.0275 223.34 28.2472 262.381C29.2156 269.681 30.5124 276.423 32.0389 282.771C34.1235 285.33 36.996 289.267 40.6071 296.878C47.0908 310.542 49.832 320.253 49.9961 318.039C50.1931 315.496 49.159 311.445 49.1261 307.672C49.0441 299.896 48.0428 292.055 48.0428 292.055C48.0428 292.055 52.3269 298.715 54.5921 306.212C56.7752 313.479 59.6805 321.418 59.6805 321.418C59.6805 321.418 59.582 311.248 60.452 309.903C81.3474 342.103 88.6353 375.862 92.033 399.68C92.1479 399.549 92.2136 399.401 92.1972 399.254C87.3057 360.935 77.3915 295.467 72.3031 277.522C73.288 281.131 77.0796 282.328 84.1706 301.16C89.5052 315.3 90.2111 320.253 90.3752 318.023C90.5722 315.48 89.5381 303.177 89.5052 299.404C89.4231 291.629 88.4219 280.655 88.4219 280.655C88.4219 280.655 92.706 290.448 94.9712 297.961C97.1543 305.228 101.717 321.418 101.717 321.418C101.717 321.418 106.199 289.48 107.069 288.119C114.636 330.653 114.57 374.632 115.112 402.157C124.221 397.367 137.993 397.581 145.462 397.449C145.905 397.449 146.348 397.433 146.807 397.417C133.249 390.215 123.007 377.027 122.104 355.226C120.807 323.764 142.097 297.846 169.968 294.778C197.839 291.711 219.359 314.43 222.74 345.105C225.58 370.941 218.374 392.922 199.382 401.042L192.012 422.875C203.338 422.974 214.369 423.072 224.611 423.072C227.992 423.072 249.725 423.941 245.359 355.85C243.208 322.255 227.91 275.947 171.216 242.533C123.975 214.695 140.98 168.42 157.739 158.332C162.861 155.248 166.16 153.198 168.819 151.459C151.239 148.736 139.7 130.987 139.7 130.987L139.684 131.036Z" fill="url(#paint4_linear_10046_54668)"/>
<path d="M79.2298 416.707C76.1768 403.486 90.3751 401.649 92.0494 399.697C88.6352 375.878 81.3637 342.119 60.4683 309.919C59.5984 311.264 59.6969 321.434 59.6969 321.434C59.6969 321.434 56.7915 313.495 54.6084 306.228C52.3597 298.715 48.0591 292.072 48.0591 292.072C48.0591 292.072 49.0604 299.913 49.1424 307.688C49.1917 311.461 50.2094 315.513 50.0124 318.055C49.8318 320.27 47.1071 310.559 40.6234 296.894C37.0123 289.299 34.1234 285.346 32.0552 282.787C42.5439 326.536 64.2108 351.092 72.2045 401.911C72.3358 402.78 59.5819 403.83 60.9607 416.396C61.5517 421.825 66.6401 423.055 84.1213 423.154C81.8068 421.776 79.9192 419.742 79.2134 416.707H79.2298Z" fill="url(#paint5_linear_10046_54668)"/>
<path d="M79.2298 416.707C76.1768 403.486 90.3751 401.649 92.0494 399.697C88.6352 375.878 81.3637 342.119 60.4683 309.919C59.5984 311.264 59.6969 321.434 59.6969 321.434C59.6969 321.434 56.7915 313.495 54.6084 306.228C52.3597 298.715 48.0591 292.072 48.0591 292.072C48.0591 292.072 49.0604 299.913 49.1424 307.688C49.1917 311.461 50.2094 315.513 50.0124 318.055C49.8318 320.27 47.1071 310.559 40.6234 296.894C37.0123 289.299 34.1234 285.346 32.0552 282.787C42.5439 326.536 64.2108 351.092 72.2045 401.911C72.3358 402.78 59.5819 403.83 60.9607 416.396C61.5517 421.825 66.6401 423.055 84.1213 423.154C81.8068 421.776 79.9192 419.742 79.2134 416.707H79.2298Z" fill="url(#paint6_linear_10046_54668)"/>
<path d="M110.647 405.307C111.927 404.077 113.454 403.06 115.112 402.19C114.57 374.665 114.636 330.686 107.069 288.152C106.199 289.497 101.718 321.451 101.718 321.451C101.718 321.451 97.1544 305.261 94.9713 297.994C92.7226 290.481 88.4221 280.688 88.4221 280.688C88.4221 280.688 89.4233 291.662 89.5054 299.437C89.5546 303.21 90.5723 315.513 90.3754 318.056C90.1948 320.27 89.5054 315.333 84.1707 301.192C77.0633 282.361 73.2717 281.164 72.3032 277.555C77.4081 295.5 87.3223 360.968 92.1973 399.287C92.2137 399.435 92.1481 399.566 92.0332 399.713C93.4284 409.441 94.1834 417.511 94.9549 423.138C100.224 423.105 104.672 423.072 108.792 423.056C106.149 419.939 102.489 413.181 110.647 405.323V405.307Z" fill="url(#paint7_linear_10046_54668)"/>
<path d="M110.647 405.307C111.927 404.077 113.454 403.06 115.112 402.19C114.57 374.665 114.636 330.686 107.069 288.152C106.199 289.497 101.718 321.451 101.718 321.451C101.718 321.451 97.1544 305.261 94.9713 297.994C92.7226 290.481 88.4221 280.688 88.4221 280.688C88.4221 280.688 89.4233 291.662 89.5054 299.437C89.5546 303.21 90.5723 315.513 90.3754 318.056C90.1948 320.27 89.5054 315.333 84.1707 301.192C77.0633 282.361 73.2717 281.164 72.3032 277.555C77.4081 295.5 87.3223 360.968 92.1973 399.287C92.2137 399.435 92.1481 399.566 92.0332 399.713C93.4284 409.441 94.1834 417.511 94.9549 423.138C100.224 423.105 104.672 423.072 108.792 423.056C106.149 419.939 102.489 413.181 110.647 405.323V405.307Z" fill="url(#paint8_linear_10046_54668)"/>
<path d="M79.2306 416.708C79.9365 419.743 81.8241 421.777 84.1385 423.155C86.4693 423.155 89.0135 423.155 91.8204 423.155C92.9037 423.155 93.9543 423.155 94.9884 423.138C94.2169 417.512 93.4618 409.458 92.0666 399.714C90.3924 401.666 76.194 403.503 79.247 416.725L79.2306 416.708Z" fill="url(#paint9_linear_10046_54668)"/>
<path d="M79.2306 416.708C79.9365 419.743 81.8241 421.777 84.1385 423.155C86.4693 423.155 89.0135 423.155 91.8204 423.155C92.9037 423.155 93.9543 423.155 94.9884 423.138C94.2169 417.512 93.4618 409.458 92.0666 399.714C90.3924 401.666 76.194 403.503 79.247 416.725L79.2306 416.708Z" fill="url(#paint10_linear_10046_54668)"/>
<path d="M149.205 125.656C144.954 129.478 141.737 130.593 140.374 130.905C139.915 131.02 139.668 131.036 139.668 131.036C139.668 131.036 151.208 148.785 168.787 151.508C172.957 148.785 175.501 146.882 180.819 143.159C191.291 135.826 195.756 124.393 195.707 117.044C194.722 117.717 193.442 118.225 191.849 118.373C186.334 118.898 182.739 114.665 183.232 112.041C183.478 110.745 184.512 109.236 186.482 108.284C184.447 108.366 181.952 108.514 178.816 108.334C175.698 108.153 172.989 107.776 170.593 107.251C156.805 111.073 157.265 118.422 149.205 125.672V125.656Z" fill="#FFC635"/>
<path d="M183.232 112.041C182.74 114.666 186.334 118.898 191.849 118.373C193.458 118.225 194.722 117.717 195.707 117.044C195.707 115.256 195.428 113.714 194.903 112.517C193.048 108.285 190.799 108.137 186.482 108.301C184.496 109.252 183.462 110.762 183.232 112.057V112.041Z" fill="#00073A"/>
<path d="M146.792 396.946C146.349 396.946 145.906 396.963 145.446 396.98C137.978 397.13 124.206 396.913 115.096 401.777C115.277 410.787 115.523 418.059 116.098 422.99C125.963 422.94 135.647 422.89 153.063 422.773C165.981 422.689 179.178 422.773 191.981 422.89L199.351 400.641C186.237 406.364 164.008 406.274 146.792 396.946Z" fill="url(#paint11_linear_10046_54668)"/>
<path d="M110.648 405.307C102.49 413.165 106.167 419.923 108.793 423.04C111.321 423.04 113.718 423.007 116.098 423.007C115.523 418.168 115.277 411.032 115.096 402.19C113.439 403.06 111.912 404.077 110.632 405.307H110.648Z" fill="url(#paint12_linear_10046_54668)"/>
<path d="M110.648 405.307C102.49 413.165 106.167 419.923 108.793 423.04C111.321 423.04 113.718 423.007 116.098 423.007C115.523 418.168 115.277 411.032 115.096 402.19C113.439 403.06 111.912 404.077 110.632 405.307H110.648Z" fill="url(#paint13_linear_10046_54668)"/>
<path d="M199.367 401.075C218.359 392.955 225.565 370.974 222.725 345.138C219.344 314.463 197.824 291.744 169.953 294.812C142.082 297.879 120.792 323.797 122.089 355.26C122.992 377.06 133.234 390.249 146.792 397.45C175.304 396.876 201.255 395.465 201.255 395.465L199.367 401.075Z" fill="url(#paint14_linear_10046_54668)"/>
<path d="M199.367 401.075C218.359 392.955 225.565 370.974 222.725 345.138C219.344 314.463 197.824 291.744 169.953 294.812C142.082 297.879 120.792 323.797 122.089 355.26C122.992 377.06 133.234 390.249 146.792 397.45C175.304 396.876 201.255 395.465 201.255 395.465L199.367 401.075Z" fill="url(#paint15_linear_10046_54668)"/>
<path d="M187.433 404.11C191.832 403.635 195.805 402.585 199.366 401.059L201.254 395.449C201.254 395.449 175.287 396.86 146.792 397.434C159.119 403.979 174.17 405.57 187.433 404.11Z" fill="url(#paint16_linear_10046_54668)"/>
<path opacity="0.6" d="M139.684 131.036C139.684 131.036 139.93 131.02 140.389 130.905C134.415 131.299 127.57 130.889 120.381 129.626C98.4346 125.804 92.9523 124.475 73.2387 122.769C42.6425 120.128 30.3482 132.578 6.92502 145.964C4.51212 147.981 -0.625538 153.313 2.11565 157.594C4.3644 161.104 11.9642 155.166 12.7521 159.251C13.261 161.859 4.75835 164.09 8.22176 168.913C12.9327 175.441 26.1625 170.11 26.1625 187.285C26.1625 204.459 23.0275 223.34 28.2472 262.381C29.2156 269.681 30.5124 276.423 32.0389 282.771C34.1235 285.33 36.996 289.267 40.6071 296.878C47.0908 310.542 49.832 320.253 49.9961 318.039C50.1931 315.496 49.159 311.445 49.1261 307.672C49.0441 299.896 48.0428 292.055 48.0428 292.055C48.0428 292.055 52.3269 298.715 54.5921 306.212C56.7752 313.479 59.6805 321.418 59.6805 321.418C59.6805 321.418 59.582 311.248 60.452 309.903C81.3474 342.103 88.6353 375.862 92.033 399.68C92.1479 399.549 92.2136 399.401 92.1972 399.254C87.3057 360.935 77.3915 295.467 72.3031 277.522C73.288 281.131 77.0796 282.328 84.1706 301.16C89.5052 315.3 90.2111 320.253 90.3752 318.023C90.5722 315.48 89.5381 303.177 89.5052 299.404C89.4232 291.629 88.4219 280.655 88.4219 280.655C88.4219 280.655 92.706 290.448 94.9712 297.961C97.1543 305.228 101.717 321.418 101.717 321.418C101.717 321.418 106.199 289.48 107.069 288.119C114.636 330.653 114.57 374.632 115.112 402.157C124.221 397.367 137.993 397.581 145.462 397.449C145.905 397.449 146.348 397.433 146.807 397.417C133.249 390.215 123.007 377.027 122.104 355.226C120.807 323.764 142.097 297.846 169.968 294.778C197.839 291.711 219.359 314.43 222.74 345.105C225.58 370.941 218.374 392.922 199.382 401.042L192.012 422.875C203.338 422.974 214.369 423.072 224.611 423.072C227.993 423.072 249.725 423.941 245.359 355.85C243.208 322.255 227.91 275.947 171.216 242.533C123.975 214.695 140.98 168.42 157.739 158.332C162.861 155.248 166.16 153.198 168.819 151.459C151.239 148.736 139.7 130.987 139.7 130.987L139.684 131.036Z" fill="url(#paint17_linear_10046_54668)"/>
<path d="M126.389 70.4412C122.548 49.6905 114.866 15.3083 106.216 16.2433C97.0404 17.2275 87.8976 35.042 80.9544 51.9706C80.1829 48.8375 79.2965 45.1959 77.8028 40.7505C72.5339 25.1505 69.4315 16.9815 63.4239 17.9821C56.9567 19.0483 48.1915 32.4666 43.5791 43.9492C36.1762 62.387 36.0613 66.9144 34.7154 75.0507C34.4363 76.6911 34.0424 78.5447 33.5499 80.5131C31.0057 90.8311 25.9994 104.282 23.5701 108.695C17.9071 118.947 -0.066472 132.562 0.704999 141.912C1.0497 145.98 11.0132 143.011 7.68107 145.374C7.48409 145.505 7.22146 145.718 6.90959 145.964C30.3328 132.595 42.627 120.128 73.2232 122.769C92.9204 124.475 98.4192 125.787 120.365 129.626C127.555 130.889 134.399 131.299 140.374 130.905C141.736 130.594 144.954 129.478 149.205 125.656C157.264 118.406 156.805 111.057 170.593 107.235C149.468 102.527 153.456 84.8929 126.389 70.4248V70.4412Z" fill="url(#paint18_linear_10046_54668)"/>
<path d="M97.3841 63.076C105.443 63.6173 115.949 65.1592 124.468 69.4406C125.141 69.7687 125.748 70.1132 126.388 70.4412C122.547 49.6905 114.865 15.3083 106.215 16.2433C97.0394 17.2275 87.8966 35.042 80.9534 51.9706C82.0203 56.3176 82.8575 59.664 84.7779 62.7479C84.86 62.8955 90.1454 62.5839 97.3841 63.076Z" fill="url(#paint19_linear_10046_54668)"/>
<path d="M147.301 102.035C149.632 101.264 153.293 99.4269 148.385 92.0124C144.412 85.9922 140.703 83.7613 137.42 84.4339C131.741 85.5821 131.183 90.2572 137.42 99.5909C138.487 101.198 142.016 103.79 147.301 102.035Z" fill="url(#paint20_linear_10046_54668)"/>
<path d="M146.317 94.4076C145.053 94.8177 144.315 96.4581 144.709 98.0492C145.086 99.6404 146.432 100.592 147.696 100.165C148.96 99.7552 149.698 98.1149 149.305 96.5237C148.927 94.9325 147.581 93.9811 146.317 94.4076Z" fill="white"/>
<path d="M112.666 101.953C114.947 108.449 109.908 109.368 107.085 109.876C101.668 110.844 98.3197 111.468 95.2994 102.97C91.4585 92.1604 96.4484 88.2071 102.341 89.0273C106.1 89.5522 109.563 93.0954 112.666 101.953Z" fill="url(#paint21_linear_10046_54668)"/>
<path d="M110.082 106.07C111.401 105.613 112.045 104.015 111.521 102.5C110.996 100.984 109.501 100.126 108.182 100.582C106.862 101.038 106.218 102.637 106.743 104.152C107.268 105.667 108.763 106.526 110.082 106.07Z" fill="white"/>
<defs>
<linearGradient id="paint0_linear_10046_54668" x1="237.891" y1="108.159" x2="262.501" y2="301.649" gradientUnits="userSpaceOnUse">
<stop stop-color="#E752FF"/>
<stop offset="0.11" stop-color="#DD4FFF"/>
<stop offset="0.28" stop-color="#C347FF"/>
<stop offset="0.51" stop-color="#983BFF"/>
<stop offset="0.77" stop-color="#5E2AFF"/>
<stop offset="1" stop-color="#271AFF"/>
</linearGradient>
<linearGradient id="paint1_linear_10046_54668" x1="276.321" y1="-4.4581" x2="294.369" y2="137.368" gradientUnits="userSpaceOnUse">
<stop stop-color="#E752FF"/>
<stop offset="0.11" stop-color="#DD4FFF"/>
<stop offset="0.28" stop-color="#C347FF"/>
<stop offset="0.51" stop-color="#983BFF"/>
<stop offset="0.77" stop-color="#5E2AFF"/>
<stop offset="1" stop-color="#271AFF"/>
</linearGradient>
<linearGradient id="paint2_linear_10046_54668" x1="438.67" y1="164.139" x2="273.059" y2="438.7" gradientUnits="userSpaceOnUse">
<stop stop-color="#FFEB49"/>
<stop offset="0.32" stop-color="#FF9B1D"/>
<stop offset="0.56" stop-color="#FF6600"/>
<stop offset="0.74" stop-color="#FD4835"/>
<stop offset="0.91" stop-color="#FB3161"/>
<stop offset="1" stop-color="#FB2872"/>
</linearGradient>
<linearGradient id="paint3_linear_10046_54668" x1="431.381" y1="207.74" x2="417.135" y2="322.404" gradientUnits="userSpaceOnUse">
<stop stop-color="#FFEB49" stop-opacity="0.6"/>
<stop offset="0.13" stop-color="#FFE646" stop-opacity="0.56"/>
<stop offset="0.35" stop-color="#FFDB40" stop-opacity="0.44"/>
<stop offset="0.65" stop-color="#FFC936" stop-opacity="0.26"/>
<stop offset="1" stop-color="#FFB029" stop-opacity="0"/>
</linearGradient>
<linearGradient id="paint4_linear_10046_54668" x1="143.103" y1="61.8261" x2="109.703" y2="414.583" gradientUnits="userSpaceOnUse">
<stop stop-color="#FF6600"/>
<stop offset="0.33" stop-color="#FFB029"/>
<stop offset="0.46" stop-color="#FF9218"/>
<stop offset="0.63" stop-color="#FF6600"/>
<stop offset="1" stop-color="#FB2872"/>
</linearGradient>
<linearGradient id="paint5_linear_10046_54668" x1="88.9625" y1="56.7048" x2="55.5468" y2="409.461" gradientUnits="userSpaceOnUse">
<stop stop-color="#FF6600"/>
<stop offset="0.33" stop-color="#FFB029"/>
<stop offset="0.46" stop-color="#FF9218"/>
<stop offset="0.63" stop-color="#FF6600"/>
<stop offset="1" stop-color="#FB2872"/>
</linearGradient>
<linearGradient id="paint6_linear_10046_54668" x1="52.6884" y1="285.724" x2="86.1242" y2="483.384" gradientUnits="userSpaceOnUse">
<stop offset="0.02" stop-color="#D81F60" stop-opacity="0"/>
<stop offset="0.49" stop-color="#D81F60"/>
<stop offset="0.58" stop-color="#A31F4D"/>
<stop offset="0.68" stop-color="#731F3C"/>
<stop offset="0.78" stop-color="#4D1F2F"/>
<stop offset="0.86" stop-color="#321F25"/>
<stop offset="0.94" stop-color="#211F20"/>
<stop offset="1" stop-color="#1C1F1E"/>
</linearGradient>
<linearGradient id="paint7_linear_10046_54668" x1="120.209" y1="59.6511" x2="86.7918" y2="412.423" gradientUnits="userSpaceOnUse">
<stop stop-color="#FF6600"/>
<stop offset="0.33" stop-color="#FFB029"/>
<stop offset="0.46" stop-color="#FF9218"/>
<stop offset="0.63" stop-color="#FF6600"/>
<stop offset="1" stop-color="#FB2872"/>
</linearGradient>
<linearGradient id="paint8_linear_10046_54668" x1="89.3165" y1="286.562" x2="121.705" y2="478.106" gradientUnits="userSpaceOnUse">
<stop stop-color="#D81F60" stop-opacity="0"/>
<stop offset="0.5" stop-color="#D11F5D"/>
<stop offset="0.68" stop-color="#841F42"/>
<stop offset="0.83" stop-color="#4C1F2E"/>
<stop offset="0.94" stop-color="#291F22"/>
<stop offset="1" stop-color="#1C1F1E"/>
</linearGradient>
<linearGradient id="paint9_linear_10046_54668" x1="64.5456" y1="283.729" x2="97.9629" y2="481.375" gradientUnits="userSpaceOnUse">
<stop offset="0.02" stop-color="#D81F60" stop-opacity="0"/>
<stop offset="0.49" stop-color="#D81F60"/>
<stop offset="0.58" stop-color="#A31F4D"/>
<stop offset="0.68" stop-color="#731F3C"/>
<stop offset="0.78" stop-color="#4D1F2F"/>
<stop offset="0.86" stop-color="#321F25"/>
<stop offset="0.94" stop-color="#211F20"/>
<stop offset="1" stop-color="#1C1F1E"/>
</linearGradient>
<linearGradient id="paint10_linear_10046_54668" x1="65.7041" y1="290.558" x2="98.0904" y2="482.086" gradientUnits="userSpaceOnUse">
<stop offset="0.02" stop-color="#D81F60" stop-opacity="0"/>
<stop offset="0.49" stop-color="#D81F60"/>
<stop offset="0.5" stop-color="#D11F5D"/>
<stop offset="0.68" stop-color="#841F42"/>
<stop offset="0.83" stop-color="#4C1F2E"/>
<stop offset="0.94" stop-color="#291F22"/>
<stop offset="1" stop-color="#1C1F1E"/>
</linearGradient>
<linearGradient id="paint11_linear_10046_54668" x1="188.37" y1="409.784" x2="113.143" y2="410.316" gradientUnits="userSpaceOnUse">
<stop offset="0.02" stop-color="#FB2872"/>
<stop offset="0.740385" stop-color="#AA0D51"/>
</linearGradient>
<linearGradient id="paint12_linear_10046_54668" x1="89.6106" y1="286.524" x2="122.013" y2="478.049" gradientUnits="userSpaceOnUse">
<stop offset="0.02" stop-color="#D81F60" stop-opacity="0"/>
<stop offset="0.49" stop-color="#D81F60"/>
<stop offset="0.5" stop-color="#D11F5D"/>
<stop offset="0.68" stop-color="#841F42"/>
<stop offset="0.83" stop-color="#4C1F2E"/>
<stop offset="0.94" stop-color="#291F22"/>
<stop offset="1" stop-color="#1C1F1E"/>
</linearGradient>
<linearGradient id="paint13_linear_10046_54668" x1="188.386" y1="412.065" x2="113.16" y2="412.607" gradientUnits="userSpaceOnUse">
<stop offset="0.02" stop-color="#FB2872"/>
<stop offset="1" stop-color="#AA0D51"/>
</linearGradient>
<linearGradient id="paint14_linear_10046_54668" x1="199.842" y1="67.205" x2="166.443" y2="419.962" gradientUnits="userSpaceOnUse">
<stop stop-color="#FF6600"/>
<stop offset="0.33" stop-color="#FFB029"/>
<stop offset="0.46" stop-color="#FF9218"/>
<stop offset="0.63" stop-color="#FF6600"/>
<stop offset="1" stop-color="#FB2872"/>
</linearGradient>
<linearGradient id="paint15_linear_10046_54668" x1="73.2729" y1="298.388" x2="178.345" y2="352.378" gradientUnits="userSpaceOnUse">
<stop stop-color="#FFEB49"/>
<stop offset="0.13" stop-color="#FDDE46" stop-opacity="0.89"/>
<stop offset="0.42" stop-color="#F7BD3E" stop-opacity="0.61"/>
<stop offset="0.84" stop-color="#EF8932" stop-opacity="0.16"/>
<stop offset="0.98" stop-color="#ED762E" stop-opacity="0"/>
</linearGradient>
<linearGradient id="paint16_linear_10046_54668" x1="205.12" y1="67.6946" x2="171.705" y2="420.45" gradientUnits="userSpaceOnUse">
<stop stop-color="#FF6600"/>
<stop offset="0.33" stop-color="#FFB029"/>
<stop offset="0.46" stop-color="#FF9218"/>
<stop offset="0.63" stop-color="#FF6600"/>
<stop offset="1" stop-color="#FB2872"/>
</linearGradient>
<linearGradient id="paint17_linear_10046_54668" x1="168.042" y1="106.262" x2="98.9729" y2="364.836" gradientUnits="userSpaceOnUse">
<stop offset="0.05" stop-color="#FFEB49"/>
<stop offset="0.59" stop-color="#FF8C15" stop-opacity="0.29"/>
<stop offset="0.83" stop-color="#FF6600" stop-opacity="0"/>
</linearGradient>
<linearGradient id="paint18_linear_10046_54668" x1="94.808" y1="19.36" x2="40.8247" y2="636.95" gradientUnits="userSpaceOnUse">
<stop offset="0.02" stop-color="#FF6600"/>
<stop offset="0.23" stop-color="#FFB029"/>
<stop offset="0.33" stop-color="#FF9118"/>
<stop offset="0.44" stop-color="#FF790A"/>
<stop offset="0.54" stop-color="#FF6B02"/>
<stop offset="0.63" stop-color="#FF6600"/>
<stop offset="1" stop-color="#FB2872"/>
</linearGradient>
<linearGradient id="paint19_linear_10046_54668" x1="129.195" y1="-5.0862" x2="61.9086" y2="169.98" gradientUnits="userSpaceOnUse">
<stop offset="0.09" stop-color="#BE0449" stop-opacity="0"/>
<stop offset="0.2" stop-color="#BE0449" stop-opacity="0.17"/>
<stop offset="0.33" stop-color="#BE0449" stop-opacity="0.33"/>
<stop offset="0.47" stop-color="#BE0449" stop-opacity="0.45"/>
<stop offset="0.62" stop-color="#BE0449" stop-opacity="0.53"/>
<stop offset="0.78" stop-color="#BE0449" stop-opacity="0.58"/>
<stop offset="1" stop-color="#BE0449" stop-opacity="0.6"/>
</linearGradient>
<linearGradient id="paint20_linear_10046_54668" x1="134.334" y1="79.6932" x2="145.222" y2="100.417" gradientUnits="userSpaceOnUse">
<stop offset="0.16" stop-color="#A030B9"/>
<stop offset="0.88" stop-color="#00073A"/>
</linearGradient>
<linearGradient id="paint21_linear_10046_54668" x1="100.913" y1="81.8096" x2="104.864" y2="109.992" gradientUnits="userSpaceOnUse">
<stop offset="0.16" stop-color="#A030B9"/>
<stop offset="0.88" stop-color="#00073A"/>
</linearGradient>
</defs>
</svg>
