<svg width="32" height="32" viewBox="0 0 32 32" fill="none" xmlns="http://www.w3.org/2000/svg">
<path fill-rule="evenodd" clip-rule="evenodd" d="M11.3978 19.0197C11.3988 19.0133 11.3998 19.007 11.3998 19.0003H5.21717C5.09717 19.0003 4.99984 18.899 4.99984 18.775V10.4123L11.5999 15.7416C11.8132 15.9136 12.0746 16.0003 12.3332 16.0003C12.5919 16.0003 12.8532 15.9136 13.0666 15.7416L19.6665 10.4124V16.287C20.2585 16.6043 20.8265 16.9697 21.3318 17.4363C21.4803 17.2983 21.6431 17.1813 21.8056 17.0646C21.8707 17.0178 21.9358 16.9711 21.9998 16.923V9.22566C21.9998 7.81499 20.8558 6.66699 19.4492 6.66699H5.21717C3.8105 6.66699 2.6665 7.81499 2.6665 9.22566V18.7737C2.6665 20.1857 3.8105 21.3337 5.21717 21.3337H11.3878C11.3292 20.4883 11.3158 19.6337 11.3958 19.039C11.3958 19.0323 11.3968 19.026 11.3978 19.0197ZM12.3332 13.3336L6.96566 9.00033H17.7008L12.3332 13.3336Z" fill="#592ACB"/>
<path fill-rule="evenodd" clip-rule="evenodd" d="M27.9945 17.4844C28.7678 17.663 29.3038 18.3844 29.2638 19.1937C29.4732 20.003 29.1572 22.931 28.9838 23.3937C28.6372 25.2617 27.1412 26.667 25.3492 26.667C24.5212 26.667 23.7638 26.3564 23.1465 25.8497V25.8524L22.5612 25.3564C21.8305 24.7377 20.7705 24.747 20.0492 25.3764L19.6585 25.7177C19.0172 26.3017 18.2065 26.667 17.3118 26.667C15.5198 26.667 14.0252 25.2617 13.6758 23.3924C13.5038 22.9297 13.1985 19.9884 13.3958 19.1924V19.1884C13.3585 18.3817 13.8932 17.663 14.6652 17.4844H14.6665C16.5838 17.039 18.5932 17.5924 20.0318 18.9604L20.2732 19.1897C20.5598 19.463 20.9385 19.615 21.3305 19.615C21.7225 19.615 22.0998 19.463 22.3865 19.191L22.6332 18.9577C24.0718 17.591 26.0785 17.0404 27.9945 17.4844ZM18.9942 22.8033C19.2122 22.6755 19.4052 22.5155 19.5652 22.331C19.7892 22.0737 19.7892 21.667 19.5652 21.407C19.1386 20.9137 18.4772 20.5977 17.7332 20.5977C17.1752 20.5977 16.6637 20.7762 16.2628 21.073C16.1829 21.1322 16.1075 21.196 16.0369 21.264C15.9894 21.3098 15.9441 21.3575 15.9012 21.407C15.6772 21.6657 15.6772 22.0723 15.9012 22.331C16.3279 22.823 16.9892 23.1403 17.7332 23.1403C18.1982 23.1403 18.6309 23.0164 18.9942 22.8033ZM26.7651 22.331C26.3384 22.823 25.6771 23.1403 24.9331 23.1403C24.1891 23.1403 23.5278 22.823 23.1011 22.331C22.8771 22.0723 22.8771 21.6657 23.1011 21.407C23.5278 20.915 24.1891 20.5977 24.9331 20.5977C25.6771 20.5977 26.3384 20.9137 26.7651 21.407C26.9891 21.667 26.9891 22.0737 26.7651 22.331Z" fill="#592ACB"/>
</svg>
