<svg width="32" height="32" viewBox="0 0 32 32" fill="none" xmlns="http://www.w3.org/2000/svg">
<g filter="url(#filter0_i_15709_118246)">
<path d="M0 8C0 3.58172 3.58172 0 8 0H24C28.4183 0 32 3.58172 32 8V24C32 28.4183 28.4183 32 24 32H8C3.58172 32 0 28.4183 0 24V8Z" fill="#DDCFFF" style="mix-blend-mode:multiply"/>
<path d="M9.26171 8.66162C9.18675 9.38656 9.28654 10.1117 9.56152 10.7866C10.1489 10.1242 10.8615 9.58642 11.6738 9.21143C11.4864 9.8864 11.4992 10.6117 11.6992 11.2866C11.7865 11.349 11.849 11.3988 11.9238 11.4487C12.0488 11.5612 12.199 11.6993 12.499 11.9868L12.5244 12.0112C13.1994 12.4862 13.8994 12.8868 14.6494 13.2368C14.4119 13.6617 14.0494 13.9993 13.5996 14.1743C11.1281 14.1743 10.7045 15.6177 10.6992 15.6362C10.7867 16.2362 11.0115 16.7991 11.374 17.2866C11.7365 17.7741 12.2117 18.1616 12.7617 18.4116C12.8117 18.4366 12.8621 18.4616 12.9121 18.4741C12.9993 18.5115 13.0866 18.5488 13.1738 18.5737C13.5363 18.6987 13.9241 18.7743 14.3115 18.7993C14.825 18.8625 15.3432 18.8143 15.832 18.6577C16.2895 19.0979 16.6669 19.6205 16.9395 20.2046L18.0869 22.6636C17.9256 22.7303 17.7625 22.7937 17.5967 22.8511C16.3427 23.2848 15.014 23.4282 13.708 23.2837C13.7049 23.2927 13.7023 23.302 13.6992 23.311C11.7619 23.1235 9.93686 22.2866 8.52441 20.9243C6.87451 19.3244 5.92432 17.1492 5.88672 14.8618V14.5112C5.9117 14.2988 5.92423 14.1489 5.94922 14.0239L5.97461 13.8237C6.02459 13.4864 6.08632 13.199 6.11133 13.0864V13.0366C6.3363 12.1118 6.73645 11.2366 7.29882 10.4741C7.54877 10.1367 7.82389 9.82387 8.11132 9.52393C8.37382 9.26143 8.6621 9.02354 8.9746 8.81104C9.06198 8.7487 9.1619 8.69906 9.26171 8.66162ZM19.7051 9.22217C19.7769 9.06828 19.9966 9.06828 20.0684 9.22217L21.1553 11.5523C21.6718 12.6588 22.5614 13.5484 23.668 14.0649L25.9981 15.1519C26.152 15.2237 26.152 15.4433 25.9981 15.5151L23.668 16.602C22.5614 17.1185 21.6718 18.0082 21.1553 19.1147L20.0684 21.4448C19.9966 21.5987 19.7769 21.5987 19.7051 21.4448L18.6182 19.1147C18.1017 18.0082 17.2121 17.1185 16.1055 16.602L13.7754 15.5151C13.6215 15.4433 13.6215 15.2237 13.7754 15.1519L16.1055 14.0649C17.2121 13.5484 18.1017 12.6588 18.6182 11.5523L19.7051 9.22217Z" fill="url(#paint0_linear_15709_118246)"/>
</g>
<defs>
<filter id="filter0_i_15709_118246" x="0" y="0" width="32" height="32" filterUnits="userSpaceOnUse" color-interpolation-filters="sRGB">
<feFlood flood-opacity="0" result="BackgroundImageFix"/>
<feBlend mode="normal" in="SourceGraphic" in2="BackgroundImageFix" result="shape"/>
<feColorMatrix in="SourceAlpha" type="matrix" values="0 0 0 0 0 0 0 0 0 0 0 0 0 0 0 0 0 0 127 0" result="hardAlpha"/>
<feOffset/>
<feGaussianBlur stdDeviation="2"/>
<feComposite in2="hardAlpha" operator="arithmetic" k2="-1" k3="1"/>
<feColorMatrix type="matrix" values="0 0 0 0 0.544807 0 0 0 0 0.362369 0 0 0 0 1 0 0 0 0.2 0"/>
<feBlend mode="multiply" in2="shape" result="effect1_innerShadow_15709_118246"/>
</filter>
<linearGradient id="paint0_linear_15709_118246" x1="10.3702" y1="9.45352" x2="28.3422" y2="11.8571" gradientUnits="userSpaceOnUse">
<stop stop-color="#945AF2"/>
<stop offset="0.471154" stop-color="#F37E49"/>
<stop offset="1" stop-color="#FC4F43"/>
</linearGradient>
</defs>
</svg>
