<svg xmlns="http://www.w3.org/2000/svg" viewBox="0 0 2054 611"><defs><linearGradient id="a" x1="698" y1="-233.04" x2="697.83" y2="-233.07" gradientTransform="matrix(1911.93 0 0 608.83 -1333831.31 142234.83)" gradientUnits="userSpaceOnUse"><stop offset="0" stop-color="#592acb"/><stop offset="1" stop-color="#312a65"/></linearGradient><linearGradient id="b" x1="697.66" y1="-232.63" x2="697.78" y2="-232.63" gradientTransform="matrix(2054 0 0 325.79 -1432994 76286.08)" gradientUnits="userSpaceOnUse"><stop offset="0" stop-color="#9059ff"/><stop offset="1" stop-color="#b739c6"/></linearGradient><linearGradient id="c" x1="698.42" y1="-232.78" x2="698.66" y2="-232.78" gradientTransform="matrix(2054 0 0 325.79 -1432994 76286.08)" gradientUnits="userSpaceOnUse"><stop offset="0" stop-color="#ff8748"/><stop offset=".13" stop-color="#fe7852"/><stop offset=".5" stop-color="#fc546a"/><stop offset=".81" stop-color="#fa3d79"/><stop offset="1" stop-color="#fa357f"/></linearGradient></defs><path d="M2054 611h-604.8a906.2 906.2 0 0 0 272.3-374.4C1776.7 95 1910.3 6.1 2054 0zM0 611V192a900.38 900.38 0 0 0 284.7 419z" fill="#312a65" opacity=".78" style="isolation:isolate"/><path d="M0 611V2.2a906.34 906.34 0 0 0 142.4 313.7A916.48 916.48 0 0 0 489.3 611zm1297.5 0a903 903 0 0 0 115.8-68.3c159.1-110.3 376.1-78.5 498.6 68.3z" opacity=".56" fill="url(#a)" style="isolation:isolate"/><path d="M0 611V386.8a1158 1158 0 0 0 125.8 131.1 1172.7 1172.7 0 0 0 119 93.1z" fill="url(#b)"/><path d="M2054 610.6h-498.7A1148.66 1148.66 0 0 0 1756 435.5c80.3-88.4 187.2-139 298-150.7z" fill="url(#c)"/></svg>