<svg width="64" height="64" xmlns="http://www.w3.org/2000/svg"><defs><linearGradient x1="54.559%" y1="4.035%" x2="-2.739%" y2="108.583%" id="a"><stop stop-color="#FF980E" offset="0%"/><stop stop-color="#FF7139" offset="21%"/><stop stop-color="#FF5854" offset="36%"/><stop stop-color="#FF4F5E" offset="46%"/><stop stop-color="#FF3750" offset="69%"/><stop stop-color="#F92261" offset="86%"/><stop stop-color="#F5156C" offset="100%"/></linearGradient><linearGradient x1="14.389%" y1="52.826%" x2="62.912%" y2="48.685%" id="b"><stop stop-color="#3A8EE6" offset="0%"/><stop stop-color="#5C79F0" offset="24%"/><stop stop-color="#9059FF" offset="63%"/><stop stop-color="#C139E6" offset="100%"/></linearGradient><linearGradient x1="54.059%" y1="6.703%" x2="44.962%" y2="90.453%" id="c"><stop stop-color="#FF980E" offset="0%"/><stop stop-color="#FF7139" offset="21%"/><stop stop-color="#FF5854" offset="36%"/><stop stop-color="#FF4F5E" offset="46%"/><stop stop-color="#FF3750" offset="69%"/><stop stop-color="#F92261" offset="86%"/><stop stop-color="#F5156C" offset="100%"/></linearGradient><linearGradient x1="14.389%" y1="85.205%" x2="62.912%" y2="33.62%" id="d"><stop stop-color="#3A8EE6" offset="0%"/><stop stop-color="#5C79F0" offset="24%"/><stop stop-color="#9059FF" offset="63%"/><stop stop-color="#C139E6" offset="100%"/></linearGradient></defs><g fill="none" fill-rule="evenodd"><path d="M32 64C14.327 64 0 49.673 0 32 0 14.327 14.327 0 32 0c17.673 0 32 14.327 32 32 0 17.673-14.327 32-32 32zm0-7c13.807 0 25-11.193 25-25S45.807 7 32 7 7 18.193 7 32s11.193 25 25 25z" fill="url(#a)"/><g transform="translate(9 15)"><rect fill="url(#b)" transform="rotate(45 32.203 14.525)" x="16.203" y="11.025" width="32" height="7" rx="3.5"/><path d="M17 1h7v.019A6.5 6.5 0 0 0 17.019 8H17v21.5a3.5 3.5 0 0 1-7 0v-25A3.5 3.5 0 0 1 13.5 1H17z" fill="url(#c)" transform="rotate(45 17 17)"/></g><path d="M8.031 53.202A35.835 35.835 0 0 0 26 58c3.224 0 6.35-.424 9.323-1.219 7.001-.93 13.087-4.757 17.014-10.237C58.332 40.114 62 31.485 62 22c0-.406-.007-.811-.02-1.214A31.931 31.931 0 0 1 64 32c0 17.673-14.327 32-32 32-9.54 0-18.106-4.175-23.969-10.798z" fill="url(#d)"/></g></svg>