<svg width="359" height="38" xmlns="http://www.w3.org/2000/svg"><path d="M.944 37V3.42h21.62v6.164H7.476v7.774h15.088v6.072H7.476V37H.944zm26.804 0V12.16h6.486V37h-6.486zM26.92 5.168c0-2.392 1.702-4.14 4.048-4.14 2.438 0 4.094 1.748 4.094 4.14 0 2.346-1.656 4.048-4.094 4.048-2.392 0-4.048-1.702-4.048-4.048zM39.694 37V12.16h6.256v3.818c1.196-2.944 3.68-4.278 6.854-4.278 1.656 0 3.128.414 4.186.966l-2.3 6.256c-.69-.506-1.886-.874-3.312-.874-3.266 0-5.382 1.656-5.382 5.842V37h-6.302zm31.266.506c-8.004 0-13.156-5.658-13.156-12.88s5.612-12.972 13.018-12.972c7.452 0 12.834 5.382 12.834 12.742v2.392H63.922c.828 3.22 3.45 5.244 7.13 5.244 2.944 0 4.922-1.288 6.164-3.312l5.198 3.036c-2.484 3.496-5.98 5.75-11.454 5.75zm-.138-20.47c-3.22 0-5.704 1.886-6.716 4.784h13.248c-.828-3.082-3.22-4.784-6.532-4.784zm15.074.828V12.16h4.094v-.874c0-8.05 2.53-10.534 10.626-10.534h1.656v5.796h-1.058c-4.416 0-4.922.644-4.922 4.416v1.196h5.98v5.704h-5.98V37H89.99V17.864h-4.094zm31.358 19.642c-7.452 0-13.11-5.796-13.11-12.926 0-7.176 5.658-12.926 13.11-12.926 7.406 0 13.156 5.75 13.156 12.926 0 7.13-5.658 12.926-13.156 12.926zm.046-6.026c3.772 0 6.808-3.082 6.808-6.946s-3.036-6.946-6.808-6.946c-3.818 0-6.808 3.082-6.808 6.946s2.99 6.946 6.808 6.946zM131.04 37l9.292-12.742-8.786-12.098h7.544l5.198 7.36 5.244-7.36h7.452l-8.832 12.144L157.628 37h-7.682l-5.704-7.774L138.676 37h-7.636zm42.366 0V3.42h21.068v3.634H177.27v11.73h17.204v3.68H177.27V37h-3.864zm38.654.506c-7.314 0-12.88-5.612-12.88-12.926 0-7.268 5.658-12.926 12.88-12.926 7.268 0 12.926 5.658 12.926 12.926 0 7.176-5.612 12.926-12.926 12.926zm0-3.588c5.198 0 9.108-4.048 9.108-9.338 0-5.29-3.956-9.384-9.108-9.384-5.152 0-9.062 4.094-9.062 9.384 0 5.336 3.91 9.338 9.062 9.338zM230.244 37V12.16h3.634v4.692c1.058-3.312 3.542-5.06 7.084-5.06 1.702 0 3.174.322 4.14.92l-1.564 3.588c-.69-.46-1.702-.782-3.036-.782-4.14 0-6.532 2.392-6.532 7.866V37h-3.726zm18-21.482V12.16h4.83V6.686l3.726-2.392v7.866h7.268v3.358H256.8V29.41c0 3.174 1.472 4.416 3.588 4.416 1.104 0 2.024-.414 2.852-1.196l1.978 2.99c-1.426 1.104-3.036 1.748-5.106 1.748-4.554 0-7.038-2.392-7.038-7.866V15.518h-4.83zM269.004 37V12.16h3.634v4.692c1.058-3.312 3.542-5.06 7.084-5.06 1.702 0 3.174.322 4.14.92l-1.564 3.588c-.69-.46-1.702-.782-3.036-.782-4.14 0-6.532 2.392-6.532 7.866V37h-3.726zm28.902.506c-7.958 0-13.11-5.566-13.11-12.834 0-7.314 5.52-13.018 12.972-13.018 7.268 0 12.65 5.29 12.65 12.65v1.702h-21.942c.552 4.738 4.186 8.096 9.43 8.096 3.956 0 6.624-1.748 8.326-4.784l3.22 1.886c-2.53 3.956-6.118 6.302-11.546 6.302zm-.138-22.494c-4.738 0-8.372 3.266-9.2 7.682h17.986c-.598-4.692-3.956-7.682-8.786-7.682zm26.97 22.494c-5.428 0-8.97-2.024-11.178-5.198l3.266-2.208c1.702 2.438 4.232 4.048 8.004 4.048 3.864 0 5.888-1.84 5.888-4.324 0-2.76-3.404-3.312-7.038-4.048-4.278-.828-8.832-1.978-8.832-6.946 0-3.864 3.358-7.268 9.246-7.222 4.6 0 7.728 1.702 9.936 4.416l-3.128 2.116c-1.472-1.978-3.634-3.312-6.808-3.312-3.818 0-5.382 1.656-5.382 3.956 0 2.576 2.99 3.082 6.854 3.864 4.278.828 8.97 2.024 8.97 7.13 0 3.91-3.312 7.774-9.798 7.728zm23.98 0c-5.428 0-8.97-2.024-11.178-5.198l3.266-2.208c1.702 2.438 4.232 4.048 8.004 4.048 3.864 0 5.888-1.84 5.888-4.324 0-2.76-3.404-3.312-7.038-4.048-4.278-.828-8.832-1.978-8.832-6.946 0-3.864 3.358-7.268 9.246-7.222 4.6 0 7.728 1.702 9.936 4.416l-3.128 2.116c-1.472-1.978-3.634-3.312-6.808-3.312-3.818 0-5.382 1.656-5.382 3.956 0 2.576 2.99 3.082 6.854 3.864 4.278.828 8.97 2.024 8.97 7.13 0 3.91-3.312 7.774-9.798 7.728z" fill="#203" fill-rule="nonzero"/></svg>