<svg width="256" height="256" xmlns="http://www.w3.org/2000/svg"><defs><linearGradient x1="10.997%" y1="72.808%" x2="85.617%" y2="14.63%" id="a"><stop stop-color="#E31587" offset="0%"/><stop stop-color="#FF3750" offset="43.9%"/><stop stop-color="#FF564B" offset="57%"/><stop stop-color="#FF7945" offset="74.2%"/><stop stop-color="#FF8E41" offset="88.3%"/><stop stop-color="#FF9640" offset="100%"/></linearGradient><linearGradient x1="39.391%" y1="50.671%" x2="81.178%" y2="18.091%" id="b"><stop stop-color="#FFF36E" stop-opacity="0" offset="0%"/><stop stop-color="#FFF36E" stop-opacity=".039" offset="42.6%"/><stop stop-color="#FFF36E" stop-opacity=".142" offset="51.9%"/><stop stop-color="#FFF36E" stop-opacity=".312" offset="63.9%"/><stop stop-color="#FFF36E" stop-opacity=".543" offset="77.9%"/><stop stop-color="#FFF36E" stop-opacity=".8" offset="100%"/></linearGradient></defs><g fill="none" fill-rule="evenodd"><circle fill="url(#a)" cx="128" cy="128" r="128"/><path d="M30.337 128h7.104V95.024h-5.664l-9.888 6.624 2.832 4.992 5.616-3.504V128zm12.654 0h24.912v-6.384H53.935l6-4.656c5.76-4.176 7.68-7.584 7.68-12 0-6.192-5.088-10.512-12.096-10.512-5.328 0-9.504 2.304-12.768 6.432l4.512 4.368c2.4-2.736 4.848-4.368 8.064-4.368 2.688 0 4.992 1.632 4.992 4.368 0 2.304-1.248 4.464-5.184 7.584l-12.144 9.408V128zm41.455.624c7.68 0 12.72-4.128 12.72-9.84 0-4.368-3.312-6.912-6.912-7.728 3.6-1.056 6.192-3.792 6.192-7.584 0-5.232-4.656-9.024-12.096-9.024-5.856 0-9.792 2.544-12.528 5.856l4.08 4.32c2.208-2.304 4.656-3.84 7.776-3.84 3.264 0 5.52 1.536 5.52 3.936 0 2.352-2.16 3.696-5.76 3.696l-3.792-.048v6.048h3.792c4.464-.048 6.432 1.248 6.432 3.792 0 2.352-2.112 4.032-5.76 4.032-3.312 0-6.432-1.392-8.736-3.888l-4.176 4.704c2.784 3.216 7.296 5.568 13.248 5.568zm31.022-.624h11.808c11.088 0 18.96-6.864 18.96-16.512s-7.872-16.464-18.96-16.464h-11.808V128zm7.056-6.432v-20.112h5.664c6.288 0 10.752 4.176 10.752 10.032 0 5.904-4.464 10.08-10.752 10.08h-5.664zm40.927 7.008c7.344 0 13.488-5.952 13.488-13.008 0-7.056-6.144-12.96-13.488-12.96-7.392 0-13.584 5.904-13.584 12.96 0 7.056 6.192 13.008 13.584 13.008zm0-5.904c-3.744 0-6.864-3.264-6.864-7.104 0-3.84 3.12-7.056 6.864-7.056 3.696 0 6.816 3.216 6.816 7.056s-3.12 7.104-6.816 7.104zm32.335-20.064c-3.216 0-6 1.44-7.488 3.696v-3.12h-7.008V128h7.008v-14.832l.048.144c0-2.688 2.256-4.8 5.184-4.8 2.784 0 4.704 2.112 4.704 5.184V128h6.768v-15.792c0-5.616-3.84-9.6-9.216-9.6zm26.575 19.776c-2.928 0-5.088-1.824-5.904-4.512h17.904c0-9.36-4.56-15.264-12.336-15.264-7.248 0-12.768 5.424-12.768 12.912 0 7.632 5.76 13.056 13.152 13.056 3.648 0 7.92-1.536 10.128-3.84l-4.464-4.56c-1.344 1.296-3.744 2.208-5.712 2.208zm-.048-13.584c2.832 0 4.656 1.584 5.328 4.032h-11.088c.912-2.496 3.12-4.032 5.76-4.032zM66.206 177h7.056v-10.704h7.776c7.152 0 12.432-4.608 12.432-11.136s-5.28-11.136-12.432-11.136H66.206V177zm7.056-17.184v-9.312h7.008c3.504 0 5.904 1.824 5.904 4.656s-2.4 4.656-5.904 4.656h-7.008zM125.517 177l-8.112-11.52c4.512-1.584 7.488-5.424 7.488-10.32 0-6.528-5.28-11.136-12.432-11.136H97.63V177h7.056v-10.704h5.232L117.453 177h8.064zm-20.832-26.496h7.008c3.504 0 5.904 1.824 5.904 4.656s-2.4 4.656-5.904 4.656h-7.008v-9.312zm41.455 27.072c9.552 0 17.52-7.824 17.52-17.088 0-9.264-7.968-17.04-17.52-17.04-9.456 0-17.52 7.776-17.52 17.04s8.064 17.088 17.52 17.088zm0-6.432c-5.52 0-10.224-4.896-10.224-10.656 0-5.712 4.704-10.608 10.224-10.608 5.568 0 10.272 4.896 10.272 10.608 0 5.76-4.704 10.656-10.272 10.656zm45.295-13.008v5.712h-8.544v8.736h-6.048v-8.736h-8.592v-5.712h8.592V149.4h6.048v8.736h8.544z" fill="#20123A" fill-rule="nonzero"/><circle fill="url(#b)" opacity=".489" cx="128" cy="128" r="128"/></g></svg>