<svg width="64" height="64" viewBox="0 0 64 64" fill="none" xmlns="http://www.w3.org/2000/svg">
<rect width="64" height="64" rx="4" fill="#F770FF"/>
<mask id="mask0_1041_3440" style="mask-type:alpha" maskUnits="userSpaceOnUse" x="0" y="0" width="64" height="64">
<rect width="64" height="64" rx="4" fill="#F770FF"/>
</mask>
<g mask="url(#mask0_1041_3440)">
<g filter="url(#filter0_d_1041_3440)">
<path fill-rule="evenodd" clip-rule="evenodd" d="M-10.9592 43.6375C-11.0791 43.8678 -11.2354 44.0882 -11.4283 44.2916L-19.5865 51.9399C-20.9887 53.2545 -20.9249 55.3458 -19.5865 56.6006L-16.5581 59.4397L-16.5582 59.4398L0.381564 75.3208L0.381661 75.3208L5.46176 80.0833C6.92769 81.3382 9.22219 81.3382 10.6244 80.0236L18.7826 72.3753C18.9148 72.2513 19.03 72.1172 19.1279 71.9755L27.3528 64.2647C27.4746 64.189 27.5926 64.1041 27.7056 64.0099L35.8638 56.3616C37.266 55.0471 37.2023 52.9557 35.8638 51.7009L27.6419 43.9928C26.6221 43.0368 26.6221 41.4832 27.6419 40.4077C28.5415 39.5643 29.5822 39.6204 30.6843 39.6797C31.9247 39.7465 33.2429 39.8174 34.5254 38.6151C36.7561 36.5238 36.055 33.2374 33.2507 30.6083C30.51 28.0389 26.6221 27.3817 24.4551 29.4132C23.4141 30.3892 23.3816 31.6471 23.3508 32.8374C23.3231 33.9063 23.2969 34.9207 22.543 35.6275C21.5232 36.5835 19.8661 36.5835 18.7189 35.6275L10.8156 28.2182C9.54087 27.0231 7.37385 26.6646 5.71671 28.2182L-2.44149 35.8665C-2.66595 36.0769 -2.92129 36.2411 -3.1946 36.3582L-10.9592 43.6375Z" fill="white"/>
</g>
<g filter="url(#filter1_d_1041_3440)">
<path fill-rule="evenodd" clip-rule="evenodd" d="M32.1344 2.73286C32.0145 2.9632 31.8581 3.18371 31.6652 3.38713L23.507 11.0354C22.1048 12.35 22.1686 14.4413 23.507 15.6961L25.4511 17.5187L25.451 17.5188L31.6523 23.3326C32.786 24.1347 34.3172 24.0844 35.2801 23.1816C36.034 22.4748 36.0603 21.4604 36.0879 20.3915C36.1187 19.2012 36.1512 17.9433 37.1922 16.9674C39.3592 14.9358 43.2471 15.5931 45.9878 18.1624C48.7922 20.7915 49.4933 24.0779 47.2625 26.1692C45.98 27.3716 44.6618 27.3006 43.4214 27.2338C42.3193 27.1745 41.2786 27.1184 40.379 27.9618C39.4461 28.9458 39.3666 30.3297 40.1406 31.2903L42.6619 33.654L42.6619 33.6539L48.5552 39.1789C50.0212 40.4337 52.3157 40.4337 53.7179 39.1191L61.8761 31.4708C62.0082 31.347 62.1231 31.2131 62.221 31.0715L70.4469 23.3598C70.5685 23.2843 70.6863 23.1995 70.7991 23.1054L78.9573 15.4571C80.3595 14.1426 80.2958 12.0512 78.9573 10.7964L70.7354 3.08836C70.6483 3.00675 70.5687 2.92078 70.4965 2.83112L62.0093 -5.12562C61.9422 -5.17308 61.8765 -5.22354 61.8123 -5.27698L53.9091 -12.6863C52.6344 -13.8813 50.4673 -14.2399 48.8102 -12.6863L40.652 -5.03797C40.4275 -4.8275 40.1721 -4.66336 39.8987 -4.54619L32.1344 2.73286Z" fill="white"/>
</g>
<rect width="41.7684" height="41.3548" rx="8" transform="matrix(0.729537 -0.683941 0.729537 0.683941 -22.1868 54.1635)" fill="white"/>
<rect width="41.3548" height="8.68451" rx="4.34226" transform="matrix(0.729537 -0.683941 0.729537 0.683941 20.9067 13.2589)" fill="white"/>
<rect width="41.3548" height="8.68451" rx="4.34226" transform="matrix(0.729537 -0.683941 0.729537 0.683941 44.7407 35.6035)" fill="white"/>
<path d="M21.5172 45.7086L14.9088 42.1819C14.6766 42.0625 14.4167 41.9999 14.1525 41.9999C13.8884 41.9999 13.6284 42.0625 13.3963 42.1819L6.76458 45.7086C6.52518 45.8364 6.32583 46.0221 6.18685 46.2467C6.04787 46.4713 5.97423 46.7267 5.97344 46.987V54.0184C5.97129 54.2793 6.04369 54.5359 6.18297 54.7609C6.32226 54.986 6.52323 55.1712 6.76458 55.2968L13.373 58.8015C13.6047 58.9336 13.8705 59.0022 14.1409 58.9999C14.4108 58.9992 14.6758 58.9308 14.9088 58.8015L21.5172 55.2968C21.7566 55.169 21.9559 54.9834 22.0949 54.7588C22.2339 54.5342 22.3075 54.2787 22.3083 54.0184V46.987C22.3151 46.7253 22.2447 46.467 22.1049 46.2411C21.9652 46.0152 21.7616 45.8308 21.5172 45.7086V45.7086Z" fill="url(#paint0_linear_1041_3440)"/>
<path d="M9.53362 52.3419L9.13805 52.5623C9.06726 52.5995 9.005 52.6496 8.95488 52.7098C8.90477 52.77 8.8678 52.839 8.84614 52.9129C8.82448 52.9868 8.81856 53.064 8.82873 53.14C8.8389 53.2161 8.86494 53.2894 8.90536 53.3558C8.95732 53.4479 9.03437 53.5251 9.12849 53.5793C9.22261 53.6336 9.33037 53.663 9.44054 53.6644C9.54527 53.6636 9.64852 53.641 9.74304 53.5983L10.1386 53.3779C10.2094 53.3407 10.2717 53.2906 10.3218 53.2304C10.3719 53.1702 10.4089 53.1012 10.4305 53.0273C10.4522 52.9535 10.4581 52.8763 10.4479 52.8002C10.4378 52.7242 10.4117 52.6508 10.3713 52.5844C10.3354 52.5144 10.2846 52.4521 10.2221 52.4015C10.1596 52.3509 10.0868 52.313 10.0082 52.2903C9.92962 52.2675 9.8469 52.2604 9.76524 52.2693C9.68358 52.2781 9.60474 52.3029 9.53362 52.3419V52.3419ZM11.9536 51.0414L11.1392 51.4823C11.0684 51.5194 11.0061 51.5696 10.956 51.6298C10.9059 51.6899 10.8689 51.759 10.8473 51.8328C10.8256 51.9067 10.8197 51.9839 10.8299 52.06C10.84 52.136 10.8661 52.2094 10.9065 52.2758C10.9585 52.3678 11.0355 52.445 11.1296 52.4993C11.2238 52.5535 11.3315 52.5829 11.4417 52.5844C11.5464 52.5835 11.6497 52.561 11.7442 52.5183L12.5586 52.0774C12.6294 52.0403 12.6916 51.9901 12.7418 51.9299C12.7919 51.8697 12.8288 51.8007 12.8505 51.7269C12.8722 51.653 12.8781 51.5758 12.8679 51.4997C12.8577 51.4237 12.8317 51.3503 12.7913 51.2839C12.7554 51.2139 12.7046 51.1516 12.6421 51.101C12.5796 51.0504 12.5068 51.0126 12.4282 50.9898C12.3496 50.9671 12.2669 50.9599 12.1852 50.9688C12.1036 50.9777 12.0247 51.0024 11.9536 51.0414V51.0414ZM15.2345 49.9636C15.2018 49.9011 15.156 49.8454 15.1001 49.8C15.0441 49.7545 14.979 49.7202 14.9088 49.6991V45.2665C14.9091 45.1882 14.893 45.1107 14.8616 45.0384C14.8301 44.966 14.7838 44.9003 14.7254 44.845C14.667 44.7897 14.5977 44.7458 14.5213 44.716C14.4449 44.6862 14.3631 44.671 14.2805 44.6713C14.1992 44.6716 14.1187 44.6873 14.0439 44.7176C13.9691 44.7479 13.9014 44.7921 13.845 44.8476C13.7886 44.9031 13.7445 44.9688 13.7154 45.0407C13.6863 45.1127 13.6727 45.1894 13.6755 45.2665V49.7189C13.6053 49.74 13.5402 49.7744 13.4842 49.8198C13.4283 49.8652 13.3825 49.9209 13.3497 49.9834C13.306 50.0609 13.2812 50.1467 13.2772 50.2344C13.2732 50.3222 13.29 50.4096 13.3265 50.4904C13.29 50.5712 13.2732 50.6586 13.2772 50.7464C13.2812 50.8341 13.306 50.9199 13.3497 50.9974C13.3825 51.0599 13.4283 51.1156 13.4842 51.161C13.5402 51.2064 13.6053 51.2407 13.6755 51.2619V55.7143C13.6755 55.8722 13.7417 56.0235 13.8595 56.1352C13.9773 56.2468 14.1372 56.3095 14.3038 56.3095C14.4704 56.3095 14.6302 56.2468 14.748 56.1352C14.8658 56.0235 14.932 55.8722 14.932 55.7143V51.2398C15.0023 51.2187 15.0674 51.1844 15.1233 51.139C15.1793 51.0935 15.225 51.0379 15.2578 50.9753C15.3015 50.8979 15.3263 50.8121 15.3303 50.7243C15.3344 50.6366 15.3175 50.5491 15.2811 50.4684C15.3349 50.3007 15.3182 50.1199 15.2345 49.9636V49.9636ZM16.8192 48.4405L16.0047 48.8813C15.934 48.9185 15.8717 48.9686 15.8216 49.0288C15.7715 49.089 15.7345 49.158 15.7128 49.2319C15.6912 49.3058 15.6853 49.383 15.6954 49.459C15.7056 49.5351 15.7316 49.6084 15.7721 49.6748C15.824 49.7669 15.9011 49.8441 15.9952 49.8983C16.0893 49.9526 16.1971 49.982 16.3072 49.9834C16.412 49.9826 16.5152 49.96 16.6097 49.9173L17.4242 49.4765C17.4949 49.4393 17.5572 49.3892 17.6073 49.329C17.6574 49.2688 17.6944 49.1998 17.7161 49.1259C17.7377 49.052 17.7436 48.9748 17.7335 48.8988C17.7233 48.8227 17.6973 48.7494 17.6568 48.683C17.6209 48.6129 17.5701 48.5507 17.5077 48.5001C17.4452 48.4495 17.3724 48.4116 17.2938 48.3889C17.2152 48.3661 17.1324 48.359 17.0508 48.3678C16.9691 48.3767 16.8903 48.4015 16.8192 48.4405V48.4405ZM18.7482 48.6609C18.8529 48.6601 18.9561 48.6375 19.0507 48.5948L19.4462 48.3744C19.5169 48.3369 19.5791 48.2867 19.6292 48.2264C19.6794 48.1661 19.7164 48.0971 19.7383 48.0232C19.7601 47.9494 19.7664 47.8721 19.7566 47.796C19.7469 47.7198 19.7214 47.6463 19.6815 47.5795C19.6417 47.5127 19.5883 47.454 19.5244 47.4068C19.4606 47.3597 19.3875 47.3249 19.3094 47.3045C19.2314 47.2842 19.1498 47.2786 19.0695 47.2882C18.9891 47.2978 18.9115 47.3224 18.8412 47.3604L18.4457 47.5809C18.3749 47.618 18.3126 47.6682 18.2625 47.7283C18.2124 47.7885 18.1754 47.8576 18.1538 47.9314C18.1321 48.0053 18.1262 48.0825 18.1364 48.1585C18.1465 48.2346 18.1726 48.308 18.213 48.3744C18.2663 48.4637 18.3442 48.5376 18.4385 48.5881C18.5328 48.6386 18.6399 48.6638 18.7482 48.6609ZM19.4462 52.5623L19.0507 52.3419C18.9088 52.2668 18.7413 52.248 18.5848 52.2895C18.4283 52.3311 18.2955 52.4297 18.2156 52.5637C18.1356 52.6978 18.1149 52.8563 18.158 53.0048C18.2011 53.1532 18.3046 53.2794 18.4457 53.3558L18.8412 53.5763C18.9358 53.619 19.039 53.6415 19.1437 53.6424C19.2539 53.6409 19.3617 53.6116 19.4558 53.5573C19.5499 53.503 19.627 53.4258 19.6789 53.3338C19.7206 53.2695 19.7476 53.1977 19.7584 53.1229C19.7692 53.0482 19.7635 52.9722 19.7416 52.8996C19.7197 52.8271 19.6822 52.7596 19.6313 52.7016C19.5805 52.6435 19.5175 52.5961 19.4462 52.5623V52.5623ZM17.4218 51.4823L16.6074 51.0414C16.5371 51.0034 16.4596 50.9788 16.3792 50.9692C16.2989 50.9596 16.2173 50.9652 16.1392 50.9855C16.0611 51.0059 15.9881 51.0407 15.9242 51.0878C15.8604 51.135 15.807 51.1937 15.7671 51.2605C15.7273 51.3273 15.7018 51.4008 15.692 51.477C15.6823 51.5531 15.6885 51.6304 15.7104 51.7042C15.7322 51.7781 15.7693 51.8471 15.8194 51.9074C15.8695 51.9677 15.9317 52.0179 16.0024 52.0554L16.8168 52.4962C16.9114 52.5389 17.0146 52.5615 17.1193 52.5623C17.2295 52.5609 17.3373 52.5315 17.4314 52.4772C17.5255 52.423 17.6026 52.3458 17.6545 52.2537C17.6969 52.1896 17.7245 52.1178 17.7357 52.0429C17.7469 51.968 17.7413 51.8917 17.7194 51.819C17.6974 51.7462 17.6596 51.6787 17.6084 51.6207C17.5571 51.5627 17.4936 51.5155 17.4218 51.4823V51.4823ZM11.1392 49.4544L11.9536 49.8953C12.0481 49.938 12.1514 49.9605 12.2561 49.9614C12.3663 49.9599 12.474 49.9306 12.5682 49.8763C12.6623 49.822 12.7393 49.7448 12.7913 49.6528C12.8317 49.5864 12.8577 49.513 12.8679 49.437C12.8781 49.3609 12.8722 49.2837 12.8505 49.2099C12.8288 49.136 12.7919 49.067 12.7418 49.0068C12.6916 48.9466 12.6294 48.8964 12.5586 48.8593L11.7442 48.4185C11.6741 48.3802 11.5966 48.3555 11.5163 48.3459C11.436 48.3362 11.3545 48.3418 11.2766 48.3624C11.1986 48.3829 11.1257 48.4179 11.0622 48.4654C10.9986 48.5128 10.9457 48.5718 10.9065 48.6389C10.8285 48.7774 10.8092 48.9388 10.8524 49.0903C10.8957 49.2418 10.9982 49.372 11.1392 49.4544V49.4544ZM10.1386 47.5809L9.74304 47.3604C9.67273 47.3224 9.59518 47.2978 9.51483 47.2882C9.43448 47.2786 9.35293 47.2842 9.27485 47.3045C9.19677 47.3249 9.1237 47.3597 9.05984 47.4068C8.99599 47.454 8.9426 47.5127 8.90275 47.5795C8.86291 47.6463 8.83738 47.7198 8.82764 47.796C8.8179 47.8721 8.82415 47.9494 8.84601 48.0232C8.86787 48.0971 8.90493 48.1661 8.95504 48.2264C9.00516 48.2867 9.06735 48.3369 9.13805 48.3744L9.53362 48.5948C9.62814 48.6375 9.7314 48.6601 9.83612 48.6609C9.94629 48.6595 10.054 48.6301 10.1482 48.5758C10.2423 48.5215 10.3193 48.4444 10.3713 48.3523C10.4109 48.2875 10.4363 48.2158 10.446 48.1415C10.4557 48.0672 10.4495 47.9918 10.4278 47.9198C10.4061 47.8478 10.3693 47.7807 10.3196 47.7225C10.2699 47.6642 10.2084 47.6161 10.1386 47.5809V47.5809Z" fill="#20133A"/>
<path fill-rule="evenodd" clip-rule="evenodd" d="M52.0531 4.81593C51.3108 4.81593 50.7091 5.41766 50.7091 6.15993C50.7091 6.9022 51.3108 7.50393 52.0531 7.50393C52.7953 7.50393 53.3971 6.9022 53.3971 6.15993C53.3971 5.41766 52.7953 4.81593 52.0531 4.81593ZM48.9171 6.15993C48.9171 4.42796 50.3211 3.02393 52.0531 3.02393C53.785 3.02393 55.1891 4.42796 55.1891 6.15993C55.1891 7.89189 53.785 9.29593 52.0531 9.29593C51.513 9.29593 51.0048 9.1594 50.5611 8.91899L49.2121 10.268C49.314 10.4559 49.3971 10.6554 49.4592 10.8639H54.6469C55.0325 9.56854 56.2325 8.62393 57.6531 8.62393C59.385 8.62393 60.7891 10.028 60.7891 11.7599C60.7891 13.4919 59.385 14.8959 57.6531 14.8959C57.113 14.8959 56.6048 14.7594 56.1611 14.519L54.8121 15.868C55.0526 16.3117 55.1891 16.8199 55.1891 17.3599C55.1891 19.0919 53.785 20.4959 52.0531 20.4959C50.3211 20.4959 48.9171 19.0919 48.9171 17.3599C48.9171 15.628 50.3211 14.2239 52.0531 14.2239C52.5931 14.2239 53.1013 14.3604 53.545 14.6009L54.894 13.2518C54.7922 13.064 54.709 12.8645 54.6469 12.6559H49.4592C49.0737 13.9513 47.8737 14.8959 46.4531 14.8959C44.7211 14.8959 43.3171 13.4919 43.3171 11.7599C43.3171 10.028 44.7211 8.62393 46.4531 8.62393C46.9931 8.62393 47.5013 8.76045 47.945 9.00086L49.294 7.65185C49.0536 7.20818 48.9171 6.7 48.9171 6.15993ZM50.7091 17.3599C50.7091 16.6177 51.3108 16.0159 52.0531 16.0159C52.7953 16.0159 53.3971 16.6177 53.3971 17.3599C53.3971 18.1022 52.7953 18.7039 52.0531 18.7039C51.3108 18.7039 50.7091 18.1022 50.7091 17.3599ZM46.4531 10.4159C45.7108 10.4159 45.1091 11.0177 45.1091 11.7599C45.1091 12.5022 45.7108 13.1039 46.4531 13.1039C47.1953 13.1039 47.7971 12.5022 47.7971 11.7599C47.7971 11.0177 47.1953 10.4159 46.4531 10.4159ZM56.3091 11.7599C56.3091 11.0177 56.9108 10.4159 57.6531 10.4159C58.3953 10.4159 58.9971 11.0177 58.9971 11.7599C58.9971 12.5022 58.3953 13.1039 57.6531 13.1039C56.9108 13.1039 56.3091 12.5022 56.3091 11.7599Z" fill="black"/>
</g>
<defs>
<filter id="filter0_d_1041_3440" x="-24.6144" y="27.1831" width="65.5061" height="61.834" filterUnits="userSpaceOnUse" color-interpolation-filters="sRGB">
<feFlood flood-opacity="0" result="BackgroundImageFix"/>
<feColorMatrix in="SourceAlpha" type="matrix" values="0 0 0 0 0 0 0 0 0 0 0 0 0 0 0 0 0 0 127 0" result="hardAlpha"/>
<feOffset dy="4"/>
<feGaussianBlur stdDeviation="2"/>
<feComposite in2="hardAlpha" operator="out"/>
<feColorMatrix type="matrix" values="0 0 0 0 0 0 0 0 0 0 0 0 0 0 0 0 0 0 0.1 0"/>
<feBlend mode="normal" in2="BackgroundImageFix" result="effect1_dropShadow_1041_3440"/>
<feBlend mode="normal" in="SourceGraphic" in2="effect1_dropShadow_1041_3440" result="shape"/>
</filter>
<filter id="filter1_d_1041_3440" x="18.4791" y="-13.7214" width="65.506" height="61.834" filterUnits="userSpaceOnUse" color-interpolation-filters="sRGB">
<feFlood flood-opacity="0" result="BackgroundImageFix"/>
<feColorMatrix in="SourceAlpha" type="matrix" values="0 0 0 0 0 0 0 0 0 0 0 0 0 0 0 0 0 0 127 0" result="hardAlpha"/>
<feOffset dy="4"/>
<feGaussianBlur stdDeviation="2"/>
<feComposite in2="hardAlpha" operator="out"/>
<feColorMatrix type="matrix" values="0 0 0 0 0 0 0 0 0 0 0 0 0 0 0 0 0 0 0.1 0"/>
<feBlend mode="normal" in2="BackgroundImageFix" result="effect1_dropShadow_1041_3440"/>
<feBlend mode="normal" in="SourceGraphic" in2="effect1_dropShadow_1041_3440" result="shape"/>
</filter>
<linearGradient id="paint0_linear_1041_3440" x1="5.97344" y1="50.5005" x2="22.3106" y2="50.5005" gradientUnits="userSpaceOnUse">
<stop stop-color="#9059FF"/>
<stop offset="1" stop-color="#F770FF"/>
</linearGradient>
</defs>
</svg>
