<?xml version="1.0" encoding="UTF-8" standalone="no"?>
<svg
   width="56"
   height="56"
   viewBox="0 0 56 56"
   fill="none"
   version="1.1"
   id="svg4080"
   sodipodi:docname="mdn-plus-logo.svg"
   xmlns:inkscape="http://www.inkscape.org/namespaces/inkscape"
   xmlns:sodipodi="http://sodipodi.sourceforge.net/DTD/sodipodi-0.dtd"
   xmlns="http://www.w3.org/2000/svg"
   xmlns:svg="http://www.w3.org/2000/svg">
  <defs
     id="defs4084">
    <linearGradient
       id="linear-gradient-5"
       y1="61.5"
       x2="109"
       y2="61.5"
       gradientTransform="matrix(1,0,0,-1,0,122)"
       gradientUnits="userSpaceOnUse">
      <stop
         offset="0"
         stop-color="#9059ff"
         id="stop69-4" />
      <stop
         offset="1"
         stop-color="#f770ff"
         id="stop71-2" />
    </linearGradient>
  </defs>
  <sodipodi:namedview
     id="namedview4082"
     pagecolor="#ffffff"
     bordercolor="#000000"
     borderopacity="0.25"
     inkscape:showpageshadow="2"
     inkscape:pageopacity="0.0"
     inkscape:pagecheckerboard="0"
     inkscape:deskcolor="#d1d1d1"
     showgrid="false" />
  <title
     id="title4068">MDN Logo</title>
  <g
     id="Layer_2"
     data-name="Layer 2"
     transform="matrix(0.43217256,-2.2457273e-4,2.068828e-4,0.46515914,31.891701,0.10720335)"
     style="display:inline"
     inkscape:label="Layer_2">
    <g
       id="Layer_1-2"
       data-name="Layer 1"
       style="display:inline">
      <path
         class="cls-1"
         d="M 103.72,26.4 59.62,1.3 a 10.44,10.44 0 0 0 -10.09,0 L 5.28,26.4 A 10.43,10.43 0 0 0 1.42,30.23 10.67,10.67 0 0 0 0,35.5 v 50 a 10.42,10.42 0 0 0 1.4,5.29 10.21,10.21 0 0 0 3.88,3.81 l 44.09,25 a 9.67,9.67 0 0 0 5.13,1.4 10,10 0 0 0 5.12,-1.41 l 44.1,-25 a 10.33,10.33 0 0 0 3.85,-3.83 10.58,10.58 0 0 0 1.43,-5.22 v -50 a 10.14,10.14 0 0 0 -1.36,-5.31 9.92,9.92 0 0 0 -3.92,-3.79 z"
         id="path76"
         style="fill:url(#linear-gradient-5)" />
      <path
         class="cls-2"
         d="m 23.74,73.7 -2.64,1.58 a 4,4 0 0 0 -1.22,1 4.13,4.13 0 0 0 -0.73,1.45 4.19,4.19 0 0 0 -0.15,1.67 4.06,4.06 0 0 0 0.51,1.54 4.21,4.21 0 0 0 1.49,1.59 4,4 0 0 0 2.08,0.61 4.72,4.72 0 0 0 2,-0.48 l 2.64,-1.57 a 4.07,4.07 0 0 0 1.94,-2.5 4,4 0 0 0 0.18,-1.59 4.24,4.24 0 0 0 -0.51,-1.54 4,4 0 0 0 -1,-1.3 3.9,3.9 0 0 0 -1.42,-0.79 3.72,3.72 0 0 0 -1.62,-0.15 4,4 0 0 0 -1.55,0.51 z m 16.15,-9.27 -5.44,3.14 a 4.26,4.26 0 0 0 -1.22,1.06 4.18,4.18 0 0 0 -0.84,3.06 4.12,4.12 0 0 0 0.51,1.54 4.08,4.08 0 0 0 3.57,2.2 4.57,4.57 0 0 0 2,-0.47 l 5.43,-3.14 a 4.14,4.14 0 0 0 1.23,-1 4.2,4.2 0 0 0 0.72,-1.45 4,4 0 0 0 0.15,-1.67 4.18,4.18 0 0 0 -0.51,-1.54 4.12,4.12 0 0 0 -1,-1.31 3.94,3.94 0 0 0 -1.43,-0.79 3.92,3.92 0 0 0 -3.16,0.37 z m 21.89,-7.69 a 3.63,3.63 0 0 0 -0.9,-1.16 3.57,3.57 0 0 0 -1.27,-0.72 V 23.24 A 4.29,4.29 0 0 0 59.29,21.62 4.15,4.15 0 0 0 58.38,20.24 4,4 0 0 0 57,19.32 4.24,4.24 0 0 0 55.41,19 a 3.93,3.93 0 0 0 -1.58,0.33 4.16,4.16 0 0 0 -2.19,2.3 4.25,4.25 0 0 0 -0.26,1.61 V 55 a 3.53,3.53 0 0 0 -1.28,0.72 3.78,3.78 0 0 0 -0.9,1.16 4.34,4.34 0 0 0 -0.48,1.79 4.11,4.11 0 0 0 0.33,1.83 4.11,4.11 0 0 0 -0.33,1.83 4.34,4.34 0 0 0 0.48,1.79 3.78,3.78 0 0 0 0.9,1.16 3.53,3.53 0 0 0 1.28,0.72 v 31.76 a 4.3,4.3 0 0 0 1.22,3 4.16,4.16 0 0 0 5.93,0 4.27,4.27 0 0 0 1.23,-3 V 65.84 A 3.57,3.57 0 0 0 61.93,64 4.17,4.17 0 0 0 62.42,62.21 4.25,4.25 0 0 0 62.09,60.38 4.89,4.89 0 0 0 61.78,56.78 Z M 72.35,45.88 66.92,49 a 4.21,4.21 0 0 0 -2,2.5 4.43,4.43 0 0 0 -0.12,1.62 4.18,4.18 0 0 0 4.09,3.74 4.6,4.6 0 0 0 2,-0.47 l 5.43,-3.14 a 4.13,4.13 0 0 0 2,-2.5 4.22,4.22 0 0 0 0.11,-1.62 4,4 0 0 0 -0.51,-1.54 4.09,4.09 0 0 0 -1,-1.3 3.9,3.9 0 0 0 -1.43,-0.8 3.95,3.95 0 0 0 -3.17,0.37 z m 12.87,1.57 a 4.57,4.57 0 0 0 2,-0.47 l 2.64,-1.57 a 4.19,4.19 0 0 0 2,-2.51 4.17,4.17 0 0 0 -1.43,-4.39 3.88,3.88 0 0 0 -1.43,-0.73 3.94,3.94 0 0 0 -1.6,-0.12 4.15,4.15 0 0 0 -1.53,0.52 l -2.63,1.57 a 4,4 0 0 0 -1.23,1 4.11,4.11 0 0 0 -0.72,1.45 4,4 0 0 0 -0.12,1.62 4.18,4.18 0 0 0 0.51,1.54 4,4 0 0 0 1.51,1.52 3.93,3.93 0 0 0 2.03,0.57 z m 4.66,27.83 -2.64,-1.58 a 4.06,4.06 0 0 0 -3.11,-0.37 4.11,4.11 0 0 0 -2.46,2 4.19,4.19 0 0 0 -0.38,3.14 4.11,4.11 0 0 0 1.92,2.51 l 2.63,1.57 a 4.9,4.9 0 0 0 2,0.47 4.07,4.07 0 0 0 2.16,-0.65 4.12,4.12 0 0 0 1.48,-1.59 3.84,3.84 0 0 0 0.52,-1.51 3.92,3.92 0 0 0 -0.84,-3 3.85,3.85 0 0 0 -1.24,-1 z M 76.37,67.57 70.94,64.43 a 4,4 0 0 0 -1.52,-0.51 4,4 0 0 0 -3,0.84 4.19,4.19 0 0 0 -0.7,5.85 4.23,4.23 0 0 0 1.22,1 l 5.44,3.14 a 4.72,4.72 0 0 0 2,0.48 4.06,4.06 0 0 0 2.08,-0.61 4.21,4.21 0 0 0 1.49,-1.59 4,4 0 0 0 0.54,-1.51 3.88,3.88 0 0 0 -0.13,-1.52 3.94,3.94 0 0 0 -0.74,-1.42 3.89,3.89 0 0 0 -1.25,-1 z m -41.92,-14.46 5.44,3.15 a 4.86,4.86 0 0 0 2,0.47 A 4.06,4.06 0 0 0 44,56.12 4.42,4.42 0 0 0 46,53 4,4 0 0 0 45.88,51.38 4.11,4.11 0 0 0 45.16,49.93 4,4 0 0 0 43.93,48.88 L 38.5,45.73 a 3.91,3.91 0 0 0 -1.5,-0.52 4,4 0 0 0 -3,0.85 4.15,4.15 0 0 0 -1,1.24 4.43,4.43 0 0 0 1.55,5.81 z M 27.78,39.75 25.14,38.18 a 4.15,4.15 0 0 0 -1.53,-0.52 4.07,4.07 0 0 0 -3,0.85 4.14,4.14 0 0 0 -1,1.23 4.21,4.21 0 0 0 -0.38,3.16 4.31,4.31 0 0 0 0.73,1.45 4.14,4.14 0 0 0 1.22,1.06 L 23.74,47 a 4.57,4.57 0 0 0 2,0.47 4.29,4.29 0 0 0 4.07,-3.7 4.2,4.2 0 0 0 -0.12,-1.58 4,4 0 0 0 -0.69,-1.43 3.88,3.88 0 0 0 -1.2,-1 z"
         id="path78"
         style="fill:#20133a" />
    </g>
  </g>
  <path
     d="m 1.3218963,6.0682761 c -2.22597498,0 -4.030434,1.900455 -4.030434,4.2448499 0,2.344396 1.80445902,4.24485 4.030434,4.24485 2.225973,0 4.030431,-1.900454 4.030431,-4.24485 0,-2.3443949 -1.804458,-4.2448499 -4.030431,-4.2448499 z m -9.4043456,4.2448499 c 0,-5.4702559 4.2104036,-9.90464986 9.4043456,-9.90464986 5.193938,0 9.4043427,4.43439396 9.4043427,9.90464986 0,5.470255 -4.2104047,9.90465 -9.4043427,9.90465 a 9.3623603,9.8604321 0 0 1 -4.474061,-1.190621 l -4.0455474,4.260767 a 9.3475264,9.8448093 0 0 1 0.7414322,1.882179 H 9.1006323 c 1.1562277,-4.091564 4.7547897,-7.074749 9.0150137,-7.074749 5.193943,0 9.404343,4.434394 9.404343,9.904649 0,5.470254 -4.2104,9.904651 -9.404343,9.904651 A 9.3629207,9.8610221 0 0 1 13.641585,36.71403 l -4.0455457,4.260765 a 9.3629207,9.8610221 0 0 1 1.1301997,4.712079 c 0,5.470255 -4.2104047,9.90465 -9.4043427,9.90465 -5.193942,0 -9.4043456,-4.434395 -9.4043456,-9.90465 0,-5.470255 4.2104036,-9.904646 9.4043456,-9.904646 a 9.3629207,9.8610221 0 0 1 4.474057,1.190622 l 4.045551,-4.26077 A 9.3399693,9.8368497 0 0 1 9.1003523,30.8299 H -6.4565603 c -1.1562306,4.091267 -4.7547897,7.074752 -9.0150137,7.074752 -5.193939,0 -9.404343,-4.434397 -9.404343,-9.904651 0,-5.470255 4.210404,-9.904649 9.404343,-9.904649 a 9.3623603,9.8604321 0 0 1 4.474061,1.190621 l 4.0455452,-4.260768 a 9.3623603,9.8604321 0 0 1 -1.1304815,-4.712079 z m 5.3739116,35.373748 c 0,-2.344392 1.80445902,-4.244849 4.030434,-4.244849 2.225973,0 4.030431,1.900457 4.030431,4.244849 0,2.344398 -1.804458,4.244846 -4.030431,4.244846 -2.22597498,0 -4.030434,-1.900448 -4.030434,-4.244846 z M -15.471574,23.755151 c -2.225975,0 -4.030437,1.900455 -4.030437,4.24485 0,2.344394 1.804462,4.244847 4.030437,4.244847 2.225973,0 4.03043,-1.900453 4.03043,-4.244847 0,-2.344395 -1.804457,-4.24485 -4.03043,-4.24485 z m 29.556505,4.24485 c 0,-2.344395 1.804461,-4.24485 4.030435,-4.24485 2.225975,0 4.03043,1.900455 4.03043,4.24485 0,2.344394 -1.804455,4.244847 -4.03043,4.244847 -2.225974,0 -4.030435,-1.900453 -4.030435,-4.244847 z"
     fill="#ffffff"
     fill-rule="evenodd"
     id="path3475"
     style="display:inline;stroke-width:0.28724" />
</svg>
