<svg width="32" height="32" viewBox="0 0 32 32" fill="none" xmlns="http://www.w3.org/2000/svg">
<rect width="32" height="32" fill="#F770FF"/>
<mask id="mask0_501_3293" style="mask-type:alpha" maskUnits="userSpaceOnUse" x="0" y="0" width="32" height="32">
<rect width="32" height="32" fill="#F770FF"/>
</mask>
<g mask="url(#mask0_501_3293)">
<g filter="url(#filter0_d_501_3293)">
<path fill-rule="evenodd" clip-rule="evenodd" d="M-4.13729 21.819C-4.19349 21.9341 -4.26677 22.0443 -4.35713 22.1459L-8.18129 25.9701C-8.83856 26.6273 -8.80869 27.673 -8.18129 28.3004L-6.76172 29.72L-6.76173 29.72L1.1788 37.6605L1.17881 37.6605L3.56008 40.0418C4.24723 40.6692 5.32277 40.6692 5.98005 40.0119L9.80421 36.1877C9.86619 36.1258 9.92014 36.0588 9.96605 35.9879L13.8216 32.1324C13.8786 32.0946 13.9339 32.0521 13.9869 32.0051L17.811 28.1809C18.4683 27.5236 18.4384 26.478 17.811 25.8506L13.957 21.9965C13.479 21.5185 13.479 20.7417 13.957 20.2039C14.3787 19.7823 14.8665 19.8103 15.3831 19.8399C15.9646 19.8733 16.5825 19.9088 17.1836 19.3077C18.2293 18.262 17.9007 16.6188 16.5861 15.3042C15.3014 14.0196 13.479 13.6909 12.4632 14.7067C11.9752 15.1947 11.96 15.8236 11.9456 16.4188C11.9326 16.9532 11.9203 17.4605 11.5669 17.8139C11.0889 18.2919 10.3121 18.2919 9.77434 17.8139L6.06968 14.1092C5.47216 13.5117 4.45637 13.3324 3.67958 14.1092L-0.144575 17.9334C-0.249763 18.0385 -0.369416 18.1206 -0.497488 18.1792L-4.13729 21.819Z" fill="white"/>
</g>
<g filter="url(#filter1_d_501_3293)">
<path fill-rule="evenodd" clip-rule="evenodd" d="M16.0629 1.36657C16.0067 1.48176 15.9334 1.59203 15.843 1.69375L12.0188 5.51791C11.3616 6.17519 11.3914 7.22086 12.0188 7.84826L14.6479 10.4774L14.6529 10.4823L15.8369 11.6663C16.3683 12.0675 17.0862 12.0424 17.5376 11.591C17.891 11.2376 17.9033 10.7304 17.9163 10.1959C17.9307 9.60075 17.9459 8.9718 18.4339 8.48384C19.4497 7.46805 21.2721 7.79669 22.5568 9.08137C23.8714 10.3959 24.2 12.0391 23.1543 13.0848C22.5532 13.6859 21.9353 13.6505 21.3538 13.6171C20.8372 13.5874 20.3494 13.5594 19.9277 13.9811C19.4903 14.4731 19.4531 15.1653 19.8161 15.6456L23.7602 19.5896C24.4474 20.217 25.5229 20.217 26.1802 19.5597L30.0043 15.7356C30.0662 15.6738 30.12 15.6069 30.1658 15.5363L34.0222 11.6799C34.0791 11.6422 34.1342 11.5998 34.187 11.5529L38.0112 7.72876C38.6684 7.07148 38.6386 6.02581 38.0112 5.39841L34.1571 1.54437C34.1161 1.50334 34.0786 1.46011 34.0446 1.41502L30.0675 -2.56206C30.0358 -2.58596 30.0048 -2.61137 29.9745 -2.6383L26.2698 -6.34295C25.6723 -6.94048 24.6565 -7.11974 23.8797 -6.34295L20.0556 -2.5188C19.9503 -2.41355 19.8306 -2.33147 19.7024 -2.27289L16.0629 1.36657Z" fill="white"/>
</g>
<rect x="-9.40002" y="27.0817" width="20.2" height="20" rx="8" transform="rotate(-45 -9.40002 27.0817)" fill="white"/>
<rect x="10.8" y="6.62947" width="20" height="4.2" rx="2.1" transform="rotate(-45 10.8 6.62947)" fill="white"/>
<rect x="21.9722" y="17.8017" width="20" height="4.2" rx="2.1" transform="rotate(-45 21.9722 17.8017)" fill="white"/>
<path d="M11.0862 22.8325L7.9885 21.0899C7.87969 21.0309 7.75783 21 7.63401 21C7.51019 21 7.38833 21.0309 7.27952 21.0899L4.17092 22.8325C4.0587 22.8956 3.96525 22.9874 3.90011 23.0984C3.83496 23.2093 3.80044 23.3356 3.80007 23.4642V26.9385C3.79906 27.0674 3.833 27.1942 3.89829 27.3054C3.96358 27.4166 4.05778 27.5081 4.17092 27.5702L7.26861 29.3019C7.37722 29.3672 7.50181 29.4011 7.62856 29.3999C7.75511 29.3996 7.87931 29.3658 7.9885 29.3019L11.0862 27.5702C11.1984 27.507 11.2919 27.4153 11.357 27.3043C11.4222 27.1934 11.4567 27.0671 11.457 26.9385V23.4642C11.4602 23.3349 11.4272 23.2072 11.3617 23.0956C11.2962 22.984 11.2008 22.8929 11.0862 22.8325V22.8325Z" fill="url(#paint0_linear_501_3293)"/>
<path d="M5.46888 26.1102L5.28346 26.2191C5.25028 26.2374 5.22109 26.2622 5.1976 26.2919C5.17411 26.3217 5.15678 26.3558 5.14663 26.3923C5.13647 26.4288 5.1337 26.4669 5.13847 26.5045C5.14323 26.5421 5.15544 26.5783 5.17438 26.6112C5.19874 26.6566 5.23486 26.6948 5.27898 26.7216C5.3231 26.7484 5.37361 26.7629 5.42525 26.7636C5.47434 26.7632 5.52274 26.7521 5.56705 26.731L5.75247 26.6221C5.78565 26.6037 5.81484 26.5789 5.83833 26.5492C5.86182 26.5194 5.87915 26.4853 5.8893 26.4488C5.89946 26.4123 5.90223 26.3742 5.89747 26.3366C5.8927 26.299 5.88049 26.2628 5.86155 26.23C5.8447 26.1954 5.8209 26.1646 5.79161 26.1396C5.76233 26.1146 5.7282 26.0959 5.69135 26.0847C5.65451 26.0734 5.61573 26.0699 5.57746 26.0743C5.53918 26.0787 5.50222 26.0909 5.46888 26.1102V26.1102ZM6.60325 25.4676L6.22149 25.6854C6.18831 25.7038 6.15912 25.7285 6.13563 25.7583C6.11214 25.788 6.09481 25.8221 6.08466 25.8586C6.07451 25.8951 6.07173 25.9333 6.0765 25.9708C6.08126 26.0084 6.09347 26.0447 6.11242 26.0775C6.13678 26.123 6.17289 26.1611 6.21701 26.1879C6.26113 26.2147 6.31164 26.2293 6.36329 26.23C6.41238 26.2296 6.46078 26.2184 6.50508 26.1973L6.88684 25.9795C6.92002 25.9611 6.94921 25.9363 6.9727 25.9066C6.99619 25.8769 7.01352 25.8427 7.02367 25.8063C7.03382 25.7698 7.0366 25.7316 7.03183 25.694C7.02707 25.6565 7.01486 25.6202 6.99591 25.5874C6.97907 25.5528 6.95526 25.522 6.92598 25.497C6.8967 25.472 6.86257 25.4533 6.82572 25.4421C6.78887 25.4308 6.7501 25.4273 6.71182 25.4317C6.67354 25.4361 6.63658 25.4483 6.60325 25.4676V25.4676ZM8.14119 24.935C8.12582 24.9041 8.10438 24.8766 8.07815 24.8541C8.05191 24.8317 8.02142 24.8147 7.98849 24.8043V22.6141C7.98863 22.5754 7.98111 22.5371 7.96636 22.5014C7.95161 22.4656 7.92993 22.4331 7.90255 22.4058C7.87517 22.3785 7.84265 22.3568 7.80686 22.3421C7.77106 22.3274 7.7327 22.3199 7.69399 22.32C7.65585 22.3201 7.61813 22.3279 7.58306 22.3428C7.548 22.3578 7.5163 22.3797 7.48984 22.4071C7.46339 22.4345 7.44273 22.467 7.42908 22.5025C7.41543 22.5381 7.40908 22.576 7.41039 22.6141V24.8141C7.37746 24.8245 7.34697 24.8415 7.32073 24.8639C7.2945 24.8864 7.27306 24.9139 7.25769 24.9448C7.2372 24.9831 7.22558 25.0254 7.22369 25.0688C7.2218 25.1122 7.2297 25.1554 7.24678 25.1953C7.2297 25.2352 7.2218 25.2784 7.22369 25.3218C7.22558 25.3651 7.2372 25.4075 7.25769 25.4458C7.27306 25.4767 7.2945 25.5042 7.32073 25.5267C7.34697 25.5491 7.37746 25.5661 7.41039 25.5765V27.7765C7.41039 27.8545 7.44142 27.9293 7.49665 27.9845C7.55188 28.0396 7.62679 28.0706 7.70489 28.0706C7.783 28.0706 7.85791 28.0396 7.91314 27.9845C7.96836 27.9293 7.99939 27.8545 7.99939 27.7765V25.5656C8.03233 25.5552 8.06282 25.5382 8.08906 25.5158C8.11529 25.4933 8.13673 25.4658 8.1521 25.4349C8.17259 25.3966 8.18421 25.3543 8.1861 25.3109C8.18798 25.2675 8.18009 25.2243 8.163 25.1844C8.18824 25.1016 8.18042 25.0122 8.14119 24.935V24.935ZM8.88398 24.1824L8.50222 24.4002C8.46904 24.4186 8.43986 24.4434 8.41636 24.4731C8.39287 24.5028 8.37554 24.537 8.36539 24.5734C8.35524 24.6099 8.35246 24.6481 8.35723 24.6857C8.362 24.7232 8.37421 24.7595 8.39315 24.7923C8.41751 24.8378 8.45362 24.8759 8.49774 24.9027C8.54186 24.9296 8.59237 24.9441 8.64402 24.9448C8.69311 24.9444 8.74151 24.9332 8.78581 24.9121L9.16757 24.6943C9.20075 24.6759 9.22994 24.6512 9.25343 24.6214C9.27692 24.5917 9.29425 24.5576 9.3044 24.5211C9.31455 24.4846 9.31733 24.4464 9.31256 24.4089C9.3078 24.3713 9.29559 24.335 9.27664 24.3022C9.2598 24.2676 9.23599 24.2368 9.20671 24.2118C9.17743 24.1868 9.1433 24.1681 9.10645 24.1569C9.0696 24.1457 9.03083 24.1421 8.99255 24.1465C8.95428 24.1509 8.91732 24.1631 8.88398 24.1824V24.1824ZM9.7882 24.2913C9.83729 24.2909 9.88569 24.2797 9.93 24.2586L10.1154 24.1497C10.1486 24.1312 10.1777 24.1064 10.2012 24.0766C10.2247 24.0468 10.2421 24.0127 10.2523 23.9762C10.2626 23.9397 10.2655 23.9016 10.2609 23.8639C10.2564 23.8263 10.2444 23.79 10.2257 23.757C10.207 23.724 10.182 23.695 10.1521 23.6717C10.1221 23.6483 10.0879 23.6312 10.0513 23.6211C10.0147 23.6111 9.97647 23.6083 9.9388 23.6131C9.90114 23.6178 9.86479 23.6299 9.83183 23.6487L9.6464 23.7576C9.61323 23.776 9.58404 23.8008 9.56055 23.8305C9.53705 23.8603 9.51973 23.8944 9.50957 23.9309C9.49942 23.9674 9.49665 24.0055 9.50141 24.0431C9.50618 24.0807 9.51839 24.1169 9.53733 24.1497C9.5623 24.1939 9.59886 24.2304 9.64306 24.2553C9.68726 24.2803 9.73744 24.2927 9.7882 24.2913ZM10.1154 26.2191L9.93 26.1102C9.86349 26.0731 9.78497 26.0637 9.71162 26.0843C9.63826 26.1048 9.57603 26.1535 9.53854 26.2198C9.50106 26.286 9.49136 26.3643 9.51157 26.4377C9.53178 26.511 9.58026 26.5734 9.6464 26.6112L9.83183 26.7201C9.87614 26.7412 9.92454 26.7523 9.97363 26.7528C10.0253 26.752 10.0758 26.7375 10.1199 26.7107C10.164 26.6839 10.2001 26.6458 10.2245 26.6003C10.244 26.5685 10.2567 26.533 10.2618 26.4961C10.2668 26.4592 10.2641 26.4216 10.2539 26.3857C10.2436 26.3499 10.226 26.3166 10.2022 26.2879C10.1783 26.2592 10.1488 26.2358 10.1154 26.2191V26.2191ZM9.16648 25.6854L8.78472 25.4676C8.75177 25.4488 8.71541 25.4366 8.67775 25.4319C8.64009 25.4272 8.60186 25.4299 8.56526 25.44C8.52866 25.45 8.49441 25.4672 8.46447 25.4905C8.43454 25.5138 8.40952 25.5428 8.39084 25.5758C8.37216 25.6088 8.36019 25.6452 8.35563 25.6828C8.35106 25.7204 8.35399 25.7586 8.36424 25.7951C8.37449 25.8316 8.39186 25.8657 8.41535 25.8955C8.43884 25.9252 8.46799 25.9501 8.50113 25.9686L8.88289 26.1864C8.9272 26.2075 8.9756 26.2187 9.02469 26.2191C9.07633 26.2184 9.12684 26.2038 9.17096 26.177C9.21508 26.1502 9.2512 26.1121 9.27555 26.0666C9.29541 26.0349 9.30837 25.9994 9.31361 25.9624C9.31885 25.9254 9.31624 25.8877 9.30596 25.8518C9.29567 25.8158 9.27794 25.7825 9.25392 25.7538C9.22989 25.7251 9.2001 25.7018 9.16648 25.6854V25.6854ZM6.22149 24.6834L6.60325 24.9012C6.64756 24.9223 6.69596 24.9335 6.74504 24.9339C6.79669 24.9332 6.8472 24.9187 6.89132 24.8919C6.93544 24.865 6.97156 24.8269 6.99591 24.7814C7.01486 24.7486 7.02707 24.7124 7.03183 24.6748C7.0366 24.6372 7.03382 24.5991 7.02367 24.5626C7.01352 24.5261 6.99619 24.492 6.9727 24.4622C6.94921 24.4325 6.92002 24.4077 6.88684 24.3893L6.50508 24.1715C6.47222 24.1526 6.43591 24.1404 6.39828 24.1356C6.36064 24.1309 6.32244 24.1337 6.28589 24.1438C6.24934 24.1539 6.21518 24.1712 6.1854 24.1947C6.15561 24.2182 6.1308 24.2473 6.11242 24.2804C6.07588 24.3489 6.06682 24.4286 6.08708 24.5035C6.10734 24.5783 6.15541 24.6427 6.22149 24.6834V24.6834ZM5.75247 23.7576L5.56705 23.6487C5.53409 23.6299 5.49774 23.6178 5.46008 23.6131C5.42241 23.6083 5.38418 23.6111 5.34758 23.6211C5.31098 23.6312 5.27673 23.6483 5.2468 23.6717C5.21687 23.695 5.19184 23.724 5.17316 23.757C5.15449 23.79 5.14252 23.8263 5.13796 23.8639C5.13339 23.9016 5.13632 23.9397 5.14657 23.9762C5.15681 24.0127 5.17418 24.0468 5.19768 24.0766C5.22117 24.1064 5.25032 24.1312 5.28346 24.1497L5.46888 24.2586C5.51319 24.2797 5.56159 24.2909 5.61068 24.2913C5.66232 24.2906 5.71283 24.2761 5.75695 24.2493C5.80107 24.2224 5.83719 24.1843 5.86155 24.1388C5.88011 24.1068 5.89202 24.0714 5.89657 24.0347C5.90112 23.998 5.89822 23.9607 5.88804 23.9251C5.87786 23.8896 5.86061 23.8564 5.83732 23.8276C5.81403 23.7988 5.78517 23.775 5.75247 23.7576V23.7576Z" fill="#20133A"/>
<path fill-rule="evenodd" clip-rule="evenodd" d="M25.3999 2.34496C25.052 2.34496 24.7699 2.62702 24.7699 2.97496C24.7699 3.3229 25.052 3.60496 25.3999 3.60496C25.7479 3.60496 26.0299 3.3229 26.0299 2.97496C26.0299 2.62702 25.7479 2.34496 25.3999 2.34496ZM23.9299 2.97496C23.9299 2.1631 24.5881 1.50496 25.3999 1.50496C26.2118 1.50496 26.8699 2.1631 26.8699 2.97496C26.8699 3.78682 26.2118 4.44496 25.3999 4.44496C25.1468 4.44496 24.9086 4.38096 24.7006 4.26827L24.0682 4.90062C24.116 4.98869 24.155 5.08219 24.1841 5.17996H26.6158C26.7965 4.57275 27.359 4.12996 28.0249 4.12996C28.8368 4.12996 29.4949 4.7881 29.4949 5.59996C29.4949 6.41182 28.8368 7.06996 28.0249 7.06996C27.7718 7.06996 27.5336 7.00596 27.3256 6.89327L26.6932 7.52562C26.8059 7.73359 26.8699 7.9718 26.8699 8.22496C26.8699 9.03682 26.2118 9.69496 25.3999 9.69496C24.5881 9.69496 23.9299 9.03682 23.9299 8.22496C23.9299 7.4131 24.5881 6.75496 25.3999 6.75496C25.6531 6.75496 25.8913 6.81895 26.0993 6.93165L26.7316 6.2993C26.6839 6.21122 26.6449 6.11772 26.6158 6.01996H24.1841C24.0033 6.62717 23.4408 7.06996 22.7749 7.06996C21.9631 7.06996 21.3049 6.41182 21.3049 5.59996C21.3049 4.7881 21.9631 4.12996 22.7749 4.12996C23.0281 4.12996 23.2663 4.19395 23.4743 4.30665L24.1066 3.6743C23.9939 3.46633 23.9299 3.22812 23.9299 2.97496ZM24.7699 8.22496C24.7699 7.87702 25.052 7.59496 25.3999 7.59496C25.7479 7.59496 26.0299 7.87702 26.0299 8.22496C26.0299 8.5729 25.7479 8.85496 25.3999 8.85496C25.052 8.85496 24.7699 8.5729 24.7699 8.22496ZM22.7749 4.96996C22.427 4.96996 22.1449 5.25202 22.1449 5.59996C22.1449 5.9479 22.427 6.22996 22.7749 6.22996C23.1229 6.22996 23.4049 5.9479 23.4049 5.59996C23.4049 5.25202 23.1229 4.96996 22.7749 4.96996ZM27.3949 5.59996C27.3949 5.25202 27.677 4.96996 28.0249 4.96996C28.3729 4.96996 28.6549 5.25202 28.6549 5.59996C28.6549 5.9479 28.3729 6.22996 28.0249 6.22996C27.677 6.22996 27.3949 5.9479 27.3949 5.59996Z" fill="black"/>
</g>
<defs>
<filter id="filter0_d_501_3293" x="-12.6631" y="13.5917" width="34.9561" height="34.917" filterUnits="userSpaceOnUse" color-interpolation-filters="sRGB">
<feFlood flood-opacity="0" result="BackgroundImageFix"/>
<feColorMatrix in="SourceAlpha" type="matrix" values="0 0 0 0 0 0 0 0 0 0 0 0 0 0 0 0 0 0 127 0" result="hardAlpha"/>
<feOffset dy="4"/>
<feGaussianBlur stdDeviation="2"/>
<feComposite in2="hardAlpha" operator="out"/>
<feColorMatrix type="matrix" values="0 0 0 0 0 0 0 0 0 0 0 0 0 0 0 0 0 0 0.1 0"/>
<feBlend mode="normal" in2="BackgroundImageFix" result="effect1_dropShadow_501_3293"/>
<feBlend mode="normal" in="SourceGraphic" in2="effect1_dropShadow_501_3293" result="shape"/>
</filter>
<filter id="filter1_d_501_3293" x="7.53699" y="-6.86049" width="34.9559" height="34.917" filterUnits="userSpaceOnUse" color-interpolation-filters="sRGB">
<feFlood flood-opacity="0" result="BackgroundImageFix"/>
<feColorMatrix in="SourceAlpha" type="matrix" values="0 0 0 0 0 0 0 0 0 0 0 0 0 0 0 0 0 0 127 0" result="hardAlpha"/>
<feOffset dy="4"/>
<feGaussianBlur stdDeviation="2"/>
<feComposite in2="hardAlpha" operator="out"/>
<feColorMatrix type="matrix" values="0 0 0 0 0 0 0 0 0 0 0 0 0 0 0 0 0 0 0.1 0"/>
<feBlend mode="normal" in2="BackgroundImageFix" result="effect1_dropShadow_501_3293"/>
<feBlend mode="normal" in="SourceGraphic" in2="effect1_dropShadow_501_3293" result="shape"/>
</filter>
<linearGradient id="paint0_linear_501_3293" x1="3.80007" y1="25.2003" x2="11.4581" y2="25.2003" gradientUnits="userSpaceOnUse">
<stop stop-color="#9059FF"/>
<stop offset="1" stop-color="#F770FF"/>
</linearGradient>
</defs>
</svg>
