<svg width="256" height="256" xmlns="http://www.w3.org/2000/svg"><defs><linearGradient x1="35.509%" y1="71.63%" x2="71.572%" y2="18.093%" id="a"><stop stop-color="#0090ED" offset="0%"/><stop stop-color="#9059FF" offset="68.2%"/><stop stop-color="#B833E1" offset="100%"/></linearGradient><linearGradient x1="83.848%" y1="97.597%" x2="34.829%" y2="29.293%" id="b"><stop stop-color="#054096" stop-opacity=".5" offset="0%"/><stop stop-color="#0F3D9C" stop-opacity=".441" offset="5.4%"/><stop stop-color="#2F35B1" stop-opacity=".249" offset="26.1%"/><stop stop-color="#462FBF" stop-opacity=".111" offset="46.6%"/><stop stop-color="#542BC8" stop-opacity=".028" offset="66.9%"/><stop stop-color="#592ACB" stop-opacity="0" offset="100%"/></linearGradient><linearGradient x1="26.291%" y1="72.808%" x2="72.814%" y2="13.138%" id="c"><stop stop-color="#E31587" offset="0%"/><stop stop-color="#FF3750" offset="43.9%"/><stop stop-color="#FF564B" offset="57%"/><stop stop-color="#FF7945" offset="74.2%"/><stop stop-color="#FF8E41" offset="88.3%"/><stop stop-color="#FF9640" offset="97.5%"/></linearGradient><linearGradient x1="43.551%" y1="50.671%" x2="68.953%" y2="18.091%" id="d"><stop stop-color="#FFF36E" stop-opacity="0" offset="0%"/><stop stop-color="#FFF36E" stop-opacity=".039" offset="42.6%"/><stop stop-color="#FFF36E" stop-opacity=".142" offset="51.9%"/><stop stop-color="#FFF36E" stop-opacity=".312" offset="63.9%"/><stop stop-color="#FFF36E" stop-opacity=".543" offset="77.9%"/><stop stop-color="#FFF36E" stop-opacity=".8" offset="100%"/></linearGradient></defs><g fill-rule="nonzero" fill="none"><path d="M122.317 187.386l7.977-8.323a4733.265 4733.265 0 00-16.931-22.387c-22.97-30.232-34.498-45.408-34.505-54.632a20.173 20.173 0 0140.344.011c0 2.744-1.833 8.421-6.971 16.127a12.633 12.633 0 0021.023 14.016c7.442-11.158 11.214-21.299 11.214-30.143a45.438 45.438 0 00-90.876.009c.012 17.722 11.615 32.995 39.648 69.895a5113.297 5113.297 0 0114.133 18.662l-.17-.227a13.446 13.446 0 0015.114-3.008z" fill="url(#a)" transform="translate(29 1)"/><path d="M108.138 149.765l-21.947 12.868c2.243 2.966 4.569 6.032 7.071 9.325a5142.917 5142.917 0 0114.133 18.662l-.17-.226a13.443 13.443 0 0015.112-3.007l7.977-8.323a4750.505 4750.505 0 00-16.932-22.388c-1.828-2.409-3.56-4.689-5.244-6.91z" fill="url(#b)" opacity=".9" transform="translate(29 1)"/><path d="M118.63 205.639a13.922 13.922 0 0020.174 1.432 282.099 282.099 0 0019.895-22.62c14.503-18.368 38.838-53.87 38.838-85.295 0-54.298-44.18-98.472-98.486-98.472C44.746.684.566 44.858.566 99.158c0 42.32 44.06 97.34 76.229 137.513 3.306 4.13 6.477 8.09 9.45 11.85a12.63 12.63 0 0017.986 1.878c5.356-4.454 5.78-12.564 1.455-18.026-2.894-3.654-5.97-7.495-9.167-11.491-28.15-35.15-70.684-88.272-70.684-121.724-.002-40.369 32.842-73.21 73.216-73.21 40.374 0 73.218 32.841 73.218 73.21 0 17.121-12.485 43.158-33.403 69.638a265.112 265.112 0 01-8.55 10.27l-7.98 8.323a13.445 13.445 0 01-15.111 3.007l11.405 15.243z" fill="url(#c)" transform="translate(29 1)"/><path d="M118.63 205.639a13.922 13.922 0 0020.174 1.432 282.099 282.099 0 0019.895-22.62c14.503-18.368 38.838-53.87 38.838-85.295 0-54.298-44.18-98.472-98.486-98.472C44.746.684.566 44.858.566 99.158c0 42.32 44.06 97.34 76.229 137.513 3.306 4.13 6.477 8.09 9.45 11.85a12.63 12.63 0 0017.986 1.878c5.356-4.454 5.78-12.564 1.455-18.026-2.894-3.654-5.97-7.495-9.167-11.491-28.15-35.15-70.684-88.272-70.684-121.724-.002-40.369 32.842-73.21 73.216-73.21 40.374 0 73.218 32.841 73.218 73.21 0 17.121-12.485 43.158-33.403 69.638a265.112 265.112 0 01-8.55 10.27l-7.98 8.323a13.445 13.445 0 01-15.111 3.007l11.405 15.243z" fill="url(#d)" transform="translate(29 1)"/></g></svg>