<svg width="256" height="256" viewBox="0 0 256 256" fill="none" xmlns="http://www.w3.org/2000/svg">
<rect width="256" height="256" fill="white"/>
<path d="M23.7715 210.837V147.01H35.3102V171.173H36.9586C37.447 170.2 38.2101 169.228 39.248 168.255C40.2859 167.283 41.6595 166.492 43.369 165.885C45.1395 165.216 47.3678 164.881 50.0541 164.881C53.5951 164.881 56.6782 165.702 59.3034 167.343C61.9896 168.924 64.0654 171.143 65.5306 174C66.9958 176.796 67.7284 180.079 67.7284 183.847V210.837H56.1897V184.759C56.1897 181.355 55.335 178.802 53.6256 177.1C51.9772 175.398 49.5962 174.547 46.4826 174.547C42.9416 174.547 40.1943 175.732 38.2407 178.103C36.287 180.413 35.3102 183.665 35.3102 187.859V210.837H23.7715Z" fill="black"/>
<path d="M96.7948 211.567C93.2539 211.567 90.1403 210.777 87.454 209.196C84.8288 207.555 82.7836 205.306 81.3183 202.449C79.8531 199.592 79.1205 196.309 79.1205 192.601V165.611H90.6592V191.689C90.6592 195.093 91.4834 197.646 93.1318 199.348C94.8412 201.05 97.2527 201.902 100.366 201.902C103.907 201.902 106.655 200.747 108.608 198.437C110.562 196.066 111.539 192.783 111.539 188.589V165.611H123.077V210.837H111.722V204.911H110.074C109.341 206.43 107.967 207.92 105.953 209.378C103.938 210.837 100.885 211.567 96.7948 211.567Z" fill="black"/>
<path d="M163.207 212.114C159.117 212.114 155.973 211.415 153.775 210.017C151.577 208.619 149.959 207.069 148.921 205.366H147.273V210.837H135.918V147.01H147.456V170.808H149.105C149.776 169.714 150.661 168.681 151.76 167.708C152.92 166.736 154.416 165.945 156.248 165.337C158.14 164.669 160.46 164.334 163.207 164.334C166.871 164.334 170.259 165.246 173.373 167.07C176.486 168.833 178.989 171.447 180.882 174.912C182.774 178.376 183.721 182.571 183.721 187.495V188.954C183.721 193.877 182.774 198.072 180.882 201.537C178.989 205.002 176.486 207.646 173.373 209.47C170.259 211.232 166.871 212.114 163.207 212.114ZM159.728 202.084C163.269 202.084 166.23 200.959 168.611 198.71C170.992 196.4 172.182 193.057 172.182 188.68V187.768C172.182 183.392 170.992 180.079 168.611 177.829C166.291 175.519 163.33 174.364 159.728 174.364C156.187 174.364 153.226 175.519 150.845 177.829C148.464 180.079 147.273 183.392 147.273 187.768V188.68C147.273 193.057 148.464 196.4 150.845 198.71C153.226 200.959 156.187 202.084 159.728 202.084Z" fill="black"/>
<path d="M213.181 212.114C207.259 212.114 202.405 210.837 198.62 208.284C194.835 205.731 192.545 202.084 191.752 197.342L202.375 194.607C202.802 196.735 203.504 198.406 204.481 199.622C205.519 200.838 206.77 201.719 208.235 202.266C209.762 202.753 211.41 202.996 213.181 202.996C215.867 202.996 217.851 202.54 219.133 201.628C220.415 200.655 221.056 199.47 221.056 198.072C221.056 196.674 220.446 195.61 219.225 194.88C218.004 194.09 216.05 193.452 213.364 192.966L210.8 192.51C207.625 191.902 204.725 191.081 202.1 190.048C199.475 188.954 197.368 187.464 195.781 185.58C194.194 183.695 193.4 181.264 193.4 178.285C193.4 173.787 195.048 170.352 198.345 167.982C201.642 165.55 205.977 164.334 211.349 164.334C216.416 164.334 220.629 165.459 223.987 167.708C227.345 169.957 229.542 172.906 230.58 176.553L219.866 179.835C219.377 177.525 218.37 175.884 216.844 174.912C215.378 173.939 213.547 173.453 211.349 173.453C209.151 173.453 207.472 173.848 206.312 174.638C205.152 175.367 204.572 176.401 204.572 177.738C204.572 179.197 205.183 180.291 206.404 181.021C207.625 181.689 209.273 182.206 211.349 182.571L213.913 183.027C217.332 183.635 220.415 184.455 223.163 185.489C225.971 186.461 228.169 187.89 229.756 189.774C231.404 191.598 232.229 194.09 232.229 197.251C232.229 201.993 230.489 205.67 227.009 208.284C223.59 210.837 218.98 212.114 213.181 212.114Z" fill="black"/>
<path d="M86.7386 66.0982V101.771C86.7386 113.029 95.9045 122.155 107.211 122.155C114.448 122.155 120.807 118.417 124.448 112.774C126.288 109.415 128.614 109.415 130.919 112.774C134.56 118.417 140.92 122.155 148.156 122.155C159.463 122.155 168.629 113.029 168.629 101.771C168.629 90.5128 159.463 81.3864 148.156 81.3864C141.745 81.3864 136.022 84.321 132.268 88.9147C130.891 90.5998 127.684 92.0419 127.567 87.6407C127.567 83.3973 127.676 67.3107 127.683 66.1629C127.684 66.1159 127.684 66.0743 127.684 66.0273C127.645 54.8019 118.494 45.7139 107.211 45.7139C95.9045 45.7139 86.7386 54.8402 86.7386 66.0982Z" fill="url(#paint0_linear_1192_19084)"/>
<defs>
<linearGradient id="paint0_linear_1192_19084" x1="101.046" y1="45.7139" x2="130.934" y2="151.178" gradientUnits="userSpaceOnUse">
<stop stop-color="#6AE1D9"/>
<stop offset="1" stop-color="#9898FF"/>
</linearGradient>
</defs>
</svg>
