<svg width="32" height="32" viewBox="0 0 32 32" fill="none" xmlns="http://www.w3.org/2000/svg">
<g opacity="0.2">
<path d="M16 0C7.2 0 0 7.2 0 16C0 24.8 7.2 32 16 32C24.8 32 32 24.8 32 16C32 7.2 24.8 0 16 0ZM26.48 16.32C26.4 16.56 26.24 16.72 26.16 16.96C26.0971 17.1029 25.9829 17.2171 25.84 17.28C25.68 17.36 25.52 17.36 25.36 17.36C25.2 17.36 25.12 17.36 25.04 17.44C24.72 17.68 24.4 17.84 24.08 18L23.36 18.24C23.12 18.24 22.88 18.24 22.64 18.08C21.92 17.76 21.04 17.6 20.24 17.6C19.8283 17.6023 19.4209 17.6838 19.04 17.84C18.64 18 18.32 18.24 18.08 18.56C17.84 18.88 17.68 19.2 17.6 19.52C17.36 20.24 17.12 24.4 17.12 25.44C17.12 25.44 13.2 24.64 9.44 20.8L10.4 18.24H7.44L9.6 15.92H5.84L8.08 13.6H4.48L8.48 9.28C9.68 8.08 11.2 7.2 12.88 6.8C14.48 6.56 14.88 6.64 15.84 6.96L16.4 7.12L16.56 7.2L17.28 7.44C17.76 7.6 18.24 7.6 18.64 7.44C19.28 7.28 19.92 7.36 20.48 7.68C20.72 7.84 20.96 8 21.12 8.24C21.28 8.48 21.36 8.8 21.44 9.04C21.44 9.28 21.52 9.52 21.68 9.76C21.8245 9.98452 22.0155 10.1755 22.24 10.32C22.88 10.72 23.6 11.04 24.32 11.28C24.8404 11.4591 25.3482 11.6729 25.84 11.92C26.1004 12.0052 26.3253 12.1739 26.48 12.4C26.64 12.56 26.72 12.8 26.72 13.04C26.72 13.52 26.8 13.92 26.8 14.4C26.88 15.2 26.8 15.76 26.48 16.32Z" fill="#15141A"/>
</g>
<path d="M26.48 16.32C26.4 16.56 26.24 16.72 26.16 16.96C26.0971 17.1029 25.9829 17.2171 25.84 17.28C25.68 17.36 25.52 17.36 25.36 17.36C25.2 17.36 25.12 17.36 25.04 17.44C24.72 17.68 24.4 17.84 24.08 18L23.36 18.24C23.12 18.24 22.88 18.24 22.64 18.08C21.92 17.76 21.04 17.6 20.24 17.6C19.8283 17.6023 19.4209 17.6838 19.04 17.84C18.64 18 18.32 18.24 18.08 18.56C17.84 18.88 17.68 19.2 17.6 19.52C17.36 20.24 17.12 24.4 17.12 25.44C17.12 25.44 13.2 24.64 9.43998 20.8L10.4 18.24H7.43998L9.59998 15.92H5.83998L8.07998 13.6H4.47998L8.47998 9.28001C9.67998 8.08001 11.2 7.20001 12.88 6.80001C14.48 6.56001 14.88 6.64001 15.84 6.96001L16.4 7.12001L16.56 7.20001L17.28 7.44001C17.76 7.60001 18.24 7.60001 18.64 7.44001C19.28 7.28001 19.92 7.36001 20.48 7.68001C20.72 7.84001 20.96 8.00001 21.12 8.24001C21.28 8.48001 21.36 8.80001 21.44 9.04001C21.44 9.28001 21.52 9.52001 21.68 9.76001C21.8245 9.98453 22.0155 10.1755 22.24 10.32C22.88 10.72 23.6 11.04 24.32 11.28C24.8404 11.4591 25.3482 11.6729 25.84 11.92C26.1003 12.0052 26.3253 12.1739 26.48 12.4C26.64 12.56 26.72 12.8 26.72 13.04C26.72 13.52 26.8 13.92 26.8 14.4C26.88 15.2 26.8 15.76 26.48 16.32Z" fill="#15141A"/>
</svg>
