<?xml version="1.0" encoding="UTF-8"?>
<svg id="Layer_2" data-name="Layer 2" xmlns="http://www.w3.org/2000/svg" viewBox="0 0 57.97 62.03">
  <defs>
    <style>
      .cls-1 {
        fill: #505050;
        stroke-width: 0px;
      }
    </style>
  </defs>
  <g id="Layer_1-2" data-name="Layer 1">
    <path class="cls-1" d="m57.84,18.61c-.34-2.73-1.78-4.69-4.2-5.93-3.83-1.96-7.42-4.35-11.28-6.25-1.64-.81-3.14-1.92-4.82-2.69-2-1.32-4.05-2.55-6.3-3.39-1.28-.48-2.62-.41-3.96-.18-1.49.26-2.7,1.13-3.98,1.82-3.87,2.1-7.68,4.32-11.52,6.47-2.45,1.37-4.84,2.84-7.34,4.12C1.46,14.12-.01,16.55,0,19.95c.03,7.77,0,15.54,0,23.32,0,2.96,1.29,5.24,3.86,6.67,2.5,1.39,4.98,2.82,7.47,4.22,4.69,2.63,9.38,5.25,14.08,7.88h1.55s.06-.09.11-.1c1.54-.48,2.26-1.34,2.37-3,.08-1.29-.58-2.21-1.68-2.83-1.48-.83-2.96-1.66-4.45-2.49-5.25-2.91-10.46-5.9-15.68-8.87-.76-.43-1.13-1.09-1.13-1.97,0-7.57,0-15.13-.02-22.7,0-.82.35-1.43,1-1.89.44-.31.9-.65,1.36-.87,2-.94,3.85-2.15,5.79-3.19,3.88-2.08,7.68-4.3,11.51-6.47.76-.43,1.51-.86,2.26-1.29.6.02,1.17.11,1.71.41,1.26.7,2.53,1.38,3.79,2.08,3.16,1.74,6.24,3.62,9.43,5.31,2.28,1.21,4.47,2.57,6.73,3.81.92.51,1.36,1.26,1.36,2.26,0,7.41,0,14.83,0,22.24,0,1.1-.44,1.88-1.45,2.43-2.15,1.17-4.26,2.41-6.39,3.63-1.23-1.56-2.31-3.21-3.39-4.87-.09-.14-.31-.21-.02-.4.61-.4,1-1.01,1.49-1.54,3.52-3.82,4.45-8.34,3.66-13.33-.49-3.09-2.05-5.64-4.14-7.91-2.96-3.2-6.66-4.85-10.95-5.24-2.31-.21-4.59.12-6.78.86-4.42,1.48-7.64,4.46-9.61,8.57-2.37,4.94-2.13,9.91.7,14.74,4.05,6.91,11.97,9.62,19.21,7.53.63-.18.94-.12,1.3.44,1.54,2.38,3.12,4.74,4.71,7.09.97,1.43,2.58,1.81,4.15,1.11,1.11-.5,2.12-1.16,3.17-1.76.75-.43,1.58-.76,2.21-1.38,1.07-.36,2-1.02,3.01-1.51,2.07-1.02,3.99-2.23,4.97-4.5.31-.73.38-1.52.7-2.24v-25.43c-.05-.05-.13-.11-.14-.16Zm-28.88,22.75c-5.61.08-10.28-4.51-10.2-9.97.09-5.65,4.41-9.82,10.2-9.88,5.66,0,10.12,4.35,10.15,9.87.02,5.27-4.03,9.9-10.15,9.98Z"/>
  </g>
</svg>