<svg width="64" height="64" viewBox="0 0 64 64" fill="none" xmlns="http://www.w3.org/2000/svg">
<rect width="64" height="64" rx="14.937" fill="black"/>
<path fill-rule="evenodd" clip-rule="evenodd" d="M31.9999 13.5013C30.0225 13.5013 28.4194 15.1043 28.4194 17.0817C28.4194 19.0591 30.0225 20.6621 31.9999 20.6621C33.9773 20.6621 35.5803 19.0591 35.5803 17.0817C35.5803 15.1043 33.9773 13.5013 31.9999 13.5013ZM23.6455 17.0817C23.6455 12.4677 27.3859 8.72739 31.9999 8.72739C36.6138 8.72739 40.3542 12.4677 40.3542 17.0817C40.3542 21.6957 36.6138 25.436 31.9999 25.436C30.561 25.436 29.2071 25.0723 28.0251 24.4317L24.4317 28.0251C24.703 28.5256 24.9246 29.0571 25.09 29.6127H38.91C39.9371 26.1619 43.1338 23.6455 46.9183 23.6455C51.5322 23.6455 55.2726 27.3859 55.2726 31.9998C55.2726 36.6138 51.5322 40.3542 46.9183 40.3542C45.4795 40.3542 44.1256 39.9904 42.9437 39.3499L39.3499 42.9438C39.9904 44.1258 40.3542 45.4797 40.3542 46.9186C40.3542 51.5325 36.6139 55.2729 31.9999 55.2729C27.3859 55.2729 23.6456 51.5325 23.6456 46.9186C23.6456 42.3046 27.3859 38.5643 31.9999 38.5643C33.4385 38.5643 34.7922 38.9279 35.9741 39.5683L39.5681 35.9742C39.2968 35.4737 39.0752 34.9422 38.9099 34.3866H25.0901C24.0632 37.8376 20.8663 40.3542 17.0817 40.3542C12.4678 40.3542 8.72742 36.6138 8.72742 31.9998C8.72742 27.3859 12.4678 23.6455 17.0817 23.6455C18.5204 23.6455 19.8741 24.0092 21.0559 24.6495L24.6496 21.0559C24.0092 19.874 23.6455 18.5203 23.6455 17.0817ZM28.4195 46.9186C28.4195 44.9412 30.0225 43.3382 31.9999 43.3382C33.9773 43.3382 35.5803 44.9412 35.5803 46.9186C35.5803 48.896 33.9773 50.499 31.9999 50.499C30.0225 50.499 28.4195 48.896 28.4195 46.9186ZM17.0817 28.4194C15.1043 28.4194 13.5013 30.0224 13.5013 31.9998C13.5013 33.9773 15.1043 35.5803 17.0817 35.5803C19.0591 35.5803 20.6621 33.9773 20.6621 31.9998C20.6621 30.0224 19.0591 28.4194 17.0817 28.4194ZM43.3379 31.9998C43.3379 30.0224 44.9409 28.4194 46.9183 28.4194C48.8957 28.4194 50.4987 30.0224 50.4987 31.9998C50.4987 33.9773 48.8957 35.5803 46.9183 35.5803C44.9409 35.5803 43.3379 33.9773 43.3379 31.9998Z" fill="white"/>
</svg>
