<svg xmlns="http://www.w3.org/2000/svg" xmlns:xlink="http://www.w3.org/1999/xlink" viewBox="0 0 53.69 60.45"><defs><style>.cls-1,.cls-2{fill-rule:evenodd;}.cls-1{fill:url(#linear-gradient);}.cls-2{fill:url(#linear-gradient-2);}</style><linearGradient id="linear-gradient" x1="2.8" y1="45.3" x2="50.8" y2="18.3" gradientTransform="matrix(1, 0, 0, -1, 0, 62)" gradientUnits="userSpaceOnUse"><stop offset="0" stop-color="#1e3d5b"/><stop offset="1" stop-color="#33b44e"/></linearGradient><linearGradient id="linear-gradient-2" x1="47" y1="44.35" x2="14" y2="24.35" gradientTransform="matrix(1, 0, 0, -1, 0, 62)" gradientUnits="userSpaceOnUse"><stop offset="0" stop-color="#213357"/><stop offset="1" stop-color="#12ab4c"/></linearGradient></defs><g id="Layer_2" data-name="Layer 2"><g id="Layer_1-2" data-name="Layer 1"><path class="cls-1" d="M29.35.67a5,5,0,0,0-5,0L2.5,13.28A5,5,0,0,0,0,17.61V42.84a5,5,0,0,0,2.5,4.33L24.35,59.78a5,5,0,0,0,5,0L51.19,47.17a5,5,0,0,0,2.5-4.33V17.61a5,5,0,0,0-2.5-4.33Zm-1,4.42a3,3,0,0,0-3,0L5.83,16.36A3,3,0,0,0,4.33,19V41.49a3,3,0,0,0,1.5,2.6L25.35,55.36a3,3,0,0,0,3,0L47.86,44.09a3,3,0,0,0,1.5-2.6V19a3,3,0,0,0-1.5-2.6Z"/><path class="cls-2" d="M8.58,21.69a2,2,0,0,1,2-3.46l16,9.21,15.95-9.21a2,2,0,1,1,2,3.46l-15.63,9V50.23a2,2,0,0,1-4,0V31.09Z"/></g></g></svg>