<svg xmlns="http://www.w3.org/2000/svg" xmlns:xlink="http://www.w3.org/1999/xlink" viewBox="0 0 109 121"><defs><style>.cls-1{fill:url(#linear-gradient);}.cls-2{fill:#20133a;}</style><linearGradient id="linear-gradient" y1="61.5" x2="109" y2="61.5" gradientTransform="matrix(1, 0, 0, -1, 0, 122)" gradientUnits="userSpaceOnUse"><stop offset="0" stop-color="#9059ff"/><stop offset="1" stop-color="#f770ff"/></linearGradient></defs><g id="Layer_2" data-name="Layer 2"><g id="Layer_1-2" data-name="Layer 1"><path class="cls-1" d="M103.72,26.4,59.62,1.3a10.44,10.44,0,0,0-10.09,0L5.28,26.4a10.43,10.43,0,0,0-3.86,3.83A10.67,10.67,0,0,0,0,35.5v50a10.42,10.42,0,0,0,1.4,5.29,10.21,10.21,0,0,0,3.88,3.81l44.09,25A9.67,9.67,0,0,0,54.5,121a10,10,0,0,0,5.12-1.41l44.1-25a10.33,10.33,0,0,0,3.85-3.83A10.58,10.58,0,0,0,109,85.54v-50a10.14,10.14,0,0,0-1.36-5.31,9.92,9.92,0,0,0-3.92-3.79Z"/><path class="cls-2" d="M23.74,73.7,21.1,75.28a4,4,0,0,0-1.22,1,4.13,4.13,0,0,0-.73,1.45A4.19,4.19,0,0,0,19,79.4a4.06,4.06,0,0,0,.51,1.54A4.21,4.21,0,0,0,21,82.53a4,4,0,0,0,2.08.61,4.72,4.72,0,0,0,2-.48l2.64-1.57a4.07,4.07,0,0,0,1.94-2.5A4,4,0,0,0,29.84,77a4.24,4.24,0,0,0-.51-1.54,4,4,0,0,0-1-1.3,3.9,3.9,0,0,0-1.42-.79,3.72,3.72,0,0,0-1.62-.15,4,4,0,0,0-1.55.51Zm16.15-9.27-5.44,3.14a4.26,4.26,0,0,0-1.22,1.06,4.18,4.18,0,0,0-.84,3.06,4.12,4.12,0,0,0,.51,1.54,4.08,4.08,0,0,0,3.57,2.2,4.57,4.57,0,0,0,2-.47l5.43-3.14a4.14,4.14,0,0,0,1.23-1,4.2,4.2,0,0,0,.72-1.45A4,4,0,0,0,46,67.7a4.18,4.18,0,0,0-.51-1.54,4.12,4.12,0,0,0-1-1.31,3.94,3.94,0,0,0-1.43-.79,3.92,3.92,0,0,0-3.16.37Zm21.89-7.69a3.63,3.63,0,0,0-.9-1.16,3.57,3.57,0,0,0-1.27-.72V23.24a4.29,4.29,0,0,0-.32-1.62,4.15,4.15,0,0,0-.91-1.38A4,4,0,0,0,57,19.32,4.24,4.24,0,0,0,55.41,19a3.93,3.93,0,0,0-1.58.33,4.16,4.16,0,0,0-2.19,2.3,4.25,4.25,0,0,0-.26,1.61V55a3.53,3.53,0,0,0-1.28.72,3.78,3.78,0,0,0-.9,1.16,4.34,4.34,0,0,0-.48,1.79,4.11,4.11,0,0,0,.33,1.83,4.11,4.11,0,0,0-.33,1.83,4.34,4.34,0,0,0,.48,1.79,3.78,3.78,0,0,0,.9,1.16,3.53,3.53,0,0,0,1.28.72V97.76a4.3,4.3,0,0,0,1.22,3,4.16,4.16,0,0,0,5.93,0,4.27,4.27,0,0,0,1.23-3V65.84A3.57,3.57,0,0,0,61.93,64a4.17,4.17,0,0,0,.49-1.79,4.25,4.25,0,0,0-.33-1.83,4.89,4.89,0,0,0-.31-3.6ZM72.35,45.88,66.92,49a4.21,4.21,0,0,0-2,2.5,4.43,4.43,0,0,0-.12,1.62,4.18,4.18,0,0,0,4.09,3.74,4.6,4.6,0,0,0,2-.47l5.43-3.14a4.13,4.13,0,0,0,2-2.5,4.22,4.22,0,0,0,.11-1.62,4,4,0,0,0-.51-1.54,4.09,4.09,0,0,0-1-1.3,3.9,3.9,0,0,0-1.43-.8,3.95,3.95,0,0,0-3.17.37Zm12.87,1.57a4.57,4.57,0,0,0,2-.47l2.64-1.57a4.19,4.19,0,0,0,2-2.51,4.17,4.17,0,0,0-1.43-4.39A3.88,3.88,0,0,0,89,37.78a3.94,3.94,0,0,0-1.6-.12,4.15,4.15,0,0,0-1.53.52l-2.63,1.57a4,4,0,0,0-1.23,1,4.11,4.11,0,0,0-.72,1.45,4,4,0,0,0-.12,1.62,4.18,4.18,0,0,0,.51,1.54,4,4,0,0,0,1.51,1.52A3.93,3.93,0,0,0,85.22,47.45Zm4.66,27.83L87.24,73.7a4.06,4.06,0,0,0-3.11-.37,4.11,4.11,0,0,0-2.46,2,4.19,4.19,0,0,0-.38,3.14,4.11,4.11,0,0,0,1.92,2.51l2.63,1.57a4.9,4.9,0,0,0,2,.47A4.07,4.07,0,0,0,90,82.37a4.12,4.12,0,0,0,1.48-1.59A3.84,3.84,0,0,0,92,79.27a3.92,3.92,0,0,0-.84-3,3.85,3.85,0,0,0-1.24-1ZM76.37,67.57l-5.43-3.14a4,4,0,0,0-1.52-.51,4,4,0,0,0-3,.84,4.19,4.19,0,0,0-.7,5.85,4.23,4.23,0,0,0,1.22,1l5.44,3.14a4.72,4.72,0,0,0,2,.48,4.06,4.06,0,0,0,2.08-.61,4.21,4.21,0,0,0,1.49-1.59,4,4,0,0,0,.54-1.51A3.88,3.88,0,0,0,78.36,70a3.94,3.94,0,0,0-.74-1.42,3.89,3.89,0,0,0-1.25-1ZM34.45,53.11l5.44,3.15a4.86,4.86,0,0,0,2,.47A4.06,4.06,0,0,0,44,56.12,4.42,4.42,0,0,0,46,53a4,4,0,0,0-.12-1.62,4.11,4.11,0,0,0-.72-1.45,4,4,0,0,0-1.23-1.05l-5.43-3.15A3.91,3.91,0,0,0,37,45.21a4,4,0,0,0-3,.85,4.15,4.15,0,0,0-1,1.24,4.43,4.43,0,0,0,1.55,5.81ZM27.78,39.75l-2.64-1.57a4.15,4.15,0,0,0-1.53-.52,4.07,4.07,0,0,0-3,.85,4.14,4.14,0,0,0-1,1.23,4.21,4.21,0,0,0-.38,3.16,4.31,4.31,0,0,0,.73,1.45,4.14,4.14,0,0,0,1.22,1.06L23.74,47a4.57,4.57,0,0,0,2,.47,4.29,4.29,0,0,0,4.07-3.7,4.2,4.2,0,0,0-.12-1.58A4,4,0,0,0,29,40.76a3.88,3.88,0,0,0-1.2-1Z"/></g></g></svg>