<svg width="64" height="64" viewBox="0 0 64 64" fill="none" xmlns="http://www.w3.org/2000/svg">
<g clip-path="url(#clip0_10145_14952)">
<rect width="64" height="64" fill="white"/>
<rect opacity="0.1" width="64" height="64" fill="url(#paint0_radial_10145_14952)"/>
<path d="M16.3379 -31.6409C26.2407 -34.7864 36.8746 -34.7864 46.7773 -31.6409L60.0605 -27.4221C80.8722 -20.8113 95.1152 -1.47631 95.1152 20.492V31.9588C95.1152 52.8314 84.0269 68.483 78.1221 75.4783C74.318 79.9848 69.4324 84.7487 63.498 88.8064C58.9363 91.9255 47.4298 99.0769 31.5576 99.0769C16.0743 99.0769 4.72141 92.364 -0.347656 88.9324C-6.5135 84.7582 -11.5147 79.8373 -15.3604 75.2156C-21.5087 67.8264 -31.9999 52.3315 -32 31.9588V20.492C-32 -1.47644 -17.7569 -20.8114 3.05469 -27.4221L16.3379 -31.6409ZM32.1426 14.0174C31.7619 13.8965 31.3524 13.8965 30.9717 14.0174L17.6895 18.2371C16.8868 18.492 16.341 19.2356 16.3408 20.0779V31.5447C16.3408 35.4898 18.7197 40.182 21.7988 43.8826C23.3397 45.7344 25.0595 47.3433 26.752 48.489C28.4425 49.6334 30.1146 50.322 31.5576 50.322C32.9125 50.322 34.54 49.6319 36.2129 48.4881C37.8882 47.3425 39.6196 45.7351 41.1826 43.8836C44.3057 40.1836 46.7744 35.4907 46.7744 31.5447V20.0779C46.7742 19.2356 46.2284 18.492 45.4258 18.2371L32.1426 14.0174ZM32.8799 50.0466C32.6945 50.097 32.5124 50.1379 32.334 50.1687C32.4229 50.1533 32.5128 50.1353 32.6035 50.115L32.8799 50.0466ZM33.7354 49.7566L33.4453 49.867C33.541 49.8325 33.6373 49.7956 33.7344 49.7566L34.0283 49.6326C33.93 49.676 33.8324 49.7176 33.7354 49.7566ZM46.3564 34.2058C46.2947 34.4661 46.2259 34.7282 46.1484 34.991L46.0264 35.3855C46.1112 35.1219 46.1882 34.859 46.2578 34.5974L46.3564 34.2058ZM30.998 14.0984L17.9668 18.2371L30.998 14.0974L31.1357 14.0603C31.0895 14.0712 31.0436 14.084 30.998 14.0984ZM32.1172 14.0974L45.1484 18.2371L32.1172 14.0984L31.9795 14.0603C32.0257 14.0711 32.0717 14.083 32.1172 14.0974Z" fill="#0060DF" fill-opacity="0.035"/>
<path d="M18.7803 -23.9473C27.0934 -26.5879 36.0209 -26.5879 44.334 -23.9473L57.6172 -19.7285C75.0896 -14.1784 87.0439 2.05342 87.0439 20.4932V31.96C87.0439 50.0032 77.3993 63.8249 71.9551 70.2744C68.5252 74.3376 64.1664 78.5742 58.9434 82.1455C54.8666 84.933 45.008 91.0068 31.5576 91.0068C18.4192 91.0068 8.68258 85.3013 4.17676 82.251C-1.24209 78.5825 -5.69627 74.2141 -9.15723 70.0547C-14.7979 63.2755 -23.9296 49.5852 -23.9297 31.96V20.4932C-23.9297 2.05345 -11.975 -14.1784 5.49707 -19.7285L18.7803 -23.9473ZM32.1426 14.0186C31.7619 13.8977 31.3524 13.8977 30.9717 14.0186L17.6895 18.2383C16.8868 18.4932 16.341 19.2368 16.3408 20.0791V31.5459C16.3408 35.491 18.7197 40.1832 21.7988 43.8838C23.3397 45.7356 25.0595 47.3445 26.752 48.4902C28.4425 49.6346 30.1146 50.3232 31.5576 50.3232C32.9125 50.3232 34.54 49.6331 36.2129 48.4893C37.8882 47.3437 39.6196 45.7363 41.1826 43.8848C44.3057 40.1848 46.7744 35.4919 46.7744 31.5459V20.0791C46.7742 19.2368 46.2284 18.4932 45.4258 18.2383L32.1426 14.0186ZM32.8799 50.0478C32.6945 50.0982 32.5123 50.1391 32.334 50.1699C32.4229 50.1545 32.5128 50.1365 32.6035 50.1162L32.8799 50.0478ZM33.7354 49.7578L33.4453 49.8682C33.541 49.8337 33.6373 49.7968 33.7344 49.7578L34.0283 49.6338C33.93 49.6772 33.8324 49.7188 33.7354 49.7578ZM46.3564 34.207C46.2947 34.4673 46.2259 34.7294 46.1484 34.9922L46.0264 35.3867C46.1112 35.1231 46.1882 34.8602 46.2578 34.5986L46.3564 34.207ZM30.998 14.0996L17.9668 18.2383L30.998 14.0986L31.1357 14.0615C31.0895 14.0724 31.0436 14.0851 30.998 14.0996ZM32.1172 14.0986L45.1484 18.2383L32.1172 14.0996L31.9795 14.0615C32.0257 14.0723 32.0717 14.0842 32.1172 14.0986Z" fill="#0060DF" fill-opacity="0.035"/>
<path d="M21.2256 -16.1649C27.9488 -18.3005 35.1684 -18.3005 41.8916 -16.1649L55.1748 -11.9462C69.3075 -7.45699 78.9744 5.67162 78.9746 20.5831V32.0509C78.9744 47.2652 70.7715 59.2558 65.7891 65.1583C62.7332 68.7784 58.9006 72.4882 54.3887 75.5733C50.796 78.0298 42.5865 83.0264 31.5586 83.0265C20.7642 83.0265 12.6443 78.3261 8.70215 75.6573C4.03024 72.4945 0.124098 68.6806 -2.95215 64.9835C-8.08356 58.8165 -15.8572 46.9304 -15.8574 32.0509V20.5831C-15.8573 5.67154 -6.19021 -7.45701 7.94238 -11.9462L21.2256 -16.1649ZM32.1436 14.0187C31.7628 13.8978 31.3534 13.8977 30.9727 14.0187L17.6904 18.2384C16.8877 18.4934 16.3418 19.2368 16.3418 20.0792V31.546C16.342 35.4911 18.7207 40.1834 21.7998 43.8839C23.3407 45.7357 25.0605 47.3446 26.7529 48.4903C28.4434 49.6347 30.1156 50.3233 31.5586 50.3233C32.9134 50.3233 34.541 49.6331 36.2139 48.4894C37.8892 47.3439 39.6206 45.7364 41.1836 43.8849C44.3067 40.185 46.7752 35.492 46.7754 31.546V20.0792C46.7754 19.2368 46.2294 18.4934 45.4268 18.2384L32.1436 14.0187ZM32.8809 50.047C32.6955 50.0974 32.5133 50.1382 32.335 50.1691C32.4239 50.1537 32.5137 50.1356 32.6045 50.1153L32.8809 50.047ZM33.7363 49.7569L33.4463 49.8673C33.578 49.8198 33.7105 49.767 33.8447 49.711C33.8083 49.7262 33.7726 49.7424 33.7363 49.7569ZM45.0752 37.7716L44.8818 38.1681C44.9474 38.036 45.0116 37.9039 45.0742 37.7716L45.2578 37.3732C45.1982 37.5059 45.1379 37.639 45.0752 37.7716ZM46.0273 35.3858L45.8945 35.7823C45.9538 35.6124 46.0075 35.4419 46.0605 35.2726C46.0488 35.31 46.0394 35.3483 46.0273 35.3858ZM46.2295 34.6974C46.2012 34.8012 46.1704 34.9047 46.1396 35.0089C46.1704 34.9047 46.2011 34.8012 46.2295 34.6974Z" fill="#0060DF" fill-opacity="0.035"/>
<path d="M23.667 -8.47438C28.8004 -10.1049 34.3129 -10.1049 39.4463 -8.47438L52.7295 -4.25466C63.5221 -0.82641 70.9013 9.19832 70.9014 20.5823V32.0491C70.9014 44.4367 64.1384 54.5976 59.6191 59.9514C56.9374 63.1284 53.632 66.3114 49.8311 68.9104C46.7217 71.0364 40.1615 74.9553 31.5566 74.9553C23.1069 74.9553 16.603 71.261 13.2246 68.9739C9.29962 66.3167 5.94149 63.0552 3.25 59.8205C-1.37061 54.2674 -7.78906 44.1847 -7.78906 32.0491V20.5823C-7.78898 9.19827 -0.408788 -0.826426 10.3838 -4.25466L23.667 -8.47438ZM32.1416 14.0178C31.7608 13.8969 31.3515 13.8969 30.9707 14.0178L17.6885 18.2375C16.8858 18.4925 16.3399 19.2359 16.3398 20.0784V31.5451C16.34 35.4903 18.7187 40.1825 21.7979 43.883C23.3387 45.7349 25.0586 47.3437 26.751 48.4895C28.4414 49.6338 30.1136 50.3225 31.5566 50.3225C32.9115 50.3225 34.539 49.6323 36.2119 48.4885C37.8872 47.343 39.6186 45.7356 41.1816 43.884C44.3048 40.1841 46.7733 35.4912 46.7734 31.5451V20.0784C46.7734 19.2359 46.2275 18.4926 45.4248 18.2375L32.1416 14.0178ZM32.6035 50.1145L32.333 50.1682C32.422 50.1528 32.5118 50.1348 32.6025 50.1145L32.8789 50.0461C32.7863 50.0713 32.6945 50.0941 32.6035 50.1145ZM33.7344 49.7561L33.4443 49.8664C33.576 49.819 33.7085 49.7661 33.8428 49.7102C33.8064 49.7254 33.7706 49.7415 33.7344 49.7561ZM45.0732 37.7707L44.8799 38.1672C44.9905 37.9445 45.0952 37.7206 45.1973 37.4973C45.1558 37.5881 45.1162 37.68 45.0732 37.7707Z" fill="#0060DF" fill-opacity="0.035"/>
<path d="M26.1113 -0.78183C29.6549 -1.90734 33.4603 -1.90737 37.0039 -0.78183L50.2871 3.4379C57.739 5.80496 62.8318 12.7256 62.832 20.5824V32.0502C62.8319 41.612 57.5076 49.9433 53.4531 54.7465C51.1455 57.4802 48.3662 60.1357 45.2764 62.2484C42.6492 64.0448 37.7385 66.8851 31.5576 66.8852C25.4517 66.8852 20.5643 64.1957 17.75 62.2904C14.5718 60.1389 11.7618 57.4308 9.45508 54.6586C5.34738 49.7219 0.283335 41.4434 0.283203 32.0502V20.5824C0.283406 12.7256 5.37628 5.80495 12.8281 3.4379L26.1113 -0.78183ZM32.1426 14.018C31.7618 13.8971 31.3524 13.897 30.9717 14.018L17.6895 18.2377C16.8867 18.4927 16.3408 19.2361 16.3408 20.0785V31.5453C16.3409 35.4905 18.7196 40.1826 21.7988 43.8832C23.3397 45.7351 25.0595 47.3439 26.752 48.4897C28.4424 49.634 30.1146 50.3227 31.5576 50.3227C32.9125 50.3226 34.54 49.6325 36.2129 48.4887C37.8882 47.3431 39.6196 45.7358 41.1826 43.8842C44.3058 40.1843 46.7744 35.4914 46.7744 31.5453V20.0785C46.7744 19.2361 46.2285 18.4927 45.4258 18.2377L32.1426 14.018ZM32.6045 50.1147L32.334 50.1684C32.4229 50.153 32.5128 50.135 32.6035 50.1147L32.8799 50.0463C32.7872 50.0715 32.6954 50.0943 32.6045 50.1147ZM40.5264 44.5102C40.3716 44.6829 40.2135 44.8512 40.0557 45.018L40.5264 44.5102ZM44.252 39.352C44.104 39.6134 43.9509 39.8737 43.793 40.1322C43.8718 40.0032 43.949 39.8734 44.0254 39.7436L44.252 39.352ZM46.2275 34.7045C46.2133 34.7566 46.1984 34.8086 46.1836 34.8607C46.1984 34.8086 46.2133 34.7566 46.2275 34.7045Z" fill="#0060DF" fill-opacity="0.035"/>
<path d="M28.5547 6.90977C30.5086 6.28921 32.6066 6.28917 34.5605 6.90977L47.8438 11.1295C51.9543 12.4352 54.7607 16.2519 54.7607 20.5826V32.0494C54.7606 38.7874 50.8738 45.2895 47.2861 49.5397C45.3528 51.83 43.1005 53.9589 40.7217 55.5856C38.5753 57.0532 35.3138 58.8131 31.5576 58.8131C27.7956 58.8131 24.5242 57.1291 22.2744 55.6061C19.8432 53.9601 17.5809 51.8053 15.6592 49.4957C12.0668 45.1784 8.35365 38.7027 8.35352 32.0494V20.5816C8.35373 16.2511 11.1611 12.4352 15.2715 11.1295L28.5547 6.90977ZM32.1426 14.0172C31.7618 13.8963 31.3524 13.8963 30.9717 14.0172L17.6895 18.2369C16.8867 18.4919 16.3409 19.2353 16.3408 20.0777V31.5445C16.3408 35.4897 18.7196 40.1818 21.7988 43.8824C23.3398 45.7343 25.0595 47.3431 26.752 48.4889C28.4425 49.6333 30.1146 50.3219 31.5576 50.3219C32.9125 50.3218 34.54 49.6317 36.2129 48.4879C37.8883 47.3423 39.6196 45.735 41.1826 43.8834C44.3058 40.1834 46.7744 35.4906 46.7744 31.5445V20.0777C46.7744 19.2353 46.2285 18.4919 45.4258 18.2369L32.1426 14.0172ZM32.6045 50.1139L32.334 50.1676C32.4229 50.1522 32.5128 50.1342 32.6035 50.1139L32.8799 50.0455C32.7872 50.0707 32.6954 50.0935 32.6045 50.1139ZM40.5264 44.5094C40.3716 44.6821 40.2135 44.8504 40.0557 45.0172L40.5264 44.5094ZM44.252 39.3512C44.104 39.6127 43.9509 39.873 43.793 40.1315C43.8718 40.0024 43.949 39.8726 44.0254 39.7428L44.252 39.3512ZM46.2197 34.7311C46.2079 34.774 46.1958 34.817 46.1836 34.86C46.1958 34.817 46.2079 34.774 46.2197 34.7311Z" fill="#0060DF" fill-opacity="0.035"/>
<path d="M30.9209 13.8594C31.3345 13.728 31.7788 13.728 32.1924 13.8594L45.4756 18.0791C46.3469 18.356 46.9394 19.1633 46.9395 20.0781V31.5449C46.9395 35.5489 44.4414 40.2789 41.3086 43.9902C39.7378 45.8511 37.9957 47.4704 36.3057 48.626C34.623 49.7764 32.9614 50.4883 31.5566 50.4883C30.0654 50.4883 28.3604 49.7783 26.6582 48.626C24.9504 47.4698 23.2188 45.8507 21.6699 43.9893C18.58 40.2758 16.1738 35.5464 16.1738 31.5449V20.0781C16.1739 19.1632 16.7663 18.356 17.6377 18.0791L30.9209 13.8594Z" stroke="black" stroke-opacity="0.08" stroke-width="0.5" stroke-linecap="round" stroke-linejoin="round"/>
<path d="M31.6406 44.858V19.5496C31.6406 19.0938 32.0843 18.7701 32.5184 18.9091L41.9343 21.9251C42.2127 22.0143 42.4017 22.2732 42.4017 22.5656V31.743C42.4017 37.0583 35.4973 44.4087 32.2976 45.4148C31.9433 45.5262 31.6406 45.2295 31.6406 44.858Z" fill="#0060DF" fill-opacity="0.16"/>
<path d="M32.4424 19.1475L41.8584 22.1631C42.0331 22.2192 42.1513 22.3819 42.1514 22.5654V31.7432C42.1513 34.3114 40.473 37.4209 38.3555 40.0381C37.302 41.3401 36.15 42.5069 35.0664 43.4092C33.9773 44.316 32.9758 44.9399 32.2227 45.1768C32.1347 45.2044 32.0604 45.1829 32.002 45.1309C31.9391 45.0748 31.8907 44.9774 31.8906 44.8584V19.5498C31.8906 19.2635 32.1697 19.0601 32.4424 19.1475Z" stroke="black" stroke-opacity="0.08" stroke-width="0.5" stroke-linecap="round" stroke-linejoin="round"/>
</g>
<defs>
<radialGradient id="paint0_radial_10145_14952" cx="0" cy="0" r="1" gradientUnits="userSpaceOnUse" gradientTransform="translate(64) rotate(-45) scale(90.5097)">
<stop stop-color="#B833E1"/>
<stop offset="0.371" stop-color="#9059FF"/>
<stop offset="0.614" stop-color="#5B6DF8"/>
<stop offset="1" stop-color="#0090ED"/>
</radialGradient>
<clipPath id="clip0_10145_14952">
<rect width="64" height="64" fill="white"/>
</clipPath>
</defs>
</svg>
