<svg width="64" height="64" viewBox="0 0 64 64" fill="none" xmlns="http://www.w3.org/2000/svg">
<g clip-path="url(#clip0_2788_6)">
<path d="M60 0H4C1.79086 0 0 1.79086 0 4V60C0 62.2091 1.79086 64 4 64H60C62.2091 64 64 62.2091 64 60V4C64 1.79086 62.2091 0 60 0Z" fill="#ECDFFF"/>
<path opacity="0.2" d="M60 0H4C1.79086 0 0 1.79086 0 4V60C0 62.2091 1.79086 64 4 64H60C62.2091 64 64 62.2091 64 60V4C64 1.79086 62.2091 0 60 0Z" fill="url(#paint0_radial_2788_6)"/>
<mask id="mask0_2788_6" style="mask-type:alpha" maskUnits="userSpaceOnUse" x="0" y="0" width="64" height="64">
<path d="M60 0H4C1.79086 0 0 1.79086 0 4V60C0 62.2091 1.79086 64 4 64H60C62.2091 64 64 62.2091 64 60V4C64 1.79086 62.2091 0 60 0Z" fill="#F770FF"/>
</mask>
<g mask="url(#mask0_2788_6)">
<g filter="url(#filter0_d_2788_6)">
<path fill-rule="evenodd" clip-rule="evenodd" d="M-10.9592 43.6375C-11.0791 43.8678 -11.2354 44.0882 -11.4283 44.2916L-19.5865 51.9399C-20.9887 53.2545 -20.9249 55.3458 -19.5865 56.6006L-16.5581 59.4397L0.381563 75.3208L5.46176 80.0833C6.92769 81.3382 9.22219 81.3382 10.6244 80.0236L18.7826 72.3753C18.9148 72.2513 19.03 72.1172 19.1279 71.9755L27.3528 64.2647C27.4746 64.189 27.5926 64.1041 27.7056 64.0099L35.8638 56.3616C37.266 55.0471 37.2023 52.9557 35.8638 51.7009L27.6419 43.9928C26.6221 43.0368 26.6221 41.4832 27.6419 40.4077C28.5415 39.5643 29.5822 39.6204 30.6843 39.6797C31.9247 39.7465 33.2429 39.8174 34.5254 38.6151C36.7561 36.5238 36.055 33.2374 33.2507 30.6083C30.51 28.0389 26.6221 27.3817 24.4551 29.4132C23.4141 30.3892 23.3816 31.6471 23.3508 32.8374C23.3231 33.9063 23.2969 34.9207 22.543 35.6275C21.5232 36.5835 19.8661 36.5835 18.7189 35.6275L10.8156 28.2182C9.54087 27.0231 7.37385 26.6646 5.71671 28.2182L-2.44149 35.8665C-2.66595 36.0769 -2.92129 36.2411 -3.1946 36.3582L-10.9592 43.6375Z" fill="white"/>
</g>
<g filter="url(#filter1_d_2788_6)">
<path fill-rule="evenodd" clip-rule="evenodd" d="M32.1344 2.7328C32.0145 2.96314 31.8581 3.18365 31.6652 3.38707L23.507 11.0353C22.1048 12.3499 22.1686 14.4412 23.507 15.696L25.4511 17.5186L31.6523 23.3325C32.786 24.1346 34.3172 24.0843 35.2801 23.1815C36.034 22.4747 36.0603 21.4603 36.0879 20.3914C36.1187 19.2011 36.1512 17.9432 37.1922 16.9673C39.3592 14.9357 43.2471 15.593 45.9878 18.1623C48.7922 20.7914 49.4933 24.0778 47.2625 26.1691C45.98 27.3715 44.6618 27.3005 43.4214 27.2337C42.3193 27.1744 41.2786 27.1183 40.379 27.9617C39.4461 28.9457 39.3666 30.3296 40.1406 31.2902L42.6619 33.6539L48.5552 39.1788C50.0212 40.4336 52.3157 40.4336 53.7179 39.119L61.8761 31.4707C62.0082 31.3469 62.1231 31.213 62.221 31.0714L70.4469 23.3597C70.5685 23.2842 70.6863 23.1994 70.7991 23.1053L78.9573 15.457C80.3595 14.1425 80.2958 12.0511 78.9573 10.7963L70.7354 3.0883C70.6483 3.00669 70.5687 2.92072 70.4965 2.83106L62.0093 -5.12568C61.9422 -5.17314 61.8765 -5.2236 61.8123 -5.27704L53.9091 -12.6864C52.6344 -13.8814 50.4673 -14.24 48.8102 -12.6864L40.652 -5.03803C40.4275 -4.82756 40.1721 -4.66342 39.8987 -4.54625L32.1344 2.7328Z" fill="white"/>
</g>
<path d="M2.4485 31.068L-16.3505 48.692C-19.5738 51.7139 -19.5738 56.6133 -16.3505 59.6351L2.14676 76.9763C5.37006 79.9981 10.5961 79.9981 13.8194 76.9763L32.6184 59.3522C35.8417 56.3304 35.8417 51.431 32.6184 48.4092L14.1211 31.068C10.8978 28.0461 5.6718 28.0461 2.4485 31.068Z" fill="white"/>
<path d="M47.9087 -12.0555L24.0745 10.2891C22.325 11.9293 22.325 14.5886 24.0745 16.2288C25.8241 17.869 28.6607 17.869 30.4102 16.2288L54.2444 -6.11579C55.9939 -7.75599 55.9939 -10.4153 54.2444 -12.0555C52.4949 -13.6957 49.6583 -13.6957 47.9087 -12.0555Z" fill="white"/>
<path d="M71.7427 10.2891L47.9085 32.6337C46.159 34.2739 46.159 36.9332 47.9085 38.5734C49.6581 40.2136 52.4947 40.2136 54.2442 38.5734L78.0784 16.2288C79.8279 14.5886 79.8279 11.9293 78.0784 10.2891C76.3288 8.64892 73.4923 8.64892 71.7427 10.2891Z" fill="white"/>
<path d="M21.5172 45.7085L14.9088 42.1818C14.6766 42.0624 14.4167 41.9998 14.1525 41.9998C13.8884 41.9998 13.6284 42.0624 13.3963 42.1818L6.76457 45.7085C6.52517 45.8363 6.32583 46.022 6.18685 46.2466C6.04787 46.4712 5.97423 46.7266 5.97344 46.9869V54.0183C5.97129 54.2792 6.04369 54.5358 6.18297 54.7608C6.32226 54.9859 6.52322 55.1711 6.76457 55.2967L13.373 58.8014C13.6047 58.9335 13.8705 59.0021 14.1409 58.9998C14.4108 58.9991 14.6758 58.9307 14.9088 58.8014L21.5172 55.2967C21.7566 55.1689 21.9559 54.9833 22.0949 54.7587C22.2339 54.5341 22.3075 54.2786 22.3083 54.0183V46.9869C22.3151 46.7252 22.2447 46.4669 22.1049 46.241C21.9652 46.0151 21.7616 45.8307 21.5172 45.7085Z" fill="url(#paint1_linear_2788_6)"/>
<path d="M9.53362 52.3417L9.13805 52.5621C9.06726 52.5993 9.005 52.6494 8.95488 52.7096C8.90477 52.7698 8.8678 52.8388 8.84614 52.9127C8.82448 52.9866 8.81856 53.0638 8.82873 53.1398C8.8389 53.2159 8.86494 53.2892 8.90536 53.3556C8.95732 53.4477 9.03437 53.5249 9.12849 53.5791C9.22261 53.6334 9.33037 53.6628 9.44054 53.6642C9.54527 53.6634 9.64852 53.6408 9.74304 53.5981L10.1386 53.3777C10.2094 53.3405 10.2717 53.2904 10.3218 53.2302C10.3719 53.17 10.4089 53.1011 10.4305 53.0272C10.4522 52.9534 10.4581 52.8762 10.4479 52.8C10.4378 52.724 10.4117 52.6506 10.3713 52.5842C10.3354 52.5142 10.2846 52.4519 10.2221 52.4013C10.1596 52.3507 10.0868 52.3128 10.0082 52.2901C9.92962 52.2673 9.8469 52.2602 9.76524 52.2691C9.68358 52.2779 9.60474 52.3027 9.53362 52.3417ZM11.9536 51.0412L11.1392 51.4821C11.0684 51.5192 11.0061 51.5694 10.956 51.6296C10.9059 51.6897 10.8689 51.7588 10.8473 51.8326C10.8256 51.9065 10.8197 51.9837 10.8299 52.0598C10.84 52.1358 10.8661 52.2092 10.9065 52.2756C10.9585 52.3676 11.0355 52.4448 11.1296 52.4991C11.2238 52.5533 11.3315 52.5827 11.4417 52.5842C11.5464 52.5833 11.6497 52.5608 11.7442 52.5181L12.5586 52.0772C12.6294 52.0401 12.6916 51.9899 12.7418 51.9297C12.7919 51.8695 12.8288 51.8005 12.8505 51.7267C12.8722 51.6528 12.8781 51.5756 12.8679 51.4995C12.8577 51.4235 12.8317 51.3501 12.7913 51.2837C12.7554 51.2137 12.7046 51.1514 12.6421 51.1008C12.5796 51.0502 12.5068 51.0124 12.4282 50.9896C12.3496 50.9669 12.2669 50.9597 12.1852 50.9686C12.1036 50.9775 12.0247 51.0022 11.9536 51.0412ZM15.2345 49.9634C15.2018 49.9009 15.156 49.8452 15.1001 49.7998C15.0441 49.7543 14.979 49.72 14.9088 49.6989V45.2663C14.9091 45.188 14.893 45.1105 14.8616 45.0382C14.8301 44.9658 14.7838 44.9001 14.7254 44.8448C14.667 44.7895 14.5977 44.7456 14.5213 44.7158C14.4449 44.686 14.3631 44.6708 14.2805 44.6711C14.1992 44.6714 14.1187 44.6871 14.0439 44.7174C13.9691 44.7477 13.9014 44.7919 13.845 44.8474C13.7886 44.9029 13.7445 44.9686 13.7154 45.0405C13.6863 45.1125 13.6727 45.1892 13.6755 45.2663V49.7187C13.6053 49.7398 13.5402 49.7742 13.4842 49.8196C13.4283 49.865 13.3825 49.9207 13.3497 49.9832C13.306 50.0607 13.2812 50.1465 13.2772 50.2342C13.2732 50.322 13.29 50.4094 13.3265 50.4902C13.29 50.571 13.2732 50.6584 13.2772 50.7462C13.2812 50.8339 13.306 50.9197 13.3497 50.9972C13.3825 51.0597 13.4283 51.1154 13.4842 51.1608C13.5402 51.2062 13.6053 51.2405 13.6755 51.2617V55.7141C13.6755 55.872 13.7417 56.0233 13.8595 56.135C13.9773 56.2466 14.1372 56.3094 14.3038 56.3094C14.4704 56.3094 14.6302 56.2466 14.748 56.135C14.8658 56.0233 14.932 55.872 14.932 55.7141V51.2396C15.0023 51.2185 15.0674 51.1842 15.1233 51.1388C15.1793 51.0933 15.225 51.0377 15.2578 50.9751C15.3015 50.8977 15.3263 50.8119 15.3303 50.7241C15.3344 50.6364 15.3175 50.5489 15.2811 50.4682C15.3349 50.3005 15.3182 50.1197 15.2345 49.9634ZM16.8192 48.4403L16.0047 48.8811C15.934 48.9183 15.8717 48.9684 15.8216 49.0286C15.7715 49.0888 15.7345 49.1578 15.7128 49.2317C15.6912 49.3056 15.6853 49.3828 15.6954 49.4588C15.7056 49.5349 15.7316 49.6082 15.7721 49.6746C15.824 49.7667 15.9011 49.8439 15.9952 49.8981C16.0893 49.9524 16.1971 49.9818 16.3072 49.9832C16.412 49.9824 16.5152 49.9598 16.6097 49.9171L17.4242 49.4763C17.4949 49.4391 17.5572 49.389 17.6073 49.3288C17.6574 49.2686 17.6944 49.1996 17.7161 49.1257C17.7377 49.0518 17.7436 48.9746 17.7335 48.8986C17.7233 48.8225 17.6973 48.7492 17.6568 48.6828C17.6209 48.6127 17.5701 48.5505 17.5077 48.4999C17.4452 48.4493 17.3724 48.4114 17.2938 48.3887C17.2152 48.3659 17.1324 48.3588 17.0508 48.3676C16.9691 48.3765 16.8903 48.4013 16.8192 48.4403ZM18.7482 48.6607C18.8529 48.6599 18.9561 48.6373 19.0507 48.5946L19.4462 48.3742C19.5169 48.3367 19.5791 48.2865 19.6292 48.2262C19.6794 48.1659 19.7164 48.0969 19.7383 48.023C19.7601 47.9492 19.7664 47.8719 19.7566 47.7958C19.7469 47.7196 19.7214 47.6461 19.6815 47.5793C19.6417 47.5125 19.5883 47.4538 19.5244 47.4066C19.4606 47.3595 19.3875 47.3247 19.3094 47.3043C19.2314 47.284 19.1498 47.2784 19.0695 47.288C18.9891 47.2976 18.9115 47.3222 18.8412 47.3602L18.4457 47.5807C18.3749 47.6178 18.3126 47.668 18.2625 47.7281C18.2124 47.7883 18.1754 47.8574 18.1538 47.9312C18.1321 48.0051 18.1262 48.0823 18.1364 48.1583C18.1465 48.2344 18.1726 48.3078 18.213 48.3742C18.2663 48.4635 18.3442 48.5374 18.4385 48.5879C18.5328 48.6384 18.6399 48.6636 18.7482 48.6607ZM19.4462 52.5621L19.0507 52.3417C18.9088 52.2666 18.7413 52.2478 18.5848 52.2893C18.4283 52.3309 18.2955 52.4295 18.2156 52.5635C18.1356 52.6976 18.1149 52.8561 18.158 53.0046C18.2011 53.153 18.3046 53.2792 18.4457 53.3556L18.8412 53.5761C18.9358 53.6188 19.039 53.6413 19.1437 53.6422C19.2539 53.6407 19.3617 53.6114 19.4558 53.5571C19.5499 53.5028 19.627 53.4256 19.6789 53.3336C19.7206 53.2694 19.7476 53.1975 19.7584 53.1227C19.7692 53.048 19.7635 52.972 19.7416 52.8994C19.7197 52.8269 19.6822 52.7594 19.6313 52.7014C19.5805 52.6433 19.5175 52.5959 19.4462 52.5621ZM17.4218 51.4821L16.6074 51.0412C16.5371 51.0032 16.4596 50.9786 16.3792 50.969C16.2989 50.9594 16.2173 50.965 16.1392 50.9853C16.0611 51.0057 15.9881 51.0405 15.9242 51.0876C15.8604 51.1348 15.807 51.1935 15.7671 51.2603C15.7273 51.3271 15.7018 51.4006 15.692 51.4768C15.6823 51.5529 15.6885 51.6302 15.7104 51.704C15.7322 51.7779 15.7693 51.8469 15.8194 51.9072C15.8695 51.9675 15.9317 52.0177 16.0024 52.0552L16.8168 52.496C16.9114 52.5387 17.0146 52.5613 17.1193 52.5621C17.2295 52.5607 17.3373 52.5313 17.4314 52.477C17.5255 52.4228 17.6026 52.3456 17.6545 52.2535C17.6969 52.1894 17.7245 52.1176 17.7357 52.0427C17.7469 51.9678 17.7413 51.8915 17.7194 51.8188C17.6974 51.746 17.6596 51.6785 17.6084 51.6205C17.5571 51.5625 17.4936 51.5153 17.4218 51.4821ZM11.1392 49.4542L11.9536 49.8951C12.0481 49.9378 12.1514 49.9603 12.2561 49.9612C12.3663 49.9597 12.474 49.9304 12.5682 49.8761C12.6623 49.8218 12.7393 49.7446 12.7913 49.6526C12.8317 49.5862 12.8577 49.5128 12.8679 49.4368C12.8781 49.3607 12.8722 49.2835 12.8505 49.2097C12.8288 49.1358 12.7919 49.0668 12.7418 49.0066C12.6916 48.9464 12.6294 48.8962 12.5586 48.8591L11.7442 48.4183C11.6741 48.38 11.5966 48.3553 11.5163 48.3457C11.436 48.336 11.3545 48.3416 11.2766 48.3622C11.1986 48.3827 11.1257 48.4177 11.0622 48.4652C10.9986 48.5126 10.9457 48.5716 10.9065 48.6387C10.8285 48.7772 10.8092 48.9386 10.8524 49.0901C10.8957 49.2416 10.9982 49.3718 11.1392 49.4542ZM10.1386 47.5807L9.74304 47.3602C9.67273 47.3222 9.59518 47.2976 9.51483 47.288C9.43448 47.2784 9.35293 47.284 9.27485 47.3043C9.19677 47.3247 9.1237 47.3595 9.05984 47.4066C8.99599 47.4538 8.9426 47.5125 8.90275 47.5793C8.86291 47.6461 8.83738 47.7196 8.82764 47.7958C8.8179 47.8719 8.82415 47.9492 8.84601 48.023C8.86787 48.0969 8.90493 48.1659 8.95504 48.2262C9.00516 48.2865 9.06735 48.3367 9.13805 48.3742L9.53362 48.5946C9.62814 48.6373 9.7314 48.6599 9.83612 48.6607C9.94629 48.6593 10.054 48.6299 10.1482 48.5756C10.2423 48.5213 10.3193 48.4442 10.3713 48.3521C10.4109 48.2873 10.4363 48.2156 10.446 48.1413C10.4557 48.067 10.4495 47.9916 10.4278 47.9196C10.4061 47.8476 10.3693 47.7805 10.3196 47.7223C10.2699 47.664 10.2084 47.6159 10.1386 47.5807Z" fill="#20133A"/>
<path fill-rule="evenodd" clip-rule="evenodd" d="M52.0531 4.81593C51.3108 4.81593 50.7091 5.41766 50.7091 6.15993C50.7091 6.9022 51.3108 7.50393 52.0531 7.50393C52.7953 7.50393 53.3971 6.9022 53.3971 6.15993C53.3971 5.41766 52.7953 4.81593 52.0531 4.81593ZM48.9171 6.15993C48.9171 4.42796 50.3211 3.02393 52.0531 3.02393C53.785 3.02393 55.1891 4.42796 55.1891 6.15993C55.1891 7.89189 53.785 9.29593 52.0531 9.29593C51.513 9.29593 51.0048 9.1594 50.5611 8.91899L49.2121 10.268C49.314 10.4559 49.3971 10.6554 49.4592 10.8639H54.6469C55.0325 9.56854 56.2325 8.62393 57.6531 8.62393C59.385 8.62393 60.7891 10.028 60.7891 11.7599C60.7891 13.4919 59.385 14.8959 57.6531 14.8959C57.113 14.8959 56.6048 14.7594 56.1611 14.519L54.8121 15.868C55.0526 16.3117 55.1891 16.8199 55.1891 17.3599C55.1891 19.0919 53.785 20.4959 52.0531 20.4959C50.3211 20.4959 48.9171 19.0919 48.9171 17.3599C48.9171 15.628 50.3211 14.2239 52.0531 14.2239C52.5931 14.2239 53.1013 14.3604 53.545 14.6009L54.894 13.2518C54.7922 13.064 54.709 12.8645 54.6469 12.6559H49.4592C49.0737 13.9513 47.8737 14.8959 46.4531 14.8959C44.7211 14.8959 43.3171 13.4919 43.3171 11.7599C43.3171 10.028 44.7211 8.62393 46.4531 8.62393C46.9931 8.62393 47.5013 8.76045 47.945 9.00086L49.294 7.65185C49.0536 7.20818 48.9171 6.7 48.9171 6.15993ZM50.7091 17.3599C50.7091 16.6177 51.3108 16.0159 52.0531 16.0159C52.7953 16.0159 53.3971 16.6177 53.3971 17.3599C53.3971 18.1022 52.7953 18.7039 52.0531 18.7039C51.3108 18.7039 50.7091 18.1022 50.7091 17.3599ZM46.4531 10.4159C45.7108 10.4159 45.1091 11.0177 45.1091 11.7599C45.1091 12.5022 45.7108 13.1039 46.4531 13.1039C47.1953 13.1039 47.7971 12.5022 47.7971 11.7599C47.7971 11.0177 47.1953 10.4159 46.4531 10.4159ZM56.3091 11.7599C56.3091 11.0177 56.9108 10.4159 57.6531 10.4159C58.3953 10.4159 58.9971 11.0177 58.9971 11.7599C58.9971 12.5022 58.3953 13.1039 57.6531 13.1039C56.9108 13.1039 56.3091 12.5022 56.3091 11.7599Z" fill="black"/>
</g>
</g>
<defs>
<filter id="filter0_d_2788_6" x="-24.6144" y="27.1831" width="65.5061" height="61.834" filterUnits="userSpaceOnUse" color-interpolation-filters="sRGB">
<feFlood flood-opacity="0" result="BackgroundImageFix"/>
<feColorMatrix in="SourceAlpha" type="matrix" values="0 0 0 0 0 0 0 0 0 0 0 0 0 0 0 0 0 0 127 0" result="hardAlpha"/>
<feOffset dy="4"/>
<feGaussianBlur stdDeviation="2"/>
<feComposite in2="hardAlpha" operator="out"/>
<feColorMatrix type="matrix" values="0 0 0 0 0 0 0 0 0 0 0 0 0 0 0 0 0 0 0.1 0"/>
<feBlend mode="normal" in2="BackgroundImageFix" result="effect1_dropShadow_2788_6"/>
<feBlend mode="normal" in="SourceGraphic" in2="effect1_dropShadow_2788_6" result="shape"/>
</filter>
<filter id="filter1_d_2788_6" x="18.4791" y="-13.7214" width="65.5061" height="61.834" filterUnits="userSpaceOnUse" color-interpolation-filters="sRGB">
<feFlood flood-opacity="0" result="BackgroundImageFix"/>
<feColorMatrix in="SourceAlpha" type="matrix" values="0 0 0 0 0 0 0 0 0 0 0 0 0 0 0 0 0 0 127 0" result="hardAlpha"/>
<feOffset dy="4"/>
<feGaussianBlur stdDeviation="2"/>
<feComposite in2="hardAlpha" operator="out"/>
<feColorMatrix type="matrix" values="0 0 0 0 0 0 0 0 0 0 0 0 0 0 0 0 0 0 0.1 0"/>
<feBlend mode="normal" in2="BackgroundImageFix" result="effect1_dropShadow_2788_6"/>
<feBlend mode="normal" in="SourceGraphic" in2="effect1_dropShadow_2788_6" result="shape"/>
</filter>
<radialGradient id="paint0_radial_2788_6" cx="0" cy="0" r="1" gradientTransform="matrix(43.7945 -10.5972 13.7626 46.9599 43.1879 38.3214)" gradientUnits="userSpaceOnUse">
<stop stop-color="#B833E1"/>
<stop offset="0.371" stop-color="#9059FF"/>
<stop offset="0.614" stop-color="#5B6DF8"/>
<stop offset="1" stop-color="#0090ED"/>
</radialGradient>
<linearGradient id="paint1_linear_2788_6" x1="5.97344" y1="50.5004" x2="22.3106" y2="50.5004" gradientUnits="userSpaceOnUse">
<stop stop-color="#9059FF"/>
<stop offset="1" stop-color="#F770FF"/>
</linearGradient>
<clipPath id="clip0_2788_6">
<rect width="64" height="64" fill="white"/>
</clipPath>
</defs>
</svg>
