<svg width="20" height="20" viewBox="0 0 20 20" fill="none" xmlns="http://www.w3.org/2000/svg"><path fill-rule="evenodd" clip-rule="evenodd" d="M17.75 10C17.75 14.411 14.161 18 9.75 18C5.339 18 1.75 14.411 1.75 10C1.75 5.589 5.339 2 9.75 2C14.161 2 17.75 5.589 17.75 10ZM0.25 10C0.25 15.247 4.503 19.5 9.75 19.5C14.997 19.5 19.25 15.247 19.25 10C19.25 4.753 14.997 0.5 9.75 0.5C4.503 0.5 0.25 4.753 0.25 10ZM10.5 14.7L10.2 15H9.3L9 14.7V13.8L9.3 13.5H10.2L10.5 13.8V14.7ZM9.75 5C9.55109 5 9.36032 5.07902 9.21967 5.21967C9.07902 5.36032 9 5.55109 9 5.75V11.25C9 11.4489 9.07902 11.6397 9.21967 11.7803C9.36032 11.921 9.55109 12 9.75 12C9.94891 12 10.1397 11.921 10.2803 11.7803C10.421 11.6397 10.5 11.4489 10.5 11.25V5.75C10.5 5.55109 10.421 5.36032 10.2803 5.21967C10.1397 5.07902 9.94891 5 9.75 5Z" fill="#C50042"/></svg>
