<svg xmlns="http://www.w3.org/2000/svg" width="32" height="32" viewBox="0 0 32 32" fill="#3D3D3D"><path d="M10.666 28a2.57 2.57 0 0 1-1.883-.783 2.57 2.57 0 0 1-.784-1.884v-2.666H5.333a2.57 2.57 0 0 1-1.884-.784A2.57 2.57 0 0 1 2.666 20v-5.333q0-1.701 1.167-2.85 1.166-1.15 2.833-1.15h18.667q1.7 0 2.85 1.15t1.15 2.85V20q0 1.1-.784 1.883a2.57 2.57 0 0 1-1.883.784h-2.667v2.666q0 1.1-.783 1.884a2.57 2.57 0 0 1-1.883.783zm-5.333-8h2.666q0-1.1.784-1.883a2.57 2.57 0 0 1 1.883-.784h10.667q1.099 0 1.883.784.783.783.783 1.883h2.667v-5.333a1.3 1.3 0 0 0-.383-.95 1.3 1.3 0 0 0-.95-.384H6.666a1.3 1.3 0 0 0-.95.384 1.3 1.3 0 0 0-.383.95zm16-9.333v-4H10.666v4H7.999v-4q0-1.1.784-1.884A2.57 2.57 0 0 1 10.666 4h10.667q1.099 0 1.883.783.783.784.783 1.884v4zm2.666 6q.567 0 .95-.384a1.3 1.3 0 0 0 .384-.95 1.3 1.3 0 0 0-.384-.95A1.3 1.3 0 0 0 24 14a1.3 1.3 0 0 0-.95.383 1.3 1.3 0 0 0-.383.95q0 .567.383.95.384.384.95.384m-2.666 8.666V20H10.666v5.333z"/></svg>
