<svg width="13" height="15" viewBox="0 0 13 15" fill="none" xmlns="http://www.w3.org/2000/svg">
<path d="M10.9845 4.36128H10.0691V2.61375C10.0691 2.15027 9.87626 1.70578 9.53293 1.37805C9.18959 1.05033 8.72394 0.866211 8.23839 0.866211H4.57688C4.09134 0.866211 3.62568 1.05033 3.28234 1.37805C2.93901 1.70578 2.74613 2.15027 2.74613 2.61375V4.36128H1.83075C1.34521 4.36128 0.879548 4.5454 0.536215 4.87313C0.192882 5.20085 0 5.64535 0 6.10882V10.4777C0 10.9411 0.192882 11.3856 0.536215 11.7134C0.879548 12.0411 1.34521 12.2252 1.83075 12.2252H2.74613V13.099C2.74613 13.5624 2.93901 14.0069 3.28234 14.3347C3.62568 14.6624 4.09134 14.8465 4.57688 14.8465H8.23839C8.72394 14.8465 9.18959 14.6624 9.53293 14.3347C9.87626 14.0069 10.0691 13.5624 10.0691 13.099V12.2252H10.9845C11.4701 12.2252 11.9357 12.0411 12.2791 11.7134C12.6224 11.3856 12.8153 10.9411 12.8153 10.4777V6.10882C12.8153 5.64535 12.6224 5.20085 12.2791 4.87313C11.9357 4.5454 11.4701 4.36128 10.9845 4.36128ZM8.92492 13.23L8.3757 13.7543H4.43958L3.89035 13.23V9.6039H8.92492V13.23ZM8.92492 4.36128H3.89035V2.48268L4.43958 1.95842H8.3757L8.92492 2.48268V4.36128ZM10.9845 7.50685L10.6184 7.85636H9.51992L9.15377 7.50685V6.45833L9.51992 6.10882H10.6184L10.9845 6.45833V7.50685Z" fill="currentColor"/>
</svg>
