<svg width="33" height="32" viewBox="0 0 33 32" fill="#3D3D3D" xmlns="http://www.w3.org/2000/svg">
    <path
        d="M25.442 16.3913L21.442 12.3913C21.192 12.1413 20.8529 12.0007 20.4993 12.0007H19.166V10.6673C19.1659 10.3137 19.0254 9.97464 18.7753 9.72465L14.7753 5.72465C14.5254 5.47459 14.1863 5.33406 13.8327 5.33398H9.83268C9.12544 5.33398 8.44716 5.61494 7.94706 6.11503C7.44697 6.61513 7.16602 7.29341 7.16602 8.00065V17.334C7.16602 18.0412 7.44697 18.7195 7.94706 19.2196C8.44716 19.7197 9.12544 20.0007 9.83268 20.0007H13.8327V24.0007C13.8327 24.7079 14.1136 25.3862 14.6137 25.8863C15.1138 26.3864 15.7921 26.6673 16.4993 26.6673H23.166C23.8733 26.6673 24.5515 26.3864 25.0516 25.8863C25.5517 25.3862 25.8327 24.7079 25.8327 24.0007V17.334C25.8326 16.9804 25.6921 16.6413 25.442 16.3913ZM22.614 17.334H20.4993V15.2193L22.614 17.334ZM15.9473 10.6673H13.8327V8.55265L15.9473 10.6673ZM13.8327 14.6673V17.334H9.83268V8.00065H12.4993V11.334C12.4993 11.5108 12.5696 11.6804 12.6946 11.8054C12.8196 11.9304 12.9892 12.0007 13.166 12.0007H16.4993C15.7921 12.0007 15.1138 12.2816 14.6137 12.7817C14.1136 13.2818 13.8327 13.9601 13.8327 14.6673ZM16.4993 24.0007V14.6673H19.166V18.0007C19.166 18.1775 19.2363 18.347 19.3613 18.4721C19.4863 18.5971 19.6559 18.6673 19.8327 18.6673H23.166V24.0007H16.4993Z" />
</svg>
