<svg xmlns="http://www.w3.org/2000/svg" width="33" height="32" viewBox="0 0 33 32" fill="#3D3D3D"><path d="m25.442 16.391-4-4c-.25-.25-.59-.39-.943-.39h-1.333v-1.334c0-.353-.14-.692-.39-.942l-4-4c-.25-.25-.59-.39-.943-.391h-4a2.667 2.667 0 0 0-2.667 2.667v9.333a2.667 2.667 0 0 0 2.667 2.667h4v4a2.667 2.667 0 0 0 2.666 2.666h6.667a2.666 2.666 0 0 0 2.667-2.666v-6.667c0-.354-.14-.693-.391-.943m-2.828.943h-2.115v-2.115zm-6.667-6.667h-2.114V8.553zm-2.114 4v2.667h-4V8.001h2.666v3.333a.667.667 0 0 0 .667.667h3.333a2.667 2.667 0 0 0-2.666 2.666m2.666 9.334v-9.334h2.667v3.334a.667.667 0 0 0 .667.666h3.333v5.334z"/></svg>
