<svg width="33" height="32" viewBox="0 0 33 32" fill="#3D3D3D" xmlns="http://www.w3.org/2000/svg">
    <path
        d="M15.5573 22.2766C15.8074 22.5266 16.1464 22.667 16.5 22.667C16.8536 22.667 17.1926 22.5266 17.4427 22.2766L24.1093 15.61C24.3522 15.3585 24.4866 15.0217 24.4836 14.6721C24.4805 14.3225 24.3403 13.9881 24.0931 13.7409C23.8459 13.4937 23.5115 13.3535 23.1619 13.3504C22.8123 13.3474 22.4755 13.4818 22.224 13.7247L17.8333 18.1153V6.66732C17.8333 6.3137 17.6929 5.97456 17.4428 5.72451C17.1928 5.47446 16.8536 5.33398 16.5 5.33398C16.1464 5.33398 15.8072 5.47446 15.5572 5.72451C15.3071 5.97456 15.1667 6.3137 15.1667 6.66732V18.1153L10.776 13.7247C10.5245 13.4818 10.1877 13.3474 9.83813 13.3504C9.48854 13.3535 9.15412 13.4937 8.90691 13.7409C8.6597 13.9881 8.51947 14.3225 8.51643 14.6721C8.5134 15.0217 8.64779 15.3585 8.89067 15.61L15.5573 22.2766ZM23.1667 24.0007H9.83333C9.47971 24.0007 9.14057 24.1411 8.89052 24.3912C8.64048 24.6412 8.5 24.9804 8.5 25.334C8.5 25.6876 8.64048 26.0267 8.89052 26.2768C9.14057 26.5268 9.47971 26.6673 9.83333 26.6673H23.1667C23.5203 26.6673 23.8594 26.5268 24.1095 26.2768C24.3595 26.0267 24.5 25.6876 24.5 25.334C24.5 24.9804 24.3595 24.6412 24.1095 24.3912C23.8594 24.1411 23.5203 24.0007 23.1667 24.0007Z" />
</svg>
