<svg viewBox="0 0 18 24" xmlns="http://www.w3.org/2000/svg"><path d="m17.5605 11.5605-7.5 7.5c-.58575.5856-1.53525.5856-2.121 0l-7.5-7.5c-.568458-.5886-.560329-1.5241.018272-2.10273.578598-.5786 1.514158-.58673 2.102728-.01827l4.9395 4.9395v-12.879c0-.828427.67157-1.5 1.5-1.5s1.5.671573 1.5 1.5v12.879l4.9395-4.9395c.5886-.56846 1.5241-.56033 2.1027.01827.5786.57863.5868 1.51413.0183 2.10273zm-17.5605 10.9395c0-.8284.671573-1.5 1.5-1.5h15c.8284 0 1.5.6716 1.5 1.5s-.6716 1.5-1.5 1.5h-15c-.828427 0-1.5-.6716-1.5-1.5z" fill-rule="evenodd"/></svg>
