<svg viewBox="0 0 24 24" xmlns="http://www.w3.org/2000/svg"><path d="m19.5 7.5h1.5c1.6569 0 3 1.34315 3 3v7.5h-4.5v4.5c0 .8284-.6716 1.5-1.5 1.5h-12c-.82843 0-1.5-.6716-1.5-1.5v-4.5h-4.5v-7.5c0-1.65685 1.34315-3 3-3h1.5v-6c0-.828427.67157-1.5 1.5-1.5h12c.8284 0 1.5.671573 1.5 1.5zm-16.5 3.75c0 .4142.33579.75.75.75s.75-.3358.75-.75-.33579-.75-.75-.75-.75.3358-.75.75zm15 11.25h-12v-7.5h12zm-12-15h12v-6h-12zm2.25 10.5h6c.4142 0 .75-.3358.75-.75s-.3358-.75-.75-.75h-6c-.41421 0-.75.3358-.75.75s.33579.75.75.75zm7.5 3h-7.5c-.41421 0-.75-.3358-.75-.75s.33579-.75.75-.75h7.5c.4142 0 .75.3358.75.75s-.3358.75-.75.75z" fill-rule="evenodd"/></svg>
