<svg width="32" height="32" viewBox="0 0 32 32" fill="#3D3D3D" xmlns="http://www.w3.org/2000/svg">
    <path
        d="M10.666 28C9.93268 28 9.3049 27.7389 8.78268 27.2167C8.26046 26.6944 7.99935 26.0667 7.99935 25.3333V22.6667H5.33268C4.59935 22.6667 3.97157 22.4056 3.44935 21.8833C2.92713 21.3611 2.66602 20.7333 2.66602 20V14.6667C2.66602 13.5333 3.0549 12.5833 3.83268 11.8167C4.61046 11.05 5.5549 10.6667 6.66602 10.6667H25.3327C26.466 10.6667 27.416 11.05 28.1827 11.8167C28.9493 12.5833 29.3327 13.5333 29.3327 14.6667V20C29.3327 20.7333 29.0716 21.3611 28.5493 21.8833C28.0271 22.4056 27.3993 22.6667 26.666 22.6667H23.9993V25.3333C23.9993 26.0667 23.7382 26.6944 23.216 27.2167C22.6938 27.7389 22.066 28 21.3327 28H10.666ZM5.33268 20H7.99935C7.99935 19.2667 8.26046 18.6389 8.78268 18.1167C9.3049 17.5944 9.93268 17.3333 10.666 17.3333H21.3327C22.066 17.3333 22.6938 17.5944 23.216 18.1167C23.7382 18.6389 23.9993 19.2667 23.9993 20H26.666V14.6667C26.666 14.2889 26.5382 13.9722 26.2827 13.7167C26.0271 13.4611 25.7105 13.3333 25.3327 13.3333H6.66602C6.28824 13.3333 5.97157 13.4611 5.71602 13.7167C5.46046 13.9722 5.33268 14.2889 5.33268 14.6667V20ZM21.3327 10.6667V6.66667H10.666V10.6667H7.99935V6.66667C7.99935 5.93333 8.26046 5.30556 8.78268 4.78333C9.3049 4.26111 9.93268 4 10.666 4H21.3327C22.066 4 22.6938 4.26111 23.216 4.78333C23.7382 5.30556 23.9993 5.93333 23.9993 6.66667V10.6667H21.3327ZM23.9993 16.6667C24.3771 16.6667 24.6938 16.5389 24.9493 16.2833C25.2049 16.0278 25.3327 15.7111 25.3327 15.3333C25.3327 14.9556 25.2049 14.6389 24.9493 14.3833C24.6938 14.1278 24.3771 14 23.9993 14C23.6216 14 23.3049 14.1278 23.0493 14.3833C22.7938 14.6389 22.666 14.9556 22.666 15.3333C22.666 15.7111 22.7938 16.0278 23.0493 16.2833C23.3049 16.5389 23.6216 16.6667 23.9993 16.6667ZM21.3327 25.3333V20H10.666V25.3333H21.3327Z" />
</svg>
