<svg height="73" viewBox="0 0 73 73" width="73" xmlns="http://www.w3.org/2000/svg" xmlns:xlink="http://www.w3.org/1999/xlink"><linearGradient id="a" x1="93.09281%" x2="68.51334%" y1="52.773438%" y2="119.326007%"><stop offset="0" stop-color="#0a84ff" stop-opacity="0"/><stop offset=".693698182" stop-color="#0a84ff"/><stop offset="1" stop-color="#0a84ff"/><stop offset="1" stop-color="#2484c6" stop-opacity=".004778"/><stop offset="1" stop-color="#2484c6" stop-opacity="0"/></linearGradient><mask id="b" fill="#fff"><path d="m0 0h48v60h-48z" fill="#fff" fill-rule="evenodd"/></mask><g fill="none" fill-rule="evenodd" transform="translate(-5 -1)"><path d="m41.8 73.8c-19.9 0-36-16.1-36-36 0-19.7 15.8-35.6 35.3-36h.3.4c2.8.4 5 2.7 5 5.5s-2.2 5.2-5 5.4c-13.8.1-25 11.3-25 25.1s11.2 25 25 25 25-11.2 25-25h11c0 19.9-16.1 36-36 36z" fill="url(#a)"/><path d="m41.8 73.8c-19.9 0-36-16.1-36-36 0-19.7 15.8-35.6 35.3-36h.3.4c2.8.4 5 2.7 5 5.5s-2.2 5.2-5 5.4c-13.8.1-25 11.3-25 25.1s11.2 25 25 25 25-11.2 25-25h11c0 19.9-16.1 36-36 36z" fill="#0a84ff" mask="url(#b)"/></g></svg>