<svg xmlns="http://www.w3.org/2000/svg" xmlns:xlink="http://www.w3.org/1999/xlink" width="58" height="58" viewBox="0 0 58 58"><defs><linearGradient id="linear-gradient" x1="-3.82" y1="63.66" x2="56.35" y2="-0.64" gradientUnits="userSpaceOnUse"><stop offset="0.26" stop-color="#9059ff"/><stop offset="0.96" stop-color="#00b3f4"/></linearGradient></defs><title>default-profile</title><g id="Layer_2" data-name="Layer 2"><g id="Layer_1-2" data-name="Layer 1"><circle cx="28.8" cy="28.8" r="24.54" style="fill:#fbfbfe"/><path d="M28.8,0A28.8,28.8,0,1,0,57.6,28.8,28.79,28.79,0,0,0,28.8,0Zm0,8.23A12.34,12.34,0,1,1,16.46,20.57,12.33,12.33,0,0,1,28.8,8.23ZM45.73,40.34a20.39,20.39,0,0,1-33.86,0,4.15,4.15,0,0,1,.28-5.05C16.5,30.27,22.53,37,28.8,37s12.3-6.76,16.65-1.74A4.15,4.15,0,0,1,45.73,40.34Z" style="fill:url(#linear-gradient)"/></g></g></svg>