<svg viewBox="0 0 64 64" fill="none" xmlns="http://www.w3.org/2000/svg"><path fill-rule="evenodd" clip-rule="evenodd" d="M50.807 44.827c-4.1 6.035-10.958 10.03-18.807 10.03-7.85 0-14.71-3.995-18.811-10.03-1.175-1.728-1.061-4.032.31-5.613 4.832-5.577 11.539 1.929 18.501 1.929 6.962 0 13.664-7.506 18.5-1.93 1.367 1.582 1.482 3.886.307 5.614zM32 9.143c7.57 0 13.714 6.14 13.714 13.714 0 7.58-6.144 13.714-13.714 13.714-7.575 0-13.714-6.134-13.714-13.714 0-7.575 6.14-13.714 13.714-13.714zM32 0C14.327 0 0 14.327 0 32c0 17.678 14.327 32 32 32 17.673 0 32-14.322 32-32C64 14.327 49.673 0 32 0z" fill="url(#paint0_linear)"/><defs><linearGradient id="paint0_linear" x1="32" y1="96" x2="96" y2="32" gradientUnits="userSpaceOnUse"><stop stop-color="#0090ED"/><stop offset=".356" stop-color="#5B6DF8"/><stop offset=".636" stop-color="#9059FF"/><stop offset="1" stop-color="#B833E1"/></linearGradient></defs></svg>