<svg xmlns="http://www.w3.org/2000/svg" viewBox="0 0 135 40" width="135" height="40"><defs><linearGradient id="a" x1="31.8" y1="896.71" x2="15.02" y2="913.49" gradientTransform="translate(-10 -888)" gradientUnits="userSpaceOnUse"><stop offset="0" stop-color="#00a0ff"/><stop offset=".01" stop-color="#00a1ff"/><stop offset=".26" stop-color="#00beff"/><stop offset=".51" stop-color="#00d2ff"/><stop offset=".76" stop-color="#00dfff"/><stop offset="1" stop-color="#00e3ff"/></linearGradient><linearGradient id="b" x1="43.83" y1="908" x2="19.64" y2="908" gradientTransform="translate(-10 -888)" gradientUnits="userSpaceOnUse"><stop offset="0" stop-color="#ffe000"/><stop offset=".41" stop-color="#ffbd00"/><stop offset=".78" stop-color="orange"/><stop offset="1" stop-color="#ff9c00"/></linearGradient><linearGradient id="c" x1="34.82" y1="910.29" x2="12.06" y2="933.04" gradientTransform="translate(-10 -888)" gradientUnits="userSpaceOnUse"><stop offset="0" stop-color="#ff3a44"/><stop offset="1" stop-color="#c31162"/></linearGradient><linearGradient id="d" x1="17.3" y1="888.18" x2="27.46" y2="898.34" gradientTransform="translate(-10 -888)" gradientUnits="userSpaceOnUse"><stop offset="0" stop-color="#32a071"/><stop offset=".07" stop-color="#2da771"/><stop offset=".48" stop-color="#15cf74"/><stop offset=".8" stop-color="#06e775"/><stop offset="1" stop-color="#00f076"/></linearGradient></defs><rect width="135" height="40" rx="5"/><path d="M130 .8a4.2 4.2 0 0 1 4.2 4.2v30a4.2 4.2 0 0 1-4.2 4.2H5A4.2 4.2 0 0 1 .8 35V5A4.2 4.2 0 0 1 5 .8h125m0-.8H5a5 5 0 0 0-5 5v30a5 5 0 0 0 5 5h125a5 5 0 0 0 5-5V5a5 5 0 0 0-5-5Z" style="fill:#a6a6a6"/><path d="M68.14 21.75A4.26 4.26 0 1 0 72.41 26a4.19 4.19 0 0 0-4.13-4.25Zm0 6.83a2.58 2.58 0 1 1 2.39-2.75.91.91 0 0 1 0 .17 2.46 2.46 0 0 1-2.34 2.58Zm-9.32-6.83A4.26 4.26 0 1 0 63.09 26 4.19 4.19 0 0 0 59 21.75Zm0 6.83a2.58 2.58 0 1 1 2.39-2.75.91.91 0 0 1 0 .17 2.46 2.46 0 0 1-2.34 2.58Zm-11.08-5.52v1.8h4.32a3.77 3.77 0 0 1-1 2.27 4.45 4.45 0 0 1-3.34 1.32 4.8 4.8 0 1 1 0-9.6A4.65 4.65 0 0 1 51 20.14l1.27-1.27a6.29 6.29 0 0 0-4.53-1.82 6.61 6.61 0 0 0-.51 13.21h.51a5.84 5.84 0 0 0 6.17-6.08 7 7 0 0 0-.09-1.12Zm45.31 1.4a3.92 3.92 0 0 0-7.65 1.28 2.26 2.26 0 0 0 0 .26 4.23 4.23 0 0 0 7.76 2.37l-1.45-1a2.42 2.42 0 0 1-2.09 1.17 2.14 2.14 0 0 1-2.06-1.29l5.69-2.35Zm-5.8 1.42a2.35 2.35 0 0 1 2.18-2.49 1.64 1.64 0 0 1 1.57.91ZM82.63 30h1.87V17.5h-1.87Zm-3.06-7.3h-.07a3 3 0 0 0-2.24-1 4.26 4.26 0 0 0 0 8.51 2.87 2.87 0 0 0 2.24-1h.07v.61c0 1.63-.87 2.5-2.27 2.5a2.35 2.35 0 0 1-2.15-1.51l-1.62.67A4 4 0 0 0 77.3 34c2.19 0 4-1.29 4-4.43V22h-1.73Zm-2.15 5.88a2.58 2.58 0 0 1 0-5.15 2.38 2.38 0 0 1 2.28 2.49V26a2.38 2.38 0 0 1-2.17 2.57Zm24.39-11.08h-4.48V30h1.87v-4.74h2.61a3.89 3.89 0 1 0 .56-7.76 5.23 5.23 0 0 0-.56 0Zm0 6H99.2v-4.26h2.65a2.14 2.14 0 0 1 0 4.28Zm11.54-1.79a3.49 3.49 0 0 0-3.35 1.91l1.65.69a2.06 2.06 0 0 1 3.71.67v.15a4.14 4.14 0 0 0-1.95-.48c-1.78 0-3.6 1-3.6 2.82a2.89 2.89 0 0 0 3 2.76h.09a2.64 2.64 0 0 0 2.42-1.23h.06v1h1.8v-4.81c0-2.19-1.66-3.46-3.79-3.46Zm-.23 6.85c-.61 0-1.46-.31-1.46-1.06 0-1 1.06-1.34 2-1.34a3.38 3.38 0 0 1 1.7.42 2.26 2.26 0 0 1-2.2 2ZM123.74 22l-2.14 5.42h-.06L119.32 22h-2l3.33 7.58-1.9 4.21h2L125.82 22Zm-16.8 8h1.86V17.5h-1.86Z" style="fill:#fff"/><path d="M10.44 7.54a2 2 0 0 0-.44 1.4v22.12a1.94 1.94 0 0 0 .47 1.4l.07.08L22.9 20.15v-.3L10.51 7.47Z" style="fill:url(#a)"/><path d="m27 24.28-4.1-4.13v-.3l4.1-4.13.09.06L32 18.56c1.4.79 1.4 2.09 0 2.89l-4.89 2.78Z" style="fill:url(#b)"/><path d="M27.12 24.22 22.9 20 10.44 32.46a1.62 1.62 0 0 0 2.07.07l14.61-8.31" style="fill:url(#c)"/><path d="m27.12 15.78-14.61-8.3a1.6 1.6 0 0 0-2.07.06L22.9 20Z" style="fill:url(#d)"/><path d="m27 24.13-14.49 8.25a1.65 1.65 0 0 1-2 0l-.07.07.07.08a1.65 1.65 0 0 0 2 0l14.61-8.31Z" style="isolation:isolate;opacity:.20000000298023224"/><path d="M10.44 32.32a2 2 0 0 1-.44-1.41v.15a1.94 1.94 0 0 0 .47 1.4l.07-.07ZM32 21.3l-5 2.83.09.09L32 21.44A1.74 1.74 0 0 0 33.06 20 1.86 1.86 0 0 1 32 21.3Z" style="isolation:isolate;opacity:.11999999731779099"/><path d="M12.51 7.62 32 18.7a1.86 1.86 0 0 1 1.06 1.3A1.74 1.74 0 0 0 32 18.56L12.51 7.48C11.12 6.68 10 7.34 10 8.94v.15c0-1.6 1.12-2.26 2.51-1.47Z" style="fill:#fff;isolation:isolate;opacity:.25"/><path d="M44.69 7.56v1.3l.09-.11a17.16 17.16 0 0 1 2.59 1.51l-.38.49a16.24 16.24 0 0 0-2.3-1.46v3.84h-.58V7.56h-2.78V7h6.44v.54ZM54.78 9.08a10 10 0 0 1-1.1 2.5c.2.62.47 1 .79 1s.25-.31.3-1.16a1.17 1.17 0 0 0 .42.27c-.09 1.09-.26 1.42-.77 1.42s-.83-.37-1.1-1a5.64 5.64 0 0 1-1 1.07 2.22 2.22 0 0 0-.38-.37 5.12 5.12 0 0 0 1.23-1.27 13.82 13.82 0 0 1-.42-3h-4.14v-.43h1.76v-.62H49v-.44h1.39v-.58h.52v.58h1.28v.44h-1.3v.62h1.78V6.48h.53v1.63h1.9v.43h-1.89a17 17 0 0 0 .29 2.35 8.86 8.86 0 0 0 .79-2ZM52.46 12l-1.32.14v1h-.51v-.94l-1.89.2-.06-.5 2-.16V11h-1a1.05 1.05 0 0 0-.58.1 3 3 0 0 0-.17-.5c.11 0 .22-.17.34-.36a5.18 5.18 0 0 0 .27-.53h-.82v-.44h1c.1-.23.19-.47.27-.71l.53.15c-.07.18-.15.37-.24.56h2.15v.44h-2.34a8.28 8.28 0 0 1-.47.82h1V10h.51v.59h1.15V11h-1.14v.67l1.32-.12Zm2-4.18a5.28 5.28 0 0 0-.88-1l.42-.2a4.32 4.32 0 0 1 .89.92ZM57.13 7.93V9.4a8.7 8.7 0 0 1-.69 3.8 2 2 0 0 0-.46-.3 7.76 7.76 0 0 0 .61-3.5v-2h2.89a6.53 6.53 0 0 0-.39-.85l.53-.13a7 7 0 0 1 .47 1h2.44v.52Zm5.49 4.35v.52h-5.4v-.52h2.88a13.27 13.27 0 0 0 1.54-3.85l.57.21a16.68 16.68 0 0 1-1.55 3.64Zm-4.22-.78a19.62 19.62 0 0 0-.79-2.5l.47-.19a19.36 19.36 0 0 1 .83 2.47Zm1.39-.4a21.48 21.48 0 0 0-.6-2.49l.49-.13a18.57 18.57 0 0 1 .63 2.52ZM69.71 12.41c0 .35-.1.51-.33.6a4.57 4.57 0 0 1-1.38.09 2.28 2.28 0 0 0-.18-.52H69c.14 0 .2-.05.2-.19v-1.47h-2v2.15h-.54v-2.15h-1.81a4.17 4.17 0 0 1-.91 2.26 1.82 1.82 0 0 0-.42-.36 4.63 4.63 0 0 0 .88-3.2V7h5.31Zm-3-2V9.19h-1.78v1.21ZM65 7.52v1.17h1.74V7.51Zm4.25 0h-2v1.17h2Zm0 2.89V9.19h-2v1.21ZM71.25 13a1.29 1.29 0 0 0 .92-1.07H72a.49.49 0 0 1-.54-.44v-.08a.51.51 0 0 1 .5-.52H72c.4 0 .62.33.62.84a1.73 1.73 0 0 1-1.26 1.65ZM78 11.31a2.62 2.62 0 0 0 .19.46A11.73 11.73 0 0 0 76.7 13a2.18 2.18 0 0 0-.28-.46.73.73 0 0 0 .34-.62V9.28h-1.09v-.52h1.62v3.11Zm-.8-3.21a9.91 9.91 0 0 0-1-1.1l.35-.32a9.27 9.27 0 0 1 1.1 1.07Zm5.08.73v.42h-4.36v-.42h1.9v-.51h-1.51v-.39h1.51v-.46h-1.68v-.42h1.68v-.56h.53v.56h1.75v.42h-1.75v.46h1.53v.39h-1.53v.51Zm-.57 3.7c0 .28-.06.42-.25.5a3.06 3.06 0 0 1-1 .08 2.6 2.6 0 0 0-.16-.47h.81c.11 0 .13 0 .13-.12V12H79v1.13h-.51V9.67h3.3ZM79 10.09v.56h2.27v-.56Zm2.27 1.53V11H79v.59ZM87 11.9v.49l-3.75.53-.08-.54 1.68-.21V10.9h-1.36v-.5h1.39v-.87h.53v.87h1.37v.5h-1.37v1.21Zm-1-4.08a8.87 8.87 0 0 1 1.15 1.63l-.42.25-.25-.45c-1.15.08-2.32.14-3.15.19v-.52H84a12.64 12.64 0 0 0 .54-1.45h-1.26V7H87v.48h-1.93c-.18.46-.39 1-.6 1.43l1.68-.07a8.34 8.34 0 0 0-.58-.75Zm1.85 3.55h-.52v-4h.52Zm1.72-4.69v5.73c0 .37-.09.54-.33.63a4.45 4.45 0 0 1-1.26.1 2.81 2.81 0 0 0-.18-.56h1.07c.14 0 .17 0 .17-.18V6.68Z" style="fill:#fff;stroke:#fff;stroke-miterlimit:10;stroke-width:.20000000298023224px"/></svg>
