<svg width="24" height="24" xmlns="http://www.w3.org/2000/svg"><path d="M10.694 1.311L7.797 4.278s-1.114.842-1.789-.02c-.987-1.282.801-2.036-.707-3.632-1.162-1.212-3.23-.322-4.205.685-1.001 1-1.535 3.035-.487 4.145.754.781 1.535.63 2.149.548.267-.027.48-.068.64-.034.535.096.935.425.968 1.027.047.59-.36 1.096-.36 1.096S.428 11.457.362 12.06a1.1 1.1 0 00.353.911l2.27 2.44s1.155.547 1.855-.097c1.135-1.041-.333-2.26.828-3.494.881-.931 2.683-.52 3.858.665 1.148 1.15 1.749 2.994.667 4.083-.587.59-1.321.534-1.982.48-.567-.042-1.081-.083-1.422.26-.667.685-.22 1.623-.22 1.623s4.005 4.248 4.325 4.556c.314.315.534.548 1.148.548.614 0 .835-.233 1.155-.548.314-.301 4.318-4.549 4.318-4.549s.468-.938-.213-1.616c-.334-.343-.854-.302-1.415-.254-.668.048-1.402.103-1.99-.48-1.08-1.096-.466-2.945.668-4.096 1.175-1.192 2.977-1.603 3.858-.685 1.168 1.246-.307 2.466.821 3.507.701.651 1.85.096 1.85.096l2.269-2.439s.4-.322.353-.918c-.053-.596-3.637-3.973-3.637-3.973s-.414-.5-.374-1.096c.033-.596.434-.925.968-1.028.153-.02.373.014.634.048.62.069 1.401.226 2.149-.548 1.068-1.124.52-3.151-.467-4.152-1.001-1-3.07-1.897-4.205-.685-1.522 1.603.267 2.357-.721 3.631-.668.863-1.789.02-1.789.02l-2.897-2.966c-.267-.28-.734-.829-1.335-.829-.6 0-1.068.548-1.348.836z" fill="#333" fill-rule="evenodd" stroke-width=".068"/></svg>