<svg xmlns="http://www.w3.org/2000/svg" width="24" height="24" viewBox="0 0 80 80"><path d="M39.994 80a14.559 14.559 0 01-9.507-3.395A279.9 279.9 0 013.418 49.528a15.021 15.021 0 01-.018-19.04A279.767 279.767 0 0130.471 3.419a15.023 15.023 0 0119.042-.014A280.029 280.029 0 0176.578 30.5a15.023 15.023 0 01.014 19.041c-.873 1-1.954 2.152-3 3.266-.568.6-1.12 1.194-1.6 1.718a4.16 4.16 0 01-5.621.577 4 4 0 01-.439-5.8c.537-.589 1.172-1.265 1.827-1.964 1-1.062 2.028-2.162 2.793-3.037a7.042 7.042 0 00-.015-8.551 271.95 271.95 0 00-26.269-26.3 7.041 7.041 0 00-8.552.014A271.79 271.79 0 009.445 35.732a7.042 7.042 0 00.014 8.552 271.813 271.813 0 0026.273 26.283 7.044 7.044 0 008.552-.014c3.721-3.248 6.77-5.937 10.085-9.128L44.005 50.354A6.91 6.91 0 0142 45.305a7.114 7.114 0 012.447-5.153C46.671 38.214 48 35.915 48 34a8 8 0 00-15.963-.8c-.295 3.154 2.681 6.07 3.6 6.888a7 7 0 01.182 10.312l-3.776 4.2a4.061 4.061 0 01-5.043.869 4 4 0 01-.976-6.144l2.923-3.248a1 1 0 00-.034-1.366c-3.485-3.679-5.236-8.06-4.843-12.252A16 16 0 0156 34a15.986 15.986 0 01-4.878 10.832 1.007 1.007 0 00-.026 1.391l11.032 11.783a5 5 0 01-.033 7.053C57.756 69.37 54 72.694 49.529 76.594A14.606 14.606 0 0139.994 80zm16.5-16.319z" fill="#20123a"/></svg>