<svg width="23" height="24" fill="none" xmlns="http://www.w3.org/2000/svg"><path fill-rule="evenodd" clip-rule="evenodd" d="M11.039 8.758c1.89 0 3.428 1.527 3.428 3.4 0 1.874-1.537 3.399-3.428 3.399-1.89 0-3.428-1.525-3.428-3.399 0-1.873 1.537-3.4 3.428-3.4zm9.45-3.835L12.793.517l-.167-.095a3.198 3.198 0 00-3.176 0L1.757 4.827l-.167.096A3.162 3.162 0 000 7.658v9.001c0 1.126.61 2.173 1.59 2.735l7.694 4.404a1.534 1.534 0 002.082-.553c.201-.352.258-.76.154-1.152a1.506 1.506 0 00-.714-.924l-7.523-4.308a.456.456 0 01-.23-.394V7.85c0-.164.088-.312.23-.394l7.524-4.31a.471.471 0 01.464.001l7.524 4.309c.142.082.23.231.23.394v8.617c0 .16-.088.314-.23.394l-2.265 1.296-.943-1.42a6.43 6.43 0 001.933-4.579c0-3.546-2.906-6.43-6.481-6.43-3.575 0-6.481 2.884-6.481 6.43 0 3.545 2.906 6.43 6.481 6.43.658 0 1.307-.097 1.929-.289l1.807 2.724a1.488 1.488 0 00.315.339l.056.045c.069.052.145.098.225.134l.038.02a1.7 1.7 0 00.254.092c.08.02.162.032.254.041l.13.008c.034 0 .068-.001.14-.008l.064-.008c.087-.01.172-.03.237-.05a1.916 1.916 0 00.27-.11l3.73-2.132a3.162 3.162 0 001.59-2.735V7.658c0-1.126-.61-2.174-1.59-2.735z" fill="#20123A"/></svg>