<svg width="24" height="21" fill="none" xmlns="http://www.w3.org/2000/svg"><path fill-rule="evenodd" clip-rule="evenodd" d="M12 21C5.373 21 0 15.627 0 9V3a3 3 0 013-3h18a3 3 0 013 3v6c0 6.627-5.373 12-12 12zm5.977-15.048a1.485 1.485 0 00-1.087.479l-4.923 4.924-4.835-4.851A1.476 1.476 0 006 5.952a1.5 1.5 0 00-1.071 2.55l-.024.016 4.94 4.96 1.06 1.06a1.5 1.5 0 002.121 0l1.06-1.06 4.964-4.96a1.5 1.5 0 00-1.073-2.566z" fill="#20123A"/><mask id="a" maskUnits="userSpaceOnUse" x="0" y="0" width="24" height="21"><path fill-rule="evenodd" clip-rule="evenodd" d="M12 21C5.373 21 0 15.627 0 9V3a3 3 0 013-3h18a3 3 0 013 3v6c0 6.627-5.373 12-12 12zm5.977-15.048a1.485 1.485 0 00-1.087.479l-4.923 4.924-4.835-4.851A1.476 1.476 0 006 5.952a1.5 1.5 0 00-1.071 2.55l-.024.016 4.94 4.96 1.06 1.06a1.5 1.5 0 002.121 0l1.06-1.06 4.964-4.96a1.5 1.5 0 00-1.073-2.566z" fill="#fff"/></mask></svg>