<svg xmlns="http://www.w3.org/2000/svg" width="24" height="24"><path d="M4.512 3.09c-.016.035-.032 4.758-.04 10.492L4.462 24h2.973l-.016-8.969c-.008-8.117-.004-8.98.074-9.05.074-.075.606-.086 5.211-.086 4.598 0 5.14.011 5.215.085.07.07.082.684.082 5.97 0 5.284-.012 5.894-.082 5.968-.074.07-.48.082-3.73.082-2.876 0-3.66.016-3.676.063-.016.035-.032 1.386-.035 3.003L10.46 24h2.973l-.016-1.445c-.004-.875.012-1.48.043-1.528.043-.07.539-.086 3.742-.105l3.692-.027V3.05l-8.18-.016c-6.516-.008-8.188 0-8.203.055zm0 0"/><path d="M10.512 9.09c-.016.035-.02 1.355-.016 2.937l.016 2.868h4.383V9.05l-2.18-.016c-1.715-.008-2.188 0-2.203.055zm0 0"/></svg>