<svg width="22" height="24" fill="none" xmlns="http://www.w3.org/2000/svg"><g clip-path="url(#clip0_434_5350)"><path fill-rule="evenodd" clip-rule="evenodd" d="M11.602.252l8.58 4.894c.318.17.582.425.764.739.181.313.273.671.264 1.034v9.756a2.062 2.062 0 01-.277 1.027c-.18.312-.44.57-.75.747l-8.581 4.863c-.303.18-.646.274-.997.275a1.883 1.883 0 01-.997-.275l-8.58-4.863a1.994 1.994 0 01-.756-.744A2.025 2.025 0 010 16.675V6.92c.001-.36.097-.715.277-1.027.18-.311.44-.569.75-.746L9.638.252a2.038 2.038 0 011.964 0zM3.837 14.377l.514-.306a.77.77 0 011.088.337.809.809 0 01-.302 1.1l-.514.307a.921.921 0 01-.393.091.794.794 0 01-.695-.428.807.807 0 01.302-1.1zm2.599-1.498l1.057-.612a.77.77 0 011.088.336.809.809 0 01-.302 1.101l-1.058.612a.923.923 0 01-.392.092.793.793 0 01-.695-.428.809.809 0 01.302-1.101zm5.143-2.335c.072.063.132.14.174.227.109.217.13.468.06.7a.823.823 0 01-.204.931.71.71 0 01-.248.14v6.208a.83.83 0 01-.24.584.81.81 0 01-1.153 0 .83.83 0 01-.239-.584v-6.177a.71.71 0 01-.423-.367.821.821 0 01-.03-.704.823.823 0 01.205-.93.711.711 0 01.248-.14V4.254a.807.807 0 01.22-.58.787.787 0 01.878-.183.813.813 0 01.442.447c.04.1.062.208.061.316v6.15c.091.03.176.077.249.14zm1.174-1.274l1.058-.612a.77.77 0 011.088.337.807.807 0 01-.303 1.1l-1.057.612a.921.921 0 01-.393.092.794.794 0 01-.695-.428.807.807 0 01.302-1.101zm3.955-.398a.922.922 0 01-.392.092.766.766 0 01-.695-.398.807.807 0 01.302-1.1l.513-.306a.792.792 0 011.091.304.815.815 0 01-.305 1.102l-.514.306zm0 5.2l.514.305a.749.749 0 01.383.468.765.765 0 01-.081.602.807.807 0 01-.695.429.922.922 0 01-.393-.092l-.513-.306a.817.817 0 01-.299-1.1.79.79 0 011.084-.308zm-3.172-1.805l1.057.612a.74.74 0 01.387.467.758.758 0 01-.085.603.807.807 0 01-.694.428.921.921 0 01-.393-.092l-1.058-.611a.8.8 0 01-.379-.487.816.816 0 01.278-.856.794.794 0 01.887-.064zm-6.043-1.59l-1.057-.612a.866.866 0 01-.302-1.132.799.799 0 01.48-.383.783.783 0 01.607.078l1.058.611a.794.794 0 01.379.487.81.81 0 01-.077.614.807.807 0 01-.695.428.921.921 0 01-.393-.091zM4.623 7.16l.514.305a.767.767 0 01.375.47.783.783 0 01-.073.6.807.807 0 01-.695.429.921.921 0 01-.393-.092l-.514-.306a.8.8 0 01-.379-.487.818.818 0 01.278-.855.795.795 0 01.887-.064z" fill="#000"/></g><defs><clipPath id="clip0_434_5350"><path fill="#fff" d="M0 0h21.257v24H0z"/></clipPath></defs></svg>