<svg width="24" height="24" fill="none" xmlns="http://www.w3.org/2000/svg"><path fill-rule="evenodd" clip-rule="evenodd" d="M17 6a1 1 0 112 0v4a1 1 0 01-1 1h-4a1 1 0 110-2h1.967A4.919 4.919 0 0012 7a4.983 4.983 0 00-4.833 3.792 1 1 0 01-1.94-.485A6.948 6.948 0 0117 7.147V6zm-.167 7.208a1 1 0 111.94.485A6.948 6.948 0 017 16.854V18a1 1 0 11-2 0v-4a1 1 0 011-1h4a1 1 0 010 2H8.033A4.919 4.919 0 0012 17a4.983 4.983 0 004.833-3.792z" fill="#20123A"/><mask id="a" maskUnits="userSpaceOnUse" x="5" y="5" width="14" height="15"><path fill-rule="evenodd" clip-rule="evenodd" d="M17 6a1 1 0 112 0v4a1 1 0 01-1 1h-4a1 1 0 110-2h1.967A4.919 4.919 0 0012 7a4.983 4.983 0 00-4.833 3.792 1 1 0 01-1.94-.485A6.948 6.948 0 0117 7.147V6zm-.167 7.208a1 1 0 111.94.485A6.948 6.948 0 017 16.854V18a1 1 0 11-2 0v-4a1 1 0 011-1h4a1 1 0 010 2H8.033A4.919 4.919 0 0012 17a4.983 4.983 0 004.833-3.792z" fill="#fff"/></mask></svg>