<svg width="24" height="24" fill="none" xmlns="http://www.w3.org/2000/svg"><path fill-rule="evenodd" clip-rule="evenodd" d="M0 12C0 5.373 5.373 0 12 0c6.624.007 11.993 5.376 12 12 0 6.627-5.373 12-12 12S0 18.627 0 12zm17.416-4.563h2.328a9.045 9.045 0 00-3.904-3.564 11.549 11.549 0 011.576 3.564zM21 12a8.945 8.945 0 01-.503 2.937h-2.731a18.495 18.495 0 000-5.874h2.732c.33.944.5 1.937.502 2.937zM8.15 16.563C8.944 19.2 10.386 21 12 21s3.056-1.8 3.852-4.437H8.149zm-.389-1.626a16.626 16.626 0 010-5.874h8.477a16.671 16.671 0 01.001 5.874H7.761zM3.503 9.063C3.172 10.007 3.003 11 3 12c.002 1 .172 1.993.502 2.937h2.732a18.542 18.542 0 010-5.874H3.502zM12 3c1.613 0 3.056 1.8 3.85 4.437h-7.7C8.944 4.8 10.386 3 12 3zM6.583 7.437A11.55 11.55 0 018.16 3.873a9.045 9.045 0 00-3.905 3.564h2.329zM4.26 16.563h2.324a11.55 11.55 0 001.576 3.564 9.045 9.045 0 01-3.905-3.564h.005zm11.587 3.56l-.002.004h-.005l.007-.003zm0 0a9.046 9.046 0 003.902-3.56h-2.328a11.55 11.55 0 01-1.574 3.56z" fill="#20123A"/></svg>