<svg xmlns="http://www.w3.org/2000/svg" class="ff-branding-bg" viewBox="0 0 1280 800"><defs><linearGradient id="a" x2="1" gradientTransform="rotate(35.857 -387.13 1375.752) scale(357.578)" gradientUnits="userSpaceOnUse"><stop offset="0" stop-color="#e31587"/><stop offset="1" stop-color="#fc4055"/></linearGradient><linearGradient id="b" x2="1" gradientTransform="matrix(-492.5 139 -139 -492.5 139 -833)" gradientUnits="userSpaceOnUse"><stop offset="0" stop-color="#e31587"/><stop offset="1" stop-color="#20123a"/></linearGradient><linearGradient id="c" x2="1" gradientTransform="rotate(14.56 1327.639 1019.81) scale(878.026)" gradientUnits="userSpaceOnUse"><stop offset="0" stop-color="#ff9640"/><stop offset="1" stop-color="#fc4055"/></linearGradient></defs><path fill="url(#a)" d="M-389.626-235.688c-197.308-56.091-403.724 59.111-461.043 257.311-57.319 198.2 56.165 404.344 253.473 460.435l1544.02 438.939c197.312 56.091 403.722-59.111 461.042-257.311 57.32-198.2-56.16-404.344-253.47-460.435l-1544.03-438.939z"/><path fill="url(#b)" d="M-1180.35 894.845c-205.11 11.481-363.23 187.645-353.18 393.485 10.06 205.83 184.48 363.39 389.59 351.91 914.275-51.18 1619.1-836.469 1574.28-1754.01-44.824-917.504-822.335-1619.81-1736.6-1568.63-205.11 11.48-363.23 187.65-353.18 393.48 10.06 205.84 184.48 363.394 389.59 351.913C-765.801-965.22-337.141-578.02-312.429-72.19c24.714 505.871-363.873 938.821-867.921 967.035z"/><path fill="url(#c)" d="M2333-1358.76c108.35-174.91 337.3-227.77 511.36-118.06 174.07 109.72 227.34 340.45 118.98 515.362l-959.31 1548.59c-108.36 174.911-337.3 227.769-511.37 118.062L-48.47-266.12c-174.067-109.708-227.34-340.44-118.988-515.355 108.351-174.915 337.297-227.772 511.364-118.067l1225.96 772.674 763.13-1231.89z"/></svg>
