<?xml version="1.0" standalone="no"?>
<!DOCTYPE svg PUBLIC "-//W3C//DTD SVG 20010904//EN"
 "http://www.w3.org/TR/2001/REC-SVG-20010904/DTD/svg10.dtd">
<svg version="1.0" xmlns="http://www.w3.org/2000/svg"
 width="150.000000pt" height="150.000000pt" viewBox="0 0 150.000000 150.000000"
 preserveAspectRatio="xMidYMid meet">

<g transform="translate(0.000000,150.000000) scale(0.100000,-0.100000)"
fill="#000000" stroke="none">
<path d="M282 1488 c-7 -7 -12 -29 -12 -50 l0 -38 -63 0 c-36 0 -68 -5 -75
-12 -17 -17 -17 -1359 0 -1376 17 -17 1069 -17 1086 0 7 7 12 39 12 75 l0 63
63 0 c36 0 68 5 75 12 9 9 12 132 12 492 l0 480 -183 183 -183 183 -360 0
c-267 0 -363 -3 -372 -12z m688 -201 c0 -113 4 -167 12 -175 8 -8 62 -12 175
-12 l163 0 0 -450 0 -450 -495 0 -495 0 0 625 0 625 320 0 320 0 0 -163z m190
-12 l125 -125 -128 0 -127 0 0 125 c0 69 1 125 3 125 1 0 58 -56 127 -125z
m-890 -513 c0 -444 3 -591 12 -600 9 -9 123 -12 450 -12 l438 0 0 -50 0 -50
-495 0 -495 0 0 650 0 650 45 0 45 0 0 -588z"/>
<path d="M426 1254 c-3 -9 -6 -46 -6 -84 0 -91 9 -100 105 -100 96 0 105 9
105 100 0 103 3 100 -105 100 -75 0 -94 -3 -99 -16z m144 -84 l0 -50 -45 0
-45 0 0 50 0 50 45 0 45 0 0 -50z"/>
<path d="M593 1023 c-18 -7 -16 -40 3 -47 20 -8 588 -8 608 0 21 8 21 40 0 48
-19 7 -593 7 -611 -1z"/>
<path d="M430 1000 c0 -12 9 -22 24 -26 35 -8 66 4 66 27 0 16 -7 19 -45 19
-38 0 -45 -3 -45 -20z"/>
<path d="M593 873 c-18 -7 -16 -40 3 -47 20 -8 588 -8 608 0 21 8 21 40 0 48
-19 7 -593 7 -611 -1z"/>
<path d="M430 850 c0 -12 9 -22 24 -26 35 -8 66 4 66 27 0 16 -7 19 -45 19
-38 0 -45 -3 -45 -20z"/>
<path d="M593 723 c-18 -7 -16 -40 3 -47 20 -8 588 -8 608 0 21 8 21 40 0 48
-19 7 -593 7 -611 -1z"/>
<path d="M430 700 c0 -12 9 -22 24 -26 35 -8 66 4 66 27 0 16 -7 19 -45 19
-38 0 -45 -3 -45 -20z"/>
<path d="M593 573 c-18 -7 -16 -40 3 -47 20 -8 588 -8 608 0 21 8 21 40 0 48
-19 7 -593 7 -611 -1z"/>
<path d="M430 550 c0 -12 9 -22 24 -26 35 -8 66 4 66 27 0 16 -7 19 -45 19
-38 0 -45 -3 -45 -20z"/>
<path d="M593 423 c-18 -7 -16 -40 3 -47 20 -8 588 -8 608 0 21 8 21 40 0 48
-19 7 -593 7 -611 -1z"/>
<path d="M430 400 c0 -12 9 -22 24 -26 35 -8 66 4 66 27 0 16 -7 19 -45 19
-38 0 -45 -3 -45 -20z"/>
</g>
</svg>
