<?xml version="1.0" standalone="no"?>
<!DOCTYPE svg PUBLIC "-//W3C//DTD SVG 20010904//EN"
 "http://www.w3.org/TR/2001/REC-SVG-20010904/DTD/svg10.dtd">
<svg version="1.0" xmlns="http://www.w3.org/2000/svg"
 width="200.000000pt" height="200.000000pt" viewBox="0 0 200.000000 200.000000"
 preserveAspectRatio="xMidYMid meet">

<g transform="translate(0.000000,200.000000) scale(0.100000,-0.100000)"
fill="#000000" stroke="none">
<path d="M232 1789 c-46 -14 -109 -80 -122 -128 -7 -28 -10 -216 -8 -584 l3
-543 27 -41 c15 -22 44 -51 65 -64 l38 -24 766 0 765 0 41 27 c22 15 51 44 64
65 l24 38 0 565 0 565 -24 38 c-13 21 -42 50 -64 65 l-41 27 -750 2 c-456 1
-764 -2 -784 -8z m1535 -122 l28 -27 0 -550 c0 -514 -1 -550 -18 -567 -17 -17
-61 -18 -767 -18 l-750 0 -27 28 -28 27 0 539 c0 525 1 539 20 561 11 12 29
26 40 31 11 4 347 7 747 6 l728 -2 27 -28z"/>
<path d="M1197 1462 c-10 -10 -17 -22 -17 -26 0 -17 -203 -526 -210 -526 -4 0
-42 84 -85 186 -113 268 -130 274 -230 73 l-65 -129 -129 0 c-137 0 -161 -7
-161 -50 0 -44 22 -50 183 -50 84 0 157 4 163 8 6 4 33 49 59 101 32 64 49 90
55 81 4 -7 46 -103 92 -212 68 -162 87 -200 105 -205 31 -7 51 2 63 29 5 13
50 129 100 258 50 129 95 239 99 243 4 4 25 -54 45 -130 21 -76 45 -146 54
-155 13 -16 36 -18 183 -18 178 0 199 5 199 50 0 43 -24 50 -160 50 l-129 0
-16 53 c-8 28 -35 122 -59 207 -28 96 -51 159 -62 167 -25 18 -58 16 -77 -5z"/>
<path d="M816 344 c-9 -8 -16 -22 -16 -30 0 -11 -25 -14 -134 -14 -109 0 -138
-3 -150 -16 -20 -20 -20 -48 0 -68 14 -14 71 -16 484 -16 413 0 470 2 484 16
9 8 16 24 16 34 0 43 -24 50 -166 50 -109 0 -134 3 -134 14 0 8 -7 22 -16 30
-23 24 -345 24 -368 0z"/>
</g>
</svg>
