<svg xmlns="http://www.w3.org/2000/svg" viewBox="0 0 459 459"><path d="M356.766 147.498 344.549 33.31A37.21 37.21 0 0 0 307.484 0H151.516a37.208 37.208 0 0 0-37.064 33.31l-12.217 114.188a37.327 37.327 0 0 0 9.34 28.883 37.328 37.328 0 0 0 27.724 12.359h32.296v234.877a7.502 7.502 0 0 0 4.342 6.803l60.058 27.884a7.5 7.5 0 0 0 7.392-.614l40.754-27.884a7.5 7.5 0 0 0 3.265-6.19V188.739h32.295a37.329 37.329 0 0 0 27.725-12.359 37.33 37.33 0 0 0 9.34-28.882zM234.5 136.496c0 2.757-2.243 5-5 5s-5-2.243-5-5 2.243-5 5-5 5 2.243 5 5zm-47.906 52.243h45.058v251.01l-45.058-20.92v-230.09zm60.058 152.29h25.754v30.043h-25.754v-30.043zm0-15v-66.507h25.754v66.507h-25.754zm0-81.507v-23.609h25.754v23.609h-25.754zm0 192.759v-51.208h25.754v33.587l-25.754 17.621zm25.754-231.368h-25.754v-17.174h25.754v17.174zm63.864-39.559c-4.281 4.763-10.165 7.386-16.568 7.386H139.298c-6.403 0-12.287-2.623-16.567-7.386-4.281-4.763-6.263-10.893-5.582-17.26l12.217-114.188A22.237 22.237 0 0 1 151.516 15h39.854v27.043l-18.856 18.855a19.86 19.86 0 0 0-8.14-1.749c-11.028 0-20 8.972-20 20s8.972 20 20 20 20-8.972 20-20c0-2.632-.524-5.141-1.452-7.445l21.251-21.251a7.499 7.499 0 0 0 2.197-5.303V15H222v102.969c-7.32 2.974-12.5 10.152-12.5 18.527 0 11.028 8.972 20 20 20s20-8.972 20-20c0-8.375-5.18-15.553-12.5-18.527V15h15.63v56.5c0 1.989.79 3.897 2.197 5.303l21.25 21.25a19.867 19.867 0 0 0-1.452 7.443c0 11.028 8.972 20 20 20s20-8.972 20-20-8.972-20-20-20c-2.901 0-5.652.635-8.142 1.75L267.63 68.394V15h39.854a22.235 22.235 0 0 1 22.149 19.906l12.217 114.188c.682 6.367-1.3 12.497-5.58 17.26zM169.374 79.149c0 2.757-2.243 5-5 5s-5-2.243-5-5 2.243-5 5-5 5 2.244 5 5zm125.252 21.348c2.757 0 5 2.243 5 5s-2.243 5-5 5-5-2.243-5-5 2.243-5 5-5z"/></svg>
