<svg version="1.0" xmlns="http://www.w3.org/2000/svg" width="200" height="200" viewBox="0 0 150 150"><path d="M28.2 1.2c-.7.7-1.2 2.9-1.2 5V10h-6.3c-3.6 0-6.8.5-7.5 1.2-1.7 1.7-1.7 135.9 0 137.6 1.7 1.7 106.9 1.7 108.6 0 .7-.7 1.2-3.9 1.2-7.5V135h6.3c3.6 0 6.8-.5 7.5-1.2.9-.9 1.2-13.2 1.2-49.2v-48l-18.3-18.3L101.4 0h-36C38.7 0 29.1.3 28.2 1.2zM97 21.3c0 11.3.4 16.7 1.2 17.5.8.8 6.2 1.2 17.5 1.2H132v90H33V5h64v16.3zm19 1.2L128.5 35H103V22.5c0-6.9.1-12.5.3-12.5.1 0 5.8 5.6 12.7 12.5zM27 73.8c0 44.4.3 59.1 1.2 60 .9.9 12.3 1.2 45 1.2H117v10H18V15h9v58.8z"/><path d="M42.6 24.6c-.3.9-.6 4.6-.6 8.4 0 9.1.9 10 10.5 10S63 42.1 63 33c0-10.3.3-10-10.5-10-7.5 0-9.4.3-9.9 1.6zM57 33v5h-9V28h9v5zM59.3 47.7c-1.8.7-1.6 4 .3 4.7 2 .8 58.8.8 60.8 0 2.1-.8 2.1-4 0-4.8-1.9-.7-59.3-.7-61.1.1zM43 50c0 1.2.9 2.2 2.4 2.6 3.5.8 6.6-.4 6.6-2.7 0-1.6-.7-1.9-4.5-1.9s-4.5.3-4.5 2zM59.3 62.7c-1.8.7-1.6 4 .3 4.7 2 .8 58.8.8 60.8 0 2.1-.8 2.1-4 0-4.8-1.9-.7-59.3-.7-61.1.1zM43 65c0 1.2.9 2.2 2.4 2.6 3.5.8 6.6-.4 6.6-2.7 0-1.6-.7-1.9-4.5-1.9s-4.5.3-4.5 2zM59.3 77.7c-1.8.7-1.6 4 .3 4.7 2 .8 58.8.8 60.8 0 2.1-.8 2.1-4 0-4.8-1.9-.7-59.3-.7-61.1.1zM43 80c0 1.2.9 2.2 2.4 2.6 3.5.8 6.6-.4 6.6-2.7 0-1.6-.7-1.9-4.5-1.9s-4.5.3-4.5 2zM59.3 92.7c-1.8.7-1.6 4 .3 4.7 2 .8 58.8.8 60.8 0 2.1-.8 2.1-4 0-4.8-1.9-.7-59.3-.7-61.1.1zM43 95c0 1.2.9 2.2 2.4 2.6 3.5.8 6.6-.4 6.6-2.7 0-1.6-.7-1.9-4.5-1.9s-4.5.3-4.5 2zM59.3 107.7c-1.8.7-1.6 4 .3 4.7 2 .8 58.8.8 60.8 0 2.1-.8 2.1-4 0-4.8-1.9-.7-59.3-.7-61.1.1zM43 110c0 1.2.9 2.2 2.4 2.6 3.5.8 6.6-.4 6.6-2.7 0-1.6-.7-1.9-4.5-1.9s-4.5.3-4.5 2z"/></svg>