<svg version="1.0" xmlns="http://www.w3.org/2000/svg" width="266.667" height="266.667" viewBox="0 0 200 200"><path d="M23.2 21.1c-4.6 1.4-10.9 8-12.2 12.8-.7 2.8-1 21.6-.8 58.4l.3 54.3 2.7 4.1c1.5 2.2 4.4 5.1 6.5 6.4l3.8 2.4h153.1l4.1-2.7c2.2-1.5 5.1-4.4 6.4-6.5l2.4-3.8v-113l-2.4-3.8c-1.3-2.1-4.2-5-6.4-6.5l-4.1-2.7-75-.2c-45.6-.1-76.4.2-78.4.8zm153.5 12.2l2.8 2.7v55c0 51.4-.1 55-1.8 56.7-1.7 1.7-6.1 1.8-76.7 1.8H26l-2.7-2.8-2.8-2.7V90.1c0-52.5.1-53.9 2-56.1 1.1-1.2 2.9-2.6 4-3.1 1.1-.4 34.7-.7 74.7-.6l72.8.2 2.7 2.8z"/><path d="M119.7 53.8c-1 1-1.7 2.2-1.7 2.6 0 1.7-20.3 52.6-21 52.6-.4 0-4.2-8.4-8.5-18.6-11.3-26.8-13-27.4-23-7.3L59 96H46.1c-13.7 0-16.1.7-16.1 5 0 4.4 2.2 5 18.3 5 8.4 0 15.7-.4 16.3-.8.6-.4 3.3-4.9 5.9-10.1 3.2-6.4 4.9-9 5.5-8.1.4.7 4.6 10.3 9.2 21.2 6.8 16.2 8.7 20 10.5 20.5 3.1.7 5.1-.2 6.3-2.9.5-1.3 5-12.9 10-25.8s9.5-23.9 9.9-24.3c.4-.4 2.5 5.4 4.5 13 2.1 7.6 4.5 14.6 5.4 15.5 1.3 1.6 3.6 1.8 18.3 1.8 17.8 0 19.9-.5 19.9-5 0-4.3-2.4-5-16-5h-12.9l-1.6-5.3c-.8-2.8-3.5-12.2-5.9-20.7-2.8-9.6-5.1-15.9-6.2-16.7-2.5-1.8-5.8-1.6-7.7.5zM81.6 165.6c-.9.8-1.6 2.2-1.6 3 0 1.1-2.5 1.4-13.4 1.4s-13.8.3-15 1.6c-2 2-2 4.8 0 6.8 1.4 1.4 7.1 1.6 48.4 1.6s47-.2 48.4-1.6c.9-.8 1.6-2.4 1.6-3.4 0-4.3-2.4-5-16.6-5-10.9 0-13.4-.3-13.4-1.4 0-.8-.7-2.2-1.6-3-2.3-2.4-34.5-2.4-36.8 0z"/></svg>