<svg xmlns="http://www.w3.org/2000/svg" width="135" height="40"><defs><linearGradient id="linear-gradient" x1="31.8" y1="43.29" x2="15.02" y2="26.51" gradientTransform="matrix(1 0 0 -1 0 62)" gradientUnits="userSpaceOnUse"><stop offset="0" stop-color="#00a0ff"/><stop offset=".01" stop-color="#00a1ff"/><stop offset=".26" stop-color="#00beff"/><stop offset=".51" stop-color="#00d2ff"/><stop offset=".76" stop-color="#00dfff"/><stop offset="1" stop-color="#00e3ff"/></linearGradient><linearGradient id="linear-gradient-2" x1="43.83" y1="32" x2="19.64" y2="32" gradientTransform="matrix(1 0 0 -1 0 62)" gradientUnits="userSpaceOnUse"><stop offset="0" stop-color="#ffe000"/><stop offset=".41" stop-color="#ffbd00"/><stop offset=".78" stop-color="orange"/><stop offset="1" stop-color="#ff9c00"/></linearGradient><linearGradient id="linear-gradient-3" x1="34.83" y1="29.7" x2="12.07" y2="6.95" gradientTransform="matrix(1 0 0 -1 0 62)" gradientUnits="userSpaceOnUse"><stop offset="0" stop-color="#ff3a44"/><stop offset="1" stop-color="#c31162"/></linearGradient><linearGradient id="linear-gradient-4" x1="17.3" y1="51.82" x2="27.46" y2="41.66" gradientTransform="matrix(1 0 0 -1 0 62)" gradientUnits="userSpaceOnUse"><stop offset="0" stop-color="#32a071"/><stop offset=".07" stop-color="#2da771"/><stop offset=".48" stop-color="#15cf74"/><stop offset=".8" stop-color="#06e775"/><stop offset="1" stop-color="#00f076"/></linearGradient><style>.cls-10{fill:#fff}.cls-8{isolation:isolate;opacity:.12}.cls-10{stroke:#fff;stroke-miterlimit:10;stroke-width:.2px}</style></defs><g id="artwork"><rect width="135" height="40" rx="5"/><path d="M140 10.8a4.2 4.2 0 0 1 4.2 4.2v30a4.2 4.2 0 0 1-4.2 4.2H15a4.2 4.2 0 0 1-4.2-4.2V15a4.2 4.2 0 0 1 4.2-4.2h125m0-.8H15a5 5 0 0 0-5 5v30a5 5 0 0 0 5 5h125a5 5 0 0 0 5-5V15a5 5 0 0 0-5-5Z" transform="translate(-10 -10)" style="fill:#a6a6a6"/><path d="M74.72 22.79a3.72 3.72 0 1 0 3.74 3.72 3.67 3.67 0 0 0-3.74-3.72Zm0 6a2.26 2.26 0 1 1 2.1-2.25 2.15 2.15 0 0 1-2.1 2.22Zm-8.14-6a3.72 3.72 0 1 0 3.74 3.72 3.67 3.67 0 0 0-3.74-3.72Zm0 6a2.26 2.26 0 1 1 2.1-2.25 2.15 2.15 0 0 1-2.1 2.22Zm-9.68-4.86v1.58h3.77a3.2 3.2 0 0 1-.86 2 3.83 3.83 0 0 1-2.91 1.16 4.2 4.2 0 0 1 0-8.39 4 4 0 0 1 2.84 1.12l1.12-1.11a5.53 5.53 0 0 0-4-1.59 5.78 5.78 0 1 0 0 11.55 5.31 5.31 0 0 0 4-1.62 5.23 5.23 0 0 0 1.36-3.69 4.9 4.9 0 0 0-.08-1Zm39.6 1.23a3.46 3.46 0 0 0-3.18-2.37 3.54 3.54 0 0 0-3.51 3.72 3.64 3.64 0 0 0 3.69 3.72 3.71 3.71 0 0 0 3.1-1.65l-1.27-.85a2.12 2.12 0 0 1-1.83 1 1.89 1.89 0 0 1-1.8-1.13l5-2.05Zm-5.07 1.24a2 2 0 0 1 1.95-2.17 1.44 1.44 0 0 1 1.38.79Zm-4 3.6H89V19.07h-1.61Zm-2.67-6.38h-.06a2.57 2.57 0 0 0-2-.83 3.72 3.72 0 0 0 0 7.44 2.55 2.55 0 0 0 2-.85h.06v.54a1.9 1.9 0 0 1-2 2.18 2 2 0 0 1-1.87-1.33l-1.42.6a3.53 3.53 0 0 0 3.29 2.19c1.92 0 3.54-1.12 3.54-3.87V23h-1.58Zm-1.88 5.14a2.26 2.26 0 0 1 0-4.51 2.1 2.1 0 0 1 2 2.27 2.07 2.07 0 0 1-2.04 2.24Zm21.32-9.69h-3.91V30h1.63v-4.14h2.28a3.4 3.4 0 1 0 0-6.79Zm0 5.27h-2.32v-3.75h2.32a1.88 1.88 0 1 1 0 3.75Zm10.08-1.57a3.06 3.06 0 0 0-2.91 1.67l1.45.61a1.52 1.52 0 0 1 1.49-.8 1.56 1.56 0 0 1 1.71 1.4v.11a3.71 3.71 0 0 0-1.7-.42c-1.56 0-3.15.86-3.15 2.46a2.53 2.53 0 0 0 2.71 2.41 2.31 2.31 0 0 0 2.12-1.07V30h1.57v-4.21c.02-1.94-1.42-3.02-3.29-3.02Zm-.2 6c-.53 0-1.28-.27-1.28-.93 0-.84.93-1.17 1.73-1.17A2.91 2.91 0 0 1 116 27a2 2 0 0 1-1.92 1.76Zm9.25-5.77-1.87 4.74h-.06L119.46 23h-1.75l2.91 6.62-1.62 3.69h1.7L125.14 23Zm-14.69 7h1.63V19.07h-1.63Z" transform="translate(-10 -10)" style="fill:#fff"/><path d="M20.44 17.54a2 2 0 0 0-.47 1.4v22.12a1.94 1.94 0 0 0 .47 1.4l.07.08L32.9 30.15v-.3L20.51 17.47Z" transform="translate(-10 -10)" style="fill:url(#linear-gradient)"/><path d="m37 34.28-4.1-4.13v-.3l4.1-4.13.09.06L42 28.56c1.4.79 1.4 2.09 0 2.89l-4.89 2.78Z" transform="translate(-10 -10)" style="fill:url(#linear-gradient-2)"/><path d="M37.12 34.22 32.9 30 20.44 42.46a1.62 1.62 0 0 0 2.07.07l14.61-8.31" transform="translate(-10 -10)" style="fill:url(#linear-gradient-3)"/><path d="m37.12 25.78-14.61-8.3a1.61 1.61 0 0 0-2.07.06L32.9 30Z" transform="translate(-10 -10)" style="fill:url(#linear-gradient-4)"/><path d="m37 34.13-14.49 8.25a1.66 1.66 0 0 1-2 0l-.07.07.07.08a1.66 1.66 0 0 0 2 0l14.61-8.31Z" transform="translate(-10 -10)" style="opacity:.2;isolation:isolate"/><path class="cls-8" d="M20.44 42.32a2 2 0 0 1-.44-1.41v.15a1.94 1.94 0 0 0 .47 1.4l.07-.07ZM42 31.3l-5 2.83.09.09L42 31.44A1.75 1.75 0 0 0 43.06 30 1.86 1.86 0 0 1 42 31.3Z" transform="translate(-10 -10)"/><path d="M22.51 17.62 42 28.7a1.86 1.86 0 0 1 1.06 1.3A1.75 1.75 0 0 0 42 28.56L22.51 17.48c-1.39-.8-2.54-.14-2.54 1.46v.15c.03-1.6 1.15-2.26 2.54-1.47Z" transform="translate(-10 -10)" style="opacity:.25;isolation:isolate;fill:#fff"/></g><g id="Layer_3" data-name="Layer 3"><path class="cls-10" d="M51.82 38.85h-.72v-1.92h.72ZM53.09 43v-6.07H55a3 3 0 0 1 2.24.85 3.29 3.29 0 0 1 0 4.39A3 3 0 0 1 55 43Zm.78-.75H55A2.11 2.11 0 0 0 57.24 40 2.12 2.12 0 0 0 55 37.68h-1.13ZM62.67 37.68H59.9v1.93h2.5v.73h-2.5v1.93h2.77V43h-3.55v-6.07h3.55ZM63.79 43v-6.07h.95l3 4.74v-4.74h.78V43h-.81l-3.1-5v5ZM71.07 43l2.29-6.09h.89L76.54 43h-.87l-.58-1.65h-2.56l-.6 1.65Zm1.72-2.38h2l-1-2.75ZM77.33 43v-6.07h.79v5.34h2.63V43ZM81.6 43v-6.07h.78V43ZM83.78 43v-6.07h1l3 4.74v-4.74h.78V43h-.81l-3.1-5v5Z" transform="translate(-10 -10)"/></g></svg>