<svg id="artwork" xmlns="http://www.w3.org/2000/svg" width="135" height="40"><defs><linearGradient id="linear-gradient" x1="31.8" y1="183.29" x2="15.02" y2="166.51" gradientTransform="matrix(1 0 0 -1 0 202)" gradientUnits="userSpaceOnUse"><stop offset="0" stop-color="#00a0ff"/><stop offset=".01" stop-color="#00a1ff"/><stop offset=".26" stop-color="#00beff"/><stop offset=".51" stop-color="#00d2ff"/><stop offset=".76" stop-color="#00dfff"/><stop offset="1" stop-color="#00e3ff"/></linearGradient><linearGradient id="linear-gradient-2" x1="43.83" y1="172" x2="19.64" y2="172" gradientTransform="matrix(1 0 0 -1 0 202)" gradientUnits="userSpaceOnUse"><stop offset="0" stop-color="#ffe000"/><stop offset=".41" stop-color="#ffbd00"/><stop offset=".78" stop-color="orange"/><stop offset="1" stop-color="#ff9c00"/></linearGradient><linearGradient id="linear-gradient-3" x1="34.83" y1="169.7" x2="12.07" y2="146.95" gradientTransform="matrix(1 0 0 -1 0 202)" gradientUnits="userSpaceOnUse"><stop offset="0" stop-color="#ff3a44"/><stop offset="1" stop-color="#c31162"/></linearGradient><linearGradient id="linear-gradient-4" x1="17.3" y1="191.82" x2="27.46" y2="181.66" gradientTransform="matrix(1 0 0 -1 0 202)" gradientUnits="userSpaceOnUse"><stop offset="0" stop-color="#32a071"/><stop offset=".07" stop-color="#2da771"/><stop offset=".48" stop-color="#15cf74"/><stop offset=".8" stop-color="#06e775"/><stop offset="1" stop-color="#00f076"/></linearGradient><style>.cls-10{fill:#fff}.cls-8{isolation:isolate;opacity:.12}.cls-10{stroke:#fff;stroke-miterlimit:10;stroke-width:.2px}</style></defs><rect width="135" height="40" rx="5"/><path d="M140 10.8a4.2 4.2 0 0 1 4.2 4.2v30a4.2 4.2 0 0 1-4.2 4.2H15a4.2 4.2 0 0 1-4.2-4.2V15a4.2 4.2 0 0 1 4.2-4.2h125m0-.8H15a5 5 0 0 0-5 5v30a5 5 0 0 0 5 5h125a5 5 0 0 0 5-5V15a5 5 0 0 0-5-5Z" transform="translate(-10 -10)" style="fill:#a6a6a6"/><path d="M78.14 31.75A4.26 4.26 0 1 0 82.41 36a4.19 4.19 0 0 0-4.27-4.25Zm0 6.83a2.58 2.58 0 1 1 2.4-2.58 2.46 2.46 0 0 1-2.4 2.58Zm-9.32-6.83A4.26 4.26 0 1 0 73.09 36a4.19 4.19 0 0 0-4.27-4.25Zm0 6.83a2.58 2.58 0 1 1 2.4-2.58 2.46 2.46 0 0 1-2.4 2.58Zm-11.08-5.52v1.8h4.32a3.77 3.77 0 0 1-1 2.27 4.42 4.42 0 0 1-3.34 1.32 4.8 4.8 0 0 1 0-9.6A4.64 4.64 0 0 1 61 30.14l1.27-1.27a6.3 6.3 0 0 0-4.53-1.82 6.61 6.61 0 1 0 0 13.21 6.07 6.07 0 0 0 4.61-1.85 6 6 0 0 0 1.56-4.23 6.27 6.27 0 0 0-.09-1.12Zm45.31 1.4a4 4 0 0 0-3.64-2.71 4 4 0 0 0-4 4.25 4.23 4.23 0 0 0 7.76 2.37l-1.45-1a2.41 2.41 0 0 1-2.09 1.17 2.15 2.15 0 0 1-2.06-1.29l5.69-2.35Zm-5.8 1.42a2.34 2.34 0 0 1 2.23-2.49 1.64 1.64 0 0 1 1.57.91ZM92.63 40h1.87V27.5h-1.87Zm-3.06-7.3h-.07a2.94 2.94 0 0 0-2.24-1 4.26 4.26 0 0 0 0 8.51 2.88 2.88 0 0 0 2.24-1h.07v.61c0 1.63-.87 2.5-2.27 2.5a2.36 2.36 0 0 1-2.15-1.51l-1.62.67A4 4 0 0 0 87.3 44c2.19 0 4-1.29 4-4.43V32h-1.73Zm-2.15 5.88a2.58 2.58 0 0 1 0-5.15A2.39 2.39 0 0 1 89.7 36a2.38 2.38 0 0 1-2.28 2.58Zm24.39-11.08h-4.48V40h1.87v-4.74h2.61a3.89 3.89 0 1 0 0-7.76Zm0 6h-2.61v-4.26h2.65a2.14 2.14 0 1 1 0 4.28Zm11.54-1.79a3.49 3.49 0 0 0-3.33 1.91l1.65.69a1.78 1.78 0 0 1 1.71-.91 1.8 1.8 0 0 1 2 1.61v.12a4.18 4.18 0 0 0-1.95-.48c-1.78 0-3.6 1-3.6 2.82a2.89 2.89 0 0 0 3.11 2.75 2.65 2.65 0 0 0 2.38-1.22h.06v1h1.8v-4.81c0-2.19-1.66-3.46-3.79-3.46Zm-.23 6.85c-.61 0-1.46-.31-1.46-1.06 0-1 1.06-1.34 2-1.34a3.32 3.32 0 0 1 1.7.42 2.26 2.26 0 0 1-2.2 2ZM133.74 32l-2.14 5.42h-.06L129.32 32h-2l3.33 7.58-1.9 4.21h1.95L135.82 32Zm-16.8 8h1.86V27.5h-1.86Z" transform="translate(-10 -10)" style="fill:#fff"/><path d="M20.44 17.54a2 2 0 0 0-.47 1.4v22.12a1.94 1.94 0 0 0 .47 1.4l.07.08L32.9 30.15v-.3L20.51 17.47Z" transform="translate(-10 -10)" style="fill:url(#linear-gradient)"/><path d="m37 34.28-4.1-4.13v-.3l4.1-4.13.09.06L42 28.56c1.4.79 1.4 2.09 0 2.89l-4.89 2.78Z" transform="translate(-10 -10)" style="fill:url(#linear-gradient-2)"/><path d="M37.12 34.22 32.9 30 20.44 42.46a1.62 1.62 0 0 0 2.07.07l14.61-8.31" transform="translate(-10 -10)" style="fill:url(#linear-gradient-3)"/><path d="m37.12 25.78-14.61-8.3a1.61 1.61 0 0 0-2.07.06L32.9 30Z" transform="translate(-10 -10)" style="fill:url(#linear-gradient-4)"/><path d="m37 34.13-14.49 8.25a1.66 1.66 0 0 1-2 0l-.07.07.07.08a1.66 1.66 0 0 0 2 0l14.61-8.31Z" transform="translate(-10 -10)" style="opacity:.2;isolation:isolate"/><path class="cls-8" d="M20.44 42.32a2 2 0 0 1-.44-1.41v.15a1.94 1.94 0 0 0 .47 1.4l.07-.07ZM42 31.3l-5 2.83.09.09L42 31.44A1.75 1.75 0 0 0 43.06 30 1.86 1.86 0 0 1 42 31.3Z" transform="translate(-10 -10)"/><path d="M22.51 17.62 42 28.7a1.86 1.86 0 0 1 1.06 1.3A1.75 1.75 0 0 0 42 28.56L22.51 17.48c-1.39-.8-2.54-.14-2.54 1.46v.15c.03-1.6 1.15-2.26 2.54-1.47Z" transform="translate(-10 -10)" style="opacity:.25;isolation:isolate;fill:#fff"/><path class="cls-10" d="M54.69 17.56v1.3l.09-.11a16.9 16.9 0 0 1 2.59 1.51l-.38.49a16.57 16.57 0 0 0-2.3-1.46v3.84h-.58v-5.57h-2.78V17h6.44v.54ZM64.78 19.08a9.69 9.69 0 0 1-1.1 2.5c.2.62.47 1 .79 1s.25-.31.3-1.16a1.2 1.2 0 0 0 .42.27c-.09 1.09-.26 1.42-.77 1.42s-.83-.37-1.1-1a5.92 5.92 0 0 1-1 1.07 1.91 1.91 0 0 0-.38-.37 5.13 5.13 0 0 0 1.23-1.27 14 14 0 0 1-.42-3h-4.14v-.43h1.76v-.62H59v-.44h1.39v-.58h.52v.58h1.28v.44h-1.3v.62h1.78v-1.63h.53v1.63h1.9v.43h-1.89a16.72 16.72 0 0 0 .29 2.35 9.12 9.12 0 0 0 .79-2ZM62.46 22l-1.32.14v1h-.51v-.94l-1.89.2-.06-.5 2-.16V21h-1a1.08 1.08 0 0 0-.58.1 3 3 0 0 0-.17-.5c.11 0 .22-.17.34-.36s.15-.29.27-.53h-.82v-.44h1a6.09 6.09 0 0 0 .27-.71l.53.15c-.07.18-.15.37-.24.56h2.15v.44h-2.34a8.88 8.88 0 0 1-.47.82h1V20h.51v.59h1.15V21h-1.14v.67l1.32-.12Zm2-4.18a5.05 5.05 0 0 0-.88-.95l.39-.25a4.5 4.5 0 0 1 .89.92ZM67.13 17.93v1.47a8.67 8.67 0 0 1-.69 3.8 1.74 1.74 0 0 0-.46-.3 7.77 7.77 0 0 0 .61-3.5v-2h2.89a7.07 7.07 0 0 0-.39-.85l.53-.13a7.11 7.11 0 0 1 .47 1h2.44v.52Zm5.49 4.35v.52h-5.4v-.52h2.88a13.16 13.16 0 0 0 1.54-3.85l.57.21a16.54 16.54 0 0 1-1.55 3.64Zm-4.22-.78a19 19 0 0 0-.79-2.5l.47-.19a19.93 19.93 0 0 1 .83 2.47Zm1.39-.4a19.81 19.81 0 0 0-.6-2.49l.49-.13a19.51 19.51 0 0 1 .63 2.52ZM79.71 22.41c0 .35-.1.51-.33.6a4.56 4.56 0 0 1-1.38.09 2.14 2.14 0 0 0-.18-.52h1.14c.14 0 .2-.05.2-.19v-1.47h-2v2.15h-.54v-2.15h-1.77a4.22 4.22 0 0 1-.91 2.26 1.82 1.82 0 0 0-.42-.36 4.67 4.67 0 0 0 .88-3.2V17h5.31Zm-3-2v-1.22h-1.78v1.21Zm-1.74-2.89v1.17h1.74v-1.18Zm4.25 0h-2v1.17h2Zm0 2.89v-1.22h-2v1.21ZM81.25 23a1.29 1.29 0 0 0 .92-1.07H82a.49.49 0 0 1-.54-.52.51.51 0 0 1 .55-.52c.4 0 .62.33.62.84a1.73 1.73 0 0 1-1.26 1.65ZM88 21.31a2.45 2.45 0 0 0 .19.46A11.44 11.44 0 0 0 86.7 23a2.18 2.18 0 0 0-.28-.46.73.73 0 0 0 .34-.62v-2.64h-1.09v-.52h1.62v3.11Zm-.8-3.21a9.23 9.23 0 0 0-1.05-1.1l.35-.32a9.43 9.43 0 0 1 1.1 1.07Zm5.08.73v.42h-4.36v-.42h1.9v-.51h-1.51v-.39h1.51v-.46h-1.68v-.42h1.68v-.56h.53v.56h1.75v.42h-1.75v.46h1.53v.39h-1.53v.51Zm-.57 3.7c0 .28-.06.42-.25.5a3.17 3.17 0 0 1-1 .08 2.38 2.38 0 0 0-.16-.47 7.69 7.69 0 0 0 .81 0c.11 0 .13 0 .13-.12V22H89v1.13h-.51v-3.46h3.3ZM89 20.09v.56h2.27v-.56Zm2.27 1.53V21H89v.59ZM97 21.9v.49l-3.75.53-.08-.54c.46-.05 1-.12 1.68-.21V20.9h-1.36v-.5h1.39v-.87h.53v.87h1.37v.5h-1.37v1.21Zm-1-4.08a8.78 8.78 0 0 1 1.15 1.63l-.42.25c-.07-.13-.15-.28-.25-.45-1.15.08-2.32.14-3.15.19v-.52H94a13.93 13.93 0 0 0 .54-1.45h-1.26V17H97v.48h-1.93c-.18.46-.39 1-.6 1.43l1.68-.07a9.26 9.26 0 0 0-.58-.75Zm1.85 3.55h-.52v-4h.52Zm1.72-4.69v5.73c0 .37-.09.54-.33.63a4.37 4.37 0 0 1-1.26.1 3.3 3.3 0 0 0-.18-.56h1.07c.14 0 .17 0 .17-.18v-5.72Z" transform="translate(-10 -10)"/></svg>