<svg width="31" height="30" fill="none" xmlns="http://www.w3.org/2000/svg"><path fill-rule="evenodd" clip-rule="evenodd" d="M15.473 23.75c4.984 0 9.025-3.918 9.025-8.75s-4.04-8.75-9.025-8.75S6.447 10.168 6.447 15s4.04 8.75 9.026 8.75zm0 2.5c6.409 0 11.604-5.037 11.604-11.25S21.882 3.75 15.473 3.75C9.063 3.75 3.868 8.787 3.868 15s5.196 11.25 11.605 11.25zm0-12.5c-.342 0-.67.132-.912.366a1.231 1.231 0 00-.378.884v3.75c0 .331.136.65.378.884.242.234.57.366.912.366.342 0 .67-.132.911-.366.242-.235.378-.553.378-.884V15c0-.332-.136-.65-.378-.884a1.31 1.31 0 00-.911-.366zm1.53-2.5c0 .82-.685 1.485-1.53 1.485-.847 0-1.533-.665-1.533-1.485 0-.82.686-1.485 1.532-1.485s1.532.665 1.532 1.485z" fill="#1CC4A0"/></svg>