<svg width="39" height="39" viewBox="0 0 39 39" fill="none" xmlns="http://www.w3.org/2000/svg">
<circle cx="9.43723" cy="28.07" r="6.64035" fill="#EDEEFC" stroke="#7542E5"/>
<path d="M36.6125 26.0122H19.7142C18.6627 21.7 14.8243 18.4824 10.25 18.4824C4.86525 18.4824 0.5 22.9369 0.5 28.3947C0.5 33.8525 4.86525 38.307 10.25 38.307C15.1517 38.307 19.1578 34.6059 19.8482 29.8359H31.025V34.5127C31.025 35.5599 31.8623 36.4245 32.9125 36.4245C33.9627 36.4245 34.8 35.5599 34.8 34.5127V29.8359H36.6125C37.6627 29.8359 38.5 28.9713 38.5 27.9241C38.5 26.8768 37.6627 26.0122 36.6125 26.0122ZM10.25 34.4833C6.9638 34.4833 4.275 31.7599 4.275 28.3947C4.275 25.0295 6.9638 22.3061 10.25 22.3061C13.5362 22.3061 16.225 25.0295 16.225 28.3947C16.225 31.7599 13.5362 34.4833 10.25 34.4833Z" fill="#7542E5" stroke="#7542E5"/>
<path fill-rule="evenodd" clip-rule="evenodd" d="M23.6773 4.36425C23.6789 4.43443 23.6557 4.50293 23.6116 4.55756C23.5675 4.61219 23.5054 4.64941 23.4365 4.6626C22.8485 4.76903 21.2242 5.15287 20.6693 5.69898C20.1145 6.24508 19.7394 7.86944 19.6364 8.46614C19.624 8.53511 19.5872 8.59732 19.5328 8.64149C19.4783 8.68566 19.4099 8.70887 19.3398 8.70692V4.36425H23.6773Z" fill="#7542E5"/>
<path fill-rule="evenodd" clip-rule="evenodd" d="M19.3584 8.70703C19.2879 8.70675 19.2199 8.68154 19.1662 8.63587C19.1126 8.59021 19.0768 8.52703 19.0653 8.45753C18.9658 7.87304 18.6012 6.27486 18.0516 5.68339C17.502 5.09192 15.8689 4.74821 15.2425 4.63654C15.1736 4.62307 15.1115 4.58583 15.0672 4.53131C15.0229 4.47679 14.9991 4.40845 15 4.33819H19.3619L19.3584 8.70703Z" fill="#7542E5"/>
<path fill-rule="evenodd" clip-rule="evenodd" d="M19.3359 4.36328V0.0206141C19.4063 0.0227203 19.4738 0.0485015 19.5276 0.0937839C19.5815 0.139067 19.6184 0.201197 19.6325 0.270111C19.739 0.865069 20.1228 2.51385 20.6689 3.0617C21.215 3.60955 22.8411 3.97071 23.4291 4.07016C23.498 4.08131 23.5607 4.11654 23.6061 4.16957C23.6514 4.2226 23.6765 4.29 23.6769 4.35979L19.3359 4.36328Z" fill="#7542E5"/>
<path fill-rule="evenodd" clip-rule="evenodd" d="M15.0002 4.36328C14.9975 4.29224 15.0217 4.22279 15.068 4.16879C15.1142 4.11479 15.1791 4.0802 15.2497 4.07191C15.8429 3.97071 17.4969 3.60781 18.0518 3.05821C18.6066 2.50862 18.966 0.877285 19.0655 0.256156C19.0755 0.185381 19.1106 0.120558 19.1644 0.0734873C19.2182 0.0264158 19.2871 0.000225544 19.3586 -0.000321388V4.36154L15.0002 4.36328Z" fill="#007BED"/>
<path fill-rule="evenodd" clip-rule="evenodd" d="M38.0012 10.8091C38.0032 10.93 37.9629 11.0478 37.8873 11.1421C37.8116 11.2364 37.7054 11.3013 37.5869 11.3255C36.5715 11.5182 33.768 12.1695 32.8104 13.1117C31.8527 14.0539 31.2053 16.8574 31.0223 17.8883C30.9999 18.0072 30.9357 18.1143 30.8414 18.1903C30.7471 18.2662 30.6288 18.306 30.5078 18.3025V10.8091H38.0012Z" fill="#7542E5"/>
<path fill-rule="evenodd" clip-rule="evenodd" d="M30.5478 18.3027C30.4265 18.3028 30.3092 18.2596 30.217 18.1808C30.1248 18.102 30.0637 17.9929 30.0449 17.8731C29.8715 16.8634 29.2433 14.1061 28.2934 13.0849C27.3435 12.0637 24.5342 11.4722 23.4475 11.2891C23.3278 11.2664 23.22 11.2021 23.1431 11.1076C23.0663 11.0131 23.0253 10.8945 23.0274 10.7727H30.542L30.5478 18.3027Z" fill="#7542E5"/>
<path fill-rule="evenodd" clip-rule="evenodd" d="M30.5078 10.8086V3.3152C30.6289 3.31883 30.7452 3.36323 30.8379 3.44122C30.9305 3.51921 30.9942 3.62621 31.0184 3.74488C31.2015 4.77187 31.8643 7.61586 32.8065 8.56192C33.7487 9.50799 36.5542 10.1304 37.5715 10.2961C37.69 10.3164 37.7975 10.3777 37.8754 10.4693C37.9532 10.5608 37.9964 10.6769 37.9974 10.797L30.5078 10.8086Z" fill="#7542E5"/>
<path fill-rule="evenodd" clip-rule="evenodd" d="M23.0275 10.8086C23.0241 10.6859 23.0664 10.5664 23.1462 10.4731C23.2259 10.3798 23.3374 10.3195 23.4591 10.3038C24.4804 10.1304 27.3359 9.50606 28.2935 8.55614C29.2512 7.60622 29.8716 4.79307 30.045 3.71983C30.0617 3.59808 30.1217 3.48643 30.2141 3.40537C30.3065 3.32432 30.425 3.27931 30.5479 3.27859V10.8086H23.0275Z" fill="#007BED"/>
<path fill-rule="evenodd" clip-rule="evenodd" d="M24.3813 18.7575C24.382 18.8035 24.3667 18.8482 24.338 18.8841C24.3094 18.9201 24.2692 18.945 24.2243 18.9547C23.8352 19.0245 22.7657 19.2757 22.401 19.6369C22.0364 19.998 21.7886 21.0658 21.7171 21.4601C21.7085 21.5049 21.6843 21.5452 21.6489 21.574C21.6135 21.6027 21.569 21.618 21.5234 21.6172V18.7575H24.3813Z" fill="#7542E5"/>
<path fill-rule="evenodd" clip-rule="evenodd" d="M21.5359 21.6152C21.4895 21.6151 21.4446 21.5985 21.4092 21.5685C21.3738 21.5385 21.3501 21.497 21.3422 21.4512C21.2777 21.0656 21.0369 20.0136 20.6758 19.6245C20.3146 19.2354 19.2381 19.0086 18.8246 18.9371C18.7792 18.9285 18.7382 18.9042 18.7089 18.8685C18.6795 18.8328 18.6637 18.7879 18.6641 18.7416H21.5359V21.6152Z" fill="#7542E5"/>
<path fill-rule="evenodd" clip-rule="evenodd" d="M21.5234 18.7578V15.8964C21.5694 15.8982 21.6134 15.9153 21.6485 15.945C21.6836 15.9748 21.7078 16.0154 21.7171 16.0604C21.7886 16.453 22.0399 17.5382 22.401 17.9029C22.7622 18.2675 23.8317 18.5013 24.2191 18.5659C24.2645 18.5734 24.3058 18.5968 24.3356 18.632C24.3653 18.6671 24.3815 18.7118 24.3813 18.7578H21.5234Z" fill="#7542E5"/>
<path fill-rule="evenodd" clip-rule="evenodd" d="M18.6641 18.7578C18.6629 18.7107 18.6791 18.6649 18.7098 18.6291C18.7404 18.5933 18.7832 18.5702 18.8299 18.5641C19.219 18.4996 20.3094 18.2606 20.6758 17.8977C21.0422 17.5347 21.2778 16.46 21.3423 16.0517C21.3478 16.004 21.3705 15.96 21.4062 15.9279C21.4418 15.8958 21.488 15.8778 21.536 15.8772V18.7578H18.6641Z" fill="#007BED"/>
</svg>
