<svg width="32" height="32" viewBox="0 0 32 32" fill="none" xmlns="http://www.w3.org/2000/svg">
<path opacity="0.9" d="M17.0791 18.7034L14.4728 20.2314C14.7393 20.5837 15.0154 20.9477 15.3125 21.3388C15.8282 22.0173 16.3857 22.7513 16.9908 23.5549L16.9707 23.528C17.2703 23.6596 17.6032 23.6959 17.9242 23.632C18.2451 23.5682 18.5387 23.4072 18.7652 23.1709L19.7125 22.1826C18.9765 21.2022 18.3102 20.3249 17.7018 19.5241C17.4847 19.238 17.2792 18.9672 17.0791 18.7034Z" fill="url(#paint0_linear)"/>
<path d="M18.7651 23.1709L19.7124 22.1826C18.9765 21.2022 18.3102 20.3249 17.7018 19.5241C14.9743 15.9341 13.6052 14.132 13.6044 13.0366C13.6046 12.4013 13.8571 11.7921 14.3065 11.343C14.7558 10.8939 15.3652 10.6417 16.0005 10.6419C16.6358 10.642 17.245 10.8946 17.6941 11.3439C18.1432 11.7933 18.3954 12.4026 18.3952 13.0379C18.3952 13.3638 18.1776 14.0379 17.5674 14.9529C17.3467 15.284 17.2666 15.6892 17.3446 16.0793C17.4226 16.4695 17.6524 16.8127 17.9834 17.0334C18.3145 17.2541 18.7197 17.3343 19.1098 17.2563C19.5 17.1782 19.8432 16.9484 20.0639 16.6174C20.9476 15.2924 21.3956 14.0881 21.3956 13.0379C21.3954 11.6068 20.8268 10.2345 19.8148 9.22267C19.3137 8.72168 18.7189 8.32429 18.0642 8.05319C17.4095 7.7821 16.7079 7.6426 15.9993 7.64267C15.2907 7.64274 14.5891 7.78237 13.9345 8.0536C13.2798 8.32483 12.6851 8.72233 12.1841 9.22342C11.1723 10.2354 10.6039 11.6079 10.6041 13.039C10.6055 15.1434 11.9834 16.9571 15.3123 21.3389C15.828 22.0174 16.3854 22.7514 16.9906 23.5551L16.9704 23.5281C17.2701 23.6597 17.603 23.696 17.924 23.6322C18.245 23.5683 18.5387 23.4073 18.7651 23.1709Z" fill="url(#paint1_linear)"/>
<path d="M18.325 25.3384C18.4675 25.5122 18.644 25.6552 18.8437 25.7585C19.0433 25.8618 19.262 25.9233 19.4862 25.9392C19.7105 25.9551 19.9356 25.9251 20.1478 25.8511C20.3601 25.777 20.555 25.6605 20.7207 25.5085C21.5555 24.6558 22.3441 23.7591 23.0832 22.8223C24.8054 20.6411 27.6952 16.4252 27.6952 12.6935C27.6951 6.24562 22.4487 1 16 1C9.55125 1 4.30487 6.24563 4.30487 12.6938C4.30487 17.7192 9.53693 24.2528 13.3571 29.0234C13.7497 29.5138 14.1262 29.9842 14.4792 30.4306C14.6033 30.5876 14.7576 30.7182 14.9329 30.8146C15.1083 30.9111 15.3011 30.9715 15.5002 30.9922C15.6992 31.013 15.9004 30.9938 16.0918 30.9356C16.2833 30.8775 16.4612 30.7816 16.6151 30.6536C17.2511 30.1247 17.3014 29.1616 16.7879 28.5131C16.4442 28.0791 16.079 27.623 15.6993 27.1484C12.3564 22.9744 7.30556 16.6662 7.30556 12.6938C7.30531 7.9 11.2056 4 16 4C20.7944 4 24.6947 7.9 24.6947 12.6938C24.6947 14.7269 23.2121 17.8188 20.7281 20.9633C20.3999 21.3783 20.0613 21.7849 19.7126 22.1828L18.7652 23.1712C18.5387 23.4075 18.2451 23.5684 17.9241 23.6323C17.6031 23.6962 17.2703 23.6599 16.9706 23.5282L18.325 25.3384Z" fill="url(#paint2_linear)"/>
<path d="M18.325 25.3384C18.4675 25.5122 18.644 25.6552 18.8437 25.7585C19.0433 25.8618 19.262 25.9233 19.4862 25.9392C19.7105 25.9551 19.9356 25.9251 20.1478 25.8511C20.3601 25.777 20.555 25.6605 20.7207 25.5085C21.5555 24.6558 22.3441 23.7591 23.0832 22.8223C24.8054 20.6411 27.6952 16.4252 27.6952 12.6935C27.6951 6.24562 22.4487 1 16 1C9.55125 1 4.30487 6.24563 4.30487 12.6938C4.30487 17.7192 9.53693 24.2528 13.3571 29.0234C13.7497 29.5138 14.1262 29.9842 14.4792 30.4306C14.6033 30.5876 14.7576 30.7182 14.9329 30.8146C15.1083 30.9111 15.3011 30.9715 15.5002 30.9922C15.6992 31.013 15.9004 30.9938 16.0918 30.9356C16.2833 30.8775 16.4612 30.7816 16.6151 30.6536C17.2511 30.1247 17.3014 29.1616 16.7879 28.5131C16.4442 28.0791 16.079 27.623 15.6993 27.1484C12.3564 22.9744 7.30556 16.6662 7.30556 12.6938C7.30531 7.9 11.2056 4 16 4C20.7944 4 24.6947 7.9 24.6947 12.6938C24.6947 14.7269 23.2121 17.8188 20.7281 20.9633C20.3999 21.3783 20.0613 21.7849 19.7126 22.1828L18.7652 23.1712C18.5387 23.4075 18.2451 23.5684 17.9241 23.6323C17.6031 23.6962 17.2703 23.6599 16.9706 23.5282L18.325 25.3384Z" fill="url(#paint3_linear)"/>
<defs>
<linearGradient id="paint0_linear" x1="18.8662" y1="23.8179" x2="15.8935" y2="19.4416" gradientUnits="userSpaceOnUse">
<stop stop-color="#054096" stop-opacity="0.5"/>
<stop offset="0.054" stop-color="#0F3D9C" stop-opacity="0.441"/>
<stop offset="0.261" stop-color="#2F35B1" stop-opacity="0.249"/>
<stop offset="0.466" stop-color="#462FBF" stop-opacity="0.111"/>
<stop offset="0.669" stop-color="#542BC8" stop-opacity="0.028"/>
<stop offset="0.864" stop-color="#592ACB" stop-opacity="0"/>
</linearGradient>
<linearGradient id="paint1_linear" x1="12.5536" y1="19.1179" x2="21.1303" y2="10.5413" gradientUnits="userSpaceOnUse">
<stop stop-color="#0090ED"/>
<stop offset="0.682" stop-color="#9059FF"/>
<stop offset="1" stop-color="#B833E1"/>
</linearGradient>
<linearGradient id="paint2_linear" x1="6.87718" y1="22.8427" x2="24.7785" y2="4.94144" gradientUnits="userSpaceOnUse">
<stop stop-color="#E31587"/>
<stop offset="0.439" stop-color="#FF3750"/>
<stop offset="0.57" stop-color="#FF564B"/>
<stop offset="0.742" stop-color="#FF7945"/>
<stop offset="0.883" stop-color="#FF8E41"/>
<stop offset="0.975" stop-color="#FF9640"/>
</linearGradient>
<linearGradient id="paint3_linear" x1="6.87718" y1="22.8427" x2="24.7785" y2="4.94144" gradientUnits="userSpaceOnUse">
<stop offset="0.371" stop-color="#FFF36E" stop-opacity="0"/>
<stop offset="0.426" stop-color="#FFF36E" stop-opacity="0.039"/>
<stop offset="0.519" stop-color="#FFF36E" stop-opacity="0.142"/>
<stop offset="0.639" stop-color="#FFF36E" stop-opacity="0.312"/>
<stop offset="0.779" stop-color="#FFF36E" stop-opacity="0.543"/>
<stop offset="0.917" stop-color="#FFF36E" stop-opacity="0.8"/>
</linearGradient>
</defs>
</svg>
