<svg width="40" height="39" viewBox="0 0 40 39" fill="none" xmlns="http://www.w3.org/2000/svg">
<path d="M16.73 29.2373C16.2991 29.2372 15.8858 29.066 15.5812 28.7612L10.7062 23.8862C10.4101 23.5797 10.2464 23.1692 10.2501 22.7432C10.2538 22.3171 10.4247 21.9095 10.726 21.6082C11.0272 21.307 11.4348 21.1361 11.8609 21.1323C12.2869 21.1286 12.6974 21.2924 13.0039 21.5884L16.509 25.0936L26.7725 10.4312C27.0213 10.0825 27.3976 9.8462 27.8197 9.77355C28.2418 9.70091 28.6755 9.79783 29.0265 10.0433C29.3775 10.2887 29.6174 10.6628 29.6941 11.0841C29.7708 11.5055 29.678 11.9401 29.4359 12.2934L18.0609 28.5434C17.9255 28.7391 17.7488 28.9027 17.5433 29.0226C17.3378 29.1425 17.1084 29.2158 16.8714 29.2373C16.8243 29.2397 16.7771 29.2397 16.73 29.2373Z" fill="url(#paint0_radial)"/>
<defs>
<radialGradient id="paint0_radial" cx="0" cy="0" r="1" gradientUnits="userSpaceOnUse" gradientTransform="translate(29.7204 9.75) rotate(-45.0276) scale(27.5485)">
<stop stop-color="#B833E1"/>
<stop offset="0.371" stop-color="#9059FF"/>
<stop offset="0.614" stop-color="#5B6DF8"/>
<stop offset="1" stop-color="#0090ED"/>
</radialGradient>
</defs>
</svg>
