<svg width="14" height="15" viewBox="0 0 14 15" fill="none" xmlns="http://www.w3.org/2000/svg">
<path d="M6.9 0.956543C3.08902 0.956543 0 4.04556 0 7.85654C0 11.6675 3.08902 14.7565 6.9 14.7565C10.711 14.7565 13.8 11.6675 13.8 7.85654C13.8 4.04556 10.711 0.956543 6.9 0.956543ZM12.6829 7.31181H10.4982C10.3805 5.52507 9.69922 3.83493 8.56181 2.48181H9.10074C11.056 3.28511 12.4781 5.12342 12.6829 7.31181ZM7.05471 13.2313H6.74312C5.37111 11.9849 4.53148 10.2585 4.3913 8.40128H9.4087C9.26852 10.2614 8.42744 11.9849 7.05471 13.2313ZM4.3913 7.31181C4.53148 5.45897 5.36893 3.72816 6.73876 2.48181H7.06269C8.4318 3.72889 9.26924 5.4597 9.40942 7.31181H4.3913ZM4.69926 2.48181H5.23892C4.10151 3.83421 3.41949 5.52434 3.30183 7.31181H1.11707C1.32189 5.12342 2.74402 3.28511 4.69926 2.48181ZM1.11707 8.40128H3.30183C3.41949 10.1924 4.10223 11.8789 5.24109 13.2313H4.69926C2.74402 12.428 1.32189 10.5897 1.11707 8.40128ZM9.10074 13.2313H8.56835C9.70503 11.8811 10.382 10.1931 10.4989 8.40128H12.6829C12.4781 10.5897 11.056 12.428 9.10074 13.2313Z" fill="currentColor"/>
</svg>
