<svg xmlns="http://www.w3.org/2000/svg" width="57.6" height="57.6"><defs><linearGradient id="a" x1="-3.82" y1="63.66" x2="56.35" y2="-.64" gradientUnits="userSpaceOnUse"><stop offset=".26" stop-color="#9059ff"/><stop offset=".96" stop-color="#00b3f4"/></linearGradient></defs><g data-name="Layer 2"><g data-name="Layer 1"><circle cx="28.8" cy="28.8" r="24.54" fill="#fbfbfe"/><path d="M28.8 0a28.8 28.8 0 1028.8 28.8A28.79 28.79 0 0028.8 0zm0 8.23a12.34 12.34 0 11-12.34 12.34A12.33 12.33 0 0128.8 8.23zm16.93 32.11a20.39 20.39 0 01-33.86 0 4.15 4.15 0 01.28-5.05C16.5 30.27 22.53 37 28.8 37s12.3-6.76 16.65-1.74a4.15 4.15 0 01.28 5.08z" fill="url(#a)"/></g></g></svg>