<svg width="39" height="24" fill="none" xmlns="http://www.w3.org/2000/svg"><g clip-path="url(#clip0)" fill-rule="evenodd" clip-rule="evenodd"><path d="M3.52 0A2.64 2.64 0 00.88 2.64v18.768a2.64 2.64 0 002.64 2.64h32.16a2.64 2.64 0 002.64-2.64V2.64A2.64 2.64 0 0035.68 0H3.52z" fill="#4D4D4D"/><path d="M16.583 7.77c.424 0 .78.086 1.213.293v1.092c-.41-.377-.766-.535-1.236-.535-.925 0-1.652.72-1.652 1.634 0 .964.705 1.642 1.698 1.642.447 0 .796-.15 1.19-.522v1.093c-.448.199-.812.277-1.236.277-1.502 0-2.668-1.084-2.668-2.483 0-1.384 1.197-2.49 2.691-2.49zm-4.661.031c.554 0 1.061.179 1.485.528l-.516.636c-.257-.271-.5-.386-.795-.386-.425 0-.734.228-.734.528 0 .257.173.393.765.599 1.121.386 1.454.728 1.454 1.484 0 .921-.719 1.563-1.743 1.563-.75 0-1.296-.278-1.75-.906l.636-.577c.227.413.606.634 1.076.634.44 0 .766-.286.766-.671 0-.2-.099-.371-.296-.492-.099-.058-.295-.143-.681-.271-.926-.314-1.244-.65-1.244-1.305 0-.78.682-1.364 1.577-1.364zm11.266.083h1.077l1.348 3.196 1.366-3.196h1.069l-2.184 4.88h-.53l-2.146-4.88zM4.116 7.89h1.447c1.599 0 2.714.979 2.714 2.383 0 .7-.341 1.377-.918 1.827-.485.379-1.038.55-1.804.55h-1.44V7.89zm4.614 0h.986v4.76H8.73V7.89zm19.763 0h2.797v.807h-1.811v1.056h1.744v.806h-1.744v1.284h1.81v.806h-2.796V7.891zm3.45 0h1.461c1.138 0 1.79.514 1.79 1.405 0 .729-.41 1.207-1.152 1.35l1.591 2.004H34.42l-1.364-1.912h-.129v1.912h-.984V7.891zm.984.75v1.441h.288c.63 0 .964-.257.964-.736 0-.463-.334-.705-.948-.705h-.304zm-27.826.057v3.146h.265c.637 0 1.039-.114 1.349-.378a1.59 1.59 0 00.546-1.199 1.56 1.56 0 00-.546-1.185c-.326-.277-.712-.384-1.35-.384h-.264z" fill="#fff"/><path d="M20.806 7.738c1.485 0 2.69 1.132 2.69 2.53v.002c0 1.398-1.205 2.531-2.69 2.531-1.485 0-2.689-1.133-2.689-2.531v-.002c0-1.398 1.204-2.53 2.69-2.53zm17.513 6.103c-1.25.88-10.612 7.169-26.82 10.206h24.18a2.64 2.64 0 002.64-2.64V13.84z" fill="#F47216"/></g><defs><clipPath id="clip0"><path fill="#fff" d="M.88 0h37.44v24H.88z"/></clipPath></defs></svg>