<svg width="117" height="32" viewBox="0 0 117 32" fill="none" xmlns="http://www.w3.org/2000/svg">
<path d="M28.778 6.29198C25.8935 2.45873 21.4274 0.14571 16.6381 0.00463533C12.9237 -0.0698944 10.3578 1.04845 8.90611 1.94762C10.8485 0.818852 13.6595 0.178538 16.1206 0.210193C22.4513 0.290332 29.2507 4.61025 30.2605 12.3966C31.4203 21.3346 25.2068 28.7943 16.4662 28.8172C6.85013 28.8416 1.00134 20.3108 2.53022 12.6482C2.55865 12.2725 2.61385 11.8993 2.69539 11.5315C2.88404 9.56764 3.45365 7.65961 4.37224 5.91452C3.26487 6.48872 1.85476 8.30468 1.15891 9.9868C0.145957 12.5533 -0.211179 15.3326 0.11992 18.0725C0.143915 18.28 0.16551 18.4872 0.192705 18.6932C1.32836 25.2452 6.37844 30.4172 12.8912 31.6984C19.4041 32.9796 26.031 30.1047 29.5548 24.4693C33.0787 18.8339 32.7697 11.6049 28.778 6.29198Z" fill="url(#paint0_radial)"/>
<path opacity="0.67" d="M28.778 6.29198C25.8935 2.45873 21.4274 0.14571 16.6381 0.00463533C12.9237 -0.0698944 10.3578 1.04845 8.90611 1.94762C10.8485 0.818852 13.6595 0.178538 16.1206 0.210193C22.4513 0.290332 29.2507 4.61025 30.2605 12.3966C31.4203 21.3346 25.2068 28.7943 16.4662 28.8172C6.85013 28.8416 1.00134 20.3108 2.53022 12.6482C2.55865 12.2725 2.61385 11.8993 2.69539 11.5315C2.88404 9.56764 3.45365 7.65961 4.37224 5.91452C3.26487 6.48872 1.85476 8.30468 1.15891 9.9868C0.145957 12.5533 -0.211179 15.3326 0.11992 18.0725C0.143915 18.28 0.16551 18.4872 0.192705 18.6932C1.32836 25.2452 6.37844 30.4172 12.8912 31.6984C19.4041 32.9796 26.031 30.1047 29.5548 24.4693C33.0787 18.8339 32.7697 11.6049 28.778 6.29198Z" fill="url(#paint1_radial)"/>
<path d="M28.778 6.29198C25.8935 2.45873 21.4274 0.14571 16.6381 0.00463533C12.9237 -0.0698944 10.3578 1.04845 8.90611 1.94762C10.8485 0.818852 13.6595 0.178538 16.1206 0.210193C22.4513 0.290332 29.2507 4.61025 30.2605 12.3966C31.4203 21.3346 25.2068 28.7943 16.4662 28.8172C6.85013 28.8416 1.00134 20.3108 2.53022 12.6482C2.55865 12.2725 2.61385 11.8993 2.69539 11.5315C2.88404 9.56764 3.45365 7.65961 4.37224 5.91452C3.26487 6.48872 1.85476 8.30468 1.15891 9.9868C0.145957 12.5533 -0.211179 15.3326 0.11992 18.0725C0.143915 18.28 0.16551 18.4872 0.192705 18.6932C1.32836 25.2452 6.37844 30.4172 12.8912 31.6984C19.4041 32.9796 26.031 30.1047 29.5548 24.4693C33.0787 18.8339 32.7697 11.6049 28.778 6.29198Z" fill="url(#paint2_radial)"/>
<path d="M28.778 6.29198C25.8935 2.45873 21.4274 0.14571 16.6381 0.00463533C12.9237 -0.0698944 10.3578 1.04845 8.90611 1.94762C10.8485 0.818852 13.6595 0.178538 16.1206 0.210193C22.4513 0.290332 29.2507 4.61025 30.2605 12.3966C31.4203 21.3346 25.2068 28.7943 16.4662 28.8172C6.85013 28.8416 1.00134 20.3108 2.53022 12.6482C2.55865 12.2725 2.61385 11.8993 2.69539 11.5315C2.88404 9.56764 3.45365 7.65961 4.37224 5.91452C3.26487 6.48872 1.85476 8.30468 1.15891 9.9868C0.145957 12.5533 -0.211179 15.3326 0.11992 18.0725C0.143915 18.28 0.16551 18.4872 0.192705 18.6932C1.32836 25.2452 6.37844 30.4172 12.8912 31.6984C19.4041 32.9796 26.031 30.1047 29.5548 24.4693C33.0787 18.8339 32.7697 11.6049 28.778 6.29198Z" fill="url(#paint3_radial)"/>
<path d="M28.778 6.29198C25.8935 2.45873 21.4274 0.14571 16.6381 0.00463533C12.9237 -0.0698944 10.3578 1.04845 8.90611 1.94762C10.8485 0.818852 13.6595 0.178538 16.1206 0.210193C22.4513 0.290332 29.2507 4.61025 30.2605 12.3966C31.4203 21.3346 25.2068 28.7943 16.4662 28.8172C6.85013 28.8416 1.00134 20.3108 2.53022 12.6482C2.55865 12.2725 2.61385 11.8993 2.69539 11.5315C2.88404 9.56764 3.45365 7.65961 4.37224 5.91452C3.26487 6.48872 1.85476 8.30468 1.15891 9.9868C0.145957 12.5533 -0.211179 15.3326 0.11992 18.0725C0.143915 18.28 0.16551 18.4872 0.192705 18.6932C1.32836 25.2452 6.37844 30.4172 12.8912 31.6984C19.4041 32.9796 26.031 30.1047 29.5548 24.4693C33.0787 18.8339 32.7697 11.6049 28.778 6.29198Z" fill="url(#paint4_radial)"/>
<path d="M30.2608 12.3961C30.3863 13.3586 30.4265 14.3304 30.3808 15.3C30.9114 15.2198 31.4429 15.149 31.9753 15.0876C31.8067 11.9022 30.6936 8.83956 28.7783 6.29149C25.8938 2.45824 21.4277 0.145222 16.6384 0.00414705C12.924 -0.0703826 10.3581 1.04796 8.90643 1.94713C10.8488 0.818364 13.6599 0.17805 16.1209 0.209705C22.4516 0.290646 29.251 4.60856 30.2608 12.3961Z" fill="url(#paint5_linear)"/>
<path d="M30.6502 11.9517C29.75 3.81434 22.5071 0.15678 16.1208 0.209672C13.6593 0.229707 10.8487 0.818331 8.90626 1.94709C8.39228 2.25246 7.91464 2.61542 7.48255 3.02898C7.53414 2.9861 7.68811 2.85908 7.94326 2.68358L7.96845 2.66635L7.99085 2.65112C8.93343 2.01259 9.97196 1.52938 11.067 1.21983C12.7825 0.744736 14.5605 0.536218 16.3391 0.601554C23.179 1.0108 28.5889 6.56015 28.8366 13.4211C28.9833 18.7131 24.6606 22.9324 19.6776 23.1768C16.0536 23.3547 12.6391 21.5977 10.9714 18.0828C10.5813 17.2823 10.3164 16.4264 10.186 15.5452C9.39576 10.1958 12.981 5.63391 16.2687 4.50434C14.4951 2.95204 10.0508 3.05743 6.74311 5.49567C4.3612 7.25153 2.81592 9.92297 2.30402 13.1089C1.93574 15.5535 2.25999 18.0525 3.23983 20.3215C5.31522 25.228 9.96676 28.5494 15.273 28.9136C15.6699 28.9441 16.0677 28.9592 16.4663 28.9589C27.0489 28.9589 31.64 20.9101 30.6502 11.9517V11.9517Z" fill="url(#paint6_radial)"/>
<path d="M30.6502 11.9517C29.75 3.81434 22.5071 0.15678 16.1208 0.209672C13.6593 0.229707 10.8487 0.818331 8.90626 1.94709C8.39228 2.25246 7.91464 2.61542 7.48255 3.02898C7.53414 2.9861 7.68811 2.85908 7.94326 2.68358L7.96845 2.66635L7.99085 2.65112C8.93343 2.01259 9.97196 1.52938 11.067 1.21983C12.7825 0.744736 14.5605 0.536218 16.3391 0.601554C23.179 1.0108 28.5889 6.56015 28.8366 13.4211C28.9833 18.7131 24.6606 22.9324 19.6776 23.1768C16.0536 23.3547 12.6391 21.5977 10.9714 18.0828C10.5813 17.2823 10.3164 16.4264 10.186 15.5452C9.39576 10.1958 12.981 5.63391 16.2687 4.50434C14.4951 2.95204 10.0508 3.05743 6.74311 5.49567C4.3612 7.25153 2.81592 9.92297 2.30402 13.1089C1.93574 15.5535 2.25999 18.0525 3.23983 20.3215C5.31522 25.228 9.96676 28.5494 15.273 28.9136C15.6699 28.9441 16.0677 28.9592 16.4663 28.9589C27.0489 28.9589 31.64 20.9101 30.6502 11.9517V11.9517Z" fill="url(#paint7_radial)"/>
<g style="mix-blend-mode:multiply" opacity="0.53">
<path d="M30.6502 11.9517C29.75 3.81434 22.5071 0.15678 16.1208 0.209672C13.6593 0.229707 10.8487 0.818331 8.90626 1.94709C8.39228 2.25246 7.91464 2.61542 7.48255 3.02898C7.53414 2.9861 7.68811 2.85908 7.94326 2.68358L7.96845 2.66635L7.99085 2.65112C8.93343 2.01259 9.97196 1.52938 11.067 1.21983C12.7825 0.744736 14.5605 0.536218 16.3391 0.601554C23.179 1.0108 28.5889 6.56015 28.8366 13.4211C28.9833 18.7131 24.6606 22.9324 19.6776 23.1768C16.0536 23.3547 12.6391 21.5977 10.9714 18.0828C10.5813 17.2823 10.3164 16.4264 10.186 15.5452C9.39576 10.1958 12.981 5.63391 16.2687 4.50434C14.4951 2.95204 10.0508 3.05743 6.74311 5.49567C4.3612 7.25153 2.81592 9.92297 2.30402 13.1089C1.93574 15.5535 2.25999 18.0525 3.23983 20.3215C5.31522 25.228 9.96676 28.5494 15.273 28.9136C15.6699 28.9441 16.0677 28.9592 16.4663 28.9589C27.0489 28.9589 31.64 20.9101 30.6502 11.9517V11.9517Z" fill="url(#paint8_radial)"/>
</g>
<g style="mix-blend-mode:multiply" opacity="0.53">
<path d="M30.6502 11.9517C29.75 3.81434 22.5071 0.15678 16.1208 0.209672C13.6593 0.229707 10.8487 0.818331 8.90626 1.94709C8.39228 2.25246 7.91464 2.61542 7.48255 3.02898C7.53414 2.9861 7.68811 2.85908 7.94326 2.68358L7.96845 2.66635L7.99085 2.65112C8.93343 2.01259 9.97196 1.52938 11.067 1.21983C12.7825 0.744736 14.5605 0.536218 16.3391 0.601554C23.179 1.0108 28.5889 6.56015 28.8366 13.4211C28.9833 18.7131 24.6606 22.9324 19.6776 23.1768C16.0536 23.3547 12.6391 21.5977 10.9714 18.0828C10.5813 17.2823 10.3164 16.4264 10.186 15.5452C9.39576 10.1958 12.981 5.63391 16.2687 4.50434C14.4951 2.95204 10.0508 3.05743 6.74311 5.49567C4.3612 7.25153 2.81592 9.92297 2.30402 13.1089C1.93574 15.5535 2.25999 18.0525 3.23983 20.3215C5.31522 25.228 9.96676 28.5494 15.273 28.9136C15.6699 28.9441 16.0677 28.9592 16.4663 28.9589C27.0489 28.9589 31.64 20.9101 30.6502 11.9517V11.9517Z" fill="url(#paint9_radial)"/>
</g>
<path d="M19.678 23.1769C26.5166 22.7601 29.444 17.0863 29.6275 13.0613C29.9139 6.77231 26.1903 -0.00748116 16.3395 0.601579C14.5608 0.536634 12.7828 0.745558 11.0674 1.22106C9.97722 1.54374 8.94064 2.02605 7.9912 2.65235L7.96881 2.66757L7.94361 2.6848C7.79058 2.79166 7.64088 2.90412 7.49451 3.02219C10.0443 1.59364 12.9904 1.03977 15.8836 1.44505C21.5392 2.18874 26.7101 6.59681 26.7101 12.4133C26.7101 16.8887 23.2585 20.3071 19.2165 20.0614C13.2117 19.7008 11.698 13.5301 14.8218 10.8638C13.9796 10.6823 12.3967 11.0381 11.2945 12.689C10.3055 14.1716 10.3615 16.4596 10.9718 18.0828C12.5295 21.4339 15.9996 23.4643 19.678 23.1769Z" fill="url(#paint10_radial)"/>
<path d="M27.3856 4.6959C26.9895 4.27628 26.565 3.88454 26.115 3.52346C26.3739 3.74934 26.6208 3.98876 26.8545 4.24071C27.7299 5.17668 28.3956 6.28928 28.8069 7.50399C29.6423 10.04 29.5879 13.2139 27.9927 15.7067C26.1899 18.5495 23.011 20.2135 19.6524 20.0723C19.508 20.0723 19.3624 20.0723 19.2161 20.0614C13.2113 19.7008 11.6976 13.5301 14.8218 10.8638C13.9791 10.6823 12.3963 11.0381 11.2941 12.689C10.3051 14.1716 10.3611 16.4596 10.9714 18.0828C10.5814 17.2823 10.3166 16.4264 10.1863 15.5452C9.39568 10.1959 12.9809 5.63393 16.2687 4.50437C14.495 2.95207 10.0507 3.05745 6.74303 5.49569C4.79758 6.95277 3.38096 9.0072 2.70906 11.3459C2.92319 9.44811 3.48717 7.60668 4.37232 5.91522C3.26494 6.48942 1.85483 8.30538 1.15898 9.98751C0.146229 12.5536 -0.210904 15.3325 0.119992 18.072C0.143987 18.2795 0.165582 18.4867 0.192777 18.6927C1.32843 25.2447 6.37851 30.4167 12.8913 31.6979C19.4041 32.9791 26.0311 30.1042 29.5549 24.4688C33.0787 18.8334 32.7698 11.6044 28.7781 6.29148C28.3496 5.72939 27.8844 5.19636 27.3856 4.6959Z" fill="url(#paint11_linear)"/>
<path d="M28.8068 7.50399C28.3955 6.28924 27.7299 5.17661 26.8544 4.24071C25.814 3.15452 24.5807 2.2722 23.2175 1.63898C22.0795 1.07693 20.8795 0.650737 19.6423 0.369173C17.4612 -0.109166 15.2042 -0.122817 13.0176 0.329103C10.7449 0.80994 8.7465 1.79525 7.48236 3.027C8.49034 2.45644 9.57071 2.02512 10.6941 1.74477C15.1301 0.627851 19.8285 1.85105 23.1607 4.99041C23.8253 5.62191 24.4071 6.33553 24.892 7.11411C26.8496 10.3033 26.6644 14.3126 25.1379 16.6771C24.0042 18.4338 21.5759 20.0831 19.3103 20.0638C22.7846 20.3266 26.1212 18.6525 27.9925 15.7079C29.5878 13.2139 29.6422 10.04 28.8068 7.50399Z" fill="url(#paint12_linear)"/>
<path d="M28.8068 7.50399C28.3955 6.28924 27.7299 5.17661 26.8544 4.24071C25.814 3.15452 24.5807 2.2722 23.2175 1.63898C22.0795 1.07693 20.8795 0.650737 19.6423 0.369173C17.4612 -0.109166 15.2042 -0.122817 13.0176 0.329103C10.7449 0.80994 8.7465 1.79525 7.48236 3.027C8.49034 2.45644 9.57071 2.02512 10.6941 1.74477C15.1301 0.627851 19.8285 1.85105 23.1607 4.99041C23.8253 5.62191 24.4071 6.33553 24.892 7.11411C26.8496 10.3033 26.6644 14.3126 25.1379 16.6771C24.0042 18.4338 21.5759 20.0831 19.3103 20.0638C22.7846 20.3266 26.1212 18.6525 27.9925 15.7079C29.5878 13.2139 29.6422 10.04 28.8068 7.50399Z" fill="url(#paint13_linear)"/>
<path d="M44.4996 7.94599H55.2091V10.8415H47.5721V14.768H55.2091V17.6415H47.5721V23.9585H44.4996V7.94599ZM58.8521 6.82699C59.0895 6.81915 59.326 6.86053 59.5467 6.94851C59.7674 7.0365 59.9675 7.16919 60.1345 7.33824C60.3014 7.5073 60.4316 7.70906 60.5168 7.93084C60.602 8.15263 60.6404 8.38964 60.6296 8.62699C60.6417 8.86657 60.6034 9.10603 60.5173 9.3299C60.4311 9.55378 60.2989 9.75709 60.1293 9.92672C59.9597 10.0963 59.7564 10.2285 59.5325 10.3147C59.3086 10.4008 59.0692 10.4391 58.8296 10.427C58.5951 10.4378 58.3608 10.3998 58.1417 10.3156C57.9226 10.2314 57.7232 10.1027 57.5563 9.93764C57.3894 9.77258 57.2584 9.57473 57.1717 9.35655C57.085 9.13838 57.0445 8.90461 57.0526 8.66999C57.0436 8.42923 57.0837 8.18916 57.1704 7.96437C57.2571 7.73959 57.3886 7.53478 57.5569 7.36239C57.7252 7.19001 57.9268 7.05365 58.1495 6.96161C58.3721 6.86957 58.6112 6.82377 58.8521 6.82699V6.82699ZM57.3381 12.1135H60.3666V23.9585H57.3381V12.1135ZM69.1446 15.404C68.7251 15.0729 68.2089 14.888 67.6746 14.8775C66.4456 14.8775 65.7431 15.667 65.7431 17.4V23.9585H62.7366V12.1135H65.6116V13.8245C65.8255 13.2574 66.2163 12.7741 66.7262 12.4463C67.236 12.1184 67.8378 11.9634 68.4426 12.004C69.1618 12.0022 69.8651 12.2161 70.4616 12.618L69.1446 15.404ZM70.3946 18.104C70.3719 17.2907 70.5133 16.4812 70.8102 15.7236C71.1071 14.9661 71.5534 14.2761 72.1227 13.6948C72.6919 13.1135 73.3724 12.6527 74.1235 12.34C74.8746 12.0272 75.681 11.8689 76.4946 11.8745C80.0496 11.8745 82.5736 14.397 82.5736 17.9065V19.1565H73.3581C73.6876 20.648 74.8506 21.635 76.6281 21.635C77.2347 21.6539 77.8341 21.4987 78.3553 21.1877C78.8765 20.8767 79.2977 20.4229 79.5691 19.88L82.0926 21.394C80.8426 23.2365 79.0641 24.2015 76.5426 24.2015C72.6996 24.2 70.3956 21.6335 70.3956 18.1L70.3946 18.104ZM73.4011 16.766H79.6346C79.3056 15.2525 78.0766 14.419 76.4746 14.419C75.7701 14.3937 75.0787 14.6136 74.5184 15.0413C73.958 15.4689 73.5635 16.0778 73.4021 16.764L73.4011 16.766ZM83.3206 12.116H85.4496V11.5215C85.4496 8.29699 86.8101 6.95899 89.7946 6.95899H90.8496V9.56899H89.9931C88.5886 9.56899 88.2816 10.0515 88.2816 11.519V12.111H90.8496V14.831H88.3496V23.956H85.4496V14.8335H83.3216L83.3206 12.116ZM91.4206 18.0385C91.4073 17.2233 91.5585 16.4137 91.8652 15.6583C92.1718 14.9028 92.6276 14.2169 93.2053 13.6416C93.783 13.0662 94.4708 12.6133 95.2275 12.3097C95.9843 12.0062 96.7944 11.8583 97.6096 11.875C98.4237 11.8677 99.2312 12.0217 99.9854 12.3281C100.74 12.6346 101.426 13.0875 102.004 13.6605C102.582 14.2336 103.041 14.9156 103.355 15.6671C103.668 16.4185 103.829 17.2246 103.829 18.0387C103.829 18.8529 103.668 19.659 103.355 20.4104C103.041 21.1619 102.582 21.8438 102.004 22.4169C101.426 22.99 100.74 23.4429 99.9854 23.7493C99.2312 24.0558 98.4237 24.2098 97.6096 24.2025C96.7907 24.2323 95.9744 24.0933 95.2115 23.7943C94.4486 23.4952 93.7553 23.0425 93.1748 22.4641C92.5943 21.8858 92.1389 21.1943 91.8369 20.4325C91.535 19.6707 91.3929 18.855 91.4196 18.036L91.4206 18.0385ZM100.858 18.0385C100.873 17.6024 100.8 17.1676 100.644 16.7602C100.488 16.3528 100.251 15.981 99.9476 15.6671C99.6445 15.3531 99.2813 15.1034 98.8796 14.9329C98.4779 14.7624 98.046 14.6745 97.6096 14.6745C97.1732 14.6745 96.7413 14.7624 96.3396 14.9329C95.9379 15.1034 95.5746 15.3531 95.2715 15.6671C94.9684 15.981 94.7316 16.3528 94.5753 16.7602C94.4189 17.1676 94.3463 17.6024 94.3616 18.0385C94.3463 18.4746 94.4189 18.9094 94.5753 19.3168C94.7316 19.7242 94.9684 20.096 95.2715 20.4099C95.5746 20.7239 95.9379 20.9735 96.3396 21.1441C96.7413 21.3146 97.1732 21.4025 97.6096 21.4025C98.046 21.4025 98.4779 21.3146 98.8796 21.1441C99.2813 20.9735 99.6445 20.7239 99.9476 20.4099C100.251 20.096 100.488 19.7242 100.644 19.3168C100.8 18.9094 100.873 18.4746 100.858 18.0385V18.0385ZM107.88 17.907L103.6 12.1135H107.155L109.679 15.755L112.268 12.1135H115.758L111.412 17.8825L115.977 23.9585H112.444L109.613 20.1L106.87 23.9605H103.336L107.88 17.907Z" fill="#20123A"/>
<defs>
<radialGradient id="paint0_radial" cx="0" cy="0" r="1" gradientUnits="userSpaceOnUse" gradientTransform="translate(28.6129 6.56645) scale(36.3045 36.3038)">
<stop stop-color="#FFF36E"/>
<stop offset="0.5" stop-color="#FC4055"/>
<stop offset="1" stop-color="#E31587"/>
</radialGradient>
<radialGradient id="paint1_radial" cx="0" cy="0" r="1" gradientUnits="userSpaceOnUse" gradientTransform="translate(2.6574 8.07107) scale(21.486 21.4856)">
<stop offset="0.001" stop-color="#C60084"/>
<stop offset="1" stop-color="#FC4055" stop-opacity="0.01"/>
</radialGradient>
<radialGradient id="paint2_radial" cx="0" cy="0" r="1" gradientUnits="userSpaceOnUse" gradientTransform="translate(31.7162 4.49645) scale(42.6308 42.63)">
<stop stop-color="#FFDE67" stop-opacity="0.6"/>
<stop offset="0.093" stop-color="#FFD966" stop-opacity="0.581"/>
<stop offset="0.203" stop-color="#FFCA65" stop-opacity="0.525"/>
<stop offset="0.321" stop-color="#FEB262" stop-opacity="0.432"/>
<stop offset="0.446" stop-color="#FE8F5E" stop-opacity="0.302"/>
<stop offset="0.573" stop-color="#FD6459" stop-opacity="0.137"/>
<stop offset="0.664" stop-color="#FC4055" stop-opacity="0.01"/>
</radialGradient>
<radialGradient id="paint3_radial" cx="0" cy="0" r="1" gradientUnits="userSpaceOnUse" gradientTransform="translate(16.9169 17.7936) scale(54.9971 54.9961)">
<stop offset="0.153" stop-color="#810220"/>
<stop offset="0.167" stop-color="#920B27" stop-opacity="0.861"/>
<stop offset="0.216" stop-color="#CB2740" stop-opacity="0.398"/>
<stop offset="0.253" stop-color="#EF394F" stop-opacity="0.11"/>
<stop offset="0.272" stop-color="#FC4055" stop-opacity="0.01"/>
</radialGradient>
<radialGradient id="paint4_radial" cx="0" cy="0" r="1" gradientUnits="userSpaceOnUse" gradientTransform="translate(12.7549 17.1008) scale(54.9971 54.9961)">
<stop offset="0.113" stop-color="#810220"/>
<stop offset="0.133" stop-color="#920B27" stop-opacity="0.861"/>
<stop offset="0.204" stop-color="#CB2740" stop-opacity="0.398"/>
<stop offset="0.257" stop-color="#EF394F" stop-opacity="0.11"/>
<stop offset="0.284" stop-color="#FC4055" stop-opacity="0.01"/>
</radialGradient>
<linearGradient id="paint5_linear" x1="6.00873" y1="6.24488" x2="10.4711" y2="23.8517" gradientUnits="userSpaceOnUse">
<stop stop-color="#FFBD4F"/>
<stop offset="0.508" stop-color="#FF9640" stop-opacity="0.01"/>
</linearGradient>
<radialGradient id="paint6_radial" cx="0" cy="0" r="1" gradientUnits="userSpaceOnUse" gradientTransform="translate(27.7833 4.8455) scale(34.0808 34.2293)">
<stop stop-color="#FF9640"/>
<stop offset="0.8" stop-color="#FC4055"/>
</radialGradient>
<radialGradient id="paint7_radial" cx="0" cy="0" r="1" gradientUnits="userSpaceOnUse" gradientTransform="translate(27.7833 4.8455) scale(34.0808 34.2293)">
<stop offset="0.084" stop-color="#FFDE67"/>
<stop offset="0.147" stop-color="#FFDC66" stop-opacity="0.968"/>
<stop offset="0.246" stop-color="#FFD562" stop-opacity="0.879"/>
<stop offset="0.369" stop-color="#FFCB5D" stop-opacity="0.734"/>
<stop offset="0.511" stop-color="#FFBC55" stop-opacity="0.533"/>
<stop offset="0.667" stop-color="#FFAA4B" stop-opacity="0.28"/>
<stop offset="0.822" stop-color="#FF9640" stop-opacity="0.01"/>
</radialGradient>
<radialGradient id="paint8_radial" cx="0" cy="0" r="1" gradientUnits="userSpaceOnUse" gradientTransform="translate(19.9773 15.4887) rotate(75.7546) scale(16.7754 16.7114)">
<stop offset="0.363" stop-color="#FC4055"/>
<stop offset="0.443" stop-color="#FD604D" stop-opacity="0.633"/>
<stop offset="0.545" stop-color="#FE8644" stop-opacity="0.181"/>
<stop offset="0.59" stop-color="#FF9640" stop-opacity="0.01"/>
</radialGradient>
<radialGradient id="paint9_radial" cx="0" cy="0" r="1" gradientUnits="userSpaceOnUse" gradientTransform="translate(17.0978 16.8691) scale(16.7126 16.7853)">
<stop offset="0.216" stop-color="#FC4055" stop-opacity="0.8"/>
<stop offset="0.267" stop-color="#FD5251" stop-opacity="0.633"/>
<stop offset="0.41" stop-color="#FE8345" stop-opacity="0.181"/>
<stop offset="0.474" stop-color="#FF9640" stop-opacity="0.01"/>
</radialGradient>
<radialGradient id="paint10_radial" cx="0" cy="0" r="1" gradientUnits="userSpaceOnUse" gradientTransform="translate(34.5854 0.980191) scale(57.6029 58.8831)">
<stop offset="0.054" stop-color="#FFF36E"/>
<stop offset="0.457" stop-color="#FF9640"/>
<stop offset="0.639" stop-color="#FF9640"/>
</radialGradient>
<linearGradient id="paint11_linear" x1="7.7013" y1="-4.45098" x2="-5.87696" y2="25.2048" gradientUnits="userSpaceOnUse">
<stop stop-color="#FFF36E" stop-opacity="0.8"/>
<stop offset="0.094" stop-color="#FFF36E" stop-opacity="0.699"/>
<stop offset="0.752" stop-color="#FFF36E" stop-opacity="0.01"/>
</linearGradient>
<linearGradient id="paint12_linear" x1="2.53219" y1="3.72304" x2="9.97403" y2="29.2779" gradientUnits="userSpaceOnUse">
<stop stop-color="#B833E1"/>
<stop offset="0.371" stop-color="#9059FF"/>
<stop offset="0.614" stop-color="#5B6DF8"/>
<stop offset="1" stop-color="#0090ED"/>
</linearGradient>
<linearGradient id="paint13_linear" x1="2.29031" y1="7.54826" x2="16.9673" y2="24.9553" gradientUnits="userSpaceOnUse">
<stop offset="0.805" stop-color="#722291" stop-opacity="0.01"/>
<stop offset="1" stop-color="#592ACB" stop-opacity="0.5"/>
</linearGradient>
</defs>
</svg>
