<svg width="117" height="32" fill="none" xmlns="http://www.w3.org/2000/svg"><path d="M28.778 6.292A15.775 15.775 0 0016.638.005c-3.714-.075-6.28 1.043-7.732 1.943C10.848.818 13.66.178 16.121.21c6.33.08 13.13 4.4 14.14 12.187 1.16 8.938-5.054 16.397-13.795 16.42-9.616.025-15.465-8.506-13.936-16.169a7.92 7.92 0 01.165-1.117 15.174 15.174 0 011.677-5.616c-1.107.574-2.517 2.39-3.213 4.072a16.6 16.6 0 00-1.04 8.086c.025.207.047.414.074.62A16.038 16.038 0 0012.89 31.698a16.009 16.009 0 0016.664-7.229 16.078 16.078 0 00-.777-18.177z" fill="url(#paint0_radial)"/><path opacity=".67" d="M28.778 6.292A15.775 15.775 0 0016.638.005c-3.714-.075-6.28 1.043-7.732 1.943C10.848.818 13.66.178 16.121.21c6.33.08 13.13 4.4 14.14 12.187 1.16 8.938-5.054 16.397-13.795 16.42-9.616.025-15.465-8.506-13.936-16.169a7.92 7.92 0 01.165-1.117 15.174 15.174 0 011.677-5.616c-1.107.574-2.517 2.39-3.213 4.072a16.6 16.6 0 00-1.04 8.086c.025.207.047.414.074.62A16.038 16.038 0 0012.89 31.698a16.009 16.009 0 0016.664-7.229 16.078 16.078 0 00-.777-18.177z" fill="url(#paint1_radial)"/><path d="M28.778 6.292A15.775 15.775 0 0016.638.005c-3.714-.075-6.28 1.043-7.732 1.943C10.848.818 13.66.178 16.121.21c6.33.08 13.13 4.4 14.14 12.187 1.16 8.938-5.054 16.397-13.795 16.42-9.616.025-15.465-8.506-13.936-16.169a7.92 7.92 0 01.165-1.117 15.174 15.174 0 011.677-5.616c-1.107.574-2.517 2.39-3.213 4.072a16.6 16.6 0 00-1.04 8.086c.025.207.047.414.074.62A16.038 16.038 0 0012.89 31.698a16.009 16.009 0 0016.664-7.229 16.078 16.078 0 00-.777-18.177z" fill="url(#paint2_radial)"/><path d="M28.778 6.292A15.775 15.775 0 0016.638.005c-3.714-.075-6.28 1.043-7.732 1.943C10.848.818 13.66.178 16.121.21c6.33.08 13.13 4.4 14.14 12.187 1.16 8.938-5.054 16.397-13.795 16.42-9.616.025-15.465-8.506-13.936-16.169a7.92 7.92 0 01.165-1.117 15.174 15.174 0 011.677-5.616c-1.107.574-2.517 2.39-3.213 4.072a16.6 16.6 0 00-1.04 8.086c.025.207.047.414.074.62A16.038 16.038 0 0012.89 31.698a16.009 16.009 0 0016.664-7.229 16.078 16.078 0 00-.777-18.177z" fill="url(#paint3_radial)"/><path d="M28.778 6.292A15.775 15.775 0 0016.638.005c-3.714-.075-6.28 1.043-7.732 1.943C10.848.818 13.66.178 16.121.21c6.33.08 13.13 4.4 14.14 12.187 1.16 8.938-5.054 16.397-13.795 16.42-9.616.025-15.465-8.506-13.936-16.169a7.92 7.92 0 01.165-1.117 15.174 15.174 0 011.677-5.616c-1.107.574-2.517 2.39-3.213 4.072a16.6 16.6 0 00-1.04 8.086c.025.207.047.414.074.62A16.038 16.038 0 0012.89 31.698a16.009 16.009 0 0016.664-7.229 16.078 16.078 0 00-.777-18.177z" fill="url(#paint4_radial)"/><path d="M30.26 12.396c.126.963.166 1.934.12 2.904.531-.08 1.063-.151 1.595-.212a16.052 16.052 0 00-3.197-8.797A15.775 15.775 0 0016.638.004c-3.714-.074-6.28 1.044-7.732 1.943C10.85.818 13.66.178 16.121.21c6.33.08 13.13 4.399 14.14 12.186z" fill="url(#paint5_linear)"/><path d="M30.65 11.952C29.75 3.814 22.507.157 16.12.21c-2.46.02-5.271.608-7.214 1.737A7.88 7.88 0 007.483 3.03c.051-.043.205-.17.46-.345l.025-.018.023-.015a10.65 10.65 0 013.076-1.431 17.364 17.364 0 015.272-.618c6.84.409 12.25 5.958 12.498 12.82.146 5.291-4.176 9.51-9.16 9.755-3.623.178-7.038-1.58-8.706-5.094a8.7 8.7 0 01-.785-2.538c-.79-5.35 2.795-9.911 6.083-11.04-1.774-1.553-6.218-1.448-9.526.99-2.382 1.757-3.927 4.428-4.439 7.614a13.225 13.225 0 00.936 7.213 14.119 14.119 0 0012.033 8.592c.397.03.795.045 1.193.045 10.583 0 15.174-8.049 14.184-17.007z" fill="url(#paint6_radial)"/><path d="M30.65 11.952C29.75 3.814 22.507.157 16.12.21c-2.46.02-5.271.608-7.214 1.737A7.88 7.88 0 007.483 3.03c.051-.043.205-.17.46-.345l.025-.018.023-.015a10.65 10.65 0 013.076-1.431 17.364 17.364 0 015.272-.618c6.84.409 12.25 5.958 12.498 12.82.146 5.291-4.176 9.51-9.16 9.755-3.623.178-7.038-1.58-8.706-5.094a8.7 8.7 0 01-.785-2.538c-.79-5.35 2.795-9.911 6.083-11.04-1.774-1.553-6.218-1.448-9.526.99-2.382 1.757-3.927 4.428-4.439 7.614a13.225 13.225 0 00.936 7.213 14.119 14.119 0 0012.033 8.592c.397.03.795.045 1.193.045 10.583 0 15.174-8.049 14.184-17.007z" fill="url(#paint7_radial)"/><path d="M30.65 11.952C29.75 3.814 22.507.157 16.12.21c-2.46.02-5.271.608-7.214 1.737A7.88 7.88 0 007.483 3.03c.051-.043.205-.17.46-.345l.025-.018.023-.015a10.65 10.65 0 013.076-1.431 17.364 17.364 0 015.272-.618c6.84.409 12.25 5.958 12.498 12.82.146 5.291-4.176 9.51-9.16 9.755-3.623.178-7.038-1.58-8.706-5.094a8.7 8.7 0 01-.785-2.538c-.79-5.35 2.795-9.911 6.083-11.04-1.774-1.553-6.218-1.448-9.526.99-2.382 1.757-3.927 4.428-4.439 7.614a13.225 13.225 0 00.936 7.213 14.119 14.119 0 0012.033 8.592c.397.03.795.045 1.193.045 10.583 0 15.174-8.049 14.184-17.007z" fill="url(#paint8_radial)" opacity=".53"/><path d="M30.65 11.952C29.75 3.814 22.507.157 16.12.21c-2.46.02-5.271.608-7.214 1.737A7.88 7.88 0 007.483 3.03c.051-.043.205-.17.46-.345l.025-.018.023-.015a10.65 10.65 0 013.076-1.431 17.364 17.364 0 015.272-.618c6.84.409 12.25 5.958 12.498 12.82.146 5.291-4.176 9.51-9.16 9.755-3.623.178-7.038-1.58-8.706-5.094a8.7 8.7 0 01-.785-2.538c-.79-5.35 2.795-9.911 6.083-11.04-1.774-1.553-6.218-1.448-9.526.99-2.382 1.757-3.927 4.428-4.439 7.614a13.225 13.225 0 00.936 7.213 14.119 14.119 0 0012.033 8.592c.397.03.795.045 1.193.045 10.583 0 15.174-8.049 14.184-17.007z" fill="url(#paint9_radial)" opacity=".53"/><path d="M19.678 23.177c6.839-.417 9.766-6.09 9.95-10.116C29.914 6.772 26.19-.007 16.34.601a17.364 17.364 0 00-5.273.62c-1.09.323-2.126.805-3.076 1.431l-.022.016-.025.017c-.153.107-.303.22-.45.337a13.368 13.368 0 018.39-1.577c5.655.744 10.826 5.152 10.826 10.968 0 4.476-3.451 7.894-7.494 7.648-6.004-.36-7.518-6.53-4.394-9.197-.842-.182-2.425.174-3.527 1.825-.99 1.483-.934 3.77-.323 5.394a8.843 8.843 0 008.706 5.094z" fill="url(#paint10_radial)"/><path d="M27.386 4.696c-.396-.42-.821-.811-1.271-1.173.259.226.506.466.74.718a9.005 9.005 0 011.952 3.263c.835 2.536.78 5.71-.814 8.203a9.409 9.409 0 01-8.34 4.365c-.145 0-.29 0-.437-.01-6.005-.361-7.518-6.532-4.394-9.198-.843-.182-2.426.174-3.528 1.825-.989 1.483-.933 3.77-.323 5.394a8.7 8.7 0 01-.785-2.538c-.79-5.35 2.795-9.911 6.083-11.04-1.774-1.553-6.218-1.448-9.526.99a11.158 11.158 0 00-4.034 5.85c.214-1.897.778-3.738 1.663-5.43-1.107.574-2.517 2.39-3.213 4.073A16.6 16.6 0 00.12 18.072c.024.207.046.415.073.62A16.038 16.038 0 0012.89 31.699a16.009 16.009 0 0016.664-7.23 16.079 16.079 0 00-.777-18.177 16.008 16.008 0 00-1.392-1.595z" fill="url(#paint11_linear)"/><path d="M28.807 7.504a9.003 9.003 0 00-1.953-3.263 12.088 12.088 0 00-3.636-2.602 16.183 16.183 0 00-3.576-1.27 15.9 15.9 0 00-6.624-.04c-2.273.48-4.272 1.466-5.536 2.698a12.823 12.823 0 013.212-1.282A13.405 13.405 0 0123.161 4.99a10.82 10.82 0 011.731 2.124c1.958 3.19 1.772 7.199.246 9.563-1.134 1.757-3.562 3.406-5.828 3.387a9.444 9.444 0 008.683-4.356c1.595-2.494 1.65-5.668.814-8.204z" fill="url(#paint12_linear)"/><path d="M28.807 7.504a9.003 9.003 0 00-1.953-3.263 12.088 12.088 0 00-3.636-2.602 16.183 16.183 0 00-3.576-1.27 15.9 15.9 0 00-6.624-.04c-2.273.48-4.272 1.466-5.536 2.698a12.823 12.823 0 013.212-1.282A13.405 13.405 0 0123.161 4.99a10.82 10.82 0 011.731 2.124c1.958 3.19 1.772 7.199.246 9.563-1.134 1.757-3.562 3.406-5.828 3.387a9.444 9.444 0 008.683-4.356c1.595-2.494 1.65-5.668.814-8.204z" fill="url(#paint13_linear)"/><path d="M44.5 7.946h10.71v2.896h-7.638v3.926h7.637v2.873h-7.637v6.318H44.5V7.945zm14.352-1.119a1.722 1.722 0 011.778 1.8 1.717 1.717 0 01-1.8 1.8 1.7 1.7 0 01-1.777-1.757 1.776 1.776 0 011.8-1.843zm-1.514 5.287h3.029v11.845h-3.029V12.114zm11.807 3.29a2.45 2.45 0 00-1.47-.527c-1.23 0-1.932.79-1.932 2.523v6.559h-3.006V12.114h2.875v1.71a2.823 2.823 0 012.83-1.82 3.597 3.597 0 012.02.614l-1.317 2.786zm1.25 2.7a6.06 6.06 0 016.1-6.23c3.555 0 6.079 2.523 6.079 6.033v1.25h-9.216c.33 1.491 1.493 2.478 3.27 2.478a3.178 3.178 0 002.941-1.755l2.524 1.514c-1.25 1.843-3.029 2.808-5.55 2.808-3.843-.002-6.147-2.569-6.147-6.102l-.001.004zm3.006-1.338h6.234c-.33-1.513-1.558-2.347-3.16-2.347a3.044 3.044 0 00-3.073 2.345v.002zm9.92-4.65h2.129v-.595c0-3.224 1.36-4.562 4.345-4.562h1.055v2.61h-.857c-1.404 0-1.711.482-1.711 1.95v.592h2.568v2.72h-2.5v9.125h-2.9v-9.122h-2.128l-.001-2.718zm8.1 5.922a6.064 6.064 0 016.189-6.163 6.165 6.165 0 014.394 10.542 6.156 6.156 0 01-4.394 1.785 5.976 5.976 0 01-6.19-6.166v.002zm9.437 0a3.262 3.262 0 00-.91-2.37 3.248 3.248 0 00-5.586 2.37 3.249 3.249 0 106.496 0zm7.022-.131l-4.28-5.793h3.555l2.524 3.641 2.589-3.642h3.49l-4.346 5.77 4.565 6.076h-3.533l-2.831-3.859-2.743 3.86h-3.534l4.544-6.053z" fill="#20123A"/><defs><radialGradient id="paint0_radial" cx="0" cy="0" r="1" gradientUnits="userSpaceOnUse" gradientTransform="matrix(36.3045 0 0 36.3038 28.613 6.566)"><stop stop-color="#FFF36E"/><stop offset=".5" stop-color="#FC4055"/><stop offset="1" stop-color="#E31587"/></radialGradient><radialGradient id="paint1_radial" cx="0" cy="0" r="1" gradientUnits="userSpaceOnUse" gradientTransform="matrix(21.486 0 0 21.4856 2.657 8.071)"><stop offset=".001" stop-color="#C60084"/><stop offset="1" stop-color="#FC4055" stop-opacity=".01"/></radialGradient><radialGradient id="paint2_radial" cx="0" cy="0" r="1" gradientUnits="userSpaceOnUse" gradientTransform="matrix(42.6308 0 0 42.63 31.716 4.496)"><stop stop-color="#FFDE67" stop-opacity=".6"/><stop offset=".093" stop-color="#FFD966" stop-opacity=".581"/><stop offset=".203" stop-color="#FFCA65" stop-opacity=".525"/><stop offset=".321" stop-color="#FEB262" stop-opacity=".432"/><stop offset=".446" stop-color="#FE8F5E" stop-opacity=".302"/><stop offset=".573" stop-color="#FD6459" stop-opacity=".137"/><stop offset=".664" stop-color="#FC4055" stop-opacity=".01"/></radialGradient><radialGradient id="paint3_radial" cx="0" cy="0" r="1" gradientUnits="userSpaceOnUse" gradientTransform="matrix(54.9971 0 0 54.9961 16.917 17.794)"><stop offset=".153" stop-color="#810220"/><stop offset=".167" stop-color="#920B27" stop-opacity=".861"/><stop offset=".216" stop-color="#CB2740" stop-opacity=".398"/><stop offset=".253" stop-color="#EF394F" stop-opacity=".11"/><stop offset=".272" stop-color="#FC4055" stop-opacity=".01"/></radialGradient><radialGradient id="paint4_radial" cx="0" cy="0" r="1" gradientUnits="userSpaceOnUse" gradientTransform="matrix(54.9971 0 0 54.9961 12.755 17.1)"><stop offset=".113" stop-color="#810220"/><stop offset=".133" stop-color="#920B27" stop-opacity=".861"/><stop offset=".204" stop-color="#CB2740" stop-opacity=".398"/><stop offset=".257" stop-color="#EF394F" stop-opacity=".11"/><stop offset=".284" stop-color="#FC4055" stop-opacity=".01"/></radialGradient><radialGradient id="paint6_radial" cx="0" cy="0" r="1" gradientUnits="userSpaceOnUse" gradientTransform="matrix(34.0808 0 0 34.2293 27.783 4.846)"><stop stop-color="#FF9640"/><stop offset=".8" stop-color="#FC4055"/></radialGradient><radialGradient id="paint7_radial" cx="0" cy="0" r="1" gradientUnits="userSpaceOnUse" gradientTransform="matrix(34.0808 0 0 34.2293 27.783 4.846)"><stop offset=".084" stop-color="#FFDE67"/><stop offset=".147" stop-color="#FFDC66" stop-opacity=".968"/><stop offset=".246" stop-color="#FFD562" stop-opacity=".879"/><stop offset=".369" stop-color="#FFCB5D" stop-opacity=".734"/><stop offset=".511" stop-color="#FFBC55" stop-opacity=".533"/><stop offset=".667" stop-color="#FFAA4B" stop-opacity=".28"/><stop offset=".822" stop-color="#FF9640" stop-opacity=".01"/></radialGradient><radialGradient id="paint8_radial" cx="0" cy="0" r="1" gradientUnits="userSpaceOnUse" gradientTransform="rotate(75.755 .032 20.586) scale(16.7754 16.7114)"><stop offset=".363" stop-color="#FC4055"/><stop offset=".443" stop-color="#FD604D" stop-opacity=".633"/><stop offset=".545" stop-color="#FE8644" stop-opacity=".181"/><stop offset=".59" stop-color="#FF9640" stop-opacity=".01"/></radialGradient><radialGradient id="paint9_radial" cx="0" cy="0" r="1" gradientUnits="userSpaceOnUse" gradientTransform="matrix(16.7126 0 0 16.7853 17.098 16.87)"><stop offset=".216" stop-color="#FC4055" stop-opacity=".8"/><stop offset=".267" stop-color="#FD5251" stop-opacity=".633"/><stop offset=".41" stop-color="#FE8345" stop-opacity=".181"/><stop offset=".474" stop-color="#FF9640" stop-opacity=".01"/></radialGradient><radialGradient id="paint10_radial" cx="0" cy="0" r="1" gradientUnits="userSpaceOnUse" gradientTransform="matrix(57.6029 0 0 58.8831 34.585 .98)"><stop offset=".054" stop-color="#FFF36E"/><stop offset=".457" stop-color="#FF9640"/><stop offset=".639" stop-color="#FF9640"/></radialGradient><linearGradient id="paint5_linear" x1="6.009" y1="6.245" x2="10.471" y2="23.852" gradientUnits="userSpaceOnUse"><stop stop-color="#FFBD4F"/><stop offset=".508" stop-color="#FF9640" stop-opacity=".01"/></linearGradient><linearGradient id="paint11_linear" x1="7.701" y1="-4.451" x2="-5.877" y2="25.205" gradientUnits="userSpaceOnUse"><stop stop-color="#FFF36E" stop-opacity=".8"/><stop offset=".094" stop-color="#FFF36E" stop-opacity=".699"/><stop offset=".752" stop-color="#FFF36E" stop-opacity=".01"/></linearGradient><linearGradient id="paint12_linear" x1="2.532" y1="3.723" x2="9.974" y2="29.278" gradientUnits="userSpaceOnUse"><stop stop-color="#B833E1"/><stop offset=".371" stop-color="#9059FF"/><stop offset=".614" stop-color="#5B6DF8"/><stop offset="1" stop-color="#0090ED"/></linearGradient><linearGradient id="paint13_linear" x1="2.29" y1="7.548" x2="16.967" y2="24.955" gradientUnits="userSpaceOnUse"><stop offset=".805" stop-color="#722291" stop-opacity=".01"/><stop offset="1" stop-color="#592ACB" stop-opacity=".5"/></linearGradient></defs></svg>