<svg xmlns="http://www.w3.org/2000/svg" viewBox="0 0 96 96" width="96" height="96"><defs><linearGradient id="a" x1="64.065%" x2="27.226%" y1="6.588%" y2="88.848%"><stop offset="0%" stop-color="#FF9640"/><stop offset="60%" stop-color="#FC4055"/><stop offset="100%" stop-color="#E31587"/></linearGradient><linearGradient id="b" x1="64.065%" x2="27.226%" y1="6.588%" y2="88.848%"><stop offset="0%" stop-color="#FFF36E" stop-opacity=".8"/><stop offset="9%" stop-color="#FFF36E" stop-opacity=".7"/><stop offset="75%" stop-color="#FFF36E" stop-opacity="0"/></linearGradient><linearGradient id="c" x1="76.537%" x2="33.666%" y1="89.279%" y2="3.042%"><stop offset="0%" stop-color="#B833E1"/><stop offset="37%" stop-color="#9059FF"/><stop offset="61%" stop-color="#5B6DF8"/><stop offset="100%" stop-color="#0090ED"/></linearGradient><linearGradient id="d" x1="83.333%" x2="37.602%" y1="101.626%" y2="42.563%"><stop offset="0%" stop-color="#722291" stop-opacity=".5"/><stop offset="50%" stop-color="#722291" stop-opacity="0"/></linearGradient></defs><g fill="none" fill-rule="nonzero"><path fill="url(#a)" d="M44.687 51.863h.07c.183.011.367.011.55 0a4.765 4.765 0 01-.62 0zM62.763 12.34a36.46 36.46 0 00-26.47-11.17C15.922 1.17 0 17.362 0 38.037 0 57.19 29.502 89.795 32.874 93.46a4.768 4.768 0 007.025-6.451c-.094-.094-7.833-8.57-15.478-18.99C11.461 50.342 9.53 41.632 9.53 38.038 9.53 22.7 21.237 10.7 36.258 10.7a27.009 27.009 0 0119.644 8.254 26.201 26.201 0 017.318 19.329c-.281 7.598-7.926 19.621-15.325 28.847l-2.646 2.751c-2.552 2.178-6.404 1.346-8.511-1.253a254.515 254.515 0 006.766 7.985A5.924 5.924 0 0048 78.626a5.936 5.936 0 004.472-2.072c4.683-5.409 19.774-24.117 20.289-37.92a35.637 35.637 0 00-9.998-26.294zm-21.94 34.068v.164c.033-.286.092-.568.176-.843a4.683 4.683 0 00-.176.679z" transform="translate(11.707)"/><path fill="url(#b)" d="M44.687 51.863h.07c.183.011.367.011.55 0a4.765 4.765 0 01-.62 0zM62.763 12.34a36.46 36.46 0 00-26.47-11.17C15.922 1.17 0 17.362 0 38.037 0 57.19 29.502 89.795 32.874 93.46a4.768 4.768 0 007.025-6.451c-.094-.094-7.833-8.57-15.478-18.99C11.461 50.342 9.53 41.632 9.53 38.038 9.53 22.7 21.237 10.7 36.258 10.7a27.009 27.009 0 0119.644 8.254 26.201 26.201 0 017.318 19.329c-.281 7.598-7.926 19.621-15.325 28.847l-2.646 2.751c-2.552 2.178-6.404 1.346-8.511-1.253a254.515 254.515 0 006.766 7.985A5.924 5.924 0 0048 78.626a5.936 5.936 0 004.472-2.072c4.683-5.409 19.774-24.117 20.289-37.92a35.637 35.637 0 00-9.998-26.294zm-21.94 34.068v.164c.033-.286.092-.568.176-.843a4.683 4.683 0 00-.176.679z" transform="translate(11.707)"/><path fill="url(#c)" d="M45.26 69.881c-2.552 2.19-6.403 1.346-8.522-1.264l-.363-.445C22.805 51.36 20.347 43.188 19.902 40.25A16.074 16.074 0 0123.906 27.3a16.578 16.578 0 0112.878-5.408 16.133 16.133 0 0111.708 5.549 17.561 17.561 0 014.19 13.194 17.783 17.783 0 01-3.289 9.26 4.753 4.753 0 11-7.48-5.853 9.296 9.296 0 001.299-4.297 7.973 7.973 0 00-1.909-6.006A6.685 6.685 0 0036.48 31.4a7.095 7.095 0 00-5.502 2.271 6.474 6.474 0 00-1.628 5.292c.714 5.268 9.635 17.666 18.51 28.098l-2.6 2.821z" transform="translate(11.707)"/><path fill="url(#d)" d="M30.626 60.667a134.776 134.776 0 005.749 7.505l.363.445c2.119 2.61 5.97 3.442 8.522 1.264l2.646-2.751c-3.676-4.332-7.328-8.968-10.443-13.276l-6.837 6.813z" transform="translate(11.707)"/></g></svg>
