<svg width="91" height="24" fill="none" xmlns="http://www.w3.org/2000/svg"><path d="M33.608 4.908h-4.974a.69.69 0 00-.683.584L25.94 18.246a.415.415 0 00.41.478h2.375a.69.69 0 00.683-.584l.543-3.44a.691.691 0 01.682-.584h1.574c3.277 0 5.168-1.585 5.661-4.727.223-1.374.01-2.454-.634-3.21-.706-.831-1.96-1.27-3.625-1.27zm.574 4.659c-.272 1.784-1.636 1.784-2.955 1.784h-.75l.526-3.333a.415.415 0 01.41-.35h.344c.898 0 1.745 0 2.183.512.261.306.341.76.242 1.387zm14.293-.058h-2.381a.414.414 0 00-.41.35l-.105.666-.167-.241c-.515-.749-1.665-.999-2.813-.999-2.632 0-4.88 1.994-5.318 4.79-.227 1.395.096 2.729.888 3.659.726.855 1.764 1.211 3 1.211 2.12 0 3.296-1.363 3.296-1.363l-.106.662a.414.414 0 00.409.48h2.145a.69.69 0 00.683-.584l1.288-8.152a.412.412 0 00-.409-.479zm-3.32 4.636c-.23 1.36-1.31 2.274-2.687 2.274-.691 0-1.244-.222-1.599-.642-.352-.418-.486-1.012-.374-1.674.215-1.349 1.313-2.292 2.67-2.292.676 0 1.226.225 1.588.649.362.428.507 1.026.403 1.685zm16.006-4.636h-2.394a.694.694 0 00-.572.303l-3.301 4.863-1.4-4.673a.694.694 0 00-.663-.493H50.48a.415.415 0 00-.393.548l2.636 7.737-2.479 3.5a.415.415 0 00.339.654h2.39a.69.69 0 00.568-.297l7.961-11.49a.415.415 0 00-.34-.652z" fill="#253B80"/><path d="M69.085 4.908h-4.974a.691.691 0 00-.683.584l-2.011 12.754a.414.414 0 00.408.478h2.553a.483.483 0 00.477-.408l.571-3.616a.69.69 0 01.682-.584h1.574c3.277 0 5.167-1.585 5.662-4.727.223-1.374.009-2.454-.635-3.21-.706-.831-1.96-1.27-3.624-1.27zm.574 4.659c-.271 1.784-1.635 1.784-2.954 1.784h-.75l.527-3.333a.413.413 0 01.409-.35h.344c.897 0 1.745 0 2.183.512.261.306.34.76.24 1.387zm14.293-.058h-2.38a.412.412 0 00-.41.35l-.105.666-.167-.241c-.516-.749-1.665-.999-2.812-.999-2.632 0-4.88 1.994-5.317 4.79-.227 1.395.095 2.729.886 3.659.727.855 1.765 1.211 3 1.211 2.121 0 3.297-1.363 3.297-1.363l-.106.662a.414.414 0 00.41.48h2.145a.691.691 0 00.682-.584l1.288-8.152a.417.417 0 00-.411-.479zm-3.32 4.636c-.228 1.36-1.31 2.274-2.687 2.274-.69 0-1.245-.222-1.6-.642-.352-.418-.484-1.012-.373-1.674.216-1.349 1.312-2.292 2.669-2.292.676 0 1.226.225 1.588.649.364.428.508 1.026.403 1.685zm6.128-8.887l-2.041 12.988a.414.414 0 00.408.478h2.053a.69.69 0 00.682-.584l2.014-12.753a.414.414 0 00-.41-.48H87.17a.415.415 0 00-.409.351z" fill="#179BD7"/><path d="M5.284 21.203l.38-2.416-.846-.02H.772L3.583.94a.23.23 0 01.229-.195h6.822c2.264 0 3.827.47 4.643 1.401.383.436.626.892.744 1.394.124.527.126 1.156.005 1.923l-.009.056v.492l.383.217c.292.147.555.348.775.59.327.373.538.847.628 1.41.092.578.062 1.266-.09 2.045-.174.896-.456 1.676-.837 2.315a4.761 4.761 0 01-1.328 1.454 5.384 5.384 0 01-1.787.807c-.66.171-1.41.258-2.234.258h-.531c-.38 0-.749.136-1.038.382-.29.247-.48.59-.541.965l-.04.218-.672 4.258-.03.157c-.009.049-.023.074-.043.09a.113.113 0 01-.07.026H5.284z" fill="#253B80"/><path d="M16.762 5.576c-.02.13-.043.263-.07.4-.9 4.619-3.977 6.215-7.908 6.215H6.783c-.481 0-.886.349-.961.823l-1.025 6.499-.29 1.842a.512.512 0 00.505.592h3.55c.42 0 .778-.306.844-.72l.035-.18.668-4.242.043-.233a.854.854 0 01.844-.721h.53c3.44 0 6.132-1.397 6.92-5.437.328-1.688.158-3.098-.712-4.089a3.394 3.394 0 00-.972-.75z" fill="#179BD7"/><path d="M15.821 5.2a7.097 7.097 0 00-.875-.194 11.114 11.114 0 00-1.764-.128H7.835a.852.852 0 00-.843.721l-1.138 7.204-.032.21a.972.972 0 01.96-.823h2.002c3.93 0 7.009-1.596 7.908-6.214.027-.137.05-.27.07-.4a4.797 4.797 0 00-.94-.375z" fill="#222D65"/><path d="M6.992 5.6a.85.85 0 01.843-.721h5.347c.633 0 1.224.041 1.764.128.365.058.725.144 1.077.257.266.088.512.192.74.312.267-1.707-.002-2.87-.925-3.921C14.82.496 12.984 0 10.634 0H3.812c-.48 0-.89.35-.963.824L.007 18.834a.586.586 0 00.578.679h4.212l1.057-6.71L6.992 5.6z" fill="#253B80"/></svg>