<svg xmlns="http://www.w3.org/2000/svg" viewBox="-2 -2 52 52"><path fill="#4285F4" d="M45.12 24.5c0-1.56-.14-3.06-.4-4.5H24v8.51h11.84a10.12 10.12 0 0 1-4.39 6.64v5.52h7.11c4.16-3.83 6.56-9.47 6.56-16.17z"/><path fill="#34A853" d="M24 46c5.94 0 10.92-1.97 14.56-5.33l-7.11-5.52a13.22 13.22 0 0 1-7.45 2.1 13.11 13.11 0 0 1-12.31-9.07H4.34v5.7A22 22 0 0 0 24 46z"/><path fill="#FBBC05" d="M11.69 28.18a13.22 13.22 0 0 1 0-8.36v-5.7H4.34a22 22 0 0 0 0 19.76l7.35-5.7z"/><path fill="#EA4335" d="M24 10.75c3.23 0 6.13 1.11 8.41 3.29l6.31-6.31A21.14 21.14 0 0 0 24 2 22 22 0 0 0 4.34 14.12l7.35 5.7A13.11 13.11 0 0 1 24 10.75z"/><path fill="none" d="M2 2h44v44H2z"/></svg>
