<svg data-logo="logo" xmlns="http://www.w3.org/2000/svg" viewBox="0 0 240 43">
  <g id="logogram" transform="translate(0, 1) rotate(0) ">
    <path
      d="M17.3991 3.08704L20.0562 0.429993L40.0562 20.43L20.0562 40.43L17.3991 37.7729L34.742 20.43L17.3991 3.08704Z"
      fill="#D41C1C" />
    <path
      d="M13.9305 6.55563L16.5876 3.89858L33.119 20.43L16.5876 36.9614L13.9305 34.3044L27.8049 20.43L13.9305 6.55563Z"
      fill="#D41C1C" />
    <path
      d="M0.0561537 20.43L13.119 7.36717L26.1818 20.43L13.119 33.4928L10.4619 30.8357L20.8677 20.43L13.119 12.6813L2.7132 23.087L0.0561537 20.43Z"
      fill="#D41C1C" />
    <path
      d="M13.119 14.3044L10.4619 16.9614L13.9305 20.43L6.99333 27.3672L9.65037 30.0242L19.2446 20.43L13.119 14.3044Z"
      fill="#D41C1C" />
    <path d="M6.1818 26.5556L3.52474 23.8986L9.62258 17.8007L12.2796 20.4578L6.1818 26.5556Z" fill="#D41C1C" />
  </g>
  <g id="logotype" transform="translate(48, 3)">
    <path fill="#111111"
          d="M16.89 1.08L24.55 1.08L24.55 36L17.41 36L17.41 7.38L17.17 7.38L9.18 13.03L9.18 6.49L16.89 1.08ZM52.18 36L27.48 36L27.48 30.84L39.86 19.24Q41.45 17.70 42.54 16.44Q43.63 15.19 44.20 13.98Q44.78 12.77 44.78 11.37L44.78 11.37Q44.78 9.80 44.08 8.67Q43.37 7.55 42.15 6.94Q40.93 6.33 39.36 6.33L39.36 6.33Q37.75 6.33 36.53 6.98Q35.31 7.64 34.65 8.86Q34.00 10.08 34.00 11.79L34.00 11.79L27.15 11.79Q27.15 8.39 28.71 5.87Q30.27 3.35 33.04 1.98Q35.80 0.61 39.41 0.61L39.41 0.61Q43.11 0.61 45.88 1.93Q48.65 3.26 50.18 5.58Q51.72 7.90 51.72 10.92L51.72 10.92Q51.72 12.87 50.95 14.77Q50.19 16.66 48.24 19.02Q46.28 21.38 42.69 24.66L42.69 24.66L37.42 29.86L37.42 30.12L52.18 30.12L52.18 36ZM67.11 36.47L67.11 36.47Q63.31 36.47 60.37 35.17Q57.43 33.87 55.73 31.55Q54.03 29.23 53.99 26.20L53.99 26.20L61.18 26.20Q61.25 27.52 62.04 28.49Q62.82 29.46 64.16 30Q65.49 30.54 67.13 30.54L67.13 30.54Q68.87 30.54 70.18 29.94Q71.49 29.34 72.24 28.27Q72.99 27.19 72.99 25.76L72.99 25.76Q72.99 24.30 72.21 23.20Q71.42 22.10 69.97 21.48Q68.52 20.86 66.48 20.86L66.48 20.86L63.24 20.86L63.24 15.54L66.48 15.54Q68.19 15.54 69.49 14.94Q70.79 14.34 71.52 13.30Q72.24 12.26 72.24 10.85L72.24 10.85Q72.24 9.49 71.61 8.48Q70.98 7.48 69.84 6.90Q68.71 6.33 67.18 6.33L67.18 6.33Q65.66 6.33 64.39 6.88Q63.13 7.43 62.35 8.41Q61.58 9.40 61.56 10.76L61.56 10.76L54.67 10.76Q54.71 7.78 56.37 5.48Q58.02 3.19 60.85 1.90Q63.69 0.61 67.23 0.61L67.23 0.61Q70.81 0.61 73.51 1.92Q76.21 3.23 77.69 5.46Q79.18 7.69 79.18 10.41L79.18 10.41Q79.18 13.34 77.37 15.30Q75.55 17.27 72.64 17.84L72.64 17.84L72.64 18.09Q75.17 18.42 76.92 19.52Q78.67 20.63 79.56 22.34Q80.45 24.05 80.45 26.23L80.45 26.23Q80.45 29.18 78.74 31.50Q77.03 33.82 74.01 35.14Q71.00 36.47 67.11 36.47ZM94.95 36L94.95 36L85.93 36L85.93 29.84L94.62 29.84Q98.00 29.84 100.28 28.64Q102.57 27.45 103.72 24.94Q104.87 22.43 104.87 18.52L104.87 18.52Q104.87 14.63 103.71 12.13Q102.55 9.63 100.28 8.44Q98.02 7.24 94.67 7.24L94.67 7.24L85.76 7.24L85.76 1.08L95.09 1.08Q100.34 1.08 104.13 3.18Q107.91 5.27 109.95 9.18Q111.99 13.08 111.99 18.52L111.99 18.52Q111.99 23.98 109.95 27.89Q107.91 31.80 104.09 33.90Q100.27 36 94.95 36ZM82.69 1.08L89.84 1.08L89.84 36L82.69 36L82.69 1.08ZM125.79 36.52L125.79 36.52Q121.86 36.52 118.97 34.82Q116.09 33.12 114.53 30.08Q112.97 27.05 112.97 23.02L112.97 23.02Q112.97 18.94 114.53 15.90Q116.09 12.87 118.97 11.17Q121.86 9.47 125.79 9.47L125.79 9.47Q129.75 9.47 132.63 11.17Q135.50 12.87 137.06 15.90Q138.61 18.94 138.61 23.02L138.61 23.02Q138.61 27.05 137.06 30.08Q135.50 33.12 132.63 34.82Q129.75 36.52 125.79 36.52ZM125.79 30.98L125.79 30.98Q127.67 30.98 128.93 29.94Q130.20 28.90 130.83 27.08Q131.47 25.27 131.47 22.99L131.47 22.99Q131.47 20.67 130.83 18.87Q130.20 17.06 128.93 16.03Q127.67 15 125.79 15L125.79 15Q123.92 15 122.66 16.03Q121.41 17.06 120.78 18.87Q120.14 20.67 120.14 22.99L120.14 22.99Q120.14 25.27 120.78 27.08Q121.41 28.90 122.66 29.94Q123.92 30.98 125.79 30.98ZM147.42 20.84L147.42 20.84L147.42 36L140.39 36L140.39 9.80L147.02 9.80L147.14 16.34L146.72 16.34Q147.75 13.05 149.85 11.26Q151.95 9.47 155.27 9.47L155.27 9.47Q157.99 9.47 160.01 10.65Q162.02 11.84 163.15 14.05Q164.27 16.27 164.27 19.34L164.27 19.34L164.27 36L157.24 36L157.24 20.55Q157.24 18.12 155.99 16.73Q154.74 15.35 152.51 15.35L152.51 15.35Q151.03 15.35 149.87 16.00Q148.71 16.64 148.07 17.86Q147.42 19.08 147.42 20.84ZM178.99 36.52L178.99 36.52Q174.98 36.52 172.08 34.88Q169.17 33.23 167.61 30.21Q166.05 27.19 166.05 23.04L166.05 23.04Q166.05 18.98 167.60 15.94Q169.15 12.89 171.98 11.18Q174.82 9.47 178.64 9.47L178.64 9.47Q181.22 9.47 183.44 10.29Q185.67 11.11 187.36 12.76Q189.05 14.41 189.99 16.90Q190.94 19.38 190.94 22.76L190.94 22.76L190.94 24.73L168.94 24.73L168.94 20.32L187.50 20.32L184.22 21.49Q184.22 19.45 183.60 17.94Q182.98 16.43 181.74 15.60Q180.51 14.77 178.69 14.77L178.69 14.77Q176.88 14.77 175.60 15.61Q174.33 16.45 173.67 17.89Q173.01 19.34 173.01 21.19L173.01 21.19L173.01 24.30Q173.01 26.58 173.78 28.13Q174.54 29.67 175.91 30.45Q177.28 31.22 179.11 31.22L179.11 31.22Q180.35 31.22 181.36 30.87Q182.37 30.52 183.08 29.82Q183.80 29.13 184.17 28.13L184.17 28.13L190.55 29.32Q189.91 31.48 188.34 33.11Q186.77 34.73 184.42 35.63Q182.06 36.52 178.99 36.52Z" />
  </g>

</svg>