<svg viewBox="0 0 243 43" xmlns="http://www.w3.org/2000/svg" data-logo="logo">
  <g transform="translate(0, 1) rotate(0)" id="logogram" style="opacity: 1;">
    <path fill="#B6EFA2"
          d="M39.3285 32.987C43.1874 29.5411 45.5538 24.8908 45.5538 19.7738C45.5538 9.15126 35.3562 0.539978 22.7769 0.539978C10.1976 0.539978 0 9.15126 0 19.7738C0 30.3963 10.1976 39.0076 22.7769 39.0076C26.3456 39.0076 29.7226 38.3146 32.7295 37.0791C36.2616 39.2593 40.5891 40.8264 45.3684 40.4959C42.8435 39.8541 40.6717 37.2542 39.3285 32.987Z" />
    <path fill="#88E169"
          d="M39.48 19.7738C39.48 27.6009 32.0018 33.9461 22.7769 33.9461C13.5521 33.9461 6.07385 27.6009 6.07385 19.7738C6.07385 11.9466 13.5521 5.6015 22.7769 5.6015C32.0018 5.6015 39.48 11.9466 39.48 19.7738Z" />
    <path fill="#55AE36"
          d="M33.4061 19.7738C33.4061 24.8056 28.6473 28.8846 22.7769 28.8846C16.9065 28.8846 12.1477 24.8056 12.1477 19.7738C12.1477 14.742 16.9065 10.6631 22.7769 10.6631C28.6473 10.6631 33.4061 14.742 33.4061 19.7738Z" />
  </g>
  <g transform="translate(52, 3)" id="logotype" style="opacity: 1;">
    <path
      d="M15.89 1.08L23.55 1.08L23.55 36L16.41 36L16.41 7.38L16.17 7.38L8.18 13.03L8.18 6.49L15.89 1.08ZM51.18 36L26.48 36L26.48 30.84L38.86 19.24Q40.45 17.70 41.54 16.44Q42.63 15.19 43.20 13.98Q43.78 12.77 43.78 11.37L43.78 11.37Q43.78 9.80 43.08 8.67Q42.37 7.55 41.15 6.94Q39.93 6.33 38.36 6.33L38.36 6.33Q36.75 6.33 35.53 6.98Q34.31 7.64 33.65 8.86Q33.00 10.08 33.00 11.79L33.00 11.79L26.15 11.79Q26.15 8.39 27.71 5.87Q29.27 3.35 32.04 1.98Q34.80 0.61 38.41 0.61L38.41 0.61Q42.11 0.61 44.88 1.93Q47.65 3.26 49.18 5.58Q50.72 7.90 50.72 10.92L50.72 10.92Q50.72 12.87 49.95 14.77Q49.19 16.66 47.24 19.02Q45.28 21.38 41.69 24.66L41.69 24.66L36.42 29.86L36.42 30.12L51.18 30.12L51.18 36ZM66.11 36.47L66.11 36.47Q62.31 36.47 59.37 35.17Q56.43 33.87 54.73 31.55Q53.03 29.23 52.99 26.20L52.99 26.20L60.18 26.20Q60.25 27.52 61.04 28.49Q61.82 29.46 63.16 30Q64.49 30.54 66.13 30.54L66.13 30.54Q67.87 30.54 69.18 29.94Q70.49 29.34 71.24 28.27Q71.99 27.19 71.99 25.76L71.99 25.76Q71.99 24.30 71.21 23.20Q70.42 22.10 68.97 21.48Q67.52 20.86 65.48 20.86L65.48 20.86L62.24 20.86L62.24 15.54L65.48 15.54Q67.19 15.54 68.49 14.94Q69.79 14.34 70.52 13.30Q71.24 12.26 71.24 10.85L71.24 10.85Q71.24 9.49 70.61 8.48Q69.98 7.48 68.84 6.90Q67.71 6.33 66.18 6.33L66.18 6.33Q64.66 6.33 63.39 6.88Q62.13 7.43 61.35 8.41Q60.58 9.40 60.56 10.76L60.56 10.76L53.67 10.76Q53.71 7.78 55.37 5.48Q57.02 3.19 59.85 1.90Q62.69 0.61 66.23 0.61L66.23 0.61Q69.81 0.61 72.51 1.92Q75.21 3.23 76.69 5.46Q78.18 7.69 78.18 10.41L78.18 10.41Q78.18 13.34 76.37 15.30Q74.55 17.27 71.64 17.84L71.64 17.84L71.64 18.09Q74.17 18.42 75.92 19.52Q77.67 20.63 78.56 22.34Q79.45 24.05 79.45 26.23L79.45 26.23Q79.45 29.18 77.74 31.50Q76.03 33.82 73.01 35.14Q70.00 36.47 66.11 36.47ZM93.95 36L93.95 36L84.93 36L84.93 29.84L93.62 29.84Q97.00 29.84 99.28 28.64Q101.57 27.45 102.72 24.94Q103.87 22.43 103.87 18.52L103.87 18.52Q103.87 14.63 102.71 12.13Q101.55 9.63 99.28 8.44Q97.02 7.24 93.67 7.24L93.67 7.24L84.76 7.24L84.76 1.08L94.09 1.08Q99.34 1.08 103.13 3.18Q106.91 5.27 108.95 9.18Q110.99 13.08 110.99 18.52L110.99 18.52Q110.99 23.98 108.95 27.89Q106.91 31.80 103.09 33.90Q99.27 36 93.95 36ZM81.69 1.08L88.84 1.08L88.84 36L81.69 36L81.69 1.08ZM124.79 36.52L124.79 36.52Q120.86 36.52 117.97 34.82Q115.09 33.12 113.53 30.08Q111.97 27.05 111.97 23.02L111.97 23.02Q111.97 18.94 113.53 15.90Q115.09 12.87 117.97 11.17Q120.86 9.47 124.79 9.47L124.79 9.47Q128.75 9.47 131.63 11.17Q134.50 12.87 136.06 15.90Q137.61 18.94 137.61 23.02L137.61 23.02Q137.61 27.05 136.06 30.08Q134.50 33.12 131.63 34.82Q128.75 36.52 124.79 36.52ZM124.79 30.98L124.79 30.98Q126.67 30.98 127.93 29.94Q129.20 28.90 129.83 27.08Q130.47 25.27 130.47 22.99L130.47 22.99Q130.47 20.67 129.83 18.87Q129.20 17.06 127.93 16.03Q126.67 15 124.79 15L124.79 15Q122.92 15 121.66 16.03Q120.41 17.06 119.78 18.87Q119.14 20.67 119.14 22.99L119.14 22.99Q119.14 25.27 119.78 27.08Q120.41 28.90 121.66 29.94Q122.92 30.98 124.79 30.98ZM146.42 20.84L146.42 20.84L146.42 36L139.39 36L139.39 9.80L146.02 9.80L146.14 16.34L145.72 16.34Q146.75 13.05 148.85 11.26Q150.95 9.47 154.27 9.47L154.27 9.47Q156.99 9.47 159.01 10.65Q161.02 11.84 162.15 14.05Q163.27 16.27 163.27 19.34L163.27 19.34L163.27 36L156.24 36L156.24 20.55Q156.24 18.12 154.99 16.73Q153.74 15.35 151.51 15.35L151.51 15.35Q150.03 15.35 148.87 16.00Q147.71 16.64 147.07 17.86Q146.42 19.08 146.42 20.84ZM177.99 36.52L177.99 36.52Q173.98 36.52 171.08 34.88Q168.17 33.23 166.61 30.21Q165.05 27.19 165.05 23.04L165.05 23.04Q165.05 18.98 166.60 15.94Q168.15 12.89 170.98 11.18Q173.82 9.47 177.64 9.47L177.64 9.47Q180.22 9.47 182.44 10.29Q184.67 11.11 186.36 12.76Q188.05 14.41 188.99 16.90Q189.94 19.38 189.94 22.76L189.94 22.76L189.94 24.73L167.94 24.73L167.94 20.32L186.50 20.32L183.22 21.49Q183.22 19.45 182.60 17.94Q181.98 16.43 180.74 15.60Q179.51 14.77 177.69 14.77L177.69 14.77Q175.88 14.77 174.60 15.61Q173.33 16.45 172.67 17.89Q172.01 19.34 172.01 21.19L172.01 21.19L172.01 24.30Q172.01 26.58 172.78 28.13Q173.54 29.67 174.91 30.45Q176.28 31.22 178.11 31.22L178.11 31.22Q179.35 31.22 180.36 30.87Q181.37 30.52 182.08 29.82Q182.80 29.13 183.17 28.13L183.17 28.13L189.55 29.32Q188.91 31.48 187.34 33.11Q185.77 34.73 183.42 35.63Q181.06 36.52 177.99 36.52Z"
      fill="#6bac49" />
  </g>

</svg>