<svg data-logo="logo" xmlns="http://www.w3.org/2000/svg" viewBox="0 0 214 43">
  <g style="opacity: 1;" id="logogram" transform="translate(0, 1) rotate(0)">
    <path
      d="M0.452637 20.81C0.452637 9.76427 9.40694 0.809967 20.4526 0.809967H46.7026C57.7484 0.809967 66.7026 9.76427 66.7026 20.81V40.81H20.4526C9.40694 40.81 0.452637 31.8557 0.452637 20.81Z"
      fill="#4845D2" />
    <path
      d="M46.7026 8.30997H20.4526C13.5491 8.30997 7.95264 13.9064 7.95264 20.81C7.95264 27.7135 13.5491 33.31 20.4526 33.31H46.7026C53.6062 33.31 59.2026 27.7135 59.2026 20.81C59.2026 13.9064 53.6062 8.30997 46.7026 8.30997Z"
      fill="#A5B4FC" />
    <path
      d="M20.4526 27.06C23.9044 27.06 26.7026 24.2617 26.7026 20.81C26.7026 17.3582 23.9044 14.56 20.4526 14.56C17.0009 14.56 14.2026 17.3582 14.2026 20.81C14.2026 24.2617 17.0009 27.06 20.4526 27.06Z"
      fill="black" />
    <path
      d="M17.9526 19.56C18.643 19.56 19.2026 19.0003 19.2026 18.31C19.2026 17.6196 18.643 17.06 17.9526 17.06C17.2623 17.06 16.7026 17.6196 16.7026 18.31C16.7026 19.0003 17.2623 19.56 17.9526 19.56Z"
      fill="white" />
    <path
      d="M47.9526 27.06C51.4044 27.06 54.2026 24.2617 54.2026 20.81C54.2026 17.3582 51.4044 14.56 47.9526 14.56C44.5009 14.56 41.7026 17.3582 41.7026 20.81C41.7026 24.2617 44.5009 27.06 47.9526 27.06Z"
      fill="black" />
    <path
      d="M45.4526 19.56C46.143 19.56 46.7026 19.0003 46.7026 18.31C46.7026 17.6196 46.143 17.06 45.4526 17.06C44.7623 17.06 44.2026 17.6196 44.2026 18.31C44.2026 19.0003 44.7623 19.56 45.4526 19.56Z"
      fill="white" />
  </g>
  <g style="opacity: 1;" id="logotype" transform="translate(73, 8.5)">
    <path fill="#4845c9"
          d="M13.21 0.54L18.80 0.54L18.80 26L13.59 26L13.59 5.13L13.42 5.13L7.59 9.25L7.59 4.48L13.21 0.54ZM38.95 26L20.93 26L20.93 22.24L29.96 13.78Q31.12 12.65 31.91 11.74Q32.71 10.82 33.13 9.94Q33.55 9.06 33.55 8.04L33.55 8.04Q33.55 6.89 33.03 6.07Q32.52 5.25 31.63 4.81Q30.74 4.36 29.60 4.36L29.60 4.36Q28.42 4.36 27.53 4.84Q26.64 5.32 26.16 6.21Q25.69 7.10 25.69 8.35L25.69 8.35L20.70 8.35Q20.70 5.87 21.83 4.03Q22.97 2.19 24.98 1.19Q27.00 0.19 29.63 0.19L29.63 0.19Q32.33 0.19 34.35 1.16Q36.37 2.13 37.49 3.82Q38.61 5.51 38.61 7.71L38.61 7.71Q38.61 9.13 38.05 10.52Q37.49 11.90 36.07 13.62Q34.64 15.34 32.03 17.73L32.03 17.73L28.18 21.52L28.18 21.71L38.95 21.71L38.95 26ZM49.83 26.34L49.83 26.34Q47.06 26.34 44.92 25.39Q42.77 24.44 41.53 22.75Q40.30 21.06 40.26 18.86L40.26 18.86L45.51 18.86Q45.56 19.81 46.13 20.52Q46.70 21.23 47.68 21.63Q48.65 22.02 49.85 22.02L49.85 22.02Q51.11 22.02 52.07 21.58Q53.03 21.15 53.57 20.36Q54.12 19.57 54.12 18.53L54.12 18.53Q54.12 17.47 53.55 16.67Q52.98 15.87 51.92 15.41Q50.86 14.96 49.37 14.96L49.37 14.96L47.01 14.96L47.01 11.08L49.37 11.08Q50.62 11.08 51.57 10.64Q52.51 10.21 53.04 9.45Q53.57 8.69 53.57 7.66L53.57 7.66Q53.57 6.67 53.11 5.94Q52.65 5.20 51.82 4.78Q50.99 4.36 49.88 4.36L49.88 4.36Q48.77 4.36 47.85 4.77Q46.93 5.17 46.36 5.89Q45.80 6.60 45.78 7.59L45.78 7.59L40.76 7.59Q40.79 5.42 42.00 3.75Q43.20 2.07 45.27 1.13Q47.34 0.19 49.92 0.19L49.92 0.19Q52.53 0.19 54.50 1.15Q56.46 2.11 57.55 3.73Q58.63 5.36 58.63 7.34L58.63 7.34Q58.63 9.47 57.31 10.91Q55.98 12.35 53.86 12.76L53.86 12.76L53.86 12.94Q55.71 13.18 56.98 13.99Q58.26 14.79 58.91 16.04Q59.56 17.28 59.56 18.87L59.56 18.87Q59.56 21.03 58.31 22.72Q57.06 24.41 54.86 25.38Q52.67 26.34 49.83 26.34ZM70.13 26L70.13 26L63.55 26L63.55 21.51L69.89 21.51Q72.35 21.51 74.02 20.63Q75.69 19.76 76.52 17.93Q77.36 16.10 77.36 13.25L77.36 13.25Q77.36 10.41 76.52 8.59Q75.67 6.77 74.02 5.90Q72.37 5.03 69.93 5.03L69.93 5.03L63.43 5.03L63.43 0.54L70.23 0.54Q74.06 0.54 76.82 2.07Q79.58 3.60 81.07 6.44Q82.56 9.29 82.56 13.25L82.56 13.25Q82.56 17.23 81.07 20.09Q79.58 22.94 76.80 24.47Q74.01 26 70.13 26ZM61.19 0.54L66.41 0.54L66.41 26L61.19 26L61.19 0.54ZM92.62 26.38L92.62 26.38Q89.75 26.38 87.65 25.14Q85.55 23.90 84.41 21.68Q83.27 19.47 83.27 16.53L83.27 16.53Q83.27 13.56 84.41 11.35Q85.55 9.13 87.65 7.89Q89.75 6.65 92.62 6.65L92.62 6.65Q95.51 6.65 97.60 7.89Q99.70 9.13 100.83 11.35Q101.97 13.56 101.97 16.53L101.97 16.53Q101.97 19.47 100.83 21.68Q99.70 23.90 97.60 25.14Q95.51 26.38 92.62 26.38ZM92.62 22.34L92.62 22.34Q93.99 22.34 94.91 21.58Q95.83 20.82 96.29 19.50Q96.76 18.17 96.76 16.52L96.76 16.52Q96.76 14.82 96.29 13.51Q95.83 12.19 94.91 11.44Q93.99 10.69 92.62 10.69L92.62 10.69Q91.25 10.69 90.34 11.44Q89.42 12.19 88.96 13.51Q88.50 14.82 88.50 16.52L88.50 16.52Q88.50 18.17 88.96 19.50Q89.42 20.82 90.34 21.58Q91.25 22.34 92.62 22.34ZM108.39 14.94L108.39 14.94L108.39 26L103.27 26L103.27 6.89L108.10 6.89L108.19 11.66L107.88 11.66Q108.63 9.27 110.16 7.96Q111.69 6.65 114.12 6.65L114.12 6.65Q116.10 6.65 117.57 7.52Q119.04 8.38 119.86 10.00Q120.68 11.61 120.68 13.85L120.68 13.85L120.68 26L115.55 26L115.55 14.74Q115.55 12.96 114.64 11.95Q113.72 10.94 112.10 10.94L112.10 10.94Q111.02 10.94 110.18 11.41Q109.33 11.88 108.86 12.77Q108.39 13.66 108.39 14.94ZM131.41 26.38L131.41 26.38Q128.49 26.38 126.37 25.18Q124.25 23.98 123.11 21.78Q121.98 19.57 121.98 16.55L121.98 16.55Q121.98 13.59 123.10 11.37Q124.23 9.15 126.30 7.90Q128.37 6.65 131.15 6.65L131.15 6.65Q133.03 6.65 134.66 7.25Q136.28 7.85 137.51 9.06Q138.74 10.26 139.43 12.07Q140.13 13.88 140.13 16.34L140.13 16.34L140.13 17.78L124.08 17.78L124.08 14.57L137.61 14.57L135.22 15.42Q135.22 13.93 134.77 12.83Q134.32 11.73 133.42 11.12Q132.52 10.52 131.19 10.52L131.19 10.52Q129.87 10.52 128.94 11.13Q128.01 11.75 127.53 12.80Q127.05 13.85 127.05 15.20L127.05 15.20L127.05 17.47Q127.05 19.13 127.61 20.26Q128.16 21.39 129.16 21.95Q130.16 22.51 131.50 22.51L131.50 22.51Q132.40 22.51 133.14 22.26Q133.87 22.00 134.39 21.50Q134.91 20.99 135.19 20.26L135.19 20.26L139.84 21.13Q139.37 22.70 138.23 23.89Q137.08 25.08 135.37 25.73Q133.65 26.38 131.41 26.38Z" />
  </g>

</svg>