<svg width="240" height="150" viewBox="0 0 240 150" fill="none" xmlns="http://www.w3.org/2000/svg">
<path d="M173.9 27.1309C178.273 22.5765 182.889 30.5105 184.8 33.5328C188.375 39.1895 213.02 78.6501 215.297 84.5859C217.175 89.4836 191.721 132.628 174.419 132.349C172.438 132.318 142.399 111.773 142.605 109.744C142.792 107.916 170.353 30.8258 173.9 27.1309Z" fill="#82EBE4"/>
<path d="M120.335 7.04639C120.45 7.04639 120.561 7.04639 120.676 7.04639C125.409 14.0929 129.132 21.6418 133.002 29.1934C133.817 30.7841 134.562 33.3097 136.164 34.1162C137.674 34.8781 140.462 34.5348 142.145 34.6632C145.915 34.9534 150.93 36.7311 153.612 33.7702C158.705 28.1469 162.308 21.2287 167.479 15.5943C169.008 13.9283 171.455 9.73104 173.752 12.1366C175.524 13.9924 175.245 20.1739 175.588 22.6687C175.714 23.5785 175.552 25.9032 176.44 26.4808C177.076 26.8967 178.893 25.4874 180.015 26.0846C182.448 27.3767 181.385 32.2185 181.332 34.2418C181.287 35.9385 180.774 38.372 181.226 40.0074C181.605 41.3832 182.763 42.1451 183.224 43.5013C184.081 46.013 182.331 48.6893 180.877 50.6483C178.879 53.3386 178.482 53.6288 180.377 56.8214C182.32 60.0949 184.329 63.3293 186.176 66.6558C187.756 69.5023 189.344 71.1405 186.924 73.5991C184.468 76.094 181.357 78.1786 178.608 80.3442C175.466 82.8195 172.315 85.2865 169.153 87.7395C166.865 89.5172 161.914 91.8949 160.505 94.4261C159.204 96.7563 161.409 100.741 162.017 103.309C162.748 106.401 162.93 109.563 163.694 112.633C168.344 105.748 171.294 97.3312 176.356 90.7926C181.413 84.2595 191.537 84.7563 198.972 84.7926C204.534 84.8177 219.645 82.373 216.603 91.8782C213.768 100.733 208.569 108.522 204.98 117.011C203.493 120.533 206.532 119.855 208.337 122.732C210.202 125.704 210.877 129.276 210.489 132.742C210.107 136.169 208.605 139.906 206.445 142.61C204.029 145.635 201.849 145.052 198.207 145.089C180.321 145.275 162.425 145.102 144.539 145.102C126.589 145.102 108.639 145.102 90.6897 145.097C81.5585 145.097 72.4245 145.091 63.2934 145.089C58.5687 145.089 53.8468 145.083 49.1222 145.083C44.9361 145.083 41.4477 145.541 37.8087 143.305C26.47 136.34 17.2384 122.386 17.3026 108.807C17.3389 101.408 19.2923 93.4689 23.5705 87.3768C25.6161 84.4633 28.1975 81.4186 31.2338 79.4958C33.9212 77.7963 36.6087 77.7042 38.9752 75.4884C44.2384 70.5656 49.2338 66.0753 55.8785 63.0335C59.4059 61.4176 62.5148 60.2902 66.3659 59.7879C69.3827 59.3944 72.2571 60.1116 75.1427 59.8828C76.5771 59.7683 76.0329 58.5655 77.978 59.2242C79.3818 59.7014 79.6218 60.3404 79.9455 61.6883C80.699 64.839 79.4236 69.2037 79.298 72.4577C78.9604 81.1619 78.7232 89.9749 79.2087 98.6735C79.3483 98.6986 79.4878 98.7265 79.6273 98.7517C80.1436 96.4661 81.6729 94.8865 83.2804 93.3042C85.4292 91.1861 85.8339 90.0419 87.2292 93.0112C89.5316 97.9089 92.2776 102.287 95.4171 106.7C97.4516 109.56 97.7725 110.626 100.524 107.975C103.013 105.578 105.319 102.952 107.71 100.46C109.893 98.1852 112.075 95.9163 114.263 93.6475C116.819 90.9935 116.903 91.0633 114.213 88.8028C109.519 84.854 104.917 80.8102 100.312 76.7581C98.5037 75.1674 96.6199 74.1935 96.6311 71.6874C96.6451 69.067 98.3334 65.9051 99.2237 63.4604C101.015 58.5265 104.746 52.3674 103.831 47.0902C103.479 45.0641 101.738 41.5227 103.424 39.706C105.123 37.8725 106.689 39.2511 108.232 40.5348C108.372 40.4371 108.511 40.3423 108.651 40.2446C106.731 34.8334 104.314 29.4167 105.123 23.5339C106.145 16.1078 110.626 20.2687 114.154 23.5422C115.756 18.4101 116.844 11.3162 120.327 7.06313L120.335 7.04639Z" fill="#FE9F48"/>
<path d="M101.74 57.5581C103.443 52.6939 104.732 49.7246 103.577 44.7069C103.15 42.8455 101.978 39.893 104.283 38.7571C106.261 37.7832 107.129 39.8595 108.834 40.1776C107.113 34.6911 104.604 29.4027 105.326 23.4948C106.256 15.8845 110.729 19.8976 114.374 23.3162C116.149 17.6594 117.65 12.0111 120.555 6.82593C120.67 6.82593 120.781 6.82593 120.896 6.82593C125.872 14.1404 130.42 22.0799 134.073 30.1534C136.133 34.705 137.286 34.0604 142.351 34.4539C146.473 34.772 151.303 36.5553 154.119 33.0836C156.89 29.6678 159.14 25.7888 161.794 22.2697C163.189 20.4167 164.651 18.6334 166.192 16.9004C167.397 15.5413 169.351 12.4687 170.981 11.7041C175.476 9.58872 174.968 16.8892 175.418 19.9646C176.018 24.0669 175.594 26.1599 173.171 29.5953C168.553 36.1395 161.877 36.9683 154.468 38.1181C145.407 39.5246 136.529 40.9981 128.043 44.6148C119.805 48.1255 114.717 52.8865 110.219 60.586C105.354 68.9107 106.091 75.0223 109.099 83.8772C106.666 82.0158 104.419 79.9088 102.117 77.8912L96.0083 72.0698L101.749 57.5581H101.74Z" fill="#EC7522"/>
<path d="M49.2056 84.575C48.3321 91.041 46.9507 96.9796 47.4447 103.58C47.8605 109.116 49.027 114.634 50.6819 119.93C53.2828 128.252 58.6382 139.825 66.8987 144.059C67.9173 144.581 69.1061 144.89 70.3926 145.061L137.961 145.183C138.597 145.183 139.186 144.846 139.504 144.293C140.95 141.793 143.113 137.699 144.251 135.611C146.855 130.839 149.473 126.075 152.071 121.303C153.801 118.125 157.968 112.582 152.565 110.816C148.728 109.56 118.133 91.814 118.133 91.814C113.961 92.1015 97.3117 110.191 94.6048 113.093L49.2056 84.575Z" fill="#EC7522"/>
<path d="M183.07 124.814C192.279 110.581 207.067 120.218 208.301 121.965C210.603 125.224 211.315 129.879 210.497 133.711C209.967 136.192 206.23 142.395 204.249 144.112C203.61 144.664 202.954 145.189 202.111 145.189H186.977C186.977 145.189 175.535 140.166 183.07 124.817V124.814Z" fill="#EC7522"/>
<path d="M139.51 144.628C143.574 136.976 147.684 129.346 151.683 121.658C152.822 119.467 155.934 115.526 155.289 112.979C154.237 108.818 149.434 110.341 146.749 111.416C143.437 112.741 140.183 113.874 137.029 115.549C135.662 116.274 134.398 117.098 133.086 117.89C131.205 119.029 131.702 119.199 130.198 118.027C128.121 116.408 126.455 111.952 125.356 109.566C123.704 105.979 122.56 102.165 121.985 98.2576C121.692 96.2706 122.121 92.8995 120.785 91.2892C120.52 90.9683 118.594 90.1199 118.066 89.7292C116.783 88.7804 115.527 87.6837 114.249 86.6985C108.952 82.613 106.41 77.3664 107.052 70.5013C107.702 63.5413 112.678 56.4529 117.497 51.5971C122.777 46.2752 130.293 43.5906 137.339 41.5031C145.725 39.0166 154.452 38.7822 162.863 36.5803C166.438 35.6454 169.7 34.5263 172.231 31.7105C172.801 31.077 176.183 25.0938 176.613 25.3589C178.859 26.7403 178.887 53.785 178.887 53.785C179.78 55.4678 188.861 69.2483 188.495 71.2213C188.119 73.2474 186.609 74.1097 184.932 75.572C180.595 79.345 175.943 82.7888 171.405 86.3162C169.075 88.1302 166.745 89.9469 164.367 91.6967C161.632 93.706 160.494 93.8232 161.264 97.1804C161.816 99.5888 162.634 101.933 163.153 104.358C163.694 106.895 163.622 109.49 164.897 111.737L164.869 111.706C160.22 123.22 151.951 133.114 147.302 144.634H139.513L139.51 144.628Z" fill="#FEA902"/>
<path d="M31.87 79.2083C34.1444 77.9386 42.1956 72.1255 44.1128 70.3841C48.2235 66.653 52.8449 63.7757 58.0803 61.9395C63.0701 60.1897 84.2794 55.6046 80.0459 62.866C80.6599 74.5925 56.5454 116.983 54.2207 112.993C51.0533 107.554 45.6282 95.107 44.9305 93.279C36.6979 103.2 35.7212 111.419 35.4421 120.818C30.1398 114.767 29.3026 110.023 28.6077 107.28C26.0849 112.42 24.2793 124.814 32.1547 138.061C28.3984 136.192 25.083 130.423 22.9398 126.932C13.6774 114.209 16.1891 89.9302 31.8728 79.2055L31.87 79.2083Z" fill="#F1ECF0"/>
<path d="M187.906 73.0799C179.587 79.959 171.212 87.4688 161.88 92.972C160.496 93.7869 157.92 93.4827 157.116 94.9534C156.29 96.4632 158.252 109.778 157.396 111.139C154.326 111.139 151.605 110.634 149.986 110.581C148.175 110.523 145.697 111.647 143.894 112.102C139.301 113.263 135.84 115.873 132.173 118.769C128.093 121.993 124.273 125.512 120.784 129.371C117.318 133.211 114.544 138.017 110.612 141.394C109.356 137.676 110.936 131.715 111.5 127.881C112.178 123.271 113.018 118.691 114.148 114.167C115.194 109.976 116.33 105.759 117.62 101.637C118.261 99.5832 119.085 97.6827 119.936 95.7125C121.066 93.1032 121.733 94.5683 119.442 92.7181C112.647 87.2288 104.704 81.4269 98.4838 75.2008C96.6112 73.3283 96.6224 73.3059 98.6791 71.598C100.217 70.3199 102.089 69.265 103.817 68.2687C107.185 66.3292 110.715 64.9199 114.424 63.7813C118.125 62.6455 121.259 62.2687 125.023 62.5785C127.535 62.785 133.675 64.811 133.675 64.811C135.907 60.625 136.13 60.5999 136.744 59.7878C137.866 58.3059 139.407 56.9496 140.93 55.8808C144.293 53.5199 148.711 52.7189 152.777 53.8213C155.587 54.5831 160.393 57.3515 162.14 59.7878C164.16 62.6064 163.814 65.6483 166.047 64.811C167.914 64.4371 169.968 63.8789 171.938 63.9766C173.735 64.0687 175.856 65.1487 177.489 65.8464C181.281 67.4678 184.806 69.6808 187.906 72.399V73.0771V73.0799Z" fill="#FEEEE2"/>
<path d="M176.662 45.5301C176.537 42.1701 176.436 38.8101 176.308 35.4501C176.233 33.4687 175.055 28.5376 176.584 26.9357C181.275 22.0296 182.129 32.0455 182.233 34.1134C182.347 36.399 181.412 39.5887 182.233 41.3692C183.321 43.7301 184.074 45.1255 182.768 47.9832C182.339 48.9264 179.648 53.3999 178.563 53.3776C176.883 53.3469 176.685 46.6548 176.526 45.558C176.57 45.5469 176.615 45.5385 176.66 45.5273L176.662 45.5301Z" fill="#FEEEE2"/>
<path d="M80.4335 98.492C80.9051 96.2064 82.44 94.6073 84.0363 93.0222C86.0958 90.9794 86.5674 90.2622 88.0493 92.8854C89.3219 95.1348 90.3879 97.4929 91.6102 99.7673C92.9972 102.346 95.1293 104.375 96.561 106.895C98.1321 109.66 97.1498 110.11 94.9479 112.295C94.2363 113.001 90.7675 116.311 90.4186 117.279C90.1172 118.116 83.7209 111.977 81.5498 108.603C81.7674 111.698 83.2856 115.909 84.2791 118.674C80.9526 118.242 70.8893 111.583 67.2558 103.884C65.0232 108.349 65.0232 120.907 65.0232 125.372C54.4185 118.395 48.8371 103.325 47.4418 99.1394C47.7209 94.9534 48.5581 88.5347 49.772 84.5412C47.4892 85.6575 44.0929 88.8138 39.0864 95.6845C40.426 79.6994 60.8372 61.4649 80.1349 60.1393C82.1944 59.997 80.4363 67.931 80.3274 69.7422C79.7665 79.2389 79.7637 88.7803 79.7637 98.3022C79.987 98.3664 80.2074 98.4306 80.4307 98.4948L80.4335 98.492Z" fill="#E0AF70"/>
<path d="M109.633 142.778C110.342 133.373 111.341 123.946 113.81 114.818C114.98 110.492 115.987 106.052 117.413 101.805C118.08 99.8176 122.04 94.2836 119.305 92.7794C121.611 93.3152 120.957 94.7664 120.865 96.7171C120.74 99.3627 121.038 101.925 121.756 104.475C123.271 109.867 126.553 114.156 128.791 119.188C129.896 121.674 129.553 121.331 127.354 123.254C125.233 125.11 123.251 127.116 121.351 129.195C117.332 133.591 113.621 138.265 109.895 142.906C109.809 142.864 109.719 142.822 109.633 142.778Z" fill="#E0AF70"/>
<path d="M109.418 40.0184C108.142 36.0528 106.381 32.143 105.946 27.9653C105.737 25.9644 105.134 19.8416 107.819 18.9067C110.62 17.9328 113.955 24.6918 115.024 26.517C116.902 29.7207 119.185 32.3384 118.161 36.1421C117.084 40.1384 115.158 44.0705 113.679 47.9384C112.878 50.037 111.385 54.2119 109.953 54.4882C109.303 54.6138 104.291 45.9319 103.859 43.5458C103.518 41.6593 102.762 39.6333 103.535 38.8602C104.484 37.9114 107.185 38.5616 109.046 40.183L109.418 40.0184Z" fill="#E0AF70"/>
<path d="M109.951 83.6984C107.858 82.0742 105.782 80.4612 103.792 78.7058C102.422 77.4975 98.6457 75.184 98.0011 73.557C97.2392 71.6342 99.2513 71.1263 100.915 70.077C102.893 68.824 105.151 66.823 107.462 66.304C107.322 69.0919 106.783 71.9914 106.97 74.7793C107.183 77.9635 108.837 80.7905 109.929 83.7179L109.948 83.6984H109.951Z" fill="#E0AF70"/>
<path d="M186.419 145.147C177.57 145.147 169.837 145.172 160.987 145.164C158.671 145.164 148.831 145.141 146.512 145.147C145.479 145.147 171.369 98.9637 176.222 91.8167C180.656 85.2864 189.12 85.1888 196.27 85.0213C200.361 84.9264 215.721 82.6353 217.013 87.8343C217.867 91.2669 215.264 95.7739 213.991 98.6483C213.003 100.884 204.16 117.594 204.408 118.8C204.684 120.148 201.132 118.278 197.582 117.798C193.281 117.218 187.616 118.903 184.745 121.984C182.319 124.585 180.157 131.969 180.556 135.394C181.396 142.635 186.466 145.041 186.419 145.147Z" fill="#634FCE"/>
<path d="M146.685 144.907C151.602 133.917 157.784 123.514 163.775 113.079C166.806 107.802 169.856 102.533 172.912 97.2725C174.746 94.1163 178.307 85.2809 183.347 86.3944C182.328 91.0214 178.452 96.0084 176.2 100.194C173.537 105.14 170.872 110.085 168.204 115.027C162.826 124.987 157.452 134.947 152.079 144.91H146.688L146.685 144.907Z" fill="#B4FEE3"/>
<path d="M209.861 94.8865C209.113 96.3544 208.312 99.6865 206.263 100.141C203.339 100.792 203.316 98.4948 203.671 96.7618C204.38 93.2958 208.599 89.0176 209.414 94.7023C209.562 94.7637 209.713 94.8223 209.861 94.8837V94.8865Z" fill="#2E2C7E"/>
<path d="M215.97 84.7841C215.367 84.4492 214.851 83.9552 214.083 83.372C212.903 83.4473 211.443 83.6036 209.981 83.6203C203.925 83.6929 197.866 83.6566 191.811 83.7962C188.844 83.8631 185.83 83.9608 182.933 84.5273C180.034 85.0938 177.639 86.8715 175.611 89.0511C175.574 89.0901 175.555 89.1487 175.527 89.199C172.636 94.2055 169.739 99.2064 166.856 104.219C166.192 105.371 165.584 106.554 164.816 107.966C163.161 103.538 163.144 98.919 161.16 94.8306C161.319 94.652 161.439 94.4511 161.615 94.3255C165.003 91.9087 168.419 89.5311 171.782 87.078C175.094 84.6585 178.357 82.172 181.633 79.7022C184.616 77.4529 187.689 75.2957 189.994 72.2008C189.745 71.1933 189.706 70.105 189.229 69.265C187.622 66.438 185.841 63.7059 184.156 60.9208C182.824 58.7217 181.538 56.4947 180.335 54.4547C181.493 52.5598 182.632 50.8854 183.575 49.1077C185.077 46.2779 184.555 42.6807 182.425 40.3644C182.964 36.8258 183.447 33.2705 182.735 29.6454C182.057 26.1933 180.779 24.7449 177.399 24.1393C177.313 23.7877 177.187 23.4165 177.129 23.0342C176.777 20.6509 176.506 18.2537 176.088 15.8844C175.636 13.3393 175.259 10.7049 172.357 9.18113C171.782 9.55509 171.014 9.90113 170.451 10.4537C169.373 11.5142 168.486 12.7672 167.392 13.8109C162.581 18.4128 158.755 23.8351 154.622 29.0007C153.427 30.4937 152.266 32.0119 151.114 33.4909C146.046 33.3179 141.076 32.0537 136.036 33.0556C134.395 29.3272 132.734 25.6323 131.132 21.9095C129.101 17.1793 126.274 12.9207 123.424 8.67043C122.584 7.41462 121.463 6.52717 119.766 6.13647C119.467 6.50764 119.032 6.87322 118.817 7.34206C117.316 10.6072 115.845 13.8863 114.396 17.1737C113.928 18.237 113.545 19.3421 113.129 20.4081C112.2 19.6546 111.447 18.8593 110.537 18.3346C107.749 16.7216 105.36 17.8351 104.503 20.5449C104.138 21.7058 104.007 22.9728 103.951 24.1979C103.775 28.0128 104.573 31.6826 105.784 35.277C105.985 35.8742 106.144 36.4854 106.359 37.211C103.864 36.7309 102.505 37.3505 102.034 39.2956C101.721 40.5793 101.615 41.9831 101.763 43.2919C101.925 44.7263 102.419 46.1384 102.896 47.517C103.267 48.5914 103.236 49.5403 102.815 50.5979C100.917 55.3449 99.0671 60.1115 97.2392 64.8836C96.2457 67.4789 95.3359 70.1022 94.3397 72.8426C101.255 79.0603 108.025 85.1441 114.815 91.2501C109.197 96.6111 103.435 102.109 97.6271 107.651C97.468 107.467 97.2671 107.277 97.1164 107.054C94.9034 103.727 92.6597 100.42 90.508 97.0548C89.2718 95.1208 88.1555 93.1283 87.5164 90.865C87.2764 90.0166 86.308 89.3748 85.655 88.6185C83.1852 90.2231 82.0327 92.6315 80.1824 94.719C80.1824 91.6938 80.202 88.8948 80.1796 86.0985C80.1266 80.0148 80.4531 73.9506 81.0671 67.8975C81.3545 65.0622 81.5331 62.2129 81.7508 59.5338C80.4727 58.6184 78.7062 58.1412 76.2392 57.9682C67.8447 57.3738 59.9136 59.051 52.6047 63.1952C46.5768 66.6138 40.9005 70.5543 36.4633 75.6724C34.2419 76.7161 32.0205 77.4082 30.2261 78.6947C27.9265 80.3413 25.6884 82.1329 23.9609 84.4994C21.5219 87.8371 19.3256 91.2473 18.0642 95.2353C15.7702 102.477 15.3042 109.78 17.0958 117.176C19.1247 125.548 23.0707 132.882 29.5116 138.673C32.1628 141.056 35.2214 142.987 38.0958 145.122H43.1889C38.1182 141.882 33.1172 138.594 29.0316 134.048C24.4382 128.936 21.5414 122.986 19.8809 116.428C18.5721 111.259 18.6223 106.019 19.6828 100.75C21.1061 93.678 24.2205 87.625 29.6568 82.8166C30.2456 82.2976 30.7647 81.7003 31.3396 81.1645C31.6354 80.8882 31.9786 80.665 32.2996 80.4194C32.3861 80.492 32.4698 80.5617 32.5563 80.6343C30.1982 83.5087 28.8 86.799 28.0968 90.4743C28.6214 90.3766 29.0763 90.2064 29.347 89.8855C29.9275 89.199 30.4354 88.4455 30.9405 87.6976C35.4921 80.9524 40.4763 74.6399 47.3052 69.9515C53.5396 65.6733 60.0112 62.037 67.6689 61.1636C70.5713 60.8315 73.5071 60.7366 76.4317 60.6389C77.2271 60.611 78.0336 60.9626 78.8848 61.1496C78.8206 62.0091 78.7815 62.6761 78.7201 63.3403C78.3071 67.825 77.7182 72.3012 77.5201 76.7971C77.2801 82.278 77.3806 87.7701 77.308 93.2594C77.2717 96.0027 77.4224 98.7292 78.2038 101.372C78.4829 102.312 78.7759 103.353 80.2383 103.554C80.4392 102.873 80.682 102.206 80.8299 101.52C81.5248 98.2464 82.6885 95.2185 85.3118 92.7348C87.9545 99.039 91.6606 104.531 95.7294 109.766C93.1201 112.886 90.3545 116.076 87.7257 119.369C84.6671 123.204 81.7564 127.155 78.7201 131.006C76.9396 133.264 75.0308 135.419 73.1917 137.634C72.7424 138.176 72.1508 138.731 72.9657 139.761C87.1843 123.472 101.202 107.124 117.413 92.7459C118.289 93.4018 119.138 94.0352 119.911 94.6157C118.94 96.7925 117.946 98.8129 117.131 100.903C116.311 102.999 115.555 105.134 114.963 107.305C112.114 117.712 110.241 128.297 109.295 139.046C109.169 140.478 108.703 141.876 108.483 143.302C108.41 143.766 108.62 144.271 108.701 144.759C108.837 144.784 108.974 144.809 109.111 144.834C109.432 144.477 109.781 144.142 110.071 143.76C111.025 142.51 111.935 141.223 112.909 139.987C118.781 132.511 125.093 125.447 132.503 119.442C136.795 115.962 141.458 113.132 146.958 112.005C148.817 111.625 150.74 111.243 152.612 111.318C157.624 111.516 160.362 114.187 161.074 117.502C160.672 118.161 160.2 118.939 159.681 119.791C156.408 115.747 149.063 114.128 147.41 117.134C148.047 117.134 148.58 117.148 149.113 117.131C150.07 117.1 151.03 116.964 151.982 117.019C155.241 117.218 157.814 119.02 158.621 121.599C156.773 124.875 154.887 128.146 153.073 131.459C150.586 135.999 148.158 140.57 145.705 145.13H147.402C148.962 142.03 150.416 138.871 152.104 135.843C155.289 130.136 158.621 124.513 161.864 118.839C164.174 114.801 166.451 110.743 168.72 106.683C171.433 101.827 174.117 96.9571 176.813 92.0929C178.117 89.7376 178.29 89.5897 182.437 87.4157C182.264 87.9124 182.197 88.2529 182.032 88.5404C179.238 93.4269 176.403 98.2855 173.643 103.189C170.908 108.045 168.249 112.945 165.558 117.826C161.291 125.573 157.002 133.309 152.78 141.078C152.088 142.351 151.677 143.774 151.136 145.13H152.495C153.72 142.669 154.862 140.16 156.184 137.754C161.481 128.132 166.831 118.538 172.172 108.938C175.923 102.195 179.724 95.4808 183.436 88.7162C184.192 87.3376 185.236 86.8269 186.706 86.8073C194.699 86.6957 202.694 86.5701 210.687 86.4306C211.636 86.4138 212.582 86.2715 213.818 86.1627C215.051 86.8827 215.532 88.4343 216.143 89.7292C213.899 94.5962 211.602 99.3432 209.509 104.177C207.425 108.991 204.129 113.205 202.63 118.42C202.181 118.242 201.782 118.08 201.38 117.926C196.892 116.188 192.422 116.227 188.163 118.49C186.723 119.255 185.398 120.511 184.429 121.839C181.809 125.445 180.009 129.433 179.9 134.004C179.816 137.551 180.793 140.673 183.592 143.065C184.351 143.715 185.043 144.444 185.763 145.136H188.138C187.446 144.586 186.748 144.045 186.064 143.486C182.576 140.64 180.709 137.205 181.465 132.405C183.762 132.84 186.059 133.273 188.356 133.711C189.02 133.839 189.681 133.976 190.343 134.121C191.079 134.283 191.657 134.115 192.084 133.295C188.785 131.911 185.194 131.966 181.764 130.993C182.202 128.685 183.078 126.759 184.111 124.895C184.273 124.602 184.518 124.348 184.666 124.049C185.71 121.953 186.544 121.119 189.991 122.02C191.908 122.523 193.708 123.301 195.221 124.66C195.874 125.246 196.644 125.852 197.598 124.786C195.067 122.288 192.078 120.809 188.523 119.902C189.291 119.545 190.024 119.071 190.831 118.856C195.469 117.617 199.828 118.153 203.886 120.89C206.889 122.916 208.047 125.852 208.502 129.257C209.099 133.719 208.198 137.855 205.792 141.617C204.963 142.912 203.766 143.967 202.736 145.133H206.811C211.092 139.716 212.465 133.616 211.022 126.896C210.575 124.817 209.95 122.752 208.39 121.18C207.567 120.352 206.615 119.651 205.641 118.828C205.823 118.345 205.94 117.924 206.13 117.536C207.625 114.452 209.166 111.388 210.634 108.293C212.54 104.277 214.371 100.231 216.274 96.2148C217.083 94.5097 218.311 93.0027 218.601 91.0548C218.705 90.3655 218.986 89.7013 219.252 88.8138C218.794 87.1562 217.697 85.7524 215.975 84.8008L215.97 84.7841ZM177.843 26.9328C180.123 28.1523 180.69 30.4184 180.846 32.623C180.991 34.6686 180.575 36.77 180.251 38.824C180.117 39.6724 179.584 40.4593 179.132 41.5086C179.713 42.0082 180.43 42.4826 180.96 43.1133C181.686 43.9784 182.16 44.9496 181.825 46.197C181.281 48.2259 180.455 50.0705 179.077 51.5914C178.044 51.4296 177.888 50.7738 177.857 50.0733C177.715 46.7496 177.642 43.4258 177.441 40.1049C177.271 37.2919 176.961 34.49 176.713 31.6826C176.649 30.9542 176.565 30.223 176.523 29.4947C176.459 28.4035 176.805 27.5077 177.846 26.93L177.843 26.9328ZM104.093 39.5998C107.177 39.9319 108.173 42.6779 110.202 44.3161C110.428 44.1319 110.71 43.9003 111.081 43.5961C110.233 41.1933 109.485 38.7765 108.53 36.4435C107.065 32.8575 106.253 29.1402 106.038 25.3002C105.941 23.5728 106.094 21.8202 107.266 20.3774C108.745 20.3719 109.878 21.0109 110.69 22.0602C111.821 23.517 112.85 25.0574 113.847 26.6119C115.234 28.7719 116.554 30.9765 117.91 33.1812C116.04 40.3198 113.478 47.0565 109.769 53.6287C106.538 49.3784 103.164 45.4854 104.093 39.6026V39.5998ZM154.937 110.246C149.046 109.253 143.66 110.855 138.567 113.615C130.959 117.739 125.065 123.913 119.272 130.158C116.439 133.211 113.841 136.479 111.134 139.649C110.964 139.85 110.771 140.034 110.448 140.16C112.465 124.956 114.145 109.705 120.879 95.4864C123.377 96.505 124.906 99.1087 127.909 98.9273C128.09 98.6036 128.297 98.2408 128.637 97.6352C117.455 90.3599 107.688 81.4966 98.0234 72.5329C104.289 67.0296 117.369 60.2538 133.186 65.2826C133.066 66.0668 132.913 66.784 132.857 67.5096C132.427 72.9403 134.135 76.5292 139.41 79.3924C143.769 81.7589 148.376 82.6603 153.299 81.7199C154.184 81.5496 155.118 81.5831 155.972 81.3264C156.779 81.0808 157.504 80.5785 158.266 80.1878L158.118 79.7413C157.719 79.7692 157.32 79.7775 156.924 79.8306C154.689 80.1348 152.464 80.6231 150.223 80.7292C145.742 80.9385 141.762 79.4929 138.036 76.9645C135.307 75.1115 134.308 72.5943 134.141 69.5552C134.046 67.8305 134.124 66.0975 134.124 64.2445C121.418 59.8603 109.624 62.1933 98.6541 70.2194C100.58 63.5859 102.84 57.2231 105.706 50.9468C107.322 52.3896 107.911 54.8008 110.456 55.0742C112.089 52.8277 113.367 50.3273 114.41 47.7235C115.728 44.4445 116.933 41.1179 118.136 37.7942C118.538 36.6863 118.923 35.5393 119.063 34.3784C119.163 33.5384 119.049 32.5477 118.675 31.8054C117.821 30.1114 116.732 28.5347 115.775 26.8909C115.382 26.2156 115.083 25.4844 114.723 24.7365C116.512 19.7132 118.033 14.6118 120.614 9.74485C123.349 13.6379 126.003 17.316 127.792 21.5412C129.408 25.3588 131.11 29.143 132.837 32.9105C133.278 33.8705 133.965 34.7189 134.646 35.7877C135.943 35.7877 137.319 35.8184 138.698 35.7821C143.54 35.6593 148.337 36.0696 153.123 36.784C154.719 37.0212 156.36 36.9793 157.982 37.01C158.501 37.0184 159.025 36.8426 159.818 36.703C158.59 34.3505 156.469 34.4398 154.228 34.0016C157.22 30.2286 159.988 26.5979 162.91 23.0956C165.857 19.5598 168.955 16.1523 172.237 12.4016C172.636 13.8723 173.085 15.0528 173.266 16.2723C174.02 21.3905 174.893 26.5058 175.337 31.6547C175.864 37.7412 176.077 43.8584 176.255 49.9673C176.322 52.3031 176.903 54.2873 178.186 56.2547C180.829 60.3012 183.257 64.4845 185.758 68.6231C186.246 69.4324 186.651 70.2947 187.253 71.4361C184.694 69.731 182.515 68.1598 180.218 66.784C178.488 65.7459 176.624 64.9226 174.787 64.0687C171.86 62.7068 168.941 63.3682 166.036 64.2054C165.664 64.3115 165.302 64.4594 164.886 64.6045C163.761 61.4873 162.243 58.691 159.62 56.7152C160.329 53.6873 159.966 52.091 158.317 51.6863C157.538 51.4966 156.734 51.8928 156.413 52.6268C156.21 53.09 155.992 53.584 155.763 54.1059C150.324 52.2835 144.983 52.2724 139.792 56.0594C140.029 54.5384 140.219 53.1961 139.795 51.9877C139.552 51.2984 138.876 50.8407 138.148 50.8966C137.272 50.9607 136.778 51.3849 136.412 52.2891C135.419 54.7421 135.706 56.0538 137.576 57.4882C136.426 59.1654 134.953 60.6808 134.517 62.7487L134.95 62.9636C135.402 62.4082 135.885 61.8724 136.295 61.2891C138.296 58.4482 140.903 56.411 144.151 55.1412C147.223 53.9384 150.343 53.8714 153.399 54.9124C158.769 56.7403 162.36 60.3794 163.792 65.9468C164.409 68.3412 164.104 70.7496 163.641 73.1385C163.541 73.6631 163.443 74.1906 163.535 74.7543C165.801 72.2064 165.271 69.0612 165.399 65.8464C167.738 64.9198 170.247 64.0659 172.803 64.7663C177.879 66.1617 182.074 69.2175 186.491 72.5943C180.542 77.0957 174.751 81.4157 169.03 85.825C163.354 90.2008 157.184 93.8204 151.063 97.5599C152.989 98.0929 154.209 96.6166 156.092 96.2092C156.338 100.995 156.583 105.737 156.837 110.651C156.204 110.514 155.579 110.352 154.945 110.246H154.937ZM162.26 115.401C160.845 113.927 159.424 112.446 158.015 110.975C158.33 109.448 157.828 107.746 157.853 106.049C157.878 104.308 157.686 102.561 157.588 100.817C157.488 99.0306 157.39 97.2418 157.284 95.3469C157.571 95.199 157.898 95.0315 158.28 94.8362C158.445 95.1069 158.612 95.2743 158.66 95.4725C159.586 99.2204 160.51 102.968 161.406 106.725C161.741 108.131 161.911 109.582 162.341 110.955C162.542 111.592 163.186 112.088 163.756 112.808C163.225 113.726 162.701 114.636 162.263 115.398L162.26 115.401Z" fill="black"/>
<path d="M205.99 100.981C206.975 100.373 208.061 99.706 208.678 98.7795C209.956 96.8651 210.355 94.6353 210.173 92.386C208.203 90.6557 206.149 90.7144 204.712 92.6455C204.023 93.572 203.518 94.6967 203.183 95.8074C202.865 96.8623 202.745 98.0176 202.772 99.1227C202.814 100.772 204.796 101.715 205.99 100.979V100.981ZM206.852 92.3134C208.778 92.7153 209.021 93.1451 208.652 94.9423C208.354 96.4018 207.946 97.7888 206.883 98.8855C206.18 99.6083 205.39 100.102 204.146 99.4381C203.783 96.5302 204.98 94.2865 206.852 92.3134Z" fill="black"/>
<path d="M159.525 66.6138C157.853 68.0957 155.911 68.6315 153.885 68.7012C149.269 68.8603 145.309 67.3394 142.242 63.7812C141.743 63.2008 141.212 62.7347 140.135 63.2789C140.724 64.0854 141.179 64.9254 141.832 65.5617C145.566 69.1784 150.14 70.2752 155.191 69.8873C156.553 69.784 157.898 69.678 158.947 68.6538C159.466 68.1459 159.944 67.6184 159.525 66.6194V66.6138Z" fill="black"/>
<path d="M150.455 61.3532C151.404 62.2044 152.476 62.2658 153.542 61.5234C154.577 60.8034 155.562 60.0472 154.945 58.3476C152.654 57.7141 150.416 56.4192 148.016 58.3113C148.211 59.8295 149.492 60.4881 150.458 61.3532H150.455Z" fill="black"/>
</svg>
