<svg xmlns="http://www.w3.org/2000/svg" viewBox="0 299.5 612 195"><path fill="#BDC3C9" d="M532.6 422.9c0 5.2 2.5 9.3 9.5 9.3 8.3 0 17-5.9 17.6-19.4-3.9-.6-7.7-1-11.6-1.1-8.3 0-15.5 2.4-15.5 11.2z"/><path fill="#BDC3C9" d="M0 297.9v196.3h612V297.9H0zm173.2 148h-33.9v-45.5c0-14-4.7-19.4-13.8-19.4-11.1 0-15.6 7.9-15.6 19.2v28.2h10.7V446H86.8v-45.6c0-14-4.7-19.4-13.8-19.4-11.1 0-15.6 7.9-15.6 19.2v28.2h15.4V446H23.5v-17.6h10.8v-45.8H22.6V365h34.8v12.2c4.8-8.6 13.3-13.8 24.6-13.8 11.6 0 22.4 5.6 26.4 17.4 4.5-10.8 13.6-17.4 26.4-17.4 14.5 0 27.8 8.8 27.8 28v37h10.8l-.2 17.5zm51.5 1.8c-24.9 0-42.1-15.2-42.1-41.1 0-23.7 14.3-43.2 43.4-43.2s43.2 19.5 43.2 42.1c0 25.9-18.7 42.2-44.5 42.2zm128.8-1.8h-70.7l-2.3-12.2 44.4-51.1h-25.3l-3.6 12.6-16.7-1.8 2.9-28.3h71.1l1.8 12.2-44.9 51.1h26.1l3.8-12.6 18.3 1.8-4.9 28.3zm43.7 0H373v-29h24.2v29zm0-51.8H373v-29h24.2v29zm12.7 51.8l35-123.3h22.8l-35 123.3h-22.8zm47 0l35-123.3h22.8l-35 123.3h-22.8zm120.5 1.8c-10.8 0-16.7-6.3-17.8-16.1-4.7 8.3-12.9 16.1-26 16.1-11.6 0-24.9-6.3-24.9-23.1 0-19.9 19.2-24.6 37.7-24.6 4.4 0 8.9.2 13.3.7V398c0-8.3-.2-18.1-13.3-18.1-4.8 0-8.6.4-12.4 2.3l-3 11.5-18.5-2 3.6-21c14.2-5.7 21.3-7.4 34.6-7.4 17.4 0 32.1 9 32.1 27.4v35.2c0 4.7 1.8 6.3 5.6 6.3 1.2 0 2.3-.2 3.4-.5l.2 12.2c-4.5 2.4-9.5 3.7-14.6 3.8z"/><path fill="#BDC3C9" d="M225.6 382.1c-11.8 0-19.2 8.8-19.2 24 0 14 6.5 24.7 19 24.7 12 0 19.9-9.7 19.9-25.1 0-16.2-8.8-23.6-19.7-23.6z"/></svg>