<svg viewBox="0 0 24 24" fill="none" xmlns="http://www.w3.org/2000/svg"><path fill-rule="evenodd" clip-rule="evenodd" d="M11.9999 22.909C18.0248 22.909 22.909 18.0248 22.909 11.9999C22.909 5.97499 18.0248 1.09082 11.9999 1.09082C5.97499 1.09082 1.09082 5.97499 1.09082 11.9999C1.09082 18.0248 5.97499 22.909 11.9999 22.909Z" stroke="#20123A" stroke-width="2" stroke-linecap="round" stroke-linejoin="round"/><path d="M8.82544 8.72704C9.35501 7.22164 10.8931 6.31767 12.466 6.58745C14.0389 6.85724 15.1878 8.22212 15.1854 9.81795C15.1854 11.9998 11.9127 13.0907 11.9127 13.0907" stroke="#20123A" stroke-width="2" stroke-linecap="round" stroke-linejoin="round"/><path fill-rule="evenodd" clip-rule="evenodd" d="M11.9998 18.5456C12.6023 18.5456 13.0908 18.0572 13.0908 17.4547C13.0908 16.8522 12.6023 16.3638 11.9998 16.3638C11.3974 16.3638 10.9089 16.8522 10.9089 17.4547C10.9089 18.0572 11.3974 18.5456 11.9998 18.5456Z" fill="#20123A"/></svg>
