<svg height="22" viewBox="0 0 22 22" width="22" xmlns="http://www.w3.org/2000/svg"><path d="m13.3342 11 7.634-7.63401c.625-.64772.6156-1.67683-.0212-2.313-.6368-.63616-1.6659-.644615-2.313-.019l-7.634 7.6318-7.63401-7.6318c-.41133-.441435-1.03082-.623147-1.61543-.473847-.58462.1493-1.041117.605797-1.190417 1.190417-.1493.58461.032412 1.2041.473847 1.61543l7.6318 7.63401-7.6318 7.634c-.441435.4113-.623147 1.0308-.473847 1.6154s.605797 1.0411 1.190417 1.1904c.58461.1493 1.2041-.0324 1.61543-.4738l7.63401-7.6318 7.634 7.634c.6477.625 1.6768.6156 2.313-.0212s.6446-1.6659.019-2.313z"/></svg>
