<svg data-name="Layer 1" xmlns="http://www.w3.org/2000/svg" viewBox="0 0 135 40" width="135" height="40"><defs><linearGradient id="a" x1="31.8" y1="1036.71" x2="15.02" y2="1053.49" gradientTransform="translate(-10 -1028)" gradientUnits="userSpaceOnUse"><stop offset="0" stop-color="#00a0ff"/><stop offset=".01" stop-color="#00a1ff"/><stop offset=".26" stop-color="#00beff"/><stop offset=".51" stop-color="#00d2ff"/><stop offset=".76" stop-color="#00dfff"/><stop offset="1" stop-color="#00e3ff"/></linearGradient><linearGradient id="b" x1="43.83" y1="1048" x2="19.64" y2="1048" gradientTransform="translate(-10 -1028)" gradientUnits="userSpaceOnUse"><stop offset="0" stop-color="#ffe000"/><stop offset=".41" stop-color="#ffbd00"/><stop offset=".78" stop-color="orange"/><stop offset="1" stop-color="#ff9c00"/></linearGradient><linearGradient id="c" x1="34.82" y1="1050.29" x2="12.06" y2="1073.04" gradientTransform="translate(-10 -1028)" gradientUnits="userSpaceOnUse"><stop offset="0" stop-color="#ff3a44"/><stop offset="1" stop-color="#c31162"/></linearGradient><linearGradient id="d" x1="17.3" y1="1028.18" x2="27.46" y2="1038.34" gradientTransform="translate(-10 -1028)" gradientUnits="userSpaceOnUse"><stop offset="0" stop-color="#32a071"/><stop offset=".07" stop-color="#2da771"/><stop offset=".48" stop-color="#15cf74"/><stop offset=".8" stop-color="#06e775"/><stop offset="1" stop-color="#00f076"/></linearGradient></defs><rect width="135" height="40" rx="5"/><path d="M130 .8a4.2 4.2 0 0 1 4.2 4.2v30a4.2 4.2 0 0 1-4.2 4.2H5A4.2 4.2 0 0 1 .8 35V5A4.2 4.2 0 0 1 5 .8h125m0-.8H5a5 5 0 0 0-5 5v30a5 5 0 0 0 5 5h125a5 5 0 0 0 5-5V5a5 5 0 0 0-5-5Z" style="fill:#a6a6a6"/><path d="M64.72 12.79a3.72 3.72 0 1 0 3.74 3.72 3.67 3.67 0 0 0-3.62-3.72Zm0 6a2.26 2.26 0 1 1 2.09-2.41.86.86 0 0 1 0 .16 2.15 2.15 0 0 1-2.08 2.22Zm-8.14-6a3.72 3.72 0 1 0 3.74 3.72 3.67 3.67 0 0 0-3.62-3.72Zm0 6a2.26 2.26 0 1 1 2.09-2.41.86.86 0 0 1 0 .16 2.15 2.15 0 0 1-2.08 2.22Zm-9.68-4.86v1.58h3.77a3.19 3.19 0 0 1-.86 2 3.83 3.83 0 0 1-2.91 1.16 4.2 4.2 0 0 1 0-8.39 4 4 0 0 1 2.84 1.12l1.12-1.11a5.53 5.53 0 0 0-4-1.59 5.78 5.78 0 1 0-.48 11.55 3.84 3.84 0 0 0 .48 0 5.32 5.32 0 0 0 4-1.62 5.24 5.24 0 0 0 1.36-3.69 4.77 4.77 0 0 0-.08-1Zm39.6 1.23a3.46 3.46 0 0 0-3.18-2.37 3.53 3.53 0 0 0-3.51 3.57v.15a3.64 3.64 0 0 0 3.56 3.72h.13a3.71 3.71 0 0 0 3.1-1.65l-1.27-.85a2.12 2.12 0 0 1-1.83 1 1.88 1.88 0 0 1-1.8-1.13l5-2.05Zm-5.07 1.24a2 2 0 0 1 1.82-2.16h.13a1.43 1.43 0 0 1 1.38.79Zm-4 3.6H79V9.07h-1.61Zm-2.67-6.38h-.06a2.56 2.56 0 0 0-2-.83 3.72 3.72 0 1 0 0 7.44 2.54 2.54 0 0 0 2-.85h.06v.54a1.91 1.91 0 0 1-2 2.18 2 2 0 0 1-1.87-1.33l-1.42.6a3.54 3.54 0 0 0 3.29 2.19c1.92 0 3.54-1.12 3.54-3.87V13h-1.58Zm-1.88 5.14a2.26 2.26 0 0 1 0-4.51 2.1 2.1 0 0 1 2 2.19.22.22 0 0 0 0 .08A2.06 2.06 0 0 1 73 18.75h-.11ZM94.2 9.07h-3.91V20h1.63v-4.14h2.28a3.4 3.4 0 0 0 .37-6.79Zm0 5.27h-2.32v-3.75h2.32a1.88 1.88 0 1 1 .27 3.75Zm10.08-1.57a3.05 3.05 0 0 0-2.91 1.67l1.45.61a1.53 1.53 0 0 1 1.49-.8 1.56 1.56 0 0 1 1.69 1.39v.11a3.75 3.75 0 0 0-1.7-.42c-1.56 0-3.15.86-3.15 2.46a2.51 2.51 0 0 0 2.64 2.41h.07a2.32 2.32 0 0 0 2.14-1.06V20h1.57v-4.21c.02-1.94-1.42-3.02-3.29-3.02Zm-.2 6c-.53 0-1.28-.27-1.28-.93 0-.84.93-1.17 1.73-1.17A2.89 2.89 0 0 1 106 17a2 2 0 0 1-1.92 1.76Zm9.25-5.77-1.87 4.74h-.06L109.46 13h-1.75l2.91 6.62-1.62 3.69h1.7L115.14 13Zm-14.69 7h1.63V9.07h-1.63Z" style="fill:#fff"/><path d="M10.44 7.54a2 2 0 0 0-.44 1.4v22.12a1.94 1.94 0 0 0 .47 1.4l.07.08L22.9 20.15v-.3L10.51 7.47Z" style="fill:url(#a)"/><path d="m27 24.28-4.1-4.13v-.3l4.1-4.13.09.06L32 18.56c1.4.79 1.4 2.09 0 2.89l-4.89 2.78Z" style="fill:url(#b)"/><path d="M27.12 24.22 22.9 20 10.44 32.46a1.62 1.62 0 0 0 2.07.07l14.61-8.31" style="fill:url(#c)"/><path d="m27.12 15.78-14.61-8.3a1.6 1.6 0 0 0-2.07.06L22.9 20Z" style="fill:url(#d)"/><path d="m27 24.13-14.49 8.25a1.65 1.65 0 0 1-2 0l-.07.07.07.08a1.65 1.65 0 0 0 2 0l14.61-8.31Z" style="isolation:isolate;opacity:.20000000298023224"/><path d="M10.44 32.32a2 2 0 0 1-.44-1.41v.15a1.94 1.94 0 0 0 .47 1.4l.07-.07ZM32 21.3l-5 2.83.09.09L32 21.44A1.74 1.74 0 0 0 33.06 20 1.86 1.86 0 0 1 32 21.3Z" style="isolation:isolate;opacity:.11999999731779099"/><path d="M12.51 7.62 32 18.7a1.86 1.86 0 0 1 1.06 1.3A1.74 1.74 0 0 0 32 18.56L12.51 7.48C11.12 6.68 10 7.34 10 8.94v.15c0-1.6 1.12-2.26 2.51-1.47Z" style="fill:#fff;isolation:isolate;opacity:.25"/><g data-name="Layer 3"><path d="M41.82 28.85h-.72v-1.92h.72ZM43.09 33v-6.07H45a3 3 0 0 1 2.24.85 3.29 3.29 0 0 1 0 4.39A3 3 0 0 1 45 33Zm.78-.75H45a2.11 2.11 0 0 0 2.24-2 1.31 1.31 0 0 0 0-.28 2.11 2.11 0 0 0-1.91-2.31 1.82 1.82 0 0 0-.33 0h-1.13ZM52.67 27.68H49.9v1.93h2.5v.73h-2.5v1.93h2.77V33h-3.55v-6.07h3.55ZM53.79 33v-6.07h1l3 4.74v-4.74h.78V33h-.81l-3.1-5v5ZM61.07 33l2.29-6.09h.89L66.54 33h-.87l-.58-1.65h-2.56l-.6 1.65Zm1.72-2.38h2l-1-2.75ZM67.33 33v-6.07h.79v5.34h2.63V33ZM71.6 33v-6.07h.78V33ZM73.78 33v-6.07h1l3 4.74v-4.74h.78V33h-.81l-3.1-5v5Z" style="fill:#fff;stroke:#fff;stroke-miterlimit:10;stroke-width:.20000000298023224px"/></g></svg>
