<svg height="22" width="24" xmlns="http://www.w3.org/2000/svg"><path d="M8.958.007L9.091 0h5.818c.446 0 .862.223 1.11.594l1.543 2.314 3.165.001a3.273 3.273 0 013.269 3.099l.004.174v12.606a3.273 3.273 0 01-3.273 3.273H3.273A3.273 3.273 0 010 18.788V6.182a3.273 3.273 0 013.273-3.273h3.164L7.982.593c.222-.334.582-.548.976-.587zm5.237 2.66l1.544 2.315c.247.371.664.594 1.11.594h3.878c.335 0 .606.271.606.606v12.606a.606.606 0 01-.606.606H3.273a.606.606 0 01-.606-.606V6.182c0-.335.271-.606.606-.606h3.879l.132-.007c.395-.04.754-.253.977-.587l1.543-2.315zM12 5.818a6.182 6.182 0 100 12.364 6.182 6.182 0 000-12.364zm0 2.667a3.515 3.515 0 110 7.03 3.515 3.515 0 010-7.03z" fill-rule="evenodd"/></svg>