<svg width="24" height="24" fill="none" xmlns="http://www.w3.org/2000/svg"><path fill-rule="evenodd" clip-rule="evenodd" d="M13.523 7.6h4.246a.739.739 0 000-1.477h-4.246a.739.739 0 000 1.477z" fill="#20123A"/><mask id="a" maskUnits="userSpaceOnUse" x="5" y="4" width="12" height="13"><path fill-rule="evenodd" clip-rule="evenodd" d="M5 4.647h11.385V16.03H5V4.647z" fill="#fff"/></mask><g mask="url(#a)"><path fill-rule="evenodd" clip-rule="evenodd" d="M14.908 10.339c-.002 1.23-.455 2.27-1.2 3.015-.745.745-1.785 1.198-3.015 1.2-1.231-.002-2.271-.455-3.017-1.2-.744-.745-1.198-1.785-1.2-3.015.002-1.23.456-2.27 1.2-3.017.746-.744 1.786-1.197 3.017-1.199a.739.739 0 000-1.476c-1.601-.003-3.038.606-4.062 1.63C5.606 7.302 5 8.739 5 10.34c-.001 1.6.606 3.037 1.631 4.06 1.024 1.025 2.46 1.633 4.062 1.632 1.6.001 3.037-.607 4.06-1.632 1.026-1.023 1.633-2.46 1.632-4.06a.739.739 0 00-1.477 0z" fill="#20123A"/></g><mask id="b" maskUnits="userSpaceOnUse" x="13" y="13" width="7" height="6"><path fill-rule="evenodd" clip-rule="evenodd" d="M13.492 13.138h5.723v5.723h-5.723v-5.723z" fill="#fff"/></mask><g mask="url(#b)"><path fill-rule="evenodd" clip-rule="evenodd" d="M13.709 14.399l4.246 4.246a.738.738 0 101.044-1.044l-4.246-4.246a.738.738 0 10-1.044 1.044z" fill="#20123A"/></g></svg>