<svg width="24" height="24" fill="none" xmlns="http://www.w3.org/2000/svg"><path fill-rule="evenodd" clip-rule="evenodd" d="M14.492 3.707v4.068a.708.708 0 001.415 0V3.707a.708.708 0 00-1.415 0z" fill="#20123A"/><path fill-rule="evenodd" clip-rule="evenodd" d="M13.165 6.449h4.068a.708.708 0 000-1.415h-4.068a.708.708 0 000 1.415z" fill="#20123A"/><mask id="a" maskUnits="userSpaceOnUse" x="5" y="5" width="11" height="11"><path fill-rule="evenodd" clip-rule="evenodd" d="M5 5.034h10.907V15.94H5V5.034z" fill="#fff"/></mask><g mask="url(#a)"><path fill-rule="evenodd" clip-rule="evenodd" d="M14.492 10.487c-.002 1.179-.436 2.175-1.149 2.89-.714.713-1.71 1.147-2.89 1.148-1.179 0-2.175-.435-2.89-1.148-.712-.715-1.147-1.711-1.148-2.89.001-1.178.436-2.174 1.149-2.89.714-.712 1.71-1.146 2.89-1.148a.708.708 0 000-1.415c-1.534-.002-2.91.581-3.891 1.563-.982.98-1.564 2.357-1.563 3.89-.001 1.533.58 2.91 1.563 3.89.98.983 2.357 1.565 3.89 1.563 1.534.002 2.91-.58 3.891-1.562.982-.98 1.564-2.358 1.563-3.89a.708.708 0 00-1.415 0z" fill="#20123A"/></g><mask id="b" maskUnits="userSpaceOnUse" x="13" y="13" width="6" height="6"><path fill-rule="evenodd" clip-rule="evenodd" d="M13.136 13.17h5.483v5.482h-5.483V13.17z" fill="#fff"/></mask><g mask="url(#b)"><path fill-rule="evenodd" clip-rule="evenodd" d="M13.343 14.377l4.068 4.068a.707.707 0 101-1l-4.068-4.068a.707.707 0 10-1 1z" fill="#20123A"/></g></svg>