<svg width="47" height="41" viewBox="0 0 47 41" fill="none" xmlns="http://www.w3.org/2000/svg">
<path fill-rule="evenodd" clip-rule="evenodd" d="M32.6773 4.36425C32.6789 4.43443 32.6557 4.50293 32.6116 4.55756C32.5675 4.61219 32.5054 4.64941 32.4365 4.6626C31.8485 4.76903 30.2242 5.15287 29.6693 5.69898C29.1145 6.24508 28.7394 7.86944 28.6364 8.46614C28.624 8.53511 28.5872 8.59732 28.5328 8.64149C28.4783 8.68566 28.4099 8.70887 28.3398 8.70692V4.36425H32.6773Z" fill="#7542E5"/>
<path fill-rule="evenodd" clip-rule="evenodd" d="M28.3584 8.70703C28.2879 8.70675 28.2199 8.68154 28.1662 8.63587C28.1126 8.59021 28.0768 8.52703 28.0653 8.45753C27.9658 7.87304 27.6012 6.27486 27.0516 5.68339C26.502 5.09192 24.8689 4.74821 24.2425 4.63654C24.1736 4.62307 24.1115 4.58583 24.0672 4.53131C24.0229 4.47679 23.9991 4.40845 24 4.33819H28.3619L28.3584 8.70703Z" fill="#7542E5"/>
<path fill-rule="evenodd" clip-rule="evenodd" d="M28.3359 4.36328V0.0206141C28.4063 0.0227203 28.4738 0.0485015 28.5276 0.0937839C28.5815 0.139067 28.6184 0.201197 28.6325 0.270111C28.739 0.865069 29.1228 2.51385 29.6689 3.0617C30.215 3.60955 31.8411 3.97071 32.4291 4.07016C32.498 4.08131 32.5607 4.11654 32.6061 4.16957C32.6514 4.2226 32.6765 4.29 32.6769 4.35979L28.3359 4.36328Z" fill="#7542E5"/>
<path fill-rule="evenodd" clip-rule="evenodd" d="M24.0002 4.36328C23.9975 4.29224 24.0217 4.22279 24.068 4.16879C24.1142 4.11479 24.1791 4.0802 24.2497 4.07191C24.8429 3.97071 26.4969 3.60781 27.0518 3.05821C27.6066 2.50862 27.966 0.877285 28.0655 0.256156C28.0755 0.185381 28.1106 0.120558 28.1644 0.0734873C28.2182 0.0264158 28.2871 0.000225544 28.3586 -0.000321388V4.36154L24.0002 4.36328Z" fill="#007BED"/>
<path fill-rule="evenodd" clip-rule="evenodd" d="M47.0012 10.8072C47.0032 10.9281 46.9629 11.0458 46.8873 11.1401C46.8116 11.2344 46.7054 11.2993 46.5869 11.3236C45.5715 11.5162 42.768 12.1675 41.8104 13.1097C40.8527 14.0519 40.2053 16.8555 40.0223 17.8863C39.9999 18.0053 39.9357 18.1124 39.8414 18.1883C39.7471 18.2642 39.6288 18.304 39.5078 18.3006V10.8072H47.0012Z" fill="#7542E5"/>
<path fill-rule="evenodd" clip-rule="evenodd" d="M39.5478 18.3008C39.4265 18.3009 39.3092 18.2576 39.217 18.1788C39.1248 18.1001 39.0637 17.9909 39.0449 17.8711C38.8715 16.8614 38.2433 14.1042 37.2934 13.083C36.3435 12.0617 33.5342 11.4702 32.4475 11.2872C32.3278 11.2645 32.22 11.2002 32.1431 11.1057C32.0663 11.0112 32.0253 10.8926 32.0274 10.7708H39.542L39.5478 18.3008Z" fill="#7542E5"/>
<path fill-rule="evenodd" clip-rule="evenodd" d="M39.5078 10.8047V3.3113C39.6289 3.31492 39.7452 3.35932 39.8379 3.43731C39.9305 3.5153 39.9942 3.6223 40.0184 3.74097C40.2015 4.76797 40.8643 7.61195 41.8065 8.55802C42.7487 9.50409 45.5542 10.1264 46.5715 10.2922C46.69 10.3125 46.7975 10.3738 46.8754 10.4654C46.9532 10.5569 46.9964 10.6729 46.9974 10.7931L39.5078 10.8047Z" fill="#7542E5"/>
<path fill-rule="evenodd" clip-rule="evenodd" d="M32.0275 10.8047C32.0241 10.682 32.0664 10.5625 32.1462 10.4692C32.2259 10.3759 32.3374 10.3156 32.4591 10.2999C33.4804 10.1264 36.3359 9.50216 37.2935 8.55224C38.2512 7.60232 38.8716 4.78916 39.045 3.71593C39.0617 3.59417 39.1217 3.48252 39.2141 3.40147C39.3065 3.32042 39.425 3.2754 39.5479 3.27468V10.8047H32.0275Z" fill="#007BED"/>
<path fill-rule="evenodd" clip-rule="evenodd" d="M33.3813 18.7575C33.382 18.8035 33.3667 18.8482 33.338 18.8841C33.3094 18.9201 33.2692 18.945 33.2243 18.9547C32.8352 19.0245 31.7657 19.2757 31.401 19.6369C31.0364 19.998 30.7886 21.0658 30.7171 21.4601C30.7085 21.5049 30.6843 21.5452 30.6489 21.574C30.6135 21.6027 30.569 21.618 30.5234 21.6172V18.7575H33.3813Z" fill="#7542E5"/>
<path fill-rule="evenodd" clip-rule="evenodd" d="M30.5359 21.6133C30.4895 21.6131 30.4446 21.5966 30.4092 21.5666C30.3738 21.5366 30.3501 21.495 30.3422 21.4493C30.2777 21.0637 30.0369 20.0116 29.6758 19.6225C29.3146 19.2335 28.2381 19.0066 27.8246 18.9351C27.7792 18.9265 27.7382 18.9022 27.7089 18.8665C27.6795 18.8308 27.6637 18.7859 27.6641 18.7397H30.5359V21.6133Z" fill="#7542E5"/>
<path fill-rule="evenodd" clip-rule="evenodd" d="M30.5234 18.7578V15.8964C30.5694 15.8982 30.6134 15.9153 30.6485 15.945C30.6836 15.9748 30.7078 16.0154 30.7171 16.0604C30.7886 16.453 31.0399 17.5382 31.401 17.9029C31.7622 18.2675 32.8317 18.5013 33.2191 18.5659C33.2645 18.5734 33.3058 18.5968 33.3356 18.632C33.3653 18.6671 33.3815 18.7118 33.3813 18.7578H30.5234Z" fill="#7542E5"/>
<path fill-rule="evenodd" clip-rule="evenodd" d="M27.6641 18.7578C27.6629 18.7107 27.6791 18.6649 27.7098 18.6291C27.7404 18.5933 27.7832 18.5702 27.8299 18.5641C28.219 18.4996 29.3094 18.2606 29.6758 17.8977C30.0422 17.5347 30.2778 16.46 30.3423 16.0517C30.3478 16.004 30.3705 15.96 30.4062 15.9279C30.4418 15.8958 30.488 15.8778 30.536 15.8772V18.7578H27.6641Z" fill="#007BED"/>
<path d="M21.5385 7H2.46154C1.10207 7 0 8.02845 0 9.29711V38.5852C0 39.8539 1.10207 40.8824 2.46154 40.8824H21.5385C22.8979 40.8824 24 39.8539 24 38.5852V9.29711C24 8.02845 22.8979 7 21.5385 7Z" fill="#7542E5"/>
<path d="M19.6464 9.82422H4.35225C3.7025 9.82422 3.17578 10.3455 3.17578 10.9886V36.8952C3.17578 37.5382 3.7025 38.0595 4.35225 38.0595H19.6464C20.2961 38.0595 20.8228 37.5382 20.8228 36.8952V10.9886C20.8228 10.3455 20.2961 9.82422 19.6464 9.82422Z" fill="white"/>
<path d="M14.5884 7H9.41188C8.89208 7 8.4707 7.52053 8.4707 8.16263V10.7785C8.4707 11.4206 8.89208 11.9412 9.41188 11.9412H14.5884C15.1081 11.9412 15.5295 11.4206 15.5295 10.7785V8.16263C15.5295 7.52053 15.1081 7 14.5884 7Z" fill="#7542E5"/>
</svg>
