<svg width="150" height="120" viewBox="24.5 13.8 150 120" fill="none" xmlns="http://www.w3.org/2000/svg">
<g id="kit-heart-curled">
<path id="shadow" d="M95.1447 111.484H77.7295V130.163H95.1447V111.484Z" fill="url(#paint1_linear_11375_28706)"/>
<path id="ear-back" d="M86.1398 26.2179C89.1084 27.8048 80.6568 45.3065 80.6568 45.3065L65.2274 37.8318C65.2274 37.8318 68.4562 34.9687 73.2291 31.6333C77.6799 28.5216 83.6047 24.863 86.1398 26.2179Z" fill="url(#paint2_linear_11375_28706)"/>
<path id="body" d="M91.0573 51.596C87.362 48.418 88.0515 44.0426 83.6708 40.6243C80.1242 37.8565 75.9211 36.7254 75.9211 36.7254C75.9211 36.7254 78.6915 26.2592 77.3001 24.548C75.7889 22.6917 71.7551 23.9555 65.9211 28.0325C61.4083 31.1857 59.0756 33.6178 55.4216 38.2419C51.2721 43.4874 48.6173 48.3103 47.0566 55.5281C44.6784 66.537 48.2622 77.198 54.1004 86.4792C59.9385 95.7603 68.6998 103.952 74.509 113.738C76.7055 117.443 77.7377 121.893 77.4694 126.189C77.4652 126.285 75.2894 126.728 74.2283 127.532C73.0309 128.439 72.1308 129.778 73.0598 130.979C73.7163 131.824 81.5197 131.447 84.703 131.356C85.0127 131.348 84.5998 118.951 84.5998 118.951C84.5998 118.951 92.7542 123.865 93.4024 125.253C93.6295 125.738 82.8409 125.738 80.6073 127.109C78.2951 128.53 77.5891 130.246 78.2291 131.116C78.4107 131.369 79.4182 131.373 83.3983 131.373C89.3768 131.373 101.924 131.344 101.924 131.344C101.924 131.344 130.128 132.193 127.655 105.257C126.78 95.7231 124.385 83.094 111.14 80.1191C91.8252 75.7809 84.6824 63.9681 84.6824 63.964C84.8186 64.4198 93.3859 61.9586 94.191 61.5691C95.9747 60.7032 101.193 56.4438 97.9854 54.4093C95.9375 53.1125 93.1217 53.3694 91.0531 51.5877L91.0573 51.596Z" fill="url(#paint3_linear_11375_28706)"/>
<path id="body-lower" opacity="0.6" d="M113.179 80.6909C112.531 80.4754 111.854 80.2848 111.144 80.1232C91.8293 75.7851 84.6865 63.9723 84.6865 63.9681C84.8227 64.4239 93.39 61.9627 94.1951 61.5733C95.2645 61.0553 97.5725 59.3068 98.5551 57.5583L95.537 55.3748C95.603 55.727 87.6097 59.8289 78.7121 55.296C74.9714 53.3901 70.76 50.9869 66.5404 50.411C57.1598 49.1265 53.5512 52.1885 54.2283 53.7215C54.6701 54.716 57.2506 53.2285 56.6684 53.9039C56.2638 54.3762 52.2671 55.5819 52.8741 57.173C53.481 58.7641 56.6354 57.086 56.462 57.7075C56.2968 58.3 52.9236 59.2198 53.576 60.4711C54.3439 61.9462 59.1251 59.2488 61.272 60.931C66.4083 64.9501 44.249 65.7374 55.8881 89.1765C61.7634 97.629 69.2489 104.884 74.5048 113.747C75.3967 115.247 76.0903 116.871 76.5899 118.557C79.0878 119.307 81.7963 120.02 84.6493 120.612C84.6204 119.614 84.5998 118.959 84.5998 118.959C84.5998 118.959 86.3504 120.016 88.2909 121.284C99.5047 123.103 112.312 122.734 122.779 115.864C123.695 115.259 117.775 95.5366 113.179 80.6991V80.6909Z" fill="url(#paint4_linear_11375_28706)"/>
<path id="body-lower-shading" d="M111.144 80.1232C97.9812 77.1649 90.4751 70.7426 87.0275 66.9473C75.5082 73.5808 64.6205 84.9337 61.8295 92.3006C61.3299 93.6224 61.0863 94.8488 61.0698 96.0007C63.8608 99.448 66.7469 102.821 69.4306 106.338C78.7617 117.704 80.6774 119.229 80.6774 119.229C80.6774 119.229 120.925 119.643 127.539 112.496C127.841 110.341 127.903 107.942 127.655 105.269C126.78 95.7355 124.385 83.1065 111.14 80.1315L111.144 80.1232Z" fill="url(#paint5_linear_11375_28706)"/>
<path id="snoot" d="M83.196 56.9369C82.7625 56.8665 84.2489 60.811 88.8731 63.1727C91.2265 62.5471 93.7699 61.7764 94.1951 61.5734C95.9788 60.7074 101.198 56.448 97.9895 54.4136C96.7798 53.6471 95.3058 53.4234 93.8731 53.0007C88.836 53.904 89.3851 57.9065 83.196 56.9328V56.9369Z" fill="url(#paint6_linear_11375_28706)"/>
<path id="paw-front" d="M81.2596 131.468C82.585 130.917 84.7319 129.056 84.9095 126.811C84.926 126.604 84.9384 126.372 84.9508 126.131C84.8971 126.14 84.8434 126.144 84.7897 126.152C84.7278 122.759 84.6039 118.951 84.6039 118.951C84.6039 118.951 84.7072 119.013 84.8847 119.121C84.637 112.727 84.0507 105.443 84.0507 105.443L74.9013 93.5684L75.5041 101.026L68.097 95.7809L70.0788 102.385L63.1548 98.5446C67.1845 103.434 71.2679 108.277 74.5049 113.73C76.7014 117.434 77.7336 121.884 77.4652 126.181C77.4611 126.276 75.2852 126.72 74.2241 127.523C73.0268 128.431 72.1267 129.769 73.0557 130.971C73.5305 131.584 77.7543 131.555 81.2555 131.455L81.2596 131.468Z" fill="url(#paint7_linear_11375_28706)"/>
<path id="paw-back" d="M93.4024 125.725C93.3446 125.286 81.7468 125.912 79.6989 127.486C78.0061 128.791 77.4528 131.029 78.2703 131.547C79.0879 132.065 90.6278 131.356 95.2149 131.356C99.802 131.356 100.925 131.824 101.767 130.697C102.61 129.57 93.3983 125.721 93.3983 125.721L93.4024 125.725Z" fill="url(#paint8_linear_11375_28706)"/>
<path id="neck-shading" opacity="0.97" d="M91.4784 86.5C91.7839 86.4089 99.5956 76.2162 99.5956 76.2162C99.5956 76.2162 92.4982 72.57 88.4933 68.497C86.5527 66.5248 84.7815 64.1755 84.7237 63.989C77.4198 65.1947 73.5511 70.6392 71.6643 74.2978C69.5627 78.379 71.912 84.333 72.7006 85.054C73.4892 85.7749 90.9499 86.6575 91.4743 86.5H91.4784Z" fill="url(#paint9_linear_11375_28706)"/>
<path id="tail" d="M99.5998 48.704C99.5998 48.704 108.477 39.7046 116.804 46.6282C121.053 50.1584 120.103 56.0917 115.26 61.9629C102.969 76.8708 84.0507 83.4173 81.7014 105.079C81.0821 110.805 82.8244 116.627 85.7683 121.503C88.419 125.895 95.8508 131.36 95.8508 131.36L115.248 131.398C125.458 131.348 131.197 123.505 132.448 113.333C132.51 112.84 132.556 112.363 132.585 111.911C133.064 104.408 131.416 100.103 131.416 100.103C131.416 100.103 154.773 83.6701 153.869 60.8607C153.559 53.1168 152.147 48.1696 152.147 48.1696C152.147 48.1696 151.829 49.8849 151.354 51.3807C150.797 53.1292 150.264 53.8294 150.264 53.8294C150.264 53.8294 150.467 51.1984 149.542 47.8091C148.865 45.3313 147.824 42.8702 144.344 38.6605C136.094 28.6915 129.195 28.4512 129.195 28.4512C129.195 28.4512 131.581 30.092 132.143 31.0325L132.704 31.9731C132.704 31.9731 125.339 26.3049 112.263 31.1361C99.8351 35.727 99.6039 48.704 99.6039 48.704H99.5998Z" fill="url(#paint10_linear_11375_28706)"/>
<path id="butt-shading" opacity="0.97" d="M129.112 101.806C128.666 102.162 128.229 102.526 127.804 102.903C126.879 103.716 125.995 104.573 125.165 105.481C123.101 107.739 121.292 110.316 120.545 113.328C120.066 115.255 120 117.43 120.392 119.51C120.958 122.493 122.477 125.269 125.103 126.798C125.45 127.001 125.785 127.159 126.107 127.287C129.633 124.01 131.751 119.038 132.448 113.328C132.51 112.835 132.556 112.359 132.585 111.907C133.047 104.685 131.536 100.43 131.425 100.119C130.603 100.575 129.835 101.23 129.112 101.806Z" fill="url(#paint11_linear_11375_28706)"/>
<path id="tail-flame" opacity="0.4" d="M142.861 82.8621C142.861 82.8621 146.16 79.3692 148.187 72.052C150.132 65.0331 149.591 61.8675 149.591 61.8675L146.408 66.2761C146.408 66.2761 147.63 61.8137 147.25 56.1662C146.561 45.9362 141.305 43.5745 141.305 43.5745C141.305 43.5745 136.47 46.6861 134.851 63.0981C133.823 73.5104 136.474 87.1795 138.258 86.7278C139.6 86.3839 139.195 87.6021 142.861 82.8621Z" fill="url(#paint12_radial_11375_28706)"/>
<path id="tail-flame_2" opacity="0.7" d="M131.164 33.7628C131.164 33.7628 128.96 32.6855 125.636 32.3458C122.312 32.006 118.299 32.7104 118.299 32.7104L122.494 34.4341C122.494 34.4341 120.091 34.376 115.69 35.1591C113.254 35.5942 111.581 36.543 111.581 36.543C111.581 36.543 116.177 36.4395 120.033 37.3427C123.889 38.246 127.122 39.0166 129.335 40.3922C131.548 41.7678 132.791 44.4403 135.619 42.5054C138.448 40.5704 136.668 36.021 131.169 33.7628H131.164Z" fill="url(#paint13_linear_11375_28706)"/>
<path id="eye" d="M81.3752 50.1914C81.5981 50.4939 81.9491 50.0174 81.7757 49.6445C81.3711 48.7661 80.6981 47.8255 79.5379 47.4029C78.1423 46.8974 77.0688 47.3449 76.305 47.9622C76.016 48.1943 76.1811 48.8365 76.4908 48.679C77.3661 48.2398 78.4974 47.9954 79.6576 48.6293C80.3678 49.0188 80.9417 49.6155 81.3711 50.1914H81.3752Z" fill="url(#paint14_linear_11375_28706)"/>
<path id="heart" d="M99.0135 17.6493C97.8409 19.0373 97.7294 20.1933 97.7294 20.1933C97.7294 20.1933 97.6138 19.0995 96.3297 17.6493C94.2984 15.358 88.357 16.0085 89.2654 21.4778C90.1407 26.744 97.717 32.4702 97.7294 32.4785C97.7294 32.4785 105.302 26.628 106.193 21.3659C107.102 16.0085 100.937 15.3704 99.0135 17.6534V17.6493Z" fill="url(#paint15_linear_11375_28706)"/>
<path id="nose" d="M97.9895 54.4176C97.6757 54.2187 97.3413 54.0571 96.9986 53.9163C96.6972 54.1276 96.4825 54.3969 96.3669 54.6662C96.0366 55.4452 96.4329 57.1564 98.0308 57.2931C98.2744 57.3138 98.5056 57.2931 98.7203 57.2351C99.2075 56.1786 99.1538 55.151 97.9936 54.4135L97.9895 54.4176Z" fill="#200041"/>
</g>
<defs>
<linearGradient id="paint1_linear_11375_28706" x1="82.6056" y1="105.787" x2="89.5672" y2="132.931" gradientUnits="userSpaceOnUse">
<stop stop-color="#F80371"/>
<stop offset="0.14" stop-color="#E20568"/>
<stop offset="0.41" stop-color="#AA0D54"/>
<stop offset="0.62" stop-color="#7D1443"/>
</linearGradient>
<linearGradient id="paint2_linear_11375_28706" x1="82.1349" y1="26.3339" x2="68.0867" y2="49.4515" gradientUnits="userSpaceOnUse">
<stop offset="0.01" stop-color="#FE5B15"/>
<stop offset="0.39" stop-color="#E83C38"/>
<stop offset="1" stop-color="#FB2872"/>
</linearGradient>
<linearGradient id="paint3_linear_11375_28706" x1="82.2505" y1="10.6179" x2="92.0008" y2="161.412" gradientUnits="userSpaceOnUse">
<stop stop-color="#FC3953"/>
<stop offset="0.12" stop-color="#FE561F"/>
<stop offset="0.15" stop-color="#FE7112"/>
<stop offset="0.19" stop-color="#FE8808"/>
<stop offset="0.22" stop-color="#FE9702"/>
<stop offset="0.25" stop-color="#FF9C00"/>
<stop offset="0.36" stop-color="#FF9900"/>
<stop offset="0.43" stop-color="#FF9100"/>
<stop offset="0.48" stop-color="#FF8200"/>
<stop offset="0.53" stop-color="#FF6E00"/>
<stop offset="0.55" stop-color="#FF6600"/>
<stop offset="1" stop-color="#FB2872"/>
</linearGradient>
<linearGradient id="paint4_linear_11375_28706" x1="92.2463" y1="52.694" x2="85.3157" y2="105.048" gradientUnits="userSpaceOnUse">
<stop offset="0.12" stop-color="#FFEB49"/>
<stop offset="0.36" stop-color="#FFB52B" stop-opacity="0.6"/>
<stop offset="0.58" stop-color="#FF8A14" stop-opacity="0.28"/>
<stop offset="0.73" stop-color="#FF7005" stop-opacity="0.08"/>
<stop offset="0.8" stop-color="#FF6600" stop-opacity="0"/>
</linearGradient>
<linearGradient id="paint5_linear_11375_28706" x1="71.9946" y1="80.3718" x2="105.507" y2="105.636" gradientUnits="userSpaceOnUse">
<stop offset="0.13" stop-color="#FB2872" stop-opacity="0"/>
<stop offset="0.33" stop-color="#E11C66" stop-opacity="0.3"/>
<stop offset="0.68" stop-color="#B60753" stop-opacity="0.8"/>
<stop offset="0.84" stop-color="#A5004C"/>
</linearGradient>
<linearGradient id="paint6_linear_11375_28706" x1="87.9359" y1="52.9137" x2="96.5348" y2="63.2507" gradientUnits="userSpaceOnUse">
<stop offset="0.23" stop-color="#FFC638"/>
<stop offset="1" stop-color="#FFE85D"/>
</linearGradient>
<linearGradient id="paint7_linear_11375_28706" x1="72.4322" y1="89.7233" x2="77.7458" y2="145.088" gradientUnits="userSpaceOnUse">
<stop offset="0.01" stop-color="#D81F60" stop-opacity="0"/>
<stop offset="0.47" stop-color="#D81F60"/>
<stop offset="0.56" stop-color="#BE1F57"/>
<stop offset="0.74" stop-color="#7E1F40"/>
<stop offset="1" stop-color="#1C1F1E"/>
</linearGradient>
<linearGradient id="paint8_linear_11375_28706" x1="98.7987" y1="128.178" x2="76.25" y2="130.244" gradientUnits="userSpaceOnUse">
<stop stop-color="#F80371"/>
<stop offset="0.08" stop-color="#E6056A"/>
<stop offset="0.27" stop-color="#C00A5C"/>
<stop offset="0.46" stop-color="#A30E51"/>
<stop offset="0.65" stop-color="#8D1149"/>
<stop offset="0.83" stop-color="#811344"/>
<stop offset="1" stop-color="#7D1443"/>
</linearGradient>
<linearGradient id="paint9_linear_11375_28706" x1="85.5686" y1="74.8678" x2="89.6945" y2="54.1664" gradientUnits="userSpaceOnUse">
<stop offset="0.17" stop-color="#FB2872" stop-opacity="0"/>
<stop offset="0.4" stop-color="#E11C66" stop-opacity="0.3"/>
<stop offset="0.81" stop-color="#B60753" stop-opacity="0.8"/>
<stop offset="1" stop-color="#A5004C"/>
</linearGradient>
<linearGradient id="paint10_linear_11375_28706" x1="133.832" y1="29.6279" x2="103.329" y2="134.245" gradientUnits="userSpaceOnUse">
<stop stop-color="#FFE500"/>
<stop offset="0.45" stop-color="#FF6D00"/>
<stop offset="0.5" stop-color="#FF6709"/>
<stop offset="0.59" stop-color="#FF5622"/>
<stop offset="0.68" stop-color="#FF453F"/>
<stop offset="1" stop-color="#FB0372"/>
</linearGradient>
<linearGradient id="paint11_linear_11375_28706" x1="139.422" y1="120.774" x2="122.309" y2="109.646" gradientUnits="userSpaceOnUse">
<stop offset="0.26" stop-color="#FB2872" stop-opacity="0"/>
<stop offset="0.27" stop-color="#F92771" stop-opacity="0.02"/>
<stop offset="0.44" stop-color="#DB1964" stop-opacity="0.37"/>
<stop offset="0.6" stop-color="#C30E59" stop-opacity="0.64"/>
<stop offset="0.74" stop-color="#B30652" stop-opacity="0.84"/>
<stop offset="0.86" stop-color="#A8014D" stop-opacity="0.96"/>
<stop offset="0.94" stop-color="#A5004C"/>
</linearGradient>
<linearGradient id="paint13_linear_11375_28706" x1="111.91" y1="33.7753" x2="131.826" y2="38.2043" gradientUnits="userSpaceOnUse">
<stop offset="0.03" stop-color="#FFF088"/>
<stop offset="0.12" stop-color="#FFF084" stop-opacity="0.96"/>
<stop offset="0.26" stop-color="#FFF279" stop-opacity="0.84"/>
<stop offset="0.46" stop-color="#FFF567" stop-opacity="0.66"/>
<stop offset="0.69" stop-color="#FFF94F" stop-opacity="0.4"/>
<stop offset="0.95" stop-color="#FFFD31" stop-opacity="0.07"/>
<stop offset="1" stop-color="#FFFF2B" stop-opacity="0"/>
</linearGradient>
<linearGradient id="paint14_linear_11375_28706" x1="79.3575" y1="43.5887" x2="76.1387" y2="48.7255" gradientUnits="userSpaceOnUse">
<stop offset="0.16" stop-color="#A030B9"/>
<stop offset="0.88" stop-color="#00073A"/>
</linearGradient>
<linearGradient id="paint15_linear_11375_28706" x1="87.5849" y1="13.3443" x2="105.954" y2="28.6981" gradientUnits="userSpaceOnUse">
<stop stop-color="#E752FF"/>
<stop offset="0.11" stop-color="#DD4FFF"/>
<stop offset="0.28" stop-color="#C347FF"/>
<stop offset="0.51" stop-color="#983BFF"/>
<stop offset="0.77" stop-color="#5E2AFF"/>
<stop offset="1" stop-color="#271AFF"/>
</linearGradient>
<radialGradient id="paint12_radial_11375_28706" cx="0" cy="0" r="1" gradientTransform="matrix(-20.9466 -7.40664 -6.19967 17.6573 163.245 70.2237)" gradientUnits="userSpaceOnUse">
<stop offset="0.51" stop-color="#FFEB49"/>
<stop offset="0.55" stop-color="#FFEB49" stop-opacity="0.96"/>
<stop offset="0.63" stop-color="#FFEB49" stop-opacity="0.84"/>
<stop offset="0.72" stop-color="#FFEB49" stop-opacity="0.66"/>
<stop offset="0.84" stop-color="#FFEB49" stop-opacity="0.4"/>
<stop offset="0.97" stop-color="#FFEB49" stop-opacity="0.07"/>
<stop offset="1" stop-color="#FFEB49" stop-opacity="0"/>
</radialGradient>
</defs>
</svg>
