<?xml version="1.0" encoding="UTF-8"?>
<svg fill="none"  width="68" height="68"  viewBox="0 0 68 68" xmlns="http://www.w3.org/2000/svg">
<path d="m33.558 1.595v8.8344" stroke="#000" stroke-linecap="round" stroke-width="2"/>
<path d="m9.7051 10.429 6.2469 6.2469" stroke="#000" stroke-linecap="round" stroke-width="2"/>
<path d="m58.777 10.429-6.247 6.2469" stroke="#000" stroke-linecap="round" stroke-width="2"/>
<path d="m66.246 33.399h-8.8345" stroke="#000" stroke-linecap="round" stroke-width="2"/>
<path d="m1.7542 33.399h8.8344" stroke="#000" stroke-linecap="round" stroke-width="2"/>
<path d="m29.036 57.693h9.4862c1.1844 0.0017 2.3312-0.4159 3.2373-1.1788 0.906-0.7628 1.5128-1.8217 1.7129-2.9892l0.909-5.7912c1.9857-1.5789 3.5917-3.5833 4.6996-5.8655 1.1078-2.2821 1.6892-4.7839 1.7014-7.3207 0.0122-2.5369-0.5452-5.0441-1.6311-7.3368s-2.6726-4.3124-4.6431-5.9102c-3.9886-3.2435-9.2202-4.4958-14.353-3.4352-6.6261 1.3821-11.889 6.8116-13.098 13.509-1.1316 6.2674 1.1564 12.383 5.9768 16.103l1.0513 6.0479c0.1995 1.1677 0.8061 2.227 1.7123 2.99s2.0533 1.1803 3.2379 1.178zm11.682-10.881-1.0544 6.054-1.144 0.9616h-9.4831l-1.144-0.9646-1.0513-6.0479c-0.1422-0.8194-0.5844-1.5646-1.2491-2.0964-1.8701-1.4755-3.2998-3.4354-4.1339-5.6666-0.834-2.2313-1.0405-4.6485-0.5969-6.9888 0.9307-5.1667 4.9812-9.3501 10.077-10.408 0.9368-0.1979 1.8768-0.2906 2.8044-0.2906 3.0303-0.0106 5.9711 1.0272 8.3236 2.9374 3.0826 2.5075 4.8512 6.2272 4.8512 10.197 0 3.97-1.8057 7.6928-4.9564 10.222-0.6617 0.5318-1.1007 1.2739-1.2429 2.0902zm-15.648 19.591c0.3624 0.3624 0.8539 0.566 1.3664 0.566h14.687c0.5125 0 1.004-0.2036 1.3664-0.566s0.566-0.8539 0.566-1.3665c0-0.5125-0.2036-1.004-0.566-1.3664s-0.8539-0.566-1.3664-0.566h-14.687c-0.5125 0-1.004 0.2036-1.3664 0.566-0.3625 0.3624-0.5661 0.8539-0.5661 1.3664 0 0.5126 0.2036 1.0041 0.5661 1.3665z" clip-rule="evenodd" fill="#7542E5" fill-rule="evenodd"/>
<path d="m38.522 57.693 0.0014-1h-0.0014v1zm-9.4862 0v-1h-0.0019l0.0019 1zm12.724-1.1788-0.6441-0.7649 0.6441 0.7649zm1.7129-2.9892 0.9857 0.169 0.0022-0.0139-0.9879-0.1551zm0.909-5.7912-0.6223-0.7828-0.3051 0.2426-0.0605 0.3851 0.9879 0.1551zm4.6996-5.8655-0.8996-0.4366 0.8996 0.4366zm1.7014-7.3207-1-0.0048 1 0.0048zm-1.6311-7.3368 0.9037-0.4281-0.9037 0.4281zm-4.6431-5.9102-0.6309 0.7758 0.0011 9e-4 0.6298-0.7767zm-14.353-3.4352-0.2024-0.9793-0.0018 4e-4 0.2042 0.9789zm-13.098 13.509 0.9841 0.1777v-1e-4l-0.9841-0.1776zm5.9768 16.103 0.9852-0.1712-0.0665-0.383-0.3078-0.2375-0.6109 0.7917zm1.0513 6.0479 0.9857-0.1684-5e-4 -0.0028-0.9852 0.1712zm15.577-0.6586 0.6434 0.7655 0.2792-0.2346 0.0626-0.3593-0.9852-0.1716zm1.0544-6.054-0.9852-0.1717v1e-4l0.9852 0.1716zm-2.1984 7.0156v1h0.3644l0.279-0.2345-0.6434-0.7655zm-9.4831 0-0.6446 0.7645 0.2793 0.2355h0.3653v-1zm-1.144-0.9646-0.9852 0.1712 0.0623 0.3586 0.2782 0.2346 0.6447-0.7644zm-1.0513-6.0479-0.9853 0.171 1e-4 2e-4 0.9852-0.1712zm-1.2491-2.0964 0.6247-0.7809-0.0053-0.0041-0.6194 0.785zm-4.1339-5.6666-0.9367 0.3501 0.9367-0.3501zm-0.5969-6.9888 0.9826 0.1862 0.0016-0.0089-0.9842-0.1773zm10.077-10.408 0.2032 0.9792 0.0034-8e-4 -0.2066-0.9784zm2.8044-0.2906v1h0.0035l-0.0035-1zm8.3236 2.9374 0.631-0.7758-7e-4 -6e-4 -0.6303 0.7764zm-0.1052 20.419-0.626-0.7798-4e-4 4e-4 0.6264 0.7794zm-16.891 21.681-0.7072 0.7071h1e-4l0.7071-0.7071zm17.42 0 0.7071 0.7071-0.7071-0.7071zm0-2.7329-0.7071 0.7071 0.7071-0.7071zm-17.42 0 0.7071 0.7071-0.7071-0.7071zm13.453-6.9777h-9.4862v2h9.4862v-2zm2.5932-0.9437c-0.7254 0.6107-1.6435 0.9451-2.5918 0.9437l-0.0029 2c1.4206 2e-3 2.7961-0.4988 3.8828-1.4138l-1.2881-1.5299zm1.3714-2.3932c-0.1602 0.9346-0.646 1.7824-1.3714 2.3932l1.2881 1.5299c1.0867-0.915 1.8146-2.185 2.0545-3.5852l-1.9712-0.3379zm0.9067-5.7774-0.909 5.7913 1.9758 0.3101 0.909-5.7913-1.9758-0.3101zm4.7879-6.147c-1.0425 2.1475-2.5538 4.0337-4.4223 5.5193l1.2447 1.5655c2.1028-1.672 3.8036-3.7946 4.9768-6.2115l-1.7992-0.8733zm1.601-6.8889c-0.0114 2.3871-0.5586 4.7413-1.601 6.8889l1.7992 0.8733c1.1732-2.4168 1.7889-5.0661 1.8018-7.7526l-2-0.0096zm-1.5349-6.904c1.0218 2.1575 1.5464 4.5168 1.5349 6.904l2 0.0096c0.0129-2.6865-0.5774-5.3417-1.7274-7.7697l-1.8075 0.8561zm-4.3691-5.5615c1.8542 1.5035 3.3473 3.4041 4.3691 5.5615l1.8075-0.8561c-1.15-2.4279-2.8302-4.5668-4.917-6.2589l-1.2596 1.5535zm-13.521-3.2326c4.845-1.0011 9.7692 0.182 13.52 3.2317l1.2618-1.5517c-4.2269-3.4372-9.7659-4.7586-15.186-3.6386l0.4048 1.9586zm-12.316 12.707c1.1371-6.2992 6.0937-11.409 12.318-12.708l-0.4084-1.9578c-7.0281 1.4659-12.597 7.2149-13.878 14.31l1.9682 0.3553zm5.6036 15.134c-4.5108-3.4807-6.6721-9.216-5.6036-15.134l-1.9682-0.3554c-1.1948 6.6173 1.2201 13.114 6.35 17.072l1.2218-1.5834zm1.4256 6.6684-1.0513-6.0479-1.9704 0.3425 1.0512 6.0479 1.9705-0.3425zm1.3712 2.3962c-0.7254-0.6107-1.211-1.4587-1.3707-2.3934l-1.9714 0.3368c0.2393 1.4007 0.9669 2.6713 2.0539 3.5865l1.2882-1.5299zm2.5919 0.943c-0.9483 0.0019-1.8666-0.3322-2.5919-0.943l-1.2882 1.5299c1.087 0.9152 2.463 1.4159 3.884 1.4131l-0.0039-2zm11.614-3.655 1.0543-6.0541-1.9703-0.3431-1.0544 6.0541 1.9704 0.3431zm-1.4858 1.5555 1.144-0.9616-1.2868-1.531-1.1441 0.9616 1.2869 1.531zm-10.126 0.2345h9.4831v-2h-9.4831v2zm-1.7887-1.2002 1.1441 0.9647 1.2893-1.5289-1.1441-0.9647-1.2893 1.5289zm-1.3918-6.6411 1.0513 6.0479 1.9704-0.3425-1.0513-6.0479-1.9704 0.3425zm-0.8886-1.4867c0.4774 0.3819 0.7888 0.9117 0.8885 1.4865l1.9706-0.3421c-0.1847-1.0639-0.7577-2.0245-1.6097-2.7062l-1.2494 1.5618zm-4.4459-6.0974c0.8981 2.4025 2.4376 4.5128 4.4511 6.1016l1.2389-1.5701c-1.7265-1.3623-3.0465-3.1718-3.8166-5.2318l-1.8734 0.7003zm-0.6427-7.5251c-0.4776 2.5199-0.2553 5.1226 0.6427 7.5251l1.8734-0.7003c-0.77-2.06-0.9606-4.2916-0.551-6.4524l-1.9651-0.3724zm10.856-11.2c-5.4998 1.1413-9.8555 5.6458-10.858 11.209l1.9683 0.3546c0.8592-4.7698 4.6044-8.6322 9.2958-9.6057l-0.4064-1.9583zm3.0076-0.3115c-0.9943 0-2.0036 0.0994-3.0111 0.3122l0.4133 1.9568c0.8663-0.1829 1.7369-0.269 2.5978-0.269v-2zm8.9539 3.161c-2.5316-2.0556-5.6963-3.1724-8.9574-3.161l7e-3 2c2.7996-0.0098 5.5164 0.9489 7.6897 2.7137l1.2607-1.5527zm5.2209 10.974c0-4.2711-1.9041-8.2757-5.2202-10.973l-1.2621 1.5515c2.8493 2.3177 4.4823 5.7525 4.4823 9.4216h2zm-5.3304 11.002c3.3822-2.715 5.3304-6.7222 5.3304-11.002h-2c0 3.6605-1.6631 7.0987-4.5824 9.4422l1.252 1.5596zm-0.8838 1.482c0.0998-0.5729 0.409-1.1003 0.8843-1.4823l-1.2529-1.5589c-0.8481 0.6816-1.4171 1.6383-1.6017 2.6979l1.9703 0.3433zm-15.267 18.986c-0.2473 0-0.4845-0.0982-0.6593-0.2731l-1.4142 1.4142c0.5499 0.55 1.2958 0.8589 2.0735 0.8589v-2zm14.687 0h-14.687v2h14.687v-2zm0.6593-0.2731c-0.1748 0.1749-0.412 0.2731-0.6593 0.2731v2c0.7777 0 1.5236-0.3089 2.0735-0.8589l-1.4142-1.4142zm0.2731-0.6594c0 0.2473-0.0982 0.4845-0.2731 0.6594l1.4142 1.4142c0.55-0.5499 0.8589-1.2958 0.8589-2.0736h-2zm-0.2731-0.6593c0.1749 0.1748 0.2731 0.412 0.2731 0.6593h2c0-0.7777-0.3089-1.5236-0.8589-2.0735l-1.4142 1.4142zm-0.6593-0.2731c0.2473 0 0.4845 0.0982 0.6593 0.2731l1.4142-1.4142c-0.5499-0.55-1.2958-0.8589-2.0735-0.8589v2zm-14.687 0h14.687v-2h-14.687v2zm-0.6593 0.2731c0.1748-0.1749 0.412-0.2731 0.6593-0.2731v-2c-0.7777 0-1.5236 0.3089-2.0736 0.8589l1.4143 1.4142zm-0.2732 0.6593c0-0.2473 0.0983-0.4845 0.2732-0.6593l-1.4142-1.4142c-0.55 0.5499-0.859 1.2958-0.859 2.0735h2zm0.2732 0.6594c-0.1749-0.1749-0.2732-0.4121-0.2732-0.6594h-2c0 0.7778 0.309 1.5237 0.8589 2.0736l1.4143-1.4142z" fill="#000"/>
<path d="m48.374 33.374c0 3.4384-2.2086 11.043-5.7424 12.81-0.4417 7.951-3.9766 10.44-9.2762 9.7179-4.0083 0-7.0676 0-8.3927-9.2762-1.6852-3.1115-5.3007-7.0676-7.0676-10.601 0-7.5626 7.8976-16.344 15.46-16.344s15.019 6.1307 15.019 13.693z" fill="#7542E5"/>
</svg>
