<svg width="249" height="210" viewBox="0 0 249 210" fill="none" xmlns="http://www.w3.org/2000/svg">
<g filter="url(#filter0_d_1790_12812)">
<path d="M141.503 63.3269C141.319 63.3269 141.138 63.3364 140.956 63.3407C140.956 63.3361 140.956 63.3315 140.956 63.3269C140.956 47.1301 127.855 34 111.693 34C98.5692 34 87.4634 42.6587 83.7523 54.5866C80.9509 53.108 77.7621 52.267 74.3759 52.267C63.2447 52.267 54.2211 61.3104 54.2211 72.466C54.2211 74.2832 54.4645 76.0429 54.9136 77.7181C52.8917 76.818 50.6589 76.3077 48.3039 76.3077C39.2958 76.3077 31.9934 83.6261 31.9934 92.6538C31.9934 101.682 39.2958 109 48.3039 109H141.503C154.088 109 164.29 98.7758 164.29 86.1634C164.29 73.5511 154.088 63.3269 141.503 63.3269Z" fill="white"/>
</g>
<g filter="url(#filter1_d_1790_12812)">
<path d="M123.968 86.0256C124.124 86.0256 124.278 86.0338 124.433 86.0374C124.433 86.0335 124.432 86.0296 124.432 86.0256C124.432 72.2044 135.564 61 149.295 61C160.445 61 169.881 68.3887 173.034 78.5672C175.414 77.3055 178.124 76.5879 181.001 76.5879C190.458 76.5879 198.125 84.3049 198.125 93.8243C198.125 95.375 197.918 96.8766 197.536 98.3061C199.254 97.5381 201.151 97.1025 203.152 97.1025C210.805 97.1025 217.01 103.348 217.01 111.051C217.01 118.755 210.805 125 203.152 125H123.968C113.275 125 104.608 116.275 104.608 105.513C104.608 94.7502 113.275 86.0256 123.968 86.0256Z" fill="white"/>
</g>
<g filter="url(#filter2_d_1790_12812)">
<circle cx="125" cy="120" r="42" fill="white"/>
</g>
<g clip-path="url(#clip0_1790_12812)">
<path d="M145.859 100.883V115.437C145.859 115.93 145.719 116.422 145.438 116.773C145.016 117.406 144.313 117.758 143.539 117.758H129.336C128.703 117.758 128.141 117.547 127.648 117.125C127.227 116.703 126.945 116.07 126.945 115.508V113.187C126.945 112.555 127.227 111.992 127.648 111.57C128.07 111.148 128.703 110.867 129.266 110.937H135.875C132.711 107.422 128.141 105.453 123.43 105.594C115.766 105.594 109.367 110.305 108.102 116.844L107.891 117.969C107.609 119.234 106.414 120.078 105.148 119.797L103.672 119.516L102.898 119.375C102.266 119.305 101.773 118.953 101.352 118.461C100.93 117.969 100.859 117.336 101 116.703L101.211 115.578C103.109 105.734 112.461 98.5624 123.5 98.5624C129.055 98.5624 134.469 100.461 138.758 103.906V100.883C138.758 100.25 139.039 99.6874 139.461 99.2655C139.883 98.8436 140.516 98.5624 141.148 98.6327H143.469C144.102 98.6327 144.664 98.8436 145.156 99.2655C145.578 99.6874 145.859 100.25 145.859 100.883Z" fill="#1CC5A0"/>
<path d="M145.367 116.844C144.945 117.477 144.242 117.828 143.469 117.828H129.336C128.703 117.828 128.141 117.617 127.648 117.195C127.227 116.773 126.945 116.141 126.945 115.578V113.258C126.945 112.625 127.227 112.063 127.648 111.641C128.07 111.219 128.703 110.938 129.266 111.008H135.875C132.711 107.492 128.141 105.523 123.43 105.664C115.766 105.664 109.367 110.375 108.102 116.914L107.891 118.039C107.609 119.305 106.414 120.148 105.148 119.867L103.672 119.586L102.898 119.445C102.266 119.375 101.773 119.023 101.352 118.531C100.93 118.039 100.859 117.406 101 116.773L101.211 115.648C106.414 101.164 123.641 102.008 123.641 102.008C138.055 102.008 145.367 116.844 145.367 116.844Z" fill="#1CC5A0"/>
<path d="M101.211 140.047V125.492C101.211 125 101.352 124.508 101.633 124.156C102.055 123.523 102.758 123.172 103.531 123.172H117.664C118.297 123.172 118.859 123.383 119.352 123.875C119.773 124.297 120.055 124.93 120.055 125.562V127.812C120.055 128.445 119.773 129.008 119.352 129.43C118.93 129.851 118.297 130.133 117.734 130.062H111.125C114.289 133.578 118.859 135.547 123.57 135.406C131.234 135.406 137.703 130.695 138.898 124.156L139.109 123.031C139.391 121.766 140.586 120.922 141.852 121.203L143.328 121.484L144.102 121.625C144.734 121.695 145.227 122.047 145.578 122.609C145.93 123.101 146.07 123.734 145.93 124.367L145.719 125.562C143.891 135.266 134.539 142.437 123.5 142.437C117.945 142.437 112.531 140.539 108.242 137.023V140.047C108.242 140.68 107.961 141.242 107.539 141.664C107.117 142.086 106.484 142.367 105.852 142.297H103.531C102.266 142.367 101.211 141.312 101.211 140.047Z" fill="#1CC5A0"/>
<path d="M101.633 124.086C102.055 123.453 102.758 123.101 103.531 123.101H117.664C118.297 123.101 118.859 123.312 119.352 123.805C119.773 124.226 120.055 124.859 120.055 125.492V127.742C120.055 128.375 119.773 128.937 119.352 129.359C118.93 129.781 118.297 130.062 117.734 129.992H111.125C114.289 133.508 118.859 135.476 123.57 135.336C131.234 135.336 137.703 130.625 138.898 124.086L139.109 122.961C139.391 121.695 140.586 120.851 141.852 121.133L143.328 121.414L144.102 121.555C144.734 121.625 145.227 121.976 145.578 122.539C145.93 123.031 146.07 123.664 145.93 124.297L145.719 125.492C140.516 139.836 123.359 138.922 123.359 138.922C108.945 138.992 101.633 124.086 101.633 124.086Z" fill="#1CC5A0"/>
</g>
<circle cx="77.5" cy="101.5" r="20.5" fill="white"/>
<defs>
<filter id="filter0_d_1790_12812" x="-0.0065918" y="0" width="196.296" height="139" filterUnits="userSpaceOnUse" color-interpolation-filters="sRGB">
<feFlood flood-opacity="0" result="BackgroundImageFix"/>
<feColorMatrix in="SourceAlpha" type="matrix" values="0 0 0 0 0 0 0 0 0 0 0 0 0 0 0 0 0 0 127 0" result="hardAlpha"/>
<feOffset dy="-2"/>
<feGaussianBlur stdDeviation="16"/>
<feComposite in2="hardAlpha" operator="out"/>
<feColorMatrix type="matrix" values="0 0 0 0 0 0 0 0 0 0.564706 0 0 0 0 0.929412 0 0 0 0.12 0"/>
<feBlend mode="normal" in2="BackgroundImageFix" result="effect1_dropShadow_1790_12812"/>
<feBlend mode="normal" in="SourceGraphic" in2="effect1_dropShadow_1790_12812" result="shape"/>
</filter>
<filter id="filter1_d_1790_12812" x="72.6077" y="27" width="176.402" height="128" filterUnits="userSpaceOnUse" color-interpolation-filters="sRGB">
<feFlood flood-opacity="0" result="BackgroundImageFix"/>
<feColorMatrix in="SourceAlpha" type="matrix" values="0 0 0 0 0 0 0 0 0 0 0 0 0 0 0 0 0 0 127 0" result="hardAlpha"/>
<feOffset dy="-2"/>
<feGaussianBlur stdDeviation="16"/>
<feComposite in2="hardAlpha" operator="out"/>
<feColorMatrix type="matrix" values="0 0 0 0 0 0 0 0 0 0.564706 0 0 0 0 0.929412 0 0 0 0.12 0"/>
<feBlend mode="normal" in2="BackgroundImageFix" result="effect1_dropShadow_1790_12812"/>
<feBlend mode="normal" in="SourceGraphic" in2="effect1_dropShadow_1790_12812" result="shape"/>
</filter>
<filter id="filter2_d_1790_12812" x="61" y="78" width="132" height="132" filterUnits="userSpaceOnUse" color-interpolation-filters="sRGB">
<feFlood flood-opacity="0" result="BackgroundImageFix"/>
<feColorMatrix in="SourceAlpha" type="matrix" values="0 0 0 0 0 0 0 0 0 0 0 0 0 0 0 0 0 0 127 0" result="hardAlpha"/>
<feMorphology radius="8" operator="erode" in="SourceAlpha" result="effect1_dropShadow_1790_12812"/>
<feOffset dx="2" dy="24"/>
<feGaussianBlur stdDeviation="16"/>
<feComposite in2="hardAlpha" operator="out"/>
<feColorMatrix type="matrix" values="0 0 0 0 0 0 0 0 0 0.564706 0 0 0 0 0.929412 0 0 0 0.12 0"/>
<feBlend mode="normal" in2="BackgroundImageFix" result="effect1_dropShadow_1790_12812"/>
<feBlend mode="normal" in="SourceGraphic" in2="effect1_dropShadow_1790_12812" result="shape"/>
</filter>
<clipPath id="clip0_1790_12812">
<rect width="45" height="45" fill="white" transform="translate(101 98)"/>
</clipPath>
</defs>
</svg>
