<svg xmlns="http://www.w3.org/2000/svg" width="250" height="200" fill="none"><path fill="none" d="M0 0h250v200H0z"/><path fill="#E7DFFF" d="M56.685 64.4c36.793 9.381 34.402-28.217 60.573-37.89 26.172-9.671 30.118 14.729 43.809 20.483 13.691 5.754 38.278-3.537 52.872 17.236 14.594 20.773 26.516 61.25-14.183 95.985-35.814 30.565-43.988-26.944-77.377-19.913-33.73 7.103 10.642 6.281-25.034 19.913-35.677 13.632-51.158-4.777-48.361-24.465 2.797-19.688-.806-18.535-19.913-31.292C9.964 91.7 30.298 57.671 56.685 64.399Z" opacity=".6"/><path fill="#7542E5" stroke="#000" stroke-width="1.991" d="M147.381 76.025 125.246 98.16c-6.973-4.167-16.161-3.257-22.162 2.744-7.08 7.081-7.08 18.6 0 25.68 7.081 7.081 18.6 7.081 25.681 0 6.429-6.429 6.941-16.461 1.71-23.555l14.576-14.576 5.971 5.97a3.571 3.571 0 0 0 5.049-5.048l-5.971-5.971 2.33-2.33a3.57 3.57 0 0 0-5.049-5.049Zm-23.665 45.51c-4.296 4.296-11.287 4.296-15.583 0-4.295-4.295-4.295-11.286 0-15.582 4.296-4.296 11.287-4.296 15.583 0 4.295 4.296 4.295 11.287 0 15.582Z"/><path fill="#fff" stroke="#000" stroke-width="1.707" d="M78.973 153.436c-4.701-7.155-8.01-15.811-9.824-25.752l-4.76-26.026v-.001a19.96 19.96 0 0 1 1.605-12.183 19.8 19.8 0 0 1 8.424-8.897l41.076-22.084.002-.002a19.444 19.444 0 0 1 18.487-.027l.002.002 41.073 22.495.006.003a19.745 19.745 0 0 1 8.46 8.906 19.893 19.893 0 0 1 1.587 12.217v.002l-4.746 25.674v.002c-1.808 9.879-5.123 18.495-9.804 25.63v.001c-9.547 14.573-22.716 26.745-37.079 34.283h-.001a18.844 18.844 0 0 1-8.733 2.163c-2.996 0-6.01-.744-8.717-2.15-14.336-7.518-27.505-19.682-37.058-34.256Z"/><path fill="#fff" stroke="#000" stroke-width="1.707" d="M83.244 150.317v-.001c-4.251-6.421-7.245-14.193-8.886-23.122l-4.312-23.402a17.734 17.734 0 0 1 1.446-10.9 17.777 17.777 0 0 1 7.595-7.96h.001l37.21-19.858.002-.001a17.647 17.647 0 0 1 16.675-.025l.002.002 37.207 20.227.006.002a17.73 17.73 0 0 1 7.628 7.97 17.69 17.69 0 0 1 1.431 10.929l-.001.002-4.299 23.086v.001c-1.636 8.872-4.635 16.608-8.868 23.013h-.001c-8.64 13.093-20.56 24.027-33.558 30.798a17.103 17.103 0 0 1-7.877 1.937 17.24 17.24 0 0 1-7.862-1.925c-12.973-6.753-24.893-17.681-33.54-30.773Z"/><path fill="#7542E5" stroke="#000" stroke-width="1.635" d="m144.245 99.45-18.178 18.178c-5.726-3.423-13.271-2.675-18.199 2.253-5.814 5.814-5.814 15.273 0 21.088 5.815 5.815 15.274 5.815 21.089 0 5.28-5.28 5.7-13.518 1.405-19.344l11.969-11.969 4.904 4.903a2.933 2.933 0 0 0 4.146 0 2.933 2.933 0 0 0 0-4.146l-4.904-4.903 1.914-1.914a2.932 2.932 0 0 0-4.146-4.146Zm-19.434 37.373c-3.528 3.528-9.269 3.528-12.796 0-3.528-3.528-3.528-9.269 0-12.796 3.527-3.528 9.268-3.528 12.796 0 3.527 3.527 3.527 9.268 0 12.796Z"/><path fill="#7542E5" stroke="#000" stroke-width="1.331" d="m64.009 52.281-.142-.147-.2-.043-7.534-1.585h-.002a1.834 1.834 0 0 1-1.436-1.492l-.001-.005a1.83 1.83 0 0 1 .85-1.883l.002-.001 6.54-4.01.17-.104.084-.179.555-1.171.08-.17-.02-.186-.813-7.593v-.001c-.08-.76.302-1.475.974-1.83a1.838 1.838 0 0 1 2.023.197l.037.03 5.81 4.96.143.121.185.03 1.28.202.196.03.18-.08 7.002-3.135a1.83 1.83 0 0 1 2.038.36v.001c.55.532.713 1.328.422 2.03l-2.937 7.103-.077.184.038.196.243 1.258.035.183.124.138 5.122 5.667a1.83 1.83 0 0 1 .285 2.05 1.846 1.846 0 0 1-1.799 1.028l-7.637-.6-.192-.014-.17.09-1.138.6-.17.09-.097.167-3.812 6.639-.001.001a1.843 1.843 0 0 1-1.865.908h-.004a1.83 1.83 0 0 1-1.528-1.39v-.002l-1.784-7.409-.042-.175-.125-.13-.892-.928Z"/><circle cx="35.132" cy="96.39" r="6.788" fill="#fff"/><mask id="a" fill="#fff"><path fill-rule="evenodd" d="m36.47 109.054-2.186-.006a2.886 2.886 0 0 1-1.67-.544 2.7 2.7 0 0 1-1.005-1.393l-.716-2.369a10.842 10.842 0 0 1-1.443-.809l-2.5.59c-.584.135-1.2.086-1.754-.141a2.78 2.78 0 0 1-1.325-1.12l-1.099-1.821a2.599 2.599 0 0 1-.354-1.646c.068-.57.326-1.102.734-1.52l1.798-1.82a8.513 8.513 0 0 1 0-1.555l-1.794-1.781a2.65 2.65 0 0 1-.76-1.528 2.575 2.575 0 0 1 .343-1.656l1.087-1.812c.3-.496.757-.885 1.306-1.11a2.896 2.896 0 0 1 1.744-.14l2.557.596c.451-.299.92-.557 1.4-.777l.7-2.365a2.657 2.657 0 0 1 .996-1.388 2.855 2.855 0 0 1 1.668-.535l2.186.006c1.22.004 2.319.791 2.67 1.916l.75 2.406c.465.217.923.475 1.365.769l2.554-.582a2.92 2.92 0 0 1 1.742.154c.55.228 1.011.619 1.315 1.114l1.1 1.819a2.588 2.588 0 0 1-.397 3.181l-1.78 1.772c.05.518.054 1.039.009 1.556l1.81 1.83c.411.42.672.954.744 1.524a2.577 2.577 0 0 1-.344 1.643l-1.087 1.813c-.3.499-.763.89-1.317 1.114a2.894 2.894 0 0 1-1.755.129l-2.503-.604a10.48 10.48 0 0 1-1.398.786l-.735 2.403c-.17.549-.52 1.03-.999 1.373a2.86 2.86 0 0 1-1.657.528Zm-6.003-13.34c.008 2.572 2.196 4.669 4.876 4.676 2.681.008 4.855-2.077 4.847-4.647-.009-2.57-2.196-4.668-4.877-4.676-2.68-.008-4.855 2.077-4.846 4.648Z" clip-rule="evenodd"/></mask><path fill="#7417FC" fill-rule="evenodd" d="m36.47 109.054-2.186-.006a2.886 2.886 0 0 1-1.67-.544 2.7 2.7 0 0 1-1.005-1.393l-.716-2.369a10.842 10.842 0 0 1-1.443-.809l-2.5.59c-.584.135-1.2.086-1.754-.141a2.78 2.78 0 0 1-1.325-1.12l-1.099-1.821a2.599 2.599 0 0 1-.354-1.646c.068-.57.326-1.102.734-1.52l1.798-1.82a8.513 8.513 0 0 1 0-1.555l-1.794-1.781a2.65 2.65 0 0 1-.76-1.528 2.575 2.575 0 0 1 .343-1.656l1.087-1.812c.3-.496.757-.885 1.306-1.11a2.896 2.896 0 0 1 1.744-.14l2.557.596c.451-.299.92-.557 1.4-.777l.7-2.365a2.657 2.657 0 0 1 .996-1.388 2.855 2.855 0 0 1 1.668-.535l2.186.006c1.22.004 2.319.791 2.67 1.916l.75 2.406c.465.217.923.475 1.365.769l2.554-.582a2.92 2.92 0 0 1 1.742.154c.55.228 1.011.619 1.315 1.114l1.1 1.819a2.588 2.588 0 0 1-.397 3.181l-1.78 1.772c.05.518.054 1.039.009 1.556l1.81 1.83c.411.42.672.954.744 1.524a2.577 2.577 0 0 1-.344 1.643l-1.087 1.813c-.3.499-.763.89-1.317 1.114a2.894 2.894 0 0 1-1.755.129l-2.503-.604a10.48 10.48 0 0 1-1.398.786l-.735 2.403c-.17.549-.52 1.03-.999 1.373a2.86 2.86 0 0 1-1.657.528Zm-6.003-13.34c.008 2.572 2.196 4.669 4.876 4.676 2.681.008 4.855-2.077 4.847-4.647-.009-2.57-2.196-4.668-4.877-4.676-2.68-.008-4.855 2.077-4.846 4.648Z" clip-rule="evenodd"/><path fill="#000" d="M34.284 109.048v1.137h.004l-.004-1.137Zm2.186.006.003 1.137h.005l-.008-1.137Zm-3.857-.55-.664.92.664-.92Zm-1.004-1.393-1.09.323.001.004 1.089-.327Zm-.716-2.369 1.09-.323-.15-.492-.466-.216-.474 1.031Zm-1.443-.809.628-.945-.414-.276-.482.114.268 1.107Zm-2.5.59.265 1.108.004-.001-.268-1.107Zm-1.754-.141-.427 1.052.427-1.052Zm-1.325-1.12-.974.583.003.004.97-.587Zm-1.099-1.821-.976.579.002.004.974-.583Zm-.354-1.646 1.13.142-1.13-.142Zm.734-1.52-.813-.8-.003.003.816.798Zm1.798-1.82.813.802.37-.374-.05-.525-1.133.098Zm0-1.555 1.133.11.049-.534-.383-.38-.8.804Zm-1.794-1.781-.802.802.002.002.8-.804Zm-.76-1.528-1.13.14 1.13-.14Zm.343-1.656-.978-.589-.001.003.979.586Zm1.087-1.812-.976-.593-.002.004.978.589Zm1.306-1.11.438 1.053-.438-1.053Zm1.744-.14.252-1.108-.004-.001-.248 1.108Zm2.557.596-.253 1.107.477.111.408-.269-.632-.95Zm1.4-.777.48 1.034.466-.213.145-.492-1.091-.33Zm.7-2.365-1.09-.333-.002.004 1.092.329Zm.996-1.388.67.923-.67-.923Zm1.668-.535-.003-1.137h-.005l.008 1.137Zm2.186.006.004 1.138-.004-1.138Zm2.67 1.916 1.087-.333-1.087.333Zm.75 2.406-1.086.333.15.483.46.214.477-1.03Zm1.365.769-.627.945.41.273.477-.11-.26-1.108Zm2.554-.582-.252-1.11-.008.001.26 1.11Zm1.742.154-.43 1.05.43-1.05Zm1.315 1.114.974-.583-.004-.007-.97.59Zm1.1 1.819-.974.583.973-.583Zm-.397 3.181.806.809-.806-.809Zm-1.78 1.772-.806-.808-.38.378.053.535 1.133-.105Zm.009 1.556-1.134-.105-.046.526.372.376.808-.797Zm1.81 1.83.81-.793-.003-.003-.807.797Zm.744 1.524 1.13-.136-1.13.136Zm-.344 1.643.978.589.002-.004-.98-.585Zm-1.087 1.813.976.591.002-.002-.978-.589Zm-1.317 1.114.433 1.054-.433-1.054Zm-1.755.129-.26 1.106h.001l.26-1.106Zm-2.503-.604.261-1.105-.484-.117-.413.275.636.947Zm-1.398.786-.486-1.031-.456.212-.147.481 1.089.338Zm-.735 2.403 1.087.342.001-.004-1.088-.338Zm-.999 1.373-.666-.926.666.926Zm-2.784-8.136.004 1.138-.004-1.138Zm-4.876-4.675-1.139-.003 1.139.003Zm9.723.028 1.138.003-1.138-.003Zm-5.902 14.442 2.185.006-.007-2.274-2.186-.007.008 2.275Zm-2.339-.761a4.028 4.028 0 0 0 2.335.761v-2.275a1.741 1.741 0 0 1-1.006-.325l-1.329 1.839Zm-1.429-1.986a3.85 3.85 0 0 0 1.429 1.986l1.329-1.839a1.556 1.556 0 0 1-.581-.8l-2.177.653Zm-.717-2.374.716 2.37 2.18-.646-.717-2.369-2.179.645Zm-.98-.186c.507.338 1.04.637 1.595.895l.95-2.062c-.45-.209-.881-.45-1.29-.723l-1.256 1.89Zm-1.604.752 2.499-.59-.536-2.214-2.5.59.537 2.214Zm-2.45-.196a4.05 4.05 0 0 0 2.446.197l-.529-2.216a1.77 1.77 0 0 1-1.064-.085l-.853 2.104Zm-1.87-1.585a3.934 3.934 0 0 0 1.87 1.585l.853-2.104a1.633 1.633 0 0 1-.78-.656l-1.942 1.175Zm-1.1-1.825 1.098 1.821 1.948-1.166-1.099-1.821-1.948 1.166Zm-.512-2.37a3.738 3.738 0 0 0 .509 2.366l1.952-1.158a1.457 1.457 0 0 1-.2-.924l-2.26-.285Zm1.05-2.176a3.745 3.745 0 0 0-1.05 2.175l2.261.284c.038-.317.182-.62.42-.863l-1.632-1.596Zm1.8-1.824-1.798 1.82 1.626 1.603 1.798-1.82-1.626-1.603Zm-.322-.864a9.65 9.65 0 0 0 .001 1.764l2.268-.196a7.376 7.376 0 0 1-.001-1.348l-2.268-.22Zm-1.459-.867 1.793 1.781 1.6-1.608-1.793-1.781-1.6 1.608Zm-1.09-2.192a3.795 3.795 0 0 0 1.088 2.19l1.605-1.604a1.505 1.505 0 0 1-.435-.867l-2.257.281Zm.494-2.382a3.709 3.709 0 0 0-.493 2.382l2.257-.281a1.442 1.442 0 0 1 .194-.929L21.76 89.35Zm1.088-1.815-1.087 1.812 1.955 1.178 1.087-1.813-1.955-1.177Zm1.847-1.574a3.86 3.86 0 0 0-1.845 1.57l1.951 1.185c.171-.283.438-.514.769-.65l-.875-2.105Zm2.43-.196a4.033 4.033 0 0 0-2.43.196l.875 2.106a1.759 1.759 0 0 1 1.057-.085l.497-2.217Zm2.56.597-2.557-.596-.505 2.215 2.557.596.505-2.215Zm.668-.704a11.51 11.51 0 0 0-1.552.862l1.264 1.9a9.25 9.25 0 0 1 1.247-.693l-.959-2.069Zm.088-1.66-.7 2.366 2.183.658.701-2.365-2.184-.658Zm1.418-1.982a3.786 3.786 0 0 0-1.416 1.979l2.18.666a1.53 1.53 0 0 1 .577-.798l-1.34-1.847Zm2.33-.748c-.837 0-1.654.26-2.33.748l1.34 1.847c.285-.206.638-.32 1.006-.32l-.016-2.275Zm2.19.006-2.185-.006.007 2.274 2.186.007-.008-2.275Zm3.76 2.72c-.507-1.625-2.066-2.715-3.76-2.72l.008 2.275c.747.002 1.385.487 1.58 1.11l2.172-.665Zm.751 2.407-.75-2.407-2.174.665.75 2.407 2.174-.665Zm.905.155c-.49-.325-.997-.61-1.514-.852l-.955 2.059c.412.192.82.421 1.215.684l1.254-1.89Zm1.667-.745-2.553.582.519 2.218 2.553-.582-.519-2.218Zm2.433.213a4.06 4.06 0 0 0-2.425-.214l.503 2.221a1.779 1.779 0 0 1 1.06.093l.862-2.1Zm1.854 1.574a3.943 3.943 0 0 0-1.854-1.574l-.862 2.1c.333.138.603.37.777.654l1.939-1.18Zm1.103 1.826-1.099-1.82-1.947 1.167 1.099 1.82 1.947-1.167Zm-.564 4.573a3.723 3.723 0 0 0 .564-4.574l-1.947 1.168c.344.568.26 1.303-.23 1.79l1.613 1.616Zm-1.78 1.772 1.78-1.772-1.612-1.617-1.78 1.772 1.612 1.617Zm.337.852a9.587 9.587 0 0 0-.01-1.765l-2.266.209c.044.448.046.899.008 1.347l2.268.21Zm1.483.929-1.81-1.83-1.615 1.593 1.81 1.83 1.615-1.593Zm1.066 2.184a3.795 3.795 0 0 0-1.063-2.181l-1.62 1.588c.239.243.385.547.425.864l2.258-.271Zm-.493 2.364a3.71 3.71 0 0 0 .493-2.364l-2.258.271c.04.317-.027.64-.195.923l1.96 1.17Zm-1.09 1.817 1.088-1.813-1.955-1.178-1.087 1.813 1.955 1.178Zm-1.86 1.579a3.855 3.855 0 0 0 1.86-1.577l-1.953-1.182c-.171.284-.44.516-.774.65l.866 2.109Zm-2.448.181a4.02 4.02 0 0 0 2.447-.181l-.866-2.109a1.755 1.755 0 0 1-1.063.078l-.518 2.212Zm-2.505-.604 2.503.604.522-2.211-2.503-.604-.522 2.211Zm-.651.712a11.61 11.61 0 0 0 1.549-.871l-1.273-1.894a9.368 9.368 0 0 1-1.248.702l.972 2.063Zm-.133 1.709.736-2.402-2.178-.677-.735 2.402 2.177.677Zm-1.42 1.961a3.788 3.788 0 0 0 1.42-1.957l-2.176-.684a1.532 1.532 0 0 1-.577.789l1.333 1.852Zm-2.316.739a3.993 3.993 0 0 0 2.316-.739l-1.333-1.852a1.726 1.726 0 0 1-1 .317l.017 2.274ZM35.34 99.253c-2.097-.006-3.729-1.636-3.735-3.535l-2.277-.006c.01 3.242 2.754 5.807 6.019 5.816l-.007-2.275Zm3.711-3.513c.006 1.898-1.615 3.52-3.711 3.513l.007 2.275c3.265.009 5.992-2.54 5.981-5.782l-2.277-.006Zm-3.734-3.536c2.096.006 3.728 1.637 3.734 3.536l2.277.006c-.01-3.242-2.754-5.807-6.019-5.816l.008 2.274Zm-3.712 3.514c-.006-1.899 1.615-3.52 3.712-3.514l-.008-2.274c-3.265-.01-5.991 2.54-5.98 5.782l2.276.006Z" mask="url(#a)"/><ellipse cx="125.5" cy="27" fill="#fff" rx="9.5" ry="10"/><mask id="b" width="38.018" height="38.018" x="106.415" y="7.284" fill="#000" maskUnits="userSpaceOnUse"><path fill="#fff" d="M106.415 7.284h38.018v38.018h-38.018z"/><path fill-rule="evenodd" d="M114.699 20.893c-3.296 6.006-1.091 13.575 4.915 16.872 6.006 3.296 13.575 1.091 16.872-4.915 3.296-6.006 1.091-13.575-4.915-16.872-6.006-3.296-13.575-1.091-16.872 4.915Zm1.72.944c2.776-5.058 9.15-6.914 14.208-4.139 5.058 2.776 6.915 9.15 4.139 14.208s-9.15 6.915-14.208 4.139-6.915-9.15-4.139-14.208Zm10.888 10.216a.978.978 0 0 0 1.341.35.98.98 0 0 0 .353-1.342l-2.538-4.346 2.407-4.386a.982.982 0 0 0-1.72-.943l-2.675 4.873.013.968 2.819 4.826Z" clip-rule="evenodd"/></mask><path fill="#7542E5" fill-rule="evenodd" d="M114.699 20.893c-3.296 6.006-1.091 13.575 4.915 16.872 6.006 3.296 13.575 1.091 16.872-4.915 3.296-6.006 1.091-13.575-4.915-16.872-6.006-3.296-13.575-1.091-16.872 4.915Zm1.72.944c2.776-5.058 9.15-6.914 14.208-4.139 5.058 2.776 6.915 9.15 4.139 14.208s-9.15 6.915-14.208 4.139-6.915-9.15-4.139-14.208Zm10.888 10.216a.978.978 0 0 0 1.341.35.98.98 0 0 0 .353-1.342l-2.538-4.346 2.407-4.386a.982.982 0 0 0-1.72-.943l-2.675 4.873.013.968 2.819 4.826Z" clip-rule="evenodd"/><path fill="#000" d="m127.307 32.053.982-.574-.982.574Zm1.341.35-.571-.984-.005.003.576.981Zm.353-1.342.984-.571-.001-.002-.983.573Zm-2.538-4.346-.998-.547-.31.565.325.556.983-.574Zm.687-5.33-.998-.547.998.548Zm-2.675 4.874-.997-.548-.145.263.004.3 1.138-.015Zm.013.968-1.137.015.004.3.151.259.982-.574Zm-4.327 9.54c-5.455-2.994-7.458-9.871-4.464-15.326l-1.995-1.095c-3.599 6.557-1.193 14.818 5.364 18.416l1.095-1.995Zm15.327-4.464c-2.994 5.455-9.871 7.458-15.327 4.464l-1.095 1.995c6.558 3.6 14.818 1.193 18.417-5.364l-1.995-1.095Zm-4.465-15.327c5.456 2.994 7.459 9.871 4.465 15.327l1.995 1.095c3.599-6.558 1.192-14.818-5.365-18.417l-1.095 1.995Zm-15.326 4.465c2.994-5.456 9.871-7.459 15.326-4.465l1.095-1.995c-6.557-3.599-14.818-1.192-18.416 5.365l1.995 1.095Zm15.477-4.74c-5.608-3.078-12.674-1.02-15.752 4.589l1.995 1.095c2.473-4.507 8.156-6.163 12.662-3.689l1.095-1.995Zm4.589 15.753c3.078-5.61 1.02-12.675-4.589-15.753l-1.095 1.995c4.507 2.473 6.163 8.156 3.689 12.663l1.995 1.095Zm-15.753 4.588c5.609 3.079 12.675 1.02 15.753-4.588l-1.995-1.095c-2.473 4.507-8.156 6.162-12.663 3.688l-1.095 1.995Zm-4.588-15.752c-3.079 5.608-1.02 12.674 4.588 15.752l1.095-1.995c-4.507-2.473-6.162-8.155-3.688-12.662l-1.995-1.095Zm12.807 10.13a.16.16 0 0 1 .06.06l-1.965 1.147c.201.345.488.611.81.787l1.095-1.995Zm-.157.002a.16.16 0 0 1 .157-.003l-1.095 1.995a2.116 2.116 0 0 0 2.091-.03l-1.153-1.962Zm-.055.211a.158.158 0 0 1 .06-.214l1.143 1.968a2.118 2.118 0 0 0 .765-2.897l-1.968 1.143Zm-2.537-4.344 2.539 4.346 1.965-1.148-2.539-4.345-1.965 1.147Zm2.392-5.507-2.407 4.386 1.995 1.095 2.407-4.386-1.995-1.095Zm.062.213a.157.157 0 0 1-.062-.213l1.995 1.095a2.119 2.119 0 0 0-.838-2.877l-1.095 1.995Zm.213-.062a.156.156 0 0 1-.213.062L129.029 20a2.12 2.12 0 0 0-2.877.838l1.995 1.095Zm-2.674 4.873 2.674-4.873-1.995-1.095-2.674 4.873 1.995 1.095Zm.153.405-.013-.968-2.276.031.014.968 2.275-.03Zm2.663 4.268-2.818-4.826-1.965 1.148 2.818 4.826 1.965-1.148Z" mask="url(#b)"/><path fill="#fff" d="M214.755 93.622c-.696-.035-1.291.015-1.929.074-.191-.002-.355.042-.573.02-.271-.027-.409-.002-.658.022-.099.01-.243.225-.278.294-.106.21-.134.487-.159.716-.084.768.038 1.577.262 2.374.121.43.17.827.068 1.228-.138.544-.385 1.105-.983 1.457-.947.558-1.889 1.127-2.528 1.861-.398.456-.632 1.187-.432 1.788.334 1.001 1.805 1.738 2.969 2.442.743.45 1.623.747 2.468 1.092.635.26 1.289.486 1.93.736.42.164.817.334 1.267.44 1.103.26 3.059.488 3.499-.243.514-.855.99-1.745 1.384-2.64.036-.082.12-.006.133-.06.027-.115-.03-.267-.068-.387-.345-1.095-1.232-2.15-1.905-3.216-.241-.382-.06-.207.306-.325.473-.151.899-.35 1.346-.525.58-.229 1.265-.527 1.977-.619.345-.044.46-.066.648-.303.302-.382.563-.866.531-1.34-.073-1.073-1.248-2.31-2.579-3.136-1.339-.831-2.793-1.384-4.473-1.569a38.581 38.581 0 0 0-2.223-.18Z"/><mask id="c" fill="#fff"><path fill-rule="evenodd" d="M221.763 86.004a3.697 3.697 0 0 0-4.851 1.934l-1.116 2.595 6.898 2.966 1.003-2.644a3.697 3.697 0 0 0-1.934-4.85Zm4.21 8.904 1.116-2.595c1.608-3.74-.127-8.092-3.868-9.7-3.741-1.609-8.093.125-9.701 3.867l-1.116 2.595-2.281-.98a1.63 1.63 0 0 0-1.786.33c-.154.15-.277.328-.362.525l-6.209 14.443a1.632 1.632 0 0 0 .857 2.147l18.803 8.085a1.635 1.635 0 0 0 2.148-.857l6.209-14.442a1.633 1.633 0 0 0-.856-2.148l-2.954-1.27Zm-9.067 5.232a2.353 2.353 0 0 0 2.354-1.412 2.358 2.358 0 0 0-3.041-3.104 2.358 2.358 0 0 0-1.297 1.24 2.355 2.355 0 0 0 .595 2.68l-3.184 3.52a1.295 1.295 0 0 0 .449 2.059l1.957.842a1.296 1.296 0 0 0 1.803-1.091l.364-4.734Z" clip-rule="evenodd"/></mask><path fill="#7542E5" fill-rule="evenodd" d="M221.763 86.004a3.697 3.697 0 0 0-4.851 1.934l-1.116 2.595 6.898 2.966 1.003-2.644a3.697 3.697 0 0 0-1.934-4.85Zm4.21 8.904 1.116-2.595c1.608-3.74-.127-8.092-3.868-9.7-3.741-1.609-8.093.125-9.701 3.867l-1.116 2.595-2.281-.98a1.63 1.63 0 0 0-1.786.33c-.154.15-.277.328-.362.525l-6.209 14.443a1.632 1.632 0 0 0 .857 2.147l18.803 8.085a1.635 1.635 0 0 0 2.148-.857l6.209-14.442a1.633 1.633 0 0 0-.856-2.148l-2.954-1.27Zm-9.067 5.232a2.353 2.353 0 0 0 2.354-1.412 2.358 2.358 0 0 0-3.041-3.104 2.358 2.358 0 0 0-1.297 1.24 2.355 2.355 0 0 0 .595 2.68l-3.184 3.52a1.295 1.295 0 0 0 .449 2.059l1.957.842a1.296 1.296 0 0 0 1.803-1.091l.364-4.734Z" clip-rule="evenodd"/><path fill="#000" d="m216.912 87.938-1.045-.45 1.045.45Zm-1.116 2.595-1.045-.45-.45 1.046 1.046.45.449-1.046Zm6.898 2.966-.449 1.045 1.092.47.421-1.112-1.064-.403Zm1.003-2.644-1.046-.45-.01.023-.009.024 1.065.403Zm2.276 4.053-1.045-.449-.45 1.045 1.046.45.449-1.046Zm1.116-2.595-1.046-.45 1.046.45Zm-14.685-3.238-.449 1.045 1.045.45.449-1.046-1.045-.45Zm-2.281-.98-.449 1.044.449-1.045Zm-.624-.134.015-1.138-.015 1.138Zm-.627.116.421 1.057-.421-1.057Zm-.535.348-.794-.816.794.816Zm-.362.525 1.046.45-1.046-.45Zm-6.209 14.443 1.045.449-1.045-.449Zm-.133.624 1.138.015-1.138-.015Zm.464 1.162.815-.794-.815.794Zm.526.361.449-1.045-.449 1.045Zm18.803 8.085.45-1.046-.45 1.046Zm.624.132.015-1.137-.015 1.137Zm.628-.116-.422-1.057.422 1.057Zm.896-.873-1.046-.449 1.046.449Zm6.209-14.442-1.045-.45 1.045.45Zm.133-.624 1.138.015-1.138-.015Zm-.116-.627 1.057-.422-1.057.422Zm-.347-.535-.816.794.816-.794Zm-.526-.362-.45 1.046h.001l.449-1.046Zm-12.021 3.962.089-1.134-1.136-.09-.088 1.137 1.135.087Zm2.354-1.412 1.046.45.003-.007.002-.006-1.051-.437Zm-4.338-1.865-1.04-.462-.003.006-.002.007 1.045.45Zm.595 2.68.844.764.765-.846-.847-.763-.762.845Zm-3.184 3.521-.844-.763.844.763Zm4.209 1.81 1.134.087-1.134-.087Zm1.415-16.486a2.559 2.559 0 0 1 3.356-1.338l.899-2.091a4.834 4.834 0 0 0-6.345 2.53l2.09.898Zm-1.115 2.594 1.115-2.594-2.09-.9-1.116 2.596 2.091.898Zm-1.495.597 6.898 2.965.899-2.09-6.898-2.966-.899 2.09Zm7.285-1.127-1.002 2.644 2.128.806 1.003-2.644-2.129-.806Zm-1.319-3.402a2.559 2.559 0 0 1 1.338 3.355l2.091.9a4.835 4.835 0 0 0-2.53-6.346l-.899 2.09Zm5.705 8.308 1.116-2.595-2.091-.9-1.115 2.596 2.09.899Zm1.116-2.595c1.857-4.319-.145-9.34-4.464-11.196l-.899 2.091a6.255 6.255 0 0 1 3.272 8.206l2.091.899Zm-4.464-11.196c-4.318-1.856-9.339.145-11.196 4.463l2.091.899a6.254 6.254 0 0 1 8.206-3.271l.899-2.09Zm-11.196 4.463-1.115 2.595 2.09.9 1.116-2.596-2.091-.899Zm-2.8 3.11 2.281.98.898-2.09-2.28-.981-.899 2.09Zm-.19-.041a.5.5 0 0 1 .19.04l.899-2.09a2.775 2.775 0 0 0-1.059-.226l-.03 2.276Zm-.191.035a.501.501 0 0 1 .191-.035l.03-2.276a2.777 2.777 0 0 0-1.064.197l.843 2.114Zm-.162.106a.494.494 0 0 1 .162-.106l-.843-2.114a2.774 2.774 0 0 0-.907.59l1.588 1.63Zm-.11.16a.481.481 0 0 1 .11-.16l-1.588-1.63a2.775 2.775 0 0 0-.613.891l2.091.899Zm-6.21 14.442 6.21-14.442-2.091-.899-6.209 14.442 2.09.899Zm-.04.19a.513.513 0 0 1 .04-.19l-2.09-.899a2.775 2.775 0 0 0-.226 1.059l2.276.03Zm.035.19a.493.493 0 0 1-.035-.19l-2.276-.03a2.8 2.8 0 0 0 .197 1.063l2.114-.843Zm.106.163a.504.504 0 0 1-.106-.163l-2.114.843c.135.339.336.647.59.908l1.63-1.588Zm.16.11a.492.492 0 0 1-.16-.11l-1.63 1.588c.254.261.557.469.891.613l.899-2.091Zm18.804 8.084-18.804-8.084-.899 2.091 18.804 8.084.899-2.091Zm.189.041a.494.494 0 0 1-.189-.041l-.899 2.091c.334.144.694.22 1.058.225l.03-2.275Zm.191-.036a.48.48 0 0 1-.191.036l-.03 2.275c.364.005.726-.062 1.064-.197l-.843-2.114Zm.163-.105a.501.501 0 0 1-.163.105l.843 2.114c.338-.135.647-.335.908-.589l-1.588-1.63Zm.109-.16a.5.5 0 0 1-.109.16l1.588 1.63c.261-.254.469-.557.612-.892l-2.091-.898Zm6.21-14.443-6.21 14.443 2.091.899 6.209-14.443-2.09-.899Zm.04-.19a.494.494 0 0 1-.04.19l2.09.9c.144-.335.221-.695.226-1.059l-2.276-.03Zm-.035-.19c.024.06.036.125.035.19l2.276.031a2.768 2.768 0 0 0-.197-1.064l-2.114.843Zm-.106-.162a.487.487 0 0 1 .106.162l2.114-.843a2.776 2.776 0 0 0-.589-.907l-1.631 1.588Zm-.159-.11c.06.026.114.063.159.11l1.631-1.588a2.767 2.767 0 0 0-.892-.613l-.898 2.09Zm-2.954-1.27 2.953 1.27.899-2.091-2.954-1.27-.898 2.09Zm-8.708 5.321a3.494 3.494 0 0 0 3.49-2.097l-2.091-.899a1.216 1.216 0 0 1-1.22.727l-.179 2.269Zm3.495-2.11a3.5 3.5 0 0 0 .011-2.658l-2.109.856c.121.298.12.632-.004.93l2.102.872Zm.011-2.658a3.5 3.5 0 0 0-1.86-1.899l-.899 2.091c.295.127.529.366.65.664l2.109-.856Zm-1.86-1.899a3.5 3.5 0 0 0-2.658-.044l.829 2.12c.3-.118.634-.112.93.015l.899-2.09Zm-2.658-.044a3.5 3.5 0 0 0-1.922 1.837l2.08.925c.13-.294.372-.525.671-.642l-.829-2.12Zm-1.927 1.85a3.494 3.494 0 0 0 .878 3.975l1.524-1.69c-.386-.349-.52-.901-.312-1.386l-2.09-.9Zm.796 2.366-3.184 3.521 1.688 1.526 3.184-3.52-1.688-1.527Zm-3.184 3.521a2.433 2.433 0 0 0 .843 3.868l.899-2.091a.158.158 0 0 1-.054-.251l-1.688-1.526Zm.843 3.868 1.957.841.899-2.091-1.957-.841-.899 2.091Zm1.957.841a2.433 2.433 0 0 0 3.387-2.049l-2.269-.175a.157.157 0 0 1-.219.133l-.899 2.091Zm3.387-2.049.364-4.733-2.269-.175-.364 4.733 2.269.175Z" mask="url(#c)"/><circle cx="187.803" cy="42.648" r="10.241" fill="#fff"/><path fill="#7417FC" stroke="#000" stroke-width="1.138" d="m178.381 63.4 5.286-9.157.408-.11c2.325.829 4.848.934 7.238.302h.001c6.604-1.77 10.535-8.578 8.765-15.182-1.769-6.604-8.578-10.535-15.181-8.765-6.604 1.769-10.535 8.578-8.766 15.181.667 2.487 2.069 4.559 3.882 6.114l.108.412-5.284 9.153a2.04 2.04 0 0 0 .125 2.289 2.047 2.047 0 0 0 3.418-.237Zm7.576-28.957c4.421-1.185 8.983 1.45 10.167 5.87 1.185 4.42-1.449 8.982-5.87 10.166-4.42 1.185-8.982-1.45-10.166-5.87-1.185-4.42 1.449-8.982 5.869-10.166Z"/></svg>
