<svg width="39" height="41" viewBox="0 0 39 41" fill="none" xmlns="http://www.w3.org/2000/svg">
<rect width="39" height="33" rx="4" fill="#7542E5"/>
<rect x="4" y="5" width="31" height="23" rx="2" fill="white"/>
<rect x="2" y="35" width="34" height="6" rx="3" fill="#054096"/>
<path d="M15.9938 11.2279C15.7107 10.924 15.2542 10.924 14.971 11.2279L10.169 16.3817C9.94366 16.6236 9.94366 17.0143 10.169 17.2562L14.971 22.41C15.2542 22.7139 15.7107 22.7139 15.9938 22.41C16.277 22.1061 16.277 21.6162 15.9938 21.3123L11.8101 16.8159L15.9996 12.3195C16.277 12.0218 16.277 11.5256 15.9938 11.2279Z" fill="#054096"/>
<path d="M23.2132 11.2279C23.4964 10.924 23.9529 10.924 24.236 11.2279L29.038 16.3817C29.2634 16.6236 29.2634 17.0143 29.038 17.2562L24.236 22.41C23.9529 22.7139 23.4964 22.7139 23.2132 22.41C22.9301 22.1061 22.9301 21.6162 23.2132 21.3123L27.3969 16.8159L23.2074 12.3195C22.9301 12.0218 22.9301 11.5256 23.2132 11.2279Z" fill="#054096"/>
</svg>
