<svg xmlns="http://www.w3.org/2000/svg" width="220" height="158" fill="none"><g filter="url(#a)"><path fill="#fff" d="M147.886 50.891c-.194 0-.386.01-.579.015l.001-.015c0-17.06-13.865-30.891-30.967-30.891-13.889 0-25.641 9.12-29.568 21.684a21.272 21.272 0 0 0-9.922-2.443c-11.78 0-21.329 9.526-21.329 21.276 0 1.915.258 3.768.733 5.533a17.216 17.216 0 0 0-6.995-1.486c-9.532 0-17.26 7.709-17.26 17.218C32 91.292 39.728 99 49.26 99h98.626C161.204 99 172 88.23 172 74.945s-10.796-24.054-24.114-24.054Z"/></g><circle cx="99.881" cy="102.454" r="18.428" fill="#fff"/><path fill="#0190ED" stroke="#0190ED" stroke-width="2" d="M170.012 97.433h-43.841C123.566 86.316 113.718 78 101.975 78c-13.733 0-24.873 11.362-24.873 25.292 0 13.93 11.14 25.292 24.873 25.292 12.583 0 22.86-9.567 24.519-21.863h29.388v12.36c0 2.548 2.036 4.644 4.581 4.644 2.545 0 4.581-2.096 4.581-4.644v-12.36h4.968c2.546 0 4.581-2.097 4.581-4.644s-2.035-4.644-4.581-4.644Zm-68.037 21.863c-8.647 0-15.712-7.163-15.712-16.004 0-8.841 7.065-16.005 15.712-16.005 8.646 0 15.711 7.164 15.711 16.005s-7.065 16.004-15.711 16.004Z"/><path fill="#DABDFF" fill-rule="evenodd" d="M185.127 73.49a.719.719 0 0 0-.586-.727c-1.432-.259-5.387-1.193-6.738-2.523-1.35-1.33-2.264-5.285-2.514-6.737a.715.715 0 0 0-.723-.587V73.49h10.561Z" clip-rule="evenodd"/><path fill="#00B3F4" fill-rule="evenodd" d="M174.612 62.916a.726.726 0 0 0-.714.608c-.242 1.423-1.13 5.314-2.468 6.754-1.338 1.44-5.314 2.277-6.839 2.549a.731.731 0 0 0-.591.726h10.62l-.008-10.637Z" clip-rule="evenodd"/><path fill="#00B3F4" fill-rule="evenodd" d="M174.555 73.49v10.574a.759.759 0 0 0 .722-.608c.259-1.448 1.194-5.463 2.523-6.797 1.33-1.334 5.289-2.213 6.721-2.455a.722.722 0 0 0 .603-.705l-10.569-.009Z" clip-rule="evenodd"/><path fill="#007BED" fill-rule="evenodd" d="M164 73.49a.69.69 0 0 0 .608.71c1.444.246 5.472 1.13 6.822 2.468 1.351 1.338 2.226 5.31 2.469 6.822a.723.723 0 0 0 .713.625v-10.62L164 73.49Z" clip-rule="evenodd"/><path fill="#DABDFF" fill-rule="evenodd" d="M219.999 57.796a1.262 1.262 0 0 0-1.009-1.257c-2.472-.47-9.298-2.055-11.63-4.35-2.331-2.293-3.908-9.12-4.353-11.63a1.24 1.24 0 0 0-1.253-1.008v18.245h18.245Z" clip-rule="evenodd"/><path fill="#00B3F4" fill-rule="evenodd" d="M201.854 39.55a1.24 1.24 0 0 0-1.225 1.047c-.422 2.458-1.951 9.172-4.264 11.658-2.313 2.486-9.153 3.927-11.799 4.372a1.258 1.258 0 0 0-1.023 1.258h18.297l.014-18.334Z" clip-rule="evenodd"/><path fill="#00B3F4" fill-rule="evenodd" d="M201.754 57.795V76.04a1.31 1.31 0 0 0 1.243-1.046c.446-2.5 2.06-9.425 4.354-11.729 2.294-2.303 9.125-3.819 11.602-4.222a1.246 1.246 0 0 0 1.036-1.22l-18.235-.028Z" clip-rule="evenodd"/><path fill="#007BED" fill-rule="evenodd" d="M183.543 57.795a1.208 1.208 0 0 0 1.051 1.23c2.487.421 9.439 1.941 11.771 4.254 2.332 2.313 3.842 9.163 4.265 11.776a1.239 1.239 0 0 0 1.224 1.074V57.795h-18.311Z" clip-rule="evenodd"/><path fill="#DABDFF" fill-rule="evenodd" d="M186.841 38.443a.485.485 0 0 0-.382-.48c-.947-.17-3.552-.782-4.439-1.66-.888-.88-1.491-3.48-1.666-4.44a.468.468 0 0 0-.471-.383v6.963h6.958Z" clip-rule="evenodd"/><path fill="#00B3F4" fill-rule="evenodd" d="M179.918 31.484a.478.478 0 0 0-.471.4c-.158.938-.744 3.5-1.623 4.447-.88.948-3.501 1.5-4.507 1.674a.478.478 0 0 0-.391.476h6.992v-6.997Z" clip-rule="evenodd"/><path fill="#00B3F4" fill-rule="evenodd" d="M179.883 38.443v6.967a.499.499 0 0 0 .471-.4c.175-.955.786-3.597 1.666-4.485.879-.888 3.483-1.457 4.426-1.614a.473.473 0 0 0 .395-.468h-6.958Z" clip-rule="evenodd"/><path fill="#007BED" fill-rule="evenodd" d="M172.926 38.443a.461.461 0 0 0 .404.472c.947.157 3.602.74 4.494 1.623.892.883 1.466 3.5 1.623 4.494a.481.481 0 0 0 .471.425v-7.014h-6.992Z" clip-rule="evenodd"/><g filter="url(#b)"><circle cx="66.5" cy="111.5" r="25.5" fill="#fff"/></g><rect width="5.147" height="15.376" x="51.293" y="112.834" fill="#1CC5A0" stroke="#1CC5A0" rx="2.5" transform="rotate(-45 51.293 112.834)"/><rect width="5.147" height="24.932" x="76.344" y="102.293" fill="#1CC5A0" stroke="#1CC5A0" rx="2.5" transform="rotate(45 76.344 102.293)"/><defs><filter id="a" width="204" height="143" x="0" y="-14" color-interpolation-filters="sRGB" filterUnits="userSpaceOnUse"><feFlood flood-opacity="0" result="BackgroundImageFix"/><feColorMatrix in="SourceAlpha" result="hardAlpha" values="0 0 0 0 0 0 0 0 0 0 0 0 0 0 0 0 0 0 127 0"/><feOffset dy="-2"/><feGaussianBlur stdDeviation="16"/><feComposite in2="hardAlpha" operator="out"/><feColorMatrix values="0 0 0 0 0 0 0 0 0 0.564706 0 0 0 0 0.929412 0 0 0 0.12 0"/><feBlend in2="BackgroundImageFix" result="effect1_dropShadow_2806_44715"/><feBlend in="SourceGraphic" in2="effect1_dropShadow_2806_44715" result="shape"/></filter><filter id="b" width="115" height="115" x="9" y="56" color-interpolation-filters="sRGB" filterUnits="userSpaceOnUse"><feFlood flood-opacity="0" result="BackgroundImageFix"/><feColorMatrix in="SourceAlpha" result="hardAlpha" values="0 0 0 0 0 0 0 0 0 0 0 0 0 0 0 0 0 0 127 0"/><feOffset dy="2"/><feGaussianBlur stdDeviation="16"/><feComposite in2="hardAlpha" operator="out"/><feColorMatrix values="0 0 0 0 0 0 0 0 0 0.564706 0 0 0 0 0.929412 0 0 0 0.12 0"/><feBlend in2="BackgroundImageFix" result="effect1_dropShadow_2806_44715"/><feBlend in="SourceGraphic" in2="effect1_dropShadow_2806_44715" result="shape"/></filter></defs></svg>
