<svg xmlns="http://www.w3.org/2000/svg" width="239" height="180" fill="none"><style>@keyframes smallCloudAnimation{0%{transform:translateX(-70px)}to{transform:translateX(0)}}@keyframes bulbLeftEyeAnimation{0%,10%{fill:#00b3f4}20%,to{fill:#fff}}@keyframes bulbMouthAnimation{0%,30%{fill:#00b3f4}40%,to{fill:#fff}}@keyframes bulbRightEyeAnimation{0%,20%{fill:#00b3f4}30%,to{fill:#fff}}@keyframes pinkLineAnimation{0%,to{stroke-dashoffset:6;stroke-dasharray:10}50%{stroke-dashoffset:0;stroke-dasharray:10}}.animate-pulse-stroke{animation:pinkLineAnimation 2s linear infinite}</style><g filter="url(#filter0_d_5169_13123)"><path fill="#fff" d="M125.052 55.506c.137 0 .273.007.409.01v-.01c0-11.877 9.804-21.506 21.898-21.506 9.821 0 18.132 6.35 20.909 15.097a15.2 15.2 0 0 1 7.016-1.701c8.33 0 15.083 6.632 15.083 14.812 0 1.333-.183 2.624-.519 3.852a12.3 12.3 0 0 1 4.947-1.034c6.74 0 12.205 5.367 12.205 11.987S201.535 89 194.795 89h-69.743C115.634 89 108 81.502 108 72.253s7.634-16.747 17.052-16.747" style="animation:smallCloudAnimation 3s 1 ease-in-out"/></g><g filter="url(#filter1_d_5169_13123)"><path fill="#fff" d="M163.614 79.41c-.221 0-.438.011-.658.017l.001-.017c0-19.004-15.746-34.41-35.17-34.41-15.773 0-29.12 10.16-33.58 24.155a24.54 24.54 0 0 0-11.27-2.722c-13.378 0-24.223 10.611-24.223 23.7 0 2.133.293 4.197.833 6.163a19.9 19.9 0 0 0-7.944-1.655C40.776 94.641 32 103.228 32 113.82 32 124.413 40.776 133 51.603 133h112.011C178.739 133 191 121.004 191 106.205c0-14.798-12.261-26.795-27.386-26.795"/></g><rect width="22" height="5" x="115" y="156" fill="#0090ED" rx="2.5"/><rect width="24" height="5" x="114" y="149" fill="#0090ED" rx="2.5"/><path fill="#00B3F4" d="M119.549 143.851h12.709a6.715 6.715 0 0 0 6.632-5.583l1.218-7.759a22.71 22.71 0 0 0 6.39-27.495 22.7 22.7 0 0 0-6.22-7.918c-5.344-4.345-12.353-6.023-19.229-4.602-8.877 1.852-15.927 9.126-17.547 18.098-1.516 8.396 1.549 16.59 8.007 21.573l1.408 8.103a6.72 6.72 0 0 0 6.632 5.583"/><path fill="#fff" d="m119.385 107.759.704 3.028h-2.994l.704-3.028-2.34 2.11-1.459-2.582 2.994-.894-2.994-.943 1.535-2.532 2.264 2.11-.704-3.028h2.994l-.73 3.078 2.366-2.16 1.484 2.582-3.095.918 3.095.919-1.535 2.532z" style="animation:bulbLeftEyeAnimation 3s ease-in-out"/><path fill="#fff" d="m133.385 107.759.704 3.028h-2.994l.704-3.028-2.34 2.11-1.459-2.582 2.994-.894-2.994-.943 1.535-2.532 2.264 2.11-.704-3.028h2.994l-.73 3.078 2.366-2.16 1.484 2.582-3.095.918 3.095.919-1.535 2.532z" style="animation:bulbRightEyeAnimation 3s ease-in-out"/><path fill="#fff" d="M132.546 119c.803 0 1.467.656 1.322 1.446a7.997 7.997 0 0 1-10.929 5.945 8 8 0 0 1-4.807-5.945c-.145-.79.519-1.446 1.322-1.446s1.434.664 1.66 1.434q.077.262.182.515a5.1 5.1 0 0 0 1.103 1.652 5.1 5.1 0 0 0 5.55 1.103 5.1 5.1 0 0 0 1.652-1.103 5.1 5.1 0 0 0 1.285-2.167c.226-.77.857-1.434 1.66-1.434" style="animation:bulbMouthAnimation 3s ease-in-out"/><path stroke="#E31587" stroke-linecap="round" stroke-width="4" d="M95 113H85M102 90l-8-7M126 82V70M151 91l8-7M158 113h10" class="animate-pulse-stroke"/><defs><filter id="filter0_d_5169_13123" width="239" height="119" x="0" y="0" color-interpolation-filters="sRGB" filterUnits="userSpaceOnUse"><feFlood flood-opacity="0" result="BackgroundImageFix"/><feColorMatrix in="SourceAlpha" result="hardAlpha" values="0 0 0 0 0 0 0 0 0 0 0 0 0 0 0 0 0 0 127 0"/><feOffset dy="-2"/><feGaussianBlur stdDeviation="16"/><feComposite in2="hardAlpha" operator="out"/><feColorMatrix values="0 0 0 0 0 0 0 0 0 0.564706 0 0 0 0 0.929412 0 0 0 0.16 0"/><feBlend in2="BackgroundImageFix" result="effect1_dropShadow_5169_13123"/><feBlend in="SourceGraphic" in2="effect1_dropShadow_5169_13123" result="shape"/></filter><filter id="filter1_d_5169_13123" width="223" height="152" x="0" y="11" color-interpolation-filters="sRGB" filterUnits="userSpaceOnUse"><feFlood flood-opacity="0" result="BackgroundImageFix"/><feColorMatrix in="SourceAlpha" result="hardAlpha" values="0 0 0 0 0 0 0 0 0 0 0 0 0 0 0 0 0 0 127 0"/><feOffset dy="-2"/><feGaussianBlur stdDeviation="16"/><feComposite in2="hardAlpha" operator="out"/><feColorMatrix values="0 0 0 0 0 0 0 0 0 0.564706 0 0 0 0 0.929412 0 0 0 0.16 0"/><feBlend in2="BackgroundImageFix" result="effect1_dropShadow_5169_13123"/><feBlend in="SourceGraphic" in2="effect1_dropShadow_5169_13123" result="shape"/></filter></defs></svg>