<svg width="251" height="147" viewBox="0 0 251 147" fill="none" xmlns="http://www.w3.org/2000/svg">

<style>
    .animate-type-first-repeat {
        animation: asterisk1Animation 5s infinite ease-in-out;
    }
    .animate-type-second-repeat {
        animation: asterisk2Animation 5s infinite ease-in-out;
    }
    .animate-type-third-repeat {
        animation: asterisk3Animation 5s infinite ease-in-out;
    }
    @keyframes asterisk1Animation {
        0%, 10%, 100% { opacity: 0 }
        20%, 80% { opacity: 1 }
    }
    @keyframes asterisk2Animation {
        0%, 20%, 100% { opacity: 0; }
        30%, 80% { opacity: 1; }
    }
    @keyframes asterisk3Animation {
        0%, 30%, 100% { opacity: 0; }
        40%, 80% { opacity: 1; }
    }
    .animate-pulse-first {
        animation: twinkle 2.5s infinite ease-in-out alternate;
    }
    .animate-pulse-second {
        animation: twinkle 3s infinite ease-in-out alternate;
    }
    .animate-pulse-third {
        animation: twinkle 3.5s infinite ease-in-out alternate;
    }
    @keyframes twinkle {
        0%, 100% {
            transform: scale(0.9);
            opacity: 0.2;
        }
        50% {
            transform: scale(1.1);
            opacity: 1;
        }
    }
    .animate-draw-stroke-repeat {
        animation: drawCheckmark 5s ease-in forwards infinite;
    }
    @keyframes drawCheckmark {
        0% {
            stroke-dasharray: 100;
            stroke-dashoffset: 100;
            opacity:0;
        }
        10% {
            opacity:1;
        }
        50% {
            stroke-dasharray: 100;
            stroke-dashoffset: 100;
        }
        60% {
            stroke-dashoffset: 0;
        }
        80% {
            opacity:1;
        }
        100% {
            opacity:0;
            stroke-dashoffset: 0;
        }
    }
</style>

<!-- Large cloud -->
<g filter="url(#filter0_d_5194_14463)">
<path d="M147.886 64.891C147.692 64.891 147.5 64.9011 147.307 64.9056C147.307 64.9007 147.308 64.8959 147.308 64.891C147.308 47.8304 133.443 34 116.341 34C102.452 34 90.7 43.1205 86.7729 55.6845C83.8083 54.1271 80.4339 53.2413 76.8505 53.2413C65.0711 53.2413 55.5221 62.7669 55.5221 74.5175C55.5221 76.4317 55.7796 78.2852 56.2548 80.0498C54.1152 79.1017 51.7524 78.5641 49.2603 78.5641C39.7277 78.5641 32 86.2729 32 95.782C32 105.291 39.7277 113 49.2603 113H147.886C161.204 113 172 102.23 172 88.9455C172 75.6604 161.204 64.891 147.886 64.891Z" fill="white"/>
</g>
<!-- Small cloud -->
<g filter="url(#filter1_d_5194_14463)">
<path d="M129.602 75.8526C129.752 75.8526 129.9 75.8603 130.049 75.8638C130.049 75.8601 130.048 75.8563 130.048 75.8526C130.048 62.6792 140.744 52 153.937 52C164.651 52 173.717 59.0424 176.747 68.7438C179.034 67.5412 181.637 66.8572 184.401 66.8572C193.488 66.8572 200.854 74.2124 200.854 83.2856C200.854 84.7637 200.656 86.1949 200.289 87.5574C201.94 86.8253 203.762 86.4102 205.685 86.4102C213.039 86.4102 219 92.3626 219 99.7051C219 107.048 213.039 113 205.685 113H129.602C119.328 113 111 104.684 111 94.4262C111 84.1682 119.328 75.8526 129.602 75.8526Z" fill="white"/>
</g>

<!-- Green oval -->
<rect x="47" y="98" width="157.143" height="40.8571" rx="20.4286" fill="#1CC5A0"/>

<!-- Asterisks -->
<path class="animate-type-first-repeat" d="M88.8676 120.382C89.0542 120.569 89.2408 120.755 89.2408 120.942C89.4275 121.128 89.4275 121.315 89.2408 121.688L87.3748 124.861C87.1882 125.047 87.0016 125.234 86.815 125.234C86.6283 125.234 86.4417 125.234 86.2551 125.047L82.3364 122.062L82.8962 127.1C82.8962 127.287 82.8962 127.66 82.7096 127.66C82.523 127.846 82.3364 128.033 82.1498 128.033H78.4176C78.231 128.033 78.0444 127.846 77.8578 127.66C77.6712 127.473 77.6712 127.287 77.6712 127.1L78.231 121.875L74.1257 124.861C73.9391 125.047 73.7525 125.047 73.3792 125.047C73.1926 125.047 73.006 124.861 72.8194 124.674L71.14 121.502C70.9533 121.315 70.9533 121.128 71.14 120.755C71.14 120.569 71.3266 120.382 71.5132 120.195L76.1783 118.329L71.5132 116.277C71.3266 116.277 71.14 116.09 71.14 115.717C70.9533 115.53 70.9533 115.157 71.14 114.97L72.8194 111.985C73.006 111.798 73.1926 111.612 73.3792 111.612C73.5658 111.612 73.9391 111.612 74.1257 111.798L78.231 114.97L77.6712 110.119C77.6712 109.932 77.6712 109.559 77.8578 109.372C78.0444 109.186 78.231 108.999 78.4176 108.999H81.9632C82.1498 108.999 82.523 109.186 82.523 109.372C82.7096 109.559 82.7096 109.745 82.7096 110.119L81.9632 115.157L86.0685 112.171C86.2551 111.985 86.4417 111.985 86.815 111.985C87.0016 111.985 87.1882 112.171 87.3748 112.358L89.0542 115.53C89.2408 115.717 89.2408 115.903 89.0542 116.277C89.0542 116.463 88.8676 116.65 88.681 116.837L84.0158 118.889L88.8676 120.382Z" fill="white"/>
<path class="animate-type-second-repeat" d="M115.555 120.569C115.741 120.569 115.928 120.755 116.115 121.128C116.301 121.315 116.301 121.502 116.115 121.875L114.435 124.861C114.249 125.047 114.062 125.234 113.875 125.234C113.689 125.234 113.316 125.234 113.129 125.047L109.21 122.062L109.77 127.1C109.77 127.287 109.77 127.66 109.583 127.66C109.397 127.846 109.024 127.846 108.837 127.846H105.291C105.105 127.846 104.732 127.66 104.732 127.473C104.545 127.287 104.545 127.1 104.545 126.913L105.105 121.688L100.999 124.861C100.813 125.047 100.626 125.047 100.253 125.047C100.066 125.047 99.88 124.861 99.693 124.674L98.014 121.502C97.827 121.315 97.827 121.128 98.014 120.755C98.014 120.569 98.2 120.382 98.387 120.195L103.052 118.329L98.387 116.277C98.2 116.277 98.014 116.09 98.014 115.717C97.827 115.53 97.827 115.157 98.014 114.97L99.88 111.985C100.066 111.798 100.253 111.612 100.44 111.612C100.626 111.612 100.813 111.798 100.999 111.985L105.105 114.97L104.545 110.119C104.545 109.932 104.545 109.559 104.732 109.372C104.918 109.186 105.105 108.999 105.291 108.999H108.837C109.024 108.999 109.397 109.186 109.397 109.372C109.583 109.559 109.583 109.745 109.583 110.119L108.837 114.97L113.129 111.985C113.316 111.798 113.502 111.798 113.689 111.798C113.875 111.798 114.062 111.985 114.249 112.171L115.928 115.344C116.115 115.53 116.115 115.717 115.928 116.09C115.928 116.277 115.741 116.463 115.555 116.65L110.89 118.703L115.555 120.569Z" fill="white"/>
<path class="animate-type-third-repeat" d="M142.053 120.569C142.24 120.755 142.426 120.942 142.426 121.128C142.613 121.315 142.613 121.502 142.426 121.875L140.56 125.047C140.374 125.234 140.187 125.42 140 125.42C139.814 125.42 139.441 125.42 139.254 125.234L135.522 122.248L136.082 127.287C136.082 127.473 136.082 127.846 135.895 128.033C135.708 128.22 135.522 128.22 135.335 128.22H131.603C131.416 128.22 131.23 128.033 131.043 127.846C130.857 127.66 130.857 127.473 130.857 127.287L131.416 122.062L127.311 125.047C127.124 125.234 126.938 125.234 126.565 125.234C126.378 125.234 126.191 125.047 126.005 124.861L124.325 121.688C124.139 121.502 124.139 121.315 124.325 120.942C124.325 120.755 124.512 120.569 124.699 120.382L129.177 118.516L124.512 116.463C124.325 116.463 124.139 116.277 124.139 115.903C123.952 115.717 123.952 115.344 124.139 115.157L126.005 112.171C126.191 111.985 126.378 111.798 126.565 111.798C126.751 111.798 127.124 111.798 127.311 111.985L131.416 114.97L130.857 109.932C130.857 109.745 130.857 109.372 131.043 109.186C131.23 108.999 131.416 108.999 131.603 108.999H135.149C135.335 108.999 135.522 109.186 135.708 109.372C135.895 109.559 135.895 109.745 135.895 109.932L135.149 115.157L139.254 112.171C139.441 111.985 139.627 111.985 140 111.985C140.187 111.985 140.374 112.171 140.56 112.358L142.24 115.53C142.426 115.717 142.426 115.903 142.24 116.277C142.24 116.463 142.053 116.65 141.866 116.837L137.201 118.889L142.053 120.569Z" fill="white"/>

<!-- Checkmark -->
<path class="animate-draw-stroke-repeat" d="M153.143 116.547 L163.143 126.547 L178.387 109.427" stroke="#FFFFFF" stroke-width="5" fill="none" stroke-linecap="round" stroke-linejoin="round"/>

<!-- Small star -->
<g class="animate-pulse-first" style="transform-origin: 163px 35px">
<path fill-rule="evenodd" clip-rule="evenodd" d="M156.422 28.0178C156.42 27.9051 156.458 27.7953 156.528 27.7071C156.598 27.6189 156.697 27.5577 156.807 27.534C157.762 27.3627 160.386 26.7462 161.281 25.8598C162.176 24.9735 162.784 22.3531 162.96 21.3854C162.981 21.2755 163.04 21.1766 163.127 21.1061C163.214 21.0356 163.323 20.9981 163.435 21.0001V28.0178H156.422Z" fill="#DABDFF"/>
<path fill-rule="evenodd" clip-rule="evenodd" d="M163.4 21.0031C163.514 21.0035 163.624 21.0441 163.711 21.1177C163.798 21.1913 163.856 21.2933 163.876 21.4056C164.034 22.3518 164.625 24.9337 165.511 25.8885C166.397 26.8434 169.039 27.4 170.054 27.5756C170.166 27.5966 170.266 27.6562 170.338 27.7439C170.41 27.8315 170.449 27.9417 170.448 28.0551H163.4V21.0031Z" fill="#00B3F4"/>
<path fill-rule="evenodd" clip-rule="evenodd" d="M170.448 28.0192C170.451 28.1347 170.411 28.2473 170.336 28.3351C170.261 28.4229 170.156 28.4797 170.041 28.4945C169.086 28.6529 166.41 29.2395 165.511 30.1301C164.612 31.0207 164.034 33.6583 163.875 34.6602C163.862 34.7772 163.806 34.8852 163.719 34.964C163.631 35.0429 163.518 35.0871 163.4 35.0884V28.0192H170.448Z" fill="#007BED"/>
<path fill-rule="evenodd" clip-rule="evenodd" d="M163.435 28.0192V35.0413C163.322 35.0369 163.214 34.9949 163.128 34.922C163.042 34.849 162.983 34.7493 162.96 34.6388C162.784 33.6754 162.168 31.0122 161.281 30.1173C160.395 29.2224 157.77 28.6486 156.82 28.4902C156.708 28.4719 156.607 28.4144 156.534 28.3281C156.461 28.2418 156.421 28.1323 156.422 28.0192H163.435Z" fill="#00B3F4"/>
</g>

<!-- Medium star -->
<g class="animate-pulse-second" style="transform-origin: 174px 63px">
<path fill-rule="evenodd" clip-rule="evenodd" d="M158.148 63.3406C158.144 63.1683 158.201 63.0002 158.31 62.8662C158.418 62.7321 158.57 62.6408 158.739 62.6084C160.182 62.3472 164.168 61.4052 165.53 60.065C166.892 58.7249 167.812 54.7386 168.065 53.2742C168.095 53.105 168.186 52.9523 168.319 52.8439C168.453 52.7355 168.621 52.6785 168.793 52.6833V63.3406H158.148Z" fill="#DABDFF"/>
<path fill-rule="evenodd" clip-rule="evenodd" d="M168.746 52.683C168.918 52.6837 169.086 52.7456 169.217 52.8577C169.349 52.9697 169.437 53.1248 169.465 53.2953C169.709 54.7297 170.604 58.6518 171.953 60.1033C173.301 61.5548 177.309 62.3983 178.846 62.6723C179.015 62.7054 179.168 62.7968 179.276 62.9306C179.385 63.0644 179.444 63.2321 179.441 63.4045H168.737L168.746 52.683Z" fill="#00B3F4"/>
<path fill-rule="evenodd" clip-rule="evenodd" d="M179.441 63.3393C179.447 63.5136 179.388 63.6841 179.275 63.8166C179.161 63.9491 179.002 64.034 178.829 64.0543C177.373 64.3027 173.314 65.1933 171.952 66.542C170.591 67.8908 169.709 71.8942 169.464 73.4185C169.44 73.5922 169.354 73.7513 169.222 73.8668C169.09 73.9823 168.921 74.0466 168.745 74.0479V63.3436L179.441 63.3393Z" fill="#007BED"/>
<path fill-rule="evenodd" clip-rule="evenodd" d="M168.801 63.3393V73.9965C168.628 73.9914 168.462 73.9281 168.33 73.817C168.198 73.7058 168.107 73.5534 168.073 73.3843C167.811 71.9242 166.869 67.8779 165.529 66.5335C164.189 65.189 160.199 64.3027 158.756 64.0586C158.587 64.0313 158.433 63.9448 158.321 63.8147C158.21 63.6845 158.148 63.5191 158.148 63.3479L168.801 63.3393Z" fill="#00B3F4"/>
</g>

<!-- Big star -->
<g class="animate-pulse-third" style="transform-origin: 141px 47.5px">
<path fill-rule="evenodd" clip-rule="evenodd" d="M122.998 47.5261C122.993 47.2294 123.092 46.9404 123.278 46.709C123.464 46.4776 123.724 46.3183 124.015 46.2588C126.507 45.7859 133.387 44.1877 135.737 41.8754C138.087 39.5632 139.676 32.6831 140.125 30.1533C140.18 29.8613 140.338 29.5986 140.569 29.4122C140.8 29.2259 141.091 29.1282 141.388 29.1367V47.5261H122.998Z" fill="#DABDFF"/>
<path fill-rule="evenodd" clip-rule="evenodd" d="M141.289 29.1362C141.587 29.1359 141.874 29.2421 142.101 29.4354C142.327 29.6288 142.477 29.8966 142.523 30.1906C142.949 32.6684 144.49 39.435 146.821 41.9411C149.152 44.4473 156.047 45.8989 158.714 46.3481C159.007 46.4039 159.272 46.5616 159.46 46.7935C159.649 47.0254 159.75 47.3165 159.744 47.6154H141.303L141.289 29.1362Z" fill="#00B3F4"/>
<path fill-rule="evenodd" clip-rule="evenodd" d="M159.744 47.5268C159.752 47.8278 159.649 48.1212 159.453 48.3501C159.257 48.579 158.984 48.7271 158.685 48.7657C156.179 49.1912 149.171 50.7233 146.821 53.0545C144.471 55.3857 142.948 62.2894 142.523 64.9232C142.482 65.222 142.334 65.496 142.108 65.6949C141.881 65.8938 141.59 66.0043 141.289 66.006V47.5268H159.744Z" fill="#007BED"/>
<path fill-rule="evenodd" clip-rule="evenodd" d="M141.388 47.5268V65.9162C141.091 65.9073 140.805 65.7983 140.578 65.6069C140.35 65.4155 140.194 65.1529 140.135 64.8617C139.685 62.3414 138.059 55.362 135.747 53.0403C133.434 50.7186 126.549 49.1912 124.053 48.7846C123.762 48.7347 123.498 48.5843 123.307 48.3595C123.116 48.1348 123.01 47.8501 123.008 47.5552L141.388 47.5268Z" fill="#00B3F4"/>
</g>

<defs>
<filter id="filter0_d_5194_14463" x="0" y="0" width="204" height="143" filterUnits="userSpaceOnUse" color-interpolation-filters="sRGB">
<feFlood flood-opacity="0" result="BackgroundImageFix"/>
<feColorMatrix in="SourceAlpha" type="matrix" values="0 0 0 0 0 0 0 0 0 0 0 0 0 0 0 0 0 0 127 0" result="hardAlpha"/>
<feOffset dy="-2"/>
<feGaussianBlur stdDeviation="16"/>
<feComposite in2="hardAlpha" operator="out"/>
<feColorMatrix type="matrix" values="0 0 0 0 0 0 0 0 0 0.564706 0 0 0 0 0.929412 0 0 0 0.12 0"/>
<feBlend mode="normal" in2="BackgroundImageFix" result="effect1_dropShadow_5194_14463"/>
<feBlend mode="normal" in="SourceGraphic" in2="effect1_dropShadow_5194_14463" result="shape"/>
</filter>
<filter id="filter1_d_5194_14463" x="79" y="18" width="172" height="125" filterUnits="userSpaceOnUse" color-interpolation-filters="sRGB">
<feFlood flood-opacity="0" result="BackgroundImageFix"/>
<feColorMatrix in="SourceAlpha" type="matrix" values="0 0 0 0 0 0 0 0 0 0 0 0 0 0 0 0 0 0 127 0" result="hardAlpha"/>
<feOffset dy="-2"/>
<feGaussianBlur stdDeviation="16"/>
<feComposite in2="hardAlpha" operator="out"/>
<feColorMatrix type="matrix" values="0 0 0 0 0 0 0 0 0 0.564706 0 0 0 0 0.929412 0 0 0 0.12 0"/>
<feBlend mode="normal" in2="BackgroundImageFix" result="effect1_dropShadow_5194_14463"/>
<feBlend mode="normal" in="SourceGraphic" in2="effect1_dropShadow_5194_14463" result="shape"/>
</filter>
</defs>
</svg>
