<svg xmlns="http://www.w3.org/2000/svg" width="227" height="183" fill="none" viewBox="20 10 207 173"><g filter="url(#a)"><path fill="#fff" d="m166.47 69.58-.67.02v-.02c0-19.65-16.04-35.58-35.83-35.58a35.82 35.82 0 0 0-34.22 24.98 24.7 24.7 0 0 0-11.48-2.82A24.6 24.6 0 0 0 59.6 80.67c0 2.2.3 4.34.85 6.37a20 20 0 0 0-8.1-1.7c-11.02 0-19.97 8.87-19.97 19.83S41.32 125 52.35 125h114.12c15.41 0 27.9-12.4 27.9-27.7s-12.49-27.72-27.9-27.72"/></g><path fill="#007BED" d="m138.52 123.67-12.22 12.41-10.9-10.86-.89-1.09-1.47 1.56-31.97 34.3A6.28 6.28 0 0 0 85.8 162h80.87c1.76 0 3.53-.77 4.71-2.02L140 125.22z"/><path fill="#179CF1" d="M114.3 126.17 81.27 94.7a7.25 7.25 0 0 0-1.6 2.96 6.4 6.4 0 0 0-.3 1.77v56.14a6.9 6.9 0 0 0 1.9 4.73l31.57-32.5zm58.57-29.35a8.85 8.85 0 0 0-1.73-2.97L139 125.6l1.44 1.48 30.7 33.23a6.6 6.6 0 0 0 1.88-4.75V98.89c.14-.59 0-1.33-.15-2.07"/><path fill="#DABDFF" d="m114.29 126.64.88.88 10.9 10.48 12.23-11.8L171 94.77a6.23 6.23 0 0 0-4.42-1.77H85.71c-1.76 0-3.53.74-4.71 2.07z"/><path fill="#FF4AA2" d="M205.37 79h-55a15 15 0 0 0 0 30h55a15 15 0 0 0 0-30"><animate fill="freeze" attributeName="fill-opacity" begin="0s" dur="1400ms" keyTimes="0; 0.64; 1" values="0.01; 0.01; 1"/></path><path fill="#fff" d="m158.76 95.8.7 3.06h-3l.71-3.06-2.34 2.13-1.46-2.6 3-.9-3-.95 1.54-2.55 2.26 2.12-.7-3.05h3l-.74 3.1 2.37-2.17 1.48 2.6-3.1.92 3.1.93-1.53 2.55z"><animate fill="freeze" attributeName="fill-opacity" begin="0s" dur="1600ms" keyTimes="0; 0.875; 1" values="0.01; 0.01; 1"/></path><path fill="#fff" d="m171.97 95.8.7 3.06h-3l.71-3.06-2.34 2.13-1.46-2.6 3-.9-3-.95 1.54-2.55 2.26 2.12-.7-3.05h3l-.74 3.1 2.37-2.17 1.48 2.6-3.1.92 3.1.93-1.53 2.55z"><animate fill="freeze" attributeName="fill-opacity" begin="0s" dur="1800ms" keyTimes="0; 0.888; 1" values="0.01; 0.01; 1"/></path><path fill="#fff" d="m185.18 95.8.7 3.06h-3l.71-3.06-2.34 2.13-1.46-2.6 3-.9-3-.95 1.54-2.55 2.26 2.12-.7-3.05h2.99l-.73 3.1 2.37-2.17 1.48 2.6-3.1.92 3.1.93-1.53 2.55z"><animate fill="freeze" attributeName="fill-opacity" begin="0s" dur="2000ms" keyTimes="0; 0.9; 1" values="0.01; 0.01; 1"/></path><path fill="#fff" d="m198.39 95.8.7 3.06h-3l.71-3.06-2.34 2.13-1.46-2.6 3-.9-3-.95 1.54-2.55 2.26 2.12-.7-3.05h2.99l-.73 3.1 2.37-2.17 1.48 2.6-3.1.92 3.1.93-1.53 2.55z"><animate fill="freeze" attributeName="fill-opacity" begin="0s" dur="2200ms" keyTimes="0; 0.909; 1" values="0.01; 0.01; 1"/></path><g filter="url(#b)"><circle cx="71.37" cy="129" r="20" fill="#fff"><animate fill="freeze" attributeName="fill-opacity" dur="200ms" from=".01" to="1"/><animate fill="freeze" attributeName="r" begin="0s" calcMode="spline" dur="1s" keySplines="0.925 0.01 1 1; 0 0 1 1" keyTimes="0; 0.8; 1" values="14; 22; 20"/></circle></g><g><animateTransform fill="freeze" attributeName="transform" dur="1s" from="0 71.373 129" to="360 71.373 129" type="rotate"/><path fill="#FF4AA2" stroke="#FF4AA2" d="m81.33 127.69-8.62-8.64a1.85 1.85 0 0 0-2.63 0 1.86 1.86 0 0 0 0 2.62l5.46 5.47H61.73a1.86 1.86 0 0 0-1.86 1.86c0 1.02.83 1.86 1.86 1.86h13.81l-5.46 5.47a1.86 1.86 0 0 0 0 2.62c.73.73 1.9.73 2.63 0l8.62-8.64a1.86 1.86 0 0 0 0-2.62Z"><animate fill="freeze" attributeName="fill-opacity" dur="200ms" from=".01" to="1"/><animate fill="freeze" attributeName="stroke-opacity" dur="200ms" from=".01" to="1"/></path></g><defs><filter id="a" width="226" height="155" x=".37" y="0" color-interpolation-filters="sRGB" filterUnits="userSpaceOnUse"><feFlood flood-opacity="0" result="BackgroundImageFix"/><feColorMatrix in="SourceAlpha" result="hardAlpha" values="0 0 0 0 0 0 0 0 0 0 0 0 0 0 0 0 0 0 127 0"/><feOffset dy="-2"/><feGaussianBlur stdDeviation="16"/><feComposite in2="hardAlpha" operator="out"/><feColorMatrix values="0 0 0 0 0 0 0 0 0 0.564706 0 0 0 0 0.929412 0 0 0 0.12 0"/><feBlend in2="BackgroundImageFix" result="effect1_dropShadow_3587_53404"/><feBlend in="SourceGraphic" in2="effect1_dropShadow_3587_53404" result="shape"/></filter><filter id="b" width="104" height="104" x="19.37" y="79" color-interpolation-filters="sRGB" filterUnits="userSpaceOnUse"><feFlood flood-opacity="0" result="BackgroundImageFix"/><feColorMatrix in="SourceAlpha" result="hardAlpha" values="0 0 0 0 0 0 0 0 0 0 0 0 0 0 0 0 0 0 127 0"/><feOffset dy="2"/><feGaussianBlur stdDeviation="16"/><feComposite in2="hardAlpha" operator="out"/><feColorMatrix values="0 0 0 0 0 0 0 0 0 0.564706 0 0 0 0 0.929412 0 0 0 0.12 0"/><feBlend in2="BackgroundImageFix" result="effect1_dropShadow_3587_53404"/><feBlend in="SourceGraphic" in2="effect1_dropShadow_3587_53404" result="shape"/></filter></defs></svg>
