<svg width="250" height="200" viewBox="0 0 250 200" fill="none" xmlns="http://www.w3.org/2000/svg">
<rect width="250" height="200" fill="white"/>
<path opacity="0.6" d="M56.6847 64.3991C93.4785 73.7814 91.0866 36.1828 117.258 26.5107C143.43 16.8387 147.376 41.2388 161.067 46.9929C174.758 52.747 199.345 43.4558 213.939 64.2288C228.533 85.0017 240.455 125.479 199.756 160.214C163.942 190.779 155.768 133.27 122.379 140.301C88.6481 147.404 133.021 146.582 97.3446 160.214C61.6678 173.846 46.1871 155.437 48.9839 135.749C51.7806 116.061 48.1777 117.214 29.0708 104.457C9.96397 91.7004 30.2984 57.6708 56.6847 64.3991Z" fill="#E7DFFF"/>
<path d="M147.381 76.025L125.246 98.1604C118.273 93.9925 109.085 94.9033 103.084 100.904C96.0037 107.985 96.0037 119.504 103.084 126.584C110.165 133.665 121.684 133.665 128.765 126.584C135.194 120.155 135.706 110.123 130.475 103.029L145.051 88.4528L151.022 94.4236C152.416 95.8173 154.677 95.8173 156.071 94.4236C157.465 93.0299 157.465 90.7684 156.071 89.3747L150.1 83.4039L152.43 81.0739C153.824 79.6802 153.824 77.4187 152.43 76.025C151.036 74.6313 148.775 74.6313 147.381 76.025ZM123.716 121.535C119.42 125.831 112.429 125.831 108.133 121.535C103.838 117.24 103.838 110.249 108.133 105.953C112.429 101.657 119.42 101.657 123.716 105.953C128.011 110.249 128.011 117.24 123.716 121.535Z" fill="#7542E5" stroke="black" stroke-width="1.99132"/>
<path d="M78.9726 153.436L78.9721 153.436C74.2719 146.281 70.9626 137.625 69.1486 127.684L69.1485 127.684L64.389 101.658L64.3888 101.657C63.6293 97.527 64.1913 93.2615 65.9938 89.4736C67.796 85.6863 70.7452 82.5721 74.4167 80.5778C74.4172 80.5775 74.4177 80.5772 74.4183 80.5769L115.494 58.4929L115.496 58.4915C118.336 56.9517 121.511 56.1436 124.738 56.1391C127.963 56.1346 131.139 56.9333 133.983 58.4641C133.984 58.4646 133.984 58.4651 133.985 58.4656L175.058 80.9614L175.064 80.9642C178.753 82.9517 181.717 86.071 183.524 89.8698C185.332 93.6685 185.888 97.9483 185.111 102.087L185.111 102.089L180.365 127.763L180.365 127.765C178.557 137.644 175.242 146.26 170.561 153.395L170.561 153.396C161.014 167.969 147.845 180.141 133.482 187.679L133.481 187.679C130.785 189.095 127.79 189.837 124.748 189.842C121.752 189.842 118.738 189.098 116.031 187.692C101.695 180.174 88.5258 168.01 78.9726 153.436Z" fill="white" stroke="black" stroke-width="1.70685"/>
<path d="M83.2437 150.317L83.2432 150.316C78.9929 143.895 75.999 136.123 74.3575 127.194L74.3575 127.194L70.0459 103.792L70.0458 103.792C69.3612 100.097 69.8677 96.2817 71.4924 92.8929C73.1168 89.5046 75.7756 86.7173 79.0869 84.9319C79.0874 84.9316 79.0879 84.9313 79.0885 84.9311L116.298 65.0742L116.3 65.0728C118.862 63.6944 121.726 62.9708 124.636 62.9667C127.545 62.9627 130.41 63.6777 132.975 65.048C132.976 65.0485 132.976 65.049 132.977 65.0496L170.184 85.2767L170.19 85.2794C173.517 87.0587 176.189 89.8505 177.818 93.2491C179.447 96.6477 179.948 100.476 179.249 104.178L179.248 104.18L174.949 127.266L174.949 127.267C173.313 136.139 170.314 143.875 166.081 150.28L166.08 150.28C157.44 163.373 145.52 174.307 132.522 181.078L132.522 181.078C130.09 182.346 127.389 183.01 124.645 183.015C121.943 183.015 119.225 182.349 116.783 181.09C103.81 174.337 91.8901 163.409 83.2437 150.317Z" fill="white" stroke="black" stroke-width="1.70685"/>
<path d="M144.245 99.45L126.067 117.628C120.341 114.205 112.796 114.953 107.868 119.881C102.054 125.695 102.054 135.154 107.868 140.969C113.683 146.784 123.142 146.784 128.957 140.969C134.237 135.689 134.657 127.451 130.362 121.625L142.331 109.656L147.235 114.559C148.379 115.703 150.236 115.703 151.381 114.559C152.525 113.414 152.525 111.557 151.381 110.413L146.477 105.51L148.391 103.596C149.535 102.452 149.535 100.595 148.391 99.45C147.246 98.3055 145.389 98.3055 144.245 99.45ZM124.811 136.823C121.283 140.351 115.542 140.351 112.015 136.823C108.487 133.295 108.487 127.554 112.015 124.027C115.542 120.499 121.283 120.499 124.811 124.027C128.338 127.554 128.338 133.295 124.811 136.823Z" fill="#7542E5" stroke="black" stroke-width="1.63526"/>
<path d="M64.009 52.2813L63.8669 52.1336L63.6664 52.0914L56.1328 50.5056L56.1308 50.5052C55.7692 50.4302 55.4386 50.2478 55.1823 49.9817C54.9261 49.7157 54.7561 49.3785 54.6947 49.0142L54.6948 49.0142L54.6938 49.0087C54.6295 48.6458 54.6762 48.2719 54.828 47.936C54.9798 47.6001 55.2295 47.3179 55.5444 47.1263L55.5464 47.125L62.0865 43.1143L62.2552 43.0108L62.34 42.832L62.8952 41.6609L62.9756 41.4914L62.9556 41.3048L62.1419 33.7116C62.1418 33.7113 62.1418 33.711 62.1418 33.7107C62.0626 32.9507 62.4442 32.2357 63.1162 31.8811C63.7744 31.5338 64.5607 31.6116 65.1392 32.0775L65.1759 32.1088L70.9862 37.0672L71.1289 37.189L71.3142 37.2183L72.5943 37.4209L72.7898 37.4519L72.9704 37.371L79.9725 34.2357L79.9728 34.2356C80.6667 33.9246 81.4647 34.0657 82.0103 34.5966L82.0109 34.5972C82.5591 35.1292 82.7229 35.9245 82.4322 36.6278C82.4322 36.6278 82.4322 36.6279 82.4321 36.6279L79.4947 43.7296L79.4184 43.9141L79.4562 44.11L79.6986 45.3683L79.7338 45.5507L79.8584 45.6886L84.9798 51.3564C85.4912 51.9233 85.6015 52.7235 85.2651 53.4063L85.2648 53.4069C85.102 53.7383 84.8435 54.0132 84.5229 54.1962C84.2022 54.3793 83.8341 54.4619 83.466 54.4336L75.829 53.8349L75.6368 53.8198L75.4663 53.9098L74.3289 54.51L74.1584 54.6L74.0623 54.7672L70.2496 61.406C70.2493 61.4064 70.2491 61.4069 70.2488 61.4073C69.8611 62.0724 69.1296 62.4229 68.3842 62.3149L68.3805 62.3144C68.0155 62.2637 67.6743 62.1038 67.4016 61.8559C67.1289 61.608 66.9375 61.2835 66.8523 60.9249L66.8519 60.9229L65.0685 53.5142L65.0262 53.3386L64.901 53.2084L64.009 52.2813Z" fill="#7542E5" stroke="black" stroke-width="1.33139"/>
<circle cx="35.1319" cy="96.3902" r="6.78819" fill="white"/>
<mask id="path-8-inside-1_1479_83422" fill="white">
<path fill-rule="evenodd" clip-rule="evenodd" d="M36.4696 109.054L34.2839 109.048C33.6815 109.044 33.0954 108.853 32.6132 108.504C32.131 108.155 31.7786 107.666 31.6086 107.111L30.8926 104.742C30.3906 104.509 29.9082 104.238 29.45 103.933L26.9509 104.523C26.3664 104.658 25.7507 104.609 25.1956 104.382C24.6405 104.155 24.1758 103.762 23.8709 103.262L22.7721 101.441C22.4735 100.942 22.3493 100.365 22.4176 99.7953C22.486 99.2254 22.7435 98.6928 23.1521 98.2758L24.95 96.4559C24.9022 95.938 24.9019 95.4173 24.9491 94.8999L23.1561 93.119C22.7376 92.7007 22.4708 92.1644 22.3956 91.5905C22.3204 91.0165 22.4408 90.4358 22.7389 89.9352L23.8259 88.1226C24.1252 87.6271 24.5833 87.2381 25.1324 87.013C25.6816 86.7879 26.2927 86.7386 26.8756 86.8724L29.4326 87.4686C29.8844 87.1701 30.3529 86.9117 30.8327 86.6919L31.5332 84.3267C31.6998 83.772 32.0493 83.2851 32.5295 82.9386C33.0097 82.592 33.5947 82.4045 34.1974 82.404L36.3832 82.4102C37.6038 82.4137 38.702 83.2015 39.0528 84.3256L39.8036 86.7323C40.2681 86.9494 40.7258 87.2065 41.1684 87.5009L43.7216 86.9194C44.3036 86.7913 44.9142 86.8452 45.4643 87.0732C46.0143 87.3013 46.4751 87.6915 46.7794 88.187L47.8782 90.006C48.4981 91.0308 48.3343 92.3386 47.4817 93.1874L45.7016 94.9594C45.7525 95.4771 45.7556 95.9978 45.7108 96.5154L47.5206 98.3457C47.932 98.7647 48.193 99.2986 48.2651 99.8687C48.3372 100.439 48.2166 101.015 47.9211 101.512L46.8341 103.325C46.5333 103.824 46.0713 104.215 45.5174 104.439C44.9635 104.663 44.3476 104.708 43.7623 104.568L41.2593 103.964C40.8152 104.261 40.3476 104.523 39.8607 104.75L39.1256 107.153C38.9555 107.702 38.6056 108.183 38.1274 108.526C37.6492 108.868 37.0681 109.053 36.4696 109.054ZM30.4667 95.7148C30.475 98.2855 32.6625 100.383 35.3433 100.39C38.024 100.398 40.198 98.3133 40.1896 95.7427C40.1813 93.1721 37.9938 91.0747 35.313 91.0671C32.6322 91.0594 30.4583 93.1442 30.4667 95.7148Z"/>
</mask>
<path fill-rule="evenodd" clip-rule="evenodd" d="M36.4696 109.054L34.2839 109.048C33.6815 109.044 33.0954 108.853 32.6132 108.504C32.131 108.155 31.7786 107.666 31.6086 107.111L30.8926 104.742C30.3906 104.509 29.9082 104.238 29.45 103.933L26.9509 104.523C26.3664 104.658 25.7507 104.609 25.1956 104.382C24.6405 104.155 24.1758 103.762 23.8709 103.262L22.7721 101.441C22.4735 100.942 22.3493 100.365 22.4176 99.7953C22.486 99.2254 22.7435 98.6928 23.1521 98.2758L24.95 96.4559C24.9022 95.938 24.9019 95.4173 24.9491 94.8999L23.1561 93.119C22.7376 92.7007 22.4708 92.1644 22.3956 91.5905C22.3204 91.0165 22.4408 90.4358 22.7389 89.9352L23.8259 88.1226C24.1252 87.6271 24.5833 87.2381 25.1324 87.013C25.6816 86.7879 26.2927 86.7386 26.8756 86.8724L29.4326 87.4686C29.8844 87.1701 30.3529 86.9117 30.8327 86.6919L31.5332 84.3267C31.6998 83.772 32.0493 83.2851 32.5295 82.9386C33.0097 82.592 33.5947 82.4045 34.1974 82.404L36.3832 82.4102C37.6038 82.4137 38.702 83.2015 39.0528 84.3256L39.8036 86.7323C40.2681 86.9494 40.7258 87.2065 41.1684 87.5009L43.7216 86.9194C44.3036 86.7913 44.9142 86.8452 45.4643 87.0732C46.0143 87.3013 46.4751 87.6915 46.7794 88.187L47.8782 90.006C48.4981 91.0308 48.3343 92.3386 47.4817 93.1874L45.7016 94.9594C45.7525 95.4771 45.7556 95.9978 45.7108 96.5154L47.5206 98.3457C47.932 98.7647 48.193 99.2986 48.2651 99.8687C48.3372 100.439 48.2166 101.015 47.9211 101.512L46.8341 103.325C46.5333 103.824 46.0713 104.215 45.5174 104.439C44.9635 104.663 44.3476 104.708 43.7623 104.568L41.2593 103.964C40.8152 104.261 40.3476 104.523 39.8607 104.75L39.1256 107.153C38.9555 107.702 38.6056 108.183 38.1274 108.526C37.6492 108.868 37.0681 109.053 36.4696 109.054ZM30.4667 95.7148C30.475 98.2855 32.6625 100.383 35.3433 100.39C38.024 100.398 40.198 98.3133 40.1896 95.7427C40.1813 93.1721 37.9938 91.0747 35.313 91.0671C32.6322 91.0594 30.4583 93.1442 30.4667 95.7148Z" fill="#7417FC"/>
<path d="M34.2839 109.048L34.2837 110.185L34.2875 110.185L34.2839 109.048ZM36.4696 109.054L36.4733 110.191L36.4779 110.191L36.4696 109.054ZM32.6132 108.504L31.949 109.424L31.949 109.424L32.6132 108.504ZM31.6086 107.111L30.5189 107.434L30.5201 107.438L31.6086 107.111ZM30.8926 104.742L31.9823 104.419L31.8337 103.927L31.3671 103.711L30.8926 104.742ZM29.45 103.933L30.0776 102.988L29.6639 102.712L29.1819 102.826L29.45 103.933ZM26.9509 104.523L27.2153 105.631L27.2189 105.63L26.9509 104.523ZM25.1956 104.382L24.7694 105.434L24.7694 105.434L25.1956 104.382ZM23.8709 103.262L22.897 103.845L22.8997 103.849L23.8709 103.262ZM22.7721 101.441L21.7958 102.02L21.7982 102.024L22.7721 101.441ZM22.4176 99.7953L23.548 99.9375L23.548 99.9375L22.4176 99.7953ZM23.1521 98.2758L22.3394 97.4743L22.3362 97.4777L23.1521 98.2758ZM24.95 96.4559L25.7626 97.2574L26.1321 96.8834L26.0836 96.3582L24.95 96.4559ZM24.9491 94.8999L26.0828 95.0101L26.1317 94.4756L25.7493 94.0958L24.9491 94.8999ZM23.1561 93.119L22.3535 93.9206L22.356 93.9231L23.1561 93.119ZM22.3956 91.5905L21.2668 91.7314L21.2668 91.7314L22.3956 91.5905ZM22.7389 89.9352L21.7614 89.3463L21.7596 89.3493L22.7389 89.9352ZM23.8259 88.1226L22.8503 87.5305L22.8484 87.5336L23.8259 88.1226ZM25.1324 87.013L25.57 88.0656L25.57 88.0656L25.1324 87.013ZM26.8756 86.8724L27.1278 85.7649L27.1241 85.764L26.8756 86.8724ZM29.4326 87.4686L29.1804 88.5761L29.6575 88.6874L30.0646 88.4185L29.4326 87.4686ZM30.8327 86.6919L31.3123 87.7263L31.7788 87.5127L31.9245 87.0208L30.8327 86.6919ZM31.5332 84.3267L30.4427 83.9936L30.4414 83.9978L31.5332 84.3267ZM32.5295 82.9386L33.1998 83.862L33.1998 83.862L32.5295 82.9386ZM34.1974 82.404L34.1937 81.2666L34.1894 81.2666L34.1974 82.404ZM36.3832 82.4102L36.3868 83.5476L36.3832 82.4102ZM39.0528 84.3256L40.1395 83.9932L40.1395 83.993L39.0528 84.3256ZM39.8036 86.7323L38.7169 87.0647L38.8675 87.5475L39.3263 87.762L39.8036 86.7323ZM41.1684 87.5009L40.5415 88.4465L40.9506 88.7186L41.4278 88.6099L41.1684 87.5009ZM43.7216 86.9194L43.4703 85.8085L43.4622 85.8104L43.7216 86.9194ZM45.4643 87.0732L45.0334 88.1234L45.0334 88.1234L45.4643 87.0732ZM46.7794 88.187L47.7531 87.6037L47.7488 87.5966L46.7794 88.187ZM47.8782 90.006L46.9045 90.5893L46.9048 90.5898L47.8782 90.006ZM47.4817 93.1874L48.2876 93.9955L48.2876 93.9955L47.4817 93.1874ZM45.7016 94.9594L44.8956 94.1513L44.516 94.5291L44.5686 95.0639L45.7016 94.9594ZM45.7108 96.5154L44.5766 96.4105L44.5311 96.9358L44.9034 97.3123L45.7108 96.5154ZM47.5206 98.3457L48.331 97.5518L48.3281 97.5488L47.5206 98.3457ZM48.2651 99.8687L49.3945 99.7329L49.3945 99.7329L48.2651 99.8687ZM47.9211 101.512L48.8986 102.101L48.9009 102.097L47.9211 101.512ZM46.8341 103.325L47.8103 103.916L47.8116 103.914L46.8341 103.325ZM45.5174 104.439L45.9504 105.493L45.9504 105.493L45.5174 104.439ZM43.7623 104.568L43.5014 105.674L43.5031 105.674L43.7623 104.568ZM41.2593 103.964L41.5202 102.859L41.0357 102.742L40.623 103.017L41.2593 103.964ZM39.8607 104.75L39.3745 103.719L38.9189 103.931L38.7718 104.412L39.8607 104.75ZM39.1256 107.153L40.2134 107.495L40.2144 107.491L39.1256 107.153ZM38.1274 108.526L37.4606 107.6L37.4606 107.6L38.1274 108.526ZM35.3433 100.39L35.347 101.528L35.347 101.528L35.3433 100.39ZM30.4667 95.7148L29.3282 95.7116L29.3282 95.7116L30.4667 95.7148ZM40.1896 95.7427L41.328 95.746L41.328 95.746L40.1896 95.7427ZM34.2875 110.185L36.4733 110.191L36.466 107.917L34.2802 107.91L34.2875 110.185ZM31.949 109.424C32.6277 109.915 33.4468 110.18 34.2837 110.185L34.284 107.91C33.9163 107.908 33.5632 107.791 33.2775 107.585L31.949 109.424ZM30.5201 107.438C30.7649 108.237 31.2696 108.932 31.949 109.424L33.2775 107.585C32.9924 107.378 32.7923 107.096 32.697 106.785L30.5201 107.438ZM29.803 105.064L30.5189 107.434L32.6982 106.788L31.9823 104.419L29.803 105.064ZM28.8224 104.878C29.3297 105.216 29.8633 105.515 30.4182 105.773L31.3671 103.711C30.9179 103.502 30.4868 103.261 30.0776 102.988L28.8224 104.878ZM27.2189 105.63L29.718 105.04L29.1819 102.826L26.6828 103.416L27.2189 105.63ZM24.7694 105.434C25.5446 105.751 26.4018 105.82 27.2153 105.631L26.6865 103.415C26.3311 103.497 25.9567 103.467 25.6218 103.33L24.7694 105.434ZM22.8997 103.849C23.3353 104.563 23.9937 105.116 24.7694 105.434L25.6218 103.33C25.2872 103.193 25.0163 102.96 24.8421 102.674L22.8997 103.849ZM21.7982 102.024L22.897 103.845L24.8448 102.679L23.746 100.858L21.7982 102.024ZM21.2873 99.6531C21.1886 100.476 21.3687 101.306 21.7959 102.02L23.7484 100.862C23.5783 100.578 23.5099 100.254 23.548 99.9375L21.2873 99.6531ZM22.3362 97.4777C21.757 98.0688 21.386 98.8305 21.2873 99.6531L23.548 99.9375C23.586 99.6203 23.73 99.3168 23.9679 99.074L22.3362 97.4777ZM24.1374 95.6544L22.3394 97.4743L23.9647 99.0773L25.7626 97.2574L24.1374 95.6544ZM23.8154 94.7897C23.7619 95.3762 23.7622 95.9665 23.8164 96.5536L26.0836 96.3582C26.0422 95.9095 26.0419 95.4584 26.0828 95.0101L23.8154 94.7897ZM22.356 93.9231L24.149 95.7041L25.7493 94.0958L23.9563 92.3148L22.356 93.9231ZM21.2668 91.7314C21.3755 92.5603 21.76 93.3275 22.3535 93.9206L23.9588 92.3174C23.7152 92.0739 23.5662 91.7686 23.5244 91.4496L21.2668 91.7314ZM21.7596 89.3493C21.333 90.0658 21.1582 90.9021 21.2668 91.7314L23.5244 91.4496C23.4826 91.131 23.5487 90.8058 23.7182 90.5212L21.7596 89.3493ZM22.8484 87.5336L21.7614 89.3463L23.7164 90.5241L24.8034 88.7115L22.8484 87.5336ZM24.6948 85.9604C23.9272 86.275 23.278 86.8225 22.8503 87.5305L24.8015 88.7146C24.9724 88.4318 25.2393 88.2012 25.57 88.0656L24.6948 85.9604ZM27.1241 85.764C26.3128 85.5777 25.4619 85.6459 24.6948 85.9604L25.57 88.0656C25.9012 87.9299 26.2726 87.8995 26.627 87.9808L27.1241 85.764ZM29.6849 86.361L27.1278 85.7649L26.6233 87.98L29.1804 88.5761L29.6849 86.361ZM30.353 85.6575C29.8215 85.901 29.3019 86.1875 28.8007 86.5187L30.0646 88.4185C30.4668 88.1527 30.8843 87.9224 31.3123 87.7263L30.353 85.6575ZM30.4414 83.9978L29.7409 86.3631L31.9245 87.0208L32.625 84.6555L30.4414 83.9978ZM31.8592 82.0152C31.1829 82.5033 30.6825 83.1953 30.4427 83.9936L32.6237 84.6597C32.7171 84.3488 32.9157 84.067 33.1998 83.862L31.8592 82.0152ZM34.1894 81.2666C33.3523 81.2673 32.5348 81.5276 31.8592 82.0152L33.1998 83.862C33.4845 83.6565 33.8372 83.5417 34.2053 83.5414L34.1894 81.2666ZM36.3795 81.2729L34.1937 81.2666L34.2011 83.5413L36.3868 83.5476L36.3795 81.2729ZM40.1395 83.993C39.6321 82.3675 38.0734 81.2777 36.3795 81.2729L36.3868 83.5476C37.1342 83.5498 37.7719 84.0355 37.9662 84.6581L40.1395 83.993ZM40.8903 86.3999L40.1395 83.9932L37.9662 84.6579L38.7169 87.0647L40.8903 86.3999ZM41.7952 86.5553C41.3056 86.2296 40.7979 85.9443 40.2809 85.7026L39.3263 87.762C39.7383 87.9545 40.146 88.1834 40.5415 88.4465L41.7952 86.5553ZM43.4622 85.8104L40.9089 86.3919L41.4278 88.6099L43.9811 88.0284L43.4622 85.8104ZM45.8951 86.0231C45.1279 85.705 44.2791 85.6305 43.4703 85.8086L43.973 88.0302C44.3282 87.952 44.7005 87.9854 45.0334 88.1234L45.8951 86.0231ZM47.7488 87.5966C47.3147 86.8897 46.6628 86.3413 45.8951 86.0231L45.0334 88.1234C45.3659 88.2612 45.6356 88.4933 45.8101 88.7775L47.7488 87.5966ZM48.8519 89.4226L47.7531 87.6037L45.8057 88.7704L46.9045 90.5893L48.8519 89.4226ZM48.2876 93.9955C49.5041 92.7845 49.7477 90.9035 48.8516 89.4221L46.9048 90.5898C47.2486 91.1581 47.1645 91.8926 46.6757 92.3792L48.2876 93.9955ZM46.5076 95.7676L48.2876 93.9955L46.6757 92.3792L44.8956 94.1513L46.5076 95.7676ZM46.845 96.6203C46.8958 96.033 46.8923 95.4422 46.8345 94.8549L44.5686 95.0639C44.6127 95.5119 44.6154 95.9625 44.5766 96.4105L46.845 96.6203ZM48.3281 97.5488L46.5182 95.7186L44.9034 97.3123L46.7132 99.1425L48.3281 97.5488ZM49.3945 99.7329C49.2904 98.9097 48.9143 98.146 48.331 97.5518L46.7103 99.1396C46.9497 99.3834 47.0955 99.6875 47.1356 100.004L49.3945 99.7329ZM48.9009 102.097C49.3237 101.386 49.4986 100.556 49.3945 99.7329L47.1356 100.004C47.1757 100.321 47.1095 100.644 46.9413 100.927L48.9009 102.097ZM47.8116 103.914L48.8986 102.101L46.9436 100.923L45.8566 102.736L47.8116 103.914ZM45.9504 105.493C46.7249 105.18 47.3801 104.629 47.8103 103.916L45.858 102.734C45.6865 103.018 45.4176 103.25 45.0844 103.384L45.9504 105.493ZM43.5031 105.674C44.3184 105.87 45.1763 105.807 45.9504 105.493L45.0844 103.384C44.7507 103.519 44.3769 103.547 44.0215 103.462L43.5031 105.674ZM40.9984 105.07L43.5014 105.674L44.0231 103.463L41.5202 102.859L40.9984 105.07ZM40.3469 105.782C40.8856 105.531 41.4035 105.24 41.8957 104.911L40.623 103.017C40.2269 103.282 39.8095 103.516 39.3745 103.719L40.3469 105.782ZM40.2144 107.491L40.9495 105.089L38.7718 104.412L38.0367 106.814L40.2144 107.491ZM38.7942 109.452C39.4678 108.97 39.9687 108.285 40.2134 107.495L38.0377 106.811C37.9424 107.119 37.7435 107.397 37.4606 107.6L38.7942 109.452ZM36.4779 110.191C37.3093 110.19 38.1214 109.933 38.7942 109.452L37.4606 107.6C37.1771 107.803 36.8268 107.916 36.4614 107.917L36.4779 110.191ZM35.3396 99.2531C33.2431 99.2471 31.6112 97.617 31.6051 95.7181L29.3282 95.7116C29.3388 98.9539 32.082 101.519 35.347 101.528L35.3396 99.2531ZM39.0512 95.7395C39.0574 97.6383 37.4361 99.2591 35.3396 99.2531L35.347 101.528C38.6119 101.537 41.3386 98.9883 41.328 95.746L39.0512 95.7395ZM35.3167 92.2044C37.4132 92.2104 39.045 93.8406 39.0512 95.7395L41.328 95.746C41.3175 92.5036 38.5743 89.939 35.3093 89.9297L35.3167 92.2044ZM31.6051 95.7181C31.5989 93.8192 33.2201 92.1984 35.3167 92.2044L35.3093 89.9297C32.0443 89.9203 29.3177 92.4693 29.3282 95.7116L31.6051 95.7181Z" fill="black" mask="url(#path-8-inside-1_1479_83422)"/>
<ellipse cx="125.5" cy="27" rx="9.5" ry="10" fill="white"/>
<mask id="path-11-outside-2_1479_83422" maskUnits="userSpaceOnUse" x="106.415" y="7.28444" width="38.0178" height="38.0178" fill="black">
<rect fill="white" x="106.415" y="7.28444" width="38.0178" height="38.0178"/>
<path fill-rule="evenodd" clip-rule="evenodd" d="M114.699 20.8932C111.403 26.8993 113.608 34.4685 119.614 37.7648C125.62 41.0612 133.189 38.8563 136.486 32.8501C139.782 26.844 137.577 19.2748 131.571 15.9785C125.565 12.6821 117.996 14.887 114.699 20.8932ZM116.419 21.8371C119.195 16.7793 125.569 14.9226 130.627 17.6985C135.685 20.4744 137.542 26.8483 134.766 31.9062C131.99 36.964 125.616 38.8208 120.558 36.0449C115.5 33.269 113.643 26.895 116.419 21.8371ZM127.307 32.0531C127.399 32.2112 127.531 32.3345 127.681 32.4169C127.973 32.5768 128.34 32.5844 128.648 32.4031C129.117 32.1307 129.274 31.5302 129.001 31.0614L126.463 26.7155L128.87 22.3295C129.13 21.8548 128.957 21.2581 128.482 20.9975C128.007 20.737 127.41 20.9108 127.15 21.3856L124.475 26.2588L124.488 27.227L127.307 32.0531Z"/>
</mask>
<path fill-rule="evenodd" clip-rule="evenodd" d="M114.699 20.8932C111.403 26.8993 113.608 34.4685 119.614 37.7648C125.62 41.0612 133.189 38.8563 136.486 32.8501C139.782 26.844 137.577 19.2748 131.571 15.9785C125.565 12.6821 117.996 14.887 114.699 20.8932ZM116.419 21.8371C119.195 16.7793 125.569 14.9226 130.627 17.6985C135.685 20.4744 137.542 26.8483 134.766 31.9062C131.99 36.964 125.616 38.8208 120.558 36.0449C115.5 33.269 113.643 26.895 116.419 21.8371ZM127.307 32.0531C127.399 32.2112 127.531 32.3345 127.681 32.4169C127.973 32.5768 128.34 32.5844 128.648 32.4031C129.117 32.1307 129.274 31.5302 129.001 31.0614L126.463 26.7155L128.87 22.3295C129.13 21.8548 128.957 21.2581 128.482 20.9975C128.007 20.737 127.41 20.9108 127.15 21.3856L124.475 26.2588L124.488 27.227L127.307 32.0531Z" fill="#7542E5"/>
<path d="M127.307 32.0531L128.289 31.4794L128.289 31.4793L127.307 32.0531ZM128.648 32.4031L128.077 31.4192L128.072 31.4222L128.648 32.4031ZM129.001 31.0614L129.985 30.4897L129.984 30.4875L129.001 31.0614ZM126.463 26.7155L125.465 26.168L125.155 26.7329L125.48 27.2894L126.463 26.7155ZM127.15 21.3856L126.152 20.8381L127.15 21.3856ZM124.475 26.2588L123.478 25.7113L123.333 25.9744L123.337 26.2744L124.475 26.2588ZM124.488 27.227L123.351 27.2425L123.355 27.5421L123.506 27.8007L124.488 27.227ZM120.161 36.7673C114.706 33.7733 112.703 26.8959 115.697 21.4407L113.702 20.3457C110.103 26.9028 112.509 35.1637 119.066 38.7624L120.161 36.7673ZM135.488 32.3027C132.494 37.7579 125.617 39.7613 120.161 36.7673L119.066 38.7624C125.624 42.3611 133.884 39.9547 137.483 33.3976L135.488 32.3027ZM131.023 16.976C136.479 19.97 138.482 26.8474 135.488 32.3027L137.483 33.3976C141.082 26.8405 138.675 18.5796 132.118 14.9809L131.023 16.976ZM115.697 21.4407C118.691 15.9854 125.568 13.982 131.023 16.976L132.118 14.9809C125.561 11.3822 117.3 13.7886 113.702 20.3457L115.697 21.4407ZM131.174 16.7009C125.566 13.6226 118.5 15.6809 115.422 21.2897L117.417 22.3846C119.89 17.8777 125.573 16.2225 130.079 18.696L131.174 16.7009ZM135.763 32.4536C138.841 26.8448 136.783 19.7792 131.174 16.7009L130.079 18.696C134.586 21.1695 136.242 26.8517 133.768 31.3587L135.763 32.4536ZM120.01 37.0424C125.619 40.1207 132.685 38.0624 135.763 32.4536L133.768 31.3587C131.295 35.8656 125.612 37.5209 121.105 35.0473L120.01 37.0424ZM115.422 21.2897C112.343 26.8985 114.402 33.9641 120.01 37.0424L121.105 35.0473C116.598 32.5738 114.943 26.8916 117.417 22.3846L115.422 21.2897ZM128.229 31.4194C128.25 31.431 128.272 31.4503 128.289 31.4794L126.324 32.6268C126.525 32.972 126.812 33.238 127.134 33.4145L128.229 31.4194ZM128.072 31.4222C128.124 31.3914 128.184 31.3949 128.229 31.4194L127.134 33.4145C127.761 33.7586 128.556 33.7774 129.225 33.3839L128.072 31.4222ZM128.017 31.6331C127.977 31.5632 127.997 31.4653 128.077 31.4192L129.22 33.3869C130.237 32.7961 130.57 31.4972 129.985 30.4897L128.017 31.6331ZM125.48 27.2894L128.019 31.6353L129.984 30.4875L127.445 26.1415L125.48 27.2894ZM127.872 21.782L125.465 26.168L127.46 27.2629L129.867 22.877L127.872 21.782ZM127.934 21.9951C127.858 21.9533 127.83 21.8583 127.872 21.782L129.867 22.877C130.43 21.8514 130.055 20.5629 129.029 20L127.934 21.9951ZM128.147 21.933C128.106 22.0092 128.011 22.0369 127.934 21.9951L129.029 20C128.004 19.4371 126.715 19.8124 126.152 20.8381L128.147 21.933ZM125.473 26.8063L128.147 21.933L126.152 20.8381L123.478 25.7113L125.473 26.8063ZM125.626 27.2114L125.613 26.2432L123.337 26.2744L123.351 27.2425L125.626 27.2114ZM128.289 31.4793L125.471 26.6532L123.506 27.8007L126.324 32.6269L128.289 31.4793Z" fill="black" mask="url(#path-11-outside-2_1479_83422)"/>
<path d="M214.755 93.6224C214.059 93.5873 213.464 93.6366 212.826 93.6963C212.635 93.6941 212.471 93.7377 212.253 93.7161C211.982 93.6893 211.844 93.7135 211.595 93.7384C211.496 93.7483 211.352 93.9627 211.317 94.0317C211.211 94.2426 211.183 94.5192 211.158 94.7478C211.074 95.5159 211.196 96.3248 211.42 97.1217C211.541 97.5514 211.59 97.9492 211.488 98.3498C211.35 98.8937 211.103 99.4546 210.505 99.8065C209.558 100.365 208.616 100.934 207.977 101.668C207.579 102.124 207.345 102.855 207.545 103.456C207.879 104.457 209.35 105.194 210.514 105.898C211.257 106.348 212.137 106.645 212.982 106.99C213.617 107.25 214.271 107.476 214.912 107.726C215.332 107.89 215.729 108.06 216.179 108.166C217.282 108.426 219.238 108.654 219.678 107.923C220.192 107.068 220.668 106.178 221.062 105.283C221.098 105.201 221.182 105.277 221.195 105.223C221.222 105.108 221.165 104.956 221.127 104.836C220.782 103.741 219.895 102.686 219.222 101.62C218.981 101.238 219.162 101.413 219.528 101.295C220.001 101.144 220.427 100.945 220.874 100.77C221.454 100.541 222.139 100.243 222.851 100.151C223.196 100.107 223.311 100.085 223.499 99.8476C223.801 99.4663 224.062 98.9816 224.03 98.5077C223.957 97.4345 222.782 96.1986 221.451 95.3721C220.112 94.541 218.658 93.9876 216.978 93.8035C216.246 93.7233 215.48 93.6589 214.755 93.6224Z" fill="white"/>
<mask id="path-14-inside-3_1479_83422" fill="white">
<path fill-rule="evenodd" clip-rule="evenodd" d="M221.763 86.0042C219.892 85.2 217.716 86.0674 216.912 87.938L215.796 90.5331L222.694 93.4988L223.697 90.8549C224.501 88.9843 223.633 86.8084 221.763 86.0042ZM225.973 94.9084L227.089 92.3133C228.697 88.5725 226.962 84.2211 223.221 82.6126C219.48 81.0042 215.128 82.7384 213.52 86.4796L212.404 89.0747L210.123 88.0941C209.926 88.0092 209.714 87.964 209.499 87.9612C209.284 87.9583 209.071 87.9977 208.872 88.0772C208.672 88.1568 208.49 88.2748 208.337 88.4246C208.183 88.5744 208.06 88.7531 207.975 88.9504L201.766 103.393C201.681 103.59 201.636 103.802 201.633 104.017C201.63 104.231 201.67 104.444 201.749 104.644C201.829 104.843 201.947 105.025 202.097 105.179C202.247 105.333 202.425 105.456 202.623 105.54L221.426 113.625C221.623 113.709 221.836 113.755 222.05 113.757C222.265 113.76 222.478 113.721 222.678 113.641C222.877 113.562 223.059 113.444 223.213 113.294C223.366 113.144 223.489 112.965 223.574 112.768L229.783 98.3258C229.868 98.1286 229.913 97.9166 229.916 97.702C229.919 97.4873 229.879 97.2742 229.8 97.0747C229.72 96.8753 229.602 96.6935 229.453 96.5397C229.303 96.3859 229.124 96.2631 228.927 96.1784L225.973 94.9084ZM216.906 100.14C217.886 100.217 218.85 99.6825 219.26 98.7284C219.499 98.1547 219.501 97.5103 219.267 96.9348C219.034 96.3593 218.583 95.899 218.012 95.6536C217.442 95.4083 216.797 95.3977 216.219 95.6241C215.64 95.8505 215.174 96.2956 214.922 96.8632C214.512 97.8173 214.787 98.885 215.517 99.5434L212.333 103.064C211.737 103.723 211.966 104.773 212.782 105.123L214.739 105.965C215.554 106.315 216.473 105.76 216.542 104.874L216.906 100.14Z"/>
</mask>
<path fill-rule="evenodd" clip-rule="evenodd" d="M221.763 86.0042C219.892 85.2 217.716 86.0674 216.912 87.938L215.796 90.5331L222.694 93.4988L223.697 90.8549C224.501 88.9843 223.633 86.8084 221.763 86.0042ZM225.973 94.9084L227.089 92.3133C228.697 88.5725 226.962 84.2211 223.221 82.6126C219.48 81.0042 215.128 82.7384 213.52 86.4796L212.404 89.0747L210.123 88.0941C209.926 88.0092 209.714 87.964 209.499 87.9612C209.284 87.9583 209.071 87.9977 208.872 88.0772C208.672 88.1568 208.49 88.2748 208.337 88.4246C208.183 88.5744 208.06 88.7531 207.975 88.9504L201.766 103.393C201.681 103.59 201.636 103.802 201.633 104.017C201.63 104.231 201.67 104.444 201.749 104.644C201.829 104.843 201.947 105.025 202.097 105.179C202.247 105.333 202.425 105.456 202.623 105.54L221.426 113.625C221.623 113.709 221.836 113.755 222.05 113.757C222.265 113.76 222.478 113.721 222.678 113.641C222.877 113.562 223.059 113.444 223.213 113.294C223.366 113.144 223.489 112.965 223.574 112.768L229.783 98.3258C229.868 98.1286 229.913 97.9166 229.916 97.702C229.919 97.4873 229.879 97.2742 229.8 97.0747C229.72 96.8753 229.602 96.6935 229.453 96.5397C229.303 96.3859 229.124 96.2631 228.927 96.1784L225.973 94.9084ZM216.906 100.14C217.886 100.217 218.85 99.6825 219.26 98.7284C219.499 98.1547 219.501 97.5103 219.267 96.9348C219.034 96.3593 218.583 95.899 218.012 95.6536C217.442 95.4083 216.797 95.3977 216.219 95.6241C215.64 95.8505 215.174 96.2956 214.922 96.8632C214.512 97.8173 214.787 98.885 215.517 99.5434L212.333 103.064C211.737 103.723 211.966 104.773 212.782 105.123L214.739 105.965C215.554 106.315 216.473 105.76 216.542 104.874L216.906 100.14Z" fill="#7542E5"/>
<path d="M216.912 87.938L215.867 87.4886L216.912 87.938ZM215.796 90.5331L214.751 90.0837L214.301 91.129L215.347 91.5785L215.796 90.5331ZM222.694 93.4988L222.245 94.5442L223.337 95.0137L223.758 93.9021L222.694 93.4988ZM223.697 90.8549L222.651 90.4054L222.641 90.4283L222.632 90.4516L223.697 90.8549ZM225.973 94.9084L224.928 94.459L224.478 95.5043L225.524 95.9538L225.973 94.9084ZM227.089 92.3133L226.043 91.8639L226.043 91.8639L227.089 92.3133ZM212.404 89.0747L211.955 90.1201L213 90.5695L213.449 89.5241L212.404 89.0747ZM210.123 88.0941L209.674 89.1393L209.674 89.1394L210.123 88.0941ZM209.499 87.9612L209.514 86.8234L209.514 86.8234L209.499 87.9612ZM208.872 88.0772L209.293 89.1342L209.293 89.1342L208.872 88.0772ZM208.337 88.4246L207.543 87.6094L207.543 87.6094L208.337 88.4246ZM207.975 88.9504L209.021 89.3998L209.021 89.3996L207.975 88.9504ZM201.766 103.393L202.811 103.842L202.811 103.842L201.766 103.393ZM201.633 104.017L202.771 104.032L202.771 104.032L201.633 104.017ZM202.097 105.179L202.912 104.385L202.912 104.385L202.097 105.179ZM202.623 105.54L203.072 104.495L203.072 104.495L202.623 105.54ZM221.426 113.625L221.876 112.579L221.876 112.579L221.426 113.625ZM222.05 113.757L222.065 112.62L222.065 112.62L222.05 113.757ZM222.678 113.641L222.256 112.584L222.256 112.584L222.678 113.641ZM223.574 112.768L222.528 112.319L222.528 112.319L223.574 112.768ZM229.783 98.3258L228.738 97.8762L228.738 97.8764L229.783 98.3258ZM229.916 97.702L231.054 97.7173L231.054 97.7173L229.916 97.702ZM229.8 97.0747L230.857 96.6533L230.857 96.6533L229.8 97.0747ZM229.453 96.5397L228.637 97.3336L228.637 97.3336L229.453 96.5397ZM228.927 96.1784L228.477 97.2237L228.478 97.2238L228.927 96.1784ZM216.906 100.14L216.995 99.0059L215.859 98.9165L215.771 100.053L216.906 100.14ZM219.26 98.7284L220.306 99.1778L220.309 99.1713L220.311 99.1647L219.26 98.7284ZM214.922 96.8632L213.882 96.4006L213.879 96.4071L213.877 96.4137L214.922 96.8632ZM215.517 99.5434L216.361 100.307L217.126 99.4613L216.279 98.6981L215.517 99.5434ZM212.333 103.064L211.489 102.301L211.489 102.301L212.333 103.064ZM216.542 104.874L217.676 104.961L217.676 104.961L216.542 104.874ZM217.957 88.3875C218.513 87.0942 220.02 86.4936 221.313 87.0496L222.212 84.9588C219.764 83.9064 216.919 85.0407 215.867 87.4886L217.957 88.3875ZM216.842 90.9825L217.957 88.3875L215.867 87.4886L214.751 90.0837L216.842 90.9825ZM215.347 91.5785L222.245 94.5442L223.144 92.4534L216.246 89.4877L215.347 91.5785ZM222.632 90.4516L221.63 93.0955L223.758 93.9021L224.761 91.2582L222.632 90.4516ZM221.313 87.0496C222.606 87.6056 223.207 89.1122 222.651 90.4054L224.742 91.3043C225.794 88.8564 224.66 86.0112 222.212 84.9588L221.313 87.0496ZM227.018 95.3578L228.134 92.7627L226.043 91.8639L224.928 94.459L227.018 95.3578ZM228.134 92.7627C229.991 88.4445 227.989 83.4239 223.67 81.5672L222.771 83.658C225.935 85.0183 227.403 88.7005 226.043 91.8639L228.134 92.7627ZM223.67 81.5672C219.352 79.7107 214.331 81.7115 212.474 86.0301L214.565 86.929C215.925 83.7654 219.607 82.2977 222.771 83.658L223.67 81.5672ZM212.474 86.0301L211.359 88.6252L213.449 89.5241L214.565 86.929L212.474 86.0301ZM209.674 89.1394L211.955 90.1201L212.853 88.0293L210.573 87.0487L209.674 89.1394ZM209.484 89.099C209.549 89.0998 209.614 89.1136 209.674 89.1393L210.573 87.0488C210.238 86.9049 209.879 86.8283 209.514 86.8234L209.484 89.099ZM209.293 89.1342C209.354 89.1101 209.419 89.0981 209.484 89.099L209.514 86.8234C209.15 86.8185 208.789 86.8854 208.45 87.0202L209.293 89.1342ZM209.131 89.2398C209.177 89.1943 209.233 89.1584 209.293 89.1342L208.45 87.0202C208.112 87.1551 207.804 87.3553 207.543 87.6094L209.131 89.2398ZM209.021 89.3996C209.046 89.3396 209.084 89.2853 209.131 89.2398L207.543 87.6094C207.282 87.8635 207.074 88.1666 206.93 88.5012L209.021 89.3996ZM202.811 103.842L209.021 89.3998L206.93 88.501L200.721 102.943L202.811 103.842ZM202.771 104.032C202.772 103.966 202.786 103.902 202.811 103.842L200.721 102.943C200.577 103.278 200.5 103.637 200.495 104.002L202.771 104.032ZM202.806 104.222C202.782 104.162 202.77 104.097 202.771 104.032L200.495 104.002C200.491 104.366 200.558 104.727 200.692 105.065L202.806 104.222ZM202.912 104.385C202.866 104.338 202.831 104.283 202.806 104.222L200.692 105.065C200.827 105.404 201.028 105.712 201.282 105.973L202.912 104.385ZM203.072 104.495C203.012 104.469 202.957 104.432 202.912 104.385L201.282 105.973C201.536 106.234 201.839 106.442 202.173 106.586L203.072 104.495ZM221.876 112.579L203.072 104.495L202.173 106.586L220.977 114.67L221.876 112.579ZM222.065 112.62C222 112.619 221.936 112.605 221.876 112.579L220.977 114.67C221.311 114.814 221.671 114.89 222.035 114.895L222.065 112.62ZM222.256 112.584C222.195 112.609 222.131 112.621 222.065 112.62L222.035 114.895C222.399 114.9 222.761 114.833 223.099 114.698L222.256 112.584ZM222.419 112.479C222.372 112.524 222.317 112.56 222.256 112.584L223.099 114.698C223.437 114.563 223.746 114.363 224.007 114.109L222.419 112.479ZM222.528 112.319C222.503 112.379 222.465 112.433 222.419 112.479L224.007 114.109C224.268 113.855 224.476 113.552 224.619 113.217L222.528 112.319ZM228.738 97.8764L222.528 112.319L224.619 113.218L230.828 98.7753L228.738 97.8764ZM228.778 97.6866C228.777 97.7519 228.764 97.8163 228.738 97.8762L230.828 98.7755C230.972 98.441 231.049 98.0814 231.054 97.7173L228.778 97.6866ZM228.743 97.4961C228.767 97.5567 228.779 97.6214 228.778 97.6867L231.054 97.7173C231.059 97.3531 230.992 96.9916 230.857 96.6533L228.743 97.4961ZM228.637 97.3336C228.683 97.3803 228.719 97.4355 228.743 97.4961L230.857 96.6533C230.722 96.3151 230.522 96.0067 230.268 95.7458L228.637 97.3336ZM228.478 97.2238C228.538 97.2496 228.592 97.2869 228.637 97.3336L230.268 95.7458C230.014 95.4849 229.711 95.2766 229.376 95.1329L228.478 97.2238ZM225.524 95.9538L228.477 97.2237L229.376 95.133L226.422 93.863L225.524 95.9538ZM216.816 101.275C218.259 101.388 219.694 100.601 220.306 99.1778L218.215 98.279C218.007 98.7639 217.513 99.0467 216.995 99.0059L216.816 101.275ZM220.311 99.1647C220.664 98.3146 220.668 97.3596 220.322 96.5068L218.213 97.3628C218.334 97.661 218.333 97.9949 218.209 98.2921L220.311 99.1647ZM220.322 96.5068C219.976 95.6539 219.307 94.9718 218.462 94.6082L217.563 96.699C217.858 96.8261 218.092 97.0646 218.213 97.3628L220.322 96.5068ZM218.462 94.6082C217.616 94.2447 216.661 94.2289 215.804 94.5644L216.633 96.6837C216.933 96.5664 217.267 96.5719 217.563 96.699L218.462 94.6082ZM215.804 94.5644C214.947 94.8999 214.256 95.5596 213.882 96.4006L215.962 97.3257C216.092 97.0316 216.334 96.801 216.633 96.6837L215.804 94.5644ZM213.877 96.4137C213.265 97.8371 213.681 99.4198 214.755 100.389L216.279 98.6981C215.893 98.3501 215.759 97.7975 215.967 97.3126L213.877 96.4137ZM214.673 98.78L211.489 102.301L213.177 103.827L216.361 100.307L214.673 98.78ZM211.489 102.301C210.369 103.538 210.799 105.51 212.332 106.169L213.231 104.078C213.132 104.035 213.104 103.908 213.177 103.827L211.489 102.301ZM212.332 106.169L214.289 107.01L215.188 104.919L213.231 104.078L212.332 106.169ZM214.289 107.01C215.822 107.669 217.548 106.625 217.676 104.961L215.407 104.786C215.399 104.895 215.287 104.962 215.188 104.919L214.289 107.01ZM217.676 104.961L218.04 100.228L215.771 100.053L215.407 104.786L217.676 104.961Z" fill="black" mask="url(#path-14-inside-3_1479_83422)"/>
<circle cx="187.803" cy="42.6483" r="10.2411" fill="white"/>
<path d="M178.381 63.3996L183.667 54.2428L184.075 54.1336C186.4 54.9617 188.923 55.0675 191.313 54.4349L191.314 54.4345C197.918 52.665 201.849 45.8566 200.079 39.2527C198.31 32.6489 191.501 28.7181 184.898 30.4875C178.294 32.257 174.363 39.0655 176.132 45.6693C176.799 48.1558 178.201 50.2277 180.014 51.7828L180.122 52.1947L174.838 61.3483C174.699 61.5798 174.607 61.8365 174.568 62.1035C174.529 62.3725 174.544 62.6466 174.611 62.9099C174.679 63.1732 174.798 63.4203 174.963 63.637C175.127 63.8536 175.333 64.0353 175.568 64.1716C175.803 64.3078 176.063 64.3959 176.333 64.4306C176.602 64.4653 176.876 64.4459 177.138 64.3736C177.4 64.3014 177.645 64.1777 177.859 64.0097C178.072 63.8427 178.249 63.6353 178.381 63.3996ZM185.957 34.4426C190.378 33.2582 194.94 35.8922 196.124 40.3125C197.309 44.7328 194.675 49.295 190.254 50.4794C185.834 51.6638 181.272 49.0298 180.088 44.6095C178.903 40.1893 181.537 35.6271 185.957 34.4426Z" fill="#7417FC" stroke="black" stroke-width="1.1379"/>
</svg>
