<svg xmlns="http://www.w3.org/2000/svg" width="227" height="183" fill="none" viewBox="20 10 207 173"><g filter="url(#cloud-shadow)"><path fill="#fff" d="M166.47 69.583c-.224 0-.446.012-.67.017l.001-.017c0-19.652-16.043-35.583-35.833-35.583-16.071 0-29.67 10.506-34.215 24.978a24.7 24.7 0 0 0-11.481-2.814c-13.63 0-24.68 10.973-24.68 24.508 0 2.205.298 4.34.848 6.373a20 20 0 0 0-8.094-1.712c-11.03 0-19.973 8.88-19.973 19.834S41.315 125 52.346 125H166.47c15.411 0 27.903-12.405 27.903-27.708s-12.492-27.709-27.903-27.709"/></g><path fill="#007BED" d="m138.52 123.67-12.22 12.41-10.9-10.86-.89-1.09-1.47 1.56-31.97 34.3A6.28 6.28 0 0 0 85.8 162h80.87c1.76 0 3.53-.77 4.71-2.02L140 125.22z"/><path fill="#179CF1" d="M114.3 126.17 81.27 94.7a7.25 7.25 0 0 0-1.6 2.96 6.4 6.4 0 0 0-.3 1.77v56.14a6.9 6.9 0 0 0 1.9 4.73l31.57-32.5zm58.57-29.35a8.85 8.85 0 0 0-1.73-2.97L139 125.6l1.44 1.48 30.7 33.23a6.6 6.6 0 0 0 1.88-4.75V98.89c.14-.59 0-1.33-.15-2.07"/><path fill="#DABDFF" d="m114.29 126.64.88.88 10.9 10.48 12.23-11.8L171 94.77a6.23 6.23 0 0 0-4.42-1.77H85.71c-1.76 0-3.53.74-4.71 2.07z"/><path fill="#FF4AA2" d="M205.37 79h-55a15 15 0 0 0 0 30h55a15 15 0 0 0 0-30" class="animate-email-code-fade [animation-delay:900ms]"/><path fill="#fff" d="m158.76 95.8.7 3.06h-3l.71-3.06-2.34 2.13-1.46-2.6 3-.9-3-.95 1.54-2.55 2.26 2.12-.7-3.05h3l-.74 3.1 2.37-2.17 1.48 2.6-3.1.92 3.1.93-1.53 2.55z" class="animate-email-code-fade [animation-delay:1400ms]"/><path fill="#fff" d="m171.97 95.8.7 3.06h-3l.71-3.06-2.34 2.13-1.46-2.6 3-.9-3-.95 1.54-2.55 2.26 2.12-.7-3.05h3l-.74 3.1 2.37-2.17 1.48 2.6-3.1.92 3.1.93-1.53 2.55z" class="animate-email-code-fade [animation-delay:1600ms]"/><path fill="#fff" d="m185.18 95.8.7 3.06h-3l.71-3.06-2.34 2.13-1.46-2.6 3-.9-3-.95 1.54-2.55 2.26 2.12-.7-3.05h2.99l-.73 3.1 2.37-2.17 1.48 2.6-3.1.92 3.1.93-1.53 2.55z" class="animate-email-code-fade [animation-delay:1800ms]"/><path fill="#fff" d="m198.39 95.8.7 3.06h-3l.71-3.06-2.34 2.13-1.46-2.6 3-.9-3-.95 1.54-2.55 2.26 2.12-.7-3.05h2.99l-.73 3.1 2.37-2.17 1.48 2.6-3.1.92 3.1.93-1.53 2.55z" class="animate-email-code-fade [animation-delay:2000ms]"/><g class="animate-email-code-bounce-scale"><circle cx="71.37" cy="129" r="20" fill="#fff" class="animate-email-code-fade"/></g><g class="animate-email-code-rotate"><path fill="#FF4AA2" stroke="#FF4AA2" d="m81.33 127.69-8.62-8.64a1.85 1.85 0 0 0-2.63 0 1.86 1.86 0 0 0 0 2.62l5.46 5.47H61.73a1.86 1.86 0 0 0-1.86 1.86c0 1.02.83 1.86 1.86 1.86h13.81l-5.46 5.47a1.86 1.86 0 0 0 0 2.62c.73.73 1.9.73 2.63 0l8.62-8.64a1.86 1.86 0 0 0 0-2.62Z" class="animate-email-code-fade"/></g><defs><filter id="cloud-shadow" x="-50%" y="-50%" width="200%" height="200%"><feGaussianBlur stdDeviation="20" result="glow"/><feColorMatrix in="glow" values="0 0 0 0 0  0 0 0 0 0.5  0 0 0 0 1  0 0 0 0.2 0" result="blue-glow"/><feMerge><feMergeNode in="blue-glow"/><feMergeNode in="SourceGraphic"/></feMerge></filter></defs></svg>
