<svg width="252" height="161" viewBox="0 0 252 161" fill="none" xmlns="http://www.w3.org/2000/svg">
<g filter="url(#filter0_d_5446_43042)" class="animate-subtle-move">
<path d="M147.886 50.891C147.692 50.891 147.5 50.9011 147.307 50.9056C147.307 50.9007 147.308 50.8959 147.308 50.891C147.308 33.8304 133.443 20 116.341 20C102.452 20 90.7 29.1205 86.7729 41.6845C83.8083 40.1271 80.4339 39.2413 76.8505 39.2413C65.0711 39.2413 55.5221 48.7669 55.5221 60.5175C55.5221 62.4317 55.7796 64.2852 56.2548 66.0498C54.1152 65.1017 51.7524 64.5641 49.2603 64.5641C39.7277 64.5641 32 72.2729 32 81.782C32 91.2912 39.7277 99 49.2603 99H147.886C161.204 99 172 88.2305 172 74.9455C172 61.6604 161.204 50.891 147.886 50.891Z" fill="white"/>
</g>
<g filter="url(#filter1_d_5446_43042)" class="animate-subtle-move animation-delay-500">
<path d="M143.018 98.7244C143.147 98.7244 143.275 98.7311 143.403 98.7341C143.403 98.7309 143.403 98.7276 143.403 98.7244C143.403 87.2786 152.613 78 163.974 78C173.199 78 181.006 84.1188 183.615 92.5479C185.584 91.503 187.826 90.9087 190.206 90.9087C198.031 90.9087 204.375 97.2993 204.375 105.183C204.375 106.467 204.204 107.71 203.888 108.894C205.309 108.258 206.879 107.897 208.534 107.897C214.867 107.897 220 113.069 220 119.449C220 125.828 214.867 131 208.534 131H143.018C134.172 131 127 123.775 127 114.862C127 105.949 134.172 98.7244 143.018 98.7244Z" fill="white"/>
</g>
<path d="M101.424 43.8599H150.832C154.672 43.8599 158 46.9319 158 51.0279V140.884C158 144.724 154.928 148.052 150.832 148.052H101.168C97.328 148.052 94 144.98 94 140.884V51.0279C94.256 47.1879 97.328 43.8599 101.424 43.8599Z" fill="#DABDFF"/>
<path d="M104.64 51.0275H149.44C149.952 51.0275 150.72 51.2835 151.232 51.7955C151.744 52.3075 152 52.8195 152 53.5875V136.275C152 136.787 151.744 137.555 151.232 138.067C150.72 138.579 150.208 138.835 149.44 138.835H104.64C103.36 138.835 102.336 137.811 102.336 136.531V53.3315C102.336 52.8195 102.592 52.0515 103.104 51.5395C103.36 51.2835 103.872 51.0275 104.64 51.0275Z" fill="#0190ED"/>
<path d="M122.064 144.467H128.72C129.488 144.467 130 143.955 130 143.187C130 142.419 129.488 141.907 128.72 141.907H122.064C121.296 141.907 120.784 142.419 120.784 143.187C120.784 143.955 121.296 144.467 122.064 144.467Z" fill="#0190ED"/>
<path d="M127.248 134.168C125.269 134.168 123.664 132.563 123.664 130.584C123.664 128.605 125.269 127 127.248 127C129.227 127 130.832 128.605 130.832 130.584C130.832 132.563 129.227 134.168 127.248 134.168Z" fill="#DABDFF"/>
<path d="M136.416 134.168C134.437 134.168 132.832 132.563 132.832 130.584C132.832 128.605 134.437 127 136.416 127C138.395 127 140 128.605 140 130.584C140 132.563 138.395 134.168 136.416 134.168Z" fill="#DABDFF"/>
<path d="M118.08 134.168C116.101 134.168 114.496 132.563 114.496 130.584C114.496 128.605 116.101 127 118.08 127C120.059 127 121.664 128.605 121.664 130.584C121.664 132.563 120.059 134.168 118.08 134.168Z" fill="#DABDFF"/>

<path d="M113.601 97.1143L114.464 100.855H110.794L111.658 97.1143L108.789 99.7212L107 96.5316L110.671 95.4277L107 94.2627L108.882 91.1347L111.658 93.7411L110.794 90H114.464L113.57 93.8026L116.469 91.1347L118.289 94.3238L114.495 95.4585L118.289 96.5931L116.408 99.7212L113.601 97.1143Z" fill="white" class="animate-fade-out-in opacity-20 animation-delay-1200"/>
<path d="M142.179 97.1143L143.042 100.855H139.372L140.236 97.1143L137.367 99.7212L135.578 96.5316L139.249 95.4277L135.578 94.2627L137.46 91.1347L140.236 93.7411L139.372 90H143.042L142.148 93.8026L145.047 91.1347L146.867 94.3238L143.073 95.4585L146.867 96.5931L144.986 99.7212L142.179 97.1143Z" fill="white" class="animate-fade-out-in opacity-20 animation-delay-1000"/>
<path d="M127.89 97.1143L128.753 100.855H125.083L125.947 97.1143L123.078 99.7212L121.289 96.5316L124.96 95.4277L121.289 94.2627L123.171 91.1347L125.947 93.7411L125.083 90H128.753L127.859 93.8026L130.758 91.1347L132.578 94.3238L128.784 95.4585L132.578 96.5931L130.697 99.7212L127.89 97.1143Z" fill="white" class="animate-fade-out-in opacity-20 animation-delay-700"/>

<g filter="url(#filter2_d_5446_43042)">
<circle cx="178.5" cy="64.5" r="30.5" fill="white"/>
</g>
<g class="animate-spin-xl" style="transform-origin: 11rem 4rem;">
<path d="M192.998 59.6405C192.998 59.3856 192.897 59.1412 192.717 58.961C192.537 58.7808 192.292 58.6796 192.037 58.6796H165.144C164.889 58.6799 164.645 58.7813 164.465 58.9614C164.285 59.1416 164.184 59.3858 164.184 59.6405V61.5611H192.998V59.6405Z" fill="#FF4AA2"/>
<path d="M164.184 79.9483C164.184 80.203 164.285 80.4472 164.465 80.6272C164.645 80.8073 164.889 80.9084 165.144 80.9084H192.037C192.163 80.9086 192.288 80.8839 192.405 80.8357C192.522 80.7875 192.628 80.7168 192.717 80.6276C192.806 80.5385 192.877 80.4326 192.925 80.316C192.974 80.1995 192.998 80.0745 192.998 79.9483V78.0269H164.184V79.9483Z" fill="#E31587"/>
<path fill-rule="evenodd" clip-rule="evenodd" d="M164.185 61.4843H193V69.4448H164.185V61.4843ZM164.185 69.4451H193V77.9332H164.185V69.4451Z" fill="#FF4AA2"/>
<path fill-rule="evenodd" clip-rule="evenodd" d="M179.769 68.7833C180.697 68.3304 181.337 67.3773 181.337 66.2749C181.337 64.7344 180.088 63.4855 178.547 63.4855C177.007 63.4855 175.758 64.7344 175.758 66.2749C175.758 67.3773 176.397 68.3303 177.325 68.7833L175.817 71.9699C175.772 72.0696 175.752 72.1792 175.759 72.2886C175.767 72.3981 175.802 72.5039 175.861 72.5963C175.92 72.6888 176.001 72.765 176.097 72.818C176.193 72.871 176.301 72.8991 176.41 72.8997H180.688C180.797 72.8991 180.905 72.871 181.001 72.818C181.097 72.765 181.178 72.6888 181.237 72.5963C181.296 72.5039 181.331 72.3981 181.339 72.2886C181.347 72.1792 181.327 72.0696 181.281 71.9699L179.769 68.7833Z" fill="white"/>
<path fill-rule="evenodd" clip-rule="evenodd" d="M172.628 54.4599C172.628 52.8676 173.26 51.3406 174.386 50.2147C175.512 49.0889 177.039 48.4564 178.631 48.4564C180.223 48.4564 181.75 49.0889 182.876 50.2147C184.002 51.3406 184.635 52.8676 184.635 54.4599V55.719H184.634V58.6H189.436V55.7195H189.437V54.4599C189.437 53.0409 189.157 51.6357 188.614 50.3248C188.071 49.0138 187.275 47.8226 186.272 46.8192C185.268 45.8158 184.077 45.0199 182.766 44.4768C181.455 43.9338 180.05 43.6543 178.631 43.6543C175.765 43.6543 173.017 44.7927 170.99 46.8192C168.964 48.8456 167.825 51.5941 167.825 54.4599V55.719V55.7195V58.6H172.628L172.628 55.7195L172.628 55.719L172.628 54.4599Z" fill="#FF4AA2"/>
</g>
<defs>
<filter id="filter0_d_5446_43042" x="0" y="-14" width="204" height="143" filterUnits="userSpaceOnUse" color-interpolation-filters="sRGB">
<feFlood flood-opacity="0" result="BackgroundImageFix"/>
<feColorMatrix in="SourceAlpha" type="matrix" values="0 0 0 0 0 0 0 0 0 0 0 0 0 0 0 0 0 0 127 0" result="hardAlpha"/>
<feOffset dy="-2"/>
<feGaussianBlur stdDeviation="16"/>
<feComposite in2="hardAlpha" operator="out"/>
<feColorMatrix type="matrix" values="0 0 0 0 0 0 0 0 0 0.564706 0 0 0 0 0.929412 0 0 0 0.12 0"/>
<feBlend mode="normal" in2="BackgroundImageFix" result="effect1_dropShadow_5446_43042"/>
<feBlend mode="normal" in="SourceGraphic" in2="effect1_dropShadow_5446_43042" result="shape"/>
</filter>
<filter id="filter1_d_5446_43042" x="95" y="44" width="157" height="117" filterUnits="userSpaceOnUse" color-interpolation-filters="sRGB">
<feFlood flood-opacity="0" result="BackgroundImageFix"/>
<feColorMatrix in="SourceAlpha" type="matrix" values="0 0 0 0 0 0 0 0 0 0 0 0 0 0 0 0 0 0 127 0" result="hardAlpha"/>
<feOffset dy="-2"/>
<feGaussianBlur stdDeviation="16"/>
<feComposite in2="hardAlpha" operator="out"/>
<feColorMatrix type="matrix" values="0 0 0 0 0 0 0 0 0 0.564706 0 0 0 0 0.929412 0 0 0 0.12 0"/>
<feBlend mode="normal" in2="BackgroundImageFix" result="effect1_dropShadow_5446_43042"/>
<feBlend mode="normal" in="SourceGraphic" in2="effect1_dropShadow_5446_43042" result="shape"/>
</filter>
<filter id="filter2_d_5446_43042" x="116" y="4" width="125" height="125" filterUnits="userSpaceOnUse" color-interpolation-filters="sRGB">
<feFlood flood-opacity="0" result="BackgroundImageFix"/>
<feColorMatrix in="SourceAlpha" type="matrix" values="0 0 0 0 0 0 0 0 0 0 0 0 0 0 0 0 0 0 127 0" result="hardAlpha"/>
<feOffset dy="2"/>
<feGaussianBlur stdDeviation="16"/>
<feComposite in2="hardAlpha" operator="out"/>
<feColorMatrix type="matrix" values="0 0 0 0 0 0 0 0 0 0.564706 0 0 0 0 0.929412 0 0 0 0.12 0"/>
<feBlend mode="normal" in2="BackgroundImageFix" result="effect1_dropShadow_5446_43042"/>
<feBlend mode="normal" in="SourceGraphic" in2="effect1_dropShadow_5446_43042" result="shape"/>
</filter>
</defs>
</svg>
