<svg xmlns="http://www.w3.org/2000/svg" width="71" height="39" fill="none"><path fill="#7542E5" stroke="#000" stroke-width="2" d="M66.199 14.835h-30.36C33.908 7.063 26.974 1.272 18.713 1.272c-9.755 0-17.661 8.07-17.661 17.954S8.958 37.18 18.713 37.18c8.852 0 16.09-6.662 17.375-15.259h19.947v8.325c0 1.94 1.55 3.543 3.5 3.543 1.947 0 3.498-1.604 3.498-3.543V21.92H66.2c1.948 0 3.499-1.603 3.499-3.543 0-1.94-1.551-3.543-3.5-3.543ZM18.713 30.093c-5.862 0-10.663-4.859-10.663-10.867 0-6.008 4.8-10.868 10.663-10.868s10.663 4.86 10.663 10.868-4.8 10.867-10.663 10.867Z"/></svg>