<svg width="251" height="163" viewBox="0 0 251 163" fill="none" xmlns="http://www.w3.org/2000/svg">
<g filter="url(#filter0_d_5165_11537)">
<path d="M50.7741 95.2646C50.9254 95.2646 51.0746 95.2723 51.225 95.2757C51.225 95.272 51.2247 95.2683 51.2247 95.2646C51.2247 82.1933 62.0191 71.5969 75.3347 71.5969C86.1477 71.5969 95.2978 78.5847 98.3554 88.2109C100.664 87.0176 103.291 86.3389 106.081 86.3389C115.252 86.3389 122.686 93.6372 122.686 102.64C122.686 104.107 122.486 105.527 122.116 106.879C123.782 106.152 125.621 105.74 127.562 105.74C134.983 105.74 141 111.647 141 118.932C141 126.218 134.983 132.124 127.562 132.124H50.7741C40.4055 132.124 32 123.873 32 113.694C32 103.516 40.4055 95.2646 50.7741 95.2646Z" fill="white"/>
</g>
<g filter="url(#filter1_d_5165_11537)">
<path d="M200.743 46.264C200.596 46.264 200.45 46.2716 200.304 46.275C200.304 46.2714 200.304 46.2677 200.304 46.264C200.304 33.407 189.807 22.9844 176.858 22.9844C166.343 22.9844 157.444 29.8576 154.471 39.326C152.226 38.1523 149.671 37.4847 146.958 37.4847C138.04 37.4847 130.81 44.6633 130.81 53.5186C130.81 54.9611 131.005 56.358 131.364 57.6878C129.744 56.9733 127.955 56.5681 126.068 56.5681C118.851 56.5681 113 62.3775 113 69.5437C113 76.7099 118.851 82.5193 126.068 82.5193H200.743C210.826 82.5193 219 74.4033 219 64.3916C219 54.3799 210.826 46.264 200.743 46.264Z" fill="white"/>
</g>
<g filter="url(#filter2_d_5165_11537)">
<path d="M147.851 104.417C147.939 104.417 148.025 104.422 148.112 104.424C148.112 104.422 148.112 104.42 148.112 104.417C148.112 96.7032 154.351 90.4496 162.047 90.4496C168.296 90.4496 173.585 94.5735 175.352 100.255C176.686 99.5503 178.205 99.1498 179.817 99.1498C185.118 99.1498 189.415 103.457 189.415 108.77C189.415 109.636 189.299 110.474 189.085 111.272C190.048 110.843 191.111 110.6 192.233 110.6C196.523 110.6 200 114.085 200 118.385C200 122.685 196.523 126.171 192.233 126.171H147.851C141.858 126.171 137 121.301 137 115.294C137 109.287 141.858 104.417 147.851 104.417Z" fill="white"/>
</g>
<path d="M131.403 65.7499V40.8375H94.8241C91.0552 40.8375 88 43.8515 88 47.5694V129.361C88 133.079 91.0552 136.093 94.8241 136.093H156.656C160.425 136.093 163.48 133.079 163.48 129.361V72.4818H138.227C134.458 72.4818 131.403 69.4678 131.403 65.7499Z" fill="#0090ED"/>
<path d="M131.402 40.8375L131.402 65.7499C131.402 69.4678 134.458 72.4818 138.226 72.4818H163.48C163.48 69.2604 162.183 66.171 159.874 63.8931L140.109 44.3951C137.8 42.1172 134.668 40.8375 131.402 40.8375Z" fill="#00B3F4"/>
<path d="M106.666 110.307L107.37 113.336H104.376L105.081 110.307L102.741 112.417L101.281 109.836L104.276 108.942L101.281 107.999L102.816 105.467L105.081 107.577L104.376 104.549H107.37L106.641 107.627L109.006 105.467L110.49 108.049L107.396 108.967L110.49 109.885L108.956 112.417L106.666 110.307Z" fill="white" class="animate-fade-out-in animation-delay-700"/>
<path d="M119.9 110.307L120.605 113.336H117.611L118.315 110.307L115.975 112.417L114.516 109.836L117.51 108.942L114.516 107.999L116.051 105.467L118.315 107.577L117.611 104.549H120.605L119.875 107.627L122.24 105.467L123.725 108.049L120.63 108.967L123.725 109.885L122.19 112.417L119.9 110.307Z" fill="white" class="animate-fade-out-in animation-delay-500"/>
<path d="M133.139 110.307L133.843 113.336H130.849L131.553 110.307L129.213 112.417L127.754 109.836L130.748 108.942L127.754 107.999L129.289 105.467L131.553 107.577L130.849 104.549H133.843L133.113 107.627L135.479 105.467L136.963 108.049L133.868 108.967L136.963 109.885L135.428 112.417L133.139 110.307Z" fill="white" class="animate-fade-out-in animation-delay-300"/>
<path d="M146.377 110.307L147.081 113.336H144.087L144.792 110.307L142.452 112.417L140.992 109.836L143.986 108.942L140.992 107.999L142.527 105.467L144.792 107.577L144.087 104.549H147.081L146.352 107.627L148.717 105.467L150.201 108.049L147.107 108.967L150.201 109.885L148.667 112.417L146.377 110.307Z" fill="white" class="animate-fade-out-in"/>
<path d="M106.666 96.6562L107.37 99.6844H104.376L105.081 96.6562L102.741 98.7662L101.281 96.1845L104.276 95.291L101.281 94.348L102.816 91.816L105.081 93.9258L104.376 90.8976H107.37L106.641 93.9755L109.006 91.816L110.49 94.3974L107.396 95.3159L110.49 96.2343L108.956 98.7662L106.666 96.6562Z" fill="white" class="animate-fade-out-in"/>
<path d="M119.9 96.6562L120.605 99.6844H117.611L118.315 96.6562L115.975 98.7662L114.516 96.1845L117.51 95.291L114.516 94.348L116.051 91.816L118.315 93.9258L117.611 90.8976H120.605L119.875 93.9755L122.24 91.816L123.725 94.3974L120.63 95.3159L123.725 96.2343L122.19 98.7662L119.9 96.6562Z" fill="white" class="animate-fade-out-in"/>
<path d="M133.139 96.6562L133.843 99.6844H130.849L131.553 96.6562L129.213 98.7662L127.754 96.1845L130.748 95.291L127.754 94.348L129.289 91.816L131.553 93.9258L130.849 90.8976H133.843L133.113 93.9755L135.479 91.816L136.963 94.3974L133.868 95.3159L136.963 96.2343L135.428 98.7662L133.139 96.6562Z" fill="white" class="animate-fade-out-in animation-delay-1000"/>
<path d="M146.377 96.6562L147.081 99.6844H144.087L144.792 96.6562L142.452 98.7662L140.992 96.1845L143.986 95.291L140.992 94.348L142.527 91.816L144.792 93.9258L144.087 90.8976H147.081L146.352 93.9755L148.717 91.816L150.201 94.3974L147.107 95.3159L150.201 96.2343L148.667 98.7662L146.377 96.6562Z" fill="white" class="animate-fade-out-in animation-delay-700"/>
<path d="M106.666 83.0051L107.37 86.0332H104.376L105.081 83.0051L102.741 85.1151L101.281 82.5334L104.276 81.6398L101.281 80.6968L102.816 78.1649L105.081 80.2746L104.376 77.2465H107.37L106.641 80.3244L109.006 78.1649L110.49 80.7463L107.396 81.6647L110.49 82.5832L108.956 85.1151L106.666 83.0051Z" fill="white" class="animate-fade-out-in animation-delay-300"/>
<path d="M119.9 83.0051L120.605 86.0332H117.611L118.315 83.0051L115.975 85.1151L114.516 82.5334L117.51 81.6398L114.516 80.6968L116.051 78.1649L118.315 80.2746L117.611 77.2465H120.605L119.875 80.3244L122.24 78.1649L123.725 80.7463L120.63 81.6647L123.725 82.5832L122.19 85.1151L119.9 83.0051Z" fill="white" class="animate-fade-out-in animation-delay-300"/>
<path d="M133.139 83.0051L133.843 86.0332H130.849L131.553 83.0051L129.213 85.1151L127.754 82.5334L130.748 81.6398L127.754 80.6968L129.289 78.1649L131.553 80.2746L130.849 77.2465H133.843L133.113 80.3244L135.479 78.1649L136.963 80.7463L133.868 81.6647L136.963 82.5832L135.428 85.1151L133.139 83.0051Z" fill="white" class="animate-fade-out-in animation-delay-1000"/>
<path d="M146.377 83.0051L147.081 86.0332H144.087L144.792 83.0051L142.452 85.1151L140.992 82.5334L143.986 81.6398L140.992 80.6968L142.527 78.1649L144.792 80.2746L144.087 77.2465H147.081L146.352 80.3244L148.717 78.1649L150.201 80.7463L147.107 81.6647L150.201 82.5832L148.667 85.1151L146.377 83.0051Z" fill="white" class="animate-fade-out-in animation-delay-700"/>

<path d="M106.666 69.3539L107.37 72.382H104.376L105.081 69.3539L102.741 71.4639L101.281 68.8822L104.276 67.9887L101.281 67.0457L102.816 64.5137L105.081 66.6234L104.376 63.5953H107.37L106.641 66.6732L109.006 64.5137L110.49 67.0951L107.396 68.0136L110.49 68.932L108.956 71.4639L106.666 69.3539Z" fill="white" class="animate-fade-out-in animation-delay-300"/>
<path d="M119.9 69.3539L120.605 72.382H117.611L118.315 69.3539L115.975 71.4639L114.516 68.8822L117.51 67.9887L114.516 67.0457L116.051 64.5137L118.315 66.6234L117.611 63.5953H120.605L119.875 66.6732L122.24 64.5137L123.725 67.0951L120.63 68.0136L123.725 68.932L122.19 71.4639L119.9 69.3539Z" fill="white" class="animate-fade-out-in"/>
  <g class="animate-spin-xl origin-[5.75rem_7.88rem]">
<ellipse cx="92" cy="126.171" rx="22" ry="21.8295" fill="white"/>
<path d="M87.918 117.23C87.3136 116.577 86.3209 116.577 85.7172 117.232L78.8281 124.702C78.3281 125.244 78.3281 126.105 78.8281 126.647L85.7172 134.117C86.3215 134.772 87.3155 134.772 87.9197 134.117C88.5025 133.485 88.5025 132.48 87.92 131.848C87.9199 131.848 87.9198 131.848 87.9197 131.848L82.23 125.67L87.928 119.492C88.5024 118.869 88.5033 117.854 87.918 117.23Z" fill="#E31587" stroke="#E31587"/>
<path d="M95.082 117.23C95.6864 116.577 96.6791 116.577 97.2828 117.232L104.172 124.702C104.672 125.244 104.672 126.105 104.172 126.647L97.2828 134.117C96.6785 134.772 95.6845 134.772 95.0803 134.117C94.4975 133.485 94.4975 132.48 95.08 131.848C95.0801 131.848 95.0802 131.848 95.0803 131.848L100.77 125.67L95.072 119.492C94.4976 118.869 94.4967 117.854 95.082 117.23Z" fill="#E31587" stroke="#E31587"/>
  </g>
<defs>
<filter id="filter0_d_5165_11537" x="0" y="37.5969" width="173" height="124.527" filterUnits="userSpaceOnUse" color-interpolation-filters="sRGB">
<feFlood flood-opacity="0" result="BackgroundImageFix"/>
<feColorMatrix in="SourceAlpha" type="matrix" values="0 0 0 0 0 0 0 0 0 0 0 0 0 0 0 0 0 0 127 0" result="hardAlpha"/>
<feOffset dy="-2"/>
<feGaussianBlur stdDeviation="16"/>
<feComposite in2="hardAlpha" operator="out"/>
<feColorMatrix type="matrix" values="0 0 0 0 0 0 0 0 0 0.564706 0 0 0 0 0.929412 0 0 0 0.16 0"/>
<feBlend mode="normal" in2="BackgroundImageFix" result="effect1_dropShadow_5165_11537"/>
<feBlend mode="normal" in="SourceGraphic" in2="effect1_dropShadow_5165_11537" result="shape"/>
</filter>
<filter id="filter1_d_5165_11537" x="81" y="-13.0156" width="170" height="123.535" filterUnits="userSpaceOnUse" color-interpolation-filters="sRGB">
<feFlood flood-opacity="0" result="BackgroundImageFix"/>
<feColorMatrix in="SourceAlpha" type="matrix" values="0 0 0 0 0 0 0 0 0 0 0 0 0 0 0 0 0 0 127 0" result="hardAlpha"/>
<feOffset dy="-4"/>
<feGaussianBlur stdDeviation="16"/>
<feComposite in2="hardAlpha" operator="out"/>
<feColorMatrix type="matrix" values="0 0 0 0 0 0 0 0 0 0.564706 0 0 0 0 0.929412 0 0 0 0.12 0"/>
<feBlend mode="normal" in2="BackgroundImageFix" result="effect1_dropShadow_5165_11537"/>
<feBlend mode="normal" in="SourceGraphic" in2="effect1_dropShadow_5165_11537" result="shape"/>
</filter>
<filter id="filter2_d_5165_11537" x="105" y="60.4496" width="127" height="99.7209" filterUnits="userSpaceOnUse" color-interpolation-filters="sRGB">
<feFlood flood-opacity="0" result="BackgroundImageFix"/>
<feColorMatrix in="SourceAlpha" type="matrix" values="0 0 0 0 0 0 0 0 0 0 0 0 0 0 0 0 0 0 127 0" result="hardAlpha"/>
<feOffset dy="2"/>
<feGaussianBlur stdDeviation="16"/>
<feComposite in2="hardAlpha" operator="out"/>
<feColorMatrix type="matrix" values="0 0 0 0 0 0 0 0 0 0.564706 0 0 0 0 0.929412 0 0 0 0.16 0"/>
<feBlend mode="normal" in2="BackgroundImageFix" result="effect1_dropShadow_5165_11537"/>
<feBlend mode="normal" in="SourceGraphic" in2="effect1_dropShadow_5165_11537" result="shape"/>
</filter>
</defs>
</svg>
