<svg xmlns="http://www.w3.org/2000/svg" width="53" height="65" fill="none"><path fill="#fff" d="M19.526 30.714h13.871v29.723H19.526z"/><mask id="a" fill="#fff"><path fill-rule="evenodd" d="M25.71 8.218c-4.39 0-7.961 3.688-7.961 8.22v6.287h16.189l-.266-6.287c0-4.532-3.572-8.22-7.962-8.22Zm15.923 14.507v-6.287C41.633 7.374 34.49 0 25.71 0 16.93 0 9.787 7.373 9.787 16.438v6.287H4.435c-.463 0-.922.094-1.35.277a3.52 3.52 0 0 0-1.143.789c-.328.338-.588.74-.765 1.18a3.742 3.742 0 0 0-.268 1.394v34.996c0 .478.091.951.269 1.393.177.441.436.843.764 1.18a3.52 3.52 0 0 0 1.144.79c.427.182.886.276 1.349.276h44.13c.464 0 .922-.094 1.35-.277a3.52 3.52 0 0 0 1.144-.789 3.65 3.65 0 0 0 .764-1.18 3.74 3.74 0 0 0 .268-1.394V26.364c0-.478-.091-.951-.269-1.393a3.648 3.648 0 0 0-.764-1.18 3.518 3.518 0 0 0-1.143-.79 3.43 3.43 0 0 0-1.35-.276h-6.932ZM28.128 41.399c2.008-.704 3.462-2.646 3.462-4.958a5.342 5.342 0 0 0-1.514-3.674 5.01 5.01 0 0 0-3.577-1.516 5.01 5.01 0 0 0-3.578 1.516 5.342 5.342 0 0 0-1.514 3.674c0 2.312 1.455 4.254 3.462 4.958l-3.31 10c-.619 1.873.729 3.818 2.644 3.818h4.593c1.914 0 3.261-1.945 2.642-3.817l-3.31-10Z" clip-rule="evenodd"/></mask><path fill="#7542E5" fill-rule="evenodd" d="M25.71 8.218c-4.39 0-7.961 3.688-7.961 8.22v6.287h16.189l-.266-6.287c0-4.532-3.572-8.22-7.962-8.22Zm15.923 14.507v-6.287C41.633 7.374 34.49 0 25.71 0 16.93 0 9.787 7.373 9.787 16.438v6.287H4.435c-.463 0-.922.094-1.35.277a3.52 3.52 0 0 0-1.143.789c-.328.338-.588.74-.765 1.18a3.742 3.742 0 0 0-.268 1.394v34.996c0 .478.091.951.269 1.393.177.441.436.843.764 1.18a3.52 3.52 0 0 0 1.144.79c.427.182.886.276 1.349.276h44.13c.464 0 .922-.094 1.35-.277a3.52 3.52 0 0 0 1.144-.789 3.65 3.65 0 0 0 .764-1.18 3.74 3.74 0 0 0 .268-1.394V26.364c0-.478-.091-.951-.269-1.393a3.648 3.648 0 0 0-.764-1.18 3.518 3.518 0 0 0-1.143-.79 3.43 3.43 0 0 0-1.35-.276h-6.932ZM28.128 41.399c2.008-.704 3.462-2.646 3.462-4.958a5.342 5.342 0 0 0-1.514-3.674 5.01 5.01 0 0 0-3.577-1.516 5.01 5.01 0 0 0-3.578 1.516 5.342 5.342 0 0 0-1.514 3.674c0 2.312 1.455 4.254 3.462 4.958l-3.31 10c-.619 1.873.729 3.818 2.644 3.818h4.593c1.914 0 3.261-1.945 2.642-3.817l-3.31-10Z" clip-rule="evenodd"/><path fill="#000" d="M17.749 22.725h-2v2h2v-2Zm16.189 0v2h2.087l-.089-2.085-1.998.085Zm-.266-6.287h-2v.043l.001.042 1.999-.085Zm7.961 6.287h-2v2h2v-2Zm0-6.287h-2 2ZM9.787 22.725v2h2v-2h-2Zm-5.352 0v2-2Zm-1.35.277-.786-1.84.786 1.84Zm-1.143.789 1.436 1.391-1.436-1.391Zm-.765 1.18 1.857.745-1.857-.744ZM.91 26.366h2-2Zm0 34.996h2-2Zm.269 1.393-1.857.745 1.857-.745Zm.764 1.18L.505 65.326l1.437-1.392Zm1.144.79-.787 1.838.787-1.839ZM4.435 65v-2 2Zm44.13 0 .001-2v2Zm1.35-.277.786 1.84-.786-1.84Zm1.908-1.97 1.856.744-1.856-.744Zm.268-1.393h-2 2Zm0-34.996h-2 2Zm-.269-1.393-1.856.745 1.856-.745Zm-.764-1.18 1.437-1.392-1.436 1.392ZM49.916 23l.786-1.838-.786 1.839Zm-1.35-.276v2h.001v-2ZM28.129 41.399l-.662-1.887-1.854.65.617 1.866 1.899-.629Zm3.462-4.958h2v-.024l-2 .024Zm-10.183 0-2-.024v.024h2ZM24.87 41.4l1.9.629.617-1.866-1.854-.65-.663 1.887Zm-3.31 10-1.898-.628 1.899.629Zm9.879 0 1.899-.627-1.9.628Zm-11.69-34.96c0-3.49 2.736-6.22 5.962-6.22v-4c-5.554 0-9.961 4.643-9.961 10.22h4Zm0 6.286v-6.287h-4v6.287h4Zm-2 2h16.19v-4h-16.19v4Zm13.925-8.202.267 6.287 3.996-.17-.266-6.286-3.997.169Zm-5.963-6.305c3.226 0 5.962 2.731 5.962 6.22h4c0-5.576-4.407-10.22-9.962-10.22v4Zm17.923 12.507v-6.287h-4v6.287h4Zm0-6.287C43.633 6.33 35.654-2 25.71-2v4c7.616 0 13.923 6.418 13.923 14.438h4ZM25.71-2C15.766-2 7.787 6.329 7.787 16.438h4C11.787 8.417 18.094 2 25.71 2v-4ZM7.787 16.438v6.287h4v-6.287h-4Zm-3.352 8.287h5.352v-4H4.435v4Zm-.563.116a1.43 1.43 0 0 1 .562-.116l.001-4c-.735 0-1.46.15-2.136.438l1.573 3.678Zm-.494.341a1.52 1.52 0 0 1 .494-.341l-1.573-3.678a5.52 5.52 0 0 0-1.794 1.236l2.873 2.783Zm-.344.534c.081-.203.2-.384.344-.534L.505 22.4A5.649 5.649 0 0 0-.68 24.227l3.713 1.49Zm-.125.648c0-.224.043-.444.125-.648L-.68 24.227a5.742 5.742 0 0 0-.412 2.138h4Zm0 34.997V26.365h-4v34.996h4Zm.125.648a1.741 1.741 0 0 1-.125-.648h-4c0 .732.14 1.458.412 2.138l3.713-1.49Zm.344.534a1.65 1.65 0 0 1-.344-.534l-3.713 1.49c.273.68.674 1.3 1.184 1.827l2.873-2.783Zm.494.341a1.52 1.52 0 0 1-.494-.341L.505 65.326c.51.527 1.12.948 1.794 1.236l1.573-3.678Zm.562.116a1.43 1.43 0 0 1-.562-.116l-1.573 3.678A5.43 5.43 0 0 0 4.435 67v-4Zm44.132 0H4.435v4h44.13v-4Zm.563-.116c-.18.077-.371.116-.563.116v4c.734 0 1.46-.15 2.135-.438l-1.572-3.678Zm.493-.341a1.52 1.52 0 0 1-.493.341l1.572 3.678a5.52 5.52 0 0 0 1.795-1.237l-2.874-2.782Zm.344-.534c-.081.203-.2.384-.344.534l2.874 2.782a5.647 5.647 0 0 0 1.183-1.828l-3.713-1.488Zm.125-.648c0 .224-.043.444-.125.648l3.713 1.488a5.74 5.74 0 0 0 .412-2.138l-4 .002Zm0-34.997V61.36h4V26.364h-4Zm-.125-.648c.082.203.125.424.125.648h4c0-.731-.14-1.457-.412-2.137l-3.713 1.489Zm-.344-.534c.145.15.263.33.344.534l3.713-1.49a5.65 5.65 0 0 0-1.184-1.827l-2.873 2.783Zm-.493-.341c.18.077.348.192.493.341l2.873-2.783a5.518 5.518 0 0 0-1.794-1.236L49.13 24.84Zm-.563-.116c.191 0 .382.039.563.116l1.572-3.678a5.428 5.428 0 0 0-2.136-.438l.001 4Zm-6.933 0h6.933v-4h-6.933v4ZM28.79 43.286c2.802-.982 4.8-3.675 4.8-6.845h-4c0 1.455-.91 2.645-2.124 3.071l1.324 3.774Zm4.8-6.869a7.342 7.342 0 0 0-2.086-5.05l-2.856 2.8c.586.598.931 1.422.942 2.299l4-.049Zm-2.086-5.05A7.01 7.01 0 0 0 26.5 29.25v4a3.01 3.01 0 0 1 2.15.916l2.855-2.8ZM26.5 29.25a7.01 7.01 0 0 0-5.006 2.115l2.856 2.801a3.01 3.01 0 0 1 2.15-.916v-4Zm-5.006 2.115a7.342 7.342 0 0 0-2.085 5.051l4 .049c.01-.877.355-1.701.941-2.299l-2.856-2.8Zm-2.085 5.075c0 3.17 1.998 5.863 4.8 6.845l1.324-3.774c-1.214-.426-2.125-1.616-2.125-3.07h-4Zm3.563 4.33-3.31 10 3.797 1.257 3.31-10-3.797-1.257Zm-3.31 10c-1.02 3.08 1.173 6.446 4.542 6.446v-4c-.462 0-.965-.525-.745-1.189l-3.797-1.256Zm4.542 6.446h4.593v-4h-4.593v4Zm4.593 0c3.367 0 5.56-3.367 4.54-6.445l-3.797 1.256c.22.665-.283 1.189-.744 1.189v4Zm4.54-6.446-3.31-10-3.797 1.257 3.31 10 3.797-1.257Z" mask="url(#a)"/></svg>