<svg xmlns="http://www.w3.org/2000/svg" width="227" height="183" fill="none" viewBox="20 10 207 173"><g filter="url(#a)"><path fill="#fff" d="M166.47 69.583c-.224 0-.446.012-.67.017l.001-.017c0-19.652-16.043-35.583-35.833-35.583-16.071 0-29.67 10.506-34.215 24.978a24.7 24.7 0 0 0-11.481-2.814c-13.63 0-24.68 10.973-24.68 24.508 0 2.205.298 4.34.848 6.373a20 20 0 0 0-8.094-1.712c-11.03 0-19.973 8.88-19.973 19.834S41.315 125 52.346 125H166.47c15.411 0 27.903-12.405 27.903-27.708s-12.492-27.709-27.903-27.709"/></g><path fill="#007BED" d="m138.523 123.668-12.226 12.416-10.9-10.864-.884-1.086-1.473 1.552-31.965 34.298c1.326 1.397 2.946 2.017 4.714 2.017h80.869c1.767 0 3.535-.776 4.713-2.017l-31.375-34.764z"/><path fill="#179CF1" d="M114.299 126.17 81.265 94.703c-.728.886-1.31 1.773-1.6 2.955a6.4 6.4 0 0 0-.292 1.772v56.138c0 1.773.728 3.546 1.892 4.728l31.579-32.501zM172.873 96.818c-.289-1.038-1.009-2.077-1.73-2.966l-32.141 31.739 1.442 1.483 30.699 33.222c1.297-1.335 1.874-2.966 1.874-4.746V98.894c.144-.593 0-1.335-.144-2.076"/><path fill="#DABDFF" d="m114.289 126.639.884.886 10.9 10.475 12.226-11.803L171 94.77c-1.179-1.18-2.799-1.77-4.419-1.77H85.713c-1.767 0-3.535.738-4.713 2.066z"/><path fill="#FF4AA2" d="M205.373 79h-55c-8.284 0-15 6.716-15 15s6.716 15 15 15h55c8.284 0 15-6.716 15-15s-6.716-15-15-15"/><path fill="#fff" d="m158.758 95.804.704 3.051h-2.994l.704-3.051-2.34 2.126-1.459-2.602 2.994-.9-2.994-.95 1.535-2.552 2.264 2.126-.704-3.052h2.994l-.729 3.102 2.365-2.176 1.484 2.601-3.095.926 3.095.925-1.535 2.552zM185.176 95.804l.704 3.051h-2.994l.704-3.051-2.34 2.126-1.459-2.602 2.994-.9-2.994-.95 1.535-2.552 2.264 2.126-.704-3.052h2.994l-.73 3.102 2.366-2.176L189 93.527l-3.095.926 3.095.925-1.535 2.552zM171.967 95.804l.704 3.051h-2.994l.704-3.051-2.34 2.126-1.459-2.602 2.994-.9-2.994-.95 1.535-2.552 2.264 2.126-.704-3.052h2.994l-.729 3.102 2.365-2.176 1.484 2.601-3.095.926 3.095.925-1.535 2.552zM198.386 95.804l.704 3.051h-2.994l.704-3.051-2.34 2.126-1.459-2.602 2.994-.9-2.994-.95 1.535-2.552 2.264 2.126-.704-3.052h2.994l-.73 3.102 2.366-2.176 1.484 2.601-3.095.926 3.095.925-1.535 2.552z"/><g filter="url(#b)"><circle cx="71.373" cy="129" r="20" fill="#fff"/></g><path fill="#FF4AA2" stroke="#FF4AA2" d="m81.33 127.687-8.622-8.642a1.85 1.85 0 0 0-2.624 0 1.86 1.86 0 0 0 0 2.626l5.458 5.471H61.728A1.857 1.857 0 0 0 59.873 129c0 1.025.83 1.858 1.855 1.858h13.814l-5.458 5.471a1.86 1.86 0 0 0 0 2.626c.724.727 1.9.727 2.624 0l8.622-8.642a1.86 1.86 0 0 0 0-2.626Z"/><defs><filter id="a" width="226" height="155" x=".373" y="0" color-interpolation-filters="sRGB" filterUnits="userSpaceOnUse"><feFlood flood-opacity="0" result="BackgroundImageFix"/><feColorMatrix in="SourceAlpha" result="hardAlpha" values="0 0 0 0 0 0 0 0 0 0 0 0 0 0 0 0 0 0 127 0"/><feOffset dy="-2"/><feGaussianBlur stdDeviation="16"/><feComposite in2="hardAlpha" operator="out"/><feColorMatrix values="0 0 0 0 0 0 0 0 0 0.564706 0 0 0 0 0.929412 0 0 0 0.12 0"/><feBlend in2="BackgroundImageFix" result="effect1_dropShadow_3587_53404"/><feBlend in="SourceGraphic" in2="effect1_dropShadow_3587_53404" result="shape"/></filter><filter id="b" width="104" height="104" x="19.373" y="79" color-interpolation-filters="sRGB" filterUnits="userSpaceOnUse"><feFlood flood-opacity="0" result="BackgroundImageFix"/><feColorMatrix in="SourceAlpha" result="hardAlpha" values="0 0 0 0 0 0 0 0 0 0 0 0 0 0 0 0 0 0 127 0"/><feOffset dy="2"/><feGaussianBlur stdDeviation="16"/><feComposite in2="hardAlpha" operator="out"/><feColorMatrix values="0 0 0 0 0 0 0 0 0 0.564706 0 0 0 0 0.929412 0 0 0 0.12 0"/><feBlend in2="BackgroundImageFix" result="effect1_dropShadow_3587_53404"/><feBlend in="SourceGraphic" in2="effect1_dropShadow_3587_53404" result="shape"/></filter></defs></svg>
