<svg width="39" height="41" viewBox="0 0 39 41" fill="none" xmlns="http://www.w3.org/2000/svg">
<rect x="10.396" y="2.33154" width="25.9844" height="36.4444" fill="white"/>
<path d="M33.8412 0H13.2065C11.8384 0 10.5262 0.539954 9.55879 1.50108C8.59135 2.4622 8.04785 3.76577 8.04785 5.125V35.875C8.04785 37.2342 8.59135 38.5378 9.55879 39.4989C10.5262 40.46 11.8384 41 13.2065 41H33.8412C35.2094 41 36.5215 40.46 37.4889 39.4989C38.4564 38.5378 38.9999 37.2342 38.9999 35.875V5.125C38.9999 3.76577 38.4564 2.4622 37.4889 1.50108C36.5215 0.539954 35.2094 0 33.8412 0V0ZM26.1032 38.4375H20.9445V35.875H26.1032V38.4375ZM33.8412 32.0312C33.8412 32.3711 33.7053 32.6969 33.4635 32.9372C33.2216 33.1775 32.8936 33.3125 32.5515 33.3125H14.4962C14.1541 33.3125 13.8261 33.1775 13.5843 32.9372C13.3424 32.6969 13.2065 32.3711 13.2065 32.0312V6.40625C13.2065 6.06644 13.3424 5.74055 13.5843 5.50027C13.8261 5.25999 14.1541 5.125 14.4962 5.125H32.5515C32.8936 5.125 33.2216 5.25999 33.4635 5.50027C33.7053 5.74055 33.8412 6.06644 33.8412 6.40625V32.0312Z" fill="#7542E5"/>
<path fill-rule="evenodd" clip-rule="evenodd" d="M2.30064 9.99414C1.03003 9.99414 0 11.0242 0 12.2948V21.6855C0 22.9561 1.03003 23.9862 2.30064 23.9862H17.2962L23.9371 29.5139C24.2189 29.7484 24.6375 29.4917 24.5563 29.1342L23.3862 23.9862H25.8673C27.1379 23.9862 28.1679 22.9561 28.1679 21.6855V12.2948C28.1679 11.0242 27.1379 9.99414 25.8673 9.99414H2.30064Z" fill="#054096"/>
<rect x="4.02393" y="13.9922" width="19.1139" height="1.99886" rx="0.99943" fill="white"/>
<rect x="4.02393" y="17.9897" width="14.084" height="1.99886" rx="0.99943" fill="white"/>
</svg>
