<svg width="249" height="182" viewBox="0 0 249 182" fill="none" xmlns="http://www.w3.org/2000/svg">
<g filter="url(#filter0_d_5165_12110)">
<path d="M118.087 56.6795C117.943 56.6795 117.8 56.6869 117.657 56.6902C117.657 56.6866 117.657 56.6831 117.657 56.6795C117.657 44.154 107.358 34 94.6531 34C84.3361 34 75.6058 40.696 72.6884 49.9203C70.4862 48.7768 67.9795 48.1265 65.3175 48.1265C56.5671 48.1265 49.4735 55.12 49.4735 63.747C49.4735 65.1524 49.6648 66.5132 50.0179 67.8087C48.4285 67.1126 46.6732 66.7179 44.8219 66.7179C37.7405 66.7179 32 72.3775 32 79.359C32 86.3404 37.7405 92 44.8219 92H118.087C127.98 92 136 84.0932 136 74.3397C136 64.5862 127.98 56.6795 118.087 56.6795Z" fill="white"/>
</g>
<path d="M150.026 46H95.9744C92.1225 46 89 48.9139 89 52.5085V135.492C89 139.086 92.1225 142 95.9744 142H150.026C153.877 142 157 139.086 157 135.492V52.5085C157 48.9139 153.877 46 150.026 46Z" fill="#0090ED"/>
<path d="M144.667 54H101.333C99.4924 54 98 55.477 98 57.299V130.701C98 132.523 99.4924 134 101.333 134H144.667C146.508 134 148 132.523 148 130.701V57.299C148 55.477 146.508 54 144.667 54Z" fill="white"/>
<path d="M130.333 46H115.667C114.194 46 113 47.4748 113 49.2941V56.7059C113 58.5252 114.194 60 115.667 60H130.333C131.806 60 133 58.5252 133 56.7059V49.2941C133 47.4748 131.806 46 130.333 46Z" fill="#0090ED"/>
  <g class="animate-grow-and-stay" style="transform-origin: 8rem 6rem;">
<path d="M120 75H65C56.7157 75 50 81.7157 50 90C50 98.2843 56.7157 105 65 105H120C128.284 105 135 98.2843 135 90C135 81.7157 128.284 75 120 75Z" fill="#1CC4A0" />
<path d="M110.632 84.6318L98 97.2637L110.632 109.896L123.264 97.2637L110.632 84.6318Z" fill="#1CC4A0"/>

<path class="animate-fade-out-in opacity-20 animation-delay-1200" d="M73.3847 91.8036L74.0891 94.8554H71.095L71.7994 91.8036L69.4594 93.9301L68 91.3282L70.9943 90.4277L68 89.4773L69.535 86.9256L71.7994 89.0518L71.095 86H74.0891L73.3595 89.102L75.7247 86.9256L77.2092 89.5272L74.1144 90.4528L77.2092 91.3784L75.6744 93.9301L73.3847 91.8036Z" fill="white"/>
<path class="animate-fade-out-in opacity-20 animation-delay-1000" d="M99.8027 91.8036L100.507 94.8554H97.513L98.2174 91.8036L95.8774 93.9301L94.418 91.3282L97.4122 90.4277L94.418 89.4773L95.9529 86.9256L98.2174 89.0518L97.513 86H100.507L99.7775 89.102L102.143 86.9256L103.627 89.5272L100.532 90.4528L103.627 91.3784L102.092 93.9301L99.8027 91.8036Z" fill="white"/>
<path  class="animate-fade-out-in opacity-20 animation-delay-1500" d="M86.5937 91.8036L87.2981 94.8554H84.304L85.0084 91.8036L82.6684 93.9301L81.209 91.3282L84.2032 90.4277L81.209 89.4773L82.744 86.9256L85.0084 89.0518L84.304 86H87.2981L86.5685 89.102L88.9337 86.9256L90.4182 89.5272L87.3233 90.4528L90.4182 91.3784L88.8834 93.9301L86.5937 91.8036Z" fill="white"/>
<path  class="animate-fade-out-in opacity-20 animation-delay-1200" d="M113.013 91.8036L113.717 94.8554H110.723L111.427 91.8036L109.087 93.9301L107.628 91.3282L110.622 90.4277L107.628 89.4773L109.163 86.9256L111.427 89.0518L110.723 86H113.717L112.987 89.102L115.353 86.9256L116.837 89.5272L113.742 90.4528L116.837 91.3784L115.302 93.9301L113.013 91.8036Z" fill="white"/>
  </g>

  <g class="animate-pulse-twinkle-first" style="transform-origin: 10.5rem 4rem;">
<path fill-rule="evenodd" clip-rule="evenodd" d="M176.55 63.9444C176.553 63.8348 176.517 63.7278 176.448 63.6425C176.379 63.5572 176.282 63.4991 176.174 63.4785C175.256 63.3123 172.719 62.7128 171.853 61.86C170.987 61.0071 170.401 58.4704 170.24 57.5385C170.22 57.4308 170.163 57.3337 170.078 57.2647C169.993 57.1957 169.886 57.1595 169.777 57.1625V63.9444H176.55Z" fill="#DABDFF"/>
<path fill-rule="evenodd" clip-rule="evenodd" d="M169.807 57.1624C169.697 57.1628 169.59 57.2022 169.507 57.2735C169.423 57.3448 169.367 57.4435 169.349 57.552C169.194 58.4648 168.624 60.9606 167.766 61.8843C166.908 62.808 164.357 63.3448 163.379 63.5192C163.271 63.5402 163.174 63.5984 163.105 63.6835C163.036 63.7687 162.999 63.8754 163 63.9851H169.812L169.807 57.1624Z" fill="#00B3F4"/>
<path fill-rule="evenodd" clip-rule="evenodd" d="M169.771 63.9445V70.7264C169.881 70.7231 169.987 70.6829 170.071 70.6121C170.155 70.5414 170.212 70.4444 170.234 70.3368C170.401 69.4076 171 66.8327 171.853 65.9772C172.706 65.1216 175.245 64.5576 176.163 64.4023C176.271 64.3849 176.369 64.3299 176.44 64.247C176.511 64.1642 176.55 64.059 176.55 63.95L169.771 63.9445Z" fill="#00B3F4"/>
<path fill-rule="evenodd" clip-rule="evenodd" d="M163 63.9445C162.996 64.0555 163.034 64.1639 163.106 64.2483C163.178 64.3326 163.28 64.3866 163.39 64.3996C164.316 64.5576 166.899 65.1243 167.766 65.9826C168.632 66.8409 169.194 69.3886 169.349 70.3586C169.365 70.4691 169.419 70.5703 169.503 70.6438C169.587 70.7173 169.695 70.7582 169.807 70.7591V63.9472L163 63.9445Z" fill="#007BED"/>
  </g>
  <g class="animate-pulse-twinkle-second" style="transform-origin: 11.5rem 3.2rem;">
<path fill-rule="evenodd" clip-rule="evenodd" d="M198.918 53.8797C198.921 53.6909 198.858 53.507 198.74 53.3597C198.622 53.2124 198.456 53.1111 198.271 53.0732C196.685 52.7723 192.307 51.7552 190.811 50.2838C189.316 48.8124 188.305 44.4341 188.019 42.8243C187.984 42.6385 187.884 42.4713 187.736 42.3527C187.589 42.2341 187.404 42.1719 187.215 42.1773V53.8797H198.918Z" fill="#DABDFF"/>
<path fill-rule="evenodd" clip-rule="evenodd" d="M187.279 42.177C187.089 42.1769 186.906 42.2444 186.762 42.3674C186.618 42.4905 186.523 42.6609 186.493 42.848C186.222 44.4248 185.241 48.7308 183.758 50.3256C182.274 51.9204 177.887 52.8442 176.19 53.1301C176.003 53.1655 175.835 53.2659 175.715 53.4135C175.595 53.5611 175.531 53.7463 175.534 53.9365H187.269L187.279 42.177Z" fill="#00B3F4"/>
<path fill-rule="evenodd" clip-rule="evenodd" d="M187.215 53.8794V65.5817C187.404 65.5761 187.586 65.5067 187.731 65.3849C187.875 65.2631 187.975 65.096 188.013 64.9107C188.299 63.3069 189.334 58.8654 190.805 57.388C192.277 55.9105 196.658 54.9386 198.247 54.6798C198.432 54.6481 198.6 54.5523 198.721 54.4093C198.843 54.2663 198.91 54.0851 198.912 53.8975L187.215 53.8794Z" fill="#00B3F4"/>
<path fill-rule="evenodd" clip-rule="evenodd" d="M175.534 53.8794C175.529 54.071 175.595 54.2577 175.719 54.4033C175.844 54.549 176.018 54.6432 176.208 54.6678C177.803 54.9386 182.262 55.9135 183.758 57.397C185.253 58.8805 186.222 63.2738 186.493 64.9498C186.519 65.14 186.613 65.3143 186.757 65.4409C186.902 65.5675 187.087 65.6378 187.279 65.6389V53.8794H175.534Z" fill="#007BED"/>
  </g>

  <g class="animate-pulse-twinkle-third" style="transform-origin: 11rem 2.5rem;">
<path fill-rule="evenodd" clip-rule="evenodd" d="M177.649 41.4659C177.65 41.3942 177.626 41.3243 177.581 41.2682C177.537 41.212 177.474 41.1731 177.404 41.158C176.796 41.049 175.126 40.6567 174.556 40.0926C173.987 39.5286 173.6 37.8611 173.488 37.2453C173.475 37.1753 173.437 37.1124 173.382 37.0675C173.326 37.0227 173.257 36.9988 173.186 37V41.4659H177.649Z" fill="#DABDFF"/>
<path fill-rule="evenodd" clip-rule="evenodd" d="M173.207 37.0026C173.135 37.0029 173.065 37.0287 173.01 37.0756C172.954 37.1224 172.917 37.1873 172.905 37.2588C172.804 37.8609 172.428 39.5039 171.864 40.1116C171.3 40.7192 169.619 41.0734 168.973 41.1851C168.902 41.1985 168.838 41.2364 168.793 41.2922C168.747 41.348 168.722 41.4181 168.723 41.4903H173.207V37.0026Z" fill="#00B3F4"/>
<path fill-rule="evenodd" clip-rule="evenodd" d="M173.186 41.4659V45.9345C173.258 45.9317 173.326 45.905 173.381 45.8586C173.436 45.8122 173.474 45.7487 173.488 45.6784C173.6 45.0653 173.992 43.3705 174.556 42.8011C175.12 42.2316 176.791 41.8665 177.396 41.7657C177.467 41.754 177.531 41.7174 177.577 41.6625C177.624 41.6076 177.649 41.5379 177.649 41.4659H173.186Z" fill="#00B3F4"/>
<path fill-rule="evenodd" clip-rule="evenodd" d="M168.723 41.4659C168.721 41.5395 168.746 41.6111 168.794 41.667C168.842 41.7228 168.909 41.759 168.981 41.7684C169.589 41.8692 171.292 42.2425 171.864 42.8092C172.436 43.376 172.804 45.0544 172.905 45.692C172.914 45.7665 172.949 45.8352 173.005 45.8854C173.061 45.9355 173.133 45.9637 173.208 45.9645V41.4659H168.723Z" fill="#007BED"/>
  </g>

<g filter="url(#filter1_d_5165_12110)">
<path d="M139.191 120.333C139.321 120.333 139.45 120.34 139.579 120.343C139.579 120.34 139.579 120.337 139.579 120.333C139.579 109.104 148.888 100 160.371 100C169.696 100 177.587 106.003 180.224 114.273C182.214 113.248 184.48 112.665 186.886 112.665C194.795 112.665 201.207 118.935 201.207 126.67C201.207 127.93 201.034 129.15 200.715 130.311C202.151 129.687 203.738 129.333 205.411 129.333C211.811 129.333 217 134.407 217 140.667C217 146.926 211.811 152 205.411 152H139.191C130.249 152 123 144.911 123 136.167C123 127.422 130.249 120.333 139.191 120.333Z" fill="white"/>
</g>
<defs>
<filter id="filter0_d_5165_12110" x="0" y="0" width="168" height="122" filterUnits="userSpaceOnUse" color-interpolation-filters="sRGB">
<feFlood flood-opacity="0" result="BackgroundImageFix"/>
<feColorMatrix in="SourceAlpha" type="matrix" values="0 0 0 0 0 0 0 0 0 0 0 0 0 0 0 0 0 0 127 0" result="hardAlpha"/>
<feOffset dy="-2"/>
<feGaussianBlur stdDeviation="16"/>
<feComposite in2="hardAlpha" operator="out"/>
<feColorMatrix type="matrix" values="0 0 0 0 0 0 0 0 0 0.564706 0 0 0 0 0.929412 0 0 0 0.16 0"/>
<feBlend mode="normal" in2="BackgroundImageFix" result="effect1_dropShadow_5165_12110"/>
<feBlend mode="normal" in="SourceGraphic" in2="effect1_dropShadow_5165_12110" result="shape"/>
</filter>
<filter id="filter1_d_5165_12110" x="91" y="66" width="158" height="116" filterUnits="userSpaceOnUse" color-interpolation-filters="sRGB">
<feFlood flood-opacity="0" result="BackgroundImageFix"/>
<feColorMatrix in="SourceAlpha" type="matrix" values="0 0 0 0 0 0 0 0 0 0 0 0 0 0 0 0 0 0 127 0" result="hardAlpha"/>
<feOffset dy="-2"/>
<feGaussianBlur stdDeviation="16"/>
<feComposite in2="hardAlpha" operator="out"/>
<feColorMatrix type="matrix" values="0 0 0 0 0 0 0 0 0 0.564706 0 0 0 0 0.929412 0 0 0 0.16 0"/>
<feBlend mode="normal" in2="BackgroundImageFix" result="effect1_dropShadow_5165_12110"/>
<feBlend mode="normal" in="SourceGraphic" in2="effect1_dropShadow_5165_12110" result="shape"/>
</filter>
</defs>
</svg>
