<svg width="39" height="41" fill="none" xmlns="http://www.w3.org/2000/svg"><rect width="39" height="33" rx="4" fill="#7542E5"/><rect x="4" y="5" width="31" height="23" rx="2" fill="#fff"/><rect x="2" y="35" width="34" height="6" rx="3" fill="#054096"/><path d="M15.994 11.228a.688.688 0 0 0-1.023 0l-4.802 5.154a.65.65 0 0 0 0 .874l4.802 5.154a.688.688 0 0 0 1.023 0 .815.815 0 0 0 0-1.098l-4.184-4.496L16 12.32a.814.814 0 0 0-.006-1.092ZM23.213 11.228a.688.688 0 0 1 1.023 0l4.802 5.154a.65.65 0 0 1 0 .874l-4.802 5.154a.688.688 0 0 1-1.023 0 .816.816 0 0 1 0-1.098l4.184-4.496-4.19-4.496a.814.814 0 0 1 .006-1.092Z" fill="#054096"/></svg>