<svg width="24" height="25" viewBox="0 0 24 25" fill="none" xmlns="http://www.w3.org/2000/svg">
<g clip-path="url(#clip0_5101_495)">
<path d="M12 0.5C10.4241 0.5 8.86371 0.810389 7.4078 1.41345C5.95189 2.0165 4.62902 2.90042 3.51472 4.01472C2.40042 5.12902 1.5165 6.45189 0.913446 7.9078C0.310389 9.36371 0 10.9241 0 12.5C0 14.0759 0.310389 15.6363 0.913446 17.0922C1.5165 18.5481 2.40042 19.871 3.51472 20.9853C4.62902 22.0996 5.95189 22.9835 7.4078 23.5866C8.86371 24.1896 10.4241 24.5 12 24.5C15.1826 24.5 18.2348 23.2357 20.4853 20.9853C22.7357 18.7348 24 15.6826 24 12.5C24 9.3174 22.7357 6.26516 20.4853 4.01472C18.2348 1.76428 15.1826 0.5 12 0.5ZM10.12 17.3L5.8928 13.0712C5.70545 12.8834 5.60037 12.6289 5.60067 12.3637C5.60097 12.0984 5.70663 11.8441 5.8944 11.6568C6.08217 11.4695 6.33668 11.3644 6.60193 11.3647C6.86718 11.365 7.12145 11.4706 7.3088 11.6584L10.6224 14.9736L16.6928 8.9016C16.8822 8.7218 17.1343 8.62306 17.3954 8.62645C17.6565 8.62984 17.906 8.73507 18.0907 8.91973C18.2753 9.10438 18.3806 9.35386 18.384 9.61498C18.3873 9.8761 18.2886 10.1282 18.1088 10.3176L11.1248 17.3H10.12Z" fill="#1CC5A0"/>
</g>
<defs>
<clipPath id="clip0_5101_495">
<rect width="24" height="24" fill="white" transform="translate(0 0.5)"/>
</clipPath>
</defs>
</svg>
