<svg width="418" height="74" viewBox="0 0 418 74" fill="none" xmlns="http://www.w3.org/2000/svg">
<path d="M208.558 4.59497V13.4294" stroke="black" stroke-width="2" stroke-linecap="round"/>
<path d="M184.705 13.4294L190.952 19.6763" stroke="black" stroke-width="2" stroke-linecap="round"/>
<path d="M233.777 13.4294L227.53 19.6763" stroke="black" stroke-width="2" stroke-linecap="round"/>
<path d="M241.246 36.3989L232.411 36.3989" stroke="black" stroke-width="2" stroke-linecap="round"/>
<path d="M176.754 36.3989L185.589 36.3989" stroke="black" stroke-width="2" stroke-linecap="round"/>
<path fill-rule="evenodd" clip-rule="evenodd" d="M204.036 60.6934H213.522C214.707 60.6951 215.853 60.2775 216.759 59.5146C217.666 58.7518 218.272 57.6929 218.472 56.5254L219.381 50.7342C221.367 49.1553 222.973 47.1509 224.081 44.8687C225.189 42.5866 225.77 40.0848 225.782 37.548C225.795 35.0111 225.237 32.5039 224.151 30.2112C223.065 27.9185 221.479 25.8988 219.508 24.301C215.52 21.0575 210.288 19.8052 205.155 20.8658C198.529 22.2479 193.267 27.6774 192.058 34.3746C190.926 40.642 193.214 46.7579 198.034 50.4775L199.086 56.5254C199.285 57.6931 199.892 58.7524 200.798 59.5154C201.704 60.2784 202.851 60.6957 204.036 60.6934ZM215.717 49.8128L214.663 55.8668L213.519 56.8284H204.036L202.892 55.8638L201.841 49.8159C201.698 48.9965 201.256 48.2513 200.592 47.7195C198.722 46.244 197.292 44.2841 196.458 42.0529C195.624 39.8216 195.417 37.4044 195.861 35.0641C196.792 29.8974 200.842 25.714 205.938 24.6565C206.874 24.4586 207.814 24.3659 208.742 24.3659C211.772 24.3553 214.713 25.3931 217.066 27.3033C220.148 29.8108 221.917 33.5305 221.917 37.5006C221.917 41.4706 220.111 45.1934 216.96 47.7226C216.299 48.2544 215.86 48.9965 215.717 49.8128ZM200.069 69.404C200.432 69.7664 200.923 69.97 201.436 69.97H216.123C216.635 69.97 217.127 69.7664 217.489 69.404C217.852 69.0416 218.055 68.5501 218.055 68.0375C218.055 67.525 217.852 67.0335 217.489 66.6711C217.127 66.3087 216.635 66.1051 216.123 66.1051H201.436C200.923 66.1051 200.432 66.3087 200.069 66.6711C199.707 67.0335 199.503 67.525 199.503 68.0375C199.503 68.5501 199.707 69.0416 200.069 69.404Z" fill="#7542E5"/>
<path d="M213.522 60.6934L213.524 59.6934H213.522V60.6934ZM204.036 60.6934V59.6934H204.034L204.036 60.6934ZM216.759 59.5146L216.115 58.7497H216.115L216.759 59.5146ZM218.472 56.5254L219.458 56.6944L219.46 56.6805L218.472 56.5254ZM219.381 50.7342L218.759 49.9514L218.454 50.194L218.394 50.5791L219.381 50.7342ZM224.081 44.8687L223.181 44.4321V44.4321L224.081 44.8687ZM225.782 37.548L224.782 37.5432L225.782 37.548ZM224.151 30.2112L225.055 29.7831V29.7831L224.151 30.2112ZM219.508 24.301L218.877 25.0768L218.878 25.0777L219.508 24.301ZM205.155 20.8658L204.953 19.8865L204.951 19.8869L205.155 20.8658ZM192.058 34.3746L193.042 34.5523L193.042 34.5522L192.058 34.3746ZM198.034 50.4775L199.02 50.3063L198.953 49.9233L198.645 49.6858L198.034 50.4775ZM199.086 56.5254L200.071 56.357L200.071 56.3542L199.086 56.5254ZM214.663 55.8668L215.307 56.6323L215.586 56.3977L215.648 56.0384L214.663 55.8668ZM215.717 49.8128L214.732 49.6411L214.732 49.6412L215.717 49.8128ZM213.519 56.8284V57.8284H213.884L214.163 57.5939L213.519 56.8284ZM204.036 56.8284L203.391 57.5929L203.671 57.8284H204.036V56.8284ZM202.892 55.8638L201.907 56.035L201.969 56.3936L202.247 56.6282L202.892 55.8638ZM201.841 49.8159L200.855 49.9869L200.855 49.9871L201.841 49.8159ZM200.592 47.7195L201.216 46.9386L201.211 46.9345L200.592 47.7195ZM196.458 42.0529L195.521 42.403L196.458 42.0529ZM195.861 35.0641L196.843 35.2503L196.845 35.2414L195.861 35.0641ZM205.938 24.6565L206.141 25.6357L206.144 25.6349L205.938 24.6565ZM208.742 24.3659V25.3659L208.745 25.3659L208.742 24.3659ZM217.066 27.3033L217.697 26.5275L217.696 26.5269L217.066 27.3033ZM216.96 47.7226L216.334 46.9428L216.334 46.9432L216.96 47.7226ZM200.069 69.404L199.362 70.1111L199.362 70.1111L200.069 69.404ZM217.489 69.404L218.196 70.1111H218.196L217.489 69.404ZM217.489 66.6711L216.782 67.3782L216.782 67.3782L217.489 66.6711ZM200.069 66.6711L200.776 67.3782H200.776L200.069 66.6711ZM213.522 59.6934H204.036V61.6934H213.522V59.6934ZM216.115 58.7497C215.39 59.3604 214.472 59.6948 213.524 59.6934L213.521 61.6934C214.941 61.6954 216.317 61.1946 217.404 60.2796L216.115 58.7497ZM217.487 56.3565C217.327 57.2911 216.841 58.1389 216.115 58.7497L217.404 60.2796C218.49 59.3646 219.218 58.0946 219.458 56.6944L217.487 56.3565ZM218.394 50.5791L217.484 56.3704L219.46 56.6805L220.369 50.8892L218.394 50.5791ZM223.181 44.4321C222.139 46.5796 220.628 48.4658 218.759 49.9514L220.004 51.5169C222.107 49.8449 223.807 47.7223 224.981 45.3054L223.181 44.4321ZM224.782 37.5432C224.771 39.9303 224.224 42.2845 223.181 44.4321L224.981 45.3054C226.154 42.8886 226.77 40.2393 226.782 37.5528L224.782 37.5432ZM223.247 30.6392C224.269 32.7967 224.794 35.156 224.782 37.5432L226.782 37.5528C226.795 34.8663 226.205 32.2111 225.055 29.7831L223.247 30.6392ZM218.878 25.0777C220.733 26.5812 222.226 28.4818 223.248 30.6392L225.055 29.7831C223.905 27.3552 222.225 25.2163 220.138 23.5242L218.878 25.0777ZM205.358 21.8451C210.203 20.844 215.127 22.0271 218.877 25.0768L220.139 23.5251C215.912 20.0879 210.373 18.7665 204.953 19.8865L205.358 21.8451ZM193.042 34.5522C194.179 28.253 199.135 23.143 205.359 21.8447L204.951 19.8869C197.923 21.3528 192.354 27.1018 191.074 34.1969L193.042 34.5522ZM198.645 49.6858C194.135 46.2051 191.973 40.4698 193.042 34.5523L191.074 34.1969C189.879 40.8142 192.294 47.3108 197.424 51.2692L198.645 49.6858ZM200.071 56.3542L199.02 50.3063L197.049 50.6488L198.101 56.6967L200.071 56.3542ZM201.442 58.7504C200.717 58.1397 200.231 57.2917 200.071 56.357L198.1 56.6938C198.339 58.0945 199.067 59.3651 200.154 60.2803L201.442 58.7504ZM204.034 59.6934C203.086 59.6953 202.168 59.3612 201.442 58.7504L200.154 60.2803C201.241 61.1955 202.617 61.6962 204.038 61.6934L204.034 59.6934ZM215.648 56.0384L216.703 49.9843L214.732 49.6412L213.678 55.6953L215.648 56.0384ZM214.163 57.5939L215.307 56.6323L214.02 55.1013L212.876 56.0629L214.163 57.5939ZM204.036 57.8284H213.519V55.8284H204.036V57.8284ZM202.247 56.6282L203.391 57.5929L204.681 56.064L203.537 55.0993L202.247 56.6282ZM200.855 49.9871L201.907 56.035L203.877 55.6925L202.826 49.6446L200.855 49.9871ZM199.967 48.5004C200.444 48.8823 200.756 49.4121 200.855 49.9869L202.826 49.6448C202.641 48.5809 202.068 47.6203 201.216 46.9386L199.967 48.5004ZM195.521 42.403C196.419 44.8055 197.959 46.9158 199.972 48.5046L201.211 46.9345C199.484 45.5722 198.164 43.7627 197.394 41.7027L195.521 42.403ZM194.878 34.8779C194.401 37.3978 194.623 40.0005 195.521 42.403L197.394 41.7027C196.624 39.6427 196.434 37.4111 196.843 35.2503L194.878 34.8779ZM205.734 23.6774C200.235 24.8187 195.879 29.3232 194.877 34.8868L196.845 35.2414C197.704 30.4716 201.449 26.6092 206.141 25.6357L205.734 23.6774ZM208.742 23.3659C207.748 23.3659 206.738 23.4653 205.731 23.6781L206.144 25.6349C207.01 25.452 207.881 25.3659 208.742 25.3659V23.3659ZM217.696 26.5269C215.164 24.4713 212 23.3545 208.738 23.3659L208.745 25.3659C211.545 25.3561 214.262 26.3148 216.435 28.0796L217.696 26.5269ZM222.917 37.5006C222.917 33.2295 221.013 29.2249 217.697 26.5275L216.435 28.079C219.284 30.3967 220.917 33.8315 220.917 37.5006H222.917ZM217.586 48.5024C220.969 45.7874 222.917 41.7802 222.917 37.5006H220.917C220.917 41.1611 219.254 44.5993 216.334 46.9428L217.586 48.5024ZM216.703 49.9844C216.802 49.4115 217.112 48.8841 217.587 48.5021L216.334 46.9432C215.486 47.6248 214.917 48.5815 214.732 49.6411L216.703 49.9844ZM201.436 68.97C201.189 68.97 200.951 68.8718 200.776 68.6969L199.362 70.1111C199.912 70.6611 200.658 70.97 201.436 70.97V68.97ZM216.123 68.97H201.436V70.97H216.123V68.97ZM216.782 68.6969C216.607 68.8718 216.37 68.97 216.123 68.97V70.97C216.9 70.97 217.646 70.6611 218.196 70.1111L216.782 68.6969ZM217.055 68.0375C217.055 68.2848 216.957 68.522 216.782 68.6969L218.196 70.1111C218.746 69.5612 219.055 68.8153 219.055 68.0375H217.055ZM216.782 67.3782C216.957 67.553 217.055 67.7902 217.055 68.0375H219.055C219.055 67.2598 218.746 66.5139 218.196 65.964L216.782 67.3782ZM216.123 67.1051C216.37 67.1051 216.607 67.2033 216.782 67.3782L218.196 65.964C217.646 65.414 216.9 65.1051 216.123 65.1051V67.1051ZM201.436 67.1051H216.123V65.1051H201.436V67.1051ZM200.776 67.3782C200.951 67.2033 201.189 67.1051 201.436 67.1051V65.1051C200.658 65.1051 199.912 65.414 199.362 65.964L200.776 67.3782ZM200.503 68.0375C200.503 67.7902 200.602 67.553 200.776 67.3782L199.362 65.964C198.812 66.5139 198.503 67.2598 198.503 68.0375H200.503ZM200.776 68.6969C200.602 68.522 200.503 68.2848 200.503 68.0375H198.503C198.503 68.8153 198.812 69.5612 199.362 70.1111L200.776 68.6969Z" fill="black"/>
<path d="M223.374 36.3736C223.374 39.812 221.166 47.4167 217.632 49.1836C217.19 57.1346 213.655 59.6241 208.356 58.9015C204.348 58.9015 201.288 58.9015 199.963 49.6253C198.278 46.5138 194.662 42.5577 192.896 39.0239C192.896 31.4613 200.793 22.6802 208.356 22.6802C215.918 22.6802 223.374 28.8109 223.374 36.3736Z" fill="#7542E5"/>
</svg>
