<svg width="416" height="86" viewBox="0 0 416 86" fill="none" xmlns="http://www.w3.org/2000/svg"><path fill="currentColor" fill-rule="evenodd" d="M43.035 14.517a5.515 5.515 0 0 0-5.517 5.513 5.515 5.515 0 0 0 5.517 5.513 5.515 5.515 0 0 0 5.517-5.513 5.515 5.515 0 0 0-5.517-5.513M30.16 20.03c0-7.104 5.764-12.863 12.874-12.863s12.873 5.759 12.873 12.863-5.764 12.863-12.873 12.863c-2.217 0-4.304-.56-6.125-1.546l-5.538 5.533c.418.771.76 1.59 1.014 2.444h21.297c1.582-5.313 6.508-9.187 12.34-9.187 7.11 0 12.874 5.759 12.874 12.863s-5.764 12.863-12.874 12.863c-2.217 0-4.303-.56-6.125-1.546l-5.537 5.533a12.8 12.8 0 0 1 1.547 6.12c0 7.104-5.764 12.863-12.873 12.863-7.11 0-12.874-5.759-12.874-12.863s5.764-12.863 12.874-12.863c2.217 0 4.303.56 6.124 1.546l5.538-5.533c-.418-.771-.76-1.59-1.015-2.445H32.386c-1.582 5.314-6.508 9.188-12.34 9.188-7.11 0-12.874-5.759-12.874-12.863s5.764-12.863 12.874-12.863c2.217 0 4.303.56 6.124 1.546l5.538-5.534a12.8 12.8 0 0 1-1.547-6.12m7.356 45.94a5.515 5.515 0 0 1 5.517-5.513 5.515 5.515 0 0 1 5.518 5.513 5.515 5.515 0 0 1-5.517 5.513 5.515 5.515 0 0 1-5.517-5.513M20.047 37.487A5.515 5.515 0 0 0 14.529 43a5.515 5.515 0 0 0 5.517 5.513A5.515 5.515 0 0 0 25.563 43a5.515 5.515 0 0 0-5.517-5.513M60.506 43a5.515 5.515 0 0 1 5.517-5.513A5.515 5.515 0 0 1 71.54 43a5.515 5.515 0 0 1-5.517 5.513A5.515 5.515 0 0 1 60.506 43" clip-rule="evenodd"/><path fill="currentColor" d="M104.717 57.333h6.724v-24.67l12.158 22.52 12.211-22.52v24.67h6.67V20.407h-6.67l-12.211 22.521-12.158-22.52h-6.724zm59.188.645c8.069 0 14.9-6.665 14.9-14.566s-6.831-14.512-14.9-14.512-14.901 6.61-14.901 14.512c0 7.901 6.832 14.566 14.901 14.566m0-5.59c-4.626 0-8.5-4.085-8.5-8.976 0-4.837 3.874-8.922 8.5-8.922 4.572 0 8.445 4.085 8.445 8.922 0 4.891-3.873 8.976-8.445 8.976m19.463 4.945h23.507v-5.75h-14.954l14.793-17.255.054-4.783h-23.077v5.75h14.416L183.368 52.55zm32.779-31.98c2.045 0 3.712-1.775 3.712-3.763 0-1.99-1.667-3.71-3.712-3.71-2.097 0-3.765 1.72-3.765 3.71 0 1.988 1.668 3.762 3.765 3.762m-3.335 31.98h6.563V29.545h-6.563zm13.817 0h6.562v-37.57h-6.562zm13.815 0h6.563v-37.57h-6.563zm25.92-28.433c-3.497 0-7.155.967-11.082 2.902l2.26 4.569c2.367-1.183 4.895-2.096 7.531-2.096 5.056 0 6.831 3.117 6.831 6.342v.753c-2.528-.968-5.271-1.505-7.8-1.505-6.24 0-11.35 3.762-11.35 9.245 0 5.375 4.465 8.868 10.382 8.868 3.228 0 6.724-1.397 8.768-3.977v3.332h6.402V40.617c0-7.041-4.573-11.717-11.942-11.717m-1.775 24.295c-3.12 0-5.434-1.667-5.434-4.3s2.636-4.462 5.918-4.462c2.474 0 4.787.377 6.831 1.075v3.118c-.753 2.956-4.142 4.569-7.315 4.569m64.406-32.788-11.727 28.004-11.726-28.004h-7.424l15.439 36.926h7.477l15.439-36.926zm12.369 36.926h6.724V44.917h9.36c7.908 0 13.825-5.052 13.825-12.255 0-7.202-5.917-12.255-13.825-12.255h-16.084zm6.724-18.597V26.588h8.607c4.572 0 7.746 2.312 7.746 6.074s-3.174 6.074-7.746 6.074zm28.959 18.597h6.724v-25.96l19.527 25.96h6.67V20.407h-6.67v25.961l-19.527-25.96h-6.724z"/></svg>
