<svg width="32" height="32" viewBox="0 0 32 32" fill="none" xmlns="http://www.w3.org/2000/svg">
    <path d="M29.2 8C29.2 6.65 29.15 5.15 29.15 3.45C29.15 2.75 28.65 2.15 27.95 2L16.4 0H15.9L4.34998 2C3.64998 2.15 3.09998 2.75 3.14998 3.45C3.14998 5.15 3.14998 6.65 3.09998 8C3.04998 10.4 3.04998 12.15 3.14998 13.2C3.79998 20.1 5.24998 23.3 7.74998 26.7C9.74998 29.4 12.65 31.25 15.9 31.95C16 31.95 16.1 32 16.2 32C16.3 32 16.4 32 16.5 31.95C19.75 31.25 22.65 29.4 24.65 26.7C27.15 23.3 28.6 20.15 29.2 13.2C29.25 12.1 29.25 10.4 29.2 8Z"
          fill="#7542E5"/>
    <path d="M15.9 0.05L4.34998 2.05C3.64998 2.15 3.14998 2.75 3.14998 3.45C3.14998 5.15 3.09998 6.65 3.09998 8C3.04998 10.4 3.04998 12.15 3.14998 13.2C3.79998 20.15 5.24998 23.3 7.69998 26.7C9.69998 29.4 12.6 31.25 15.85 31.95C15.95 31.95 16.05 32 16.15 32V0C16.05 0 16 0 15.9 0.05Z"
          fill="#7542E5"/>
    <path d="M15.95 2.2502L6.24996 3.9002C5.64996 4.0002 5.24996 4.5002 5.24996 5.1002C5.24996 6.5502 5.24996 7.8002 5.19996 8.9002C5.14996 10.9002 5.14996 12.4002 5.24996 13.2502C5.74996 19.0502 6.99996 21.7502 9.04996 24.6002C10.7 26.8502 13.15 28.4502 15.9 29.0002H16.15V2.2002C16.1 2.2002 16 2.2002 15.95 2.2502Z"
          fill="#7542E5"/>
    <path d="M27.1 8.9C27.1 7.8 27.05 6.5 27.05 5.1C27.05 4.5 26.65 4 26.05 3.9L16.35 2.25H16.15V29.05H16.4C19.15 28.45 21.6 26.9 23.25 24.6C25.35 21.75 26.55 19.1 27.1 13.25C27.15 12.4 27.15 10.95 27.1 8.9Z"
          fill="#0090ED"/>
    <path d="M29.2 8C29.2 6.65 29.15 5.15 29.15 3.45C29.15 2.75 28.65 2.15 27.95 2L16.4 0H15.9L4.34998 2C3.64998 2.15 3.09998 2.75 3.14998 3.45C3.14998 5.15 3.14998 6.65 3.09998 8C3.04998 10.4 3.04998 12.15 3.14998 13.2C3.79998 20.1 5.24998 23.3 7.74998 26.7C9.74998 29.4 12.65 31.25 15.9 31.95C16 31.95 16.1 32 16.2 32C16.3 32 16.4 32 16.5 31.95C19.75 31.25 22.65 29.4 24.65 26.7C27.15 23.3 28.6 20.15 29.2 13.2C29.25 12.1 29.25 10.4 29.2 8Z"
          fill="#7542E5"/>
    <path d="M15.9 0.05L4.34998 2.05C3.64998 2.15 3.14998 2.75 3.14998 3.45C3.14998 5.15 3.09998 6.65 3.09998 8C3.04998 10.4 3.04998 12.15 3.14998 13.2C3.79998 20.15 5.24998 23.3 7.69998 26.7C9.69998 29.4 12.6 31.25 15.85 31.95C15.95 31.95 16.05 32 16.15 32V0C16.05 0 16 0 15.9 0.05Z"
          fill="#7542E5"/>
    <path d="M15.95 2.2502L6.24996 3.9002C5.64996 4.0002 5.24996 4.5002 5.24996 5.1002C5.24996 6.5502 5.24996 7.8002 5.19996 8.9002C5.14996 10.9002 5.14996 12.4002 5.24996 13.2502C5.74996 19.0502 6.99996 21.7502 9.04996 24.6002C10.7 26.8502 13.15 28.4502 15.9 29.0002H16.15V2.2002C16.1 2.2002 16 2.2002 15.95 2.2502Z"
          fill="#7542E5"/>
    <path d="M27.1 8.9C27.1 7.8 27.05 6.5 27.05 5.1C27.05 4.5 26.65 4 26.05 3.9L16.35 2.25H16.15V29.05H16.4C19.15 28.45 21.6 26.9 23.25 24.6C25.35 21.75 26.55 19.1 27.1 13.25C27.15 12.4 27.15 10.95 27.1 8.9Z"
          fill="#0090ED"/>
</svg>
