<svg width="12" height="7" viewBox="0 0 12 7" fill="none" xmlns="http://www.w3.org/2000/svg">
<path d="M6.35201 6.99891L11.818 1.53391C11.8762 1.47594 11.9224 1.40702 11.9539 1.33113C11.9854 1.25524 12.0016 1.17387 12.0015 1.0917C12.0014 1.00954 11.985 0.928201 11.9534 0.852379C11.9217 0.776558 11.8754 0.707747 11.817 0.649909C11.6994 0.533089 11.5403 0.467529 11.3745 0.467529C11.2087 0.467529 11.0497 0.533089 10.932 0.649909L5.99801 5.58491L1.06801 0.650908C0.949644 0.53853 0.79207 0.476823 0.628869 0.47894C0.465668 0.481056 0.309748 0.546828 0.194338 0.662238C0.0789275 0.777648 0.0131553 0.933569 0.011039 1.09677C0.0089227 1.25997 0.0706296 1.41754 0.183008 1.53591L5.64801 6.99991L6.35201 6.99891Z" fill="#15141A"/>
</svg>
