<svg height="22" viewBox="0 0 24 22" width="24" xmlns="http://www.w3.org/2000/svg"><path d="m8.95819.00661.13272-.00661h5.81819c.4458 0 .8621.2228 1.1094.59373l1.5433 2.31471 3.1655.00065c1.7491 0 3.1778 1.37224 3.2682 3.09892l.0045.17381v12.60608c0 1.8075-1.4653 3.2727-3.2727 3.2727h-17.45457c-1.80748 0-3.27273-1.4652-3.27273-3.2727v-12.60608c0-1.80748 1.46525-3.27273 3.27273-3.27273l3.1646-.00065 1.54418-2.31471c.22256-.33384.58202-.54769.97668-.58712zm5.23651 2.66006 1.5444 2.31535c.2473.37094.6636.59374 1.1094.59374h3.8788c.3347 0 .606.27134.606.60606v12.60608c0 .3347-.2713.606-.606.606h-17.45457c-.33472 0-.60606-.2713-.60606-.606v-12.60608c0-.33472.27134-.60606.60606-.60606h3.87879l.13271-.00661c.39466-.03943.75413-.25329.97669-.58713l1.54352-2.31535zm-2.1948 3.15151c-3.41409 0-6.18178 2.76769-6.18178 6.18182 0 3.4141 2.76769 6.1818 6.18178 6.1818 3.4142 0 6.1819-2.7677 6.1819-6.1818 0-3.41413-2.7677-6.18182-6.1819-6.18182zm0 2.66666c1.9414 0 3.5152 1.57376 3.5152 3.51516s-1.5738 3.5151-3.5152 3.5151c-1.9413 0-3.51512-1.5737-3.51512-3.5151s1.57382-3.51516 3.51512-3.51516z" fill-rule="evenodd"/></svg>
