<svg viewBox="0 0 24 24" xmlns="http://www.w3.org/2000/svg"><g stroke-width="2" fill="none" fill-rule="evenodd" stroke-linecap="round" stroke-linejoin="round"><path d="M5.14 16.76C2.7 15 1 12.63 1 11.54c0-1.91 5.27-7.66 10.54-7.66a10.27 10.27 0 015.09 1.56m3.53 2.85a6.35 6.35 0 011.92 3.25c0 1.92-5.27 7.67-10.54 7.67a8.51 8.51 0 01-2.44-.38"/><path d="M12.35 15.29a3.84 3.84 0 002.86-2.62m-1.56-4.33a3.84 3.84 0 00-5.35 5.25"/><path d="M14.08 8.9a.9.9 0 00-.62-.23 1 1 0 00-1 1 1 1 0 00.24.63M22.08 1L1 22.08"/></g></svg>