<svg xmlns="http://www.w3.org/2000/svg" viewBox="0 0 500 500" style="enable-background:new 0 0 500 500" xml:space="preserve"><path d="M-4-4h508v508H-4z"/><path d="M428.2 314h29.1v47.5h-91.7V238.4c0-37.8-12.6-52.4-37.3-52.4-30.1 0-42.2 21.3-42.2 51.9V314h29.1v47.5h-91.7V238.4c0-37.8-12.6-52.4-37.4-52.4-30.1 0-42.2 21.3-42.2 51.9V314h41.7v47.5H52.3V314h29.1V190.3H52.3v-47.5H144v33c13.1-23.3 35.9-37.3 66.4-37.3 31.5 0 60.6 15 71.3 47 12.1-29.1 36.9-47 71.3-47 39.3 0 75.2 23.8 75.2 75.7V314z" style="fill:#fff"/></svg>
