<svg xmlns="http://www.w3.org/2000/svg" width="40" height="40" fill="none"><g filter="url(#a)"><path fill="#D52B1E" d="M10.667 10.333A2.667 2.667 0 0 0 8 13v12a2.667 2.667 0 0 0 2.667 2.667h4V10.333h-4Zm18.666 0h-4v17.334h4A2.667 2.667 0 0 0 32 25V13a2.667 2.667 0 0 0-2.667-2.667Z"/><path fill="#EEE" d="M14.667 10.333h10.666v17.334H14.667V10.333Z"/><path fill="#D52B1E" d="M20.41 21.742c.799.093 1.515.176 2.313.267l-.204-.668a.306.306 0 0 1 .106-.317l2.32-1.89-.48-.225c-.212-.076-.154-.195-.077-.482l.354-1.29-1.347.284c-.132.02-.219-.063-.239-.143l-.174-.607-1.065 1.196c-.152.192-.458.192-.363-.251l.455-2.423-.611.317c-.171.096-.343.112-.438-.06l-.843-1.577v.04-.04l-.844 1.578c-.096.171-.267.155-.438.059l-.611-.317.455 2.423c.096.443-.211.443-.362.25l-1.066-1.195-.173.608c-.02.08-.108.163-.24.143l-1.347-.285.354 1.291c.076.287.134.406-.077.481l-.48.226 2.32 1.89c.091.071.138.2.105.317l-.204.668 2.314-.267c.07 0 .117.039.116.12l-.142 2.47h.637l-.142-2.47c.001-.082.047-.121.118-.121Z"/></g><defs><filter id="a" width="40" height="40" x="0" y="0" color-interpolation-filters="sRGB" filterUnits="userSpaceOnUse"><feFlood flood-opacity="0" result="BackgroundImageFix"/><feColorMatrix in="SourceAlpha" result="hardAlpha" values="0 0 0 0 0 0 0 0 0 0 0 0 0 0 0 0 0 0 127 0"/><feOffset dy="1"/><feGaussianBlur stdDeviation="1"/><feColorMatrix values="0 0 0 0 0.227451 0 0 0 0 0.223529 0 0 0 0 0.266667 0 0 0 0.2 0"/><feBlend in2="BackgroundImageFix" result="effect1_dropShadow_6288_15828"/><feBlend in="SourceGraphic" in2="effect1_dropShadow_6288_15828" result="shape"/></filter></defs></svg>