<svg width="24" height="18" viewBox="0 0 24 18" fill="none" xmlns="http://www.w3.org/2000/svg">
<path d="M2.66667 0C1.194 0 0 1.194 0 2.66667V14.6667C0 16.1393 1.194 17.3333 2.66667 17.3333H6.66667V0H2.66667ZM21.3333 0H17.3333V17.3333H21.3333C22.806 17.3333 24 16.1393 24 14.6667V2.66667C24 1.194 22.806 0 21.3333 0Z" fill="#D52B1E"/>
<path d="M6.66663 0H17.3333V17.3333H6.66663V0Z" fill="white"/>
<path d="M12.41 11.4087C13.2087 11.5014 13.9247 11.5847 14.7227 11.676L14.5194 11.008C14.4867 10.8907 14.5334 10.7627 14.6254 10.6907L16.9447 8.80137L16.4647 8.57537C16.2534 8.50004 16.3114 8.38071 16.388 8.09404L16.742 6.80337L15.3947 7.08804C15.2634 7.10804 15.176 7.02471 15.156 6.94471L14.982 6.33737L13.9167 7.53337C13.7654 7.72537 13.4587 7.72537 13.554 7.28271L14.0094 4.86004L13.398 5.17671C13.2267 5.27271 13.0554 5.28871 12.96 5.11737L12.1167 3.54004V3.57937V3.54004L11.2734 5.11737C11.1774 5.28871 11.006 5.27271 10.8347 5.17671L10.224 4.86004L10.6794 7.28271C10.7754 7.72537 10.468 7.72537 10.3167 7.53337L9.25136 6.33804L9.07802 6.94537C9.05802 7.02537 8.97002 7.10871 8.83869 7.08871L7.49136 6.80404L7.84536 8.09471C7.92069 8.38137 7.97936 8.50071 7.76803 8.57604L7.28802 8.80204L9.60736 10.6914C9.69936 10.7627 9.74602 10.8914 9.71269 11.0087L9.50936 11.6767L11.8227 11.4094C11.8934 11.4094 11.94 11.4487 11.9394 11.53L11.7967 13.9994H12.434L12.292 11.53C12.2934 11.448 12.3394 11.4087 12.41 11.4087V11.4087Z" fill="#D52B1E"/>
</svg>
