<svg xmlns="http://www.w3.org/2000/svg" width="24" height="18" fill="none"><path fill="#D52B1E" d="M2.667 0A2.667 2.667 0 0 0 0 2.667v12a2.667 2.667 0 0 0 2.667 2.666h4V0h-4Zm18.666 0H6v17.333h15.333A2.667 2.667 0 0 0 24 14.667v-12A2.667 2.667 0 0 0 21.333 0Z"/><path fill="#fff" d="M0 2h24v1.272H0V2Zm0 2.545h24v1.272H0V4.545Zm0 2.544h24v1.272H0V7.09Zm0 2.55h24v1.272H0V9.639Zm0 2.544h24v1.272H0v-1.272Zm0 2.545h24V15a1 1 0 0 1-1 1H1a1 1 0 0 1-1-1v-.272Z"/><path fill="#2E52B2" d="M0 2a2 2 0 0 1 2-2h11v10H0V2Z"/><path fill="#fff" d="m2.164 7.155-.215-.69-.238.69H1l.577.415-.216.69.588-.426.57.426-.22-.69.587-.415h-.722Zm3.034 0-.22-.69-.227.69H4.04l.576.415-.215.69.576-.426.583.426-.216-.69.577-.415h-.723Zm3.046 0-.232-.69-.216.69H7.07l.592.415-.226.69.577-.426.593.426-.227-.69.577-.415h-.711Zm3.028 0-.215-.69-.226.69h-.717l.582.415-.216.69.577-.426.582.426-.232-.69.593-.415h-.728ZM4.977 3.727l-.226.69H4.04l.576.426-.215.679.576-.42.583.42-.216-.68.577-.425h-.723l-.22-.69Zm-3.028 0-.238.69H1l.577.426-.216.679.588-.42.57.42-.22-.68.587-.425h-.722l-.215-.69Zm6.063 0-.216.69H7.07l.592.426-.226.679.577-.42.593.42-.227-.68.577-.425h-.711l-.232-.69Zm3.045 0-.226.69h-.717l.582.426-.216.679.577-.42.582.42-.232-.68.593-.425h-.728l-.215-.69ZM1.949 1l-.238.68H1l.577.425-.216.684.588-.425.57.425-.22-.684.587-.426h-.722L1.95 1Zm3.028 0-.226.68H4.04l.576.425-.215.684.576-.425.583.425-.216-.684.577-.426h-.723L4.978 1Zm3.035 0-.216.68H7.07l.592.425-.226.684.577-.425.593.425-.227-.684.577-.426h-.711L8.012 1Zm3.045 0-.226.68h-.717l.582.425-.216.684.577-.425.582.425-.232-.684.593-.426h-.728L11.057 1Z"/></svg>