<svg width="24" height="18" viewBox="0 0 24 18" fill="none" xmlns="http://www.w3.org/2000/svg">
<path d="M2.66667 0C1.194 0 0 1.194 0 2.66667V14.6667C0 16.1393 1.194 17.3333 2.66667 17.3333H6.66667V0H2.66667ZM21.3333 0H6V17.3333H21.3333C22.806 17.3333 24 16.1393 24 14.6667V2.66667C24 1.194 22.806 0 21.3333 0Z" fill="#D52B1E"/>
<path d="M0 2H24V3.27229H0V2ZM0 4.54457H24V5.81686H0V4.54457ZM0 7.08915H24V8.36144H0V7.08915ZM0 9.63856H24V10.9109H0V9.63856ZM0 12.1831H24V13.4554H0V12.1831ZM0 14.7277H24V15C24 15.5523 23.5523 16 23 16H1C0.447716 16 0 15.5523 0 15V14.7277Z" fill="white"/>
<path d="M0 2C0 0.89543 0.895431 0 2 0H13V10H0V2Z" fill="#2E52B2"/>
<path d="M2.16414 7.15483L1.94855 6.46497L1.71142 7.15483H1L1.57668 7.56982L1.3611 8.25968L1.94855 7.83391L2.51984 8.25968L2.29887 7.56982L2.88633 7.15483H2.16414ZM5.19843 7.15483L4.97746 6.46497L4.7511 7.15483H4.03969L4.61636 7.56982L4.40078 8.25968L4.97746 7.83391L5.55953 8.25968L5.34395 7.56982L5.92063 7.15483H5.19843ZM8.24351 7.15483L8.01176 6.46497L7.79618 7.15483H7.06859L7.66144 7.56982L7.43508 8.25968L8.01176 7.83391L8.60461 8.25968L8.37825 7.56982L8.95492 7.15483H8.24351ZM11.2724 7.15483L11.0568 6.46497L10.8305 7.15483H10.1137L10.6957 7.56982L10.4802 8.25968L11.0568 7.83391L11.6389 8.25968L11.4072 7.56982L12 7.15483H11.2724ZM4.97746 3.72709L4.7511 4.41695H4.03969L4.61636 4.84272L4.40078 5.5218L4.97746 5.10142L5.55953 5.5218L5.34395 4.84272L5.92063 4.41695H5.19843L4.97746 3.72709ZM1.94855 3.72709L1.71142 4.41695H1L1.57668 4.84272L1.3611 5.5218L1.94855 5.10142L2.51984 5.5218L2.29887 4.84272L2.88633 4.41695H2.16414L1.94855 3.72709ZM8.01176 3.72709L7.79618 4.41695H7.06859L7.66144 4.84272L7.43508 5.5218L8.01176 5.10142L8.60461 5.5218L8.37825 4.84272L8.95492 4.41695H8.24351L8.01176 3.72709ZM11.0568 3.72709L10.8305 4.41695H10.1137L10.6957 4.84272L10.4802 5.5218L11.0568 5.10142L11.6389 5.5218L11.4072 4.84272L12 4.41695H11.2724L11.0568 3.72709ZM1.94855 1L1.71142 1.67908H1L1.57668 2.10485L1.3611 2.78932L1.94855 2.36355L2.51984 2.78932L2.29887 2.10485L2.88633 1.67908H2.16414L1.94855 1ZM4.97746 1L4.7511 1.67908H4.03969L4.61636 2.10485L4.40078 2.78932L4.97746 2.36355L5.55953 2.78932L5.34395 2.10485L5.92063 1.67908H5.19843L4.97746 1ZM8.01176 1L7.79618 1.67908H7.06859L7.66144 2.10485L7.43508 2.78932L8.01176 2.36355L8.60461 2.78932L8.37825 2.10485L8.95492 1.67908H8.24351L8.01176 1ZM11.0568 1L10.8305 1.67908H10.1137L10.6957 2.10485L10.4802 2.78932L11.0568 2.36355L11.6389 2.78932L11.4072 2.10485L12 1.67908H11.2724L11.0568 1Z" fill="white"/>
</svg>
