<svg xmlns="http://www.w3.org/2000/svg" width="39" height="41" fill="none"><rect width="39" height="33" fill="#7542E5" rx="4"/><rect width="31" height="23" x="4" y="5" fill="#fff" rx="2"/><rect width="34" height="6" x="2" y="35" fill="#054096" rx="3"/><path fill="#054096" d="M15.994 11.228a.688.688 0 0 0-1.023 0l-4.802 5.154a.65.65 0 0 0 0 .874l4.802 5.154a.688.688 0 0 0 1.023 0 .815.815 0 0 0 0-1.098l-4.184-4.496L16 12.32a.814.814 0 0 0-.006-1.092ZM23.213 11.228a.688.688 0 0 1 1.023 0l4.802 5.154a.65.65 0 0 1 0 .874l-4.802 5.154a.688.688 0 0 1-1.023 0 .816.816 0 0 1 0-1.098l4.184-4.496-4.19-4.496a.814.814 0 0 1 .006-1.092Z"/></svg>