<svg xmlns="http://www.w3.org/2000/svg" width="32" height="32" fill="none"><path fill="#7542E5" d="M29.2 8c0-1.35-.05-2.85-.05-4.55 0-.7-.5-1.3-1.2-1.45L16.4 0h-.5L4.35 2c-.7.15-1.25.75-1.2 1.45 0 1.7 0 3.2-.05 4.55-.05 2.4-.05 4.15.05 5.2.65 6.9 2.1 10.1 4.6 13.5 2 2.7 4.9 4.55 8.15 5.25.1 0 .2.05.3.05.1 0 .2 0 .3-.05 3.25-.7 6.15-2.55 8.15-5.25 2.5-3.4 3.95-6.55 4.55-13.5.05-1.1.05-2.8 0-5.2Z"/><path fill="#7542E5" d="m15.9.05-11.55 2c-.7.1-1.2.7-1.2 1.4 0 1.7-.05 3.2-.05 4.55-.05 2.4-.05 4.15.05 5.2.65 6.95 2.1 10.1 4.55 13.5 2 2.7 4.9 4.55 8.15 5.25.1 0 .2.05.3.05V0c-.1 0-.15 0-.25.05Z"/><path fill="#7542E5" d="M15.95 2.25 6.25 3.9c-.6.1-1 .6-1 1.2 0 1.45 0 2.7-.05 3.8-.05 2-.05 3.5.05 4.35.5 5.8 1.75 8.5 3.8 11.35 1.65 2.25 4.1 3.85 6.85 4.4h.25V2.2c-.05 0-.15 0-.2.05Z"/><path fill="#0090ED" d="M27.1 8.9c0-1.1-.05-2.4-.05-3.8 0-.6-.4-1.1-1-1.2l-9.7-1.65h-.2v26.8h.25c2.75-.6 5.2-2.15 6.85-4.45 2.1-2.85 3.3-5.5 3.85-11.35.05-.85.05-2.3 0-4.35Z"/><path fill="#7542E5" d="M29.2 8c0-1.35-.05-2.85-.05-4.55 0-.7-.5-1.3-1.2-1.45L16.4 0h-.5L4.35 2c-.7.15-1.25.75-1.2 1.45 0 1.7 0 3.2-.05 4.55-.05 2.4-.05 4.15.05 5.2.65 6.9 2.1 10.1 4.6 13.5 2 2.7 4.9 4.55 8.15 5.25.1 0 .2.05.3.05.1 0 .2 0 .3-.05 3.25-.7 6.15-2.55 8.15-5.25 2.5-3.4 3.95-6.55 4.55-13.5.05-1.1.05-2.8 0-5.2Z"/><path fill="#7542E5" d="m15.9.05-11.55 2c-.7.1-1.2.7-1.2 1.4 0 1.7-.05 3.2-.05 4.55-.05 2.4-.05 4.15.05 5.2.65 6.95 2.1 10.1 4.55 13.5 2 2.7 4.9 4.55 8.15 5.25.1 0 .2.05.3.05V0c-.1 0-.15 0-.25.05Z"/><path fill="#7542E5" d="M15.95 2.25 6.25 3.9c-.6.1-1 .6-1 1.2 0 1.45 0 2.7-.05 3.8-.05 2-.05 3.5.05 4.35.5 5.8 1.75 8.5 3.8 11.35 1.65 2.25 4.1 3.85 6.85 4.4h.25V2.2c-.05 0-.15 0-.2.05Z"/><path fill="#0090ED" d="M27.1 8.9c0-1.1-.05-2.4-.05-3.8 0-.6-.4-1.1-1-1.2l-9.7-1.65h-.2v26.8h.25c2.75-.6 5.2-2.15 6.85-4.45 2.1-2.85 3.3-5.5 3.85-11.35.05-.85.05-2.3 0-4.35Z"/></svg>