<svg width="16" height="16" viewBox="0 0 16 16" fill="none" xmlns="http://www.w3.org/2000/svg">
<g id="16 - Default / alerts, notifications, help / warning-fill-16">
<path id="Shape" d="M14.8751 12.037L9.37807 2.037C8.99707 1.346 8.31107 1 7.62507 1C6.93907 1 6.25307 1.346 5.87307 2.037L0.376067 12.037C-0.357933 13.37 0.607067 15 2.12807 15H13.1231C14.6431 15 15.6081 13.37 14.8751 12.037ZM8.25007 11.75L8.00007 12H7.25007L7.00007 11.75V11L7.25007 10.75H8.00007L8.25007 11V11.75ZM8.25007 9.062C8.25007 9.22776 8.18422 9.38673 8.06701 9.50394C7.9498 9.62115 7.79083 9.687 7.62507 9.687C7.45931 9.687 7.30034 9.62115 7.18313 9.50394C7.06592 9.38673 7.00007 9.22776 7.00007 9.062V5.625C7.00007 5.45924 7.06592 5.30027 7.18313 5.18306C7.30034 5.06585 7.45931 5 7.62507 5C7.79083 5 7.9498 5.06585 8.06701 5.18306C8.18422 5.30027 8.25007 5.45924 8.25007 5.625V9.062Z" fill="#FFA436"/>
</g>
</svg>
