<svg width="16" height="16" viewBox="0 0 16 16" fill="none" xmlns="http://www.w3.org/2000/svg">
<g id=" 16 - Sync / device / synce device-16">
<path id="Vector 474" d="M5.5 6.5L7.5 8.5L11 5" stroke="#15141A" stroke-width="1.5" stroke-linecap="round" stroke-linejoin="round"/>
<path id="Union" fill-rule="evenodd" clip-rule="evenodd" d="M4 3.5H12C12.2761 3.5 12.5 3.72386 12.5 4V10C12.5 10.2761 12.2761 10.5 12 10.5H4C3.72386 10.5 3.5 10.2761 3.5 10V4C3.5 3.72386 3.72386 3.5 4 3.5ZM2 4C2 2.89543 2.89543 2 4 2H12C13.1046 2 14 2.89543 14 4V10C14 11.1046 13.1046 12 12 12H8.75V13.25H11.5C11.9142 13.25 12.25 13.5858 12.25 14C12.25 14.4142 11.9142 14.75 11.5 14.75H8H4.5C4.08579 14.75 3.75 14.4142 3.75 14C3.75 13.5858 4.08579 13.25 4.5 13.25H7.25V12H4C2.89543 12 2 11.1046 2 10V4Z" fill="#15141A"/>
</g>
</svg>
