<svg width="16" height="16" viewBox="0 0 16 16" fill="none" xmlns="http://www.w3.org/2000/svg">
<g id="16 - Non-Sync / device / non-synce device-16">
<path id="Subtract" fill-rule="evenodd" clip-rule="evenodd" d="M2.1406 3.26192C2.04987 3.49028 2 3.73932 2 4V10C2 11.1046 2.89543 12 4 12H7.25V13.25H4.5C4.08579 13.25 3.75 13.5858 3.75 14C3.75 14.4142 4.08579 14.75 4.5 14.75H8H11.5C11.9142 14.75 12.25 14.4142 12.25 14C12.25 13.5858 11.9142 13.25 11.5 13.25H8.75V12H10.8787L9.37868 10.5H4C3.72386 10.5 3.5 10.2761 3.5 10V4.62132L2.1406 3.26192ZM12.5 9.37868V4C12.5 3.72386 12.2761 3.5 12 3.5H6.62132L5.12132 2H12C13.1046 2 14 2.89543 14 4V10C14 10.2607 13.9501 10.5097 13.8594 10.7381L12.5 9.37868Z" fill="#15141A"/>
<path id="Vector 470" d="M3 2L13 12" stroke="#15141A" stroke-width="1.5" stroke-linecap="round"/>
</g>
</svg>
