<svg width="24" height="24" viewBox="0 0 24 24" fill="none" xmlns="http://www.w3.org/2000/svg">
<rect x="7.5" y="9.83334" width="11.6667" height="8" rx="2" stroke="#20123A" stroke-linecap="round" stroke-linejoin="round"/>
<path d="M9.33333 5.33334H7.33333C5.49267 5.33334 4 6.82601 4 8.66668V10.6667" stroke="#20123A" stroke-linecap="round"/>
<path fill-rule="evenodd" clip-rule="evenodd" d="M9.3335 6.66667L11.3335 5.33333L9.3335 4V6.66667Z" fill="#20123A" stroke="#20123A" stroke-linecap="square" stroke-linejoin="round"/>
<path fill-rule="evenodd" clip-rule="evenodd" d="M13.4751 14.5C14.4416 14.5 15.2251 13.7165 15.2251 12.75C15.2251 11.7835 14.4416 11 13.4751 11C12.5086 11 11.7251 11.7835 11.7251 12.75C11.7251 13.7165 12.5086 14.5 13.4751 14.5Z" fill="#20123A"/>
<path fill-rule="evenodd" clip-rule="evenodd" d="M15.9497 16.9749C15.9497 15.608 14.8417 14.5 13.4749 14.5C12.108 14.5 11 15.608 11 16.9749C11 18.3417 15.9497 18.3417 15.9497 16.9749Z" fill="#20123A"/>
</svg>
