<svg height="16" viewBox="0 0 17 16" width="17" xmlns="http://www.w3.org/2000/svg"><g fill="none" fill-rule="evenodd" transform="translate(1 1)"><g stroke="#20123a"><rect height="8" rx="2" stroke-linecap="round" stroke-linejoin="round" width="11.6667" x="3.5" y="5.83334"/><path d="m5.33333 1.33334h-2c-1.84066 0-3.33333 1.49267-3.33333 3.33334v2" stroke-linecap="round"/><path d="m5.3335 2.66667 2-1.33334-2-1.33333z" fill="#20123a" stroke-linecap="square" stroke-linejoin="round"/></g><path d="m9.4749 10.5c1.3668 0 2.4748 1.108 2.4748 2.4749 0 1.3668-4.9497 1.3668-4.9497 0 0-1.3669 1.10804-2.4749 2.4749-2.4749zm.0002-3.5c.9665 0 1.75.7835 1.75 1.75s-.7835 1.75-1.75 1.75-1.75-.7835-1.75-1.75.7835-1.75 1.75-1.75z" fill="#20123a"/></g></svg>