<svg height="16" viewBox="0 0 14 16" width="14" xmlns="http://www.w3.org/2000/svg" xmlns:xlink="http://www.w3.org/1999/xlink"><mask id="a" fill="#fff"><path d="m0 .03427h10.9068v10.90613h-10.9068z" fill="#fff" fill-rule="evenodd"/></mask><mask id="b" fill="#fff"><path d="m.13574.1695h5.48296v5.4829h-5.48296z" fill="#fff" fill-rule="evenodd"/></mask><g fill="#20123a" fill-rule="evenodd"><path d="m9.4917.707453v4.067857c0 .39051.31694.70745.7075.70745.3905 0 .7074-.31694.7074-.70745v-4.067857c0-.390514-.3169-.707453-.7074-.707453-.39056 0-.7075.316939-.7075.707453z"/><path d="m8.16546 3.44884h4.06784c.3905 0 .7075-.31694.7075-.70745 0-.39052-.317-.70745-.7075-.70745h-4.06784c-.39051 0-.70745.31693-.70745.70745 0 .39051.31694.70745.70745.70745z"/><path d="m9.49191 5.48733c-.00142 1.17862-.4358 2.17471-1.14891 2.88927-.71453.7131-1.71062 1.1475-2.88924 1.1489-1.17932-.0014-2.17542-.4358-2.88995-1.1489-.71311-.71456-1.14749-1.71065-1.1489-2.88927.00141-1.17862.43579-2.17471 1.1489-2.88995.71453-.7124 1.71063-1.14678 2.88995-1.1482.39052 0 .70745-.31694.70745-.70745 0-.39122-.31693-.70745582-.70745-.70745582-1.53376-.00212418-2.91046.58082582-3.89099 1.56276582-.981948.98053-1.56418233 2.35724-1.56277 3.89029-.00141233 1.53305.580822 2.90977 1.56277 3.89027.98053.982 2.35723 1.5642 3.89099 1.5628025 1.53305.0013975 2.90976-.5808025 3.89029-1.5628025.98195-.9805 1.56415-2.35722 1.5627525-3.89027 0-.39052-.3169025-.70746-.7074025-.70746-.39056 0-.70749.31694-.70749.70746z" mask="url(#a)" transform="translate(0 2)"/><path d="m.3432 1.3773 4.0679 4.0678c.2766.2766.7237.2766 1.0003 0s.2766-.7237 0-1.0003l-4.06786-4.0679c-.27661-.2766-.72372-.2766-1.00034 0-.27661.2766-.27661.7237 0 1.0004z" mask="url(#b)" transform="translate(8 10)"/></g></svg>