<svg height="15" viewBox="0 0 15 15" width="15" xmlns="http://www.w3.org/2000/svg" xmlns:xlink="http://www.w3.org/1999/xlink"><mask id="a" fill="#fff"><path d="m0 .646515h11.3849v11.384085h-11.3849z" fill="#fff" fill-rule="evenodd"/></mask><mask id="b" fill="#fff"><path d="m.49219.13828h5.72321v5.72322h-5.72321z" fill="#fff" fill-rule="evenodd"/></mask><g fill="#20123a" fill-rule="evenodd"><path d="m8.52313 3.6h4.24617c.4076 0 .7384-.33083.7384-.73846s-.3308-.73846-.7384-.73846h-4.24617c-.40763 0-.73846.33083-.73846.73846s.33083.73846.73846.73846z"/><path d="m9.90794 6.33858c-.00148 1.23028-.45489 2.27003-1.19926 3.01588-.74585.74434-1.7856 1.19774-3.01588 1.19924-1.23101-.0015-2.27077-.4549-3.01661-1.19924-.74437-.74585-1.19779-1.7856-1.19926-3.01588.00147-1.23027.45489-2.27003 1.19926-3.01661.74584-.74363 1.7856-1.19705 3.01661-1.19853.40763 0 .73846-.33083.73846-.73846 0-.408367-.33083-.73846503-.73846-.73846503-1.60098-.00220897-3.03803.60628503-4.06154 1.63126503-1.02498 1.02351-1.63273424 2.46056-1.63126 4.0608-.00147424 1.60025.60628 3.03729 1.63126 4.06082 1.02351 1.025 2.46056 1.6327 4.06154 1.6312028 1.60025.0014972 3.03729-.6062028 4.0608-1.6312028 1.025-1.02353 1.6327-2.46057 1.6313024-4.06082 0-.40763-.3309024-.73846-.7385024-.73846s-.73846.33083-.73846.73846z" mask="url(#a)"/><path d="m.70874 1.399 4.24616 4.2462c.2887.2887.7554.2887 1.0442 0 .2887-.2888.2887-.7555 0-1.0442l-4.24617-4.24617c-.28874-.28874-.75545-.28874-1.04419 0s-.28874.75547 0 1.04417z" mask="url(#b)" transform="translate(8 9)"/></g></svg>