<svg xmlns="http://www.w3.org/2000/svg" width="135" height="40"><defs><linearGradient id="a" x1="31.8" y1="896.71" x2="15.02" y2="913.49" gradientTransform="translate(-10 -888)" gradientUnits="userSpaceOnUse"><stop offset="0" stop-color="#00a0ff"/><stop offset=".01" stop-color="#00a1ff"/><stop offset=".26" stop-color="#00beff"/><stop offset=".51" stop-color="#00d2ff"/><stop offset=".76" stop-color="#00dfff"/><stop offset="1" stop-color="#00e3ff"/></linearGradient><linearGradient id="b" x1="43.83" y1="908" x2="19.64" y2="908" gradientTransform="translate(-10 -888)" gradientUnits="userSpaceOnUse"><stop offset="0" stop-color="#ffe000"/><stop offset=".41" stop-color="#ffbd00"/><stop offset=".78" stop-color="orange"/><stop offset="1" stop-color="#ff9c00"/></linearGradient><linearGradient id="c" x1="34.82" y1="910.29" x2="12.06" y2="933.04" gradientTransform="translate(-10 -888)" gradientUnits="userSpaceOnUse"><stop offset="0" stop-color="#ff3a44"/><stop offset="1" stop-color="#c31162"/></linearGradient><linearGradient id="d" x1="17.3" y1="888.18" x2="27.46" y2="898.34" gradientTransform="translate(-10 -888)" gradientUnits="userSpaceOnUse"><stop offset="0" stop-color="#32a071"/><stop offset=".07" stop-color="#2da771"/><stop offset=".48" stop-color="#15cf74"/><stop offset=".8" stop-color="#06e775"/><stop offset="1" stop-color="#00f076"/></linearGradient></defs><rect width="135" height="40" rx="5"/><path d="M130 .8a4.2 4.2 0 014.2 4.2v30a4.2 4.2 0 01-4.2 4.2H5A4.2 4.2 0 01.8 35V5A4.2 4.2 0 015 .8h125m0-.8H5a5 5 0 00-5 5v30a5 5 0 005 5h125a5 5 0 005-5V5a5 5 0 00-5-5z" fill="#a6a6a6"/><path d="M68.14 21.75A4.26 4.26 0 1072.41 26a4.19 4.19 0 00-4.13-4.25zm0 6.83a2.58 2.58 0 112.39-2.75.91.91 0 010 .17 2.46 2.46 0 01-2.34 2.58zm-9.32-6.83A4.26 4.26 0 1063.09 26 4.19 4.19 0 0059 21.75zm0 6.83a2.58 2.58 0 112.39-2.75.91.91 0 010 .17 2.46 2.46 0 01-2.34 2.58zm-11.08-5.52v1.8h4.32a3.77 3.77 0 01-1 2.27 4.45 4.45 0 01-3.34 1.32 4.8 4.8 0 110-9.6A4.65 4.65 0 0151 20.14l1.27-1.27a6.29 6.29 0 00-4.53-1.82 6.61 6.61 0 00-.51 13.21h.51a5.84 5.84 0 006.17-6.08 7 7 0 00-.09-1.12zm45.31 1.4a3.92 3.92 0 00-7.65 1.28 2.26 2.26 0 000 .26 4.23 4.23 0 007.76 2.37l-1.45-1a2.42 2.42 0 01-2.09 1.17 2.14 2.14 0 01-2.06-1.29l5.69-2.35zm-5.8 1.42a2.35 2.35 0 012.18-2.49 1.64 1.64 0 011.57.91zM82.63 30h1.87V17.5h-1.87zm-3.06-7.3h-.07a3 3 0 00-2.24-1 4.26 4.26 0 000 8.51 2.87 2.87 0 002.24-1h.07v.61c0 1.63-.87 2.5-2.27 2.5a2.35 2.35 0 01-2.15-1.51l-1.62.67A4 4 0 0077.3 34c2.19 0 4-1.29 4-4.43V22h-1.73zm-2.15 5.88a2.58 2.58 0 010-5.15 2.38 2.38 0 012.28 2.49V26a2.38 2.38 0 01-2.17 2.57zm24.39-11.08h-4.48V30h1.87v-4.74h2.61a3.89 3.89 0 10.56-7.76 5.23 5.23 0 00-.56 0zm0 6H99.2v-4.26h2.65a2.14 2.14 0 010 4.28zm11.54-1.79a3.49 3.49 0 00-3.35 1.91l1.65.69a2.06 2.06 0 013.71.67v.15a4.14 4.14 0 00-1.95-.48c-1.78 0-3.6 1-3.6 2.82a2.89 2.89 0 003 2.76h.09a2.64 2.64 0 002.42-1.23h.06v1h1.8v-4.81c0-2.19-1.66-3.46-3.79-3.46zm-.23 6.85c-.61 0-1.46-.31-1.46-1.06 0-1 1.06-1.34 2-1.34a3.38 3.38 0 011.7.42 2.26 2.26 0 01-2.2 2zM123.74 22l-2.14 5.42h-.06L119.32 22h-2l3.33 7.58-1.9 4.21h2L125.82 22zm-16.8 8h1.86V17.5h-1.86z" fill="#fff"/><path d="M10.44 7.54a2 2 0 00-.44 1.4v22.12a1.94 1.94 0 00.47 1.4l.07.08L22.9 20.15v-.3L10.51 7.47z" fill="url(#a)"/><path d="M27 24.28l-4.1-4.13v-.3l4.1-4.13.09.06L32 18.56c1.4.79 1.4 2.09 0 2.89l-4.89 2.78z" fill="url(#b)"/><path d="M27.12 24.22L22.9 20 10.44 32.46a1.62 1.62 0 002.07.07l14.61-8.31" fill="url(#c)"/><path d="M27.12 15.78l-14.61-8.3a1.6 1.6 0 00-2.07.06L22.9 20z" fill="url(#d)"/><path d="M27 24.13l-14.49 8.25a1.65 1.65 0 01-2 0l-.07.07.07.08a1.65 1.65 0 002 0l14.61-8.31z" style="isolation:isolate" opacity=".2"/><path d="M10.44 32.32a2 2 0 01-.44-1.41v.15a1.94 1.94 0 00.47 1.4l.07-.07zM32 21.3l-5 2.83.09.09L32 21.44A1.74 1.74 0 0033.06 20 1.86 1.86 0 0132 21.3z" style="isolation:isolate" opacity=".12"/><path d="M12.51 7.62L32 18.7a1.86 1.86 0 011.06 1.3A1.74 1.74 0 0032 18.56L12.51 7.48C11.12 6.68 10 7.34 10 8.94v.15c0-1.6 1.12-2.26 2.51-1.47z" style="isolation:isolate" fill="#fff" opacity=".25"/><path d="M43.69 13h-.77V7.74h-1.68V7h4.13v.74h-1.68zm6.15-5.26h-2.73v1.9h2.46v.72h-2.46v1.9h2.73V13h-3.5V7h3.5zM51.05 13V7h.77l2.08 3.65L56 7h.78v6H56V8.44l-1.87 3.3h-.46l-1.87-3.3V13zm9.21.13a2.08 2.08 0 01-1.61-.65 2.41 2.41 0 01-.65-1.71V7h.77v3.8a1.74 1.74 0 00.41 1.2 1.36 1.36 0 001.08.44 1.31 1.31 0 001.07-.44 1.74 1.74 0 00.38-1.16V7h.77v3.77a2.43 2.43 0 01-.6 1.71 2.1 2.1 0 01-1.62.65zM68.16 7l-2.23 2.58L68.31 13h-1l-2-2.8-.92 1.07V13h-.77V7h.77v3.09L67.16 7zm.43 6l2.27-6h.87L74 13h-.85l-.58-1.63H70L69.45 13zm1.7-2.35h2l-1-2.7zM74.86 13V7h.94l2.92 4.67V7h.77v6h-.81l-3.05-4.89V13zm8.01 0V7h1.84a2.85 2.85 0 013 3 2.85 2.85 0 01-3 3zm.77-.74h1.07a2.27 2.27 0 001.64-.59A2.22 2.22 0 0087 10a2.09 2.09 0 00-1.91-2.26h-1.45zm5.19.74V7h.77v6z" fill="#fff" stroke="#fff" stroke-miterlimit="10" stroke-width=".2"/></svg>