<svg id="artwork" xmlns="http://www.w3.org/2000/svg" width="135" height="40"><defs><linearGradient id="linear-gradient" x1="31.8" y1="183.29" x2="15.02" y2="166.51" gradientTransform="matrix(1 0 0 -1 0 202)" gradientUnits="userSpaceOnUse"><stop offset="0" stop-color="#00a0ff"/><stop offset=".01" stop-color="#00a1ff"/><stop offset=".26" stop-color="#00beff"/><stop offset=".51" stop-color="#00d2ff"/><stop offset=".76" stop-color="#00dfff"/><stop offset="1" stop-color="#00e3ff"/></linearGradient><linearGradient id="linear-gradient-2" x1="43.83" y1="172" x2="19.64" y2="172" gradientTransform="matrix(1 0 0 -1 0 202)" gradientUnits="userSpaceOnUse"><stop offset="0" stop-color="#ffe000"/><stop offset=".41" stop-color="#ffbd00"/><stop offset=".78" stop-color="orange"/><stop offset="1" stop-color="#ff9c00"/></linearGradient><linearGradient id="linear-gradient-3" x1="34.83" y1="169.7" x2="12.07" y2="146.95" gradientTransform="matrix(1 0 0 -1 0 202)" gradientUnits="userSpaceOnUse"><stop offset="0" stop-color="#ff3a44"/><stop offset="1" stop-color="#c31162"/></linearGradient><linearGradient id="linear-gradient-4" x1="17.3" y1="191.82" x2="27.46" y2="181.66" gradientTransform="matrix(1 0 0 -1 0 202)" gradientUnits="userSpaceOnUse"><stop offset="0" stop-color="#32a071"/><stop offset=".07" stop-color="#2da771"/><stop offset=".48" stop-color="#15cf74"/><stop offset=".8" stop-color="#06e775"/><stop offset="1" stop-color="#00f076"/></linearGradient><style>.cls-10{fill:#fff}.cls-8{isolation:isolate;opacity:.12}.cls-10{stroke:#fff;stroke-miterlimit:10;stroke-width:.2px}</style></defs><rect width="135" height="40" rx="5"/><path d="M140 10.8a4.2 4.2 0 0 1 4.2 4.2v30a4.2 4.2 0 0 1-4.2 4.2H15a4.2 4.2 0 0 1-4.2-4.2V15a4.2 4.2 0 0 1 4.2-4.2h125m0-.8H15a5 5 0 0 0-5 5v30a5 5 0 0 0 5 5h125a5 5 0 0 0 5-5V15a5 5 0 0 0-5-5Z" transform="translate(-10 -10)" style="fill:#a6a6a6"/><path d="M78.14 31.75A4.26 4.26 0 1 0 82.41 36a4.19 4.19 0 0 0-4.27-4.25Zm0 6.83a2.58 2.58 0 1 1 2.4-2.58 2.46 2.46 0 0 1-2.4 2.58Zm-9.32-6.83A4.26 4.26 0 1 0 73.09 36a4.19 4.19 0 0 0-4.27-4.25Zm0 6.83a2.58 2.58 0 1 1 2.4-2.58 2.46 2.46 0 0 1-2.4 2.58Zm-11.08-5.52v1.8h4.32a3.77 3.77 0 0 1-1 2.27 4.42 4.42 0 0 1-3.34 1.32 4.8 4.8 0 0 1 0-9.6A4.64 4.64 0 0 1 61 30.14l1.27-1.27a6.3 6.3 0 0 0-4.53-1.82 6.61 6.61 0 1 0 0 13.21 6.07 6.07 0 0 0 4.61-1.85 6 6 0 0 0 1.56-4.23 6.27 6.27 0 0 0-.09-1.12Zm45.31 1.4a4 4 0 0 0-3.64-2.71 4 4 0 0 0-4 4.25 4.23 4.23 0 0 0 7.76 2.37l-1.45-1a2.41 2.41 0 0 1-2.09 1.17 2.15 2.15 0 0 1-2.06-1.29l5.69-2.35Zm-5.8 1.42a2.34 2.34 0 0 1 2.23-2.49 1.64 1.64 0 0 1 1.57.91ZM92.63 40h1.87V27.5h-1.87Zm-3.06-7.3h-.07a2.94 2.94 0 0 0-2.24-1 4.26 4.26 0 0 0 0 8.51 2.88 2.88 0 0 0 2.24-1h.07v.61c0 1.63-.87 2.5-2.27 2.5a2.36 2.36 0 0 1-2.15-1.51l-1.62.67A4 4 0 0 0 87.3 44c2.19 0 4-1.29 4-4.43V32h-1.73Zm-2.15 5.88a2.58 2.58 0 0 1 0-5.15A2.39 2.39 0 0 1 89.7 36a2.38 2.38 0 0 1-2.28 2.58Zm24.39-11.08h-4.48V40h1.87v-4.74h2.61a3.89 3.89 0 1 0 0-7.76Zm0 6h-2.61v-4.26h2.65a2.14 2.14 0 1 1 0 4.28Zm11.54-1.79a3.49 3.49 0 0 0-3.33 1.91l1.65.69a1.78 1.78 0 0 1 1.71-.91 1.8 1.8 0 0 1 2 1.61v.12a4.18 4.18 0 0 0-1.95-.48c-1.78 0-3.6 1-3.6 2.82a2.89 2.89 0 0 0 3.11 2.75 2.65 2.65 0 0 0 2.38-1.22h.06v1h1.8v-4.81c0-2.19-1.66-3.46-3.79-3.46Zm-.23 6.85c-.61 0-1.46-.31-1.46-1.06 0-1 1.06-1.34 2-1.34a3.32 3.32 0 0 1 1.7.42 2.26 2.26 0 0 1-2.2 2ZM133.74 32l-2.14 5.42h-.06L129.32 32h-2l3.33 7.58-1.9 4.21h1.95L135.82 32Zm-16.8 8h1.86V27.5h-1.86Z" transform="translate(-10 -10)" style="fill:#fff"/><path d="M20.44 17.54a2 2 0 0 0-.47 1.4v22.12a1.94 1.94 0 0 0 .47 1.4l.07.08L32.9 30.15v-.3L20.51 17.47Z" transform="translate(-10 -10)" style="fill:url(#linear-gradient)"/><path d="m37 34.28-4.1-4.13v-.3l4.1-4.13.09.06L42 28.56c1.4.79 1.4 2.09 0 2.89l-4.89 2.78Z" transform="translate(-10 -10)" style="fill:url(#linear-gradient-2)"/><path d="M37.12 34.22 32.9 30 20.44 42.46a1.62 1.62 0 0 0 2.07.07l14.61-8.31" transform="translate(-10 -10)" style="fill:url(#linear-gradient-3)"/><path d="m37.12 25.78-14.61-8.3a1.61 1.61 0 0 0-2.07.06L32.9 30Z" transform="translate(-10 -10)" style="fill:url(#linear-gradient-4)"/><path d="m37 34.13-14.49 8.25a1.66 1.66 0 0 1-2 0l-.07.07.07.08a1.66 1.66 0 0 0 2 0l14.61-8.31Z" transform="translate(-10 -10)" style="opacity:.2;isolation:isolate"/><path class="cls-8" d="M20.44 42.32a2 2 0 0 1-.44-1.41v.15a1.94 1.94 0 0 0 .47 1.4l.07-.07ZM42 31.3l-5 2.83.09.09L42 31.44A1.75 1.75 0 0 0 43.06 30 1.86 1.86 0 0 1 42 31.3Z" transform="translate(-10 -10)"/><path d="M22.51 17.62 42 28.7a1.86 1.86 0 0 1 1.06 1.3A1.75 1.75 0 0 0 42 28.56L22.51 17.48c-1.39-.8-2.54-.14-2.54 1.46v.15c.03-1.6 1.15-2.26 2.54-1.47Z" transform="translate(-10 -10)" style="opacity:.25;isolation:isolate;fill:#fff"/><path class="cls-10" d="M51.27 23v-6h1.83a3 3 0 0 1 2.21.83 2.92 2.92 0 0 1 .83 2.17 2.92 2.92 0 0 1-.83 2.17 3 3 0 0 1-2.21.83Zm.77-.74h1.06a2.3 2.3 0 0 0 1.65-.59 2.27 2.27 0 0 0 .61-1.67 2.09 2.09 0 0 0-2.26-2.26H52ZM57.23 23v-6H58v6ZM61.06 23.13a2.24 2.24 0 0 1-1.27-.42 2 2 0 0 1-.82-1.2l.7-.29a1.69 1.69 0 0 0 .52.84 1.32 1.32 0 0 0 .87.34 1.38 1.38 0 0 0 .86-.27.83.83 0 0 0 .36-.71.92.92 0 0 0-.36-.78 3.78 3.78 0 0 0-1.13-.51 2.83 2.83 0 0 1-1.2-.65 1.31 1.31 0 0 1-.41-1 1.51 1.51 0 0 1 .51-1.13 2.16 2.16 0 0 1 2.57-.09 1.7 1.7 0 0 1 .62.83l-.7.29a1 1 0 0 0-.38-.52 1.11 1.11 0 0 0-.8-.26 1.22 1.22 0 0 0-.76.25.77.77 0 0 0-.32.62.7.7 0 0 0 .29.56 2.92 2.92 0 0 0 .85.42 6.21 6.21 0 0 1 .75.27 3.53 3.53 0 0 1 .6.36 1.43 1.43 0 0 1 .46.55 1.86 1.86 0 0 1 .16.77 1.66 1.66 0 0 1-.18.78 1.4 1.4 0 0 1-.48.54 2.23 2.23 0 0 1-.64.31 2.44 2.44 0 0 1-.67.1ZM64.94 23h-.77v-6h2a1.92 1.92 0 0 1 1.32.51 1.75 1.75 0 0 1 0 2.55 1.92 1.92 0 0 1-1.32.51h-1.23Zm0-3.17h1.29a1 1 0 0 0 .78-.32 1 1 0 0 0 0-1.45 1 1 0 0 0-.78-.32h-1.29ZM74 22.22a3.11 3.11 0 0 1-4.4 0 3.24 3.24 0 0 1 0-4.44 3.11 3.11 0 0 1 4.4 0 3.08 3.08 0 0 1 .86 2.22 3 3 0 0 1-.86 2.22Zm-3.83-.5a2.29 2.29 0 0 0 3.26 0 2.54 2.54 0 0 0 0-3.44 2.29 2.29 0 0 0-3.26 0 2.57 2.57 0 0 0 0 3.44ZM75.94 23v-6h.94l2.91 4.67V17h.77v6h-.8l-3.05-4.89V23ZM81.94 23v-6h.77v6ZM84.08 23v-6h2.17a1.8 1.8 0 0 1 1.22.46 1.51 1.51 0 0 1 .53 1.17 1.31 1.31 0 0 1-.23.76 1.29 1.29 0 0 1-.59.49 1.47 1.47 0 0 1 .73.52 1.35 1.35 0 0 1 .29.85 1.57 1.57 0 0 1-.54 1.22 1.83 1.83 0 0 1-1.28.49Zm.77-3.43h1.4a.87.87 0 0 0 .7-.29.9.9 0 0 0 .27-.63A.93.93 0 0 0 87 18a.85.85 0 0 0-.67-.28h-1.48Zm0 2.69h1.55a.9.9 0 0 0 .72-.31 1 1 0 0 0 0-1.35 1 1 0 0 0-.75-.31h-1.52ZM89.23 23v-6H90v6ZM91.37 23v-6h.77v5.26h2.6V23ZM99.22 17.74h-2.74v1.9H99v.72h-2.52v1.9h2.74V23h-3.51v-6h3.51ZM103.88 23.13a2.25 2.25 0 0 1-1.28-.42 2 2 0 0 1-.82-1.2l.7-.29a1.69 1.69 0 0 0 .52.84 1.33 1.33 0 0 0 .88.34 1.35 1.35 0 0 0 .85-.27.83.83 0 0 0 .36-.71.92.92 0 0 0-.36-.78 3.7 3.7 0 0 0-1.12-.51 2.87 2.87 0 0 1-1.21-.65 1.35 1.35 0 0 1-.41-1 1.51 1.51 0 0 1 .51-1.13 2.16 2.16 0 0 1 2.57-.09 1.7 1.7 0 0 1 .62.83l-.7.29a1 1 0 0 0-.37-.52 1.15 1.15 0 0 0-.77-.25 1.22 1.22 0 0 0-.76.25.76.76 0 0 0-.31.62.67.67 0 0 0 .29.56 2.68 2.68 0 0 0 .85.42 6.67 6.67 0 0 1 .74.27 3.18 3.18 0 0 1 .6.36 1.35 1.35 0 0 1 .46.55 1.71 1.71 0 0 1 .16.77 1.66 1.66 0 0 1-.18.78 1.4 1.4 0 0 1-.48.54 2.23 2.23 0 0 1-.64.31 2.37 2.37 0 0 1-.7.09ZM109.07 23.13a2.07 2.07 0 0 1-1.6-.65 2.41 2.41 0 0 1-.62-1.71V17h.77v3.8A1.79 1.79 0 0 0 108 22a1.55 1.55 0 0 0 2.16 0 1.74 1.74 0 0 0 .37-1.16V17h.77v3.77a2.41 2.41 0 0 1-.6 1.71 2.07 2.07 0 0 1-1.63.65Z" transform="translate(-10 -10)"/></svg>