<svg xmlns="http://www.w3.org/2000/svg" width="135" height="40"><defs><linearGradient id="linear-gradient" x1="31.8" y1="43.29" x2="15.02" y2="26.51" gradientTransform="matrix(1 0 0 -1 0 62)" gradientUnits="userSpaceOnUse"><stop offset="0" stop-color="#00a0ff"/><stop offset=".01" stop-color="#00a1ff"/><stop offset=".26" stop-color="#00beff"/><stop offset=".51" stop-color="#00d2ff"/><stop offset=".76" stop-color="#00dfff"/><stop offset="1" stop-color="#00e3ff"/></linearGradient><linearGradient id="linear-gradient-2" x1="43.83" y1="32" x2="19.64" y2="32" gradientTransform="matrix(1 0 0 -1 0 62)" gradientUnits="userSpaceOnUse"><stop offset="0" stop-color="#ffe000"/><stop offset=".41" stop-color="#ffbd00"/><stop offset=".78" stop-color="orange"/><stop offset="1" stop-color="#ff9c00"/></linearGradient><linearGradient id="linear-gradient-3" x1="34.83" y1="29.7" x2="12.07" y2="6.95" gradientTransform="matrix(1 0 0 -1 0 62)" gradientUnits="userSpaceOnUse"><stop offset="0" stop-color="#ff3a44"/><stop offset="1" stop-color="#c31162"/></linearGradient><linearGradient id="linear-gradient-4" x1="17.3" y1="51.82" x2="27.46" y2="41.66" gradientTransform="matrix(1 0 0 -1 0 62)" gradientUnits="userSpaceOnUse"><stop offset="0" stop-color="#32a071"/><stop offset=".07" stop-color="#2da771"/><stop offset=".48" stop-color="#15cf74"/><stop offset=".8" stop-color="#06e775"/><stop offset="1" stop-color="#00f076"/></linearGradient><style>.cls-10{fill:#fff}.cls-8{isolation:isolate;opacity:.12}.cls-10{stroke:#fff;stroke-miterlimit:10;stroke-width:.2px}</style></defs><g id="artwork"><rect width="135" height="40" rx="5"/><path d="M140 10.8a4.2 4.2 0 0 1 4.2 4.2v30a4.2 4.2 0 0 1-4.2 4.2H15a4.2 4.2 0 0 1-4.2-4.2V15a4.2 4.2 0 0 1 4.2-4.2h125m0-.8H15a5 5 0 0 0-5 5v30a5 5 0 0 0 5 5h125a5 5 0 0 0 5-5V15a5 5 0 0 0-5-5Z" transform="translate(-10 -10)" style="fill:#a6a6a6"/><path d="M74.72 22.79a3.72 3.72 0 1 0 3.74 3.72 3.67 3.67 0 0 0-3.74-3.72Zm0 6a2.26 2.26 0 1 1 2.1-2.25 2.15 2.15 0 0 1-2.1 2.22Zm-8.14-6a3.72 3.72 0 1 0 3.74 3.72 3.67 3.67 0 0 0-3.74-3.72Zm0 6a2.26 2.26 0 1 1 2.1-2.25 2.15 2.15 0 0 1-2.1 2.22Zm-9.68-4.86v1.58h3.77a3.2 3.2 0 0 1-.86 2 3.83 3.83 0 0 1-2.91 1.16 4.2 4.2 0 0 1 0-8.39 4 4 0 0 1 2.84 1.12l1.12-1.11a5.53 5.53 0 0 0-4-1.59 5.78 5.78 0 1 0 0 11.55 5.31 5.31 0 0 0 4-1.62 5.23 5.23 0 0 0 1.36-3.69 4.9 4.9 0 0 0-.08-1Zm39.6 1.23a3.46 3.46 0 0 0-3.18-2.37 3.54 3.54 0 0 0-3.51 3.72 3.64 3.64 0 0 0 3.69 3.72 3.71 3.71 0 0 0 3.1-1.65l-1.27-.85a2.12 2.12 0 0 1-1.83 1 1.89 1.89 0 0 1-1.8-1.13l5-2.05Zm-5.07 1.24a2 2 0 0 1 1.95-2.17 1.44 1.44 0 0 1 1.38.79Zm-4 3.6H89V19.07h-1.61Zm-2.67-6.38h-.06a2.57 2.57 0 0 0-2-.83 3.72 3.72 0 0 0 0 7.44 2.55 2.55 0 0 0 2-.85h.06v.54a1.9 1.9 0 0 1-2 2.18 2 2 0 0 1-1.87-1.33l-1.42.6a3.53 3.53 0 0 0 3.29 2.19c1.92 0 3.54-1.12 3.54-3.87V23h-1.58Zm-1.88 5.14a2.26 2.26 0 0 1 0-4.51 2.1 2.1 0 0 1 2 2.27 2.07 2.07 0 0 1-2.04 2.24Zm21.32-9.69h-3.91V30h1.63v-4.14h2.28a3.4 3.4 0 1 0 0-6.79Zm0 5.27h-2.32v-3.75h2.32a1.88 1.88 0 1 1 0 3.75Zm10.08-1.57a3.06 3.06 0 0 0-2.91 1.67l1.45.61a1.52 1.52 0 0 1 1.49-.8 1.56 1.56 0 0 1 1.71 1.4v.11a3.71 3.71 0 0 0-1.7-.42c-1.56 0-3.15.86-3.15 2.46a2.53 2.53 0 0 0 2.71 2.41 2.31 2.31 0 0 0 2.12-1.07V30h1.57v-4.21c.02-1.94-1.42-3.02-3.29-3.02Zm-.2 6c-.53 0-1.28-.27-1.28-.93 0-.84.93-1.17 1.73-1.17A2.91 2.91 0 0 1 116 27a2 2 0 0 1-1.92 1.76Zm9.25-5.77-1.87 4.74h-.06L119.46 23h-1.75l2.91 6.62-1.62 3.69h1.7L125.14 23Zm-14.69 7h1.63V19.07h-1.63Z" transform="translate(-10 -10)" style="fill:#fff"/><path d="M20.44 17.54a2 2 0 0 0-.47 1.4v22.12a1.94 1.94 0 0 0 .47 1.4l.07.08L32.9 30.15v-.3L20.51 17.47Z" transform="translate(-10 -10)" style="fill:url(#linear-gradient)"/><path d="m37 34.28-4.1-4.13v-.3l4.1-4.13.09.06L42 28.56c1.4.79 1.4 2.09 0 2.89l-4.89 2.78Z" transform="translate(-10 -10)" style="fill:url(#linear-gradient-2)"/><path d="M37.12 34.22 32.9 30 20.44 42.46a1.62 1.62 0 0 0 2.07.07l14.61-8.31" transform="translate(-10 -10)" style="fill:url(#linear-gradient-3)"/><path d="m37.12 25.78-14.61-8.3a1.61 1.61 0 0 0-2.07.06L32.9 30Z" transform="translate(-10 -10)" style="fill:url(#linear-gradient-4)"/><path d="m37 34.13-14.49 8.25a1.66 1.66 0 0 1-2 0l-.07.07.07.08a1.66 1.66 0 0 0 2 0l14.61-8.31Z" transform="translate(-10 -10)" style="opacity:.2;isolation:isolate"/><path class="cls-8" d="M20.44 42.32a2 2 0 0 1-.44-1.41v.15a1.94 1.94 0 0 0 .47 1.4l.07-.07ZM42 31.3l-5 2.83.09.09L42 31.44A1.75 1.75 0 0 0 43.06 30 1.86 1.86 0 0 1 42 31.3Z" transform="translate(-10 -10)"/><path d="M22.51 17.62 42 28.7a1.86 1.86 0 0 1 1.06 1.3A1.75 1.75 0 0 0 42 28.56L22.51 17.48c-1.39-.8-2.54-.14-2.54 1.46v.15c.03-1.6 1.15-2.26 2.54-1.47Z" transform="translate(-10 -10)" style="opacity:.25;isolation:isolate;fill:#fff"/></g><g id="Layer_3" data-name="Layer 3"><path class="cls-10" d="M51.8 37c.59-.06 2.27-.22 3.91-.36 1-.08 1.81-.13 2.4-.15v.72a7.06 7.06 0 0 0-1.74.14 3.12 3.12 0 0 0-2 2.82c0 1.73 1.62 2.28 3.07 2.34l-.26.75c-1.65-.07-3.53-.95-3.53-2.94a3.61 3.61 0 0 1 1.66-3c-.79.09-3.22.33-4.18.53l-.08-.8c.3.01.58 0 .75-.05Zm5.79 2.55-.46.21a8.79 8.79 0 0 0-.74-1.27l.46-.19a9.6 9.6 0 0 1 .74 1.28Zm1-.39-.47.22a8 8 0 0 0-.77-1.26l.45-.2a12.18 12.18 0 0 1 .82 1.27ZM67.56 40.76h-3.7v2c0 .48-.14.68-.47.79a7 7 0 0 1-1.86.11 3.16 3.16 0 0 0-.29-.66h1.67c.21 0 .28-.07.28-.25v-2h-3.7v-.65h3.7v-1.46h-3.1V38h3.1v-1.39c-1 .11-2 .18-2.94.22a2.24 2.24 0 0 0-.17-.59 30.15 30.15 0 0 0 6.09-.76l.5.53a15.49 15.49 0 0 1-2.81.53V38h3.19v.64h-3.19v1.46h3.7ZM70.3 36.25c0 .15-.13.44-.17.6a20.61 20.61 0 0 0-.43 3.41 10.26 10.26 0 0 0 .07 1.23c.15-.41.35-.93.49-1.28l.39.28a20.66 20.66 0 0 0-.63 2 2 2 0 0 0 0 .4v.31h-.64a11.14 11.14 0 0 1-.38-2.81 24.42 24.42 0 0 1 .4-3.58c0-.2.06-.44.06-.63Zm2 4.32a2.9 2.9 0 0 0-.12.82c0 .4.27.8 1.49.8a9.3 9.3 0 0 0 2.25-.19v.76a11.74 11.74 0 0 1-2.23.18c-1.49 0-2.16-.5-2.16-1.33a5.29 5.29 0 0 1 .15-1.06Zm-.3-3.64a15.53 15.53 0 0 0 3.67 0v.74a22.36 22.36 0 0 1-3.66 0ZM81.67 36a7.71 7.71 0 0 0 3.73 7.1 3.13 3.13 0 0 0-.54.55 7.75 7.75 0 0 1-3.57-5 8 8 0 0 1-3.59 5 5.4 5.4 0 0 0-.61-.53c2-1 3.1-2.84 3.65-5.36l.4.06a10.48 10.48 0 0 1-.14-1.14h-2.2V36ZM94.17 42.28a2.31 2.31 0 0 1-1.64.74c-.58 0-1-.39-1-1.13 0-1 .33-2.46.33-3.32 0-.52-.26-.73-.71-.73a4.85 4.85 0 0 0-2.62 1.72v3.69h-.79V40.09c-.44.66-1 1.52-1.45 2.11l-.29-.58c.49-.62 1.52-2 2-2.71v-.86l-1.73.23-.08-.75a3.92 3.92 0 0 0 .59 0c.29 0 .81-.07 1.27-.14v-.84a3.69 3.69 0 0 0 0-.66h.85c0 .22-.12.72-.18 1.34l.26.31c-.11.16-.26.41-.4.62s0 .34 0 .51a5 5 0 0 1 2.73-1.5 1.11 1.11 0 0 1 1.25 1.2c0 .89-.33 2.43-.33 3.33 0 .31.15.54.46.54a2 2 0 0 0 1.34-.74ZM99.19 38.47c0 .58 0 1.45.09 2.22a7.08 7.08 0 0 1 2.77 1.52l-.43.67a6.16 6.16 0 0 0-2.31-1.47v.6c0 .73-.45 1.36-1.64 1.36S95.55 43 95.55 42c0-.8.71-1.46 2.25-1.46a4.73 4.73 0 0 1 .75 0c0-.72-.07-1.54-.07-2.07v-1.63a6.13 6.13 0 0 0-.08-.84h.86c0 .19-.06.61-.07.88s0 .56 0 .91c.71 0 1.84-.06 2.64-.17v.68c-.8.07-1.94.13-2.67.15Zm-.61 2.74a4.28 4.28 0 0 0-.87-.09c-.92 0-1.44.32-1.44.81s.49.76 1.35.76c.65 0 1-.31 1-.92-.03-.14-.04-.33-.04-.56ZM107.41 38.7a8.36 8.36 0 0 0-2.43.46c-.27.07-.53.18-.75.26l-.22-.83c.24 0 .55-.08.81-.13a12.09 12.09 0 0 1 2.66-.43 2 2 0 0 1 2.22 2c0 1.93-1.72 3-4 3.37l-.42-.68c2.16-.27 3.69-1.12 3.69-2.72a1.34 1.34 0 0 0-1.56-1.3Zm1.59-2.32-.11.69c-1-.06-2.79-.24-3.8-.42l.12-.68a24.48 24.48 0 0 0 3.79.41Z" transform="translate(-10 -10)"/></g></svg>