<svg xmlns="http://www.w3.org/2000/svg" width="135" height="40"><defs><linearGradient id="a" x1="31.8" y1="896.71" x2="15.02" y2="913.49" gradientTransform="translate(-10 -888)" gradientUnits="userSpaceOnUse"><stop offset="0" stop-color="#00a0ff"/><stop offset=".01" stop-color="#00a1ff"/><stop offset=".26" stop-color="#00beff"/><stop offset=".51" stop-color="#00d2ff"/><stop offset=".76" stop-color="#00dfff"/><stop offset="1" stop-color="#00e3ff"/></linearGradient><linearGradient id="b" x1="43.83" y1="908" x2="19.64" y2="908" gradientTransform="translate(-10 -888)" gradientUnits="userSpaceOnUse"><stop offset="0" stop-color="#ffe000"/><stop offset=".41" stop-color="#ffbd00"/><stop offset=".78" stop-color="orange"/><stop offset="1" stop-color="#ff9c00"/></linearGradient><linearGradient id="c" x1="34.82" y1="910.29" x2="12.06" y2="933.04" gradientTransform="translate(-10 -888)" gradientUnits="userSpaceOnUse"><stop offset="0" stop-color="#ff3a44"/><stop offset="1" stop-color="#c31162"/></linearGradient><linearGradient id="d" x1="17.3" y1="888.18" x2="27.46" y2="898.34" gradientTransform="translate(-10 -888)" gradientUnits="userSpaceOnUse"><stop offset="0" stop-color="#32a071"/><stop offset=".07" stop-color="#2da771"/><stop offset=".48" stop-color="#15cf74"/><stop offset=".8" stop-color="#06e775"/><stop offset="1" stop-color="#00f076"/></linearGradient></defs><rect width="135" height="40" rx="5"/><path d="M130 .8a4.2 4.2 0 014.2 4.2v30a4.2 4.2 0 01-4.2 4.2H5A4.2 4.2 0 01.8 35V5A4.2 4.2 0 015 .8h125m0-.8H5a5 5 0 00-5 5v30a5 5 0 005 5h125a5 5 0 005-5V5a5 5 0 00-5-5z" fill="#a6a6a6"/><path d="M68.14 21.75A4.26 4.26 0 1072.41 26a4.19 4.19 0 00-4.13-4.25zm0 6.83a2.58 2.58 0 112.39-2.75.91.91 0 010 .17 2.46 2.46 0 01-2.34 2.58zm-9.32-6.83A4.26 4.26 0 1063.09 26 4.19 4.19 0 0059 21.75zm0 6.83a2.58 2.58 0 112.39-2.75.91.91 0 010 .17 2.46 2.46 0 01-2.34 2.58zm-11.08-5.52v1.8h4.32a3.77 3.77 0 01-1 2.27 4.45 4.45 0 01-3.34 1.32 4.8 4.8 0 110-9.6A4.65 4.65 0 0151 20.14l1.27-1.27a6.29 6.29 0 00-4.53-1.82 6.61 6.61 0 00-.51 13.21h.51a5.84 5.84 0 006.17-6.08 7 7 0 00-.09-1.12zm45.31 1.4a3.92 3.92 0 00-7.65 1.28 2.26 2.26 0 000 .26 4.23 4.23 0 007.76 2.37l-1.45-1a2.42 2.42 0 01-2.09 1.17 2.14 2.14 0 01-2.06-1.29l5.69-2.35zm-5.8 1.42a2.35 2.35 0 012.18-2.49 1.64 1.64 0 011.57.91zM82.63 30h1.87V17.5h-1.87zm-3.06-7.3h-.07a3 3 0 00-2.24-1 4.26 4.26 0 000 8.51 2.87 2.87 0 002.24-1h.07v.61c0 1.63-.87 2.5-2.27 2.5a2.35 2.35 0 01-2.15-1.51l-1.62.67A4 4 0 0077.3 34c2.19 0 4-1.29 4-4.43V22h-1.73zm-2.15 5.88a2.58 2.58 0 010-5.15 2.38 2.38 0 012.28 2.49V26a2.38 2.38 0 01-2.17 2.57zm24.39-11.08h-4.48V30h1.87v-4.74h2.61a3.89 3.89 0 10.56-7.76 5.23 5.23 0 00-.56 0zm0 6H99.2v-4.26h2.65a2.14 2.14 0 010 4.28zm11.54-1.79a3.49 3.49 0 00-3.35 1.91l1.65.69a2.06 2.06 0 013.71.67v.15a4.14 4.14 0 00-1.95-.48c-1.78 0-3.6 1-3.6 2.82a2.89 2.89 0 003 2.76h.09a2.64 2.64 0 002.42-1.23h.06v1h1.8v-4.81c0-2.19-1.66-3.46-3.79-3.46zm-.23 6.85c-.61 0-1.46-.31-1.46-1.06 0-1 1.06-1.34 2-1.34a3.38 3.38 0 011.7.42 2.26 2.26 0 01-2.2 2zM123.74 22l-2.14 5.42h-.06L119.32 22h-2l3.33 7.58-1.9 4.21h2L125.82 22zm-16.8 8h1.86V17.5h-1.86z" fill="#fff"/><path d="M10.44 7.54a2 2 0 00-.44 1.4v22.12a1.94 1.94 0 00.47 1.4l.07.08L22.9 20.15v-.3L10.51 7.47z" fill="url(#a)"/><path d="M27 24.28l-4.1-4.13v-.3l4.1-4.13.09.06L32 18.56c1.4.79 1.4 2.09 0 2.89l-4.89 2.78z" fill="url(#b)"/><path d="M27.12 24.22L22.9 20 10.44 32.46a1.62 1.62 0 002.07.07l14.61-8.31" fill="url(#c)"/><path d="M27.12 15.78l-14.61-8.3a1.6 1.6 0 00-2.07.06L22.9 20z" fill="url(#d)"/><path d="M27 24.13l-14.49 8.25a1.65 1.65 0 01-2 0l-.07.07.07.08a1.65 1.65 0 002 0l14.61-8.31z" style="isolation:isolate" opacity=".2"/><path d="M10.44 32.32a2 2 0 01-.44-1.41v.15a1.94 1.94 0 00.47 1.4l.07-.07zM32 21.3l-5 2.83.09.09L32 21.44A1.74 1.74 0 0033.06 20 1.86 1.86 0 0132 21.3z" style="isolation:isolate" opacity=".12"/><path d="M12.51 7.62L32 18.7a1.86 1.86 0 011.06 1.3A1.74 1.74 0 0032 18.56L12.51 7.48C11.12 6.68 10 7.34 10 8.94v.15c0-1.6 1.12-2.26 2.51-1.47z" style="isolation:isolate" fill="#fff" opacity=".25"/><path d="M43.32 13.17a2.18 2.18 0 01-1.18-.38 1.9 1.9 0 01-.78-1.12l.73-.31a1.51 1.51 0 00.47.76 1.07 1.07 0 00.76.28 1.28 1.28 0 00.84-.31 1 1 0 00.1-1.41.47.47 0 00-.1-.1 1.26 1.26 0 00-.87-.31h-.51v-.75h.45a1.13 1.13 0 00.77-.27.83.83 0 00.31-.7.76.76 0 00-.3-.64 1.13 1.13 0 00-.75-.24 1 1 0 00-1 .78l-.74-.32a2 2 0 01.62-.85 1.74 1.74 0 011.16-.38 2 2 0 011.34.47 1.5 1.5 0 01.54 1.18 1.37 1.37 0 01-.81 1.29 1.72 1.72 0 01.72.56 1.44 1.44 0 01.29.89 1.7 1.7 0 01-.59 1.32 2.12 2.12 0 01-1.47.56zm2.52-.17l2.36-6.27h.91L51.47 13h-.89L50 11.3h-2.66l-.61 1.7zm1.77-2.45h2.09l-1-2.83zM52.28 13V6.76h2.27a1.81 1.81 0 011.27.49 1.58 1.58 0 01.54 1.22 1.42 1.42 0 01-.23.78 1.49 1.49 0 01-.62.52 1.59 1.59 0 01.76.54 1.43 1.43 0 01.3.89 1.67 1.67 0 01-.57 1.32 1.88 1.88 0 01-1.33.51zm.81-3.58h1.46a1 1 0 00.73-.3 1 1 0 00.27-.67 1 1 0 00-.26-.65.91.91 0 00-.71-.3h-1.49zm0 2.81h1.61a1.06 1.06 0 001-1 1 1 0 00-.3-.7 1 1 0 00-.78-.32h-1.53zM57 13l2.36-6.27h.91L62.6 13h-.89l-.6-1.7h-2.64l-.61 1.7zm1.77-2.45h2.09l-1-2.83zM63.41 13V6.76h.81v2.69h3.13V6.76h.8V13h-.8v-2.8h-3.13V13zm8.16 0h-.8V7.5H69v-.77h4.3v.77h-1.73zm1.54 0l2.36-6.27h.91L78.74 13h-.89l-.6-1.7h-2.64L74 13zm1.77-2.45H77l-1-2.83zm8.67-.39V13h-.8v-2.84L80.28 13h-1l2.64-3-2.59-3.2h1l2.4 3v-3h.8v3l2.39-3h1L84.43 10l2.64 3H86l-2.43-2.87zm9.12-3.4V13h-.81V7.92L88.68 13h-.84V6.76h.8v4.87l3-4.87zM96.08 13h-.8V7.5h-1.75v-.77h4.3v.77h-1.75zm7.48-6.24V13h-.81V7.92L99.57 13h-.84V6.76h.8v4.87l3-4.87zm4.83 6.41a2.18 2.18 0 01-1.18-.38 1.87 1.87 0 01-.78-1.12l.73-.31a1.47 1.47 0 00.46.76 1.1 1.1 0 00.77.28 1.28 1.28 0 00.84-.31 1 1 0 00.35-.76 1 1 0 00-.36-.75 1.26 1.26 0 00-.87-.31h-.52v-.75h.46a1.13 1.13 0 00.78-.27.83.83 0 00.31-.7.76.76 0 00-.3-.64 1.13 1.13 0 00-.75-.24 1 1 0 00-1 .78l-.74-.32a2 2 0 01.62-.85 1.74 1.74 0 011.16-.38 2 2 0 011.34.47 1.5 1.5 0 01.54 1.18 1.37 1.37 0 01-.81 1.29 1.72 1.72 0 01.72.56 1.44 1.44 0 01.29.89 1.7 1.7 0 01-.59 1.32 2.11 2.11 0 01-1.47.56z" fill="#fff" stroke="#fff" stroke-miterlimit="10" stroke-width=".2"/></svg>