<svg data-name="Layer 1" xmlns="http://www.w3.org/2000/svg" width="135" height="40"><defs><linearGradient id="a" x1="31.8" y1="1036.71" x2="15.02" y2="1053.49" gradientTransform="translate(-10 -1028)" gradientUnits="userSpaceOnUse"><stop offset="0" stop-color="#00a0ff"/><stop offset=".01" stop-color="#00a1ff"/><stop offset=".26" stop-color="#00beff"/><stop offset=".51" stop-color="#00d2ff"/><stop offset=".76" stop-color="#00dfff"/><stop offset="1" stop-color="#00e3ff"/></linearGradient><linearGradient id="b" x1="43.83" y1="1048" x2="19.64" y2="1048" gradientTransform="translate(-10 -1028)" gradientUnits="userSpaceOnUse"><stop offset="0" stop-color="#ffe000"/><stop offset=".41" stop-color="#ffbd00"/><stop offset=".78" stop-color="orange"/><stop offset="1" stop-color="#ff9c00"/></linearGradient><linearGradient id="c" x1="34.82" y1="1050.29" x2="12.06" y2="1073.04" gradientTransform="translate(-10 -1028)" gradientUnits="userSpaceOnUse"><stop offset="0" stop-color="#ff3a44"/><stop offset="1" stop-color="#c31162"/></linearGradient><linearGradient id="d" x1="17.3" y1="1028.18" x2="27.46" y2="1038.34" gradientTransform="translate(-10 -1028)" gradientUnits="userSpaceOnUse"><stop offset="0" stop-color="#32a071"/><stop offset=".07" stop-color="#2da771"/><stop offset=".48" stop-color="#15cf74"/><stop offset=".8" stop-color="#06e775"/><stop offset="1" stop-color="#00f076"/></linearGradient></defs><rect width="135" height="40" rx="5"/><path d="M130 .8a4.2 4.2 0 014.2 4.2v30a4.2 4.2 0 01-4.2 4.2H5A4.2 4.2 0 01.8 35V5A4.2 4.2 0 015 .8h125m0-.8H5a5 5 0 00-5 5v30a5 5 0 005 5h125a5 5 0 005-5V5a5 5 0 00-5-5z" fill="#a6a6a6"/><path d="M64.72 12.79a3.72 3.72 0 103.74 3.72 3.67 3.67 0 00-3.62-3.72zm0 6a2.26 2.26 0 112.09-2.41.86.86 0 010 .16 2.15 2.15 0 01-2.08 2.22zm-8.14-6a3.72 3.72 0 103.74 3.72 3.67 3.67 0 00-3.62-3.72zm0 6a2.26 2.26 0 112.09-2.41.86.86 0 010 .16 2.15 2.15 0 01-2.08 2.22zm-9.68-4.86v1.58h3.77a3.19 3.19 0 01-.86 2 3.83 3.83 0 01-2.91 1.16 4.2 4.2 0 010-8.39 4 4 0 012.84 1.12l1.12-1.11a5.53 5.53 0 00-4-1.59 5.78 5.78 0 10-.48 11.55 3.84 3.84 0 00.48 0 5.32 5.32 0 004-1.62 5.24 5.24 0 001.36-3.69 4.77 4.77 0 00-.08-1zm39.6 1.23a3.46 3.46 0 00-3.18-2.37 3.53 3.53 0 00-3.51 3.57v.15a3.64 3.64 0 003.56 3.72h.13a3.71 3.71 0 003.1-1.65l-1.27-.85a2.12 2.12 0 01-1.83 1 1.88 1.88 0 01-1.8-1.13l5-2.05zm-5.07 1.24a2 2 0 011.82-2.16h.13a1.43 1.43 0 011.38.79zm-4 3.6H79V9.07h-1.61zm-2.67-6.38h-.06a2.56 2.56 0 00-2-.83 3.72 3.72 0 100 7.44 2.54 2.54 0 002-.85h.06v.54a1.91 1.91 0 01-2 2.18 2 2 0 01-1.87-1.33l-1.42.6a3.54 3.54 0 003.29 2.19c1.92 0 3.54-1.12 3.54-3.87V13h-1.58zm-1.88 5.14a2.26 2.26 0 010-4.51 2.1 2.1 0 012 2.19.22.22 0 000 .08A2.06 2.06 0 0173 18.75h-.11zM94.2 9.07h-3.91V20h1.63v-4.14h2.28a3.4 3.4 0 00.37-6.79zm0 5.27h-2.32v-3.75h2.32a1.88 1.88 0 11.27 3.75zm10.08-1.57a3.05 3.05 0 00-2.91 1.67l1.45.61a1.53 1.53 0 011.49-.8 1.56 1.56 0 011.69 1.39v.11a3.75 3.75 0 00-1.7-.42c-1.56 0-3.15.86-3.15 2.46a2.51 2.51 0 002.64 2.41h.07a2.32 2.32 0 002.14-1.06V20h1.57v-4.21c.02-1.94-1.42-3.02-3.29-3.02zm-.2 6c-.53 0-1.28-.27-1.28-.93 0-.84.93-1.17 1.73-1.17A2.89 2.89 0 01106 17a2 2 0 01-1.92 1.76zm9.25-5.77l-1.87 4.74h-.06L109.46 13h-1.75l2.91 6.62-1.62 3.69h1.7L115.14 13zm-14.69 7h1.63V9.07h-1.63z" fill="#fff"/><path d="M10.44 7.54a2 2 0 00-.44 1.4v22.12a1.94 1.94 0 00.47 1.4l.07.08L22.9 20.15v-.3L10.51 7.47z" fill="url(#a)"/><path d="M27 24.28l-4.1-4.13v-.3l4.1-4.13.09.06L32 18.56c1.4.79 1.4 2.09 0 2.89l-4.89 2.78z" fill="url(#b)"/><path d="M27.12 24.22L22.9 20 10.44 32.46a1.62 1.62 0 002.07.07l14.61-8.31" fill="url(#c)"/><path d="M27.12 15.78l-14.61-8.3a1.6 1.6 0 00-2.07.06L22.9 20z" fill="url(#d)"/><path d="M27 24.13l-14.49 8.25a1.65 1.65 0 01-2 0l-.07.07.07.08a1.65 1.65 0 002 0l14.61-8.31z" style="isolation:isolate" opacity=".2"/><path d="M10.44 32.32a2 2 0 01-.44-1.41v.15a1.94 1.94 0 00.47 1.4l.07-.07zM32 21.3l-5 2.83.09.09L32 21.44A1.74 1.74 0 0033.06 20 1.86 1.86 0 0132 21.3z" style="isolation:isolate" opacity=".12"/><path d="M12.51 7.62L32 18.7a1.86 1.86 0 011.06 1.3A1.74 1.74 0 0032 18.56L12.51 7.48C11.12 6.68 10 7.34 10 8.94v.15c0-1.6 1.12-2.26 2.51-1.47z" style="isolation:isolate" fill="#fff" opacity=".25"/><path d="M41.44 32.38h6.81v.5h-6.81zm6.6-4.6v.49H41.7v-.49h2.86v-1.53h.67c0 .05 0 .09-.15.11v1.38zm-4.85.91a11.94 11.94 0 01.71 3.17 1.86 1.86 0 00-.52.11 11.43 11.43 0 00-.67-3.16zm4 .1a.23.23 0 01-.19.1 22.15 22.15 0 01-1 3.28l-.49-.17a22.26 22.26 0 00.91-3.41zm4.32 2.76a9.11 9.11 0 00-.72-.92l.39-.22a9 9 0 011.41 2l-.42.25c-.12-.24-.25-.48-.39-.71-.92.29-1.86.59-2.47.77 0 .06 0 .09-.09.12l-.23-.6.53-.13v-5.44h2.7v3.47H50V32zm.24-4.4H50v1h1.75zM50 29.67h1.75v-1H50zm5.64-3v4.64c0 .65-.33.67-1.4.67a2.55 2.55 0 00-.18-.53h.65c.37 0 .41 0 .41-.15v-4.13h-1.68v6h-.52v-6.5zm7.71.64h-3.26v1.3a18.65 18.65 0 012.8 1.64l-.35.45a18.81 18.81 0 00-2.49-1.55v4.07h-.53v-5.9h-3v-.5h6.76zm5.33 1.07a16.8 16.8 0 00.32 2.54 9.27 9.27 0 001-2.11l.59.16c0 .06-.07.08-.16.08a8.69 8.69 0 01-1.23 2.5c.25.73.56 1.18 1 1.18.22 0 .31-.39.36-1.33a1.09 1.09 0 00.4.27c-.09 1.19-.27 1.55-.8 1.55s-1-.46-1.27-1.21a5.83 5.83 0 01-1.32 1.21 1.62 1.62 0 00-.37-.37 5.52 5.52 0 00.55-.4h-1.52v.78h-.46v-.78h-1.66V32h1.66v-.4h-1.33v-1.86h1.33v-.44h-1.54v-.39h1.54v-.5l.62.05s0 .08-.15.09v.36h1.58v.39h-1.58v.44h1.37v1.86h-1.38v.4h1.62v.3a6.2 6.2 0 00.81-.89 16 16 0 01-.48-3.07H64v-.44h1.75v-.65h-1.39v-.42h1.41v-.63h.64s0 .09-.15.1v.49h1.4v.42h-1.4v.65h1.9v-1.69h.66q0 .09-.15.12v1.53h2.18v.44zm-3.84 1.67v.46h1v-.46zm0 .77v.47h1v-.47zm2.37-.31v-.46h-1v.46zm0 .78v-.47h-1v.47zm2.32-4.93a6 6 0 011.08 1l-.38.29a5.42 5.42 0 00-1.06-1.08z" fill="#fff" stroke="#fff" stroke-miterlimit="10" stroke-width=".2" data-name="Layer 3"/></svg>