<svg xmlns="http://www.w3.org/2000/svg" viewBox="0 0 162 24" fill="none"><path fill="url(#a)" d="m19.905 5.342-2.337-1.318-5.335-3.01-.166-.094a2.89 2.89 0 0 0-2.822 0l-.166.095-7.502 4.233-.166.095A2.756 2.756 0 0 0 0 7.733v8.842c.003.988.54 1.9 1.41 2.39l7.671 4.329c.563.317 1.28.13 1.608-.42a1.13 1.13 0 0 0 .118-.875 1.148 1.148 0 0 0-.549-.697l-7.502-4.233a.787.787 0 0 1-.404-.683V7.923c0-.283.155-.544.404-.684l1.328-.75 6.166-3.486c.25-.14.556-.14.805 0l7.505 4.234c.248.141.401.401.402.683v8.469a.787.787 0 0 1-.404.683l-2.539 1.433-1.281-1.904a5.904 5.904 0 0 0 2.032-4.446c0-3.297-2.744-5.98-6.118-5.98-3.375 0-6.12 2.683-6.12 5.98 0 3.298 2.745 5.98 6.12 5.98.704 0 1.402-.118 2.065-.351l1.946 2.89c.03.045.064.087.1.127l.02.02c.041.044.086.085.133.121l.035.028c.053.037.108.07.166.1l.04.017c.052.023.105.042.16.058l.036.011c.062.016.125.026.188.03h.107c.035 0 .071-.004.106-.007h.049a1.19 1.19 0 0 0 .197-.044c.018-.005.034-.012.052-.019a1.2 1.2 0 0 0 .15-.065c.01-.006.022-.01.033-.016l3.67-2.066a2.759 2.759 0 0 0 1.41-2.394V7.732a2.756 2.756 0 0 0-1.41-2.39Zm-13.02 6.813a3.71 3.71 0 0 1 2.304-3.45 3.808 3.808 0 0 1 4.114.785 3.67 3.67 0 0 1 .831 4.047 3.767 3.767 0 0 1-3.482 2.298c-2.07.005-3.755-1.64-3.766-3.68Z"/><path fill="url(#b)" d="m19.905 5.342-2.337-1.318-5.335-3.01-.166-.094a2.89 2.89 0 0 0-2.822 0l-.166.095-7.502 4.233-.166.095A2.756 2.756 0 0 0 0 7.733v8.842c.003.988.54 1.9 1.41 2.39l7.671 4.329c.563.317 1.28.13 1.608-.42a1.13 1.13 0 0 0 .118-.875 1.148 1.148 0 0 0-.549-.697l-7.502-4.233a.787.787 0 0 1-.404-.683V7.923c0-.283.155-.544.404-.684l1.328-.75 6.166-3.486c.25-.14.556-.14.805 0l7.505 4.234c.248.141.401.401.402.683v8.469a.787.787 0 0 1-.404.683l-2.539 1.433-1.281-1.904a5.904 5.904 0 0 0 2.032-4.446c0-3.297-2.744-5.98-6.118-5.98-3.375 0-6.12 2.683-6.12 5.98 0 3.298 2.745 5.98 6.12 5.98.704 0 1.402-.118 2.065-.351l1.946 2.89c.03.045.064.087.1.127l.02.02c.041.044.086.085.133.121l.035.028c.053.037.108.07.166.1l.04.017c.052.023.105.042.16.058l.036.011c.062.016.125.026.188.03h.107c.035 0 .071-.004.106-.007h.049a1.19 1.19 0 0 0 .197-.044c.018-.005.034-.012.052-.019a1.2 1.2 0 0 0 .15-.065c.01-.006.022-.01.033-.016l3.67-2.066a2.759 2.759 0 0 0 1.41-2.394V7.732a2.756 2.756 0 0 0-1.41-2.39Zm-13.02 6.813a3.71 3.71 0 0 1 2.304-3.45 3.808 3.808 0 0 1 4.114.785 3.67 3.67 0 0 1 .831 4.047 3.767 3.767 0 0 1-3.482 2.298c-2.07.005-3.755-1.64-3.766-3.68Z"/><path fill="url(#c)" d="m19.904 5.342-2.337-1.319-3.26-1.838a2.547 2.547 0 0 0-2.428-.036l-1.63.854c.25-.14.555-.14.805 0l7.504 4.234c.249.14.402.401.403.683v8.469a.786.786 0 0 1-.404.683l-2.539 1.433.396.623c.474.745 1.46.987 2.233.55l1.257-.709a2.75 2.75 0 0 0 1.41-2.394V7.732a2.748 2.748 0 0 0-1.41-2.39Z"/><path fill="url(#d)" d="M18.961 7.923v4.108h2.354V7.732a2.748 2.748 0 0 0-1.411-2.39l-2.337-1.319-3.26-1.838a2.547 2.547 0 0 0-2.428-.036l-1.63.854c.25-.14.555-.14.805 0l7.504 4.234a.789.789 0 0 1 .403.686Z"/><path fill="url(#e)" d="M18.96 12.692v3.697a.786.786 0 0 1-.404.683l-2.538 1.433.396.624c.474.744 1.46.986 2.233.548l1.256-.708a2.75 2.75 0 0 0 1.411-2.394v-3.883h-2.353Z" opacity=".9"/><path fill="url(#f)" d="m15.838 18.237-1.101-1.635c-.59.518-1.277.92-2.021 1.182l1.17 1.74a51.778 51.778 0 0 0 1.952-1.287Z" opacity=".9"/><path fill="#000" d="M31.104 18V6.458h2.507l3.632 6.519 3.615-6.519h2.524V18h-2.524v-7.19l-3.615 6.518-3.632-6.518V18h-2.507Zm18.827.202c-2.626 0-4.826-2.084-4.826-4.553 0-2.47 2.2-4.536 4.826-4.536 2.609 0 4.792 2.066 4.792 4.536 0 2.47-2.183 4.553-4.792 4.553Zm0-2.067c1.313 0 2.421-1.142 2.421-2.486 0-1.344-1.108-2.47-2.421-2.47-1.33 0-2.439 1.126-2.439 2.47 0 1.344 1.109 2.486 2.439 2.486ZM55.893 18v-1.73l4.434-4.872h-4.314V9.314h7.554v1.73l-4.434 4.873h4.468V18h-7.708Zm10.592-9.878a1.347 1.347 0 0 1-1.365-1.344c0-.69.597-1.31 1.365-1.31.733 0 1.33.62 1.33 1.31a1.34 1.34 0 0 1-1.33 1.344ZM65.223 18V9.314h2.49V18h-2.49Zm4.541 0V6.257h2.49V18h-2.49Zm4.541 0V6.257h2.49V18h-2.49Zm8.48-8.887c2.302 0 3.871 1.428 3.871 3.696V18h-2.404v-.874c-.631.706-1.637 1.076-2.592 1.076-1.876 0-3.326-1.11-3.326-2.772 0-1.714 1.62-2.89 3.667-2.89.716 0 1.5.151 2.25.437v-.168c0-.924-.58-1.73-2.029-1.73-.818 0-1.586.268-2.285.621l-.835-1.63c1.245-.621 2.455-.957 3.683-.957Zm-.563 7.392c.955 0 1.86-.437 2.03-1.243v-.807a5.653 5.653 0 0 0-1.893-.319c-.904 0-1.62.52-1.62 1.226s.63 1.143 1.483 1.143ZM93.666 18V6.458h1.722l4.11 7.544 4.11-7.544h1.722V18h-1.722V9.785l-4.11 7.543-4.11-7.543V18h-1.722Zm18.194.202c-2.523 0-4.655-2.084-4.655-4.553 0-2.47 2.132-4.536 4.655-4.536 2.507 0 4.622 2.066 4.622 4.536 0 2.47-2.115 4.553-4.622 4.553Zm0-1.445c1.586 0 2.933-1.411 2.933-3.108 0-1.68-1.347-3.091-2.933-3.091-1.62 0-2.967 1.41-2.967 3.09 0 1.698 1.347 3.109 2.967 3.109Zm10.716-7.644c1.944 0 3.308 1.394 3.308 3.36V18h-1.654v-5.242c0-1.293-.835-2.2-2.029-2.2-1.228 0-2.285.79-2.421 1.814V18h-1.689V9.314h1.689v1.26c.528-.856 1.602-1.461 2.796-1.461Zm6.194-1.243c-.58 0-1.023-.47-1.023-1.008 0-.521.443-.992 1.023-.992.546 0 1.006.47 1.006.992 0 .537-.46 1.008-1.006 1.008ZM127.917 18V9.314h1.688V18h-1.688Zm7.892-1.562.614 1.142a2.866 2.866 0 0 1-1.757.622c-1.364 0-2.319-.975-2.319-2.37v-5.106h-1.33V9.314h1.33V6.93h1.654v2.385h2.081v1.412h-2.081v4.99c0 .604.41 1.04.904 1.04.375 0 .716-.134.904-.318Zm6.147 1.764c-2.524 0-4.656-2.084-4.656-4.553 0-2.47 2.132-4.536 4.656-4.536 2.507 0 4.621 2.066 4.621 4.536 0 2.47-2.114 4.553-4.621 4.553Zm0-1.445c1.586 0 2.933-1.411 2.933-3.108 0-1.68-1.347-3.091-2.933-3.091-1.62 0-2.967 1.41-2.967 3.09 0 1.698 1.347 3.109 2.967 3.109Zm8.005-5.78c.563-1.142 1.756-1.864 3.274-1.864v1.445c-1.825 0-3.121.99-3.274 2.503V18h-1.688V9.314h1.688v1.664Z"/><defs><linearGradient id="a" x1="14.934" x2="4.704" y1="3.471" y2="21.455" gradientUnits="userSpaceOnUse"><stop stop-color="#FF980E"/><stop offset=".21" stop-color="#FF7139"/><stop offset=".36" stop-color="#FF5854"/><stop offset=".46" stop-color="#FF4F5E"/><stop offset=".69" stop-color="#FF3750"/><stop offset=".86" stop-color="#F92261"/><stop offset="1" stop-color="#F5156C"/></linearGradient><linearGradient id="b" x1="14.934" x2="4.704" y1="3.471" y2="21.455" gradientUnits="userSpaceOnUse"><stop stop-color="#FFF44F" stop-opacity=".8"/><stop offset=".09" stop-color="#FFF44F" stop-opacity=".7"/><stop offset=".75" stop-color="#FFF44F" stop-opacity="0"/></linearGradient><linearGradient id="c" x1="15.782" x2="15.782" y1="24.195" y2="2.078" gradientUnits="userSpaceOnUse"><stop stop-color="#3A8EE6"/><stop offset=".24" stop-color="#5C79F0"/><stop offset=".63" stop-color="#9059FF"/><stop offset="1" stop-color="#C139E6"/></linearGradient><linearGradient id="d" x1="11.965" x2="21.156" y1="1.997" y2="11.327" gradientUnits="userSpaceOnUse"><stop stop-color="#6E008B" stop-opacity=".5"/><stop offset=".5" stop-color="#C846CB" stop-opacity="0"/></linearGradient><linearGradient id="e" x1="20.416" x2="16.1" y1="13.369" y2="17.75" gradientUnits="userSpaceOnUse"><stop offset=".14" stop-color="#6A2BEA" stop-opacity="0"/><stop offset=".34" stop-color="#642DE4" stop-opacity=".03"/><stop offset=".55" stop-color="#5131D3" stop-opacity=".12"/><stop offset=".76" stop-color="#3139B7" stop-opacity=".27"/><stop offset=".98" stop-color="#054490" stop-opacity=".48"/><stop offset="1" stop-color="#00458B" stop-opacity=".5"/></linearGradient><linearGradient id="f" x1="13.387" x2="14.635" y1="17.081" y2="18.592" gradientUnits="userSpaceOnUse"><stop stop-color="#960E18" stop-opacity=".6"/><stop offset=".19" stop-color="#AC1624" stop-opacity=".48"/><stop offset=".58" stop-color="#E42C41" stop-opacity=".16"/><stop offset=".75" stop-color="#FF3750" stop-opacity="0"/></linearGradient></defs></svg>
