<svg xmlns="http://www.w3.org/2000/svg" xml:space="preserve" style="fill-rule:evenodd;clip-rule:evenodd;stroke-linejoin:round;stroke-miterlimit:2" viewBox="0 0 20 20"><path d="M0 0h20v20H0z" style="fill:none"/><path d="M10 2.5c2.56 0 4.819 1.29 6.171 3.254l1.133-1.133a.471.471 0 0 1 .805.333v3.575c0 .26-.211.471-.471.471h-3.575a.471.471 0 0 1-.333-.804l1.359-1.36A5.99 5.99 0 0 0 10 4c-3.309 0-6 2.691-6 6s2.691 6 6 6c2.968 0 5.432-2.167 5.91-5h1.515c-.491 3.663-3.629 6.5-7.425 6.5-4.136 0-7.5-3.364-7.5-7.5S5.864 2.5 10 2.5" style="fill-rule:nonzero"/></svg>