<svg width="18" height="19" viewBox="0 0 18 19" fill="none" xmlns="http://www.w3.org/2000/svg">
<path d="M8.99914 18.9861C8.56591 18.9861 8.13082 18.8792 7.74035 18.6775C5.74154 17.6353 3.90822 15.9507 2.57878 13.9342C1.91964 12.9367 1.45759 11.7328 1.20471 10.355L0.54743 6.78128C0.438052 6.18999 0.518975 5.57925 0.778565 5.03685C1.03816 4.49445 1.46304 4.04833 1.99215 3.76262L7.66505 0.730004C8.07447 0.509316 8.53217 0.393474 8.99728 0.392825C9.46238 0.392176 9.92041 0.506741 10.3304 0.726285L16.0033 3.81561C16.535 4.10037 16.962 4.54723 17.2223 5.09126C17.4826 5.63528 17.5627 6.24814 17.4508 6.84078L16.7954 10.3661C16.5435 11.7355 16.0805 12.9339 15.4241 13.9287C14.0956 15.9451 12.2623 17.6306 10.2598 18.6756C9.87061 18.8788 9.43819 18.9854 8.99914 18.9861ZM8.54825 1.83911L2.34729 5.16178L1.87594 6.31272L2.57692 10.103C2.79539 11.2949 3.18865 12.3259 3.74367 13.1663C4.94481 14.9885 6.59313 16.5057 8.38462 17.44H9.61552C11.4098 16.5029 13.059 14.9829 14.2593 13.1617C14.8124 12.3231 15.2047 11.2967 15.4232 10.1123L16.1233 6.31272L15.5562 5.16085L9.4584 1.84004H8.54825V1.83911Z" fill="currentColor"/>
</svg>
