<svg width="125" height="24" viewBox="0 0 125 24" fill="none" xmlns="http://www.w3.org/2000/svg">
<g clip-path="url(#clip0_10468_11294)">
<path fill-rule="evenodd" clip-rule="evenodd" d="M9.72133 13.9062C9.64237 13.9749 9.54416 14.0174 9.44017 14.0279C9.33617 14.0385 9.23147 14.0165 9.1404 13.9651C8.32449 13.2846 8.17653 12.9706 7.73268 12.3228C6.38153 13.7012 5.42636 14.1134 3.67922 14.1134C1.61007 14.1134 0 12.8332 0 10.2726C0 8.27263 1.08788 6.91385 2.61092 6.24646C3.94467 5.65976 5.80712 5.55289 7.23225 5.39149V5.07306C7.23225 4.48637 7.27794 3.7928 6.93417 3.28462C6.63391 2.83097 6.06386 2.64558 5.55473 2.64558C4.61698 2.64558 3.78148 3.12759 3.57696 4.12432C3.56435 4.2374 3.51487 4.34316 3.4362 4.42518C3.35752 4.5072 3.25404 4.56091 3.14181 4.57797L0.778925 4.31843C0.720579 4.31005 0.66454 4.28988 0.614205 4.25914C0.563871 4.2284 0.520291 4.18773 0.48611 4.1396C0.451928 4.09147 0.427858 4.03687 0.415358 3.97913C0.402859 3.9214 0.402191 3.86171 0.413396 3.80371C0.959513 0.907306 3.57043 0.0327148 5.90938 0.0327148C7.10605 0.0327148 8.66826 0.351145 9.60819 1.25845C10.8027 2.3795 10.6961 3.87568 10.6961 5.50054V9.33697C10.6961 10.4929 11.1747 10.9989 11.6251 11.6205C11.7818 11.8386 11.8166 12.1112 11.6251 12.2748C11.1225 12.6957 10.2305 13.4722 9.74091 13.9106L9.72133 13.9062ZM7.24313 7.89967C7.24313 8.85932 7.26489 9.65976 6.78404 10.5169C6.3924 11.2105 5.77231 11.6379 5.08042 11.6379C4.13831 11.6379 3.58784 10.9182 3.58784 9.84951C3.58784 7.75136 5.46553 7.36968 7.24313 7.36968V7.90403V7.89967Z" fill="#232F3E"/>
<path fill-rule="evenodd" clip-rule="evenodd" d="M16.4531 13.8103H13.9967C13.8864 13.8045 13.7819 13.7593 13.702 13.6829C13.6222 13.6064 13.5723 13.5038 13.5615 13.3937V0.743733C13.5655 0.621853 13.6169 0.506372 13.7047 0.421997C13.7926 0.337623 13.9098 0.291056 14.0315 0.292261H16.3226C16.4359 0.298531 16.543 0.346501 16.6233 0.426986C16.7036 0.507471 16.7515 0.614816 16.7577 0.728466V2.3795H16.8034C17.3996 0.780811 18.5244 0.0370813 20.0388 0.0370813C21.5531 0.0370813 22.5387 0.780811 23.2285 2.3795C23.4546 1.77524 23.8371 1.24216 24.3366 0.83495C24.8361 0.427742 25.4346 0.161066 26.0709 0.0622796C26.7071 -0.0365071 27.3581 0.0361522 27.9571 0.272803C28.5561 0.509454 29.0815 0.901577 29.4794 1.40895C30.2605 2.47329 30.0995 4.02618 30.0995 5.37405V13.3544C30.0984 13.4156 30.0852 13.476 30.0607 13.5321C30.0363 13.5881 30.001 13.6388 29.9569 13.6812C29.9128 13.7235 29.8608 13.7567 29.8039 13.7789C29.747 13.801 29.6863 13.8117 29.6252 13.8103H27.1688C27.0523 13.8042 26.9426 13.7539 26.8617 13.6696C26.7809 13.5854 26.7351 13.4735 26.7336 13.3566V6.65213C26.7336 6.11996 26.7793 4.78953 26.664 4.28354C26.4812 3.43294 25.9308 3.19302 25.2193 3.19302C24.9002 3.20279 24.5911 3.30615 24.33 3.49029C24.069 3.67443 23.8675 3.93127 23.7506 4.22901C23.4983 4.87023 23.52 5.93239 23.52 6.65213V13.3544C23.5189 13.4154 23.5058 13.4756 23.4814 13.5315C23.4571 13.5875 23.422 13.6381 23.3781 13.6804C23.3343 13.7227 23.2826 13.756 23.2259 13.7783C23.1692 13.8005 23.1087 13.8114 23.0479 13.8103H20.5849C20.4686 13.8037 20.3592 13.7532 20.2784 13.6691C20.1977 13.5849 20.1518 13.4733 20.1497 13.3566V6.65213C20.1497 5.24101 20.3673 3.16249 18.6267 3.16249C16.8861 3.16249 16.9296 5.1843 16.9296 6.65213V13.3544C16.9285 13.4156 16.9153 13.476 16.8908 13.5321C16.8663 13.5881 16.8311 13.6388 16.787 13.6812C16.7429 13.7235 16.6909 13.7567 16.634 13.7789C16.5771 13.801 16.5163 13.8117 16.4553 13.8103" fill="#232F3E"/>
<path fill-rule="evenodd" clip-rule="evenodd" d="M43.8396 11.6118C43.3892 10.9902 42.9105 10.4842 42.9105 9.33042V5.49182C42.9105 3.86477 43.0258 2.37077 41.8226 1.24972C40.8805 0.342416 39.3183 0.0239868 38.1238 0.0239868C35.7849 0.0239868 33.174 0.896397 32.6257 3.79498C32.6141 3.8533 32.6146 3.91337 32.6271 3.97149C32.6396 4.02962 32.6638 4.08457 32.6982 4.13298C32.7327 4.18139 32.7766 4.22223 32.8274 4.253C32.8781 4.28376 32.9346 4.3038 32.9934 4.31188L35.3758 4.56924C35.4879 4.55183 35.5912 4.49802 35.6698 4.41606C35.7484 4.33411 35.798 4.22854 35.811 4.11559C36.0177 3.11886 36.8488 2.63686 37.7866 2.63686C38.2935 2.63686 38.8745 2.82442 39.166 3.27808C39.512 3.78407 39.4663 4.47764 39.4663 5.06434V5.37622C38.0411 5.53544 36.1765 5.64231 34.8449 6.229C33.3045 6.8964 32.2231 8.25518 32.2231 10.2574C32.2231 12.8157 33.8332 14.096 35.9024 14.096C37.643 14.096 38.6047 13.6837 39.9536 12.3053C40.4019 12.9596 40.5476 13.2672 41.3635 13.9477C41.4546 13.9987 41.559 14.0207 41.6629 14.0106C41.7667 14.0004 41.865 13.9587 41.9445 13.8909C42.434 13.4547 43.3261 12.6761 43.8287 12.2552C44.0397 12.1047 44.0049 11.8386 43.8396 11.6118ZM39.0094 10.506C38.6199 11.1974 37.9976 11.6249 37.3079 11.6249C36.3658 11.6249 35.8153 10.9051 35.8153 9.8386C35.8153 7.73827 37.693 7.35877 39.4706 7.35877V7.89094C39.4706 8.85278 39.488 9.65103 39.0094 10.506Z" fill="#232F3E"/>
<path fill-rule="evenodd" clip-rule="evenodd" d="M45.9197 2.50818V0.700112C45.9169 0.639123 45.9269 0.578216 45.949 0.521332C45.9711 0.464448 46.0049 0.412854 46.0482 0.369888C46.0915 0.326921 46.1433 0.293539 46.2002 0.271902C46.2572 0.250264 46.318 0.240854 46.3788 0.244278H54.4575C54.5182 0.242213 54.5788 0.25251 54.6355 0.274547C54.6922 0.296584 54.7439 0.329905 54.7874 0.372501C54.8309 0.415097 54.8654 0.466085 54.8887 0.52239C54.912 0.578695 54.9237 0.639151 54.9231 0.700112V2.25082C54.9231 2.51036 54.7055 2.8506 54.316 3.38713L50.1299 9.37623C51.6834 9.33915 53.3261 9.57252 54.7381 10.3686C54.8662 10.4371 54.974 10.5383 55.0504 10.6621C55.1268 10.7858 55.1692 10.9276 55.1733 11.0731V13.0098C55.1733 13.2759 54.8839 13.5834 54.5771 13.4242C53.2564 12.7438 51.7924 12.3901 50.3075 12.3927C48.8226 12.3954 47.3599 12.7543 46.0416 13.4395C45.7609 13.59 45.4672 13.2868 45.4672 13.0207V11.1778C45.4415 10.7433 45.5461 10.3111 45.7674 9.93675L50.6172 2.95747H46.3875C46.3266 2.95984 46.2658 2.94977 46.2088 2.92787C46.1518 2.90596 46.0999 2.87269 46.0562 2.83006C46.0124 2.78744 45.9778 2.73635 45.9543 2.67989C45.9309 2.62343 45.9191 2.56279 45.9197 2.50164" fill="#232F3E"/>
<path fill-rule="evenodd" clip-rule="evenodd" d="M61.8983 2.59977C60.0858 2.59977 59.9705 5.07306 59.9705 6.61722C59.9705 8.16139 59.9488 11.4591 61.8743 11.4591C63.7999 11.4591 63.8717 8.79825 63.8717 7.17557C63.8717 6.11122 63.826 4.83314 63.504 3.82333C63.2277 2.95092 62.6772 2.59977 61.8983 2.59977ZM61.8743 0.0174408C65.5231 0.0174408 67.4965 3.15812 67.4965 7.14939C67.4965 11.0076 65.3207 14.0676 61.8743 14.0676C58.2952 14.0676 56.3457 10.9269 56.3457 7.01635C56.3457 3.10577 58.3191 0.0174408 61.8743 0.0174408Z" fill="#232F3E"/>
<path fill-rule="evenodd" clip-rule="evenodd" d="M72.2527 13.7841H69.8028C69.6864 13.778 69.5766 13.7277 69.4958 13.6435C69.415 13.5592 69.3692 13.4473 69.3677 13.3304V0.68048C69.3802 0.564639 69.4357 0.457743 69.5231 0.380987C69.6106 0.304231 69.7236 0.263219 69.8398 0.266085H72.12C72.2211 0.269335 72.3183 0.305622 72.3969 0.369413C72.4754 0.433204 72.531 0.520998 72.5552 0.619411V2.55398H72.603C73.2906 0.824427 74.2545 0 75.9515 0C77.0525 0 78.1273 0.399128 78.8214 1.48964C79.4632 2.50164 79.4632 4.20502 79.4632 5.42857V13.3871C79.4459 13.4994 79.3884 13.6015 79.3016 13.6745C79.2147 13.7476 79.1044 13.7865 78.9911 13.7841H76.5194C76.412 13.7795 76.3096 13.7372 76.2301 13.6647C76.1505 13.5921 76.099 13.4939 76.0843 13.3871V6.51908C76.0843 5.13631 76.2453 3.11232 74.546 3.11232C74.237 3.12664 73.9387 3.22963 73.6864 3.40904C73.4341 3.58845 73.2386 3.83672 73.1231 4.12432C72.7793 4.8964 72.7336 5.66848 72.7336 6.52345V13.3304C72.729 13.4538 72.6763 13.5705 72.5868 13.6554C72.4973 13.7402 72.3781 13.7865 72.2549 13.7841" fill="#232F3E"/>
<path fill-rule="evenodd" clip-rule="evenodd" d="M92.2526 2.18757C91.0034 2.19746 89.7913 2.6147 88.7996 3.37623V10.5736C89.8991 11.4024 91.0327 11.8161 92.2003 11.8146C94.5705 11.8146 95.7555 10.2152 95.7555 7.01636C95.7555 3.81752 94.5879 2.2072 92.2526 2.18539V2.18757ZM88.619 1.85169C89.2365 1.30586 89.9421 0.869252 90.7056 0.560523C91.4269 0.272328 92.1963 0.124296 92.9727 0.124318C93.7445 0.109918 94.5101 0.264747 95.216 0.577971C95.8811 0.883662 96.4637 1.3443 96.9152 1.92148C97.4069 2.56091 97.7704 3.28969 97.9857 4.06761C98.2466 4.98959 98.3727 5.94466 98.3599 6.90294C98.3718 7.88162 98.2369 8.85652 97.9596 9.79498C97.7275 10.5913 97.3473 11.3365 96.8391 11.9913C96.3671 12.5866 95.7678 13.0681 95.0854 13.4002C94.3684 13.7339 93.5847 13.8987 92.7943 13.8822C91.3172 13.9067 89.8874 13.36 88.8018 12.3555V18.41C88.812 18.4803 88.8057 18.552 88.7834 18.6194C88.7612 18.6868 88.7235 18.748 88.6734 18.7982C88.6233 18.8484 88.5622 18.8862 88.495 18.9085C88.4277 18.9309 88.3562 18.9372 88.2861 18.9269H86.7631C86.693 18.9372 86.6215 18.9309 86.5543 18.9085C86.487 18.8862 86.4259 18.8484 86.3759 18.7982C86.3258 18.748 86.2881 18.6868 86.2658 18.6194C86.2435 18.552 86.2372 18.4803 86.2474 18.41V1.02508C86.2377 0.95491 86.2443 0.883426 86.2667 0.816249C86.2892 0.749072 86.3269 0.688034 86.3769 0.637935C86.4269 0.587837 86.4878 0.550044 86.5548 0.527528C86.6218 0.505013 86.6931 0.498389 86.7631 0.508178H87.8967C87.9699 0.501314 88.0437 0.509396 88.1137 0.531936C88.1837 0.554476 88.2484 0.591006 88.3039 0.639319C88.3594 0.687632 88.4046 0.746725 88.4367 0.813028C88.4688 0.879331 88.4872 0.951468 88.4907 1.02508L88.619 1.85169Z" fill="#232F3E"/>
<path fill-rule="evenodd" clip-rule="evenodd" d="M104.787 12.0109C105.395 12.0032 105.996 11.8903 106.565 11.6772C107.203 11.4418 107.803 11.1109 108.343 10.6957V8.05889C107.896 7.95364 107.444 7.8721 106.989 7.81462C106.533 7.75457 106.073 7.72397 105.612 7.72301C103.668 7.72301 102.697 8.47256 102.699 9.97165C102.699 10.626 102.879 11.1298 103.24 11.4831C103.602 11.8364 104.117 12.0124 104.787 12.0109ZM101.772 2.759L101.578 2.82443C101.508 2.84931 101.435 2.86257 101.361 2.86369C101.143 2.86369 101.025 2.70884 101.025 2.39695V1.70556C101.009 1.53092 101.045 1.35534 101.13 1.20175C101.241 1.07675 101.383 0.982814 101.541 0.92912C102.195 0.662558 102.878 0.471578 103.575 0.359872C104.375 0.214834 105.185 0.141841 105.997 0.141769C107.629 0.141769 108.831 0.47692 109.605 1.14722C110.378 1.81752 110.765 2.85933 110.766 4.27263V13.0971C110.776 13.1672 110.77 13.2387 110.747 13.3059C110.725 13.3731 110.687 13.4341 110.637 13.4842C110.587 13.5343 110.526 13.5721 110.459 13.5946C110.392 13.6171 110.321 13.6237 110.251 13.614H109.141C109.071 13.6208 109.001 13.6134 108.934 13.5922C108.868 13.571 108.806 13.5363 108.753 13.4904C108.7 13.4445 108.657 13.3883 108.627 13.3251C108.596 13.262 108.579 13.1933 108.575 13.1232L108.445 12.2705C107.838 12.7975 107.145 13.2165 106.397 13.5093C105.688 13.7943 104.931 13.9423 104.167 13.9455C102.931 13.9455 101.952 13.5965 101.23 12.8986C100.508 12.2007 100.145 11.2665 100.142 10.096C100.142 8.8397 100.589 7.83643 101.482 7.08615C102.376 6.33588 103.578 5.96147 105.09 5.96293C106.185 5.97981 107.275 6.12622 108.336 6.39913V4.70229C108.336 3.77172 108.13 3.11741 107.718 2.73937C107.306 2.36133 106.585 2.17158 105.553 2.17012C104.271 2.18227 102.997 2.38062 101.772 2.759Z" fill="#232F3E"/>
<path fill-rule="evenodd" clip-rule="evenodd" d="M119.151 15.9019C118.686 17.0898 118.148 17.9426 117.539 18.4602C116.93 18.9778 116.132 19.2359 115.146 19.2345C114.65 19.2411 114.156 19.1802 113.677 19.0534C113.516 19.019 113.371 18.9324 113.264 18.807C113.166 18.6492 113.121 18.4643 113.135 18.2792V17.6074C113.135 17.2803 113.264 17.1167 113.523 17.1167C113.653 17.1226 113.782 17.1394 113.91 17.1669C114.139 17.2065 114.371 17.2241 114.604 17.2192C115.151 17.2538 115.692 17.0888 116.127 16.7546C116.488 16.4449 116.815 15.8764 117.106 15.0491L117.596 13.7405L112.631 1.4373C112.537 1.24142 112.477 1.03137 112.452 0.81571C112.452 0.610693 112.572 0.506004 112.811 0.506004H114.358C114.556 0.486955 114.755 0.532053 114.926 0.634684C115.072 0.797588 115.177 0.992625 115.233 1.20393L118.842 11.2257L122.324 1.20393C122.38 0.992625 122.485 0.797588 122.63 0.634684C122.801 0.532053 123 0.486955 123.198 0.506004H124.641C124.882 0.506004 125.002 0.610693 125.002 0.81571C124.976 1.0314 124.915 1.24138 124.821 1.4373L119.151 15.9019Z" fill="#232F3E"/>
<path fill-rule="evenodd" clip-rule="evenodd" d="M49.2531 18.7699C44.6383 22.1832 37.9391 24.0044 32.1864 24.0044C24.4902 24.0437 17.0567 21.2008 11.3425 16.0327C10.9074 15.6423 11.2946 15.108 11.8147 15.4111C17.7502 18.8724 25.0868 20.9575 32.6716 20.9575C38.1385 20.9276 43.5457 19.8158 48.5829 17.6859C49.3619 17.3544 50.0168 18.2007 49.2531 18.7765M51.1721 16.5802C51.7639 17.337 50.5194 20.4602 49.9602 21.8539C49.7905 22.2748 50.1539 22.4449 50.5346 22.1265C53.0085 20.0502 53.6481 15.7012 53.1455 15.0731C52.6429 14.4449 48.3153 13.9128 45.6739 15.7732C45.2671 16.0589 45.3367 16.4537 45.7893 16.3991C47.2753 16.2203 50.5868 15.8212 51.1765 16.5802" fill="#FF9900"/>
</g>
<defs>
<clipPath id="clip0_10468_11294">
<rect width="125" height="24" fill="white"/>
</clipPath>
</defs>
</svg>
