<svg width="38" height="24" fill="none" xmlns="http://www.w3.org/2000/svg"><g clip-path="url(#clip0)"><path d="M2.24.001h33.6c1.06 0 1.92.86 1.92 1.92v20.16c0 1.06-.86 1.92-1.92 1.92H2.24a1.92 1.92 0 01-1.92-1.92V1.921c0-1.06.86-1.92 1.92-1.92z" fill="#2557D6"/><path d="M.332 11.313H2.13l.406-.936h.907l.404.936h3.536v-.716l.316.72h1.835l.316-.73v.726h8.788l-.004-1.537h.17c.119.004.153.014.153.203v1.334h4.546v-.358c.366.188.936.358 1.687.358H27.1l.409-.936h.907l.4.936h3.685v-.89l.558.89h2.953v-5.88H33.09v.694l-.41-.694h-2.998v.694l-.376-.694h-4.05c-.678 0-1.274.09-1.755.343v-.343h-2.795v.343c-.307-.26-.724-.343-1.188-.343H9.307L8.622 6.95l-.704-1.518H4.702v.694l-.353-.694H1.606L.332 8.229v3.084zm11.345-.848h-1.079l-.004-3.302-1.525 3.302h-.924L6.616 7.16v3.305H4.477l-.404-.94h-2.19l-.409.94H.332l1.884-4.216h1.562l1.79 3.992V6.249h1.716l1.377 2.86 1.264-2.86h1.751v4.216zM3.713 8.649l-.72-1.68-.716 1.68h1.436zm12.255 1.816h-3.514V6.249h3.514v.878h-2.462v.76h2.403v.864h-2.403v.842h2.462v.872zm4.951-3.08c0 .671-.468 1.019-.74 1.123.23.084.426.232.52.355.148.21.174.397.174.774v.828h-1.061l-.004-.532c0-.254.025-.618-.166-.821-.154-.149-.388-.18-.767-.18h-1.129v1.533h-1.052V6.249h2.42c.537 0 .933.013 1.273.202.333.188.532.463.532.933zm-1.33.625c-.144.084-.315.087-.52.087h-1.277v-.936h1.295c.183 0 .374.008.499.076.136.061.22.192.22.372 0 .185-.08.333-.216.401zm3.017 2.455h-1.073V6.249h1.073v4.216zm12.46 0h-1.491L31.58 7.3v3.165h-2.142l-.41-.94h-2.184l-.397.94h-1.232c-.51 0-1.158-.108-1.525-.466-.37-.358-.562-.843-.562-1.61 0-.625.115-1.197.567-1.649.34-.336.873-.491 1.598-.491h1.018v.903h-.997c-.384 0-.6.055-.81.25-.179.177-.302.513-.302.955 0 .452.094.777.29.99.161.167.456.217.733.217h.472L27.18 6.25h1.576l1.781 3.988V6.249h1.602l1.849 2.936V6.25h1.077v4.216zM28.671 8.65l-.728-1.681-.724 1.68h1.452zm9.073 8.547c-.255.358-.753.54-1.427.54h-2.031v-.904h2.023c.2 0 .341-.026.426-.105.08-.07.125-.17.124-.275a.34.34 0 00-.129-.279c-.076-.064-.187-.093-.37-.093-.988-.033-2.22.029-2.22-1.306 0-.611.405-1.255 1.51-1.255h2.094v-.84H35.8c-.588 0-1.015.136-1.317.345v-.344h-2.88c-.46 0-1 .11-1.256.344v-.344h-5.142v.344c-.409-.283-1.099-.344-1.418-.344h-3.391v.344c-.324-.3-1.044-.344-1.483-.344h-3.795l-.869.9-.814-.9h-5.67v5.884h5.563l.895-.915.844.915 3.429.003v-1.384h.337c.455.006.991-.011 1.465-.207v1.588h2.828V17.03h.137c.174 0 .191.007.191.174v1.36h8.593c.545 0 1.115-.134 1.431-.377v.377h2.726c.567 0 1.12-.077 1.542-.271v-1.097zm-17.037-2.263c0 1.171-.912 1.413-1.831 1.413h-1.313v1.415H15.52l-1.295-1.396-1.346 1.396H8.712v-4.218h4.23l1.295 1.383 1.338-1.383h3.36c.835 0 1.773.222 1.773 1.39zm-8.362 1.94H9.76v-.838h2.309v-.86h-2.31v-.768h2.638l1.15 1.23-1.201 1.237zm4.167.484l-1.615-1.718 1.615-1.663v3.38zm2.388-1.876h-1.36V14.41h1.372c.38 0 .644.148.644.517 0 .364-.252.556-.656.556zm7.121-1.938h3.51v.873H27.07v.766h2.403v.86H27.07v.84l2.463.004v.875h-3.51v-4.218zm-1.35 2.258c.235.083.426.231.516.354.148.206.17.398.174.77v.836h-1.056v-.528c0-.254.025-.63-.17-.825-.154-.151-.388-.188-.772-.188H22.24v1.54h-1.057v-4.216h2.429c.532 0 .92.022 1.265.199.332.192.541.455.541.936 0 .673-.469 1.017-.745 1.122zm-.594-.533c-.14.08-.315.087-.52.087h-1.277v-.947h1.295c.187 0 .375.003.502.076.137.068.218.199.218.38a.45.45 0 01-.218.404zm9.496.268c.205.204.314.46.314.894 0 .907-.591 1.33-1.652 1.33h-2.049v-.904h2.04c.2 0 .342-.025.43-.104a.367.367 0 00-.004-.554c-.08-.064-.191-.094-.374-.094-.984-.032-2.216.03-2.216-1.305 0-.612.401-1.255 1.504-1.255h2.108v.897h-1.929c-.191 0-.316.007-.421.076-.116.069-.158.17-.158.304 0 .159.098.267.23.314.11.037.23.048.41.048l.565.014c.571.014.963.108 1.202.34zm4.173-1.129H35.83c-.191 0-.318.007-.425.077-.111.068-.154.17-.154.303 0 .16.094.267.23.314.11.037.23.048.405.048l.57.015c.576.013.96.108 1.194.34.043.031.068.067.097.103v-1.2z" fill="#fff"/></g><defs><clipPath id="clip0"><path fill="#fff" d="M.32 0h37.44v24H.32z"/></clipPath></defs></svg>