<svg width="59" height="38" viewBox="0 0 59 38" fill="none" xmlns="http://www.w3.org/2000/svg">
<path d="M53.7 33.4L51.1 30.5L48.4 33.4H43.1H31.7V19.9H26.4L33 4.8H39.4L41.7 10V4.8H49.7L51.1 8.7L52.5 4.8H58.6V2.5C58.6 1.1 57.5 0 56.1 0H2.5C1.1 0 0 1.1 0 2.5V35C0 36.4 1.1 37.5 2.5 37.5H56.1C57.5 37.5 58.6 36.4 58.6 35V33.4H53.7Z" fill="#0071CE"/>
<path d="M54.4 31.8H58.6L53.1 25.9L58.6 20.1H54.5L51 23.9L47.6 20.1H43.4L49 26L43.4 31.8H47.5L51 28L54.4 31.8Z" fill="#0071CE"/>
<path d="M36.7 29.1V27.3H43.3V24.6H36.7V22.8H43.4V20.1H33.5V31.8H43.4V29.1H36.7Z" fill="#0071CE"/>
<path d="M55.5 18.4H58.5V6.60001L53.7 6.70001L51.1 14L48.4 6.70001H43.4V18.4H46.6V10.2L49.6 18.4H52.4L55.5 10.2V18.4Z" fill="#0071CE"/>
<path d="M38.3 6.70001H34.2L29 18.4H32.5L33.5 16.1H38.9L39.9 18.4H43.5L38.3 6.70001ZM34.6 13.4L36.2 9.60001L37.8 13.4H34.6Z" fill="#0071CE"/>
</svg>
