<svg width="37" height="24" viewBox="0 0 37 24" fill="none" xmlns="http://www.w3.org/2000/svg">
<g clip-path="url(#clip0_10480_11384)">
<path d="M33.6865 0H3.31352C3.18702 0 3.0603 0 2.93403 0.000747416C2.82728 0.00151748 2.72079 0.00271788 2.6143 0.00566224C2.38204 0.0120266 2.1478 0.0259104 1.91845 0.0676751C1.68544 0.110165 1.46861 0.17947 1.25707 0.288593C1.04912 0.395745 0.858732 0.535897 0.693742 0.703137C0.528681 0.870377 0.390356 1.06296 0.284624 1.27389C0.176901 1.48822 0.108455 1.70798 0.0668097 1.94426C0.0253683 2.1767 0.0115738 2.41399 0.0053148 2.64907C0.00245354 2.75697 0.00122632 2.86487 0.000531123 2.97274C-0.000206548 3.10096 3.93424e-05 3.22909 3.93424e-05 3.35753V20.6427C3.93424e-05 20.7712 -0.000206548 20.8991 0.000531123 21.0275C0.00122632 21.1354 0.00245354 21.2433 0.0053148 21.3512C0.0115738 21.5861 0.0253683 21.8234 0.0668097 22.0557C0.108455 22.2921 0.176901 22.5118 0.284624 22.7261C0.390356 22.9371 0.528681 23.1299 0.693742 23.2969C0.858732 23.4644 1.04912 23.6045 1.25707 23.7114C1.46861 23.8208 1.68544 23.8902 1.91845 23.9326C2.1478 23.9741 2.38204 23.9882 2.6143 23.9946C2.72079 23.9971 2.82728 23.9985 2.93403 23.999C3.0603 24 3.18702 24 3.31352 24H33.6865C33.8128 24 33.9395 24 34.0658 23.999C34.1723 23.9985 34.2788 23.9971 34.3857 23.9946C34.6175 23.9882 34.8517 23.9741 35.0816 23.9326C35.3143 23.8902 35.5312 23.8208 35.7427 23.7114C35.9509 23.6045 36.1407 23.4644 36.3061 23.2969C36.4709 23.1299 36.6092 22.9371 36.7152 22.7261C36.8232 22.5118 36.8915 22.2921 36.933 22.0557C36.9744 21.8234 36.9879 21.5861 36.9942 21.3512C36.9971 21.2433 36.9985 21.1354 36.999 21.0275C37 20.8991 37 20.7712 37 20.6427V3.35753C37 3.22909 37 3.10096 36.999 2.97274C36.9985 2.86487 36.9971 2.75697 36.9942 2.64907C36.9879 2.41399 36.9744 2.1767 36.933 1.94426C36.8915 1.70798 36.8232 1.48822 36.7152 1.27389C36.6092 1.06296 36.4709 0.870377 36.3061 0.703137C36.1407 0.535897 35.9509 0.395745 35.7427 0.288593C35.5312 0.17947 35.3143 0.110165 35.0816 0.0676751C34.8517 0.0259104 34.6175 0.0120266 34.3857 0.00566224C34.2788 0.00271788 34.1723 0.00151748 34.0658 0.000747416C33.9395 0 33.8128 0 33.6865 0Z" fill="black"/>
<path d="M33.6865 0.799957L34.0602 0.800682C34.1614 0.801407 34.2626 0.802517 34.3644 0.805325C34.5414 0.810172 34.7485 0.819888 34.9416 0.854949C35.1094 0.88557 35.2501 0.932137 35.3852 1.0018C35.5185 1.07045 35.6407 1.16042 35.7473 1.26834C35.8544 1.37698 35.9433 1.50097 36.012 1.63756C36.0803 1.77334 36.126 1.91526 36.1561 2.08653C36.1906 2.28 36.2001 2.49041 36.205 2.6709C36.2077 2.77277 36.209 2.87465 36.2095 2.97895C36.2105 3.10508 36.2105 3.23114 36.2105 3.35752V20.6427C36.2105 20.7691 36.2105 20.8949 36.2095 21.0238C36.209 21.1256 36.2077 21.2275 36.205 21.3295C36.2001 21.5098 36.1906 21.7201 36.1556 21.9158C36.126 22.0847 36.0804 22.2267 36.0116 22.3631C35.9432 22.4994 35.8544 22.6232 35.7478 22.7312C35.6405 22.8399 35.5188 22.9296 35.3838 22.9989C35.2498 23.0682 35.1093 23.1147 34.9431 23.145C34.7462 23.1806 34.5304 23.1904 34.3679 23.1948C34.2656 23.1972 34.1639 23.1986 34.0597 23.1991C33.9354 23.2001 33.8108 23.2 33.6865 23.2H3.31352C3.31187 23.2 3.31026 23.2 3.30858 23.2C3.18577 23.2 3.06272 23.2 2.93767 23.1991C2.83571 23.1986 2.73398 23.1972 2.63563 23.1949C2.46941 23.1904 2.25349 23.1806 2.05814 23.1453C1.89056 23.1147 1.75006 23.0682 1.61424 22.998C1.48059 22.9293 1.35892 22.8397 1.2516 22.7308C1.14511 22.6231 1.05661 22.4996 0.988185 22.3632C0.919694 22.2268 0.873869 22.0845 0.843738 21.9135C0.808909 21.7182 0.799342 21.5087 0.79456 21.3297C0.791831 21.2272 0.790691 21.1248 0.790043 21.0229L0.789551 20.7221L0.789573 20.6427V3.35752L0.789551 3.27812L0.79002 2.978C0.790691 2.87551 0.791831 2.77304 0.79456 2.67065C0.799342 2.49147 0.808909 2.28192 0.844027 2.08492C0.873891 1.91553 0.919694 1.77316 0.988543 1.63616C1.05643 1.50074 1.14509 1.37712 1.25214 1.26868C1.35877 1.1606 1.48084 1.07075 1.61534 1.00144C1.74971 0.932114 1.89047 0.88557 2.05805 0.855017C2.25114 0.819866 2.45838 0.810172 2.63587 0.805302C2.73705 0.802517 2.83822 0.801407 2.93863 0.800705L3.31352 0.799957H33.6865Z" fill="white"/>
<path d="M10.1008 8.0722C10.4176 7.67071 10.6325 7.13163 10.5758 6.58075C10.1121 6.60411 9.54616 6.89075 9.21852 7.29255C8.92433 7.63664 8.66394 8.19829 8.73183 8.72607C9.25242 8.77183 9.77253 8.46242 10.1008 8.0722Z" fill="black"/>
<path d="M10.5699 8.82914C9.81391 8.78351 9.17111 9.26389 8.81007 9.26389C8.44883 9.26389 7.89596 8.85213 7.29798 8.86323C6.51968 8.87481 5.7975 9.32068 5.40255 10.0298C4.59019 11.4485 5.18817 13.5528 5.97814 14.7082C6.36177 15.2798 6.82411 15.9092 7.43331 15.8866C8.0089 15.8637 8.23451 15.509 8.93417 15.509C9.63331 15.509 9.83654 15.8866 10.4458 15.8752C11.0777 15.8637 11.4727 15.3033 11.8563 14.7311C12.2964 14.0795 12.4766 13.4503 12.4879 13.4158C12.4766 13.4043 11.2695 12.9351 11.2583 11.5283C11.2469 10.3503 12.206 9.79001 12.2512 9.75526C11.7096 8.94364 10.8633 8.85213 10.5699 8.82914Z" fill="black"/>
<path d="M17.1528 7.23493C18.796 7.23493 19.9402 8.38257 19.9402 10.0534C19.9402 11.7303 18.7725 12.8839 17.1116 12.8839H15.2923V15.8154H13.9778V7.23492L17.1528 7.23493ZM15.2923 11.766H16.8005C17.945 11.766 18.5963 11.1417 18.5963 10.0594C18.5963 8.97726 17.945 8.35882 16.8064 8.35882H15.2923V11.766Z" fill="black"/>
<path d="M20.2837 14.0375C20.2837 12.9433 21.1112 12.2714 22.5785 12.1881L24.2686 12.0871V11.6055C24.2686 10.9098 23.8049 10.4935 23.0304 10.4935C22.2966 10.4935 21.8388 10.8502 21.7274 11.4093H20.5302C20.6007 10.2794 21.5513 9.44693 23.0772 9.44693C24.5737 9.44693 25.5303 10.2497 25.5303 11.5043V15.8154H24.3154V14.7867H24.2862C23.9283 15.4824 23.1476 15.9224 22.3378 15.9224C21.1288 15.9224 20.2837 15.1613 20.2837 14.0375ZM24.2686 13.4726V12.9791L22.7485 13.0742C21.9914 13.1277 21.5631 13.4667 21.5631 14.0018C21.5631 14.5488 22.0091 14.9056 22.6899 14.9056C23.576 14.9056 24.2686 14.2872 24.2686 13.4726Z" fill="black"/>
<path d="M26.6772 18.1166V17.076C26.7709 17.0997 26.9822 17.0997 27.0879 17.0997C27.6747 17.0997 27.9917 16.8501 28.1853 16.2079C28.1853 16.1959 28.2969 15.8273 28.2969 15.8214L26.0668 9.55991H27.4399L29.0012 14.65H29.0245L30.5858 9.55991H31.9238L29.6113 16.1424C29.0834 17.6588 28.473 18.1463 27.1936 18.1463C27.0879 18.1463 26.7709 18.1344 26.6772 18.1166Z" fill="black"/>
</g>
<defs>
<clipPath id="clip0_10480_11384">
<rect width="37" height="24" fill="white"/>
</clipPath>
</defs>
</svg>
