<?xml version="1.0" encoding="UTF-8" standalone="no"?>
<!-- Created with Inkscape (http://www.inkscape.org/) -->

<svg
   version="1.1"
   id="svg1714"
   width="359.71899"
   height="263.65866"
   viewBox="0 0 359.719 263.65866"
   sodipodi:docname="08-11-22_03_30_DCI_AcceptanceMark_4color(1).ai"
   inkscape:version="1.2.1 (9c6d41e, 2022-07-14)"
   xmlns:inkscape="http://www.inkscape.org/namespaces/inkscape"
   xmlns:sodipodi="http://sodipodi.sourceforge.net/DTD/sodipodi-0.dtd"
   xmlns="http://www.w3.org/2000/svg"
   xmlns:svg="http://www.w3.org/2000/svg">
  <defs
     id="defs1718">
    <clipPath
       clipPathUnits="userSpaceOnUse"
       id="clipPath1730">
      <path
         d="M 0,792 H 612 V 0 H 0 Z"
         id="path1728" />
    </clipPath>
  </defs>
  <sodipodi:namedview
     id="namedview1716"
     pagecolor="#ffffff"
     bordercolor="#000000"
     borderopacity="0.25"
     inkscape:showpageshadow="2"
     inkscape:pageopacity="0.0"
     inkscape:pagecheckerboard="0"
     inkscape:deskcolor="#d1d1d1"
     showgrid="false"
     inkscape:zoom="0.47654252"
     inkscape:cx="430.18197"
     inkscape:cy="470.0525"
     inkscape:window-width="1419"
     inkscape:window-height="456"
     inkscape:window-x="0"
     inkscape:window-y="31"
     inkscape:window-maximized="0"
     inkscape:current-layer="g1722" />
  <g
     id="g1722"
     inkscape:groupmode="layer"
     inkscape:label="Page 1"
     transform="matrix(1.3333333,0,0,-1.3333333,-227.20799,659.96332)">
    <g
       id="g1724">
      <g
         id="g1726"
         clip-path="url(#clipPath1730)">
        <g
           id="g1732"
           transform="translate(438.6641,316.4316)">
          <path
             d="m 0,0 c 0,-9.761 -8.096,-17.672 -18.082,-17.672 h -230.563 c -9.985,0 -18.08,7.911 -18.08,17.672 v 159.335 c 0,9.762 8.095,17.673 18.08,17.673 H -18.082 C -8.096,177.008 0,169.097 0,159.335 Z"
             style="fill:#ffffff;fill-opacity:1;fill-rule:nonzero;stroke:none"
             id="path1734" />
        </g>
        <g
           id="g1736"
           transform="translate(190.019,297.2285)">
          <path
             d="m 0,0 c -10.806,0.018 -19.609,8.569 -19.613,19.203 v 159.335 c 0.004,10.636 8.807,19.189 19.613,19.206 h 230.561 c 10.807,-0.017 19.609,-8.57 19.615,-19.206 V 19.203 C 250.17,8.569 241.368,0.018 230.561,0 Z M -16.549,178.538 V 19.203 C -16.531,10.318 -9.168,3.068 0,3.066 h 230.561 c 9.166,0.002 16.533,7.252 16.549,16.137 v 159.335 c -0.016,8.888 -7.383,16.14 -16.549,16.14 H 0 c -9.168,0 -16.531,-7.252 -16.549,-16.14"
             style="fill:#1266ac;fill-opacity:1;fill-rule:nonzero;stroke:none"
             id="path1738" />
        </g>
        <g
           id="g1740"
           transform="translate(196.4453,375.6367)">
          <path
             d="M 0,0 C 0,4.366 -2.28,4.079 -4.462,4.125 V 5.387 C -2.57,5.295 -0.63,5.295 1.267,5.295 c 2.038,0 4.805,0.092 8.4,0.092 12.572,0 19.42,-8.395 19.42,-16.992 0,-4.811 -2.817,-16.897 -20.005,-16.897 -2.473,0 -4.758,0.096 -7.039,0.096 -2.183,0 -4.323,-0.045 -6.505,-0.096 v 1.263 c 2.91,0.294 4.322,0.389 4.462,3.69 z m 4.759,-22.77 c 0,-3.74 2.673,-4.175 5.051,-4.175 10.49,0 13.932,7.912 13.932,15.145 0,9.079 -5.825,15.632 -15.194,15.632 -1.995,0 -2.913,-0.142 -3.789,-0.194 z"
             style="fill:#231f20;fill-opacity:1;fill-rule:nonzero;stroke:none"
             id="path1742" />
        </g>
        <g
           id="g1744"
           transform="translate(227.2329,348.3975)">
          <path
             d="m 0,0 h 0.92 c 1.359,0 2.331,0 2.331,1.606 v 13.156 c 0,2.134 -0.727,2.428 -2.526,3.396 v 0.776 c 2.282,0.685 5.003,1.601 5.195,1.748 0.342,0.194 0.629,0.246 0.876,0.246 0.238,0 0.338,-0.292 0.338,-0.684 V 1.606 C 7.134,0 8.204,0 9.565,0 h 0.822 v -1.263 c -1.651,0 -3.353,0.096 -5.095,0.096 -1.748,0 -3.497,-0.045 -5.292,-0.096 z m 5.194,28.402 c -1.265,0 -2.379,1.165 -2.379,2.427 0,1.216 1.167,2.335 2.379,2.335 1.26,0 2.38,-1.022 2.38,-2.335 0,-1.312 -1.071,-2.427 -2.38,-2.427"
             style="fill:#231f20;fill-opacity:1;fill-rule:nonzero;stroke:none"
             id="path1746" />
        </g>
        <g
           id="g1748"
           transform="translate(242.2339,362.8672)">
          <path
             d="m 0,0 c 0,1.794 -0.536,2.278 -2.814,3.202 v 0.922 c 2.084,0.68 4.073,1.313 6.406,2.334 0.147,0 0.288,-0.097 0.288,-0.484 V 2.816 c 2.772,1.988 5.151,3.642 8.409,3.642 4.121,0 5.577,-3.011 5.577,-6.798 v -12.523 c 0,-1.607 1.071,-1.607 2.429,-1.607 h 0.876 v -1.262 c -1.705,0 -3.402,0.095 -5.148,0.095 -1.749,0 -3.498,-0.045 -5.246,-0.095 v 1.262 h 0.876 c 1.36,0 2.327,0 2.327,1.607 v 12.568 c 0,2.772 -1.691,4.129 -4.462,4.129 -1.555,0 -4.031,-1.26 -5.638,-2.332 v -14.365 c 0,-1.607 1.073,-1.607 2.433,-1.607 h 0.872 v -1.262 c -1.698,0 -3.398,0.095 -5.149,0.095 -1.744,0 -3.494,-0.045 -5.24,-0.095 v 1.262 h 0.876 c 1.358,0 2.328,0 2.328,1.607 z"
             style="fill:#231f20;fill-opacity:1;fill-rule:nonzero;stroke:none"
             id="path1750" />
        </g>
        <g
           id="g1752"
           transform="translate(267.0952,360.5332)">
          <path
             d="m 0,0 c -0.1,-0.436 -0.1,-1.163 0,-2.815 0.285,-4.612 3.253,-8.397 7.133,-8.397 2.674,0 4.764,1.457 6.557,3.25 l 0.677,-0.68 c -2.234,-2.961 -5,-5.487 -8.978,-5.487 -7.721,0 -9.275,7.482 -9.275,10.586 0,9.518 6.408,12.335 9.803,12.335 3.937,0 8.163,-2.476 8.209,-7.623 0,-0.296 0,-0.583 -0.046,-0.876 L 13.641,0 Z m 8.596,1.556 c 1.211,0 1.353,0.632 1.353,1.216 0,2.472 -1.504,4.463 -4.224,4.463 -2.959,0 -4.998,-2.18 -5.581,-5.679 z"
             style="fill:#231f20;fill-opacity:1;fill-rule:nonzero;stroke:none"
             id="path1754" />
        </g>
        <g
           id="g1756"
           transform="translate(282.3394,348.3975)">
          <path
             d="m 0,0 h 1.312 c 1.354,0 2.326,0 2.326,1.606 v 13.64 c 0,1.502 -1.795,1.798 -2.524,2.187 v 0.725 c 3.544,1.506 5.487,2.77 5.931,2.77 0.284,0 0.43,-0.146 0.43,-0.634 v -4.37 h 0.102 c 1.21,1.893 3.253,5.004 6.213,5.004 1.213,0 2.765,-0.824 2.765,-2.573 0,-1.311 -0.918,-2.482 -2.276,-2.482 -1.511,0 -1.511,1.171 -3.211,1.171 -0.825,0 -3.544,-1.12 -3.544,-4.035 V 1.606 C 7.524,0 8.494,0 9.854,0 h 2.717 V -1.263 C 9.901,-1.212 7.868,-1.167 5.779,-1.167 3.787,-1.167 1.747,-1.212 0,-1.263 Z"
             style="fill:#231f20;fill-opacity:1;fill-rule:nonzero;stroke:none"
             id="path1758" />
        </g>
        <g
           id="g1760"
           transform="translate(301.0293,353.8857)">
          <path
             d="m 0,0 c 0.634,-3.204 2.572,-5.927 6.122,-5.927 2.86,0 3.928,1.75 3.928,3.447 0,5.733 -10.581,3.886 -10.581,11.702 0,2.722 2.186,6.216 7.526,6.216 1.552,0 3.639,-0.439 5.53,-1.411 L 12.866,9.079 H 11.75 c -0.484,3.057 -2.182,4.804 -5.293,4.804 -1.942,0 -3.784,-1.115 -3.784,-3.203 0,-5.684 11.261,-3.933 11.261,-11.556 0,-3.202 -2.571,-6.605 -8.351,-6.605 -1.94,0 -4.225,0.681 -5.92,1.652 l -0.537,5.584 z"
             style="fill:#231f20;fill-opacity:1;fill-rule:nonzero;stroke:none"
             id="path1762" />
        </g>
        <g
           id="g1764"
           transform="translate(358.8037,372.2383)">
          <path
             d="m 0,0 h -1.211 c -0.924,5.676 -4.954,7.96 -10.388,7.96 -5.589,0 -13.695,-3.735 -13.695,-15.388 0,-9.81 6.994,-16.851 14.469,-16.851 4.803,0 8.792,3.302 9.762,8.403 l 1.116,-0.29 -1.116,-7.091 c -2.039,-1.264 -7.528,-2.577 -10.736,-2.577 -11.356,0 -18.541,7.333 -18.541,18.257 0,9.955 8.885,17.095 18.402,17.095 3.93,0 7.716,-1.267 11.455,-2.579 z"
             style="fill:#231f20;fill-opacity:1;fill-rule:nonzero;stroke:none"
             id="path1766" />
        </g>
        <g
           id="g1768"
           transform="translate(360.5566,348.3975)">
          <path
             d="m 0,0 h 0.919 c 1.364,0 2.333,0 2.333,1.606 v 27.037 c 0,3.158 -0.727,3.254 -2.574,3.79 v 0.777 c 1.941,0.63 3.982,1.502 5.004,2.089 0.527,0.287 0.92,0.535 1.062,0.535 0.297,0 0.393,-0.295 0.393,-0.685 V 1.606 C 7.137,0 8.206,0 9.565,0 h 0.821 v -1.263 c -1.646,0 -3.345,0.096 -5.094,0.096 -1.747,0 -3.493,-0.045 -5.292,-0.096 z"
             style="fill:#231f20;fill-opacity:1;fill-rule:nonzero;stroke:none"
             id="path1770" />
        </g>
        <g
           id="g1772"
           transform="translate(391.7295,349.8076)">
          <path
             d="m 0,0 c 0,-0.877 0.531,-0.923 1.355,-0.923 0.585,0 1.31,0.046 1.946,0.046 V -1.899 C 1.212,-2.091 -2.77,-3.111 -3.694,-3.403 l -0.242,0.148 v 3.933 c -2.911,-2.378 -5.147,-4.081 -8.599,-4.081 -2.62,0 -5.338,1.703 -5.338,5.776 v 12.433 c 0,1.264 -0.192,2.478 -2.907,2.717 v 0.925 c 1.749,0.048 5.625,0.338 6.258,0.338 0.539,0 0.539,-0.338 0.539,-1.408 V 4.854 c 0,-1.458 0,-5.63 4.222,-5.63 1.649,0 3.833,1.259 5.871,2.956 v 13.064 c 0,0.97 -2.329,1.504 -4.074,1.988 v 0.873 c 4.365,0.295 7.087,0.681 7.572,0.681 C 0,18.786 0,18.448 0,17.912 Z"
             style="fill:#231f20;fill-opacity:1;fill-rule:nonzero;stroke:none"
             id="path1774" />
        </g>
        <g
           id="g1776"
           transform="translate(401.3887,365.8301)">
          <path
             d="m 0,0 c 1.941,1.646 4.564,3.495 7.234,3.495 5.633,0 9.032,-4.908 9.032,-10.199 0,-6.359 -4.663,-12.722 -11.609,-12.722 -3.589,0 -5.483,1.169 -6.748,1.703 l -1.452,-1.117 -1.018,0.532 c 0.434,2.865 0.679,5.681 0.679,8.644 V 11.21 c 0,3.158 -0.731,3.255 -2.576,3.79 v 0.777 c 1.944,0.63 3.981,1.502 5,2.089 0.536,0.287 0.923,0.535 1.071,0.535 0.289,0 0.387,-0.296 0.387,-0.684 z m 0,-13.207 c 0,-1.845 1.749,-4.954 5.001,-4.954 5.194,0 7.378,5.098 7.378,9.422 0,5.242 -3.977,9.61 -7.763,9.61 C 2.813,0.871 1.31,-0.295 0,-1.413 Z"
             style="fill:#231f20;fill-opacity:1;fill-rule:nonzero;stroke:none"
             id="path1778" />
        </g>
        <g
           id="g1780"
           transform="translate(191.9287,318.9043)">
          <path
             d="m 0,0 h 0.371 c 0.95,0 1.954,0.13 1.954,1.506 v 13.84 c 0,1.377 -1.004,1.508 -1.954,1.508 H 0 v 0.793 c 1.03,0 2.615,-0.105 3.913,-0.105 1.32,0 2.903,0.105 4.145,0.105 V 16.854 H 7.685 c -0.946,0 -1.952,-0.131 -1.952,-1.508 V 1.506 C 5.733,0.13 6.739,0 7.685,0 h 0.373 v -0.794 c -1.267,0 -2.856,0.103 -4.172,0.103 C 2.589,-0.691 1.03,-0.794 0,-0.794 Z"
             style="fill:#231f20;fill-opacity:1;fill-rule:nonzero;stroke:none"
             id="path1782" />
        </g>
        <g
           id="g1784"
           transform="translate(199.9868,317.998)">
          <path
             d="M 0,0 C -1.278,0 -2.859,0.105 -4.174,0.105 -5.467,0.105 -7.021,0 -8.058,0 h -0.115 v 0.112 0.793 0.116 h 0.115 0.369 c 0.959,0.023 1.831,0.1 1.839,1.391 v 13.84 c -0.008,1.293 -0.88,1.377 -1.839,1.394 h -0.484 v 0.115 0.908 h 0.115 c 1.037,0 2.621,-0.103 3.913,-0.103 1.314,0 2.896,0.103 4.145,0.103 H 0.118 V 18.551 17.646 H 0 -0.368 C -1.328,17.629 -2.205,17.545 -2.21,16.252 V 2.412 C -2.205,1.121 -1.328,1.044 -0.368,1.021 H 0.118 V 0.905 0 Z m -0.114,0.226 0.001,0.562 h -0.255 c -0.945,0 -2.068,0.165 -2.074,1.624 v 13.84 c 0.006,1.461 1.129,1.624 2.074,1.624 h 0.254 v 0.564 c -1.219,-0.001 -2.75,-0.107 -4.031,-0.107 -1.255,0 -2.774,0.099 -3.797,0.107 v -0.564 h 0.253 c 0.942,0 2.067,-0.163 2.067,-1.624 V 2.412 c 0,-1.459 -1.125,-1.624 -2.067,-1.624 H -7.942 V 0.226 c 1.023,0.008 2.515,0.106 3.768,0.106 1.287,0 2.814,-0.099 4.06,-0.106"
             style="fill:#231f20;fill-opacity:1;fill-rule:nonzero;stroke:none"
             id="path1786" />
        </g>
        <g
           id="g1788"
           transform="translate(218.1362,323.3174)">
          <path
             d="m 0,0 0.053,0.053 v 9.903 c 0,2.168 -1.508,2.485 -2.3,2.485 h -0.582 v 0.793 c 1.244,0 2.459,-0.105 3.698,-0.105 1.083,0 2.172,0.105 3.25,0.105 V 12.441 H 3.727 c -1.113,0 -2.355,-0.211 -2.355,-3.355 v -12.02 c 0,-0.925 0.026,-1.85 0.156,-2.67 H 0.524 L -13.079,9.563 V -1.324 c 0,-2.3 0.446,-3.089 2.481,-3.089 h 0.45 v -0.794 c -1.136,0 -2.271,0.103 -3.407,0.103 -1.186,0 -2.403,-0.103 -3.593,-0.103 v 0.794 h 0.37 c 1.823,0 2.377,1.242 2.377,3.349 v 11.131 c 0,1.478 -1.218,2.374 -2.402,2.374 h -0.345 v 0.793 c 1.002,0 2.034,-0.105 3.035,-0.105 0.795,0 1.562,0.105 2.354,0.105 z"
             style="fill:#231f20;fill-opacity:1;fill-rule:nonzero;stroke:none"
             id="path1790" />
        </g>
        <g
           id="g1792"
           transform="translate(219.6636,317.6025)">
          <path
             d="M 0,0 -1.088,0.037 -14.495,14.98 V 4.391 c 0.032,-2.297 0.381,-2.95 2.37,-2.975 h 0.566 V 1.302 0.395 h -0.117 c -1.143,0 -2.28,0.106 -3.407,0.106 -1.183,0 -2.397,-0.106 -3.594,-0.106 h -0.116 v 0.113 0.908 h 0.116 0.372 c 1.746,0.01 2.245,1.132 2.264,3.236 v 11.126 c -0.005,1.408 -1.159,2.263 -2.289,2.263 h -0.463 v 0.12 0.903 h 0.116 c 1.01,0 2.044,-0.103 3.035,-0.103 0.788,0 1.551,0.103 2.442,0.062 L -1.59,5.954 v 9.717 c -0.013,2.099 -1.415,2.354 -2.184,2.37 h -0.699 v 0.12 0.903 h 0.117 c 1.248,0 2.464,-0.103 3.698,-0.103 1.075,0 2.158,0.103 3.25,0.103 H 2.708 V 18.949 18.041 H 2.592 2.199 c -1.091,-0.028 -2.21,-0.124 -2.242,-3.24 V 2.781 c 0,-0.924 0.029,-1.846 0.156,-2.649 L 0.137,0 Z m -1.003,0.23 h 0.874 c -0.118,0.795 -0.139,1.672 -0.139,2.551 v 12.02 c 0,3.171 1.329,3.47 2.467,3.472 h 0.278 v 0.562 c -1.041,-0.008 -2.084,-0.103 -3.135,-0.103 -1.21,0 -2.386,0.095 -3.58,0.103 l -0.003,-0.562 h 0.467 c 0.812,-0.002 2.413,-0.363 2.413,-2.602 L -1.396,5.685 -1.448,5.633 -1.538,5.548 -13.287,18.835 c -0.785,0 -1.549,-0.103 -2.355,-0.103 -0.968,0 -1.96,0.095 -2.918,0.103 l -0.005,-0.562 h 0.235 c 1.239,-0.002 2.514,-0.948 2.514,-2.495 V 4.652 c 0,-2.114 -0.589,-3.464 -2.489,-3.471 L -18.56,1.188 V 0.621 c 1.144,0.009 2.323,0.107 3.477,0.107 1.102,0 2.202,-0.098 3.292,-0.107 v 0.56 h -0.334 c -2.079,0.007 -2.594,0.913 -2.596,3.21 v 11.183 z m -0.524,5.485 0.083,0.076 z M -1.59,5.768 v 0.009 l -0.021,0.017 z"
             style="fill:#231f20;fill-opacity:1;fill-rule:nonzero;stroke:none"
             id="path1794" />
        </g>
        <g
           id="g1796"
           transform="translate(226.2144,335.2305)">
          <path
             d="M 0,0 C -1.984,0 -2.06,-0.478 -2.457,-2.403 H -3.25 c 0.104,0.739 0.236,1.478 0.318,2.244 0.106,0.743 0.158,1.48 0.158,2.244 h 0.634 c 0.212,-0.793 0.873,-0.764 1.589,-0.764 h 13.626 c 0.717,0 1.376,0.027 1.431,0.82 l 0.63,-0.109 C 15.034,1.321 14.926,0.607 14.849,-0.108 14.798,-0.82 14.798,-1.532 14.798,-2.245 L 14.003,-2.539 C 13.949,-1.562 13.819,0 12.049,0 H 7.716 v -14.055 c 0,-2.038 0.925,-2.271 2.191,-2.271 h 0.504 v -0.794 c -1.03,0 -2.881,0.102 -4.305,0.102 -1.587,0 -3.438,-0.102 -4.469,-0.102 v 0.794 h 0.504 c 1.456,0 2.192,0.13 2.192,2.217 V 0 Z"
             style="fill:#231f20;fill-opacity:1;fill-rule:nonzero;stroke:none"
             id="path1798" />
        </g>
        <g
           id="g1800"
           transform="translate(236.6274,317.998)">
          <path
             d="M 0,0 C -1.041,0 -2.888,0.105 -4.307,0.105 -5.892,0.105 -7.739,0 -8.776,0 h -0.112 v 0.112 0.909 h 0.112 0.504 c 1.456,0.034 2.041,0.052 2.075,2.102 v 13.996 h -4.216 v 0.114 0.118 h 4.445 V 3.123 c 0,-2.121 -0.855,-2.335 -2.304,-2.338 H -8.663 V 0.228 c 1.042,0.006 2.822,0.104 4.356,0.104 1.376,0 3.14,-0.098 4.187,-0.104 v 0.557 h -0.386 c -1.277,0.003 -2.306,0.317 -2.306,2.393 v 14.173 h 4.448 c 1.772,-0.007 2.006,-1.513 2.062,-2.496 l 0.571,0.211 c 0,0.69 0.003,1.38 0.051,2.075 0.077,0.682 0.173,1.353 0.273,2.031 L 4.191,19.238 C 4.068,18.47 3.324,18.429 2.661,18.439 h -13.625 -0.138 c -0.621,-0.002 -1.299,0.029 -1.536,0.766 h -0.436 c -0.005,-0.73 -0.055,-1.439 -0.155,-2.143 -0.079,-0.726 -0.199,-1.423 -0.296,-2.123 h 0.564 c 0.348,1.842 0.574,2.438 2.548,2.412 v -0.118 -0.114 c -1.956,-0.038 -1.914,-0.365 -2.345,-2.317 l -0.019,-0.09 h -0.093 -0.925 l 0.015,0.137 c 0.107,0.737 0.241,1.478 0.318,2.246 0.11,0.732 0.161,1.466 0.161,2.222 v 0.118 h 0.113 0.725 l 0.02,-0.083 c 0.179,-0.666 0.667,-0.671 1.341,-0.683 h 0.138 13.625 c 0.736,0.012 1.272,0.022 1.317,0.713 l 0.01,0.125 0.119,-0.024 0.747,-0.119 -0.019,-0.116 C 4.73,18.539 4.627,17.827 4.548,17.119 4.498,16.412 4.498,15.701 4.498,14.987 v -0.08 L 4.421,14.877 3.487,14.534 3.48,14.688 C 3.408,15.682 3.305,17.119 1.636,17.119 H -2.582 V 3.178 C -2.555,1.186 -1.765,1.046 -0.506,1.021 H 0.113 V 0.906 0 Z"
             style="fill:#231f20;fill-opacity:1;fill-rule:nonzero;stroke:none"
             id="path1802" />
        </g>
        <g
           id="g1804"
           transform="translate(242.1943,318.9043)">
          <path
             d="m 0,0 h 0.372 c 0.949,0 1.955,0.13 1.955,1.506 v 13.84 c 0,1.377 -1.006,1.508 -1.955,1.508 H 0 v 0.793 c 1.607,0 4.361,-0.105 6.575,-0.105 2.224,0 4.967,0.105 6.764,0.105 -0.046,-1.135 -0.021,-2.883 0.056,-4.043 l -0.796,-0.21 c -0.127,1.717 -0.443,3.087 -3.219,3.087 H 5.712 V 9.564 H 8.85 c 1.585,0 1.931,0.895 2.087,2.324 h 0.792 c -0.052,-1.033 -0.08,-2.063 -0.08,-3.092 0,-1.006 0.028,-2.009 0.08,-3.011 L 10.937,5.627 C 10.781,7.21 10.701,8.24 8.877,8.24 H 5.712 V 2.088 c 0,-1.72 1.527,-1.72 3.218,-1.72 3.171,0 4.57,0.213 5.364,3.221 l 0.737,-0.182 c -0.344,-1.403 -0.659,-2.799 -0.895,-4.201 -1.693,0 -4.731,0.103 -7.104,0.103 -2.383,0 -5.524,-0.103 -7.032,-0.103 z"
             style="fill:#231f20;fill-opacity:1;fill-rule:nonzero;stroke:none"
             id="path1806" />
        </g>
        <g
           id="g1808"
           transform="translate(256.3281,317.998)">
          <path
             d="M 0,0 C -1.695,0 -4.735,0.109 -7.105,0.109 -9.485,0.109 -12.625,0 -14.134,0 h -0.111 v 0.112 0.794 0.115 h 0.111 0.372 c 0.956,0.015 1.826,0.1 1.838,1.391 v 13.84 c -0.012,1.291 -0.882,1.377 -1.838,1.394 h -0.483 v 0.115 0.908 h 0.111 c 1.614,0 4.362,-0.103 6.576,-0.103 2.221,0 4.964,0.103 6.763,0.103 h 0.117 l -0.004,-0.122 c -0.017,-0.396 -0.028,-0.865 -0.028,-1.362 0,-0.913 0.028,-1.914 0.08,-2.666 l 0.005,-0.094 -0.089,-0.027 -0.929,-0.244 -0.004,0.137 c -0.156,1.714 -0.386,2.961 -3.107,2.986 h -3.56 l -0.002,-6.69 h 3.032 c 1.523,0.016 1.795,0.794 1.975,2.219 l 0.006,0.105 h 0.105 0.911 l -0.002,-0.12 C -2.34,11.759 -2.371,10.732 -2.371,9.702 -2.371,8.703 -2.34,7.7 -2.289,6.696 L -2.287,6.601 -2.383,6.579 -3.303,6.396 -3.309,6.52 C -3.492,8.133 -3.504,9.017 -5.257,9.035 H -8.314 V 2.994 c 0.004,-1.605 1.388,-1.596 3.11,-1.605 3.181,0.018 4.455,0.175 5.251,3.137 L 0.074,4.634 0.185,4.615 1.032,4.396 1.008,4.287 C 0.665,2.889 0.35,1.491 0.111,0.094 L 0.091,0 Z m -0.098,0.228 c 0.231,1.336 0.532,2.67 0.856,4 l -0.52,0.13 C -0.553,1.403 -2.086,1.14 -5.204,1.159 c -1.665,0 -3.329,0 -3.338,1.835 v 6.268 h 3.285 c 1.845,0.018 2.031,-1.093 2.163,-2.596 l 0.57,0.116 c -0.051,0.975 -0.077,1.952 -0.077,2.92 0,0.992 0.026,1.983 0.077,2.98 h -0.57 c -0.149,-1.38 -0.58,-2.343 -2.19,-2.327 h -3.258 v 7.152 h 3.788 c 2.748,0.021 3.203,-1.4 3.323,-3.063 l 0.569,0.156 c -0.046,0.745 -0.077,1.703 -0.077,2.585 0,0.452 0.012,0.881 0.027,1.255 -1.795,-0.008 -4.474,-0.104 -6.646,-0.104 -2.171,0 -4.843,0.096 -6.46,0.104 v -0.562 h 0.256 c 0.94,-0.002 2.064,-0.165 2.07,-1.626 V 2.412 c -0.006,-1.459 -1.13,-1.619 -2.07,-1.627 h -0.256 V 0.228 c 1.538,0.005 4.592,0.104 6.913,0.104 2.332,0 5.304,-0.099 7.007,-0.104"
             style="fill:#231f20;fill-opacity:1;fill-rule:nonzero;stroke:none"
             id="path1810" />
        </g>
        <g
           id="g1812"
           transform="translate(260.793,333.7539)">
          <path
             d="m 0,0 c 0,1.926 -1.058,2.005 -1.878,2.005 h -0.477 v 0.793 c 0.846,0 2.484,-0.106 4.097,-0.106 1.582,0 2.852,0.106 4.252,0.106 3.324,0 6.289,-0.898 6.289,-4.652 0,-2.375 -1.586,-3.827 -3.672,-4.65 l 4.515,-6.76 c 0.742,-1.117 1.266,-1.43 2.564,-1.586 v -0.793 c -0.874,0 -1.719,0.102 -2.588,0.102 -0.819,0 -1.668,-0.102 -2.483,-0.102 -2.036,2.666 -3.781,5.519 -5.497,8.562 H 3.381 v -5.657 c 0,-2.034 0.949,-2.112 2.16,-2.112 H 6.02 v -0.793 c -1.509,0 -3.035,0.102 -4.544,0.102 -1.268,0 -2.51,-0.102 -3.831,-0.102 v 0.793 h 0.477 c 0.981,0 1.878,0.448 1.878,1.424 z m 3.381,-6.128 h 1.291 c 2.645,0 4.069,1.001 4.069,4.12 0,2.349 -1.506,3.855 -3.86,3.855 -0.793,0 -1.131,-0.081 -1.5,-0.107 z"
             style="fill:#231f20;fill-opacity:1;fill-rule:nonzero;stroke:none"
             id="path1814" />
        </g>
        <g
           id="g1816"
           transform="translate(276.4829,317.998)">
          <path
             d="m 0,0 c -0.886,0 -1.726,0.105 -2.595,0.105 -0.805,0 -1.65,-0.105 -2.57,-0.061 -2.027,2.66 -3.764,5.496 -5.47,8.512 h -1.561 V 3.023 c 0.029,-1.99 0.826,-1.974 2.047,-2.002 h 0.593 V 0.906 0 h -0.117 c -1.51,0 -3.045,0.105 -4.542,0.105 -1.262,0 -2.503,-0.105 -3.83,-0.105 h -0.115 v 0.112 0.909 h 0.115 0.477 c 0.95,0.006 1.753,0.421 1.757,1.309 v 13.426 c -0.02,1.873 -0.937,1.863 -1.757,1.89 h -0.592 v 0.114 0.909 h 0.115 c 0.855,0 2.486,-0.103 4.097,-0.103 1.577,0 2.844,0.103 4.252,0.103 3.331,-0.008 6.396,-0.925 6.404,-4.763 0,-2.383 -1.576,-3.874 -3.613,-4.705 L -2.469,2.556 C -1.73,1.46 -1.27,1.186 0.015,1.021 L 0.111,1.006 V 0.906 0 Z m -12.31,8.789 h 1.805 l 0.033,-0.059 c 1.72,-3.036 3.456,-5.888 5.401,-8.504 0.804,0 1.653,0.106 2.476,0.106 0.843,0 1.659,-0.093 2.479,-0.104 v 0.58 c -1.238,0.151 -1.82,0.525 -2.541,1.62 l -4.599,6.877 0.13,0.053 c 2.069,0.815 3.602,2.226 3.603,4.548 -10e-4,3.665 -2.852,4.516 -6.173,4.534 -1.391,0 -2.661,-0.107 -4.252,-0.107 -1.552,0 -3.12,0.099 -3.984,0.107 v -0.562 h 0.364 c 0.82,-0.002 1.987,-0.139 1.987,-2.122 V 2.33 c 0,-1.06 -0.993,-1.542 -1.987,-1.545 h -0.364 V 0.228 c 1.27,0.005 2.476,0.104 3.717,0.104 1.475,0 2.967,-0.099 4.428,-0.104 v 0.557 h -0.362 c -1.203,0.003 -2.278,0.152 -2.278,2.238 v 5.766 z m 0,0.725 h -0.117 v 8.089 l 0.101,0.007 c 0.362,0.03 0.718,0.103 1.517,0.103 2.406,0 3.973,-1.563 3.975,-3.973 -0.007,-3.153 -1.519,-4.225 -4.184,-4.226 z m 1.292,0.224 c 2.615,0.027 3.933,0.934 3.959,4.002 -0.016,2.309 -1.449,3.74 -3.75,3.75 -0.713,0 -1.05,-0.065 -1.387,-0.098 V 9.738 Z"
             style="fill:#231f20;fill-opacity:1;fill-rule:nonzero;stroke:none"
             id="path1818" />
        </g>
        <g
           id="g1820"
           transform="translate(294.4185,323.3174)">
          <path
             d="m 0,0 0.046,0.053 v 9.903 c 0,2.168 -1.501,2.485 -2.294,2.485 h -0.579 v 0.793 c 1.242,0 2.453,-0.105 3.698,-0.105 1.086,0 2.161,0.105 3.252,0.105 V 12.441 H 3.725 c -1.11,0 -2.351,-0.211 -2.351,-3.355 v -12.02 c 0,-0.925 0.026,-1.85 0.156,-2.67 h -1 L -13.074,9.563 V -1.324 c 0,-2.3 0.446,-3.089 2.48,-3.089 h 0.45 v -0.794 c -1.135,0 -2.273,0.103 -3.408,0.103 -1.193,0 -2.406,-0.103 -3.594,-0.103 v 0.794 h 0.367 c 1.824,0 2.382,1.242 2.382,3.349 v 11.131 c 0,1.478 -1.217,2.374 -2.405,2.374 h -0.344 v 0.793 c 1,0 2.038,-0.105 3.04,-0.105 0.785,0 1.555,0.105 2.349,0.105 z"
             style="fill:#231f20;fill-opacity:1;fill-rule:nonzero;stroke:none"
             id="path1822" />
        </g>
        <g
           id="g1824"
           transform="translate(295.9482,317.6025)">
          <path
             d="M 0,0 -1.086,0.037 -14.495,14.979 V 4.393 c 0.031,-2.302 0.379,-2.952 2.372,-2.977 h 0.559 V 1.302 0.395 h -0.115 c -1.142,0 -2.275,0.11 -3.408,0.11 -1.179,0 -2.4,-0.11 -3.59,-0.11 h -0.118 v 0.113 0.908 h 0.118 0.368 c 1.745,0.007 2.245,1.132 2.262,3.242 v 11.124 c -0.003,1.408 -1.155,2.259 -2.284,2.259 h -0.464 v 0.115 0.908 h 0.118 c 1.009,0 2.043,-0.103 3.04,-0.103 0.776,0 1.541,0.103 2.428,0.069 L -1.596,5.954 v 9.717 c -0.006,2.099 -1.414,2.358 -2.182,2.37 h -0.697 v 0.115 0.908 h 0.115 c 1.248,0 2.467,-0.103 3.701,-0.103 1.077,0 2.158,0.103 3.247,0.103 H 2.705 V 18.946 18.041 H 2.588 2.195 c -1.09,-0.026 -2.212,-0.124 -2.239,-3.24 V 2.781 C -0.044,1.857 -0.02,0.94 0.114,0.13 L 0.128,0 Z m -1,0.23 h 0.865 C -0.25,1.02 -0.274,1.902 -0.274,2.781 v 12.02 c 0.002,3.171 1.339,3.465 2.469,3.472 h 0.278 v 0.562 c -1.04,-0.008 -2.084,-0.103 -3.132,-0.103 -1.213,0 -2.391,0.095 -3.586,0.103 v -0.562 h 0.467 c 0.814,-0.007 2.414,-0.363 2.414,-2.602 L -1.402,5.685 -1.45,5.633 -1.533,5.546 -13.287,18.835 c -0.786,0 -1.552,-0.103 -2.35,-0.103 -0.98,0 -1.966,0.095 -2.927,0.103 v -0.562 h 0.233 c 1.242,-0.007 2.513,-0.944 2.513,-2.491 V 4.658 c 0,-2.12 -0.596,-3.47 -2.491,-3.477 l -0.255,0.003 V 0.622 c 1.141,0.008 2.318,0.106 3.477,0.106 1.109,0 2.206,-0.098 3.299,-0.106 v 0.559 h -0.335 c -2.08,0.003 -2.598,0.91 -2.604,3.212 V 15.57 Z m -0.533,5.485 0.086,0.076 z m -0.063,0.053 v 0.007 l -0.019,0.019 z"
             style="fill:#231f20;fill-opacity:1;fill-rule:nonzero;stroke:none"
             id="path1826" />
        </g>
        <g
           id="g1828"
           transform="translate(302.7886,321.8877)">
          <path
             d="m 0,0 c -0.266,-0.896 -0.585,-1.589 -0.585,-2.058 0,-0.795 1.113,-0.926 1.982,-0.926 h 0.295 v -0.793 c -1.061,0.057 -2.139,0.102 -3.202,0.102 -0.951,0 -1.897,-0.045 -2.851,-0.102 v 0.793 H -4.2 c 1.028,0 1.903,0.609 2.295,1.719 l 4.227,12.122 c 0.345,0.98 0.821,2.3 0.982,3.28 0.84,0.289 1.901,0.814 2.401,1.135 0.083,0.027 0.131,0.054 0.211,0.054 0.081,0 0.129,0 0.187,-0.083 0.078,-0.209 0.155,-0.447 0.237,-0.658 L 11.204,0.766 c 0.316,-0.922 0.63,-1.899 0.968,-2.696 0.323,-0.741 0.877,-1.054 1.752,-1.054 h 0.158 v -0.793 c -1.19,0.057 -2.381,0.102 -3.644,0.102 -1.295,0 -2.62,-0.045 -3.967,-0.102 v 0.793 h 0.291 c 0.604,0 1.641,0.105 1.641,0.766 0,0.341 -0.239,1.055 -0.533,1.904 L 6.84,2.749 H 0.844 Z M 3.857,11.704 H 3.802 L 1.347,4.227 h 4.936 z"
             style="fill:#231f20;fill-opacity:1;fill-rule:nonzero;stroke:none"
             id="path1830" />
        </g>
        <g
           id="g1832"
           transform="translate(316.8623,317.998)">
          <path
             d="M 0,0 C -1.187,0.051 -2.378,0.109 -3.636,0.109 -4.931,0.109 -6.248,0.051 -7.597,0 l -0.122,-0.007 v 0.119 0.913 h 0.116 0.291 c 0.613,0 1.52,0.138 1.522,0.647 0.007,0.301 -0.231,1.024 -0.522,1.865 l -1.005,2.988 h -5.828 l -0.822,-2.67 c -0.266,-0.897 -0.586,-1.595 -0.582,-2.025 0.009,-0.645 0.996,-0.805 1.872,-0.805 h 0.406 V 0.905 -0.007 L -12.39,0 c -1.057,0.051 -2.135,0.109 -3.191,0.109 -0.944,0 -1.899,-0.058 -2.845,-0.109 l -0.123,-0.007 v 0.119 0.913 h 0.114 0.16 c 0.982,0.002 1.803,0.564 2.184,1.636 l 4.231,12.127 c 0.342,0.978 0.822,2.292 1.049,3.348 0.829,0.281 1.892,0.813 2.4,1.133 0.073,0.026 0.146,0.06 0.253,0.06 0.064,0.004 0.207,-0.013 0.293,-0.151 0.074,-0.217 0.158,-0.454 0.238,-0.667 L -2.763,4.693 c 0.312,-0.924 0.627,-1.9 0.973,-2.683 0.307,-0.704 0.791,-0.983 1.641,-0.985 h 0.266 v -0.12 -0.912 z m -7.487,0.234 c 1.306,0.046 2.589,0.098 3.851,0.098 1.226,0 2.377,-0.052 3.526,-0.098 v 0.554 h -0.039 c -0.907,-0.007 -1.53,0.35 -1.854,1.129 -0.344,0.798 -0.665,1.778 -0.977,2.704 l -4.864,13.818 c -0.08,0.211 -0.155,0.447 -0.223,0.634 C -8.094,19.1 -8.088,19.1 -8.108,19.1 h -0.05 c -0.054,0 -0.085,-0.016 -0.154,-0.033 -0.507,-0.331 -1.567,-0.851 -2.352,-1.057 -0.161,-1.001 -0.638,-2.321 -0.981,-3.3 L -15.871,2.587 c -0.403,-1.148 -1.331,-1.802 -2.404,-1.799 h -0.044 V 0.234 c 0.907,0.046 1.821,0.098 2.738,0.098 1.022,0 2.064,-0.052 3.074,-0.098 v 0.554 h -0.17 c -0.862,0.012 -2.064,0.106 -2.095,1.042 0.002,0.524 0.326,1.199 0.585,2.093 l 0.113,-0.033 -0.113,0.036 0.87,2.823 h 6.161 L -6.099,3.611 C -5.802,2.762 -5.562,2.058 -5.562,1.672 -5.601,0.862 -6.713,0.803 -7.312,0.788 h -0.175 z m -5.4,7.769 2.528,7.708 h 0.088 0.054 v -0.117 l -0.027,-0.008 0.027,0.008 v 0.117 h 0.08 l 2.51,-7.708 z m 0.315,0.23 h 4.626 l -2.299,7.08 z m 2.24,7.327 0.061,0.019 z"
             style="fill:#231f20;fill-opacity:1;fill-rule:nonzero;stroke:none"
             id="path1834" />
        </g>
        <g
           id="g1836"
           transform="translate(318.0322,335.2305)">
          <path
             d="m 0,0 c -1.981,0 -2.061,-0.478 -2.459,-2.403 h -0.795 c 0.105,0.739 0.239,1.478 0.321,2.244 0.104,0.743 0.155,1.48 0.155,2.244 h 0.638 c 0.207,-0.793 0.869,-0.764 1.582,-0.764 h 13.634 c 0.71,0 1.37,0.027 1.423,0.82 L 15.131,2.032 C 15.032,1.321 14.928,0.607 14.845,-0.108 14.786,-0.82 14.786,-1.532 14.786,-2.245 L 13.997,-2.539 C 13.95,-1.562 13.817,0 12.044,0 H 7.712 v -14.055 c 0,-2.038 0.926,-2.271 2.191,-2.271 h 0.505 v -0.794 c -1.031,0 -2.878,0.102 -4.307,0.102 -1.582,0 -3.437,-0.102 -4.466,-0.102 v 0.794 h 0.503 c 1.456,0 2.192,0.13 2.192,2.217 L 4.33,0 Z"
             style="fill:#231f20;fill-opacity:1;fill-rule:nonzero;stroke:none"
             id="path1838" />
        </g>
        <g
           id="g1840"
           transform="translate(328.4404,317.998)">
          <path
             d="M 0,0 C -1.038,0 -2.89,0.105 -4.31,0.105 -5.888,0.105 -7.737,0 -8.772,0 H -8.89 v 0.112 0.909 h 0.118 0.501 c 1.458,0.034 2.042,0.052 2.077,2.102 l -0.002,13.996 h -4.212 v 0.114 0.118 h 4.444 V 3.123 c 0,-2.121 -0.855,-2.33 -2.307,-2.335 H -8.66 V 0.226 c 1.045,0.008 2.819,0.106 4.35,0.106 1.381,0 3.149,-0.098 4.193,-0.106 V 0.788 H -0.506 C -1.778,0.793 -2.808,1.099 -2.81,3.178 V 17.351 H 1.636 C 3.41,17.344 3.642,15.838 3.692,14.855 l 0.575,0.211 c 0,0.69 0.003,1.38 0.057,2.072 0.071,0.68 0.171,1.356 0.268,2.031 l -0.4,0.069 C 4.071,18.47 3.325,18.427 2.668,18.439 h -13.634 -0.135 c -0.623,-0.007 -1.296,0.029 -1.537,0.768 h -0.431 c -0.006,-0.731 -0.059,-1.441 -0.162,-2.145 -0.073,-0.729 -0.2,-1.428 -0.3,-2.123 h 0.567 c 0.348,1.842 0.576,2.441 2.556,2.412 v -0.118 -0.114 c -1.959,-0.033 -1.916,-0.365 -2.348,-2.317 l -0.018,-0.09 h -0.093 -0.928 l 0.017,0.131 c 0.11,0.743 0.24,1.484 0.317,2.246 0.108,0.738 0.157,1.472 0.157,2.228 v 0.118 h 0.118 0.721 l 0.023,-0.083 c 0.184,-0.666 0.666,-0.671 1.341,-0.683 h 0.135 13.634 c 0.731,0.012 1.265,0.022 1.311,0.711 l 0.004,0.127 0.124,-0.024 0.75,-0.119 -0.019,-0.116 C 4.729,18.539 4.629,17.827 4.55,17.119 4.495,16.412 4.495,15.7 4.495,14.987 v -0.08 L 4.418,14.877 3.483,14.534 3.479,14.688 C 3.41,15.682 3.306,17.119 1.636,17.119 H -2.583 V 3.178 C -2.556,1.186 -1.765,1.046 -0.506,1.021 H 0.11 V 0.906 0 Z"
             style="fill:#231f20;fill-opacity:1;fill-rule:nonzero;stroke:none"
             id="path1842" />
        </g>
        <g
           id="g1844"
           transform="translate(334.1406,318.9043)">
          <path
             d="m 0,0 h 0.37 c 0.952,0 1.952,0.13 1.952,1.506 v 13.84 c 0,1.377 -1,1.508 -1.952,1.508 H 0 v 0.793 c 1.031,0 2.613,-0.105 3.906,-0.105 1.324,0 2.91,0.105 4.155,0.105 V 16.854 H 7.689 C 6.734,16.854 5.73,16.723 5.73,15.346 V 1.506 C 5.73,0.13 6.734,0 7.689,0 h 0.372 v -0.794 c -1.27,0 -2.857,0.103 -4.176,0.103 -1.297,0 -2.854,-0.103 -3.885,-0.103 z"
             style="fill:#231f20;fill-opacity:1;fill-rule:nonzero;stroke:none"
             id="path1846" />
        </g>
        <g
           id="g1848"
           transform="translate(342.2012,317.998)">
          <path
             d="M 0,0 C -1.277,0 -2.857,0.109 -4.176,0.109 -5.469,0.109 -7.028,0 -8.061,0 h -0.113 v 0.112 0.794 0.115 h 0.113 0.371 c 0.953,0.015 1.831,0.099 1.836,1.391 v 13.84 c -0.005,1.291 -0.883,1.377 -1.836,1.394 h -0.484 v 0.115 0.908 h 0.113 c 1.033,0 2.621,-0.103 3.907,-0.103 1.317,0 2.902,0.103 4.154,0.103 H 0.109 V 18.554 17.646 H 0 -0.37 C -1.338,17.629 -2.206,17.543 -2.216,16.252 V 2.412 C -2.206,1.12 -1.338,1.036 -0.37,1.021 H 0.109 V 0.906 0 Z m -0.12,0.228 v 0.56 h -0.25 c -0.948,0 -2.07,0.165 -2.07,1.624 v 13.84 c 0,1.461 1.122,1.624 2.07,1.626 h 0.25 v 0.562 c -1.219,-0.008 -2.748,-0.104 -4.034,-0.104 -1.254,0 -2.767,0.096 -3.791,0.104 v -0.562 h 0.255 c 0.939,-0.002 2.065,-0.165 2.068,-1.626 V 2.412 C -5.625,0.953 -6.751,0.788 -7.69,0.788 h -0.255 v -0.56 c 1.017,0.011 2.511,0.104 3.769,0.104 1.281,0 2.81,-0.098 4.056,-0.104"
             style="fill:#231f20;fill-opacity:1;fill-rule:nonzero;stroke:none"
             id="path1850" />
        </g>
        <g
           id="g1852"
           transform="translate(352.7344,336.9473)">
          <path
             d="m 0,0 c 5.633,0 10.121,-3.49 10.121,-9.117 0,-6.077 -4.359,-10.116 -9.984,-10.116 -5.604,0 -9.881,3.804 -9.881,9.485 C -9.744,-4.256 -5.492,0 0,0 m 0.399,-18.07 c 5.127,0 6.021,4.52 6.021,8.373 0,3.86 -2.082,8.535 -6.47,8.535 -4.622,0 -5.997,-4.122 -5.997,-7.659 0,-4.729 2.168,-9.249 6.446,-9.249"
             style="fill:#231f20;fill-opacity:1;fill-rule:nonzero;stroke:none"
             id="path1854" />
        </g>
        <g
           id="g1856"
           transform="translate(342.8721,327.1992)">
          <path
             d="M 0,0 C 0.011,5.557 4.311,9.855 9.861,9.863 V 9.748 9.633 C 4.431,9.633 0.229,5.435 0.224,0 0.234,-5.616 4.45,-9.364 10,-9.366 15.567,-9.364 19.864,-5.384 19.872,0.635 19.867,6.191 15.448,9.628 9.861,9.633 V 9.748 9.863 C 15.534,9.857 20.087,6.332 20.097,0.635 20.091,-5.506 15.679,-9.587 10,-9.597 4.349,-9.587 0.011,-5.743 0,0 m 3.699,0.927 c 0.009,3.555 1.396,7.776 6.112,7.776 4.487,-0.01 6.579,-4.77 6.587,-8.652 -0.008,-3.853 -0.915,-8.482 -6.135,-8.482 v 0.109 0.115 c 5.023,0.005 5.895,4.405 5.904,8.258 0,3.827 -2.062,8.413 -6.356,8.42 C 5.279,8.466 3.94,4.445 3.929,0.927 3.931,-3.779 6.079,-8.199 10.263,-8.207 V -8.322 -8.431 C 5.878,-8.427 3.708,-3.829 3.699,0.927"
             style="fill:#231f20;fill-opacity:1;fill-rule:nonzero;stroke:none"
             id="path1858" />
        </g>
        <g
           id="g1860"
           transform="translate(380.6582,323.3174)">
          <path
             d="m 0,0 0.055,0.053 v 9.903 c 0,2.168 -1.511,2.485 -2.303,2.485 h -0.575 v 0.793 c 1.238,0 2.456,-0.105 3.693,-0.105 1.087,0 2.169,0.105 3.254,0.105 V 12.441 H 3.727 c -1.108,0 -2.354,-0.211 -2.354,-3.355 v -12.02 c 0,-0.925 0.027,-1.85 0.161,-2.67 H 0.529 L -13.078,9.563 V -1.324 c 0,-2.3 0.45,-3.089 2.48,-3.089 h 0.453 v -0.794 c -1.136,0 -2.27,0.103 -3.407,0.103 -1.189,0 -2.405,-0.103 -3.595,-0.103 v 0.794 h 0.372 c 1.826,0 2.377,1.242 2.377,3.349 v 11.131 c 0,1.478 -1.211,2.374 -2.407,2.374 h -0.342 v 0.793 c 1.004,0 2.034,-0.105 3.04,-0.105 0.791,0 1.552,0.105 2.348,0.105 z"
             style="fill:#231f20;fill-opacity:1;fill-rule:nonzero;stroke:none"
             id="path1862" />
        </g>
        <g
           id="g1864"
           transform="translate(382.1934,317.6025)">
          <path
             d="M 0,0 -1.093,0.037 -14.5,14.979 V 4.391 c 0.031,-2.3 0.381,-2.947 2.364,-2.97 h 0.57 V 1.301 0.395 h -0.113 c -1.143,0 -2.278,0.106 -3.408,0.106 -1.184,0 -2.399,-0.106 -3.598,-0.106 h -0.108 v 0.113 0.913 h 0.108 0.373 c 1.742,0.005 2.244,1.127 2.264,3.231 v 11.13 c -0.001,1.408 -1.155,2.259 -2.291,2.259 h -0.454 v 0.115 0.908 h 0.108 c 1.013,0 2.043,-0.103 3.041,-0.103 0.785,0 1.543,0.103 2.439,0.062 L -1.597,5.954 v 9.717 c -0.008,2.099 -1.416,2.354 -2.186,2.37 h -0.696 v 0.115 0.908 h 0.121 c 1.241,0 2.46,-0.103 3.69,-0.103 1.081,0 2.159,0.103 3.258,0.103 H 2.7 V 18.949 18.041 H 2.59 2.19 C 1.102,18.013 -0.022,17.913 -0.045,14.801 V 2.781 c 0,-0.924 0.022,-1.846 0.149,-2.651 L 0.127,0 Z m -1.006,0.23 h 0.866 c -0.112,0.795 -0.137,1.672 -0.137,2.551 v 12.02 c 0,3.177 1.334,3.465 2.467,3.472 h 0.287 v 0.562 c -1.049,-0.008 -2.088,-0.103 -3.145,-0.103 -1.203,0 -2.384,0.095 -3.58,0.103 v -0.562 h 0.465 c 0.815,-0.007 2.41,-0.368 2.41,-2.602 L -1.4,5.685 -1.451,5.633 -1.535,5.546 -13.293,18.835 c -0.781,0 -1.551,-0.103 -2.351,-0.103 -0.973,0 -1.965,0.095 -2.926,0.103 v -0.562 h 0.231 c 1.242,-0.007 2.519,-0.944 2.519,-2.491 V 4.652 c 0,-2.114 -0.59,-3.464 -2.492,-3.471 L -18.57,1.184 V 0.622 c 1.146,0.008 2.322,0.106 3.483,0.106 1.103,0 2.197,-0.098 3.292,-0.106 v 0.559 h -0.341 c -2.073,0.003 -2.593,0.91 -2.593,3.21 v 11.183 z m -0.529,5.485 0.084,0.076 z m -0.062,0.053 v 0.007 l -0.02,0.019 z"
             style="fill:#231f20;fill-opacity:1;fill-rule:nonzero;stroke:none"
             id="path1866" />
        </g>
        <g
           id="g1868"
           transform="translate(389.0254,321.8877)">
          <path
             d="m 0,0 c -0.259,-0.896 -0.578,-1.589 -0.578,-2.058 0,-0.795 1.113,-0.926 1.979,-0.926 h 0.295 v -0.793 c -1.057,0.057 -2.141,0.102 -3.2,0.102 -0.951,0 -1.9,-0.045 -2.848,-0.102 v 0.793 h 0.151 c 1.035,0 1.91,0.609 2.297,1.719 l 4.235,12.122 c 0.341,0.98 0.819,2.3 0.972,3.28 0.848,0.289 1.902,0.814 2.412,1.135 0.073,0.027 0.127,0.054 0.209,0.054 0.076,0 0.127,0 0.18,-0.083 0.081,-0.209 0.16,-0.447 0.24,-0.658 l 4.86,-13.819 c 0.316,-0.922 0.634,-1.899 0.98,-2.696 0.316,-0.741 0.871,-1.054 1.742,-1.054 h 0.162 v -0.793 c -1.191,0.057 -2.381,0.102 -3.649,0.102 -1.293,0 -2.616,-0.045 -3.964,-0.102 v 0.793 h 0.293 c 0.603,0 1.639,0.105 1.639,0.766 0,0.341 -0.237,1.055 -0.532,1.904 L 6.846,2.749 H 0.85 Z M 3.863,11.704 H 3.81 L 1.348,4.227 h 4.947 z"
             style="fill:#231f20;fill-opacity:1;fill-rule:nonzero;stroke:none"
             id="path1870" />
        </g>
        <g
           id="g1872"
           transform="translate(403.1016,317.998)">
          <path
             d="M 0,0 C -1.19,0.047 -2.377,0.105 -3.637,0.105 -4.926,0.105 -6.25,0.047 -7.596,0 l -0.117,-0.007 v 0.119 0.909 h 0.113 0.289 c 0.614,0 1.524,0.142 1.525,0.651 0.008,0.301 -0.232,1.021 -0.529,1.865 l -1.001,2.988 h -5.832 l -0.817,-2.67 C -14.23,2.95 -14.543,2.26 -14.54,1.832 c 0,-0.647 0.991,-0.811 1.864,-0.811 h 0.404 V 0.906 -0.007 L -12.391,0 c -1.054,0.047 -2.136,0.105 -3.189,0.105 -0.946,0 -1.895,-0.058 -2.848,-0.105 l -0.115,-0.007 v 0.119 0.909 h 0.115 0.151 c 0.984,0.004 1.808,0.569 2.195,1.64 l 4.225,12.127 c 0.339,0.978 0.816,2.292 1.048,3.344 0.83,0.288 1.891,0.817 2.405,1.137 0.068,0.026 0.142,0.057 0.251,0.057 0.067,0.007 0.206,-0.01 0.287,-0.154 0.08,-0.208 0.158,-0.448 0.244,-0.661 L -2.764,4.693 c 0.318,-0.924 0.633,-1.9 0.976,-2.688 0.311,-0.699 0.789,-0.978 1.634,-0.984 H 0.119 V 0.906 -0.007 Z m -7.489,0.233 c 1.307,0.047 2.592,0.099 3.852,0.099 1.228,0 2.377,-0.052 3.53,-0.098 L -0.109,0.788 H -0.154 C -1.049,0.785 -1.672,1.138 -2.002,1.917 -2.35,2.715 -2.664,3.695 -2.98,4.617 L -7.842,18.439 C -7.92,18.65 -8.004,18.886 -8.065,19.068 -8.088,19.1 -8.086,19.1 -8.102,19.1 h -0.051 c -0.058,0 -0.087,-0.018 -0.15,-0.036 -0.516,-0.324 -1.574,-0.853 -2.354,-1.054 -0.164,-1.001 -0.644,-2.319 -0.984,-3.3 L -15.872,2.587 c -0.401,-1.148 -1.325,-1.802 -2.405,-1.799 h -0.039 V 0.234 c 0.909,0.046 1.817,0.098 2.736,0.098 1.023,0 2.068,-0.052 3.083,-0.098 v 0.554 h -0.179 c -0.859,0.012 -2.063,0.103 -2.096,1.044 0.006,0.522 0.332,1.195 0.59,2.091 l 0.106,-0.033 -0.106,0.036 0.869,2.823 h 6.158 L -6.094,3.611 C -5.803,2.762 -5.562,2.058 -5.562,1.672 -5.6,0.862 -6.711,0.803 -7.311,0.788 h -0.178 z m -5.398,7.771 2.537,7.707 h 0.079 0.058 v -0.117 l -0.03,-0.008 0.03,0.008 v 0.117 h 0.08 l 2.498,-7.707 z m 0.32,0.229 h 4.621 l -2.298,7.076 z m 2.244,7.327 0.052,0.019 z"
             style="fill:#231f20;fill-opacity:1;fill-rule:nonzero;stroke:none"
             id="path1874" />
        </g>
        <g
           id="g1876"
           transform="translate(409.7676,320.7021)">
          <path
             d="m 0,0 c 0,-1.062 0.734,-1.375 1.582,-1.485 1.081,-0.079 2.272,-0.079 3.49,0.055 1.108,0.133 2.059,0.764 2.533,1.43 0.42,0.579 0.659,1.319 0.82,1.9 H 9.189 C 8.898,0.394 8.529,-1.088 8.212,-2.592 c -2.319,0 -4.651,0.103 -6.973,0.103 -2.327,0 -4.65,-0.103 -6.973,-0.103 v 0.794 h 0.365 c 0.953,0 1.987,0.13 1.987,1.769 v 13.577 c 0,1.377 -1.034,1.509 -1.987,1.509 h -0.365 v 0.793 c 1.397,0 2.773,-0.106 4.172,-0.106 1.349,0 2.667,0.106 4.018,0.106 V 15.057 H 1.792 C 0.788,15.057 0,15.028 0,13.629 Z"
             style="fill:#231f20;fill-opacity:1;fill-rule:nonzero;stroke:none"
             id="path1878" />
        </g>
        <g
           id="g1880"
           transform="translate(417.9805,317.998)">
          <path
             d="M 0,0 C -2.33,0 -4.656,0.105 -6.974,0.105 -9.298,0.105 -11.623,0 -13.953,0 h -0.111 v 0.112 0.909 h 0.111 0.371 c 0.955,0.023 1.862,0.089 1.873,1.654 v 13.582 c -0.011,1.286 -0.914,1.372 -1.873,1.389 h -0.482 v 0.115 0.908 h 0.111 c 1.407,0 2.782,-0.103 4.176,-0.103 1.344,0 2.66,0.103 4.02,0.103 h 0.107 v -0.115 -0.908 h -0.107 -0.664 c -1.024,-0.027 -1.661,0.02 -1.683,-1.313 V 2.704 c 0.006,-0.988 0.653,-1.253 1.479,-1.37 0.465,-0.032 0.957,-0.05 1.465,-0.05 0.646,0 1.317,0.031 2,0.103 1.076,0.128 2.002,0.75 2.459,1.38 0.408,0.565 0.639,1.289 0.799,1.864 l 0.021,0.087 h 0.09 0.906 L 1.092,4.579 C 0.793,3.068 0.43,1.595 0.109,0.089 L 0.088,0 Z M -0.097,0.228 C 0.209,1.663 0.555,3.066 0.84,4.49 H 0.295 C 0.133,3.916 -0.103,3.207 -0.517,2.632 -1.011,1.947 -1.988,1.302 -3.135,1.159 -3.826,1.09 -4.513,1.054 -5.16,1.054 c -0.512,0 -1.006,0.022 -1.486,0.056 -0.86,0.095 -1.691,0.463 -1.69,1.594 v 13.629 c 0,1.469 0.93,1.545 1.915,1.545 h 0.544 v 0.562 c -1.301,-0.008 -2.586,-0.107 -3.9,-0.107 -1.366,0 -2.705,0.099 -4.057,0.107 v -0.562 h 0.252 c 0.942,0 2.096,-0.165 2.096,-1.621 V 2.675 c 0,-1.71 -1.149,-1.887 -2.096,-1.887 h -0.252 v -0.56 c 2.282,0.005 4.566,0.104 6.86,0.104 2.297,0 4.59,-0.099 6.877,-0.104"
             style="fill:#231f20;fill-opacity:1;fill-rule:nonzero;stroke:none"
             id="path1882" />
        </g>
        <g
           id="g1884"
           transform="translate(418.6348,337.3008)">
          <path
             d="m 0,0 c 1.594,0 2.783,-1.224 2.783,-2.788 0,-1.564 -1.189,-2.774 -2.783,-2.774 -1.59,0 -2.781,1.21 -2.781,2.774 C -2.781,-1.224 -1.59,0 0,0 m 0,-5.045 c 1.248,0 2.201,1.061 2.201,2.257 0,1.198 -0.942,2.266 -2.201,2.266 -1.252,0 -2.204,-1.068 -2.204,-2.266 0,-1.196 0.952,-2.257 2.204,-2.257 m -1.383,0.79 v 0.135 c 0.34,0.049 0.404,0.04 0.404,0.248 v 2.061 c 0,0.29 -0.029,0.391 -0.393,0.374 v 0.143 h 1.424 c 0.489,0 0.94,-0.234 0.94,-0.74 0,-0.413 -0.272,-0.72 -0.658,-0.839 l 0.458,-0.638 c 0.213,-0.288 0.456,-0.56 0.612,-0.656 V -4.255 H 0.863 c -0.261,0 -0.49,0.546 -1,1.278 h -0.308 v -0.921 c 0,-0.182 0.064,-0.173 0.406,-0.222 v -0.135 z m 0.938,1.467 h 0.328 c 0.359,0 0.525,0.27 0.525,0.71 0,0.442 -0.256,0.598 -0.543,0.598 h -0.31 z"
             style="fill:#231f20;fill-opacity:1;fill-rule:nonzero;stroke:none"
             id="path1886" />
        </g>
        <g
           id="g1888"
           transform="translate(253.6284,429.8184)">
          <path
             d="M 0,0 C 0,24.711 20.032,44.743 44.742,44.743 69.454,44.743 89.485,24.711 89.485,0 89.485,-24.711 69.454,-44.744 44.742,-44.744 20.032,-44.744 0,-24.711 0,0"
             style="fill:#ffffff;fill-opacity:1;fill-rule:nonzero;stroke:none"
             id="path1890" />
        </g>
        <g
           id="g1892"
           transform="translate(325.4297,430.7002)">
          <path
             d="M 0,0 C -0.018,11.457 -7.18,21.229 -17.271,25.1 V -25.099 C -7.18,-21.224 -0.018,-11.461 0,0 M -36.524,-25.089 V 25.095 C -46.607,21.212 -53.758,11.454 -53.785,0 c 0.027,-11.452 7.178,-21.21 17.261,-25.089 m 9.631,67.518 C -50.325,42.42 -69.309,23.432 -69.313,0 c 0.004,-23.43 18.988,-42.414 42.42,-42.419 C -3.461,-42.414 15.527,-23.43 15.533,0 15.527,23.432 -3.461,42.42 -26.893,42.429 m -0.104,-88.852 c -25.641,-0.122 -46.745,20.652 -46.745,45.939 0,27.635 21.104,46.751 46.745,46.746 h 12.017 c 25.337,0.005 48.462,-19.102 48.462,-46.746 0,-25.279 -23.125,-45.939 -48.462,-45.939 z"
             style="fill:#1266ac;fill-opacity:1;fill-rule:nonzero;stroke:none"
             id="path1894" />
        </g>
      </g>
    </g>
  </g>
</svg>
