<svg width="122" height="78" viewBox="0 0 122 78" fill="none" xmlns="http://www.w3.org/2000/svg">
<path d="M1.33333 4V73.6744C1.33333 75.1452 2.52969 76.3411 3.99999 76.3411H77.976C98.6891 76.3411 115.48 59.5507 115.48 38.8373C115.48 18.124 98.6891 1.33333 77.976 1.33333H3.99999C2.52969 1.33333 1.33333 2.52933 1.33333 4Z" fill="white"/>
<path d="M14.1088 42.8093C13.0974 43.7227 11.7828 44.1213 9.70365 44.1213H8.83907V33.2067H9.70365C11.7828 33.2067 13.0453 33.5787 14.1088 34.5413C15.2229 35.5333 15.8912 37.068 15.8912 38.6493C15.8912 40.2347 15.2229 41.8187 14.1088 42.8093ZM10.3484 30.4093H5.62241V46.916H10.3229C12.8224 46.916 14.6281 46.3267 16.2125 45.0093C18.0953 43.4507 19.2084 41.1027 19.2084 38.6747C19.2084 33.8027 15.5693 30.4093 10.3484 30.4093Z" fill="#231F20"/>
<path d="M20.6907 46.916H23.9093V30.4093H20.6907V46.916Z" fill="#231F20"/>
<path d="M31.7817 36.744C29.8495 36.028 29.2823 35.5573 29.2823 34.6653C29.2823 33.6253 30.2932 32.836 31.6807 32.836C32.6459 32.836 33.438 33.232 34.2771 34.1733L35.962 31.9667C34.5771 30.756 32.9208 30.1373 31.112 30.1373C28.1912 30.1373 25.9636 32.1653 25.9636 34.8667C25.9636 37.14 27.0011 38.304 30.0251 39.392C31.2849 39.8373 31.926 40.1333 32.25 40.3333C32.8927 40.752 33.2156 41.3467 33.2156 42.04C33.2156 43.3773 32.1521 44.368 30.7151 44.368C29.1807 44.368 27.9432 43.6013 27.2021 42.168L25.1219 44.1693C26.6052 46.3467 28.3864 47.312 30.8364 47.312C34.1823 47.312 36.5297 45.088 36.5297 41.8933C36.5297 39.2693 35.4448 38.0827 31.7817 36.744Z" fill="#231F20"/>
<path d="M37.5453 38.6747C37.5453 43.5253 41.3547 47.2867 46.2573 47.2867C47.6427 47.2867 48.8292 47.0147 50.2932 46.3267V42.536C49.0057 43.824 47.8656 44.3427 46.4063 44.3427C43.1636 44.3427 40.8625 41.992 40.8625 38.6493C40.8625 35.4813 43.2375 32.9813 46.2573 32.9813C47.7921 32.9813 48.9557 33.5293 50.2932 34.8387V31.0507C48.8803 30.3333 47.7183 30.0373 46.3328 30.0373C41.4557 30.0373 37.5453 33.8747 37.5453 38.6747Z" fill="#231F20"/>
<path d="M75.8208 41.496L71.4177 30.4093H67.9016L74.9057 47.34H76.6385L83.7693 30.4093H80.2787L75.8208 41.496Z" fill="#231F20"/>
<path d="M85.224 46.916H94.3552V44.1213H88.4421V39.6653H94.136V36.8693H88.4421V33.2067H94.3552V30.4093H85.224V46.916Z" fill="#231F20"/>
<path d="M100.644 38.0093H99.7027V33.0093H100.694C102.7 33.0093 103.79 33.8493 103.79 35.456C103.79 37.116 102.7 38.0093 100.644 38.0093ZM107.104 35.2827C107.104 32.192 104.974 30.4093 101.261 30.4093H96.4875V46.916H99.7027V40.2853H100.123L104.58 46.916H108.539L103.342 39.9613C105.768 39.468 107.104 37.8107 107.104 35.2827Z" fill="#231F20"/>
<path d="M109.057 31.4733H108.997V31.0933H109.06C109.232 31.0933 109.322 31.1547 109.322 31.28C109.322 31.4093 109.231 31.4733 109.057 31.4733ZM109.67 31.276C109.67 30.9853 109.469 30.8267 109.118 30.8267H108.651V32.2813H108.997V31.7173L109.405 32.2813H109.83L109.351 31.6813C109.555 31.6267 109.67 31.4773 109.67 31.276Z" fill="#231F20"/>
<path d="M109.182 32.5947C108.626 32.5947 108.171 32.1307 108.171 31.5533C108.171 30.9733 108.622 30.5107 109.182 30.5107C109.736 30.5107 110.187 30.984 110.187 31.5533C110.187 32.1253 109.736 32.5947 109.182 32.5947ZM109.187 30.2827C108.481 30.2827 107.92 30.8467 107.92 31.5507C107.92 32.256 108.487 32.8213 109.187 32.8213C109.876 32.8213 110.441 32.2493 110.441 31.5507C110.441 30.856 109.876 30.2827 109.187 30.2827Z" fill="#231F20"/>
<path d="M68.8183 38.6453C68.8183 43.472 64.9057 47.3853 60.0781 47.3853C55.2505 47.3853 51.3375 43.472 51.3375 38.6453C51.3375 33.8173 55.2505 29.904 60.0781 29.904C64.9057 29.904 68.8183 33.8173 68.8183 38.6453Z" fill="#F36719"/>
<path d="M115.48 38.8373C115.48 59.5507 98.6891 76.3411 77.976 76.3411H4C2.52969 76.3411 1.33333 75.1452 1.33333 73.6744V4C1.33333 2.52933 2.52969 1.33333 4 1.33333H77.976C98.6891 1.33333 115.48 18.124 115.48 38.8373ZM117.456 -9.65134e-07H4C1.79063 -9.65134e-07 0 1.79067 0 4V73.6744C0 75.8837 1.79063 77.6744 4 77.6744H117.456C119.665 77.6744 121.456 75.8837 121.456 73.6744V4C121.456 1.79067 119.665 -9.65134e-07 117.456 -9.65134e-07Z" fill="#F36719"/>
</svg>
