<svg width="45" height="24" viewBox="0 0 45 24" fill="none" xmlns="http://www.w3.org/2000/svg">
<path d="M33.0319 0H11.9681C5.38564 0 0 5.4 0 12C0 18.6 5.38564 24 11.9681 24H33.0319C39.6144 24 45 18.6 45 12C45 5.4 39.6144 0 33.0319 0Z" fill="white"/>
<path d="M33.0319 0.972C34.51 0.972 35.9461 1.266 37.2985 1.842C38.609 2.4 39.7819 3.198 40.7992 4.212C41.8105 5.226 42.6064 6.408 43.1629 7.722C43.7374 9.078 44.0306 10.518 44.0306 12C44.0306 13.482 43.7374 14.922 43.1629 16.278C42.6064 17.592 41.8105 18.768 40.7992 19.788C39.7879 20.802 38.609 21.6 37.2985 22.158C35.9461 22.734 34.51 23.028 33.0319 23.028H11.9681C10.49 23.028 9.05386 22.734 7.70146 22.158C6.39096 21.6 5.21808 20.802 4.2008 19.788C3.18949 18.774 2.39362 17.592 1.8371 16.278C1.26263 14.922 0.969415 13.482 0.969415 12C0.969415 10.518 1.26263 9.078 1.8371 7.722C2.39362 6.408 3.18949 5.232 4.2008 4.212C5.2121 3.198 6.39096 2.4 7.70146 1.842C9.05386 1.266 10.49 0.972 11.9681 0.972H33.0319ZM33.0319 0H11.9681C5.38564 0 0 5.4 0 12C0 18.6 5.38564 24 11.9681 24H33.0319C39.6144 24 45 18.6 45 12C45 5.4 39.6144 0 33.0319 0Z" fill="#3C4043"/>
<path d="M21.4587 12.852V16.482H20.3098V7.51801H23.3557C24.1276 7.51801 24.7859 7.77601 25.3244 8.29201C25.875 8.80801 26.1502 9.43801 26.1502 10.182C26.1502 10.944 25.875 11.574 25.3244 12.084C24.7919 12.594 24.1336 12.846 23.3557 12.846H21.4587V12.852ZM21.4587 8.62201V11.748H23.3796C23.8344 11.748 24.2174 11.592 24.5166 11.286C24.8218 10.98 24.9774 10.608 24.9774 10.188C24.9774 9.77401 24.8218 9.40801 24.5166 9.10201C24.2174 8.78401 23.8404 8.62801 23.3796 8.62801H21.4587V8.62201Z" fill="#3C4043"/>
<path d="M29.1542 10.146C30.004 10.146 30.6742 10.374 31.1649 10.83C31.6556 11.286 31.9009 11.91 31.9009 12.702V16.482H30.8058V15.63H30.758C30.2852 16.332 29.6509 16.68 28.861 16.68C28.1848 16.68 27.6223 16.482 27.1675 16.08C26.7127 15.678 26.4854 15.18 26.4854 14.58C26.4854 13.944 26.7247 13.44 27.2034 13.068C27.6822 12.69 28.3225 12.504 29.1183 12.504C29.8005 12.504 30.363 12.63 30.7998 12.882V12.618C30.7998 12.216 30.6443 11.88 30.3271 11.598C30.01 11.316 29.6389 11.178 29.2141 11.178C28.5738 11.178 28.0651 11.448 27.6941 11.994L26.6828 11.358C27.2393 10.548 28.0651 10.146 29.1542 10.146ZM27.6702 14.598C27.6702 14.898 27.7959 15.15 28.0532 15.348C28.3045 15.546 28.6037 15.648 28.9448 15.648C29.4295 15.648 29.8604 15.468 30.2373 15.108C30.6143 14.748 30.8058 14.328 30.8058 13.842C30.4468 13.56 29.9501 13.416 29.3098 13.416C28.8431 13.416 28.4541 13.53 28.1429 13.752C27.8258 13.986 27.6702 14.268 27.6702 14.598Z" fill="#3C4043"/>
<path d="M38.1482 10.344L34.3184 19.176H33.1336L34.5578 16.086L32.0325 10.344H33.2832L35.1023 14.748H35.1263L36.8976 10.344H38.1482Z" fill="#3C4043"/>
<path d="M16.8888 12.12C16.8888 11.7444 16.8552 11.385 16.793 11.0394H11.9771V13.0194L14.7507 13.02C14.6382 13.6788 14.2761 14.2404 13.7214 14.6148V15.8994H15.3724C16.3364 15.0048 16.8888 13.6824 16.8888 12.12Z" fill="#4285F4"/>
<path d="M13.722 14.6148C13.2624 14.9256 12.6706 15.1074 11.9782 15.1074C10.6408 15.1074 9.50623 14.2038 9.09991 12.9858H7.39685V14.3106C8.2406 15.9894 9.97478 17.1414 11.9782 17.1414C13.3629 17.1414 14.5262 16.6848 15.373 15.8988L13.722 14.6148Z" fill="#34A853"/>
<path d="M8.93955 12.003C8.93955 11.661 8.99639 11.3304 9.09992 11.0196V9.69482H7.39686C7.04799 10.389 6.85172 11.1726 6.85172 12.003C6.85172 12.8334 7.04859 13.617 7.39686 14.3112L9.09992 12.9864C8.99639 12.6756 8.93955 12.345 8.93955 12.003Z" fill="#FABB05"/>
<path d="M11.9782 8.89801C12.734 8.89801 13.4108 9.15901 13.9452 9.66901L15.4083 8.20321C14.5197 7.37341 13.3611 6.86401 11.9782 6.86401C9.97537 6.86401 8.2406 8.01601 7.39685 9.69481L9.09991 11.0196C9.50623 9.80161 10.6408 8.89801 11.9782 8.89801Z" fill="#E94235"/>
</svg>
