<svg fill="none" height="24" viewBox="0 0 72 24" width="72" xmlns="http://www.w3.org/2000/svg" xmlns:xlink="http://www.w3.org/1999/xlink"><clipPath id="a"><path d="m0 0h72v24h-72z"/></clipPath><g clip-path="url(#a)"><path d="m0 0h72v24h-72z" fill="#fff"/><path d="m36.1202 3.67683c0-1.12801.9504-2.04481 2.0688-2.04481s2.0688.9216 2.0688 2.04481c0 1.1232-.9168 2.0688-2.0688 2.0688s-2.0688-.9168-2.0688-2.0688zm-6.1392-1.75682h3.6v20.15999h-3.6zm10.0272 5.76h-3.6288v14.39999h3.6288zm26.088 6.71039c2.7312-1.68 4.5888-4.1808 5.3232-6.71516h-3.6288c-.9456 2.41916-3.1152 4.23836-5.5008 5.01116v-10.77117h-3.6288v20.15997h3.6288v-5.9952c2.7696.6912 4.9584 3.0864 5.7072 5.9952h3.6528c-.5568-3.0528-2.6448-5.9088-5.5536-7.6848zm-19.656-5.09757c.9504-1.2624 2.8032-1.99681 4.3056-1.99681 2.8032 0 5.1216 2.04961 5.1264 5.14558v9.6336h-3.6288v-8.832c0-1.272-.5664-2.7408-2.4048-2.7408-2.16 0-3.4032 1.9152-3.4032 4.1568v7.4256h-3.6288v-14.39518h3.6336z" fill="#000"/><path d="m12 24c6.6274 0 12-5.3726 12-12 0-6.62742-5.3726-12-12-12-6.62742 0-12 5.37258-12 12 0 6.6274 5.37258 12 12 12z" fill="#00d66f"/><path d="m11.4479 4.80005h-3.70083c.72 3.0096 2.82243 5.58235 5.45283 7.19995-2.6352 1.6176-4.73283 4.1904-5.45283 7.2h3.70083c.9168-2.784 3.456-5.2032 6.576-5.6976v-3.0095c-3.1248-.4896-5.664-2.90885-6.576-5.69285z" fill="#fff"/></g></svg>