<svg width="117" height="73" viewBox="0 0 117 73" fill="none" xmlns="http://www.w3.org/2000/svg">
<path d="M74.0277 7.70833H42.5277V64.3083H74.0277V7.70833Z" fill="#FF5F00"/>
<path d="M44.5277 36.0083C44.5277 25.0083 49.6277 14.5083 58.2277 7.70832C42.6277 -4.59168 19.9277 -1.89168 7.62771 13.8083C-4.57229 29.4083 -1.87229 52.0083 13.8277 64.3083C26.9277 74.6083 45.2277 74.6083 58.3277 64.3083C49.6277 57.5083 44.5277 47.0083 44.5277 36.0083Z" fill="#EB001B"/>
<path d="M116.528 36.0083C116.528 55.9083 100.428 72.0083 80.5277 72.0083C72.4277 72.0083 64.6277 69.3083 58.3277 64.3083C73.9277 52.0083 76.6277 29.4083 64.3277 13.7083C62.5277 11.5083 60.5277 9.40832 58.3277 7.70832C73.9277 -4.59168 96.6277 -1.89168 108.828 13.8083C113.828 20.1083 116.528 27.9083 116.528 36.0083Z" fill="#F79E1B"/>
</svg>
