<svg width="38" height="24" xmlns="http://www.w3.org/2000/svg"><g fill="none" fill-rule="evenodd"><path d="M34.829 24H3.171a3.208 3.208 0 01-2.231-.87A2.98 2.98 0 010 20.994V3.006A2.98 2.98 0 01.94.87 3.208 3.208 0 013.17 0h31.658a3.208 3.208 0 012.231.87A2.98 2.98 0 0138 3.006v18c-.022 1.67-1.44 3.008-3.171 2.994zM12 3.996A.999.999 0 0010.997 3H4.003A.999.999 0 003 3.996v4.008C3 8.556 3.45 9 4.003 9h6.994A.999.999 0 0012 8.004V3.996z" fill-opacity=".3" fill="#0C0C0D"/><rect stroke="#979797" fill="#D8D8D8" x="14.5" y="17.5" width="9" height="1" rx=".5"/><rect stroke="#979797" fill="#D8D8D8" x="2.5" y="17.5" width="9" height="1" rx=".5"/><rect stroke="#979797" fill="#D8D8D8" x="26.5" y="17.5" width="9" height="1" rx=".5"/></g></svg>
