<svg width="28" height="18" viewBox="0 0 28 18" fill="none" xmlns="http://www.w3.org/2000/svg">
<path d="M5.36686 0H12.2016C13.1553 0 13.7514 0.787488 13.5278 1.75056L10.3438 15.5496C10.1203 16.5126 9.16164 17.3002 8.20793 17.3002H1.37321C0.419453 17.3002 -0.176564 16.5127 0.0469723 15.5496L3.23086 1.75056C3.4544 0.782496 4.40811 0 5.36182 0H5.36686Z" fill="#D10429"/>
<path d="M11.604 0H19.4673C20.421 0 19.9889 0.787488 19.7654 1.75056L16.5813 15.5496C16.3578 16.5126 16.4274 17.3002 15.4736 17.3002H7.61077C6.65211 17.3002 6.06099 16.5127 6.28947 15.5496L9.4735 1.75056C9.69699 0.782496 10.6507 0 11.6094 0H11.6044H11.604Z" fill="#022E64"/>
<path d="M19.1913 0H26.0265C26.9803 0 27.5763 0.787488 27.3527 1.75056L24.1688 15.5496C23.9452 16.5126 22.9865 17.3002 22.0328 17.3002H15.1981C14.2394 17.3002 13.6483 16.5127 13.8719 15.5496L17.0559 1.75056C17.2794 0.782496 18.2331 0 19.1868 0H19.1918H19.1913Z" fill="#076F74"/>
<path d="M18.0437 13.0089H18.6894L18.8732 12.3819H18.2323L18.0437 13.0089ZM18.5602 11.2833L18.3367 12.0257C18.3367 12.0257 18.5801 11.9003 18.7142 11.8602C18.8483 11.8301 19.047 11.805 19.047 11.805L19.201 11.2884H18.5553L18.5602 11.2833ZM18.8831 10.22L18.6695 10.9322C18.6695 10.9322 18.9079 10.8218 19.0421 10.7868C19.1762 10.7517 19.3748 10.7417 19.3748 10.7417L19.5288 10.225H18.8881L18.8831 10.22ZM20.3087 10.22L19.4742 13.0038H19.6977L19.5239 13.5807H19.3003L19.2457 13.7562H18.4509L18.5056 13.5807H16.8962L17.0551 13.049H17.2191L18.0636 10.22L18.2324 9.64819H19.0421L18.9576 9.93408C18.9576 9.93408 19.1712 9.77861 19.3799 9.72336C19.5835 9.66826 20.7558 9.64819 20.7558 9.64819L20.5819 10.215H20.3038L20.3087 10.22Z" fill="#FEFEFE"/>
<path d="M20.64 9.64794H21.5043L21.5142 9.97395C21.5093 10.0291 21.554 10.0542 21.6583 10.0542H21.8321L21.6732 10.591H21.2062C20.8039 10.6211 20.6499 10.4456 20.6598 10.2499L20.6449 9.65293L20.64 9.64794ZM20.7464 12.2015H19.9218L20.0608 11.725H21.0046L21.1387 11.2886H20.2099L20.3688 10.7519H22.9518L22.7928 11.2886H21.9235L21.7894 11.725H22.6587L22.5146 12.2015H21.5758L21.4069 12.4022H21.7894L21.8838 13.0041C21.8937 13.0643 21.8937 13.1044 21.9135 13.1295C21.9334 13.1496 22.0477 13.1596 22.1122 13.1596H22.2265L22.0477 13.7465H21.7546C21.7099 13.7465 21.6404 13.7415 21.546 13.7415C21.4566 13.7314 21.397 13.6813 21.3374 13.6512C21.2827 13.6261 21.2033 13.5609 21.1834 13.4456L21.094 12.8436L20.6668 13.4355C20.5327 13.6211 20.349 13.7666 20.0359 13.7666H19.4399L19.5988 13.2449H19.8273C19.8919 13.2449 19.9516 13.2199 19.9963 13.1947C20.041 13.1746 20.0807 13.1546 20.1204 13.0894L20.7464 12.2015ZM11.7271 10.8959H13.9077L13.7488 11.4226H12.8795L12.7455 11.869H13.6396L13.4756 12.4108H12.5865L12.3679 13.1381C12.3431 13.2183 12.5815 13.2284 12.666 13.2284L13.113 13.1682L12.9342 13.7701H11.9308C11.8514 13.7701 11.7918 13.76 11.7023 13.74C11.6178 13.7199 11.5781 13.6798 11.5434 13.6246C11.5085 13.5644 11.4489 13.5193 11.4886 13.3889L11.7767 12.4258H11.28L11.4439 11.8741H11.9407L12.0748 11.4277H11.5781L11.7371 10.9009L11.7271 10.8959ZM13.2337 9.94386H14.1278L13.9639 10.4906H12.742L12.6079 10.606C12.5482 10.6612 12.5334 10.6411 12.4588 10.6812C12.3894 10.7163 12.2453 10.7865 12.0565 10.7865H11.6641L11.823 10.2598H11.9422C12.0416 10.2598 12.1112 10.2498 12.1459 10.2297C12.1856 10.2047 12.2304 10.1495 12.275 10.0592L12.4985 9.64789H13.3877L13.2337 9.94885V9.94386ZM14.9189 10.8467C14.9189 10.8467 15.1622 10.6211 15.5795 10.5509C15.6739 10.5308 16.27 10.5407 16.27 10.5407L16.3594 10.2398H15.1027L14.9188 10.8518L14.9189 10.8467ZM16.1011 11.0775H14.8543L14.7798 11.3333H15.8626C15.9918 11.3182 16.0166 11.3383 16.0266 11.3283L16.106 11.0775H16.1011ZM14.4818 9.65293H15.2418L15.1325 10.0392C15.1325 10.0392 15.3709 9.84358 15.5398 9.77331C15.7087 9.71312 16.0862 9.65293 16.0862 9.65293L17.318 9.64794L16.8958 11.0624C16.8263 11.3032 16.7419 11.4587 16.6922 11.534C16.6475 11.6042 16.5928 11.6694 16.4836 11.7296C16.3793 11.7848 16.2848 11.8198 16.1955 11.8249C16.116 11.8299 15.9868 11.8349 15.818 11.8349H14.6308L14.298 12.9535C14.2682 13.0638 14.2533 13.1189 14.2732 13.149C14.288 13.1741 14.3327 13.2042 14.3874 13.2042L14.9089 13.154L14.7301 13.766H14.144C13.9552 13.766 13.8211 13.761 13.7267 13.7559C13.6374 13.7459 13.5429 13.7559 13.4783 13.7058C13.4237 13.6556 13.3393 13.5905 13.3442 13.5252C13.3492 13.465 13.374 13.3647 13.4138 13.2242L14.4818 9.65293Z" fill="#FEFEFE"/>
<path d="M16.6963 11.904L16.6268 12.245C16.597 12.3503 16.5721 12.4306 16.4926 12.5008C16.4082 12.5711 16.3138 12.6463 16.0854 12.6463L15.6632 12.6663L15.6582 13.0476C15.6533 13.1528 15.6831 13.1428 15.698 13.1629C15.7178 13.1829 15.7327 13.188 15.7526 13.198L15.8867 13.1879L16.2891 13.1679L16.1202 13.7297H15.6582C15.3354 13.7297 15.092 13.7196 15.0174 13.6595C14.938 13.6093 14.928 13.5491 14.928 13.4387L14.9578 11.9439H15.698L15.688 12.2499H15.8668C15.9264 12.2499 15.9712 12.2449 15.996 12.2298C16.0208 12.2148 16.0357 12.1897 16.0457 12.1546L16.1202 11.9138H16.7013L16.6963 11.904ZM6.16654 4.41595C6.14173 4.53634 5.66489 6.74837 5.66489 6.74837C5.56054 7.19477 5.48605 7.51584 5.23769 7.72148C5.09365 7.84186 4.92473 7.89701 4.73105 7.89701C4.41809 7.89701 4.23929 7.74154 4.20949 7.44562L4.20449 7.3453C4.20449 7.3453 4.29886 6.74837 4.29886 6.74338C4.29886 6.74338 4.79561 4.72695 4.88504 4.46107C4.88998 4.44605 4.88998 4.43602 4.88998 4.43098C3.92134 4.44106 3.74753 4.43098 3.7376 4.41595C3.73261 4.43602 3.70779 4.5614 3.70779 4.5614L3.2011 6.83372L3.15637 7.02428L3.07198 7.65634C3.07198 7.84191 3.10673 7.99738 3.18128 8.1228C3.4147 8.53412 4.07537 8.59431 4.4479 8.59431C4.92973 8.59431 5.38174 8.48895 5.68472 8.30338C6.21622 7.98735 6.35528 7.49079 6.47451 7.05442L6.53413 6.82867C6.53413 6.82867 7.04576 4.73703 7.13518 4.46616C7.14013 4.45109 7.14013 4.44106 7.14512 4.43607C6.43976 4.44106 6.23609 4.43607 6.16654 4.421V4.41595ZM8.99998 8.57386C8.65721 8.56882 8.53304 8.56882 8.1307 8.58888L8.11577 8.55879C8.15053 8.40327 8.19027 8.25284 8.22008 8.09732L8.26976 7.88664C8.34425 7.56063 8.41381 7.17437 8.42374 7.05903C8.43368 6.9888 8.4535 6.81327 8.25483 6.81327C8.1704 6.81327 8.08597 6.85335 7.99659 6.89348C7.94686 7.06906 7.85249 7.56063 7.80281 7.78133C7.70345 8.25283 7.69851 8.30799 7.65382 8.53877L7.62401 8.56882C7.27136 8.56383 7.14718 8.56383 6.73985 8.58389L6.71998 8.54876C6.78953 8.26786 6.85409 7.98696 6.9187 7.70607C7.08757 6.94863 7.1323 6.65775 7.17694 6.27149L7.21174 6.25143C7.60913 6.19628 7.7035 6.1812 8.13565 6.09595L8.1704 6.13608L8.10584 6.37685C8.18033 6.33173 8.24989 6.28656 8.32438 6.25143C8.52805 6.15111 8.75158 6.12101 8.87576 6.12101C9.06449 6.12101 9.27315 6.17621 9.35758 6.39691C9.43707 6.59251 9.38734 6.83328 9.27809 7.30983L9.22347 7.5506C9.11417 8.08229 9.09435 8.17757 9.03469 8.53872L8.99499 8.56882L8.99998 8.57386ZM10.3947 8.57516C10.1861 8.57516 10.052 8.57016 9.92288 8.57516C9.79371 8.57516 9.66953 8.58524 9.47581 8.59023L9.46587 8.57516L9.45593 8.55509C9.51056 8.35445 9.53542 8.28423 9.56523 8.214C9.59005 8.14378 9.61486 8.07355 9.66459 7.86792C9.72416 7.60205 9.7639 7.41648 9.78872 7.25093C9.81853 7.09541 9.83345 6.96005 9.85333 6.80453L9.86821 6.7945L9.88309 6.77948C10.0917 6.74938 10.2209 6.72932 10.355 6.70925C10.4891 6.68919 10.6282 6.66413 10.8418 6.624L10.8517 6.64407L10.8567 6.66413L10.7375 7.16069C10.6978 7.32624 10.658 7.49175 10.6233 7.6573C10.5487 8.00842 10.514 8.13884 10.4991 8.23412C10.4792 8.3244 10.4742 8.36957 10.4444 8.55015L10.4245 8.56517L10.4047 8.58024L10.3947 8.57516ZM12.5999 7.34276C12.5851 7.43304 12.5056 7.76914 12.4013 7.90959C12.3267 8.0149 12.2423 8.08013 12.1429 8.08013C12.1132 8.08013 11.9442 8.08013 11.9393 7.82429C11.9393 7.69892 11.9641 7.56845 11.9939 7.42805C12.0834 7.02173 12.1927 6.68568 12.4658 6.68568C12.6794 6.68568 12.6943 6.93648 12.5999 7.34276ZM13.499 7.38288C13.6182 6.85119 13.5238 6.60039 13.4096 6.44991C13.2308 6.21917 12.9129 6.14395 12.5851 6.14395C12.3863 6.14395 11.9194 6.16402 11.5519 6.50511C11.2886 6.75087 11.1644 7.08696 11.0949 7.40799C11.0203 7.734 10.9359 8.3209 11.4724 8.5416C11.6362 8.61183 11.8747 8.63184 12.0287 8.63184C12.4211 8.63184 12.8235 8.52154 13.1264 8.20051C13.3599 7.93968 13.4642 7.54844 13.5039 7.38288H13.499ZM21.8716 8.63472C21.4544 8.62973 21.3352 8.62973 20.9526 8.6498L20.9278 8.6197C21.0321 8.22341 21.1364 7.82213 21.2308 7.42085C21.35 6.89919 21.3798 6.67848 21.4196 6.37253L21.4493 6.34748C21.8616 6.28728 21.9759 6.27226 22.408 6.192L22.418 6.22709C22.3385 6.55815 22.264 6.88421 22.1845 7.21023C22.0256 7.89744 21.9709 8.24856 21.9114 8.60972L21.8716 8.63981V8.63472Z" fill="#FEFEFE"/>
<path d="M21.2717 7.40969C21.2518 7.49494 21.1723 7.83603 21.068 7.97648C20.9984 8.0768 20.8296 8.14203 20.7352 8.14203C20.7054 8.14203 20.5415 8.14203 20.5315 7.89123C20.5315 7.76581 20.5564 7.63539 20.5862 7.49494C20.6756 7.0987 20.7849 6.76261 21.0581 6.76261C21.2717 6.76261 21.366 7.00837 21.2717 7.41469V7.40969ZM22.0913 7.44982C22.2104 6.91813 21.7237 7.4047 21.6492 7.22912C21.5299 6.95321 21.6044 6.40145 21.1276 6.21589C20.9438 6.14062 20.5117 6.23595 20.1441 6.57704C19.8858 6.81781 19.7566 7.15385 19.6871 7.47488C19.6125 7.7959 19.5282 8.38784 20.0596 8.59347C20.2286 8.66869 20.3825 8.68875 20.5365 8.67872C21.073 8.64862 21.4803 7.83099 21.7833 7.50996C22.0167 7.25417 22.0565 7.60529 22.0913 7.44982ZM15.8541 8.57365C15.5114 8.56861 15.3922 8.56861 14.9899 8.58867L14.9749 8.55857C15.0097 8.40305 15.0495 8.25262 15.0842 8.0971L15.1289 7.88643C15.2035 7.56041 15.2779 7.17416 15.2828 7.05881C15.2928 6.98859 15.3127 6.81305 15.1189 6.81305C15.0345 6.81305 14.9452 6.85313 14.8607 6.89326C14.8159 7.06885 14.7166 7.56041 14.6669 7.78112C14.5725 8.25262 14.5626 8.30777 14.5179 8.53856L14.4881 8.56861C14.1355 8.56361 14.0113 8.56361 13.604 8.58368L13.5841 8.54854C13.6536 8.26765 13.7182 7.98675 13.7828 7.70585C13.9517 6.94841 13.9915 6.65753 14.041 6.27128L14.0708 6.25121C14.4683 6.19606 14.5676 6.18099 14.9947 6.09574L15.0296 6.13587L14.97 6.37664C15.0395 6.33152 15.114 6.28635 15.1836 6.25121C15.3872 6.15089 15.6107 6.1208 15.7349 6.1208C15.9237 6.1208 16.1274 6.176 16.2167 6.3967C16.2962 6.5923 16.2416 6.83307 16.1323 7.30961L16.0776 7.55038C15.9634 8.08208 15.9485 8.17736 15.8888 8.53851L15.8492 8.56861L15.8541 8.57365ZM18.8302 4.42073L18.5421 4.42577C17.797 4.4358 17.499 4.43076 17.3798 4.41574C17.3698 4.47094 17.35 4.56622 17.35 4.56622C17.35 4.56622 17.0817 5.81019 17.0817 5.81518C17.0817 5.81518 16.4459 8.46363 16.4161 8.58901C17.0668 8.57897 17.3301 8.57897 17.4443 8.59405C17.4692 8.46862 17.6182 7.73129 17.6232 7.73129C17.6232 7.73129 17.7523 7.18957 17.7573 7.1695C17.7573 7.1695 17.797 7.1143 17.8367 7.08924H17.8963C18.4577 7.08924 19.0885 7.08925 19.5853 6.7231C19.923 6.4723 20.1515 6.09608 20.2558 5.64464C20.2807 5.53429 20.3005 5.40387 20.3005 5.26846C20.3005 5.09288 20.2658 4.92238 20.1664 4.78693C19.913 4.43077 19.4113 4.42577 18.8302 4.42073ZM19.2027 5.7199C19.1431 5.99576 18.9643 6.23153 18.7358 6.34189C18.547 6.43717 18.3186 6.4472 18.0801 6.4472H17.9262L17.9361 6.38701C17.9361 6.38701 18.2192 5.14304 18.2192 5.14808L18.2291 5.08285L18.2341 5.03269L18.3484 5.04277C18.3484 5.04277 18.9345 5.09288 18.9444 5.09288C19.1729 5.18317 19.2723 5.4139 19.2027 5.7199ZM25.3088 6.13587L25.2741 6.09574C24.8518 6.18099 24.7723 6.19606 24.3849 6.25126L24.3552 6.28131C24.3552 6.28635 24.3502 6.29139 24.3502 6.30137V6.29638C24.0621 6.97352 24.067 6.82808 23.8336 7.35977C23.8336 7.33467 23.8336 7.31965 23.8286 7.29454L23.769 6.14086L23.7343 6.10073C23.2872 6.18603 23.2772 6.20105 22.8699 6.25625L22.8401 6.28635C22.8351 6.30137 22.8351 6.31645 22.8351 6.33147L22.8401 6.33651C22.8898 6.60233 22.8799 6.54214 22.9295 6.95849C22.9543 7.16412 22.9842 7.36981 23.009 7.57045C23.0487 7.91153 23.0736 8.07704 23.1233 8.59371C22.845 9.05513 22.7804 9.23072 22.5123 9.63694L22.5271 9.67707C22.9296 9.66209 23.019 9.66209 23.317 9.66209L23.3816 9.58683C23.6051 9.10035 25.3139 6.14091 25.3139 6.14091L25.3088 6.13587ZM10.7782 6.46813C11.0067 6.30761 11.0365 6.08691 10.8428 5.97157C10.6491 5.85617 10.3064 5.89131 10.0778 6.05182C9.84934 6.20734 9.82452 6.428 10.0183 6.54838C10.207 6.65878 10.5497 6.62864 10.7782 6.46813Z" fill="#FEFEFE"/>
<path d="M23.3155 9.65323L22.9826 10.2301C22.8783 10.4257 22.6796 10.5762 22.3717 10.5762L21.8402 10.5662L21.9942 10.0445H22.0985C22.1531 10.0445 22.1928 10.0395 22.2226 10.0245C22.2524 10.0144 22.2674 9.99437 22.2922 9.96427L22.4909 9.64828H23.3204L23.3155 9.65323Z" fill="#FEFEFE"/>
</svg>
