<svg width="1921" height="621" viewBox="0 0 1921 621" fill="none" xmlns="http://www.w3.org/2000/svg">
<path d="M729 10.96L477.63 610.7H313.63L189.93 132.08C182.42 102.6 175.89 91.8 153.05 79.38C115.76 59.15 54.18 40.17 0 28.39L3.67999 10.96H267.67C301.32 10.96 331.57 33.36 339.21 72.11L404.54 419.15L566 10.95H729V10.96ZM1371.58 414.89C1372.24 256.6 1152.7 247.88 1154.21 177.17C1154.68 155.65 1175.17 132.77 1220.02 126.93C1242.25 124.02 1303.5 121.8 1372.97 153.77L1400.22 26.59C1362.89 13.04 1314.86 0 1255.1 0C1101.75 0 993.83 81.52 992.92 198.25C991.93 284.59 1069.95 332.77 1128.73 361.46C1189.2 390.84 1209.49 409.72 1209.26 436C1208.83 476.23 1161.03 493.99 1116.36 494.69C1038.38 495.89 993.13 473.59 957.06 456.82L928.94 588.21C965.19 604.84 1032.1 619.35 1101.47 620.08C1264.46 620.08 1371.08 539.57 1371.58 414.89ZM1776.52 610.7H1920.01L1794.76 10.96H1662.32C1632.54 10.96 1607.42 28.3 1596.3 54.96L1363.49 610.7H1526.4L1558.74 521.12H1757.79L1776.52 610.7ZM1603.41 398.2L1685.07 173.02L1732.07 398.2H1603.41ZM950.67 10.96L822.38 610.7H667.24L795.58 10.96H950.67Z" fill="#1434CB"/>
</svg>
