<svg width="12" height="16" viewBox="0 0 12 16" fill="none" xmlns="http://www.w3.org/2000/svg">
<path d="M9.45813 6.91073V4.07329C9.45813 1.98683 7.76135 0.290039 5.67488 0.290039C3.58842 0.290039 1.89163 1.98683 1.89163 4.07329V6.91073C1.38994 6.91073 0.908793 7.11003 0.554045 7.46478C0.199296 7.81953 0 8.30067 0 8.80236V13.5314C0 14.0331 0.199296 14.5143 0.554045 14.869C0.908793 15.2238 1.38994 15.4231 1.89163 15.4231H9.45813C9.95983 15.4231 10.441 15.2238 10.7957 14.869C11.1505 14.5143 11.3498 14.0331 11.3498 13.5314V8.80236C11.3498 8.30067 11.1505 7.81953 10.7957 7.46478C10.441 7.11003 9.95983 6.91073 9.45813 6.91073ZM3.07389 4.07329C3.07389 2.63849 4.24008 1.47231 5.67488 1.47231C7.10968 1.47231 8.27587 2.63849 8.27587 4.07329V6.91073H3.07389V4.07329ZM10.1675 13.6733L9.60001 14.2408H1.74975L1.18227 13.6733V8.66049L1.74975 8.093H9.60001L10.1675 8.66049V13.6733Z" fill="currentColor"/>
</svg>
