<svg width="12" height="12" viewBox="0 0 12 13" fill="none" xmlns="http://www.w3.org/2000/svg">
<path d="M7.10795 6.27594L11.8169 1.56694C11.9262 1.44811 11.9854 1.29167 11.982 1.13028C11.9787 0.968887 11.9131 0.815022 11.7991 0.700812C11.685 0.586602 11.5312 0.520876 11.3698 0.517359C11.2084 0.513842 11.0519 0.572805 10.9329 0.681936L6.24395 5.37094H5.75595L1.06695 0.682936C1.00884 0.624892 0.939864 0.578861 0.863965 0.547473C0.788066 0.516085 0.706728 0.499954 0.624594 0.5C0.542461 0.500047 0.461141 0.51627 0.385277 0.547744C0.309414 0.579218 0.240492 0.625326 0.182448 0.683436C0.124403 0.741546 0.0783731 0.81052 0.0469849 0.886419C0.0155967 0.962318 -0.000534611 1.04366 -0.000488181 1.12579C-0.000394413 1.29167 0.0655896 1.45071 0.182948 1.56794L4.86995 6.25394V6.74494L0.182948 11.4319C0.0736821 11.5508 0.014542 11.7072 0.0178768 11.8686C0.0212117 12.03 0.0867633 12.1839 0.200844 12.2981C0.314925 12.4123 0.468716 12.478 0.630104 12.4815C0.791491 12.485 0.947999 12.4261 1.06695 12.3169L5.75395 7.62994H6.24495L10.9319 12.3169C11.0495 12.434 11.2086 12.4997 11.3744 12.4997C11.5403 12.4997 11.6994 12.434 11.8169 12.3169C11.9343 12.1996 12.0001 12.0404 12.0001 11.8744C12.0001 11.7085 11.9343 11.5493 11.8169 11.4319L7.10795 6.72294V6.27594Z" fill="#C50042"/>
</svg>
