<svg width="251" height="163" fill="none" xmlns="http://www.w3.org/2000/svg"><g filter="url(#a)"><path d="M50.774 95.265c.151 0 .3.007.451.01v-.01c0-13.072 10.794-23.668 24.11-23.668 10.813 0 19.963 6.988 23.02 16.614a16.778 16.778 0 0 1 7.726-1.872c9.171 0 16.605 7.298 16.605 16.301 0 1.467-.2 2.887-.57 4.239a13.578 13.578 0 0 1 5.446-1.139c7.421 0 13.438 5.907 13.438 13.192 0 7.286-6.017 13.192-13.438 13.192H50.774c-10.368 0-18.774-8.251-18.774-18.43 0-10.178 8.406-18.43 18.774-18.43Z" fill="#fff"/></g><g filter="url(#b)"><path d="M200.743 46.264c-.147 0-.293.008-.439.011v-.011c0-12.857-10.497-23.28-23.446-23.28-10.515 0-19.414 6.874-22.387 16.342a16.169 16.169 0 0 0-7.513-1.841c-8.918 0-16.148 7.178-16.148 16.034 0 1.442.195 2.839.554 4.169a13.087 13.087 0 0 0-5.296-1.12c-7.217 0-13.068 5.81-13.068 12.976 0 7.166 5.851 12.975 13.068 12.975h74.675c10.083 0 18.257-8.116 18.257-18.127 0-10.012-8.174-18.128-18.257-18.128Z" fill="#fff"/></g><g filter="url(#c)"><path d="M147.851 104.417c.088 0 .174.005.261.007v-.007c0-7.714 6.239-13.967 13.935-13.967 6.249 0 11.538 4.123 13.305 9.805a9.531 9.531 0 0 1 4.465-1.105c5.301 0 9.598 4.307 9.598 9.62 0 .866-.116 1.704-.33 2.502a7.712 7.712 0 0 1 3.148-.672c4.29 0 7.767 3.485 7.767 7.785 0 4.3-3.477 7.786-7.767 7.786h-44.382c-5.993 0-10.851-4.87-10.851-10.877 0-6.007 4.858-10.877 10.851-10.877Z" fill="#fff"/></g><path d="M131.403 65.75V40.837H94.824c-3.769 0-6.824 3.014-6.824 6.732v81.792c0 3.718 3.055 6.732 6.824 6.732h61.832c3.769 0 6.824-3.014 6.824-6.732v-56.88h-25.253c-3.769 0-6.824-3.013-6.824-6.731Z" fill="#0090ED"/><path d="M131.402 40.837V65.75c0 3.718 3.056 6.732 6.824 6.732h25.254c0-3.222-1.297-6.311-3.606-8.589l-19.765-19.498a12.4 12.4 0 0 0-8.707-3.558Z" fill="#00B3F4"/><path d="m106.666 110.307.704 3.029h-2.994l.705-3.029-2.34 2.11-1.46-2.581 2.995-.894-2.995-.943 1.535-2.532 2.265 2.11-.705-3.028h2.994l-.729 3.078 2.365-2.16 1.484 2.582-3.094.918 3.094.918-1.534 2.532-2.29-2.11Z" fill="#fff" class="animate-fade-out-in animation-delay-700"/><path d="m119.9 110.307.705 3.029h-2.994l.704-3.029-2.34 2.11-1.459-2.581 2.994-.894-2.994-.943 1.535-2.532 2.264 2.11-.704-3.028h2.994l-.73 3.078 2.365-2.16 1.485 2.582-3.095.918 3.095.918-1.535 2.532-2.29-2.11Z" fill="#fff" class="animate-fade-out-in animation-delay-500"/><path d="m133.139 110.307.704 3.029h-2.994l.704-3.029-2.34 2.11-1.459-2.581 2.994-.894-2.994-.943 1.535-2.532 2.264 2.11-.704-3.028h2.994l-.73 3.078 2.366-2.16 1.484 2.582-3.095.918 3.095.918-1.535 2.532-2.289-2.11Z" fill="#fff" class="animate-fade-out-in animation-delay-300"/><path d="m146.377 110.307.704 3.029h-2.994l.705-3.029-2.34 2.11-1.46-2.581 2.994-.894-2.994-.943 1.535-2.532 2.265 2.11-.705-3.028h2.994l-.729 3.078 2.365-2.16 1.484 2.582-3.094.918 3.094.918-1.534 2.532-2.29-2.11ZM106.666 96.656l.704 3.028h-2.994l.705-3.028-2.34 2.11-1.46-2.582 2.995-.893-2.995-.943 1.535-2.532 2.265 2.11-.705-3.028h2.994l-.729 3.078 2.365-2.16 1.484 2.581-3.094.919 3.094.918-1.534 2.532-2.29-2.11ZM119.9 96.656l.705 3.028h-2.994l.704-3.028-2.34 2.11-1.459-2.582 2.994-.893-2.994-.943 1.535-2.532 2.264 2.11-.704-3.028h2.994l-.73 3.078 2.365-2.16 1.485 2.581-3.095.919 3.095.918-1.535 2.532-2.29-2.11Z" fill="#fff" class="animate-fade-out-in"/><path d="m133.139 96.656.704 3.028h-2.994l.704-3.028-2.34 2.11-1.459-2.582 2.994-.893-2.994-.943 1.535-2.532 2.264 2.11-.704-3.028h2.994l-.73 3.078 2.366-2.16 1.484 2.581-3.095.919 3.095.918-1.535 2.532-2.289-2.11Z" fill="#fff" class="animate-fade-out-in animation-delay-1000"/><path d="m146.377 96.656.704 3.028h-2.994l.705-3.028-2.34 2.11-1.46-2.582 2.994-.893-2.994-.943 1.535-2.532 2.265 2.11-.705-3.028h2.994l-.729 3.078 2.365-2.16 1.484 2.581-3.094.919 3.094.918-1.534 2.532-2.29-2.11Z" fill="#fff" class="animate-fade-out-in animation-delay-700"/><path d="m106.666 83.005.704 3.028h-2.994l.705-3.028-2.34 2.11-1.46-2.582 2.995-.893-2.995-.943 1.535-2.532 2.265 2.11-.705-3.029h2.994l-.729 3.078 2.365-2.16 1.484 2.582-3.094.919 3.094.918-1.534 2.532-2.29-2.11ZM119.9 83.005l.705 3.028h-2.994l.704-3.028-2.34 2.11-1.459-2.582 2.994-.893-2.994-.943 1.535-2.532 2.264 2.11-.704-3.029h2.994l-.73 3.078 2.365-2.16 1.485 2.582-3.095.919 3.095.918-1.535 2.532-2.29-2.11Z" fill="#fff" class="animate-fade-out-in animation-delay-300"/><path d="m133.139 83.005.704 3.028h-2.994l.704-3.028-2.34 2.11-1.459-2.582 2.994-.893-2.994-.943 1.535-2.532 2.264 2.11-.704-3.029h2.994l-.73 3.078 2.366-2.16 1.484 2.582-3.095.919 3.095.918-1.535 2.532-2.289-2.11Z" fill="#fff" class="animate-fade-out-in animation-delay-1000"/><path d="m146.377 83.005.704 3.028h-2.994l.705-3.028-2.34 2.11-1.46-2.582 2.994-.893-2.994-.943 1.535-2.532 2.265 2.11-.705-3.029h2.994l-.729 3.078 2.365-2.16 1.484 2.582-3.094.919 3.094.918-1.534 2.532-2.29-2.11Z" fill="#fff" class="animate-fade-out-in animation-delay-700"/><path d="m106.666 69.354.704 3.028h-2.994l.705-3.028-2.34 2.11-1.46-2.582 2.995-.893-2.995-.943 1.535-2.532 2.265 2.11-.705-3.029h2.994l-.729 3.078 2.365-2.16 1.484 2.582-3.094.919 3.094.918-1.534 2.532-2.29-2.11Z" fill="#fff" class="animate-fade-out-in animation-delay-300"/><path d="m119.9 69.354.705 3.028h-2.994l.704-3.028-2.34 2.11-1.459-2.582 2.994-.893-2.994-.943 1.535-2.532 2.264 2.11-.704-3.029h2.994l-.73 3.078 2.365-2.16 1.485 2.582-3.095.919 3.095.918-1.535 2.532-2.29-2.11Z" fill="#fff" class="animate-fade-out-in"/><g class="animate-spin-xl origin-[5.75rem_7.88rem]"><ellipse cx="92" cy="126.171" rx="22" ry="21.829" fill="#fff"/><path d="M87.918 117.23a1.48 1.48 0 0 0-2.2.002l-6.89 7.47c-.5.542-.5 1.403 0 1.945l6.89 7.47a1.48 1.48 0 0 0 2.202 0 1.691 1.691 0 0 0 0-2.269l-5.69-6.178 5.698-6.178a1.688 1.688 0 0 0-.01-2.262ZM95.082 117.23a1.48 1.48 0 0 1 2.2.002l6.89 7.47c.5.542.5 1.403 0 1.945l-6.89 7.47a1.48 1.48 0 0 1-2.202 0 1.691 1.691 0 0 1 0-2.269l5.69-6.178-5.698-6.178a1.688 1.688 0 0 1 .01-2.262Z" fill="#E31587" stroke="#E31587"/></g><defs><filter id="a" x="0" y="37.597" width="173" height="124.527" filterUnits="userSpaceOnUse" color-interpolation-filters="sRGB"><feFlood flood-opacity="0" result="BackgroundImageFix"/><feColorMatrix in="SourceAlpha" values="0 0 0 0 0 0 0 0 0 0 0 0 0 0 0 0 0 0 127 0" result="hardAlpha"/><feOffset dy="-2"/><feGaussianBlur stdDeviation="16"/><feComposite in2="hardAlpha" operator="out"/><feColorMatrix values="0 0 0 0 0 0 0 0 0 0.564706 0 0 0 0 0.929412 0 0 0 0.16 0"/><feBlend in2="BackgroundImageFix" result="effect1_dropShadow_5165_11537"/><feBlend in="SourceGraphic" in2="effect1_dropShadow_5165_11537" result="shape"/></filter><filter id="b" x="81" y="-13.016" width="170" height="123.535" filterUnits="userSpaceOnUse" color-interpolation-filters="sRGB"><feFlood flood-opacity="0" result="BackgroundImageFix"/><feColorMatrix in="SourceAlpha" values="0 0 0 0 0 0 0 0 0 0 0 0 0 0 0 0 0 0 127 0" result="hardAlpha"/><feOffset dy="-4"/><feGaussianBlur stdDeviation="16"/><feComposite in2="hardAlpha" operator="out"/><feColorMatrix values="0 0 0 0 0 0 0 0 0 0.564706 0 0 0 0 0.929412 0 0 0 0.12 0"/><feBlend in2="BackgroundImageFix" result="effect1_dropShadow_5165_11537"/><feBlend in="SourceGraphic" in2="effect1_dropShadow_5165_11537" result="shape"/></filter><filter id="c" x="105" y="60.45" width="127" height="99.721" filterUnits="userSpaceOnUse" color-interpolation-filters="sRGB"><feFlood flood-opacity="0" result="BackgroundImageFix"/><feColorMatrix in="SourceAlpha" values="0 0 0 0 0 0 0 0 0 0 0 0 0 0 0 0 0 0 127 0" result="hardAlpha"/><feOffset dy="2"/><feGaussianBlur stdDeviation="16"/><feComposite in2="hardAlpha" operator="out"/><feColorMatrix values="0 0 0 0 0 0 0 0 0 0.564706 0 0 0 0 0.929412 0 0 0 0.16 0"/><feBlend in2="BackgroundImageFix" result="effect1_dropShadow_5165_11537"/><feBlend in="SourceGraphic" in2="effect1_dropShadow_5165_11537" result="shape"/></filter></defs></svg>