<svg height="12" viewBox="0 0 13 12" width="13" xmlns="http://www.w3.org/2000/svg"><path d="m11.7000488.5c-.441773 0-.7999512.35177537-.7999512.78571272v1.89985337c-1.3873953-2.2814652-4.23803135-3.26111245-6.77096678-2.32692064-2.53293543.93419573-4.02254353 3.51459418-3.53820239 6.12914166.48434175 2.61453767 2.8038772 4.51415529 5.50950209 4.51221289 1.48596932.0041031 2.91184231-.5759493 3.95975838-1.61073294.3031515-.30829403.2988218-.79835288-.0097494-1.10142192-.30857119-.30307886-.80750074-.30734135-1.12138159-.00957587-1.23572459 1.23634843-3.14827788 1.53569513-4.71403233.73784318-1.56576445-.79785199-2.41794245-2.50602092-2.10044183-4.21026128.31750063-1.70424037 1.73030441-3.00533153 3.4822575-3.20689631 1.75195309-.2015746 3.43265053.74357888 4.14256721 2.32960876h-2.03907557c-.44180304 0-.79995118.35177341-.79995118.78571273s.35814814.78571272.79995118.78571272h3.99971591c.4418731 0 .7999512-.3517734.7999512-.78571272v-3.92856363c0-.43393735-.3580781-.78571272-.7999512-.78571272z"/></svg>
